<?xml version="1.0" encoding="us-ascii" standalone="no"?><svg xmlns="http://www.w3.org/2000/svg" xmlns:xlink="http://www.w3.org/1999/xlink" contentStyleType="text/css" height="413px" preserveAspectRatio="none" style="width:739px;height:413px;background:#FFFFFF;" version="1.1" viewBox="0 0 739 413" width="739px" zoomAndPan="magnify"><defs/><g><text fill="#000000" font-family="sans-serif" font-size="20" font-weight="bold" lengthAdjust="spacing" textLength="223" x="45" y="29.3359">ClassOrInterfaceType</text><text fill="#000000" font-family="sans-serif" font-size="20" font-weight="bold" lengthAdjust="spacing" textLength="104" x="275" y="29.3359">simplified</text><text fill="#000000" font-family="sans-serif" font-size="20" font-weight="bold" lengthAdjust="spacing" textLength="38" x="386" y="29.3359">and</text><text fill="#000000" font-family="sans-serif" font-size="20" font-weight="bold" lengthAdjust="spacing" textLength="249" x="431" y="29.3359">grouped per namespace</text><!--cluster preadapter--><g id="cluster_preadapter"><a href="preadapter-diagram-simplified-grouped-per-namespace.svg" target="_top" title="preadapter-diagram-simplified-grouped-per-namespace.svg" xlink:actuate="onRequest" xlink:href="preadapter-diagram-simplified-grouped-per-namespace.svg" xlink:show="new" xlink:title="preadapter-diagram-simplified-grouped-per-namespace.svg" xlink:type="simple"><path d="M506.5,72.5547 L584.5,72.5547 A3.75,3.75 0 0 1 587,75.0547 L594,95.043 L729.5,95.043 A2.5,2.5 0 0 1 732,97.543 L732,236.0547 A2.5,2.5 0 0 1 729.5,238.5547 L506.5,238.5547 A2.5,2.5 0 0 1 504,236.0547 L504,75.0547 A2.5,2.5 0 0 1 506.5,72.5547 " fill="none" style="stroke:#000000;stroke-width:1.5;"/><line style="stroke:#000000;stroke-width:1.5;" x1="504" x2="594" y1="95.043" y2="95.043"/><text fill="#000000" font-family="sans-serif" font-size="14" font-weight="bold" lengthAdjust="spacing" textLength="77" x="508" y="88.0898">preadapter</text></a></g><!--cluster domain--><g id="cluster_domain"><a href="preadapter.domain-diagram-simplified-grouped-per-namespace.svg" target="_top" title="preadapter.domain-diagram-simplified-grouped-per-namespace.svg" xlink:actuate="onRequest" xlink:href="preadapter.domain-diagram-simplified-grouped-per-namespace.svg" xlink:show="new" xlink:title="preadapter.domain-diagram-simplified-grouped-per-namespace.svg" xlink:type="simple"><path d="M530.5,115.5547 L585.5,115.5547 A3.75,3.75 0 0 1 588,118.0547 L595,138.043 L705.5,138.043 A2.5,2.5 0 0 1 708,140.543 L708,212.0547 A2.5,2.5 0 0 1 705.5,214.5547 L530.5,214.5547 A2.5,2.5 0 0 1 528,212.0547 L528,118.0547 A2.5,2.5 0 0 1 530.5,115.5547 " fill="none" style="stroke:#000000;stroke-width:1.5;"/><line style="stroke:#000000;stroke-width:1.5;" x1="528" x2="595" y1="138.043" y2="138.043"/><text fill="#000000" font-family="sans-serif" font-size="14" font-weight="bold" lengthAdjust="spacing" textLength="54" x="532" y="131.0898">domain</text></a></g><!--class ASTVisitorDebug--><a href="preadapter.domain.ASTVisitorDebug-diagram-simplified-grouped-per-namespace.svg" target="_top" title="preadapter.domain.ASTVisitorDebug-diagram-simplified-grouped-per-namespace.svg" xlink:actuate="onRequest" xlink:href="preadapter.domain.ASTVisitorDebug-diagram-simplified-grouped-per-namespace.svg" xlink:show="new" xlink:title="preadapter.domain.ASTVisitorDebug-diagram-simplified-grouped-per-namespace.svg" xlink:type="simple"><g id="elem_ASTVisitorDebug"><rect codeLine="9" fill="#F1F1F1" height="48" id="ASTVisitorDebug" rx="2.5" ry="2.5" style="stroke:#181818;stroke-width:0.5;" width="148" x="544" y="150.5547"/><ellipse cx="559" cy="166.5547" fill="#ADD1B2" rx="11" ry="11" style="stroke:#181818;stroke-width:1.0;"/><path d="M561.4731,172.6978 Q560.8921,172.9966 560.2529,173.146 Q559.6138,173.2954 558.9082,173.2954 Q556.4014,173.2954 555.0815,171.6436 Q553.7617,169.9917 553.7617,166.8706 Q553.7617,163.7412 555.0815,162.0894 Q556.4014,160.4375 558.9082,160.4375 Q559.6138,160.4375 560.2612,160.5869 Q560.9087,160.7363 561.4731,161.0352 L561.4731,163.7578 Q560.8423,163.1768 560.2488,162.907 Q559.6553,162.6372 559.0244,162.6372 Q557.6797,162.6372 556.9949,163.7039 Q556.3101,164.7705 556.3101,166.8706 Q556.3101,168.9624 556.9949,170.0291 Q557.6797,171.0957 559.0244,171.0957 Q559.6553,171.0957 560.2488,170.8259 Q560.8423,170.5562 561.4731,169.9751 Z " fill="#000000"/><text fill="#000000" font-family="sans-serif" font-size="14" lengthAdjust="spacing" textLength="116" x="573" y="171.8457">ASTVisitorDebug</text><line style="stroke:#181818;stroke-width:0.5;" x1="545" x2="691" y1="182.5547" y2="182.5547"/><line style="stroke:#181818;stroke-width:0.5;" x1="545" x2="691" y1="190.5547" y2="190.5547"/></g></a><g id="elem_FloatingNote"><path d="M6,50.5547 L6,298.2129 L488,298.2129 L488,60.5547 L478,50.5547 L6,50.5547 " fill="#FEFFDD" style="stroke:#181818;stroke-width:0.5;"/><path d="M478,50.5547 L478,60.5547 L488,60.5547 L478,50.5547 " fill="#FEFFDD" style="stroke:#181818;stroke-width:1.0;"/><text fill="#000000" font-family="sans-serif" font-size="13" lengthAdjust="spacing" textLength="120" x="12" y="68.123">Your are analyzing:</text><text fill="#000000" font-family="sans-serif" font-size="13" lengthAdjust="spacing" textLength="134" x="12" y="83.4336">ClassOrInterfaceType</text><text fill="#000000" font-family="sans-serif" font-size="13" font-weight="bold" lengthAdjust="spacing" textLength="67" x="150" y="83.4336">simplified</text><text fill="#000000" font-family="sans-serif" font-size="13" lengthAdjust="spacing" textLength="23" x="221" y="83.4336">and</text><text fill="#000000" font-family="sans-serif" font-size="13" font-weight="bold" lengthAdjust="spacing" textLength="166" x="248" y="83.4336">grouped per namespace</text><text fill="#000000" font-family="sans-serif" font-size="13" lengthAdjust="spacing" textLength="4" x="12" y="98.7441">&#160;</text><text fill="#000000" font-family="sans-serif" font-size="13" lengthAdjust="spacing" textLength="229" x="12" y="129.3652">You can click either the namespaces</text><text fill="#000000" font-family="sans-serif" font-size="13" lengthAdjust="spacing" textLength="266" x="12" y="144.6758">or class names for filtering them and their</text><text fill="#000000" font-family="sans-serif" font-size="13" lengthAdjust="spacing" textLength="130" x="12" y="159.9863">direct dependencies.</text><text fill="#000000" font-family="sans-serif" font-size="13" lengthAdjust="spacing" textLength="4" x="12" y="175.2969">&#160;</text><line style="stroke:#181818;stroke-width:1.0;" x1="7" x2="231" y1="109.1416" y2="109.1416"/><line style="stroke:#181818;stroke-width:1.0;" x1="7" x2="231" y1="111.1416" y2="111.1416"/><text fill="#000000" font-family="sans-serif" font-size="13" lengthAdjust="spacing" textLength="32" x="231" y="113.5547">Filter</text><line style="stroke:#181818;stroke-width:1.0;" x1="263" x2="487" y1="109.1416" y2="109.1416"/><line style="stroke:#181818;stroke-width:1.0;" x1="263" x2="487" y1="111.1416" y2="111.1416"/><ellipse cx="17.5" cy="205.1602" fill="#000000" rx="2.5" ry="2.5" style="stroke:#000000;stroke-width:0.0;"/><text fill="#000000" font-family="sans-serif" font-size="13" lengthAdjust="spacing" textLength="134" x="24" y="209.918">ClassOrInterfaceType</text><text fill="#000000" font-family="sans-serif" font-size="13" font-weight="bold" lengthAdjust="spacing" textLength="55" x="162" y="209.918">detailed</text><text fill="#000000" font-family="sans-serif" font-size="13" lengthAdjust="spacing" textLength="23" x="221" y="209.918">and</text><text fill="#000000" font-family="sans-serif" font-size="13" font-weight="bold" lengthAdjust="spacing" textLength="166" x="248" y="209.918">grouped per namespace</text><text fill="#000000" font-family="sans-serif" font-size="13" lengthAdjust="spacing" textLength="4" x="414" y="209.918">:</text><text fill="#000000" font-family="sans-serif" font-size="13" lengthAdjust="spacing" textLength="12" x="12" y="225.2285">&#160;&#160;&#160;</text><a href="ClassOrInterfaceType-diagram-detailed-grouped-per-namespace.svg" target="_top" title="ClassOrInterfaceType-diagram-detailed-grouped-per-namespace.svg" xlink:actuate="onRequest" xlink:href="ClassOrInterfaceType-diagram-detailed-grouped-per-namespace.svg" xlink:show="new" xlink:title="ClassOrInterfaceType-diagram-detailed-grouped-per-namespace.svg" xlink:type="simple"><text fill="#0000FF" font-family="sans-serif" font-size="13" lengthAdjust="spacing" text-decoration="underline" textLength="443" x="24" y="225.2285">ClassOrInterfaceType-diagram-detailed-grouped-per-namespace.svg</text></a><ellipse cx="17.5" cy="235.7813" fill="#000000" rx="2.5" ry="2.5" style="stroke:#000000;stroke-width:0.0;"/><text fill="#000000" font-family="sans-serif" font-size="13" lengthAdjust="spacing" textLength="78" x="24" y="240.5391">Full diagram</text><text fill="#000000" font-family="sans-serif" font-size="13" font-weight="bold" lengthAdjust="spacing" textLength="67" x="106" y="240.5391">simplified</text><text fill="#000000" font-family="sans-serif" font-size="13" lengthAdjust="spacing" textLength="23" x="177" y="240.5391">and</text><text fill="#000000" font-family="sans-serif" font-size="13" font-weight="bold" lengthAdjust="spacing" textLength="166" x="204" y="240.5391">grouped per namespace</text><text fill="#000000" font-family="sans-serif" font-size="13" lengthAdjust="spacing" textLength="4" x="370" y="240.5391">:</text><text fill="#000000" font-family="sans-serif" font-size="13" lengthAdjust="spacing" textLength="12" x="12" y="255.8496">&#160;&#160;&#160;</text><a href="full-diagram-simplified-grouped-per-namespace.svg" target="_top" title="full-diagram-simplified-grouped-per-namespace.svg" xlink:actuate="onRequest" xlink:href="full-diagram-simplified-grouped-per-namespace.svg" xlink:show="new" xlink:title="full-diagram-simplified-grouped-per-namespace.svg" xlink:type="simple"><text fill="#0000FF" font-family="sans-serif" font-size="13" lengthAdjust="spacing" text-decoration="underline" textLength="343" x="24" y="255.8496">full-diagram-simplified-grouped-per-namespace.svg</text></a><ellipse cx="17.5" cy="266.4023" fill="#000000" rx="2.5" ry="2.5" style="stroke:#000000;stroke-width:0.0;"/><text fill="#000000" font-family="sans-serif" font-size="13" lengthAdjust="spacing" textLength="41" x="24" y="271.1602">Home:</text><text fill="#000000" font-family="sans-serif" font-size="13" lengthAdjust="spacing" textLength="12" x="12" y="286.4707">&#160;&#160;&#160;</text><a href="index.html" target="_top" title="index.html" xlink:actuate="onRequest" xlink:href="index.html" xlink:show="new" xlink:title="index.html" xlink:type="simple"><text fill="#0000FF" font-family="sans-serif" font-size="13" lengthAdjust="spacing" text-decoration="underline" textLength="68" x="24" y="286.4707">index.html</text></a><line style="stroke:#181818;stroke-width:1.0;" x1="7" x2="210" y1="189.6943" y2="189.6943"/><line style="stroke:#181818;stroke-width:1.0;" x1="7" x2="210" y1="191.6943" y2="191.6943"/><text fill="#000000" font-family="sans-serif" font-size="13" lengthAdjust="spacing" textLength="74" x="210" y="194.1074">Select other</text><line style="stroke:#181818;stroke-width:1.0;" x1="284" x2="487" y1="189.6943" y2="189.6943"/><line style="stroke:#181818;stroke-width:1.0;" x1="284" x2="487" y1="191.6943" y2="191.6943"/></g><!--class ClassOrInterfaceType--><a href="ClassOrInterfaceType-diagram-simplified-grouped-per-namespace.svg" target="_top" title="ClassOrInterfaceType-diagram-simplified-grouped-per-namespace.svg" xlink:actuate="onRequest" xlink:href="ClassOrInterfaceType-diagram-simplified-grouped-per-namespace.svg" xlink:show="new" xlink:title="ClassOrInterfaceType-diagram-simplified-grouped-per-namespace.svg" xlink:type="simple"><g id="elem_ClassOrInterfaceType"><rect codeLine="4" fill="#FFFF00" height="48" id="ClassOrInterfaceType" rx="2.5" ry="2.5" style="stroke:#181818;stroke-width:0.5;" width="178" x="529" y="358.5547"/><ellipse cx="544" cy="374.5547" fill="#ADD1B2" rx="11" ry="11" style="stroke:#181818;stroke-width:1.0;"/><path d="M546.4731,380.6978 Q545.8921,380.9966 545.2529,381.146 Q544.6138,381.2954 543.9082,381.2954 Q541.4014,381.2954 540.0815,379.6436 Q538.7617,377.9917 538.7617,374.8706 Q538.7617,371.7412 540.0815,370.0894 Q541.4014,368.4375 543.9082,368.4375 Q544.6138,368.4375 545.2612,368.5869 Q545.9087,368.7363 546.4731,369.0352 L546.4731,371.7578 Q545.8423,371.1768 545.2488,370.907 Q544.6553,370.6372 544.0244,370.6372 Q542.6797,370.6372 541.9949,371.7039 Q541.3101,372.7705 541.3101,374.8706 Q541.3101,376.9624 541.9949,378.0291 Q542.6797,379.0957 544.0244,379.0957 Q544.6553,379.0957 545.2488,378.8259 Q545.8423,378.5562 546.4731,377.9751 Z " fill="#000000"/><text fill="#000000" font-family="sans-serif" font-size="14" lengthAdjust="spacing" textLength="146" x="558" y="379.8457">ClassOrInterfaceType</text><line style="stroke:#181818;stroke-width:0.5;" x1="530" x2="706" y1="390.5547" y2="390.5547"/><line style="stroke:#181818;stroke-width:0.5;" x1="530" x2="706" y1="398.5547" y2="398.5547"/></g></a><!--link ASTVisitorDebug to ClassOrInterfaceType--><g id="link_ASTVisitorDebug_ClassOrInterfaceType"><path codeLine="24" d="M618,198.8247 C618,198.8247 618,352.1247 618,352.1247 " fill="none" id="ASTVisitorDebug-to-ClassOrInterfaceType" style="stroke:#6060BB;stroke-width:1.0;stroke-dasharray:7.0,7.0;"/><polygon fill="#6060BB" points="618,357.1247,622,348.1247,618,352.1247,614,348.1247,618,357.1247" style="stroke:#6060BB;stroke-width:1.0;"/><text fill="#000000" font-family="sans-serif" font-size="13" lengthAdjust="spacing" textLength="29" x="588" y="272.043">uses</text></g><!--SRC=[jLHDQzj04BthLmp9mI2mOdh8mSI69i6qb_IGK2YMC6ljo1wocXMxgoHEw7_lo5yYZOfZYeqnqlhDUpDlPjO_4bVAgH8CCOPLXM1TMDeeK308LvvUSVXbCBunoliVxZi7T8NAyQ51nh6diZ9K4Eeu1iLQZXRErXLggD01gn9z9V0ulhfegCOHsu1mzilM3fH3YL5czKgy6ARytneffpmQJSW8mMYKigX0hXXoG_aZ88MbuEMdZV6GidK24ENDAHJoNgmf9Ai6NQv5vO5SofeSvW4qLiWQEIVqoKRs7atpZsr46l4O_b6Fng387Av67060wRIBfgz9BQHh_HrPVqlI5vB-dYJnJuiiQtAPrCR0DkWeJtTP54AmLst33-b-ioNkA4WSUqcMeJHPTWRAmyHO5SJbEvc9QDE3JiyEUF2vRE1yXSROPtYBVaSz4RA-QR0INog7JsHhF_FrVBOFcndoeRK2xYmZp35NjSTcGhR3wyc3V0jYyalKITH62A_IgfASfOJsvTZ4tpef4srBHVoEUNjsl01iL-03LVBr_k4dUGhMtUAyNdJ9_OqvLdwjBpsviQLSHJA2fouNdkKg02auW2njYInhMy0wXnFEHSlTncuAU3UGNSKB07goev_wmCcmlSrwWaCZUslP0xu4f_8WFIkSBTlSXu8z4lwXhT7XOKocvvU3oy7rTPQCkwyE68AqnSCV]--></g></svg>