<?xml version="1.0" encoding="us-ascii" standalone="no"?><svg xmlns="http://www.w3.org/2000/svg" xmlns:xlink="http://www.w3.org/1999/xlink" contentStyleType="text/css" height="430px" preserveAspectRatio="none" style="width:706px;height:430px;background:#FFFFFF;" version="1.1" viewBox="0 0 706 430" width="706px" zoomAndPan="magnify"><defs/><g><text fill="#000000" font-family="sans-serif" font-size="20" font-weight="bold" lengthAdjust="spacing" textLength="166" x="57.25" y="29.3359">ConditionalExpr</text><text fill="#000000" font-family="sans-serif" font-size="20" font-weight="bold" lengthAdjust="spacing" textLength="104" x="230.25" y="29.3359">simplified</text><text fill="#000000" font-family="sans-serif" font-size="20" font-weight="bold" lengthAdjust="spacing" textLength="38" x="341.25" y="29.3359">and</text><text fill="#000000" font-family="sans-serif" font-size="20" font-weight="bold" lengthAdjust="spacing" textLength="249" x="386.25" y="29.3359">grouped per namespace</text><!--cluster preadapter--><g id="cluster_preadapter"><a href="preadapter-diagram-simplified-grouped-per-namespace.svg" target="_top" title="preadapter-diagram-simplified-grouped-per-namespace.svg" xlink:actuate="onRequest" xlink:href="preadapter-diagram-simplified-grouped-per-namespace.svg" xlink:show="new" xlink:title="preadapter-diagram-simplified-grouped-per-namespace.svg" xlink:type="simple"><path d="M474,72.5547 L552,72.5547 A3.75,3.75 0 0 1 554.5,75.0547 L561.5,95.043 L697,95.043 A2.5,2.5 0 0 1 699.5,97.543 L699.5,236.0547 A2.5,2.5 0 0 1 697,238.5547 L474,238.5547 A2.5,2.5 0 0 1 471.5,236.0547 L471.5,75.0547 A2.5,2.5 0 0 1 474,72.5547 " fill="none" style="stroke:#000000;stroke-width:1.5;"/><line style="stroke:#000000;stroke-width:1.5;" x1="471.5" x2="561.5" y1="95.043" y2="95.043"/><text fill="#000000" font-family="sans-serif" font-size="14" font-weight="bold" lengthAdjust="spacing" textLength="77" x="475.5" y="88.0898">preadapter</text></a></g><!--cluster domain--><g id="cluster_domain"><a href="preadapter.domain-diagram-simplified-grouped-per-namespace.svg" target="_top" title="preadapter.domain-diagram-simplified-grouped-per-namespace.svg" xlink:actuate="onRequest" xlink:href="preadapter.domain-diagram-simplified-grouped-per-namespace.svg" xlink:show="new" xlink:title="preadapter.domain-diagram-simplified-grouped-per-namespace.svg" xlink:type="simple"><path d="M498,115.5547 L553,115.5547 A3.75,3.75 0 0 1 555.5,118.0547 L562.5,138.043 L673,138.043 A2.5,2.5 0 0 1 675.5,140.543 L675.5,212.0547 A2.5,2.5 0 0 1 673,214.5547 L498,214.5547 A2.5,2.5 0 0 1 495.5,212.0547 L495.5,118.0547 A2.5,2.5 0 0 1 498,115.5547 " fill="none" style="stroke:#000000;stroke-width:1.5;"/><line style="stroke:#000000;stroke-width:1.5;" x1="495.5" x2="562.5" y1="138.043" y2="138.043"/><text fill="#000000" font-family="sans-serif" font-size="14" font-weight="bold" lengthAdjust="spacing" textLength="54" x="499.5" y="131.0898">domain</text></a></g><!--class ASTVisitorDebug--><a href="preadapter.domain.ASTVisitorDebug-diagram-simplified-grouped-per-namespace.svg" target="_top" title="preadapter.domain.ASTVisitorDebug-diagram-simplified-grouped-per-namespace.svg" xlink:actuate="onRequest" xlink:href="preadapter.domain.ASTVisitorDebug-diagram-simplified-grouped-per-namespace.svg" xlink:show="new" xlink:title="preadapter.domain.ASTVisitorDebug-diagram-simplified-grouped-per-namespace.svg" xlink:type="simple"><g id="elem_ASTVisitorDebug"><rect codeLine="8" fill="#F1F1F1" height="48" id="ASTVisitorDebug" rx="2.5" ry="2.5" style="stroke:#181818;stroke-width:0.5;" width="148" x="511.5" y="150.5547"/><ellipse cx="526.5" cy="166.5547" fill="#ADD1B2" rx="11" ry="11" style="stroke:#181818;stroke-width:1.0;"/><path d="M528.9731,172.6978 Q528.3921,172.9966 527.7529,173.146 Q527.1138,173.2954 526.4082,173.2954 Q523.9014,173.2954 522.5815,171.6436 Q521.2617,169.9917 521.2617,166.8706 Q521.2617,163.7412 522.5815,162.0894 Q523.9014,160.4375 526.4082,160.4375 Q527.1138,160.4375 527.7612,160.5869 Q528.4087,160.7363 528.9731,161.0352 L528.9731,163.7578 Q528.3423,163.1768 527.7488,162.907 Q527.1553,162.6372 526.5244,162.6372 Q525.1797,162.6372 524.4949,163.7039 Q523.8101,164.7705 523.8101,166.8706 Q523.8101,168.9624 524.4949,170.0291 Q525.1797,171.0957 526.5244,171.0957 Q527.1553,171.0957 527.7488,170.8259 Q528.3423,170.5562 528.9731,169.9751 Z " fill="#000000"/><text fill="#000000" font-family="sans-serif" font-size="14" lengthAdjust="spacing" textLength="116" x="540.5" y="171.8457">ASTVisitorDebug</text><line style="stroke:#181818;stroke-width:0.5;" x1="512.5" x2="658.5" y1="182.5547" y2="182.5547"/><line style="stroke:#181818;stroke-width:0.5;" x1="512.5" x2="658.5" y1="190.5547" y2="190.5547"/></g></a><g id="elem_FloatingNote"><path d="M6,50.5547 L6,298.2129 L455,298.2129 L455,60.5547 L445,50.5547 L6,50.5547 " fill="#FEFFDD" style="stroke:#181818;stroke-width:0.5;"/><path d="M445,50.5547 L445,60.5547 L455,60.5547 L445,50.5547 " fill="#FEFFDD" style="stroke:#181818;stroke-width:1.0;"/><text fill="#000000" font-family="sans-serif" font-size="13" lengthAdjust="spacing" textLength="120" x="12" y="68.123">Your are analyzing:</text><text fill="#000000" font-family="sans-serif" font-size="13" lengthAdjust="spacing" textLength="101" x="12" y="83.4336">ConditionalExpr</text><text fill="#000000" font-family="sans-serif" font-size="13" font-weight="bold" lengthAdjust="spacing" textLength="67" x="117" y="83.4336">simplified</text><text fill="#000000" font-family="sans-serif" font-size="13" lengthAdjust="spacing" textLength="23" x="188" y="83.4336">and</text><text fill="#000000" font-family="sans-serif" font-size="13" font-weight="bold" lengthAdjust="spacing" textLength="166" x="215" y="83.4336">grouped per namespace</text><text fill="#000000" font-family="sans-serif" font-size="13" lengthAdjust="spacing" textLength="4" x="12" y="98.7441">&#160;</text><text fill="#000000" font-family="sans-serif" font-size="13" lengthAdjust="spacing" textLength="229" x="12" y="129.3652">You can click either the namespaces</text><text fill="#000000" font-family="sans-serif" font-size="13" lengthAdjust="spacing" textLength="266" x="12" y="144.6758">or class names for filtering them and their</text><text fill="#000000" font-family="sans-serif" font-size="13" lengthAdjust="spacing" textLength="130" x="12" y="159.9863">direct dependencies.</text><text fill="#000000" font-family="sans-serif" font-size="13" lengthAdjust="spacing" textLength="4" x="12" y="175.2969">&#160;</text><line style="stroke:#181818;stroke-width:1.0;" x1="7" x2="214.5" y1="109.1416" y2="109.1416"/><line style="stroke:#181818;stroke-width:1.0;" x1="7" x2="214.5" y1="111.1416" y2="111.1416"/><text fill="#000000" font-family="sans-serif" font-size="13" lengthAdjust="spacing" textLength="32" x="214.5" y="113.5547">Filter</text><line style="stroke:#181818;stroke-width:1.0;" x1="246.5" x2="454" y1="109.1416" y2="109.1416"/><line style="stroke:#181818;stroke-width:1.0;" x1="246.5" x2="454" y1="111.1416" y2="111.1416"/><ellipse cx="17.5" cy="205.1602" fill="#000000" rx="2.5" ry="2.5" style="stroke:#000000;stroke-width:0.0;"/><text fill="#000000" font-family="sans-serif" font-size="13" lengthAdjust="spacing" textLength="101" x="24" y="209.918">ConditionalExpr</text><text fill="#000000" font-family="sans-serif" font-size="13" font-weight="bold" lengthAdjust="spacing" textLength="55" x="129" y="209.918">detailed</text><text fill="#000000" font-family="sans-serif" font-size="13" lengthAdjust="spacing" textLength="23" x="188" y="209.918">and</text><text fill="#000000" font-family="sans-serif" font-size="13" font-weight="bold" lengthAdjust="spacing" textLength="166" x="215" y="209.918">grouped per namespace</text><text fill="#000000" font-family="sans-serif" font-size="13" lengthAdjust="spacing" textLength="4" x="381" y="209.918">:</text><text fill="#000000" font-family="sans-serif" font-size="13" lengthAdjust="spacing" textLength="12" x="12" y="225.2285">&#160;&#160;&#160;</text><a href="ConditionalExpr-diagram-detailed-grouped-per-namespace.svg" target="_top" title="ConditionalExpr-diagram-detailed-grouped-per-namespace.svg" xlink:actuate="onRequest" xlink:href="ConditionalExpr-diagram-detailed-grouped-per-namespace.svg" xlink:show="new" xlink:title="ConditionalExpr-diagram-detailed-grouped-per-namespace.svg" xlink:type="simple"><text fill="#0000FF" font-family="sans-serif" font-size="13" lengthAdjust="spacing" text-decoration="underline" textLength="410" x="24" y="225.2285">ConditionalExpr-diagram-detailed-grouped-per-namespace.svg</text></a><ellipse cx="17.5" cy="235.7813" fill="#000000" rx="2.5" ry="2.5" style="stroke:#000000;stroke-width:0.0;"/><text fill="#000000" font-family="sans-serif" font-size="13" lengthAdjust="spacing" textLength="78" x="24" y="240.5391">Full diagram</text><text fill="#000000" font-family="sans-serif" font-size="13" font-weight="bold" lengthAdjust="spacing" textLength="67" x="106" y="240.5391">simplified</text><text fill="#000000" font-family="sans-serif" font-size="13" lengthAdjust="spacing" textLength="23" x="177" y="240.5391">and</text><text fill="#000000" font-family="sans-serif" font-size="13" font-weight="bold" lengthAdjust="spacing" textLength="166" x="204" y="240.5391">grouped per namespace</text><text fill="#000000" font-family="sans-serif" font-size="13" lengthAdjust="spacing" textLength="4" x="370" y="240.5391">:</text><text fill="#000000" font-family="sans-serif" font-size="13" lengthAdjust="spacing" textLength="12" x="12" y="255.8496">&#160;&#160;&#160;</text><a href="full-diagram-simplified-grouped-per-namespace.svg" target="_top" title="full-diagram-simplified-grouped-per-namespace.svg" xlink:actuate="onRequest" xlink:href="full-diagram-simplified-grouped-per-namespace.svg" xlink:show="new" xlink:title="full-diagram-simplified-grouped-per-namespace.svg" xlink:type="simple"><text fill="#0000FF" font-family="sans-serif" font-size="13" lengthAdjust="spacing" text-decoration="underline" textLength="343" x="24" y="255.8496">full-diagram-simplified-grouped-per-namespace.svg</text></a><ellipse cx="17.5" cy="266.4023" fill="#000000" rx="2.5" ry="2.5" style="stroke:#000000;stroke-width:0.0;"/><text fill="#000000" font-family="sans-serif" font-size="13" lengthAdjust="spacing" textLength="41" x="24" y="271.1602">Home:</text><text fill="#000000" font-family="sans-serif" font-size="13" lengthAdjust="spacing" textLength="12" x="12" y="286.4707">&#160;&#160;&#160;</text><a href="index.html" target="_top" title="index.html" xlink:actuate="onRequest" xlink:href="index.html" xlink:show="new" xlink:title="index.html" xlink:type="simple"><text fill="#0000FF" font-family="sans-serif" font-size="13" lengthAdjust="spacing" text-decoration="underline" textLength="68" x="24" y="286.4707">index.html</text></a><line style="stroke:#181818;stroke-width:1.0;" x1="7" x2="193.5" y1="189.6943" y2="189.6943"/><line style="stroke:#181818;stroke-width:1.0;" x1="7" x2="193.5" y1="191.6943" y2="191.6943"/><text fill="#000000" font-family="sans-serif" font-size="13" lengthAdjust="spacing" textLength="74" x="193.5" y="194.1074">Select other</text><line style="stroke:#181818;stroke-width:1.0;" x1="267.5" x2="454" y1="189.6943" y2="189.6943"/><line style="stroke:#181818;stroke-width:1.0;" x1="267.5" x2="454" y1="191.6943" y2="191.6943"/></g><!--class ConditionalExpr--><a href="ConditionalExpr-diagram-simplified-grouped-per-namespace.svg" target="_top" title="ConditionalExpr-diagram-simplified-grouped-per-namespace.svg" xlink:actuate="onRequest" xlink:href="ConditionalExpr-diagram-simplified-grouped-per-namespace.svg" xlink:show="new" xlink:title="ConditionalExpr-diagram-simplified-grouped-per-namespace.svg" xlink:type="simple"><g id="elem_ConditionalExpr"><rect codeLine="3" fill="#FFFF00" height="48" id="ConditionalExpr" rx="2.5" ry="2.5" style="stroke:#181818;stroke-width:0.5;" width="144" x="513.5" y="375.5547"/><ellipse cx="528.5" cy="391.5547" fill="#ADD1B2" rx="11" ry="11" style="stroke:#181818;stroke-width:1.0;"/><path d="M530.9731,397.6978 Q530.3921,397.9966 529.7529,398.146 Q529.1138,398.2954 528.4082,398.2954 Q525.9014,398.2954 524.5815,396.6436 Q523.2617,394.9917 523.2617,391.8706 Q523.2617,388.7412 524.5815,387.0894 Q525.9014,385.4375 528.4082,385.4375 Q529.1138,385.4375 529.7612,385.5869 Q530.4087,385.7363 530.9731,386.0352 L530.9731,388.7578 Q530.3423,388.1768 529.7488,387.907 Q529.1553,387.6372 528.5244,387.6372 Q527.1797,387.6372 526.4949,388.7039 Q525.8101,389.7705 525.8101,391.8706 Q525.8101,393.9624 526.4949,395.0291 Q527.1797,396.0957 528.5244,396.0957 Q529.1553,396.0957 529.7488,395.8259 Q530.3423,395.5562 530.9731,394.9751 Z " fill="#000000"/><text fill="#000000" font-family="sans-serif" font-size="14" lengthAdjust="spacing" textLength="112" x="542.5" y="396.8457">ConditionalExpr</text><line style="stroke:#181818;stroke-width:0.5;" x1="514.5" x2="656.5" y1="407.5547" y2="407.5547"/><line style="stroke:#181818;stroke-width:0.5;" x1="514.5" x2="656.5" y1="415.5547" y2="415.5547"/></g></a><!--link ASTVisitorDebug to ConditionalExpr--><g id="link_ASTVisitorDebug_ConditionalExpr"><path codeLine="23" d="M585.5,198.9947 C585.5,239.9847 585.5,324.5647 585.5,369.3147 " fill="none" id="ASTVisitorDebug-to-ConditionalExpr" style="stroke:#6060BB;stroke-width:1.0;stroke-dasharray:7.0,7.0;"/><polygon fill="#6060BB" points="585.5,374.0947,589.5,365.0947,585.5,369.0947,581.5,365.0947,585.5,374.0947" style="stroke:#6060BB;stroke-width:1.0;"/><text fill="#000000" font-family="sans-serif" font-size="13" lengthAdjust="spacing" textLength="29" x="586.5" y="342.123">uses</text></g><!--SRC=[jLHBQzj04BxhLmp98I2mQdh8mSI6ngtfAPUKGh64MMj7yj3LhjXT9Kv2_tjdRTaYjeiZYeKHtlLyZtdParS8TuvUSVHvE9aQBScJqK9zMzSMujXHLIig26KSWz2IhqfhcXebr6X1YmfTBNACuxjFWMKIQUCHhdwPneAmo1YXNbv9bwDK_mzzgbCz7iz8URJZSQfP07AX8LUK_mOal-9uVdKO1wasbWE4SzjRAFXSR2ZOK8YkDgByXMpAtYpc7YJMg2NgdD0bMzb7LE4N4qI2U0p7gKZqWjJvHBWE032V7p0C98dIYcgmuncq-07Z1tjyufxAB0iEPerIq89wLN9de622lMe7FwVxtLIueo2kqpfP-KfbsHK81pDbXEVQFl0GHDlA7rRgtvb_p0DSlw1IvXdUeZ_H3KoLSQ6PWgjHMtmYqxY5QvQBFMoXoFck0F1WDC8ISz4u3DFGpgWZ1_mfI9DReKoY3i6yGegQnuRTTuU-njzEKYRIL8BqE-Rshhy0jED-H9LyUVpnannvOx_YiYbFoHt6z9NVw7DFfgQgUVKbN3fTUEQr1qxO0ozeXPfNj82DXmlEHSVTORS9l1l8Kybp0DpmPdxeWOl51fDXIYmg4VRG0Qwz5RdddXNML9tt4SVs33zgQtH-69FvzUtmTdX_doMJepyC605tnC5V]--></g></svg>