<?xml version="1.0" encoding="us-ascii" standalone="no"?><svg xmlns="http://www.w3.org/2000/svg" xmlns:xlink="http://www.w3.org/1999/xlink" contentStyleType="text/css" height="413px" preserveAspectRatio="none" style="width:652px;height:413px;background:#FFFFFF;" version="1.1" viewBox="0 0 652 413" width="652px" zoomAndPan="magnify"><defs/><g><text fill="#000000" font-family="sans-serif" font-size="20" font-weight="bold" lengthAdjust="spacing" textLength="75" x="75.75" y="29.3359">DoStmt</text><text fill="#000000" font-family="sans-serif" font-size="20" font-weight="bold" lengthAdjust="spacing" textLength="104" x="157.75" y="29.3359">simplified</text><text fill="#000000" font-family="sans-serif" font-size="20" font-weight="bold" lengthAdjust="spacing" textLength="38" x="268.75" y="29.3359">and</text><text fill="#000000" font-family="sans-serif" font-size="20" font-weight="bold" lengthAdjust="spacing" textLength="249" x="313.75" y="29.3359">grouped per namespace</text><!--cluster preadapter--><g id="cluster_preadapter"><a href="preadapter-diagram-simplified-grouped-per-namespace.svg" target="_top" title="preadapter-diagram-simplified-grouped-per-namespace.svg" xlink:actuate="onRequest" xlink:href="preadapter-diagram-simplified-grouped-per-namespace.svg" xlink:show="new" xlink:title="preadapter-diagram-simplified-grouped-per-namespace.svg" xlink:type="simple"><path d="M420,72.5547 L498,72.5547 A3.75,3.75 0 0 1 500.5,75.0547 L507.5,95.043 L643,95.043 A2.5,2.5 0 0 1 645.5,97.543 L645.5,236.0547 A2.5,2.5 0 0 1 643,238.5547 L420,238.5547 A2.5,2.5 0 0 1 417.5,236.0547 L417.5,75.0547 A2.5,2.5 0 0 1 420,72.5547 " fill="none" style="stroke:#000000;stroke-width:1.5;"/><line style="stroke:#000000;stroke-width:1.5;" x1="417.5" x2="507.5" y1="95.043" y2="95.043"/><text fill="#000000" font-family="sans-serif" font-size="14" font-weight="bold" lengthAdjust="spacing" textLength="77" x="421.5" y="88.0898">preadapter</text></a></g><!--cluster domain--><g id="cluster_domain"><a href="preadapter.domain-diagram-simplified-grouped-per-namespace.svg" target="_top" title="preadapter.domain-diagram-simplified-grouped-per-namespace.svg" xlink:actuate="onRequest" xlink:href="preadapter.domain-diagram-simplified-grouped-per-namespace.svg" xlink:show="new" xlink:title="preadapter.domain-diagram-simplified-grouped-per-namespace.svg" xlink:type="simple"><path d="M444,115.5547 L499,115.5547 A3.75,3.75 0 0 1 501.5,118.0547 L508.5,138.043 L619,138.043 A2.5,2.5 0 0 1 621.5,140.543 L621.5,212.0547 A2.5,2.5 0 0 1 619,214.5547 L444,214.5547 A2.5,2.5 0 0 1 441.5,212.0547 L441.5,118.0547 A2.5,2.5 0 0 1 444,115.5547 " fill="none" style="stroke:#000000;stroke-width:1.5;"/><line style="stroke:#000000;stroke-width:1.5;" x1="441.5" x2="508.5" y1="138.043" y2="138.043"/><text fill="#000000" font-family="sans-serif" font-size="14" font-weight="bold" lengthAdjust="spacing" textLength="54" x="445.5" y="131.0898">domain</text></a></g><!--class ASTVisitorDebug--><a href="preadapter.domain.ASTVisitorDebug-diagram-simplified-grouped-per-namespace.svg" target="_top" title="preadapter.domain.ASTVisitorDebug-diagram-simplified-grouped-per-namespace.svg" xlink:actuate="onRequest" xlink:href="preadapter.domain.ASTVisitorDebug-diagram-simplified-grouped-per-namespace.svg" xlink:show="new" xlink:title="preadapter.domain.ASTVisitorDebug-diagram-simplified-grouped-per-namespace.svg" xlink:type="simple"><g id="elem_ASTVisitorDebug"><rect codeLine="9" fill="#F1F1F1" height="48" id="ASTVisitorDebug" rx="2.5" ry="2.5" style="stroke:#181818;stroke-width:0.5;" width="148" x="457.5" y="150.5547"/><ellipse cx="472.5" cy="166.5547" fill="#ADD1B2" rx="11" ry="11" style="stroke:#181818;stroke-width:1.0;"/><path d="M474.9731,172.6978 Q474.3921,172.9966 473.7529,173.146 Q473.1138,173.2954 472.4082,173.2954 Q469.9014,173.2954 468.5815,171.6436 Q467.2617,169.9917 467.2617,166.8706 Q467.2617,163.7412 468.5815,162.0894 Q469.9014,160.4375 472.4082,160.4375 Q473.1138,160.4375 473.7612,160.5869 Q474.4087,160.7363 474.9731,161.0352 L474.9731,163.7578 Q474.3423,163.1768 473.7488,162.907 Q473.1553,162.6372 472.5244,162.6372 Q471.1797,162.6372 470.4949,163.7039 Q469.8101,164.7705 469.8101,166.8706 Q469.8101,168.9624 470.4949,170.0291 Q471.1797,171.0957 472.5244,171.0957 Q473.1553,171.0957 473.7488,170.8259 Q474.3423,170.5562 474.9731,169.9751 Z " fill="#000000"/><text fill="#000000" font-family="sans-serif" font-size="14" lengthAdjust="spacing" textLength="116" x="486.5" y="171.8457">ASTVisitorDebug</text><line style="stroke:#181818;stroke-width:0.5;" x1="458.5" x2="604.5" y1="182.5547" y2="182.5547"/><line style="stroke:#181818;stroke-width:0.5;" x1="458.5" x2="604.5" y1="190.5547" y2="190.5547"/></g></a><g id="elem_FloatingNote"><path d="M6,50.5547 L6,298.2129 L401,298.2129 L401,60.5547 L391,50.5547 L6,50.5547 " fill="#FEFFDD" style="stroke:#181818;stroke-width:0.5;"/><path d="M391,50.5547 L391,60.5547 L401,60.5547 L391,50.5547 " fill="#FEFFDD" style="stroke:#181818;stroke-width:1.0;"/><text fill="#000000" font-family="sans-serif" font-size="13" lengthAdjust="spacing" textLength="120" x="12" y="68.123">Your are analyzing:</text><text fill="#000000" font-family="sans-serif" font-size="13" lengthAdjust="spacing" textLength="47" x="12" y="83.4336">DoStmt</text><text fill="#000000" font-family="sans-serif" font-size="13" font-weight="bold" lengthAdjust="spacing" textLength="67" x="63" y="83.4336">simplified</text><text fill="#000000" font-family="sans-serif" font-size="13" lengthAdjust="spacing" textLength="23" x="134" y="83.4336">and</text><text fill="#000000" font-family="sans-serif" font-size="13" font-weight="bold" lengthAdjust="spacing" textLength="166" x="161" y="83.4336">grouped per namespace</text><text fill="#000000" font-family="sans-serif" font-size="13" lengthAdjust="spacing" textLength="4" x="12" y="98.7441">&#160;</text><text fill="#000000" font-family="sans-serif" font-size="13" lengthAdjust="spacing" textLength="229" x="12" y="129.3652">You can click either the namespaces</text><text fill="#000000" font-family="sans-serif" font-size="13" lengthAdjust="spacing" textLength="266" x="12" y="144.6758">or class names for filtering them and their</text><text fill="#000000" font-family="sans-serif" font-size="13" lengthAdjust="spacing" textLength="130" x="12" y="159.9863">direct dependencies.</text><text fill="#000000" font-family="sans-serif" font-size="13" lengthAdjust="spacing" textLength="4" x="12" y="175.2969">&#160;</text><line style="stroke:#181818;stroke-width:1.0;" x1="7" x2="187.5" y1="109.1416" y2="109.1416"/><line style="stroke:#181818;stroke-width:1.0;" x1="7" x2="187.5" y1="111.1416" y2="111.1416"/><text fill="#000000" font-family="sans-serif" font-size="13" lengthAdjust="spacing" textLength="32" x="187.5" y="113.5547">Filter</text><line style="stroke:#181818;stroke-width:1.0;" x1="219.5" x2="400" y1="109.1416" y2="109.1416"/><line style="stroke:#181818;stroke-width:1.0;" x1="219.5" x2="400" y1="111.1416" y2="111.1416"/><ellipse cx="17.5" cy="205.1602" fill="#000000" rx="2.5" ry="2.5" style="stroke:#000000;stroke-width:0.0;"/><text fill="#000000" font-family="sans-serif" font-size="13" lengthAdjust="spacing" textLength="47" x="24" y="209.918">DoStmt</text><text fill="#000000" font-family="sans-serif" font-size="13" font-weight="bold" lengthAdjust="spacing" textLength="55" x="75" y="209.918">detailed</text><text fill="#000000" font-family="sans-serif" font-size="13" lengthAdjust="spacing" textLength="23" x="134" y="209.918">and</text><text fill="#000000" font-family="sans-serif" font-size="13" font-weight="bold" lengthAdjust="spacing" textLength="166" x="161" y="209.918">grouped per namespace</text><text fill="#000000" font-family="sans-serif" font-size="13" lengthAdjust="spacing" textLength="4" x="327" y="209.918">:</text><text fill="#000000" font-family="sans-serif" font-size="13" lengthAdjust="spacing" textLength="12" x="12" y="225.2285">&#160;&#160;&#160;</text><a href="DoStmt-diagram-detailed-grouped-per-namespace.svg" target="_top" title="DoStmt-diagram-detailed-grouped-per-namespace.svg" xlink:actuate="onRequest" xlink:href="DoStmt-diagram-detailed-grouped-per-namespace.svg" xlink:show="new" xlink:title="DoStmt-diagram-detailed-grouped-per-namespace.svg" xlink:type="simple"><text fill="#0000FF" font-family="sans-serif" font-size="13" lengthAdjust="spacing" text-decoration="underline" textLength="356" x="24" y="225.2285">DoStmt-diagram-detailed-grouped-per-namespace.svg</text></a><ellipse cx="17.5" cy="235.7813" fill="#000000" rx="2.5" ry="2.5" style="stroke:#000000;stroke-width:0.0;"/><text fill="#000000" font-family="sans-serif" font-size="13" lengthAdjust="spacing" textLength="78" x="24" y="240.5391">Full diagram</text><text fill="#000000" font-family="sans-serif" font-size="13" font-weight="bold" lengthAdjust="spacing" textLength="67" x="106" y="240.5391">simplified</text><text fill="#000000" font-family="sans-serif" font-size="13" lengthAdjust="spacing" textLength="23" x="177" y="240.5391">and</text><text fill="#000000" font-family="sans-serif" font-size="13" font-weight="bold" lengthAdjust="spacing" textLength="166" x="204" y="240.5391">grouped per namespace</text><text fill="#000000" font-family="sans-serif" font-size="13" lengthAdjust="spacing" textLength="4" x="370" y="240.5391">:</text><text fill="#000000" font-family="sans-serif" font-size="13" lengthAdjust="spacing" textLength="12" x="12" y="255.8496">&#160;&#160;&#160;</text><a href="full-diagram-simplified-grouped-per-namespace.svg" target="_top" title="full-diagram-simplified-grouped-per-namespace.svg" xlink:actuate="onRequest" xlink:href="full-diagram-simplified-grouped-per-namespace.svg" xlink:show="new" xlink:title="full-diagram-simplified-grouped-per-namespace.svg" xlink:type="simple"><text fill="#0000FF" font-family="sans-serif" font-size="13" lengthAdjust="spacing" text-decoration="underline" textLength="343" x="24" y="255.8496">full-diagram-simplified-grouped-per-namespace.svg</text></a><ellipse cx="17.5" cy="266.4023" fill="#000000" rx="2.5" ry="2.5" style="stroke:#000000;stroke-width:0.0;"/><text fill="#000000" font-family="sans-serif" font-size="13" lengthAdjust="spacing" textLength="41" x="24" y="271.1602">Home:</text><text fill="#000000" font-family="sans-serif" font-size="13" lengthAdjust="spacing" textLength="12" x="12" y="286.4707">&#160;&#160;&#160;</text><a href="index.html" target="_top" title="index.html" xlink:actuate="onRequest" xlink:href="index.html" xlink:show="new" xlink:title="index.html" xlink:type="simple"><text fill="#0000FF" font-family="sans-serif" font-size="13" lengthAdjust="spacing" text-decoration="underline" textLength="68" x="24" y="286.4707">index.html</text></a><line style="stroke:#181818;stroke-width:1.0;" x1="7" x2="166.5" y1="189.6943" y2="189.6943"/><line style="stroke:#181818;stroke-width:1.0;" x1="7" x2="166.5" y1="191.6943" y2="191.6943"/><text fill="#000000" font-family="sans-serif" font-size="13" lengthAdjust="spacing" textLength="74" x="166.5" y="194.1074">Select other</text><line style="stroke:#181818;stroke-width:1.0;" x1="240.5" x2="400" y1="189.6943" y2="189.6943"/><line style="stroke:#181818;stroke-width:1.0;" x1="240.5" x2="400" y1="191.6943" y2="191.6943"/></g><!--class DoStmt--><a href="DoStmt-diagram-simplified-grouped-per-namespace.svg" target="_top" title="DoStmt-diagram-simplified-grouped-per-namespace.svg" xlink:actuate="onRequest" xlink:href="DoStmt-diagram-simplified-grouped-per-namespace.svg" xlink:show="new" xlink:title="DoStmt-diagram-simplified-grouped-per-namespace.svg" xlink:type="simple"><g id="elem_DoStmt"><rect codeLine="4" fill="#FFFF00" height="48" id="DoStmt" rx="2.5" ry="2.5" style="stroke:#181818;stroke-width:0.5;" width="82" x="490.5" y="358.5547"/><ellipse cx="505.5" cy="374.5547" fill="#ADD1B2" rx="11" ry="11" style="stroke:#181818;stroke-width:1.0;"/><path d="M507.9731,380.6978 Q507.3921,380.9966 506.7529,381.146 Q506.1138,381.2954 505.4082,381.2954 Q502.9014,381.2954 501.5815,379.6436 Q500.2617,377.9917 500.2617,374.8706 Q500.2617,371.7412 501.5815,370.0894 Q502.9014,368.4375 505.4082,368.4375 Q506.1138,368.4375 506.7612,368.5869 Q507.4087,368.7363 507.9731,369.0352 L507.9731,371.7578 Q507.3423,371.1768 506.7488,370.907 Q506.1553,370.6372 505.5244,370.6372 Q504.1797,370.6372 503.4949,371.7039 Q502.8101,372.7705 502.8101,374.8706 Q502.8101,376.9624 503.4949,378.0291 Q504.1797,379.0957 505.5244,379.0957 Q506.1553,379.0957 506.7488,378.8259 Q507.3423,378.5562 507.9731,377.9751 Z " fill="#000000"/><text fill="#000000" font-family="sans-serif" font-size="14" lengthAdjust="spacing" textLength="50" x="519.5" y="379.8457">DoStmt</text><line style="stroke:#181818;stroke-width:0.5;" x1="491.5" x2="571.5" y1="390.5547" y2="390.5547"/><line style="stroke:#181818;stroke-width:0.5;" x1="491.5" x2="571.5" y1="398.5547" y2="398.5547"/></g></a><!--link ASTVisitorDebug to DoStmt--><g id="link_ASTVisitorDebug_DoStmt"><path codeLine="24" d="M531.5,198.8247 C531.5,198.8247 531.5,352.1247 531.5,352.1247 " fill="none" id="ASTVisitorDebug-to-DoStmt" style="stroke:#6060BB;stroke-width:1.0;stroke-dasharray:7.0,7.0;"/><polygon fill="#6060BB" points="531.5,357.1247,535.5,348.1247,531.5,352.1247,527.5,348.1247,531.5,357.1247" style="stroke:#6060BB;stroke-width:1.0;"/><text fill="#000000" font-family="sans-serif" font-size="13" lengthAdjust="spacing" textLength="29" x="501.5" y="272.043">uses</text></g><!--SRC=[jLHTQ-9G47tFhnZQXqB0hEn37wGAsnRPfxwuB2n6oZLteaFlHxXpqzQM_UyxqMXe5QmBIf3aPiuvS-OZ_4IkKa5PCEGmhYe47-BI9v6YGRXXUiF1z_xeta-YZP2cJBOoL1BgD0Nbj1mjWgyhr51X0ASiSgKAJDERRmrub3WV4Ix- -3g02YWOPLPlv1Q3tFq7Q-voDnoEoKGCms7kX1SAvQ0mL3m1KbnAlFnr68RS-I01Ydbp2gKybsiAoQE9jcjHkQ6GEqq1YmWQAtGQNK78sKPsWgPvunkHHZo5dGEDKP4vdh-u1e3fT0FiQL8BgNvl2- -ri9x0UZjOni-BsQpH6zV6G0iwgMvRtL88TgeT_9ZkJsznIq5IbTTi6QsPpIv0COoDLr4g-I2TJZPrRkkov_DhYd2vGcFy2xmdVvChk3EUcqOfyLu5V2PVyoFNyySTxD4GnyukF7Y7CCT2rOnDfzknOsAGgoH7l4IT9Hr2U9LMbOo49Dqzd9hu-q7AJ7kho7rWRizE5u1sbFUeiX-JNx-9AVfmZ_DwSKZkSyofycjzwScTj_BPa34xjrruaPK6CHn1bi-Ya_KhOPt36UUYu-wm6mCV1lAGUGc0Azd3B_tWRB5DaisK13Ioczunu6iCgeZIip9us-K-aDWJm_VQcXmVncnwUTs_xj_UphBHzlC00v16CFm3]--></g></svg>