<?xml version="1.0" encoding="us-ascii" standalone="no"?><svg xmlns="http://www.w3.org/2000/svg" xmlns:xlink="http://www.w3.org/1999/xlink" contentStyleType="text/css" height="494px" preserveAspectRatio="none" style="width:1315px;height:494px;background:#FFFFFF;" version="1.1" viewBox="0 0 1315 494" width="1315px" zoomAndPan="magnify"><defs/><g><text fill="#000000" font-family="sans-serif" font-size="20" font-weight="bold" lengthAdjust="spacing" textLength="232" x="338.5" y="29.3359">EnumTypePlaceHolder</text><text fill="#000000" font-family="sans-serif" font-size="20" font-weight="bold" lengthAdjust="spacing" textLength="84" x="577.5" y="29.3359">detailed</text><text fill="#000000" font-family="sans-serif" font-size="20" font-weight="bold" lengthAdjust="spacing" textLength="38" x="668.5" y="29.3359">and</text><text fill="#000000" font-family="sans-serif" font-size="20" font-weight="bold" lengthAdjust="spacing" textLength="249" x="713.5" y="29.3359">grouped per namespace</text><!--cluster Examples--><g id="cluster_Examples"><a href="Examples-diagram-detailed-grouped-per-namespace.svg" target="_top" title="Examples-diagram-detailed-grouped-per-namespace.svg" xlink:actuate="onRequest" xlink:href="Examples-diagram-detailed-grouped-per-namespace.svg" xlink:show="new" xlink:title="Examples-diagram-detailed-grouped-per-namespace.svg" xlink:type="simple"><path d="M524.5,50.5547 L593.5,50.5547 A3.75,3.75 0 0 1 596,53.0547 L603,73.043 L997.5,73.043 A2.5,2.5 0 0 1 1000,75.543 L1000,381.0547 A2.5,2.5 0 0 1 997.5,383.5547 L524.5,383.5547 A2.5,2.5 0 0 1 522,381.0547 L522,53.0547 A2.5,2.5 0 0 1 524.5,50.5547 " fill="none" style="stroke:#000000;stroke-width:1.5;"/><line style="stroke:#000000;stroke-width:1.5;" x1="522" x2="603" y1="73.043" y2="73.043"/><text fill="#000000" font-family="sans-serif" font-size="14" font-weight="bold" lengthAdjust="spacing" textLength="68" x="526" y="66.0898">Examples</text></a></g><!--cluster BadDesign--><g id="cluster_BadDesign"><a href="Examples.BadDesign-diagram-detailed-grouped-per-namespace.svg" target="_top" title="Examples.BadDesign-diagram-detailed-grouped-per-namespace.svg" xlink:actuate="onRequest" xlink:href="Examples.BadDesign-diagram-detailed-grouped-per-namespace.svg" xlink:show="new" xlink:title="Examples.BadDesign-diagram-detailed-grouped-per-namespace.svg" xlink:type="simple"><path d="M548.5,93.5547 L625.5,93.5547 A3.75,3.75 0 0 1 628,96.0547 L635,116.043 L973.5,116.043 A2.5,2.5 0 0 1 976,118.543 L976,357.0547 A2.5,2.5 0 0 1 973.5,359.5547 L548.5,359.5547 A2.5,2.5 0 0 1 546,357.0547 L546,96.0547 A2.5,2.5 0 0 1 548.5,93.5547 " fill="none" style="stroke:#000000;stroke-width:1.5;"/><line style="stroke:#000000;stroke-width:1.5;" x1="546" x2="635" y1="116.043" y2="116.043"/><text fill="#000000" font-family="sans-serif" font-size="14" font-weight="bold" lengthAdjust="spacing" textLength="76" x="550" y="109.0898">BadDesign</text></a></g><!--cluster BasicExample--><g id="cluster_BasicExample"><a href="Examples.BadDesign.BasicExample-diagram-detailed-grouped-per-namespace.svg" target="_top" title="Examples.BadDesign.BasicExample-diagram-detailed-grouped-per-namespace.svg" xlink:actuate="onRequest" xlink:href="Examples.BadDesign.BasicExample-diagram-detailed-grouped-per-namespace.svg" xlink:show="new" xlink:title="Examples.BadDesign.BasicExample-diagram-detailed-grouped-per-namespace.svg" xlink:type="simple"><path d="M572.5,136.5547 L670.5,136.5547 A3.75,3.75 0 0 1 673,139.0547 L680,159.043 L949.5,159.043 A2.5,2.5 0 0 1 952,161.543 L952,333.0547 A2.5,2.5 0 0 1 949.5,335.5547 L572.5,335.5547 A2.5,2.5 0 0 1 570,333.0547 L570,139.0547 A2.5,2.5 0 0 1 572.5,136.5547 " fill="none" style="stroke:#000000;stroke-width:1.5;"/><line style="stroke:#000000;stroke-width:1.5;" x1="570" x2="680" y1="159.043" y2="159.043"/><text fill="#000000" font-family="sans-serif" font-size="14" font-weight="bold" lengthAdjust="spacing" textLength="97" x="574" y="152.0898">BasicExample</text></a></g><!--cluster SideExample--><g id="cluster_SideExample"><a href="Examples.BadDesign.BasicExample.SideExample-diagram-detailed-grouped-per-namespace.svg" target="_top" title="Examples.BadDesign.BasicExample.SideExample-diagram-detailed-grouped-per-namespace.svg" xlink:actuate="onRequest" xlink:href="Examples.BadDesign.BasicExample.SideExample-diagram-detailed-grouped-per-namespace.svg" xlink:show="new" xlink:title="Examples.BadDesign.BasicExample.SideExample-diagram-detailed-grouped-per-namespace.svg" xlink:type="simple"><path d="M596.5,179.5547 L687.5,179.5547 A3.75,3.75 0 0 1 690,182.0547 L697,202.043 L925.5,202.043 A2.5,2.5 0 0 1 928,204.543 L928,309.0547 A2.5,2.5 0 0 1 925.5,311.5547 L596.5,311.5547 A2.5,2.5 0 0 1 594,309.0547 L594,182.0547 A2.5,2.5 0 0 1 596.5,179.5547 " fill="none" style="stroke:#000000;stroke-width:1.5;"/><line style="stroke:#000000;stroke-width:1.5;" x1="594" x2="697" y1="202.043" y2="202.043"/><text fill="#000000" font-family="sans-serif" font-size="14" font-weight="bold" lengthAdjust="spacing" textLength="90" x="598" y="195.0898">SideExample</text></a></g><!--cluster preadapter--><g id="cluster_preadapter"><a href="preadapter-diagram-detailed-grouped-per-namespace.svg" target="_top" title="preadapter-diagram-detailed-grouped-per-namespace.svg" xlink:actuate="onRequest" xlink:href="preadapter-diagram-detailed-grouped-per-namespace.svg" xlink:show="new" xlink:title="preadapter-diagram-detailed-grouped-per-namespace.svg" xlink:type="simple"><path d="M1026.5,146.5547 L1104.5,146.5547 A3.75,3.75 0 0 1 1107,149.0547 L1114,169.043 L1305.5,169.043 A2.5,2.5 0 0 1 1308,171.543 L1308,342.0547 A2.5,2.5 0 0 1 1305.5,344.5547 L1026.5,344.5547 A2.5,2.5 0 0 1 1024,342.0547 L1024,149.0547 A2.5,2.5 0 0 1 1026.5,146.5547 " fill="none" style="stroke:#000000;stroke-width:1.5;"/><line style="stroke:#000000;stroke-width:1.5;" x1="1024" x2="1114" y1="169.043" y2="169.043"/><text fill="#000000" font-family="sans-serif" font-size="14" font-weight="bold" lengthAdjust="spacing" textLength="77" x="1028" y="162.0898">preadapter</text></a></g><!--class SideTestEnum--><a href="Examples.BadDesign.BasicExample.SideExample.SideTestEnum-diagram-detailed-grouped-per-namespace.svg" target="_top" title="Examples.BadDesign.BasicExample.SideExample.SideTestEnum-diagram-detailed-grouped-per-namespace.svg" xlink:actuate="onRequest" xlink:href="Examples.BadDesign.BasicExample.SideExample.SideTestEnum-diagram-detailed-grouped-per-namespace.svg" xlink:show="new" xlink:title="Examples.BadDesign.BasicExample.SideExample.SideTestEnum-diagram-detailed-grouped-per-namespace.svg" xlink:type="simple"><g id="elem_SideTestEnum"><rect codeLine="11" fill="#F1F1F1" height="80.9766" id="SideTestEnum" rx="2.5" ry="2.5" style="stroke:#181818;stroke-width:0.5;" width="302" x="610" y="214.5547"/><ellipse cx="708.25" cy="230.5547" fill="#ADD1B2" rx="11" ry="11" style="stroke:#181818;stroke-width:1.0;"/><path d="M710.7231,236.6978 Q710.1421,236.9966 709.5029,237.146 Q708.8638,237.2954 708.1582,237.2954 Q705.6514,237.2954 704.3315,235.6436 Q703.0117,233.9917 703.0117,230.8706 Q703.0117,227.7412 704.3315,226.0894 Q705.6514,224.4375 708.1582,224.4375 Q708.8638,224.4375 709.5112,224.5869 Q710.1587,224.7363 710.7231,225.0352 L710.7231,227.7578 Q710.0923,227.1768 709.4988,226.907 Q708.9053,226.6372 708.2744,226.6372 Q706.9297,226.6372 706.2449,227.7039 Q705.5601,228.7705 705.5601,230.8706 Q705.5601,232.9624 706.2449,234.0291 Q706.9297,235.0957 708.2744,235.0957 Q708.9053,235.0957 709.4988,234.8259 Q710.0923,234.5562 710.7231,233.9751 Z " fill="#000000"/><text fill="#000000" font-family="sans-serif" font-size="14" lengthAdjust="spacing" textLength="97" x="728.75" y="235.8457">SideTestEnum</text><line style="stroke:#181818;stroke-width:0.5;" x1="611" x2="911" y1="246.5547" y2="246.5547"/><ellipse cx="621" cy="260.2988" fill="none" rx="3" ry="3" style="stroke:#038048;stroke-width:1.0;"/><text fill="#000000" font-family="sans-serif" font-size="14" lengthAdjust="spacing" textLength="276" x="630" y="264.0898">TestEnumValue1: EnumTypePlaceHolder</text><ellipse cx="621" cy="276.7871" fill="none" rx="3" ry="3" style="stroke:#038048;stroke-width:1.0;"/><text fill="#000000" font-family="sans-serif" font-size="14" lengthAdjust="spacing" textLength="276" x="630" y="280.5781">TestEnumValue2: EnumTypePlaceHolder</text><line style="stroke:#181818;stroke-width:1.0;" x1="611" x2="911" y1="287.5313" y2="287.5313"/><line style="stroke:#181818;stroke-width:1.0;" x1="611" x2="911" y1="289.5313" y2="289.5313"/></g></a><!--class LoggingType--><a href="preadapter.LoggingType-diagram-detailed-grouped-per-namespace.svg" target="_top" title="preadapter.LoggingType-diagram-detailed-grouped-per-namespace.svg" xlink:actuate="onRequest" xlink:href="preadapter.LoggingType-diagram-detailed-grouped-per-namespace.svg" xlink:show="new" xlink:title="preadapter.LoggingType-diagram-detailed-grouped-per-namespace.svg" xlink:type="simple"><g id="elem_LoggingType"><rect codeLine="27" fill="#F1F1F1" height="146.9297" id="LoggingType" rx="2.5" ry="2.5" style="stroke:#181818;stroke-width:0.5;" width="252" x="1040" y="181.5547"/><ellipse cx="1117.25" cy="197.5547" fill="#ADD1B2" rx="11" ry="11" style="stroke:#181818;stroke-width:1.0;"/><path d="M1119.7231,203.6978 Q1119.1421,203.9966 1118.5029,204.146 Q1117.8638,204.2954 1117.1582,204.2954 Q1114.6514,204.2954 1113.3315,202.6436 Q1112.0117,200.9917 1112.0117,197.8706 Q1112.0117,194.7412 1113.3315,193.0894 Q1114.6514,191.4375 1117.1582,191.4375 Q1117.8638,191.4375 1118.5112,191.5869 Q1119.1587,191.7363 1119.7231,192.0352 L1119.7231,194.7578 Q1119.0923,194.1768 1118.4988,193.907 Q1117.9053,193.6372 1117.2744,193.6372 Q1115.9297,193.6372 1115.2449,194.7039 Q1114.5601,195.7705 1114.5601,197.8706 Q1114.5601,199.9624 1115.2449,201.0291 Q1115.9297,202.0957 1117.2744,202.0957 Q1117.9053,202.0957 1118.4988,201.8259 Q1119.0923,201.5562 1119.7231,200.9751 Z " fill="#000000"/><text fill="#000000" font-family="sans-serif" font-size="14" lengthAdjust="spacing" textLength="89" x="1137.75" y="202.8457">LoggingType</text><line style="stroke:#181818;stroke-width:0.5;" x1="1041" x2="1291" y1="213.5547" y2="213.5547"/><ellipse cx="1051" cy="227.2988" fill="none" rx="3" ry="3" style="stroke:#038048;stroke-width:1.0;"/><text fill="#000000" font-family="sans-serif" font-size="14" lengthAdjust="spacing" textLength="207" x="1060" y="231.0898">TRACE: EnumTypePlaceHolder</text><ellipse cx="1051" cy="243.7871" fill="none" rx="3" ry="3" style="stroke:#038048;stroke-width:1.0;"/><text fill="#000000" font-family="sans-serif" font-size="14" lengthAdjust="spacing" textLength="207" x="1060" y="247.5781">DEBUG: EnumTypePlaceHolder</text><ellipse cx="1051" cy="260.2754" fill="none" rx="3" ry="3" style="stroke:#038048;stroke-width:1.0;"/><text fill="#000000" font-family="sans-serif" font-size="14" lengthAdjust="spacing" textLength="194" x="1060" y="264.0664">INFO: EnumTypePlaceHolder</text><ellipse cx="1051" cy="276.7637" fill="none" rx="3" ry="3" style="stroke:#038048;stroke-width:1.0;"/><text fill="#000000" font-family="sans-serif" font-size="14" lengthAdjust="spacing" textLength="226" x="1060" y="280.5547">WARNING: EnumTypePlaceHolder</text><ellipse cx="1051" cy="293.252" fill="none" rx="3" ry="3" style="stroke:#038048;stroke-width:1.0;"/><text fill="#000000" font-family="sans-serif" font-size="14" lengthAdjust="spacing" textLength="207" x="1060" y="297.043">ERROR: EnumTypePlaceHolder</text><line style="stroke:#181818;stroke-width:1.0;" x1="1041" x2="1291" y1="303.9961" y2="303.9961"/><line style="stroke:#181818;stroke-width:1.0;" x1="1041" x2="1291" y1="305.9961" y2="305.9961"/><ellipse cx="1051" cy="317.7402" fill="#84BE84" rx="3" ry="3" style="stroke:#038048;stroke-width:1.0;"/><text fill="#000000" font-family="sans-serif" font-size="14" lengthAdjust="spacing" textLength="65" x="1060" y="321.5313">getValue(</text><text fill="#000000" font-family="sans-serif" font-size="14" lengthAdjust="spacing" textLength="9" x="1125" y="321.5313">):</text><text fill="#BB6060" font-family="sans-serif" font-size="14" lengthAdjust="spacing" textLength="18" x="1138" y="321.5313">int</text></g></a><g id="elem_FloatingNote"><path d="M6,131.0547 L6,378.7129 L506,378.7129 L506,141.0547 L496,131.0547 L6,131.0547 " fill="#FEFFDD" style="stroke:#181818;stroke-width:0.5;"/><path d="M496,131.0547 L496,141.0547 L506,141.0547 L496,131.0547 " fill="#FEFFDD" style="stroke:#181818;stroke-width:1.0;"/><text fill="#000000" font-family="sans-serif" font-size="13" lengthAdjust="spacing" textLength="120" x="12" y="148.623">Your are analyzing:</text><text fill="#000000" font-family="sans-serif" font-size="13" lengthAdjust="spacing" textLength="139" x="12" y="163.9336">EnumTypePlaceHolder</text><text fill="#000000" font-family="sans-serif" font-size="13" font-weight="bold" lengthAdjust="spacing" textLength="55" x="155" y="163.9336">detailed</text><text fill="#000000" font-family="sans-serif" font-size="13" lengthAdjust="spacing" textLength="23" x="214" y="163.9336">and</text><text fill="#000000" font-family="sans-serif" font-size="13" font-weight="bold" lengthAdjust="spacing" textLength="166" x="241" y="163.9336">grouped per namespace</text><text fill="#000000" font-family="sans-serif" font-size="13" lengthAdjust="spacing" textLength="4" x="12" y="179.2441">&#160;</text><text fill="#000000" font-family="sans-serif" font-size="13" lengthAdjust="spacing" textLength="229" x="12" y="209.8652">You can click either the namespaces</text><text fill="#000000" font-family="sans-serif" font-size="13" lengthAdjust="spacing" textLength="266" x="12" y="225.1758">or class names for filtering them and their</text><text fill="#000000" font-family="sans-serif" font-size="13" lengthAdjust="spacing" textLength="130" x="12" y="240.4863">direct dependencies.</text><text fill="#000000" font-family="sans-serif" font-size="13" lengthAdjust="spacing" textLength="4" x="12" y="255.7969">&#160;</text><line style="stroke:#181818;stroke-width:1.0;" x1="7" x2="240" y1="189.6416" y2="189.6416"/><line style="stroke:#181818;stroke-width:1.0;" x1="7" x2="240" y1="191.6416" y2="191.6416"/><text fill="#000000" font-family="sans-serif" font-size="13" lengthAdjust="spacing" textLength="32" x="240" y="194.0547">Filter</text><line style="stroke:#181818;stroke-width:1.0;" x1="272" x2="505" y1="189.6416" y2="189.6416"/><line style="stroke:#181818;stroke-width:1.0;" x1="272" x2="505" y1="191.6416" y2="191.6416"/><ellipse cx="17.5" cy="285.6602" fill="#000000" rx="2.5" ry="2.5" style="stroke:#000000;stroke-width:0.0;"/><text fill="#000000" font-family="sans-serif" font-size="13" lengthAdjust="spacing" textLength="139" x="24" y="290.418">EnumTypePlaceHolder</text><text fill="#000000" font-family="sans-serif" font-size="13" font-weight="bold" lengthAdjust="spacing" textLength="67" x="167" y="290.418">simplified</text><text fill="#000000" font-family="sans-serif" font-size="13" lengthAdjust="spacing" textLength="23" x="238" y="290.418">and</text><text fill="#000000" font-family="sans-serif" font-size="13" font-weight="bold" lengthAdjust="spacing" textLength="166" x="265" y="290.418">grouped per namespace</text><text fill="#000000" font-family="sans-serif" font-size="13" lengthAdjust="spacing" textLength="4" x="431" y="290.418">:</text><text fill="#000000" font-family="sans-serif" font-size="13" lengthAdjust="spacing" textLength="12" x="12" y="305.7285">&#160;&#160;&#160;</text><a href="EnumTypePlaceHolder-diagram-simplified-grouped-per-namespace.svg" target="_top" title="EnumTypePlaceHolder-diagram-simplified-grouped-per-namespace.svg" xlink:actuate="onRequest" xlink:href="EnumTypePlaceHolder-diagram-simplified-grouped-per-namespace.svg" xlink:show="new" xlink:title="EnumTypePlaceHolder-diagram-simplified-grouped-per-namespace.svg" xlink:type="simple"><text fill="#0000FF" font-family="sans-serif" font-size="13" lengthAdjust="spacing" text-decoration="underline" textLength="461" x="24" y="305.7285">EnumTypePlaceHolder-diagram-simplified-grouped-per-namespace.svg</text></a><ellipse cx="17.5" cy="316.2813" fill="#000000" rx="2.5" ry="2.5" style="stroke:#000000;stroke-width:0.0;"/><text fill="#000000" font-family="sans-serif" font-size="13" lengthAdjust="spacing" textLength="78" x="24" y="321.0391">Full diagram</text><text fill="#000000" font-family="sans-serif" font-size="13" font-weight="bold" lengthAdjust="spacing" textLength="55" x="106" y="321.0391">detailed</text><text fill="#000000" font-family="sans-serif" font-size="13" lengthAdjust="spacing" textLength="23" x="165" y="321.0391">and</text><text fill="#000000" font-family="sans-serif" font-size="13" font-weight="bold" lengthAdjust="spacing" textLength="166" x="192" y="321.0391">grouped per namespace</text><text fill="#000000" font-family="sans-serif" font-size="13" lengthAdjust="spacing" textLength="4" x="358" y="321.0391">:</text><text fill="#000000" font-family="sans-serif" font-size="13" lengthAdjust="spacing" textLength="12" x="12" y="336.3496">&#160;&#160;&#160;</text><a href="full-diagram-detailed-grouped-per-namespace.svg" target="_top" title="full-diagram-detailed-grouped-per-namespace.svg" xlink:actuate="onRequest" xlink:href="full-diagram-detailed-grouped-per-namespace.svg" xlink:show="new" xlink:title="full-diagram-detailed-grouped-per-namespace.svg" xlink:type="simple"><text fill="#0000FF" font-family="sans-serif" font-size="13" lengthAdjust="spacing" text-decoration="underline" textLength="330" x="24" y="336.3496">full-diagram-detailed-grouped-per-namespace.svg</text></a><ellipse cx="17.5" cy="346.9023" fill="#000000" rx="2.5" ry="2.5" style="stroke:#000000;stroke-width:0.0;"/><text fill="#000000" font-family="sans-serif" font-size="13" lengthAdjust="spacing" textLength="41" x="24" y="351.6602">Home:</text><text fill="#000000" font-family="sans-serif" font-size="13" lengthAdjust="spacing" textLength="12" x="12" y="366.9707">&#160;&#160;&#160;</text><a href="index.html" target="_top" title="index.html" xlink:actuate="onRequest" xlink:href="index.html" xlink:show="new" xlink:title="index.html" xlink:type="simple"><text fill="#0000FF" font-family="sans-serif" font-size="13" lengthAdjust="spacing" text-decoration="underline" textLength="68" x="24" y="366.9707">index.html</text></a><line style="stroke:#181818;stroke-width:1.0;" x1="7" x2="219" y1="270.1943" y2="270.1943"/><line style="stroke:#181818;stroke-width:1.0;" x1="7" x2="219" y1="272.1943" y2="272.1943"/><text fill="#000000" font-family="sans-serif" font-size="13" lengthAdjust="spacing" textLength="74" x="219" y="274.6074">Select other</text><line style="stroke:#181818;stroke-width:1.0;" x1="293" x2="505" y1="270.1943" y2="270.1943"/><line style="stroke:#181818;stroke-width:1.0;" x1="293" x2="505" y1="272.1943" y2="272.1943"/></g><!--class EnumTypePlaceHolder--><a href="EnumTypePlaceHolder-diagram-detailed-grouped-per-namespace.svg" target="_top" title="EnumTypePlaceHolder-diagram-detailed-grouped-per-namespace.svg" xlink:actuate="onRequest" xlink:href="EnumTypePlaceHolder-diagram-detailed-grouped-per-namespace.svg" xlink:show="new" xlink:title="EnumTypePlaceHolder-diagram-detailed-grouped-per-namespace.svg" xlink:type="simple"><g id="elem_EnumTypePlaceHolder"><rect codeLine="4" fill="#FFFF00" height="48" id="EnumTypePlaceHolder" rx="2.5" ry="2.5" style="stroke:#181818;stroke-width:0.5;" width="185" x="870.5" y="439.0547"/><ellipse cx="885.5" cy="455.0547" fill="#ADD1B2" rx="11" ry="11" style="stroke:#181818;stroke-width:1.0;"/><path d="M887.9731,461.1978 Q887.3921,461.4966 886.7529,461.646 Q886.1138,461.7954 885.4082,461.7954 Q882.9014,461.7954 881.5815,460.1436 Q880.2617,458.4917 880.2617,455.3706 Q880.2617,452.2412 881.5815,450.5894 Q882.9014,448.9375 885.4082,448.9375 Q886.1138,448.9375 886.7612,449.0869 Q887.4087,449.2363 887.9731,449.5352 L887.9731,452.2578 Q887.3423,451.6768 886.7488,451.407 Q886.1553,451.1372 885.5244,451.1372 Q884.1797,451.1372 883.4949,452.2039 Q882.8101,453.2705 882.8101,455.3706 Q882.8101,457.4624 883.4949,458.5291 Q884.1797,459.5957 885.5244,459.5957 Q886.1553,459.5957 886.7488,459.3259 Q887.3423,459.0562 887.9731,458.4751 Z " fill="#000000"/><text fill="#000000" font-family="sans-serif" font-size="14" lengthAdjust="spacing" textLength="153" x="899.5" y="460.3457">EnumTypePlaceHolder</text><line style="stroke:#181818;stroke-width:0.5;" x1="871.5" x2="1054.5" y1="471.0547" y2="471.0547"/><line style="stroke:#181818;stroke-width:0.5;" x1="871.5" x2="1054.5" y1="479.0547" y2="479.0547"/></g></a><!--reverse link SideTestEnum to EnumTypePlaceHolder--><g id="link_SideTestEnum_EnumTypePlaceHolder"><path codeLine="47" d="M891.25,309.6547 C891.25,309.6547 891.25,438.8047 891.25,438.8047 " fill="none" id="SideTestEnum-backto-EnumTypePlaceHolder" style="stroke:#10BB10;stroke-width:1.0;"/><polygon fill="#10BB10" points="891.25,296.6547,887.25,302.6547,891.25,308.6547,895.25,302.6547,891.25,296.6547" style="stroke:#10BB10;stroke-width:1.0;"/></g><!--reverse link LoggingType to EnumTypePlaceHolder--><g id="link_LoggingType_EnumTypePlaceHolder"><path codeLine="50" d="M1047.75,342.9747 C1047.75,342.9747 1047.75,438.8847 1047.75,438.8847 " fill="none" id="LoggingType-backto-EnumTypePlaceHolder" style="stroke:#10BB10;stroke-width:1.0;"/><polygon fill="#10BB10" points="1047.75,329.9747,1043.75,335.9747,1047.75,341.9747,1051.75,335.9747,1047.75,329.9747" style="stroke:#10BB10;stroke-width:1.0;"/></g><!--SRC=[pLPHJ-9047xlhvZWWtSr8FhW0w4aed2QNF22tbqkGipQJil6xMwpkrNKt7-_AHGAIL7gwUKQGjgTRsQ-cVbsMtF7PS8qYq5mYVOnGL3QJfHZkHK8RSEVi7NOxFHa6b-HzPjWFfuf4Q06rmtGCYumS5rWCg25IAiqmG0ICaiMeqa8xhhj_InEnv7A8jH-gLG3qqW-J3m-SHcrHlBl4epaI7fUdmkBslD6abA0poJuWljtWDnE24z_XO-1aLIQ0CoO-Ig4z1pEGX2b31tFaj8DroCPS8s-XG0Jb05AdwDfpDDUeiWiAakI9NUXl1Z3uqJmaBzU3lK30AwlI-BK0yuYcbUzY5RFezGfIdqPfM7ke_4uOzDFXO3ShK9F5oH2SbzcNJY_blDCnRW8mAbVqyR4nc8yhW4pq1UAMUhnWEJWp2TGrh6Nwz-62UmyeX3g0PwTtyukd0Xbij4owaUYyPwhrDoOzFPcwNOZkB554s2W9C8j-Ymrc6aZrwpX1kWNSidD18E6KtZqfepcGceYzlbjDShF9S4QNHQSek6HN0bRBBvd0heptC_NIxEj8JuiTUEI1xWrZLLqLKemkt8PRfzcTd-5ncOYhSPmpRKQtILVW3rOXFZ1H8e7hR9Dj0bzM8xslDo1jik9YkdDGEV2_pSpUA0J7MXY5kZiZL7IwHl2ala7RlGYTk6xKiVQCLCWLilU2CbxjC6-Q2QPYqMgZGKiiRF3idYekWFcsY_y6rzL557wJ1rhWLSDRz0jQN1uVDBR9DGzEErrlt_PR3uVz2ysMtyU3mVdWnVSUyFXnV05tUz1X7QsEpwrGqMQyfLGsgiTDO-QtMwjqzxFLZkVMx1cxdOpGAt3fSqHJldkUPzfbMl_twk-A83AXLtwZjZgWW_3PYGp7MiKz7MXf06SMiryIqC8jOeBxYt2LeHNECkSDxz4tFhrpW59xQ0vhfT-4LKalJAY3PlxrOn_0000]--></g></svg>