<?xml version="1.0" encoding="us-ascii" standalone="no"?><svg xmlns="http://www.w3.org/2000/svg" xmlns:xlink="http://www.w3.org/1999/xlink" contentStyleType="text/css" height="430px" preserveAspectRatio="none" style="width:1096px;height:430px;background:#FFFFFF;" version="1.1" viewBox="0 0 1096 430" width="1096px" zoomAndPan="magnify"><defs/><g><text fill="#000000" font-family="sans-serif" font-size="20" font-weight="bold" lengthAdjust="spacing" textLength="232" x="376.25" y="29.3359">EnumTypePlaceHolder</text><text fill="#000000" font-family="sans-serif" font-size="20" font-weight="bold" lengthAdjust="spacing" textLength="84" x="615.25" y="29.3359">detailed</text><text fill="#000000" font-family="sans-serif" font-size="20" font-weight="bold" lengthAdjust="spacing" textLength="7" x="699.25" y="29.3359">&#160;</text><!--cluster Example--><g id="cluster_Example"><path d="M402,56.0547 L463,56.0547 A3.75,3.75 0 0 1 465.5,58.5547 L472.5,78.543 L779,78.543 A2.5,2.5 0 0 1 781.5,81.043 L781.5,252.5547 A2.5,2.5 0 0 1 779,255.0547 L402,255.0547 A2.5,2.5 0 0 1 399.5,252.5547 L399.5,58.5547 A2.5,2.5 0 0 1 402,56.0547 " fill="none" style="stroke:#000000;stroke-width:1.5;"/><line style="stroke:#000000;stroke-width:1.5;" x1="399.5" x2="472.5" y1="78.543" y2="78.543"/><text fill="#000000" font-family="sans-serif" font-size="14" font-weight="bold" lengthAdjust="spacing" textLength="60" x="403.5" y="71.5898">Example</text></g><!--cluster SideExample--><g id="cluster_SideExample"><path d="M426,99.0547 L517,99.0547 A3.75,3.75 0 0 1 519.5,101.5547 L526.5,121.543 L755,121.543 A2.5,2.5 0 0 1 757.5,124.043 L757.5,228.5547 A2.5,2.5 0 0 1 755,231.0547 L426,231.0547 A2.5,2.5 0 0 1 423.5,228.5547 L423.5,101.5547 A2.5,2.5 0 0 1 426,99.0547 " fill="none" style="stroke:#000000;stroke-width:1.5;"/><line style="stroke:#000000;stroke-width:1.5;" x1="423.5" x2="526.5" y1="121.543" y2="121.543"/><text fill="#000000" font-family="sans-serif" font-size="14" font-weight="bold" lengthAdjust="spacing" textLength="90" x="427.5" y="114.5898">SideExample</text></g><!--cluster preadapter--><g id="cluster_preadapter"><path d="M808,66.0547 L886,66.0547 A3.75,3.75 0 0 1 888.5,68.5547 L895.5,88.543 L1087,88.543 A2.5,2.5 0 0 1 1089.5,91.043 L1089.5,261.5547 A2.5,2.5 0 0 1 1087,264.0547 L808,264.0547 A2.5,2.5 0 0 1 805.5,261.5547 L805.5,68.5547 A2.5,2.5 0 0 1 808,66.0547 " fill="none" style="stroke:#000000;stroke-width:1.5;"/><line style="stroke:#000000;stroke-width:1.5;" x1="805.5" x2="895.5" y1="88.543" y2="88.543"/><text fill="#000000" font-family="sans-serif" font-size="14" font-weight="bold" lengthAdjust="spacing" textLength="77" x="809.5" y="81.5898">preadapter</text></g><!--class SideTestEnum--><a href="Example.SideExample.SideTestEnum-diagram-detailed.svg" target="_top" title="Example.SideExample.SideTestEnum-diagram-detailed.svg" xlink:actuate="onRequest" xlink:href="Example.SideExample.SideTestEnum-diagram-detailed.svg" xlink:show="new" xlink:title="Example.SideExample.SideTestEnum-diagram-detailed.svg" xlink:type="simple"><g id="elem_SideTestEnum"><rect codeLine="5" fill="#F1F1F1" height="80.9766" id="SideTestEnum" rx="2.5" ry="2.5" style="stroke:#181818;stroke-width:0.5;" width="302" x="439.5" y="134.0547"/><ellipse cx="537.75" cy="150.0547" fill="#ADD1B2" rx="11" ry="11" style="stroke:#181818;stroke-width:1.0;"/><path d="M540.2231,156.1978 Q539.6421,156.4966 539.0029,156.646 Q538.3638,156.7954 537.6582,156.7954 Q535.1514,156.7954 533.8315,155.1436 Q532.5117,153.4917 532.5117,150.3706 Q532.5117,147.2412 533.8315,145.5894 Q535.1514,143.9375 537.6582,143.9375 Q538.3638,143.9375 539.0112,144.0869 Q539.6587,144.2363 540.2231,144.5352 L540.2231,147.2578 Q539.5923,146.6768 538.9988,146.407 Q538.4053,146.1372 537.7744,146.1372 Q536.4297,146.1372 535.7449,147.2039 Q535.0601,148.2705 535.0601,150.3706 Q535.0601,152.4624 535.7449,153.5291 Q536.4297,154.5957 537.7744,154.5957 Q538.4053,154.5957 538.9988,154.3259 Q539.5923,154.0562 540.2231,153.4751 Z " fill="#000000"/><text fill="#000000" font-family="sans-serif" font-size="14" lengthAdjust="spacing" textLength="97" x="558.25" y="155.3457">SideTestEnum</text><line style="stroke:#181818;stroke-width:0.5;" x1="440.5" x2="740.5" y1="166.0547" y2="166.0547"/><ellipse cx="450.5" cy="179.7988" fill="none" rx="3" ry="3" style="stroke:#038048;stroke-width:1.0;"/><text fill="#000000" font-family="sans-serif" font-size="14" lengthAdjust="spacing" textLength="276" x="459.5" y="183.5898">TestEnumValue1: EnumTypePlaceHolder</text><ellipse cx="450.5" cy="196.2871" fill="none" rx="3" ry="3" style="stroke:#038048;stroke-width:1.0;"/><text fill="#000000" font-family="sans-serif" font-size="14" lengthAdjust="spacing" textLength="276" x="459.5" y="200.0781">TestEnumValue2: EnumTypePlaceHolder</text><line style="stroke:#181818;stroke-width:1.0;" x1="440.5" x2="740.5" y1="207.0313" y2="207.0313"/><line style="stroke:#181818;stroke-width:1.0;" x1="440.5" x2="740.5" y1="209.0313" y2="209.0313"/></g></a><!--class LoggingType--><a href="preadapter.LoggingType-diagram-detailed.svg" target="_top" title="preadapter.LoggingType-diagram-detailed.svg" xlink:actuate="onRequest" xlink:href="preadapter.LoggingType-diagram-detailed.svg" xlink:show="new" xlink:title="preadapter.LoggingType-diagram-detailed.svg" xlink:type="simple"><g id="elem_LoggingType"><rect codeLine="10" fill="#F1F1F1" height="146.9297" id="LoggingType" rx="2.5" ry="2.5" style="stroke:#181818;stroke-width:0.5;" width="252" x="821.5" y="101.0547"/><ellipse cx="898.75" cy="117.0547" fill="#ADD1B2" rx="11" ry="11" style="stroke:#181818;stroke-width:1.0;"/><path d="M901.2231,123.1978 Q900.6421,123.4966 900.0029,123.646 Q899.3638,123.7954 898.6582,123.7954 Q896.1514,123.7954 894.8315,122.1436 Q893.5117,120.4917 893.5117,117.3706 Q893.5117,114.2412 894.8315,112.5894 Q896.1514,110.9375 898.6582,110.9375 Q899.3638,110.9375 900.0112,111.0869 Q900.6587,111.2363 901.2231,111.5352 L901.2231,114.2578 Q900.5923,113.6768 899.9988,113.407 Q899.4053,113.1372 898.7744,113.1372 Q897.4297,113.1372 896.7449,114.2039 Q896.0601,115.2705 896.0601,117.3706 Q896.0601,119.4624 896.7449,120.5291 Q897.4297,121.5957 898.7744,121.5957 Q899.4053,121.5957 899.9988,121.3259 Q900.5923,121.0562 901.2231,120.4751 Z " fill="#000000"/><text fill="#000000" font-family="sans-serif" font-size="14" lengthAdjust="spacing" textLength="89" x="919.25" y="122.3457">LoggingType</text><line style="stroke:#181818;stroke-width:0.5;" x1="822.5" x2="1072.5" y1="133.0547" y2="133.0547"/><ellipse cx="832.5" cy="146.7988" fill="none" rx="3" ry="3" style="stroke:#038048;stroke-width:1.0;"/><text fill="#000000" font-family="sans-serif" font-size="14" lengthAdjust="spacing" textLength="207" x="841.5" y="150.5898">TRACE: EnumTypePlaceHolder</text><ellipse cx="832.5" cy="163.2871" fill="none" rx="3" ry="3" style="stroke:#038048;stroke-width:1.0;"/><text fill="#000000" font-family="sans-serif" font-size="14" lengthAdjust="spacing" textLength="207" x="841.5" y="167.0781">DEBUG: EnumTypePlaceHolder</text><ellipse cx="832.5" cy="179.7754" fill="none" rx="3" ry="3" style="stroke:#038048;stroke-width:1.0;"/><text fill="#000000" font-family="sans-serif" font-size="14" lengthAdjust="spacing" textLength="194" x="841.5" y="183.5664">INFO: EnumTypePlaceHolder</text><ellipse cx="832.5" cy="196.2637" fill="none" rx="3" ry="3" style="stroke:#038048;stroke-width:1.0;"/><text fill="#000000" font-family="sans-serif" font-size="14" lengthAdjust="spacing" textLength="226" x="841.5" y="200.0547">WARNING: EnumTypePlaceHolder</text><ellipse cx="832.5" cy="212.752" fill="none" rx="3" ry="3" style="stroke:#038048;stroke-width:1.0;"/><text fill="#000000" font-family="sans-serif" font-size="14" lengthAdjust="spacing" textLength="207" x="841.5" y="216.543">ERROR: EnumTypePlaceHolder</text><line style="stroke:#181818;stroke-width:1.0;" x1="822.5" x2="1072.5" y1="223.4961" y2="223.4961"/><line style="stroke:#181818;stroke-width:1.0;" x1="822.5" x2="1072.5" y1="225.4961" y2="225.4961"/><ellipse cx="832.5" cy="237.2402" fill="#84BE84" rx="3" ry="3" style="stroke:#038048;stroke-width:1.0;"/><text fill="#000000" font-family="sans-serif" font-size="14" lengthAdjust="spacing" textLength="65" x="841.5" y="241.0313">getValue(</text><text fill="#000000" font-family="sans-serif" font-size="14" lengthAdjust="spacing" textLength="5" x="906.5" y="241.0313">)</text></g></a><g id="elem_FloatingNote"><path d="M6,50.5547 L6,298.2129 L383,298.2129 L383,60.5547 L373,50.5547 L6,50.5547 " fill="#FEFFDD" style="stroke:#181818;stroke-width:0.5;"/><path d="M373,50.5547 L373,60.5547 L383,60.5547 L373,50.5547 " fill="#FEFFDD" style="stroke:#181818;stroke-width:1.0;"/><text fill="#000000" font-family="sans-serif" font-size="13" lengthAdjust="spacing" textLength="120" x="12" y="68.123">Your are analyzing:</text><text fill="#000000" font-family="sans-serif" font-size="13" lengthAdjust="spacing" textLength="139" x="12" y="83.4336">EnumTypePlaceHolder</text><text fill="#000000" font-family="sans-serif" font-size="13" font-weight="bold" lengthAdjust="spacing" textLength="55" x="155" y="83.4336">detailed</text><text fill="#000000" font-family="sans-serif" font-size="13" lengthAdjust="spacing" textLength="4" x="210" y="83.4336">&#160;</text><text fill="#000000" font-family="sans-serif" font-size="13" lengthAdjust="spacing" textLength="4" x="12" y="98.7441">&#160;</text><text fill="#000000" font-family="sans-serif" font-size="13" lengthAdjust="spacing" textLength="229" x="12" y="129.3652">You can click either the namespaces</text><text fill="#000000" font-family="sans-serif" font-size="13" lengthAdjust="spacing" textLength="266" x="12" y="144.6758">or class names for filtering them and their</text><text fill="#000000" font-family="sans-serif" font-size="13" lengthAdjust="spacing" textLength="130" x="12" y="159.9863">direct dependencies.</text><text fill="#000000" font-family="sans-serif" font-size="13" lengthAdjust="spacing" textLength="4" x="12" y="175.2969">&#160;</text><line style="stroke:#181818;stroke-width:1.0;" x1="7" x2="178.5" y1="109.1416" y2="109.1416"/><line style="stroke:#181818;stroke-width:1.0;" x1="7" x2="178.5" y1="111.1416" y2="111.1416"/><text fill="#000000" font-family="sans-serif" font-size="13" lengthAdjust="spacing" textLength="32" x="178.5" y="113.5547">Filter</text><line style="stroke:#181818;stroke-width:1.0;" x1="210.5" x2="382" y1="109.1416" y2="109.1416"/><line style="stroke:#181818;stroke-width:1.0;" x1="210.5" x2="382" y1="111.1416" y2="111.1416"/><ellipse cx="17.5" cy="205.1602" fill="#000000" rx="2.5" ry="2.5" style="stroke:#000000;stroke-width:0.0;"/><text fill="#000000" font-family="sans-serif" font-size="13" lengthAdjust="spacing" textLength="139" x="24" y="209.918">EnumTypePlaceHolder</text><text fill="#000000" font-family="sans-serif" font-size="13" font-weight="bold" lengthAdjust="spacing" textLength="67" x="167" y="209.918">simplified</text><text fill="#000000" font-family="sans-serif" font-size="13" lengthAdjust="spacing" textLength="4" x="238" y="209.918">:</text><text fill="#000000" font-family="sans-serif" font-size="13" lengthAdjust="spacing" textLength="12" x="12" y="225.2285">&#160;&#160;&#160;</text><a href="EnumTypePlaceHolder-diagram-simplified.svg" target="_top" title="EnumTypePlaceHolder-diagram-simplified.svg" xlink:actuate="onRequest" xlink:href="EnumTypePlaceHolder-diagram-simplified.svg" xlink:show="new" xlink:title="EnumTypePlaceHolder-diagram-simplified.svg" xlink:type="simple"><text fill="#0000FF" font-family="sans-serif" font-size="13" lengthAdjust="spacing" text-decoration="underline" textLength="295" x="24" y="225.2285">EnumTypePlaceHolder-diagram-simplified.svg</text></a><ellipse cx="17.5" cy="235.7813" fill="#000000" rx="2.5" ry="2.5" style="stroke:#000000;stroke-width:0.0;"/><text fill="#000000" font-family="sans-serif" font-size="13" lengthAdjust="spacing" textLength="78" x="24" y="240.5391">Full diagram</text><text fill="#000000" font-family="sans-serif" font-size="13" font-weight="bold" lengthAdjust="spacing" textLength="55" x="106" y="240.5391">detailed</text><text fill="#000000" font-family="sans-serif" font-size="13" lengthAdjust="spacing" textLength="23" x="165" y="240.5391">and</text><text fill="#000000" font-family="sans-serif" font-size="13" font-weight="bold" lengthAdjust="spacing" textLength="166" x="192" y="240.5391">grouped per namespace</text><text fill="#000000" font-family="sans-serif" font-size="13" lengthAdjust="spacing" textLength="4" x="358" y="240.5391">:</text><text fill="#000000" font-family="sans-serif" font-size="13" lengthAdjust="spacing" textLength="12" x="12" y="255.8496">&#160;&#160;&#160;</text><a href="full-diagram-detailed-grouped-per-namespace.svg" target="_top" title="full-diagram-detailed-grouped-per-namespace.svg" xlink:actuate="onRequest" xlink:href="full-diagram-detailed-grouped-per-namespace.svg" xlink:show="new" xlink:title="full-diagram-detailed-grouped-per-namespace.svg" xlink:type="simple"><text fill="#0000FF" font-family="sans-serif" font-size="13" lengthAdjust="spacing" text-decoration="underline" textLength="330" x="24" y="255.8496">full-diagram-detailed-grouped-per-namespace.svg</text></a><ellipse cx="17.5" cy="266.4023" fill="#000000" rx="2.5" ry="2.5" style="stroke:#000000;stroke-width:0.0;"/><text fill="#000000" font-family="sans-serif" font-size="13" lengthAdjust="spacing" textLength="41" x="24" y="271.1602">Home:</text><text fill="#000000" font-family="sans-serif" font-size="13" lengthAdjust="spacing" textLength="12" x="12" y="286.4707">&#160;&#160;&#160;</text><a href="index.html" target="_top" title="index.html" xlink:actuate="onRequest" xlink:href="index.html" xlink:show="new" xlink:title="index.html" xlink:type="simple"><text fill="#0000FF" font-family="sans-serif" font-size="13" lengthAdjust="spacing" text-decoration="underline" textLength="68" x="24" y="286.4707">index.html</text></a><line style="stroke:#181818;stroke-width:1.0;" x1="7" x2="157.5" y1="189.6943" y2="189.6943"/><line style="stroke:#181818;stroke-width:1.0;" x1="7" x2="157.5" y1="191.6943" y2="191.6943"/><text fill="#000000" font-family="sans-serif" font-size="13" lengthAdjust="spacing" textLength="74" x="157.5" y="194.1074">Select other</text><line style="stroke:#181818;stroke-width:1.0;" x1="231.5" x2="382" y1="189.6943" y2="189.6943"/><line style="stroke:#181818;stroke-width:1.0;" x1="231.5" x2="382" y1="191.6943" y2="191.6943"/></g><!--class EnumTypePlaceHolder--><a href="EnumTypePlaceHolder-diagram-detailed.svg" target="_top" title="EnumTypePlaceHolder-diagram-detailed.svg" xlink:actuate="onRequest" xlink:href="EnumTypePlaceHolder-diagram-detailed.svg" xlink:show="new" xlink:title="EnumTypePlaceHolder-diagram-detailed.svg" xlink:type="simple"><g id="elem_EnumTypePlaceHolder"><rect codeLine="3" fill="#FFFF00" height="48" id="EnumTypePlaceHolder" rx="2.5" ry="2.5" style="stroke:#181818;stroke-width:0.5;" width="185" x="676" y="375.5547"/><ellipse cx="691" cy="391.5547" fill="#ADD1B2" rx="11" ry="11" style="stroke:#181818;stroke-width:1.0;"/><path d="M693.4731,397.6978 Q692.8921,397.9966 692.2529,398.146 Q691.6138,398.2954 690.9082,398.2954 Q688.4014,398.2954 687.0815,396.6436 Q685.7617,394.9917 685.7617,391.8706 Q685.7617,388.7412 687.0815,387.0894 Q688.4014,385.4375 690.9082,385.4375 Q691.6138,385.4375 692.2612,385.5869 Q692.9087,385.7363 693.4731,386.0352 L693.4731,388.7578 Q692.8423,388.1768 692.2488,387.907 Q691.6553,387.6372 691.0244,387.6372 Q689.6797,387.6372 688.9949,388.7039 Q688.3101,389.7705 688.3101,391.8706 Q688.3101,393.9624 688.9949,395.0291 Q689.6797,396.0957 691.0244,396.0957 Q691.6553,396.0957 692.2488,395.8259 Q692.8423,395.5562 693.4731,394.9751 Z " fill="#000000"/><text fill="#000000" font-family="sans-serif" font-size="14" lengthAdjust="spacing" textLength="153" x="705" y="396.8457">EnumTypePlaceHolder</text><line style="stroke:#181818;stroke-width:0.5;" x1="677" x2="860" y1="407.5547" y2="407.5547"/><line style="stroke:#181818;stroke-width:0.5;" x1="677" x2="860" y1="415.5547" y2="415.5547"/></g></a><!--link SideTestEnum to EnumTypePlaceHolder--><g id="link_SideTestEnum_EnumTypePlaceHolder"><path codeLine="26" d="M622.32,215.4247 C657.97,260.0847 714.85,331.3447 746.11,370.5047 " fill="none" id="SideTestEnum-to-EnumTypePlaceHolder" style="stroke:#6060BB;stroke-width:1.0;stroke-dasharray:7.0,7.0;"/><polygon fill="#6060BB" points="749.79,374.1147,747.3167,364.5814,746.677,370.202,741.0564,369.5623,749.79,374.1147" style="stroke:#6060BB;stroke-width:1.0;"/><text fill="#000000" font-family="sans-serif" font-size="13" lengthAdjust="spacing" textLength="29" x="725.5" y="342.123">uses</text></g><!--link LoggingType to EnumTypePlaceHolder--><g id="link_LoggingType_EnumTypePlaceHolder"><path codeLine="29" d="M889.14,248.2647 C855.49,290.1847 815.14,340.4547 790.68,370.9247 " fill="none" id="LoggingType-to-EnumTypePlaceHolder" style="stroke:#6060BB;stroke-width:1.0;stroke-dasharray:7.0,7.0;"/><polygon fill="#6060BB" points="787.19,374.2747,795.9418,369.7574,790.3187,370.3745,789.7015,364.7514,787.19,374.2747" style="stroke:#6060BB;stroke-width:1.0;"/><text fill="#000000" font-family="sans-serif" font-size="13" lengthAdjust="spacing" textLength="29" x="821.5" y="342.123">uses</text></g><!--SRC=[jLHDRzim3BtxLn3fePi3kraFFGHnWAPBrW93EgJTXY79GR1eLvWi6PAy9ItwtqV5-MW19saFyy6GnVVu7YdAJZY9qBFY4RlddVvGLSNziiHlagLuhIL70s78qJ4XaOSXzCuyj1yexH1QltHbW1a4ffXSFWgLTsVgQ8wPcgaa6Gdfq2J9J54MI9c2L8hqDw1m3yIW5oXMe2qfYoMEDWHWrjQxaD5tjaf1gXvTa0dk5yBC51S6KmSSIrGSLIhGnhNi7KeVqLx4YuVGxDUAefGY4ol7L1K0JASDq8WBbXjMH3j2RF_ayxbFFQgaX3NWTG-yrp3CZQvAv52IvBROCDp8PKJVvj-GepKf8bAq9UqqhtM1cmI2Yb_43wwGytaBc8MHrCnHmyPqV47TpgRo3rUwSL9hmiaIfTH_uIbu3c1zHiC5esvWV2SulbpVetK-jLSu0jadHpfK6xHX0_p1P8MVkas5D27Fcv59Gk3dTKzAWuopaeOh_ghpd1hcuMIwEN3GAibFBg-6-_oruVDmyFtB_l3DU7IxF_hpSZA-6H-W3oUJsyc1ajkGerirvaClqyf1ggKsIUkYSz4P35hztfdVxN_qXtjA8_kc1_uRzXIkLYTaKD8WQsK15ywmrD4joemkTjUeIzXtmXj6CZWwoV7qfExLFEutNYReGcNfZ_LECxjH2_QCuvkL_m40]--></g></svg>