<?xml version="1.0" encoding="us-ascii" standalone="no"?><svg xmlns="http://www.w3.org/2000/svg" xmlns:xlink="http://www.w3.org/1999/xlink" contentStyleType="text/css" height="488px" preserveAspectRatio="none" style="width:1710px;height:488px;background:#FFFFFF;" version="1.1" viewBox="0 0 1710 488" width="1710px" zoomAndPan="magnify"><defs/><g><text fill="#000000" font-family="sans-serif" font-size="20" font-weight="bold" lengthAdjust="spacing" textLength="102" x="748.25" y="29.3359">EnumTest</text><text fill="#000000" font-family="sans-serif" font-size="20" font-weight="bold" lengthAdjust="spacing" textLength="84" x="857.25" y="29.3359">detailed</text><text fill="#000000" font-family="sans-serif" font-size="20" font-weight="bold" lengthAdjust="spacing" textLength="7" x="941.25" y="29.3359">&#160;</text><!--cluster Examples--><g id="cluster_Examples"><path d="M402,50.5547 L471,50.5547 A3.75,3.75 0 0 1 473.5,53.0547 L480.5,73.043 L1701,73.043 A2.5,2.5 0 0 1 1703.5,75.543 L1703.5,388.0547 A2.5,2.5 0 0 1 1701,390.5547 L402,390.5547 A2.5,2.5 0 0 1 399.5,388.0547 L399.5,53.0547 A2.5,2.5 0 0 1 402,50.5547 " fill="none" style="stroke:#000000;stroke-width:1.5;"/><line style="stroke:#000000;stroke-width:1.5;" x1="399.5" x2="480.5" y1="73.043" y2="73.043"/><text fill="#000000" font-family="sans-serif" font-size="14" font-weight="bold" lengthAdjust="spacing" textLength="68" x="403.5" y="66.0898">Examples</text></g><!--cluster BadDesign--><g id="cluster_BadDesign"><path d="M426,93.5547 L503,93.5547 A3.75,3.75 0 0 1 505.5,96.0547 L512.5,116.043 L1677,116.043 A2.5,2.5 0 0 1 1679.5,118.543 L1679.5,364.0547 A2.5,2.5 0 0 1 1677,366.5547 L426,366.5547 A2.5,2.5 0 0 1 423.5,364.0547 L423.5,96.0547 A2.5,2.5 0 0 1 426,93.5547 " fill="none" style="stroke:#000000;stroke-width:1.5;"/><line style="stroke:#000000;stroke-width:1.5;" x1="423.5" x2="512.5" y1="116.043" y2="116.043"/><text fill="#000000" font-family="sans-serif" font-size="14" font-weight="bold" lengthAdjust="spacing" textLength="76" x="427.5" y="109.0898">BadDesign</text></g><!--cluster BasicExample--><g id="cluster_BasicExample"><path d="M450,136.5547 L548,136.5547 A3.75,3.75 0 0 1 550.5,139.0547 L557.5,159.043 L1653,159.043 A2.5,2.5 0 0 1 1655.5,161.543 L1655.5,340.0547 A2.5,2.5 0 0 1 1653,342.5547 L450,342.5547 A2.5,2.5 0 0 1 447.5,340.0547 L447.5,139.0547 A2.5,2.5 0 0 1 450,136.5547 " fill="none" style="stroke:#000000;stroke-width:1.5;"/><line style="stroke:#000000;stroke-width:1.5;" x1="447.5" x2="557.5" y1="159.043" y2="159.043"/><text fill="#000000" font-family="sans-serif" font-size="14" font-weight="bold" lengthAdjust="spacing" textLength="97" x="451.5" y="152.0898">BasicExample</text></g><!--class ClassExample--><a href="Examples.BadDesign.BasicExample.ClassExample-diagram-detailed.svg" target="_top" title="Examples.BadDesign.BasicExample.ClassExample-diagram-detailed.svg" xlink:actuate="onRequest" xlink:href="Examples.BadDesign.BasicExample.ClassExample-diagram-detailed.svg" xlink:show="new" xlink:title="Examples.BadDesign.BasicExample.ClassExample-diagram-detailed.svg" xlink:type="simple"><g id="elem_ClassExample"><rect codeLine="6" fill="#F1F1F1" height="154.9297" id="ClassExample" rx="2.5" ry="2.5" style="stroke:#181818;stroke-width:0.5;" width="1176" x="463.5" y="171.5547"/><ellipse cx="999.75" cy="187.5547" fill="#ADD1B2" rx="11" ry="11" style="stroke:#181818;stroke-width:1.0;"/><path d="M1002.2231,193.6978 Q1001.6421,193.9966 1001.0029,194.146 Q1000.3638,194.2954 999.6582,194.2954 Q997.1514,194.2954 995.8315,192.6436 Q994.5117,190.9917 994.5117,187.8706 Q994.5117,184.7412 995.8315,183.0894 Q997.1514,181.4375 999.6582,181.4375 Q1000.3638,181.4375 1001.0112,181.5869 Q1001.6587,181.7363 1002.2231,182.0352 L1002.2231,184.7578 Q1001.5923,184.1768 1000.9988,183.907 Q1000.4053,183.6372 999.7744,183.6372 Q998.4297,183.6372 997.7449,184.7039 Q997.0601,185.7705 997.0601,187.8706 Q997.0601,189.9624 997.7449,191.0291 Q998.4297,192.0957 999.7744,192.0957 Q1000.4053,192.0957 1000.9988,191.8259 Q1001.5923,191.5562 1002.2231,190.9751 Z " fill="#000000"/><text fill="#000000" font-family="sans-serif" font-size="14" lengthAdjust="spacing" textLength="95" x="1020.25" y="192.8457">ClassExample</text><line style="stroke:#181818;stroke-width:0.5;" x1="464.5" x2="1638.5" y1="203.5547" y2="203.5547"/><ellipse cx="474.5" cy="217.2988" fill="none" rx="3" ry="3" style="stroke:#038048;stroke-width:1.0;"/><text fill="#000000" font-family="sans-serif" font-size="14" lengthAdjust="spacing" textLength="433" x="483.5" y="221.0898">memberVarUseless: Examples.BadDesign.BasicExample.Useless</text><ellipse cx="474.5" cy="233.7871" fill="none" rx="3" ry="3" style="stroke:#038048;stroke-width:1.0;"/><text fill="#000000" font-family="sans-serif" font-size="14" lengthAdjust="spacing" textLength="224" x="483.5" y="237.5781">memberVarEnumTest: EnumTest</text><line style="stroke:#181818;stroke-width:1.0;" x1="464.5" x2="1638.5" y1="244.5313" y2="244.5313"/><line style="stroke:#181818;stroke-width:1.0;" x1="464.5" x2="1638.5" y1="246.5313" y2="246.5313"/><ellipse cx="474.5" cy="258.2754" fill="#84BE84" rx="3" ry="3" style="stroke:#038048;stroke-width:1.0;"/><text fill="#000000" font-family="sans-serif" font-size="14" lengthAdjust="spacing" textLength="64" x="483.5" y="262.0664">example(</text><text fill="#6060BB" font-family="sans-serif" font-size="14" lengthAdjust="spacing" textLength="722" x="547.5" y="262.0664">useless1:Examples.BadDesign.BasicExample.Useless, useless2:Examples.BadDesign.BasicExample.Useless</text><text fill="#000000" font-family="sans-serif" font-size="14" lengthAdjust="spacing" textLength="9" x="1269.5" y="262.0664">):</text><text fill="#BB6060" font-family="sans-serif" font-size="14" lengthAdjust="spacing" textLength="29" x="1282.5" y="262.0664">void</text><rect fill="none" height="6" style="stroke:#C82930;stroke-width:1.0;" width="6" x="471.5" y="271.7637"/><text fill="#909090" font-family="sans-serif" font-size="14" lengthAdjust="spacing" textLength="549" x="483.5" y="278.5547">example.localVarBaseExample: Examples.BadDesign.BasicExample.BaseExample</text><line style="stroke:#181818;stroke-width:1.0;" x1="464.5" x2="1638.5" y1="285.5078" y2="285.5078"/><ellipse cx="474.5" cy="299.252" fill="#84BE84" rx="3" ry="3" style="stroke:#038048;stroke-width:1.0;"/><text fill="#000000" font-family="sans-serif" font-size="14" lengthAdjust="spacing" textLength="86" x="483.5" y="303.043">getExample(</text><text fill="#000000" font-family="sans-serif" font-size="14" lengthAdjust="spacing" textLength="9" x="569.5" y="303.043">):</text><text fill="#BB6060" font-family="sans-serif" font-size="14" lengthAdjust="spacing" textLength="306" x="582.5" y="303.043">Examples.BadDesign.BasicExample.IExample</text><ellipse cx="474.5" cy="315.7402" fill="#84BE84" rx="3" ry="3" style="stroke:#038048;stroke-width:1.0;"/><text fill="#000000" font-family="sans-serif" font-size="14" lengthAdjust="spacing" textLength="121" x="483.5" y="319.5313">exampleAbstract(</text><text fill="#6060BB" font-family="sans-serif" font-size="14" lengthAdjust="spacing" textLength="722" x="604.5" y="319.5313">useless1:Examples.BadDesign.BasicExample.Useless, useless2:Examples.BadDesign.BasicExample.Useless</text><text fill="#000000" font-family="sans-serif" font-size="14" lengthAdjust="spacing" textLength="9" x="1326.5" y="319.5313">):</text><text fill="#BB6060" font-family="sans-serif" font-size="14" lengthAdjust="spacing" textLength="294" x="1339.5" y="319.5313">Examples.BadDesign.BasicExample.Useless</text></g></a><g id="elem_FloatingNote"><path d="M6,125.0547 L6,372.7129 L383,372.7129 L383,135.0547 L373,125.0547 L6,125.0547 " fill="#FEFFDD" style="stroke:#181818;stroke-width:0.5;"/><path d="M373,125.0547 L373,135.0547 L383,135.0547 L373,125.0547 " fill="#FEFFDD" style="stroke:#181818;stroke-width:1.0;"/><text fill="#000000" font-family="sans-serif" font-size="13" lengthAdjust="spacing" textLength="120" x="12" y="142.623">Your are analyzing:</text><text fill="#000000" font-family="sans-serif" font-size="13" lengthAdjust="spacing" textLength="62" x="12" y="157.9336">EnumTest</text><text fill="#000000" font-family="sans-serif" font-size="13" font-weight="bold" lengthAdjust="spacing" textLength="55" x="78" y="157.9336">detailed</text><text fill="#000000" font-family="sans-serif" font-size="13" lengthAdjust="spacing" textLength="4" x="133" y="157.9336">&#160;</text><text fill="#000000" font-family="sans-serif" font-size="13" lengthAdjust="spacing" textLength="4" x="12" y="173.2441">&#160;</text><text fill="#000000" font-family="sans-serif" font-size="13" lengthAdjust="spacing" textLength="229" x="12" y="203.8652">You can click either the namespaces</text><text fill="#000000" font-family="sans-serif" font-size="13" lengthAdjust="spacing" textLength="266" x="12" y="219.1758">or class names for filtering them and their</text><text fill="#000000" font-family="sans-serif" font-size="13" lengthAdjust="spacing" textLength="130" x="12" y="234.4863">direct dependencies.</text><text fill="#000000" font-family="sans-serif" font-size="13" lengthAdjust="spacing" textLength="4" x="12" y="249.7969">&#160;</text><line style="stroke:#181818;stroke-width:1.0;" x1="7" x2="178.5" y1="183.6416" y2="183.6416"/><line style="stroke:#181818;stroke-width:1.0;" x1="7" x2="178.5" y1="185.6416" y2="185.6416"/><text fill="#000000" font-family="sans-serif" font-size="13" lengthAdjust="spacing" textLength="32" x="178.5" y="188.0547">Filter</text><line style="stroke:#181818;stroke-width:1.0;" x1="210.5" x2="382" y1="183.6416" y2="183.6416"/><line style="stroke:#181818;stroke-width:1.0;" x1="210.5" x2="382" y1="185.6416" y2="185.6416"/><ellipse cx="17.5" cy="279.6602" fill="#000000" rx="2.5" ry="2.5" style="stroke:#000000;stroke-width:0.0;"/><text fill="#000000" font-family="sans-serif" font-size="13" lengthAdjust="spacing" textLength="62" x="24" y="284.418">EnumTest</text><text fill="#000000" font-family="sans-serif" font-size="13" font-weight="bold" lengthAdjust="spacing" textLength="67" x="90" y="284.418">simplified</text><text fill="#000000" font-family="sans-serif" font-size="13" lengthAdjust="spacing" textLength="4" x="161" y="284.418">:</text><text fill="#000000" font-family="sans-serif" font-size="13" lengthAdjust="spacing" textLength="12" x="12" y="299.7285">&#160;&#160;&#160;</text><a href="EnumTest-diagram-simplified.svg" target="_top" title="EnumTest-diagram-simplified.svg" xlink:actuate="onRequest" xlink:href="EnumTest-diagram-simplified.svg" xlink:show="new" xlink:title="EnumTest-diagram-simplified.svg" xlink:type="simple"><text fill="#0000FF" font-family="sans-serif" font-size="13" lengthAdjust="spacing" text-decoration="underline" textLength="218" x="24" y="299.7285">EnumTest-diagram-simplified.svg</text></a><ellipse cx="17.5" cy="310.2813" fill="#000000" rx="2.5" ry="2.5" style="stroke:#000000;stroke-width:0.0;"/><text fill="#000000" font-family="sans-serif" font-size="13" lengthAdjust="spacing" textLength="78" x="24" y="315.0391">Full diagram</text><text fill="#000000" font-family="sans-serif" font-size="13" font-weight="bold" lengthAdjust="spacing" textLength="55" x="106" y="315.0391">detailed</text><text fill="#000000" font-family="sans-serif" font-size="13" lengthAdjust="spacing" textLength="23" x="165" y="315.0391">and</text><text fill="#000000" font-family="sans-serif" font-size="13" font-weight="bold" lengthAdjust="spacing" textLength="166" x="192" y="315.0391">grouped per namespace</text><text fill="#000000" font-family="sans-serif" font-size="13" lengthAdjust="spacing" textLength="4" x="358" y="315.0391">:</text><text fill="#000000" font-family="sans-serif" font-size="13" lengthAdjust="spacing" textLength="12" x="12" y="330.3496">&#160;&#160;&#160;</text><a href="full-diagram-detailed-grouped-per-namespace.svg" target="_top" title="full-diagram-detailed-grouped-per-namespace.svg" xlink:actuate="onRequest" xlink:href="full-diagram-detailed-grouped-per-namespace.svg" xlink:show="new" xlink:title="full-diagram-detailed-grouped-per-namespace.svg" xlink:type="simple"><text fill="#0000FF" font-family="sans-serif" font-size="13" lengthAdjust="spacing" text-decoration="underline" textLength="330" x="24" y="330.3496">full-diagram-detailed-grouped-per-namespace.svg</text></a><ellipse cx="17.5" cy="340.9023" fill="#000000" rx="2.5" ry="2.5" style="stroke:#000000;stroke-width:0.0;"/><text fill="#000000" font-family="sans-serif" font-size="13" lengthAdjust="spacing" textLength="41" x="24" y="345.6602">Home:</text><text fill="#000000" font-family="sans-serif" font-size="13" lengthAdjust="spacing" textLength="12" x="12" y="360.9707">&#160;&#160;&#160;</text><a href="index.html" target="_top" title="index.html" xlink:actuate="onRequest" xlink:href="index.html" xlink:show="new" xlink:title="index.html" xlink:type="simple"><text fill="#0000FF" font-family="sans-serif" font-size="13" lengthAdjust="spacing" text-decoration="underline" textLength="68" x="24" y="360.9707">index.html</text></a><line style="stroke:#181818;stroke-width:1.0;" x1="7" x2="157.5" y1="264.1943" y2="264.1943"/><line style="stroke:#181818;stroke-width:1.0;" x1="7" x2="157.5" y1="266.1943" y2="266.1943"/><text fill="#000000" font-family="sans-serif" font-size="13" lengthAdjust="spacing" textLength="74" x="157.5" y="268.6074">Select other</text><line style="stroke:#181818;stroke-width:1.0;" x1="231.5" x2="382" y1="264.1943" y2="264.1943"/><line style="stroke:#181818;stroke-width:1.0;" x1="231.5" x2="382" y1="266.1943" y2="266.1943"/></g><!--class EnumTest--><a href="EnumTest-diagram-detailed.svg" target="_top" title="EnumTest-diagram-detailed.svg" xlink:actuate="onRequest" xlink:href="EnumTest-diagram-detailed.svg" xlink:show="new" xlink:title="EnumTest-diagram-detailed.svg" xlink:type="simple"><g id="elem_EnumTest"><rect codeLine="4" fill="#FFFF00" height="48" id="EnumTest" rx="2.5" ry="2.5" style="stroke:#181818;stroke-width:0.5;" width="100" x="1001.5" y="433.0547"/><ellipse cx="1016.5" cy="449.0547" fill="#ADD1B2" rx="11" ry="11" style="stroke:#181818;stroke-width:1.0;"/><path d="M1018.9731,455.1978 Q1018.3921,455.4966 1017.7529,455.646 Q1017.1138,455.7954 1016.4082,455.7954 Q1013.9014,455.7954 1012.5815,454.1436 Q1011.2617,452.4917 1011.2617,449.3706 Q1011.2617,446.2412 1012.5815,444.5894 Q1013.9014,442.9375 1016.4082,442.9375 Q1017.1138,442.9375 1017.7612,443.0869 Q1018.4087,443.2363 1018.9731,443.5352 L1018.9731,446.2578 Q1018.3423,445.6768 1017.7488,445.407 Q1017.1553,445.1372 1016.5244,445.1372 Q1015.1797,445.1372 1014.4949,446.2039 Q1013.8101,447.2705 1013.8101,449.3706 Q1013.8101,451.4624 1014.4949,452.5291 Q1015.1797,453.5957 1016.5244,453.5957 Q1017.1553,453.5957 1017.7488,453.3259 Q1018.3423,453.0562 1018.9731,452.4751 Z " fill="#000000"/><text fill="#000000" font-family="sans-serif" font-size="14" lengthAdjust="spacing" textLength="68" x="1030.5" y="454.3457">EnumTest</text><line style="stroke:#181818;stroke-width:0.5;" x1="1002.5" x2="1100.5" y1="465.0547" y2="465.0547"/><line style="stroke:#181818;stroke-width:0.5;" x1="1002.5" x2="1100.5" y1="473.0547" y2="473.0547"/></g></a><!--reverse link ClassExample to EnumTest--><g id="link_ClassExample_EnumTest"><path codeLine="23" d="M1051.5,340.8047 C1051.5,340.8047 1051.5,432.8647 1051.5,432.8647 " fill="none" id="ClassExample-backto-EnumTest" style="stroke:#10BB10;stroke-width:1.0;"/><polygon fill="#10BB10" points="1051.5,327.8047,1047.5,333.8047,1051.5,339.8047,1055.5,333.8047,1051.5,327.8047" style="stroke:#10BB10;stroke-width:1.0;"/></g><!--SRC=[pLHDRzD04BtxLupSGy7WDEcX4bPiYK0Yk73XGq9n3bjxxAowthLsDwLfnNzdrbzfIY790Gb7YcplU_FclP77t71PCyqg45oYtTO8IjkryYot0c5g-3r6b-DaBZVL5pGMWY17oxZ0F0XWUk7E4qygY-1_LniDJ2CmoSJsdiioIkNpn5IcCeuNN5ZKSPnAeaB696I2PpU0tAvH0_s1P1MQccLeYACq0PWnxLiewBbeIf2KGrUadBiRhbEPSusPXHnhb3dAZACPjRAVKRWJvKISU02FcZIygWKlUDCczGy0osL_7kQSbHHMk4EDp6svMhaYYuqGq07stRgkWg3KQbDZ3ZLP6sm5GQzH47setvF3ZXGIAHn8EyqFgiA-02URTwErhSHgvGCpi12AMOhc4qt7QuCRZ3xZgTTigyFP5eLGF-31- -bH_Ixv-HqZvnJbZENlqV1IqftXMVT-zCwXkWSdSWByJurG1z1Shw32wXhrDwQ_6fgXCT71VZhWxnLw-z6GYHV70mnR-ejfeQI5J0cbO_zgV3MUpVnaqzQSH4UAluQESNaiOthXT9EN4UmrC9kv5lpaLl6yWtGTX_l0DsFtyvFEnaYeZ0aoJLhOIHsExX6u5ml38Q4IxVnl8HsmS4ZyunFb9uDvUssiPfdzJmTqMfN677ravxGaZhhWds7FeVaYGQEWrQ6aeS2Re6bl5LfLkyKL4VP4-85Kl9DsIn0kpoOqxSbu5UxMsYy0]--></g></svg>