<?xml version="1.0" encoding="us-ascii" standalone="no"?><svg xmlns="http://www.w3.org/2000/svg" xmlns:xlink="http://www.w3.org/1999/xlink" contentStyleType="text/css" height="477px" preserveAspectRatio="none" style="width:801px;height:477px;background:#FFFFFF;" version="1.1" viewBox="0 0 801 477" width="801px" zoomAndPan="magnify"><defs/><g><text fill="#000000" font-family="sans-serif" font-size="20" font-weight="bold" lengthAdjust="spacing" textLength="546" x="61.5" y="29.3359">Examples.BadDesign.WarehouseEntitities.Complaints</text><text fill="#000000" font-family="sans-serif" font-size="20" font-weight="bold" lengthAdjust="spacing" textLength="104" x="614.5" y="29.3359">simplified</text><text fill="#000000" font-family="sans-serif" font-size="20" font-weight="bold" lengthAdjust="spacing" textLength="7" x="718.5" y="29.3359">&#160;</text><!--cluster Examples--><g id="cluster_Examples"><path d="M540.5,72.5547 L609.5,72.5547 A3.75,3.75 0 0 1 612,75.0547 L619,95.043 L791.5,95.043 A2.5,2.5 0 0 1 794,97.543 L794,468.0547 A2.5,2.5 0 0 1 791.5,470.5547 L540.5,470.5547 A2.5,2.5 0 0 1 538,468.0547 L538,75.0547 A2.5,2.5 0 0 1 540.5,72.5547 " fill="none" style="stroke:#000000;stroke-width:1.5;"/><line style="stroke:#000000;stroke-width:1.5;" x1="538" x2="619" y1="95.043" y2="95.043"/><text fill="#000000" font-family="sans-serif" font-size="14" font-weight="bold" lengthAdjust="spacing" textLength="68" x="542" y="88.0898">Examples</text></g><!--cluster BadDesign--><g id="cluster_BadDesign"><path d="M564.5,115.5547 L641.5,115.5547 A3.75,3.75 0 0 1 644,118.0547 L651,138.043 L767.5,138.043 A2.5,2.5 0 0 1 770,140.543 L770,444.0547 A2.5,2.5 0 0 1 767.5,446.5547 L564.5,446.5547 A2.5,2.5 0 0 1 562,444.0547 L562,118.0547 A2.5,2.5 0 0 1 564.5,115.5547 " fill="none" style="stroke:#000000;stroke-width:1.5;"/><line style="stroke:#000000;stroke-width:1.5;" x1="562" x2="651" y1="138.043" y2="138.043"/><text fill="#000000" font-family="sans-serif" font-size="14" font-weight="bold" lengthAdjust="spacing" textLength="76" x="566" y="131.0898">BadDesign</text></g><!--cluster WarehouseEntitities--><g id="cluster_WarehouseEntitities"><path d="M588.5,323.5547 L733.5,323.5547 A3.75,3.75 0 0 1 736,326.0547 L743,346.043 L743.5,346.043 A2.5,2.5 0 0 1 746,348.543 L746,420.0547 A2.5,2.5 0 0 1 743.5,422.5547 L588.5,422.5547 A2.5,2.5 0 0 1 586,420.0547 L586,326.0547 A2.5,2.5 0 0 1 588.5,323.5547 " fill="none" style="stroke:#000000;stroke-width:1.5;"/><line style="stroke:#000000;stroke-width:1.5;" x1="586" x2="743" y1="346.043" y2="346.043"/><text fill="#000000" font-family="sans-serif" font-size="14" font-weight="bold" lengthAdjust="spacing" textLength="144" x="590" y="339.0898">WarehouseEntitities</text></g><!--class DB--><a href="Examples.BadDesign.DB-diagram-simplified.svg" target="_top" title="Examples.BadDesign.DB-diagram-simplified.svg" xlink:actuate="onRequest" xlink:href="Examples.BadDesign.DB-diagram-simplified.svg" xlink:show="new" xlink:title="Examples.BadDesign.DB-diagram-simplified.svg" xlink:type="simple"><g id="elem_DB"><rect codeLine="4" fill="#F1F1F1" height="48" id="DB" rx="2.5" ry="2.5" style="stroke:#181818;stroke-width:0.5;" width="50" x="641" y="150.5547"/><ellipse cx="656" cy="166.5547" fill="#ADD1B2" rx="11" ry="11" style="stroke:#181818;stroke-width:1.0;"/><path d="M658.4731,172.6978 Q657.8921,172.9966 657.2529,173.146 Q656.6138,173.2954 655.9082,173.2954 Q653.4014,173.2954 652.0815,171.6436 Q650.7617,169.9917 650.7617,166.8706 Q650.7617,163.7412 652.0815,162.0894 Q653.4014,160.4375 655.9082,160.4375 Q656.6138,160.4375 657.2612,160.5869 Q657.9087,160.7363 658.4731,161.0352 L658.4731,163.7578 Q657.8423,163.1768 657.2488,162.907 Q656.6553,162.6372 656.0244,162.6372 Q654.6797,162.6372 653.9949,163.7039 Q653.3101,164.7705 653.3101,166.8706 Q653.3101,168.9624 653.9949,170.0291 Q654.6797,171.0957 656.0244,171.0957 Q656.6553,171.0957 657.2488,170.8259 Q657.8423,170.5562 658.4731,169.9751 Z " fill="#000000"/><text fill="#000000" font-family="sans-serif" font-size="14" lengthAdjust="spacing" textLength="18" x="670" y="171.8457">DB</text><line style="stroke:#181818;stroke-width:0.5;" x1="642" x2="690" y1="182.5547" y2="182.5547"/><line style="stroke:#181818;stroke-width:0.5;" x1="642" x2="690" y1="190.5547" y2="190.5547"/></g></a><!--class Complaints--><a href="Examples.BadDesign.WarehouseEntitities.Complaints-diagram-simplified.svg" target="_top" title="Examples.BadDesign.WarehouseEntitities.Complaints-diagram-simplified.svg" xlink:actuate="onRequest" xlink:href="Examples.BadDesign.WarehouseEntitities.Complaints-diagram-simplified.svg" xlink:show="new" xlink:title="Examples.BadDesign.WarehouseEntitities.Complaints-diagram-simplified.svg" xlink:type="simple"><g id="elem_Complaints"><rect codeLine="6" fill="#FFFF00" height="48" id="Complaints" rx="2.5" ry="2.5" style="stroke:#181818;stroke-width:0.5;" width="110" x="611" y="358.5547"/><ellipse cx="626" cy="374.5547" fill="#ADD1B2" rx="11" ry="11" style="stroke:#181818;stroke-width:1.0;"/><path d="M628.4731,380.6978 Q627.8921,380.9966 627.2529,381.146 Q626.6138,381.2954 625.9082,381.2954 Q623.4014,381.2954 622.0815,379.6436 Q620.7617,377.9917 620.7617,374.8706 Q620.7617,371.7412 622.0815,370.0894 Q623.4014,368.4375 625.9082,368.4375 Q626.6138,368.4375 627.2612,368.5869 Q627.9087,368.7363 628.4731,369.0352 L628.4731,371.7578 Q627.8423,371.1768 627.2488,370.907 Q626.6553,370.6372 626.0244,370.6372 Q624.6797,370.6372 623.9949,371.7039 Q623.3101,372.7705 623.3101,374.8706 Q623.3101,376.9624 623.9949,378.0291 Q624.6797,379.0957 626.0244,379.0957 Q626.6553,379.0957 627.2488,378.8259 Q627.8423,378.5562 628.4731,377.9751 Z " fill="#000000"/><text fill="#000000" font-family="sans-serif" font-size="14" lengthAdjust="spacing" textLength="78" x="640" y="379.8457">Complaints</text><line style="stroke:#181818;stroke-width:0.5;" x1="612" x2="720" y1="390.5547" y2="390.5547"/><line style="stroke:#181818;stroke-width:0.5;" x1="612" x2="720" y1="398.5547" y2="398.5547"/></g></a><g id="elem_FloatingNote"><path d="M6,50.5547 L6,298.2129 L522,298.2129 L522,60.5547 L512,50.5547 L6,50.5547 " fill="#FEFFDD" style="stroke:#181818;stroke-width:0.5;"/><path d="M512,50.5547 L512,60.5547 L522,60.5547 L512,50.5547 " fill="#FEFFDD" style="stroke:#181818;stroke-width:1.0;"/><text fill="#000000" font-family="sans-serif" font-size="13" lengthAdjust="spacing" textLength="120" x="12" y="68.123">Your are analyzing:</text><text fill="#000000" font-family="sans-serif" font-size="13" lengthAdjust="spacing" textLength="334" x="12" y="83.4336">Examples.BadDesign.WarehouseEntitities.Complaints</text><text fill="#000000" font-family="sans-serif" font-size="13" font-weight="bold" lengthAdjust="spacing" textLength="67" x="350" y="83.4336">simplified</text><text fill="#000000" font-family="sans-serif" font-size="13" lengthAdjust="spacing" textLength="4" x="417" y="83.4336">&#160;</text><text fill="#000000" font-family="sans-serif" font-size="13" lengthAdjust="spacing" textLength="4" x="12" y="98.7441">&#160;</text><text fill="#000000" font-family="sans-serif" font-size="13" lengthAdjust="spacing" textLength="229" x="12" y="129.3652">You can click either the namespaces</text><text fill="#000000" font-family="sans-serif" font-size="13" lengthAdjust="spacing" textLength="266" x="12" y="144.6758">or class names for filtering them and their</text><text fill="#000000" font-family="sans-serif" font-size="13" lengthAdjust="spacing" textLength="130" x="12" y="159.9863">direct dependencies.</text><text fill="#000000" font-family="sans-serif" font-size="13" lengthAdjust="spacing" textLength="4" x="12" y="175.2969">&#160;</text><line style="stroke:#181818;stroke-width:1.0;" x1="7" x2="248" y1="109.1416" y2="109.1416"/><line style="stroke:#181818;stroke-width:1.0;" x1="7" x2="248" y1="111.1416" y2="111.1416"/><text fill="#000000" font-family="sans-serif" font-size="13" lengthAdjust="spacing" textLength="32" x="248" y="113.5547">Filter</text><line style="stroke:#181818;stroke-width:1.0;" x1="280" x2="521" y1="109.1416" y2="109.1416"/><line style="stroke:#181818;stroke-width:1.0;" x1="280" x2="521" y1="111.1416" y2="111.1416"/><ellipse cx="17.5" cy="205.1602" fill="#000000" rx="2.5" ry="2.5" style="stroke:#000000;stroke-width:0.0;"/><text fill="#000000" font-family="sans-serif" font-size="13" lengthAdjust="spacing" textLength="334" x="24" y="209.918">Examples.BadDesign.WarehouseEntitities.Complaints</text><text fill="#000000" font-family="sans-serif" font-size="13" font-weight="bold" lengthAdjust="spacing" textLength="55" x="362" y="209.918">detailed</text><text fill="#000000" font-family="sans-serif" font-size="13" lengthAdjust="spacing" textLength="4" x="421" y="209.918">:</text><text fill="#000000" font-family="sans-serif" font-size="13" lengthAdjust="spacing" textLength="12" x="12" y="225.2285">&#160;&#160;&#160;</text><a href="Examples.BadDesign.WarehouseEntitities.Complaints-diagram-detailed.svg" target="_top" title="Examples.BadDesign.WarehouseEntitities.Complaints-diagram-detailed.svg" xlink:actuate="onRequest" xlink:href="Examples.BadDesign.WarehouseEntitities.Complaints-diagram-detailed.svg" xlink:show="new" xlink:title="Examples.BadDesign.WarehouseEntitities.Complaints-diagram-detailed.svg" xlink:type="simple"><text fill="#0000FF" font-family="sans-serif" font-size="13" lengthAdjust="spacing" text-decoration="underline" textLength="477" x="24" y="225.2285">Examples.BadDesign.WarehouseEntitities.Complaints-diagram-detailed.svg</text></a><ellipse cx="17.5" cy="235.7813" fill="#000000" rx="2.5" ry="2.5" style="stroke:#000000;stroke-width:0.0;"/><text fill="#000000" font-family="sans-serif" font-size="13" lengthAdjust="spacing" textLength="78" x="24" y="240.5391">Full diagram</text><text fill="#000000" font-family="sans-serif" font-size="13" font-weight="bold" lengthAdjust="spacing" textLength="67" x="106" y="240.5391">simplified</text><text fill="#000000" font-family="sans-serif" font-size="13" lengthAdjust="spacing" textLength="23" x="177" y="240.5391">and</text><text fill="#000000" font-family="sans-serif" font-size="13" font-weight="bold" lengthAdjust="spacing" textLength="166" x="204" y="240.5391">grouped per namespace</text><text fill="#000000" font-family="sans-serif" font-size="13" lengthAdjust="spacing" textLength="4" x="370" y="240.5391">:</text><text fill="#000000" font-family="sans-serif" font-size="13" lengthAdjust="spacing" textLength="12" x="12" y="255.8496">&#160;&#160;&#160;</text><a href="full-diagram-simplified-grouped-per-namespace.svg" target="_top" title="full-diagram-simplified-grouped-per-namespace.svg" xlink:actuate="onRequest" xlink:href="full-diagram-simplified-grouped-per-namespace.svg" xlink:show="new" xlink:title="full-diagram-simplified-grouped-per-namespace.svg" xlink:type="simple"><text fill="#0000FF" font-family="sans-serif" font-size="13" lengthAdjust="spacing" text-decoration="underline" textLength="343" x="24" y="255.8496">full-diagram-simplified-grouped-per-namespace.svg</text></a><ellipse cx="17.5" cy="266.4023" fill="#000000" rx="2.5" ry="2.5" style="stroke:#000000;stroke-width:0.0;"/><text fill="#000000" font-family="sans-serif" font-size="13" lengthAdjust="spacing" textLength="41" x="24" y="271.1602">Home:</text><text fill="#000000" font-family="sans-serif" font-size="13" lengthAdjust="spacing" textLength="12" x="12" y="286.4707">&#160;&#160;&#160;</text><a href="index.html" target="_top" title="index.html" xlink:actuate="onRequest" xlink:href="index.html" xlink:show="new" xlink:title="index.html" xlink:type="simple"><text fill="#0000FF" font-family="sans-serif" font-size="13" lengthAdjust="spacing" text-decoration="underline" textLength="68" x="24" y="286.4707">index.html</text></a><line style="stroke:#181818;stroke-width:1.0;" x1="7" x2="227" y1="189.6943" y2="189.6943"/><line style="stroke:#181818;stroke-width:1.0;" x1="7" x2="227" y1="191.6943" y2="191.6943"/><text fill="#000000" font-family="sans-serif" font-size="13" lengthAdjust="spacing" textLength="74" x="227" y="194.1074">Select other</text><line style="stroke:#181818;stroke-width:1.0;" x1="301" x2="521" y1="189.6943" y2="189.6943"/><line style="stroke:#181818;stroke-width:1.0;" x1="301" x2="521" y1="191.6943" y2="191.6943"/></g><!--link DB to Complaints--><g id="link_DB_Complaints"><path codeLine="13" d="M666,198.8247 C666,198.8247 666,352.1247 666,352.1247 " fill="none" id="DB-to-Complaints" style="stroke:#6060BB;stroke-width:1.0;stroke-dasharray:7.0,7.0;"/><polygon fill="#6060BB" points="666,357.1247,670,348.1247,666,352.1247,662,348.1247,666,357.1247" style="stroke:#6060BB;stroke-width:1.0;"/><text fill="#000000" font-family="sans-serif" font-size="13" lengthAdjust="spacing" textLength="29" x="636" y="272.043">uses</text></g><!--SRC=[jL9DRzim3BtdLn3jeO00Uy4EFGHD3cuQxBJB3iCG-o1Oj4DKfWn9sP8E- - -Zd2zWDVRHO3PiM2RvtkCZmpDnhxtkm19ZtFS8piUDcqIA5k4Xq0lEtayNJplTzHP3NcYpn40jvv-rnutR1dnYIPPReezEiZHn3A1K83bGGsYKWeTt2MenOHSHRhwuhGUf1ytQxb-8srd9LtEKNF9ylY8RqS_d9GiBr9gXjbG_0rBSe0Tv0UiEGwzh35BZl2Je40v_eP5pCq28gfJTYKYJFiYNRCXZ7S5WZsoGwoJeGFi9ROguH9B85Rob7uDHansw4KS0OBt-PvZCa6vbfDa9B0zVswfAabPRQ-4O_jMzrALIhNVR7WtqOjNP9gLEOXe1EEDVohDZMIPbsRdimll1TNY2835kbszYPwlg1dI0bNKwYjaVPJKcS1p6IDVBOjoDPJ6YwC0Dy5qGVyZp6zm_3EMQ2RpISxj7QzstGTOWx4uy_wiB_blk7JmErdYqCWV70N0NlQwZh47ZNNVPWvdalZPZCZwhV7rxFxsV5aMLBzvWEyn0Ok5wUMD4Fm40]--></g></svg>