<?xml version="1.0" encoding="us-ascii" standalone="no"?><svg xmlns="http://www.w3.org/2000/svg" xmlns:xlink="http://www.w3.org/1999/xlink" contentStyleType="text/css" height="738px" preserveAspectRatio="none" style="width:1775px;height:738px;background:#FFFFFF;" version="1.1" viewBox="0 0 1775 738" width="1775px" zoomAndPan="magnify"><defs/><g><text fill="#000000" font-family="sans-serif" font-size="20" font-weight="bold" lengthAdjust="spacing" textLength="359" x="495.25" y="29.3359">Examples.BadDesign.BasicExample</text><text fill="#000000" font-family="sans-serif" font-size="20" font-weight="bold" lengthAdjust="spacing" textLength="104" x="861.25" y="29.3359">simplified</text><text fill="#000000" font-family="sans-serif" font-size="20" font-weight="bold" lengthAdjust="spacing" textLength="38" x="972.25" y="29.3359">and</text><text fill="#000000" font-family="sans-serif" font-size="20" font-weight="bold" lengthAdjust="spacing" textLength="249" x="1017.25" y="29.3359">grouped per namespace</text><!--cluster Examples--><g id="cluster_Examples"><a href="Examples-diagram-simplified-grouped-per-namespace.svg" target="_top" title="Examples-diagram-simplified-grouped-per-namespace.svg" xlink:actuate="onRequest" xlink:href="Examples-diagram-simplified-grouped-per-namespace.svg" xlink:show="new" xlink:title="Examples-diagram-simplified-grouped-per-namespace.svg" xlink:type="simple"><path d="M592,50.5547 L661,50.5547 A3.75,3.75 0 0 1 663.5,53.0547 L670.5,73.043 L1766,73.043 A2.5,2.5 0 0 1 1768.5,75.543 L1768.5,729.0547 A2.5,2.5 0 0 1 1766,731.5547 L592,731.5547 A2.5,2.5 0 0 1 589.5,729.0547 L589.5,53.0547 A2.5,2.5 0 0 1 592,50.5547 " fill="none" style="stroke:#000000;stroke-width:1.5;"/><line style="stroke:#000000;stroke-width:1.5;" x1="589.5" x2="670.5" y1="73.043" y2="73.043"/><text fill="#000000" font-family="sans-serif" font-size="14" font-weight="bold" lengthAdjust="spacing" textLength="68" x="593.5" y="66.0898">Examples</text></a></g><!--cluster BadDesign--><g id="cluster_BadDesign"><a href="Examples.BadDesign-diagram-simplified-grouped-per-namespace.svg" target="_top" title="Examples.BadDesign-diagram-simplified-grouped-per-namespace.svg" xlink:actuate="onRequest" xlink:href="Examples.BadDesign-diagram-simplified-grouped-per-namespace.svg" xlink:show="new" xlink:title="Examples.BadDesign-diagram-simplified-grouped-per-namespace.svg" xlink:type="simple"><path d="M616,93.5547 L693,93.5547 A3.75,3.75 0 0 1 695.5,96.0547 L702.5,116.043 L1742,116.043 A2.5,2.5 0 0 1 1744.5,118.543 L1744.5,705.0547 A2.5,2.5 0 0 1 1742,707.5547 L616,707.5547 A2.5,2.5 0 0 1 613.5,705.0547 L613.5,96.0547 A2.5,2.5 0 0 1 616,93.5547 " fill="none" style="stroke:#000000;stroke-width:1.5;"/><line style="stroke:#000000;stroke-width:1.5;" x1="613.5" x2="702.5" y1="116.043" y2="116.043"/><text fill="#000000" font-family="sans-serif" font-size="14" font-weight="bold" lengthAdjust="spacing" textLength="76" x="617.5" y="109.0898">BadDesign</text></a></g><!--cluster BasicExample--><g id="cluster_BasicExample"><a href="Examples.BadDesign.BasicExample-diagram-simplified-grouped-per-namespace.svg" target="_top" title="Examples.BadDesign.BasicExample-diagram-simplified-grouped-per-namespace.svg" xlink:actuate="onRequest" xlink:href="Examples.BadDesign.BasicExample-diagram-simplified-grouped-per-namespace.svg" xlink:show="new" xlink:title="Examples.BadDesign.BasicExample-diagram-simplified-grouped-per-namespace.svg" xlink:type="simple"><path d="M640,136.5547 L738,136.5547 A3.75,3.75 0 0 1 740.5,139.0547 L747.5,159.043 L1718,159.043 A2.5,2.5 0 0 1 1720.5,161.543 L1720.5,681.0547 A2.5,2.5 0 0 1 1718,683.5547 L640,683.5547 A2.5,2.5 0 0 1 637.5,681.0547 L637.5,139.0547 A2.5,2.5 0 0 1 640,136.5547 " fill="none" style="stroke:#000000;stroke-width:1.5;"/><line style="stroke:#000000;stroke-width:1.5;" x1="637.5" x2="747.5" y1="159.043" y2="159.043"/><text fill="#000000" font-family="sans-serif" font-size="14" font-weight="bold" lengthAdjust="spacing" textLength="97" x="641.5" y="152.0898">BasicExample</text></a></g><!--cluster SideExample--><g id="cluster_SideExample"><a href="Examples.BadDesign.BasicExample.SideExample-diagram-simplified-grouped-per-namespace.svg" target="_top" title="Examples.BadDesign.BasicExample.SideExample-diagram-simplified-grouped-per-namespace.svg" xlink:actuate="onRequest" xlink:href="Examples.BadDesign.BasicExample.SideExample-diagram-simplified-grouped-per-namespace.svg" xlink:show="new" xlink:title="Examples.BadDesign.BasicExample.SideExample-diagram-simplified-grouped-per-namespace.svg" xlink:type="simple"><path d="M1025,452.5547 L1116,452.5547 A3.75,3.75 0 0 1 1118.5,455.0547 L1125.5,475.043 L1182,475.043 A2.5,2.5 0 0 1 1184.5,477.543 L1184.5,657.0547 A2.5,2.5 0 0 1 1182,659.5547 L1025,659.5547 A2.5,2.5 0 0 1 1022.5,657.0547 L1022.5,455.0547 A2.5,2.5 0 0 1 1025,452.5547 " fill="none" style="stroke:#000000;stroke-width:1.5;"/><line style="stroke:#000000;stroke-width:1.5;" x1="1022.5" x2="1125.5" y1="475.043" y2="475.043"/><text fill="#000000" font-family="sans-serif" font-size="14" font-weight="bold" lengthAdjust="spacing" textLength="90" x="1026.5" y="468.0898">SideExample</text></a></g><!--class IExample--><a href="Examples.BadDesign.BasicExample.IExample-diagram-simplified-grouped-per-namespace.svg" target="_top" title="Examples.BadDesign.BasicExample.IExample-diagram-simplified-grouped-per-namespace.svg" xlink:actuate="onRequest" xlink:href="Examples.BadDesign.BasicExample.IExample-diagram-simplified-grouped-per-namespace.svg" xlink:show="new" xlink:title="Examples.BadDesign.BasicExample.IExample-diagram-simplified-grouped-per-namespace.svg" xlink:type="simple"><g id="elem_IExample"><rect codeLine="7" fill="#FFFF00" height="48" id="IExample" rx="2.5" ry="2.5" style="stroke:#181818;stroke-width:0.5;" width="95" x="917" y="379.5547"/><ellipse cx="932" cy="395.5547" fill="#B4A7E5" rx="11" ry="11" style="stroke:#181818;stroke-width:1.0;"/><path d="M928.4277,391.8198 L928.4277,389.6616 L935.8071,389.6616 L935.8071,391.8198 L933.3418,391.8198 L933.3418,399.8965 L935.8071,399.8965 L935.8071,402.0547 L928.4277,402.0547 L928.4277,399.8965 L930.8931,399.8965 L930.8931,391.8198 Z " fill="#000000"/><text fill="#000000" font-family="sans-serif" font-size="14" font-style="italic" lengthAdjust="spacing" textLength="63" x="946" y="400.8457">IExample</text><line style="stroke:#181818;stroke-width:0.5;" x1="918" x2="1011" y1="411.5547" y2="411.5547"/><line style="stroke:#181818;stroke-width:0.5;" x1="918" x2="1011" y1="419.5547" y2="419.5547"/></g></a><!--class Useless--><a href="Examples.BadDesign.BasicExample.Useless-diagram-simplified-grouped-per-namespace.svg" target="_top" title="Examples.BadDesign.BasicExample.Useless-diagram-simplified-grouped-per-namespace.svg" xlink:actuate="onRequest" xlink:href="Examples.BadDesign.BasicExample.Useless-diagram-simplified-grouped-per-namespace.svg" xlink:show="new" xlink:title="Examples.BadDesign.BasicExample.Useless-diagram-simplified-grouped-per-namespace.svg" xlink:type="simple"><g id="elem_Useless"><rect codeLine="9" fill="#FFFF00" height="48" id="Useless" rx="2.5" ry="2.5" style="stroke:#181818;stroke-width:0.5;" width="83" x="923" y="487.5547"/><ellipse cx="938" cy="503.5547" fill="#ADD1B2" rx="11" ry="11" style="stroke:#181818;stroke-width:1.0;"/><path d="M940.4731,509.6978 Q939.8921,509.9966 939.2529,510.146 Q938.6138,510.2954 937.9082,510.2954 Q935.4014,510.2954 934.0815,508.6436 Q932.7617,506.9917 932.7617,503.8706 Q932.7617,500.7412 934.0815,499.0894 Q935.4014,497.4375 937.9082,497.4375 Q938.6138,497.4375 939.2612,497.5869 Q939.9087,497.7363 940.4731,498.0352 L940.4731,500.7578 Q939.8423,500.1768 939.2488,499.907 Q938.6553,499.6372 938.0244,499.6372 Q936.6797,499.6372 935.9949,500.7039 Q935.3101,501.7705 935.3101,503.8706 Q935.3101,505.9624 935.9949,507.0291 Q936.6797,508.0957 938.0244,508.0957 Q938.6553,508.0957 939.2488,507.8259 Q939.8423,507.5562 940.4731,506.9751 Z " fill="#000000"/><text fill="#000000" font-family="sans-serif" font-size="14" lengthAdjust="spacing" textLength="51" x="952" y="508.8457">Useless</text><line style="stroke:#181818;stroke-width:0.5;" x1="924" x2="1005" y1="519.5547" y2="519.5547"/><line style="stroke:#181818;stroke-width:0.5;" x1="924" x2="1005" y1="527.5547" y2="527.5547"/></g></a><!--class ClassExample--><a href="Examples.BadDesign.BasicExample.ClassExample-diagram-simplified-grouped-per-namespace.svg" target="_top" title="Examples.BadDesign.BasicExample.ClassExample-diagram-simplified-grouped-per-namespace.svg" xlink:actuate="onRequest" xlink:href="Examples.BadDesign.BasicExample.ClassExample-diagram-simplified-grouped-per-namespace.svg" xlink:show="new" xlink:title="Examples.BadDesign.BasicExample.ClassExample-diagram-simplified-grouped-per-namespace.svg" xlink:type="simple"><g id="elem_ClassExample"><rect codeLine="11" fill="#FFFF00" height="48" id="ClassExample" rx="2.5" ry="2.5" style="stroke:#181818;stroke-width:0.5;" width="127" x="931" y="171.5547"/><ellipse cx="946" cy="187.5547" fill="#ADD1B2" rx="11" ry="11" style="stroke:#181818;stroke-width:1.0;"/><path d="M948.4731,193.6978 Q947.8921,193.9966 947.2529,194.146 Q946.6138,194.2954 945.9082,194.2954 Q943.4014,194.2954 942.0815,192.6436 Q940.7617,190.9917 940.7617,187.8706 Q940.7617,184.7412 942.0815,183.0894 Q943.4014,181.4375 945.9082,181.4375 Q946.6138,181.4375 947.2612,181.5869 Q947.9087,181.7363 948.4731,182.0352 L948.4731,184.7578 Q947.8423,184.1768 947.2488,183.907 Q946.6553,183.6372 946.0244,183.6372 Q944.6797,183.6372 943.9949,184.7039 Q943.3101,185.7705 943.3101,187.8706 Q943.3101,189.9624 943.9949,191.0291 Q944.6797,192.0957 946.0244,192.0957 Q946.6553,192.0957 947.2488,191.8259 Q947.8423,191.5562 948.4731,190.9751 Z " fill="#000000"/><text fill="#000000" font-family="sans-serif" font-size="14" lengthAdjust="spacing" textLength="95" x="960" y="192.8457">ClassExample</text><line style="stroke:#181818;stroke-width:0.5;" x1="932" x2="1057" y1="203.5547" y2="203.5547"/><line style="stroke:#181818;stroke-width:0.5;" x1="932" x2="1057" y1="211.5547" y2="211.5547"/></g></a><!--class BaseExample--><a href="Examples.BadDesign.BasicExample.BaseExample-diagram-simplified-grouped-per-namespace.svg" target="_top" title="Examples.BadDesign.BasicExample.BaseExample-diagram-simplified-grouped-per-namespace.svg" xlink:actuate="onRequest" xlink:href="Examples.BadDesign.BasicExample.BaseExample-diagram-simplified-grouped-per-namespace.svg" xlink:show="new" xlink:title="Examples.BadDesign.BasicExample.BaseExample-diagram-simplified-grouped-per-namespace.svg" xlink:type="simple"><g id="elem_BaseExample"><rect codeLine="13" fill="#FFFF00" height="48" id="BaseExample" rx="2.5" ry="2.5" style="stroke:#181818;stroke-width:0.5;" width="122" x="759.5" y="379.5547"/><ellipse cx="774.5" cy="395.5547" fill="#ADD1B2" rx="11" ry="11" style="stroke:#181818;stroke-width:1.0;"/><path d="M776.9731,401.6978 Q776.3921,401.9966 775.7529,402.146 Q775.1138,402.2954 774.4082,402.2954 Q771.9014,402.2954 770.5815,400.6436 Q769.2617,398.9917 769.2617,395.8706 Q769.2617,392.7412 770.5815,391.0894 Q771.9014,389.4375 774.4082,389.4375 Q775.1138,389.4375 775.7612,389.5869 Q776.4087,389.7363 776.9731,390.0352 L776.9731,392.7578 Q776.3423,392.1768 775.7488,391.907 Q775.1553,391.6372 774.5244,391.6372 Q773.1797,391.6372 772.4949,392.7039 Q771.8101,393.7705 771.8101,395.8706 Q771.8101,397.9624 772.4949,399.0291 Q773.1797,400.0957 774.5244,400.0957 Q775.1553,400.0957 775.7488,399.8259 Q776.3423,399.5562 776.9731,398.9751 Z " fill="#000000"/><text fill="#000000" font-family="sans-serif" font-size="14" lengthAdjust="spacing" textLength="90" x="788.5" y="400.8457">BaseExample</text><line style="stroke:#181818;stroke-width:0.5;" x1="760.5" x2="880.5" y1="411.5547" y2="411.5547"/><line style="stroke:#181818;stroke-width:0.5;" x1="760.5" x2="880.5" y1="419.5547" y2="419.5547"/></g></a><!--class BaseExample_DOT_EnumTest--><a href="Examples.BadDesign.BasicExample.BaseExample.EnumTest-diagram-simplified-grouped-per-namespace.svg" target="_top" title="Examples.BadDesign.BasicExample.BaseExample.EnumTest-diagram-simplified-grouped-per-namespace.svg" xlink:actuate="onRequest" xlink:href="Examples.BadDesign.BasicExample.BaseExample.EnumTest-diagram-simplified-grouped-per-namespace.svg" xlink:show="new" xlink:title="Examples.BadDesign.BasicExample.BaseExample.EnumTest-diagram-simplified-grouped-per-namespace.svg" xlink:type="simple"><g id="elem_BaseExample_DOT_EnumTest"><rect codeLine="15" fill="#FFFF00" height="48" id="BaseExample_DOT_EnumTest" rx="2.5" ry="2.5" style="stroke:#181818;stroke-width:0.5;" width="234" x="653.5" y="487.5547"/><ellipse cx="668.5" cy="503.5547" fill="#ADD1B2" rx="11" ry="11" style="stroke:#181818;stroke-width:1.0;"/><path d="M670.9731,509.6978 Q670.3921,509.9966 669.7529,510.146 Q669.1138,510.2954 668.4082,510.2954 Q665.9014,510.2954 664.5815,508.6436 Q663.2617,506.9917 663.2617,503.8706 Q663.2617,500.7412 664.5815,499.0894 Q665.9014,497.4375 668.4082,497.4375 Q669.1138,497.4375 669.7612,497.5869 Q670.4087,497.7363 670.9731,498.0352 L670.9731,500.7578 Q670.3423,500.1768 669.7488,499.907 Q669.1553,499.6372 668.5244,499.6372 Q667.1797,499.6372 666.4949,500.7039 Q665.8101,501.7705 665.8101,503.8706 Q665.8101,505.9624 666.4949,507.0291 Q667.1797,508.0957 668.5244,508.0957 Q669.1553,508.0957 669.7488,507.8259 Q670.3423,507.5562 670.9731,506.9751 Z " fill="#000000"/><text fill="#000000" font-family="sans-serif" font-size="14" lengthAdjust="spacing" textLength="202" x="682.5" y="508.8457">BaseExample_DOT_EnumTest</text><line style="stroke:#181818;stroke-width:0.5;" x1="654.5" x2="886.5" y1="519.5547" y2="519.5547"/><line style="stroke:#181818;stroke-width:0.5;" x1="654.5" x2="886.5" y1="527.5547" y2="527.5547"/></g></a><!--class ClassExample_DOT_InnerClassExample--><a href="Examples.BadDesign.BasicExample.ClassExample.InnerClassExample-diagram-simplified-grouped-per-namespace.svg" target="_top" title="Examples.BadDesign.BasicExample.ClassExample.InnerClassExample-diagram-simplified-grouped-per-namespace.svg" xlink:actuate="onRequest" xlink:href="Examples.BadDesign.BasicExample.ClassExample.InnerClassExample-diagram-simplified-grouped-per-namespace.svg" xlink:show="new" xlink:title="Examples.BadDesign.BasicExample.ClassExample.InnerClassExample-diagram-simplified-grouped-per-namespace.svg" xlink:type="simple"><g id="elem_ClassExample_DOT_InnerClassExample"><rect codeLine="17" fill="#FFFF00" height="48" id="ClassExample_DOT_InnerClassExample" rx="2.5" ry="2.5" style="stroke:#181818;stroke-width:0.5;" width="302" x="1192.5" y="379.5547"/><ellipse cx="1207.5" cy="395.5547" fill="#ADD1B2" rx="11" ry="11" style="stroke:#181818;stroke-width:1.0;"/><path d="M1209.9731,401.6978 Q1209.3921,401.9966 1208.7529,402.146 Q1208.1138,402.2954 1207.4082,402.2954 Q1204.9014,402.2954 1203.5815,400.6436 Q1202.2617,398.9917 1202.2617,395.8706 Q1202.2617,392.7412 1203.5815,391.0894 Q1204.9014,389.4375 1207.4082,389.4375 Q1208.1138,389.4375 1208.7612,389.5869 Q1209.4087,389.7363 1209.9731,390.0352 L1209.9731,392.7578 Q1209.3423,392.1768 1208.7488,391.907 Q1208.1553,391.6372 1207.5244,391.6372 Q1206.1797,391.6372 1205.4949,392.7039 Q1204.8101,393.7705 1204.8101,395.8706 Q1204.8101,397.9624 1205.4949,399.0291 Q1206.1797,400.0957 1207.5244,400.0957 Q1208.1553,400.0957 1208.7488,399.8259 Q1209.3423,399.5562 1209.9731,398.9751 Z " fill="#000000"/><text fill="#000000" font-family="sans-serif" font-size="14" lengthAdjust="spacing" textLength="270" x="1221.5" y="400.8457">ClassExample_DOT_InnerClassExample</text><line style="stroke:#181818;stroke-width:0.5;" x1="1193.5" x2="1493.5" y1="411.5547" y2="411.5547"/><line style="stroke:#181818;stroke-width:0.5;" x1="1193.5" x2="1493.5" y1="419.5547" y2="419.5547"/></g></a><!--class AbstractBaseExample--><a href="Examples.BadDesign.BasicExample.AbstractBaseExample-diagram-simplified-grouped-per-namespace.svg" target="_top" title="Examples.BadDesign.BasicExample.AbstractBaseExample-diagram-simplified-grouped-per-namespace.svg" xlink:actuate="onRequest" xlink:href="Examples.BadDesign.BasicExample.AbstractBaseExample-diagram-simplified-grouped-per-namespace.svg" xlink:show="new" xlink:title="Examples.BadDesign.BasicExample.AbstractBaseExample-diagram-simplified-grouped-per-namespace.svg" xlink:type="simple"><g id="elem_AbstractBaseExample"><rect codeLine="19" fill="#FFFF00" height="48" id="AbstractBaseExample" rx="2.5" ry="2.5" style="stroke:#181818;stroke-width:0.5;" width="179" x="701" y="171.5547"/><ellipse cx="716" cy="187.5547" fill="#A9DCDF" rx="11" ry="11" style="stroke:#181818;stroke-width:1.0;"/><path d="M715.8633,182.9028 L714.7095,187.9746 L717.0254,187.9746 Z M714.3691,180.6616 L717.3657,180.6616 L720.7109,193.0547 L718.2622,193.0547 L717.4985,189.9917 L714.2197,189.9917 L713.4727,193.0547 L711.0239,193.0547 Z " fill="#000000"/><text fill="#000000" font-family="sans-serif" font-size="14" font-style="italic" lengthAdjust="spacing" textLength="147" x="730" y="192.8457">AbstractBaseExample</text><line style="stroke:#181818;stroke-width:0.5;" x1="702" x2="879" y1="203.5547" y2="203.5547"/><line style="stroke:#181818;stroke-width:0.5;" x1="702" x2="879" y1="211.5547" y2="211.5547"/></g></a><!--class ClassExample_DOT_InnerClassExample_DOT_classInMethodExample--><a href="Examples.BadDesign.BasicExample.ClassExample.InnerClassExample.classInMethodExample-diagram-simplified-grouped-per-namespace.svg" target="_top" title="Examples.BadDesign.BasicExample.ClassExample.InnerClassExample.classInMethodExample-diagram-simplified-grouped-per-namespace.svg" xlink:actuate="onRequest" xlink:href="Examples.BadDesign.BasicExample.ClassExample.InnerClassExample.classInMethodExample-diagram-simplified-grouped-per-namespace.svg" xlink:show="new" xlink:title="Examples.BadDesign.BasicExample.ClassExample.InnerClassExample.classInMethodExample-diagram-simplified-grouped-per-namespace.svg" xlink:type="simple"><g id="elem_ClassExample_DOT_InnerClassExample_DOT_classInMethodExample"><rect codeLine="21" fill="#FFFF00" height="48" id="ClassExample_DOT_InnerClassExample_DOT_classInMethodExample" rx="2.5" ry="2.5" style="stroke:#181818;stroke-width:0.5;" width="503" x="1201" y="487.5547"/><ellipse cx="1216" cy="503.5547" fill="#ADD1B2" rx="11" ry="11" style="stroke:#181818;stroke-width:1.0;"/><path d="M1218.4731,509.6978 Q1217.8921,509.9966 1217.2529,510.146 Q1216.6138,510.2954 1215.9082,510.2954 Q1213.4014,510.2954 1212.0815,508.6436 Q1210.7617,506.9917 1210.7617,503.8706 Q1210.7617,500.7412 1212.0815,499.0894 Q1213.4014,497.4375 1215.9082,497.4375 Q1216.6138,497.4375 1217.2612,497.5869 Q1217.9087,497.7363 1218.4731,498.0352 L1218.4731,500.7578 Q1217.8423,500.1768 1217.2488,499.907 Q1216.6553,499.6372 1216.0244,499.6372 Q1214.6797,499.6372 1213.9949,500.7039 Q1213.3101,501.7705 1213.3101,503.8706 Q1213.3101,505.9624 1213.9949,507.0291 Q1214.6797,508.0957 1216.0244,508.0957 Q1216.6553,508.0957 1217.2488,507.8259 Q1217.8423,507.5562 1218.4731,506.9751 Z " fill="#000000"/><text fill="#000000" font-family="sans-serif" font-size="14" lengthAdjust="spacing" textLength="471" x="1230" y="508.8457">ClassExample_DOT_InnerClassExample_DOT_classInMethodExample</text><line style="stroke:#181818;stroke-width:0.5;" x1="1202" x2="1703" y1="519.5547" y2="519.5547"/><line style="stroke:#181818;stroke-width:0.5;" x1="1202" x2="1703" y1="527.5547" y2="527.5547"/></g></a><!--class SideTestEnum--><a href="Examples.BadDesign.BasicExample.SideExample.SideTestEnum-diagram-simplified-grouped-per-namespace.svg" target="_top" title="Examples.BadDesign.BasicExample.SideExample.SideTestEnum-diagram-simplified-grouped-per-namespace.svg" xlink:actuate="onRequest" xlink:href="Examples.BadDesign.BasicExample.SideExample.SideTestEnum-diagram-simplified-grouped-per-namespace.svg" xlink:show="new" xlink:title="Examples.BadDesign.BasicExample.SideExample.SideTestEnum-diagram-simplified-grouped-per-namespace.svg" xlink:type="simple"><g id="elem_SideTestEnum"><rect codeLine="35" fill="#FFFF00" height="48" id="SideTestEnum" rx="2.5" ry="2.5" style="stroke:#181818;stroke-width:0.5;" width="129" x="1039" y="595.5547"/><ellipse cx="1054" cy="611.5547" fill="#ADD1B2" rx="11" ry="11" style="stroke:#181818;stroke-width:1.0;"/><path d="M1056.4731,617.6978 Q1055.8921,617.9966 1055.2529,618.146 Q1054.6138,618.2954 1053.9082,618.2954 Q1051.4014,618.2954 1050.0815,616.6436 Q1048.7617,614.9917 1048.7617,611.8706 Q1048.7617,608.7412 1050.0815,607.0894 Q1051.4014,605.4375 1053.9082,605.4375 Q1054.6138,605.4375 1055.2612,605.5869 Q1055.9087,605.7363 1056.4731,606.0352 L1056.4731,608.7578 Q1055.8423,608.1768 1055.2488,607.907 Q1054.6553,607.6372 1054.0244,607.6372 Q1052.6797,607.6372 1051.9949,608.7039 Q1051.3101,609.7705 1051.3101,611.8706 Q1051.3101,613.9624 1051.9949,615.0291 Q1052.6797,616.0957 1054.0244,616.0957 Q1054.6553,616.0957 1055.2488,615.8259 Q1055.8423,615.5562 1056.4731,614.9751 Z " fill="#000000"/><text fill="#000000" font-family="sans-serif" font-size="14" lengthAdjust="spacing" textLength="97" x="1068" y="616.8457">SideTestEnum</text><line style="stroke:#181818;stroke-width:0.5;" x1="1040" x2="1167" y1="627.5547" y2="627.5547"/><line style="stroke:#181818;stroke-width:0.5;" x1="1040" x2="1167" y1="635.5547" y2="635.5547"/></g></a><!--class SideExample--><a href="Examples.BadDesign.BasicExample.SideExample.SideExample-diagram-simplified-grouped-per-namespace.svg" target="_top" title="Examples.BadDesign.BasicExample.SideExample.SideExample-diagram-simplified-grouped-per-namespace.svg" xlink:actuate="onRequest" xlink:href="Examples.BadDesign.BasicExample.SideExample.SideExample-diagram-simplified-grouped-per-namespace.svg" xlink:show="new" xlink:title="Examples.BadDesign.BasicExample.SideExample.SideExample-diagram-simplified-grouped-per-namespace.svg" xlink:type="simple"><g id="elem_SideExample"><rect codeLine="37" fill="#FFFF00" height="48" id="SideExample" rx="2.5" ry="2.5" style="stroke:#181818;stroke-width:0.5;" width="120" x="1043.5" y="487.5547"/><ellipse cx="1058.5" cy="503.5547" fill="#ADD1B2" rx="11" ry="11" style="stroke:#181818;stroke-width:1.0;"/><path d="M1060.9731,509.6978 Q1060.3921,509.9966 1059.7529,510.146 Q1059.1138,510.2954 1058.4082,510.2954 Q1055.9014,510.2954 1054.5815,508.6436 Q1053.2617,506.9917 1053.2617,503.8706 Q1053.2617,500.7412 1054.5815,499.0894 Q1055.9014,497.4375 1058.4082,497.4375 Q1059.1138,497.4375 1059.7612,497.5869 Q1060.4087,497.7363 1060.9731,498.0352 L1060.9731,500.7578 Q1060.3423,500.1768 1059.7488,499.907 Q1059.1553,499.6372 1058.5244,499.6372 Q1057.1797,499.6372 1056.4949,500.7039 Q1055.8101,501.7705 1055.8101,503.8706 Q1055.8101,505.9624 1056.4949,507.0291 Q1057.1797,508.0957 1058.5244,508.0957 Q1059.1553,508.0957 1059.7488,507.8259 Q1060.3423,507.5562 1060.9731,506.9751 Z " fill="#000000"/><text fill="#000000" font-family="sans-serif" font-size="14" lengthAdjust="spacing" textLength="88" x="1072.5" y="508.8457">SideExample</text><line style="stroke:#181818;stroke-width:0.5;" x1="1044.5" x2="1162.5" y1="519.5547" y2="519.5547"/><line style="stroke:#181818;stroke-width:0.5;" x1="1044.5" x2="1162.5" y1="527.5547" y2="527.5547"/></g></a><g id="elem_FloatingNote"><path d="M6,71.5547 L6,319.2129 L573,319.2129 L573,81.5547 L563,71.5547 L6,71.5547 " fill="#FEFFDD" style="stroke:#181818;stroke-width:0.5;"/><path d="M563,71.5547 L563,81.5547 L573,81.5547 L563,71.5547 " fill="#FEFFDD" style="stroke:#181818;stroke-width:1.0;"/><text fill="#000000" font-family="sans-serif" font-size="13" lengthAdjust="spacing" textLength="120" x="12" y="89.123">Your are analyzing:</text><text fill="#000000" font-family="sans-serif" font-size="13" lengthAdjust="spacing" textLength="219" x="12" y="104.4336">Examples.BadDesign.BasicExample</text><text fill="#000000" font-family="sans-serif" font-size="13" font-weight="bold" lengthAdjust="spacing" textLength="67" x="235" y="104.4336">simplified</text><text fill="#000000" font-family="sans-serif" font-size="13" lengthAdjust="spacing" textLength="23" x="306" y="104.4336">and</text><text fill="#000000" font-family="sans-serif" font-size="13" font-weight="bold" lengthAdjust="spacing" textLength="166" x="333" y="104.4336">grouped per namespace</text><text fill="#000000" font-family="sans-serif" font-size="13" lengthAdjust="spacing" textLength="4" x="12" y="119.7441">&#160;</text><text fill="#000000" font-family="sans-serif" font-size="13" lengthAdjust="spacing" textLength="229" x="12" y="150.3652">You can click either the namespaces</text><text fill="#000000" font-family="sans-serif" font-size="13" lengthAdjust="spacing" textLength="266" x="12" y="165.6758">or class names for filtering them and their</text><text fill="#000000" font-family="sans-serif" font-size="13" lengthAdjust="spacing" textLength="130" x="12" y="180.9863">direct dependencies.</text><text fill="#000000" font-family="sans-serif" font-size="13" lengthAdjust="spacing" textLength="4" x="12" y="196.2969">&#160;</text><line style="stroke:#181818;stroke-width:1.0;" x1="7" x2="273.5" y1="130.1416" y2="130.1416"/><line style="stroke:#181818;stroke-width:1.0;" x1="7" x2="273.5" y1="132.1416" y2="132.1416"/><text fill="#000000" font-family="sans-serif" font-size="13" lengthAdjust="spacing" textLength="32" x="273.5" y="134.5547">Filter</text><line style="stroke:#181818;stroke-width:1.0;" x1="305.5" x2="572" y1="130.1416" y2="130.1416"/><line style="stroke:#181818;stroke-width:1.0;" x1="305.5" x2="572" y1="132.1416" y2="132.1416"/><ellipse cx="17.5" cy="226.1602" fill="#000000" rx="2.5" ry="2.5" style="stroke:#000000;stroke-width:0.0;"/><text fill="#000000" font-family="sans-serif" font-size="13" lengthAdjust="spacing" textLength="219" x="24" y="230.918">Examples.BadDesign.BasicExample</text><text fill="#000000" font-family="sans-serif" font-size="13" font-weight="bold" lengthAdjust="spacing" textLength="55" x="247" y="230.918">detailed</text><text fill="#000000" font-family="sans-serif" font-size="13" lengthAdjust="spacing" textLength="23" x="306" y="230.918">and</text><text fill="#000000" font-family="sans-serif" font-size="13" font-weight="bold" lengthAdjust="spacing" textLength="166" x="333" y="230.918">grouped per namespace</text><text fill="#000000" font-family="sans-serif" font-size="13" lengthAdjust="spacing" textLength="4" x="499" y="230.918">:</text><text fill="#000000" font-family="sans-serif" font-size="13" lengthAdjust="spacing" textLength="12" x="12" y="246.2285">&#160;&#160;&#160;</text><a href="Examples.BadDesign.BasicExample-diagram-detailed-grouped-per-namespace.svg" target="_top" title="Examples.BadDesign.BasicExample-diagram-detailed-grouped-per-namespace.svg" xlink:actuate="onRequest" xlink:href="Examples.BadDesign.BasicExample-diagram-detailed-grouped-per-namespace.svg" xlink:show="new" xlink:title="Examples.BadDesign.BasicExample-diagram-detailed-grouped-per-namespace.svg" xlink:type="simple"><text fill="#0000FF" font-family="sans-serif" font-size="13" lengthAdjust="spacing" text-decoration="underline" textLength="528" x="24" y="246.2285">Examples.BadDesign.BasicExample-diagram-detailed-grouped-per-namespace.svg</text></a><ellipse cx="17.5" cy="256.7813" fill="#000000" rx="2.5" ry="2.5" style="stroke:#000000;stroke-width:0.0;"/><text fill="#000000" font-family="sans-serif" font-size="13" lengthAdjust="spacing" textLength="78" x="24" y="261.5391">Full diagram</text><text fill="#000000" font-family="sans-serif" font-size="13" font-weight="bold" lengthAdjust="spacing" textLength="67" x="106" y="261.5391">simplified</text><text fill="#000000" font-family="sans-serif" font-size="13" lengthAdjust="spacing" textLength="23" x="177" y="261.5391">and</text><text fill="#000000" font-family="sans-serif" font-size="13" font-weight="bold" lengthAdjust="spacing" textLength="166" x="204" y="261.5391">grouped per namespace</text><text fill="#000000" font-family="sans-serif" font-size="13" lengthAdjust="spacing" textLength="4" x="370" y="261.5391">:</text><text fill="#000000" font-family="sans-serif" font-size="13" lengthAdjust="spacing" textLength="12" x="12" y="276.8496">&#160;&#160;&#160;</text><a href="full-diagram-simplified-grouped-per-namespace.svg" target="_top" title="full-diagram-simplified-grouped-per-namespace.svg" xlink:actuate="onRequest" xlink:href="full-diagram-simplified-grouped-per-namespace.svg" xlink:show="new" xlink:title="full-diagram-simplified-grouped-per-namespace.svg" xlink:type="simple"><text fill="#0000FF" font-family="sans-serif" font-size="13" lengthAdjust="spacing" text-decoration="underline" textLength="343" x="24" y="276.8496">full-diagram-simplified-grouped-per-namespace.svg</text></a><ellipse cx="17.5" cy="287.4023" fill="#000000" rx="2.5" ry="2.5" style="stroke:#000000;stroke-width:0.0;"/><text fill="#000000" font-family="sans-serif" font-size="13" lengthAdjust="spacing" textLength="41" x="24" y="292.1602">Home:</text><text fill="#000000" font-family="sans-serif" font-size="13" lengthAdjust="spacing" textLength="12" x="12" y="307.4707">&#160;&#160;&#160;</text><a href="index.html" target="_top" title="index.html" xlink:actuate="onRequest" xlink:href="index.html" xlink:show="new" xlink:title="index.html" xlink:type="simple"><text fill="#0000FF" font-family="sans-serif" font-size="13" lengthAdjust="spacing" text-decoration="underline" textLength="68" x="24" y="307.4707">index.html</text></a><line style="stroke:#181818;stroke-width:1.0;" x1="7" x2="252.5" y1="210.6943" y2="210.6943"/><line style="stroke:#181818;stroke-width:1.0;" x1="7" x2="252.5" y1="212.6943" y2="212.6943"/><text fill="#000000" font-family="sans-serif" font-size="13" lengthAdjust="spacing" textLength="74" x="252.5" y="215.1074">Select other</text><line style="stroke:#181818;stroke-width:1.0;" x1="326.5" x2="572" y1="210.6943" y2="210.6943"/><line style="stroke:#181818;stroke-width:1.0;" x1="326.5" x2="572" y1="212.6943" y2="212.6943"/></g><!--link IExample to Useless--><g id="link_IExample_Useless"><path codeLine="54" d="M964.5,427.7947 C964.5,427.7947 964.5,481.3947 964.5,481.3947 " fill="none" id="IExample-to-Useless" style="stroke:#6060BB;stroke-width:1.0;stroke-dasharray:7.0,7.0;"/><polygon fill="#6060BB" points="964.5,486.3947,968.5,477.3947,964.5,481.3947,960.5,477.3947,964.5,486.3947" style="stroke:#6060BB;stroke-width:1.0;"/><text fill="#000000" font-family="sans-serif" font-size="13" lengthAdjust="spacing" textLength="29" x="934.5" y="451.163">uses</text></g><!--link Useless to SideTestEnum--><g id="link_Useless_SideTestEnum"><path codeLine="55" d="M964.5,535.7947 C964.5,567.6347 964.5,619.5547 964.5,619.5547 C964.5,619.5547 1032.88,619.5547 1032.88,619.5547 " fill="none" id="Useless-to-SideTestEnum" style="stroke:#909090;stroke-width:1.0;"/><polygon fill="#909090" points="1037.88,619.5547,1028.88,615.5547,1032.88,619.5547,1028.88,623.5547,1037.88,619.5547" style="stroke:#909090;stroke-width:1.0;"/><text fill="#000000" font-family="sans-serif" font-size="13" lengthAdjust="spacing" textLength="29" x="934.5" y="608.433">uses</text></g><!--reverse link BaseExample to ClassExample--><g id="link_BaseExample_ClassExample"><path codeLine="56" d="M892.23,391.5547 C892.23,391.5547 893.4,391.5547 893.4,391.5547 C893.4,391.5547 893.4,195.5547 893.4,195.5547 C893.4,195.5547 910.57,195.5547 930.76,195.5547 " fill="none" id="BaseExample-backto-ClassExample" style="stroke:#FF0000;stroke-width:1.0;"/><polygon fill="none" points="902.69,398.5547,882.69,391.5547,902.69,384.5547,902.69,398.5547" style="stroke:#FF0000;stroke-width:1.0;"/></g><!--link ClassExample to BaseExample--><g id="link_ClassExample_BaseExample"><path codeLine="61" d="M930.74,207.5547 C913.39,207.5547 899.3,207.5547 899.3,207.5547 C899.3,207.5547 899.3,403.5547 899.3,403.5547 C899.3,403.5547 887.81,403.5547 887.81,403.5547 " fill="none" id="ClassExample-to-BaseExample" style="stroke:#909090;stroke-width:1.0;"/><polygon fill="#909090" points="882.81,403.5547,891.81,407.5547,887.81,403.5547,891.81,399.5547,882.81,403.5547" style="stroke:#909090;stroke-width:1.0;"/><text fill="#000000" font-family="sans-serif" font-size="13" lengthAdjust="spacing" textLength="29" x="869.3" y="292.153">uses</text></g><!--reverse link ClassExample to ClassExample_DOT_InnerClassExample--><g id="link_ClassExample_ClassExample_DOT_InnerClassExample"><path codeLine="57" d="M1050.75,235.8247 C1050.75,235.8247 1050.75,403.5547 1050.75,403.5547 C1050.75,403.5547 1120.83,403.5547 1192.41,403.5547 " fill="none" id="ClassExample-backto-ClassExample_DOT_InnerClassExample" style="stroke:#10BBBB;stroke-width:1.0;"/><ellipse cx="1050.75" cy="228.8247" fill="#FFFFFF" rx="8" ry="8" style="stroke:#10BBBB;stroke-width:1.0;"/><line style="stroke:#10BBBB;stroke-width:1.0;" x1="1050.75" x2="1050.75" y1="236.8247" y2="220.8247"/><line style="stroke:#10BBBB;stroke-width:1.0;" x1="1042.75" x2="1058.75" y1="228.8247" y2="228.8247"/></g><!--reverse link ClassExample to Useless--><g id="link_ClassExample_Useless"><path codeLine="58" d="M1030,233.9047 C1030,233.9047 1030,519.5547 1030,519.5547 C1030,519.5547 1019.19,519.5547 1006.35,519.5547 " fill="none" id="ClassExample-backto-Useless" style="stroke:#10BB10;stroke-width:1.0;"/><polygon fill="#10BB10" points="1030,220.9047,1026,226.9047,1030,232.9047,1034,226.9047,1030,220.9047" style="stroke:#10BB10;stroke-width:1.0;"/></g><!--link ClassExample to Useless--><g id="link_ClassExample_Useless"><path codeLine="60" d="M1021,219.9847 C1021,292.8247 1021,503.5547 1021,503.5547 C1021,503.5547 1012.45,503.5547 1012.45,503.5547 " fill="none" id="ClassExample-to-Useless" style="stroke:#6060BB;stroke-width:1.0;stroke-dasharray:7.0,7.0;"/><polygon fill="#6060BB" points="1007.45,503.5547,1016.45,507.5547,1012.45,503.5547,1016.45,499.5547,1007.45,503.5547" style="stroke:#6060BB;stroke-width:1.0;"/><text fill="#000000" font-family="sans-serif" font-size="13" lengthAdjust="spacing" textLength="29" x="991" y="362.613">uses</text></g><!--link ClassExample to IExample--><g id="link_ClassExample_IExample"><path codeLine="62" d="M971.5,219.8247 C971.5,219.8247 971.5,373.1247 971.5,373.1247 " fill="none" id="ClassExample-to-IExample" style="stroke:#6060BB;stroke-width:1.0;stroke-dasharray:7.0,7.0;"/><polygon fill="#6060BB" points="971.5,378.1247,975.5,369.1247,971.5,373.1247,967.5,369.1247,971.5,378.1247" style="stroke:#6060BB;stroke-width:1.0;"/><text fill="#000000" font-family="sans-serif" font-size="13" lengthAdjust="spacing" textLength="29" x="941.5" y="293.043">uses</text></g><!--reverse link AbstractBaseExample to BaseExample--><g id="link_AbstractBaseExample_BaseExample"><path codeLine="63" d="M819.75,240.8247 C819.75,240.8247 819.75,379.1247 819.75,379.1247 " fill="none" id="AbstractBaseExample-backto-BaseExample" style="stroke:#FF0000;stroke-width:1.0;"/><polygon fill="none" points="812.75,240.8247,819.75,220.8247,826.75,240.8247,812.75,240.8247" style="stroke:#FF0000;stroke-width:1.0;"/></g><!--reverse link BaseExample to BaseExample_DOT_EnumTest--><g id="link_BaseExample_BaseExample_DOT_EnumTest"><path codeLine="64" d="M820.5,443.7947 C820.5,443.7947 820.5,487.3947 820.5,487.3947 " fill="none" id="BaseExample-backto-BaseExample_DOT_EnumTest" style="stroke:#10BBBB;stroke-width:1.0;"/><ellipse cx="820.5" cy="436.7947" fill="#FFFFFF" rx="8" ry="8" style="stroke:#10BBBB;stroke-width:1.0;"/><line style="stroke:#10BBBB;stroke-width:1.0;" x1="820.5" x2="820.5" y1="444.7947" y2="428.7947"/><line style="stroke:#10BBBB;stroke-width:1.0;" x1="812.5" x2="828.5" y1="436.7947" y2="436.7947"/></g><!--link BaseExample to Useless--><g id="link_BaseExample_Useless"><path codeLine="65" d="M881.61,415.5547 C894.96,415.5547 905.2,415.5547 905.2,415.5547 C905.2,415.5547 905.2,519.5547 905.2,519.5547 C905.2,519.5547 916.67,519.5547 916.67,519.5547 " fill="none" id="BaseExample-to-Useless" style="stroke:#6060BB;stroke-width:1.0;stroke-dasharray:7.0,7.0;"/><polygon fill="#6060BB" points="921.67,519.5547,912.67,515.5547,916.67,519.5547,912.67,523.5547,921.67,519.5547" style="stroke:#6060BB;stroke-width:1.0;"/><text fill="#000000" font-family="sans-serif" font-size="13" lengthAdjust="spacing" textLength="29" x="875.2" y="458.063">uses</text></g><!--reverse link ClassExample_DOT_InnerClassExample to ClassExample_DOT_InnerClassExample_DOT_classInMethodExample--><g id="link_ClassExample_DOT_InnerClassExample_ClassExample_DOT_InnerClassExample_DOT_classInMethodExample"><path codeLine="66" d="M1347.75,443.7947 C1347.75,443.7947 1347.75,487.3947 1347.75,487.3947 " fill="none" id="ClassExample_DOT_InnerClassExample-backto-ClassExample_DOT_InnerClassExample_DOT_classInMethodExample" style="stroke:#10BBBB;stroke-width:1.0;"/><ellipse cx="1347.75" cy="436.7947" fill="#FFFFFF" rx="8" ry="8" style="stroke:#10BBBB;stroke-width:1.0;"/><line style="stroke:#10BBBB;stroke-width:1.0;" x1="1347.75" x2="1347.75" y1="444.7947" y2="428.7947"/><line style="stroke:#10BBBB;stroke-width:1.0;" x1="1339.75" x2="1355.75" y1="436.7947" y2="436.7947"/></g><!--link AbstractBaseExample to Useless--><g id="link_AbstractBaseExample_Useless"><path codeLine="68" d="M880.36,183.5547 C897.96,183.5547 911.1,183.5547 911.1,183.5547 C911.1,183.5547 911.1,503.5547 911.1,503.5547 C911.1,503.5547 916.69,503.5547 916.69,503.5547 " fill="none" id="AbstractBaseExample-to-Useless" style="stroke:#6060BB;stroke-width:1.0;stroke-dasharray:7.0,7.0;"/><polygon fill="#6060BB" points="921.69,503.5547,912.69,499.5547,916.69,503.5547,912.69,507.5547,921.69,503.5547" style="stroke:#6060BB;stroke-width:1.0;"/><text fill="#000000" font-family="sans-serif" font-size="13" lengthAdjust="spacing" textLength="29" x="881.1" y="327.543">uses</text></g><!--link SideExample to SideTestEnum--><g id="link_SideExample_SideTestEnum"><path codeLine="71" d="M1103.5,535.7947 C1103.5,535.7947 1103.5,589.3947 1103.5,589.3947 " fill="none" id="SideExample-to-SideTestEnum" style="stroke:#6060BB;stroke-width:1.0;stroke-dasharray:7.0,7.0;"/><polygon fill="#6060BB" points="1103.5,594.3947,1107.5,585.3947,1103.5,589.3947,1099.5,585.3947,1103.5,594.3947" style="stroke:#6060BB;stroke-width:1.0;"/><text fill="#000000" font-family="sans-serif" font-size="13" lengthAdjust="spacing" textLength="29" x="1073.5" y="559.163">uses</text></g><!--SRC=[xLTBRzf04BxxLuoQGoHNTaaFaOe2KlDIEJGz93rKWD367iCgwrrhr-JLvhztx1Xm52oyOA270hACFJFVDxEpipFcZik4QHQ3u1BJfmH1wNIYd9Id0k74y6TiVsvrBnvPd0Wq_YaBpz7miQGxmuFYERYkuNJ38uwXwmAJ8JqQQpLDC8G4DKWMeqbOWAvxyYcpsdMaIX4-_59J3KmZwJ3nzCpbk3sGJS8Dv41sEfTSfAWxdO4aG0YOX43mu0wGfnEIfyj2ny10Aaq2p9ZNfn3H_oWtGGGpwJW7fHkk1pBa6eCKGanGXYW3JinVOQzHP6zK1fA1kx3QjH1JniLgnoXE0D3lhx3eXPoDQOMzcLsliEUHFMzkppVtu-4mOtWv5G8A9Qj8pmX5P62Ekb1VXVjDnJWpmIcEZ_uaZSLm-06OWKkXM4gnlwAaSURAysYMmc293B-Nc5k4ScbycuLuk_xrrxCsE4KKkAJSZMeGy7krcSn5RIaTFA4Gwg6Wzf9VNtVRAiIVXZQKCJMu5PAxetQMITMFNLbyToJf3zRdM9BU2yNH-O-RqOMSnZTeKZk-_anjFmcGC-z9YNg3jF3V6MZ26NPhKiteKAhdrTT2t2vpbcZzImkHFysDzUHtf7udR6g5_6LMDtNzy4p5rANHYRlFSmGUg5S2SYy5AgqnIkfh8YWOmfbG9kkD63KFYSPxhgPcPAQtexcTaU2akl3WIac4MmpOr63MN1KjeE46w1TnoSq4GxzaUw5RTiHvgH0flAvuFmiFlVxVJsm7tB_ceKNHA4clr-JKBH0beFm-EoUoyyAEunlLpRRuhBwjwy1QCTuatk_fhr6ZTfWUrRLh7zMhv4bbyMgoli4X3MsrFh0rsOnYbjeQ1GroIXh0nxn5e8o9j8eNpDiako8NdDf3ZDy_E6uTjqvFXtwtzdG1RQ1LDU3KLV3w1rzQsNVeTTUlFhLXoxtOoHy2fsqtzApw8iTgdFb864SKH0gZrqGVR8Vk5kX7hHheioNP8iIoCSCIRxjf-GRAAZVBcRKUd9LdFMkiPUE8nHOegLdjCgiDK3d1Ma7kBaKgDcd3cxvwvd8s6xcs7Abb6RSPOgD7OVauSTRj6wtyMNb-_GK0]--></g></svg>