<?xml version="1.0" encoding="us-ascii" standalone="no"?><svg xmlns="http://www.w3.org/2000/svg" xmlns:xlink="http://www.w3.org/1999/xlink" contentStyleType="text/css" height="630px" preserveAspectRatio="none" style="width:1221px;height:630px;background:#FFFFFF;" version="1.1" viewBox="0 0 1221 630" width="1221px" zoomAndPan="magnify"><defs/><g><text fill="#000000" font-family="sans-serif" font-size="20" font-weight="bold" lengthAdjust="spacing" textLength="306" x="244.5" y="29.3359">Examples.BetterDesign.DBCar</text><text fill="#000000" font-family="sans-serif" font-size="20" font-weight="bold" lengthAdjust="spacing" textLength="104" x="557.5" y="29.3359">simplified</text><text fill="#000000" font-family="sans-serif" font-size="20" font-weight="bold" lengthAdjust="spacing" textLength="38" x="668.5" y="29.3359">and</text><text fill="#000000" font-family="sans-serif" font-size="20" font-weight="bold" lengthAdjust="spacing" textLength="249" x="713.5" y="29.3359">grouped per namespace</text><!--cluster Examples--><g id="cluster_Examples"><a href="Examples-diagram-simplified-grouped-per-namespace.svg" target="_top" title="Examples-diagram-simplified-grouped-per-namespace.svg" xlink:actuate="onRequest" xlink:href="Examples-diagram-simplified-grouped-per-namespace.svg" xlink:show="new" xlink:title="Examples-diagram-simplified-grouped-per-namespace.svg" xlink:type="simple"><path d="M558.5,50.5547 L627.5,50.5547 A3.75,3.75 0 0 1 630,53.0547 L637,73.043 L1211.5,73.043 A2.5,2.5 0 0 1 1214,75.543 L1214,621.0547 A2.5,2.5 0 0 1 1211.5,623.5547 L558.5,623.5547 A2.5,2.5 0 0 1 556,621.0547 L556,53.0547 A2.5,2.5 0 0 1 558.5,50.5547 " fill="none" style="stroke:#000000;stroke-width:1.5;"/><line style="stroke:#000000;stroke-width:1.5;" x1="556" x2="637" y1="73.043" y2="73.043"/><text fill="#000000" font-family="sans-serif" font-size="14" font-weight="bold" lengthAdjust="spacing" textLength="68" x="560" y="66.0898">Examples</text></a></g><!--cluster BetterDesign--><g id="cluster_BetterDesign"><a href="Examples.BetterDesign-diagram-simplified-grouped-per-namespace.svg" target="_top" title="Examples.BetterDesign-diagram-simplified-grouped-per-namespace.svg" xlink:actuate="onRequest" xlink:href="Examples.BetterDesign-diagram-simplified-grouped-per-namespace.svg" xlink:show="new" xlink:title="Examples.BetterDesign-diagram-simplified-grouped-per-namespace.svg" xlink:type="simple"><path d="M582.5,93.5547 L676.5,93.5547 A3.75,3.75 0 0 1 679,96.0547 L686,116.043 L1187.5,116.043 A2.5,2.5 0 0 1 1190,118.543 L1190,597.0547 A2.5,2.5 0 0 1 1187.5,599.5547 L582.5,599.5547 A2.5,2.5 0 0 1 580,597.0547 L580,96.0547 A2.5,2.5 0 0 1 582.5,93.5547 " fill="none" style="stroke:#000000;stroke-width:1.5;"/><line style="stroke:#000000;stroke-width:1.5;" x1="580" x2="686" y1="116.043" y2="116.043"/><text fill="#000000" font-family="sans-serif" font-size="14" font-weight="bold" lengthAdjust="spacing" textLength="93" x="584" y="109.0898">BetterDesign</text></a></g><!--cluster CarExample--><g id="cluster_CarExample"><a href="Examples.BetterDesign.CarExample-diagram-simplified-grouped-per-namespace.svg" target="_top" title="Examples.BetterDesign.CarExample-diagram-simplified-grouped-per-namespace.svg" xlink:actuate="onRequest" xlink:href="Examples.BetterDesign.CarExample-diagram-simplified-grouped-per-namespace.svg" xlink:show="new" xlink:title="Examples.BetterDesign.CarExample-diagram-simplified-grouped-per-namespace.svg" xlink:type="simple"><path d="M606.5,136.5547 L691.5,136.5547 A3.75,3.75 0 0 1 694,139.0547 L701,159.043 L1081.5,159.043 A2.5,2.5 0 0 1 1084,161.543 L1084,573.0547 A2.5,2.5 0 0 1 1081.5,575.5547 L606.5,575.5547 A2.5,2.5 0 0 1 604,573.0547 L604,139.0547 A2.5,2.5 0 0 1 606.5,136.5547 " fill="none" style="stroke:#000000;stroke-width:1.5;"/><line style="stroke:#000000;stroke-width:1.5;" x1="604" x2="701" y1="159.043" y2="159.043"/><text fill="#000000" font-family="sans-serif" font-size="14" font-weight="bold" lengthAdjust="spacing" textLength="84" x="608" y="152.0898">CarExample</text></a></g><!--cluster CarParts--><g id="cluster_CarParts"><a href="Examples.BetterDesign.CarExample.CarParts-diagram-simplified-grouped-per-namespace.svg" target="_top" title="Examples.BetterDesign.CarExample.CarParts-diagram-simplified-grouped-per-namespace.svg" xlink:actuate="onRequest" xlink:href="Examples.BetterDesign.CarExample.CarParts-diagram-simplified-grouped-per-namespace.svg" xlink:show="new" xlink:title="Examples.BetterDesign.CarExample.CarParts-diagram-simplified-grouped-per-namespace.svg" xlink:type="simple"><path d="M630.5,452.5547 L692.5,452.5547 A3.75,3.75 0 0 1 695,455.0547 L702,475.043 L1057.5,475.043 A2.5,2.5 0 0 1 1060,477.543 L1060,549.0547 A2.5,2.5 0 0 1 1057.5,551.5547 L630.5,551.5547 A2.5,2.5 0 0 1 628,549.0547 L628,455.0547 A2.5,2.5 0 0 1 630.5,452.5547 " fill="none" style="stroke:#000000;stroke-width:1.5;"/><line style="stroke:#000000;stroke-width:1.5;" x1="628" x2="702" y1="475.043" y2="475.043"/><text fill="#000000" font-family="sans-serif" font-size="14" font-weight="bold" lengthAdjust="spacing" textLength="61" x="632" y="468.0898">CarParts</text></a></g><!--class DBCar--><a href="Examples.BetterDesign.DBCar-diagram-simplified-grouped-per-namespace.svg" target="_top" title="Examples.BetterDesign.DBCar-diagram-simplified-grouped-per-namespace.svg" xlink:actuate="onRequest" xlink:href="Examples.BetterDesign.DBCar-diagram-simplified-grouped-per-namespace.svg" xlink:show="new" xlink:title="Examples.BetterDesign.DBCar-diagram-simplified-grouped-per-namespace.svg" xlink:type="simple"><g id="elem_DBCar"><rect codeLine="6" fill="#FFFF00" height="48" id="DBCar" rx="2.5" ry="2.5" style="stroke:#181818;stroke-width:0.5;" width="74" x="1100" y="379.5547"/><ellipse cx="1115" cy="395.5547" fill="#ADD1B2" rx="11" ry="11" style="stroke:#181818;stroke-width:1.0;"/><path d="M1117.4731,401.6978 Q1116.8921,401.9966 1116.2529,402.146 Q1115.6138,402.2954 1114.9082,402.2954 Q1112.4014,402.2954 1111.0815,400.6436 Q1109.7617,398.9917 1109.7617,395.8706 Q1109.7617,392.7412 1111.0815,391.0894 Q1112.4014,389.4375 1114.9082,389.4375 Q1115.6138,389.4375 1116.2612,389.5869 Q1116.9087,389.7363 1117.4731,390.0352 L1117.4731,392.7578 Q1116.8423,392.1768 1116.2488,391.907 Q1115.6553,391.6372 1115.0244,391.6372 Q1113.6797,391.6372 1112.9949,392.7039 Q1112.3101,393.7705 1112.3101,395.8706 Q1112.3101,397.9624 1112.9949,399.0291 Q1113.6797,400.0957 1115.0244,400.0957 Q1115.6553,400.0957 1116.2488,399.8259 Q1116.8423,399.5562 1117.4731,398.9751 Z " fill="#000000"/><text fill="#000000" font-family="sans-serif" font-size="14" lengthAdjust="spacing" textLength="42" x="1129" y="400.8457">DBCar</text><line style="stroke:#181818;stroke-width:0.5;" x1="1101" x2="1173" y1="411.5547" y2="411.5547"/><line style="stroke:#181818;stroke-width:0.5;" x1="1101" x2="1173" y1="419.5547" y2="419.5547"/></g></a><!--class Car--><a href="Examples.BetterDesign.CarExample.Car-diagram-simplified-grouped-per-namespace.svg" target="_top" title="Examples.BetterDesign.CarExample.Car-diagram-simplified-grouped-per-namespace.svg" xlink:actuate="onRequest" xlink:href="Examples.BetterDesign.CarExample.Car-diagram-simplified-grouped-per-namespace.svg" xlink:show="new" xlink:title="Examples.BetterDesign.CarExample.Car-diagram-simplified-grouped-per-namespace.svg" xlink:type="simple"><g id="elem_Car"><rect codeLine="17" fill="#F1F1F1" height="48" id="Car" rx="2.5" ry="2.5" style="stroke:#181818;stroke-width:0.5;" width="56" x="873" y="379.5547"/><ellipse cx="888" cy="395.5547" fill="#ADD1B2" rx="11" ry="11" style="stroke:#181818;stroke-width:1.0;"/><path d="M890.4731,401.6978 Q889.8921,401.9966 889.2529,402.146 Q888.6138,402.2954 887.9082,402.2954 Q885.4014,402.2954 884.0815,400.6436 Q882.7617,398.9917 882.7617,395.8706 Q882.7617,392.7412 884.0815,391.0894 Q885.4014,389.4375 887.9082,389.4375 Q888.6138,389.4375 889.2612,389.5869 Q889.9087,389.7363 890.4731,390.0352 L890.4731,392.7578 Q889.8423,392.1768 889.2488,391.907 Q888.6553,391.6372 888.0244,391.6372 Q886.6797,391.6372 885.9949,392.7039 Q885.3101,393.7705 885.3101,395.8706 Q885.3101,397.9624 885.9949,399.0291 Q886.6797,400.0957 888.0244,400.0957 Q888.6553,400.0957 889.2488,399.8259 Q889.8423,399.5562 890.4731,398.9751 Z " fill="#000000"/><text fill="#000000" font-family="sans-serif" font-size="14" lengthAdjust="spacing" textLength="24" x="902" y="400.8457">Car</text><line style="stroke:#181818;stroke-width:0.5;" x1="874" x2="928" y1="411.5547" y2="411.5547"/><line style="stroke:#181818;stroke-width:0.5;" x1="874" x2="928" y1="419.5547" y2="419.5547"/></g></a><!--class Vehicle--><a href="Examples.BetterDesign.CarExample.Vehicle-diagram-simplified-grouped-per-namespace.svg" target="_top" title="Examples.BetterDesign.CarExample.Vehicle-diagram-simplified-grouped-per-namespace.svg" xlink:actuate="onRequest" xlink:href="Examples.BetterDesign.CarExample.Vehicle-diagram-simplified-grouped-per-namespace.svg" xlink:show="new" xlink:title="Examples.BetterDesign.CarExample.Vehicle-diagram-simplified-grouped-per-namespace.svg" xlink:type="simple"><g id="elem_Vehicle"><rect codeLine="19" fill="#F1F1F1" height="48" id="Vehicle" rx="2.5" ry="2.5" style="stroke:#181818;stroke-width:0.5;" width="81" x="923.5" y="171.5547"/><ellipse cx="938.5" cy="187.5547" fill="#ADD1B2" rx="11" ry="11" style="stroke:#181818;stroke-width:1.0;"/><path d="M940.9731,193.6978 Q940.3921,193.9966 939.7529,194.146 Q939.1138,194.2954 938.4082,194.2954 Q935.9014,194.2954 934.5815,192.6436 Q933.2617,190.9917 933.2617,187.8706 Q933.2617,184.7412 934.5815,183.0894 Q935.9014,181.4375 938.4082,181.4375 Q939.1138,181.4375 939.7612,181.5869 Q940.4087,181.7363 940.9731,182.0352 L940.9731,184.7578 Q940.3423,184.1768 939.7488,183.907 Q939.1553,183.6372 938.5244,183.6372 Q937.1797,183.6372 936.4949,184.7039 Q935.8101,185.7705 935.8101,187.8706 Q935.8101,189.9624 936.4949,191.0291 Q937.1797,192.0957 938.5244,192.0957 Q939.1553,192.0957 939.7488,191.8259 Q940.3423,191.5562 940.9731,190.9751 Z " fill="#000000"/><text fill="#000000" font-family="sans-serif" font-size="14" lengthAdjust="spacing" textLength="49" x="952.5" y="192.8457">Vehicle</text><line style="stroke:#181818;stroke-width:0.5;" x1="924.5" x2="1003.5" y1="203.5547" y2="203.5547"/><line style="stroke:#181818;stroke-width:0.5;" x1="924.5" x2="1003.5" y1="211.5547" y2="211.5547"/></g></a><!--class Driver--><a href="Examples.BetterDesign.CarExample.CarParts.Driver-diagram-simplified-grouped-per-namespace.svg" target="_top" title="Examples.BetterDesign.CarExample.CarParts.Driver-diagram-simplified-grouped-per-namespace.svg" xlink:actuate="onRequest" xlink:href="Examples.BetterDesign.CarExample.CarParts.Driver-diagram-simplified-grouped-per-namespace.svg" xlink:show="new" xlink:title="Examples.BetterDesign.CarExample.CarParts.Driver-diagram-simplified-grouped-per-namespace.svg" xlink:type="simple"><g id="elem_Driver"><rect codeLine="33" fill="#F1F1F1" height="48" id="Driver" rx="2.5" ry="2.5" style="stroke:#181818;stroke-width:0.5;" width="73" x="752.5" y="487.5547"/><ellipse cx="767.5" cy="503.5547" fill="#ADD1B2" rx="11" ry="11" style="stroke:#181818;stroke-width:1.0;"/><path d="M769.9731,509.6978 Q769.3921,509.9966 768.7529,510.146 Q768.1138,510.2954 767.4082,510.2954 Q764.9014,510.2954 763.5815,508.6436 Q762.2617,506.9917 762.2617,503.8706 Q762.2617,500.7412 763.5815,499.0894 Q764.9014,497.4375 767.4082,497.4375 Q768.1138,497.4375 768.7612,497.5869 Q769.4087,497.7363 769.9731,498.0352 L769.9731,500.7578 Q769.3423,500.1768 768.7488,499.907 Q768.1553,499.6372 767.5244,499.6372 Q766.1797,499.6372 765.4949,500.7039 Q764.8101,501.7705 764.8101,503.8706 Q764.8101,505.9624 765.4949,507.0291 Q766.1797,508.0957 767.5244,508.0957 Q768.1553,508.0957 768.7488,507.8259 Q769.3423,507.5562 769.9731,506.9751 Z " fill="#000000"/><text fill="#000000" font-family="sans-serif" font-size="14" lengthAdjust="spacing" textLength="41" x="781.5" y="508.8457">Driver</text><line style="stroke:#181818;stroke-width:0.5;" x1="753.5" x2="824.5" y1="519.5547" y2="519.5547"/><line style="stroke:#181818;stroke-width:0.5;" x1="753.5" x2="824.5" y1="527.5547" y2="527.5547"/></g></a><!--class Seats--><a href="Examples.BetterDesign.CarExample.CarParts.Seats-diagram-simplified-grouped-per-namespace.svg" target="_top" title="Examples.BetterDesign.CarExample.CarParts.Seats-diagram-simplified-grouped-per-namespace.svg" xlink:actuate="onRequest" xlink:href="Examples.BetterDesign.CarExample.CarParts.Seats-diagram-simplified-grouped-per-namespace.svg" xlink:show="new" xlink:title="Examples.BetterDesign.CarExample.CarParts.Seats-diagram-simplified-grouped-per-namespace.svg" xlink:type="simple"><g id="elem_Seats"><rect codeLine="35" fill="#F1F1F1" height="48" id="Seats" rx="2.5" ry="2.5" style="stroke:#181818;stroke-width:0.5;" width="68" x="976" y="487.5547"/><ellipse cx="991" cy="503.5547" fill="#ADD1B2" rx="11" ry="11" style="stroke:#181818;stroke-width:1.0;"/><path d="M993.4731,509.6978 Q992.8921,509.9966 992.2529,510.146 Q991.6138,510.2954 990.9082,510.2954 Q988.4014,510.2954 987.0815,508.6436 Q985.7617,506.9917 985.7617,503.8706 Q985.7617,500.7412 987.0815,499.0894 Q988.4014,497.4375 990.9082,497.4375 Q991.6138,497.4375 992.2612,497.5869 Q992.9087,497.7363 993.4731,498.0352 L993.4731,500.7578 Q992.8423,500.1768 992.2488,499.907 Q991.6553,499.6372 991.0244,499.6372 Q989.6797,499.6372 988.9949,500.7039 Q988.3101,501.7705 988.3101,503.8706 Q988.3101,505.9624 988.9949,507.0291 Q989.6797,508.0957 991.0244,508.0957 Q991.6553,508.0957 992.2488,507.8259 Q992.8423,507.5562 993.4731,506.9751 Z " fill="#000000"/><text fill="#000000" font-family="sans-serif" font-size="14" lengthAdjust="spacing" textLength="36" x="1005" y="508.8457">Seats</text><line style="stroke:#181818;stroke-width:0.5;" x1="977" x2="1043" y1="519.5547" y2="519.5547"/><line style="stroke:#181818;stroke-width:0.5;" x1="977" x2="1043" y1="527.5547" y2="527.5547"/></g></a><!--class Doors--><a href="Examples.BetterDesign.CarExample.CarParts.Doors-diagram-simplified-grouped-per-namespace.svg" target="_top" title="Examples.BetterDesign.CarExample.CarParts.Doors-diagram-simplified-grouped-per-namespace.svg" xlink:actuate="onRequest" xlink:href="Examples.BetterDesign.CarExample.CarParts.Doors-diagram-simplified-grouped-per-namespace.svg" xlink:show="new" xlink:title="Examples.BetterDesign.CarExample.CarParts.Doors-diagram-simplified-grouped-per-namespace.svg" xlink:type="simple"><g id="elem_Doors"><rect codeLine="37" fill="#F1F1F1" height="48" id="Doors" rx="2.5" ry="2.5" style="stroke:#181818;stroke-width:0.5;" width="73" x="644.5" y="487.5547"/><ellipse cx="659.5" cy="503.5547" fill="#ADD1B2" rx="11" ry="11" style="stroke:#181818;stroke-width:1.0;"/><path d="M661.9731,509.6978 Q661.3921,509.9966 660.7529,510.146 Q660.1138,510.2954 659.4082,510.2954 Q656.9014,510.2954 655.5815,508.6436 Q654.2617,506.9917 654.2617,503.8706 Q654.2617,500.7412 655.5815,499.0894 Q656.9014,497.4375 659.4082,497.4375 Q660.1138,497.4375 660.7612,497.5869 Q661.4087,497.7363 661.9731,498.0352 L661.9731,500.7578 Q661.3423,500.1768 660.7488,499.907 Q660.1553,499.6372 659.5244,499.6372 Q658.1797,499.6372 657.4949,500.7039 Q656.8101,501.7705 656.8101,503.8706 Q656.8101,505.9624 657.4949,507.0291 Q658.1797,508.0957 659.5244,508.0957 Q660.1553,508.0957 660.7488,507.8259 Q661.3423,507.5562 661.9731,506.9751 Z " fill="#000000"/><text fill="#000000" font-family="sans-serif" font-size="14" lengthAdjust="spacing" textLength="41" x="673.5" y="508.8457">Doors</text><line style="stroke:#181818;stroke-width:0.5;" x1="645.5" x2="716.5" y1="519.5547" y2="519.5547"/><line style="stroke:#181818;stroke-width:0.5;" x1="645.5" x2="716.5" y1="527.5547" y2="527.5547"/></g></a><!--class Wheels--><a href="Examples.BetterDesign.CarExample.CarParts.Wheels-diagram-simplified-grouped-per-namespace.svg" target="_top" title="Examples.BetterDesign.CarExample.CarParts.Wheels-diagram-simplified-grouped-per-namespace.svg" xlink:actuate="onRequest" xlink:href="Examples.BetterDesign.CarExample.CarParts.Wheels-diagram-simplified-grouped-per-namespace.svg" xlink:show="new" xlink:title="Examples.BetterDesign.CarExample.CarParts.Wheels-diagram-simplified-grouped-per-namespace.svg" xlink:type="simple"><g id="elem_Wheels"><rect codeLine="39" fill="#F1F1F1" height="48" id="Wheels" rx="2.5" ry="2.5" style="stroke:#181818;stroke-width:0.5;" width="80" x="861" y="487.5547"/><ellipse cx="876" cy="503.5547" fill="#ADD1B2" rx="11" ry="11" style="stroke:#181818;stroke-width:1.0;"/><path d="M878.4731,509.6978 Q877.8921,509.9966 877.2529,510.146 Q876.6138,510.2954 875.9082,510.2954 Q873.4014,510.2954 872.0815,508.6436 Q870.7617,506.9917 870.7617,503.8706 Q870.7617,500.7412 872.0815,499.0894 Q873.4014,497.4375 875.9082,497.4375 Q876.6138,497.4375 877.2612,497.5869 Q877.9087,497.7363 878.4731,498.0352 L878.4731,500.7578 Q877.8423,500.1768 877.2488,499.907 Q876.6553,499.6372 876.0244,499.6372 Q874.6797,499.6372 873.9949,500.7039 Q873.3101,501.7705 873.3101,503.8706 Q873.3101,505.9624 873.9949,507.0291 Q874.6797,508.0957 876.0244,508.0957 Q876.6553,508.0957 877.2488,507.8259 Q877.8423,507.5562 878.4731,506.9751 Z " fill="#000000"/><text fill="#000000" font-family="sans-serif" font-size="14" lengthAdjust="spacing" textLength="48" x="890" y="508.8457">Wheels</text><line style="stroke:#181818;stroke-width:0.5;" x1="862" x2="940" y1="519.5547" y2="519.5547"/><line style="stroke:#181818;stroke-width:0.5;" x1="862" x2="940" y1="527.5547" y2="527.5547"/></g></a><g id="elem_FloatingNote"><path d="M6,71.5547 L6,319.2129 L540,319.2129 L540,81.5547 L530,71.5547 L6,71.5547 " fill="#FEFFDD" style="stroke:#181818;stroke-width:0.5;"/><path d="M530,71.5547 L530,81.5547 L540,81.5547 L530,71.5547 " fill="#FEFFDD" style="stroke:#181818;stroke-width:1.0;"/><text fill="#000000" font-family="sans-serif" font-size="13" lengthAdjust="spacing" textLength="120" x="12" y="89.123">Your are analyzing:</text><text fill="#000000" font-family="sans-serif" font-size="13" lengthAdjust="spacing" textLength="186" x="12" y="104.4336">Examples.BetterDesign.DBCar</text><text fill="#000000" font-family="sans-serif" font-size="13" font-weight="bold" lengthAdjust="spacing" textLength="67" x="202" y="104.4336">simplified</text><text fill="#000000" font-family="sans-serif" font-size="13" lengthAdjust="spacing" textLength="23" x="273" y="104.4336">and</text><text fill="#000000" font-family="sans-serif" font-size="13" font-weight="bold" lengthAdjust="spacing" textLength="166" x="300" y="104.4336">grouped per namespace</text><text fill="#000000" font-family="sans-serif" font-size="13" lengthAdjust="spacing" textLength="4" x="12" y="119.7441">&#160;</text><text fill="#000000" font-family="sans-serif" font-size="13" lengthAdjust="spacing" textLength="229" x="12" y="150.3652">You can click either the namespaces</text><text fill="#000000" font-family="sans-serif" font-size="13" lengthAdjust="spacing" textLength="266" x="12" y="165.6758">or class names for filtering them and their</text><text fill="#000000" font-family="sans-serif" font-size="13" lengthAdjust="spacing" textLength="130" x="12" y="180.9863">direct dependencies.</text><text fill="#000000" font-family="sans-serif" font-size="13" lengthAdjust="spacing" textLength="4" x="12" y="196.2969">&#160;</text><line style="stroke:#181818;stroke-width:1.0;" x1="7" x2="257" y1="130.1416" y2="130.1416"/><line style="stroke:#181818;stroke-width:1.0;" x1="7" x2="257" y1="132.1416" y2="132.1416"/><text fill="#000000" font-family="sans-serif" font-size="13" lengthAdjust="spacing" textLength="32" x="257" y="134.5547">Filter</text><line style="stroke:#181818;stroke-width:1.0;" x1="289" x2="539" y1="130.1416" y2="130.1416"/><line style="stroke:#181818;stroke-width:1.0;" x1="289" x2="539" y1="132.1416" y2="132.1416"/><ellipse cx="17.5" cy="226.1602" fill="#000000" rx="2.5" ry="2.5" style="stroke:#000000;stroke-width:0.0;"/><text fill="#000000" font-family="sans-serif" font-size="13" lengthAdjust="spacing" textLength="186" x="24" y="230.918">Examples.BetterDesign.DBCar</text><text fill="#000000" font-family="sans-serif" font-size="13" font-weight="bold" lengthAdjust="spacing" textLength="55" x="214" y="230.918">detailed</text><text fill="#000000" font-family="sans-serif" font-size="13" lengthAdjust="spacing" textLength="23" x="273" y="230.918">and</text><text fill="#000000" font-family="sans-serif" font-size="13" font-weight="bold" lengthAdjust="spacing" textLength="166" x="300" y="230.918">grouped per namespace</text><text fill="#000000" font-family="sans-serif" font-size="13" lengthAdjust="spacing" textLength="4" x="466" y="230.918">:</text><text fill="#000000" font-family="sans-serif" font-size="13" lengthAdjust="spacing" textLength="12" x="12" y="246.2285">&#160;&#160;&#160;</text><a href="Examples.BetterDesign.DBCar-diagram-detailed-grouped-per-namespace.svg" target="_top" title="Examples.BetterDesign.DBCar-diagram-detailed-grouped-per-namespace.svg" xlink:actuate="onRequest" xlink:href="Examples.BetterDesign.DBCar-diagram-detailed-grouped-per-namespace.svg" xlink:show="new" xlink:title="Examples.BetterDesign.DBCar-diagram-detailed-grouped-per-namespace.svg" xlink:type="simple"><text fill="#0000FF" font-family="sans-serif" font-size="13" lengthAdjust="spacing" text-decoration="underline" textLength="495" x="24" y="246.2285">Examples.BetterDesign.DBCar-diagram-detailed-grouped-per-namespace.svg</text></a><ellipse cx="17.5" cy="256.7813" fill="#000000" rx="2.5" ry="2.5" style="stroke:#000000;stroke-width:0.0;"/><text fill="#000000" font-family="sans-serif" font-size="13" lengthAdjust="spacing" textLength="78" x="24" y="261.5391">Full diagram</text><text fill="#000000" font-family="sans-serif" font-size="13" font-weight="bold" lengthAdjust="spacing" textLength="67" x="106" y="261.5391">simplified</text><text fill="#000000" font-family="sans-serif" font-size="13" lengthAdjust="spacing" textLength="23" x="177" y="261.5391">and</text><text fill="#000000" font-family="sans-serif" font-size="13" font-weight="bold" lengthAdjust="spacing" textLength="166" x="204" y="261.5391">grouped per namespace</text><text fill="#000000" font-family="sans-serif" font-size="13" lengthAdjust="spacing" textLength="4" x="370" y="261.5391">:</text><text fill="#000000" font-family="sans-serif" font-size="13" lengthAdjust="spacing" textLength="12" x="12" y="276.8496">&#160;&#160;&#160;</text><a href="full-diagram-simplified-grouped-per-namespace.svg" target="_top" title="full-diagram-simplified-grouped-per-namespace.svg" xlink:actuate="onRequest" xlink:href="full-diagram-simplified-grouped-per-namespace.svg" xlink:show="new" xlink:title="full-diagram-simplified-grouped-per-namespace.svg" xlink:type="simple"><text fill="#0000FF" font-family="sans-serif" font-size="13" lengthAdjust="spacing" text-decoration="underline" textLength="343" x="24" y="276.8496">full-diagram-simplified-grouped-per-namespace.svg</text></a><ellipse cx="17.5" cy="287.4023" fill="#000000" rx="2.5" ry="2.5" style="stroke:#000000;stroke-width:0.0;"/><text fill="#000000" font-family="sans-serif" font-size="13" lengthAdjust="spacing" textLength="41" x="24" y="292.1602">Home:</text><text fill="#000000" font-family="sans-serif" font-size="13" lengthAdjust="spacing" textLength="12" x="12" y="307.4707">&#160;&#160;&#160;</text><a href="index.html" target="_top" title="index.html" xlink:actuate="onRequest" xlink:href="index.html" xlink:show="new" xlink:title="index.html" xlink:type="simple"><text fill="#0000FF" font-family="sans-serif" font-size="13" lengthAdjust="spacing" text-decoration="underline" textLength="68" x="24" y="307.4707">index.html</text></a><line style="stroke:#181818;stroke-width:1.0;" x1="7" x2="236" y1="210.6943" y2="210.6943"/><line style="stroke:#181818;stroke-width:1.0;" x1="7" x2="236" y1="212.6943" y2="212.6943"/><text fill="#000000" font-family="sans-serif" font-size="13" lengthAdjust="spacing" textLength="74" x="236" y="215.1074">Select other</text><line style="stroke:#181818;stroke-width:1.0;" x1="310" x2="539" y1="210.6943" y2="210.6943"/><line style="stroke:#181818;stroke-width:1.0;" x1="310" x2="539" y1="212.6943" y2="212.6943"/></g><!--link DBCar to Driver--><g id="link_DBCar_Driver"><path codeLine="56" d="M1144.4,427.9347 C1144.4,448.8147 1144.4,475.5547 1144.4,475.5547 C1144.4,475.5547 807.25,475.5547 807.25,475.5547 C807.25,475.5547 807.25,481.3447 807.25,481.3447 " fill="none" id="DBCar-to-Driver" style="stroke:#6060BB;stroke-width:1.0;stroke-dasharray:7.0,7.0;"/><polygon fill="#6060BB" points="807.25,486.3447,811.25,477.3447,807.25,481.3447,803.25,477.3447,807.25,486.3447" style="stroke:#6060BB;stroke-width:1.0;"/><text fill="#000000" font-family="sans-serif" font-size="13" lengthAdjust="spacing" textLength="29" x="966.74" y="472.123">uses</text></g><!--reverse link Driver to DBCar--><g id="link_Driver_DBCar"><path codeLine="72" d="M770.75,473.2747 C770.75,473.2747 770.75,463.5547 770.75,463.5547 C770.75,463.5547 1159.2,463.5547 1159.2,463.5547 C1159.2,463.5547 1159.2,444.5747 1159.2,427.9547 " fill="none" id="Driver-backto-DBCar" style="stroke:#10BB10;stroke-width:1.0;"/><polygon fill="#10BB10" points="770.75,486.2747,774.75,480.2747,770.75,474.2747,766.75,480.2747,770.75,486.2747" style="stroke:#10BB10;stroke-width:1.0;"/></g><!--link DBCar to Car--><g id="link_DBCar_Car"><path codeLine="57" d="M1099.61,395.5547 C1099.61,395.5547 935.33,395.5547 935.33,395.5547 " fill="none" id="DBCar-to-Car" style="stroke:#6060BB;stroke-width:1.0;stroke-dasharray:7.0,7.0;"/><polygon fill="#6060BB" points="930.33,395.5547,939.33,399.5547,935.33,395.5547,939.33,391.5547,930.33,395.5547" style="stroke:#6060BB;stroke-width:1.0;"/><text fill="#000000" font-family="sans-serif" font-size="13" lengthAdjust="spacing" textLength="29" x="987.47" y="392.123">uses</text></g><!--link DBCar to Seats--><g id="link_DBCar_Seats"><path codeLine="58" d="M1099.57,417.5547 C1069,417.5547 1030.83,417.5547 1030.83,417.5547 C1030.83,417.5547 1030.83,481.3447 1030.83,481.3447 " fill="none" id="DBCar-to-Seats" style="stroke:#6060BB;stroke-width:1.0;stroke-dasharray:7.0,7.0;"/><polygon fill="#6060BB" points="1030.83,486.3447,1034.83,477.3447,1030.83,481.3447,1026.83,477.3447,1030.83,486.3447" style="stroke:#6060BB;stroke-width:1.0;"/><text fill="#000000" font-family="sans-serif" font-size="13" lengthAdjust="spacing" textLength="29" x="1003.31" y="414.123">uses</text></g><!--reverse link Seats to DBCar--><g id="link_Seats_DBCar"><path codeLine="73" d="M1017.67,473.0947 C1017.67,473.0947 1017.67,411.5547 1017.67,411.5547 C1017.67,411.5547 1064.57,411.5547 1099.57,411.5547 " fill="none" id="Seats-backto-DBCar" style="stroke:#10BB10;stroke-width:1.0;"/><polygon fill="#10BB10" points="1017.67,486.0947,1021.67,480.0947,1017.67,474.0947,1013.67,480.0947,1017.67,486.0947" style="stroke:#10BB10;stroke-width:1.0;"/></g><!--link DBCar to Doors--><g id="link_DBCar_Doors"><path codeLine="59" d="M1129.6,427.7647 C1129.6,434.2747 1129.6,439.5547 1129.6,439.5547 C1129.6,439.5547 702.9,439.5547 702.9,439.5547 C702.9,439.5547 702.9,481.1747 702.9,481.1747 " fill="none" id="DBCar-to-Doors" style="stroke:#6060BB;stroke-width:1.0;stroke-dasharray:7.0,7.0;"/><polygon fill="#6060BB" points="702.9,486.1747,706.9,477.1747,702.9,481.1747,698.9,477.1747,702.9,486.1747" style="stroke:#6060BB;stroke-width:1.0;"/><text fill="#000000" font-family="sans-serif" font-size="13" lengthAdjust="spacing" textLength="29" x="871.33" y="453.123">uses</text></g><!--reverse link Doors to DBCar--><g id="link_Doors_DBCar"><path codeLine="74" d="M659.1,473.1547 C659.1,473.1547 659.1,451.5547 659.1,451.5547 C659.1,451.5547 1114.8,451.5547 1114.8,451.5547 C1114.8,451.5547 1114.8,439.7447 1114.8,427.8347 " fill="none" id="Doors-backto-DBCar" style="stroke:#10BB10;stroke-width:1.0;"/><polygon fill="#10BB10" points="659.1,486.1547,663.1,480.1547,659.1,474.1547,655.1,480.1547,659.1,486.1547" style="stroke:#10BB10;stroke-width:1.0;"/></g><!--link DBCar to Wheels--><g id="link_DBCar_Wheels"><path codeLine="60" d="M1099.95,401.5547 C1041.63,401.5547 935,401.5547 935,401.5547 C935,401.5547 935,481.1447 935,481.1447 " fill="none" id="DBCar-to-Wheels" style="stroke:#6060BB;stroke-width:1.0;stroke-dasharray:7.0,7.0;"/><polygon fill="#6060BB" points="935,486.1447,939,477.1447,935,481.1447,931,477.1447,935,486.1447" style="stroke:#6060BB;stroke-width:1.0;"/><text fill="#000000" font-family="sans-serif" font-size="13" lengthAdjust="spacing" textLength="29" x="947.68" y="398.123">uses</text></g><!--reverse link Wheels to DBCar--><g id="link_Wheels_DBCar"><path codeLine="75" d="M938,473.2047 C938,473.2047 938,406.5547 938,406.5547 C938,406.5547 1041.92,406.5547 1099.57,406.5547 " fill="none" id="Wheels-backto-DBCar" style="stroke:#10BB10;stroke-width:1.0;"/><polygon fill="#10BB10" points="938,486.2047,942,480.2047,938,474.2047,934,480.2047,938,486.2047" style="stroke:#10BB10;stroke-width:1.0;"/></g><!--reverse link Vehicle to Car--><g id="link_Vehicle_Car"><path codeLine="63" d="M932,240.8547 C932,240.8547 932,390.5547 932,390.5547 C932,390.5547 930.91,390.5547 929.14,390.5547 " fill="none" id="Vehicle-backto-Car" style="stroke:#FF0000;stroke-width:1.0;"/><polygon fill="none" points="925,240.8547,932,220.8547,939,240.8547,925,240.8547" style="stroke:#FF0000;stroke-width:1.0;"/></g><!--reverse link Car to Wheels--><g id="link_Car_Wheels"><path codeLine="64" d="M901,441.7947 C901,441.7947 901,487.3947 901,487.3947 " fill="none" id="Car-backto-Wheels" style="stroke:#10BB10;stroke-width:1.0;"/><polygon fill="#10BB10" points="901,428.7947,897,434.7947,901,440.7947,905,434.7947,901,428.7947" style="stroke:#10BB10;stroke-width:1.0;"/></g><!--reverse link Car to Seats--><g id="link_Car_Seats"><path codeLine="65" d="M943.14,422.5547 C943.14,422.5547 985.5,422.5547 985.5,422.5547 C985.5,422.5547 985.5,460.8847 985.5,487.2347 " fill="none" id="Car-backto-Seats" style="stroke:#10BB10;stroke-width:1.0;"/><polygon fill="#10BB10" points="930.14,422.5547,936.14,426.5547,942.14,422.5547,936.14,418.5547,930.14,422.5547" style="stroke:#10BB10;stroke-width:1.0;"/></g><!--reverse link Car to Driver--><g id="link_Car_Driver"><path codeLine="66" d="M858.74,415.5547 C858.74,415.5547 789,415.5547 789,415.5547 C789,415.5547 789,458.6347 789,487.0847 " fill="none" id="Car-backto-Driver" style="stroke:#10BB10;stroke-width:1.0;"/><polygon fill="#10BB10" points="871.74,415.5547,865.74,411.5547,859.74,415.5547,865.74,419.5547,871.74,415.5547" style="stroke:#10BB10;stroke-width:1.0;"/></g><!--reverse link Car to Doors--><g id="link_Car_Doors"><path codeLine="67" d="M858.76,403.5547 C858.76,403.5547 688.3,403.5547 688.3,403.5547 C688.3,403.5547 688.3,455.4747 688.3,487.3147 " fill="none" id="Car-backto-Doors" style="stroke:#10BB10;stroke-width:1.0;"/><polygon fill="#10BB10" points="871.76,403.5547,865.76,399.5547,859.76,403.5547,865.76,407.5547,871.76,403.5547" style="stroke:#10BB10;stroke-width:1.0;"/></g><!--link Car to Doors--><g id="link_Car_Doors"><path codeLine="68" d="M872.67,391.5547 C811.74,391.5547 673.7,391.5547 673.7,391.5547 C673.7,391.5547 673.7,481.2747 673.7,481.2747 " fill="none" id="Car-to-Doors" style="stroke:#6060BB;stroke-width:1.0;stroke-dasharray:7.0,7.0;"/><polygon fill="#6060BB" points="673.7,486.2747,677.7,477.2747,673.7,481.2747,669.7,477.2747,673.7,486.2747" style="stroke:#6060BB;stroke-width:1.0;"/><text fill="#000000" font-family="sans-serif" font-size="13" lengthAdjust="spacing" textLength="29" x="698.33" y="388.123">uses</text></g><!--reverse link Vehicle to DBCar--><g id="link_Vehicle_DBCar"><path codeLine="69" d="M995,234.0047 C995,234.0047 995,385.5547 995,385.5547 C995,385.5547 1057.62,385.5547 1099.69,385.5547 " fill="none" id="Vehicle-backto-DBCar" style="stroke:#10BB10;stroke-width:1.0;"/><polygon fill="#10BB10" points="995,221.0047,991,227.0047,995,233.0047,999,227.0047,995,221.0047" style="stroke:#10BB10;stroke-width:1.0;"/></g><!--SRC=[xLTDRzf04BtxLuoIGoHBTaaFEQ2G0w5HJr6bIAqgGD767iCgwrrhTybNc__UyGSsaO2iAIQgL8GGu9dttipE6x2vvp9ZcgKWk4Jxd24eRUVAizmAX7F3Nx3_kNVnvOcbcK0J3j5Qr2CqV2R3qV2IQV1zm-aYJpZ6lWzCnlJLJAj5XZ5ag46o54t68lJzyqyvueKdbKKu-gaM6fX6oc7Y-ONBMNyYzqKraHCv65nnGI23mKGI6KHCGYHuT0_8xPpYwQN9CJ2HIbC0CwRy5XBwd1GG92wFJWjIUiFrHCPSOsGXnWnbZ3BYfBgalK6HNr4vIKxkm_QoOhICY_UBelu0m7Yy1Is8EPlHYGPBpA322WWhgB52yp2RJdDbLmiXe4fgrU6bc8G0QjOc_JtUhoh59GId_Zs5SvkAwVG8c84hePYbdb_Je7XrSjt5bHQqP8PVQ-3Uj75JUziJGJLBsyxUxImTAO-VKGZrM52_UYUNAYLpqy4Tgc9u95i1rMo1392Y90iaK6Y1Iw5CRY96qvPfVE1gOMxDukwsHhaLd18RhTTA8jnXn1O6SnTMUy9m0_HCkEHcZd6uWjtahfRXlQuDMPPCb__L0Nk7AAGHgYvidBCcP9VvtZxX3NQuRTJVXhMLKUbuRQFcEyvvvDIKPUZEgfnDsF5XRRBcHvYpAME3DV-xzm3kTQVFttvZsXf72nUnkwsJDWkbe0b7cZ-WRgEiIjdHqijLqrxf3R9sBImp3gvpf9HkfxF8EBZE7tD4qKvecV8NIdTPvuUnp-O5_q4hlYXZm_RUyoy0dD1TYjC3EelD9URpgr7GdOkI1l39QXPPcfL4gxHHtgVOjNFWRRjH2CV7Pxsptd0u3I_QhqVe0vsYWVrIT0IxkYwxP2WNNPSCrOggAVOm92iydlCVtVFVmVYOjjOqS1BlEHs-JvYdr9BJdYFicvvqob7EJgSKbR6wvIW6r8sYIm-icIY7Yahdx7dcQ-LUwwDobznsqBf0BW-c2-JAWCxGVm00]--></g></svg>