<?xml version="1.0" encoding="us-ascii" standalone="no"?><svg xmlns="http://www.w3.org/2000/svg" xmlns:xlink="http://www.w3.org/1999/xlink" contentStyleType="text/css" height="565px" preserveAspectRatio="none" style="width:911px;height:565px;background:#FFFFFF;" version="1.1" viewBox="0 0 911 565" width="911px" zoomAndPan="magnify"><defs/><g><text fill="#000000" font-family="sans-serif" font-size="20" font-weight="bold" lengthAdjust="spacing" textLength="494" x="142.5" y="29.3359">Examples.BadDesign.BasicExample.SideExample</text><text fill="#000000" font-family="sans-serif" font-size="20" font-weight="bold" lengthAdjust="spacing" textLength="104" x="643.5" y="29.3359">simplified</text><text fill="#000000" font-family="sans-serif" font-size="20" font-weight="bold" lengthAdjust="spacing" textLength="7" x="747.5" y="29.3359">&#160;</text><!--cluster Examples--><g id="cluster_Examples"><path d="M508.5,50.5547 L577.5,50.5547 A3.75,3.75 0 0 1 580,53.0547 L587,73.043 L901.5,73.043 A2.5,2.5 0 0 1 904,75.543 L904,556.0547 A2.5,2.5 0 0 1 901.5,558.5547 L508.5,558.5547 A2.5,2.5 0 0 1 506,556.0547 L506,53.0547 A2.5,2.5 0 0 1 508.5,50.5547 " fill="none" style="stroke:#000000;stroke-width:1.5;"/><line style="stroke:#000000;stroke-width:1.5;" x1="506" x2="587" y1="73.043" y2="73.043"/><text fill="#000000" font-family="sans-serif" font-size="14" font-weight="bold" lengthAdjust="spacing" textLength="68" x="510" y="66.0898">Examples</text></g><!--cluster BadDesign--><g id="cluster_BadDesign"><path d="M532.5,93.5547 L609.5,93.5547 A3.75,3.75 0 0 1 612,96.0547 L619,116.043 L877.5,116.043 A2.5,2.5 0 0 1 880,118.543 L880,532.0547 A2.5,2.5 0 0 1 877.5,534.5547 L532.5,534.5547 A2.5,2.5 0 0 1 530,532.0547 L530,96.0547 A2.5,2.5 0 0 1 532.5,93.5547 " fill="none" style="stroke:#000000;stroke-width:1.5;"/><line style="stroke:#000000;stroke-width:1.5;" x1="530" x2="619" y1="116.043" y2="116.043"/><text fill="#000000" font-family="sans-serif" font-size="14" font-weight="bold" lengthAdjust="spacing" textLength="76" x="534" y="109.0898">BadDesign</text></g><!--cluster BasicExample--><g id="cluster_BasicExample"><path d="M556.5,136.5547 L654.5,136.5547 A3.75,3.75 0 0 1 657,139.0547 L664,159.043 L853.5,159.043 A2.5,2.5 0 0 1 856,161.543 L856,508.0547 A2.5,2.5 0 0 1 853.5,510.5547 L556.5,510.5547 A2.5,2.5 0 0 1 554,508.0547 L554,139.0547 A2.5,2.5 0 0 1 556.5,136.5547 " fill="none" style="stroke:#000000;stroke-width:1.5;"/><line style="stroke:#000000;stroke-width:1.5;" x1="554" x2="664" y1="159.043" y2="159.043"/><text fill="#000000" font-family="sans-serif" font-size="14" font-weight="bold" lengthAdjust="spacing" textLength="97" x="558" y="152.0898">BasicExample</text></g><!--cluster SideExample--><g id="cluster_SideExample"><path d="M672.5,179.5547 L763.5,179.5547 A3.75,3.75 0 0 1 766,182.0547 L773,202.043 L829.5,202.043 A2.5,2.5 0 0 1 832,204.543 L832,484.0547 A2.5,2.5 0 0 1 829.5,486.5547 L672.5,486.5547 A2.5,2.5 0 0 1 670,484.0547 L670,182.0547 A2.5,2.5 0 0 1 672.5,179.5547 " fill="none" style="stroke:#000000;stroke-width:1.5;"/><line style="stroke:#000000;stroke-width:1.5;" x1="670" x2="773" y1="202.043" y2="202.043"/><text fill="#000000" font-family="sans-serif" font-size="14" font-weight="bold" lengthAdjust="spacing" textLength="90" x="674" y="195.0898">SideExample</text></g><!--class Useless--><a href="Examples.BadDesign.BasicExample.Useless-diagram-simplified.svg" target="_top" title="Examples.BadDesign.BasicExample.Useless-diagram-simplified.svg" xlink:actuate="onRequest" xlink:href="Examples.BadDesign.BasicExample.Useless-diagram-simplified.svg" xlink:show="new" xlink:title="Examples.BadDesign.BasicExample.Useless-diagram-simplified.svg" xlink:type="simple"><g id="elem_Useless"><rect codeLine="4" fill="#F1F1F1" height="48" id="Useless" rx="2.5" ry="2.5" style="stroke:#181818;stroke-width:0.5;" width="83" x="570.5" y="214.5547"/><ellipse cx="585.5" cy="230.5547" fill="#ADD1B2" rx="11" ry="11" style="stroke:#181818;stroke-width:1.0;"/><path d="M587.9731,236.6978 Q587.3921,236.9966 586.7529,237.146 Q586.1138,237.2954 585.4082,237.2954 Q582.9014,237.2954 581.5815,235.6436 Q580.2617,233.9917 580.2617,230.8706 Q580.2617,227.7412 581.5815,226.0894 Q582.9014,224.4375 585.4082,224.4375 Q586.1138,224.4375 586.7612,224.5869 Q587.4087,224.7363 587.9731,225.0352 L587.9731,227.7578 Q587.3423,227.1768 586.7488,226.907 Q586.1553,226.6372 585.5244,226.6372 Q584.1797,226.6372 583.4949,227.7039 Q582.8101,228.7705 582.8101,230.8706 Q582.8101,232.9624 583.4949,234.0291 Q584.1797,235.0957 585.5244,235.0957 Q586.1553,235.0957 586.7488,234.8259 Q587.3423,234.5562 587.9731,233.9751 Z " fill="#000000"/><text fill="#000000" font-family="sans-serif" font-size="14" lengthAdjust="spacing" textLength="51" x="599.5" y="235.8457">Useless</text><line style="stroke:#181818;stroke-width:0.5;" x1="571.5" x2="652.5" y1="246.5547" y2="246.5547"/><line style="stroke:#181818;stroke-width:0.5;" x1="571.5" x2="652.5" y1="254.5547" y2="254.5547"/></g></a><!--class SideExample--><a href="Examples.BadDesign.BasicExample.SideExample.SideExample-diagram-simplified.svg" target="_top" title="Examples.BadDesign.BasicExample.SideExample.SideExample-diagram-simplified.svg" xlink:actuate="onRequest" xlink:href="Examples.BadDesign.BasicExample.SideExample.SideExample-diagram-simplified.svg" xlink:show="new" xlink:title="Examples.BadDesign.BasicExample.SideExample.SideExample-diagram-simplified.svg" xlink:type="simple"><g id="elem_SideExample"><rect codeLine="6" fill="#FFFF00" height="48" id="SideExample" rx="2.5" ry="2.5" style="stroke:#181818;stroke-width:0.5;" width="120" x="691" y="214.5547"/><ellipse cx="706" cy="230.5547" fill="#ADD1B2" rx="11" ry="11" style="stroke:#181818;stroke-width:1.0;"/><path d="M708.4731,236.6978 Q707.8921,236.9966 707.2529,237.146 Q706.6138,237.2954 705.9082,237.2954 Q703.4014,237.2954 702.0815,235.6436 Q700.7617,233.9917 700.7617,230.8706 Q700.7617,227.7412 702.0815,226.0894 Q703.4014,224.4375 705.9082,224.4375 Q706.6138,224.4375 707.2612,224.5869 Q707.9087,224.7363 708.4731,225.0352 L708.4731,227.7578 Q707.8423,227.1768 707.2488,226.907 Q706.6553,226.6372 706.0244,226.6372 Q704.6797,226.6372 703.9949,227.7039 Q703.3101,228.7705 703.3101,230.8706 Q703.3101,232.9624 703.9949,234.0291 Q704.6797,235.0957 706.0244,235.0957 Q706.6553,235.0957 707.2488,234.8259 Q707.8423,234.5562 708.4731,233.9751 Z " fill="#000000"/><text fill="#000000" font-family="sans-serif" font-size="14" lengthAdjust="spacing" textLength="88" x="720" y="235.8457">SideExample</text><line style="stroke:#181818;stroke-width:0.5;" x1="692" x2="810" y1="246.5547" y2="246.5547"/><line style="stroke:#181818;stroke-width:0.5;" x1="692" x2="810" y1="254.5547" y2="254.5547"/></g></a><!--class SideTestEnum--><a href="Examples.BadDesign.BasicExample.SideExample.SideTestEnum-diagram-simplified.svg" target="_top" title="Examples.BadDesign.BasicExample.SideExample.SideTestEnum-diagram-simplified.svg" xlink:actuate="onRequest" xlink:href="Examples.BadDesign.BasicExample.SideExample.SideTestEnum-diagram-simplified.svg" xlink:show="new" xlink:title="Examples.BadDesign.BasicExample.SideExample.SideTestEnum-diagram-simplified.svg" xlink:type="simple"><g id="elem_SideTestEnum"><rect codeLine="8" fill="#FFFF00" height="48" id="SideTestEnum" rx="2.5" ry="2.5" style="stroke:#181818;stroke-width:0.5;" width="129" x="686.5" y="422.5547"/><ellipse cx="701.5" cy="438.5547" fill="#ADD1B2" rx="11" ry="11" style="stroke:#181818;stroke-width:1.0;"/><path d="M703.9731,444.6978 Q703.3921,444.9966 702.7529,445.146 Q702.1138,445.2954 701.4082,445.2954 Q698.9014,445.2954 697.5815,443.6436 Q696.2617,441.9917 696.2617,438.8706 Q696.2617,435.7412 697.5815,434.0894 Q698.9014,432.4375 701.4082,432.4375 Q702.1138,432.4375 702.7612,432.5869 Q703.4087,432.7363 703.9731,433.0352 L703.9731,435.7578 Q703.3423,435.1768 702.7488,434.907 Q702.1553,434.6372 701.5244,434.6372 Q700.1797,434.6372 699.4949,435.7039 Q698.8101,436.7705 698.8101,438.8706 Q698.8101,440.9624 699.4949,442.0291 Q700.1797,443.0957 701.5244,443.0957 Q702.1553,443.0957 702.7488,442.8259 Q703.3423,442.5562 703.9731,441.9751 Z " fill="#000000"/><text fill="#000000" font-family="sans-serif" font-size="14" lengthAdjust="spacing" textLength="97" x="715.5" y="443.8457">SideTestEnum</text><line style="stroke:#181818;stroke-width:0.5;" x1="687.5" x2="814.5" y1="454.5547" y2="454.5547"/><line style="stroke:#181818;stroke-width:0.5;" x1="687.5" x2="814.5" y1="462.5547" y2="462.5547"/></g></a><g id="elem_FloatingNote"><path d="M6,114.5547 L6,362.2129 L490,362.2129 L490,124.5547 L480,114.5547 L6,114.5547 " fill="#FEFFDD" style="stroke:#181818;stroke-width:0.5;"/><path d="M480,114.5547 L480,124.5547 L490,124.5547 L480,114.5547 " fill="#FEFFDD" style="stroke:#181818;stroke-width:1.0;"/><text fill="#000000" font-family="sans-serif" font-size="13" lengthAdjust="spacing" textLength="120" x="12" y="132.123">Your are analyzing:</text><text fill="#000000" font-family="sans-serif" font-size="13" lengthAdjust="spacing" textLength="302" x="12" y="147.4336">Examples.BadDesign.BasicExample.SideExample</text><text fill="#000000" font-family="sans-serif" font-size="13" font-weight="bold" lengthAdjust="spacing" textLength="67" x="318" y="147.4336">simplified</text><text fill="#000000" font-family="sans-serif" font-size="13" lengthAdjust="spacing" textLength="4" x="385" y="147.4336">&#160;</text><text fill="#000000" font-family="sans-serif" font-size="13" lengthAdjust="spacing" textLength="4" x="12" y="162.7441">&#160;</text><text fill="#000000" font-family="sans-serif" font-size="13" lengthAdjust="spacing" textLength="229" x="12" y="193.3652">You can click either the namespaces</text><text fill="#000000" font-family="sans-serif" font-size="13" lengthAdjust="spacing" textLength="266" x="12" y="208.6758">or class names for filtering them and their</text><text fill="#000000" font-family="sans-serif" font-size="13" lengthAdjust="spacing" textLength="130" x="12" y="223.9863">direct dependencies.</text><text fill="#000000" font-family="sans-serif" font-size="13" lengthAdjust="spacing" textLength="4" x="12" y="239.2969">&#160;</text><line style="stroke:#181818;stroke-width:1.0;" x1="7" x2="232" y1="173.1416" y2="173.1416"/><line style="stroke:#181818;stroke-width:1.0;" x1="7" x2="232" y1="175.1416" y2="175.1416"/><text fill="#000000" font-family="sans-serif" font-size="13" lengthAdjust="spacing" textLength="32" x="232" y="177.5547">Filter</text><line style="stroke:#181818;stroke-width:1.0;" x1="264" x2="489" y1="173.1416" y2="173.1416"/><line style="stroke:#181818;stroke-width:1.0;" x1="264" x2="489" y1="175.1416" y2="175.1416"/><ellipse cx="17.5" cy="269.1602" fill="#000000" rx="2.5" ry="2.5" style="stroke:#000000;stroke-width:0.0;"/><text fill="#000000" font-family="sans-serif" font-size="13" lengthAdjust="spacing" textLength="302" x="24" y="273.918">Examples.BadDesign.BasicExample.SideExample</text><text fill="#000000" font-family="sans-serif" font-size="13" font-weight="bold" lengthAdjust="spacing" textLength="55" x="330" y="273.918">detailed</text><text fill="#000000" font-family="sans-serif" font-size="13" lengthAdjust="spacing" textLength="4" x="389" y="273.918">:</text><text fill="#000000" font-family="sans-serif" font-size="13" lengthAdjust="spacing" textLength="12" x="12" y="289.2285">&#160;&#160;&#160;</text><a href="Examples.BadDesign.BasicExample.SideExample-diagram-detailed.svg" target="_top" title="Examples.BadDesign.BasicExample.SideExample-diagram-detailed.svg" xlink:actuate="onRequest" xlink:href="Examples.BadDesign.BasicExample.SideExample-diagram-detailed.svg" xlink:show="new" xlink:title="Examples.BadDesign.BasicExample.SideExample-diagram-detailed.svg" xlink:type="simple"><text fill="#0000FF" font-family="sans-serif" font-size="13" lengthAdjust="spacing" text-decoration="underline" textLength="445" x="24" y="289.2285">Examples.BadDesign.BasicExample.SideExample-diagram-detailed.svg</text></a><ellipse cx="17.5" cy="299.7813" fill="#000000" rx="2.5" ry="2.5" style="stroke:#000000;stroke-width:0.0;"/><text fill="#000000" font-family="sans-serif" font-size="13" lengthAdjust="spacing" textLength="78" x="24" y="304.5391">Full diagram</text><text fill="#000000" font-family="sans-serif" font-size="13" font-weight="bold" lengthAdjust="spacing" textLength="67" x="106" y="304.5391">simplified</text><text fill="#000000" font-family="sans-serif" font-size="13" lengthAdjust="spacing" textLength="23" x="177" y="304.5391">and</text><text fill="#000000" font-family="sans-serif" font-size="13" font-weight="bold" lengthAdjust="spacing" textLength="166" x="204" y="304.5391">grouped per namespace</text><text fill="#000000" font-family="sans-serif" font-size="13" lengthAdjust="spacing" textLength="4" x="370" y="304.5391">:</text><text fill="#000000" font-family="sans-serif" font-size="13" lengthAdjust="spacing" textLength="12" x="12" y="319.8496">&#160;&#160;&#160;</text><a href="full-diagram-simplified-grouped-per-namespace.svg" target="_top" title="full-diagram-simplified-grouped-per-namespace.svg" xlink:actuate="onRequest" xlink:href="full-diagram-simplified-grouped-per-namespace.svg" xlink:show="new" xlink:title="full-diagram-simplified-grouped-per-namespace.svg" xlink:type="simple"><text fill="#0000FF" font-family="sans-serif" font-size="13" lengthAdjust="spacing" text-decoration="underline" textLength="343" x="24" y="319.8496">full-diagram-simplified-grouped-per-namespace.svg</text></a><ellipse cx="17.5" cy="330.4023" fill="#000000" rx="2.5" ry="2.5" style="stroke:#000000;stroke-width:0.0;"/><text fill="#000000" font-family="sans-serif" font-size="13" lengthAdjust="spacing" textLength="41" x="24" y="335.1602">Home:</text><text fill="#000000" font-family="sans-serif" font-size="13" lengthAdjust="spacing" textLength="12" x="12" y="350.4707">&#160;&#160;&#160;</text><a href="index.html" target="_top" title="index.html" xlink:actuate="onRequest" xlink:href="index.html" xlink:show="new" xlink:title="index.html" xlink:type="simple"><text fill="#0000FF" font-family="sans-serif" font-size="13" lengthAdjust="spacing" text-decoration="underline" textLength="68" x="24" y="350.4707">index.html</text></a><line style="stroke:#181818;stroke-width:1.0;" x1="7" x2="211" y1="253.6943" y2="253.6943"/><line style="stroke:#181818;stroke-width:1.0;" x1="7" x2="211" y1="255.6943" y2="255.6943"/><text fill="#000000" font-family="sans-serif" font-size="13" lengthAdjust="spacing" textLength="74" x="211" y="258.1074">Select other</text><line style="stroke:#181818;stroke-width:1.0;" x1="285" x2="489" y1="253.6943" y2="253.6943"/><line style="stroke:#181818;stroke-width:1.0;" x1="285" x2="489" y1="255.6943" y2="255.6943"/></g><!--link Useless to SideTestEnum--><g id="link_Useless_SideTestEnum"><path codeLine="15" d="M612,262.8247 C612,317.6947 612,446.5547 612,446.5547 C612,446.5547 680.38,446.5547 680.38,446.5547 " fill="none" id="Useless-to-SideTestEnum" style="stroke:#909090;stroke-width:1.0;"/><polygon fill="#909090" points="685.38,446.5547,676.38,442.5547,680.38,446.5547,676.38,450.5547,685.38,446.5547" style="stroke:#909090;stroke-width:1.0;"/><text fill="#000000" font-family="sans-serif" font-size="13" lengthAdjust="spacing" textLength="29" x="582" y="385.453">uses</text></g><!--link SideExample to SideTestEnum--><g id="link_SideExample_SideTestEnum"><path codeLine="18" d="M751,262.8247 C751,262.8247 751,416.1247 751,416.1247 " fill="none" id="SideExample-to-SideTestEnum" style="stroke:#6060BB;stroke-width:1.0;stroke-dasharray:7.0,7.0;"/><polygon fill="#6060BB" points="751,421.1247,755,412.1247,751,416.1247,747,412.1247,751,421.1247" style="stroke:#6060BB;stroke-width:1.0;"/><text fill="#000000" font-family="sans-serif" font-size="13" lengthAdjust="spacing" textLength="29" x="721" y="336.043">uses</text></g><!--SRC=[jLHDRzim3BtxLn3DeO00Uy4E1HOqEMHhiDCktGv3x8DWqGvHMJ8aUKiwxB-FSfoatGhaevqD2B94FZu-FjW_a6cbamreCXWsBO9rOMMJG44Zt7fwnCdxyUnkBPjMey_cKdr2JxNXdQToEC_kIU6m1o4yyOOgGYK4tBwB8BF4s81mzTrs3gH3a4RgpIEPUfARLw3d9ZVJwO9qG3UTveRnePG6Iatb0o255JhW1OniqBUoHCyvrd60z7vx2XL_Lpq4yudH3TDJSKCkDueSbW4KjcWKcfAOwBRiFUfuOsEHM5p0UPqe399qtmUh003BvHa0gI9Py-ZI7KpcVzH54MaiEgrXkFvRiTYP4BMpNOiAMfPdBuqGEneL0-pn3-dfa9PoMhfFEzJzR1lSGH2BjSvMeT55SGNImq9R6LZWBso4X4E64Hph-9jdbJdkk3P3v0kyjmm1VlLrV_VhgVMVAFviV6VDwiMv_SDlj46jxS-1vck9VaKVxapNNC1qbteMrMksrKaF_BVOQ_ZOI-LGizMiyO3hu6GPsEcLiyt1wXEEFQ9ASgepq-NempY-HJgxV4emWSxpp-XjctXQBxdKwjboT3E-6S_dHVO63Vu1]--></g></svg>