<?xml version="1.0" encoding="us-ascii" standalone="no"?><svg xmlns="http://www.w3.org/2000/svg" xmlns:xlink="http://www.w3.org/1999/xlink" contentStyleType="text/css" height="589px" preserveAspectRatio="none" style="width:982px;height:589px;background:#FFFFFF;" version="1.1" viewBox="0 0 982 589" width="982px" zoomAndPan="magnify"><defs/><g><text fill="#000000" font-family="sans-serif" font-size="20" font-weight="bold" lengthAdjust="spacing" textLength="640" x="105.25" y="29.3359">Examples.BetterDesign.Repository.CarExample.CarParts.Doors</text><text fill="#000000" font-family="sans-serif" font-size="20" font-weight="bold" lengthAdjust="spacing" textLength="104" x="752.25" y="29.3359">simplified</text><text fill="#000000" font-family="sans-serif" font-size="20" font-weight="bold" lengthAdjust="spacing" textLength="7" x="856.25" y="29.3359">&#160;</text><!--cluster Examples--><g id="cluster_Examples"><path d="M598,50.5547 L667,50.5547 A3.75,3.75 0 0 1 669.5,53.0547 L676.5,73.043 L973,73.043 A2.5,2.5 0 0 1 975.5,75.543 L975.5,580.0547 A2.5,2.5 0 0 1 973,582.5547 L598,582.5547 A2.5,2.5 0 0 1 595.5,580.0547 L595.5,53.0547 A2.5,2.5 0 0 1 598,50.5547 " fill="none" style="stroke:#000000;stroke-width:1.5;"/><line style="stroke:#000000;stroke-width:1.5;" x1="595.5" x2="676.5" y1="73.043" y2="73.043"/><text fill="#000000" font-family="sans-serif" font-size="14" font-weight="bold" lengthAdjust="spacing" textLength="68" x="599.5" y="66.0898">Examples</text></g><!--cluster BetterDesign--><g id="cluster_BetterDesign"><path d="M622,93.5547 L716,93.5547 A3.75,3.75 0 0 1 718.5,96.0547 L725.5,116.043 L949,116.043 A2.5,2.5 0 0 1 951.5,118.543 L951.5,556.0547 A2.5,2.5 0 0 1 949,558.5547 L622,558.5547 A2.5,2.5 0 0 1 619.5,556.0547 L619.5,96.0547 A2.5,2.5 0 0 1 622,93.5547 " fill="none" style="stroke:#000000;stroke-width:1.5;"/><line style="stroke:#000000;stroke-width:1.5;" x1="619.5" x2="725.5" y1="116.043" y2="116.043"/><text fill="#000000" font-family="sans-serif" font-size="14" font-weight="bold" lengthAdjust="spacing" textLength="93" x="623.5" y="109.0898">BetterDesign</text></g><!--cluster Repository--><g id="cluster_Repository"><path d="M646,136.5547 L725,136.5547 A3.75,3.75 0 0 1 727.5,139.0547 L734.5,159.043 L925,159.043 A2.5,2.5 0 0 1 927.5,161.543 L927.5,532.0547 A2.5,2.5 0 0 1 925,534.5547 L646,534.5547 A2.5,2.5 0 0 1 643.5,532.0547 L643.5,139.0547 A2.5,2.5 0 0 1 646,136.5547 " fill="none" style="stroke:#000000;stroke-width:1.5;"/><line style="stroke:#000000;stroke-width:1.5;" x1="643.5" x2="734.5" y1="159.043" y2="159.043"/><text fill="#000000" font-family="sans-serif" font-size="14" font-weight="bold" lengthAdjust="spacing" textLength="78" x="647.5" y="152.0898">Repository</text></g><!--cluster CarExample--><g id="cluster_CarExample"><path d="M752,179.5547 L837,179.5547 A3.75,3.75 0 0 1 839.5,182.0547 L846.5,202.043 L901,202.043 A2.5,2.5 0 0 1 903.5,204.543 L903.5,508.0547 A2.5,2.5 0 0 1 901,510.5547 L752,510.5547 A2.5,2.5 0 0 1 749.5,508.0547 L749.5,182.0547 A2.5,2.5 0 0 1 752,179.5547 " fill="none" style="stroke:#000000;stroke-width:1.5;"/><line style="stroke:#000000;stroke-width:1.5;" x1="749.5" x2="846.5" y1="202.043" y2="202.043"/><text fill="#000000" font-family="sans-serif" font-size="14" font-weight="bold" lengthAdjust="spacing" textLength="84" x="753.5" y="195.0898">CarExample</text></g><!--cluster CarParts--><g id="cluster_CarParts"><path d="M776,387.5547 L838,387.5547 A3.75,3.75 0 0 1 840.5,390.0547 L847.5,410.043 L877,410.043 A2.5,2.5 0 0 1 879.5,412.543 L879.5,484.0547 A2.5,2.5 0 0 1 877,486.5547 L776,486.5547 A2.5,2.5 0 0 1 773.5,484.0547 L773.5,390.0547 A2.5,2.5 0 0 1 776,387.5547 " fill="none" style="stroke:#000000;stroke-width:1.5;"/><line style="stroke:#000000;stroke-width:1.5;" x1="773.5" x2="847.5" y1="410.043" y2="410.043"/><text fill="#000000" font-family="sans-serif" font-size="14" font-weight="bold" lengthAdjust="spacing" textLength="61" x="777.5" y="403.0898">CarParts</text></g><!--class DBCar--><a href="Examples.BetterDesign.Repository.DBCar-diagram-simplified.svg" target="_top" title="Examples.BetterDesign.Repository.DBCar-diagram-simplified.svg" xlink:actuate="onRequest" xlink:href="Examples.BetterDesign.Repository.DBCar-diagram-simplified.svg" xlink:show="new" xlink:title="Examples.BetterDesign.Repository.DBCar-diagram-simplified.svg" xlink:type="simple"><g id="elem_DBCar"><rect codeLine="4" fill="#F1F1F1" height="48" id="DBCar" rx="2.5" ry="2.5" style="stroke:#181818;stroke-width:0.5;" width="74" x="659.5" y="214.5547"/><ellipse cx="674.5" cy="230.5547" fill="#ADD1B2" rx="11" ry="11" style="stroke:#181818;stroke-width:1.0;"/><path d="M676.9731,236.6978 Q676.3921,236.9966 675.7529,237.146 Q675.1138,237.2954 674.4082,237.2954 Q671.9014,237.2954 670.5815,235.6436 Q669.2617,233.9917 669.2617,230.8706 Q669.2617,227.7412 670.5815,226.0894 Q671.9014,224.4375 674.4082,224.4375 Q675.1138,224.4375 675.7612,224.5869 Q676.4087,224.7363 676.9731,225.0352 L676.9731,227.7578 Q676.3423,227.1768 675.7488,226.907 Q675.1553,226.6372 674.5244,226.6372 Q673.1797,226.6372 672.4949,227.7039 Q671.8101,228.7705 671.8101,230.8706 Q671.8101,232.9624 672.4949,234.0291 Q673.1797,235.0957 674.5244,235.0957 Q675.1553,235.0957 675.7488,234.8259 Q676.3423,234.5562 676.9731,233.9751 Z " fill="#000000"/><text fill="#000000" font-family="sans-serif" font-size="14" lengthAdjust="spacing" textLength="42" x="688.5" y="235.8457">DBCar</text><line style="stroke:#181818;stroke-width:0.5;" x1="660.5" x2="732.5" y1="246.5547" y2="246.5547"/><line style="stroke:#181818;stroke-width:0.5;" x1="660.5" x2="732.5" y1="254.5547" y2="254.5547"/></g></a><!--class Car--><a href="Examples.BetterDesign.Repository.CarExample.Car-diagram-simplified.svg" target="_top" title="Examples.BetterDesign.Repository.CarExample.Car-diagram-simplified.svg" xlink:actuate="onRequest" xlink:href="Examples.BetterDesign.Repository.CarExample.Car-diagram-simplified.svg" xlink:show="new" xlink:title="Examples.BetterDesign.Repository.CarExample.Car-diagram-simplified.svg" xlink:type="simple"><g id="elem_Car"><rect codeLine="6" fill="#F1F1F1" height="48" id="Car" rx="2.5" ry="2.5" style="stroke:#181818;stroke-width:0.5;" width="56" x="798.5" y="214.5547"/><ellipse cx="813.5" cy="230.5547" fill="#ADD1B2" rx="11" ry="11" style="stroke:#181818;stroke-width:1.0;"/><path d="M815.9731,236.6978 Q815.3921,236.9966 814.7529,237.146 Q814.1138,237.2954 813.4082,237.2954 Q810.9014,237.2954 809.5815,235.6436 Q808.2617,233.9917 808.2617,230.8706 Q808.2617,227.7412 809.5815,226.0894 Q810.9014,224.4375 813.4082,224.4375 Q814.1138,224.4375 814.7612,224.5869 Q815.4087,224.7363 815.9731,225.0352 L815.9731,227.7578 Q815.3423,227.1768 814.7488,226.907 Q814.1553,226.6372 813.5244,226.6372 Q812.1797,226.6372 811.4949,227.7039 Q810.8101,228.7705 810.8101,230.8706 Q810.8101,232.9624 811.4949,234.0291 Q812.1797,235.0957 813.5244,235.0957 Q814.1553,235.0957 814.7488,234.8259 Q815.3423,234.5562 815.9731,233.9751 Z " fill="#000000"/><text fill="#000000" font-family="sans-serif" font-size="14" lengthAdjust="spacing" textLength="24" x="827.5" y="235.8457">Car</text><line style="stroke:#181818;stroke-width:0.5;" x1="799.5" x2="853.5" y1="246.5547" y2="246.5547"/><line style="stroke:#181818;stroke-width:0.5;" x1="799.5" x2="853.5" y1="254.5547" y2="254.5547"/></g></a><!--class Doors--><a href="Examples.BetterDesign.Repository.CarExample.CarParts.Doors-diagram-simplified.svg" target="_top" title="Examples.BetterDesign.Repository.CarExample.CarParts.Doors-diagram-simplified.svg" xlink:actuate="onRequest" xlink:href="Examples.BetterDesign.Repository.CarExample.CarParts.Doors-diagram-simplified.svg" xlink:show="new" xlink:title="Examples.BetterDesign.Repository.CarExample.CarParts.Doors-diagram-simplified.svg" xlink:type="simple"><g id="elem_Doors"><rect codeLine="8" fill="#FFFF00" height="48" id="Doors" rx="2.5" ry="2.5" style="stroke:#181818;stroke-width:0.5;" width="73" x="790" y="422.5547"/><ellipse cx="805" cy="438.5547" fill="#ADD1B2" rx="11" ry="11" style="stroke:#181818;stroke-width:1.0;"/><path d="M807.4731,444.6978 Q806.8921,444.9966 806.2529,445.146 Q805.6138,445.2954 804.9082,445.2954 Q802.4014,445.2954 801.0815,443.6436 Q799.7617,441.9917 799.7617,438.8706 Q799.7617,435.7412 801.0815,434.0894 Q802.4014,432.4375 804.9082,432.4375 Q805.6138,432.4375 806.2612,432.5869 Q806.9087,432.7363 807.4731,433.0352 L807.4731,435.7578 Q806.8423,435.1768 806.2488,434.907 Q805.6553,434.6372 805.0244,434.6372 Q803.6797,434.6372 802.9949,435.7039 Q802.3101,436.7705 802.3101,438.8706 Q802.3101,440.9624 802.9949,442.0291 Q803.6797,443.0957 805.0244,443.0957 Q805.6553,443.0957 806.2488,442.8259 Q806.8423,442.5562 807.4731,441.9751 Z " fill="#000000"/><text fill="#000000" font-family="sans-serif" font-size="14" lengthAdjust="spacing" textLength="41" x="819" y="443.8457">Doors</text><line style="stroke:#181818;stroke-width:0.5;" x1="791" x2="862" y1="454.5547" y2="454.5547"/><line style="stroke:#181818;stroke-width:0.5;" x1="791" x2="862" y1="462.5547" y2="462.5547"/></g></a><g id="elem_FloatingNote"><path d="M6,114.5547 L6,362.2129 L579,362.2129 L579,124.5547 L569,114.5547 L6,114.5547 " fill="#FEFFDD" style="stroke:#181818;stroke-width:0.5;"/><path d="M569,114.5547 L569,124.5547 L579,124.5547 L569,114.5547 " fill="#FEFFDD" style="stroke:#181818;stroke-width:1.0;"/><text fill="#000000" font-family="sans-serif" font-size="13" lengthAdjust="spacing" textLength="120" x="12" y="132.123">Your are analyzing:</text><text fill="#000000" font-family="sans-serif" font-size="13" lengthAdjust="spacing" textLength="391" x="12" y="147.4336">Examples.BetterDesign.Repository.CarExample.CarParts.Doors</text><text fill="#000000" font-family="sans-serif" font-size="13" font-weight="bold" lengthAdjust="spacing" textLength="67" x="407" y="147.4336">simplified</text><text fill="#000000" font-family="sans-serif" font-size="13" lengthAdjust="spacing" textLength="4" x="474" y="147.4336">&#160;</text><text fill="#000000" font-family="sans-serif" font-size="13" lengthAdjust="spacing" textLength="4" x="12" y="162.7441">&#160;</text><text fill="#000000" font-family="sans-serif" font-size="13" lengthAdjust="spacing" textLength="229" x="12" y="193.3652">You can click either the namespaces</text><text fill="#000000" font-family="sans-serif" font-size="13" lengthAdjust="spacing" textLength="266" x="12" y="208.6758">or class names for filtering them and their</text><text fill="#000000" font-family="sans-serif" font-size="13" lengthAdjust="spacing" textLength="130" x="12" y="223.9863">direct dependencies.</text><text fill="#000000" font-family="sans-serif" font-size="13" lengthAdjust="spacing" textLength="4" x="12" y="239.2969">&#160;</text><line style="stroke:#181818;stroke-width:1.0;" x1="7" x2="276.5" y1="173.1416" y2="173.1416"/><line style="stroke:#181818;stroke-width:1.0;" x1="7" x2="276.5" y1="175.1416" y2="175.1416"/><text fill="#000000" font-family="sans-serif" font-size="13" lengthAdjust="spacing" textLength="32" x="276.5" y="177.5547">Filter</text><line style="stroke:#181818;stroke-width:1.0;" x1="308.5" x2="578" y1="173.1416" y2="173.1416"/><line style="stroke:#181818;stroke-width:1.0;" x1="308.5" x2="578" y1="175.1416" y2="175.1416"/><ellipse cx="17.5" cy="269.1602" fill="#000000" rx="2.5" ry="2.5" style="stroke:#000000;stroke-width:0.0;"/><text fill="#000000" font-family="sans-serif" font-size="13" lengthAdjust="spacing" textLength="391" x="24" y="273.918">Examples.BetterDesign.Repository.CarExample.CarParts.Doors</text><text fill="#000000" font-family="sans-serif" font-size="13" font-weight="bold" lengthAdjust="spacing" textLength="55" x="419" y="273.918">detailed</text><text fill="#000000" font-family="sans-serif" font-size="13" lengthAdjust="spacing" textLength="4" x="478" y="273.918">:</text><text fill="#000000" font-family="sans-serif" font-size="13" lengthAdjust="spacing" textLength="12" x="12" y="289.2285">&#160;&#160;&#160;</text><a href="Examples.BetterDesign.Repository.CarExample.CarParts.Doors-diagram-detailed.svg" target="_top" title="Examples.BetterDesign.Repository.CarExample.CarParts.Doors-diagram-detailed.svg" xlink:actuate="onRequest" xlink:href="Examples.BetterDesign.Repository.CarExample.CarParts.Doors-diagram-detailed.svg" xlink:show="new" xlink:title="Examples.BetterDesign.Repository.CarExample.CarParts.Doors-diagram-detailed.svg" xlink:type="simple"><text fill="#0000FF" font-family="sans-serif" font-size="13" lengthAdjust="spacing" text-decoration="underline" textLength="534" x="24" y="289.2285">Examples.BetterDesign.Repository.CarExample.CarParts.Doors-diagram-detailed.svg</text></a><ellipse cx="17.5" cy="299.7813" fill="#000000" rx="2.5" ry="2.5" style="stroke:#000000;stroke-width:0.0;"/><text fill="#000000" font-family="sans-serif" font-size="13" lengthAdjust="spacing" textLength="78" x="24" y="304.5391">Full diagram</text><text fill="#000000" font-family="sans-serif" font-size="13" font-weight="bold" lengthAdjust="spacing" textLength="67" x="106" y="304.5391">simplified</text><text fill="#000000" font-family="sans-serif" font-size="13" lengthAdjust="spacing" textLength="23" x="177" y="304.5391">and</text><text fill="#000000" font-family="sans-serif" font-size="13" font-weight="bold" lengthAdjust="spacing" textLength="166" x="204" y="304.5391">grouped per namespace</text><text fill="#000000" font-family="sans-serif" font-size="13" lengthAdjust="spacing" textLength="4" x="370" y="304.5391">:</text><text fill="#000000" font-family="sans-serif" font-size="13" lengthAdjust="spacing" textLength="12" x="12" y="319.8496">&#160;&#160;&#160;</text><a href="full-diagram-simplified-grouped-per-namespace.svg" target="_top" title="full-diagram-simplified-grouped-per-namespace.svg" xlink:actuate="onRequest" xlink:href="full-diagram-simplified-grouped-per-namespace.svg" xlink:show="new" xlink:title="full-diagram-simplified-grouped-per-namespace.svg" xlink:type="simple"><text fill="#0000FF" font-family="sans-serif" font-size="13" lengthAdjust="spacing" text-decoration="underline" textLength="343" x="24" y="319.8496">full-diagram-simplified-grouped-per-namespace.svg</text></a><ellipse cx="17.5" cy="330.4023" fill="#000000" rx="2.5" ry="2.5" style="stroke:#000000;stroke-width:0.0;"/><text fill="#000000" font-family="sans-serif" font-size="13" lengthAdjust="spacing" textLength="41" x="24" y="335.1602">Home:</text><text fill="#000000" font-family="sans-serif" font-size="13" lengthAdjust="spacing" textLength="12" x="12" y="350.4707">&#160;&#160;&#160;</text><a href="index.html" target="_top" title="index.html" xlink:actuate="onRequest" xlink:href="index.html" xlink:show="new" xlink:title="index.html" xlink:type="simple"><text fill="#0000FF" font-family="sans-serif" font-size="13" lengthAdjust="spacing" text-decoration="underline" textLength="68" x="24" y="350.4707">index.html</text></a><line style="stroke:#181818;stroke-width:1.0;" x1="7" x2="255.5" y1="253.6943" y2="253.6943"/><line style="stroke:#181818;stroke-width:1.0;" x1="7" x2="255.5" y1="255.6943" y2="255.6943"/><text fill="#000000" font-family="sans-serif" font-size="13" lengthAdjust="spacing" textLength="74" x="255.5" y="258.1074">Select other</text><line style="stroke:#181818;stroke-width:1.0;" x1="329.5" x2="578" y1="253.6943" y2="253.6943"/><line style="stroke:#181818;stroke-width:1.0;" x1="329.5" x2="578" y1="255.6943" y2="255.6943"/></g><!--link DBCar to Car--><g id="link_DBCar_Car"><path codeLine="15" d="M733.75,226.5547 C733.75,226.5547 792.34,226.5547 792.34,226.5547 " fill="none" id="DBCar-to-Car" style="stroke:#6060BB;stroke-width:1.0;stroke-dasharray:7.0,7.0;"/><polygon fill="#6060BB" points="797.34,226.5547,788.34,222.5547,792.34,226.5547,788.34,230.5547,797.34,226.5547" style="stroke:#6060BB;stroke-width:1.0;"/><text fill="#000000" font-family="sans-serif" font-size="13" lengthAdjust="spacing" textLength="29" x="764.04" y="223.123">uses</text></g><!--link DBCar to Doors--><g id="link_DBCar_Doors"><path codeLine="16" d="M733.99,238.5547 C762.07,238.5547 795.67,238.5547 795.67,238.5547 C795.67,238.5547 795.67,416.2847 795.67,416.2847 " fill="none" id="DBCar-to-Doors" style="stroke:#6060BB;stroke-width:1.0;stroke-dasharray:7.0,7.0;"/><polygon fill="#6060BB" points="795.67,421.2847,799.67,412.2847,795.67,416.2847,791.67,412.2847,795.67,421.2847" style="stroke:#6060BB;stroke-width:1.0;"/><text fill="#000000" font-family="sans-serif" font-size="13" lengthAdjust="spacing" textLength="29" x="765.67" y="293.153">uses</text></g><!--reverse link Doors to DBCar--><g id="link_Doors_DBCar"><path codeLine="23" d="M792.83,408.1247 C792.83,408.1247 792.83,250.5547 792.83,250.5547 C792.83,250.5547 760.85,250.5547 733.74,250.5547 " fill="none" id="Doors-backto-DBCar" style="stroke:#10BB10;stroke-width:1.0;"/><polygon fill="#10BB10" points="792.83,421.1247,796.83,415.1247,792.83,409.1247,788.83,415.1247,792.83,421.1247" style="stroke:#10BB10;stroke-width:1.0;"/></g><!--reverse link Car to Doors--><g id="link_Car_Doors"><path codeLine="19" d="M817.17,276.8247 C817.17,276.8247 817.17,422.1247 817.17,422.1247 " fill="none" id="Car-backto-Doors" style="stroke:#10BB10;stroke-width:1.0;"/><polygon fill="#10BB10" points="817.17,263.8247,813.17,269.8247,817.17,275.8247,821.17,269.8247,817.17,263.8247" style="stroke:#10BB10;stroke-width:1.0;"/></g><!--link Car to Doors--><g id="link_Car_Doors"><path codeLine="20" d="M835.83,262.8247 C835.83,262.8247 835.83,416.1247 835.83,416.1247 " fill="none" id="Car-to-Doors" style="stroke:#6060BB;stroke-width:1.0;stroke-dasharray:7.0,7.0;"/><polygon fill="#6060BB" points="835.83,421.1247,839.83,412.1247,835.83,416.1247,831.83,412.1247,835.83,421.1247" style="stroke:#6060BB;stroke-width:1.0;"/><text fill="#000000" font-family="sans-serif" font-size="13" lengthAdjust="spacing" textLength="29" x="805.83" y="336.043">uses</text></g><!--SRC=[rLN1Zjem4BtdAqRBOILBITaUze0M3Yn5FLLLUwf83bOo2QDrxCWsBMpLV-yuG63RIf25LceEaHFFlFVc-IbnJwGRQMKDYZJwJODWh5-Qo9DN20-Edd7qTZXvjvPrez0bK_GUxGmTLJhvX8rnv8tT98_Ixch2ygEqtYKpOwm38HpnUoe92o7WuKt0d4JQU8IRBsPbGLe4gQNQF9EkHgc-7bcgKpqUpqanp7YSQgQ3N6h85ULFWEINQ85le6MDhf4vEkunbWkaSzktKF9psKAml51TizeYBCYckY2BkOS26zG5wfnOzvRsCwgmOm9981TmqM05Uacg7Oiz0e35ulLuSK6oucEFzwY9-rfbMH0vNoa5k-rV_Gnp2r5PisgmW8RDwumJOg-gP80E_z0UxzfYRekxjWFlUrFZ7eBOodMozBNAiXkG3kRAIC_sV-3KH5ooEw2J1iocFFSvJhM5Vr2zrGVmlMNzqTxFPdzfV_y3EwddeEYLceuZTfKy_QPqi46bpBTES2lvbbDqrWL_hVOM7bl3B2fEbj4ESEsjp3q7kxIcFYHxnBMdd8dEJ6Ao6DmFxuVJQPPCUkS7Hh1o_47w5sJ7mUXuh-lP4MFKrmeHBmPtFDdTC8il6QqtyV_ZQSSONVBRwUNpDdO_0G00]--></g></svg>