<?xml version="1.0" encoding="us-ascii" standalone="no"?><svg xmlns="http://www.w3.org/2000/svg" xmlns:xlink="http://www.w3.org/1999/xlink" contentStyleType="text/css" height="561px" preserveAspectRatio="none" style="width:1589px;height:561px;background:#FFFFFF;" version="1.1" viewBox="0 0 1589 561" width="1589px" zoomAndPan="magnify"><defs/><g><text fill="#000000" font-family="sans-serif" font-size="20" font-weight="bold" lengthAdjust="spacing" textLength="391" x="386" y="29.3359">Examples.BasicExample.ClassExample</text><text fill="#000000" font-family="sans-serif" font-size="20" font-weight="bold" lengthAdjust="spacing" textLength="104" x="784" y="29.3359">simplified</text><text fill="#000000" font-family="sans-serif" font-size="20" font-weight="bold" lengthAdjust="spacing" textLength="38" x="895" y="29.3359">and</text><text fill="#000000" font-family="sans-serif" font-size="20" font-weight="bold" lengthAdjust="spacing" textLength="249" x="940" y="29.3359">grouped per namespace</text><!--cluster Examples--><g id="cluster_Examples"><a href="Examples-diagram-simplified-grouped-per-namespace.svg" target="_top" title="Examples-diagram-simplified-grouped-per-namespace.svg" xlink:actuate="onRequest" xlink:href="Examples-diagram-simplified-grouped-per-namespace.svg" xlink:show="new" xlink:title="Examples-diagram-simplified-grouped-per-namespace.svg" xlink:type="simple"><path d="M612.5,72.5547 L681.5,72.5547 A3.75,3.75 0 0 1 684,75.0547 L691,95.043 L1579.5,95.043 A2.5,2.5 0 0 1 1582,97.543 L1582,552.0547 A2.5,2.5 0 0 1 1579.5,554.5547 L612.5,554.5547 A2.5,2.5 0 0 1 610,552.0547 L610,75.0547 A2.5,2.5 0 0 1 612.5,72.5547 " fill="none" style="stroke:#000000;stroke-width:1.5;"/><line style="stroke:#000000;stroke-width:1.5;" x1="610" x2="691" y1="95.043" y2="95.043"/><text fill="#000000" font-family="sans-serif" font-size="14" font-weight="bold" lengthAdjust="spacing" textLength="68" x="614" y="88.0898">Examples</text></a></g><!--cluster BasicExample--><g id="cluster_BasicExample"><a href="Examples.BasicExample-diagram-simplified-grouped-per-namespace.svg" target="_top" title="Examples.BasicExample-diagram-simplified-grouped-per-namespace.svg" xlink:actuate="onRequest" xlink:href="Examples.BasicExample-diagram-simplified-grouped-per-namespace.svg" xlink:show="new" xlink:title="Examples.BasicExample-diagram-simplified-grouped-per-namespace.svg" xlink:type="simple"><path d="M636.5,115.5547 L734.5,115.5547 A3.75,3.75 0 0 1 737,118.0547 L744,138.043 L1555.5,138.043 A2.5,2.5 0 0 1 1558,140.543 L1558,528.0547 A2.5,2.5 0 0 1 1555.5,530.5547 L636.5,530.5547 A2.5,2.5 0 0 1 634,528.0547 L634,118.0547 A2.5,2.5 0 0 1 636.5,115.5547 " fill="none" style="stroke:#000000;stroke-width:1.5;"/><line style="stroke:#000000;stroke-width:1.5;" x1="634" x2="744" y1="138.043" y2="138.043"/><text fill="#000000" font-family="sans-serif" font-size="14" font-weight="bold" lengthAdjust="spacing" textLength="97" x="638" y="131.0898">BasicExample</text></a></g><!--class ClassExample_DOT_InnerClassExample--><a href="Examples.BasicExample.ClassExample.InnerClassExample-diagram-simplified-grouped-per-namespace.svg" target="_top" title="Examples.BasicExample.ClassExample.InnerClassExample-diagram-simplified-grouped-per-namespace.svg" xlink:actuate="onRequest" xlink:href="Examples.BasicExample.ClassExample.InnerClassExample-diagram-simplified-grouped-per-namespace.svg" xlink:show="new" xlink:title="Examples.BasicExample.ClassExample.InnerClassExample-diagram-simplified-grouped-per-namespace.svg" xlink:type="simple"><g id="elem_ClassExample_DOT_InnerClassExample"><rect codeLine="6" fill="#FFFF00" height="48" id="ClassExample_DOT_InnerClassExample" rx="2.5" ry="2.5" style="stroke:#181818;stroke-width:0.5;" width="302" x="833" y="358.5547"/><ellipse cx="848" cy="374.5547" fill="#ADD1B2" rx="11" ry="11" style="stroke:#181818;stroke-width:1.0;"/><path d="M850.4731,380.6978 Q849.8921,380.9966 849.2529,381.146 Q848.6138,381.2954 847.9082,381.2954 Q845.4014,381.2954 844.0815,379.6436 Q842.7617,377.9917 842.7617,374.8706 Q842.7617,371.7412 844.0815,370.0894 Q845.4014,368.4375 847.9082,368.4375 Q848.6138,368.4375 849.2612,368.5869 Q849.9087,368.7363 850.4731,369.0352 L850.4731,371.7578 Q849.8423,371.1768 849.2488,370.907 Q848.6553,370.6372 848.0244,370.6372 Q846.6797,370.6372 845.9949,371.7039 Q845.3101,372.7705 845.3101,374.8706 Q845.3101,376.9624 845.9949,378.0291 Q846.6797,379.0957 848.0244,379.0957 Q848.6553,379.0957 849.2488,378.8259 Q849.8423,378.5562 850.4731,377.9751 Z " fill="#000000"/><text fill="#000000" font-family="sans-serif" font-size="14" lengthAdjust="spacing" textLength="270" x="862" y="379.8457">ClassExample_DOT_InnerClassExample</text><line style="stroke:#181818;stroke-width:0.5;" x1="834" x2="1134" y1="390.5547" y2="390.5547"/><line style="stroke:#181818;stroke-width:0.5;" x1="834" x2="1134" y1="398.5547" y2="398.5547"/></g></a><!--class Useless--><a href="Examples.BasicExample.Useless-diagram-simplified-grouped-per-namespace.svg" target="_top" title="Examples.BasicExample.Useless-diagram-simplified-grouped-per-namespace.svg" xlink:actuate="onRequest" xlink:href="Examples.BasicExample.Useless-diagram-simplified-grouped-per-namespace.svg" xlink:show="new" xlink:title="Examples.BasicExample.Useless-diagram-simplified-grouped-per-namespace.svg" xlink:type="simple"><g id="elem_Useless"><rect codeLine="8" fill="#F1F1F1" height="48" id="Useless" rx="2.5" ry="2.5" style="stroke:#181818;stroke-width:0.5;" width="83" x="1458.5" y="466.5547"/><ellipse cx="1473.5" cy="482.5547" fill="#ADD1B2" rx="11" ry="11" style="stroke:#181818;stroke-width:1.0;"/><path d="M1475.9731,488.6978 Q1475.3921,488.9966 1474.7529,489.146 Q1474.1138,489.2954 1473.4082,489.2954 Q1470.9014,489.2954 1469.5815,487.6436 Q1468.2617,485.9917 1468.2617,482.8706 Q1468.2617,479.7412 1469.5815,478.0894 Q1470.9014,476.4375 1473.4082,476.4375 Q1474.1138,476.4375 1474.7612,476.5869 Q1475.4087,476.7363 1475.9731,477.0352 L1475.9731,479.7578 Q1475.3423,479.1768 1474.7488,478.907 Q1474.1553,478.6372 1473.5244,478.6372 Q1472.1797,478.6372 1471.4949,479.7039 Q1470.8101,480.7705 1470.8101,482.8706 Q1470.8101,484.9624 1471.4949,486.0291 Q1472.1797,487.0957 1473.5244,487.0957 Q1474.1553,487.0957 1474.7488,486.8259 Q1475.3423,486.5562 1475.9731,485.9751 Z " fill="#000000"/><text fill="#000000" font-family="sans-serif" font-size="14" lengthAdjust="spacing" textLength="51" x="1487.5" y="487.8457">Useless</text><line style="stroke:#181818;stroke-width:0.5;" x1="1459.5" x2="1540.5" y1="498.5547" y2="498.5547"/><line style="stroke:#181818;stroke-width:0.5;" x1="1459.5" x2="1540.5" y1="506.5547" y2="506.5547"/></g></a><!--class ClassExample_DOT_InnerClassExample_DOT_classInMethodExample--><a href="Examples.BasicExample.ClassExample.InnerClassExample.classInMethodExample-diagram-simplified-grouped-per-namespace.svg" target="_top" title="Examples.BasicExample.ClassExample.InnerClassExample.classInMethodExample-diagram-simplified-grouped-per-namespace.svg" xlink:actuate="onRequest" xlink:href="Examples.BasicExample.ClassExample.InnerClassExample.classInMethodExample-diagram-simplified-grouped-per-namespace.svg" xlink:show="new" xlink:title="Examples.BasicExample.ClassExample.InnerClassExample.classInMethodExample-diagram-simplified-grouped-per-namespace.svg" xlink:type="simple"><g id="elem_ClassExample_DOT_InnerClassExample_DOT_classInMethodExample"><rect codeLine="10" fill="#FFFF00" height="48" id="ClassExample_DOT_InnerClassExample_DOT_classInMethodExample" rx="2.5" ry="2.5" style="stroke:#181818;stroke-width:0.5;" width="503" x="650.5" y="466.5547"/><ellipse cx="665.5" cy="482.5547" fill="#ADD1B2" rx="11" ry="11" style="stroke:#181818;stroke-width:1.0;"/><path d="M667.9731,488.6978 Q667.3921,488.9966 666.7529,489.146 Q666.1138,489.2954 665.4082,489.2954 Q662.9014,489.2954 661.5815,487.6436 Q660.2617,485.9917 660.2617,482.8706 Q660.2617,479.7412 661.5815,478.0894 Q662.9014,476.4375 665.4082,476.4375 Q666.1138,476.4375 666.7612,476.5869 Q667.4087,476.7363 667.9731,477.0352 L667.9731,479.7578 Q667.3423,479.1768 666.7488,478.907 Q666.1553,478.6372 665.5244,478.6372 Q664.1797,478.6372 663.4949,479.7039 Q662.8101,480.7705 662.8101,482.8706 Q662.8101,484.9624 663.4949,486.0291 Q664.1797,487.0957 665.5244,487.0957 Q666.1553,487.0957 666.7488,486.8259 Q667.3423,486.5562 667.9731,485.9751 Z " fill="#000000"/><text fill="#000000" font-family="sans-serif" font-size="14" lengthAdjust="spacing" textLength="471" x="679.5" y="487.8457">ClassExample_DOT_InnerClassExample_DOT_classInMethodExample</text><line style="stroke:#181818;stroke-width:0.5;" x1="651.5" x2="1152.5" y1="498.5547" y2="498.5547"/><line style="stroke:#181818;stroke-width:0.5;" x1="651.5" x2="1152.5" y1="506.5547" y2="506.5547"/></g></a><!--class ClassExample--><a href="Examples.BasicExample.ClassExample-diagram-simplified-grouped-per-namespace.svg" target="_top" title="Examples.BasicExample.ClassExample-diagram-simplified-grouped-per-namespace.svg" xlink:actuate="onRequest" xlink:href="Examples.BasicExample.ClassExample-diagram-simplified-grouped-per-namespace.svg" xlink:show="new" xlink:title="Examples.BasicExample.ClassExample-diagram-simplified-grouped-per-namespace.svg" xlink:type="simple"><g id="elem_ClassExample"><rect codeLine="12" fill="#FFFF00" height="48" id="ClassExample" rx="2.5" ry="2.5" style="stroke:#181818;stroke-width:0.5;" width="127" x="1297.5" y="150.5547"/><ellipse cx="1312.5" cy="166.5547" fill="#ADD1B2" rx="11" ry="11" style="stroke:#181818;stroke-width:1.0;"/><path d="M1314.9731,172.6978 Q1314.3921,172.9966 1313.7529,173.146 Q1313.1138,173.2954 1312.4082,173.2954 Q1309.9014,173.2954 1308.5815,171.6436 Q1307.2617,169.9917 1307.2617,166.8706 Q1307.2617,163.7412 1308.5815,162.0894 Q1309.9014,160.4375 1312.4082,160.4375 Q1313.1138,160.4375 1313.7612,160.5869 Q1314.4087,160.7363 1314.9731,161.0352 L1314.9731,163.7578 Q1314.3423,163.1768 1313.7488,162.907 Q1313.1553,162.6372 1312.5244,162.6372 Q1311.1797,162.6372 1310.4949,163.7039 Q1309.8101,164.7705 1309.8101,166.8706 Q1309.8101,168.9624 1310.4949,170.0291 Q1311.1797,171.0957 1312.5244,171.0957 Q1313.1553,171.0957 1313.7488,170.8259 Q1314.3423,170.5562 1314.9731,169.9751 Z " fill="#000000"/><text fill="#000000" font-family="sans-serif" font-size="14" lengthAdjust="spacing" textLength="95" x="1326.5" y="171.8457">ClassExample</text><line style="stroke:#181818;stroke-width:0.5;" x1="1298.5" x2="1423.5" y1="182.5547" y2="182.5547"/><line style="stroke:#181818;stroke-width:0.5;" x1="1298.5" x2="1423.5" y1="190.5547" y2="190.5547"/></g></a><!--class BaseExample--><a href="Examples.BasicExample.BaseExample-diagram-simplified-grouped-per-namespace.svg" target="_top" title="Examples.BasicExample.BaseExample-diagram-simplified-grouped-per-namespace.svg" xlink:actuate="onRequest" xlink:href="Examples.BasicExample.BaseExample-diagram-simplified-grouped-per-namespace.svg" xlink:show="new" xlink:title="Examples.BasicExample.BaseExample-diagram-simplified-grouped-per-namespace.svg" xlink:type="simple"><g id="elem_BaseExample"><rect codeLine="14" fill="#F1F1F1" height="48" id="BaseExample" rx="2.5" ry="2.5" style="stroke:#181818;stroke-width:0.5;" width="122" x="1252" y="358.5547"/><ellipse cx="1267" cy="374.5547" fill="#ADD1B2" rx="11" ry="11" style="stroke:#181818;stroke-width:1.0;"/><path d="M1269.4731,380.6978 Q1268.8921,380.9966 1268.2529,381.146 Q1267.6138,381.2954 1266.9082,381.2954 Q1264.4014,381.2954 1263.0815,379.6436 Q1261.7617,377.9917 1261.7617,374.8706 Q1261.7617,371.7412 1263.0815,370.0894 Q1264.4014,368.4375 1266.9082,368.4375 Q1267.6138,368.4375 1268.2612,368.5869 Q1268.9087,368.7363 1269.4731,369.0352 L1269.4731,371.7578 Q1268.8423,371.1768 1268.2488,370.907 Q1267.6553,370.6372 1267.0244,370.6372 Q1265.6797,370.6372 1264.9949,371.7039 Q1264.3101,372.7705 1264.3101,374.8706 Q1264.3101,376.9624 1264.9949,378.0291 Q1265.6797,379.0957 1267.0244,379.0957 Q1267.6553,379.0957 1268.2488,378.8259 Q1268.8423,378.5562 1269.4731,377.9751 Z " fill="#000000"/><text fill="#000000" font-family="sans-serif" font-size="14" lengthAdjust="spacing" textLength="90" x="1281" y="379.8457">BaseExample</text><line style="stroke:#181818;stroke-width:0.5;" x1="1253" x2="1373" y1="390.5547" y2="390.5547"/><line style="stroke:#181818;stroke-width:0.5;" x1="1253" x2="1373" y1="398.5547" y2="398.5547"/></g></a><!--class BaseExample_DOT_EnumTest--><a href="Examples.BasicExample.BaseExample.EnumTest-diagram-simplified-grouped-per-namespace.svg" target="_top" title="Examples.BasicExample.BaseExample.EnumTest-diagram-simplified-grouped-per-namespace.svg" xlink:actuate="onRequest" xlink:href="Examples.BasicExample.BaseExample.EnumTest-diagram-simplified-grouped-per-namespace.svg" xlink:show="new" xlink:title="Examples.BasicExample.BaseExample.EnumTest-diagram-simplified-grouped-per-namespace.svg" xlink:type="simple"><g id="elem_BaseExample_DOT_EnumTest"><rect codeLine="16" fill="#F1F1F1" height="48" id="BaseExample_DOT_EnumTest" rx="2.5" ry="2.5" style="stroke:#181818;stroke-width:0.5;" width="234" x="1189" y="466.5547"/><ellipse cx="1204" cy="482.5547" fill="#ADD1B2" rx="11" ry="11" style="stroke:#181818;stroke-width:1.0;"/><path d="M1206.4731,488.6978 Q1205.8921,488.9966 1205.2529,489.146 Q1204.6138,489.2954 1203.9082,489.2954 Q1201.4014,489.2954 1200.0815,487.6436 Q1198.7617,485.9917 1198.7617,482.8706 Q1198.7617,479.7412 1200.0815,478.0894 Q1201.4014,476.4375 1203.9082,476.4375 Q1204.6138,476.4375 1205.2612,476.5869 Q1205.9087,476.7363 1206.4731,477.0352 L1206.4731,479.7578 Q1205.8423,479.1768 1205.2488,478.907 Q1204.6553,478.6372 1204.0244,478.6372 Q1202.6797,478.6372 1201.9949,479.7039 Q1201.3101,480.7705 1201.3101,482.8706 Q1201.3101,484.9624 1201.9949,486.0291 Q1202.6797,487.0957 1204.0244,487.0957 Q1204.6553,487.0957 1205.2488,486.8259 Q1205.8423,486.5562 1206.4731,485.9751 Z " fill="#000000"/><text fill="#000000" font-family="sans-serif" font-size="14" lengthAdjust="spacing" textLength="202" x="1218" y="487.8457">BaseExample_DOT_EnumTest</text><line style="stroke:#181818;stroke-width:0.5;" x1="1190" x2="1422" y1="498.5547" y2="498.5547"/><line style="stroke:#181818;stroke-width:0.5;" x1="1190" x2="1422" y1="506.5547" y2="506.5547"/></g></a><!--class IExample--><a href="Examples.BasicExample.IExample-diagram-simplified-grouped-per-namespace.svg" target="_top" title="Examples.BasicExample.IExample-diagram-simplified-grouped-per-namespace.svg" xlink:actuate="onRequest" xlink:href="Examples.BasicExample.IExample-diagram-simplified-grouped-per-namespace.svg" xlink:show="new" xlink:title="Examples.BasicExample.IExample-diagram-simplified-grouped-per-namespace.svg" xlink:type="simple"><g id="elem_IExample"><rect codeLine="18" fill="#F1F1F1" height="48" id="IExample" rx="2.5" ry="2.5" style="stroke:#181818;stroke-width:0.5;" width="95" x="1446.5" y="358.5547"/><ellipse cx="1461.5" cy="374.5547" fill="#B4A7E5" rx="11" ry="11" style="stroke:#181818;stroke-width:1.0;"/><path d="M1457.9277,370.8198 L1457.9277,368.6616 L1465.3071,368.6616 L1465.3071,370.8198 L1462.8418,370.8198 L1462.8418,378.8965 L1465.3071,378.8965 L1465.3071,381.0547 L1457.9277,381.0547 L1457.9277,378.8965 L1460.3931,378.8965 L1460.3931,370.8198 Z " fill="#000000"/><text fill="#000000" font-family="sans-serif" font-size="14" font-style="italic" lengthAdjust="spacing" textLength="63" x="1475.5" y="379.8457">IExample</text><line style="stroke:#181818;stroke-width:0.5;" x1="1447.5" x2="1540.5" y1="390.5547" y2="390.5547"/><line style="stroke:#181818;stroke-width:0.5;" x1="1447.5" x2="1540.5" y1="398.5547" y2="398.5547"/></g></a><g id="elem_FloatingNote"><path d="M6,50.5547 L6,298.2129 L594,298.2129 L594,60.5547 L584,50.5547 L6,50.5547 " fill="#FEFFDD" style="stroke:#181818;stroke-width:0.5;"/><path d="M584,50.5547 L584,60.5547 L594,60.5547 L584,50.5547 " fill="#FEFFDD" style="stroke:#181818;stroke-width:1.0;"/><text fill="#000000" font-family="sans-serif" font-size="13" lengthAdjust="spacing" textLength="120" x="12" y="68.123">Your are analyzing:</text><text fill="#000000" font-family="sans-serif" font-size="13" lengthAdjust="spacing" textLength="240" x="12" y="83.4336">Examples.BasicExample.ClassExample</text><text fill="#000000" font-family="sans-serif" font-size="13" font-weight="bold" lengthAdjust="spacing" textLength="67" x="256" y="83.4336">simplified</text><text fill="#000000" font-family="sans-serif" font-size="13" lengthAdjust="spacing" textLength="23" x="327" y="83.4336">and</text><text fill="#000000" font-family="sans-serif" font-size="13" font-weight="bold" lengthAdjust="spacing" textLength="166" x="354" y="83.4336">grouped per namespace</text><text fill="#000000" font-family="sans-serif" font-size="13" lengthAdjust="spacing" textLength="4" x="12" y="98.7441">&#160;</text><text fill="#000000" font-family="sans-serif" font-size="13" lengthAdjust="spacing" textLength="229" x="12" y="129.3652">You can click either the namespaces</text><text fill="#000000" font-family="sans-serif" font-size="13" lengthAdjust="spacing" textLength="266" x="12" y="144.6758">or class names for filtering them and their</text><text fill="#000000" font-family="sans-serif" font-size="13" lengthAdjust="spacing" textLength="130" x="12" y="159.9863">direct dependencies.</text><text fill="#000000" font-family="sans-serif" font-size="13" lengthAdjust="spacing" textLength="4" x="12" y="175.2969">&#160;</text><line style="stroke:#181818;stroke-width:1.0;" x1="7" x2="284" y1="109.1416" y2="109.1416"/><line style="stroke:#181818;stroke-width:1.0;" x1="7" x2="284" y1="111.1416" y2="111.1416"/><text fill="#000000" font-family="sans-serif" font-size="13" lengthAdjust="spacing" textLength="32" x="284" y="113.5547">Filter</text><line style="stroke:#181818;stroke-width:1.0;" x1="316" x2="593" y1="109.1416" y2="109.1416"/><line style="stroke:#181818;stroke-width:1.0;" x1="316" x2="593" y1="111.1416" y2="111.1416"/><ellipse cx="17.5" cy="205.1602" fill="#000000" rx="2.5" ry="2.5" style="stroke:#000000;stroke-width:0.0;"/><text fill="#000000" font-family="sans-serif" font-size="13" lengthAdjust="spacing" textLength="240" x="24" y="209.918">Examples.BasicExample.ClassExample</text><text fill="#000000" font-family="sans-serif" font-size="13" font-weight="bold" lengthAdjust="spacing" textLength="55" x="268" y="209.918">detailed</text><text fill="#000000" font-family="sans-serif" font-size="13" lengthAdjust="spacing" textLength="23" x="327" y="209.918">and</text><text fill="#000000" font-family="sans-serif" font-size="13" font-weight="bold" lengthAdjust="spacing" textLength="166" x="354" y="209.918">grouped per namespace</text><text fill="#000000" font-family="sans-serif" font-size="13" lengthAdjust="spacing" textLength="4" x="520" y="209.918">:</text><text fill="#000000" font-family="sans-serif" font-size="13" lengthAdjust="spacing" textLength="12" x="12" y="225.2285">&#160;&#160;&#160;</text><a href="Examples.BasicExample.ClassExample-diagram-detailed-grouped-per-namespace.svg" target="_top" title="Examples.BasicExample.ClassExample-diagram-detailed-grouped-per-namespace.svg" xlink:actuate="onRequest" xlink:href="Examples.BasicExample.ClassExample-diagram-detailed-grouped-per-namespace.svg" xlink:show="new" xlink:title="Examples.BasicExample.ClassExample-diagram-detailed-grouped-per-namespace.svg" xlink:type="simple"><text fill="#0000FF" font-family="sans-serif" font-size="13" lengthAdjust="spacing" text-decoration="underline" textLength="549" x="24" y="225.2285">Examples.BasicExample.ClassExample-diagram-detailed-grouped-per-namespace.svg</text></a><ellipse cx="17.5" cy="235.7813" fill="#000000" rx="2.5" ry="2.5" style="stroke:#000000;stroke-width:0.0;"/><text fill="#000000" font-family="sans-serif" font-size="13" lengthAdjust="spacing" textLength="78" x="24" y="240.5391">Full diagram</text><text fill="#000000" font-family="sans-serif" font-size="13" font-weight="bold" lengthAdjust="spacing" textLength="67" x="106" y="240.5391">simplified</text><text fill="#000000" font-family="sans-serif" font-size="13" lengthAdjust="spacing" textLength="23" x="177" y="240.5391">and</text><text fill="#000000" font-family="sans-serif" font-size="13" font-weight="bold" lengthAdjust="spacing" textLength="166" x="204" y="240.5391">grouped per namespace</text><text fill="#000000" font-family="sans-serif" font-size="13" lengthAdjust="spacing" textLength="4" x="370" y="240.5391">:</text><text fill="#000000" font-family="sans-serif" font-size="13" lengthAdjust="spacing" textLength="12" x="12" y="255.8496">&#160;&#160;&#160;</text><a href="full-diagram-simplified-grouped-per-namespace.svg" target="_top" title="full-diagram-simplified-grouped-per-namespace.svg" xlink:actuate="onRequest" xlink:href="full-diagram-simplified-grouped-per-namespace.svg" xlink:show="new" xlink:title="full-diagram-simplified-grouped-per-namespace.svg" xlink:type="simple"><text fill="#0000FF" font-family="sans-serif" font-size="13" lengthAdjust="spacing" text-decoration="underline" textLength="343" x="24" y="255.8496">full-diagram-simplified-grouped-per-namespace.svg</text></a><ellipse cx="17.5" cy="266.4023" fill="#000000" rx="2.5" ry="2.5" style="stroke:#000000;stroke-width:0.0;"/><text fill="#000000" font-family="sans-serif" font-size="13" lengthAdjust="spacing" textLength="41" x="24" y="271.1602">Home:</text><text fill="#000000" font-family="sans-serif" font-size="13" lengthAdjust="spacing" textLength="12" x="12" y="286.4707">&#160;&#160;&#160;</text><a href="index.html" target="_top" title="index.html" xlink:actuate="onRequest" xlink:href="index.html" xlink:show="new" xlink:title="index.html" xlink:type="simple"><text fill="#0000FF" font-family="sans-serif" font-size="13" lengthAdjust="spacing" text-decoration="underline" textLength="68" x="24" y="286.4707">index.html</text></a><line style="stroke:#181818;stroke-width:1.0;" x1="7" x2="263" y1="189.6943" y2="189.6943"/><line style="stroke:#181818;stroke-width:1.0;" x1="7" x2="263" y1="191.6943" y2="191.6943"/><text fill="#000000" font-family="sans-serif" font-size="13" lengthAdjust="spacing" textLength="74" x="263" y="194.1074">Select other</text><line style="stroke:#181818;stroke-width:1.0;" x1="337" x2="593" y1="189.6943" y2="189.6943"/><line style="stroke:#181818;stroke-width:1.0;" x1="337" x2="593" y1="191.6943" y2="191.6943"/></g><!--reverse link ClassExample_DOT_InnerClassExample to ClassExample_DOT_InnerClassExample_DOT_classInMethodExample--><g id="link_ClassExample_DOT_InnerClassExample_ClassExample_DOT_InnerClassExample_DOT_classInMethodExample"><path codeLine="31" d="M984,422.7947 C984,422.7947 984,466.3947 984,466.3947 " fill="none" id="ClassExample_DOT_InnerClassExample-backto-ClassExample_DOT_InnerClassExample_DOT_classInMethodExample" style="stroke:#10BBBB;stroke-width:1.0;"/><ellipse cx="984" cy="415.7947" fill="#FFFFFF" rx="8" ry="8" style="stroke:#10BBBB;stroke-width:1.0;"/><line style="stroke:#10BBBB;stroke-width:1.0;" x1="984" x2="984" y1="423.7947" y2="407.7947"/><line style="stroke:#10BBBB;stroke-width:1.0;" x1="976" x2="992" y1="415.7947" y2="415.7947"/></g><!--reverse link BaseExample to ClassExample--><g id="link_BaseExample_ClassExample"><path codeLine="33" d="M1348.5,337.2847 C1348.5,337.2847 1348.5,198.9847 1348.5,198.9847 " fill="none" id="BaseExample-backto-ClassExample" style="stroke:#FF0000;stroke-width:1.0;"/><polygon fill="none" points="1355.5,337.2847,1348.5,357.2847,1341.5,337.2847,1355.5,337.2847" style="stroke:#FF0000;stroke-width:1.0;"/></g><!--link ClassExample to BaseExample--><g id="link_ClassExample_BaseExample"><path codeLine="38" d="M1323,198.8247 C1323,198.8247 1323,352.1247 1323,352.1247 " fill="none" id="ClassExample-to-BaseExample" style="stroke:#909090;stroke-width:1.0;"/><polygon fill="#909090" points="1323,357.1247,1327,348.1247,1323,352.1247,1319,348.1247,1323,357.1247" style="stroke:#909090;stroke-width:1.0;"/><text fill="#000000" font-family="sans-serif" font-size="13" lengthAdjust="spacing" textLength="29" x="1293" y="272.043">uses</text></g><!--reverse link ClassExample to ClassExample_DOT_InnerClassExample--><g id="link_ClassExample_ClassExample_DOT_InnerClassExample"><path codeLine="34" d="M1281.05,174.5547 C1281.05,174.5547 984,174.5547 984,174.5547 C984,174.5547 984,303.4147 984,358.2847 " fill="none" id="ClassExample-backto-ClassExample_DOT_InnerClassExample" style="stroke:#10BBBB;stroke-width:1.0;"/><ellipse cx="1288.05" cy="174.5547" fill="#FFFFFF" rx="8" ry="8" style="stroke:#10BBBB;stroke-width:1.0;"/><line style="stroke:#10BBBB;stroke-width:1.0;" x1="1280.05" x2="1296.05" y1="174.5547" y2="174.5547"/><line style="stroke:#10BBBB;stroke-width:1.0;" x1="1288.05" x2="1288.05" y1="166.5547" y2="182.5547"/></g><!--reverse link ClassExample to Useless--><g id="link_ClassExample_Useless"><path codeLine="35" d="M1434.43,182.5547 C1434.43,182.5547 1435.5,182.5547 1435.5,182.5547 C1435.5,182.5547 1435.5,490.5547 1435.5,490.5547 C1435.5,490.5547 1445.74,490.5547 1458.06,490.5547 " fill="none" id="ClassExample-backto-Useless" style="stroke:#10BB10;stroke-width:1.0;"/><polygon fill="#10BB10" points="1425.83,182.5547,1431.83,186.5547,1437.83,182.5547,1431.83,178.5547,1425.83,182.5547" style="stroke:#10BB10;stroke-width:1.0;"/></g><!--link ClassExample to Useless--><g id="link_ClassExample_Useless"><path codeLine="37" d="M1424.81,166.5547 C1434.32,166.5547 1441,166.5547 1441,166.5547 C1441,166.5547 1441,478.5547 1441,478.5547 C1441,478.5547 1452.07,478.5547 1452.07,478.5547 " fill="none" id="ClassExample-to-Useless" style="stroke:#6060BB;stroke-width:1.0;stroke-dasharray:7.0,7.0;"/><polygon fill="#6060BB" points="1457.07,478.5547,1448.07,474.5547,1452.07,478.5547,1448.07,482.5547,1457.07,478.5547" style="stroke:#6060BB;stroke-width:1.0;"/><text fill="#000000" font-family="sans-serif" font-size="13" lengthAdjust="spacing" textLength="29" x="1411" y="316.563">uses</text></g><!--link ClassExample to IExample--><g id="link_ClassExample_IExample"><path codeLine="39" d="M1398.5,198.6747 C1398.5,251.8747 1398.5,374.5547 1398.5,374.5547 C1398.5,374.5547 1440.25,374.5547 1440.25,374.5547 " fill="none" id="ClassExample-to-IExample" style="stroke:#6060BB;stroke-width:1.0;stroke-dasharray:7.0,7.0;"/><polygon fill="#6060BB" points="1445.25,374.5547,1436.25,370.5547,1440.25,374.5547,1436.25,378.5547,1445.25,374.5547" style="stroke:#6060BB;stroke-width:1.0;"/><text fill="#000000" font-family="sans-serif" font-size="13" lengthAdjust="spacing" textLength="29" x="1368.5" y="304.063">uses</text></g><!--reverse link BaseExample to BaseExample_DOT_EnumTest--><g id="link_BaseExample_BaseExample_DOT_EnumTest"><path codeLine="40" d="M1313,422.7947 C1313,422.7947 1313,466.3947 1313,466.3947 " fill="none" id="BaseExample-backto-BaseExample_DOT_EnumTest" style="stroke:#10BBBB;stroke-width:1.0;"/><ellipse cx="1313" cy="415.7947" fill="#FFFFFF" rx="8" ry="8" style="stroke:#10BBBB;stroke-width:1.0;"/><line style="stroke:#10BBBB;stroke-width:1.0;" x1="1313" x2="1313" y1="423.7947" y2="407.7947"/><line style="stroke:#10BBBB;stroke-width:1.0;" x1="1305" x2="1321" y1="415.7947" y2="415.7947"/></g><!--link BaseExample to Useless--><g id="link_BaseExample_Useless"><path codeLine="41" d="M1374.24,390.5547 C1402.55,390.5547 1430,390.5547 1430,390.5547 C1430,390.5547 1430,502.5547 1430,502.5547 C1430,502.5547 1452.07,502.5547 1452.07,502.5547 " fill="none" id="BaseExample-to-Useless" style="stroke:#6060BB;stroke-width:1.0;stroke-dasharray:7.0,7.0;"/><polygon fill="#6060BB" points="1457.07,502.5547,1448.07,498.5547,1452.07,502.5547,1448.07,506.5547,1457.07,502.5547" style="stroke:#6060BB;stroke-width:1.0;"/><text fill="#000000" font-family="sans-serif" font-size="13" lengthAdjust="spacing" textLength="29" x="1400" y="426.273">uses</text></g><!--link IExample to Useless--><g id="link_IExample_Useless"><path codeLine="42" d="M1500,406.7947 C1500,406.7947 1500,460.3947 1500,460.3947 " fill="none" id="IExample-to-Useless" style="stroke:#6060BB;stroke-width:1.0;stroke-dasharray:7.0,7.0;"/><polygon fill="#6060BB" points="1500,465.3947,1504,456.3947,1500,460.3947,1496,456.3947,1500,465.3947" style="stroke:#6060BB;stroke-width:1.0;"/><text fill="#000000" font-family="sans-serif" font-size="13" lengthAdjust="spacing" textLength="29" x="1470" y="430.163">uses</text></g><!--SRC=[lLN1Rjf04Btp5QFa4CcLNT93f2BWa3Ie79eUcXugiD367iCgwrrhTvsGjFdtZXq3HWLvdK018QyzyzxRD-iPSyzbnZHBGN29zYb3KDekLCToAn3wXZzZxrDtUBraQIRG19VCyAXQ1LU26LCjmFCCfmkUS8mz3vYCwTPSgpp363BK85cA9cCHUbx_Om4yx4Xb4Kv-gLm3qqWvJ3mzSpdlJUM16QToAWU34HSMzM0mbSG94PCG2HxT0tAxe7Zws-GOc4gbAO0ON-z2GkkaX22DHNHQaj85rrCPSusHXHWpb37AY9FuLzeVA8edgY0fo3rmsbsCbd7Hl3To2m0casPGF-PiJjNsLz1-1UaJfB-63Cp3F0mBdQDS2AYIMlczqfGGm9frazx4-rMbk8BWvEOoMDXKXE49C0CZePYb2jpGwUciazUUrfneoGo_Ty1jkRdFvVP4K9sivgBDldo_dOsbHBrrFbpg7VoJrbRewHCAeHvBmIyDedyQEkV6x5LMFMyhmOcxsR3oRWanbj-GUbpyFYU3NLZ7jBTrzOyfXXROfAKMSvIQr_3BubxBFBr5Orq41QlWDolZakP0ihTJ1ECcUyRly-RiIgKqkgdr_g-U1Oyq9e4AOe5Uv1GbZRG4IYrm9PGfXYAZUP5fVE0gDpEJtytMA3F1AN6ZzKP9X3kCM6wmcAhL-3VS0FqIBhbPO1pKi3UvzMrqNdQ6hBPCZ-6CvfJJ1uuMMqWiJh96GRDBIGEuj9f5bkgNQ9LkbFSeTcUzEcyU5H_yoUbvzv8-eN-4_jbvI_k4O79wqRqWLM4mR1Weq0Cw96OVKRqNzV_GNkcbSDgeW_33UETY4NWLqtbtBzFAa0F1xUg7JjY7gzqMB2d-t2s-eJzqc3jje1qKZnrnwn8SJiVUAUK0VpYVn- -0_0i0]--></g></svg>