<?xml version="1.0" encoding="us-ascii" standalone="no"?><svg xmlns="http://www.w3.org/2000/svg" xmlns:xlink="http://www.w3.org/1999/xlink" contentStyleType="text/css" height="522px" preserveAspectRatio="none" style="width:1241px;height:522px;background:#FFFFFF;" version="1.1" viewBox="0 0 1241 522" width="1241px" zoomAndPan="magnify"><defs/><g><text fill="#000000" font-family="sans-serif" font-size="20" font-weight="bold" lengthAdjust="spacing" textLength="501" x="304" y="29.3359">Examples.BetterDesign.Repository.DBWarehouse</text><text fill="#000000" font-family="sans-serif" font-size="20" font-weight="bold" lengthAdjust="spacing" textLength="104" x="812" y="29.3359">simplified</text><text fill="#000000" font-family="sans-serif" font-size="20" font-weight="bold" lengthAdjust="spacing" textLength="7" x="916" y="29.3359">&#160;</text><!--cluster Examples--><g id="cluster_Examples"><path d="M510.5,50.5547 L579.5,50.5547 A3.75,3.75 0 0 1 582,53.0547 L589,73.043 L1231.5,73.043 A2.5,2.5 0 0 1 1234,75.543 L1234,513.0547 A2.5,2.5 0 0 1 1231.5,515.5547 L510.5,515.5547 A2.5,2.5 0 0 1 508,513.0547 L508,53.0547 A2.5,2.5 0 0 1 510.5,50.5547 " fill="none" style="stroke:#000000;stroke-width:1.5;"/><line style="stroke:#000000;stroke-width:1.5;" x1="508" x2="589" y1="73.043" y2="73.043"/><text fill="#000000" font-family="sans-serif" font-size="14" font-weight="bold" lengthAdjust="spacing" textLength="68" x="512" y="66.0898">Examples</text></g><!--cluster BetterDesign--><g id="cluster_BetterDesign"><path d="M534.5,93.5547 L628.5,93.5547 A3.75,3.75 0 0 1 631,96.0547 L638,116.043 L1207.5,116.043 A2.5,2.5 0 0 1 1210,118.543 L1210,489.0547 A2.5,2.5 0 0 1 1207.5,491.5547 L534.5,491.5547 A2.5,2.5 0 0 1 532,489.0547 L532,96.0547 A2.5,2.5 0 0 1 534.5,93.5547 " fill="none" style="stroke:#000000;stroke-width:1.5;"/><line style="stroke:#000000;stroke-width:1.5;" x1="532" x2="638" y1="116.043" y2="116.043"/><text fill="#000000" font-family="sans-serif" font-size="14" font-weight="bold" lengthAdjust="spacing" textLength="93" x="536" y="109.0898">BetterDesign</text></g><!--cluster Repository--><g id="cluster_Repository"><path d="M558.5,136.5547 L637.5,136.5547 A3.75,3.75 0 0 1 640,139.0547 L647,159.043 L1183.5,159.043 A2.5,2.5 0 0 1 1186,161.543 L1186,465.0547 A2.5,2.5 0 0 1 1183.5,467.5547 L558.5,467.5547 A2.5,2.5 0 0 1 556,465.0547 L556,139.0547 A2.5,2.5 0 0 1 558.5,136.5547 " fill="none" style="stroke:#000000;stroke-width:1.5;"/><line style="stroke:#000000;stroke-width:1.5;" x1="556" x2="647" y1="159.043" y2="159.043"/><text fill="#000000" font-family="sans-serif" font-size="14" font-weight="bold" lengthAdjust="spacing" textLength="78" x="560" y="152.0898">Repository</text></g><!--cluster WarehouseEntities--><g id="cluster_WarehouseEntities"><path d="M582.5,344.5547 L716.5,344.5547 A3.75,3.75 0 0 1 719,347.0547 L726,367.043 L1159.5,367.043 A2.5,2.5 0 0 1 1162,369.543 L1162,441.0547 A2.5,2.5 0 0 1 1159.5,443.5547 L582.5,443.5547 A2.5,2.5 0 0 1 580,441.0547 L580,347.0547 A2.5,2.5 0 0 1 582.5,344.5547 " fill="none" style="stroke:#000000;stroke-width:1.5;"/><line style="stroke:#000000;stroke-width:1.5;" x1="580" x2="726" y1="367.043" y2="367.043"/><text fill="#000000" font-family="sans-serif" font-size="14" font-weight="bold" lengthAdjust="spacing" textLength="133" x="584" y="360.0898">WarehouseEntities</text></g><!--class DBWarehouse--><a href="Examples.BetterDesign.Repository.DBWarehouse-diagram-simplified.svg" target="_top" title="Examples.BetterDesign.Repository.DBWarehouse-diagram-simplified.svg" xlink:actuate="onRequest" xlink:href="Examples.BetterDesign.Repository.DBWarehouse-diagram-simplified.svg" xlink:show="new" xlink:title="Examples.BetterDesign.Repository.DBWarehouse-diagram-simplified.svg" xlink:type="simple"><g id="elem_DBWarehouse"><rect codeLine="4" fill="#FFFF00" height="48" id="DBWarehouse" rx="2.5" ry="2.5" style="stroke:#181818;stroke-width:0.5;" width="126" x="805" y="171.5547"/><ellipse cx="820" cy="187.5547" fill="#ADD1B2" rx="11" ry="11" style="stroke:#181818;stroke-width:1.0;"/><path d="M822.4731,193.6978 Q821.8921,193.9966 821.2529,194.146 Q820.6138,194.2954 819.9082,194.2954 Q817.4014,194.2954 816.0815,192.6436 Q814.7617,190.9917 814.7617,187.8706 Q814.7617,184.7412 816.0815,183.0894 Q817.4014,181.4375 819.9082,181.4375 Q820.6138,181.4375 821.2612,181.5869 Q821.9087,181.7363 822.4731,182.0352 L822.4731,184.7578 Q821.8423,184.1768 821.2488,183.907 Q820.6553,183.6372 820.0244,183.6372 Q818.6797,183.6372 817.9949,184.7039 Q817.3101,185.7705 817.3101,187.8706 Q817.3101,189.9624 817.9949,191.0291 Q818.6797,192.0957 820.0244,192.0957 Q820.6553,192.0957 821.2488,191.8259 Q821.8423,191.5562 822.4731,190.9751 Z " fill="#000000"/><text fill="#000000" font-family="sans-serif" font-size="14" lengthAdjust="spacing" textLength="94" x="834" y="192.8457">DBWarehouse</text><line style="stroke:#181818;stroke-width:0.5;" x1="806" x2="930" y1="203.5547" y2="203.5547"/><line style="stroke:#181818;stroke-width:0.5;" x1="806" x2="930" y1="211.5547" y2="211.5547"/></g></a><!--class Customer--><a href="Examples.BetterDesign.Repository.WarehouseEntities.Customer-diagram-simplified.svg" target="_top" title="Examples.BetterDesign.Repository.WarehouseEntities.Customer-diagram-simplified.svg" xlink:actuate="onRequest" xlink:href="Examples.BetterDesign.Repository.WarehouseEntities.Customer-diagram-simplified.svg" xlink:show="new" xlink:title="Examples.BetterDesign.Repository.WarehouseEntities.Customer-diagram-simplified.svg" xlink:type="simple"><g id="elem_Customer"><rect codeLine="6" fill="#F1F1F1" height="48" id="Customer" rx="2.5" ry="2.5" style="stroke:#181818;stroke-width:0.5;" width="99" x="1046.5" y="379.5547"/><ellipse cx="1061.5" cy="395.5547" fill="#ADD1B2" rx="11" ry="11" style="stroke:#181818;stroke-width:1.0;"/><path d="M1063.9731,401.6978 Q1063.3921,401.9966 1062.7529,402.146 Q1062.1138,402.2954 1061.4082,402.2954 Q1058.9014,402.2954 1057.5815,400.6436 Q1056.2617,398.9917 1056.2617,395.8706 Q1056.2617,392.7412 1057.5815,391.0894 Q1058.9014,389.4375 1061.4082,389.4375 Q1062.1138,389.4375 1062.7612,389.5869 Q1063.4087,389.7363 1063.9731,390.0352 L1063.9731,392.7578 Q1063.3423,392.1768 1062.7488,391.907 Q1062.1553,391.6372 1061.5244,391.6372 Q1060.1797,391.6372 1059.4949,392.7039 Q1058.8101,393.7705 1058.8101,395.8706 Q1058.8101,397.9624 1059.4949,399.0291 Q1060.1797,400.0957 1061.5244,400.0957 Q1062.1553,400.0957 1062.7488,399.8259 Q1063.3423,399.5562 1063.9731,398.9751 Z " fill="#000000"/><text fill="#000000" font-family="sans-serif" font-size="14" lengthAdjust="spacing" textLength="67" x="1075.5" y="400.8457">Customer</text><line style="stroke:#181818;stroke-width:0.5;" x1="1047.5" x2="1144.5" y1="411.5547" y2="411.5547"/><line style="stroke:#181818;stroke-width:0.5;" x1="1047.5" x2="1144.5" y1="419.5547" y2="419.5547"/></g></a><!--class Invoice--><a href="Examples.BetterDesign.Repository.WarehouseEntities.Invoice-diagram-simplified.svg" target="_top" title="Examples.BetterDesign.Repository.WarehouseEntities.Invoice-diagram-simplified.svg" xlink:actuate="onRequest" xlink:href="Examples.BetterDesign.Repository.WarehouseEntities.Invoice-diagram-simplified.svg" xlink:show="new" xlink:title="Examples.BetterDesign.Repository.WarehouseEntities.Invoice-diagram-simplified.svg" xlink:type="simple"><g id="elem_Invoice"><rect codeLine="8" fill="#F1F1F1" height="48" id="Invoice" rx="2.5" ry="2.5" style="stroke:#181818;stroke-width:0.5;" width="80" x="931" y="379.5547"/><ellipse cx="946" cy="395.5547" fill="#ADD1B2" rx="11" ry="11" style="stroke:#181818;stroke-width:1.0;"/><path d="M948.4731,401.6978 Q947.8921,401.9966 947.2529,402.146 Q946.6138,402.2954 945.9082,402.2954 Q943.4014,402.2954 942.0815,400.6436 Q940.7617,398.9917 940.7617,395.8706 Q940.7617,392.7412 942.0815,391.0894 Q943.4014,389.4375 945.9082,389.4375 Q946.6138,389.4375 947.2612,389.5869 Q947.9087,389.7363 948.4731,390.0352 L948.4731,392.7578 Q947.8423,392.1768 947.2488,391.907 Q946.6553,391.6372 946.0244,391.6372 Q944.6797,391.6372 943.9949,392.7039 Q943.3101,393.7705 943.3101,395.8706 Q943.3101,397.9624 943.9949,399.0291 Q944.6797,400.0957 946.0244,400.0957 Q946.6553,400.0957 947.2488,399.8259 Q947.8423,399.5562 948.4731,398.9751 Z " fill="#000000"/><text fill="#000000" font-family="sans-serif" font-size="14" lengthAdjust="spacing" textLength="48" x="960" y="400.8457">Invoice</text><line style="stroke:#181818;stroke-width:0.5;" x1="932" x2="1010" y1="411.5547" y2="411.5547"/><line style="stroke:#181818;stroke-width:0.5;" x1="932" x2="1010" y1="419.5547" y2="419.5547"/></g></a><!--class Car--><a href="Examples.BetterDesign.Repository.WarehouseEntities.Car-diagram-simplified.svg" target="_top" title="Examples.BetterDesign.Repository.WarehouseEntities.Car-diagram-simplified.svg" xlink:actuate="onRequest" xlink:href="Examples.BetterDesign.Repository.WarehouseEntities.Car-diagram-simplified.svg" xlink:show="new" xlink:title="Examples.BetterDesign.Repository.WarehouseEntities.Car-diagram-simplified.svg" xlink:type="simple"><g id="elem_Car"><rect codeLine="10" fill="#F1F1F1" height="48" id="Car" rx="2.5" ry="2.5" style="stroke:#181818;stroke-width:0.5;" width="56" x="840" y="379.5547"/><ellipse cx="855" cy="395.5547" fill="#ADD1B2" rx="11" ry="11" style="stroke:#181818;stroke-width:1.0;"/><path d="M857.4731,401.6978 Q856.8921,401.9966 856.2529,402.146 Q855.6138,402.2954 854.9082,402.2954 Q852.4014,402.2954 851.0815,400.6436 Q849.7617,398.9917 849.7617,395.8706 Q849.7617,392.7412 851.0815,391.0894 Q852.4014,389.4375 854.9082,389.4375 Q855.6138,389.4375 856.2612,389.5869 Q856.9087,389.7363 857.4731,390.0352 L857.4731,392.7578 Q856.8423,392.1768 856.2488,391.907 Q855.6553,391.6372 855.0244,391.6372 Q853.6797,391.6372 852.9949,392.7039 Q852.3101,393.7705 852.3101,395.8706 Q852.3101,397.9624 852.9949,399.0291 Q853.6797,400.0957 855.0244,400.0957 Q855.6553,400.0957 856.2488,399.8259 Q856.8423,399.5562 857.4731,398.9751 Z " fill="#000000"/><text fill="#000000" font-family="sans-serif" font-size="14" lengthAdjust="spacing" textLength="24" x="869" y="400.8457">Car</text><line style="stroke:#181818;stroke-width:0.5;" x1="841" x2="895" y1="411.5547" y2="411.5547"/><line style="stroke:#181818;stroke-width:0.5;" x1="841" x2="895" y1="419.5547" y2="419.5547"/></g></a><!--class Complaints--><a href="Examples.BetterDesign.Repository.WarehouseEntities.Complaints-diagram-simplified.svg" target="_top" title="Examples.BetterDesign.Repository.WarehouseEntities.Complaints-diagram-simplified.svg" xlink:actuate="onRequest" xlink:href="Examples.BetterDesign.Repository.WarehouseEntities.Complaints-diagram-simplified.svg" xlink:show="new" xlink:title="Examples.BetterDesign.Repository.WarehouseEntities.Complaints-diagram-simplified.svg" xlink:type="simple"><g id="elem_Complaints"><rect codeLine="12" fill="#F1F1F1" height="48" id="Complaints" rx="2.5" ry="2.5" style="stroke:#181818;stroke-width:0.5;" width="110" x="695" y="379.5547"/><ellipse cx="710" cy="395.5547" fill="#ADD1B2" rx="11" ry="11" style="stroke:#181818;stroke-width:1.0;"/><path d="M712.4731,401.6978 Q711.8921,401.9966 711.2529,402.146 Q710.6138,402.2954 709.9082,402.2954 Q707.4014,402.2954 706.0815,400.6436 Q704.7617,398.9917 704.7617,395.8706 Q704.7617,392.7412 706.0815,391.0894 Q707.4014,389.4375 709.9082,389.4375 Q710.6138,389.4375 711.2612,389.5869 Q711.9087,389.7363 712.4731,390.0352 L712.4731,392.7578 Q711.8423,392.1768 711.2488,391.907 Q710.6553,391.6372 710.0244,391.6372 Q708.6797,391.6372 707.9949,392.7039 Q707.3101,393.7705 707.3101,395.8706 Q707.3101,397.9624 707.9949,399.0291 Q708.6797,400.0957 710.0244,400.0957 Q710.6553,400.0957 711.2488,399.8259 Q711.8423,399.5562 712.4731,398.9751 Z " fill="#000000"/><text fill="#000000" font-family="sans-serif" font-size="14" lengthAdjust="spacing" textLength="78" x="724" y="400.8457">Complaints</text><line style="stroke:#181818;stroke-width:0.5;" x1="696" x2="804" y1="411.5547" y2="411.5547"/><line style="stroke:#181818;stroke-width:0.5;" x1="696" x2="804" y1="419.5547" y2="419.5547"/></g></a><!--class User--><a href="Examples.BetterDesign.Repository.WarehouseEntities.User-diagram-simplified.svg" target="_top" title="Examples.BetterDesign.Repository.WarehouseEntities.User-diagram-simplified.svg" xlink:actuate="onRequest" xlink:href="Examples.BetterDesign.Repository.WarehouseEntities.User-diagram-simplified.svg" xlink:show="new" xlink:title="Examples.BetterDesign.Repository.WarehouseEntities.User-diagram-simplified.svg" xlink:type="simple"><g id="elem_User"><rect codeLine="14" fill="#F1F1F1" height="48" id="User" rx="2.5" ry="2.5" style="stroke:#181818;stroke-width:0.5;" width="63" x="596.5" y="379.5547"/><ellipse cx="611.5" cy="395.5547" fill="#ADD1B2" rx="11" ry="11" style="stroke:#181818;stroke-width:1.0;"/><path d="M613.9731,401.6978 Q613.3921,401.9966 612.7529,402.146 Q612.1138,402.2954 611.4082,402.2954 Q608.9014,402.2954 607.5815,400.6436 Q606.2617,398.9917 606.2617,395.8706 Q606.2617,392.7412 607.5815,391.0894 Q608.9014,389.4375 611.4082,389.4375 Q612.1138,389.4375 612.7612,389.5869 Q613.4087,389.7363 613.9731,390.0352 L613.9731,392.7578 Q613.3423,392.1768 612.7488,391.907 Q612.1553,391.6372 611.5244,391.6372 Q610.1797,391.6372 609.4949,392.7039 Q608.8101,393.7705 608.8101,395.8706 Q608.8101,397.9624 609.4949,399.0291 Q610.1797,400.0957 611.5244,400.0957 Q612.1553,400.0957 612.7488,399.8259 Q613.3423,399.5562 613.9731,398.9751 Z " fill="#000000"/><text fill="#000000" font-family="sans-serif" font-size="14" lengthAdjust="spacing" textLength="31" x="625.5" y="400.8457">User</text><line style="stroke:#181818;stroke-width:0.5;" x1="597.5" x2="658.5" y1="411.5547" y2="411.5547"/><line style="stroke:#181818;stroke-width:0.5;" x1="597.5" x2="658.5" y1="419.5547" y2="419.5547"/></g></a><g id="elem_FloatingNote"><path d="M6,71.5547 L6,319.2129 L492,319.2129 L492,81.5547 L482,71.5547 L6,71.5547 " fill="#FEFFDD" style="stroke:#181818;stroke-width:0.5;"/><path d="M482,71.5547 L482,81.5547 L492,81.5547 L482,71.5547 " fill="#FEFFDD" style="stroke:#181818;stroke-width:1.0;"/><text fill="#000000" font-family="sans-serif" font-size="13" lengthAdjust="spacing" textLength="120" x="12" y="89.123">Your are analyzing:</text><text fill="#000000" font-family="sans-serif" font-size="13" lengthAdjust="spacing" textLength="304" x="12" y="104.4336">Examples.BetterDesign.Repository.DBWarehouse</text><text fill="#000000" font-family="sans-serif" font-size="13" font-weight="bold" lengthAdjust="spacing" textLength="67" x="320" y="104.4336">simplified</text><text fill="#000000" font-family="sans-serif" font-size="13" lengthAdjust="spacing" textLength="4" x="387" y="104.4336">&#160;</text><text fill="#000000" font-family="sans-serif" font-size="13" lengthAdjust="spacing" textLength="4" x="12" y="119.7441">&#160;</text><text fill="#000000" font-family="sans-serif" font-size="13" lengthAdjust="spacing" textLength="229" x="12" y="150.3652">You can click either the namespaces</text><text fill="#000000" font-family="sans-serif" font-size="13" lengthAdjust="spacing" textLength="266" x="12" y="165.6758">or class names for filtering them and their</text><text fill="#000000" font-family="sans-serif" font-size="13" lengthAdjust="spacing" textLength="130" x="12" y="180.9863">direct dependencies.</text><text fill="#000000" font-family="sans-serif" font-size="13" lengthAdjust="spacing" textLength="4" x="12" y="196.2969">&#160;</text><line style="stroke:#181818;stroke-width:1.0;" x1="7" x2="233" y1="130.1416" y2="130.1416"/><line style="stroke:#181818;stroke-width:1.0;" x1="7" x2="233" y1="132.1416" y2="132.1416"/><text fill="#000000" font-family="sans-serif" font-size="13" lengthAdjust="spacing" textLength="32" x="233" y="134.5547">Filter</text><line style="stroke:#181818;stroke-width:1.0;" x1="265" x2="491" y1="130.1416" y2="130.1416"/><line style="stroke:#181818;stroke-width:1.0;" x1="265" x2="491" y1="132.1416" y2="132.1416"/><ellipse cx="17.5" cy="226.1602" fill="#000000" rx="2.5" ry="2.5" style="stroke:#000000;stroke-width:0.0;"/><text fill="#000000" font-family="sans-serif" font-size="13" lengthAdjust="spacing" textLength="304" x="24" y="230.918">Examples.BetterDesign.Repository.DBWarehouse</text><text fill="#000000" font-family="sans-serif" font-size="13" font-weight="bold" lengthAdjust="spacing" textLength="55" x="332" y="230.918">detailed</text><text fill="#000000" font-family="sans-serif" font-size="13" lengthAdjust="spacing" textLength="4" x="391" y="230.918">:</text><text fill="#000000" font-family="sans-serif" font-size="13" lengthAdjust="spacing" textLength="12" x="12" y="246.2285">&#160;&#160;&#160;</text><a href="Examples.BetterDesign.Repository.DBWarehouse-diagram-detailed.svg" target="_top" title="Examples.BetterDesign.Repository.DBWarehouse-diagram-detailed.svg" xlink:actuate="onRequest" xlink:href="Examples.BetterDesign.Repository.DBWarehouse-diagram-detailed.svg" xlink:show="new" xlink:title="Examples.BetterDesign.Repository.DBWarehouse-diagram-detailed.svg" xlink:type="simple"><text fill="#0000FF" font-family="sans-serif" font-size="13" lengthAdjust="spacing" text-decoration="underline" textLength="447" x="24" y="246.2285">Examples.BetterDesign.Repository.DBWarehouse-diagram-detailed.svg</text></a><ellipse cx="17.5" cy="256.7813" fill="#000000" rx="2.5" ry="2.5" style="stroke:#000000;stroke-width:0.0;"/><text fill="#000000" font-family="sans-serif" font-size="13" lengthAdjust="spacing" textLength="78" x="24" y="261.5391">Full diagram</text><text fill="#000000" font-family="sans-serif" font-size="13" font-weight="bold" lengthAdjust="spacing" textLength="67" x="106" y="261.5391">simplified</text><text fill="#000000" font-family="sans-serif" font-size="13" lengthAdjust="spacing" textLength="23" x="177" y="261.5391">and</text><text fill="#000000" font-family="sans-serif" font-size="13" font-weight="bold" lengthAdjust="spacing" textLength="166" x="204" y="261.5391">grouped per namespace</text><text fill="#000000" font-family="sans-serif" font-size="13" lengthAdjust="spacing" textLength="4" x="370" y="261.5391">:</text><text fill="#000000" font-family="sans-serif" font-size="13" lengthAdjust="spacing" textLength="12" x="12" y="276.8496">&#160;&#160;&#160;</text><a href="full-diagram-simplified-grouped-per-namespace.svg" target="_top" title="full-diagram-simplified-grouped-per-namespace.svg" xlink:actuate="onRequest" xlink:href="full-diagram-simplified-grouped-per-namespace.svg" xlink:show="new" xlink:title="full-diagram-simplified-grouped-per-namespace.svg" xlink:type="simple"><text fill="#0000FF" font-family="sans-serif" font-size="13" lengthAdjust="spacing" text-decoration="underline" textLength="343" x="24" y="276.8496">full-diagram-simplified-grouped-per-namespace.svg</text></a><ellipse cx="17.5" cy="287.4023" fill="#000000" rx="2.5" ry="2.5" style="stroke:#000000;stroke-width:0.0;"/><text fill="#000000" font-family="sans-serif" font-size="13" lengthAdjust="spacing" textLength="41" x="24" y="292.1602">Home:</text><text fill="#000000" font-family="sans-serif" font-size="13" lengthAdjust="spacing" textLength="12" x="12" y="307.4707">&#160;&#160;&#160;</text><a href="index.html" target="_top" title="index.html" xlink:actuate="onRequest" xlink:href="index.html" xlink:show="new" xlink:title="index.html" xlink:type="simple"><text fill="#0000FF" font-family="sans-serif" font-size="13" lengthAdjust="spacing" text-decoration="underline" textLength="68" x="24" y="307.4707">index.html</text></a><line style="stroke:#181818;stroke-width:1.0;" x1="7" x2="212" y1="210.6943" y2="210.6943"/><line style="stroke:#181818;stroke-width:1.0;" x1="7" x2="212" y1="212.6943" y2="212.6943"/><text fill="#000000" font-family="sans-serif" font-size="13" lengthAdjust="spacing" textLength="74" x="212" y="215.1074">Select other</text><line style="stroke:#181818;stroke-width:1.0;" x1="286" x2="491" y1="210.6943" y2="210.6943"/><line style="stroke:#181818;stroke-width:1.0;" x1="286" x2="491" y1="212.6943" y2="212.6943"/></g><!--link DBWarehouse to Customer--><g id="link_DBWarehouse_Customer"><path codeLine="21" d="M931.21,195.5547 C998.68,195.5547 1096,195.5547 1096,195.5547 C1096,195.5547 1096,373.2847 1096,373.2847 " fill="none" id="DBWarehouse-to-Customer" style="stroke:#6060BB;stroke-width:1.0;stroke-dasharray:7.0,7.0;"/><polygon fill="#6060BB" points="1096,378.2847,1100,369.2847,1096,373.2847,1092,369.2847,1096,378.2847" style="stroke:#6060BB;stroke-width:1.0;"/><text fill="#000000" font-family="sans-serif" font-size="13" lengthAdjust="spacing" textLength="29" x="1066" y="198.593">uses</text></g><!--link DBWarehouse to Invoice--><g id="link_DBWarehouse_Invoice"><path codeLine="22" d="M913.5,219.8247 C913.5,274.6947 913.5,403.5547 913.5,403.5547 C913.5,403.5547 924.75,403.5547 924.75,403.5547 " fill="none" id="DBWarehouse-to-Invoice" style="stroke:#6060BB;stroke-width:1.0;stroke-dasharray:7.0,7.0;"/><polygon fill="#6060BB" points="929.75,403.5547,920.75,399.5547,924.75,403.5547,920.75,407.5547,929.75,403.5547" style="stroke:#6060BB;stroke-width:1.0;"/><text fill="#000000" font-family="sans-serif" font-size="13" lengthAdjust="spacing" textLength="29" x="883.5" y="313.883">uses</text></g><!--link DBWarehouse to Car--><g id="link_DBWarehouse_Car"><path codeLine="23" d="M868,219.8247 C868,219.8247 868,373.1247 868,373.1247 " fill="none" id="DBWarehouse-to-Car" style="stroke:#6060BB;stroke-width:1.0;stroke-dasharray:7.0,7.0;"/><polygon fill="#6060BB" points="868,378.1247,872,369.1247,868,373.1247,864,369.1247,868,378.1247" style="stroke:#6060BB;stroke-width:1.0;"/><text fill="#000000" font-family="sans-serif" font-size="13" lengthAdjust="spacing" textLength="29" x="838" y="293.043">uses</text></g><!--link DBWarehouse to Complaints--><g id="link_DBWarehouse_Complaints"><path codeLine="24" d="M822.5,219.8247 C822.5,274.6947 822.5,403.5547 822.5,403.5547 C822.5,403.5547 811.32,403.5547 811.32,403.5547 " fill="none" id="DBWarehouse-to-Complaints" style="stroke:#6060BB;stroke-width:1.0;stroke-dasharray:7.0,7.0;"/><polygon fill="#6060BB" points="806.32,403.5547,815.32,407.5547,811.32,403.5547,815.32,399.5547,806.32,403.5547" style="stroke:#6060BB;stroke-width:1.0;"/><text fill="#000000" font-family="sans-serif" font-size="13" lengthAdjust="spacing" textLength="29" x="792.5" y="313.843">uses</text></g><!--link DBWarehouse to User--><g id="link_DBWarehouse_User"><path codeLine="25" d="M804.63,195.5547 C733.52,195.5547 628,195.5547 628,195.5547 C628,195.5547 628,373.2847 628,373.2847 " fill="none" id="DBWarehouse-to-User" style="stroke:#6060BB;stroke-width:1.0;stroke-dasharray:7.0,7.0;"/><polygon fill="#6060BB" points="628,378.2847,632,369.2847,628,373.2847,624,369.2847,628,378.2847" style="stroke:#6060BB;stroke-width:1.0;"/><text fill="#000000" font-family="sans-serif" font-size="13" lengthAdjust="spacing" textLength="29" x="598" y="192.673">uses</text></g><!--SRC=[nLHBQzj04BxxLmp98I2GQdh8mSG-s8bfBpcab58i7HPf90zPxOhTLMgdzBztLfObQ0cnbSJMOT5ZliTysXtxIAeIHfGWIQ7RLWZQkBKUEN8IuSRICqu-ZsTt6r5M4cqqH-VGtAAbGaKFM6bBJfjjT3l_8GokTMqHWi0ILrDEc0K1t7poBBEHqWxXugUk3N0f22NazfbKCOdLM-XZ5QlfT4cIWTDfh5W0Kg4WbPG-0f9Rem5UG8aIRILIj8pHXWk4jRktaFDptb2m8LzTih_Ctv29LKO6KmSPLgWoL2cnqvtiDvJ-Y_OYNZo08rl9q0cIJIES0m2iLiSmX1c9WdzVkEU9x5EH9Dx8ifOIsi__PkPx2uB2wBh232eEg0id2FO-SYRe-7jusC92XeKThDVzealSKn37jOdMhfH9SW72mb9guJZYUzuB8ovfVy9HeGrCgEzWvnKkjoYb_WM_6oD_clLWGnt_dUAZuZV4ehQEMpU7-7iP_RBTrkSxEFsgdZIbECne2pw5puKO6gOuIOuBpGX1ojc1DZlyATn-jqFtfaSUvl2Afyf15tnOxHKiceGCIfuqMbd0ZJCYTJpeSgFBVj9DkFQrD4P7JQPeTNazlXxFvqaqUzC8WGdmUmkdbT_FXVEe-zD-9kN-79_7G7CqE-dttS7_o_q5]--></g></svg>