<?xml version="1.0" encoding="us-ascii" standalone="no"?><svg xmlns="http://www.w3.org/2000/svg" xmlns:xlink="http://www.w3.org/1999/xlink" contentStyleType="text/css" height="663px" preserveAspectRatio="none" style="width:2419px;height:663px;background:#FFFFFF;" version="1.1" viewBox="0 0 2419 663" width="2419px" zoomAndPan="magnify"><defs/><g><text fill="#000000" font-family="sans-serif" font-size="20" font-weight="bold" lengthAdjust="spacing" textLength="651" x="828" y="29.3359">Examples.BetterDesign.Repository.CarExample.CarParts.Wheels</text><text fill="#000000" font-family="sans-serif" font-size="20" font-weight="bold" lengthAdjust="spacing" textLength="84" x="1486" y="29.3359">detailed</text><text fill="#000000" font-family="sans-serif" font-size="20" font-weight="bold" lengthAdjust="spacing" textLength="7" x="1570" y="29.3359">&#160;</text><!--cluster Examples--><g id="cluster_Examples"><path d="M616.5,50.5547 L685.5,50.5547 A3.75,3.75 0 0 1 688,53.0547 L695,73.043 L2409.5,73.043 A2.5,2.5 0 0 1 2412,75.543 L2412,654.0547 A2.5,2.5 0 0 1 2409.5,656.5547 L616.5,656.5547 A2.5,2.5 0 0 1 614,654.0547 L614,53.0547 A2.5,2.5 0 0 1 616.5,50.5547 " fill="none" style="stroke:#000000;stroke-width:1.5;"/><line style="stroke:#000000;stroke-width:1.5;" x1="614" x2="695" y1="73.043" y2="73.043"/><text fill="#000000" font-family="sans-serif" font-size="14" font-weight="bold" lengthAdjust="spacing" textLength="68" x="618" y="66.0898">Examples</text></g><!--cluster BetterDesign--><g id="cluster_BetterDesign"><path d="M640.5,93.5547 L734.5,93.5547 A3.75,3.75 0 0 1 737,96.0547 L744,116.043 L2385.5,116.043 A2.5,2.5 0 0 1 2388,118.543 L2388,630.0547 A2.5,2.5 0 0 1 2385.5,632.5547 L640.5,632.5547 A2.5,2.5 0 0 1 638,630.0547 L638,96.0547 A2.5,2.5 0 0 1 640.5,93.5547 " fill="none" style="stroke:#000000;stroke-width:1.5;"/><line style="stroke:#000000;stroke-width:1.5;" x1="638" x2="744" y1="116.043" y2="116.043"/><text fill="#000000" font-family="sans-serif" font-size="14" font-weight="bold" lengthAdjust="spacing" textLength="93" x="642" y="109.0898">BetterDesign</text></g><!--cluster Repository--><g id="cluster_Repository"><path d="M664.5,136.5547 L743.5,136.5547 A3.75,3.75 0 0 1 746,139.0547 L753,159.043 L2361.5,159.043 A2.5,2.5 0 0 1 2364,161.543 L2364,606.0547 A2.5,2.5 0 0 1 2361.5,608.5547 L664.5,608.5547 A2.5,2.5 0 0 1 662,606.0547 L662,139.0547 A2.5,2.5 0 0 1 664.5,136.5547 " fill="none" style="stroke:#000000;stroke-width:1.5;"/><line style="stroke:#000000;stroke-width:1.5;" x1="662" x2="753" y1="159.043" y2="159.043"/><text fill="#000000" font-family="sans-serif" font-size="14" font-weight="bold" lengthAdjust="spacing" textLength="78" x="666" y="152.0898">Repository</text></g><!--cluster CarExample--><g id="cluster_CarExample"><path d="M1698.5,179.5547 L1783.5,179.5547 A3.75,3.75 0 0 1 1786,182.0547 L1793,202.043 L2337.5,202.043 A2.5,2.5 0 0 1 2340,204.543 L2340,582.0547 A2.5,2.5 0 0 1 2337.5,584.5547 L1698.5,584.5547 A2.5,2.5 0 0 1 1696,582.0547 L1696,182.0547 A2.5,2.5 0 0 1 1698.5,179.5547 " fill="none" style="stroke:#000000;stroke-width:1.5;"/><line style="stroke:#000000;stroke-width:1.5;" x1="1696" x2="1793" y1="202.043" y2="202.043"/><text fill="#000000" font-family="sans-serif" font-size="14" font-weight="bold" lengthAdjust="spacing" textLength="84" x="1700" y="195.0898">CarExample</text></g><!--cluster CarParts--><g id="cluster_CarParts"><path d="M1780.5,428.5547 L1842.5,428.5547 A3.75,3.75 0 0 1 1845,431.0547 L1852,451.043 L2139.5,451.043 A2.5,2.5 0 0 1 2142,453.543 L2142,558.0547 A2.5,2.5 0 0 1 2139.5,560.5547 L1780.5,560.5547 A2.5,2.5 0 0 1 1778,558.0547 L1778,431.0547 A2.5,2.5 0 0 1 1780.5,428.5547 " fill="none" style="stroke:#000000;stroke-width:1.5;"/><line style="stroke:#000000;stroke-width:1.5;" x1="1778" x2="1852" y1="451.043" y2="451.043"/><text fill="#000000" font-family="sans-serif" font-size="14" font-weight="bold" lengthAdjust="spacing" textLength="61" x="1782" y="444.0898">CarParts</text></g><!--class DBCar--><a href="Examples.BetterDesign.Repository.DBCar-diagram-detailed.svg" target="_top" title="Examples.BetterDesign.Repository.DBCar-diagram-detailed.svg" xlink:actuate="onRequest" xlink:href="Examples.BetterDesign.Repository.DBCar-diagram-detailed.svg" xlink:show="new" xlink:title="Examples.BetterDesign.Repository.DBCar-diagram-detailed.svg" xlink:type="simple"><g id="elem_DBCar"><rect codeLine="4" fill="#F1F1F1" height="196.3945" id="DBCar" rx="2.5" ry="2.5" style="stroke:#181818;stroke-width:0.5;" width="999" x="678.5" y="181.5547"/><ellipse cx="1152.75" cy="197.5547" fill="#ADD1B2" rx="11" ry="11" style="stroke:#181818;stroke-width:1.0;"/><path d="M1155.2231,203.6978 Q1154.6421,203.9966 1154.0029,204.146 Q1153.3638,204.2954 1152.6582,204.2954 Q1150.1514,204.2954 1148.8315,202.6436 Q1147.5117,200.9917 1147.5117,197.8706 Q1147.5117,194.7412 1148.8315,193.0894 Q1150.1514,191.4375 1152.6582,191.4375 Q1153.3638,191.4375 1154.0112,191.5869 Q1154.6587,191.7363 1155.2231,192.0352 L1155.2231,194.7578 Q1154.5923,194.1768 1153.9988,193.907 Q1153.4053,193.6372 1152.7744,193.6372 Q1151.4297,193.6372 1150.7449,194.7039 Q1150.0601,195.7705 1150.0601,197.8706 Q1150.0601,199.9624 1150.7449,201.0291 Q1151.4297,202.0957 1152.7744,202.0957 Q1153.4053,202.0957 1153.9988,201.8259 Q1154.5923,201.5562 1155.2231,200.9751 Z " fill="#000000"/><text fill="#000000" font-family="sans-serif" font-size="14" lengthAdjust="spacing" textLength="42" x="1173.25" y="202.8457">DBCar</text><line style="stroke:#181818;stroke-width:0.5;" x1="679.5" x2="1676.5" y1="213.5547" y2="213.5547"/><line style="stroke:#181818;stroke-width:0.5;" x1="679.5" x2="1676.5" y1="221.5547" y2="221.5547"/><ellipse cx="689.5" cy="235.2988" fill="#84BE84" rx="3" ry="3" style="stroke:#038048;stroke-width:1.0;"/><text fill="#000000" font-family="sans-serif" font-size="14" lengthAdjust="spacing" textLength="122" x="698.5" y="239.0898">getCarsForDriver(</text><text fill="#6060BB" font-family="sans-serif" font-size="14" lengthAdjust="spacing" textLength="472" x="820.5" y="239.0898">driver:Examples.BetterDesign.Repository.CarExample.CarParts.Driver</text><text fill="#000000" font-family="sans-serif" font-size="14" lengthAdjust="spacing" textLength="9" x="1292.5" y="239.0898">):</text><text fill="#BB6060" font-family="sans-serif" font-size="14" lengthAdjust="spacing" textLength="41" x="1305.5" y="239.0898">String</text><ellipse cx="689.5" cy="251.7871" fill="#84BE84" rx="3" ry="3" style="stroke:#038048;stroke-width:1.0;"/><text fill="#000000" font-family="sans-serif" font-size="14" lengthAdjust="spacing" textLength="77" x="698.5" y="255.5781">updateCar(</text><text fill="#6060BB" font-family="sans-serif" font-size="14" lengthAdjust="spacing" textLength="844" x="775.5" y="255.5781">car:Examples.BetterDesign.Repository.CarExample.Car, seats:Examples.BetterDesign.Repository.CarExample.CarParts.Seats</text><text fill="#000000" font-family="sans-serif" font-size="14" lengthAdjust="spacing" textLength="9" x="1619.5" y="255.5781">):</text><text fill="#BB6060" font-family="sans-serif" font-size="14" lengthAdjust="spacing" textLength="29" x="1632.5" y="255.5781">void</text><ellipse cx="689.5" cy="268.2754" fill="#84BE84" rx="3" ry="3" style="stroke:#038048;stroke-width:1.0;"/><text fill="#000000" font-family="sans-serif" font-size="14" lengthAdjust="spacing" textLength="77" x="698.5" y="272.0664">updateCar(</text><text fill="#6060BB" font-family="sans-serif" font-size="14" lengthAdjust="spacing" textLength="854" x="775.5" y="272.0664">car:Examples.BetterDesign.Repository.CarExample.Car, doors:Examples.BetterDesign.Repository.CarExample.CarParts.Doors</text><text fill="#000000" font-family="sans-serif" font-size="14" lengthAdjust="spacing" textLength="9" x="1629.5" y="272.0664">):</text><text fill="#BB6060" font-family="sans-serif" font-size="14" lengthAdjust="spacing" textLength="29" x="1642.5" y="272.0664">void</text><ellipse cx="689.5" cy="284.7637" fill="#84BE84" rx="3" ry="3" style="stroke:#038048;stroke-width:1.0;"/><text fill="#000000" font-family="sans-serif" font-size="14" lengthAdjust="spacing" textLength="70" x="698.5" y="288.5547">sellCarTo(</text><text fill="#6060BB" font-family="sans-serif" font-size="14" lengthAdjust="spacing" textLength="854" x="768.5" y="288.5547">car:Examples.BetterDesign.Repository.CarExample.Car, driver:Examples.BetterDesign.Repository.CarExample.CarParts.Driver</text><text fill="#000000" font-family="sans-serif" font-size="14" lengthAdjust="spacing" textLength="9" x="1622.5" y="288.5547">):</text><text fill="#BB6060" font-family="sans-serif" font-size="14" lengthAdjust="spacing" textLength="29" x="1635.5" y="288.5547">void</text><ellipse cx="689.5" cy="301.252" fill="#84BE84" rx="3" ry="3" style="stroke:#038048;stroke-width:1.0;"/><text fill="#000000" font-family="sans-serif" font-size="14" lengthAdjust="spacing" textLength="51" x="698.5" y="305.043">getCar(</text><text fill="#6060BB" font-family="sans-serif" font-size="14" lengthAdjust="spacing" textLength="441" x="749.5" y="305.043">d:Examples.BetterDesign.Repository.CarExample.CarParts.Driver</text><text fill="#000000" font-family="sans-serif" font-size="14" lengthAdjust="spacing" textLength="9" x="1190.5" y="305.043">):</text><text fill="#BB6060" font-family="sans-serif" font-size="14" lengthAdjust="spacing" textLength="349" x="1203.5" y="305.043">Examples.BetterDesign.Repository.CarExample.Car</text><ellipse cx="689.5" cy="317.7402" fill="#84BE84" rx="3" ry="3" style="stroke:#038048;stroke-width:1.0;"/><text fill="#000000" font-family="sans-serif" font-size="14" lengthAdjust="spacing" textLength="68" x="698.5" y="321.5313">getDriver(</text><text fill="#6060BB" font-family="sans-serif" font-size="14" lengthAdjust="spacing" textLength="360" x="766.5" y="321.5313">c:Examples.BetterDesign.Repository.CarExample.Car</text><text fill="#000000" font-family="sans-serif" font-size="14" lengthAdjust="spacing" textLength="9" x="1126.5" y="321.5313">):</text><text fill="#BB6060" font-family="sans-serif" font-size="14" lengthAdjust="spacing" textLength="428" x="1139.5" y="321.5313">Examples.BetterDesign.Repository.CarExample.CarParts.Driver</text><ellipse cx="689.5" cy="334.2285" fill="#84BE84" rx="3" ry="3" style="stroke:#038048;stroke-width:1.0;"/><text fill="#000000" font-family="sans-serif" font-size="14" lengthAdjust="spacing" textLength="75" x="698.5" y="338.0195">getWheels(</text><text fill="#6060BB" font-family="sans-serif" font-size="14" lengthAdjust="spacing" textLength="360" x="773.5" y="338.0195">c:Examples.BetterDesign.Repository.CarExample.Car</text><text fill="#000000" font-family="sans-serif" font-size="14" lengthAdjust="spacing" textLength="9" x="1133.5" y="338.0195">):</text><text fill="#BB6060" font-family="sans-serif" font-size="14" lengthAdjust="spacing" textLength="435" x="1146.5" y="338.0195">Examples.BetterDesign.Repository.CarExample.CarParts.Wheels</text><ellipse cx="689.5" cy="350.7168" fill="#84BE84" rx="3" ry="3" style="stroke:#038048;stroke-width:1.0;"/><text fill="#000000" font-family="sans-serif" font-size="14" lengthAdjust="spacing" textLength="68" x="698.5" y="354.5078">getDoors(</text><text fill="#6060BB" font-family="sans-serif" font-size="14" lengthAdjust="spacing" textLength="360" x="766.5" y="354.5078">c:Examples.BetterDesign.Repository.CarExample.Car</text><text fill="#000000" font-family="sans-serif" font-size="14" lengthAdjust="spacing" textLength="9" x="1126.5" y="354.5078">):</text><text fill="#BB6060" font-family="sans-serif" font-size="14" lengthAdjust="spacing" textLength="428" x="1139.5" y="354.5078">Examples.BetterDesign.Repository.CarExample.CarParts.Doors</text><ellipse cx="689.5" cy="367.2051" fill="#84BE84" rx="3" ry="3" style="stroke:#038048;stroke-width:1.0;"/><text fill="#000000" font-family="sans-serif" font-size="14" lengthAdjust="spacing" textLength="63" x="698.5" y="370.9961">getSeats(</text><text fill="#6060BB" font-family="sans-serif" font-size="14" lengthAdjust="spacing" textLength="360" x="761.5" y="370.9961">c:Examples.BetterDesign.Repository.CarExample.Car</text><text fill="#000000" font-family="sans-serif" font-size="14" lengthAdjust="spacing" textLength="9" x="1121.5" y="370.9961">):</text><text fill="#BB6060" font-family="sans-serif" font-size="14" lengthAdjust="spacing" textLength="423" x="1134.5" y="370.9961">Examples.BetterDesign.Repository.CarExample.CarParts.Seats</text></g></a><!--class Car--><a href="Examples.BetterDesign.Repository.CarExample.Car-diagram-detailed.svg" target="_top" title="Examples.BetterDesign.Repository.CarExample.Car-diagram-detailed.svg" xlink:actuate="onRequest" xlink:href="Examples.BetterDesign.Repository.CarExample.Car-diagram-detailed.svg" xlink:show="new" xlink:title="Examples.BetterDesign.Repository.CarExample.Car-diagram-detailed.svg" xlink:type="simple"><g id="elem_Car"><rect codeLine="15" fill="#F1F1F1" height="130.4414" id="Car" rx="2.5" ry="2.5" style="stroke:#181818;stroke-width:0.5;" width="611" x="1712.5" y="214.5547"/><ellipse cx="2001.75" cy="230.5547" fill="#ADD1B2" rx="11" ry="11" style="stroke:#181818;stroke-width:1.0;"/><path d="M2004.2231,236.6978 Q2003.6421,236.9966 2003.0029,237.146 Q2002.3638,237.2954 2001.6582,237.2954 Q1999.1514,237.2954 1997.8315,235.6436 Q1996.5117,233.9917 1996.5117,230.8706 Q1996.5117,227.7412 1997.8315,226.0894 Q1999.1514,224.4375 2001.6582,224.4375 Q2002.3638,224.4375 2003.0112,224.5869 Q2003.6587,224.7363 2004.2231,225.0352 L2004.2231,227.7578 Q2003.5923,227.1768 2002.9988,226.907 Q2002.4053,226.6372 2001.7744,226.6372 Q2000.4297,226.6372 1999.7449,227.7039 Q1999.0601,228.7705 1999.0601,230.8706 Q1999.0601,232.9624 1999.7449,234.0291 Q2000.4297,235.0957 2001.7744,235.0957 Q2002.4053,235.0957 2002.9988,234.8259 Q2003.5923,234.5562 2004.2231,233.9751 Z " fill="#000000"/><text fill="#000000" font-family="sans-serif" font-size="14" lengthAdjust="spacing" textLength="24" x="2022.25" y="235.8457">Car</text><line style="stroke:#181818;stroke-width:0.5;" x1="1713.5" x2="2322.5" y1="246.5547" y2="246.5547"/><ellipse cx="1723.5" cy="260.2988" fill="none" rx="3" ry="3" style="stroke:#038048;stroke-width:1.0;"/><text fill="#000000" font-family="sans-serif" font-size="14" lengthAdjust="spacing" textLength="490" x="1732.5" y="264.0898">wheels: Examples.BetterDesign.Repository.CarExample.CarParts.Wheels</text><ellipse cx="1723.5" cy="276.7871" fill="none" rx="3" ry="3" style="stroke:#038048;stroke-width:1.0;"/><text fill="#000000" font-family="sans-serif" font-size="14" lengthAdjust="spacing" textLength="466" x="1732.5" y="280.5781">seats: Examples.BetterDesign.Repository.CarExample.CarParts.Seats</text><ellipse cx="1723.5" cy="293.2754" fill="none" rx="3" ry="3" style="stroke:#038048;stroke-width:1.0;"/><text fill="#000000" font-family="sans-serif" font-size="14" lengthAdjust="spacing" textLength="476" x="1732.5" y="297.0664">driver: Examples.BetterDesign.Repository.CarExample.CarParts.Driver</text><ellipse cx="1723.5" cy="309.7637" fill="none" rx="3" ry="3" style="stroke:#038048;stroke-width:1.0;"/><text fill="#000000" font-family="sans-serif" font-size="14" lengthAdjust="spacing" textLength="476" x="1732.5" y="313.5547">doors: Examples.BetterDesign.Repository.CarExample.CarParts.Doors</text><line style="stroke:#181818;stroke-width:1.0;" x1="1713.5" x2="2322.5" y1="320.5078" y2="320.5078"/><line style="stroke:#181818;stroke-width:1.0;" x1="1713.5" x2="2322.5" y1="322.5078" y2="322.5078"/><ellipse cx="1723.5" cy="334.252" fill="#84BE84" rx="3" ry="3" style="stroke:#038048;stroke-width:1.0;"/><text fill="#000000" font-family="sans-serif" font-size="14" lengthAdjust="spacing" textLength="71" x="1732.5" y="338.043">createCar(</text><text fill="#6060BB" font-family="sans-serif" font-size="14" lengthAdjust="spacing" textLength="472" x="1803.5" y="338.043">doors:Examples.BetterDesign.Repository.CarExample.CarParts.Doors</text><text fill="#000000" font-family="sans-serif" font-size="14" lengthAdjust="spacing" textLength="9" x="2275.5" y="338.043">):</text><text fill="#BB6060" font-family="sans-serif" font-size="14" lengthAdjust="spacing" textLength="29" x="2288.5" y="338.043">void</text></g></a><!--class Wheels--><a href="Examples.BetterDesign.Repository.CarExample.CarParts.Wheels-diagram-detailed.svg" target="_top" title="Examples.BetterDesign.Repository.CarExample.CarParts.Wheels-diagram-detailed.svg" xlink:actuate="onRequest" xlink:href="Examples.BetterDesign.Repository.CarExample.CarParts.Wheels-diagram-detailed.svg" xlink:show="new" xlink:title="Examples.BetterDesign.Repository.CarExample.CarParts.Wheels-diagram-detailed.svg" xlink:type="simple"><g id="elem_Wheels"><rect codeLine="23" fill="#FFFF00" height="80.9766" id="Wheels" rx="2.5" ry="2.5" style="stroke:#181818;stroke-width:0.5;" width="332" x="1794" y="463.5547"/><ellipse cx="1931.75" cy="479.5547" fill="#ADD1B2" rx="11" ry="11" style="stroke:#181818;stroke-width:1.0;"/><path d="M1934.2231,485.6978 Q1933.6421,485.9966 1933.0029,486.146 Q1932.3638,486.2954 1931.6582,486.2954 Q1929.1514,486.2954 1927.8315,484.6436 Q1926.5117,482.9917 1926.5117,479.8706 Q1926.5117,476.7412 1927.8315,475.0894 Q1929.1514,473.4375 1931.6582,473.4375 Q1932.3638,473.4375 1933.0112,473.5869 Q1933.6587,473.7363 1934.2231,474.0352 L1934.2231,476.7578 Q1933.5923,476.1768 1932.9988,475.907 Q1932.4053,475.6372 1931.7744,475.6372 Q1930.4297,475.6372 1929.7449,476.7039 Q1929.0601,477.7705 1929.0601,479.8706 Q1929.0601,481.9624 1929.7449,483.0291 Q1930.4297,484.0957 1931.7744,484.0957 Q1932.4053,484.0957 1932.9988,483.8259 Q1933.5923,483.5562 1934.2231,482.9751 Z " fill="#000000"/><text fill="#000000" font-family="sans-serif" font-size="14" lengthAdjust="spacing" textLength="48" x="1952.25" y="484.8457">Wheels</text><line style="stroke:#181818;stroke-width:0.5;" x1="1795" x2="2125" y1="495.5547" y2="495.5547"/><ellipse cx="1805" cy="509.2988" fill="none" rx="3" ry="3" style="stroke:#038048;stroke-width:1.0;"/><text fill="#000000" font-family="sans-serif" font-size="14" lengthAdjust="spacing" textLength="306" x="1814" y="513.0898">db: Examples.BetterDesign.Repository.DBCar</text><line style="stroke:#181818;stroke-width:1.0;" x1="1795" x2="2125" y1="520.043" y2="520.043"/><line style="stroke:#181818;stroke-width:1.0;" x1="1795" x2="2125" y1="522.043" y2="522.043"/><ellipse cx="1805" cy="533.7871" fill="#84BE84" rx="3" ry="3" style="stroke:#038048;stroke-width:1.0;"/><text fill="#000000" font-family="sans-serif" font-size="14" lengthAdjust="spacing" textLength="74" x="1814" y="537.5781">getWeight(</text><text fill="#000000" font-family="sans-serif" font-size="14" lengthAdjust="spacing" textLength="9" x="1888" y="537.5781">):</text><text fill="#BB6060" font-family="sans-serif" font-size="14" lengthAdjust="spacing" textLength="18" x="1901" y="537.5781">int</text></g></a><g id="elem_FloatingNote"><path d="M6,155.5547 L6,403.2129 L598,403.2129 L598,165.5547 L588,155.5547 L6,155.5547 " fill="#FEFFDD" style="stroke:#181818;stroke-width:0.5;"/><path d="M588,155.5547 L588,165.5547 L598,165.5547 L588,155.5547 " fill="#FEFFDD" style="stroke:#181818;stroke-width:1.0;"/><text fill="#000000" font-family="sans-serif" font-size="13" lengthAdjust="spacing" textLength="120" x="12" y="173.123">Your are analyzing:</text><text fill="#000000" font-family="sans-serif" font-size="13" lengthAdjust="spacing" textLength="397" x="12" y="188.4336">Examples.BetterDesign.Repository.CarExample.CarParts.Wheels</text><text fill="#000000" font-family="sans-serif" font-size="13" font-weight="bold" lengthAdjust="spacing" textLength="55" x="413" y="188.4336">detailed</text><text fill="#000000" font-family="sans-serif" font-size="13" lengthAdjust="spacing" textLength="4" x="468" y="188.4336">&#160;</text><text fill="#000000" font-family="sans-serif" font-size="13" lengthAdjust="spacing" textLength="4" x="12" y="203.7441">&#160;</text><text fill="#000000" font-family="sans-serif" font-size="13" lengthAdjust="spacing" textLength="229" x="12" y="234.3652">You can click either the namespaces</text><text fill="#000000" font-family="sans-serif" font-size="13" lengthAdjust="spacing" textLength="266" x="12" y="249.6758">or class names for filtering them and their</text><text fill="#000000" font-family="sans-serif" font-size="13" lengthAdjust="spacing" textLength="130" x="12" y="264.9863">direct dependencies.</text><text fill="#000000" font-family="sans-serif" font-size="13" lengthAdjust="spacing" textLength="4" x="12" y="280.2969">&#160;</text><line style="stroke:#181818;stroke-width:1.0;" x1="7" x2="286" y1="214.1416" y2="214.1416"/><line style="stroke:#181818;stroke-width:1.0;" x1="7" x2="286" y1="216.1416" y2="216.1416"/><text fill="#000000" font-family="sans-serif" font-size="13" lengthAdjust="spacing" textLength="32" x="286" y="218.5547">Filter</text><line style="stroke:#181818;stroke-width:1.0;" x1="318" x2="597" y1="214.1416" y2="214.1416"/><line style="stroke:#181818;stroke-width:1.0;" x1="318" x2="597" y1="216.1416" y2="216.1416"/><ellipse cx="17.5" cy="310.1602" fill="#000000" rx="2.5" ry="2.5" style="stroke:#000000;stroke-width:0.0;"/><text fill="#000000" font-family="sans-serif" font-size="13" lengthAdjust="spacing" textLength="397" x="24" y="314.918">Examples.BetterDesign.Repository.CarExample.CarParts.Wheels</text><text fill="#000000" font-family="sans-serif" font-size="13" font-weight="bold" lengthAdjust="spacing" textLength="67" x="425" y="314.918">simplified</text><text fill="#000000" font-family="sans-serif" font-size="13" lengthAdjust="spacing" textLength="4" x="496" y="314.918">:</text><text fill="#000000" font-family="sans-serif" font-size="13" lengthAdjust="spacing" textLength="12" x="12" y="330.2285">&#160;&#160;&#160;</text><a href="Examples.BetterDesign.Repository.CarExample.CarParts.Wheels-diagram-simplified.svg" target="_top" title="Examples.BetterDesign.Repository.CarExample.CarParts.Wheels-diagram-simplified.svg" xlink:actuate="onRequest" xlink:href="Examples.BetterDesign.Repository.CarExample.CarParts.Wheels-diagram-simplified.svg" xlink:show="new" xlink:title="Examples.BetterDesign.Repository.CarExample.CarParts.Wheels-diagram-simplified.svg" xlink:type="simple"><text fill="#0000FF" font-family="sans-serif" font-size="13" lengthAdjust="spacing" text-decoration="underline" textLength="553" x="24" y="330.2285">Examples.BetterDesign.Repository.CarExample.CarParts.Wheels-diagram-simplified.svg</text></a><ellipse cx="17.5" cy="340.7813" fill="#000000" rx="2.5" ry="2.5" style="stroke:#000000;stroke-width:0.0;"/><text fill="#000000" font-family="sans-serif" font-size="13" lengthAdjust="spacing" textLength="78" x="24" y="345.5391">Full diagram</text><text fill="#000000" font-family="sans-serif" font-size="13" font-weight="bold" lengthAdjust="spacing" textLength="55" x="106" y="345.5391">detailed</text><text fill="#000000" font-family="sans-serif" font-size="13" lengthAdjust="spacing" textLength="23" x="165" y="345.5391">and</text><text fill="#000000" font-family="sans-serif" font-size="13" font-weight="bold" lengthAdjust="spacing" textLength="166" x="192" y="345.5391">grouped per namespace</text><text fill="#000000" font-family="sans-serif" font-size="13" lengthAdjust="spacing" textLength="4" x="358" y="345.5391">:</text><text fill="#000000" font-family="sans-serif" font-size="13" lengthAdjust="spacing" textLength="12" x="12" y="360.8496">&#160;&#160;&#160;</text><a href="full-diagram-detailed-grouped-per-namespace.svg" target="_top" title="full-diagram-detailed-grouped-per-namespace.svg" xlink:actuate="onRequest" xlink:href="full-diagram-detailed-grouped-per-namespace.svg" xlink:show="new" xlink:title="full-diagram-detailed-grouped-per-namespace.svg" xlink:type="simple"><text fill="#0000FF" font-family="sans-serif" font-size="13" lengthAdjust="spacing" text-decoration="underline" textLength="330" x="24" y="360.8496">full-diagram-detailed-grouped-per-namespace.svg</text></a><ellipse cx="17.5" cy="371.4023" fill="#000000" rx="2.5" ry="2.5" style="stroke:#000000;stroke-width:0.0;"/><text fill="#000000" font-family="sans-serif" font-size="13" lengthAdjust="spacing" textLength="41" x="24" y="376.1602">Home:</text><text fill="#000000" font-family="sans-serif" font-size="13" lengthAdjust="spacing" textLength="12" x="12" y="391.4707">&#160;&#160;&#160;</text><a href="index.html" target="_top" title="index.html" xlink:actuate="onRequest" xlink:href="index.html" xlink:show="new" xlink:title="index.html" xlink:type="simple"><text fill="#0000FF" font-family="sans-serif" font-size="13" lengthAdjust="spacing" text-decoration="underline" textLength="68" x="24" y="391.4707">index.html</text></a><line style="stroke:#181818;stroke-width:1.0;" x1="7" x2="265" y1="294.6943" y2="294.6943"/><line style="stroke:#181818;stroke-width:1.0;" x1="7" x2="265" y1="296.6943" y2="296.6943"/><text fill="#000000" font-family="sans-serif" font-size="13" lengthAdjust="spacing" textLength="74" x="265" y="299.1074">Select other</text><line style="stroke:#181818;stroke-width:1.0;" x1="339" x2="597" y1="294.6943" y2="294.6943"/><line style="stroke:#181818;stroke-width:1.0;" x1="339" x2="597" y1="296.6943" y2="296.6943"/></g><!--link DBCar to Car--><g id="link_DBCar_Car"><path codeLine="33" d="M1677.85,279.5547 C1677.85,279.5547 1706.16,279.5547 1706.16,279.5547 " fill="none" id="DBCar-to-Car" style="stroke:#6060BB;stroke-width:1.0;stroke-dasharray:7.0,7.0;"/><polygon fill="#6060BB" points="1711.16,279.5547,1702.16,275.5547,1706.16,279.5547,1702.16,283.5547,1711.16,279.5547" style="stroke:#6060BB;stroke-width:1.0;"/><text fill="#000000" font-family="sans-serif" font-size="13" lengthAdjust="spacing" textLength="29" x="1677.51" y="293.123">uses</text></g><!--link DBCar to Wheels--><g id="link_DBCar_Wheels"><path codeLine="34" d="M1677.96,355.5547 C1831.09,355.5547 1960,355.5547 1960,355.5547 C1960,355.5547 1960,457.0847 1960,457.0847 " fill="none" id="DBCar-to-Wheels" style="stroke:#6060BB;stroke-width:1.0;stroke-dasharray:7.0,7.0;"/><polygon fill="#6060BB" points="1960,462.0847,1964,453.0847,1960,457.0847,1956,453.0847,1960,462.0847" style="stroke:#6060BB;stroke-width:1.0;"/><text fill="#000000" font-family="sans-serif" font-size="13" lengthAdjust="spacing" textLength="29" x="1839.74" y="369.123">uses</text></g><!--reverse link Wheels to DBCar--><g id="link_Wheels_DBCar"><path codeLine="40" d="M1877,449.1747 C1877,449.1747 1877,366.5547 1877,366.5547 C1877,366.5547 1790.13,366.5547 1677.63,366.5547 " fill="none" id="Wheels-backto-DBCar" style="stroke:#10BB10;stroke-width:1.0;"/><polygon fill="#10BB10" points="1877,462.1747,1881,456.1747,1877,450.1747,1873,456.1747,1877,462.1747" style="stroke:#10BB10;stroke-width:1.0;"/></g><!--reverse link Car to Wheels--><g id="link_Car_Wheels"><path codeLine="37" d="M2043,358.7947 C2043,358.7947 2043,463.0647 2043,463.0647 " fill="none" id="Car-backto-Wheels" style="stroke:#10BB10;stroke-width:1.0;"/><polygon fill="#10BB10" points="2043,345.7947,2039,351.7947,2043,357.7947,2047,351.7947,2043,345.7947" style="stroke:#10BB10;stroke-width:1.0;"/></g><!--SRC=[pLV1Rjf04BtxAqRaaDQj7Tf33XPm81JrL5LDfQe23bjxW5NMkzRkaeHK-VVEsiOnBGrW80e7PF3Cc_VUZdV7veRBZ6cMWk0IxJ93KDhEbMUv5GWTmnym-jZkVRfdQIRGX7sq5lK03P_9y1jcod2hz3AyOhgCSPTVcROc_35750PyFq7BkC34zw5puI1xdbGMeVLJBJGmZS0a4yi7BcVHM1wjrbYEPRSxv89Gkjsnf6eGCmcnuF4D8BTpr41V85cA9cCn6ifHcWAOCSM_CANVqno2sBdebCWcxeBhiKounjX2WXdA16NCYNPHzXg5kwDS4LVSXyDq6Kut-9JdoiWb01YD3e0C4ivcjF314t1eRcUJYQCwN0W1PS2wfqwxxy-qMcIOG4O6LkRv_ehMbD8h_5LoK2O5b1HKIKyrFwiKLm2SpBmFvpOLaqaBc86XKCpI0doXjl4ef5oYhVe7VPAzYr5vu3-S2tO0l_EQ0EzWXfO2pL3fWUQtgDzqfafQY9LGkjkwR5-s-_rMBydlHOsMfy3jN3ZStji8rWhq-wv4gtTjNJkMGHMvHPOmYuIqcLNCzgRq7WmoQvefkNQfMuJSAfwyX8n4ATrGni2bDf1XK0W2-QwEAUFKZRL9ID7p_-dq4tBP4ta3xUUUqJXgXdyajXjyg3ClDkbNpBmWkCbpzxYyPijhZtETTxvRlMBUzTqqv_rOij_nA5p7t7zus7euEX_lygw83fbrQcZ5sGFDxQfXbJid7F2Orj7oumIQDw3NxTRWOetFdNWlVdWzLjmQDTVQw7gSAVMlfZjRqk6gxcgzbw_AhsZ7aR1k_sh7HJwRsyqBiCL0BkswVxc3vpGex_I1ayMUmrM-VXe5ZSzA6i1xgrbiQNQVQfK-3UyHnMwppjjnt0v7PuLnax2tzxu44ImClNUzHB6rFgqA7zUqMablNo_yO7JsWQHzQ4-2WxITJbDLoZlezNOleSN2_m40]--></g></svg>