<?xml version="1.0" encoding="us-ascii" standalone="no"?><svg xmlns="http://www.w3.org/2000/svg" xmlns:xlink="http://www.w3.org/1999/xlink" contentStyleType="text/css" height="446px" preserveAspectRatio="none" style="width:548px;height:446px;background:#FFFFFF;" version="1.1" viewBox="0 0 548 446" width="548px" zoomAndPan="magnify"><defs/><g><text fill="#000000" font-family="sans-serif" font-size="20" font-weight="bold" lengthAdjust="spacing" textLength="186" x="115.25" y="29.3359">Example.IExample</text><text fill="#000000" font-family="sans-serif" font-size="20" font-weight="bold" lengthAdjust="spacing" textLength="104" x="308.25" y="29.3359">simplified</text><text fill="#000000" font-family="sans-serif" font-size="20" font-weight="bold" lengthAdjust="spacing" textLength="7" x="412.25" y="29.3359">&#160;</text><!--cluster Example--><g id="cluster_Example"><path d="M416,115.5547 L477,115.5547 A3.75,3.75 0 0 1 479.5,118.0547 L486.5,138.043 L539,138.043 A2.5,2.5 0 0 1 541.5,140.543 L541.5,437.0547 A2.5,2.5 0 0 1 539,439.5547 L416,439.5547 A2.5,2.5 0 0 1 413.5,437.0547 L413.5,118.0547 A2.5,2.5 0 0 1 416,115.5547 " fill="none" style="stroke:#000000;stroke-width:1.5;"/><line style="stroke:#000000;stroke-width:1.5;" x1="413.5" x2="486.5" y1="138.043" y2="138.043"/><text fill="#000000" font-family="sans-serif" font-size="14" font-weight="bold" lengthAdjust="spacing" textLength="60" x="417.5" y="131.0898">Example</text></g><!--class IExample--><a href="Example.IExample-diagram-simplified.svg" target="_top" title="Example.IExample-diagram-simplified.svg" xlink:actuate="onRequest" xlink:href="Example.IExample-diagram-simplified.svg" xlink:show="new" xlink:title="Example.IExample-diagram-simplified.svg" xlink:type="simple"><g id="elem_IExample"><rect codeLine="3" fill="#FFFF00" height="48" id="IExample" rx="2.5" ry="2.5" style="stroke:#181818;stroke-width:0.5;" width="95" x="430" y="150.5547"/><ellipse cx="445" cy="166.5547" fill="#B4A7E5" rx="11" ry="11" style="stroke:#181818;stroke-width:1.0;"/><path d="M441.4277,162.8198 L441.4277,160.6616 L448.8071,160.6616 L448.8071,162.8198 L446.3418,162.8198 L446.3418,170.8965 L448.8071,170.8965 L448.8071,173.0547 L441.4277,173.0547 L441.4277,170.8965 L443.8931,170.8965 L443.8931,162.8198 Z " fill="#000000"/><text fill="#000000" font-family="sans-serif" font-size="14" font-style="italic" lengthAdjust="spacing" textLength="63" x="459" y="171.8457">IExample</text><line style="stroke:#181818;stroke-width:0.5;" x1="431" x2="524" y1="182.5547" y2="182.5547"/><line style="stroke:#181818;stroke-width:0.5;" x1="431" x2="524" y1="190.5547" y2="190.5547"/></g></a><!--class Useless--><a href="Example.Useless-diagram-simplified.svg" target="_top" title="Example.Useless-diagram-simplified.svg" xlink:actuate="onRequest" xlink:href="Example.Useless-diagram-simplified.svg" xlink:show="new" xlink:title="Example.Useless-diagram-simplified.svg" xlink:type="simple"><g id="elem_Useless"><rect codeLine="5" fill="#F1F1F1" height="48" id="Useless" rx="2.5" ry="2.5" style="stroke:#181818;stroke-width:0.5;" width="83" x="436" y="375.5547"/><ellipse cx="451" cy="391.5547" fill="#ADD1B2" rx="11" ry="11" style="stroke:#181818;stroke-width:1.0;"/><path d="M453.4731,397.6978 Q452.8921,397.9966 452.2529,398.146 Q451.6138,398.2954 450.9082,398.2954 Q448.4014,398.2954 447.0815,396.6436 Q445.7617,394.9917 445.7617,391.8706 Q445.7617,388.7412 447.0815,387.0894 Q448.4014,385.4375 450.9082,385.4375 Q451.6138,385.4375 452.2612,385.5869 Q452.9087,385.7363 453.4731,386.0352 L453.4731,388.7578 Q452.8423,388.1768 452.2488,387.907 Q451.6553,387.6372 451.0244,387.6372 Q449.6797,387.6372 448.9949,388.7039 Q448.3101,389.7705 448.3101,391.8706 Q448.3101,393.9624 448.9949,395.0291 Q449.6797,396.0957 451.0244,396.0957 Q451.6553,396.0957 452.2488,395.8259 Q452.8423,395.5562 453.4731,394.9751 Z " fill="#000000"/><text fill="#000000" font-family="sans-serif" font-size="14" lengthAdjust="spacing" textLength="51" x="465" y="396.8457">Useless</text><line style="stroke:#181818;stroke-width:0.5;" x1="437" x2="518" y1="407.5547" y2="407.5547"/><line style="stroke:#181818;stroke-width:0.5;" x1="437" x2="518" y1="415.5547" y2="415.5547"/></g></a><g id="elem_FloatingNote"><path d="M6,50.5547 L6,298.2129 L395,298.2129 L395,60.5547 L385,50.5547 L6,50.5547 " fill="#FEFFDD" style="stroke:#181818;stroke-width:0.5;"/><path d="M385,50.5547 L385,60.5547 L395,60.5547 L385,50.5547 " fill="#FEFFDD" style="stroke:#181818;stroke-width:1.0;"/><text fill="#000000" font-family="sans-serif" font-size="13" lengthAdjust="spacing" textLength="120" x="12" y="68.123">Your are analyzing:</text><text fill="#000000" font-family="sans-serif" font-size="13" lengthAdjust="spacing" textLength="114" x="12" y="83.4336">Example.IExample</text><text fill="#000000" font-family="sans-serif" font-size="13" font-weight="bold" lengthAdjust="spacing" textLength="67" x="130" y="83.4336">simplified</text><text fill="#000000" font-family="sans-serif" font-size="13" lengthAdjust="spacing" textLength="4" x="197" y="83.4336">&#160;</text><text fill="#000000" font-family="sans-serif" font-size="13" lengthAdjust="spacing" textLength="4" x="12" y="98.7441">&#160;</text><text fill="#000000" font-family="sans-serif" font-size="13" lengthAdjust="spacing" textLength="229" x="12" y="129.3652">You can click either the namespaces</text><text fill="#000000" font-family="sans-serif" font-size="13" lengthAdjust="spacing" textLength="266" x="12" y="144.6758">or class names for filtering them and their</text><text fill="#000000" font-family="sans-serif" font-size="13" lengthAdjust="spacing" textLength="130" x="12" y="159.9863">direct dependencies.</text><text fill="#000000" font-family="sans-serif" font-size="13" lengthAdjust="spacing" textLength="4" x="12" y="175.2969">&#160;</text><line style="stroke:#181818;stroke-width:1.0;" x1="7" x2="184.5" y1="109.1416" y2="109.1416"/><line style="stroke:#181818;stroke-width:1.0;" x1="7" x2="184.5" y1="111.1416" y2="111.1416"/><text fill="#000000" font-family="sans-serif" font-size="13" lengthAdjust="spacing" textLength="32" x="184.5" y="113.5547">Filter</text><line style="stroke:#181818;stroke-width:1.0;" x1="216.5" x2="394" y1="109.1416" y2="109.1416"/><line style="stroke:#181818;stroke-width:1.0;" x1="216.5" x2="394" y1="111.1416" y2="111.1416"/><ellipse cx="17.5" cy="205.1602" fill="#000000" rx="2.5" ry="2.5" style="stroke:#000000;stroke-width:0.0;"/><text fill="#000000" font-family="sans-serif" font-size="13" lengthAdjust="spacing" textLength="114" x="24" y="209.918">Example.IExample</text><text fill="#000000" font-family="sans-serif" font-size="13" font-weight="bold" lengthAdjust="spacing" textLength="55" x="142" y="209.918">detailed</text><text fill="#000000" font-family="sans-serif" font-size="13" lengthAdjust="spacing" textLength="4" x="201" y="209.918">:</text><text fill="#000000" font-family="sans-serif" font-size="13" lengthAdjust="spacing" textLength="12" x="12" y="225.2285">&#160;&#160;&#160;</text><a href="Example.IExample-diagram-detailed.svg" target="_top" title="Example.IExample-diagram-detailed.svg" xlink:actuate="onRequest" xlink:href="Example.IExample-diagram-detailed.svg" xlink:show="new" xlink:title="Example.IExample-diagram-detailed.svg" xlink:type="simple"><text fill="#0000FF" font-family="sans-serif" font-size="13" lengthAdjust="spacing" text-decoration="underline" textLength="257" x="24" y="225.2285">Example.IExample-diagram-detailed.svg</text></a><ellipse cx="17.5" cy="235.7813" fill="#000000" rx="2.5" ry="2.5" style="stroke:#000000;stroke-width:0.0;"/><text fill="#000000" font-family="sans-serif" font-size="13" lengthAdjust="spacing" textLength="78" x="24" y="240.5391">Full diagram</text><text fill="#000000" font-family="sans-serif" font-size="13" font-weight="bold" lengthAdjust="spacing" textLength="67" x="106" y="240.5391">simplified</text><text fill="#000000" font-family="sans-serif" font-size="13" lengthAdjust="spacing" textLength="23" x="177" y="240.5391">and</text><text fill="#000000" font-family="sans-serif" font-size="13" font-weight="bold" lengthAdjust="spacing" textLength="166" x="204" y="240.5391">grouped per namespace</text><text fill="#000000" font-family="sans-serif" font-size="13" lengthAdjust="spacing" textLength="4" x="370" y="240.5391">:</text><text fill="#000000" font-family="sans-serif" font-size="13" lengthAdjust="spacing" textLength="12" x="12" y="255.8496">&#160;&#160;&#160;</text><a href="full-diagram-simplified-grouped-per-namespace.svg" target="_top" title="full-diagram-simplified-grouped-per-namespace.svg" xlink:actuate="onRequest" xlink:href="full-diagram-simplified-grouped-per-namespace.svg" xlink:show="new" xlink:title="full-diagram-simplified-grouped-per-namespace.svg" xlink:type="simple"><text fill="#0000FF" font-family="sans-serif" font-size="13" lengthAdjust="spacing" text-decoration="underline" textLength="343" x="24" y="255.8496">full-diagram-simplified-grouped-per-namespace.svg</text></a><ellipse cx="17.5" cy="266.4023" fill="#000000" rx="2.5" ry="2.5" style="stroke:#000000;stroke-width:0.0;"/><text fill="#000000" font-family="sans-serif" font-size="13" lengthAdjust="spacing" textLength="41" x="24" y="271.1602">Home:</text><text fill="#000000" font-family="sans-serif" font-size="13" lengthAdjust="spacing" textLength="12" x="12" y="286.4707">&#160;&#160;&#160;</text><a href="index.html" target="_top" title="index.html" xlink:actuate="onRequest" xlink:href="index.html" xlink:show="new" xlink:title="index.html" xlink:type="simple"><text fill="#0000FF" font-family="sans-serif" font-size="13" lengthAdjust="spacing" text-decoration="underline" textLength="68" x="24" y="286.4707">index.html</text></a><line style="stroke:#181818;stroke-width:1.0;" x1="7" x2="163.5" y1="189.6943" y2="189.6943"/><line style="stroke:#181818;stroke-width:1.0;" x1="7" x2="163.5" y1="191.6943" y2="191.6943"/><text fill="#000000" font-family="sans-serif" font-size="13" lengthAdjust="spacing" textLength="74" x="163.5" y="194.1074">Select other</text><line style="stroke:#181818;stroke-width:1.0;" x1="237.5" x2="394" y1="189.6943" y2="189.6943"/><line style="stroke:#181818;stroke-width:1.0;" x1="237.5" x2="394" y1="191.6943" y2="191.6943"/></g><!--link IExample to Useless--><g id="link_IExample_Useless"><path codeLine="12" d="M477.5,198.9947 C477.5,239.9847 477.5,324.5647 477.5,369.3147 " fill="none" id="IExample-to-Useless" style="stroke:#6060BB;stroke-width:1.0;stroke-dasharray:7.0,7.0;"/><polygon fill="#6060BB" points="477.5,374.0947,481.5,365.0947,477.5,369.0947,473.5,365.0947,477.5,374.0947" style="stroke:#6060BB;stroke-width:1.0;"/><text fill="#000000" font-family="sans-serif" font-size="13" lengthAdjust="spacing" textLength="29" x="478.5" y="342.123">uses</text></g><!--SRC=[jL8xJyCm4DxpAqxjKCbIGiNG8Mew5571me8OK9F1IYwfXMD7jWDj4V-TowkHMbuB6Im_liTzTt72IOIb5KSCh-UhspqlAud1VRy1ngoWZSW5Pep1ygf1hZob7SBaMTS6k47WYil3KQWYZDLl4h6ALHHjX7HeeYXM908fLv1AaRu02hT30xI0uYNQYgTeYQCD0RYrtItaTCvR2J9jq2NLa3KROMAL2OEfWmmhL1cgLA0DEjj7bCsBRamQSmPVb9kXuqAsnL8U0DXkpr5-9dXXUEaFsC2-5adI26vgAQ5_Fi_UrCXOONHTOGOL1Js5P6pmoadWf3_I_Pxc4yq_qKRVErtY824ezZxOkL8coGIuXOtKt56h7cXkdb3Kjvp8b-5_I3fMqdd2z81IwZTuzpwyRZO3zybIc-ayglKttukrAZ2ZxlpfWt_3pk2cpM9GKiUqie1xPtZgQ62vqUKuiP2mVJxlef71ThgOB-RhTHAiBle28TIM_k9F]--></g></svg>