<?xml version="1.0" encoding="us-ascii" standalone="no"?><svg xmlns="http://www.w3.org/2000/svg" xmlns:xlink="http://www.w3.org/1999/xlink" contentStyleType="text/css" height="477px" preserveAspectRatio="none" style="width:1113px;height:477px;background:#FFFFFF;" version="1.1" viewBox="0 0 1113 477" width="1113px" zoomAndPan="magnify"><defs/><g><text fill="#000000" font-family="sans-serif" font-size="20" font-weight="bold" lengthAdjust="spacing" textLength="359" x="311.25" y="29.3359">Examples.BadDesign.FakeEntitities</text><text fill="#000000" font-family="sans-serif" font-size="20" font-weight="bold" lengthAdjust="spacing" textLength="104" x="677.25" y="29.3359">simplified</text><text fill="#000000" font-family="sans-serif" font-size="20" font-weight="bold" lengthAdjust="spacing" textLength="7" x="781.25" y="29.3359">&#160;</text><!--cluster Examples--><g id="cluster_Examples"><path d="M426,72.5547 L495,72.5547 A3.75,3.75 0 0 1 497.5,75.0547 L504.5,95.043 L1104,95.043 A2.5,2.5 0 0 1 1106.5,97.543 L1106.5,468.0547 A2.5,2.5 0 0 1 1104,470.5547 L426,470.5547 A2.5,2.5 0 0 1 423.5,468.0547 L423.5,75.0547 A2.5,2.5 0 0 1 426,72.5547 " fill="none" style="stroke:#000000;stroke-width:1.5;"/><line style="stroke:#000000;stroke-width:1.5;" x1="423.5" x2="504.5" y1="95.043" y2="95.043"/><text fill="#000000" font-family="sans-serif" font-size="14" font-weight="bold" lengthAdjust="spacing" textLength="68" x="427.5" y="88.0898">Examples</text></g><!--cluster BadDesign--><g id="cluster_BadDesign"><path d="M450,115.5547 L527,115.5547 A3.75,3.75 0 0 1 529.5,118.0547 L536.5,138.043 L1080,138.043 A2.5,2.5 0 0 1 1082.5,140.543 L1082.5,444.0547 A2.5,2.5 0 0 1 1080,446.5547 L450,446.5547 A2.5,2.5 0 0 1 447.5,444.0547 L447.5,118.0547 A2.5,2.5 0 0 1 450,115.5547 " fill="none" style="stroke:#000000;stroke-width:1.5;"/><line style="stroke:#000000;stroke-width:1.5;" x1="447.5" x2="536.5" y1="138.043" y2="138.043"/><text fill="#000000" font-family="sans-serif" font-size="14" font-weight="bold" lengthAdjust="spacing" textLength="76" x="451.5" y="131.0898">BadDesign</text></g><!--cluster FakeEntitities--><g id="cluster_FakeEntitities"><path d="M474,323.5547 L574,323.5547 A3.75,3.75 0 0 1 576.5,326.0547 L583.5,346.043 L1056,346.043 A2.5,2.5 0 0 1 1058.5,348.543 L1058.5,420.0547 A2.5,2.5 0 0 1 1056,422.5547 L474,422.5547 A2.5,2.5 0 0 1 471.5,420.0547 L471.5,326.0547 A2.5,2.5 0 0 1 474,323.5547 " fill="none" style="stroke:#000000;stroke-width:1.5;"/><line style="stroke:#000000;stroke-width:1.5;" x1="471.5" x2="583.5" y1="346.043" y2="346.043"/><text fill="#000000" font-family="sans-serif" font-size="14" font-weight="bold" lengthAdjust="spacing" textLength="99" x="475.5" y="339.0898">FakeEntitities</text></g><!--class DB--><a href="Examples.BadDesign.DB-diagram-simplified.svg" target="_top" title="Examples.BadDesign.DB-diagram-simplified.svg" xlink:actuate="onRequest" xlink:href="Examples.BadDesign.DB-diagram-simplified.svg" xlink:show="new" xlink:title="Examples.BadDesign.DB-diagram-simplified.svg" xlink:type="simple"><g id="elem_DB"><rect codeLine="4" fill="#F1F1F1" height="48" id="DB" rx="2.5" ry="2.5" style="stroke:#181818;stroke-width:0.5;" width="50" x="755.5" y="150.5547"/><ellipse cx="770.5" cy="166.5547" fill="#ADD1B2" rx="11" ry="11" style="stroke:#181818;stroke-width:1.0;"/><path d="M772.9731,172.6978 Q772.3921,172.9966 771.7529,173.146 Q771.1138,173.2954 770.4082,173.2954 Q767.9014,173.2954 766.5815,171.6436 Q765.2617,169.9917 765.2617,166.8706 Q765.2617,163.7412 766.5815,162.0894 Q767.9014,160.4375 770.4082,160.4375 Q771.1138,160.4375 771.7612,160.5869 Q772.4087,160.7363 772.9731,161.0352 L772.9731,163.7578 Q772.3423,163.1768 771.7488,162.907 Q771.1553,162.6372 770.5244,162.6372 Q769.1797,162.6372 768.4949,163.7039 Q767.8101,164.7705 767.8101,166.8706 Q767.8101,168.9624 768.4949,170.0291 Q769.1797,171.0957 770.5244,171.0957 Q771.1553,171.0957 771.7488,170.8259 Q772.3423,170.5562 772.9731,169.9751 Z " fill="#000000"/><text fill="#000000" font-family="sans-serif" font-size="14" lengthAdjust="spacing" textLength="18" x="784.5" y="171.8457">DB</text><line style="stroke:#181818;stroke-width:0.5;" x1="756.5" x2="804.5" y1="182.5547" y2="182.5547"/><line style="stroke:#181818;stroke-width:0.5;" x1="756.5" x2="804.5" y1="190.5547" y2="190.5547"/></g></a><!--class Invoice--><a href="Examples.BadDesign.FakeEntitities.Invoice-diagram-simplified.svg" target="_top" title="Examples.BadDesign.FakeEntitities.Invoice-diagram-simplified.svg" xlink:actuate="onRequest" xlink:href="Examples.BadDesign.FakeEntitities.Invoice-diagram-simplified.svg" xlink:show="new" xlink:title="Examples.BadDesign.FakeEntitities.Invoice-diagram-simplified.svg" xlink:type="simple"><g id="elem_Invoice"><rect codeLine="6" fill="#FFFF00" height="48" id="Invoice" rx="2.5" ry="2.5" style="stroke:#181818;stroke-width:0.5;" width="80" x="962.5" y="358.5547"/><ellipse cx="977.5" cy="374.5547" fill="#ADD1B2" rx="11" ry="11" style="stroke:#181818;stroke-width:1.0;"/><path d="M979.9731,380.6978 Q979.3921,380.9966 978.7529,381.146 Q978.1138,381.2954 977.4082,381.2954 Q974.9014,381.2954 973.5815,379.6436 Q972.2617,377.9917 972.2617,374.8706 Q972.2617,371.7412 973.5815,370.0894 Q974.9014,368.4375 977.4082,368.4375 Q978.1138,368.4375 978.7612,368.5869 Q979.4087,368.7363 979.9731,369.0352 L979.9731,371.7578 Q979.3423,371.1768 978.7488,370.907 Q978.1553,370.6372 977.5244,370.6372 Q976.1797,370.6372 975.4949,371.7039 Q974.8101,372.7705 974.8101,374.8706 Q974.8101,376.9624 975.4949,378.0291 Q976.1797,379.0957 977.5244,379.0957 Q978.1553,379.0957 978.7488,378.8259 Q979.3423,378.5562 979.9731,377.9751 Z " fill="#000000"/><text fill="#000000" font-family="sans-serif" font-size="14" lengthAdjust="spacing" textLength="48" x="991.5" y="379.8457">Invoice</text><line style="stroke:#181818;stroke-width:0.5;" x1="963.5" x2="1041.5" y1="390.5547" y2="390.5547"/><line style="stroke:#181818;stroke-width:0.5;" x1="963.5" x2="1041.5" y1="398.5547" y2="398.5547"/></g></a><!--class Item--><a href="Examples.BadDesign.FakeEntitities.Item-diagram-simplified.svg" target="_top" title="Examples.BadDesign.FakeEntitities.Item-diagram-simplified.svg" xlink:actuate="onRequest" xlink:href="Examples.BadDesign.FakeEntitities.Item-diagram-simplified.svg" xlink:show="new" xlink:title="Examples.BadDesign.FakeEntitities.Item-diagram-simplified.svg" xlink:type="simple"><g id="elem_Item"><rect codeLine="8" fill="#FFFF00" height="48" id="Item" rx="2.5" ry="2.5" style="stroke:#181818;stroke-width:0.5;" width="62" x="865.5" y="358.5547"/><ellipse cx="880.5" cy="374.5547" fill="#ADD1B2" rx="11" ry="11" style="stroke:#181818;stroke-width:1.0;"/><path d="M882.9731,380.6978 Q882.3921,380.9966 881.7529,381.146 Q881.1138,381.2954 880.4082,381.2954 Q877.9014,381.2954 876.5815,379.6436 Q875.2617,377.9917 875.2617,374.8706 Q875.2617,371.7412 876.5815,370.0894 Q877.9014,368.4375 880.4082,368.4375 Q881.1138,368.4375 881.7612,368.5869 Q882.4087,368.7363 882.9731,369.0352 L882.9731,371.7578 Q882.3423,371.1768 881.7488,370.907 Q881.1553,370.6372 880.5244,370.6372 Q879.1797,370.6372 878.4949,371.7039 Q877.8101,372.7705 877.8101,374.8706 Q877.8101,376.9624 878.4949,378.0291 Q879.1797,379.0957 880.5244,379.0957 Q881.1553,379.0957 881.7488,378.8259 Q882.3423,378.5562 882.9731,377.9751 Z " fill="#000000"/><text fill="#000000" font-family="sans-serif" font-size="14" lengthAdjust="spacing" textLength="30" x="894.5" y="379.8457">Item</text><line style="stroke:#181818;stroke-width:0.5;" x1="866.5" x2="926.5" y1="390.5547" y2="390.5547"/><line style="stroke:#181818;stroke-width:0.5;" x1="866.5" x2="926.5" y1="398.5547" y2="398.5547"/></g></a><!--class Customer--><a href="Examples.BadDesign.FakeEntitities.Customer-diagram-simplified.svg" target="_top" title="Examples.BadDesign.FakeEntitities.Customer-diagram-simplified.svg" xlink:actuate="onRequest" xlink:href="Examples.BadDesign.FakeEntitities.Customer-diagram-simplified.svg" xlink:show="new" xlink:title="Examples.BadDesign.FakeEntitities.Customer-diagram-simplified.svg" xlink:type="simple"><g id="elem_Customer"><rect codeLine="10" fill="#FFFF00" height="48" id="Customer" rx="2.5" ry="2.5" style="stroke:#181818;stroke-width:0.5;" width="99" x="731" y="358.5547"/><ellipse cx="746" cy="374.5547" fill="#ADD1B2" rx="11" ry="11" style="stroke:#181818;stroke-width:1.0;"/><path d="M748.4731,380.6978 Q747.8921,380.9966 747.2529,381.146 Q746.6138,381.2954 745.9082,381.2954 Q743.4014,381.2954 742.0815,379.6436 Q740.7617,377.9917 740.7617,374.8706 Q740.7617,371.7412 742.0815,370.0894 Q743.4014,368.4375 745.9082,368.4375 Q746.6138,368.4375 747.2612,368.5869 Q747.9087,368.7363 748.4731,369.0352 L748.4731,371.7578 Q747.8423,371.1768 747.2488,370.907 Q746.6553,370.6372 746.0244,370.6372 Q744.6797,370.6372 743.9949,371.7039 Q743.3101,372.7705 743.3101,374.8706 Q743.3101,376.9624 743.9949,378.0291 Q744.6797,379.0957 746.0244,379.0957 Q746.6553,379.0957 747.2488,378.8259 Q747.8423,378.5562 748.4731,377.9751 Z " fill="#000000"/><text fill="#000000" font-family="sans-serif" font-size="14" lengthAdjust="spacing" textLength="67" x="760" y="379.8457">Customer</text><line style="stroke:#181818;stroke-width:0.5;" x1="732" x2="829" y1="390.5547" y2="390.5547"/><line style="stroke:#181818;stroke-width:0.5;" x1="732" x2="829" y1="398.5547" y2="398.5547"/></g></a><!--class User--><a href="Examples.BadDesign.FakeEntitities.User-diagram-simplified.svg" target="_top" title="Examples.BadDesign.FakeEntitities.User-diagram-simplified.svg" xlink:actuate="onRequest" xlink:href="Examples.BadDesign.FakeEntitities.User-diagram-simplified.svg" xlink:show="new" xlink:title="Examples.BadDesign.FakeEntitities.User-diagram-simplified.svg" xlink:type="simple"><g id="elem_User"><rect codeLine="12" fill="#FFFF00" height="48" id="User" rx="2.5" ry="2.5" style="stroke:#181818;stroke-width:0.5;" width="63" x="633" y="358.5547"/><ellipse cx="648" cy="374.5547" fill="#ADD1B2" rx="11" ry="11" style="stroke:#181818;stroke-width:1.0;"/><path d="M650.4731,380.6978 Q649.8921,380.9966 649.2529,381.146 Q648.6138,381.2954 647.9082,381.2954 Q645.4014,381.2954 644.0815,379.6436 Q642.7617,377.9917 642.7617,374.8706 Q642.7617,371.7412 644.0815,370.0894 Q645.4014,368.4375 647.9082,368.4375 Q648.6138,368.4375 649.2612,368.5869 Q649.9087,368.7363 650.4731,369.0352 L650.4731,371.7578 Q649.8423,371.1768 649.2488,370.907 Q648.6553,370.6372 648.0244,370.6372 Q646.6797,370.6372 645.9949,371.7039 Q645.3101,372.7705 645.3101,374.8706 Q645.3101,376.9624 645.9949,378.0291 Q646.6797,379.0957 648.0244,379.0957 Q648.6553,379.0957 649.2488,378.8259 Q649.8423,378.5562 650.4731,377.9751 Z " fill="#000000"/><text fill="#000000" font-family="sans-serif" font-size="14" lengthAdjust="spacing" textLength="31" x="662" y="379.8457">User</text><line style="stroke:#181818;stroke-width:0.5;" x1="634" x2="695" y1="390.5547" y2="390.5547"/><line style="stroke:#181818;stroke-width:0.5;" x1="634" x2="695" y1="398.5547" y2="398.5547"/></g></a><!--class Complaints--><a href="Examples.BadDesign.FakeEntitities.Complaints-diagram-simplified.svg" target="_top" title="Examples.BadDesign.FakeEntitities.Complaints-diagram-simplified.svg" xlink:actuate="onRequest" xlink:href="Examples.BadDesign.FakeEntitities.Complaints-diagram-simplified.svg" xlink:show="new" xlink:title="Examples.BadDesign.FakeEntitities.Complaints-diagram-simplified.svg" xlink:type="simple"><g id="elem_Complaints"><rect codeLine="14" fill="#FFFF00" height="48" id="Complaints" rx="2.5" ry="2.5" style="stroke:#181818;stroke-width:0.5;" width="110" x="487.5" y="358.5547"/><ellipse cx="502.5" cy="374.5547" fill="#ADD1B2" rx="11" ry="11" style="stroke:#181818;stroke-width:1.0;"/><path d="M504.9731,380.6978 Q504.3921,380.9966 503.7529,381.146 Q503.1138,381.2954 502.4082,381.2954 Q499.9014,381.2954 498.5815,379.6436 Q497.2617,377.9917 497.2617,374.8706 Q497.2617,371.7412 498.5815,370.0894 Q499.9014,368.4375 502.4082,368.4375 Q503.1138,368.4375 503.7612,368.5869 Q504.4087,368.7363 504.9731,369.0352 L504.9731,371.7578 Q504.3423,371.1768 503.7488,370.907 Q503.1553,370.6372 502.5244,370.6372 Q501.1797,370.6372 500.4949,371.7039 Q499.8101,372.7705 499.8101,374.8706 Q499.8101,376.9624 500.4949,378.0291 Q501.1797,379.0957 502.5244,379.0957 Q503.1553,379.0957 503.7488,378.8259 Q504.3423,378.5562 504.9731,377.9751 Z " fill="#000000"/><text fill="#000000" font-family="sans-serif" font-size="14" lengthAdjust="spacing" textLength="78" x="516.5" y="379.8457">Complaints</text><line style="stroke:#181818;stroke-width:0.5;" x1="488.5" x2="596.5" y1="390.5547" y2="390.5547"/><line style="stroke:#181818;stroke-width:0.5;" x1="488.5" x2="596.5" y1="398.5547" y2="398.5547"/></g></a><g id="elem_FloatingNote"><path d="M6,50.5547 L6,298.2129 L407,298.2129 L407,60.5547 L397,50.5547 L6,50.5547 " fill="#FEFFDD" style="stroke:#181818;stroke-width:0.5;"/><path d="M397,50.5547 L397,60.5547 L407,60.5547 L397,50.5547 " fill="#FEFFDD" style="stroke:#181818;stroke-width:1.0;"/><text fill="#000000" font-family="sans-serif" font-size="13" lengthAdjust="spacing" textLength="120" x="12" y="68.123">Your are analyzing:</text><text fill="#000000" font-family="sans-serif" font-size="13" lengthAdjust="spacing" textLength="219" x="12" y="83.4336">Examples.BadDesign.FakeEntitities</text><text fill="#000000" font-family="sans-serif" font-size="13" font-weight="bold" lengthAdjust="spacing" textLength="67" x="235" y="83.4336">simplified</text><text fill="#000000" font-family="sans-serif" font-size="13" lengthAdjust="spacing" textLength="4" x="302" y="83.4336">&#160;</text><text fill="#000000" font-family="sans-serif" font-size="13" lengthAdjust="spacing" textLength="4" x="12" y="98.7441">&#160;</text><text fill="#000000" font-family="sans-serif" font-size="13" lengthAdjust="spacing" textLength="229" x="12" y="129.3652">You can click either the namespaces</text><text fill="#000000" font-family="sans-serif" font-size="13" lengthAdjust="spacing" textLength="266" x="12" y="144.6758">or class names for filtering them and their</text><text fill="#000000" font-family="sans-serif" font-size="13" lengthAdjust="spacing" textLength="130" x="12" y="159.9863">direct dependencies.</text><text fill="#000000" font-family="sans-serif" font-size="13" lengthAdjust="spacing" textLength="4" x="12" y="175.2969">&#160;</text><line style="stroke:#181818;stroke-width:1.0;" x1="7" x2="190.5" y1="109.1416" y2="109.1416"/><line style="stroke:#181818;stroke-width:1.0;" x1="7" x2="190.5" y1="111.1416" y2="111.1416"/><text fill="#000000" font-family="sans-serif" font-size="13" lengthAdjust="spacing" textLength="32" x="190.5" y="113.5547">Filter</text><line style="stroke:#181818;stroke-width:1.0;" x1="222.5" x2="406" y1="109.1416" y2="109.1416"/><line style="stroke:#181818;stroke-width:1.0;" x1="222.5" x2="406" y1="111.1416" y2="111.1416"/><ellipse cx="17.5" cy="205.1602" fill="#000000" rx="2.5" ry="2.5" style="stroke:#000000;stroke-width:0.0;"/><text fill="#000000" font-family="sans-serif" font-size="13" lengthAdjust="spacing" textLength="219" x="24" y="209.918">Examples.BadDesign.FakeEntitities</text><text fill="#000000" font-family="sans-serif" font-size="13" font-weight="bold" lengthAdjust="spacing" textLength="55" x="247" y="209.918">detailed</text><text fill="#000000" font-family="sans-serif" font-size="13" lengthAdjust="spacing" textLength="4" x="306" y="209.918">:</text><text fill="#000000" font-family="sans-serif" font-size="13" lengthAdjust="spacing" textLength="12" x="12" y="225.2285">&#160;&#160;&#160;</text><a href="Examples.BadDesign.FakeEntitities-diagram-detailed.svg" target="_top" title="Examples.BadDesign.FakeEntitities-diagram-detailed.svg" xlink:actuate="onRequest" xlink:href="Examples.BadDesign.FakeEntitities-diagram-detailed.svg" xlink:show="new" xlink:title="Examples.BadDesign.FakeEntitities-diagram-detailed.svg" xlink:type="simple"><text fill="#0000FF" font-family="sans-serif" font-size="13" lengthAdjust="spacing" text-decoration="underline" textLength="362" x="24" y="225.2285">Examples.BadDesign.FakeEntitities-diagram-detailed.svg</text></a><ellipse cx="17.5" cy="235.7813" fill="#000000" rx="2.5" ry="2.5" style="stroke:#000000;stroke-width:0.0;"/><text fill="#000000" font-family="sans-serif" font-size="13" lengthAdjust="spacing" textLength="78" x="24" y="240.5391">Full diagram</text><text fill="#000000" font-family="sans-serif" font-size="13" font-weight="bold" lengthAdjust="spacing" textLength="67" x="106" y="240.5391">simplified</text><text fill="#000000" font-family="sans-serif" font-size="13" lengthAdjust="spacing" textLength="23" x="177" y="240.5391">and</text><text fill="#000000" font-family="sans-serif" font-size="13" font-weight="bold" lengthAdjust="spacing" textLength="166" x="204" y="240.5391">grouped per namespace</text><text fill="#000000" font-family="sans-serif" font-size="13" lengthAdjust="spacing" textLength="4" x="370" y="240.5391">:</text><text fill="#000000" font-family="sans-serif" font-size="13" lengthAdjust="spacing" textLength="12" x="12" y="255.8496">&#160;&#160;&#160;</text><a href="full-diagram-simplified-grouped-per-namespace.svg" target="_top" title="full-diagram-simplified-grouped-per-namespace.svg" xlink:actuate="onRequest" xlink:href="full-diagram-simplified-grouped-per-namespace.svg" xlink:show="new" xlink:title="full-diagram-simplified-grouped-per-namespace.svg" xlink:type="simple"><text fill="#0000FF" font-family="sans-serif" font-size="13" lengthAdjust="spacing" text-decoration="underline" textLength="343" x="24" y="255.8496">full-diagram-simplified-grouped-per-namespace.svg</text></a><ellipse cx="17.5" cy="266.4023" fill="#000000" rx="2.5" ry="2.5" style="stroke:#000000;stroke-width:0.0;"/><text fill="#000000" font-family="sans-serif" font-size="13" lengthAdjust="spacing" textLength="41" x="24" y="271.1602">Home:</text><text fill="#000000" font-family="sans-serif" font-size="13" lengthAdjust="spacing" textLength="12" x="12" y="286.4707">&#160;&#160;&#160;</text><a href="index.html" target="_top" title="index.html" xlink:actuate="onRequest" xlink:href="index.html" xlink:show="new" xlink:title="index.html" xlink:type="simple"><text fill="#0000FF" font-family="sans-serif" font-size="13" lengthAdjust="spacing" text-decoration="underline" textLength="68" x="24" y="286.4707">index.html</text></a><line style="stroke:#181818;stroke-width:1.0;" x1="7" x2="169.5" y1="189.6943" y2="189.6943"/><line style="stroke:#181818;stroke-width:1.0;" x1="7" x2="169.5" y1="191.6943" y2="191.6943"/><text fill="#000000" font-family="sans-serif" font-size="13" lengthAdjust="spacing" textLength="74" x="169.5" y="194.1074">Select other</text><line style="stroke:#181818;stroke-width:1.0;" x1="243.5" x2="406" y1="189.6943" y2="189.6943"/><line style="stroke:#181818;stroke-width:1.0;" x1="243.5" x2="406" y1="191.6943" y2="191.6943"/></g><!--link DB to User--><g id="link_DB_User"><path codeLine="21" d="M755.04,182.5547 C720.9,182.5547 664.5,182.5547 664.5,182.5547 C664.5,182.5547 664.5,352.4347 664.5,352.4347 " fill="none" id="DB-to-User" style="stroke:#6060BB;stroke-width:1.0;stroke-dasharray:7.0,7.0;"/><polygon fill="#6060BB" points="664.5,357.4347,668.5,348.4347,664.5,352.4347,660.5,348.4347,664.5,357.4347" style="stroke:#6060BB;stroke-width:1.0;"/><text fill="#000000" font-family="sans-serif" font-size="13" lengthAdjust="spacing" textLength="29" x="634.5" y="218.793">uses</text></g><!--link DB to Customer--><g id="link_DB_Customer"><path codeLine="22" d="M780.5,198.8247 C780.5,198.8247 780.5,352.1247 780.5,352.1247 " fill="none" id="DB-to-Customer" style="stroke:#6060BB;stroke-width:1.0;stroke-dasharray:7.0,7.0;"/><polygon fill="#6060BB" points="780.5,357.1247,784.5,348.1247,780.5,352.1247,776.5,348.1247,780.5,357.1247" style="stroke:#6060BB;stroke-width:1.0;"/><text fill="#000000" font-family="sans-serif" font-size="13" lengthAdjust="spacing" textLength="29" x="750.5" y="272.043">uses</text></g><!--link DB to Item--><g id="link_DB_Item"><path codeLine="23" d="M805.96,182.5547 C840.1,182.5547 896.5,182.5547 896.5,182.5547 C896.5,182.5547 896.5,352.4347 896.5,352.4347 " fill="none" id="DB-to-Item" style="stroke:#6060BB;stroke-width:1.0;stroke-dasharray:7.0,7.0;"/><polygon fill="#6060BB" points="896.5,357.4347,900.5,348.4347,896.5,352.4347,892.5,348.4347,896.5,357.4347" style="stroke:#6060BB;stroke-width:1.0;"/><text fill="#000000" font-family="sans-serif" font-size="13" lengthAdjust="spacing" textLength="29" x="866.5" y="218.793">uses</text></g><!--link DB to Invoice--><g id="link_DB_Invoice"><path codeLine="24" d="M805.97,166.5547 C864.28,166.5547 1002.5,166.5547 1002.5,166.5547 C1002.5,166.5547 1002.5,352.1947 1002.5,352.1947 " fill="none" id="DB-to-Invoice" style="stroke:#6060BB;stroke-width:1.0;stroke-dasharray:7.0,7.0;"/><polygon fill="#6060BB" points="1002.5,357.1947,1006.5,348.1947,1002.5,352.1947,998.5,348.1947,1002.5,357.1947" style="stroke:#6060BB;stroke-width:1.0;"/><text fill="#000000" font-family="sans-serif" font-size="13" lengthAdjust="spacing" textLength="29" x="967.05" y="163.123">uses</text></g><!--link DB to Complaints--><g id="link_DB_Complaints"><path codeLine="25" d="M755.03,166.5547 C693.63,166.5547 542.5,166.5547 542.5,166.5547 C542.5,166.5547 542.5,352.1947 542.5,352.1947 " fill="none" id="DB-to-Complaints" style="stroke:#6060BB;stroke-width:1.0;stroke-dasharray:7.0,7.0;"/><polygon fill="#6060BB" points="542.5,357.1947,546.5,348.1947,542.5,352.1947,538.5,348.1947,542.5,357.1947" style="stroke:#6060BB;stroke-width:1.0;"/><text fill="#000000" font-family="sans-serif" font-size="13" lengthAdjust="spacing" textLength="29" x="525.94" y="163.123">uses</text></g><!--SRC=[jLJ1Rjf04Btp5QFa4CaIBkeX1nGuE0Irbrwg7YhimyeUcn7hMMjtdKAg_dl71XirfOrH00lBu3VllNcpksv3N2chIj34w7SLWh5-RKQUl4PuSFI2qu-J-TDMbPL65qOgMw2ZWiEbsk0J2qukT104ZWH2EM4M1F3meIcTZzXuX9llfhQWB89YfNSlnCKqvhCvOuvvDbkIzcXdivY55LB5a6fADu3arsX1Ri2gH5UfL2XYDbO0ohdzlv3Bxxob41SDkXHJMVD0DkQCBAOUCgoGC-HKN8HxsQ-ecpUc4Md40nZYFqElIBVkfMC0MAtUB1jdf0ePoRWh3jrpaIIDvBBM6WwlNwVJT144XJLrXHbK4aKVGn1quhaGzFp7yl6XR2nbuxxigFl9bDXHa0Ip3TU-r4bo0yh1KXlb9SmlCkeH7C8-qUKYEjtz8ZhXQAyDy5COVydtFxn_fXT-vcT3AGv9kiF-M_zsXrgR7wsDiuruMLk3N0ZmEXOUQ-TbT7QGZGvy7IlVt40R3V1AQHW1A6BlXkNHmy-mSoTxSD07heQzWySs48jQzgLX1xZrLgLUZeNScl9uBam5-tSEezDxDrpTta_k9r6KXFEXyuOfr4uEmijGzglvihJjFhqmvU4Ckd3_n_NR4xztsAyqVWC0]--></g></svg>