<?xml version="1.0" encoding="us-ascii" standalone="no"?><svg xmlns="http://www.w3.org/2000/svg" xmlns:xlink="http://www.w3.org/1999/xlink" contentStyleType="text/css" height="477px" preserveAspectRatio="none" style="width:927px;height:477px;background:#FFFFFF;" version="1.1" viewBox="0 0 927 477" width="927px" zoomAndPan="magnify"><defs/><g><text fill="#000000" font-family="sans-serif" font-size="20" font-weight="bold" lengthAdjust="spacing" textLength="487" x="10" y="29.3359">Examples.BetterDesign.FakeEntitities.Customer</text><text fill="#000000" font-family="sans-serif" font-size="20" font-weight="bold" lengthAdjust="spacing" textLength="104" x="504" y="29.3359">simplified</text><text fill="#000000" font-family="sans-serif" font-size="20" font-weight="bold" lengthAdjust="spacing" textLength="38" x="615" y="29.3359">and</text><text fill="#000000" font-family="sans-serif" font-size="20" font-weight="bold" lengthAdjust="spacing" textLength="249" x="660" y="29.3359">grouped per namespace</text><!--cluster Examples--><g id="cluster_Examples"><a href="Examples-diagram-simplified-grouped-per-namespace.svg" target="_top" title="Examples-diagram-simplified-grouped-per-namespace.svg" xlink:actuate="onRequest" xlink:href="Examples-diagram-simplified-grouped-per-namespace.svg" xlink:show="new" xlink:title="Examples-diagram-simplified-grouped-per-namespace.svg" xlink:type="simple"><path d="M685.5,72.5547 L754.5,72.5547 A3.75,3.75 0 0 1 757,75.0547 L764,95.043 L908.5,95.043 A2.5,2.5 0 0 1 911,97.543 L911,468.0547 A2.5,2.5 0 0 1 908.5,470.5547 L685.5,470.5547 A2.5,2.5 0 0 1 683,468.0547 L683,75.0547 A2.5,2.5 0 0 1 685.5,72.5547 " fill="none" style="stroke:#000000;stroke-width:1.5;"/><line style="stroke:#000000;stroke-width:1.5;" x1="683" x2="764" y1="95.043" y2="95.043"/><text fill="#000000" font-family="sans-serif" font-size="14" font-weight="bold" lengthAdjust="spacing" textLength="68" x="687" y="88.0898">Examples</text></a></g><!--cluster BetterDesign--><g id="cluster_BetterDesign"><a href="Examples.BetterDesign-diagram-simplified-grouped-per-namespace.svg" target="_top" title="Examples.BetterDesign-diagram-simplified-grouped-per-namespace.svg" xlink:actuate="onRequest" xlink:href="Examples.BetterDesign-diagram-simplified-grouped-per-namespace.svg" xlink:show="new" xlink:title="Examples.BetterDesign-diagram-simplified-grouped-per-namespace.svg" xlink:type="simple"><path d="M709.5,115.5547 L803.5,115.5547 A3.75,3.75 0 0 1 806,118.0547 L813,138.043 L884.5,138.043 A2.5,2.5 0 0 1 887,140.543 L887,444.0547 A2.5,2.5 0 0 1 884.5,446.5547 L709.5,446.5547 A2.5,2.5 0 0 1 707,444.0547 L707,118.0547 A2.5,2.5 0 0 1 709.5,115.5547 " fill="none" style="stroke:#000000;stroke-width:1.5;"/><line style="stroke:#000000;stroke-width:1.5;" x1="707" x2="813" y1="138.043" y2="138.043"/><text fill="#000000" font-family="sans-serif" font-size="14" font-weight="bold" lengthAdjust="spacing" textLength="93" x="711" y="131.0898">BetterDesign</text></a></g><!--cluster FakeEntitities--><g id="cluster_FakeEntitities"><a href="Examples.BetterDesign.FakeEntitities-diagram-simplified-grouped-per-namespace.svg" target="_top" title="Examples.BetterDesign.FakeEntitities-diagram-simplified-grouped-per-namespace.svg" xlink:actuate="onRequest" xlink:href="Examples.BetterDesign.FakeEntitities-diagram-simplified-grouped-per-namespace.svg" xlink:show="new" xlink:title="Examples.BetterDesign.FakeEntitities-diagram-simplified-grouped-per-namespace.svg" xlink:type="simple"><path d="M733.5,323.5547 L833.5,323.5547 A3.75,3.75 0 0 1 836,326.0547 L843,346.043 L860.5,346.043 A2.5,2.5 0 0 1 863,348.543 L863,420.0547 A2.5,2.5 0 0 1 860.5,422.5547 L733.5,422.5547 A2.5,2.5 0 0 1 731,420.0547 L731,326.0547 A2.5,2.5 0 0 1 733.5,323.5547 " fill="none" style="stroke:#000000;stroke-width:1.5;"/><line style="stroke:#000000;stroke-width:1.5;" x1="731" x2="843" y1="346.043" y2="346.043"/><text fill="#000000" font-family="sans-serif" font-size="14" font-weight="bold" lengthAdjust="spacing" textLength="99" x="735" y="339.0898">FakeEntitities</text></a></g><!--class DBCustomers--><a href="Examples.BetterDesign.DBCustomers-diagram-simplified-grouped-per-namespace.svg" target="_top" title="Examples.BetterDesign.DBCustomers-diagram-simplified-grouped-per-namespace.svg" xlink:actuate="onRequest" xlink:href="Examples.BetterDesign.DBCustomers-diagram-simplified-grouped-per-namespace.svg" xlink:show="new" xlink:title="Examples.BetterDesign.DBCustomers-diagram-simplified-grouped-per-namespace.svg" xlink:type="simple"><g id="elem_DBCustomers"><rect codeLine="6" fill="#F1F1F1" height="48" id="DBCustomers" rx="2.5" ry="2.5" style="stroke:#181818;stroke-width:0.5;" width="124" x="735" y="150.5547"/><ellipse cx="750" cy="166.5547" fill="#ADD1B2" rx="11" ry="11" style="stroke:#181818;stroke-width:1.0;"/><path d="M752.4731,172.6978 Q751.8921,172.9966 751.2529,173.146 Q750.6138,173.2954 749.9082,173.2954 Q747.4014,173.2954 746.0815,171.6436 Q744.7617,169.9917 744.7617,166.8706 Q744.7617,163.7412 746.0815,162.0894 Q747.4014,160.4375 749.9082,160.4375 Q750.6138,160.4375 751.2612,160.5869 Q751.9087,160.7363 752.4731,161.0352 L752.4731,163.7578 Q751.8423,163.1768 751.2488,162.907 Q750.6553,162.6372 750.0244,162.6372 Q748.6797,162.6372 747.9949,163.7039 Q747.3101,164.7705 747.3101,166.8706 Q747.3101,168.9624 747.9949,170.0291 Q748.6797,171.0957 750.0244,171.0957 Q750.6553,171.0957 751.2488,170.8259 Q751.8423,170.5562 752.4731,169.9751 Z " fill="#000000"/><text fill="#000000" font-family="sans-serif" font-size="14" lengthAdjust="spacing" textLength="92" x="764" y="171.8457">DBCustomers</text><line style="stroke:#181818;stroke-width:0.5;" x1="736" x2="858" y1="182.5547" y2="182.5547"/><line style="stroke:#181818;stroke-width:0.5;" x1="736" x2="858" y1="190.5547" y2="190.5547"/></g></a><!--class Customer--><a href="Examples.BetterDesign.FakeEntitities.Customer-diagram-simplified-grouped-per-namespace.svg" target="_top" title="Examples.BetterDesign.FakeEntitities.Customer-diagram-simplified-grouped-per-namespace.svg" xlink:actuate="onRequest" xlink:href="Examples.BetterDesign.FakeEntitities.Customer-diagram-simplified-grouped-per-namespace.svg" xlink:show="new" xlink:title="Examples.BetterDesign.FakeEntitities.Customer-diagram-simplified-grouped-per-namespace.svg" xlink:type="simple"><g id="elem_Customer"><rect codeLine="17" fill="#FFFF00" height="48" id="Customer" rx="2.5" ry="2.5" style="stroke:#181818;stroke-width:0.5;" width="99" x="747.5" y="358.5547"/><ellipse cx="762.5" cy="374.5547" fill="#ADD1B2" rx="11" ry="11" style="stroke:#181818;stroke-width:1.0;"/><path d="M764.9731,380.6978 Q764.3921,380.9966 763.7529,381.146 Q763.1138,381.2954 762.4082,381.2954 Q759.9014,381.2954 758.5815,379.6436 Q757.2617,377.9917 757.2617,374.8706 Q757.2617,371.7412 758.5815,370.0894 Q759.9014,368.4375 762.4082,368.4375 Q763.1138,368.4375 763.7612,368.5869 Q764.4087,368.7363 764.9731,369.0352 L764.9731,371.7578 Q764.3423,371.1768 763.7488,370.907 Q763.1553,370.6372 762.5244,370.6372 Q761.1797,370.6372 760.4949,371.7039 Q759.8101,372.7705 759.8101,374.8706 Q759.8101,376.9624 760.4949,378.0291 Q761.1797,379.0957 762.5244,379.0957 Q763.1553,379.0957 763.7488,378.8259 Q764.3423,378.5562 764.9731,377.9751 Z " fill="#000000"/><text fill="#000000" font-family="sans-serif" font-size="14" lengthAdjust="spacing" textLength="67" x="776.5" y="379.8457">Customer</text><line style="stroke:#181818;stroke-width:0.5;" x1="748.5" x2="845.5" y1="390.5547" y2="390.5547"/><line style="stroke:#181818;stroke-width:0.5;" x1="748.5" x2="845.5" y1="398.5547" y2="398.5547"/></g></a><g id="elem_FloatingNote"><path d="M21,50.5547 L21,298.2129 L667,298.2129 L667,60.5547 L657,50.5547 L21,50.5547 " fill="#FEFFDD" style="stroke:#181818;stroke-width:0.5;"/><path d="M657,50.5547 L657,60.5547 L667,60.5547 L657,50.5547 " fill="#FEFFDD" style="stroke:#181818;stroke-width:1.0;"/><text fill="#000000" font-family="sans-serif" font-size="13" lengthAdjust="spacing" textLength="120" x="27" y="68.123">Your are analyzing:</text><text fill="#000000" font-family="sans-serif" font-size="13" lengthAdjust="spacing" textLength="298" x="27" y="83.4336">Examples.BetterDesign.FakeEntitities.Customer</text><text fill="#000000" font-family="sans-serif" font-size="13" font-weight="bold" lengthAdjust="spacing" textLength="67" x="329" y="83.4336">simplified</text><text fill="#000000" font-family="sans-serif" font-size="13" lengthAdjust="spacing" textLength="23" x="400" y="83.4336">and</text><text fill="#000000" font-family="sans-serif" font-size="13" font-weight="bold" lengthAdjust="spacing" textLength="166" x="427" y="83.4336">grouped per namespace</text><text fill="#000000" font-family="sans-serif" font-size="13" lengthAdjust="spacing" textLength="4" x="27" y="98.7441">&#160;</text><text fill="#000000" font-family="sans-serif" font-size="13" lengthAdjust="spacing" textLength="229" x="27" y="129.3652">You can click either the namespaces</text><text fill="#000000" font-family="sans-serif" font-size="13" lengthAdjust="spacing" textLength="266" x="27" y="144.6758">or class names for filtering them and their</text><text fill="#000000" font-family="sans-serif" font-size="13" lengthAdjust="spacing" textLength="130" x="27" y="159.9863">direct dependencies.</text><text fill="#000000" font-family="sans-serif" font-size="13" lengthAdjust="spacing" textLength="4" x="27" y="175.2969">&#160;</text><line style="stroke:#181818;stroke-width:1.0;" x1="22" x2="328" y1="109.1416" y2="109.1416"/><line style="stroke:#181818;stroke-width:1.0;" x1="22" x2="328" y1="111.1416" y2="111.1416"/><text fill="#000000" font-family="sans-serif" font-size="13" lengthAdjust="spacing" textLength="32" x="328" y="113.5547">Filter</text><line style="stroke:#181818;stroke-width:1.0;" x1="360" x2="666" y1="109.1416" y2="109.1416"/><line style="stroke:#181818;stroke-width:1.0;" x1="360" x2="666" y1="111.1416" y2="111.1416"/><ellipse cx="32.5" cy="205.1602" fill="#000000" rx="2.5" ry="2.5" style="stroke:#000000;stroke-width:0.0;"/><text fill="#000000" font-family="sans-serif" font-size="13" lengthAdjust="spacing" textLength="298" x="39" y="209.918">Examples.BetterDesign.FakeEntitities.Customer</text><text fill="#000000" font-family="sans-serif" font-size="13" font-weight="bold" lengthAdjust="spacing" textLength="55" x="341" y="209.918">detailed</text><text fill="#000000" font-family="sans-serif" font-size="13" lengthAdjust="spacing" textLength="23" x="400" y="209.918">and</text><text fill="#000000" font-family="sans-serif" font-size="13" font-weight="bold" lengthAdjust="spacing" textLength="166" x="427" y="209.918">grouped per namespace</text><text fill="#000000" font-family="sans-serif" font-size="13" lengthAdjust="spacing" textLength="4" x="593" y="209.918">:</text><text fill="#000000" font-family="sans-serif" font-size="13" lengthAdjust="spacing" textLength="12" x="27" y="225.2285">&#160;&#160;&#160;</text><a href="Examples.BetterDesign.FakeEntitities.Customer-diagram-detailed-grouped-per-namespace.svg" target="_top" title="Examples.BetterDesign.FakeEntitities.Customer-diagram-detailed-grouped-per-namespace.svg" xlink:actuate="onRequest" xlink:href="Examples.BetterDesign.FakeEntitities.Customer-diagram-detailed-grouped-per-namespace.svg" xlink:show="new" xlink:title="Examples.BetterDesign.FakeEntitities.Customer-diagram-detailed-grouped-per-namespace.svg" xlink:type="simple"><text fill="#0000FF" font-family="sans-serif" font-size="13" lengthAdjust="spacing" text-decoration="underline" textLength="607" x="39" y="225.2285">Examples.BetterDesign.FakeEntitities.Customer-diagram-detailed-grouped-per-namespace.svg</text></a><ellipse cx="32.5" cy="235.7813" fill="#000000" rx="2.5" ry="2.5" style="stroke:#000000;stroke-width:0.0;"/><text fill="#000000" font-family="sans-serif" font-size="13" lengthAdjust="spacing" textLength="78" x="39" y="240.5391">Full diagram</text><text fill="#000000" font-family="sans-serif" font-size="13" font-weight="bold" lengthAdjust="spacing" textLength="67" x="121" y="240.5391">simplified</text><text fill="#000000" font-family="sans-serif" font-size="13" lengthAdjust="spacing" textLength="23" x="192" y="240.5391">and</text><text fill="#000000" font-family="sans-serif" font-size="13" font-weight="bold" lengthAdjust="spacing" textLength="166" x="219" y="240.5391">grouped per namespace</text><text fill="#000000" font-family="sans-serif" font-size="13" lengthAdjust="spacing" textLength="4" x="385" y="240.5391">:</text><text fill="#000000" font-family="sans-serif" font-size="13" lengthAdjust="spacing" textLength="12" x="27" y="255.8496">&#160;&#160;&#160;</text><a href="full-diagram-simplified-grouped-per-namespace.svg" target="_top" title="full-diagram-simplified-grouped-per-namespace.svg" xlink:actuate="onRequest" xlink:href="full-diagram-simplified-grouped-per-namespace.svg" xlink:show="new" xlink:title="full-diagram-simplified-grouped-per-namespace.svg" xlink:type="simple"><text fill="#0000FF" font-family="sans-serif" font-size="13" lengthAdjust="spacing" text-decoration="underline" textLength="343" x="39" y="255.8496">full-diagram-simplified-grouped-per-namespace.svg</text></a><ellipse cx="32.5" cy="266.4023" fill="#000000" rx="2.5" ry="2.5" style="stroke:#000000;stroke-width:0.0;"/><text fill="#000000" font-family="sans-serif" font-size="13" lengthAdjust="spacing" textLength="41" x="39" y="271.1602">Home:</text><text fill="#000000" font-family="sans-serif" font-size="13" lengthAdjust="spacing" textLength="12" x="27" y="286.4707">&#160;&#160;&#160;</text><a href="index.html" target="_top" title="index.html" xlink:actuate="onRequest" xlink:href="index.html" xlink:show="new" xlink:title="index.html" xlink:type="simple"><text fill="#0000FF" font-family="sans-serif" font-size="13" lengthAdjust="spacing" text-decoration="underline" textLength="68" x="39" y="286.4707">index.html</text></a><line style="stroke:#181818;stroke-width:1.0;" x1="22" x2="307" y1="189.6943" y2="189.6943"/><line style="stroke:#181818;stroke-width:1.0;" x1="22" x2="307" y1="191.6943" y2="191.6943"/><text fill="#000000" font-family="sans-serif" font-size="13" lengthAdjust="spacing" textLength="74" x="307" y="194.1074">Select other</text><line style="stroke:#181818;stroke-width:1.0;" x1="381" x2="666" y1="189.6943" y2="189.6943"/><line style="stroke:#181818;stroke-width:1.0;" x1="381" x2="666" y1="191.6943" y2="191.6943"/></g><!--link DBCustomers to Customer--><g id="link_DBCustomers_Customer"><path codeLine="32" d="M797,198.8247 C797,198.8247 797,352.1247 797,352.1247 " fill="none" id="DBCustomers-to-Customer" style="stroke:#6060BB;stroke-width:1.0;stroke-dasharray:7.0,7.0;"/><polygon fill="#6060BB" points="797,357.1247,801,348.1247,797,352.1247,793,348.1247,797,357.1247" style="stroke:#6060BB;stroke-width:1.0;"/><text fill="#000000" font-family="sans-serif" font-size="13" lengthAdjust="spacing" textLength="29" x="767" y="272.043">uses</text></g><!--SRC=[rLLDRzf04BtxLuoIGoHBkAY7753WG1BKKouzLHYXZJs64UjTQsUTGAhyzyuIlX91m56JgXWXx9rvxysdUKQcKawLeCcWNrG8rlcfZJnvZN35z8ITx-tUxLoLbKPE-kWzkXjacfXae6PuQyHKBZcxhjdR4Xt4CPEOKq6Onp4eaykZYRDrXJbKOc1KYLof3EFuwblWw4N6UeIpNxPse1oAZzAB9pAJJce-ZpmrgUbs1wG5jjjDZT13fWnach8P8FcfsClFreSXDTQ9WM9-UGg5t1TB294RhCibgVmXbvgS76OUSgpGv6YoeFM5zYVgS683II2FeMcWENf5-dYOaaC060uRuRToKXFfZDQQfRL2RmbwQuEUyCDaD0hg1xNMi79gL8Mrl480DgnRzsEyFqJj6e8an_Dawaiz6fs1OXXegxpKvKxQAzeuRpAzavI6pF1x3zohn1vAU7CYMFNR_lhTzDSbuuCrth5fIh_aVuukhcqfcqAgzrLXmwFC7qZW7cHIIZGoAmKijS2rjXocJKdBLGuVoDOyvlf-l44PQnB7hTOxQn3kCLCrOnZNrOfXOf1lGOPuYdcoWxtrtGqZUjvhiWvPZl_NBZj2z6PFdBXEFjBixxVxeNNuqVLseh3p1Mfj7rS26yp35-NjqBJyYtbv7Sg1YMasL70Xxu-JFl1fja5Yw4k7MjufrZ3Wt3kLUMc2mjbogxmZjdkh71rVuSdm_B9zsUxtHqcluGX01wHQ_5UKlY7v0m00]--></g></svg>