<?xml version="1.0" encoding="us-ascii" standalone="no"?><svg xmlns="http://www.w3.org/2000/svg" xmlns:xlink="http://www.w3.org/1999/xlink" contentStyleType="text/css" height="522px" preserveAspectRatio="none" style="width:1358px;height:522px;background:#FFFFFF;" version="1.1" viewBox="0 0 1358 522" width="1358px" zoomAndPan="magnify"><defs/><g><text fill="#000000" font-family="sans-serif" font-size="20" font-weight="bold" lengthAdjust="spacing" textLength="550" x="338" y="29.3359">Examples.BetterDesign.Repository.WarehouseEntities</text><text fill="#000000" font-family="sans-serif" font-size="20" font-weight="bold" lengthAdjust="spacing" textLength="104" x="895" y="29.3359">simplified</text><text fill="#000000" font-family="sans-serif" font-size="20" font-weight="bold" lengthAdjust="spacing" textLength="7" x="999" y="29.3359">&#160;</text><!--cluster Examples--><g id="cluster_Examples"><path d="M540.5,50.5547 L609.5,50.5547 A3.75,3.75 0 0 1 612,53.0547 L619,73.043 L1348.5,73.043 A2.5,2.5 0 0 1 1351,75.543 L1351,513.0547 A2.5,2.5 0 0 1 1348.5,515.5547 L540.5,515.5547 A2.5,2.5 0 0 1 538,513.0547 L538,53.0547 A2.5,2.5 0 0 1 540.5,50.5547 " fill="none" style="stroke:#000000;stroke-width:1.5;"/><line style="stroke:#000000;stroke-width:1.5;" x1="538" x2="619" y1="73.043" y2="73.043"/><text fill="#000000" font-family="sans-serif" font-size="14" font-weight="bold" lengthAdjust="spacing" textLength="68" x="542" y="66.0898">Examples</text></g><!--cluster BetterDesign--><g id="cluster_BetterDesign"><path d="M564.5,93.5547 L658.5,93.5547 A3.75,3.75 0 0 1 661,96.0547 L668,116.043 L1324.5,116.043 A2.5,2.5 0 0 1 1327,118.543 L1327,489.0547 A2.5,2.5 0 0 1 1324.5,491.5547 L564.5,491.5547 A2.5,2.5 0 0 1 562,489.0547 L562,96.0547 A2.5,2.5 0 0 1 564.5,93.5547 " fill="none" style="stroke:#000000;stroke-width:1.5;"/><line style="stroke:#000000;stroke-width:1.5;" x1="562" x2="668" y1="116.043" y2="116.043"/><text fill="#000000" font-family="sans-serif" font-size="14" font-weight="bold" lengthAdjust="spacing" textLength="93" x="566" y="109.0898">BetterDesign</text></g><!--cluster Repository--><g id="cluster_Repository"><path d="M676.5,136.5547 L755.5,136.5547 A3.75,3.75 0 0 1 758,139.0547 L765,159.043 L1300.5,159.043 A2.5,2.5 0 0 1 1303,161.543 L1303,465.0547 A2.5,2.5 0 0 1 1300.5,467.5547 L676.5,467.5547 A2.5,2.5 0 0 1 674,465.0547 L674,139.0547 A2.5,2.5 0 0 1 676.5,136.5547 " fill="none" style="stroke:#000000;stroke-width:1.5;"/><line style="stroke:#000000;stroke-width:1.5;" x1="674" x2="765" y1="159.043" y2="159.043"/><text fill="#000000" font-family="sans-serif" font-size="14" font-weight="bold" lengthAdjust="spacing" textLength="78" x="678" y="152.0898">Repository</text></g><!--cluster WarehouseEntities--><g id="cluster_WarehouseEntities"><path d="M700.5,344.5547 L834.5,344.5547 A3.75,3.75 0 0 1 837,347.0547 L844,367.043 L1276.5,367.043 A2.5,2.5 0 0 1 1279,369.543 L1279,441.0547 A2.5,2.5 0 0 1 1276.5,443.5547 L700.5,443.5547 A2.5,2.5 0 0 1 698,441.0547 L698,347.0547 A2.5,2.5 0 0 1 700.5,344.5547 " fill="none" style="stroke:#000000;stroke-width:1.5;"/><line style="stroke:#000000;stroke-width:1.5;" x1="698" x2="844" y1="367.043" y2="367.043"/><text fill="#000000" font-family="sans-serif" font-size="14" font-weight="bold" lengthAdjust="spacing" textLength="133" x="702" y="360.0898">WarehouseEntities</text></g><!--class Service--><a href="Examples.BetterDesign.Service-diagram-simplified.svg" target="_top" title="Examples.BetterDesign.Service-diagram-simplified.svg" xlink:actuate="onRequest" xlink:href="Examples.BetterDesign.Service-diagram-simplified.svg" xlink:show="new" xlink:title="Examples.BetterDesign.Service-diagram-simplified.svg" xlink:type="simple"><g id="elem_Service"><rect codeLine="4" fill="#F1F1F1" height="48" id="Service" rx="2.5" ry="2.5" style="stroke:#181818;stroke-width:0.5;" width="80" x="578" y="171.5547"/><ellipse cx="593" cy="187.5547" fill="#ADD1B2" rx="11" ry="11" style="stroke:#181818;stroke-width:1.0;"/><path d="M595.4731,193.6978 Q594.8921,193.9966 594.2529,194.146 Q593.6138,194.2954 592.9082,194.2954 Q590.4014,194.2954 589.0815,192.6436 Q587.7617,190.9917 587.7617,187.8706 Q587.7617,184.7412 589.0815,183.0894 Q590.4014,181.4375 592.9082,181.4375 Q593.6138,181.4375 594.2612,181.5869 Q594.9087,181.7363 595.4731,182.0352 L595.4731,184.7578 Q594.8423,184.1768 594.2488,183.907 Q593.6553,183.6372 593.0244,183.6372 Q591.6797,183.6372 590.9949,184.7039 Q590.3101,185.7705 590.3101,187.8706 Q590.3101,189.9624 590.9949,191.0291 Q591.6797,192.0957 593.0244,192.0957 Q593.6553,192.0957 594.2488,191.8259 Q594.8423,191.5562 595.4731,190.9751 Z " fill="#000000"/><text fill="#000000" font-family="sans-serif" font-size="14" lengthAdjust="spacing" textLength="48" x="607" y="192.8457">Service</text><line style="stroke:#181818;stroke-width:0.5;" x1="579" x2="657" y1="203.5547" y2="203.5547"/><line style="stroke:#181818;stroke-width:0.5;" x1="579" x2="657" y1="211.5547" y2="211.5547"/></g></a><!--class DBWarehouse--><a href="Examples.BetterDesign.Repository.DBWarehouse-diagram-simplified.svg" target="_top" title="Examples.BetterDesign.Repository.DBWarehouse-diagram-simplified.svg" xlink:actuate="onRequest" xlink:href="Examples.BetterDesign.Repository.DBWarehouse-diagram-simplified.svg" xlink:show="new" xlink:title="Examples.BetterDesign.Repository.DBWarehouse-diagram-simplified.svg" xlink:type="simple"><g id="elem_DBWarehouse"><rect codeLine="6" fill="#F1F1F1" height="48" id="DBWarehouse" rx="2.5" ry="2.5" style="stroke:#181818;stroke-width:0.5;" width="126" x="889" y="171.5547"/><ellipse cx="904" cy="187.5547" fill="#ADD1B2" rx="11" ry="11" style="stroke:#181818;stroke-width:1.0;"/><path d="M906.4731,193.6978 Q905.8921,193.9966 905.2529,194.146 Q904.6138,194.2954 903.9082,194.2954 Q901.4014,194.2954 900.0815,192.6436 Q898.7617,190.9917 898.7617,187.8706 Q898.7617,184.7412 900.0815,183.0894 Q901.4014,181.4375 903.9082,181.4375 Q904.6138,181.4375 905.2612,181.5869 Q905.9087,181.7363 906.4731,182.0352 L906.4731,184.7578 Q905.8423,184.1768 905.2488,183.907 Q904.6553,183.6372 904.0244,183.6372 Q902.6797,183.6372 901.9949,184.7039 Q901.3101,185.7705 901.3101,187.8706 Q901.3101,189.9624 901.9949,191.0291 Q902.6797,192.0957 904.0244,192.0957 Q904.6553,192.0957 905.2488,191.8259 Q905.8423,191.5562 906.4731,190.9751 Z " fill="#000000"/><text fill="#000000" font-family="sans-serif" font-size="14" lengthAdjust="spacing" textLength="94" x="918" y="192.8457">DBWarehouse</text><line style="stroke:#181818;stroke-width:0.5;" x1="890" x2="1014" y1="203.5547" y2="203.5547"/><line style="stroke:#181818;stroke-width:0.5;" x1="890" x2="1014" y1="211.5547" y2="211.5547"/></g></a><!--class Customer--><a href="Examples.BetterDesign.Repository.WarehouseEntities.Customer-diagram-simplified.svg" target="_top" title="Examples.BetterDesign.Repository.WarehouseEntities.Customer-diagram-simplified.svg" xlink:actuate="onRequest" xlink:href="Examples.BetterDesign.Repository.WarehouseEntities.Customer-diagram-simplified.svg" xlink:show="new" xlink:title="Examples.BetterDesign.Repository.WarehouseEntities.Customer-diagram-simplified.svg" xlink:type="simple"><g id="elem_Customer"><rect codeLine="8" fill="#FFFF00" height="48" id="Customer" rx="2.5" ry="2.5" style="stroke:#181818;stroke-width:0.5;" width="99" x="1018.5" y="379.5547"/><ellipse cx="1033.5" cy="395.5547" fill="#ADD1B2" rx="11" ry="11" style="stroke:#181818;stroke-width:1.0;"/><path d="M1035.9731,401.6978 Q1035.3921,401.9966 1034.7529,402.146 Q1034.1138,402.2954 1033.4082,402.2954 Q1030.9014,402.2954 1029.5815,400.6436 Q1028.2617,398.9917 1028.2617,395.8706 Q1028.2617,392.7412 1029.5815,391.0894 Q1030.9014,389.4375 1033.4082,389.4375 Q1034.1138,389.4375 1034.7612,389.5869 Q1035.4087,389.7363 1035.9731,390.0352 L1035.9731,392.7578 Q1035.3423,392.1768 1034.7488,391.907 Q1034.1553,391.6372 1033.5244,391.6372 Q1032.1797,391.6372 1031.4949,392.7039 Q1030.8101,393.7705 1030.8101,395.8706 Q1030.8101,397.9624 1031.4949,399.0291 Q1032.1797,400.0957 1033.5244,400.0957 Q1034.1553,400.0957 1034.7488,399.8259 Q1035.3423,399.5562 1035.9731,398.9751 Z " fill="#000000"/><text fill="#000000" font-family="sans-serif" font-size="14" lengthAdjust="spacing" textLength="67" x="1047.5" y="400.8457">Customer</text><line style="stroke:#181818;stroke-width:0.5;" x1="1019.5" x2="1116.5" y1="411.5547" y2="411.5547"/><line style="stroke:#181818;stroke-width:0.5;" x1="1019.5" x2="1116.5" y1="419.5547" y2="419.5547"/></g></a><!--class User--><a href="Examples.BetterDesign.Repository.WarehouseEntities.User-diagram-simplified.svg" target="_top" title="Examples.BetterDesign.Repository.WarehouseEntities.User-diagram-simplified.svg" xlink:actuate="onRequest" xlink:href="Examples.BetterDesign.Repository.WarehouseEntities.User-diagram-simplified.svg" xlink:show="new" xlink:title="Examples.BetterDesign.Repository.WarehouseEntities.User-diagram-simplified.svg" xlink:type="simple"><g id="elem_User"><rect codeLine="10" fill="#FFFF00" height="48" id="User" rx="2.5" ry="2.5" style="stroke:#181818;stroke-width:0.5;" width="63" x="920.5" y="379.5547"/><ellipse cx="935.5" cy="395.5547" fill="#ADD1B2" rx="11" ry="11" style="stroke:#181818;stroke-width:1.0;"/><path d="M937.9731,401.6978 Q937.3921,401.9966 936.7529,402.146 Q936.1138,402.2954 935.4082,402.2954 Q932.9014,402.2954 931.5815,400.6436 Q930.2617,398.9917 930.2617,395.8706 Q930.2617,392.7412 931.5815,391.0894 Q932.9014,389.4375 935.4082,389.4375 Q936.1138,389.4375 936.7612,389.5869 Q937.4087,389.7363 937.9731,390.0352 L937.9731,392.7578 Q937.3423,392.1768 936.7488,391.907 Q936.1553,391.6372 935.5244,391.6372 Q934.1797,391.6372 933.4949,392.7039 Q932.8101,393.7705 932.8101,395.8706 Q932.8101,397.9624 933.4949,399.0291 Q934.1797,400.0957 935.5244,400.0957 Q936.1553,400.0957 936.7488,399.8259 Q937.3423,399.5562 937.9731,398.9751 Z " fill="#000000"/><text fill="#000000" font-family="sans-serif" font-size="14" lengthAdjust="spacing" textLength="31" x="949.5" y="400.8457">User</text><line style="stroke:#181818;stroke-width:0.5;" x1="921.5" x2="982.5" y1="411.5547" y2="411.5547"/><line style="stroke:#181818;stroke-width:0.5;" x1="921.5" x2="982.5" y1="419.5547" y2="419.5547"/></g></a><!--class Invoice--><a href="Examples.BetterDesign.Repository.WarehouseEntities.Invoice-diagram-simplified.svg" target="_top" title="Examples.BetterDesign.Repository.WarehouseEntities.Invoice-diagram-simplified.svg" xlink:actuate="onRequest" xlink:href="Examples.BetterDesign.Repository.WarehouseEntities.Invoice-diagram-simplified.svg" xlink:show="new" xlink:title="Examples.BetterDesign.Repository.WarehouseEntities.Invoice-diagram-simplified.svg" xlink:type="simple"><g id="elem_Invoice"><rect codeLine="12" fill="#FFFF00" height="48" id="Invoice" rx="2.5" ry="2.5" style="stroke:#181818;stroke-width:0.5;" width="80" x="805" y="379.5547"/><ellipse cx="820" cy="395.5547" fill="#ADD1B2" rx="11" ry="11" style="stroke:#181818;stroke-width:1.0;"/><path d="M822.4731,401.6978 Q821.8921,401.9966 821.2529,402.146 Q820.6138,402.2954 819.9082,402.2954 Q817.4014,402.2954 816.0815,400.6436 Q814.7617,398.9917 814.7617,395.8706 Q814.7617,392.7412 816.0815,391.0894 Q817.4014,389.4375 819.9082,389.4375 Q820.6138,389.4375 821.2612,389.5869 Q821.9087,389.7363 822.4731,390.0352 L822.4731,392.7578 Q821.8423,392.1768 821.2488,391.907 Q820.6553,391.6372 820.0244,391.6372 Q818.6797,391.6372 817.9949,392.7039 Q817.3101,393.7705 817.3101,395.8706 Q817.3101,397.9624 817.9949,399.0291 Q818.6797,400.0957 820.0244,400.0957 Q820.6553,400.0957 821.2488,399.8259 Q821.8423,399.5562 822.4731,398.9751 Z " fill="#000000"/><text fill="#000000" font-family="sans-serif" font-size="14" lengthAdjust="spacing" textLength="48" x="834" y="400.8457">Invoice</text><line style="stroke:#181818;stroke-width:0.5;" x1="806" x2="884" y1="411.5547" y2="411.5547"/><line style="stroke:#181818;stroke-width:0.5;" x1="806" x2="884" y1="419.5547" y2="419.5547"/></g></a><!--class Car--><a href="Examples.BetterDesign.Repository.WarehouseEntities.Car-diagram-simplified.svg" target="_top" title="Examples.BetterDesign.Repository.WarehouseEntities.Car-diagram-simplified.svg" xlink:actuate="onRequest" xlink:href="Examples.BetterDesign.Repository.WarehouseEntities.Car-diagram-simplified.svg" xlink:show="new" xlink:title="Examples.BetterDesign.Repository.WarehouseEntities.Car-diagram-simplified.svg" xlink:type="simple"><g id="elem_Car"><rect codeLine="14" fill="#FFFF00" height="48" id="Car" rx="2.5" ry="2.5" style="stroke:#181818;stroke-width:0.5;" width="56" x="714" y="379.5547"/><ellipse cx="729" cy="395.5547" fill="#ADD1B2" rx="11" ry="11" style="stroke:#181818;stroke-width:1.0;"/><path d="M731.4731,401.6978 Q730.8921,401.9966 730.2529,402.146 Q729.6138,402.2954 728.9082,402.2954 Q726.4014,402.2954 725.0815,400.6436 Q723.7617,398.9917 723.7617,395.8706 Q723.7617,392.7412 725.0815,391.0894 Q726.4014,389.4375 728.9082,389.4375 Q729.6138,389.4375 730.2612,389.5869 Q730.9087,389.7363 731.4731,390.0352 L731.4731,392.7578 Q730.8423,392.1768 730.2488,391.907 Q729.6553,391.6372 729.0244,391.6372 Q727.6797,391.6372 726.9949,392.7039 Q726.3101,393.7705 726.3101,395.8706 Q726.3101,397.9624 726.9949,399.0291 Q727.6797,400.0957 729.0244,400.0957 Q729.6553,400.0957 730.2488,399.8259 Q730.8423,399.5562 731.4731,398.9751 Z " fill="#000000"/><text fill="#000000" font-family="sans-serif" font-size="14" lengthAdjust="spacing" textLength="24" x="743" y="400.8457">Car</text><line style="stroke:#181818;stroke-width:0.5;" x1="715" x2="769" y1="411.5547" y2="411.5547"/><line style="stroke:#181818;stroke-width:0.5;" x1="715" x2="769" y1="419.5547" y2="419.5547"/></g></a><!--class Complaints--><a href="Examples.BetterDesign.Repository.WarehouseEntities.Complaints-diagram-simplified.svg" target="_top" title="Examples.BetterDesign.Repository.WarehouseEntities.Complaints-diagram-simplified.svg" xlink:actuate="onRequest" xlink:href="Examples.BetterDesign.Repository.WarehouseEntities.Complaints-diagram-simplified.svg" xlink:show="new" xlink:title="Examples.BetterDesign.Repository.WarehouseEntities.Complaints-diagram-simplified.svg" xlink:type="simple"><g id="elem_Complaints"><rect codeLine="16" fill="#FFFF00" height="48" id="Complaints" rx="2.5" ry="2.5" style="stroke:#181818;stroke-width:0.5;" width="110" x="1153" y="379.5547"/><ellipse cx="1168" cy="395.5547" fill="#ADD1B2" rx="11" ry="11" style="stroke:#181818;stroke-width:1.0;"/><path d="M1170.4731,401.6978 Q1169.8921,401.9966 1169.2529,402.146 Q1168.6138,402.2954 1167.9082,402.2954 Q1165.4014,402.2954 1164.0815,400.6436 Q1162.7617,398.9917 1162.7617,395.8706 Q1162.7617,392.7412 1164.0815,391.0894 Q1165.4014,389.4375 1167.9082,389.4375 Q1168.6138,389.4375 1169.2612,389.5869 Q1169.9087,389.7363 1170.4731,390.0352 L1170.4731,392.7578 Q1169.8423,392.1768 1169.2488,391.907 Q1168.6553,391.6372 1168.0244,391.6372 Q1166.6797,391.6372 1165.9949,392.7039 Q1165.3101,393.7705 1165.3101,395.8706 Q1165.3101,397.9624 1165.9949,399.0291 Q1166.6797,400.0957 1168.0244,400.0957 Q1168.6553,400.0957 1169.2488,399.8259 Q1169.8423,399.5562 1170.4731,398.9751 Z " fill="#000000"/><text fill="#000000" font-family="sans-serif" font-size="14" lengthAdjust="spacing" textLength="78" x="1182" y="400.8457">Complaints</text><line style="stroke:#181818;stroke-width:0.5;" x1="1154" x2="1262" y1="411.5547" y2="411.5547"/><line style="stroke:#181818;stroke-width:0.5;" x1="1154" x2="1262" y1="419.5547" y2="419.5547"/></g></a><g id="elem_FloatingNote"><path d="M6,71.5547 L6,319.2129 L522,319.2129 L522,81.5547 L512,71.5547 L6,71.5547 " fill="#FEFFDD" style="stroke:#181818;stroke-width:0.5;"/><path d="M512,71.5547 L512,81.5547 L522,81.5547 L512,71.5547 " fill="#FEFFDD" style="stroke:#181818;stroke-width:1.0;"/><text fill="#000000" font-family="sans-serif" font-size="13" lengthAdjust="spacing" textLength="120" x="12" y="89.123">Your are analyzing:</text><text fill="#000000" font-family="sans-serif" font-size="13" lengthAdjust="spacing" textLength="334" x="12" y="104.4336">Examples.BetterDesign.Repository.WarehouseEntities</text><text fill="#000000" font-family="sans-serif" font-size="13" font-weight="bold" lengthAdjust="spacing" textLength="67" x="350" y="104.4336">simplified</text><text fill="#000000" font-family="sans-serif" font-size="13" lengthAdjust="spacing" textLength="4" x="417" y="104.4336">&#160;</text><text fill="#000000" font-family="sans-serif" font-size="13" lengthAdjust="spacing" textLength="4" x="12" y="119.7441">&#160;</text><text fill="#000000" font-family="sans-serif" font-size="13" lengthAdjust="spacing" textLength="229" x="12" y="150.3652">You can click either the namespaces</text><text fill="#000000" font-family="sans-serif" font-size="13" lengthAdjust="spacing" textLength="266" x="12" y="165.6758">or class names for filtering them and their</text><text fill="#000000" font-family="sans-serif" font-size="13" lengthAdjust="spacing" textLength="130" x="12" y="180.9863">direct dependencies.</text><text fill="#000000" font-family="sans-serif" font-size="13" lengthAdjust="spacing" textLength="4" x="12" y="196.2969">&#160;</text><line style="stroke:#181818;stroke-width:1.0;" x1="7" x2="248" y1="130.1416" y2="130.1416"/><line style="stroke:#181818;stroke-width:1.0;" x1="7" x2="248" y1="132.1416" y2="132.1416"/><text fill="#000000" font-family="sans-serif" font-size="13" lengthAdjust="spacing" textLength="32" x="248" y="134.5547">Filter</text><line style="stroke:#181818;stroke-width:1.0;" x1="280" x2="521" y1="130.1416" y2="130.1416"/><line style="stroke:#181818;stroke-width:1.0;" x1="280" x2="521" y1="132.1416" y2="132.1416"/><ellipse cx="17.5" cy="226.1602" fill="#000000" rx="2.5" ry="2.5" style="stroke:#000000;stroke-width:0.0;"/><text fill="#000000" font-family="sans-serif" font-size="13" lengthAdjust="spacing" textLength="334" x="24" y="230.918">Examples.BetterDesign.Repository.WarehouseEntities</text><text fill="#000000" font-family="sans-serif" font-size="13" font-weight="bold" lengthAdjust="spacing" textLength="55" x="362" y="230.918">detailed</text><text fill="#000000" font-family="sans-serif" font-size="13" lengthAdjust="spacing" textLength="4" x="421" y="230.918">:</text><text fill="#000000" font-family="sans-serif" font-size="13" lengthAdjust="spacing" textLength="12" x="12" y="246.2285">&#160;&#160;&#160;</text><a href="Examples.BetterDesign.Repository.WarehouseEntities-diagram-detailed.svg" target="_top" title="Examples.BetterDesign.Repository.WarehouseEntities-diagram-detailed.svg" xlink:actuate="onRequest" xlink:href="Examples.BetterDesign.Repository.WarehouseEntities-diagram-detailed.svg" xlink:show="new" xlink:title="Examples.BetterDesign.Repository.WarehouseEntities-diagram-detailed.svg" xlink:type="simple"><text fill="#0000FF" font-family="sans-serif" font-size="13" lengthAdjust="spacing" text-decoration="underline" textLength="477" x="24" y="246.2285">Examples.BetterDesign.Repository.WarehouseEntities-diagram-detailed.svg</text></a><ellipse cx="17.5" cy="256.7813" fill="#000000" rx="2.5" ry="2.5" style="stroke:#000000;stroke-width:0.0;"/><text fill="#000000" font-family="sans-serif" font-size="13" lengthAdjust="spacing" textLength="78" x="24" y="261.5391">Full diagram</text><text fill="#000000" font-family="sans-serif" font-size="13" font-weight="bold" lengthAdjust="spacing" textLength="67" x="106" y="261.5391">simplified</text><text fill="#000000" font-family="sans-serif" font-size="13" lengthAdjust="spacing" textLength="23" x="177" y="261.5391">and</text><text fill="#000000" font-family="sans-serif" font-size="13" font-weight="bold" lengthAdjust="spacing" textLength="166" x="204" y="261.5391">grouped per namespace</text><text fill="#000000" font-family="sans-serif" font-size="13" lengthAdjust="spacing" textLength="4" x="370" y="261.5391">:</text><text fill="#000000" font-family="sans-serif" font-size="13" lengthAdjust="spacing" textLength="12" x="12" y="276.8496">&#160;&#160;&#160;</text><a href="full-diagram-simplified-grouped-per-namespace.svg" target="_top" title="full-diagram-simplified-grouped-per-namespace.svg" xlink:actuate="onRequest" xlink:href="full-diagram-simplified-grouped-per-namespace.svg" xlink:show="new" xlink:title="full-diagram-simplified-grouped-per-namespace.svg" xlink:type="simple"><text fill="#0000FF" font-family="sans-serif" font-size="13" lengthAdjust="spacing" text-decoration="underline" textLength="343" x="24" y="276.8496">full-diagram-simplified-grouped-per-namespace.svg</text></a><ellipse cx="17.5" cy="287.4023" fill="#000000" rx="2.5" ry="2.5" style="stroke:#000000;stroke-width:0.0;"/><text fill="#000000" font-family="sans-serif" font-size="13" lengthAdjust="spacing" textLength="41" x="24" y="292.1602">Home:</text><text fill="#000000" font-family="sans-serif" font-size="13" lengthAdjust="spacing" textLength="12" x="12" y="307.4707">&#160;&#160;&#160;</text><a href="index.html" target="_top" title="index.html" xlink:actuate="onRequest" xlink:href="index.html" xlink:show="new" xlink:title="index.html" xlink:type="simple"><text fill="#0000FF" font-family="sans-serif" font-size="13" lengthAdjust="spacing" text-decoration="underline" textLength="68" x="24" y="307.4707">index.html</text></a><line style="stroke:#181818;stroke-width:1.0;" x1="7" x2="227" y1="210.6943" y2="210.6943"/><line style="stroke:#181818;stroke-width:1.0;" x1="7" x2="227" y1="212.6943" y2="212.6943"/><text fill="#000000" font-family="sans-serif" font-size="13" lengthAdjust="spacing" textLength="74" x="227" y="215.1074">Select other</text><line style="stroke:#181818;stroke-width:1.0;" x1="301" x2="521" y1="210.6943" y2="210.6943"/><line style="stroke:#181818;stroke-width:1.0;" x1="301" x2="521" y1="212.6943" y2="212.6943"/></g><!--link Service to Car--><g id="link_Service_Car"><path codeLine="23" d="M658.43,203.5547 C691.44,203.5547 732.67,203.5547 732.67,203.5547 C732.67,203.5547 732.67,373.4347 732.67,373.4347 " fill="none" id="Service-to-Car" style="stroke:#6060BB;stroke-width:1.0;stroke-dasharray:7.0,7.0;"/><polygon fill="#6060BB" points="732.67,378.4347,736.67,369.4347,732.67,373.4347,728.67,369.4347,732.67,378.4347" style="stroke:#6060BB;stroke-width:1.0;"/><text fill="#000000" font-family="sans-serif" font-size="13" lengthAdjust="spacing" textLength="29" x="702.67" y="247.943">uses</text></g><!--link DBWarehouse to Customer--><g id="link_DBWarehouse_Customer"><path codeLine="26" d="M999.25,219.8247 C999.25,274.6947 999.25,403.5547 999.25,403.5547 C999.25,403.5547 1012.04,403.5547 1012.04,403.5547 " fill="none" id="DBWarehouse-to-Customer" style="stroke:#6060BB;stroke-width:1.0;stroke-dasharray:7.0,7.0;"/><polygon fill="#6060BB" points="1017.04,403.5547,1008.04,399.5547,1012.04,403.5547,1008.04,407.5547,1017.04,403.5547" style="stroke:#6060BB;stroke-width:1.0;"/><text fill="#000000" font-family="sans-serif" font-size="13" lengthAdjust="spacing" textLength="29" x="969.25" y="314.653">uses</text></g><!--link DBWarehouse to Invoice--><g id="link_DBWarehouse_Invoice"><path codeLine="27" d="M904.75,219.8247 C904.75,274.6947 904.75,403.5547 904.75,403.5547 C904.75,403.5547 891.19,403.5547 891.19,403.5547 " fill="none" id="DBWarehouse-to-Invoice" style="stroke:#6060BB;stroke-width:1.0;stroke-dasharray:7.0,7.0;"/><polygon fill="#6060BB" points="886.19,403.5547,895.19,407.5547,891.19,403.5547,895.19,399.5547,886.19,403.5547" style="stroke:#6060BB;stroke-width:1.0;"/><text fill="#000000" font-family="sans-serif" font-size="13" lengthAdjust="spacing" textLength="29" x="874.75" y="315.043">uses</text></g><!--link DBWarehouse to Car--><g id="link_DBWarehouse_Car"><path codeLine="28" d="M888.51,187.5547 C829.72,187.5547 751.33,187.5547 751.33,187.5547 C751.33,187.5547 751.33,373.1947 751.33,373.1947 " fill="none" id="DBWarehouse-to-Car" style="stroke:#6060BB;stroke-width:1.0;stroke-dasharray:7.0,7.0;"/><polygon fill="#6060BB" points="751.33,378.1947,755.33,369.1947,751.33,373.1947,747.33,369.1947,751.33,378.1947" style="stroke:#6060BB;stroke-width:1.0;"/><text fill="#000000" font-family="sans-serif" font-size="13" lengthAdjust="spacing" textLength="29" x="721.33" y="208.353">uses</text></g><!--link DBWarehouse to Complaints--><g id="link_DBWarehouse_Complaints"><path codeLine="29" d="M1015.28,195.5547 C1091.09,195.5547 1208,195.5547 1208,195.5547 C1208,195.5547 1208,373.2847 1208,373.2847 " fill="none" id="DBWarehouse-to-Complaints" style="stroke:#6060BB;stroke-width:1.0;stroke-dasharray:7.0,7.0;"/><polygon fill="#6060BB" points="1208,378.2847,1212,369.2847,1208,373.2847,1204,369.2847,1208,378.2847" style="stroke:#6060BB;stroke-width:1.0;"/><text fill="#000000" font-family="sans-serif" font-size="13" lengthAdjust="spacing" textLength="29" x="1170.51" y="192.123">uses</text></g><!--link DBWarehouse to User--><g id="link_DBWarehouse_User"><path codeLine="30" d="M952,219.8247 C952,219.8247 952,373.1247 952,373.1247 " fill="none" id="DBWarehouse-to-User" style="stroke:#6060BB;stroke-width:1.0;stroke-dasharray:7.0,7.0;"/><polygon fill="#6060BB" points="952,378.1247,956,369.1247,952,373.1247,948,369.1247,952,378.1247" style="stroke:#6060BB;stroke-width:1.0;"/><text fill="#000000" font-family="sans-serif" font-size="13" lengthAdjust="spacing" textLength="29" x="922" y="293.043">uses</text></g><!--SRC=[nLN1Rjf04BtxAqR98P8bNDH33YXmW0IrbnuQLLM5EQpiiHbblMljhYcawhzt3BQX3Q7W90wI4VREc_VcpNYm3wHoOKG6aXIwTOwWZLjepv6J23UM7d7miJ-wMuaibsY3CJg7vXOjfIhuYhcsvBHP1z-5mOKkBDufXX9Qy7rBZA64CFPzkFbGvXfvIZk4Yn-wCC0G44h8zIEfT12gbvE4AbJ3uPGamuV3K34DH49192bw02ItG0Fy1KfaQ7CHSOfGQSC1mjhjKqZuFjcaO5bbTCOgu_87cL35P31o46EEAaOLiOfWItkFiZpH9Kb9xaEhWc9qWkIc7FO406Qpy_FqOX8fjxLNPmliCftFIr7JGageZl_rhwpJzrEZYnnZoDcinYZVhzKadA39luFtAbYFORq6jkFzf3EiKn1RjmeMBfFp-GK82rEfXMExl_1qU52rut3PzsYM5E6pjbJd1nHkjG3yOeRVV1tdsRFtTjmOV4etziB_ewBMSRAI9uqE9eLrxAnfDIOD-dcTbskKKl-ivBw2u6-shTWIsQ7GpsgfZmtQAU0EvKv4snaGNRewqOmGf9njgRR1doNwYlVQIHzuizWhc6nCCoXvrsbb0LVEYCZngasCpdQxTi2n1wtnZg_4O7PvtR_kZyVpODHsX600_CY-YjmzDk-i9VlYGkgbs5JJANszETw7_QykTikyUxVVHy3cl-MD9lWftHy0]--></g></svg>