<?xml version="1.0" encoding="us-ascii" standalone="no"?><svg xmlns="http://www.w3.org/2000/svg" xmlns:xlink="http://www.w3.org/1999/xlink" contentStyleType="text/css" height="589px" preserveAspectRatio="none" style="width:971px;height:589px;background:#FFFFFF;" version="1.1" viewBox="0 0 971 589" width="971px" zoomAndPan="magnify"><defs/><g><text fill="#000000" font-family="sans-serif" font-size="20" font-weight="bold" lengthAdjust="spacing" textLength="632" x="103.5" y="29.3359">Examples.BetterDesign.Repository.CarExample.CarParts.Seats</text><text fill="#000000" font-family="sans-serif" font-size="20" font-weight="bold" lengthAdjust="spacing" textLength="104" x="742.5" y="29.3359">simplified</text><text fill="#000000" font-family="sans-serif" font-size="20" font-weight="bold" lengthAdjust="spacing" textLength="7" x="846.5" y="29.3359">&#160;</text><!--cluster Examples--><g id="cluster_Examples"><path d="M592.5,50.5547 L661.5,50.5547 A3.75,3.75 0 0 1 664,53.0547 L671,73.043 L961.5,73.043 A2.5,2.5 0 0 1 964,75.543 L964,580.0547 A2.5,2.5 0 0 1 961.5,582.5547 L592.5,582.5547 A2.5,2.5 0 0 1 590,580.0547 L590,53.0547 A2.5,2.5 0 0 1 592.5,50.5547 " fill="none" style="stroke:#000000;stroke-width:1.5;"/><line style="stroke:#000000;stroke-width:1.5;" x1="590" x2="671" y1="73.043" y2="73.043"/><text fill="#000000" font-family="sans-serif" font-size="14" font-weight="bold" lengthAdjust="spacing" textLength="68" x="594" y="66.0898">Examples</text></g><!--cluster BetterDesign--><g id="cluster_BetterDesign"><path d="M616.5,93.5547 L710.5,93.5547 A3.75,3.75 0 0 1 713,96.0547 L720,116.043 L937.5,116.043 A2.5,2.5 0 0 1 940,118.543 L940,556.0547 A2.5,2.5 0 0 1 937.5,558.5547 L616.5,558.5547 A2.5,2.5 0 0 1 614,556.0547 L614,96.0547 A2.5,2.5 0 0 1 616.5,93.5547 " fill="none" style="stroke:#000000;stroke-width:1.5;"/><line style="stroke:#000000;stroke-width:1.5;" x1="614" x2="720" y1="116.043" y2="116.043"/><text fill="#000000" font-family="sans-serif" font-size="14" font-weight="bold" lengthAdjust="spacing" textLength="93" x="618" y="109.0898">BetterDesign</text></g><!--cluster Repository--><g id="cluster_Repository"><path d="M640.5,136.5547 L719.5,136.5547 A3.75,3.75 0 0 1 722,139.0547 L729,159.043 L913.5,159.043 A2.5,2.5 0 0 1 916,161.543 L916,532.0547 A2.5,2.5 0 0 1 913.5,534.5547 L640.5,534.5547 A2.5,2.5 0 0 1 638,532.0547 L638,139.0547 A2.5,2.5 0 0 1 640.5,136.5547 " fill="none" style="stroke:#000000;stroke-width:1.5;"/><line style="stroke:#000000;stroke-width:1.5;" x1="638" x2="729" y1="159.043" y2="159.043"/><text fill="#000000" font-family="sans-serif" font-size="14" font-weight="bold" lengthAdjust="spacing" textLength="78" x="642" y="152.0898">Repository</text></g><!--cluster CarExample--><g id="cluster_CarExample"><path d="M746.5,179.5547 L831.5,179.5547 A3.75,3.75 0 0 1 834,182.0547 L841,202.043 L889.5,202.043 A2.5,2.5 0 0 1 892,204.543 L892,508.0547 A2.5,2.5 0 0 1 889.5,510.5547 L746.5,510.5547 A2.5,2.5 0 0 1 744,508.0547 L744,182.0547 A2.5,2.5 0 0 1 746.5,179.5547 " fill="none" style="stroke:#000000;stroke-width:1.5;"/><line style="stroke:#000000;stroke-width:1.5;" x1="744" x2="841" y1="202.043" y2="202.043"/><text fill="#000000" font-family="sans-serif" font-size="14" font-weight="bold" lengthAdjust="spacing" textLength="84" x="748" y="195.0898">CarExample</text></g><!--cluster CarParts--><g id="cluster_CarParts"><path d="M770.5,387.5547 L832.5,387.5547 A3.75,3.75 0 0 1 835,390.0547 L842,410.043 L865.5,410.043 A2.5,2.5 0 0 1 868,412.543 L868,484.0547 A2.5,2.5 0 0 1 865.5,486.5547 L770.5,486.5547 A2.5,2.5 0 0 1 768,484.0547 L768,390.0547 A2.5,2.5 0 0 1 770.5,387.5547 " fill="none" style="stroke:#000000;stroke-width:1.5;"/><line style="stroke:#000000;stroke-width:1.5;" x1="768" x2="842" y1="410.043" y2="410.043"/><text fill="#000000" font-family="sans-serif" font-size="14" font-weight="bold" lengthAdjust="spacing" textLength="61" x="772" y="403.0898">CarParts</text></g><!--class DBCar--><a href="Examples.BetterDesign.Repository.DBCar-diagram-simplified.svg" target="_top" title="Examples.BetterDesign.Repository.DBCar-diagram-simplified.svg" xlink:actuate="onRequest" xlink:href="Examples.BetterDesign.Repository.DBCar-diagram-simplified.svg" xlink:show="new" xlink:title="Examples.BetterDesign.Repository.DBCar-diagram-simplified.svg" xlink:type="simple"><g id="elem_DBCar"><rect codeLine="4" fill="#F1F1F1" height="48" id="DBCar" rx="2.5" ry="2.5" style="stroke:#181818;stroke-width:0.5;" width="74" x="654" y="214.5547"/><ellipse cx="669" cy="230.5547" fill="#ADD1B2" rx="11" ry="11" style="stroke:#181818;stroke-width:1.0;"/><path d="M671.4731,236.6978 Q670.8921,236.9966 670.2529,237.146 Q669.6138,237.2954 668.9082,237.2954 Q666.4014,237.2954 665.0815,235.6436 Q663.7617,233.9917 663.7617,230.8706 Q663.7617,227.7412 665.0815,226.0894 Q666.4014,224.4375 668.9082,224.4375 Q669.6138,224.4375 670.2612,224.5869 Q670.9087,224.7363 671.4731,225.0352 L671.4731,227.7578 Q670.8423,227.1768 670.2488,226.907 Q669.6553,226.6372 669.0244,226.6372 Q667.6797,226.6372 666.9949,227.7039 Q666.3101,228.7705 666.3101,230.8706 Q666.3101,232.9624 666.9949,234.0291 Q667.6797,235.0957 669.0244,235.0957 Q669.6553,235.0957 670.2488,234.8259 Q670.8423,234.5562 671.4731,233.9751 Z " fill="#000000"/><text fill="#000000" font-family="sans-serif" font-size="14" lengthAdjust="spacing" textLength="42" x="683" y="235.8457">DBCar</text><line style="stroke:#181818;stroke-width:0.5;" x1="655" x2="727" y1="246.5547" y2="246.5547"/><line style="stroke:#181818;stroke-width:0.5;" x1="655" x2="727" y1="254.5547" y2="254.5547"/></g></a><!--class Car--><a href="Examples.BetterDesign.Repository.CarExample.Car-diagram-simplified.svg" target="_top" title="Examples.BetterDesign.Repository.CarExample.Car-diagram-simplified.svg" xlink:actuate="onRequest" xlink:href="Examples.BetterDesign.Repository.CarExample.Car-diagram-simplified.svg" xlink:show="new" xlink:title="Examples.BetterDesign.Repository.CarExample.Car-diagram-simplified.svg" xlink:type="simple"><g id="elem_Car"><rect codeLine="6" fill="#F1F1F1" height="48" id="Car" rx="2.5" ry="2.5" style="stroke:#181818;stroke-width:0.5;" width="56" x="776" y="214.5547"/><ellipse cx="791" cy="230.5547" fill="#ADD1B2" rx="11" ry="11" style="stroke:#181818;stroke-width:1.0;"/><path d="M793.4731,236.6978 Q792.8921,236.9966 792.2529,237.146 Q791.6138,237.2954 790.9082,237.2954 Q788.4014,237.2954 787.0815,235.6436 Q785.7617,233.9917 785.7617,230.8706 Q785.7617,227.7412 787.0815,226.0894 Q788.4014,224.4375 790.9082,224.4375 Q791.6138,224.4375 792.2612,224.5869 Q792.9087,224.7363 793.4731,225.0352 L793.4731,227.7578 Q792.8423,227.1768 792.2488,226.907 Q791.6553,226.6372 791.0244,226.6372 Q789.6797,226.6372 788.9949,227.7039 Q788.3101,228.7705 788.3101,230.8706 Q788.3101,232.9624 788.9949,234.0291 Q789.6797,235.0957 791.0244,235.0957 Q791.6553,235.0957 792.2488,234.8259 Q792.8423,234.5562 793.4731,233.9751 Z " fill="#000000"/><text fill="#000000" font-family="sans-serif" font-size="14" lengthAdjust="spacing" textLength="24" x="805" y="235.8457">Car</text><line style="stroke:#181818;stroke-width:0.5;" x1="777" x2="831" y1="246.5547" y2="246.5547"/><line style="stroke:#181818;stroke-width:0.5;" x1="777" x2="831" y1="254.5547" y2="254.5547"/></g></a><!--class Seats--><a href="Examples.BetterDesign.Repository.CarExample.CarParts.Seats-diagram-simplified.svg" target="_top" title="Examples.BetterDesign.Repository.CarExample.CarParts.Seats-diagram-simplified.svg" xlink:actuate="onRequest" xlink:href="Examples.BetterDesign.Repository.CarExample.CarParts.Seats-diagram-simplified.svg" xlink:show="new" xlink:title="Examples.BetterDesign.Repository.CarExample.CarParts.Seats-diagram-simplified.svg" xlink:type="simple"><g id="elem_Seats"><rect codeLine="8" fill="#FFFF00" height="48" id="Seats" rx="2.5" ry="2.5" style="stroke:#181818;stroke-width:0.5;" width="68" x="784" y="422.5547"/><ellipse cx="799" cy="438.5547" fill="#ADD1B2" rx="11" ry="11" style="stroke:#181818;stroke-width:1.0;"/><path d="M801.4731,444.6978 Q800.8921,444.9966 800.2529,445.146 Q799.6138,445.2954 798.9082,445.2954 Q796.4014,445.2954 795.0815,443.6436 Q793.7617,441.9917 793.7617,438.8706 Q793.7617,435.7412 795.0815,434.0894 Q796.4014,432.4375 798.9082,432.4375 Q799.6138,432.4375 800.2612,432.5869 Q800.9087,432.7363 801.4731,433.0352 L801.4731,435.7578 Q800.8423,435.1768 800.2488,434.907 Q799.6553,434.6372 799.0244,434.6372 Q797.6797,434.6372 796.9949,435.7039 Q796.3101,436.7705 796.3101,438.8706 Q796.3101,440.9624 796.9949,442.0291 Q797.6797,443.0957 799.0244,443.0957 Q799.6553,443.0957 800.2488,442.8259 Q800.8423,442.5562 801.4731,441.9751 Z " fill="#000000"/><text fill="#000000" font-family="sans-serif" font-size="14" lengthAdjust="spacing" textLength="36" x="813" y="443.8457">Seats</text><line style="stroke:#181818;stroke-width:0.5;" x1="785" x2="851" y1="454.5547" y2="454.5547"/><line style="stroke:#181818;stroke-width:0.5;" x1="785" x2="851" y1="462.5547" y2="462.5547"/></g></a><g id="elem_FloatingNote"><path d="M6,114.5547 L6,362.2129 L574,362.2129 L574,124.5547 L564,114.5547 L6,114.5547 " fill="#FEFFDD" style="stroke:#181818;stroke-width:0.5;"/><path d="M564,114.5547 L564,124.5547 L574,124.5547 L564,114.5547 " fill="#FEFFDD" style="stroke:#181818;stroke-width:1.0;"/><text fill="#000000" font-family="sans-serif" font-size="13" lengthAdjust="spacing" textLength="120" x="12" y="132.123">Your are analyzing:</text><text fill="#000000" font-family="sans-serif" font-size="13" lengthAdjust="spacing" textLength="386" x="12" y="147.4336">Examples.BetterDesign.Repository.CarExample.CarParts.Seats</text><text fill="#000000" font-family="sans-serif" font-size="13" font-weight="bold" lengthAdjust="spacing" textLength="67" x="402" y="147.4336">simplified</text><text fill="#000000" font-family="sans-serif" font-size="13" lengthAdjust="spacing" textLength="4" x="469" y="147.4336">&#160;</text><text fill="#000000" font-family="sans-serif" font-size="13" lengthAdjust="spacing" textLength="4" x="12" y="162.7441">&#160;</text><text fill="#000000" font-family="sans-serif" font-size="13" lengthAdjust="spacing" textLength="229" x="12" y="193.3652">You can click either the namespaces</text><text fill="#000000" font-family="sans-serif" font-size="13" lengthAdjust="spacing" textLength="266" x="12" y="208.6758">or class names for filtering them and their</text><text fill="#000000" font-family="sans-serif" font-size="13" lengthAdjust="spacing" textLength="130" x="12" y="223.9863">direct dependencies.</text><text fill="#000000" font-family="sans-serif" font-size="13" lengthAdjust="spacing" textLength="4" x="12" y="239.2969">&#160;</text><line style="stroke:#181818;stroke-width:1.0;" x1="7" x2="274" y1="173.1416" y2="173.1416"/><line style="stroke:#181818;stroke-width:1.0;" x1="7" x2="274" y1="175.1416" y2="175.1416"/><text fill="#000000" font-family="sans-serif" font-size="13" lengthAdjust="spacing" textLength="32" x="274" y="177.5547">Filter</text><line style="stroke:#181818;stroke-width:1.0;" x1="306" x2="573" y1="173.1416" y2="173.1416"/><line style="stroke:#181818;stroke-width:1.0;" x1="306" x2="573" y1="175.1416" y2="175.1416"/><ellipse cx="17.5" cy="269.1602" fill="#000000" rx="2.5" ry="2.5" style="stroke:#000000;stroke-width:0.0;"/><text fill="#000000" font-family="sans-serif" font-size="13" lengthAdjust="spacing" textLength="386" x="24" y="273.918">Examples.BetterDesign.Repository.CarExample.CarParts.Seats</text><text fill="#000000" font-family="sans-serif" font-size="13" font-weight="bold" lengthAdjust="spacing" textLength="55" x="414" y="273.918">detailed</text><text fill="#000000" font-family="sans-serif" font-size="13" lengthAdjust="spacing" textLength="4" x="473" y="273.918">:</text><text fill="#000000" font-family="sans-serif" font-size="13" lengthAdjust="spacing" textLength="12" x="12" y="289.2285">&#160;&#160;&#160;</text><a href="Examples.BetterDesign.Repository.CarExample.CarParts.Seats-diagram-detailed.svg" target="_top" title="Examples.BetterDesign.Repository.CarExample.CarParts.Seats-diagram-detailed.svg" xlink:actuate="onRequest" xlink:href="Examples.BetterDesign.Repository.CarExample.CarParts.Seats-diagram-detailed.svg" xlink:show="new" xlink:title="Examples.BetterDesign.Repository.CarExample.CarParts.Seats-diagram-detailed.svg" xlink:type="simple"><text fill="#0000FF" font-family="sans-serif" font-size="13" lengthAdjust="spacing" text-decoration="underline" textLength="529" x="24" y="289.2285">Examples.BetterDesign.Repository.CarExample.CarParts.Seats-diagram-detailed.svg</text></a><ellipse cx="17.5" cy="299.7813" fill="#000000" rx="2.5" ry="2.5" style="stroke:#000000;stroke-width:0.0;"/><text fill="#000000" font-family="sans-serif" font-size="13" lengthAdjust="spacing" textLength="78" x="24" y="304.5391">Full diagram</text><text fill="#000000" font-family="sans-serif" font-size="13" font-weight="bold" lengthAdjust="spacing" textLength="67" x="106" y="304.5391">simplified</text><text fill="#000000" font-family="sans-serif" font-size="13" lengthAdjust="spacing" textLength="23" x="177" y="304.5391">and</text><text fill="#000000" font-family="sans-serif" font-size="13" font-weight="bold" lengthAdjust="spacing" textLength="166" x="204" y="304.5391">grouped per namespace</text><text fill="#000000" font-family="sans-serif" font-size="13" lengthAdjust="spacing" textLength="4" x="370" y="304.5391">:</text><text fill="#000000" font-family="sans-serif" font-size="13" lengthAdjust="spacing" textLength="12" x="12" y="319.8496">&#160;&#160;&#160;</text><a href="full-diagram-simplified-grouped-per-namespace.svg" target="_top" title="full-diagram-simplified-grouped-per-namespace.svg" xlink:actuate="onRequest" xlink:href="full-diagram-simplified-grouped-per-namespace.svg" xlink:show="new" xlink:title="full-diagram-simplified-grouped-per-namespace.svg" xlink:type="simple"><text fill="#0000FF" font-family="sans-serif" font-size="13" lengthAdjust="spacing" text-decoration="underline" textLength="343" x="24" y="319.8496">full-diagram-simplified-grouped-per-namespace.svg</text></a><ellipse cx="17.5" cy="330.4023" fill="#000000" rx="2.5" ry="2.5" style="stroke:#000000;stroke-width:0.0;"/><text fill="#000000" font-family="sans-serif" font-size="13" lengthAdjust="spacing" textLength="41" x="24" y="335.1602">Home:</text><text fill="#000000" font-family="sans-serif" font-size="13" lengthAdjust="spacing" textLength="12" x="12" y="350.4707">&#160;&#160;&#160;</text><a href="index.html" target="_top" title="index.html" xlink:actuate="onRequest" xlink:href="index.html" xlink:show="new" xlink:title="index.html" xlink:type="simple"><text fill="#0000FF" font-family="sans-serif" font-size="13" lengthAdjust="spacing" text-decoration="underline" textLength="68" x="24" y="350.4707">index.html</text></a><line style="stroke:#181818;stroke-width:1.0;" x1="7" x2="253" y1="253.6943" y2="253.6943"/><line style="stroke:#181818;stroke-width:1.0;" x1="7" x2="253" y1="255.6943" y2="255.6943"/><text fill="#000000" font-family="sans-serif" font-size="13" lengthAdjust="spacing" textLength="74" x="253" y="258.1074">Select other</text><line style="stroke:#181818;stroke-width:1.0;" x1="327" x2="573" y1="253.6943" y2="253.6943"/><line style="stroke:#181818;stroke-width:1.0;" x1="327" x2="573" y1="255.6943" y2="255.6943"/></g><!--link DBCar to Car--><g id="link_DBCar_Car"><path codeLine="15" d="M728.31,238.5547 C728.31,238.5547 769.68,238.5547 769.68,238.5547 " fill="none" id="DBCar-to-Car" style="stroke:#6060BB;stroke-width:1.0;stroke-dasharray:7.0,7.0;"/><polygon fill="#6060BB" points="774.68,238.5547,765.68,234.5547,769.68,238.5547,765.68,242.5547,774.68,238.5547" style="stroke:#6060BB;stroke-width:1.0;"/><text fill="#000000" font-family="sans-serif" font-size="13" lengthAdjust="spacing" textLength="29" x="742.25" y="252.123">uses</text></g><!--link DBCar to Seats--><g id="link_DBCar_Seats"><path codeLine="16" d="M703.33,262.6747 C703.33,315.8747 703.33,438.5547 703.33,438.5547 C703.33,438.5547 777.6,438.5547 777.6,438.5547 " fill="none" id="DBCar-to-Seats" style="stroke:#6060BB;stroke-width:1.0;stroke-dasharray:7.0,7.0;"/><polygon fill="#6060BB" points="782.6,438.5547,773.6,434.5547,777.6,438.5547,773.6,442.5547,782.6,438.5547" style="stroke:#6060BB;stroke-width:1.0;"/><text fill="#000000" font-family="sans-serif" font-size="13" lengthAdjust="spacing" textLength="29" x="673.33" y="384.313">uses</text></g><!--reverse link Seats to DBCar--><g id="link_Seats_DBCar"><path codeLine="22" d="M769.56,454.5547 C769.56,454.5547 678.67,454.5547 678.67,454.5547 C678.67,454.5547 678.67,319.4047 678.67,262.9147 " fill="none" id="Seats-backto-DBCar" style="stroke:#10BB10;stroke-width:1.0;"/><polygon fill="#10BB10" points="782.56,454.5547,776.56,450.5547,770.56,454.5547,776.56,458.5547,782.56,454.5547" style="stroke:#10BB10;stroke-width:1.0;"/></g><!--reverse link Car to Seats--><g id="link_Car_Seats"><path codeLine="19" d="M808,276.8247 C808,276.8247 808,422.1247 808,422.1247 " fill="none" id="Car-backto-Seats" style="stroke:#10BB10;stroke-width:1.0;"/><polygon fill="#10BB10" points="808,263.8247,804,269.8247,808,275.8247,812,269.8247,808,263.8247" style="stroke:#10BB10;stroke-width:1.0;"/></g><!--SRC=[lLHDR-8m4BtdLupAePAbfBI77b3XGBjeJzMgFQr83bOo2QCwTcIRBdIr_tt70GBx8G65DWVBiMVclNdpPFT2kf5Mrg18erys2CRwcOayUOLmv-WD1pVzqPU5h1k5BXcZzsWVq56baoTiZ2Dlx3AvbtOT4xRVfFKkUKRf7GZXYC-f92o4WBkhK7CKQUCHBhwRkGLf4QIMQlb6kXga-dnWgKxrS3WXnMM6mrGp7EHIGwueVm4aFqCBl82MDRf6vkWunrWEaCwjJg7a_x8jmVH2TCriYx0Xc-g2BEOU2cnG5wXpOjuhs6TKuSO4a00kuAJ62lIILDiMQmG0q-dxwyK5oOh77c-g9kwroh90SZ9N2jRNV-iP-XQYicRUO04DYzS99yI6LSa5klhRz7YT5dDQtALjSR-Q6ZSbYALS93DVgoox0EbWeepqBFyZkoRYaFM0zWhmCEQ-3r6g3VmFwnK_W9yjwgzsFHZzJ_cF7zXUFbj6x-IqQx6p-EaVfhqbAcL-T8HRofVieeC- -B3OIxXl1REes5b6Ey25jpBtREpIcdhhx077xbCcEj29oRHtsx_jZyTPCZhQFp20kUC7wJF0TetHuPvNint4w5WfH3pjNNDdr_qiFgMrZskfGufEUVMFQdCrzTy0]--></g></svg>