<?xml version="1.0" encoding="us-ascii" standalone="no"?><svg xmlns="http://www.w3.org/2000/svg" xmlns:xlink="http://www.w3.org/1999/xlink" contentStyleType="text/css" height="477px" preserveAspectRatio="none" style="width:1128px;height:477px;background:#FFFFFF;" version="1.1" viewBox="0 0 1128 477" width="1128px" zoomAndPan="magnify"><defs/><g><text fill="#000000" font-family="sans-serif" font-size="20" font-weight="bold" lengthAdjust="spacing" textLength="383" x="306.75" y="29.3359">Examples.BetterDesign.FakeEntitities</text><text fill="#000000" font-family="sans-serif" font-size="20" font-weight="bold" lengthAdjust="spacing" textLength="104" x="696.75" y="29.3359">simplified</text><text fill="#000000" font-family="sans-serif" font-size="20" font-weight="bold" lengthAdjust="spacing" textLength="7" x="800.75" y="29.3359">&#160;</text><!--cluster Examples--><g id="cluster_Examples"><path d="M440,72.5547 L509,72.5547 A3.75,3.75 0 0 1 511.5,75.0547 L518.5,95.043 L1119,95.043 A2.5,2.5 0 0 1 1121.5,97.543 L1121.5,468.0547 A2.5,2.5 0 0 1 1119,470.5547 L440,470.5547 A2.5,2.5 0 0 1 437.5,468.0547 L437.5,75.0547 A2.5,2.5 0 0 1 440,72.5547 " fill="none" style="stroke:#000000;stroke-width:1.5;"/><line style="stroke:#000000;stroke-width:1.5;" x1="437.5" x2="518.5" y1="95.043" y2="95.043"/><text fill="#000000" font-family="sans-serif" font-size="14" font-weight="bold" lengthAdjust="spacing" textLength="68" x="441.5" y="88.0898">Examples</text></g><!--cluster BetterDesign--><g id="cluster_BetterDesign"><path d="M464,115.5547 L558,115.5547 A3.75,3.75 0 0 1 560.5,118.0547 L567.5,138.043 L1095,138.043 A2.5,2.5 0 0 1 1097.5,140.543 L1097.5,444.0547 A2.5,2.5 0 0 1 1095,446.5547 L464,446.5547 A2.5,2.5 0 0 1 461.5,444.0547 L461.5,118.0547 A2.5,2.5 0 0 1 464,115.5547 " fill="none" style="stroke:#000000;stroke-width:1.5;"/><line style="stroke:#000000;stroke-width:1.5;" x1="461.5" x2="567.5" y1="138.043" y2="138.043"/><text fill="#000000" font-family="sans-serif" font-size="14" font-weight="bold" lengthAdjust="spacing" textLength="93" x="465.5" y="131.0898">BetterDesign</text></g><!--cluster FakeEntitities--><g id="cluster_FakeEntitities"><path d="M488,323.5547 L588,323.5547 A3.75,3.75 0 0 1 590.5,326.0547 L597.5,346.043 L1071,346.043 A2.5,2.5 0 0 1 1073.5,348.543 L1073.5,420.0547 A2.5,2.5 0 0 1 1071,422.5547 L488,422.5547 A2.5,2.5 0 0 1 485.5,420.0547 L485.5,326.0547 A2.5,2.5 0 0 1 488,323.5547 " fill="none" style="stroke:#000000;stroke-width:1.5;"/><line style="stroke:#000000;stroke-width:1.5;" x1="485.5" x2="597.5" y1="346.043" y2="346.043"/><text fill="#000000" font-family="sans-serif" font-size="14" font-weight="bold" lengthAdjust="spacing" textLength="99" x="489.5" y="339.0898">FakeEntitities</text></g><!--class DBCustomers--><a href="Examples.BetterDesign.DBCustomers-diagram-simplified.svg" target="_top" title="Examples.BetterDesign.DBCustomers-diagram-simplified.svg" xlink:actuate="onRequest" xlink:href="Examples.BetterDesign.DBCustomers-diagram-simplified.svg" xlink:show="new" xlink:title="Examples.BetterDesign.DBCustomers-diagram-simplified.svg" xlink:type="simple"><g id="elem_DBCustomers"><rect codeLine="4" fill="#F1F1F1" height="48" id="DBCustomers" rx="2.5" ry="2.5" style="stroke:#181818;stroke-width:0.5;" width="124" x="744.5" y="150.5547"/><ellipse cx="759.5" cy="166.5547" fill="#ADD1B2" rx="11" ry="11" style="stroke:#181818;stroke-width:1.0;"/><path d="M761.9731,172.6978 Q761.3921,172.9966 760.7529,173.146 Q760.1138,173.2954 759.4082,173.2954 Q756.9014,173.2954 755.5815,171.6436 Q754.2617,169.9917 754.2617,166.8706 Q754.2617,163.7412 755.5815,162.0894 Q756.9014,160.4375 759.4082,160.4375 Q760.1138,160.4375 760.7612,160.5869 Q761.4087,160.7363 761.9731,161.0352 L761.9731,163.7578 Q761.3423,163.1768 760.7488,162.907 Q760.1553,162.6372 759.5244,162.6372 Q758.1797,162.6372 757.4949,163.7039 Q756.8101,164.7705 756.8101,166.8706 Q756.8101,168.9624 757.4949,170.0291 Q758.1797,171.0957 759.5244,171.0957 Q760.1553,171.0957 760.7488,170.8259 Q761.3423,170.5562 761.9731,169.9751 Z " fill="#000000"/><text fill="#000000" font-family="sans-serif" font-size="14" lengthAdjust="spacing" textLength="92" x="773.5" y="171.8457">DBCustomers</text><line style="stroke:#181818;stroke-width:0.5;" x1="745.5" x2="867.5" y1="182.5547" y2="182.5547"/><line style="stroke:#181818;stroke-width:0.5;" x1="745.5" x2="867.5" y1="190.5547" y2="190.5547"/></g></a><!--class Item--><a href="Examples.BetterDesign.FakeEntitities.Item-diagram-simplified.svg" target="_top" title="Examples.BetterDesign.FakeEntitities.Item-diagram-simplified.svg" xlink:actuate="onRequest" xlink:href="Examples.BetterDesign.FakeEntitities.Item-diagram-simplified.svg" xlink:show="new" xlink:title="Examples.BetterDesign.FakeEntitities.Item-diagram-simplified.svg" xlink:type="simple"><g id="elem_Item"><rect codeLine="6" fill="#FFFF00" height="48" id="Item" rx="2.5" ry="2.5" style="stroke:#181818;stroke-width:0.5;" width="62" x="995.5" y="358.5547"/><ellipse cx="1010.5" cy="374.5547" fill="#ADD1B2" rx="11" ry="11" style="stroke:#181818;stroke-width:1.0;"/><path d="M1012.9731,380.6978 Q1012.3921,380.9966 1011.7529,381.146 Q1011.1138,381.2954 1010.4082,381.2954 Q1007.9014,381.2954 1006.5815,379.6436 Q1005.2617,377.9917 1005.2617,374.8706 Q1005.2617,371.7412 1006.5815,370.0894 Q1007.9014,368.4375 1010.4082,368.4375 Q1011.1138,368.4375 1011.7612,368.5869 Q1012.4087,368.7363 1012.9731,369.0352 L1012.9731,371.7578 Q1012.3423,371.1768 1011.7488,370.907 Q1011.1553,370.6372 1010.5244,370.6372 Q1009.1797,370.6372 1008.4949,371.7039 Q1007.8101,372.7705 1007.8101,374.8706 Q1007.8101,376.9624 1008.4949,378.0291 Q1009.1797,379.0957 1010.5244,379.0957 Q1011.1553,379.0957 1011.7488,378.8259 Q1012.3423,378.5562 1012.9731,377.9751 Z " fill="#000000"/><text fill="#000000" font-family="sans-serif" font-size="14" lengthAdjust="spacing" textLength="30" x="1024.5" y="379.8457">Item</text><line style="stroke:#181818;stroke-width:0.5;" x1="996.5" x2="1056.5" y1="390.5547" y2="390.5547"/><line style="stroke:#181818;stroke-width:0.5;" x1="996.5" x2="1056.5" y1="398.5547" y2="398.5547"/></g></a><!--class User--><a href="Examples.BetterDesign.FakeEntitities.User-diagram-simplified.svg" target="_top" title="Examples.BetterDesign.FakeEntitities.User-diagram-simplified.svg" xlink:actuate="onRequest" xlink:href="Examples.BetterDesign.FakeEntitities.User-diagram-simplified.svg" xlink:show="new" xlink:title="Examples.BetterDesign.FakeEntitities.User-diagram-simplified.svg" xlink:type="simple"><g id="elem_User"><rect codeLine="8" fill="#FFFF00" height="48" id="User" rx="2.5" ry="2.5" style="stroke:#181818;stroke-width:0.5;" width="63" x="897" y="358.5547"/><ellipse cx="912" cy="374.5547" fill="#ADD1B2" rx="11" ry="11" style="stroke:#181818;stroke-width:1.0;"/><path d="M914.4731,380.6978 Q913.8921,380.9966 913.2529,381.146 Q912.6138,381.2954 911.9082,381.2954 Q909.4014,381.2954 908.0815,379.6436 Q906.7617,377.9917 906.7617,374.8706 Q906.7617,371.7412 908.0815,370.0894 Q909.4014,368.4375 911.9082,368.4375 Q912.6138,368.4375 913.2612,368.5869 Q913.9087,368.7363 914.4731,369.0352 L914.4731,371.7578 Q913.8423,371.1768 913.2488,370.907 Q912.6553,370.6372 912.0244,370.6372 Q910.6797,370.6372 909.9949,371.7039 Q909.3101,372.7705 909.3101,374.8706 Q909.3101,376.9624 909.9949,378.0291 Q910.6797,379.0957 912.0244,379.0957 Q912.6553,379.0957 913.2488,378.8259 Q913.8423,378.5562 914.4731,377.9751 Z " fill="#000000"/><text fill="#000000" font-family="sans-serif" font-size="14" lengthAdjust="spacing" textLength="31" x="926" y="379.8457">User</text><line style="stroke:#181818;stroke-width:0.5;" x1="898" x2="959" y1="390.5547" y2="390.5547"/><line style="stroke:#181818;stroke-width:0.5;" x1="898" x2="959" y1="398.5547" y2="398.5547"/></g></a><!--class Complaints--><a href="Examples.BetterDesign.FakeEntitities.Complaints-diagram-simplified.svg" target="_top" title="Examples.BetterDesign.FakeEntitities.Complaints-diagram-simplified.svg" xlink:actuate="onRequest" xlink:href="Examples.BetterDesign.FakeEntitities.Complaints-diagram-simplified.svg" xlink:show="new" xlink:title="Examples.BetterDesign.FakeEntitities.Complaints-diagram-simplified.svg" xlink:type="simple"><g id="elem_Complaints"><rect codeLine="10" fill="#FFFF00" height="48" id="Complaints" rx="2.5" ry="2.5" style="stroke:#181818;stroke-width:0.5;" width="110" x="751.5" y="358.5547"/><ellipse cx="766.5" cy="374.5547" fill="#ADD1B2" rx="11" ry="11" style="stroke:#181818;stroke-width:1.0;"/><path d="M768.9731,380.6978 Q768.3921,380.9966 767.7529,381.146 Q767.1138,381.2954 766.4082,381.2954 Q763.9014,381.2954 762.5815,379.6436 Q761.2617,377.9917 761.2617,374.8706 Q761.2617,371.7412 762.5815,370.0894 Q763.9014,368.4375 766.4082,368.4375 Q767.1138,368.4375 767.7612,368.5869 Q768.4087,368.7363 768.9731,369.0352 L768.9731,371.7578 Q768.3423,371.1768 767.7488,370.907 Q767.1553,370.6372 766.5244,370.6372 Q765.1797,370.6372 764.4949,371.7039 Q763.8101,372.7705 763.8101,374.8706 Q763.8101,376.9624 764.4949,378.0291 Q765.1797,379.0957 766.5244,379.0957 Q767.1553,379.0957 767.7488,378.8259 Q768.3423,378.5562 768.9731,377.9751 Z " fill="#000000"/><text fill="#000000" font-family="sans-serif" font-size="14" lengthAdjust="spacing" textLength="78" x="780.5" y="379.8457">Complaints</text><line style="stroke:#181818;stroke-width:0.5;" x1="752.5" x2="860.5" y1="390.5547" y2="390.5547"/><line style="stroke:#181818;stroke-width:0.5;" x1="752.5" x2="860.5" y1="398.5547" y2="398.5547"/></g></a><!--class Invoice--><a href="Examples.BetterDesign.FakeEntitities.Invoice-diagram-simplified.svg" target="_top" title="Examples.BetterDesign.FakeEntitities.Invoice-diagram-simplified.svg" xlink:actuate="onRequest" xlink:href="Examples.BetterDesign.FakeEntitities.Invoice-diagram-simplified.svg" xlink:show="new" xlink:title="Examples.BetterDesign.FakeEntitities.Invoice-diagram-simplified.svg" xlink:type="simple"><g id="elem_Invoice"><rect codeLine="12" fill="#FFFF00" height="48" id="Invoice" rx="2.5" ry="2.5" style="stroke:#181818;stroke-width:0.5;" width="80" x="636.5" y="358.5547"/><ellipse cx="651.5" cy="374.5547" fill="#ADD1B2" rx="11" ry="11" style="stroke:#181818;stroke-width:1.0;"/><path d="M653.9731,380.6978 Q653.3921,380.9966 652.7529,381.146 Q652.1138,381.2954 651.4082,381.2954 Q648.9014,381.2954 647.5815,379.6436 Q646.2617,377.9917 646.2617,374.8706 Q646.2617,371.7412 647.5815,370.0894 Q648.9014,368.4375 651.4082,368.4375 Q652.1138,368.4375 652.7612,368.5869 Q653.4087,368.7363 653.9731,369.0352 L653.9731,371.7578 Q653.3423,371.1768 652.7488,370.907 Q652.1553,370.6372 651.5244,370.6372 Q650.1797,370.6372 649.4949,371.7039 Q648.8101,372.7705 648.8101,374.8706 Q648.8101,376.9624 649.4949,378.0291 Q650.1797,379.0957 651.5244,379.0957 Q652.1553,379.0957 652.7488,378.8259 Q653.3423,378.5562 653.9731,377.9751 Z " fill="#000000"/><text fill="#000000" font-family="sans-serif" font-size="14" lengthAdjust="spacing" textLength="48" x="665.5" y="379.8457">Invoice</text><line style="stroke:#181818;stroke-width:0.5;" x1="637.5" x2="715.5" y1="390.5547" y2="390.5547"/><line style="stroke:#181818;stroke-width:0.5;" x1="637.5" x2="715.5" y1="398.5547" y2="398.5547"/></g></a><!--class Customer--><a href="Examples.BetterDesign.FakeEntitities.Customer-diagram-simplified.svg" target="_top" title="Examples.BetterDesign.FakeEntitities.Customer-diagram-simplified.svg" xlink:actuate="onRequest" xlink:href="Examples.BetterDesign.FakeEntitities.Customer-diagram-simplified.svg" xlink:show="new" xlink:title="Examples.BetterDesign.FakeEntitities.Customer-diagram-simplified.svg" xlink:type="simple"><g id="elem_Customer"><rect codeLine="14" fill="#FFFF00" height="48" id="Customer" rx="2.5" ry="2.5" style="stroke:#181818;stroke-width:0.5;" width="99" x="502" y="358.5547"/><ellipse cx="517" cy="374.5547" fill="#ADD1B2" rx="11" ry="11" style="stroke:#181818;stroke-width:1.0;"/><path d="M519.4731,380.6978 Q518.8921,380.9966 518.2529,381.146 Q517.6138,381.2954 516.9082,381.2954 Q514.4014,381.2954 513.0815,379.6436 Q511.7617,377.9917 511.7617,374.8706 Q511.7617,371.7412 513.0815,370.0894 Q514.4014,368.4375 516.9082,368.4375 Q517.6138,368.4375 518.2612,368.5869 Q518.9087,368.7363 519.4731,369.0352 L519.4731,371.7578 Q518.8423,371.1768 518.2488,370.907 Q517.6553,370.6372 517.0244,370.6372 Q515.6797,370.6372 514.9949,371.7039 Q514.3101,372.7705 514.3101,374.8706 Q514.3101,376.9624 514.9949,378.0291 Q515.6797,379.0957 517.0244,379.0957 Q517.6553,379.0957 518.2488,378.8259 Q518.8423,378.5562 519.4731,377.9751 Z " fill="#000000"/><text fill="#000000" font-family="sans-serif" font-size="14" lengthAdjust="spacing" textLength="67" x="531" y="379.8457">Customer</text><line style="stroke:#181818;stroke-width:0.5;" x1="503" x2="600" y1="390.5547" y2="390.5547"/><line style="stroke:#181818;stroke-width:0.5;" x1="503" x2="600" y1="398.5547" y2="398.5547"/></g></a><g id="elem_FloatingNote"><path d="M6,50.5547 L6,298.2129 L421,298.2129 L421,60.5547 L411,50.5547 L6,50.5547 " fill="#FEFFDD" style="stroke:#181818;stroke-width:0.5;"/><path d="M411,50.5547 L411,60.5547 L421,60.5547 L411,50.5547 " fill="#FEFFDD" style="stroke:#181818;stroke-width:1.0;"/><text fill="#000000" font-family="sans-serif" font-size="13" lengthAdjust="spacing" textLength="120" x="12" y="68.123">Your are analyzing:</text><text fill="#000000" font-family="sans-serif" font-size="13" lengthAdjust="spacing" textLength="233" x="12" y="83.4336">Examples.BetterDesign.FakeEntitities</text><text fill="#000000" font-family="sans-serif" font-size="13" font-weight="bold" lengthAdjust="spacing" textLength="67" x="249" y="83.4336">simplified</text><text fill="#000000" font-family="sans-serif" font-size="13" lengthAdjust="spacing" textLength="4" x="316" y="83.4336">&#160;</text><text fill="#000000" font-family="sans-serif" font-size="13" lengthAdjust="spacing" textLength="4" x="12" y="98.7441">&#160;</text><text fill="#000000" font-family="sans-serif" font-size="13" lengthAdjust="spacing" textLength="229" x="12" y="129.3652">You can click either the namespaces</text><text fill="#000000" font-family="sans-serif" font-size="13" lengthAdjust="spacing" textLength="266" x="12" y="144.6758">or class names for filtering them and their</text><text fill="#000000" font-family="sans-serif" font-size="13" lengthAdjust="spacing" textLength="130" x="12" y="159.9863">direct dependencies.</text><text fill="#000000" font-family="sans-serif" font-size="13" lengthAdjust="spacing" textLength="4" x="12" y="175.2969">&#160;</text><line style="stroke:#181818;stroke-width:1.0;" x1="7" x2="197.5" y1="109.1416" y2="109.1416"/><line style="stroke:#181818;stroke-width:1.0;" x1="7" x2="197.5" y1="111.1416" y2="111.1416"/><text fill="#000000" font-family="sans-serif" font-size="13" lengthAdjust="spacing" textLength="32" x="197.5" y="113.5547">Filter</text><line style="stroke:#181818;stroke-width:1.0;" x1="229.5" x2="420" y1="109.1416" y2="109.1416"/><line style="stroke:#181818;stroke-width:1.0;" x1="229.5" x2="420" y1="111.1416" y2="111.1416"/><ellipse cx="17.5" cy="205.1602" fill="#000000" rx="2.5" ry="2.5" style="stroke:#000000;stroke-width:0.0;"/><text fill="#000000" font-family="sans-serif" font-size="13" lengthAdjust="spacing" textLength="233" x="24" y="209.918">Examples.BetterDesign.FakeEntitities</text><text fill="#000000" font-family="sans-serif" font-size="13" font-weight="bold" lengthAdjust="spacing" textLength="55" x="261" y="209.918">detailed</text><text fill="#000000" font-family="sans-serif" font-size="13" lengthAdjust="spacing" textLength="4" x="320" y="209.918">:</text><text fill="#000000" font-family="sans-serif" font-size="13" lengthAdjust="spacing" textLength="12" x="12" y="225.2285">&#160;&#160;&#160;</text><a href="Examples.BetterDesign.FakeEntitities-diagram-detailed.svg" target="_top" title="Examples.BetterDesign.FakeEntitities-diagram-detailed.svg" xlink:actuate="onRequest" xlink:href="Examples.BetterDesign.FakeEntitities-diagram-detailed.svg" xlink:show="new" xlink:title="Examples.BetterDesign.FakeEntitities-diagram-detailed.svg" xlink:type="simple"><text fill="#0000FF" font-family="sans-serif" font-size="13" lengthAdjust="spacing" text-decoration="underline" textLength="376" x="24" y="225.2285">Examples.BetterDesign.FakeEntitities-diagram-detailed.svg</text></a><ellipse cx="17.5" cy="235.7813" fill="#000000" rx="2.5" ry="2.5" style="stroke:#000000;stroke-width:0.0;"/><text fill="#000000" font-family="sans-serif" font-size="13" lengthAdjust="spacing" textLength="78" x="24" y="240.5391">Full diagram</text><text fill="#000000" font-family="sans-serif" font-size="13" font-weight="bold" lengthAdjust="spacing" textLength="67" x="106" y="240.5391">simplified</text><text fill="#000000" font-family="sans-serif" font-size="13" lengthAdjust="spacing" textLength="23" x="177" y="240.5391">and</text><text fill="#000000" font-family="sans-serif" font-size="13" font-weight="bold" lengthAdjust="spacing" textLength="166" x="204" y="240.5391">grouped per namespace</text><text fill="#000000" font-family="sans-serif" font-size="13" lengthAdjust="spacing" textLength="4" x="370" y="240.5391">:</text><text fill="#000000" font-family="sans-serif" font-size="13" lengthAdjust="spacing" textLength="12" x="12" y="255.8496">&#160;&#160;&#160;</text><a href="full-diagram-simplified-grouped-per-namespace.svg" target="_top" title="full-diagram-simplified-grouped-per-namespace.svg" xlink:actuate="onRequest" xlink:href="full-diagram-simplified-grouped-per-namespace.svg" xlink:show="new" xlink:title="full-diagram-simplified-grouped-per-namespace.svg" xlink:type="simple"><text fill="#0000FF" font-family="sans-serif" font-size="13" lengthAdjust="spacing" text-decoration="underline" textLength="343" x="24" y="255.8496">full-diagram-simplified-grouped-per-namespace.svg</text></a><ellipse cx="17.5" cy="266.4023" fill="#000000" rx="2.5" ry="2.5" style="stroke:#000000;stroke-width:0.0;"/><text fill="#000000" font-family="sans-serif" font-size="13" lengthAdjust="spacing" textLength="41" x="24" y="271.1602">Home:</text><text fill="#000000" font-family="sans-serif" font-size="13" lengthAdjust="spacing" textLength="12" x="12" y="286.4707">&#160;&#160;&#160;</text><a href="index.html" target="_top" title="index.html" xlink:actuate="onRequest" xlink:href="index.html" xlink:show="new" xlink:title="index.html" xlink:type="simple"><text fill="#0000FF" font-family="sans-serif" font-size="13" lengthAdjust="spacing" text-decoration="underline" textLength="68" x="24" y="286.4707">index.html</text></a><line style="stroke:#181818;stroke-width:1.0;" x1="7" x2="176.5" y1="189.6943" y2="189.6943"/><line style="stroke:#181818;stroke-width:1.0;" x1="7" x2="176.5" y1="191.6943" y2="191.6943"/><text fill="#000000" font-family="sans-serif" font-size="13" lengthAdjust="spacing" textLength="74" x="176.5" y="194.1074">Select other</text><line style="stroke:#181818;stroke-width:1.0;" x1="250.5" x2="420" y1="189.6943" y2="189.6943"/><line style="stroke:#181818;stroke-width:1.0;" x1="250.5" x2="420" y1="191.6943" y2="191.6943"/></g><!--link DBCustomers to Customer--><g id="link_DBCustomers_Customer"><path codeLine="21" d="M744.12,174.5547 C668.63,174.5547 551.5,174.5547 551.5,174.5547 C551.5,174.5547 551.5,352.2847 551.5,352.2847 " fill="none" id="DBCustomers-to-Customer" style="stroke:#6060BB;stroke-width:1.0;stroke-dasharray:7.0,7.0;"/><polygon fill="#6060BB" points="551.5,357.2847,555.5,348.2847,551.5,352.2847,547.5,348.2847,551.5,357.2847" style="stroke:#6060BB;stroke-width:1.0;"/><text fill="#000000" font-family="sans-serif" font-size="13" lengthAdjust="spacing" textLength="29" x="528.94" y="171.123">uses</text></g><!--link DBCustomers to Invoice--><g id="link_DBCustomers_Invoice"><path codeLine="22" d="M748,198.8247 C748,253.6947 748,382.5547 748,382.5547 C748,382.5547 722.85,382.5547 722.85,382.5547 " fill="none" id="DBCustomers-to-Invoice" style="stroke:#6060BB;stroke-width:1.0;stroke-dasharray:7.0,7.0;"/><polygon fill="#6060BB" points="717.85,382.5547,726.85,386.5547,722.85,382.5547,726.85,378.5547,717.85,382.5547" style="stroke:#6060BB;stroke-width:1.0;"/><text fill="#000000" font-family="sans-serif" font-size="13" lengthAdjust="spacing" textLength="29" x="718" y="299.833">uses</text></g><!--link DBCustomers to Item--><g id="link_DBCustomers_Item"><path codeLine="23" d="M868.95,174.5547 C934,174.5547 1026.5,174.5547 1026.5,174.5547 C1026.5,174.5547 1026.5,352.2847 1026.5,352.2847 " fill="none" id="DBCustomers-to-Item" style="stroke:#6060BB;stroke-width:1.0;stroke-dasharray:7.0,7.0;"/><polygon fill="#6060BB" points="1026.5,357.2847,1030.5,348.2847,1026.5,352.2847,1022.5,348.2847,1026.5,357.2847" style="stroke:#6060BB;stroke-width:1.0;"/><text fill="#000000" font-family="sans-serif" font-size="13" lengthAdjust="spacing" textLength="29" x="996.5" y="181.213">uses</text></g><!--link DBCustomers to Complaints--><g id="link_DBCustomers_Complaints"><path codeLine="24" d="M806.5,198.8247 C806.5,198.8247 806.5,352.1247 806.5,352.1247 " fill="none" id="DBCustomers-to-Complaints" style="stroke:#6060BB;stroke-width:1.0;stroke-dasharray:7.0,7.0;"/><polygon fill="#6060BB" points="806.5,357.1247,810.5,348.1247,806.5,352.1247,802.5,348.1247,806.5,357.1247" style="stroke:#6060BB;stroke-width:1.0;"/><text fill="#000000" font-family="sans-serif" font-size="13" lengthAdjust="spacing" textLength="29" x="776.5" y="272.043">uses</text></g><!--link DBCustomers to User--><g id="link_DBCustomers_User"><path codeLine="25" d="M865,198.8247 C865,253.6947 865,382.5547 865,382.5547 C865,382.5547 890.75,382.5547 890.75,382.5547 " fill="none" id="DBCustomers-to-User" style="stroke:#6060BB;stroke-width:1.0;stroke-dasharray:7.0,7.0;"/><polygon fill="#6060BB" points="895.75,382.5547,886.75,378.5547,890.75,382.5547,886.75,386.5547,895.75,382.5547" style="stroke:#6060BB;stroke-width:1.0;"/><text fill="#000000" font-family="sans-serif" font-size="13" lengthAdjust="spacing" textLength="29" x="835" y="300.133">uses</text></g><!--SRC=[jLGzRzim4DtzAmx94820L2D31YFsO2T6idGfEXIM1a8woOIfeq1IgPsY_xr7MRQJm6cLe98WGH_lxhrxHvxRAAgbbHLeHUXtDOAnVcr6NdcDSElKCqwknxFxhQngZIwUe_Texz2fakAbtE0zCPHFT224KunIXS9S2BZz4g9d8p8UuUA7QIn8Yo19wjspedAIq6VI9fJGTBfKcWEcquGuCMII8DCgsm0glqOBV0EI5RfQPfmY8MCP89tRVuM2tuis1Gi9w8frvU51sOHoPJ7pa6EDb2Dbh2BUqtv37VwOG1B81VGi8KSlbMuBuBe1OBNg4ndbIfRSdkWG7xkdCaq3yRBH6hhVRpqAjGXHMjFKc4FDXXpD4EB0Nt22O_vJUDI5HHmM7SDEl0-cmaCAnVPiuxMlT9fUW7Imr4PwjlGhztm4dUNd2xsRBnhdEPbrxvhn0dD6wLuJm2zc-itNt_bU6ni_UkvvloQqsFVvBtUejVdPolY4aE-EszDJIC0E9cHX62CLUTTNpYbYC56Fz6HKXhqxjOSFvr6t77ixrE4_8EYATswl0mR3Ni6YjSIYvjrio05klPMPvs5IM5ETfic4iMUD6FrxqyUhovlnpNW-J-FP1zs72JIEv-eWB8SbDon963-3ChpOpeFojFFhoF0VbiuRWZy0]--></g></svg>