<?xml version="1.0" encoding="us-ascii" standalone="no"?><svg xmlns="http://www.w3.org/2000/svg" xmlns:xlink="http://www.w3.org/1999/xlink" contentStyleType="text/css" height="498px" preserveAspectRatio="none" style="width:1500px;height:498px;background:#FFFFFF;" version="1.1" viewBox="0 0 1500 498" width="1500px" zoomAndPan="magnify"><defs/><g><text fill="#000000" font-family="sans-serif" font-size="20" font-weight="bold" lengthAdjust="spacing" textLength="1070" x="149.25" y="29.3359">Examples.BadDesign.BasicExample.ClassExample_DOT_InnerClassExample_DOT_classInMethodExample</text><text fill="#000000" font-family="sans-serif" font-size="20" font-weight="bold" lengthAdjust="spacing" textLength="104" x="1226.25" y="29.3359">simplified</text><text fill="#000000" font-family="sans-serif" font-size="20" font-weight="bold" lengthAdjust="spacing" textLength="7" x="1330.25" y="29.3359">&#160;</text><!--cluster Examples--><g id="cluster_Examples"><path d="M864,50.5547 L933,50.5547 A3.75,3.75 0 0 1 935.5,53.0547 L942.5,73.043 L1491,73.043 A2.5,2.5 0 0 1 1493.5,75.543 L1493.5,489.0547 A2.5,2.5 0 0 1 1491,491.5547 L864,491.5547 A2.5,2.5 0 0 1 861.5,489.0547 L861.5,53.0547 A2.5,2.5 0 0 1 864,50.5547 " fill="none" style="stroke:#000000;stroke-width:1.5;"/><line style="stroke:#000000;stroke-width:1.5;" x1="861.5" x2="942.5" y1="73.043" y2="73.043"/><text fill="#000000" font-family="sans-serif" font-size="14" font-weight="bold" lengthAdjust="spacing" textLength="68" x="865.5" y="66.0898">Examples</text></g><!--cluster BadDesign--><g id="cluster_BadDesign"><path d="M888,93.5547 L965,93.5547 A3.75,3.75 0 0 1 967.5,96.0547 L974.5,116.043 L1467,116.043 A2.5,2.5 0 0 1 1469.5,118.543 L1469.5,465.0547 A2.5,2.5 0 0 1 1467,467.5547 L888,467.5547 A2.5,2.5 0 0 1 885.5,465.0547 L885.5,96.0547 A2.5,2.5 0 0 1 888,93.5547 " fill="none" style="stroke:#000000;stroke-width:1.5;"/><line style="stroke:#000000;stroke-width:1.5;" x1="885.5" x2="974.5" y1="116.043" y2="116.043"/><text fill="#000000" font-family="sans-serif" font-size="14" font-weight="bold" lengthAdjust="spacing" textLength="76" x="889.5" y="109.0898">BadDesign</text></g><!--cluster BasicExample--><g id="cluster_BasicExample"><path d="M912,136.5547 L1010,136.5547 A3.75,3.75 0 0 1 1012.5,139.0547 L1019.5,159.043 L1443,159.043 A2.5,2.5 0 0 1 1445.5,161.543 L1445.5,441.0547 A2.5,2.5 0 0 1 1443,443.5547 L912,443.5547 A2.5,2.5 0 0 1 909.5,441.0547 L909.5,139.0547 A2.5,2.5 0 0 1 912,136.5547 " fill="none" style="stroke:#000000;stroke-width:1.5;"/><line style="stroke:#000000;stroke-width:1.5;" x1="909.5" x2="1019.5" y1="159.043" y2="159.043"/><text fill="#000000" font-family="sans-serif" font-size="14" font-weight="bold" lengthAdjust="spacing" textLength="97" x="913.5" y="152.0898">BasicExample</text></g><!--class ClassExample_DOT_InnerClassExample_DOT_classInMethodExample--><a href="Examples.BadDesign.BasicExample.ClassExample_DOT_InnerClassExample_DOT_classInMethodExample-diagram-simplified.svg" target="_top" title="Examples.BadDesign.BasicExample.ClassExample_DOT_InnerClassExample_DOT_classInMethodExample-diagram-simplified.svg" xlink:actuate="onRequest" xlink:href="Examples.BadDesign.BasicExample.ClassExample_DOT_InnerClassExample_DOT_classInMethodExample-diagram-simplified.svg" xlink:show="new" xlink:title="Examples.BadDesign.BasicExample.ClassExample_DOT_InnerClassExample_DOT_classInMethodExample-diagram-simplified.svg" xlink:type="simple"><g id="elem_ClassExample_DOT_InnerClassExample_DOT_classInMethodExample"><rect codeLine="4" fill="#FFFF00" height="48" id="ClassExample_DOT_InnerClassExample_DOT_classInMethodExample" rx="2.5" ry="2.5" style="stroke:#181818;stroke-width:0.5;" width="503" x="926" y="379.5547"/><ellipse cx="941" cy="395.5547" fill="#ADD1B2" rx="11" ry="11" style="stroke:#181818;stroke-width:1.0;"/><path d="M943.4731,401.6978 Q942.8921,401.9966 942.2529,402.146 Q941.6138,402.2954 940.9082,402.2954 Q938.4014,402.2954 937.0815,400.6436 Q935.7617,398.9917 935.7617,395.8706 Q935.7617,392.7412 937.0815,391.0894 Q938.4014,389.4375 940.9082,389.4375 Q941.6138,389.4375 942.2612,389.5869 Q942.9087,389.7363 943.4731,390.0352 L943.4731,392.7578 Q942.8423,392.1768 942.2488,391.907 Q941.6553,391.6372 941.0244,391.6372 Q939.6797,391.6372 938.9949,392.7039 Q938.3101,393.7705 938.3101,395.8706 Q938.3101,397.9624 938.9949,399.0291 Q939.6797,400.0957 941.0244,400.0957 Q941.6553,400.0957 942.2488,399.8259 Q942.8423,399.5562 943.4731,398.9751 Z " fill="#000000"/><text fill="#000000" font-family="sans-serif" font-size="14" lengthAdjust="spacing" textLength="471" x="955" y="400.8457">ClassExample_DOT_InnerClassExample_DOT_classInMethodExample</text><line style="stroke:#181818;stroke-width:0.5;" x1="927" x2="1428" y1="411.5547" y2="411.5547"/><line style="stroke:#181818;stroke-width:0.5;" x1="927" x2="1428" y1="419.5547" y2="419.5547"/></g></a><!--class ClassExample_DOT_InnerClassExample--><a href="Examples.BadDesign.BasicExample.ClassExample_DOT_InnerClassExample-diagram-simplified.svg" target="_top" title="Examples.BadDesign.BasicExample.ClassExample_DOT_InnerClassExample-diagram-simplified.svg" xlink:actuate="onRequest" xlink:href="Examples.BadDesign.BasicExample.ClassExample_DOT_InnerClassExample-diagram-simplified.svg" xlink:show="new" xlink:title="Examples.BadDesign.BasicExample.ClassExample_DOT_InnerClassExample-diagram-simplified.svg" xlink:type="simple"><g id="elem_ClassExample_DOT_InnerClassExample"><rect codeLine="6" fill="#F1F1F1" height="48" id="ClassExample_DOT_InnerClassExample" rx="2.5" ry="2.5" style="stroke:#181818;stroke-width:0.5;" width="302" x="1026.5" y="171.5547"/><ellipse cx="1041.5" cy="187.5547" fill="#ADD1B2" rx="11" ry="11" style="stroke:#181818;stroke-width:1.0;"/><path d="M1043.9731,193.6978 Q1043.3921,193.9966 1042.7529,194.146 Q1042.1138,194.2954 1041.4082,194.2954 Q1038.9014,194.2954 1037.5815,192.6436 Q1036.2617,190.9917 1036.2617,187.8706 Q1036.2617,184.7412 1037.5815,183.0894 Q1038.9014,181.4375 1041.4082,181.4375 Q1042.1138,181.4375 1042.7612,181.5869 Q1043.4087,181.7363 1043.9731,182.0352 L1043.9731,184.7578 Q1043.3423,184.1768 1042.7488,183.907 Q1042.1553,183.6372 1041.5244,183.6372 Q1040.1797,183.6372 1039.4949,184.7039 Q1038.8101,185.7705 1038.8101,187.8706 Q1038.8101,189.9624 1039.4949,191.0291 Q1040.1797,192.0957 1041.5244,192.0957 Q1042.1553,192.0957 1042.7488,191.8259 Q1043.3423,191.5562 1043.9731,190.9751 Z " fill="#000000"/><text fill="#000000" font-family="sans-serif" font-size="14" lengthAdjust="spacing" textLength="270" x="1055.5" y="192.8457">ClassExample_DOT_InnerClassExample</text><line style="stroke:#181818;stroke-width:0.5;" x1="1027.5" x2="1327.5" y1="203.5547" y2="203.5547"/><line style="stroke:#181818;stroke-width:0.5;" x1="1027.5" x2="1327.5" y1="211.5547" y2="211.5547"/></g></a><g id="elem_FloatingNote"><path d="M6,71.5547 L6,319.2129 L845,319.2129 L845,81.5547 L835,71.5547 L6,71.5547 " fill="#FEFFDD" style="stroke:#181818;stroke-width:0.5;"/><path d="M835,71.5547 L835,81.5547 L845,81.5547 L835,71.5547 " fill="#FEFFDD" style="stroke:#181818;stroke-width:1.0;"/><text fill="#000000" font-family="sans-serif" font-size="13" lengthAdjust="spacing" textLength="120" x="12" y="89.123">Your are analyzing:</text><text fill="#000000" font-family="sans-serif" font-size="13" lengthAdjust="spacing" textLength="657" x="12" y="104.4336">Examples.BadDesign.BasicExample.ClassExample_DOT_InnerClassExample_DOT_classInMethodExample</text><text fill="#000000" font-family="sans-serif" font-size="13" font-weight="bold" lengthAdjust="spacing" textLength="67" x="673" y="104.4336">simplified</text><text fill="#000000" font-family="sans-serif" font-size="13" lengthAdjust="spacing" textLength="4" x="740" y="104.4336">&#160;</text><text fill="#000000" font-family="sans-serif" font-size="13" lengthAdjust="spacing" textLength="4" x="12" y="119.7441">&#160;</text><text fill="#000000" font-family="sans-serif" font-size="13" lengthAdjust="spacing" textLength="229" x="12" y="150.3652">You can click either the namespaces</text><text fill="#000000" font-family="sans-serif" font-size="13" lengthAdjust="spacing" textLength="266" x="12" y="165.6758">or class names for filtering them and their</text><text fill="#000000" font-family="sans-serif" font-size="13" lengthAdjust="spacing" textLength="130" x="12" y="180.9863">direct dependencies.</text><text fill="#000000" font-family="sans-serif" font-size="13" lengthAdjust="spacing" textLength="4" x="12" y="196.2969">&#160;</text><line style="stroke:#181818;stroke-width:1.0;" x1="7" x2="409.5" y1="130.1416" y2="130.1416"/><line style="stroke:#181818;stroke-width:1.0;" x1="7" x2="409.5" y1="132.1416" y2="132.1416"/><text fill="#000000" font-family="sans-serif" font-size="13" lengthAdjust="spacing" textLength="32" x="409.5" y="134.5547">Filter</text><line style="stroke:#181818;stroke-width:1.0;" x1="441.5" x2="844" y1="130.1416" y2="130.1416"/><line style="stroke:#181818;stroke-width:1.0;" x1="441.5" x2="844" y1="132.1416" y2="132.1416"/><ellipse cx="17.5" cy="226.1602" fill="#000000" rx="2.5" ry="2.5" style="stroke:#000000;stroke-width:0.0;"/><text fill="#000000" font-family="sans-serif" font-size="13" lengthAdjust="spacing" textLength="657" x="24" y="230.918">Examples.BadDesign.BasicExample.ClassExample_DOT_InnerClassExample_DOT_classInMethodExample</text><text fill="#000000" font-family="sans-serif" font-size="13" font-weight="bold" lengthAdjust="spacing" textLength="55" x="685" y="230.918">detailed</text><text fill="#000000" font-family="sans-serif" font-size="13" lengthAdjust="spacing" textLength="4" x="744" y="230.918">:</text><text fill="#000000" font-family="sans-serif" font-size="13" lengthAdjust="spacing" textLength="12" x="12" y="246.2285">&#160;&#160;&#160;</text><a href="Examples.BadDesign.BasicExample.ClassExample_DOT_InnerClassExample_DOT_classInMethodExample-diagram-detailed.svg" target="_top" title="Examples.BadDesign.BasicExample.ClassExample_DOT_InnerClassExample_DOT_classInMethodExample-diagram-detailed.svg" xlink:actuate="onRequest" xlink:href="Examples.BadDesign.BasicExample.ClassExample_DOT_InnerClassExample_DOT_classInMethodExample-diagram-detailed.svg" xlink:show="new" xlink:title="Examples.BadDesign.BasicExample.ClassExample_DOT_InnerClassExample_DOT_classInMethodExample-diagram-detailed.svg" xlink:type="simple"><text fill="#0000FF" font-family="sans-serif" font-size="13" lengthAdjust="spacing" text-decoration="underline" textLength="800" x="24" y="246.2285">Examples.BadDesign.BasicExample.ClassExample_DOT_InnerClassExample_DOT_classInMethodExample-diagram-detailed.svg</text></a><ellipse cx="17.5" cy="256.7813" fill="#000000" rx="2.5" ry="2.5" style="stroke:#000000;stroke-width:0.0;"/><text fill="#000000" font-family="sans-serif" font-size="13" lengthAdjust="spacing" textLength="78" x="24" y="261.5391">Full diagram</text><text fill="#000000" font-family="sans-serif" font-size="13" font-weight="bold" lengthAdjust="spacing" textLength="67" x="106" y="261.5391">simplified</text><text fill="#000000" font-family="sans-serif" font-size="13" lengthAdjust="spacing" textLength="23" x="177" y="261.5391">and</text><text fill="#000000" font-family="sans-serif" font-size="13" font-weight="bold" lengthAdjust="spacing" textLength="166" x="204" y="261.5391">grouped per namespace</text><text fill="#000000" font-family="sans-serif" font-size="13" lengthAdjust="spacing" textLength="4" x="370" y="261.5391">:</text><text fill="#000000" font-family="sans-serif" font-size="13" lengthAdjust="spacing" textLength="12" x="12" y="276.8496">&#160;&#160;&#160;</text><a href="full-diagram-simplified-grouped-per-namespace.svg" target="_top" title="full-diagram-simplified-grouped-per-namespace.svg" xlink:actuate="onRequest" xlink:href="full-diagram-simplified-grouped-per-namespace.svg" xlink:show="new" xlink:title="full-diagram-simplified-grouped-per-namespace.svg" xlink:type="simple"><text fill="#0000FF" font-family="sans-serif" font-size="13" lengthAdjust="spacing" text-decoration="underline" textLength="343" x="24" y="276.8496">full-diagram-simplified-grouped-per-namespace.svg</text></a><ellipse cx="17.5" cy="287.4023" fill="#000000" rx="2.5" ry="2.5" style="stroke:#000000;stroke-width:0.0;"/><text fill="#000000" font-family="sans-serif" font-size="13" lengthAdjust="spacing" textLength="41" x="24" y="292.1602">Home:</text><text fill="#000000" font-family="sans-serif" font-size="13" lengthAdjust="spacing" textLength="12" x="12" y="307.4707">&#160;&#160;&#160;</text><a href="index.html" target="_top" title="index.html" xlink:actuate="onRequest" xlink:href="index.html" xlink:show="new" xlink:title="index.html" xlink:type="simple"><text fill="#0000FF" font-family="sans-serif" font-size="13" lengthAdjust="spacing" text-decoration="underline" textLength="68" x="24" y="307.4707">index.html</text></a><line style="stroke:#181818;stroke-width:1.0;" x1="7" x2="388.5" y1="210.6943" y2="210.6943"/><line style="stroke:#181818;stroke-width:1.0;" x1="7" x2="388.5" y1="212.6943" y2="212.6943"/><text fill="#000000" font-family="sans-serif" font-size="13" lengthAdjust="spacing" textLength="74" x="388.5" y="215.1074">Select other</text><line style="stroke:#181818;stroke-width:1.0;" x1="462.5" x2="844" y1="210.6943" y2="210.6943"/><line style="stroke:#181818;stroke-width:1.0;" x1="462.5" x2="844" y1="212.6943" y2="212.6943"/></g><!--reverse link ClassExample_DOT_InnerClassExample to ClassExample_DOT_InnerClassExample_DOT_classInMethodExample--><g id="link_ClassExample_DOT_InnerClassExample_ClassExample_DOT_InnerClassExample_DOT_classInMethodExample"><path codeLine="13" d="M1177.5,235.8247 C1177.5,235.8247 1177.5,379.1247 1177.5,379.1247 " fill="none" id="ClassExample_DOT_InnerClassExample-backto-ClassExample_DOT_InnerClassExample_DOT_classInMethodExample" style="stroke:#10BBBB;stroke-width:1.0;"/><ellipse cx="1177.5" cy="228.8247" fill="#FFFFFF" rx="8" ry="8" style="stroke:#10BBBB;stroke-width:1.0;"/><line style="stroke:#10BBBB;stroke-width:1.0;" x1="1177.5" x2="1177.5" y1="236.8247" y2="220.8247"/><line style="stroke:#10BBBB;stroke-width:1.0;" x1="1169.5" x2="1185.5" y1="228.8247" y2="228.8247"/></g><!--SRC=[lL9DRzim3BtdLn3jeO06P-sEGTD3FuBrqEsmNOROA0IBTeZAb24fMz9X_tsKuyH0Ys8xnFN1a2YIZ-_nXIVYLdlTW2N6k6qHd8yhDuaKBS9be6USVJg_kjlefhKOfjVQt6AWckKKgEpZqnkhG-WlZxTVlp_UCwD_5IrJu9uVK21C_m1A1P83LOH6ARZyc42l9kmYmiaFj_QWFO9cRRVFnFKivtUS9kUSv_C5sOX-FizPve5ICvIMoYT0YYlq83zWtM1eTOb1Qfo7hlak2fNSgww5p9-o6w5Zqe5ypeOybX4CjiW6kIGXjeFzXZQzk0IIm1MCoznWr6Gxtg8o02oN8m9cXdGjrilsiDFmiowAH7EnjXRwvvSRISefLNktRj50A_8Vf5TgFtOb3GxzX_AiBykaB3kK3RYVNOFx5YJBs4nNiR55SG8wmC8w7MM1NyIO4qdfLppcIjv7_q6VdH9mkaLhtI_utT7ySrIoH-7qzkZ3p6VYal_wOBJSC-Y61ezMdECu06wYrsKKurRUDODpPvBx3racHz3-GxOylJY_bg_8HZNkNm00]--></g></svg>