<?xml version="1.0" encoding="us-ascii" standalone="no"?><svg xmlns="http://www.w3.org/2000/svg" xmlns:xlink="http://www.w3.org/1999/xlink" contentStyleType="text/css" height="836px" preserveAspectRatio="none" style="width:2602px;height:836px;background:#FFFFFF;" version="1.1" viewBox="0 0 2602 836" width="2602px" zoomAndPan="magnify"><defs/><g><text fill="#000000" font-family="sans-serif" font-size="20" font-weight="bold" lengthAdjust="spacing" textLength="364" x="1063.25" y="29.3359">Examples.BetterDesign.CarExample</text><text fill="#000000" font-family="sans-serif" font-size="20" font-weight="bold" lengthAdjust="spacing" textLength="84" x="1434.25" y="29.3359">detailed</text><text fill="#000000" font-family="sans-serif" font-size="20" font-weight="bold" lengthAdjust="spacing" textLength="7" x="1518.25" y="29.3359">&#160;</text><!--cluster Examples--><g id="cluster_Examples"><path d="M442,50.5547 L511,50.5547 A3.75,3.75 0 0 1 513.5,53.0547 L520.5,73.043 L2593,73.043 A2.5,2.5 0 0 1 2595.5,75.543 L2595.5,826.5547 A2.5,2.5 0 0 1 2593,829.0547 L442,829.0547 A2.5,2.5 0 0 1 439.5,826.5547 L439.5,53.0547 A2.5,2.5 0 0 1 442,50.5547 " fill="none" style="stroke:#000000;stroke-width:1.5;"/><line style="stroke:#000000;stroke-width:1.5;" x1="439.5" x2="520.5" y1="73.043" y2="73.043"/><text fill="#000000" font-family="sans-serif" font-size="14" font-weight="bold" lengthAdjust="spacing" textLength="68" x="443.5" y="66.0898">Examples</text></g><!--cluster BetterDesign--><g id="cluster_BetterDesign"><path d="M466,93.5547 L560,93.5547 A3.75,3.75 0 0 1 562.5,96.0547 L569.5,116.043 L2569,116.043 A2.5,2.5 0 0 1 2571.5,118.543 L2571.5,802.5547 A2.5,2.5 0 0 1 2569,805.0547 L466,805.0547 A2.5,2.5 0 0 1 463.5,802.5547 L463.5,96.0547 A2.5,2.5 0 0 1 466,93.5547 " fill="none" style="stroke:#000000;stroke-width:1.5;"/><line style="stroke:#000000;stroke-width:1.5;" x1="463.5" x2="569.5" y1="116.043" y2="116.043"/><text fill="#000000" font-family="sans-serif" font-size="14" font-weight="bold" lengthAdjust="spacing" textLength="93" x="467.5" y="109.0898">BetterDesign</text></g><!--cluster CarExample--><g id="cluster_CarExample"><path d="M490,136.5547 L575,136.5547 A3.75,3.75 0 0 1 577.5,139.0547 L584.5,159.043 L1691,159.043 A2.5,2.5 0 0 1 1693.5,161.543 L1693.5,778.5547 A2.5,2.5 0 0 1 1691,781.0547 L490,781.0547 A2.5,2.5 0 0 1 487.5,778.5547 L487.5,139.0547 A2.5,2.5 0 0 1 490,136.5547 " fill="none" style="stroke:#000000;stroke-width:1.5;"/><line style="stroke:#000000;stroke-width:1.5;" x1="487.5" x2="584.5" y1="159.043" y2="159.043"/><text fill="#000000" font-family="sans-serif" font-size="14" font-weight="bold" lengthAdjust="spacing" textLength="84" x="491.5" y="152.0898">CarExample</text></g><!--cluster CarParts--><g id="cluster_CarParts"><path d="M514,625.0547 L576,625.0547 A3.75,3.75 0 0 1 578.5,627.5547 L585.5,647.543 L1667,647.543 A2.5,2.5 0 0 1 1669.5,650.043 L1669.5,754.5547 A2.5,2.5 0 0 1 1667,757.0547 L514,757.0547 A2.5,2.5 0 0 1 511.5,754.5547 L511.5,627.5547 A2.5,2.5 0 0 1 514,625.0547 " fill="none" style="stroke:#000000;stroke-width:1.5;"/><line style="stroke:#000000;stroke-width:1.5;" x1="511.5" x2="585.5" y1="647.543" y2="647.543"/><text fill="#000000" font-family="sans-serif" font-size="14" font-weight="bold" lengthAdjust="spacing" textLength="61" x="515.5" y="640.5898">CarParts</text></g><!--class DBCar--><a href="Examples.BetterDesign.DBCar-diagram-detailed.svg" target="_top" title="Examples.BetterDesign.DBCar-diagram-detailed.svg" xlink:actuate="onRequest" xlink:href="Examples.BetterDesign.DBCar-diagram-detailed.svg" xlink:show="new" xlink:title="Examples.BetterDesign.DBCar-diagram-detailed.svg" xlink:type="simple"><g id="elem_DBCar"><rect codeLine="4" fill="#F1F1F1" height="196.3945" id="DBCar" rx="2.5" ry="2.5" style="stroke:#181818;stroke-width:0.5;" width="845" x="1710" y="404.0547"/><ellipse cx="2107.25" cy="420.0547" fill="#ADD1B2" rx="11" ry="11" style="stroke:#181818;stroke-width:1.0;"/><path d="M2109.7231,426.1978 Q2109.1421,426.4966 2108.5029,426.646 Q2107.8638,426.7954 2107.1582,426.7954 Q2104.6514,426.7954 2103.3315,425.1436 Q2102.0117,423.4917 2102.0117,420.3706 Q2102.0117,417.2412 2103.3315,415.5894 Q2104.6514,413.9375 2107.1582,413.9375 Q2107.8638,413.9375 2108.5112,414.0869 Q2109.1587,414.2363 2109.7231,414.5352 L2109.7231,417.2578 Q2109.0923,416.6768 2108.4988,416.407 Q2107.9053,416.1372 2107.2744,416.1372 Q2105.9297,416.1372 2105.2449,417.2039 Q2104.5601,418.2705 2104.5601,420.3706 Q2104.5601,422.4624 2105.2449,423.5291 Q2105.9297,424.5957 2107.2744,424.5957 Q2107.9053,424.5957 2108.4988,424.3259 Q2109.0923,424.0562 2109.7231,423.4751 Z " fill="#000000"/><text fill="#000000" font-family="sans-serif" font-size="14" lengthAdjust="spacing" textLength="42" x="2127.75" y="425.3457">DBCar</text><line style="stroke:#181818;stroke-width:0.5;" x1="1711" x2="2554" y1="436.0547" y2="436.0547"/><line style="stroke:#181818;stroke-width:0.5;" x1="1711" x2="2554" y1="444.0547" y2="444.0547"/><ellipse cx="1721" cy="457.7988" fill="#84BE84" rx="3" ry="3" style="stroke:#038048;stroke-width:1.0;"/><text fill="#000000" font-family="sans-serif" font-size="14" lengthAdjust="spacing" textLength="122" x="1730" y="461.5898">getCarsForDriver(</text><text fill="#6060BB" font-family="sans-serif" font-size="14" lengthAdjust="spacing" textLength="395" x="1852" y="461.5898">driver:Examples.BetterDesign.CarExample.CarParts.Driver</text><text fill="#000000" font-family="sans-serif" font-size="14" lengthAdjust="spacing" textLength="9" x="2247" y="461.5898">):</text><text fill="#BB6060" font-family="sans-serif" font-size="14" lengthAdjust="spacing" textLength="41" x="2260" y="461.5898">String</text><ellipse cx="1721" cy="474.2871" fill="#84BE84" rx="3" ry="3" style="stroke:#038048;stroke-width:1.0;"/><text fill="#000000" font-family="sans-serif" font-size="14" lengthAdjust="spacing" textLength="77" x="1730" y="478.0781">updateCar(</text><text fill="#6060BB" font-family="sans-serif" font-size="14" lengthAdjust="spacing" textLength="690" x="1807" y="478.0781">car:Examples.BetterDesign.CarExample.Car, seats:Examples.BetterDesign.CarExample.CarParts.Seats</text><text fill="#000000" font-family="sans-serif" font-size="14" lengthAdjust="spacing" textLength="9" x="2497" y="478.0781">):</text><text fill="#BB6060" font-family="sans-serif" font-size="14" lengthAdjust="spacing" textLength="29" x="2510" y="478.0781">void</text><ellipse cx="1721" cy="490.7754" fill="#84BE84" rx="3" ry="3" style="stroke:#038048;stroke-width:1.0;"/><text fill="#000000" font-family="sans-serif" font-size="14" lengthAdjust="spacing" textLength="77" x="1730" y="494.5664">updateCar(</text><text fill="#6060BB" font-family="sans-serif" font-size="14" lengthAdjust="spacing" textLength="700" x="1807" y="494.5664">car:Examples.BetterDesign.CarExample.Car, doors:Examples.BetterDesign.CarExample.CarParts.Doors</text><text fill="#000000" font-family="sans-serif" font-size="14" lengthAdjust="spacing" textLength="9" x="2507" y="494.5664">):</text><text fill="#BB6060" font-family="sans-serif" font-size="14" lengthAdjust="spacing" textLength="29" x="2520" y="494.5664">void</text><ellipse cx="1721" cy="507.2637" fill="#84BE84" rx="3" ry="3" style="stroke:#038048;stroke-width:1.0;"/><text fill="#000000" font-family="sans-serif" font-size="14" lengthAdjust="spacing" textLength="70" x="1730" y="511.0547">sellCarTo(</text><text fill="#6060BB" font-family="sans-serif" font-size="14" lengthAdjust="spacing" textLength="700" x="1800" y="511.0547">car:Examples.BetterDesign.CarExample.Car, driver:Examples.BetterDesign.CarExample.CarParts.Driver</text><text fill="#000000" font-family="sans-serif" font-size="14" lengthAdjust="spacing" textLength="9" x="2500" y="511.0547">):</text><text fill="#BB6060" font-family="sans-serif" font-size="14" lengthAdjust="spacing" textLength="29" x="2513" y="511.0547">void</text><ellipse cx="1721" cy="523.752" fill="#84BE84" rx="3" ry="3" style="stroke:#038048;stroke-width:1.0;"/><text fill="#000000" font-family="sans-serif" font-size="14" lengthAdjust="spacing" textLength="128" x="1730" y="527.543">getCarFromDriver(</text><text fill="#6060BB" font-family="sans-serif" font-size="14" lengthAdjust="spacing" textLength="364" x="1858" y="527.543">d:Examples.BetterDesign.CarExample.CarParts.Driver</text><text fill="#000000" font-family="sans-serif" font-size="14" lengthAdjust="spacing" textLength="9" x="2222" y="527.543">):</text><text fill="#BB6060" font-family="sans-serif" font-size="14" lengthAdjust="spacing" textLength="272" x="2235" y="527.543">Examples.BetterDesign.CarExample.Car</text><ellipse cx="1721" cy="540.2402" fill="#84BE84" rx="3" ry="3" style="stroke:#038048;stroke-width:1.0;"/><text fill="#000000" font-family="sans-serif" font-size="14" lengthAdjust="spacing" textLength="128" x="1730" y="544.0313">getDriverFromCar(</text><text fill="#6060BB" font-family="sans-serif" font-size="14" lengthAdjust="spacing" textLength="283" x="1858" y="544.0313">c:Examples.BetterDesign.CarExample.Car</text><text fill="#000000" font-family="sans-serif" font-size="14" lengthAdjust="spacing" textLength="9" x="2141" y="544.0313">):</text><text fill="#BB6060" font-family="sans-serif" font-size="14" lengthAdjust="spacing" textLength="351" x="2154" y="544.0313">Examples.BetterDesign.CarExample.CarParts.Driver</text><ellipse cx="1721" cy="556.7285" fill="#84BE84" rx="3" ry="3" style="stroke:#038048;stroke-width:1.0;"/><text fill="#000000" font-family="sans-serif" font-size="14" lengthAdjust="spacing" textLength="135" x="1730" y="560.5195">getWheelsFromCar(</text><text fill="#6060BB" font-family="sans-serif" font-size="14" lengthAdjust="spacing" textLength="283" x="1865" y="560.5195">c:Examples.BetterDesign.CarExample.Car</text><text fill="#000000" font-family="sans-serif" font-size="14" lengthAdjust="spacing" textLength="9" x="2148" y="560.5195">):</text><text fill="#BB6060" font-family="sans-serif" font-size="14" lengthAdjust="spacing" textLength="358" x="2161" y="560.5195">Examples.BetterDesign.CarExample.CarParts.Wheels</text><ellipse cx="1721" cy="573.2168" fill="#84BE84" rx="3" ry="3" style="stroke:#038048;stroke-width:1.0;"/><text fill="#000000" font-family="sans-serif" font-size="14" lengthAdjust="spacing" textLength="128" x="1730" y="577.0078">getDoorsFromCar(</text><text fill="#6060BB" font-family="sans-serif" font-size="14" lengthAdjust="spacing" textLength="283" x="1858" y="577.0078">c:Examples.BetterDesign.CarExample.Car</text><text fill="#000000" font-family="sans-serif" font-size="14" lengthAdjust="spacing" textLength="9" x="2141" y="577.0078">):</text><text fill="#BB6060" font-family="sans-serif" font-size="14" lengthAdjust="spacing" textLength="351" x="2154" y="577.0078">Examples.BetterDesign.CarExample.CarParts.Doors</text><ellipse cx="1721" cy="589.7051" fill="#84BE84" rx="3" ry="3" style="stroke:#038048;stroke-width:1.0;"/><text fill="#000000" font-family="sans-serif" font-size="14" lengthAdjust="spacing" textLength="123" x="1730" y="593.4961">getSeatsFromCar(</text><text fill="#6060BB" font-family="sans-serif" font-size="14" lengthAdjust="spacing" textLength="283" x="1853" y="593.4961">c:Examples.BetterDesign.CarExample.Car</text><text fill="#000000" font-family="sans-serif" font-size="14" lengthAdjust="spacing" textLength="9" x="2136" y="593.4961">):</text><text fill="#BB6060" font-family="sans-serif" font-size="14" lengthAdjust="spacing" textLength="346" x="2149" y="593.4961">Examples.BetterDesign.CarExample.CarParts.Seats</text></g></a><!--class Vehicle--><a href="Examples.BetterDesign.CarExample.Vehicle-diagram-detailed.svg" target="_top" title="Examples.BetterDesign.CarExample.Vehicle-diagram-detailed.svg" xlink:actuate="onRequest" xlink:href="Examples.BetterDesign.CarExample.Vehicle-diagram-detailed.svg" xlink:show="new" xlink:title="Examples.BetterDesign.CarExample.Vehicle-diagram-detailed.svg" xlink:type="simple"><g id="elem_Vehicle"><rect codeLine="15" fill="#FFFF00" height="97.4648" id="Vehicle" rx="2.5" ry="2.5" style="stroke:#181818;stroke-width:0.5;" width="255" x="1265" y="171.5547"/><ellipse cx="1363.75" cy="187.5547" fill="#ADD1B2" rx="11" ry="11" style="stroke:#181818;stroke-width:1.0;"/><path d="M1366.2231,193.6978 Q1365.6421,193.9966 1365.0029,194.146 Q1364.3638,194.2954 1363.6582,194.2954 Q1361.1514,194.2954 1359.8315,192.6436 Q1358.5117,190.9917 1358.5117,187.8706 Q1358.5117,184.7412 1359.8315,183.0894 Q1361.1514,181.4375 1363.6582,181.4375 Q1364.3638,181.4375 1365.0112,181.5869 Q1365.6587,181.7363 1366.2231,182.0352 L1366.2231,184.7578 Q1365.5923,184.1768 1364.9988,183.907 Q1364.4053,183.6372 1363.7744,183.6372 Q1362.4297,183.6372 1361.7449,184.7039 Q1361.0601,185.7705 1361.0601,187.8706 Q1361.0601,189.9624 1361.7449,191.0291 Q1362.4297,192.0957 1363.7744,192.0957 Q1364.4053,192.0957 1364.9988,191.8259 Q1365.5923,191.5562 1366.2231,190.9751 Z " fill="#000000"/><text fill="#000000" font-family="sans-serif" font-size="14" lengthAdjust="spacing" textLength="49" x="1384.25" y="192.8457">Vehicle</text><line style="stroke:#181818;stroke-width:0.5;" x1="1266" x2="1519" y1="203.5547" y2="203.5547"/><ellipse cx="1276" cy="217.2988" fill="none" rx="3" ry="3" style="stroke:#038048;stroke-width:1.0;"/><text fill="#000000" font-family="sans-serif" font-size="14" lengthAdjust="spacing" textLength="229" x="1285" y="221.0898">db: Examples.BetterDesign.DBCar</text><line style="stroke:#181818;stroke-width:1.0;" x1="1266" x2="1519" y1="228.043" y2="228.043"/><line style="stroke:#181818;stroke-width:1.0;" x1="1266" x2="1519" y1="230.043" y2="230.043"/><ellipse cx="1276" cy="241.7871" fill="#84BE84" rx="3" ry="3" style="stroke:#038048;stroke-width:1.0;"/><text fill="#000000" font-family="sans-serif" font-size="14" lengthAdjust="spacing" textLength="67" x="1285" y="245.5781">setSpeed(</text><text fill="#6060BB" font-family="sans-serif" font-size="14" lengthAdjust="spacing" textLength="63" x="1352" y="245.5781">speed:int</text><text fill="#000000" font-family="sans-serif" font-size="14" lengthAdjust="spacing" textLength="9" x="1415" y="245.5781">):</text><text fill="#BB6060" font-family="sans-serif" font-size="14" lengthAdjust="spacing" textLength="29" x="1428" y="245.5781">void</text><ellipse cx="1276" cy="258.2754" fill="#84BE84" rx="3" ry="3" style="stroke:#038048;stroke-width:1.0;"/><text fill="#000000" font-family="sans-serif" font-size="14" lengthAdjust="spacing" textLength="69" x="1285" y="262.0664">getSpeed(</text><text fill="#000000" font-family="sans-serif" font-size="14" lengthAdjust="spacing" textLength="9" x="1354" y="262.0664">):</text><text fill="#BB6060" font-family="sans-serif" font-size="14" lengthAdjust="spacing" textLength="18" x="1367" y="262.0664">int</text></g></a><!--class Car--><a href="Examples.BetterDesign.CarExample.Car-diagram-detailed.svg" target="_top" title="Examples.BetterDesign.CarExample.Car-diagram-detailed.svg" xlink:actuate="onRequest" xlink:href="Examples.BetterDesign.CarExample.Car-diagram-detailed.svg" xlink:show="new" xlink:title="Examples.BetterDesign.CarExample.Car-diagram-detailed.svg" xlink:type="simple"><g id="elem_Car"><rect codeLine="21" fill="#FFFF00" height="130.4414" id="Car" rx="2.5" ry="2.5" style="stroke:#181818;stroke-width:0.5;" width="534" x="968.5" y="437.0547"/><ellipse cx="1219.25" cy="453.0547" fill="#ADD1B2" rx="11" ry="11" style="stroke:#181818;stroke-width:1.0;"/><path d="M1221.7231,459.1978 Q1221.1421,459.4966 1220.5029,459.646 Q1219.8638,459.7954 1219.1582,459.7954 Q1216.6514,459.7954 1215.3315,458.1436 Q1214.0117,456.4917 1214.0117,453.3706 Q1214.0117,450.2412 1215.3315,448.5894 Q1216.6514,446.9375 1219.1582,446.9375 Q1219.8638,446.9375 1220.5112,447.0869 Q1221.1587,447.2363 1221.7231,447.5352 L1221.7231,450.2578 Q1221.0923,449.6768 1220.4988,449.407 Q1219.9053,449.1372 1219.2744,449.1372 Q1217.9297,449.1372 1217.2449,450.2039 Q1216.5601,451.2705 1216.5601,453.3706 Q1216.5601,455.4624 1217.2449,456.5291 Q1217.9297,457.5957 1219.2744,457.5957 Q1219.9053,457.5957 1220.4988,457.3259 Q1221.0923,457.0562 1221.7231,456.4751 Z " fill="#000000"/><text fill="#000000" font-family="sans-serif" font-size="14" lengthAdjust="spacing" textLength="24" x="1239.75" y="458.3457">Car</text><line style="stroke:#181818;stroke-width:0.5;" x1="969.5" x2="1501.5" y1="469.0547" y2="469.0547"/><ellipse cx="979.5" cy="482.7988" fill="none" rx="3" ry="3" style="stroke:#038048;stroke-width:1.0;"/><text fill="#000000" font-family="sans-serif" font-size="14" lengthAdjust="spacing" textLength="413" x="988.5" y="486.5898">wheels: Examples.BetterDesign.CarExample.CarParts.Wheels</text><ellipse cx="979.5" cy="499.2871" fill="none" rx="3" ry="3" style="stroke:#038048;stroke-width:1.0;"/><text fill="#000000" font-family="sans-serif" font-size="14" lengthAdjust="spacing" textLength="389" x="988.5" y="503.0781">seats: Examples.BetterDesign.CarExample.CarParts.Seats</text><ellipse cx="979.5" cy="515.7754" fill="none" rx="3" ry="3" style="stroke:#038048;stroke-width:1.0;"/><text fill="#000000" font-family="sans-serif" font-size="14" lengthAdjust="spacing" textLength="399" x="988.5" y="519.5664">driver: Examples.BetterDesign.CarExample.CarParts.Driver</text><ellipse cx="979.5" cy="532.2637" fill="none" rx="3" ry="3" style="stroke:#038048;stroke-width:1.0;"/><text fill="#000000" font-family="sans-serif" font-size="14" lengthAdjust="spacing" textLength="399" x="988.5" y="536.0547">doors: Examples.BetterDesign.CarExample.CarParts.Doors</text><line style="stroke:#181818;stroke-width:1.0;" x1="969.5" x2="1501.5" y1="543.0078" y2="543.0078"/><line style="stroke:#181818;stroke-width:1.0;" x1="969.5" x2="1501.5" y1="545.0078" y2="545.0078"/><ellipse cx="979.5" cy="556.752" fill="#84BE84" rx="3" ry="3" style="stroke:#038048;stroke-width:1.0;"/><text fill="#000000" font-family="sans-serif" font-size="14" lengthAdjust="spacing" textLength="71" x="988.5" y="560.543">createCar(</text><text fill="#6060BB" font-family="sans-serif" font-size="14" lengthAdjust="spacing" textLength="395" x="1059.5" y="560.543">doors:Examples.BetterDesign.CarExample.CarParts.Doors</text><text fill="#000000" font-family="sans-serif" font-size="14" lengthAdjust="spacing" textLength="9" x="1454.5" y="560.543">):</text><text fill="#BB6060" font-family="sans-serif" font-size="14" lengthAdjust="spacing" textLength="29" x="1467.5" y="560.543">void</text></g></a><!--class Wheels--><a href="Examples.BetterDesign.CarExample.CarParts.Wheels-diagram-detailed.svg" target="_top" title="Examples.BetterDesign.CarExample.CarParts.Wheels-diagram-detailed.svg" xlink:actuate="onRequest" xlink:href="Examples.BetterDesign.CarExample.CarParts.Wheels-diagram-detailed.svg" xlink:show="new" xlink:title="Examples.BetterDesign.CarExample.CarParts.Wheels-diagram-detailed.svg" xlink:type="simple"><g id="elem_Wheels"><rect codeLine="29" fill="#FFFF00" height="80.9766" id="Wheels" rx="2.5" ry="2.5" style="stroke:#181818;stroke-width:0.5;" width="255" x="818" y="660.0547"/><ellipse cx="917.25" cy="676.0547" fill="#ADD1B2" rx="11" ry="11" style="stroke:#181818;stroke-width:1.0;"/><path d="M919.7231,682.1978 Q919.1421,682.4966 918.5029,682.646 Q917.8638,682.7954 917.1582,682.7954 Q914.6514,682.7954 913.3315,681.1436 Q912.0117,679.4917 912.0117,676.3706 Q912.0117,673.2412 913.3315,671.5894 Q914.6514,669.9375 917.1582,669.9375 Q917.8638,669.9375 918.5112,670.0869 Q919.1587,670.2363 919.7231,670.5352 L919.7231,673.2578 Q919.0923,672.6768 918.4988,672.407 Q917.9053,672.1372 917.2744,672.1372 Q915.9297,672.1372 915.2449,673.2039 Q914.5601,674.2705 914.5601,676.3706 Q914.5601,678.4624 915.2449,679.5291 Q915.9297,680.5957 917.2744,680.5957 Q917.9053,680.5957 918.4988,680.3259 Q919.0923,680.0562 919.7231,679.4751 Z " fill="#000000"/><text fill="#000000" font-family="sans-serif" font-size="14" lengthAdjust="spacing" textLength="48" x="937.75" y="681.3457">Wheels</text><line style="stroke:#181818;stroke-width:0.5;" x1="819" x2="1072" y1="692.0547" y2="692.0547"/><ellipse cx="829" cy="705.7988" fill="none" rx="3" ry="3" style="stroke:#038048;stroke-width:1.0;"/><text fill="#000000" font-family="sans-serif" font-size="14" lengthAdjust="spacing" textLength="229" x="838" y="709.5898">db: Examples.BetterDesign.DBCar</text><line style="stroke:#181818;stroke-width:1.0;" x1="819" x2="1072" y1="716.543" y2="716.543"/><line style="stroke:#181818;stroke-width:1.0;" x1="819" x2="1072" y1="718.543" y2="718.543"/><ellipse cx="829" cy="730.2871" fill="#84BE84" rx="3" ry="3" style="stroke:#038048;stroke-width:1.0;"/><text fill="#000000" font-family="sans-serif" font-size="14" lengthAdjust="spacing" textLength="74" x="838" y="734.0781">getWeight(</text><text fill="#000000" font-family="sans-serif" font-size="14" lengthAdjust="spacing" textLength="9" x="912" y="734.0781">):</text><text fill="#BB6060" font-family="sans-serif" font-size="14" lengthAdjust="spacing" textLength="18" x="925" y="734.0781">int</text></g></a><!--class Seats--><a href="Examples.BetterDesign.CarExample.CarParts.Seats-diagram-detailed.svg" target="_top" title="Examples.BetterDesign.CarExample.CarParts.Seats-diagram-detailed.svg" xlink:actuate="onRequest" xlink:href="Examples.BetterDesign.CarExample.CarParts.Seats-diagram-detailed.svg" xlink:show="new" xlink:title="Examples.BetterDesign.CarExample.CarParts.Seats-diagram-detailed.svg" xlink:type="simple"><g id="elem_Seats"><rect codeLine="34" fill="#FFFF00" height="80.9766" id="Seats" rx="2.5" ry="2.5" style="stroke:#181818;stroke-width:0.5;" width="255" x="1398" y="660.0547"/><ellipse cx="1503.25" cy="676.0547" fill="#ADD1B2" rx="11" ry="11" style="stroke:#181818;stroke-width:1.0;"/><path d="M1505.7231,682.1978 Q1505.1421,682.4966 1504.5029,682.646 Q1503.8638,682.7954 1503.1582,682.7954 Q1500.6514,682.7954 1499.3315,681.1436 Q1498.0117,679.4917 1498.0117,676.3706 Q1498.0117,673.2412 1499.3315,671.5894 Q1500.6514,669.9375 1503.1582,669.9375 Q1503.8638,669.9375 1504.5112,670.0869 Q1505.1587,670.2363 1505.7231,670.5352 L1505.7231,673.2578 Q1505.0923,672.6768 1504.4988,672.407 Q1503.9053,672.1372 1503.2744,672.1372 Q1501.9297,672.1372 1501.2449,673.2039 Q1500.5601,674.2705 1500.5601,676.3706 Q1500.5601,678.4624 1501.2449,679.5291 Q1501.9297,680.5957 1503.2744,680.5957 Q1503.9053,680.5957 1504.4988,680.3259 Q1505.0923,680.0562 1505.7231,679.4751 Z " fill="#000000"/><text fill="#000000" font-family="sans-serif" font-size="14" lengthAdjust="spacing" textLength="36" x="1523.75" y="681.3457">Seats</text><line style="stroke:#181818;stroke-width:0.5;" x1="1399" x2="1652" y1="692.0547" y2="692.0547"/><ellipse cx="1409" cy="705.7988" fill="none" rx="3" ry="3" style="stroke:#038048;stroke-width:1.0;"/><text fill="#000000" font-family="sans-serif" font-size="14" lengthAdjust="spacing" textLength="229" x="1418" y="709.5898">db: Examples.BetterDesign.DBCar</text><line style="stroke:#181818;stroke-width:1.0;" x1="1399" x2="1652" y1="716.543" y2="716.543"/><line style="stroke:#181818;stroke-width:1.0;" x1="1399" x2="1652" y1="718.543" y2="718.543"/><ellipse cx="1409" cy="730.2871" fill="#84BE84" rx="3" ry="3" style="stroke:#038048;stroke-width:1.0;"/><text fill="#000000" font-family="sans-serif" font-size="14" lengthAdjust="spacing" textLength="74" x="1418" y="734.0781">getWeight(</text><text fill="#000000" font-family="sans-serif" font-size="14" lengthAdjust="spacing" textLength="9" x="1492" y="734.0781">):</text><text fill="#BB6060" font-family="sans-serif" font-size="14" lengthAdjust="spacing" textLength="18" x="1505" y="734.0781">int</text></g></a><!--class Driver--><a href="Examples.BetterDesign.CarExample.CarParts.Driver-diagram-detailed.svg" target="_top" title="Examples.BetterDesign.CarExample.CarParts.Driver-diagram-detailed.svg" xlink:actuate="onRequest" xlink:href="Examples.BetterDesign.CarExample.CarParts.Driver-diagram-detailed.svg" xlink:show="new" xlink:title="Examples.BetterDesign.CarExample.CarParts.Driver-diagram-detailed.svg" xlink:type="simple"><g id="elem_Driver"><rect codeLine="39" fill="#FFFF00" height="80.9766" id="Driver" rx="2.5" ry="2.5" style="stroke:#181818;stroke-width:0.5;" width="255" x="1108" y="660.0547"/><ellipse cx="1210.75" cy="676.0547" fill="#ADD1B2" rx="11" ry="11" style="stroke:#181818;stroke-width:1.0;"/><path d="M1213.2231,682.1978 Q1212.6421,682.4966 1212.0029,682.646 Q1211.3638,682.7954 1210.6582,682.7954 Q1208.1514,682.7954 1206.8315,681.1436 Q1205.5117,679.4917 1205.5117,676.3706 Q1205.5117,673.2412 1206.8315,671.5894 Q1208.1514,669.9375 1210.6582,669.9375 Q1211.3638,669.9375 1212.0112,670.0869 Q1212.6587,670.2363 1213.2231,670.5352 L1213.2231,673.2578 Q1212.5923,672.6768 1211.9988,672.407 Q1211.4053,672.1372 1210.7744,672.1372 Q1209.4297,672.1372 1208.7449,673.2039 Q1208.0601,674.2705 1208.0601,676.3706 Q1208.0601,678.4624 1208.7449,679.5291 Q1209.4297,680.5957 1210.7744,680.5957 Q1211.4053,680.5957 1211.9988,680.3259 Q1212.5923,680.0562 1213.2231,679.4751 Z " fill="#000000"/><text fill="#000000" font-family="sans-serif" font-size="14" lengthAdjust="spacing" textLength="41" x="1231.25" y="681.3457">Driver</text><line style="stroke:#181818;stroke-width:0.5;" x1="1109" x2="1362" y1="692.0547" y2="692.0547"/><ellipse cx="1119" cy="705.7988" fill="none" rx="3" ry="3" style="stroke:#038048;stroke-width:1.0;"/><text fill="#000000" font-family="sans-serif" font-size="14" lengthAdjust="spacing" textLength="229" x="1128" y="709.5898">db: Examples.BetterDesign.DBCar</text><line style="stroke:#181818;stroke-width:1.0;" x1="1109" x2="1362" y1="716.543" y2="716.543"/><line style="stroke:#181818;stroke-width:1.0;" x1="1109" x2="1362" y1="718.543" y2="718.543"/><ellipse cx="1119" cy="730.2871" fill="#84BE84" rx="3" ry="3" style="stroke:#038048;stroke-width:1.0;"/><text fill="#000000" font-family="sans-serif" font-size="14" lengthAdjust="spacing" textLength="74" x="1128" y="734.0781">getWeight(</text><text fill="#000000" font-family="sans-serif" font-size="14" lengthAdjust="spacing" textLength="9" x="1202" y="734.0781">):</text><text fill="#BB6060" font-family="sans-serif" font-size="14" lengthAdjust="spacing" textLength="18" x="1215" y="734.0781">int</text></g></a><!--class Doors--><a href="Examples.BetterDesign.CarExample.CarParts.Doors-diagram-detailed.svg" target="_top" title="Examples.BetterDesign.CarExample.CarParts.Doors-diagram-detailed.svg" xlink:actuate="onRequest" xlink:href="Examples.BetterDesign.CarExample.CarParts.Doors-diagram-detailed.svg" xlink:show="new" xlink:title="Examples.BetterDesign.CarExample.CarParts.Doors-diagram-detailed.svg" xlink:type="simple"><g id="elem_Doors"><rect codeLine="44" fill="#FFFF00" height="80.9766" id="Doors" rx="2.5" ry="2.5" style="stroke:#181818;stroke-width:0.5;" width="255" x="528" y="660.0547"/><ellipse cx="630.75" cy="676.0547" fill="#ADD1B2" rx="11" ry="11" style="stroke:#181818;stroke-width:1.0;"/><path d="M633.2231,682.1978 Q632.6421,682.4966 632.0029,682.646 Q631.3638,682.7954 630.6582,682.7954 Q628.1514,682.7954 626.8315,681.1436 Q625.5117,679.4917 625.5117,676.3706 Q625.5117,673.2412 626.8315,671.5894 Q628.1514,669.9375 630.6582,669.9375 Q631.3638,669.9375 632.0112,670.0869 Q632.6587,670.2363 633.2231,670.5352 L633.2231,673.2578 Q632.5923,672.6768 631.9988,672.407 Q631.4053,672.1372 630.7744,672.1372 Q629.4297,672.1372 628.7449,673.2039 Q628.0601,674.2705 628.0601,676.3706 Q628.0601,678.4624 628.7449,679.5291 Q629.4297,680.5957 630.7744,680.5957 Q631.4053,680.5957 631.9988,680.3259 Q632.5923,680.0562 633.2231,679.4751 Z " fill="#000000"/><text fill="#000000" font-family="sans-serif" font-size="14" lengthAdjust="spacing" textLength="41" x="651.25" y="681.3457">Doors</text><line style="stroke:#181818;stroke-width:0.5;" x1="529" x2="782" y1="692.0547" y2="692.0547"/><ellipse cx="539" cy="705.7988" fill="none" rx="3" ry="3" style="stroke:#038048;stroke-width:1.0;"/><text fill="#000000" font-family="sans-serif" font-size="14" lengthAdjust="spacing" textLength="229" x="548" y="709.5898">db: Examples.BetterDesign.DBCar</text><line style="stroke:#181818;stroke-width:1.0;" x1="529" x2="782" y1="716.543" y2="716.543"/><line style="stroke:#181818;stroke-width:1.0;" x1="529" x2="782" y1="718.543" y2="718.543"/><ellipse cx="539" cy="730.2871" fill="#84BE84" rx="3" ry="3" style="stroke:#038048;stroke-width:1.0;"/><text fill="#000000" font-family="sans-serif" font-size="14" lengthAdjust="spacing" textLength="74" x="548" y="734.0781">getWeight(</text><text fill="#000000" font-family="sans-serif" font-size="14" lengthAdjust="spacing" textLength="9" x="622" y="734.0781">):</text><text fill="#BB6060" font-family="sans-serif" font-size="14" lengthAdjust="spacing" textLength="18" x="635" y="734.0781">int</text></g></a><g id="elem_FloatingNote"><path d="M6,96.0547 L6,343.7129 L423,343.7129 L423,106.0547 L413,96.0547 L6,96.0547 " fill="#FEFFDD" style="stroke:#181818;stroke-width:0.5;"/><path d="M413,96.0547 L413,106.0547 L423,106.0547 L413,96.0547 " fill="#FEFFDD" style="stroke:#181818;stroke-width:1.0;"/><text fill="#000000" font-family="sans-serif" font-size="13" lengthAdjust="spacing" textLength="120" x="12" y="113.623">Your are analyzing:</text><text fill="#000000" font-family="sans-serif" font-size="13" lengthAdjust="spacing" textLength="222" x="12" y="128.9336">Examples.BetterDesign.CarExample</text><text fill="#000000" font-family="sans-serif" font-size="13" font-weight="bold" lengthAdjust="spacing" textLength="55" x="238" y="128.9336">detailed</text><text fill="#000000" font-family="sans-serif" font-size="13" lengthAdjust="spacing" textLength="4" x="293" y="128.9336">&#160;</text><text fill="#000000" font-family="sans-serif" font-size="13" lengthAdjust="spacing" textLength="4" x="12" y="144.2441">&#160;</text><text fill="#000000" font-family="sans-serif" font-size="13" lengthAdjust="spacing" textLength="229" x="12" y="174.8652">You can click either the namespaces</text><text fill="#000000" font-family="sans-serif" font-size="13" lengthAdjust="spacing" textLength="266" x="12" y="190.1758">or class names for filtering them and their</text><text fill="#000000" font-family="sans-serif" font-size="13" lengthAdjust="spacing" textLength="130" x="12" y="205.4863">direct dependencies.</text><text fill="#000000" font-family="sans-serif" font-size="13" lengthAdjust="spacing" textLength="4" x="12" y="220.7969">&#160;</text><line style="stroke:#181818;stroke-width:1.0;" x1="7" x2="198.5" y1="154.6416" y2="154.6416"/><line style="stroke:#181818;stroke-width:1.0;" x1="7" x2="198.5" y1="156.6416" y2="156.6416"/><text fill="#000000" font-family="sans-serif" font-size="13" lengthAdjust="spacing" textLength="32" x="198.5" y="159.0547">Filter</text><line style="stroke:#181818;stroke-width:1.0;" x1="230.5" x2="422" y1="154.6416" y2="154.6416"/><line style="stroke:#181818;stroke-width:1.0;" x1="230.5" x2="422" y1="156.6416" y2="156.6416"/><ellipse cx="17.5" cy="250.6602" fill="#000000" rx="2.5" ry="2.5" style="stroke:#000000;stroke-width:0.0;"/><text fill="#000000" font-family="sans-serif" font-size="13" lengthAdjust="spacing" textLength="222" x="24" y="255.418">Examples.BetterDesign.CarExample</text><text fill="#000000" font-family="sans-serif" font-size="13" font-weight="bold" lengthAdjust="spacing" textLength="67" x="250" y="255.418">simplified</text><text fill="#000000" font-family="sans-serif" font-size="13" lengthAdjust="spacing" textLength="4" x="321" y="255.418">:</text><text fill="#000000" font-family="sans-serif" font-size="13" lengthAdjust="spacing" textLength="12" x="12" y="270.7285">&#160;&#160;&#160;</text><a href="Examples.BetterDesign.CarExample-diagram-simplified.svg" target="_top" title="Examples.BetterDesign.CarExample-diagram-simplified.svg" xlink:actuate="onRequest" xlink:href="Examples.BetterDesign.CarExample-diagram-simplified.svg" xlink:show="new" xlink:title="Examples.BetterDesign.CarExample-diagram-simplified.svg" xlink:type="simple"><text fill="#0000FF" font-family="sans-serif" font-size="13" lengthAdjust="spacing" text-decoration="underline" textLength="378" x="24" y="270.7285">Examples.BetterDesign.CarExample-diagram-simplified.svg</text></a><ellipse cx="17.5" cy="281.2813" fill="#000000" rx="2.5" ry="2.5" style="stroke:#000000;stroke-width:0.0;"/><text fill="#000000" font-family="sans-serif" font-size="13" lengthAdjust="spacing" textLength="78" x="24" y="286.0391">Full diagram</text><text fill="#000000" font-family="sans-serif" font-size="13" font-weight="bold" lengthAdjust="spacing" textLength="55" x="106" y="286.0391">detailed</text><text fill="#000000" font-family="sans-serif" font-size="13" lengthAdjust="spacing" textLength="23" x="165" y="286.0391">and</text><text fill="#000000" font-family="sans-serif" font-size="13" font-weight="bold" lengthAdjust="spacing" textLength="166" x="192" y="286.0391">grouped per namespace</text><text fill="#000000" font-family="sans-serif" font-size="13" lengthAdjust="spacing" textLength="4" x="358" y="286.0391">:</text><text fill="#000000" font-family="sans-serif" font-size="13" lengthAdjust="spacing" textLength="12" x="12" y="301.3496">&#160;&#160;&#160;</text><a href="full-diagram-detailed-grouped-per-namespace.svg" target="_top" title="full-diagram-detailed-grouped-per-namespace.svg" xlink:actuate="onRequest" xlink:href="full-diagram-detailed-grouped-per-namespace.svg" xlink:show="new" xlink:title="full-diagram-detailed-grouped-per-namespace.svg" xlink:type="simple"><text fill="#0000FF" font-family="sans-serif" font-size="13" lengthAdjust="spacing" text-decoration="underline" textLength="330" x="24" y="301.3496">full-diagram-detailed-grouped-per-namespace.svg</text></a><ellipse cx="17.5" cy="311.9023" fill="#000000" rx="2.5" ry="2.5" style="stroke:#000000;stroke-width:0.0;"/><text fill="#000000" font-family="sans-serif" font-size="13" lengthAdjust="spacing" textLength="41" x="24" y="316.6602">Home:</text><text fill="#000000" font-family="sans-serif" font-size="13" lengthAdjust="spacing" textLength="12" x="12" y="331.9707">&#160;&#160;&#160;</text><a href="index.html" target="_top" title="index.html" xlink:actuate="onRequest" xlink:href="index.html" xlink:show="new" xlink:title="index.html" xlink:type="simple"><text fill="#0000FF" font-family="sans-serif" font-size="13" lengthAdjust="spacing" text-decoration="underline" textLength="68" x="24" y="331.9707">index.html</text></a><line style="stroke:#181818;stroke-width:1.0;" x1="7" x2="177.5" y1="235.1943" y2="235.1943"/><line style="stroke:#181818;stroke-width:1.0;" x1="7" x2="177.5" y1="237.1943" y2="237.1943"/><text fill="#000000" font-family="sans-serif" font-size="13" lengthAdjust="spacing" textLength="74" x="177.5" y="239.6074">Select other</text><line style="stroke:#181818;stroke-width:1.0;" x1="251.5" x2="422" y1="235.1943" y2="235.1943"/><line style="stroke:#181818;stroke-width:1.0;" x1="251.5" x2="422" y1="237.1943" y2="237.1943"/></g><!--link DBCar to Driver--><g id="link_DBCar_Driver"><path codeLine="54" d="M1709.61,586.0547 C1477.16,586.0547 1235.5,586.0547 1235.5,586.0547 C1235.5,586.0547 1235.5,653.8647 1235.5,653.8647 " fill="none" id="DBCar-to-Driver" style="stroke:#6060BB;stroke-width:1.0;stroke-dasharray:7.0,7.0;"/><polygon fill="#6060BB" points="1235.5,658.8647,1239.5,649.8647,1235.5,653.8647,1231.5,649.8647,1235.5,658.8647" style="stroke:#6060BB;stroke-width:1.0;"/><text fill="#000000" font-family="sans-serif" font-size="13" lengthAdjust="spacing" textLength="29" x="1408.65" y="582.623">uses</text></g><!--reverse link Driver to DBCar--><g id="link_Driver_DBCar"><path codeLine="72" d="M1299.25,645.6647 C1299.25,645.6647 1299.25,589.0547 1299.25,589.0547 C1299.25,589.0547 1503.51,589.0547 1709.77,589.0547 " fill="none" id="Driver-backto-DBCar" style="stroke:#10BB10;stroke-width:1.0;"/><polygon fill="#10BB10" points="1299.25,658.6647,1303.25,652.6647,1299.25,646.6647,1295.25,652.6647,1299.25,658.6647" style="stroke:#10BB10;stroke-width:1.0;"/></g><!--link DBCar to Car--><g id="link_DBCar_Car"><path codeLine="55" d="M1709.61,502.0547 C1709.61,502.0547 1508.92,502.0547 1508.92,502.0547 " fill="none" id="DBCar-to-Car" style="stroke:#6060BB;stroke-width:1.0;stroke-dasharray:7.0,7.0;"/><polygon fill="#6060BB" points="1503.92,502.0547,1512.92,506.0547,1508.92,502.0547,1512.92,498.0547,1503.92,502.0547" style="stroke:#6060BB;stroke-width:1.0;"/><text fill="#000000" font-family="sans-serif" font-size="13" lengthAdjust="spacing" textLength="29" x="1579.27" y="498.623">uses</text></g><!--link DBCar to Seats--><g id="link_DBCar_Seats"><path codeLine="56" d="M1709.54,593.0547 C1626.42,593.0547 1564.33,593.0547 1564.33,593.0547 C1564.33,593.0547 1564.33,653.6047 1564.33,653.6047 " fill="none" id="DBCar-to-Seats" style="stroke:#6060BB;stroke-width:1.0;stroke-dasharray:7.0,7.0;"/><polygon fill="#6060BB" points="1564.33,658.6047,1568.33,649.6047,1564.33,653.6047,1560.33,649.6047,1564.33,658.6047" style="stroke:#6060BB;stroke-width:1.0;"/><text fill="#000000" font-family="sans-serif" font-size="13" lengthAdjust="spacing" textLength="29" x="1576.66" y="589.623">uses</text></g><!--reverse link Seats to DBCar--><g id="link_Seats_DBCar"><path codeLine="71" d="M1608.67,645.6447 C1608.67,645.6447 1608.67,597.0547 1608.67,597.0547 C1608.67,597.0547 1650.1,597.0547 1709.67,597.0547 " fill="none" id="Seats-backto-DBCar" style="stroke:#10BB10;stroke-width:1.0;"/><polygon fill="#10BB10" points="1608.67,658.6447,1612.67,652.6447,1608.67,646.6447,1604.67,652.6447,1608.67,658.6447" style="stroke:#10BB10;stroke-width:1.0;"/></g><!--link DBCar to Doors--><g id="link_DBCar_Doors"><path codeLine="57" d="M1709.74,571.0547 C1281.25,571.0547 681,571.0547 681,571.0547 C681,571.0547 681,653.5847 681,653.5847 " fill="none" id="DBCar-to-Doors" style="stroke:#6060BB;stroke-width:1.0;stroke-dasharray:7.0,7.0;"/><polygon fill="#6060BB" points="681,658.5847,685,649.5847,681,653.5847,677,649.5847,681,658.5847" style="stroke:#6060BB;stroke-width:1.0;"/><text fill="#000000" font-family="sans-serif" font-size="13" lengthAdjust="spacing" textLength="29" x="1124.11" y="584.623">uses</text></g><!--reverse link Doors to DBCar--><g id="link_Doors_DBCar"><path codeLine="73" d="M732,645.8047 C732,645.8047 732,575.0547 732,575.0547 C732,575.0547 1297.6,575.0547 1709.93,575.0547 " fill="none" id="Doors-backto-DBCar" style="stroke:#10BB10;stroke-width:1.0;"/><polygon fill="#10BB10" points="732,658.8047,736,652.8047,732,646.8047,728,652.8047,732,658.8047" style="stroke:#10BB10;stroke-width:1.0;"/></g><!--link DBCar to Wheels--><g id="link_DBCar_Wheels"><path codeLine="58" d="M1709.66,582.0547 C1404.84,582.0547 1046.88,582.0547 1046.88,582.0547 C1046.88,582.0547 1046.88,653.7747 1046.88,653.7747 " fill="none" id="DBCar-to-Wheels" style="stroke:#6060BB;stroke-width:1.0;stroke-dasharray:7.0,7.0;"/><polygon fill="#6060BB" points="1046.88,658.7747,1050.88,649.7747,1046.88,653.7747,1042.88,649.7747,1046.88,658.7747" style="stroke:#6060BB;stroke-width:1.0;"/><text fill="#000000" font-family="sans-serif" font-size="13" lengthAdjust="spacing" textLength="29" x="1312.41" y="595.623">uses</text></g><!--reverse link Wheels to DBCar--><g id="link_Wheels_DBCar"><path codeLine="70" d="M1020.75,645.7647 C1020.75,645.7647 1020.75,578.0547 1020.75,578.0547 C1020.75,578.0547 1395.47,578.0547 1709.82,578.0547 " fill="none" id="Wheels-backto-DBCar" style="stroke:#10BB10;stroke-width:1.0;"/><polygon fill="#10BB10" points="1020.75,658.7647,1024.75,652.7647,1020.75,646.7647,1016.75,652.7647,1020.75,658.7647" style="stroke:#10BB10;stroke-width:1.0;"/></g><!--reverse link Vehicle to DBCar--><g id="link_Vehicle_DBCar"><path codeLine="61" d="M1511.25,282.9647 C1511.25,282.9647 1511.25,421.0547 1511.25,421.0547 C1511.25,421.0547 1599.53,421.0547 1709.53,421.0547 " fill="none" id="Vehicle-backto-DBCar" style="stroke:#10BB10;stroke-width:1.0;"/><polygon fill="#10BB10" points="1511.25,269.9647,1507.25,275.9647,1511.25,281.9647,1515.25,275.9647,1511.25,269.9647" style="stroke:#10BB10;stroke-width:1.0;"/></g><!--reverse link Vehicle to Car--><g id="link_Vehicle_Car"><path codeLine="62" d="M1383.75,289.8547 C1383.75,289.8547 1383.75,436.6947 1383.75,436.6947 " fill="none" id="Vehicle-backto-Car" style="stroke:#FF0000;stroke-width:1.0;"/><polygon fill="none" points="1376.75,289.8547,1383.75,269.8547,1390.75,289.8547,1376.75,289.8547" style="stroke:#FF0000;stroke-width:1.0;"/></g><!--reverse link Car to Wheels--><g id="link_Car_Wheels"><path codeLine="63" d="M994.62,581.3247 C994.62,581.3247 994.62,659.8447 994.62,659.8447 " fill="none" id="Car-backto-Wheels" style="stroke:#10BB10;stroke-width:1.0;"/><polygon fill="#10BB10" points="994.62,568.3247,990.62,574.3247,994.62,580.3247,998.62,574.3247,994.62,568.3247" style="stroke:#10BB10;stroke-width:1.0;"/></g><!--reverse link Car to Seats--><g id="link_Car_Seats"><path codeLine="64" d="M1450.25,581.3247 C1450.25,581.3247 1450.25,659.8447 1450.25,659.8447 " fill="none" id="Car-backto-Seats" style="stroke:#10BB10;stroke-width:1.0;"/><polygon fill="#10BB10" points="1450.25,568.3247,1446.25,574.3247,1450.25,580.3247,1454.25,574.3247,1450.25,568.3247" style="stroke:#10BB10;stroke-width:1.0;"/></g><!--reverse link Car to Driver--><g id="link_Car_Driver"><path codeLine="65" d="M1171.75,581.3247 C1171.75,581.3247 1171.75,659.8447 1171.75,659.8447 " fill="none" id="Car-backto-Driver" style="stroke:#10BB10;stroke-width:1.0;"/><polygon fill="#10BB10" points="1171.75,568.3247,1167.75,574.3247,1171.75,580.3247,1175.75,574.3247,1171.75,568.3247" style="stroke:#10BB10;stroke-width:1.0;"/></g><!--reverse link Car to Doors--><g id="link_Car_Doors"><path codeLine="66" d="M954,481.0547 C954,481.0547 579,481.0547 579,481.0547 C579,481.0547 579,596.3047 579,659.7847 " fill="none" id="Car-backto-Doors" style="stroke:#10BB10;stroke-width:1.0;"/><polygon fill="#10BB10" points="967,481.0547,961,477.0547,955,481.0547,961,485.0547,967,481.0547" style="stroke:#10BB10;stroke-width:1.0;"/></g><!--link Car to Doors--><g id="link_Car_Doors"><path codeLine="67" d="M968.16,524.0547 C805.95,524.0547 630,524.0547 630,524.0547 C630,524.0547 630,653.6147 630,653.6147 " fill="none" id="Car-to-Doors" style="stroke:#6060BB;stroke-width:1.0;stroke-dasharray:7.0,7.0;"/><polygon fill="#6060BB" points="630,658.6147,634,649.6147,630,653.6147,626,649.6147,630,658.6147" style="stroke:#6060BB;stroke-width:1.0;"/><text fill="#000000" font-family="sans-serif" font-size="13" lengthAdjust="spacing" textLength="29" x="704.3" y="520.623">uses</text></g><!--SRC=[tLXDRnen4BtpAqRaa7PRIDf33YlWG2ZggQgKgbK57DpT0QmOUsMRVBNvxntlBh2KhtN3LcboY9Rip9ldvpSU77FDPS8qcu7W4krzWg2qdQgQvLOWj0n_mF3zUUV37Pib0aspYzQYxg7X4zcyP3f_0K4GesLSO1m4q3fpUPsQL1QX_btDDJ2Dm2GJzmzSJiAXz0CSog5ij_jSK6YxFPG42H6J40aUNGDoEqKDz0iacw59M8I6SfIc06PCzbSOq-Tn2a4KNFIC6CNkWUkXZBd6o4AC2SeOPSI9MrRs2eLxermHLpo04kGDfmS-vYbzMYy030Q7yXenPnFQZCOgksbk9gEHAzgV2m5vmBewRXL1CD5gdc0C2Kcnb2485hN7bBx4NoGtygG69JMMIQkQ7zKC5m2SPBbhJkrCZ4PrO0RwGZ5BKdwYNQv1BlNs9VQwjCYT0gHlDxXbB01-4ZR06vYWfJ3JLxgd-GtgLwsnaXOY9PHkro_EBywxtNedJj-5XvHsZv-PjgQPWRNE75ZdTGXhgDskmwrthgppJ1wKyvadCRD8EDk9HAmSYxTWa5dZmVZAnHyWVADuN17TM2djGxVduhtf6XI28Bwe9zEjn12RX3DxzhMQxRNdiOcKWTiWcY4xhhlz47eWFuNSbhMkY7wR8Whpd8XcZ3OLTIP_Le8Mkcv5CpqwdXFDubb6D1zJglicIG7aAqvvHCFsy5nTXEwQCIVtTDgestpKEAtY7-6-KLPhjvUXXcHD4EFjUXhtAkJIUXueYmtRZNm0S5KonVDITj-mNWyhh-XjsZWX-BPQGMSt9i7JMwiTpUO0-9v9Au1qxe5d2nQT4cdSDuB_nM1zpCcKDq9nBqgQefXIrY1UJRUO3iWdKtkCxlXxOLAJUUcIPhnqMRBUyT8bItdnmhYczTF5PVn7ifpINRJK3rGMUmgNwRPe57H3LT80tbdD8alNup5z-rdTZqEAtQfLRTz5jZauoGGQDJl-JG4Xp0qQE6w9Yc2BfroL5RA-gB92FiAM9OvWaaATMkclgq5ZSFAEsByx7pNs_hkaF6Jh5s5gZ7S2hkjHA-Md4Zpto5nfZSoEbPR8UxNQ6gddovKuJbiTr_FBCZLlUnon2VvmHHN8kHagWKutg3JoRm00]--></g></svg>