<?xml version="1.0" encoding="us-ascii" standalone="no"?><svg xmlns="http://www.w3.org/2000/svg" xmlns:xlink="http://www.w3.org/1999/xlink" contentStyleType="text/css" height="615px" preserveAspectRatio="none" style="width:2153px;height:615px;background:#FFFFFF;" version="1.1" viewBox="0 0 2153 615" width="2153px" zoomAndPan="magnify"><defs/><g><text fill="#000000" font-family="sans-serif" font-size="20" font-weight="bold" lengthAdjust="spacing" textLength="644" x="551.75" y="29.3359">Examples.BadDesign.BasicExample.SideExample.SideTestEnum</text><text fill="#000000" font-family="sans-serif" font-size="20" font-weight="bold" lengthAdjust="spacing" textLength="84" x="1202.75" y="29.3359">detailed</text><text fill="#000000" font-family="sans-serif" font-size="20" font-weight="bold" lengthAdjust="spacing" textLength="38" x="1293.75" y="29.3359">and</text><text fill="#000000" font-family="sans-serif" font-size="20" font-weight="bold" lengthAdjust="spacing" textLength="249" x="1338.75" y="29.3359">grouped per namespace</text><!--cluster Examples--><g id="cluster_Examples"><a href="Examples-diagram-detailed-grouped-per-namespace.svg" target="_top" title="Examples-diagram-detailed-grouped-per-namespace.svg" xlink:actuate="onRequest" xlink:href="Examples-diagram-detailed-grouped-per-namespace.svg" xlink:show="new" xlink:title="Examples-diagram-detailed-grouped-per-namespace.svg" xlink:type="simple"><path d="M780,50.5547 L849,50.5547 A3.75,3.75 0 0 1 851.5,53.0547 L858.5,73.043 L2144,73.043 A2.5,2.5 0 0 1 2146.5,75.543 L2146.5,605.5547 A2.5,2.5 0 0 1 2144,608.0547 L780,608.0547 A2.5,2.5 0 0 1 777.5,605.5547 L777.5,53.0547 A2.5,2.5 0 0 1 780,50.5547 " fill="none" style="stroke:#000000;stroke-width:1.5;"/><line style="stroke:#000000;stroke-width:1.5;" x1="777.5" x2="858.5" y1="73.043" y2="73.043"/><text fill="#000000" font-family="sans-serif" font-size="14" font-weight="bold" lengthAdjust="spacing" textLength="68" x="781.5" y="66.0898">Examples</text></a></g><!--cluster BadDesign--><g id="cluster_BadDesign"><a href="Examples.BadDesign-diagram-detailed-grouped-per-namespace.svg" target="_top" title="Examples.BadDesign-diagram-detailed-grouped-per-namespace.svg" xlink:actuate="onRequest" xlink:href="Examples.BadDesign-diagram-detailed-grouped-per-namespace.svg" xlink:show="new" xlink:title="Examples.BadDesign-diagram-detailed-grouped-per-namespace.svg" xlink:type="simple"><path d="M804,93.5547 L881,93.5547 A3.75,3.75 0 0 1 883.5,96.0547 L890.5,116.043 L2120,116.043 A2.5,2.5 0 0 1 2122.5,118.543 L2122.5,581.5547 A2.5,2.5 0 0 1 2120,584.0547 L804,584.0547 A2.5,2.5 0 0 1 801.5,581.5547 L801.5,96.0547 A2.5,2.5 0 0 1 804,93.5547 " fill="none" style="stroke:#000000;stroke-width:1.5;"/><line style="stroke:#000000;stroke-width:1.5;" x1="801.5" x2="890.5" y1="116.043" y2="116.043"/><text fill="#000000" font-family="sans-serif" font-size="14" font-weight="bold" lengthAdjust="spacing" textLength="76" x="805.5" y="109.0898">BadDesign</text></a></g><!--cluster BasicExample--><g id="cluster_BasicExample"><a href="Examples.BadDesign.BasicExample-diagram-detailed-grouped-per-namespace.svg" target="_top" title="Examples.BadDesign.BasicExample-diagram-detailed-grouped-per-namespace.svg" xlink:actuate="onRequest" xlink:href="Examples.BadDesign.BasicExample-diagram-detailed-grouped-per-namespace.svg" xlink:show="new" xlink:title="Examples.BadDesign.BasicExample-diagram-detailed-grouped-per-namespace.svg" xlink:type="simple"><path d="M828,136.5547 L926,136.5547 A3.75,3.75 0 0 1 928.5,139.0547 L935.5,159.043 L2096,159.043 A2.5,2.5 0 0 1 2098.5,161.543 L2098.5,557.5547 A2.5,2.5 0 0 1 2096,560.0547 L828,560.0547 A2.5,2.5 0 0 1 825.5,557.5547 L825.5,139.0547 A2.5,2.5 0 0 1 828,136.5547 " fill="none" style="stroke:#000000;stroke-width:1.5;"/><line style="stroke:#000000;stroke-width:1.5;" x1="825.5" x2="935.5" y1="159.043" y2="159.043"/><text fill="#000000" font-family="sans-serif" font-size="14" font-weight="bold" lengthAdjust="spacing" textLength="97" x="829.5" y="152.0898">BasicExample</text></a></g><!--cluster SideExample--><g id="cluster_SideExample"><a href="Examples.BadDesign.BasicExample.SideExample-diagram-detailed-grouped-per-namespace.svg" target="_top" title="Examples.BadDesign.BasicExample.SideExample-diagram-detailed-grouped-per-namespace.svg" xlink:actuate="onRequest" xlink:href="Examples.BadDesign.BasicExample.SideExample-diagram-detailed-grouped-per-namespace.svg" xlink:show="new" xlink:title="Examples.BadDesign.BasicExample.SideExample-diagram-detailed-grouped-per-namespace.svg" xlink:type="simple"><path d="M1447,179.5547 L1538,179.5547 A3.75,3.75 0 0 1 1540.5,182.0547 L1547.5,202.043 L2072,202.043 A2.5,2.5 0 0 1 2074.5,204.543 L2074.5,533.5547 A2.5,2.5 0 0 1 2072,536.0547 L1447,536.0547 A2.5,2.5 0 0 1 1444.5,533.5547 L1444.5,182.0547 A2.5,2.5 0 0 1 1447,179.5547 " fill="none" style="stroke:#000000;stroke-width:1.5;"/><line style="stroke:#000000;stroke-width:1.5;" x1="1444.5" x2="1547.5" y1="202.043" y2="202.043"/><text fill="#000000" font-family="sans-serif" font-size="14" font-weight="bold" lengthAdjust="spacing" textLength="90" x="1448.5" y="195.0898">SideExample</text></a></g><!--class Useless--><a href="Examples.BadDesign.BasicExample.Useless-diagram-detailed-grouped-per-namespace.svg" target="_top" title="Examples.BadDesign.BasicExample.Useless-diagram-detailed-grouped-per-namespace.svg" xlink:actuate="onRequest" xlink:href="Examples.BadDesign.BasicExample.Useless-diagram-detailed-grouped-per-namespace.svg" xlink:show="new" xlink:title="Examples.BadDesign.BasicExample.Useless-diagram-detailed-grouped-per-namespace.svg" xlink:type="simple"><g id="elem_Useless"><rect codeLine="7" fill="#F1F1F1" height="80.9766" id="Useless" rx="2.5" ry="2.5" style="stroke:#181818;stroke-width:0.5;" width="584" x="841.5" y="214.5547"/><ellipse cx="1103.75" cy="230.5547" fill="#ADD1B2" rx="11" ry="11" style="stroke:#181818;stroke-width:1.0;"/><path d="M1106.2231,236.6978 Q1105.6421,236.9966 1105.0029,237.146 Q1104.3638,237.2954 1103.6582,237.2954 Q1101.1514,237.2954 1099.8315,235.6436 Q1098.5117,233.9917 1098.5117,230.8706 Q1098.5117,227.7412 1099.8315,226.0894 Q1101.1514,224.4375 1103.6582,224.4375 Q1104.3638,224.4375 1105.0112,224.5869 Q1105.6587,224.7363 1106.2231,225.0352 L1106.2231,227.7578 Q1105.5923,227.1768 1104.9988,226.907 Q1104.4053,226.6372 1103.7744,226.6372 Q1102.4297,226.6372 1101.7449,227.7039 Q1101.0601,228.7705 1101.0601,230.8706 Q1101.0601,232.9624 1101.7449,234.0291 Q1102.4297,235.0957 1103.7744,235.0957 Q1104.4053,235.0957 1104.9988,234.8259 Q1105.5923,234.5562 1106.2231,233.9751 Z " fill="#000000"/><text fill="#000000" font-family="sans-serif" font-size="14" lengthAdjust="spacing" textLength="51" x="1124.25" y="235.8457">Useless</text><line style="stroke:#181818;stroke-width:0.5;" x1="842.5" x2="1424.5" y1="246.5547" y2="246.5547"/><ellipse cx="852.5" cy="260.2988" fill="#84BE84" rx="3" ry="3" style="stroke:#038048;stroke-width:1.0;"/><text fill="#000000" font-family="sans-serif" font-size="14" lengthAdjust="spacing" textLength="55" x="861.5" y="264.0898">useless(</text><text fill="#000000" font-family="sans-serif" font-size="14" lengthAdjust="spacing" textLength="9" x="916.5" y="264.0898">):</text><text fill="#BB6060" font-family="sans-serif" font-size="14" lengthAdjust="spacing" textLength="29" x="929.5" y="264.0898">void</text><rect fill="none" height="6" style="stroke:#C82930;stroke-width:1.0;" width="6" x="849.5" y="273.7871"/><text fill="#909090" font-family="sans-serif" font-size="14" lengthAdjust="spacing" textLength="558" x="861.5" y="280.5781">useless.testEnum: Examples.BadDesign.BasicExample.SideExample.SideTestEnum</text><line style="stroke:#181818;stroke-width:1.0;" x1="842.5" x2="1424.5" y1="287.5313" y2="287.5313"/></g></a><!--class SideTestEnum--><a href="Examples.BadDesign.BasicExample.SideExample.SideTestEnum-diagram-detailed-grouped-per-namespace.svg" target="_top" title="Examples.BadDesign.BasicExample.SideExample.SideTestEnum-diagram-detailed-grouped-per-namespace.svg" xlink:actuate="onRequest" xlink:href="Examples.BadDesign.BasicExample.SideExample.SideTestEnum-diagram-detailed-grouped-per-namespace.svg" xlink:show="new" xlink:title="Examples.BadDesign.BasicExample.SideExample.SideTestEnum-diagram-detailed-grouped-per-namespace.svg" xlink:type="simple"><g id="elem_SideTestEnum"><rect codeLine="24" fill="#FFFF00" height="80.9766" id="SideTestEnum" rx="2.5" ry="2.5" style="stroke:#181818;stroke-width:0.5;" width="302" x="1534.5" y="439.0547"/><ellipse cx="1632.75" cy="455.0547" fill="#ADD1B2" rx="11" ry="11" style="stroke:#181818;stroke-width:1.0;"/><path d="M1635.2231,461.1978 Q1634.6421,461.4966 1634.0029,461.646 Q1633.3638,461.7954 1632.6582,461.7954 Q1630.1514,461.7954 1628.8315,460.1436 Q1627.5117,458.4917 1627.5117,455.3706 Q1627.5117,452.2412 1628.8315,450.5894 Q1630.1514,448.9375 1632.6582,448.9375 Q1633.3638,448.9375 1634.0112,449.0869 Q1634.6587,449.2363 1635.2231,449.5352 L1635.2231,452.2578 Q1634.5923,451.6768 1633.9988,451.407 Q1633.4053,451.1372 1632.7744,451.1372 Q1631.4297,451.1372 1630.7449,452.2039 Q1630.0601,453.2705 1630.0601,455.3706 Q1630.0601,457.4624 1630.7449,458.5291 Q1631.4297,459.5957 1632.7744,459.5957 Q1633.4053,459.5957 1633.9988,459.3259 Q1634.5923,459.0562 1635.2231,458.4751 Z " fill="#000000"/><text fill="#000000" font-family="sans-serif" font-size="14" lengthAdjust="spacing" textLength="97" x="1653.25" y="460.3457">SideTestEnum</text><line style="stroke:#181818;stroke-width:0.5;" x1="1535.5" x2="1835.5" y1="471.0547" y2="471.0547"/><ellipse cx="1545.5" cy="484.7988" fill="none" rx="3" ry="3" style="stroke:#038048;stroke-width:1.0;"/><text fill="#000000" font-family="sans-serif" font-size="14" lengthAdjust="spacing" textLength="276" x="1554.5" y="488.5898">TestEnumValue1: EnumTypePlaceHolder</text><ellipse cx="1545.5" cy="501.2871" fill="none" rx="3" ry="3" style="stroke:#038048;stroke-width:1.0;"/><text fill="#000000" font-family="sans-serif" font-size="14" lengthAdjust="spacing" textLength="276" x="1554.5" y="505.0781">TestEnumValue2: EnumTypePlaceHolder</text><line style="stroke:#181818;stroke-width:1.0;" x1="1535.5" x2="1835.5" y1="512.0313" y2="512.0313"/><line style="stroke:#181818;stroke-width:1.0;" x1="1535.5" x2="1835.5" y1="514.0313" y2="514.0313"/></g></a><!--class SideExample--><a href="Examples.BadDesign.BasicExample.SideExample.SideExample-diagram-detailed-grouped-per-namespace.svg" target="_top" title="Examples.BadDesign.BasicExample.SideExample.SideExample-diagram-detailed-grouped-per-namespace.svg" xlink:actuate="onRequest" xlink:href="Examples.BadDesign.BasicExample.SideExample.SideExample-diagram-detailed-grouped-per-namespace.svg" xlink:show="new" xlink:title="Examples.BadDesign.BasicExample.SideExample.SideExample-diagram-detailed-grouped-per-namespace.svg" xlink:type="simple"><g id="elem_SideExample"><rect codeLine="29" fill="#F1F1F1" height="80.9766" id="SideExample" rx="2.5" ry="2.5" style="stroke:#181818;stroke-width:0.5;" width="598" x="1460.5" y="214.5547"/><ellipse cx="1711.25" cy="230.5547" fill="#ADD1B2" rx="11" ry="11" style="stroke:#181818;stroke-width:1.0;"/><path d="M1713.7231,236.6978 Q1713.1421,236.9966 1712.5029,237.146 Q1711.8638,237.2954 1711.1582,237.2954 Q1708.6514,237.2954 1707.3315,235.6436 Q1706.0117,233.9917 1706.0117,230.8706 Q1706.0117,227.7412 1707.3315,226.0894 Q1708.6514,224.4375 1711.1582,224.4375 Q1711.8638,224.4375 1712.5112,224.5869 Q1713.1587,224.7363 1713.7231,225.0352 L1713.7231,227.7578 Q1713.0923,227.1768 1712.4988,226.907 Q1711.9053,226.6372 1711.2744,226.6372 Q1709.9297,226.6372 1709.2449,227.7039 Q1708.5601,228.7705 1708.5601,230.8706 Q1708.5601,232.9624 1709.2449,234.0291 Q1709.9297,235.0957 1711.2744,235.0957 Q1711.9053,235.0957 1712.4988,234.8259 Q1713.0923,234.5562 1713.7231,233.9751 Z " fill="#000000"/><text fill="#000000" font-family="sans-serif" font-size="14" lengthAdjust="spacing" textLength="88" x="1731.75" y="235.8457">SideExample</text><line style="stroke:#181818;stroke-width:0.5;" x1="1461.5" x2="2057.5" y1="246.5547" y2="246.5547"/><line style="stroke:#181818;stroke-width:0.5;" x1="1461.5" x2="2057.5" y1="254.5547" y2="254.5547"/><ellipse cx="1471.5" cy="268.2988" fill="#84BE84" rx="3" ry="3" style="stroke:#038048;stroke-width:1.0;"/><text fill="#000000" font-family="sans-serif" font-size="14" lengthAdjust="spacing" textLength="30" x="1480.5" y="272.0898">test(</text><text fill="#6060BB" font-family="sans-serif" font-size="14" lengthAdjust="spacing" textLength="500" x="1510.5" y="272.0898">testEnum:Examples.BadDesign.BasicExample.SideExample.SideTestEnum</text><text fill="#000000" font-family="sans-serif" font-size="14" lengthAdjust="spacing" textLength="9" x="2010.5" y="272.0898">):</text><text fill="#BB6060" font-family="sans-serif" font-size="14" lengthAdjust="spacing" textLength="29" x="2023.5" y="272.0898">void</text><ellipse cx="1471.5" cy="284.7871" fill="#84BE84" rx="3" ry="3" style="stroke:#038048;stroke-width:1.0;"/><text fill="#000000" font-family="sans-serif" font-size="14" lengthAdjust="spacing" textLength="119" x="1480.5" y="288.5781">testNoParameter(</text><text fill="#000000" font-family="sans-serif" font-size="14" lengthAdjust="spacing" textLength="9" x="1599.5" y="288.5781">):</text><text fill="#BB6060" font-family="sans-serif" font-size="14" lengthAdjust="spacing" textLength="29" x="1612.5" y="288.5781">void</text></g></a><g id="elem_FloatingNote"><path d="M6,131.0547 L6,378.7129 L761,378.7129 L761,141.0547 L751,131.0547 L6,131.0547 " fill="#FEFFDD" style="stroke:#181818;stroke-width:0.5;"/><path d="M751,131.0547 L751,141.0547 L761,141.0547 L751,131.0547 " fill="#FEFFDD" style="stroke:#181818;stroke-width:1.0;"/><text fill="#000000" font-family="sans-serif" font-size="13" lengthAdjust="spacing" textLength="120" x="12" y="148.623">Your are analyzing:</text><text fill="#000000" font-family="sans-serif" font-size="13" lengthAdjust="spacing" textLength="394" x="12" y="163.9336">Examples.BadDesign.BasicExample.SideExample.SideTestEnum</text><text fill="#000000" font-family="sans-serif" font-size="13" font-weight="bold" lengthAdjust="spacing" textLength="55" x="410" y="163.9336">detailed</text><text fill="#000000" font-family="sans-serif" font-size="13" lengthAdjust="spacing" textLength="23" x="469" y="163.9336">and</text><text fill="#000000" font-family="sans-serif" font-size="13" font-weight="bold" lengthAdjust="spacing" textLength="166" x="496" y="163.9336">grouped per namespace</text><text fill="#000000" font-family="sans-serif" font-size="13" lengthAdjust="spacing" textLength="4" x="12" y="179.2441">&#160;</text><text fill="#000000" font-family="sans-serif" font-size="13" lengthAdjust="spacing" textLength="229" x="12" y="209.8652">You can click either the namespaces</text><text fill="#000000" font-family="sans-serif" font-size="13" lengthAdjust="spacing" textLength="266" x="12" y="225.1758">or class names for filtering them and their</text><text fill="#000000" font-family="sans-serif" font-size="13" lengthAdjust="spacing" textLength="130" x="12" y="240.4863">direct dependencies.</text><text fill="#000000" font-family="sans-serif" font-size="13" lengthAdjust="spacing" textLength="4" x="12" y="255.7969">&#160;</text><line style="stroke:#181818;stroke-width:1.0;" x1="7" x2="367.5" y1="189.6416" y2="189.6416"/><line style="stroke:#181818;stroke-width:1.0;" x1="7" x2="367.5" y1="191.6416" y2="191.6416"/><text fill="#000000" font-family="sans-serif" font-size="13" lengthAdjust="spacing" textLength="32" x="367.5" y="194.0547">Filter</text><line style="stroke:#181818;stroke-width:1.0;" x1="399.5" x2="760" y1="189.6416" y2="189.6416"/><line style="stroke:#181818;stroke-width:1.0;" x1="399.5" x2="760" y1="191.6416" y2="191.6416"/><ellipse cx="17.5" cy="285.6602" fill="#000000" rx="2.5" ry="2.5" style="stroke:#000000;stroke-width:0.0;"/><text fill="#000000" font-family="sans-serif" font-size="13" lengthAdjust="spacing" textLength="394" x="24" y="290.418">Examples.BadDesign.BasicExample.SideExample.SideTestEnum</text><text fill="#000000" font-family="sans-serif" font-size="13" font-weight="bold" lengthAdjust="spacing" textLength="67" x="422" y="290.418">simplified</text><text fill="#000000" font-family="sans-serif" font-size="13" lengthAdjust="spacing" textLength="23" x="493" y="290.418">and</text><text fill="#000000" font-family="sans-serif" font-size="13" font-weight="bold" lengthAdjust="spacing" textLength="166" x="520" y="290.418">grouped per namespace</text><text fill="#000000" font-family="sans-serif" font-size="13" lengthAdjust="spacing" textLength="4" x="686" y="290.418">:</text><text fill="#000000" font-family="sans-serif" font-size="13" lengthAdjust="spacing" textLength="12" x="12" y="305.7285">&#160;&#160;&#160;</text><a href="Examples.BadDesign.BasicExample.SideExample.SideTestEnum-diagram-simplified-grouped-per-namespace.svg" target="_top" title="Examples.BadDesign.BasicExample.SideExample.SideTestEnum-diagram-simplified-grouped-per-namespace.svg" xlink:actuate="onRequest" xlink:href="Examples.BadDesign.BasicExample.SideExample.SideTestEnum-diagram-simplified-grouped-per-namespace.svg" xlink:show="new" xlink:title="Examples.BadDesign.BasicExample.SideExample.SideTestEnum-diagram-simplified-grouped-per-namespace.svg" xlink:type="simple"><text fill="#0000FF" font-family="sans-serif" font-size="13" lengthAdjust="spacing" text-decoration="underline" textLength="716" x="24" y="305.7285">Examples.BadDesign.BasicExample.SideExample.SideTestEnum-diagram-simplified-grouped-per-namespace.svg</text></a><ellipse cx="17.5" cy="316.2813" fill="#000000" rx="2.5" ry="2.5" style="stroke:#000000;stroke-width:0.0;"/><text fill="#000000" font-family="sans-serif" font-size="13" lengthAdjust="spacing" textLength="78" x="24" y="321.0391">Full diagram</text><text fill="#000000" font-family="sans-serif" font-size="13" font-weight="bold" lengthAdjust="spacing" textLength="55" x="106" y="321.0391">detailed</text><text fill="#000000" font-family="sans-serif" font-size="13" lengthAdjust="spacing" textLength="23" x="165" y="321.0391">and</text><text fill="#000000" font-family="sans-serif" font-size="13" font-weight="bold" lengthAdjust="spacing" textLength="166" x="192" y="321.0391">grouped per namespace</text><text fill="#000000" font-family="sans-serif" font-size="13" lengthAdjust="spacing" textLength="4" x="358" y="321.0391">:</text><text fill="#000000" font-family="sans-serif" font-size="13" lengthAdjust="spacing" textLength="12" x="12" y="336.3496">&#160;&#160;&#160;</text><a href="full-diagram-detailed-grouped-per-namespace.svg" target="_top" title="full-diagram-detailed-grouped-per-namespace.svg" xlink:actuate="onRequest" xlink:href="full-diagram-detailed-grouped-per-namespace.svg" xlink:show="new" xlink:title="full-diagram-detailed-grouped-per-namespace.svg" xlink:type="simple"><text fill="#0000FF" font-family="sans-serif" font-size="13" lengthAdjust="spacing" text-decoration="underline" textLength="330" x="24" y="336.3496">full-diagram-detailed-grouped-per-namespace.svg</text></a><ellipse cx="17.5" cy="346.9023" fill="#000000" rx="2.5" ry="2.5" style="stroke:#000000;stroke-width:0.0;"/><text fill="#000000" font-family="sans-serif" font-size="13" lengthAdjust="spacing" textLength="41" x="24" y="351.6602">Home:</text><text fill="#000000" font-family="sans-serif" font-size="13" lengthAdjust="spacing" textLength="12" x="12" y="366.9707">&#160;&#160;&#160;</text><a href="index.html" target="_top" title="index.html" xlink:actuate="onRequest" xlink:href="index.html" xlink:show="new" xlink:title="index.html" xlink:type="simple"><text fill="#0000FF" font-family="sans-serif" font-size="13" lengthAdjust="spacing" text-decoration="underline" textLength="68" x="24" y="366.9707">index.html</text></a><line style="stroke:#181818;stroke-width:1.0;" x1="7" x2="346.5" y1="270.1943" y2="270.1943"/><line style="stroke:#181818;stroke-width:1.0;" x1="7" x2="346.5" y1="272.1943" y2="272.1943"/><text fill="#000000" font-family="sans-serif" font-size="13" lengthAdjust="spacing" textLength="74" x="346.5" y="274.6074">Select other</text><line style="stroke:#181818;stroke-width:1.0;" x1="420.5" x2="760" y1="270.1943" y2="270.1943"/><line style="stroke:#181818;stroke-width:1.0;" x1="420.5" x2="760" y1="272.1943" y2="272.1943"/></g><!--link Useless to SideTestEnum--><g id="link_Useless_SideTestEnum"><path codeLine="48" d="M1133.5,295.8047 C1133.5,360.6347 1133.5,480.0547 1133.5,480.0547 C1133.5,480.0547 1528.3,480.0547 1528.3,480.0547 " fill="none" id="Useless-to-SideTestEnum" style="stroke:#909090;stroke-width:1.0;"/><polygon fill="#909090" points="1533.3,480.0547,1524.3,476.0547,1528.3,480.0547,1524.3,484.0547,1533.3,480.0547" style="stroke:#909090;stroke-width:1.0;"/><text fill="#000000" font-family="sans-serif" font-size="13" lengthAdjust="spacing" textLength="29" x="1208.77" y="476.623">uses</text></g><!--link SideExample to SideTestEnum--><g id="link_SideExample_SideTestEnum"><path codeLine="51" d="M1685.5,295.9747 C1685.5,295.9747 1685.5,432.9247 1685.5,432.9247 " fill="none" id="SideExample-to-SideTestEnum" style="stroke:#6060BB;stroke-width:1.0;stroke-dasharray:7.0,7.0;"/><polygon fill="#6060BB" points="1685.5,437.9247,1689.5,428.9247,1685.5,432.9247,1681.5,428.9247,1685.5,437.9247" style="stroke:#6060BB;stroke-width:1.0;"/><text fill="#000000" font-family="sans-serif" font-size="13" lengthAdjust="spacing" textLength="29" x="1655.5" y="361.013">uses</text></g><!--SRC=[xLRTRzem47_dhpZHXsvCITaUAWr17kXQzQcgr6xI1AXoamjOTUp8TlerzN_VkPWG912GPktBIeMCVUVVVVvyvexBd6cMWU0IxLEEeBITgPRbLY3q3N_6thTkTFh8iboW2OSi-O66JoMj38_zVdZ54wokhz7OKrbaqEaaQ1aNc7Gwm6H26rEjYXmJo563P1cQdCNOwVIF75ZKaieYj7-hGWFJI3fCF3rpEUsDvJjOCPPZEHYSSM5H3mPZINP0p2J4WiTtWDpEI9w-bZe6nb9f4c36p7SXfT_fwnLajvFENa5fmVLO9bnZR27176M2CkRaq1ps2eKxKGx4WNVW3HuRJhiyvTjzfiW2m6XK5on8E9jI3GLBoC131GGLb52XkPzE9iwliq88y6fxP6TXQKhg9Uf2UHlckSfmSG6do3-6Cvk9oQGDpC2PKCnIjYwe-bgbSXd_IdJsmeK_QovRndTjq9i4M4dWzXJl2qsnz8M_hNP-6gfjOtQeCY-vdodU5e0lKCprF_LJ9It4IYWzQ1ztZxl3OJlg7xdTw7CFLew7GoVGZkuLJxo8lozO5VpUTPzsv452wrkWLxjJ5t11y8huqZeyKHbHCXN_noKM7eZeW19hWVpCa0AWKl3smObGnX4RenxEDTvpLPWRKzpUbFVS24wgI_ilb4IunPXHt1mpUbett03zfrnoCyCahDozrAswqNhP8E9ztd2-20uT_s_jfg6hbRtV8rA7RNRbcuqFOmFFt4xc7ZoX4EgXDDjHq-AcNqmK-9KuWzRND7DT2j8xLo91lKdwsthfmS0hlBmfEhNILp-LAq5n5BgUh4joVIEtxixs2tikrAKRYf4ck8RUaLgy_cwjjPdlFuBnAtvi9FmctmGuf8bpfp_uPxBEHDUv6WNDeKeQm4UhMMofNbAjigNbFPBTKWcjNQUnO7GmdsWcGLIVKg7dXYxJi1DLl5PTGWj71_EMdOGDEFWN]--></g></svg>