<?xml version="1.0" encoding="us-ascii" standalone="no"?><svg xmlns="http://www.w3.org/2000/svg" xmlns:xlink="http://www.w3.org/1999/xlink" contentStyleType="text/css" height="621px" preserveAspectRatio="none" style="width:2755px;height:621px;background:#FFFFFF;" version="1.1" viewBox="0 0 2755 621" width="2755px" zoomAndPan="magnify"><defs/><g><text fill="#000000" font-family="sans-serif" font-size="20" font-weight="bold" lengthAdjust="spacing" textLength="550" x="1046.75" y="29.3359">Examples.BetterDesign.Repository.WarehouseEntities</text><text fill="#000000" font-family="sans-serif" font-size="20" font-weight="bold" lengthAdjust="spacing" textLength="84" x="1603.75" y="29.3359">detailed</text><text fill="#000000" font-family="sans-serif" font-size="20" font-weight="bold" lengthAdjust="spacing" textLength="7" x="1687.75" y="29.3359">&#160;</text><!--cluster Examples--><g id="cluster_Examples"><path d="M554,50.5547 L623,50.5547 A3.75,3.75 0 0 1 625.5,53.0547 L632.5,73.043 L2746,73.043 A2.5,2.5 0 0 1 2748.5,75.543 L2748.5,612.0547 A2.5,2.5 0 0 1 2746,614.5547 L554,614.5547 A2.5,2.5 0 0 1 551.5,612.0547 L551.5,53.0547 A2.5,2.5 0 0 1 554,50.5547 " fill="none" style="stroke:#000000;stroke-width:1.5;"/><line style="stroke:#000000;stroke-width:1.5;" x1="551.5" x2="632.5" y1="73.043" y2="73.043"/><text fill="#000000" font-family="sans-serif" font-size="14" font-weight="bold" lengthAdjust="spacing" textLength="68" x="555.5" y="66.0898">Examples</text></g><!--cluster BetterDesign--><g id="cluster_BetterDesign"><path d="M578,93.5547 L672,93.5547 A3.75,3.75 0 0 1 674.5,96.0547 L681.5,116.043 L2722,116.043 A2.5,2.5 0 0 1 2724.5,118.543 L2724.5,588.0547 A2.5,2.5 0 0 1 2722,590.5547 L578,590.5547 A2.5,2.5 0 0 1 575.5,588.0547 L575.5,96.0547 A2.5,2.5 0 0 1 578,93.5547 " fill="none" style="stroke:#000000;stroke-width:1.5;"/><line style="stroke:#000000;stroke-width:1.5;" x1="575.5" x2="681.5" y1="116.043" y2="116.043"/><text fill="#000000" font-family="sans-serif" font-size="14" font-weight="bold" lengthAdjust="spacing" textLength="93" x="579.5" y="109.0898">BetterDesign</text></g><!--cluster Repository--><g id="cluster_Repository"><path d="M1585,136.5547 L1664,136.5547 A3.75,3.75 0 0 1 1666.5,139.0547 L1673.5,159.043 L2698,159.043 A2.5,2.5 0 0 1 2700.5,161.543 L2700.5,564.0547 A2.5,2.5 0 0 1 2698,566.5547 L1585,566.5547 A2.5,2.5 0 0 1 1582.5,564.0547 L1582.5,139.0547 A2.5,2.5 0 0 1 1585,136.5547 " fill="none" style="stroke:#000000;stroke-width:1.5;"/><line style="stroke:#000000;stroke-width:1.5;" x1="1582.5" x2="1673.5" y1="159.043" y2="159.043"/><text fill="#000000" font-family="sans-serif" font-size="14" font-weight="bold" lengthAdjust="spacing" textLength="78" x="1586.5" y="152.0898">Repository</text></g><!--cluster WarehouseEntities--><g id="cluster_WarehouseEntities"><path d="M1832,443.5547 L1966,443.5547 A3.75,3.75 0 0 1 1968.5,446.0547 L1975.5,466.043 L2408,466.043 A2.5,2.5 0 0 1 2410.5,468.543 L2410.5,540.0547 A2.5,2.5 0 0 1 2408,542.5547 L1832,542.5547 A2.5,2.5 0 0 1 1829.5,540.0547 L1829.5,446.0547 A2.5,2.5 0 0 1 1832,443.5547 " fill="none" style="stroke:#000000;stroke-width:1.5;"/><line style="stroke:#000000;stroke-width:1.5;" x1="1829.5" x2="1975.5" y1="466.043" y2="466.043"/><text fill="#000000" font-family="sans-serif" font-size="14" font-weight="bold" lengthAdjust="spacing" textLength="133" x="1833.5" y="459.0898">WarehouseEntities</text></g><!--class Service--><a href="Examples.BetterDesign.Service-diagram-detailed.svg" target="_top" title="Examples.BetterDesign.Service-diagram-detailed.svg" xlink:actuate="onRequest" xlink:href="Examples.BetterDesign.Service-diagram-detailed.svg" xlink:show="new" xlink:title="Examples.BetterDesign.Service-diagram-detailed.svg" xlink:type="simple"><g id="elem_Service"><rect codeLine="4" fill="#F1F1F1" height="80.9766" id="Service" rx="2.5" ry="2.5" style="stroke:#181818;stroke-width:0.5;" width="971" x="592" y="254.0547"/><ellipse cx="1049.25" cy="270.0547" fill="#ADD1B2" rx="11" ry="11" style="stroke:#181818;stroke-width:1.0;"/><path d="M1051.7231,276.1978 Q1051.1421,276.4966 1050.5029,276.646 Q1049.8638,276.7954 1049.1582,276.7954 Q1046.6514,276.7954 1045.3315,275.1436 Q1044.0117,273.4917 1044.0117,270.3706 Q1044.0117,267.2412 1045.3315,265.5894 Q1046.6514,263.9375 1049.1582,263.9375 Q1049.8638,263.9375 1050.5112,264.0869 Q1051.1587,264.2363 1051.7231,264.5352 L1051.7231,267.2578 Q1051.0923,266.6768 1050.4988,266.407 Q1049.9053,266.1372 1049.2744,266.1372 Q1047.9297,266.1372 1047.2449,267.2039 Q1046.5601,268.2705 1046.5601,270.3706 Q1046.5601,272.4624 1047.2449,273.5291 Q1047.9297,274.5957 1049.2744,274.5957 Q1049.9053,274.5957 1050.4988,274.3259 Q1051.0923,274.0562 1051.7231,273.4751 Z " fill="#000000"/><text fill="#000000" font-family="sans-serif" font-size="14" lengthAdjust="spacing" textLength="48" x="1069.75" y="275.3457">Service</text><line style="stroke:#181818;stroke-width:0.5;" x1="593" x2="1562" y1="286.0547" y2="286.0547"/><line style="stroke:#181818;stroke-width:0.5;" x1="593" x2="1562" y1="294.0547" y2="294.0547"/><ellipse cx="603" cy="307.7988" fill="#84BE84" rx="3" ry="3" style="stroke:#038048;stroke-width:1.0;"/><text fill="#000000" font-family="sans-serif" font-size="14" lengthAdjust="spacing" textLength="108" x="612" y="311.5898">getOrderedCar(</text><text fill="#6060BB" font-family="sans-serif" font-size="14" lengthAdjust="spacing" textLength="432" x="720" y="311.5898">physicalCar:Examples.BetterDesign.Repository.CarExample.Car</text><text fill="#000000" font-family="sans-serif" font-size="14" lengthAdjust="spacing" textLength="9" x="1152" y="311.5898">):</text><text fill="#BB6060" font-family="sans-serif" font-size="14" lengthAdjust="spacing" textLength="392" x="1165" y="311.5898">Examples.BetterDesign.Repository.WarehouseEntities.Car</text><ellipse cx="603" cy="324.2871" fill="#84BE84" rx="3" ry="3" style="stroke:#038048;stroke-width:1.0;"/><text fill="#000000" font-family="sans-serif" font-size="14" lengthAdjust="spacing" textLength="105" x="612" y="328.0781">getPhysicalCar(</text><text fill="#6060BB" font-family="sans-serif" font-size="14" lengthAdjust="spacing" textLength="417" x="717" y="328.0781">car:Examples.BetterDesign.Repository.WarehouseEntities.Car</text><text fill="#000000" font-family="sans-serif" font-size="14" lengthAdjust="spacing" textLength="9" x="1134" y="328.0781">):</text><text fill="#BB6060" font-family="sans-serif" font-size="14" lengthAdjust="spacing" textLength="349" x="1147" y="328.0781">Examples.BetterDesign.Repository.CarExample.Car</text></g></a><!--class DBWarehouse--><a href="Examples.BetterDesign.Repository.DBWarehouse-diagram-detailed.svg" target="_top" title="Examples.BetterDesign.Repository.DBWarehouse-diagram-detailed.svg" xlink:actuate="onRequest" xlink:href="Examples.BetterDesign.Repository.DBWarehouse-diagram-detailed.svg" xlink:show="new" xlink:title="Examples.BetterDesign.Repository.DBWarehouse-diagram-detailed.svg" xlink:type="simple"><g id="elem_DBWarehouse"><rect codeLine="8" fill="#F1F1F1" height="245.8594" id="DBWarehouse" rx="2.5" ry="2.5" style="stroke:#181818;stroke-width:0.5;" width="1086" x="1598.5" y="171.5547"/><ellipse cx="2090.25" cy="187.5547" fill="#ADD1B2" rx="11" ry="11" style="stroke:#181818;stroke-width:1.0;"/><path d="M2092.7231,193.6978 Q2092.1421,193.9966 2091.5029,194.146 Q2090.8638,194.2954 2090.1582,194.2954 Q2087.6514,194.2954 2086.3315,192.6436 Q2085.0117,190.9917 2085.0117,187.8706 Q2085.0117,184.7412 2086.3315,183.0894 Q2087.6514,181.4375 2090.1582,181.4375 Q2090.8638,181.4375 2091.5112,181.5869 Q2092.1587,181.7363 2092.7231,182.0352 L2092.7231,184.7578 Q2092.0923,184.1768 2091.4988,183.907 Q2090.9053,183.6372 2090.2744,183.6372 Q2088.9297,183.6372 2088.2449,184.7039 Q2087.5601,185.7705 2087.5601,187.8706 Q2087.5601,189.9624 2088.2449,191.0291 Q2088.9297,192.0957 2090.2744,192.0957 Q2090.9053,192.0957 2091.4988,191.8259 Q2092.0923,191.5562 2092.7231,190.9751 Z " fill="#000000"/><text fill="#000000" font-family="sans-serif" font-size="14" lengthAdjust="spacing" textLength="94" x="2110.75" y="192.8457">DBWarehouse</text><line style="stroke:#181818;stroke-width:0.5;" x1="1599.5" x2="2683.5" y1="203.5547" y2="203.5547"/><line style="stroke:#181818;stroke-width:0.5;" x1="1599.5" x2="2683.5" y1="211.5547" y2="211.5547"/><ellipse cx="1609.5" cy="225.2988" fill="#84BE84" rx="3" ry="3" style="stroke:#038048;stroke-width:1.0;"/><text fill="#000000" font-family="sans-serif" font-size="14" lengthAdjust="spacing" textLength="94" x="1618.5" y="229.0898">getCustomer(</text><text fill="#6060BB" font-family="sans-serif" font-size="14" lengthAdjust="spacing" textLength="424" x="1712.5" y="229.0898">i:Examples.BetterDesign.Repository.WarehouseEntities.Invoice</text><text fill="#000000" font-family="sans-serif" font-size="14" lengthAdjust="spacing" textLength="9" x="2136.5" y="229.0898">):</text><text fill="#BB6060" font-family="sans-serif" font-size="14" lengthAdjust="spacing" textLength="435" x="2149.5" y="229.0898">Examples.BetterDesign.Repository.WarehouseEntities.Customer</text><ellipse cx="1609.5" cy="241.7871" fill="#84BE84" rx="3" ry="3" style="stroke:#038048;stroke-width:1.0;"/><text fill="#000000" font-family="sans-serif" font-size="14" lengthAdjust="spacing" textLength="51" x="1618.5" y="245.5781">getCar(</text><text fill="#6060BB" font-family="sans-serif" font-size="14" lengthAdjust="spacing" textLength="457" x="1669.5" y="245.5781">c:Examples.BetterDesign.Repository.WarehouseEntities.Complaints</text><text fill="#000000" font-family="sans-serif" font-size="14" lengthAdjust="spacing" textLength="9" x="2126.5" y="245.5781">):</text><text fill="#BB6060" font-family="sans-serif" font-size="14" lengthAdjust="spacing" textLength="392" x="2139.5" y="245.5781">Examples.BetterDesign.Repository.WarehouseEntities.Car</text><ellipse cx="1609.5" cy="258.2754" fill="#84BE84" rx="3" ry="3" style="stroke:#038048;stroke-width:1.0;"/><text fill="#000000" font-family="sans-serif" font-size="14" lengthAdjust="spacing" textLength="75" x="1618.5" y="262.0664">getInvoice(</text><text fill="#6060BB" font-family="sans-serif" font-size="14" lengthAdjust="spacing" textLength="446" x="1693.5" y="262.0664">c:Examples.BetterDesign.Repository.WarehouseEntities.Customer</text><text fill="#000000" font-family="sans-serif" font-size="14" lengthAdjust="spacing" textLength="9" x="2139.5" y="262.0664">):</text><text fill="#BB6060" font-family="sans-serif" font-size="14" lengthAdjust="spacing" textLength="416" x="2152.5" y="262.0664">Examples.BetterDesign.Repository.WarehouseEntities.Invoice</text><ellipse cx="1609.5" cy="274.7637" fill="#84BE84" rx="3" ry="3" style="stroke:#038048;stroke-width:1.0;"/><text fill="#000000" font-family="sans-serif" font-size="14" lengthAdjust="spacing" textLength="105" x="1618.5" y="278.5547">getComplaints(</text><text fill="#6060BB" font-family="sans-serif" font-size="14" lengthAdjust="spacing" textLength="446" x="1723.5" y="278.5547">c:Examples.BetterDesign.Repository.WarehouseEntities.Customer</text><text fill="#000000" font-family="sans-serif" font-size="14" lengthAdjust="spacing" textLength="9" x="2169.5" y="278.5547">):</text><text fill="#BB6060" font-family="sans-serif" font-size="14" lengthAdjust="spacing" textLength="446" x="2182.5" y="278.5547">Examples.BetterDesign.Repository.WarehouseEntities.Complaints</text><ellipse cx="1609.5" cy="291.252" fill="#84BE84" rx="3" ry="3" style="stroke:#038048;stroke-width:1.0;"/><text fill="#000000" font-family="sans-serif" font-size="14" lengthAdjust="spacing" textLength="58" x="1618.5" y="295.043">getUser(</text><text fill="#6060BB" font-family="sans-serif" font-size="14" lengthAdjust="spacing" textLength="417" x="1676.5" y="295.043">car:Examples.BetterDesign.Repository.WarehouseEntities.Car</text><text fill="#000000" font-family="sans-serif" font-size="14" lengthAdjust="spacing" textLength="9" x="2093.5" y="295.043">):</text><text fill="#BB6060" font-family="sans-serif" font-size="14" lengthAdjust="spacing" textLength="399" x="2106.5" y="295.043">Examples.BetterDesign.Repository.WarehouseEntities.User</text><ellipse cx="1609.5" cy="307.7402" fill="#84BE84" rx="3" ry="3" style="stroke:#038048;stroke-width:1.0;"/><text fill="#000000" font-family="sans-serif" font-size="14" lengthAdjust="spacing" textLength="94" x="1618.5" y="311.5313">getCustomer(</text><text fill="#6060BB" font-family="sans-serif" font-size="14" lengthAdjust="spacing" textLength="518" x="1712.5" y="311.5313">complaint:Examples.BetterDesign.Repository.WarehouseEntities.Complaints</text><text fill="#000000" font-family="sans-serif" font-size="14" lengthAdjust="spacing" textLength="9" x="2230.5" y="311.5313">):</text><text fill="#BB6060" font-family="sans-serif" font-size="14" lengthAdjust="spacing" textLength="435" x="2243.5" y="311.5313">Examples.BetterDesign.Repository.WarehouseEntities.Customer</text><ellipse cx="1609.5" cy="324.2285" fill="#84BE84" rx="3" ry="3" style="stroke:#038048;stroke-width:1.0;"/><text fill="#000000" font-family="sans-serif" font-size="14" lengthAdjust="spacing" textLength="51" x="1618.5" y="328.0195">getCar(</text><text fill="#6060BB" font-family="sans-serif" font-size="14" lengthAdjust="spacing" textLength="433" x="1669.5" y="328.0195">user:Examples.BetterDesign.Repository.WarehouseEntities.User</text><text fill="#000000" font-family="sans-serif" font-size="14" lengthAdjust="spacing" textLength="9" x="2102.5" y="328.0195">):</text><text fill="#BB6060" font-family="sans-serif" font-size="14" lengthAdjust="spacing" textLength="392" x="2115.5" y="328.0195">Examples.BetterDesign.Repository.WarehouseEntities.Car</text><ellipse cx="1609.5" cy="340.7168" fill="#84BE84" rx="3" ry="3" style="stroke:#038048;stroke-width:1.0;"/><text fill="#000000" font-family="sans-serif" font-size="14" lengthAdjust="spacing" textLength="105" x="1618.5" y="344.5078">getComplaints(</text><text fill="#6060BB" font-family="sans-serif" font-size="14" lengthAdjust="spacing" textLength="417" x="1723.5" y="344.5078">car:Examples.BetterDesign.Repository.WarehouseEntities.Car</text><text fill="#000000" font-family="sans-serif" font-size="14" lengthAdjust="spacing" textLength="9" x="2140.5" y="344.5078">):</text><text fill="#BB6060" font-family="sans-serif" font-size="14" lengthAdjust="spacing" textLength="446" x="2153.5" y="344.5078">Examples.BetterDesign.Repository.WarehouseEntities.Complaints</text><ellipse cx="1609.5" cy="357.2051" fill="#84BE84" rx="3" ry="3" style="stroke:#038048;stroke-width:1.0;"/><text fill="#000000" font-family="sans-serif" font-size="14" lengthAdjust="spacing" textLength="88" x="1618.5" y="360.9961">getFirstUser(</text><text fill="#000000" font-family="sans-serif" font-size="14" lengthAdjust="spacing" textLength="9" x="1706.5" y="360.9961">):</text><text fill="#BB6060" font-family="sans-serif" font-size="14" lengthAdjust="spacing" textLength="399" x="1719.5" y="360.9961">Examples.BetterDesign.Repository.WarehouseEntities.User</text><ellipse cx="1609.5" cy="373.6934" fill="#84BE84" rx="3" ry="3" style="stroke:#038048;stroke-width:1.0;"/><text fill="#000000" font-family="sans-serif" font-size="14" lengthAdjust="spacing" textLength="81" x="1618.5" y="377.4844">getFirstCar(</text><text fill="#000000" font-family="sans-serif" font-size="14" lengthAdjust="spacing" textLength="9" x="1699.5" y="377.4844">):</text><text fill="#BB6060" font-family="sans-serif" font-size="14" lengthAdjust="spacing" textLength="392" x="1712.5" y="377.4844">Examples.BetterDesign.Repository.WarehouseEntities.Car</text><ellipse cx="1609.5" cy="390.1816" fill="#84BE84" rx="3" ry="3" style="stroke:#038048;stroke-width:1.0;"/><text fill="#000000" font-family="sans-serif" font-size="14" lengthAdjust="spacing" textLength="105" x="1618.5" y="393.9727">getFirstInvoice(</text><text fill="#000000" font-family="sans-serif" font-size="14" lengthAdjust="spacing" textLength="9" x="1723.5" y="393.9727">):</text><text fill="#BB6060" font-family="sans-serif" font-size="14" lengthAdjust="spacing" textLength="416" x="1736.5" y="393.9727">Examples.BetterDesign.Repository.WarehouseEntities.Invoice</text><ellipse cx="1609.5" cy="406.6699" fill="#84BE84" rx="3" ry="3" style="stroke:#038048;stroke-width:1.0;"/><text fill="#000000" font-family="sans-serif" font-size="14" lengthAdjust="spacing" textLength="135" x="1618.5" y="410.4609">getFirstComplaints(</text><text fill="#000000" font-family="sans-serif" font-size="14" lengthAdjust="spacing" textLength="9" x="1753.5" y="410.4609">):</text><text fill="#BB6060" font-family="sans-serif" font-size="14" lengthAdjust="spacing" textLength="446" x="1766.5" y="410.4609">Examples.BetterDesign.Repository.WarehouseEntities.Complaints</text></g></a><!--class Customer--><a href="Examples.BetterDesign.Repository.WarehouseEntities.Customer-diagram-detailed.svg" target="_top" title="Examples.BetterDesign.Repository.WarehouseEntities.Customer-diagram-detailed.svg" xlink:actuate="onRequest" xlink:href="Examples.BetterDesign.Repository.WarehouseEntities.Customer-diagram-detailed.svg" xlink:show="new" xlink:title="Examples.BetterDesign.Repository.WarehouseEntities.Customer-diagram-detailed.svg" xlink:type="simple"><g id="elem_Customer"><rect codeLine="22" fill="#FFFF00" height="48" id="Customer" rx="2.5" ry="2.5" style="stroke:#181818;stroke-width:0.5;" width="99" x="2150" y="478.5547"/><ellipse cx="2165" cy="494.5547" fill="#ADD1B2" rx="11" ry="11" style="stroke:#181818;stroke-width:1.0;"/><path d="M2167.4731,500.6978 Q2166.8921,500.9966 2166.2529,501.146 Q2165.6138,501.2954 2164.9082,501.2954 Q2162.4014,501.2954 2161.0815,499.6436 Q2159.7617,497.9917 2159.7617,494.8706 Q2159.7617,491.7412 2161.0815,490.0894 Q2162.4014,488.4375 2164.9082,488.4375 Q2165.6138,488.4375 2166.2612,488.5869 Q2166.9087,488.7363 2167.4731,489.0352 L2167.4731,491.7578 Q2166.8423,491.1768 2166.2488,490.907 Q2165.6553,490.6372 2165.0244,490.6372 Q2163.6797,490.6372 2162.9949,491.7039 Q2162.3101,492.7705 2162.3101,494.8706 Q2162.3101,496.9624 2162.9949,498.0291 Q2163.6797,499.0957 2165.0244,499.0957 Q2165.6553,499.0957 2166.2488,498.8259 Q2166.8423,498.5562 2167.4731,497.9751 Z " fill="#000000"/><text fill="#000000" font-family="sans-serif" font-size="14" lengthAdjust="spacing" textLength="67" x="2179" y="499.8457">Customer</text><line style="stroke:#181818;stroke-width:0.5;" x1="2151" x2="2248" y1="510.5547" y2="510.5547"/><line style="stroke:#181818;stroke-width:0.5;" x1="2151" x2="2248" y1="518.5547" y2="518.5547"/></g></a><!--class User--><a href="Examples.BetterDesign.Repository.WarehouseEntities.User-diagram-detailed.svg" target="_top" title="Examples.BetterDesign.Repository.WarehouseEntities.User-diagram-detailed.svg" xlink:actuate="onRequest" xlink:href="Examples.BetterDesign.Repository.WarehouseEntities.User-diagram-detailed.svg" xlink:show="new" xlink:title="Examples.BetterDesign.Repository.WarehouseEntities.User-diagram-detailed.svg" xlink:type="simple"><g id="elem_User"><rect codeLine="24" fill="#FFFF00" height="48" id="User" rx="2.5" ry="2.5" style="stroke:#181818;stroke-width:0.5;" width="63" x="2052" y="478.5547"/><ellipse cx="2067" cy="494.5547" fill="#ADD1B2" rx="11" ry="11" style="stroke:#181818;stroke-width:1.0;"/><path d="M2069.4731,500.6978 Q2068.8921,500.9966 2068.2529,501.146 Q2067.6138,501.2954 2066.9082,501.2954 Q2064.4014,501.2954 2063.0815,499.6436 Q2061.7617,497.9917 2061.7617,494.8706 Q2061.7617,491.7412 2063.0815,490.0894 Q2064.4014,488.4375 2066.9082,488.4375 Q2067.6138,488.4375 2068.2612,488.5869 Q2068.9087,488.7363 2069.4731,489.0352 L2069.4731,491.7578 Q2068.8423,491.1768 2068.2488,490.907 Q2067.6553,490.6372 2067.0244,490.6372 Q2065.6797,490.6372 2064.9949,491.7039 Q2064.3101,492.7705 2064.3101,494.8706 Q2064.3101,496.9624 2064.9949,498.0291 Q2065.6797,499.0957 2067.0244,499.0957 Q2067.6553,499.0957 2068.2488,498.8259 Q2068.8423,498.5562 2069.4731,497.9751 Z " fill="#000000"/><text fill="#000000" font-family="sans-serif" font-size="14" lengthAdjust="spacing" textLength="31" x="2081" y="499.8457">User</text><line style="stroke:#181818;stroke-width:0.5;" x1="2053" x2="2114" y1="510.5547" y2="510.5547"/><line style="stroke:#181818;stroke-width:0.5;" x1="2053" x2="2114" y1="518.5547" y2="518.5547"/></g></a><!--class Invoice--><a href="Examples.BetterDesign.Repository.WarehouseEntities.Invoice-diagram-detailed.svg" target="_top" title="Examples.BetterDesign.Repository.WarehouseEntities.Invoice-diagram-detailed.svg" xlink:actuate="onRequest" xlink:href="Examples.BetterDesign.Repository.WarehouseEntities.Invoice-diagram-detailed.svg" xlink:show="new" xlink:title="Examples.BetterDesign.Repository.WarehouseEntities.Invoice-diagram-detailed.svg" xlink:type="simple"><g id="elem_Invoice"><rect codeLine="26" fill="#FFFF00" height="48" id="Invoice" rx="2.5" ry="2.5" style="stroke:#181818;stroke-width:0.5;" width="80" x="1936.5" y="478.5547"/><ellipse cx="1951.5" cy="494.5547" fill="#ADD1B2" rx="11" ry="11" style="stroke:#181818;stroke-width:1.0;"/><path d="M1953.9731,500.6978 Q1953.3921,500.9966 1952.7529,501.146 Q1952.1138,501.2954 1951.4082,501.2954 Q1948.9014,501.2954 1947.5815,499.6436 Q1946.2617,497.9917 1946.2617,494.8706 Q1946.2617,491.7412 1947.5815,490.0894 Q1948.9014,488.4375 1951.4082,488.4375 Q1952.1138,488.4375 1952.7612,488.5869 Q1953.4087,488.7363 1953.9731,489.0352 L1953.9731,491.7578 Q1953.3423,491.1768 1952.7488,490.907 Q1952.1553,490.6372 1951.5244,490.6372 Q1950.1797,490.6372 1949.4949,491.7039 Q1948.8101,492.7705 1948.8101,494.8706 Q1948.8101,496.9624 1949.4949,498.0291 Q1950.1797,499.0957 1951.5244,499.0957 Q1952.1553,499.0957 1952.7488,498.8259 Q1953.3423,498.5562 1953.9731,497.9751 Z " fill="#000000"/><text fill="#000000" font-family="sans-serif" font-size="14" lengthAdjust="spacing" textLength="48" x="1965.5" y="499.8457">Invoice</text><line style="stroke:#181818;stroke-width:0.5;" x1="1937.5" x2="2015.5" y1="510.5547" y2="510.5547"/><line style="stroke:#181818;stroke-width:0.5;" x1="1937.5" x2="2015.5" y1="518.5547" y2="518.5547"/></g></a><!--class Car--><a href="Examples.BetterDesign.Repository.WarehouseEntities.Car-diagram-detailed.svg" target="_top" title="Examples.BetterDesign.Repository.WarehouseEntities.Car-diagram-detailed.svg" xlink:actuate="onRequest" xlink:href="Examples.BetterDesign.Repository.WarehouseEntities.Car-diagram-detailed.svg" xlink:show="new" xlink:title="Examples.BetterDesign.Repository.WarehouseEntities.Car-diagram-detailed.svg" xlink:type="simple"><g id="elem_Car"><rect codeLine="28" fill="#FFFF00" height="48" id="Car" rx="2.5" ry="2.5" style="stroke:#181818;stroke-width:0.5;" width="56" x="1845.5" y="478.5547"/><ellipse cx="1860.5" cy="494.5547" fill="#ADD1B2" rx="11" ry="11" style="stroke:#181818;stroke-width:1.0;"/><path d="M1862.9731,500.6978 Q1862.3921,500.9966 1861.7529,501.146 Q1861.1138,501.2954 1860.4082,501.2954 Q1857.9014,501.2954 1856.5815,499.6436 Q1855.2617,497.9917 1855.2617,494.8706 Q1855.2617,491.7412 1856.5815,490.0894 Q1857.9014,488.4375 1860.4082,488.4375 Q1861.1138,488.4375 1861.7612,488.5869 Q1862.4087,488.7363 1862.9731,489.0352 L1862.9731,491.7578 Q1862.3423,491.1768 1861.7488,490.907 Q1861.1553,490.6372 1860.5244,490.6372 Q1859.1797,490.6372 1858.4949,491.7039 Q1857.8101,492.7705 1857.8101,494.8706 Q1857.8101,496.9624 1858.4949,498.0291 Q1859.1797,499.0957 1860.5244,499.0957 Q1861.1553,499.0957 1861.7488,498.8259 Q1862.3423,498.5562 1862.9731,497.9751 Z " fill="#000000"/><text fill="#000000" font-family="sans-serif" font-size="14" lengthAdjust="spacing" textLength="24" x="1874.5" y="499.8457">Car</text><line style="stroke:#181818;stroke-width:0.5;" x1="1846.5" x2="1900.5" y1="510.5547" y2="510.5547"/><line style="stroke:#181818;stroke-width:0.5;" x1="1846.5" x2="1900.5" y1="518.5547" y2="518.5547"/></g></a><!--class Complaints--><a href="Examples.BetterDesign.Repository.WarehouseEntities.Complaints-diagram-detailed.svg" target="_top" title="Examples.BetterDesign.Repository.WarehouseEntities.Complaints-diagram-detailed.svg" xlink:actuate="onRequest" xlink:href="Examples.BetterDesign.Repository.WarehouseEntities.Complaints-diagram-detailed.svg" xlink:show="new" xlink:title="Examples.BetterDesign.Repository.WarehouseEntities.Complaints-diagram-detailed.svg" xlink:type="simple"><g id="elem_Complaints"><rect codeLine="30" fill="#FFFF00" height="48" id="Complaints" rx="2.5" ry="2.5" style="stroke:#181818;stroke-width:0.5;" width="110" x="2284.5" y="478.5547"/><ellipse cx="2299.5" cy="494.5547" fill="#ADD1B2" rx="11" ry="11" style="stroke:#181818;stroke-width:1.0;"/><path d="M2301.9731,500.6978 Q2301.3921,500.9966 2300.7529,501.146 Q2300.1138,501.2954 2299.4082,501.2954 Q2296.9014,501.2954 2295.5815,499.6436 Q2294.2617,497.9917 2294.2617,494.8706 Q2294.2617,491.7412 2295.5815,490.0894 Q2296.9014,488.4375 2299.4082,488.4375 Q2300.1138,488.4375 2300.7612,488.5869 Q2301.4087,488.7363 2301.9731,489.0352 L2301.9731,491.7578 Q2301.3423,491.1768 2300.7488,490.907 Q2300.1553,490.6372 2299.5244,490.6372 Q2298.1797,490.6372 2297.4949,491.7039 Q2296.8101,492.7705 2296.8101,494.8706 Q2296.8101,496.9624 2297.4949,498.0291 Q2298.1797,499.0957 2299.5244,499.0957 Q2300.1553,499.0957 2300.7488,498.8259 Q2301.3423,498.5562 2301.9731,497.9751 Z " fill="#000000"/><text fill="#000000" font-family="sans-serif" font-size="14" lengthAdjust="spacing" textLength="78" x="2313.5" y="499.8457">Complaints</text><line style="stroke:#181818;stroke-width:0.5;" x1="2285.5" x2="2393.5" y1="510.5547" y2="510.5547"/><line style="stroke:#181818;stroke-width:0.5;" x1="2285.5" x2="2393.5" y1="518.5547" y2="518.5547"/></g></a><g id="elem_FloatingNote"><path d="M6,170.5547 L6,418.2129 L535,418.2129 L535,180.5547 L525,170.5547 L6,170.5547 " fill="#FEFFDD" style="stroke:#181818;stroke-width:0.5;"/><path d="M525,170.5547 L525,180.5547 L535,180.5547 L525,170.5547 " fill="#FEFFDD" style="stroke:#181818;stroke-width:1.0;"/><text fill="#000000" font-family="sans-serif" font-size="13" lengthAdjust="spacing" textLength="120" x="12" y="188.123">Your are analyzing:</text><text fill="#000000" font-family="sans-serif" font-size="13" lengthAdjust="spacing" textLength="334" x="12" y="203.4336">Examples.BetterDesign.Repository.WarehouseEntities</text><text fill="#000000" font-family="sans-serif" font-size="13" font-weight="bold" lengthAdjust="spacing" textLength="55" x="350" y="203.4336">detailed</text><text fill="#000000" font-family="sans-serif" font-size="13" lengthAdjust="spacing" textLength="4" x="405" y="203.4336">&#160;</text><text fill="#000000" font-family="sans-serif" font-size="13" lengthAdjust="spacing" textLength="4" x="12" y="218.7441">&#160;</text><text fill="#000000" font-family="sans-serif" font-size="13" lengthAdjust="spacing" textLength="229" x="12" y="249.3652">You can click either the namespaces</text><text fill="#000000" font-family="sans-serif" font-size="13" lengthAdjust="spacing" textLength="266" x="12" y="264.6758">or class names for filtering them and their</text><text fill="#000000" font-family="sans-serif" font-size="13" lengthAdjust="spacing" textLength="130" x="12" y="279.9863">direct dependencies.</text><text fill="#000000" font-family="sans-serif" font-size="13" lengthAdjust="spacing" textLength="4" x="12" y="295.2969">&#160;</text><line style="stroke:#181818;stroke-width:1.0;" x1="7" x2="254.5" y1="229.1416" y2="229.1416"/><line style="stroke:#181818;stroke-width:1.0;" x1="7" x2="254.5" y1="231.1416" y2="231.1416"/><text fill="#000000" font-family="sans-serif" font-size="13" lengthAdjust="spacing" textLength="32" x="254.5" y="233.5547">Filter</text><line style="stroke:#181818;stroke-width:1.0;" x1="286.5" x2="534" y1="229.1416" y2="229.1416"/><line style="stroke:#181818;stroke-width:1.0;" x1="286.5" x2="534" y1="231.1416" y2="231.1416"/><ellipse cx="17.5" cy="325.1602" fill="#000000" rx="2.5" ry="2.5" style="stroke:#000000;stroke-width:0.0;"/><text fill="#000000" font-family="sans-serif" font-size="13" lengthAdjust="spacing" textLength="334" x="24" y="329.918">Examples.BetterDesign.Repository.WarehouseEntities</text><text fill="#000000" font-family="sans-serif" font-size="13" font-weight="bold" lengthAdjust="spacing" textLength="67" x="362" y="329.918">simplified</text><text fill="#000000" font-family="sans-serif" font-size="13" lengthAdjust="spacing" textLength="4" x="433" y="329.918">:</text><text fill="#000000" font-family="sans-serif" font-size="13" lengthAdjust="spacing" textLength="12" x="12" y="345.2285">&#160;&#160;&#160;</text><a href="Examples.BetterDesign.Repository.WarehouseEntities-diagram-simplified.svg" target="_top" title="Examples.BetterDesign.Repository.WarehouseEntities-diagram-simplified.svg" xlink:actuate="onRequest" xlink:href="Examples.BetterDesign.Repository.WarehouseEntities-diagram-simplified.svg" xlink:show="new" xlink:title="Examples.BetterDesign.Repository.WarehouseEntities-diagram-simplified.svg" xlink:type="simple"><text fill="#0000FF" font-family="sans-serif" font-size="13" lengthAdjust="spacing" text-decoration="underline" textLength="490" x="24" y="345.2285">Examples.BetterDesign.Repository.WarehouseEntities-diagram-simplified.svg</text></a><ellipse cx="17.5" cy="355.7813" fill="#000000" rx="2.5" ry="2.5" style="stroke:#000000;stroke-width:0.0;"/><text fill="#000000" font-family="sans-serif" font-size="13" lengthAdjust="spacing" textLength="78" x="24" y="360.5391">Full diagram</text><text fill="#000000" font-family="sans-serif" font-size="13" font-weight="bold" lengthAdjust="spacing" textLength="55" x="106" y="360.5391">detailed</text><text fill="#000000" font-family="sans-serif" font-size="13" lengthAdjust="spacing" textLength="23" x="165" y="360.5391">and</text><text fill="#000000" font-family="sans-serif" font-size="13" font-weight="bold" lengthAdjust="spacing" textLength="166" x="192" y="360.5391">grouped per namespace</text><text fill="#000000" font-family="sans-serif" font-size="13" lengthAdjust="spacing" textLength="4" x="358" y="360.5391">:</text><text fill="#000000" font-family="sans-serif" font-size="13" lengthAdjust="spacing" textLength="12" x="12" y="375.8496">&#160;&#160;&#160;</text><a href="full-diagram-detailed-grouped-per-namespace.svg" target="_top" title="full-diagram-detailed-grouped-per-namespace.svg" xlink:actuate="onRequest" xlink:href="full-diagram-detailed-grouped-per-namespace.svg" xlink:show="new" xlink:title="full-diagram-detailed-grouped-per-namespace.svg" xlink:type="simple"><text fill="#0000FF" font-family="sans-serif" font-size="13" lengthAdjust="spacing" text-decoration="underline" textLength="330" x="24" y="375.8496">full-diagram-detailed-grouped-per-namespace.svg</text></a><ellipse cx="17.5" cy="386.4023" fill="#000000" rx="2.5" ry="2.5" style="stroke:#000000;stroke-width:0.0;"/><text fill="#000000" font-family="sans-serif" font-size="13" lengthAdjust="spacing" textLength="41" x="24" y="391.1602">Home:</text><text fill="#000000" font-family="sans-serif" font-size="13" lengthAdjust="spacing" textLength="12" x="12" y="406.4707">&#160;&#160;&#160;</text><a href="index.html" target="_top" title="index.html" xlink:actuate="onRequest" xlink:href="index.html" xlink:show="new" xlink:title="index.html" xlink:type="simple"><text fill="#0000FF" font-family="sans-serif" font-size="13" lengthAdjust="spacing" text-decoration="underline" textLength="68" x="24" y="406.4707">index.html</text></a><line style="stroke:#181818;stroke-width:1.0;" x1="7" x2="233.5" y1="309.6943" y2="309.6943"/><line style="stroke:#181818;stroke-width:1.0;" x1="7" x2="233.5" y1="311.6943" y2="311.6943"/><text fill="#000000" font-family="sans-serif" font-size="13" lengthAdjust="spacing" textLength="74" x="233.5" y="314.1074">Select other</text><line style="stroke:#181818;stroke-width:1.0;" x1="307.5" x2="534" y1="309.6943" y2="309.6943"/><line style="stroke:#181818;stroke-width:1.0;" x1="307.5" x2="534" y1="311.6943" y2="311.6943"/></g><!--link Service to Car--><g id="link_Service_Car"><path codeLine="37" d="M1077.5,335.1547 C1077.5,395.6847 1077.5,502.5547 1077.5,502.5547 C1077.5,502.5547 1839.17,502.5547 1839.17,502.5547 " fill="none" id="Service-to-Car" style="stroke:#6060BB;stroke-width:1.0;stroke-dasharray:7.0,7.0;"/><polygon fill="#6060BB" points="1844.17,502.5547,1835.17,498.5547,1839.17,502.5547,1835.17,506.5547,1844.17,502.5547" style="stroke:#6060BB;stroke-width:1.0;"/><text fill="#000000" font-family="sans-serif" font-size="13" lengthAdjust="spacing" textLength="29" x="1344.63" y="499.123">uses</text></g><!--link DBWarehouse to Customer--><g id="link_DBWarehouse_Customer"><path codeLine="40" d="M2199.5,417.9547 C2199.5,417.9547 2199.5,472.1347 2199.5,472.1347 " fill="none" id="DBWarehouse-to-Customer" style="stroke:#6060BB;stroke-width:1.0;stroke-dasharray:7.0,7.0;"/><polygon fill="#6060BB" points="2199.5,477.1347,2203.5,468.1347,2199.5,472.1347,2195.5,468.1347,2199.5,477.1347" style="stroke:#6060BB;stroke-width:1.0;"/><text fill="#000000" font-family="sans-serif" font-size="13" lengthAdjust="spacing" textLength="29" x="2169.5" y="441.613">uses</text></g><!--link DBWarehouse to Invoice--><g id="link_DBWarehouse_Invoice"><path codeLine="41" d="M1976.5,417.9547 C1976.5,417.9547 1976.5,472.1347 1976.5,472.1347 " fill="none" id="DBWarehouse-to-Invoice" style="stroke:#6060BB;stroke-width:1.0;stroke-dasharray:7.0,7.0;"/><polygon fill="#6060BB" points="1976.5,477.1347,1980.5,468.1347,1976.5,472.1347,1972.5,468.1347,1976.5,477.1347" style="stroke:#6060BB;stroke-width:1.0;"/><text fill="#000000" font-family="sans-serif" font-size="13" lengthAdjust="spacing" textLength="29" x="1946.5" y="441.613">uses</text></g><!--link DBWarehouse to Car--><g id="link_DBWarehouse_Car"><path codeLine="42" d="M1873.5,417.9547 C1873.5,417.9547 1873.5,472.1347 1873.5,472.1347 " fill="none" id="DBWarehouse-to-Car" style="stroke:#6060BB;stroke-width:1.0;stroke-dasharray:7.0,7.0;"/><polygon fill="#6060BB" points="1873.5,477.1347,1877.5,468.1347,1873.5,472.1347,1869.5,468.1347,1873.5,477.1347" style="stroke:#6060BB;stroke-width:1.0;"/><text fill="#000000" font-family="sans-serif" font-size="13" lengthAdjust="spacing" textLength="29" x="1843.5" y="441.613">uses</text></g><!--link DBWarehouse to Complaints--><g id="link_DBWarehouse_Complaints"><path codeLine="43" d="M2339.5,417.9547 C2339.5,417.9547 2339.5,472.1347 2339.5,472.1347 " fill="none" id="DBWarehouse-to-Complaints" style="stroke:#6060BB;stroke-width:1.0;stroke-dasharray:7.0,7.0;"/><polygon fill="#6060BB" points="2339.5,477.1347,2343.5,468.1347,2339.5,472.1347,2335.5,468.1347,2339.5,477.1347" style="stroke:#6060BB;stroke-width:1.0;"/><text fill="#000000" font-family="sans-serif" font-size="13" lengthAdjust="spacing" textLength="29" x="2309.5" y="441.613">uses</text></g><!--link DBWarehouse to User--><g id="link_DBWarehouse_User"><path codeLine="44" d="M2083.5,417.9547 C2083.5,417.9547 2083.5,472.1347 2083.5,472.1347 " fill="none" id="DBWarehouse-to-User" style="stroke:#6060BB;stroke-width:1.0;stroke-dasharray:7.0,7.0;"/><polygon fill="#6060BB" points="2083.5,477.1347,2087.5,468.1347,2083.5,472.1347,2079.5,468.1347,2083.5,477.1347" style="stroke:#6060BB;stroke-width:1.0;"/><text fill="#000000" font-family="sans-serif" font-size="13" lengthAdjust="spacing" textLength="29" x="2053.5" y="441.613">uses</text></g><!--SRC=[rLTDRzf04BtpAqRaaDOLJjH33mWua0IrbxPgL5LLuB2o1rXblMljBcb8bV_UMUCl11ZY12VbW8mz7s_UcncyvfRBc6aMWU0IxJ96KDhELSjoAn1wXZzWz-FvuEgUHR50um_HMjINQFXC-ZymLePRfPV-BwPnhXO6hoIvSZJWUI5QnWM6dWUzCnTfq9BA8hH_guK6SW0ccLW-S3dhZkLpKupbMFRx8ox8kTyVIqe20PCG21xS0d8xHmtq1P95Q68MK82nL9eCc36hkp2btzCa185orX5X3Dq5rsCPSes1XH1Zb27AW33ugxJNADmJvPAuv1xKAiTmyk5JdXH4d030pStJ8tL2pcOaQgU8vvkxsMJYW8qMGa1giCwWgzJpPbejOWmX9hfogZmlGpCbzpn-vjn9dJharCcTYfoVLOHP04xKtVjp6ud9f0tCm4WePedkhzGRBKZbs5xqDUex7k1EKjBd6_XMI03-Kdo03p13-qs7g36yOFfTRwgaXK09fVljJ-UVpeV3zY2UBmqFc223xbu5o2YrSPUzCnTmyBuBQv67GnUxNMEMIa6B0huN0BTN41o2l2fNxGAsqa787nFqLGANWbmESso73479V8_yANyN2sEfBNUGn-jGzqNUAMg_8-YVOYqtGLR6JlbhYQ_8Wt5fpT6RECMVSlQIDQoJzO8LhEkxfaBEstzHo8RCvLf-6dnp6sKpg4EvJOZAgGwokj_SRDGOSFAl9KU9kQDFzzwvU4CTLJaK8wvDnMGqrjy9ZfqjqPIi2OhApTtaybrnigVJckgNnnJPWMyvkrT1hJV_t7lNEz394eLGV_9NeMV3TNrQ3whpR0ncsZtraAREZO6beQkfFckEqQBzQsBD_Py0-PGEg0Tzu6Ysft2HKAPHqB5LIGDuRpKBB9sPfrf5nQ6vIxPRYMbLdsxzcvFLrfhuWxhj0rsWM-P5u9QojPvqR7js8TagpAjfD7ssCrud-vgApMOk9ljr02J_AKVguCrq_m00]--></g></svg>