<?xml version="1.0" encoding="us-ascii" standalone="no"?><svg xmlns="http://www.w3.org/2000/svg" xmlns:xlink="http://www.w3.org/1999/xlink" contentStyleType="text/css" height="738px" preserveAspectRatio="none" style="width:1440px;height:738px;background:#FFFFFF;" version="1.1" viewBox="0 0 1440 738" width="1440px" zoomAndPan="magnify"><defs/><g><text fill="#000000" font-family="sans-serif" font-size="20" font-weight="bold" lengthAdjust="spacing" textLength="443" x="285.75" y="29.3359">Examples.BadDesign.BasicExample.Useless</text><text fill="#000000" font-family="sans-serif" font-size="20" font-weight="bold" lengthAdjust="spacing" textLength="104" x="735.75" y="29.3359">simplified</text><text fill="#000000" font-family="sans-serif" font-size="20" font-weight="bold" lengthAdjust="spacing" textLength="38" x="846.75" y="29.3359">and</text><text fill="#000000" font-family="sans-serif" font-size="20" font-weight="bold" lengthAdjust="spacing" textLength="249" x="891.75" y="29.3359">grouped per namespace</text><!--cluster Examples--><g id="cluster_Examples"><a href="Examples-diagram-simplified-grouped-per-namespace.svg" target="_top" title="Examples-diagram-simplified-grouped-per-namespace.svg" xlink:actuate="onRequest" xlink:href="Examples-diagram-simplified-grouped-per-namespace.svg" xlink:show="new" xlink:title="Examples-diagram-simplified-grouped-per-namespace.svg" xlink:type="simple"><path d="M644,50.5547 L713,50.5547 A3.75,3.75 0 0 1 715.5,53.0547 L722.5,73.043 L1431,73.043 A2.5,2.5 0 0 1 1433.5,75.543 L1433.5,729.0547 A2.5,2.5 0 0 1 1431,731.5547 L644,731.5547 A2.5,2.5 0 0 1 641.5,729.0547 L641.5,53.0547 A2.5,2.5 0 0 1 644,50.5547 " fill="none" style="stroke:#000000;stroke-width:1.5;"/><line style="stroke:#000000;stroke-width:1.5;" x1="641.5" x2="722.5" y1="73.043" y2="73.043"/><text fill="#000000" font-family="sans-serif" font-size="14" font-weight="bold" lengthAdjust="spacing" textLength="68" x="645.5" y="66.0898">Examples</text></a></g><!--cluster BadDesign--><g id="cluster_BadDesign"><a href="Examples.BadDesign-diagram-simplified-grouped-per-namespace.svg" target="_top" title="Examples.BadDesign-diagram-simplified-grouped-per-namespace.svg" xlink:actuate="onRequest" xlink:href="Examples.BadDesign-diagram-simplified-grouped-per-namespace.svg" xlink:show="new" xlink:title="Examples.BadDesign-diagram-simplified-grouped-per-namespace.svg" xlink:type="simple"><path d="M668,93.5547 L745,93.5547 A3.75,3.75 0 0 1 747.5,96.0547 L754.5,116.043 L1407,116.043 A2.5,2.5 0 0 1 1409.5,118.543 L1409.5,705.0547 A2.5,2.5 0 0 1 1407,707.5547 L668,707.5547 A2.5,2.5 0 0 1 665.5,705.0547 L665.5,96.0547 A2.5,2.5 0 0 1 668,93.5547 " fill="none" style="stroke:#000000;stroke-width:1.5;"/><line style="stroke:#000000;stroke-width:1.5;" x1="665.5" x2="754.5" y1="116.043" y2="116.043"/><text fill="#000000" font-family="sans-serif" font-size="14" font-weight="bold" lengthAdjust="spacing" textLength="76" x="669.5" y="109.0898">BadDesign</text></a></g><!--cluster BasicExample--><g id="cluster_BasicExample"><a href="Examples.BadDesign.BasicExample-diagram-simplified-grouped-per-namespace.svg" target="_top" title="Examples.BadDesign.BasicExample-diagram-simplified-grouped-per-namespace.svg" xlink:actuate="onRequest" xlink:href="Examples.BadDesign.BasicExample-diagram-simplified-grouped-per-namespace.svg" xlink:show="new" xlink:title="Examples.BadDesign.BasicExample-diagram-simplified-grouped-per-namespace.svg" xlink:type="simple"><path d="M692,136.5547 L790,136.5547 A3.75,3.75 0 0 1 792.5,139.0547 L799.5,159.043 L1383,159.043 A2.5,2.5 0 0 1 1385.5,161.543 L1385.5,681.0547 A2.5,2.5 0 0 1 1383,683.5547 L692,683.5547 A2.5,2.5 0 0 1 689.5,681.0547 L689.5,139.0547 A2.5,2.5 0 0 1 692,136.5547 " fill="none" style="stroke:#000000;stroke-width:1.5;"/><line style="stroke:#000000;stroke-width:1.5;" x1="689.5" x2="799.5" y1="159.043" y2="159.043"/><text fill="#000000" font-family="sans-serif" font-size="14" font-weight="bold" lengthAdjust="spacing" textLength="97" x="693.5" y="152.0898">BasicExample</text></a></g><!--cluster SideExample--><g id="cluster_SideExample"><a href="Examples.BadDesign.BasicExample.SideExample-diagram-simplified-grouped-per-namespace.svg" target="_top" title="Examples.BadDesign.BasicExample.SideExample-diagram-simplified-grouped-per-namespace.svg" xlink:actuate="onRequest" xlink:href="Examples.BadDesign.BasicExample.SideExample-diagram-simplified-grouped-per-namespace.svg" xlink:show="new" xlink:title="Examples.BadDesign.BasicExample.SideExample-diagram-simplified-grouped-per-namespace.svg" xlink:type="simple"><path d="M822,560.5547 L913,560.5547 A3.75,3.75 0 0 1 915.5,563.0547 L922.5,583.043 L979,583.043 A2.5,2.5 0 0 1 981.5,585.543 L981.5,657.0547 A2.5,2.5 0 0 1 979,659.5547 L822,659.5547 A2.5,2.5 0 0 1 819.5,657.0547 L819.5,563.0547 A2.5,2.5 0 0 1 822,560.5547 " fill="none" style="stroke:#000000;stroke-width:1.5;"/><line style="stroke:#000000;stroke-width:1.5;" x1="819.5" x2="922.5" y1="583.043" y2="583.043"/><text fill="#000000" font-family="sans-serif" font-size="14" font-weight="bold" lengthAdjust="spacing" textLength="90" x="823.5" y="576.0898">SideExample</text></a></g><!--class Useless--><a href="Examples.BadDesign.BasicExample.Useless-diagram-simplified-grouped-per-namespace.svg" target="_top" title="Examples.BadDesign.BasicExample.Useless-diagram-simplified-grouped-per-namespace.svg" xlink:actuate="onRequest" xlink:href="Examples.BadDesign.BasicExample.Useless-diagram-simplified-grouped-per-namespace.svg" xlink:show="new" xlink:title="Examples.BadDesign.BasicExample.Useless-diagram-simplified-grouped-per-namespace.svg" xlink:type="simple"><g id="elem_Useless"><rect codeLine="7" fill="#FFFF00" height="48" id="Useless" rx="2.5" ry="2.5" style="stroke:#181818;stroke-width:0.5;" width="83" x="859" y="487.5547"/><ellipse cx="874" cy="503.5547" fill="#ADD1B2" rx="11" ry="11" style="stroke:#181818;stroke-width:1.0;"/><path d="M876.4731,509.6978 Q875.8921,509.9966 875.2529,510.146 Q874.6138,510.2954 873.9082,510.2954 Q871.4014,510.2954 870.0815,508.6436 Q868.7617,506.9917 868.7617,503.8706 Q868.7617,500.7412 870.0815,499.0894 Q871.4014,497.4375 873.9082,497.4375 Q874.6138,497.4375 875.2612,497.5869 Q875.9087,497.7363 876.4731,498.0352 L876.4731,500.7578 Q875.8423,500.1768 875.2488,499.907 Q874.6553,499.6372 874.0244,499.6372 Q872.6797,499.6372 871.9949,500.7039 Q871.3101,501.7705 871.3101,503.8706 Q871.3101,505.9624 871.9949,507.0291 Q872.6797,508.0957 874.0244,508.0957 Q874.6553,508.0957 875.2488,507.8259 Q875.8423,507.5562 876.4731,506.9751 Z " fill="#000000"/><text fill="#000000" font-family="sans-serif" font-size="14" lengthAdjust="spacing" textLength="51" x="888" y="508.8457">Useless</text><line style="stroke:#181818;stroke-width:0.5;" x1="860" x2="941" y1="519.5547" y2="519.5547"/><line style="stroke:#181818;stroke-width:0.5;" x1="860" x2="941" y1="527.5547" y2="527.5547"/></g></a><!--class IExample--><a href="Examples.BadDesign.BasicExample.IExample-diagram-simplified-grouped-per-namespace.svg" target="_top" title="Examples.BadDesign.BasicExample.IExample-diagram-simplified-grouped-per-namespace.svg" xlink:actuate="onRequest" xlink:href="Examples.BadDesign.BasicExample.IExample-diagram-simplified-grouped-per-namespace.svg" xlink:show="new" xlink:title="Examples.BadDesign.BasicExample.IExample-diagram-simplified-grouped-per-namespace.svg" xlink:type="simple"><g id="elem_IExample"><rect codeLine="9" fill="#F1F1F1" height="48" id="IExample" rx="2.5" ry="2.5" style="stroke:#181818;stroke-width:0.5;" width="95" x="937" y="379.5547"/><ellipse cx="952" cy="395.5547" fill="#B4A7E5" rx="11" ry="11" style="stroke:#181818;stroke-width:1.0;"/><path d="M948.4277,391.8198 L948.4277,389.6616 L955.8071,389.6616 L955.8071,391.8198 L953.3418,391.8198 L953.3418,399.8965 L955.8071,399.8965 L955.8071,402.0547 L948.4277,402.0547 L948.4277,399.8965 L950.8931,399.8965 L950.8931,391.8198 Z " fill="#000000"/><text fill="#000000" font-family="sans-serif" font-size="14" font-style="italic" lengthAdjust="spacing" textLength="63" x="966" y="400.8457">IExample</text><line style="stroke:#181818;stroke-width:0.5;" x1="938" x2="1031" y1="411.5547" y2="411.5547"/><line style="stroke:#181818;stroke-width:0.5;" x1="938" x2="1031" y1="419.5547" y2="419.5547"/></g></a><!--class ClassExample--><a href="Examples.BadDesign.BasicExample.ClassExample-diagram-simplified-grouped-per-namespace.svg" target="_top" title="Examples.BadDesign.BasicExample.ClassExample-diagram-simplified-grouped-per-namespace.svg" xlink:actuate="onRequest" xlink:href="Examples.BadDesign.BasicExample.ClassExample-diagram-simplified-grouped-per-namespace.svg" xlink:show="new" xlink:title="Examples.BadDesign.BasicExample.ClassExample-diagram-simplified-grouped-per-namespace.svg" xlink:type="simple"><g id="elem_ClassExample"><rect codeLine="11" fill="#F1F1F1" height="48" id="ClassExample" rx="2.5" ry="2.5" style="stroke:#181818;stroke-width:0.5;" width="127" x="920" y="171.5547"/><ellipse cx="935" cy="187.5547" fill="#ADD1B2" rx="11" ry="11" style="stroke:#181818;stroke-width:1.0;"/><path d="M937.4731,193.6978 Q936.8921,193.9966 936.2529,194.146 Q935.6138,194.2954 934.9082,194.2954 Q932.4014,194.2954 931.0815,192.6436 Q929.7617,190.9917 929.7617,187.8706 Q929.7617,184.7412 931.0815,183.0894 Q932.4014,181.4375 934.9082,181.4375 Q935.6138,181.4375 936.2612,181.5869 Q936.9087,181.7363 937.4731,182.0352 L937.4731,184.7578 Q936.8423,184.1768 936.2488,183.907 Q935.6553,183.6372 935.0244,183.6372 Q933.6797,183.6372 932.9949,184.7039 Q932.3101,185.7705 932.3101,187.8706 Q932.3101,189.9624 932.9949,191.0291 Q933.6797,192.0957 935.0244,192.0957 Q935.6553,192.0957 936.2488,191.8259 Q936.8423,191.5562 937.4731,190.9751 Z " fill="#000000"/><text fill="#000000" font-family="sans-serif" font-size="14" lengthAdjust="spacing" textLength="95" x="949" y="192.8457">ClassExample</text><line style="stroke:#181818;stroke-width:0.5;" x1="921" x2="1046" y1="203.5547" y2="203.5547"/><line style="stroke:#181818;stroke-width:0.5;" x1="921" x2="1046" y1="211.5547" y2="211.5547"/></g></a><!--class AbstractBaseExample--><a href="Examples.BadDesign.BasicExample.AbstractBaseExample-diagram-simplified-grouped-per-namespace.svg" target="_top" title="Examples.BadDesign.BasicExample.AbstractBaseExample-diagram-simplified-grouped-per-namespace.svg" xlink:actuate="onRequest" xlink:href="Examples.BadDesign.BasicExample.AbstractBaseExample-diagram-simplified-grouped-per-namespace.svg" xlink:show="new" xlink:title="Examples.BadDesign.BasicExample.AbstractBaseExample-diagram-simplified-grouped-per-namespace.svg" xlink:type="simple"><g id="elem_AbstractBaseExample"><rect codeLine="13" fill="#F1F1F1" height="48" id="AbstractBaseExample" rx="2.5" ry="2.5" style="stroke:#181818;stroke-width:0.5;" width="179" x="706" y="171.5547"/><ellipse cx="721" cy="187.5547" fill="#A9DCDF" rx="11" ry="11" style="stroke:#181818;stroke-width:1.0;"/><path d="M720.8633,182.9028 L719.7095,187.9746 L722.0254,187.9746 Z M719.3691,180.6616 L722.3657,180.6616 L725.7109,193.0547 L723.2622,193.0547 L722.4985,189.9917 L719.2197,189.9917 L718.4727,193.0547 L716.0239,193.0547 Z " fill="#000000"/><text fill="#000000" font-family="sans-serif" font-size="14" font-style="italic" lengthAdjust="spacing" textLength="147" x="735" y="192.8457">AbstractBaseExample</text><line style="stroke:#181818;stroke-width:0.5;" x1="707" x2="884" y1="203.5547" y2="203.5547"/><line style="stroke:#181818;stroke-width:0.5;" x1="707" x2="884" y1="211.5547" y2="211.5547"/></g></a><!--class BaseExample--><a href="Examples.BadDesign.BasicExample.BaseExample-diagram-simplified-grouped-per-namespace.svg" target="_top" title="Examples.BadDesign.BasicExample.BaseExample-diagram-simplified-grouped-per-namespace.svg" xlink:actuate="onRequest" xlink:href="Examples.BadDesign.BasicExample.BaseExample-diagram-simplified-grouped-per-namespace.svg" xlink:show="new" xlink:title="Examples.BadDesign.BasicExample.BaseExample-diagram-simplified-grouped-per-namespace.svg" xlink:type="simple"><g id="elem_BaseExample"><rect codeLine="15" fill="#F1F1F1" height="48" id="BaseExample" rx="2.5" ry="2.5" style="stroke:#181818;stroke-width:0.5;" width="122" x="742.5" y="379.5547"/><ellipse cx="757.5" cy="395.5547" fill="#ADD1B2" rx="11" ry="11" style="stroke:#181818;stroke-width:1.0;"/><path d="M759.9731,401.6978 Q759.3921,401.9966 758.7529,402.146 Q758.1138,402.2954 757.4082,402.2954 Q754.9014,402.2954 753.5815,400.6436 Q752.2617,398.9917 752.2617,395.8706 Q752.2617,392.7412 753.5815,391.0894 Q754.9014,389.4375 757.4082,389.4375 Q758.1138,389.4375 758.7612,389.5869 Q759.4087,389.7363 759.9731,390.0352 L759.9731,392.7578 Q759.3423,392.1768 758.7488,391.907 Q758.1553,391.6372 757.5244,391.6372 Q756.1797,391.6372 755.4949,392.7039 Q754.8101,393.7705 754.8101,395.8706 Q754.8101,397.9624 755.4949,399.0291 Q756.1797,400.0957 757.5244,400.0957 Q758.1553,400.0957 758.7488,399.8259 Q759.3423,399.5562 759.9731,398.9751 Z " fill="#000000"/><text fill="#000000" font-family="sans-serif" font-size="14" lengthAdjust="spacing" textLength="90" x="771.5" y="400.8457">BaseExample</text><line style="stroke:#181818;stroke-width:0.5;" x1="743.5" x2="863.5" y1="411.5547" y2="411.5547"/><line style="stroke:#181818;stroke-width:0.5;" x1="743.5" x2="863.5" y1="419.5547" y2="419.5547"/></g></a><!--class ClassExample_DOT_InnerClassExample--><a href="Examples.BadDesign.BasicExample.ClassExample.InnerClassExample-diagram-simplified-grouped-per-namespace.svg" target="_top" title="Examples.BadDesign.BasicExample.ClassExample.InnerClassExample-diagram-simplified-grouped-per-namespace.svg" xlink:actuate="onRequest" xlink:href="Examples.BadDesign.BasicExample.ClassExample.InnerClassExample-diagram-simplified-grouped-per-namespace.svg" xlink:show="new" xlink:title="Examples.BadDesign.BasicExample.ClassExample.InnerClassExample-diagram-simplified-grouped-per-namespace.svg" xlink:type="simple"><g id="elem_ClassExample_DOT_InnerClassExample"><rect codeLine="17" fill="#F1F1F1" height="48" id="ClassExample_DOT_InnerClassExample" rx="2.5" ry="2.5" style="stroke:#181818;stroke-width:0.5;" width="302" x="1067.5" y="379.5547"/><ellipse cx="1082.5" cy="395.5547" fill="#ADD1B2" rx="11" ry="11" style="stroke:#181818;stroke-width:1.0;"/><path d="M1084.9731,401.6978 Q1084.3921,401.9966 1083.7529,402.146 Q1083.1138,402.2954 1082.4082,402.2954 Q1079.9014,402.2954 1078.5815,400.6436 Q1077.2617,398.9917 1077.2617,395.8706 Q1077.2617,392.7412 1078.5815,391.0894 Q1079.9014,389.4375 1082.4082,389.4375 Q1083.1138,389.4375 1083.7612,389.5869 Q1084.4087,389.7363 1084.9731,390.0352 L1084.9731,392.7578 Q1084.3423,392.1768 1083.7488,391.907 Q1083.1553,391.6372 1082.5244,391.6372 Q1081.1797,391.6372 1080.4949,392.7039 Q1079.8101,393.7705 1079.8101,395.8706 Q1079.8101,397.9624 1080.4949,399.0291 Q1081.1797,400.0957 1082.5244,400.0957 Q1083.1553,400.0957 1083.7488,399.8259 Q1084.3423,399.5562 1084.9731,398.9751 Z " fill="#000000"/><text fill="#000000" font-family="sans-serif" font-size="14" lengthAdjust="spacing" textLength="270" x="1096.5" y="400.8457">ClassExample_DOT_InnerClassExample</text><line style="stroke:#181818;stroke-width:0.5;" x1="1068.5" x2="1368.5" y1="411.5547" y2="411.5547"/><line style="stroke:#181818;stroke-width:0.5;" x1="1068.5" x2="1368.5" y1="419.5547" y2="419.5547"/></g></a><!--class SideTestEnum--><a href="Examples.BadDesign.BasicExample.SideExample.SideTestEnum-diagram-simplified-grouped-per-namespace.svg" target="_top" title="Examples.BadDesign.BasicExample.SideExample.SideTestEnum-diagram-simplified-grouped-per-namespace.svg" xlink:actuate="onRequest" xlink:href="Examples.BadDesign.BasicExample.SideExample.SideTestEnum-diagram-simplified-grouped-per-namespace.svg" xlink:show="new" xlink:title="Examples.BadDesign.BasicExample.SideExample.SideTestEnum-diagram-simplified-grouped-per-namespace.svg" xlink:type="simple"><g id="elem_SideTestEnum"><rect codeLine="31" fill="#F1F1F1" height="48" id="SideTestEnum" rx="2.5" ry="2.5" style="stroke:#181818;stroke-width:0.5;" width="129" x="836" y="595.5547"/><ellipse cx="851" cy="611.5547" fill="#ADD1B2" rx="11" ry="11" style="stroke:#181818;stroke-width:1.0;"/><path d="M853.4731,617.6978 Q852.8921,617.9966 852.2529,618.146 Q851.6138,618.2954 850.9082,618.2954 Q848.4014,618.2954 847.0815,616.6436 Q845.7617,614.9917 845.7617,611.8706 Q845.7617,608.7412 847.0815,607.0894 Q848.4014,605.4375 850.9082,605.4375 Q851.6138,605.4375 852.2612,605.5869 Q852.9087,605.7363 853.4731,606.0352 L853.4731,608.7578 Q852.8423,608.1768 852.2488,607.907 Q851.6553,607.6372 851.0244,607.6372 Q849.6797,607.6372 848.9949,608.7039 Q848.3101,609.7705 848.3101,611.8706 Q848.3101,613.9624 848.9949,615.0291 Q849.6797,616.0957 851.0244,616.0957 Q851.6553,616.0957 852.2488,615.8259 Q852.8423,615.5562 853.4731,614.9751 Z " fill="#000000"/><text fill="#000000" font-family="sans-serif" font-size="14" lengthAdjust="spacing" textLength="97" x="865" y="616.8457">SideTestEnum</text><line style="stroke:#181818;stroke-width:0.5;" x1="837" x2="964" y1="627.5547" y2="627.5547"/><line style="stroke:#181818;stroke-width:0.5;" x1="837" x2="964" y1="635.5547" y2="635.5547"/></g></a><g id="elem_FloatingNote"><path d="M6,71.5547 L6,319.2129 L625,319.2129 L625,81.5547 L615,71.5547 L6,71.5547 " fill="#FEFFDD" style="stroke:#181818;stroke-width:0.5;"/><path d="M615,71.5547 L615,81.5547 L625,81.5547 L615,71.5547 " fill="#FEFFDD" style="stroke:#181818;stroke-width:1.0;"/><text fill="#000000" font-family="sans-serif" font-size="13" lengthAdjust="spacing" textLength="120" x="12" y="89.123">Your are analyzing:</text><text fill="#000000" font-family="sans-serif" font-size="13" lengthAdjust="spacing" textLength="271" x="12" y="104.4336">Examples.BadDesign.BasicExample.Useless</text><text fill="#000000" font-family="sans-serif" font-size="13" font-weight="bold" lengthAdjust="spacing" textLength="67" x="287" y="104.4336">simplified</text><text fill="#000000" font-family="sans-serif" font-size="13" lengthAdjust="spacing" textLength="23" x="358" y="104.4336">and</text><text fill="#000000" font-family="sans-serif" font-size="13" font-weight="bold" lengthAdjust="spacing" textLength="166" x="385" y="104.4336">grouped per namespace</text><text fill="#000000" font-family="sans-serif" font-size="13" lengthAdjust="spacing" textLength="4" x="12" y="119.7441">&#160;</text><text fill="#000000" font-family="sans-serif" font-size="13" lengthAdjust="spacing" textLength="229" x="12" y="150.3652">You can click either the namespaces</text><text fill="#000000" font-family="sans-serif" font-size="13" lengthAdjust="spacing" textLength="266" x="12" y="165.6758">or class names for filtering them and their</text><text fill="#000000" font-family="sans-serif" font-size="13" lengthAdjust="spacing" textLength="130" x="12" y="180.9863">direct dependencies.</text><text fill="#000000" font-family="sans-serif" font-size="13" lengthAdjust="spacing" textLength="4" x="12" y="196.2969">&#160;</text><line style="stroke:#181818;stroke-width:1.0;" x1="7" x2="299.5" y1="130.1416" y2="130.1416"/><line style="stroke:#181818;stroke-width:1.0;" x1="7" x2="299.5" y1="132.1416" y2="132.1416"/><text fill="#000000" font-family="sans-serif" font-size="13" lengthAdjust="spacing" textLength="32" x="299.5" y="134.5547">Filter</text><line style="stroke:#181818;stroke-width:1.0;" x1="331.5" x2="624" y1="130.1416" y2="130.1416"/><line style="stroke:#181818;stroke-width:1.0;" x1="331.5" x2="624" y1="132.1416" y2="132.1416"/><ellipse cx="17.5" cy="226.1602" fill="#000000" rx="2.5" ry="2.5" style="stroke:#000000;stroke-width:0.0;"/><text fill="#000000" font-family="sans-serif" font-size="13" lengthAdjust="spacing" textLength="271" x="24" y="230.918">Examples.BadDesign.BasicExample.Useless</text><text fill="#000000" font-family="sans-serif" font-size="13" font-weight="bold" lengthAdjust="spacing" textLength="55" x="299" y="230.918">detailed</text><text fill="#000000" font-family="sans-serif" font-size="13" lengthAdjust="spacing" textLength="23" x="358" y="230.918">and</text><text fill="#000000" font-family="sans-serif" font-size="13" font-weight="bold" lengthAdjust="spacing" textLength="166" x="385" y="230.918">grouped per namespace</text><text fill="#000000" font-family="sans-serif" font-size="13" lengthAdjust="spacing" textLength="4" x="551" y="230.918">:</text><text fill="#000000" font-family="sans-serif" font-size="13" lengthAdjust="spacing" textLength="12" x="12" y="246.2285">&#160;&#160;&#160;</text><a href="Examples.BadDesign.BasicExample.Useless-diagram-detailed-grouped-per-namespace.svg" target="_top" title="Examples.BadDesign.BasicExample.Useless-diagram-detailed-grouped-per-namespace.svg" xlink:actuate="onRequest" xlink:href="Examples.BadDesign.BasicExample.Useless-diagram-detailed-grouped-per-namespace.svg" xlink:show="new" xlink:title="Examples.BadDesign.BasicExample.Useless-diagram-detailed-grouped-per-namespace.svg" xlink:type="simple"><text fill="#0000FF" font-family="sans-serif" font-size="13" lengthAdjust="spacing" text-decoration="underline" textLength="580" x="24" y="246.2285">Examples.BadDesign.BasicExample.Useless-diagram-detailed-grouped-per-namespace.svg</text></a><ellipse cx="17.5" cy="256.7813" fill="#000000" rx="2.5" ry="2.5" style="stroke:#000000;stroke-width:0.0;"/><text fill="#000000" font-family="sans-serif" font-size="13" lengthAdjust="spacing" textLength="78" x="24" y="261.5391">Full diagram</text><text fill="#000000" font-family="sans-serif" font-size="13" font-weight="bold" lengthAdjust="spacing" textLength="67" x="106" y="261.5391">simplified</text><text fill="#000000" font-family="sans-serif" font-size="13" lengthAdjust="spacing" textLength="23" x="177" y="261.5391">and</text><text fill="#000000" font-family="sans-serif" font-size="13" font-weight="bold" lengthAdjust="spacing" textLength="166" x="204" y="261.5391">grouped per namespace</text><text fill="#000000" font-family="sans-serif" font-size="13" lengthAdjust="spacing" textLength="4" x="370" y="261.5391">:</text><text fill="#000000" font-family="sans-serif" font-size="13" lengthAdjust="spacing" textLength="12" x="12" y="276.8496">&#160;&#160;&#160;</text><a href="full-diagram-simplified-grouped-per-namespace.svg" target="_top" title="full-diagram-simplified-grouped-per-namespace.svg" xlink:actuate="onRequest" xlink:href="full-diagram-simplified-grouped-per-namespace.svg" xlink:show="new" xlink:title="full-diagram-simplified-grouped-per-namespace.svg" xlink:type="simple"><text fill="#0000FF" font-family="sans-serif" font-size="13" lengthAdjust="spacing" text-decoration="underline" textLength="343" x="24" y="276.8496">full-diagram-simplified-grouped-per-namespace.svg</text></a><ellipse cx="17.5" cy="287.4023" fill="#000000" rx="2.5" ry="2.5" style="stroke:#000000;stroke-width:0.0;"/><text fill="#000000" font-family="sans-serif" font-size="13" lengthAdjust="spacing" textLength="41" x="24" y="292.1602">Home:</text><text fill="#000000" font-family="sans-serif" font-size="13" lengthAdjust="spacing" textLength="12" x="12" y="307.4707">&#160;&#160;&#160;</text><a href="index.html" target="_top" title="index.html" xlink:actuate="onRequest" xlink:href="index.html" xlink:show="new" xlink:title="index.html" xlink:type="simple"><text fill="#0000FF" font-family="sans-serif" font-size="13" lengthAdjust="spacing" text-decoration="underline" textLength="68" x="24" y="307.4707">index.html</text></a><line style="stroke:#181818;stroke-width:1.0;" x1="7" x2="278.5" y1="210.6943" y2="210.6943"/><line style="stroke:#181818;stroke-width:1.0;" x1="7" x2="278.5" y1="212.6943" y2="212.6943"/><text fill="#000000" font-family="sans-serif" font-size="13" lengthAdjust="spacing" textLength="74" x="278.5" y="215.1074">Select other</text><line style="stroke:#181818;stroke-width:1.0;" x1="352.5" x2="624" y1="210.6943" y2="210.6943"/><line style="stroke:#181818;stroke-width:1.0;" x1="352.5" x2="624" y1="212.6943" y2="212.6943"/></g><!--link Useless to SideTestEnum--><g id="link_Useless_SideTestEnum"><path codeLine="48" d="M900.5,535.7947 C900.5,535.7947 900.5,589.3947 900.5,589.3947 " fill="none" id="Useless-to-SideTestEnum" style="stroke:#909090;stroke-width:1.0;"/><polygon fill="#909090" points="900.5,594.3947,904.5,585.3947,900.5,589.3947,896.5,585.3947,900.5,594.3947" style="stroke:#909090;stroke-width:1.0;"/><text fill="#000000" font-family="sans-serif" font-size="13" lengthAdjust="spacing" textLength="29" x="870.5" y="559.163">uses</text></g><!--link IExample to Useless--><g id="link_IExample_Useless"><path codeLine="49" d="M936.59,418.5547 C935.05,418.5547 934.17,418.5547 934.17,418.5547 C934.17,418.5547 934.17,481.1247 934.17,481.1247 " fill="none" id="IExample-to-Useless" style="stroke:#6060BB;stroke-width:1.0;stroke-dasharray:7.0,7.0;"/><polygon fill="#6060BB" points="934.17,486.1247,938.17,477.1247,934.17,481.1247,930.17,477.1247,934.17,486.1247" style="stroke:#6060BB;stroke-width:1.0;"/><text fill="#000000" font-family="sans-serif" font-size="13" lengthAdjust="spacing" textLength="29" x="904.17" y="445.193">uses</text></g><!--reverse link BaseExample to ClassExample--><g id="link_BaseExample_ClassExample"><path codeLine="50" d="M885.91,389.5547 C885.91,389.5547 922.83,389.5547 922.83,389.5547 C922.83,389.5547 922.83,271.7347 922.83,219.7347 " fill="none" id="BaseExample-backto-ClassExample" style="stroke:#FF0000;stroke-width:1.0;"/><polygon fill="none" points="885.91,396.5547,865.91,389.5547,885.91,382.5547,885.91,396.5547" style="stroke:#FF0000;stroke-width:1.0;"/></g><!--link ClassExample to BaseExample--><g id="link_ClassExample_BaseExample"><path codeLine="54" d="M925.67,219.7547 C925.67,273.7947 925.67,399.5547 925.67,399.5547 C925.67,399.5547 870.94,399.5547 870.94,399.5547 " fill="none" id="ClassExample-to-BaseExample" style="stroke:#909090;stroke-width:1.0;"/><polygon fill="#909090" points="865.94,399.5547,874.94,403.5547,870.94,399.5547,874.94,395.5547,865.94,399.5547" style="stroke:#909090;stroke-width:1.0;"/><text fill="#000000" font-family="sans-serif" font-size="13" lengthAdjust="spacing" textLength="29" x="895.67" y="333.583">uses</text></g><!--reverse link ClassExample to ClassExample_DOT_InnerClassExample--><g id="link_ClassExample_ClassExample_DOT_InnerClassExample"><path codeLine="51" d="M1039.5,235.8247 C1039.5,235.8247 1039.5,403.5547 1039.5,403.5547 C1039.5,403.5547 1050.51,403.5547 1067.08,403.5547 " fill="none" id="ClassExample-backto-ClassExample_DOT_InnerClassExample" style="stroke:#10BBBB;stroke-width:1.0;"/><ellipse cx="1039.5" cy="228.8247" fill="#FFFFFF" rx="8" ry="8" style="stroke:#10BBBB;stroke-width:1.0;"/><line style="stroke:#10BBBB;stroke-width:1.0;" x1="1039.5" x2="1039.5" y1="236.8247" y2="220.8247"/><line style="stroke:#10BBBB;stroke-width:1.0;" x1="1031.5" x2="1047.5" y1="228.8247" y2="228.8247"/></g><!--reverse link ClassExample to Useless--><g id="link_ClassExample_Useless"><path codeLine="52" d="M931.33,233.8247 C931.33,233.8247 931.33,487.2047 931.33,487.2047 " fill="none" id="ClassExample-backto-Useless" style="stroke:#10BB10;stroke-width:1.0;"/><polygon fill="#10BB10" points="931.33,220.8247,927.33,226.8247,931.33,232.8247,935.33,226.8247,931.33,220.8247" style="stroke:#10BB10;stroke-width:1.0;"/></g><!--link ClassExample to Useless--><g id="link_ClassExample_Useless"><path codeLine="53" d="M928.5,219.8247 C928.5,219.8247 928.5,481.2047 928.5,481.2047 " fill="none" id="ClassExample-to-Useless" style="stroke:#6060BB;stroke-width:1.0;stroke-dasharray:7.0,7.0;"/><polygon fill="#6060BB" points="928.5,486.2047,932.5,477.2047,928.5,481.2047,924.5,477.2047,928.5,486.2047" style="stroke:#6060BB;stroke-width:1.0;"/><text fill="#000000" font-family="sans-serif" font-size="13" lengthAdjust="spacing" textLength="29" x="898.5" y="364.083">uses</text></g><!--link ClassExample to IExample--><g id="link_ClassExample_IExample"><path codeLine="55" d="M984.5,219.8247 C984.5,219.8247 984.5,373.1247 984.5,373.1247 " fill="none" id="ClassExample-to-IExample" style="stroke:#6060BB;stroke-width:1.0;stroke-dasharray:7.0,7.0;"/><polygon fill="#6060BB" points="984.5,378.1247,988.5,369.1247,984.5,373.1247,980.5,369.1247,984.5,378.1247" style="stroke:#6060BB;stroke-width:1.0;"/><text fill="#000000" font-family="sans-serif" font-size="13" lengthAdjust="spacing" textLength="29" x="954.5" y="293.043">uses</text></g><!--link AbstractBaseExample to Useless--><g id="link_AbstractBaseExample_Useless"><path codeLine="56" d="M878.17,219.8247 C878.17,219.8247 878.17,481.2047 878.17,481.2047 " fill="none" id="AbstractBaseExample-to-Useless" style="stroke:#6060BB;stroke-width:1.0;stroke-dasharray:7.0,7.0;"/><polygon fill="#6060BB" points="878.17,486.2047,882.17,477.2047,878.17,481.2047,874.17,477.2047,878.17,486.2047" style="stroke:#6060BB;stroke-width:1.0;"/><text fill="#000000" font-family="sans-serif" font-size="13" lengthAdjust="spacing" textLength="29" x="848.17" y="347.083">uses</text></g><!--reverse link AbstractBaseExample to BaseExample--><g id="link_AbstractBaseExample_BaseExample"><path codeLine="57" d="M803.5,240.8247 C803.5,240.8247 803.5,379.1247 803.5,379.1247 " fill="none" id="AbstractBaseExample-backto-BaseExample" style="stroke:#FF0000;stroke-width:1.0;"/><polygon fill="none" points="796.5,240.8247,803.5,220.8247,810.5,240.8247,796.5,240.8247" style="stroke:#FF0000;stroke-width:1.0;"/></g><!--link BaseExample to Useless--><g id="link_BaseExample_Useless"><path codeLine="58" d="M864.83,408.5547 C868.85,408.5547 871.33,408.5547 871.33,408.5547 C871.33,408.5547 871.33,481.1447 871.33,481.1447 " fill="none" id="BaseExample-to-Useless" style="stroke:#6060BB;stroke-width:1.0;stroke-dasharray:7.0,7.0;"/><polygon fill="#6060BB" points="871.33,486.1447,875.33,477.1447,871.33,481.1447,867.33,477.1447,871.33,486.1447" style="stroke:#6060BB;stroke-width:1.0;"/><text fill="#000000" font-family="sans-serif" font-size="13" lengthAdjust="spacing" textLength="29" x="841.33" y="455.163">uses</text></g><!--SRC=[xLPBRzf04BxxLup28P8hkwI7I4K1gNcfkQI7f8SABBInnx3AUjVQjVDgyzyxfWQC0cAN0BaKa6LsP-RxPdPcPymzbpdJB0F19HRFEOBInLXv1Iy4medXBzZvqkvTFB4i5sZ2KvQSe-4ZIM-6n_Lw-DCWxHhmVSDfWQSS4zy79XDQ6cbLvfX0ZXeaoz3aB4RVF_bSMUzvKXK81xzKgO5f91qcdb-u77K6SXUm0pcGtUub5mNgRdSW2HXY9Y4MFBu7vCMOvEanrp4ma4gJ02EeoIgaz3-Tc22YbNGs0QKNhWSouHhZ0XBCKIOeOquU_8Ez8RwqeogG2jm7UnSJB1WNwnsak050lszfEKWu6r4615FxGMqt8Bl1p6ve7aPHL36-B8M0MiafybDYAHcOeSxLr-5-LnbEJN2AwrCuBZ8HHGV035mAnGewYsjA9c-cF8jk8noEoF1xYRbvI9V6URiG2wUs_bpTmIcYTNBR9gDxSbcIQJsZ4Egn9lKwUN99PPPQn2QyiWxIJDILu08pkw2TLLBsp9hYxsB7xaoX6TqsTZI_rUAqYFPibsZj8QHk7FVBhNb-m_CVjyChAL6_8md2DmOszkBmJ6NKxkbg_iWB1nwfoGBvKm1T4XbAQeWfr0pXJ2XJDLL6NIRN-C1LQOQcl1lEx0m59zMv1zTA8jnXp4g3LLUkPmZ33T0lvPARCIPXm_PSj-c8zxf2fFPwnVuqFBJzl_7i1ZoyuOb3mJUaD-k6jhNU09gytw8fBcIPkN5SKDsmjZUixZq6TdNLVqJTDpnPMVRRl1dWaEPYgm_iJBQYM6MrHa6pif86y6dIl2bZKgsoEVCEoQx91SzsLWpwhQ_jwXi5lSqB2Zf0fsp0ivu1mtxhk7tSFZsDmfxrO6iDqvn0JlwGZrHsKU0q77XEW-CdmZWYRyYVO1ipY1kwNwCVjItGfy5qWzZjUIr0EQLaywGtWtFoxCePQzdWljjWBaDqA8A6cbETxIz3texSxmJVwjNRl2N_0W00]--></g></svg>