<?xml version="1.0" encoding="us-ascii" standalone="no"?><svg xmlns="http://www.w3.org/2000/svg" xmlns:xlink="http://www.w3.org/1999/xlink" contentStyleType="text/css" height="891px" preserveAspectRatio="none" style="width:3447px;height:891px;background:#FFFFFF;" version="1.1" viewBox="0 0 3447 891" width="3447px" zoomAndPan="magnify"><defs/><g><text fill="#000000" font-family="sans-serif" font-size="20" font-weight="bold" lengthAdjust="spacing" textLength="443" x="1446" y="29.3359">Examples.BadDesign.BasicExample.Useless</text><text fill="#000000" font-family="sans-serif" font-size="20" font-weight="bold" lengthAdjust="spacing" textLength="84" x="1896" y="29.3359">detailed</text><text fill="#000000" font-family="sans-serif" font-size="20" font-weight="bold" lengthAdjust="spacing" textLength="7" x="1980" y="29.3359">&#160;</text><!--cluster Examples--><g id="cluster_Examples"><path d="M490.5,50.5547 L559.5,50.5547 A3.75,3.75 0 0 1 562,53.0547 L569,73.043 L3437.5,73.043 A2.5,2.5 0 0 1 3440,75.543 L3440,881.5547 A2.5,2.5 0 0 1 3437.5,884.0547 L490.5,884.0547 A2.5,2.5 0 0 1 488,881.5547 L488,53.0547 A2.5,2.5 0 0 1 490.5,50.5547 " fill="none" style="stroke:#000000;stroke-width:1.5;"/><line style="stroke:#000000;stroke-width:1.5;" x1="488" x2="569" y1="73.043" y2="73.043"/><text fill="#000000" font-family="sans-serif" font-size="14" font-weight="bold" lengthAdjust="spacing" textLength="68" x="492" y="66.0898">Examples</text></g><!--cluster BadDesign--><g id="cluster_BadDesign"><path d="M514.5,93.5547 L591.5,93.5547 A3.75,3.75 0 0 1 594,96.0547 L601,116.043 L3413.5,116.043 A2.5,2.5 0 0 1 3416,118.543 L3416,857.5547 A2.5,2.5 0 0 1 3413.5,860.0547 L514.5,860.0547 A2.5,2.5 0 0 1 512,857.5547 L512,96.0547 A2.5,2.5 0 0 1 514.5,93.5547 " fill="none" style="stroke:#000000;stroke-width:1.5;"/><line style="stroke:#000000;stroke-width:1.5;" x1="512" x2="601" y1="116.043" y2="116.043"/><text fill="#000000" font-family="sans-serif" font-size="14" font-weight="bold" lengthAdjust="spacing" textLength="76" x="516" y="109.0898">BadDesign</text></g><!--cluster BasicExample--><g id="cluster_BasicExample"><path d="M538.5,136.5547 L636.5,136.5547 A3.75,3.75 0 0 1 639,139.0547 L646,159.043 L3389.5,159.043 A2.5,2.5 0 0 1 3392,161.543 L3392,833.5547 A2.5,2.5 0 0 1 3389.5,836.0547 L538.5,836.0547 A2.5,2.5 0 0 1 536,833.5547 L536,139.0547 A2.5,2.5 0 0 1 538.5,136.5547 " fill="none" style="stroke:#000000;stroke-width:1.5;"/><line style="stroke:#000000;stroke-width:1.5;" x1="536" x2="646" y1="159.043" y2="159.043"/><text fill="#000000" font-family="sans-serif" font-size="14" font-weight="bold" lengthAdjust="spacing" textLength="97" x="540" y="152.0898">BasicExample</text></g><!--cluster SideExample--><g id="cluster_SideExample"><path d="M1636.5,680.0547 L1727.5,680.0547 A3.75,3.75 0 0 1 1730,682.5547 L1737,702.543 L1965.5,702.543 A2.5,2.5 0 0 1 1968,705.043 L1968,809.5547 A2.5,2.5 0 0 1 1965.5,812.0547 L1636.5,812.0547 A2.5,2.5 0 0 1 1634,809.5547 L1634,682.5547 A2.5,2.5 0 0 1 1636.5,680.0547 " fill="none" style="stroke:#000000;stroke-width:1.5;"/><line style="stroke:#000000;stroke-width:1.5;" x1="1634" x2="1737" y1="702.543" y2="702.543"/><text fill="#000000" font-family="sans-serif" font-size="14" font-weight="bold" lengthAdjust="spacing" textLength="90" x="1638" y="695.5898">SideExample</text></g><!--class Useless--><a href="Examples.BadDesign.BasicExample.Useless-diagram-detailed.svg" target="_top" title="Examples.BadDesign.BasicExample.Useless-diagram-detailed.svg" xlink:actuate="onRequest" xlink:href="Examples.BadDesign.BasicExample.Useless-diagram-detailed.svg" xlink:show="new" xlink:title="Examples.BadDesign.BasicExample.Useless-diagram-detailed.svg" xlink:type="simple"><g id="elem_Useless"><rect codeLine="4" fill="#FFFF00" height="80.9766" id="Useless" rx="2.5" ry="2.5" style="stroke:#181818;stroke-width:0.5;" width="584" x="1509" y="574.0547"/><ellipse cx="1771.25" cy="590.0547" fill="#ADD1B2" rx="11" ry="11" style="stroke:#181818;stroke-width:1.0;"/><path d="M1773.7231,596.1978 Q1773.1421,596.4966 1772.5029,596.646 Q1771.8638,596.7954 1771.1582,596.7954 Q1768.6514,596.7954 1767.3315,595.1436 Q1766.0117,593.4917 1766.0117,590.3706 Q1766.0117,587.2412 1767.3315,585.5894 Q1768.6514,583.9375 1771.1582,583.9375 Q1771.8638,583.9375 1772.5112,584.0869 Q1773.1587,584.2363 1773.7231,584.5352 L1773.7231,587.2578 Q1773.0923,586.6768 1772.4988,586.407 Q1771.9053,586.1372 1771.2744,586.1372 Q1769.9297,586.1372 1769.2449,587.2039 Q1768.5601,588.2705 1768.5601,590.3706 Q1768.5601,592.4624 1769.2449,593.5291 Q1769.9297,594.5957 1771.2744,594.5957 Q1771.9053,594.5957 1772.4988,594.3259 Q1773.0923,594.0562 1773.7231,593.4751 Z " fill="#000000"/><text fill="#000000" font-family="sans-serif" font-size="14" lengthAdjust="spacing" textLength="51" x="1791.75" y="595.3457">Useless</text><line style="stroke:#181818;stroke-width:0.5;" x1="1510" x2="2092" y1="606.0547" y2="606.0547"/><ellipse cx="1520" cy="619.7988" fill="#84BE84" rx="3" ry="3" style="stroke:#038048;stroke-width:1.0;"/><text fill="#000000" font-family="sans-serif" font-size="14" lengthAdjust="spacing" textLength="55" x="1529" y="623.5898">useless(</text><text fill="#000000" font-family="sans-serif" font-size="14" lengthAdjust="spacing" textLength="9" x="1584" y="623.5898">):</text><text fill="#BB6060" font-family="sans-serif" font-size="14" lengthAdjust="spacing" textLength="29" x="1597" y="623.5898">void</text><rect fill="none" height="6" style="stroke:#C82930;stroke-width:1.0;" width="6" x="1517" y="633.2871"/><text fill="#909090" font-family="sans-serif" font-size="14" lengthAdjust="spacing" textLength="558" x="1529" y="640.0781">useless.testEnum: Examples.BadDesign.BasicExample.SideExample.SideTestEnum</text><line style="stroke:#181818;stroke-width:1.0;" x1="1510" x2="2092" y1="647.0313" y2="647.0313"/></g></a><!--class IExample--><a href="Examples.BadDesign.BasicExample.IExample-diagram-detailed.svg" target="_top" title="Examples.BadDesign.BasicExample.IExample-diagram-detailed.svg" xlink:actuate="onRequest" xlink:href="Examples.BadDesign.BasicExample.IExample-diagram-detailed.svg" xlink:show="new" xlink:title="Examples.BadDesign.BasicExample.IExample-diagram-detailed.svg" xlink:type="simple"><g id="elem_IExample"><rect codeLine="9" fill="#F1F1F1" height="64.4883" id="IExample" rx="2.5" ry="2.5" style="stroke:#181818;stroke-width:0.5;" width="854" x="1837" y="441.5547"/><ellipse cx="2228.25" cy="457.5547" fill="#B4A7E5" rx="11" ry="11" style="stroke:#181818;stroke-width:1.0;"/><path d="M2224.6777,453.8198 L2224.6777,451.6616 L2232.0571,451.6616 L2232.0571,453.8198 L2229.5918,453.8198 L2229.5918,461.8965 L2232.0571,461.8965 L2232.0571,464.0547 L2224.6777,464.0547 L2224.6777,461.8965 L2227.1431,461.8965 L2227.1431,453.8198 Z " fill="#000000"/><text fill="#000000" font-family="sans-serif" font-size="14" font-style="italic" lengthAdjust="spacing" textLength="63" x="2248.75" y="462.8457">IExample</text><line style="stroke:#181818;stroke-width:0.5;" x1="1838" x2="2690" y1="473.5547" y2="473.5547"/><line style="stroke:#181818;stroke-width:0.5;" x1="1838" x2="2690" y1="481.5547" y2="481.5547"/><ellipse cx="1848" cy="495.2988" fill="#84BE84" rx="3" ry="3" style="stroke:#038048;stroke-width:1.0;"/><text fill="#000000" font-family="sans-serif" font-size="14" lengthAdjust="spacing" textLength="64" x="1857" y="499.0898">example(</text><text fill="#6060BB" font-family="sans-serif" font-size="14" lengthAdjust="spacing" textLength="722" x="1921" y="499.0898">useless1:Examples.BadDesign.BasicExample.Useless, useless2:Examples.BadDesign.BasicExample.Useless</text><text fill="#000000" font-family="sans-serif" font-size="14" lengthAdjust="spacing" textLength="9" x="2643" y="499.0898">):</text><text fill="#BB6060" font-family="sans-serif" font-size="14" lengthAdjust="spacing" textLength="29" x="2656" y="499.0898">void</text></g></a><!--class ClassExample--><a href="Examples.BadDesign.BasicExample.ClassExample-diagram-detailed.svg" target="_top" title="Examples.BadDesign.BasicExample.ClassExample-diagram-detailed.svg" xlink:actuate="onRequest" xlink:href="Examples.BadDesign.BasicExample.ClassExample-diagram-detailed.svg" xlink:show="new" xlink:title="Examples.BadDesign.BasicExample.ClassExample-diagram-detailed.svg" xlink:type="simple"><g id="elem_ClassExample"><rect codeLine="12" fill="#F1F1F1" height="154.9297" id="ClassExample" rx="2.5" ry="2.5" style="stroke:#181818;stroke-width:0.5;" width="1176" x="1763" y="171.5547"/><ellipse cx="2299.25" cy="187.5547" fill="#ADD1B2" rx="11" ry="11" style="stroke:#181818;stroke-width:1.0;"/><path d="M2301.7231,193.6978 Q2301.1421,193.9966 2300.5029,194.146 Q2299.8638,194.2954 2299.1582,194.2954 Q2296.6514,194.2954 2295.3315,192.6436 Q2294.0117,190.9917 2294.0117,187.8706 Q2294.0117,184.7412 2295.3315,183.0894 Q2296.6514,181.4375 2299.1582,181.4375 Q2299.8638,181.4375 2300.5112,181.5869 Q2301.1587,181.7363 2301.7231,182.0352 L2301.7231,184.7578 Q2301.0923,184.1768 2300.4988,183.907 Q2299.9053,183.6372 2299.2744,183.6372 Q2297.9297,183.6372 2297.2449,184.7039 Q2296.5601,185.7705 2296.5601,187.8706 Q2296.5601,189.9624 2297.2449,191.0291 Q2297.9297,192.0957 2299.2744,192.0957 Q2299.9053,192.0957 2300.4988,191.8259 Q2301.0923,191.5562 2301.7231,190.9751 Z " fill="#000000"/><text fill="#000000" font-family="sans-serif" font-size="14" lengthAdjust="spacing" textLength="95" x="2319.75" y="192.8457">ClassExample</text><line style="stroke:#181818;stroke-width:0.5;" x1="1764" x2="2938" y1="203.5547" y2="203.5547"/><ellipse cx="1774" cy="217.2988" fill="none" rx="3" ry="3" style="stroke:#038048;stroke-width:1.0;"/><text fill="#000000" font-family="sans-serif" font-size="14" lengthAdjust="spacing" textLength="433" x="1783" y="221.0898">memberVarUseless: Examples.BadDesign.BasicExample.Useless</text><ellipse cx="1774" cy="233.7871" fill="none" rx="3" ry="3" style="stroke:#038048;stroke-width:1.0;"/><text fill="#000000" font-family="sans-serif" font-size="14" lengthAdjust="spacing" textLength="561" x="1783" y="237.5781">memberVarEnumTest: Examples.BadDesign.BasicExample.BaseExample.EnumTest</text><line style="stroke:#181818;stroke-width:1.0;" x1="1764" x2="2938" y1="244.5313" y2="244.5313"/><line style="stroke:#181818;stroke-width:1.0;" x1="1764" x2="2938" y1="246.5313" y2="246.5313"/><ellipse cx="1774" cy="258.2754" fill="#84BE84" rx="3" ry="3" style="stroke:#038048;stroke-width:1.0;"/><text fill="#000000" font-family="sans-serif" font-size="14" lengthAdjust="spacing" textLength="64" x="1783" y="262.0664">example(</text><text fill="#6060BB" font-family="sans-serif" font-size="14" lengthAdjust="spacing" textLength="722" x="1847" y="262.0664">useless1:Examples.BadDesign.BasicExample.Useless, useless2:Examples.BadDesign.BasicExample.Useless</text><text fill="#000000" font-family="sans-serif" font-size="14" lengthAdjust="spacing" textLength="9" x="2569" y="262.0664">):</text><text fill="#BB6060" font-family="sans-serif" font-size="14" lengthAdjust="spacing" textLength="29" x="2582" y="262.0664">void</text><rect fill="none" height="6" style="stroke:#C82930;stroke-width:1.0;" width="6" x="1771" y="271.7637"/><text fill="#909090" font-family="sans-serif" font-size="14" lengthAdjust="spacing" textLength="549" x="1783" y="278.5547">example.localVarBaseExample: Examples.BadDesign.BasicExample.BaseExample</text><line style="stroke:#181818;stroke-width:1.0;" x1="1764" x2="2938" y1="285.5078" y2="285.5078"/><ellipse cx="1774" cy="299.252" fill="#84BE84" rx="3" ry="3" style="stroke:#038048;stroke-width:1.0;"/><text fill="#000000" font-family="sans-serif" font-size="14" lengthAdjust="spacing" textLength="86" x="1783" y="303.043">getExample(</text><text fill="#000000" font-family="sans-serif" font-size="14" lengthAdjust="spacing" textLength="9" x="1869" y="303.043">):</text><text fill="#BB6060" font-family="sans-serif" font-size="14" lengthAdjust="spacing" textLength="306" x="1882" y="303.043">Examples.BadDesign.BasicExample.IExample</text><ellipse cx="1774" cy="315.7402" fill="#84BE84" rx="3" ry="3" style="stroke:#038048;stroke-width:1.0;"/><text fill="#000000" font-family="sans-serif" font-size="14" lengthAdjust="spacing" textLength="121" x="1783" y="319.5313">exampleAbstract(</text><text fill="#6060BB" font-family="sans-serif" font-size="14" lengthAdjust="spacing" textLength="722" x="1904" y="319.5313">useless1:Examples.BadDesign.BasicExample.Useless, useless2:Examples.BadDesign.BasicExample.Useless</text><text fill="#000000" font-family="sans-serif" font-size="14" lengthAdjust="spacing" textLength="9" x="2626" y="319.5313">):</text><text fill="#BB6060" font-family="sans-serif" font-size="14" lengthAdjust="spacing" textLength="294" x="2639" y="319.5313">Examples.BadDesign.BasicExample.Useless</text></g></a><!--class AbstractBaseExample--><a href="Examples.BadDesign.BasicExample.AbstractBaseExample-diagram-detailed.svg" target="_top" title="Examples.BadDesign.BasicExample.AbstractBaseExample-diagram-detailed.svg" xlink:actuate="onRequest" xlink:href="Examples.BadDesign.BasicExample.AbstractBaseExample-diagram-detailed.svg" xlink:show="new" xlink:title="Examples.BadDesign.BasicExample.AbstractBaseExample-diagram-detailed.svg" xlink:type="simple"><g id="elem_AbstractBaseExample"><rect codeLine="22" fill="#F1F1F1" height="64.4883" id="AbstractBaseExample" rx="2.5" ry="2.5" style="stroke:#181818;stroke-width:0.5;" width="1176" x="552" y="217.0547"/><ellipse cx="1062.25" cy="233.0547" fill="#A9DCDF" rx="11" ry="11" style="stroke:#181818;stroke-width:1.0;"/><path d="M1062.1133,228.4028 L1060.9595,233.4746 L1063.2754,233.4746 Z M1060.6191,226.1616 L1063.6157,226.1616 L1066.9609,238.5547 L1064.5122,238.5547 L1063.7485,235.4917 L1060.4697,235.4917 L1059.7227,238.5547 L1057.2739,238.5547 Z " fill="#000000"/><text fill="#000000" font-family="sans-serif" font-size="14" font-style="italic" lengthAdjust="spacing" textLength="147" x="1082.75" y="238.3457">AbstractBaseExample</text><line style="stroke:#181818;stroke-width:0.5;" x1="553" x2="1727" y1="249.0547" y2="249.0547"/><line style="stroke:#181818;stroke-width:0.5;" x1="553" x2="1727" y1="257.0547" y2="257.0547"/><ellipse cx="563" cy="270.7988" fill="#84BE84" rx="3" ry="3" style="stroke:#038048;stroke-width:1.0;"/><text fill="#000000" font-family="sans-serif" font-size="14" lengthAdjust="spacing" textLength="121" x="572" y="274.5898">exampleAbstract(</text><text fill="#6060BB" font-family="sans-serif" font-size="14" lengthAdjust="spacing" textLength="722" x="693" y="274.5898">useless1:Examples.BadDesign.BasicExample.Useless, useless2:Examples.BadDesign.BasicExample.Useless</text><text fill="#000000" font-family="sans-serif" font-size="14" lengthAdjust="spacing" textLength="9" x="1415" y="274.5898">):</text><text fill="#BB6060" font-family="sans-serif" font-size="14" lengthAdjust="spacing" textLength="294" x="1428" y="274.5898">Examples.BadDesign.BasicExample.Useless</text></g></a><!--class BaseExample--><a href="Examples.BadDesign.BasicExample.BaseExample-diagram-detailed.svg" target="_top" title="Examples.BadDesign.BasicExample.BaseExample-diagram-detailed.svg" xlink:actuate="onRequest" xlink:href="Examples.BadDesign.BasicExample.BaseExample-diagram-detailed.svg" xlink:show="new" xlink:title="Examples.BadDesign.BasicExample.BaseExample-diagram-detailed.svg" xlink:type="simple"><g id="elem_BaseExample"><rect codeLine="25" fill="#F1F1F1" height="80.9766" id="BaseExample" rx="2.5" ry="2.5" style="stroke:#181818;stroke-width:0.5;" width="1176" x="589" y="433.0547"/><ellipse cx="1127.75" cy="449.0547" fill="#ADD1B2" rx="11" ry="11" style="stroke:#181818;stroke-width:1.0;"/><path d="M1130.2231,455.1978 Q1129.6421,455.4966 1129.0029,455.646 Q1128.3638,455.7954 1127.6582,455.7954 Q1125.1514,455.7954 1123.8315,454.1436 Q1122.5117,452.4917 1122.5117,449.3706 Q1122.5117,446.2412 1123.8315,444.5894 Q1125.1514,442.9375 1127.6582,442.9375 Q1128.3638,442.9375 1129.0112,443.0869 Q1129.6587,443.2363 1130.2231,443.5352 L1130.2231,446.2578 Q1129.5923,445.6768 1128.9988,445.407 Q1128.4053,445.1372 1127.7744,445.1372 Q1126.4297,445.1372 1125.7449,446.2039 Q1125.0601,447.2705 1125.0601,449.3706 Q1125.0601,451.4624 1125.7449,452.5291 Q1126.4297,453.5957 1127.7744,453.5957 Q1128.4053,453.5957 1128.9988,453.3259 Q1129.5923,453.0562 1130.2231,452.4751 Z " fill="#000000"/><text fill="#000000" font-family="sans-serif" font-size="14" lengthAdjust="spacing" textLength="90" x="1148.25" y="454.3457">BaseExample</text><line style="stroke:#181818;stroke-width:0.5;" x1="590" x2="1764" y1="465.0547" y2="465.0547"/><line style="stroke:#181818;stroke-width:0.5;" x1="590" x2="1764" y1="473.0547" y2="473.0547"/><ellipse cx="600" cy="486.7988" fill="#84BE84" rx="3" ry="3" style="stroke:#038048;stroke-width:1.0;"/><text fill="#000000" font-family="sans-serif" font-size="14" lengthAdjust="spacing" textLength="121" x="609" y="490.5898">exampleAbstract(</text><text fill="#6060BB" font-family="sans-serif" font-size="14" lengthAdjust="spacing" textLength="722" x="730" y="490.5898">useless1:Examples.BadDesign.BasicExample.Useless, useless2:Examples.BadDesign.BasicExample.Useless</text><text fill="#000000" font-family="sans-serif" font-size="14" lengthAdjust="spacing" textLength="9" x="1452" y="490.5898">):</text><text fill="#BB6060" font-family="sans-serif" font-size="14" lengthAdjust="spacing" textLength="294" x="1465" y="490.5898">Examples.BadDesign.BasicExample.Useless</text><ellipse cx="600" cy="503.2871" fill="#84BE84" rx="3" ry="3" style="stroke:#038048;stroke-width:1.0;"/><text fill="#000000" font-family="sans-serif" font-size="14" lengthAdjust="spacing" textLength="101" x="609" y="507.0781">otherExample(</text><text fill="#000000" font-family="sans-serif" font-size="14" lengthAdjust="spacing" textLength="9" x="710" y="507.0781">):</text><text fill="#BB6060" font-family="sans-serif" font-size="14" lengthAdjust="spacing" textLength="29" x="723" y="507.0781">void</text></g></a><!--class ClassExample_DOT_InnerClassExample--><a href="Examples.BadDesign.BasicExample.ClassExample.InnerClassExample-diagram-detailed.svg" target="_top" title="Examples.BadDesign.BasicExample.ClassExample.InnerClassExample-diagram-detailed.svg" xlink:actuate="onRequest" xlink:href="Examples.BadDesign.BasicExample.ClassExample.InnerClassExample-diagram-detailed.svg" xlink:show="new" xlink:title="Examples.BadDesign.BasicExample.ClassExample.InnerClassExample-diagram-detailed.svg" xlink:type="simple"><g id="elem_ClassExample_DOT_InnerClassExample"><rect codeLine="29" fill="#F1F1F1" height="64.4883" id="ClassExample_DOT_InnerClassExample" rx="2.5" ry="2.5" style="stroke:#181818;stroke-width:0.5;" width="650" x="2726" y="441.5547"/><ellipse cx="2911.75" cy="457.5547" fill="#ADD1B2" rx="11" ry="11" style="stroke:#181818;stroke-width:1.0;"/><path d="M2914.2231,463.6978 Q2913.6421,463.9966 2913.0029,464.146 Q2912.3638,464.2954 2911.6582,464.2954 Q2909.1514,464.2954 2907.8315,462.6436 Q2906.5117,460.9917 2906.5117,457.8706 Q2906.5117,454.7412 2907.8315,453.0894 Q2909.1514,451.4375 2911.6582,451.4375 Q2912.3638,451.4375 2913.0112,451.5869 Q2913.6587,451.7363 2914.2231,452.0352 L2914.2231,454.7578 Q2913.5923,454.1768 2912.9988,453.907 Q2912.4053,453.6372 2911.7744,453.6372 Q2910.4297,453.6372 2909.7449,454.7039 Q2909.0601,455.7705 2909.0601,457.8706 Q2909.0601,459.9624 2909.7449,461.0291 Q2910.4297,462.0957 2911.7744,462.0957 Q2912.4053,462.0957 2912.9988,461.8259 Q2913.5923,461.5562 2914.2231,460.9751 Z " fill="#000000"/><text fill="#000000" font-family="sans-serif" font-size="14" lengthAdjust="spacing" textLength="270" x="2932.25" y="462.8457">ClassExample_DOT_InnerClassExample</text><line style="stroke:#181818;stroke-width:0.5;" x1="2727" x2="3375" y1="473.5547" y2="473.5547"/><line style="stroke:#181818;stroke-width:0.5;" x1="2727" x2="3375" y1="481.5547" y2="481.5547"/><ellipse cx="2737" cy="495.2988" fill="#84BE84" rx="3" ry="3" style="stroke:#038048;stroke-width:1.0;"/><text fill="#000000" font-family="sans-serif" font-size="14" lengthAdjust="spacing" textLength="225" x="2746" y="499.0898">methodClassInnerClassExample(</text><text fill="#6060BB" font-family="sans-serif" font-size="14" lengthAdjust="spacing" textLength="357" x="2971" y="499.0898">useless1:Examples.BadDesign.BasicExample.Useless</text><text fill="#000000" font-family="sans-serif" font-size="14" lengthAdjust="spacing" textLength="9" x="3328" y="499.0898">):</text><text fill="#BB6060" font-family="sans-serif" font-size="14" lengthAdjust="spacing" textLength="29" x="3341" y="499.0898">void</text></g></a><!--class SideTestEnum--><a href="Examples.BadDesign.BasicExample.SideExample.SideTestEnum-diagram-detailed.svg" target="_top" title="Examples.BadDesign.BasicExample.SideExample.SideTestEnum-diagram-detailed.svg" xlink:actuate="onRequest" xlink:href="Examples.BadDesign.BasicExample.SideExample.SideTestEnum-diagram-detailed.svg" xlink:show="new" xlink:title="Examples.BadDesign.BasicExample.SideExample.SideTestEnum-diagram-detailed.svg" xlink:type="simple"><g id="elem_SideTestEnum"><rect codeLine="32" fill="#F1F1F1" height="80.9766" id="SideTestEnum" rx="2.5" ry="2.5" style="stroke:#181818;stroke-width:0.5;" width="302" x="1650" y="715.0547"/><ellipse cx="1748.25" cy="731.0547" fill="#ADD1B2" rx="11" ry="11" style="stroke:#181818;stroke-width:1.0;"/><path d="M1750.7231,737.1978 Q1750.1421,737.4966 1749.5029,737.646 Q1748.8638,737.7954 1748.1582,737.7954 Q1745.6514,737.7954 1744.3315,736.1436 Q1743.0117,734.4917 1743.0117,731.3706 Q1743.0117,728.2412 1744.3315,726.5894 Q1745.6514,724.9375 1748.1582,724.9375 Q1748.8638,724.9375 1749.5112,725.0869 Q1750.1587,725.2363 1750.7231,725.5352 L1750.7231,728.2578 Q1750.0923,727.6768 1749.4988,727.407 Q1748.9053,727.1372 1748.2744,727.1372 Q1746.9297,727.1372 1746.2449,728.2039 Q1745.5601,729.2705 1745.5601,731.3706 Q1745.5601,733.4624 1746.2449,734.5291 Q1746.9297,735.5957 1748.2744,735.5957 Q1748.9053,735.5957 1749.4988,735.3259 Q1750.0923,735.0562 1750.7231,734.4751 Z " fill="#000000"/><text fill="#000000" font-family="sans-serif" font-size="14" lengthAdjust="spacing" textLength="97" x="1768.75" y="736.3457">SideTestEnum</text><line style="stroke:#181818;stroke-width:0.5;" x1="1651" x2="1951" y1="747.0547" y2="747.0547"/><ellipse cx="1661" cy="760.7988" fill="none" rx="3" ry="3" style="stroke:#038048;stroke-width:1.0;"/><text fill="#000000" font-family="sans-serif" font-size="14" lengthAdjust="spacing" textLength="276" x="1670" y="764.5898">TestEnumValue1: EnumTypePlaceHolder</text><ellipse cx="1661" cy="777.2871" fill="none" rx="3" ry="3" style="stroke:#038048;stroke-width:1.0;"/><text fill="#000000" font-family="sans-serif" font-size="14" lengthAdjust="spacing" textLength="276" x="1670" y="781.0781">TestEnumValue2: EnumTypePlaceHolder</text><line style="stroke:#181818;stroke-width:1.0;" x1="1651" x2="1951" y1="788.0313" y2="788.0313"/><line style="stroke:#181818;stroke-width:1.0;" x1="1651" x2="1951" y1="790.0313" y2="790.0313"/></g></a><g id="elem_FloatingNote"><path d="M6,125.0547 L6,372.7129 L472,372.7129 L472,135.0547 L462,125.0547 L6,125.0547 " fill="#FEFFDD" style="stroke:#181818;stroke-width:0.5;"/><path d="M462,125.0547 L462,135.0547 L472,135.0547 L462,125.0547 " fill="#FEFFDD" style="stroke:#181818;stroke-width:1.0;"/><text fill="#000000" font-family="sans-serif" font-size="13" lengthAdjust="spacing" textLength="120" x="12" y="142.623">Your are analyzing:</text><text fill="#000000" font-family="sans-serif" font-size="13" lengthAdjust="spacing" textLength="271" x="12" y="157.9336">Examples.BadDesign.BasicExample.Useless</text><text fill="#000000" font-family="sans-serif" font-size="13" font-weight="bold" lengthAdjust="spacing" textLength="55" x="287" y="157.9336">detailed</text><text fill="#000000" font-family="sans-serif" font-size="13" lengthAdjust="spacing" textLength="4" x="342" y="157.9336">&#160;</text><text fill="#000000" font-family="sans-serif" font-size="13" lengthAdjust="spacing" textLength="4" x="12" y="173.2441">&#160;</text><text fill="#000000" font-family="sans-serif" font-size="13" lengthAdjust="spacing" textLength="229" x="12" y="203.8652">You can click either the namespaces</text><text fill="#000000" font-family="sans-serif" font-size="13" lengthAdjust="spacing" textLength="266" x="12" y="219.1758">or class names for filtering them and their</text><text fill="#000000" font-family="sans-serif" font-size="13" lengthAdjust="spacing" textLength="130" x="12" y="234.4863">direct dependencies.</text><text fill="#000000" font-family="sans-serif" font-size="13" lengthAdjust="spacing" textLength="4" x="12" y="249.7969">&#160;</text><line style="stroke:#181818;stroke-width:1.0;" x1="7" x2="223" y1="183.6416" y2="183.6416"/><line style="stroke:#181818;stroke-width:1.0;" x1="7" x2="223" y1="185.6416" y2="185.6416"/><text fill="#000000" font-family="sans-serif" font-size="13" lengthAdjust="spacing" textLength="32" x="223" y="188.0547">Filter</text><line style="stroke:#181818;stroke-width:1.0;" x1="255" x2="471" y1="183.6416" y2="183.6416"/><line style="stroke:#181818;stroke-width:1.0;" x1="255" x2="471" y1="185.6416" y2="185.6416"/><ellipse cx="17.5" cy="279.6602" fill="#000000" rx="2.5" ry="2.5" style="stroke:#000000;stroke-width:0.0;"/><text fill="#000000" font-family="sans-serif" font-size="13" lengthAdjust="spacing" textLength="271" x="24" y="284.418">Examples.BadDesign.BasicExample.Useless</text><text fill="#000000" font-family="sans-serif" font-size="13" font-weight="bold" lengthAdjust="spacing" textLength="67" x="299" y="284.418">simplified</text><text fill="#000000" font-family="sans-serif" font-size="13" lengthAdjust="spacing" textLength="4" x="370" y="284.418">:</text><text fill="#000000" font-family="sans-serif" font-size="13" lengthAdjust="spacing" textLength="12" x="12" y="299.7285">&#160;&#160;&#160;</text><a href="Examples.BadDesign.BasicExample.Useless-diagram-simplified.svg" target="_top" title="Examples.BadDesign.BasicExample.Useless-diagram-simplified.svg" xlink:actuate="onRequest" xlink:href="Examples.BadDesign.BasicExample.Useless-diagram-simplified.svg" xlink:show="new" xlink:title="Examples.BadDesign.BasicExample.Useless-diagram-simplified.svg" xlink:type="simple"><text fill="#0000FF" font-family="sans-serif" font-size="13" lengthAdjust="spacing" text-decoration="underline" textLength="427" x="24" y="299.7285">Examples.BadDesign.BasicExample.Useless-diagram-simplified.svg</text></a><ellipse cx="17.5" cy="310.2813" fill="#000000" rx="2.5" ry="2.5" style="stroke:#000000;stroke-width:0.0;"/><text fill="#000000" font-family="sans-serif" font-size="13" lengthAdjust="spacing" textLength="78" x="24" y="315.0391">Full diagram</text><text fill="#000000" font-family="sans-serif" font-size="13" font-weight="bold" lengthAdjust="spacing" textLength="55" x="106" y="315.0391">detailed</text><text fill="#000000" font-family="sans-serif" font-size="13" lengthAdjust="spacing" textLength="23" x="165" y="315.0391">and</text><text fill="#000000" font-family="sans-serif" font-size="13" font-weight="bold" lengthAdjust="spacing" textLength="166" x="192" y="315.0391">grouped per namespace</text><text fill="#000000" font-family="sans-serif" font-size="13" lengthAdjust="spacing" textLength="4" x="358" y="315.0391">:</text><text fill="#000000" font-family="sans-serif" font-size="13" lengthAdjust="spacing" textLength="12" x="12" y="330.3496">&#160;&#160;&#160;</text><a href="full-diagram-detailed-grouped-per-namespace.svg" target="_top" title="full-diagram-detailed-grouped-per-namespace.svg" xlink:actuate="onRequest" xlink:href="full-diagram-detailed-grouped-per-namespace.svg" xlink:show="new" xlink:title="full-diagram-detailed-grouped-per-namespace.svg" xlink:type="simple"><text fill="#0000FF" font-family="sans-serif" font-size="13" lengthAdjust="spacing" text-decoration="underline" textLength="330" x="24" y="330.3496">full-diagram-detailed-grouped-per-namespace.svg</text></a><ellipse cx="17.5" cy="340.9023" fill="#000000" rx="2.5" ry="2.5" style="stroke:#000000;stroke-width:0.0;"/><text fill="#000000" font-family="sans-serif" font-size="13" lengthAdjust="spacing" textLength="41" x="24" y="345.6602">Home:</text><text fill="#000000" font-family="sans-serif" font-size="13" lengthAdjust="spacing" textLength="12" x="12" y="360.9707">&#160;&#160;&#160;</text><a href="index.html" target="_top" title="index.html" xlink:actuate="onRequest" xlink:href="index.html" xlink:show="new" xlink:title="index.html" xlink:type="simple"><text fill="#0000FF" font-family="sans-serif" font-size="13" lengthAdjust="spacing" text-decoration="underline" textLength="68" x="24" y="360.9707">index.html</text></a><line style="stroke:#181818;stroke-width:1.0;" x1="7" x2="202" y1="264.1943" y2="264.1943"/><line style="stroke:#181818;stroke-width:1.0;" x1="7" x2="202" y1="266.1943" y2="266.1943"/><text fill="#000000" font-family="sans-serif" font-size="13" lengthAdjust="spacing" textLength="74" x="202" y="268.6074">Select other</text><line style="stroke:#181818;stroke-width:1.0;" x1="276" x2="471" y1="264.1943" y2="264.1943"/><line style="stroke:#181818;stroke-width:1.0;" x1="276" x2="471" y1="266.1943" y2="266.1943"/></g><!--link Useless to SideTestEnum--><g id="link_Useless_SideTestEnum"><path codeLine="42" d="M1801,655.3347 C1801,655.3347 1801,708.8647 1801,708.8647 " fill="none" id="Useless-to-SideTestEnum" style="stroke:#909090;stroke-width:1.0;"/><polygon fill="#909090" points="1801,713.8647,1805,704.8647,1801,708.8647,1797,704.8647,1801,713.8647" style="stroke:#909090;stroke-width:1.0;"/><text fill="#000000" font-family="sans-serif" font-size="13" lengthAdjust="spacing" textLength="29" x="1771" y="678.673">uses</text></g><!--link IExample to Useless--><g id="link_IExample_Useless"><path codeLine="43" d="M1965,505.9047 C1965,505.9047 1965,567.7647 1965,567.7647 " fill="none" id="IExample-to-Useless" style="stroke:#6060BB;stroke-width:1.0;stroke-dasharray:7.0,7.0;"/><polygon fill="#6060BB" points="1965,572.7647,1969,563.7647,1965,567.7647,1961,563.7647,1965,572.7647" style="stroke:#6060BB;stroke-width:1.0;"/><text fill="#000000" font-family="sans-serif" font-size="13" lengthAdjust="spacing" textLength="29" x="1935" y="533.403">uses</text></g><!--reverse link BaseExample to ClassExample--><g id="link_BaseExample_ClassExample"><path codeLine="44" d="M1781.22,438.0547 C1781.22,438.0547 1783,438.0547 1783,438.0547 C1783,438.0547 1783,379.0847 1783,327.0147 " fill="none" id="BaseExample-backto-ClassExample" style="stroke:#FF0000;stroke-width:1.0;"/><polygon fill="none" points="1786.19,445.0547,1766.19,438.0547,1786.19,431.0547,1786.19,445.0547" style="stroke:#FF0000;stroke-width:1.0;"/></g><!--link ClassExample to BaseExample--><g id="link_ClassExample_BaseExample"><path codeLine="48" d="M1762.65,304.0547 C1751.63,304.0547 1745.5,304.0547 1745.5,304.0547 C1745.5,304.0547 1745.5,426.9547 1745.5,426.9547 " fill="none" id="ClassExample-to-BaseExample" style="stroke:#909090;stroke-width:1.0;"/><polygon fill="#909090" points="1745.5,431.9547,1749.5,422.9547,1745.5,426.9547,1741.5,422.9547,1745.5,431.9547" style="stroke:#909090;stroke-width:1.0;"/><text fill="#000000" font-family="sans-serif" font-size="13" lengthAdjust="spacing" textLength="29" x="1715.5" y="353.503">uses</text></g><!--reverse link ClassExample to ClassExample_DOT_InnerClassExample--><g id="link_ClassExample_ClassExample_DOT_InnerClassExample"><path codeLine="45" d="M2832.5,342.9447 C2832.5,342.9447 2832.5,441.1447 2832.5,441.1447 " fill="none" id="ClassExample-backto-ClassExample_DOT_InnerClassExample" style="stroke:#10BBBB;stroke-width:1.0;"/><ellipse cx="2832.5" cy="335.9447" fill="#FFFFFF" rx="8" ry="8" style="stroke:#10BBBB;stroke-width:1.0;"/><line style="stroke:#10BBBB;stroke-width:1.0;" x1="2832.5" x2="2832.5" y1="343.9447" y2="327.9447"/><line style="stroke:#10BBBB;stroke-width:1.0;" x1="2824.5" x2="2840.5" y1="335.9447" y2="335.9447"/></g><!--reverse link ClassExample to Useless--><g id="link_ClassExample_Useless"><path codeLine="46" d="M1819,341.0147 C1819,341.0147 1819,574.0247 1819,574.0247 " fill="none" id="ClassExample-backto-Useless" style="stroke:#10BB10;stroke-width:1.0;"/><polygon fill="#10BB10" points="1819,328.0147,1815,334.0147,1819,340.0147,1823,334.0147,1819,328.0147" style="stroke:#10BB10;stroke-width:1.0;"/></g><!--link ClassExample to Useless--><g id="link_ClassExample_Useless"><path codeLine="47" d="M1801,327.0147 C1801,327.0147 1801,568.0247 1801,568.0247 " fill="none" id="ClassExample-to-Useless" style="stroke:#6060BB;stroke-width:1.0;stroke-dasharray:7.0,7.0;"/><polygon fill="#6060BB" points="1801,573.0247,1805,564.0247,1801,568.0247,1797,564.0247,1801,573.0247" style="stroke:#6060BB;stroke-width:1.0;"/><text fill="#000000" font-family="sans-serif" font-size="13" lengthAdjust="spacing" textLength="29" x="1771" y="444.093">uses</text></g><!--link ClassExample to IExample--><g id="link_ClassExample_IExample"><path codeLine="49" d="M2264,326.9447 C2264,326.9447 2264,435.1447 2264,435.1447 " fill="none" id="ClassExample-to-IExample" style="stroke:#6060BB;stroke-width:1.0;stroke-dasharray:7.0,7.0;"/><polygon fill="#6060BB" points="2264,440.1447,2268,431.1447,2264,435.1447,2260,431.1447,2264,440.1447" style="stroke:#6060BB;stroke-width:1.0;"/><text fill="#000000" font-family="sans-serif" font-size="13" lengthAdjust="spacing" textLength="29" x="2234" y="377.613">uses</text></g><!--link AbstractBaseExample to Useless--><g id="link_AbstractBaseExample_Useless"><path codeLine="50" d="M570.5,281.5347 C570.5,371.1047 570.5,615.0547 570.5,615.0547 C570.5,615.0547 1502.61,615.0547 1502.61,615.0547 " fill="none" id="AbstractBaseExample-to-Useless" style="stroke:#6060BB;stroke-width:1.0;stroke-dasharray:7.0,7.0;"/><polygon fill="#6060BB" points="1507.61,615.0547,1498.61,611.0547,1502.61,615.0547,1498.61,619.0547,1507.61,615.0547" style="stroke:#6060BB;stroke-width:1.0;"/><text fill="#000000" font-family="sans-serif" font-size="13" lengthAdjust="spacing" textLength="29" x="839.79" y="611.623">uses</text></g><!--reverse link AbstractBaseExample to BaseExample--><g id="link_AbstractBaseExample_BaseExample"><path codeLine="51" d="M1158.5,302.2247 C1158.5,302.2247 1158.5,432.6947 1158.5,432.6947 " fill="none" id="AbstractBaseExample-backto-BaseExample" style="stroke:#FF0000;stroke-width:1.0;"/><polygon fill="none" points="1151.5,302.2247,1158.5,282.2247,1165.5,302.2247,1151.5,302.2247" style="stroke:#FF0000;stroke-width:1.0;"/></g><!--link BaseExample to Useless--><g id="link_BaseExample_Useless"><path codeLine="52" d="M1637,514.3347 C1637,514.3347 1637,567.8647 1637,567.8647 " fill="none" id="BaseExample-to-Useless" style="stroke:#6060BB;stroke-width:1.0;stroke-dasharray:7.0,7.0;"/><polygon fill="#6060BB" points="1637,572.8647,1641,563.8647,1637,567.8647,1633,563.8647,1637,572.8647" style="stroke:#6060BB;stroke-width:1.0;"/><text fill="#000000" font-family="sans-serif" font-size="13" lengthAdjust="spacing" textLength="29" x="1607" y="537.673">uses</text></g><!--SRC=[xLVVJzim47xlNt4g3snX2OK7f5Ljf7M0u6MR14EQsWgPv5ei7BjoN0Pi_Eyxfqb9rtPrIfcsQQqKESxTVRxlVjXERxWSCSqI45oYkHyXA6skLSrm8n1QAN_0vduZFBfZoKXW6dHOV8Wf7qeQfJpAvuFFATBN53mlHiEumDZpeBLhrSEQL0QX_aMDDJ2Dm2GJzmzS3fizkPRTdkp9TlkO2uEwtUv9iWmHan097jq0SdED6kW1aYMOZbY4AUaeJGACR6MpCA3tGMQ2LcAb4rfOR0TSzsJCDKO6OXoXZ556d9OuWJsZ1T4NPK4ik0VkFgIS9lY0PrwGzm3GxJgg-p5dGmgK_sGaI6-7_RvTml5O2CW5PhcoFddUKAln26CO4J5JKZolMCA0rAVs2sK_L_99oPygFM6Ug0GB0vn8kWkkJIBw_Jgm58w5OeQ8_K2Xhv58JhqhLTLPALOzMHzitQCGwYjyoy01Tc0yKNZL6YXf8592wNRze77Gw7JgOMlNpeQlcp3pkTEn0lNmLl4u5ydj-RE2RnlsNmzpaC1WQexaE6ckzFYCnrWUd-UQ1PplPuYFsPDBIjS1HM6bsTDyuC1a8RgCoXA7E95Sp67k-rxJCNHlYf3iksfKZD9ZXSHxRwNSEIkBE_2MO7A5-eBft96cQo7CMx2vONDajGbwcMPMeLLhj__IO2ujkToDGAY82IAev7ObZdugEClG4CtHhqXQuO9huSswEGtCkwlKQ1QPFpH0rQoK2fBbVZbMPa53ALGE1Rf0oxs__QlCkn5UZUZ_14-Touw4psaOczh0BWy_db-UIedw6TjQC6V0QQEZkqESASsfRoROQr7eIkAomvW3TSjKLv9cQIk4BvWOunvjMtQxfhlO9q5dlHCbOjJBfFSNIq_tUI9Wcou0JZzuCTbjo381D0gw5YYPKYV8EW3TIGPQ9K-NaYR9hk2wvdgByBjRarD2tm_NZpqqRNz9eUPyvWwwMvFqxWUXyvN76QRSdrlVoKUDST-lr21gbOx3EuInHzwGF_uc-b0rT2z7tsiue1TaLeDusNZDG5LAoNAaruEhvDbfPQn5PxEN9NCHOeKYAAbLghFVbo7ps-upmJVQUijTyWS0]--></g></svg>