<?xml version="1.0" encoding="us-ascii" standalone="no"?><svg xmlns="http://www.w3.org/2000/svg" xmlns:xlink="http://www.w3.org/1999/xlink" contentStyleType="text/css" height="474px" preserveAspectRatio="none" style="width:678px;height:474px;background:#FFFFFF;" version="1.1" viewBox="0 0 678 474" width="678px" zoomAndPan="magnify"><defs/><g><text fill="#000000" font-family="sans-serif" font-size="20" font-weight="bold" lengthAdjust="spacing" textLength="421" x="62.75" y="29.3359">Examples.BadDesign.CarExample.Vehicle</text><text fill="#000000" font-family="sans-serif" font-size="20" font-weight="bold" lengthAdjust="spacing" textLength="104" x="490.75" y="29.3359">simplified</text><text fill="#000000" font-family="sans-serif" font-size="20" font-weight="bold" lengthAdjust="spacing" textLength="7" x="594.75" y="29.3359">&#160;</text><!--cluster Examples--><g id="cluster_Examples"><path d="M464,50.5547 L533,50.5547 A3.75,3.75 0 0 1 535.5,53.0547 L542.5,73.043 L669,73.043 A2.5,2.5 0 0 1 671.5,75.543 L671.5,465.0547 A2.5,2.5 0 0 1 669,467.5547 L464,467.5547 A2.5,2.5 0 0 1 461.5,465.0547 L461.5,53.0547 A2.5,2.5 0 0 1 464,50.5547 " fill="none" style="stroke:#000000;stroke-width:1.5;"/><line style="stroke:#000000;stroke-width:1.5;" x1="461.5" x2="542.5" y1="73.043" y2="73.043"/><text fill="#000000" font-family="sans-serif" font-size="14" font-weight="bold" lengthAdjust="spacing" textLength="68" x="465.5" y="66.0898">Examples</text></g><!--cluster BadDesign--><g id="cluster_BadDesign"><path d="M488,93.5547 L565,93.5547 A3.75,3.75 0 0 1 567.5,96.0547 L574.5,116.043 L645,116.043 A2.5,2.5 0 0 1 647.5,118.543 L647.5,441.0547 A2.5,2.5 0 0 1 645,443.5547 L488,443.5547 A2.5,2.5 0 0 1 485.5,441.0547 L485.5,96.0547 A2.5,2.5 0 0 1 488,93.5547 " fill="none" style="stroke:#000000;stroke-width:1.5;"/><line style="stroke:#000000;stroke-width:1.5;" x1="485.5" x2="574.5" y1="116.043" y2="116.043"/><text fill="#000000" font-family="sans-serif" font-size="14" font-weight="bold" lengthAdjust="spacing" textLength="76" x="489.5" y="109.0898">BadDesign</text></g><!--cluster CarExample--><g id="cluster_CarExample"><path d="M512,136.5547 L597,136.5547 A3.75,3.75 0 0 1 599.5,139.0547 L606.5,159.043 L621,159.043 A2.5,2.5 0 0 1 623.5,161.543 L623.5,233.0547 A2.5,2.5 0 0 1 621,235.5547 L512,235.5547 A2.5,2.5 0 0 1 509.5,233.0547 L509.5,139.0547 A2.5,2.5 0 0 1 512,136.5547 " fill="none" style="stroke:#000000;stroke-width:1.5;"/><line style="stroke:#000000;stroke-width:1.5;" x1="509.5" x2="606.5" y1="159.043" y2="159.043"/><text fill="#000000" font-family="sans-serif" font-size="14" font-weight="bold" lengthAdjust="spacing" textLength="84" x="513.5" y="152.0898">CarExample</text></g><!--class DB--><a href="Examples.BadDesign.DB-diagram-simplified.svg" target="_top" title="Examples.BadDesign.DB-diagram-simplified.svg" xlink:actuate="onRequest" xlink:href="Examples.BadDesign.DB-diagram-simplified.svg" xlink:show="new" xlink:title="Examples.BadDesign.DB-diagram-simplified.svg" xlink:type="simple"><g id="elem_DB"><rect codeLine="4" fill="#F1F1F1" height="48" id="DB" rx="2.5" ry="2.5" style="stroke:#181818;stroke-width:0.5;" width="50" x="541.5" y="379.5547"/><ellipse cx="556.5" cy="395.5547" fill="#ADD1B2" rx="11" ry="11" style="stroke:#181818;stroke-width:1.0;"/><path d="M558.9731,401.6978 Q558.3921,401.9966 557.7529,402.146 Q557.1138,402.2954 556.4082,402.2954 Q553.9014,402.2954 552.5815,400.6436 Q551.2617,398.9917 551.2617,395.8706 Q551.2617,392.7412 552.5815,391.0894 Q553.9014,389.4375 556.4082,389.4375 Q557.1138,389.4375 557.7612,389.5869 Q558.4087,389.7363 558.9731,390.0352 L558.9731,392.7578 Q558.3423,392.1768 557.7488,391.907 Q557.1553,391.6372 556.5244,391.6372 Q555.1797,391.6372 554.4949,392.7039 Q553.8101,393.7705 553.8101,395.8706 Q553.8101,397.9624 554.4949,399.0291 Q555.1797,400.0957 556.5244,400.0957 Q557.1553,400.0957 557.7488,399.8259 Q558.3423,399.5562 558.9731,398.9751 Z " fill="#000000"/><text fill="#000000" font-family="sans-serif" font-size="14" lengthAdjust="spacing" textLength="18" x="570.5" y="400.8457">DB</text><line style="stroke:#181818;stroke-width:0.5;" x1="542.5" x2="590.5" y1="411.5547" y2="411.5547"/><line style="stroke:#181818;stroke-width:0.5;" x1="542.5" x2="590.5" y1="419.5547" y2="419.5547"/></g></a><!--class Vehicle--><a href="Examples.BadDesign.CarExample.Vehicle-diagram-simplified.svg" target="_top" title="Examples.BadDesign.CarExample.Vehicle-diagram-simplified.svg" xlink:actuate="onRequest" xlink:href="Examples.BadDesign.CarExample.Vehicle-diagram-simplified.svg" xlink:show="new" xlink:title="Examples.BadDesign.CarExample.Vehicle-diagram-simplified.svg" xlink:type="simple"><g id="elem_Vehicle"><rect codeLine="6" fill="#FFFF00" height="48" id="Vehicle" rx="2.5" ry="2.5" style="stroke:#181818;stroke-width:0.5;" width="81" x="526" y="171.5547"/><ellipse cx="541" cy="187.5547" fill="#ADD1B2" rx="11" ry="11" style="stroke:#181818;stroke-width:1.0;"/><path d="M543.4731,193.6978 Q542.8921,193.9966 542.2529,194.146 Q541.6138,194.2954 540.9082,194.2954 Q538.4014,194.2954 537.0815,192.6436 Q535.7617,190.9917 535.7617,187.8706 Q535.7617,184.7412 537.0815,183.0894 Q538.4014,181.4375 540.9082,181.4375 Q541.6138,181.4375 542.2612,181.5869 Q542.9087,181.7363 543.4731,182.0352 L543.4731,184.7578 Q542.8423,184.1768 542.2488,183.907 Q541.6553,183.6372 541.0244,183.6372 Q539.6797,183.6372 538.9949,184.7039 Q538.3101,185.7705 538.3101,187.8706 Q538.3101,189.9624 538.9949,191.0291 Q539.6797,192.0957 541.0244,192.0957 Q541.6553,192.0957 542.2488,191.8259 Q542.8423,191.5562 543.4731,190.9751 Z " fill="#000000"/><text fill="#000000" font-family="sans-serif" font-size="14" lengthAdjust="spacing" textLength="49" x="555" y="192.8457">Vehicle</text><line style="stroke:#181818;stroke-width:0.5;" x1="527" x2="606" y1="203.5547" y2="203.5547"/><line style="stroke:#181818;stroke-width:0.5;" x1="527" x2="606" y1="211.5547" y2="211.5547"/></g></a><g id="elem_FloatingNote"><path d="M6,71.5547 L6,319.2129 L445,319.2129 L445,81.5547 L435,71.5547 L6,71.5547 " fill="#FEFFDD" style="stroke:#181818;stroke-width:0.5;"/><path d="M435,71.5547 L435,81.5547 L445,81.5547 L435,71.5547 " fill="#FEFFDD" style="stroke:#181818;stroke-width:1.0;"/><text fill="#000000" font-family="sans-serif" font-size="13" lengthAdjust="spacing" textLength="120" x="12" y="89.123">Your are analyzing:</text><text fill="#000000" font-family="sans-serif" font-size="13" lengthAdjust="spacing" textLength="257" x="12" y="104.4336">Examples.BadDesign.CarExample.Vehicle</text><text fill="#000000" font-family="sans-serif" font-size="13" font-weight="bold" lengthAdjust="spacing" textLength="67" x="273" y="104.4336">simplified</text><text fill="#000000" font-family="sans-serif" font-size="13" lengthAdjust="spacing" textLength="4" x="340" y="104.4336">&#160;</text><text fill="#000000" font-family="sans-serif" font-size="13" lengthAdjust="spacing" textLength="4" x="12" y="119.7441">&#160;</text><text fill="#000000" font-family="sans-serif" font-size="13" lengthAdjust="spacing" textLength="229" x="12" y="150.3652">You can click either the namespaces</text><text fill="#000000" font-family="sans-serif" font-size="13" lengthAdjust="spacing" textLength="266" x="12" y="165.6758">or class names for filtering them and their</text><text fill="#000000" font-family="sans-serif" font-size="13" lengthAdjust="spacing" textLength="130" x="12" y="180.9863">direct dependencies.</text><text fill="#000000" font-family="sans-serif" font-size="13" lengthAdjust="spacing" textLength="4" x="12" y="196.2969">&#160;</text><line style="stroke:#181818;stroke-width:1.0;" x1="7" x2="209.5" y1="130.1416" y2="130.1416"/><line style="stroke:#181818;stroke-width:1.0;" x1="7" x2="209.5" y1="132.1416" y2="132.1416"/><text fill="#000000" font-family="sans-serif" font-size="13" lengthAdjust="spacing" textLength="32" x="209.5" y="134.5547">Filter</text><line style="stroke:#181818;stroke-width:1.0;" x1="241.5" x2="444" y1="130.1416" y2="130.1416"/><line style="stroke:#181818;stroke-width:1.0;" x1="241.5" x2="444" y1="132.1416" y2="132.1416"/><ellipse cx="17.5" cy="226.1602" fill="#000000" rx="2.5" ry="2.5" style="stroke:#000000;stroke-width:0.0;"/><text fill="#000000" font-family="sans-serif" font-size="13" lengthAdjust="spacing" textLength="257" x="24" y="230.918">Examples.BadDesign.CarExample.Vehicle</text><text fill="#000000" font-family="sans-serif" font-size="13" font-weight="bold" lengthAdjust="spacing" textLength="55" x="285" y="230.918">detailed</text><text fill="#000000" font-family="sans-serif" font-size="13" lengthAdjust="spacing" textLength="4" x="344" y="230.918">:</text><text fill="#000000" font-family="sans-serif" font-size="13" lengthAdjust="spacing" textLength="12" x="12" y="246.2285">&#160;&#160;&#160;</text><a href="Examples.BadDesign.CarExample.Vehicle-diagram-detailed.svg" target="_top" title="Examples.BadDesign.CarExample.Vehicle-diagram-detailed.svg" xlink:actuate="onRequest" xlink:href="Examples.BadDesign.CarExample.Vehicle-diagram-detailed.svg" xlink:show="new" xlink:title="Examples.BadDesign.CarExample.Vehicle-diagram-detailed.svg" xlink:type="simple"><text fill="#0000FF" font-family="sans-serif" font-size="13" lengthAdjust="spacing" text-decoration="underline" textLength="400" x="24" y="246.2285">Examples.BadDesign.CarExample.Vehicle-diagram-detailed.svg</text></a><ellipse cx="17.5" cy="256.7813" fill="#000000" rx="2.5" ry="2.5" style="stroke:#000000;stroke-width:0.0;"/><text fill="#000000" font-family="sans-serif" font-size="13" lengthAdjust="spacing" textLength="78" x="24" y="261.5391">Full diagram</text><text fill="#000000" font-family="sans-serif" font-size="13" font-weight="bold" lengthAdjust="spacing" textLength="67" x="106" y="261.5391">simplified</text><text fill="#000000" font-family="sans-serif" font-size="13" lengthAdjust="spacing" textLength="23" x="177" y="261.5391">and</text><text fill="#000000" font-family="sans-serif" font-size="13" font-weight="bold" lengthAdjust="spacing" textLength="166" x="204" y="261.5391">grouped per namespace</text><text fill="#000000" font-family="sans-serif" font-size="13" lengthAdjust="spacing" textLength="4" x="370" y="261.5391">:</text><text fill="#000000" font-family="sans-serif" font-size="13" lengthAdjust="spacing" textLength="12" x="12" y="276.8496">&#160;&#160;&#160;</text><a href="full-diagram-simplified-grouped-per-namespace.svg" target="_top" title="full-diagram-simplified-grouped-per-namespace.svg" xlink:actuate="onRequest" xlink:href="full-diagram-simplified-grouped-per-namespace.svg" xlink:show="new" xlink:title="full-diagram-simplified-grouped-per-namespace.svg" xlink:type="simple"><text fill="#0000FF" font-family="sans-serif" font-size="13" lengthAdjust="spacing" text-decoration="underline" textLength="343" x="24" y="276.8496">full-diagram-simplified-grouped-per-namespace.svg</text></a><ellipse cx="17.5" cy="287.4023" fill="#000000" rx="2.5" ry="2.5" style="stroke:#000000;stroke-width:0.0;"/><text fill="#000000" font-family="sans-serif" font-size="13" lengthAdjust="spacing" textLength="41" x="24" y="292.1602">Home:</text><text fill="#000000" font-family="sans-serif" font-size="13" lengthAdjust="spacing" textLength="12" x="12" y="307.4707">&#160;&#160;&#160;</text><a href="index.html" target="_top" title="index.html" xlink:actuate="onRequest" xlink:href="index.html" xlink:show="new" xlink:title="index.html" xlink:type="simple"><text fill="#0000FF" font-family="sans-serif" font-size="13" lengthAdjust="spacing" text-decoration="underline" textLength="68" x="24" y="307.4707">index.html</text></a><line style="stroke:#181818;stroke-width:1.0;" x1="7" x2="188.5" y1="210.6943" y2="210.6943"/><line style="stroke:#181818;stroke-width:1.0;" x1="7" x2="188.5" y1="212.6943" y2="212.6943"/><text fill="#000000" font-family="sans-serif" font-size="13" lengthAdjust="spacing" textLength="74" x="188.5" y="215.1074">Select other</text><line style="stroke:#181818;stroke-width:1.0;" x1="262.5" x2="444" y1="210.6943" y2="210.6943"/><line style="stroke:#181818;stroke-width:1.0;" x1="262.5" x2="444" y1="212.6943" y2="212.6943"/></g><!--reverse link Vehicle to DB--><g id="link_Vehicle_DB"><path codeLine="15" d="M566.5,233.8247 C566.5,233.8247 566.5,379.1247 566.5,379.1247 " fill="none" id="Vehicle-backto-DB" style="stroke:#10BB10;stroke-width:1.0;"/><polygon fill="#10BB10" points="566.5,220.8247,562.5,226.8247,566.5,232.8247,570.5,226.8247,566.5,220.8247" style="stroke:#10BB10;stroke-width:1.0;"/></g><!--SRC=[jPDDJ-Cm48Rl_HKZE21PIYWSAyeXb8eJbvMGK9F3A9wa8nmxibss1Ur_tqdwXQ2WiYiY9KhicVUTUIOEJsnRzDY0OKjnrH8u7-Tk43aQWgl0BpIw75xVBh5f3OKqGpsXmBLDRz1lLjC7cdCfuKe5bWMkcBHIS7NUfLyFh8i49uzkuG4z0LeqgnUszIYt_wIRszoEnrCsaVnud5jHXX8jb8RB9o2ES_8W3x3OK6Ynf20vpai0Xh1UXKg-grv2AkcY6obCTo_iSwlPKnb1KqjMaorPIbpR_YBJxRZEf3DNS6mFcYAowJkGpW5WDZigDT6CjOmesGgauRakYivwkZ06DjllANNTA5LxjsX9Goj8TZYKsXPGYS1EVv-URD8IIKjsQNlVEzVGLe85q3ATnyOKnGbWWAbn60NglOnz01le1pgTP8S9JB835Qsz0Lv5yO_SN-WUWFzTqXzyJrTaZFlTs_S5d0dReoxuiTWpkEaHU3B2sza0j8mUooZZhhnhzlCUIUn70Fyjy8RWuCX3aCnEBuPPTZ4iaaz-YRy0]--></g></svg>