<?xml version="1.0" encoding="us-ascii" standalone="no"?><svg xmlns="http://www.w3.org/2000/svg" xmlns:xlink="http://www.w3.org/1999/xlink" contentStyleType="text/css" height="477px" preserveAspectRatio="none" style="width:945px;height:477px;background:#FFFFFF;" version="1.1" viewBox="0 0 945 477" width="945px" zoomAndPan="magnify"><defs/><g><text fill="#000000" font-family="sans-serif" font-size="20" font-weight="bold" lengthAdjust="spacing" textLength="505" x="10" y="29.3359">Examples.BetterDesign.FakeEntitities.Complaints</text><text fill="#000000" font-family="sans-serif" font-size="20" font-weight="bold" lengthAdjust="spacing" textLength="104" x="522" y="29.3359">simplified</text><text fill="#000000" font-family="sans-serif" font-size="20" font-weight="bold" lengthAdjust="spacing" textLength="38" x="633" y="29.3359">and</text><text fill="#000000" font-family="sans-serif" font-size="20" font-weight="bold" lengthAdjust="spacing" textLength="249" x="678" y="29.3359">grouped per namespace</text><!--cluster Examples--><g id="cluster_Examples"><a href="Examples-diagram-simplified-grouped-per-namespace.svg" target="_top" title="Examples-diagram-simplified-grouped-per-namespace.svg" xlink:actuate="onRequest" xlink:href="Examples-diagram-simplified-grouped-per-namespace.svg" xlink:show="new" xlink:title="Examples-diagram-simplified-grouped-per-namespace.svg" xlink:type="simple"><path d="M695.25,72.5547 L764.25,72.5547 A3.75,3.75 0 0 1 766.75,75.0547 L773.75,95.043 L928.25,95.043 A2.5,2.5 0 0 1 930.75,97.543 L930.75,468.0547 A2.5,2.5 0 0 1 928.25,470.5547 L695.25,470.5547 A2.5,2.5 0 0 1 692.75,468.0547 L692.75,75.0547 A2.5,2.5 0 0 1 695.25,72.5547 " fill="none" style="stroke:#000000;stroke-width:1.5;"/><line style="stroke:#000000;stroke-width:1.5;" x1="692.75" x2="773.75" y1="95.043" y2="95.043"/><text fill="#000000" font-family="sans-serif" font-size="14" font-weight="bold" lengthAdjust="spacing" textLength="68" x="696.75" y="88.0898">Examples</text></a></g><!--cluster BetterDesign--><g id="cluster_BetterDesign"><a href="Examples.BetterDesign-diagram-simplified-grouped-per-namespace.svg" target="_top" title="Examples.BetterDesign-diagram-simplified-grouped-per-namespace.svg" xlink:actuate="onRequest" xlink:href="Examples.BetterDesign-diagram-simplified-grouped-per-namespace.svg" xlink:show="new" xlink:title="Examples.BetterDesign-diagram-simplified-grouped-per-namespace.svg" xlink:type="simple"><path d="M719.25,115.5547 L813.25,115.5547 A3.75,3.75 0 0 1 815.75,118.0547 L822.75,138.043 L904.25,138.043 A2.5,2.5 0 0 1 906.75,140.543 L906.75,444.0547 A2.5,2.5 0 0 1 904.25,446.5547 L719.25,446.5547 A2.5,2.5 0 0 1 716.75,444.0547 L716.75,118.0547 A2.5,2.5 0 0 1 719.25,115.5547 " fill="none" style="stroke:#000000;stroke-width:1.5;"/><line style="stroke:#000000;stroke-width:1.5;" x1="716.75" x2="822.75" y1="138.043" y2="138.043"/><text fill="#000000" font-family="sans-serif" font-size="14" font-weight="bold" lengthAdjust="spacing" textLength="93" x="720.75" y="131.0898">BetterDesign</text></a></g><!--cluster FakeEntitities--><g id="cluster_FakeEntitities"><a href="Examples.BetterDesign.FakeEntitities-diagram-simplified-grouped-per-namespace.svg" target="_top" title="Examples.BetterDesign.FakeEntitities-diagram-simplified-grouped-per-namespace.svg" xlink:actuate="onRequest" xlink:href="Examples.BetterDesign.FakeEntitities-diagram-simplified-grouped-per-namespace.svg" xlink:show="new" xlink:title="Examples.BetterDesign.FakeEntitities-diagram-simplified-grouped-per-namespace.svg" xlink:type="simple"><path d="M743.25,323.5547 L843.25,323.5547 A3.75,3.75 0 0 1 845.75,326.0547 L852.75,346.043 L880.25,346.043 A2.5,2.5 0 0 1 882.75,348.543 L882.75,420.0547 A2.5,2.5 0 0 1 880.25,422.5547 L743.25,422.5547 A2.5,2.5 0 0 1 740.75,420.0547 L740.75,326.0547 A2.5,2.5 0 0 1 743.25,323.5547 " fill="none" style="stroke:#000000;stroke-width:1.5;"/><line style="stroke:#000000;stroke-width:1.5;" x1="740.75" x2="852.75" y1="346.043" y2="346.043"/><text fill="#000000" font-family="sans-serif" font-size="14" font-weight="bold" lengthAdjust="spacing" textLength="99" x="744.75" y="339.0898">FakeEntitities</text></a></g><!--class DBCustomers--><a href="Examples.BetterDesign.DBCustomers-diagram-simplified-grouped-per-namespace.svg" target="_top" title="Examples.BetterDesign.DBCustomers-diagram-simplified-grouped-per-namespace.svg" xlink:actuate="onRequest" xlink:href="Examples.BetterDesign.DBCustomers-diagram-simplified-grouped-per-namespace.svg" xlink:show="new" xlink:title="Examples.BetterDesign.DBCustomers-diagram-simplified-grouped-per-namespace.svg" xlink:type="simple"><g id="elem_DBCustomers"><rect codeLine="6" fill="#F1F1F1" height="48" id="DBCustomers" rx="2.5" ry="2.5" style="stroke:#181818;stroke-width:0.5;" width="124" x="749.75" y="150.5547"/><ellipse cx="764.75" cy="166.5547" fill="#ADD1B2" rx="11" ry="11" style="stroke:#181818;stroke-width:1.0;"/><path d="M767.2231,172.6978 Q766.6421,172.9966 766.0029,173.146 Q765.3638,173.2954 764.6582,173.2954 Q762.1514,173.2954 760.8315,171.6436 Q759.5117,169.9917 759.5117,166.8706 Q759.5117,163.7412 760.8315,162.0894 Q762.1514,160.4375 764.6582,160.4375 Q765.3638,160.4375 766.0112,160.5869 Q766.6587,160.7363 767.2231,161.0352 L767.2231,163.7578 Q766.5923,163.1768 765.9988,162.907 Q765.4053,162.6372 764.7744,162.6372 Q763.4297,162.6372 762.7449,163.7039 Q762.0601,164.7705 762.0601,166.8706 Q762.0601,168.9624 762.7449,170.0291 Q763.4297,171.0957 764.7744,171.0957 Q765.4053,171.0957 765.9988,170.8259 Q766.5923,170.5562 767.2231,169.9751 Z " fill="#000000"/><text fill="#000000" font-family="sans-serif" font-size="14" lengthAdjust="spacing" textLength="92" x="778.75" y="171.8457">DBCustomers</text><line style="stroke:#181818;stroke-width:0.5;" x1="750.75" x2="872.75" y1="182.5547" y2="182.5547"/><line style="stroke:#181818;stroke-width:0.5;" x1="750.75" x2="872.75" y1="190.5547" y2="190.5547"/></g></a><!--class Complaints--><a href="Examples.BetterDesign.FakeEntitities.Complaints-diagram-simplified-grouped-per-namespace.svg" target="_top" title="Examples.BetterDesign.FakeEntitities.Complaints-diagram-simplified-grouped-per-namespace.svg" xlink:actuate="onRequest" xlink:href="Examples.BetterDesign.FakeEntitities.Complaints-diagram-simplified-grouped-per-namespace.svg" xlink:show="new" xlink:title="Examples.BetterDesign.FakeEntitities.Complaints-diagram-simplified-grouped-per-namespace.svg" xlink:type="simple"><g id="elem_Complaints"><rect codeLine="17" fill="#FFFF00" height="48" id="Complaints" rx="2.5" ry="2.5" style="stroke:#181818;stroke-width:0.5;" width="110" x="756.75" y="358.5547"/><ellipse cx="771.75" cy="374.5547" fill="#ADD1B2" rx="11" ry="11" style="stroke:#181818;stroke-width:1.0;"/><path d="M774.2231,380.6978 Q773.6421,380.9966 773.0029,381.146 Q772.3638,381.2954 771.6582,381.2954 Q769.1514,381.2954 767.8315,379.6436 Q766.5117,377.9917 766.5117,374.8706 Q766.5117,371.7412 767.8315,370.0894 Q769.1514,368.4375 771.6582,368.4375 Q772.3638,368.4375 773.0112,368.5869 Q773.6587,368.7363 774.2231,369.0352 L774.2231,371.7578 Q773.5923,371.1768 772.9988,370.907 Q772.4053,370.6372 771.7744,370.6372 Q770.4297,370.6372 769.7449,371.7039 Q769.0601,372.7705 769.0601,374.8706 Q769.0601,376.9624 769.7449,378.0291 Q770.4297,379.0957 771.7744,379.0957 Q772.4053,379.0957 772.9988,378.8259 Q773.5923,378.5562 774.2231,377.9751 Z " fill="#000000"/><text fill="#000000" font-family="sans-serif" font-size="14" lengthAdjust="spacing" textLength="78" x="785.75" y="379.8457">Complaints</text><line style="stroke:#181818;stroke-width:0.5;" x1="757.75" x2="865.75" y1="390.5547" y2="390.5547"/><line style="stroke:#181818;stroke-width:0.5;" x1="757.75" x2="865.75" y1="398.5547" y2="398.5547"/></g></a><g id="elem_FloatingNote"><path d="M19.25,50.5547 L19.25,298.2129 L676.25,298.2129 L676.25,60.5547 L666.25,50.5547 L19.25,50.5547 " fill="#FEFFDD" style="stroke:#181818;stroke-width:0.5;"/><path d="M666.25,50.5547 L666.25,60.5547 L676.25,60.5547 L666.25,50.5547 " fill="#FEFFDD" style="stroke:#181818;stroke-width:1.0;"/><text fill="#000000" font-family="sans-serif" font-size="13" lengthAdjust="spacing" textLength="120" x="25.25" y="68.123">Your are analyzing:</text><text fill="#000000" font-family="sans-serif" font-size="13" lengthAdjust="spacing" textLength="309" x="25.25" y="83.4336">Examples.BetterDesign.FakeEntitities.Complaints</text><text fill="#000000" font-family="sans-serif" font-size="13" font-weight="bold" lengthAdjust="spacing" textLength="67" x="338.25" y="83.4336">simplified</text><text fill="#000000" font-family="sans-serif" font-size="13" lengthAdjust="spacing" textLength="23" x="409.25" y="83.4336">and</text><text fill="#000000" font-family="sans-serif" font-size="13" font-weight="bold" lengthAdjust="spacing" textLength="166" x="436.25" y="83.4336">grouped per namespace</text><text fill="#000000" font-family="sans-serif" font-size="13" lengthAdjust="spacing" textLength="4" x="25.25" y="98.7441">&#160;</text><text fill="#000000" font-family="sans-serif" font-size="13" lengthAdjust="spacing" textLength="229" x="25.25" y="129.3652">You can click either the namespaces</text><text fill="#000000" font-family="sans-serif" font-size="13" lengthAdjust="spacing" textLength="266" x="25.25" y="144.6758">or class names for filtering them and their</text><text fill="#000000" font-family="sans-serif" font-size="13" lengthAdjust="spacing" textLength="130" x="25.25" y="159.9863">direct dependencies.</text><text fill="#000000" font-family="sans-serif" font-size="13" lengthAdjust="spacing" textLength="4" x="25.25" y="175.2969">&#160;</text><line style="stroke:#181818;stroke-width:1.0;" x1="20.25" x2="331.75" y1="109.1416" y2="109.1416"/><line style="stroke:#181818;stroke-width:1.0;" x1="20.25" x2="331.75" y1="111.1416" y2="111.1416"/><text fill="#000000" font-family="sans-serif" font-size="13" lengthAdjust="spacing" textLength="32" x="331.75" y="113.5547">Filter</text><line style="stroke:#181818;stroke-width:1.0;" x1="363.75" x2="675.25" y1="109.1416" y2="109.1416"/><line style="stroke:#181818;stroke-width:1.0;" x1="363.75" x2="675.25" y1="111.1416" y2="111.1416"/><ellipse cx="30.75" cy="205.1602" fill="#000000" rx="2.5" ry="2.5" style="stroke:#000000;stroke-width:0.0;"/><text fill="#000000" font-family="sans-serif" font-size="13" lengthAdjust="spacing" textLength="309" x="37.25" y="209.918">Examples.BetterDesign.FakeEntitities.Complaints</text><text fill="#000000" font-family="sans-serif" font-size="13" font-weight="bold" lengthAdjust="spacing" textLength="55" x="350.25" y="209.918">detailed</text><text fill="#000000" font-family="sans-serif" font-size="13" lengthAdjust="spacing" textLength="23" x="409.25" y="209.918">and</text><text fill="#000000" font-family="sans-serif" font-size="13" font-weight="bold" lengthAdjust="spacing" textLength="166" x="436.25" y="209.918">grouped per namespace</text><text fill="#000000" font-family="sans-serif" font-size="13" lengthAdjust="spacing" textLength="4" x="602.25" y="209.918">:</text><text fill="#000000" font-family="sans-serif" font-size="13" lengthAdjust="spacing" textLength="12" x="25.25" y="225.2285">&#160;&#160;&#160;</text><a href="Examples.BetterDesign.FakeEntitities.Complaints-diagram-detailed-grouped-per-namespace.svg" target="_top" title="Examples.BetterDesign.FakeEntitities.Complaints-diagram-detailed-grouped-per-namespace.svg" xlink:actuate="onRequest" xlink:href="Examples.BetterDesign.FakeEntitities.Complaints-diagram-detailed-grouped-per-namespace.svg" xlink:show="new" xlink:title="Examples.BetterDesign.FakeEntitities.Complaints-diagram-detailed-grouped-per-namespace.svg" xlink:type="simple"><text fill="#0000FF" font-family="sans-serif" font-size="13" lengthAdjust="spacing" text-decoration="underline" textLength="618" x="37.25" y="225.2285">Examples.BetterDesign.FakeEntitities.Complaints-diagram-detailed-grouped-per-namespace.svg</text></a><ellipse cx="30.75" cy="235.7813" fill="#000000" rx="2.5" ry="2.5" style="stroke:#000000;stroke-width:0.0;"/><text fill="#000000" font-family="sans-serif" font-size="13" lengthAdjust="spacing" textLength="78" x="37.25" y="240.5391">Full diagram</text><text fill="#000000" font-family="sans-serif" font-size="13" font-weight="bold" lengthAdjust="spacing" textLength="67" x="119.25" y="240.5391">simplified</text><text fill="#000000" font-family="sans-serif" font-size="13" lengthAdjust="spacing" textLength="23" x="190.25" y="240.5391">and</text><text fill="#000000" font-family="sans-serif" font-size="13" font-weight="bold" lengthAdjust="spacing" textLength="166" x="217.25" y="240.5391">grouped per namespace</text><text fill="#000000" font-family="sans-serif" font-size="13" lengthAdjust="spacing" textLength="4" x="383.25" y="240.5391">:</text><text fill="#000000" font-family="sans-serif" font-size="13" lengthAdjust="spacing" textLength="12" x="25.25" y="255.8496">&#160;&#160;&#160;</text><a href="full-diagram-simplified-grouped-per-namespace.svg" target="_top" title="full-diagram-simplified-grouped-per-namespace.svg" xlink:actuate="onRequest" xlink:href="full-diagram-simplified-grouped-per-namespace.svg" xlink:show="new" xlink:title="full-diagram-simplified-grouped-per-namespace.svg" xlink:type="simple"><text fill="#0000FF" font-family="sans-serif" font-size="13" lengthAdjust="spacing" text-decoration="underline" textLength="343" x="37.25" y="255.8496">full-diagram-simplified-grouped-per-namespace.svg</text></a><ellipse cx="30.75" cy="266.4023" fill="#000000" rx="2.5" ry="2.5" style="stroke:#000000;stroke-width:0.0;"/><text fill="#000000" font-family="sans-serif" font-size="13" lengthAdjust="spacing" textLength="41" x="37.25" y="271.1602">Home:</text><text fill="#000000" font-family="sans-serif" font-size="13" lengthAdjust="spacing" textLength="12" x="25.25" y="286.4707">&#160;&#160;&#160;</text><a href="index.html" target="_top" title="index.html" xlink:actuate="onRequest" xlink:href="index.html" xlink:show="new" xlink:title="index.html" xlink:type="simple"><text fill="#0000FF" font-family="sans-serif" font-size="13" lengthAdjust="spacing" text-decoration="underline" textLength="68" x="37.25" y="286.4707">index.html</text></a><line style="stroke:#181818;stroke-width:1.0;" x1="20.25" x2="310.75" y1="189.6943" y2="189.6943"/><line style="stroke:#181818;stroke-width:1.0;" x1="20.25" x2="310.75" y1="191.6943" y2="191.6943"/><text fill="#000000" font-family="sans-serif" font-size="13" lengthAdjust="spacing" textLength="74" x="310.75" y="194.1074">Select other</text><line style="stroke:#181818;stroke-width:1.0;" x1="384.75" x2="675.25" y1="189.6943" y2="189.6943"/><line style="stroke:#181818;stroke-width:1.0;" x1="384.75" x2="675.25" y1="191.6943" y2="191.6943"/></g><!--link DBCustomers to Complaints--><g id="link_DBCustomers_Complaints"><path codeLine="32" d="M811.75,198.8247 C811.75,198.8247 811.75,352.1247 811.75,352.1247 " fill="none" id="DBCustomers-to-Complaints" style="stroke:#6060BB;stroke-width:1.0;stroke-dasharray:7.0,7.0;"/><polygon fill="#6060BB" points="811.75,357.1247,815.75,348.1247,811.75,352.1247,807.75,348.1247,811.75,357.1247" style="stroke:#6060BB;stroke-width:1.0;"/><text fill="#000000" font-family="sans-serif" font-size="13" lengthAdjust="spacing" textLength="29" x="781.75" y="272.043">uses</text></g><!--SRC=[rLLDRzf04BtxLuoIGoHBkAY7753WG1BKKouzLHYXZJs64UjTQsUTGAhyzyuIlX91m56Jge0ix9sPz-RZZNb6fb9EbQ39e5zK2DRvgOqyUOrmnVI4dU_jtkrSbPL6JlheFReRP9gOPA1cU6l4LBvoTct5Hf7n377C93TK4EPn3ChaycZYR5rX3XKwCAf4hbI6SNprBQ3q8cCzmjalMpjG3iL7wSKJcKadDPy9dvhKTBi3qXAusqsD481C6SWqPJD0ybEnbylMXo4rrec1Odvv2eNS5yiGGZXObqjG-KCkDJavp3paMA79qMI1xGliJzJXn0QG01v3yrHpz8hqyKIbZW0m73P4QEMa9Z8XhJLEQnM_9V5Rc_W9Fqn6ev31eDOQLawDEh4cM4Y03UhM_HZk3rlYEWH9dUV9r9TwD3e3nJ3GLddfpPqCMRHntbHxfomDaU7tdd2lIdkevCs1O3Lp-pjuqx-ksKiH71_iyevDK_Wb_dDq4IP3z9d3LwKDZw91aCGzY5fADAAN0fPSu5fR3efJCdALmmUoDO-vlXzleemrYUEMwvqr2FUOgPenI7QrQ9WOv5UG8PvYdkp4tlhkfX4zxpLPfop7_-kK7G5wiobEN2WV6VRtn_tmIlpuYZkHtFa2jRQFAv8DDF55jJkac7-XcTUf751DCs71XRn3Jlh0fza6Yc4s7MfvhrZ3W7FlLEPb20fdootpZjZkxN9qV8qdm_FBzcMxtnyblSOoW0v8l_YlS7q3ymS0]--></g></svg>