<?xml version="1.0" encoding="us-ascii" standalone="no"?><svg xmlns="http://www.w3.org/2000/svg" xmlns:xlink="http://www.w3.org/1999/xlink" contentStyleType="text/css" height="663px" preserveAspectRatio="none" style="width:3404px;height:663px;background:#FFFFFF;" version="1.1" viewBox="0 0 3404 663" width="3404px" zoomAndPan="magnify"><defs/><g><text fill="#000000" font-family="sans-serif" font-size="20" font-weight="bold" lengthAdjust="spacing" textLength="573" x="1212.5" y="29.3359">Examples.BetterDesign.Repository.CarExample.CarParts</text><text fill="#000000" font-family="sans-serif" font-size="20" font-weight="bold" lengthAdjust="spacing" textLength="84" x="1792.5" y="29.3359">detailed</text><text fill="#000000" font-family="sans-serif" font-size="20" font-weight="bold" lengthAdjust="spacing" textLength="38" x="1883.5" y="29.3359">and</text><text fill="#000000" font-family="sans-serif" font-size="20" font-weight="bold" lengthAdjust="spacing" textLength="249" x="1928.5" y="29.3359">grouped per namespace</text><!--cluster Examples--><g id="cluster_Examples"><a href="Examples-diagram-detailed-grouped-per-namespace.svg" target="_top" title="Examples-diagram-detailed-grouped-per-namespace.svg" xlink:actuate="onRequest" xlink:href="Examples-diagram-detailed-grouped-per-namespace.svg" xlink:show="new" xlink:title="Examples-diagram-detailed-grouped-per-namespace.svg" xlink:type="simple"><path d="M734.5,50.5547 L803.5,50.5547 A3.75,3.75 0 0 1 806,53.0547 L813,73.043 L3394.5,73.043 A2.5,2.5 0 0 1 3397,75.543 L3397,654.0547 A2.5,2.5 0 0 1 3394.5,656.5547 L734.5,656.5547 A2.5,2.5 0 0 1 732,654.0547 L732,53.0547 A2.5,2.5 0 0 1 734.5,50.5547 " fill="none" style="stroke:#000000;stroke-width:1.5;"/><line style="stroke:#000000;stroke-width:1.5;" x1="732" x2="813" y1="73.043" y2="73.043"/><text fill="#000000" font-family="sans-serif" font-size="14" font-weight="bold" lengthAdjust="spacing" textLength="68" x="736" y="66.0898">Examples</text></a></g><!--cluster BetterDesign--><g id="cluster_BetterDesign"><a href="Examples.BetterDesign-diagram-detailed-grouped-per-namespace.svg" target="_top" title="Examples.BetterDesign-diagram-detailed-grouped-per-namespace.svg" xlink:actuate="onRequest" xlink:href="Examples.BetterDesign-diagram-detailed-grouped-per-namespace.svg" xlink:show="new" xlink:title="Examples.BetterDesign-diagram-detailed-grouped-per-namespace.svg" xlink:type="simple"><path d="M758.5,93.5547 L852.5,93.5547 A3.75,3.75 0 0 1 855,96.0547 L862,116.043 L3370.5,116.043 A2.5,2.5 0 0 1 3373,118.543 L3373,630.0547 A2.5,2.5 0 0 1 3370.5,632.5547 L758.5,632.5547 A2.5,2.5 0 0 1 756,630.0547 L756,96.0547 A2.5,2.5 0 0 1 758.5,93.5547 " fill="none" style="stroke:#000000;stroke-width:1.5;"/><line style="stroke:#000000;stroke-width:1.5;" x1="756" x2="862" y1="116.043" y2="116.043"/><text fill="#000000" font-family="sans-serif" font-size="14" font-weight="bold" lengthAdjust="spacing" textLength="93" x="760" y="109.0898">BetterDesign</text></a></g><!--cluster Repository--><g id="cluster_Repository"><a href="Examples.BetterDesign.Repository-diagram-detailed-grouped-per-namespace.svg" target="_top" title="Examples.BetterDesign.Repository-diagram-detailed-grouped-per-namespace.svg" xlink:actuate="onRequest" xlink:href="Examples.BetterDesign.Repository-diagram-detailed-grouped-per-namespace.svg" xlink:show="new" xlink:title="Examples.BetterDesign.Repository-diagram-detailed-grouped-per-namespace.svg" xlink:type="simple"><path d="M782.5,136.5547 L861.5,136.5547 A3.75,3.75 0 0 1 864,139.0547 L871,159.043 L3346.5,159.043 A2.5,2.5 0 0 1 3349,161.543 L3349,606.0547 A2.5,2.5 0 0 1 3346.5,608.5547 L782.5,608.5547 A2.5,2.5 0 0 1 780,606.0547 L780,139.0547 A2.5,2.5 0 0 1 782.5,136.5547 " fill="none" style="stroke:#000000;stroke-width:1.5;"/><line style="stroke:#000000;stroke-width:1.5;" x1="780" x2="871" y1="159.043" y2="159.043"/><text fill="#000000" font-family="sans-serif" font-size="14" font-weight="bold" lengthAdjust="spacing" textLength="78" x="784" y="152.0898">Repository</text></a></g><!--cluster CarExample--><g id="cluster_CarExample"><a href="Examples.BetterDesign.Repository.CarExample-diagram-detailed-grouped-per-namespace.svg" target="_top" title="Examples.BetterDesign.Repository.CarExample-diagram-detailed-grouped-per-namespace.svg" xlink:actuate="onRequest" xlink:href="Examples.BetterDesign.Repository.CarExample-diagram-detailed-grouped-per-namespace.svg" xlink:show="new" xlink:title="Examples.BetterDesign.Repository.CarExample-diagram-detailed-grouped-per-namespace.svg" xlink:type="simple"><path d="M1814.5,179.5547 L1899.5,179.5547 A3.75,3.75 0 0 1 1902,182.0547 L1909,202.043 L3322.5,202.043 A2.5,2.5 0 0 1 3325,204.543 L3325,582.0547 A2.5,2.5 0 0 1 3322.5,584.5547 L1814.5,584.5547 A2.5,2.5 0 0 1 1812,582.0547 L1812,182.0547 A2.5,2.5 0 0 1 1814.5,179.5547 " fill="none" style="stroke:#000000;stroke-width:1.5;"/><line style="stroke:#000000;stroke-width:1.5;" x1="1812" x2="1909" y1="202.043" y2="202.043"/><text fill="#000000" font-family="sans-serif" font-size="14" font-weight="bold" lengthAdjust="spacing" textLength="84" x="1816" y="195.0898">CarExample</text></a></g><!--cluster CarParts--><g id="cluster_CarParts"><a href="Examples.BetterDesign.Repository.CarExample.CarParts-diagram-detailed-grouped-per-namespace.svg" target="_top" title="Examples.BetterDesign.Repository.CarExample.CarParts-diagram-detailed-grouped-per-namespace.svg" xlink:actuate="onRequest" xlink:href="Examples.BetterDesign.Repository.CarExample.CarParts-diagram-detailed-grouped-per-namespace.svg" xlink:show="new" xlink:title="Examples.BetterDesign.Repository.CarExample.CarParts-diagram-detailed-grouped-per-namespace.svg" xlink:type="simple"><path d="M1838.5,428.5547 L1900.5,428.5547 A3.75,3.75 0 0 1 1903,431.0547 L1910,451.043 L3298.5,451.043 A2.5,2.5 0 0 1 3301,453.543 L3301,558.0547 A2.5,2.5 0 0 1 3298.5,560.5547 L1838.5,560.5547 A2.5,2.5 0 0 1 1836,558.0547 L1836,431.0547 A2.5,2.5 0 0 1 1838.5,428.5547 " fill="none" style="stroke:#000000;stroke-width:1.5;"/><line style="stroke:#000000;stroke-width:1.5;" x1="1836" x2="1910" y1="451.043" y2="451.043"/><text fill="#000000" font-family="sans-serif" font-size="14" font-weight="bold" lengthAdjust="spacing" textLength="61" x="1840" y="444.0898">CarParts</text></a></g><!--class DBCar--><a href="Examples.BetterDesign.Repository.DBCar-diagram-detailed-grouped-per-namespace.svg" target="_top" title="Examples.BetterDesign.Repository.DBCar-diagram-detailed-grouped-per-namespace.svg" xlink:actuate="onRequest" xlink:href="Examples.BetterDesign.Repository.DBCar-diagram-detailed-grouped-per-namespace.svg" xlink:show="new" xlink:title="Examples.BetterDesign.Repository.DBCar-diagram-detailed-grouped-per-namespace.svg" xlink:type="simple"><g id="elem_DBCar"><rect codeLine="7" fill="#F1F1F1" height="196.3945" id="DBCar" rx="2.5" ry="2.5" style="stroke:#181818;stroke-width:0.5;" width="999" x="796.5" y="181.5547"/><ellipse cx="1270.75" cy="197.5547" fill="#ADD1B2" rx="11" ry="11" style="stroke:#181818;stroke-width:1.0;"/><path d="M1273.2231,203.6978 Q1272.6421,203.9966 1272.0029,204.146 Q1271.3638,204.2954 1270.6582,204.2954 Q1268.1514,204.2954 1266.8315,202.6436 Q1265.5117,200.9917 1265.5117,197.8706 Q1265.5117,194.7412 1266.8315,193.0894 Q1268.1514,191.4375 1270.6582,191.4375 Q1271.3638,191.4375 1272.0112,191.5869 Q1272.6587,191.7363 1273.2231,192.0352 L1273.2231,194.7578 Q1272.5923,194.1768 1271.9988,193.907 Q1271.4053,193.6372 1270.7744,193.6372 Q1269.4297,193.6372 1268.7449,194.7039 Q1268.0601,195.7705 1268.0601,197.8706 Q1268.0601,199.9624 1268.7449,201.0291 Q1269.4297,202.0957 1270.7744,202.0957 Q1271.4053,202.0957 1271.9988,201.8259 Q1272.5923,201.5562 1273.2231,200.9751 Z " fill="#000000"/><text fill="#000000" font-family="sans-serif" font-size="14" lengthAdjust="spacing" textLength="42" x="1291.25" y="202.8457">DBCar</text><line style="stroke:#181818;stroke-width:0.5;" x1="797.5" x2="1794.5" y1="213.5547" y2="213.5547"/><line style="stroke:#181818;stroke-width:0.5;" x1="797.5" x2="1794.5" y1="221.5547" y2="221.5547"/><ellipse cx="807.5" cy="235.2988" fill="#84BE84" rx="3" ry="3" style="stroke:#038048;stroke-width:1.0;"/><text fill="#000000" font-family="sans-serif" font-size="14" lengthAdjust="spacing" textLength="122" x="816.5" y="239.0898">getCarsForDriver(</text><text fill="#6060BB" font-family="sans-serif" font-size="14" lengthAdjust="spacing" textLength="472" x="938.5" y="239.0898">driver:Examples.BetterDesign.Repository.CarExample.CarParts.Driver</text><text fill="#000000" font-family="sans-serif" font-size="14" lengthAdjust="spacing" textLength="9" x="1410.5" y="239.0898">):</text><text fill="#BB6060" font-family="sans-serif" font-size="14" lengthAdjust="spacing" textLength="41" x="1423.5" y="239.0898">String</text><ellipse cx="807.5" cy="251.7871" fill="#84BE84" rx="3" ry="3" style="stroke:#038048;stroke-width:1.0;"/><text fill="#000000" font-family="sans-serif" font-size="14" lengthAdjust="spacing" textLength="77" x="816.5" y="255.5781">updateCar(</text><text fill="#6060BB" font-family="sans-serif" font-size="14" lengthAdjust="spacing" textLength="844" x="893.5" y="255.5781">car:Examples.BetterDesign.Repository.CarExample.Car, seats:Examples.BetterDesign.Repository.CarExample.CarParts.Seats</text><text fill="#000000" font-family="sans-serif" font-size="14" lengthAdjust="spacing" textLength="9" x="1737.5" y="255.5781">):</text><text fill="#BB6060" font-family="sans-serif" font-size="14" lengthAdjust="spacing" textLength="29" x="1750.5" y="255.5781">void</text><ellipse cx="807.5" cy="268.2754" fill="#84BE84" rx="3" ry="3" style="stroke:#038048;stroke-width:1.0;"/><text fill="#000000" font-family="sans-serif" font-size="14" lengthAdjust="spacing" textLength="77" x="816.5" y="272.0664">updateCar(</text><text fill="#6060BB" font-family="sans-serif" font-size="14" lengthAdjust="spacing" textLength="854" x="893.5" y="272.0664">car:Examples.BetterDesign.Repository.CarExample.Car, doors:Examples.BetterDesign.Repository.CarExample.CarParts.Doors</text><text fill="#000000" font-family="sans-serif" font-size="14" lengthAdjust="spacing" textLength="9" x="1747.5" y="272.0664">):</text><text fill="#BB6060" font-family="sans-serif" font-size="14" lengthAdjust="spacing" textLength="29" x="1760.5" y="272.0664">void</text><ellipse cx="807.5" cy="284.7637" fill="#84BE84" rx="3" ry="3" style="stroke:#038048;stroke-width:1.0;"/><text fill="#000000" font-family="sans-serif" font-size="14" lengthAdjust="spacing" textLength="70" x="816.5" y="288.5547">sellCarTo(</text><text fill="#6060BB" font-family="sans-serif" font-size="14" lengthAdjust="spacing" textLength="854" x="886.5" y="288.5547">car:Examples.BetterDesign.Repository.CarExample.Car, driver:Examples.BetterDesign.Repository.CarExample.CarParts.Driver</text><text fill="#000000" font-family="sans-serif" font-size="14" lengthAdjust="spacing" textLength="9" x="1740.5" y="288.5547">):</text><text fill="#BB6060" font-family="sans-serif" font-size="14" lengthAdjust="spacing" textLength="29" x="1753.5" y="288.5547">void</text><ellipse cx="807.5" cy="301.252" fill="#84BE84" rx="3" ry="3" style="stroke:#038048;stroke-width:1.0;"/><text fill="#000000" font-family="sans-serif" font-size="14" lengthAdjust="spacing" textLength="51" x="816.5" y="305.043">getCar(</text><text fill="#6060BB" font-family="sans-serif" font-size="14" lengthAdjust="spacing" textLength="441" x="867.5" y="305.043">d:Examples.BetterDesign.Repository.CarExample.CarParts.Driver</text><text fill="#000000" font-family="sans-serif" font-size="14" lengthAdjust="spacing" textLength="9" x="1308.5" y="305.043">):</text><text fill="#BB6060" font-family="sans-serif" font-size="14" lengthAdjust="spacing" textLength="349" x="1321.5" y="305.043">Examples.BetterDesign.Repository.CarExample.Car</text><ellipse cx="807.5" cy="317.7402" fill="#84BE84" rx="3" ry="3" style="stroke:#038048;stroke-width:1.0;"/><text fill="#000000" font-family="sans-serif" font-size="14" lengthAdjust="spacing" textLength="68" x="816.5" y="321.5313">getDriver(</text><text fill="#6060BB" font-family="sans-serif" font-size="14" lengthAdjust="spacing" textLength="360" x="884.5" y="321.5313">c:Examples.BetterDesign.Repository.CarExample.Car</text><text fill="#000000" font-family="sans-serif" font-size="14" lengthAdjust="spacing" textLength="9" x="1244.5" y="321.5313">):</text><text fill="#BB6060" font-family="sans-serif" font-size="14" lengthAdjust="spacing" textLength="428" x="1257.5" y="321.5313">Examples.BetterDesign.Repository.CarExample.CarParts.Driver</text><ellipse cx="807.5" cy="334.2285" fill="#84BE84" rx="3" ry="3" style="stroke:#038048;stroke-width:1.0;"/><text fill="#000000" font-family="sans-serif" font-size="14" lengthAdjust="spacing" textLength="75" x="816.5" y="338.0195">getWheels(</text><text fill="#6060BB" font-family="sans-serif" font-size="14" lengthAdjust="spacing" textLength="360" x="891.5" y="338.0195">c:Examples.BetterDesign.Repository.CarExample.Car</text><text fill="#000000" font-family="sans-serif" font-size="14" lengthAdjust="spacing" textLength="9" x="1251.5" y="338.0195">):</text><text fill="#BB6060" font-family="sans-serif" font-size="14" lengthAdjust="spacing" textLength="435" x="1264.5" y="338.0195">Examples.BetterDesign.Repository.CarExample.CarParts.Wheels</text><ellipse cx="807.5" cy="350.7168" fill="#84BE84" rx="3" ry="3" style="stroke:#038048;stroke-width:1.0;"/><text fill="#000000" font-family="sans-serif" font-size="14" lengthAdjust="spacing" textLength="68" x="816.5" y="354.5078">getDoors(</text><text fill="#6060BB" font-family="sans-serif" font-size="14" lengthAdjust="spacing" textLength="360" x="884.5" y="354.5078">c:Examples.BetterDesign.Repository.CarExample.Car</text><text fill="#000000" font-family="sans-serif" font-size="14" lengthAdjust="spacing" textLength="9" x="1244.5" y="354.5078">):</text><text fill="#BB6060" font-family="sans-serif" font-size="14" lengthAdjust="spacing" textLength="428" x="1257.5" y="354.5078">Examples.BetterDesign.Repository.CarExample.CarParts.Doors</text><ellipse cx="807.5" cy="367.2051" fill="#84BE84" rx="3" ry="3" style="stroke:#038048;stroke-width:1.0;"/><text fill="#000000" font-family="sans-serif" font-size="14" lengthAdjust="spacing" textLength="63" x="816.5" y="370.9961">getSeats(</text><text fill="#6060BB" font-family="sans-serif" font-size="14" lengthAdjust="spacing" textLength="360" x="879.5" y="370.9961">c:Examples.BetterDesign.Repository.CarExample.Car</text><text fill="#000000" font-family="sans-serif" font-size="14" lengthAdjust="spacing" textLength="9" x="1239.5" y="370.9961">):</text><text fill="#BB6060" font-family="sans-serif" font-size="14" lengthAdjust="spacing" textLength="423" x="1252.5" y="370.9961">Examples.BetterDesign.Repository.CarExample.CarParts.Seats</text></g></a><!--class Car--><a href="Examples.BetterDesign.Repository.CarExample.Car-diagram-detailed-grouped-per-namespace.svg" target="_top" title="Examples.BetterDesign.Repository.CarExample.Car-diagram-detailed-grouped-per-namespace.svg" xlink:actuate="onRequest" xlink:href="Examples.BetterDesign.Repository.CarExample.Car-diagram-detailed-grouped-per-namespace.svg" xlink:show="new" xlink:title="Examples.BetterDesign.Repository.CarExample.Car-diagram-detailed-grouped-per-namespace.svg" xlink:type="simple"><g id="elem_Car"><rect codeLine="30" fill="#F1F1F1" height="130.4414" id="Car" rx="2.5" ry="2.5" style="stroke:#181818;stroke-width:0.5;" width="611" x="2262.5" y="214.5547"/><ellipse cx="2551.75" cy="230.5547" fill="#ADD1B2" rx="11" ry="11" style="stroke:#181818;stroke-width:1.0;"/><path d="M2554.2231,236.6978 Q2553.6421,236.9966 2553.0029,237.146 Q2552.3638,237.2954 2551.6582,237.2954 Q2549.1514,237.2954 2547.8315,235.6436 Q2546.5117,233.9917 2546.5117,230.8706 Q2546.5117,227.7412 2547.8315,226.0894 Q2549.1514,224.4375 2551.6582,224.4375 Q2552.3638,224.4375 2553.0112,224.5869 Q2553.6587,224.7363 2554.2231,225.0352 L2554.2231,227.7578 Q2553.5923,227.1768 2552.9988,226.907 Q2552.4053,226.6372 2551.7744,226.6372 Q2550.4297,226.6372 2549.7449,227.7039 Q2549.0601,228.7705 2549.0601,230.8706 Q2549.0601,232.9624 2549.7449,234.0291 Q2550.4297,235.0957 2551.7744,235.0957 Q2552.4053,235.0957 2552.9988,234.8259 Q2553.5923,234.5562 2554.2231,233.9751 Z " fill="#000000"/><text fill="#000000" font-family="sans-serif" font-size="14" lengthAdjust="spacing" textLength="24" x="2572.25" y="235.8457">Car</text><line style="stroke:#181818;stroke-width:0.5;" x1="2263.5" x2="2872.5" y1="246.5547" y2="246.5547"/><ellipse cx="2273.5" cy="260.2988" fill="none" rx="3" ry="3" style="stroke:#038048;stroke-width:1.0;"/><text fill="#000000" font-family="sans-serif" font-size="14" lengthAdjust="spacing" textLength="490" x="2282.5" y="264.0898">wheels: Examples.BetterDesign.Repository.CarExample.CarParts.Wheels</text><ellipse cx="2273.5" cy="276.7871" fill="none" rx="3" ry="3" style="stroke:#038048;stroke-width:1.0;"/><text fill="#000000" font-family="sans-serif" font-size="14" lengthAdjust="spacing" textLength="466" x="2282.5" y="280.5781">seats: Examples.BetterDesign.Repository.CarExample.CarParts.Seats</text><ellipse cx="2273.5" cy="293.2754" fill="none" rx="3" ry="3" style="stroke:#038048;stroke-width:1.0;"/><text fill="#000000" font-family="sans-serif" font-size="14" lengthAdjust="spacing" textLength="476" x="2282.5" y="297.0664">driver: Examples.BetterDesign.Repository.CarExample.CarParts.Driver</text><ellipse cx="2273.5" cy="309.7637" fill="none" rx="3" ry="3" style="stroke:#038048;stroke-width:1.0;"/><text fill="#000000" font-family="sans-serif" font-size="14" lengthAdjust="spacing" textLength="476" x="2282.5" y="313.5547">doors: Examples.BetterDesign.Repository.CarExample.CarParts.Doors</text><line style="stroke:#181818;stroke-width:1.0;" x1="2263.5" x2="2872.5" y1="320.5078" y2="320.5078"/><line style="stroke:#181818;stroke-width:1.0;" x1="2263.5" x2="2872.5" y1="322.5078" y2="322.5078"/><ellipse cx="2273.5" cy="334.252" fill="#84BE84" rx="3" ry="3" style="stroke:#038048;stroke-width:1.0;"/><text fill="#000000" font-family="sans-serif" font-size="14" lengthAdjust="spacing" textLength="71" x="2282.5" y="338.043">createCar(</text><text fill="#6060BB" font-family="sans-serif" font-size="14" lengthAdjust="spacing" textLength="472" x="2353.5" y="338.043">doors:Examples.BetterDesign.Repository.CarExample.CarParts.Doors</text><text fill="#000000" font-family="sans-serif" font-size="14" lengthAdjust="spacing" textLength="9" x="2825.5" y="338.043">):</text><text fill="#BB6060" font-family="sans-serif" font-size="14" lengthAdjust="spacing" textLength="29" x="2838.5" y="338.043">void</text></g></a><!--class Seats--><a href="Examples.BetterDesign.Repository.CarExample.CarParts.Seats-diagram-detailed-grouped-per-namespace.svg" target="_top" title="Examples.BetterDesign.Repository.CarExample.CarParts.Seats-diagram-detailed-grouped-per-namespace.svg" xlink:actuate="onRequest" xlink:href="Examples.BetterDesign.Repository.CarExample.CarParts.Seats-diagram-detailed-grouped-per-namespace.svg" xlink:show="new" xlink:title="Examples.BetterDesign.Repository.CarExample.CarParts.Seats-diagram-detailed-grouped-per-namespace.svg" xlink:type="simple"><g id="elem_Seats"><rect codeLine="53" fill="#FFFF00" height="80.9766" id="Seats" rx="2.5" ry="2.5" style="stroke:#181818;stroke-width:0.5;" width="332" x="1852" y="463.5547"/><ellipse cx="1995.75" cy="479.5547" fill="#ADD1B2" rx="11" ry="11" style="stroke:#181818;stroke-width:1.0;"/><path d="M1998.2231,485.6978 Q1997.6421,485.9966 1997.0029,486.146 Q1996.3638,486.2954 1995.6582,486.2954 Q1993.1514,486.2954 1991.8315,484.6436 Q1990.5117,482.9917 1990.5117,479.8706 Q1990.5117,476.7412 1991.8315,475.0894 Q1993.1514,473.4375 1995.6582,473.4375 Q1996.3638,473.4375 1997.0112,473.5869 Q1997.6587,473.7363 1998.2231,474.0352 L1998.2231,476.7578 Q1997.5923,476.1768 1996.9988,475.907 Q1996.4053,475.6372 1995.7744,475.6372 Q1994.4297,475.6372 1993.7449,476.7039 Q1993.0601,477.7705 1993.0601,479.8706 Q1993.0601,481.9624 1993.7449,483.0291 Q1994.4297,484.0957 1995.7744,484.0957 Q1996.4053,484.0957 1996.9988,483.8259 Q1997.5923,483.5562 1998.2231,482.9751 Z " fill="#000000"/><text fill="#000000" font-family="sans-serif" font-size="14" lengthAdjust="spacing" textLength="36" x="2016.25" y="484.8457">Seats</text><line style="stroke:#181818;stroke-width:0.5;" x1="1853" x2="2183" y1="495.5547" y2="495.5547"/><ellipse cx="1863" cy="509.2988" fill="none" rx="3" ry="3" style="stroke:#038048;stroke-width:1.0;"/><text fill="#000000" font-family="sans-serif" font-size="14" lengthAdjust="spacing" textLength="306" x="1872" y="513.0898">db: Examples.BetterDesign.Repository.DBCar</text><line style="stroke:#181818;stroke-width:1.0;" x1="1853" x2="2183" y1="520.043" y2="520.043"/><line style="stroke:#181818;stroke-width:1.0;" x1="1853" x2="2183" y1="522.043" y2="522.043"/><ellipse cx="1863" cy="533.7871" fill="#84BE84" rx="3" ry="3" style="stroke:#038048;stroke-width:1.0;"/><text fill="#000000" font-family="sans-serif" font-size="14" lengthAdjust="spacing" textLength="74" x="1872" y="537.5781">getWeight(</text><text fill="#000000" font-family="sans-serif" font-size="14" lengthAdjust="spacing" textLength="9" x="1946" y="537.5781">):</text><text fill="#BB6060" font-family="sans-serif" font-size="14" lengthAdjust="spacing" textLength="18" x="1959" y="537.5781">int</text></g></a><!--class Driver--><a href="Examples.BetterDesign.Repository.CarExample.CarParts.Driver-diagram-detailed-grouped-per-namespace.svg" target="_top" title="Examples.BetterDesign.Repository.CarExample.CarParts.Driver-diagram-detailed-grouped-per-namespace.svg" xlink:actuate="onRequest" xlink:href="Examples.BetterDesign.Repository.CarExample.CarParts.Driver-diagram-detailed-grouped-per-namespace.svg" xlink:show="new" xlink:title="Examples.BetterDesign.Repository.CarExample.CarParts.Driver-diagram-detailed-grouped-per-namespace.svg" xlink:type="simple"><g id="elem_Driver"><rect codeLine="58" fill="#FFFF00" height="80.9766" id="Driver" rx="2.5" ry="2.5" style="stroke:#181818;stroke-width:0.5;" width="332" x="2586" y="463.5547"/><ellipse cx="2727.25" cy="479.5547" fill="#ADD1B2" rx="11" ry="11" style="stroke:#181818;stroke-width:1.0;"/><path d="M2729.7231,485.6978 Q2729.1421,485.9966 2728.5029,486.146 Q2727.8638,486.2954 2727.1582,486.2954 Q2724.6514,486.2954 2723.3315,484.6436 Q2722.0117,482.9917 2722.0117,479.8706 Q2722.0117,476.7412 2723.3315,475.0894 Q2724.6514,473.4375 2727.1582,473.4375 Q2727.8638,473.4375 2728.5112,473.5869 Q2729.1587,473.7363 2729.7231,474.0352 L2729.7231,476.7578 Q2729.0923,476.1768 2728.4988,475.907 Q2727.9053,475.6372 2727.2744,475.6372 Q2725.9297,475.6372 2725.2449,476.7039 Q2724.5601,477.7705 2724.5601,479.8706 Q2724.5601,481.9624 2725.2449,483.0291 Q2725.9297,484.0957 2727.2744,484.0957 Q2727.9053,484.0957 2728.4988,483.8259 Q2729.0923,483.5562 2729.7231,482.9751 Z " fill="#000000"/><text fill="#000000" font-family="sans-serif" font-size="14" lengthAdjust="spacing" textLength="41" x="2747.75" y="484.8457">Driver</text><line style="stroke:#181818;stroke-width:0.5;" x1="2587" x2="2917" y1="495.5547" y2="495.5547"/><ellipse cx="2597" cy="509.2988" fill="none" rx="3" ry="3" style="stroke:#038048;stroke-width:1.0;"/><text fill="#000000" font-family="sans-serif" font-size="14" lengthAdjust="spacing" textLength="306" x="2606" y="513.0898">db: Examples.BetterDesign.Repository.DBCar</text><line style="stroke:#181818;stroke-width:1.0;" x1="2587" x2="2917" y1="520.043" y2="520.043"/><line style="stroke:#181818;stroke-width:1.0;" x1="2587" x2="2917" y1="522.043" y2="522.043"/><ellipse cx="2597" cy="533.7871" fill="#84BE84" rx="3" ry="3" style="stroke:#038048;stroke-width:1.0;"/><text fill="#000000" font-family="sans-serif" font-size="14" lengthAdjust="spacing" textLength="74" x="2606" y="537.5781">getWeight(</text><text fill="#000000" font-family="sans-serif" font-size="14" lengthAdjust="spacing" textLength="9" x="2680" y="537.5781">):</text><text fill="#BB6060" font-family="sans-serif" font-size="14" lengthAdjust="spacing" textLength="18" x="2693" y="537.5781">int</text></g></a><!--class Wheels--><a href="Examples.BetterDesign.Repository.CarExample.CarParts.Wheels-diagram-detailed-grouped-per-namespace.svg" target="_top" title="Examples.BetterDesign.Repository.CarExample.CarParts.Wheels-diagram-detailed-grouped-per-namespace.svg" xlink:actuate="onRequest" xlink:href="Examples.BetterDesign.Repository.CarExample.CarParts.Wheels-diagram-detailed-grouped-per-namespace.svg" xlink:show="new" xlink:title="Examples.BetterDesign.Repository.CarExample.CarParts.Wheels-diagram-detailed-grouped-per-namespace.svg" xlink:type="simple"><g id="elem_Wheels"><rect codeLine="63" fill="#FFFF00" height="80.9766" id="Wheels" rx="2.5" ry="2.5" style="stroke:#181818;stroke-width:0.5;" width="332" x="2219" y="463.5547"/><ellipse cx="2356.75" cy="479.5547" fill="#ADD1B2" rx="11" ry="11" style="stroke:#181818;stroke-width:1.0;"/><path d="M2359.2231,485.6978 Q2358.6421,485.9966 2358.0029,486.146 Q2357.3638,486.2954 2356.6582,486.2954 Q2354.1514,486.2954 2352.8315,484.6436 Q2351.5117,482.9917 2351.5117,479.8706 Q2351.5117,476.7412 2352.8315,475.0894 Q2354.1514,473.4375 2356.6582,473.4375 Q2357.3638,473.4375 2358.0112,473.5869 Q2358.6587,473.7363 2359.2231,474.0352 L2359.2231,476.7578 Q2358.5923,476.1768 2357.9988,475.907 Q2357.4053,475.6372 2356.7744,475.6372 Q2355.4297,475.6372 2354.7449,476.7039 Q2354.0601,477.7705 2354.0601,479.8706 Q2354.0601,481.9624 2354.7449,483.0291 Q2355.4297,484.0957 2356.7744,484.0957 Q2357.4053,484.0957 2357.9988,483.8259 Q2358.5923,483.5562 2359.2231,482.9751 Z " fill="#000000"/><text fill="#000000" font-family="sans-serif" font-size="14" lengthAdjust="spacing" textLength="48" x="2377.25" y="484.8457">Wheels</text><line style="stroke:#181818;stroke-width:0.5;" x1="2220" x2="2550" y1="495.5547" y2="495.5547"/><ellipse cx="2230" cy="509.2988" fill="none" rx="3" ry="3" style="stroke:#038048;stroke-width:1.0;"/><text fill="#000000" font-family="sans-serif" font-size="14" lengthAdjust="spacing" textLength="306" x="2239" y="513.0898">db: Examples.BetterDesign.Repository.DBCar</text><line style="stroke:#181818;stroke-width:1.0;" x1="2220" x2="2550" y1="520.043" y2="520.043"/><line style="stroke:#181818;stroke-width:1.0;" x1="2220" x2="2550" y1="522.043" y2="522.043"/><ellipse cx="2230" cy="533.7871" fill="#84BE84" rx="3" ry="3" style="stroke:#038048;stroke-width:1.0;"/><text fill="#000000" font-family="sans-serif" font-size="14" lengthAdjust="spacing" textLength="74" x="2239" y="537.5781">getWeight(</text><text fill="#000000" font-family="sans-serif" font-size="14" lengthAdjust="spacing" textLength="9" x="2313" y="537.5781">):</text><text fill="#BB6060" font-family="sans-serif" font-size="14" lengthAdjust="spacing" textLength="18" x="2326" y="537.5781">int</text></g></a><!--class Doors--><a href="Examples.BetterDesign.Repository.CarExample.CarParts.Doors-diagram-detailed-grouped-per-namespace.svg" target="_top" title="Examples.BetterDesign.Repository.CarExample.CarParts.Doors-diagram-detailed-grouped-per-namespace.svg" xlink:actuate="onRequest" xlink:href="Examples.BetterDesign.Repository.CarExample.CarParts.Doors-diagram-detailed-grouped-per-namespace.svg" xlink:show="new" xlink:title="Examples.BetterDesign.Repository.CarExample.CarParts.Doors-diagram-detailed-grouped-per-namespace.svg" xlink:type="simple"><g id="elem_Doors"><rect codeLine="68" fill="#FFFF00" height="80.9766" id="Doors" rx="2.5" ry="2.5" style="stroke:#181818;stroke-width:0.5;" width="332" x="2953" y="463.5547"/><ellipse cx="3094.25" cy="479.5547" fill="#ADD1B2" rx="11" ry="11" style="stroke:#181818;stroke-width:1.0;"/><path d="M3096.7231,485.6978 Q3096.1421,485.9966 3095.5029,486.146 Q3094.8638,486.2954 3094.1582,486.2954 Q3091.6514,486.2954 3090.3315,484.6436 Q3089.0117,482.9917 3089.0117,479.8706 Q3089.0117,476.7412 3090.3315,475.0894 Q3091.6514,473.4375 3094.1582,473.4375 Q3094.8638,473.4375 3095.5112,473.5869 Q3096.1587,473.7363 3096.7231,474.0352 L3096.7231,476.7578 Q3096.0923,476.1768 3095.4988,475.907 Q3094.9053,475.6372 3094.2744,475.6372 Q3092.9297,475.6372 3092.2449,476.7039 Q3091.5601,477.7705 3091.5601,479.8706 Q3091.5601,481.9624 3092.2449,483.0291 Q3092.9297,484.0957 3094.2744,484.0957 Q3094.9053,484.0957 3095.4988,483.8259 Q3096.0923,483.5562 3096.7231,482.9751 Z " fill="#000000"/><text fill="#000000" font-family="sans-serif" font-size="14" lengthAdjust="spacing" textLength="41" x="3114.75" y="484.8457">Doors</text><line style="stroke:#181818;stroke-width:0.5;" x1="2954" x2="3284" y1="495.5547" y2="495.5547"/><ellipse cx="2964" cy="509.2988" fill="none" rx="3" ry="3" style="stroke:#038048;stroke-width:1.0;"/><text fill="#000000" font-family="sans-serif" font-size="14" lengthAdjust="spacing" textLength="306" x="2973" y="513.0898">db: Examples.BetterDesign.Repository.DBCar</text><line style="stroke:#181818;stroke-width:1.0;" x1="2954" x2="3284" y1="520.043" y2="520.043"/><line style="stroke:#181818;stroke-width:1.0;" x1="2954" x2="3284" y1="522.043" y2="522.043"/><ellipse cx="2964" cy="533.7871" fill="#84BE84" rx="3" ry="3" style="stroke:#038048;stroke-width:1.0;"/><text fill="#000000" font-family="sans-serif" font-size="14" lengthAdjust="spacing" textLength="74" x="2973" y="537.5781">getWeight(</text><text fill="#000000" font-family="sans-serif" font-size="14" lengthAdjust="spacing" textLength="9" x="3047" y="537.5781">):</text><text fill="#BB6060" font-family="sans-serif" font-size="14" lengthAdjust="spacing" textLength="18" x="3060" y="537.5781">int</text></g></a><g id="elem_FloatingNote"><path d="M6,155.5547 L6,403.2129 L716,403.2129 L716,165.5547 L706,155.5547 L6,155.5547 " fill="#FEFFDD" style="stroke:#181818;stroke-width:0.5;"/><path d="M706,155.5547 L706,165.5547 L716,165.5547 L706,155.5547 " fill="#FEFFDD" style="stroke:#181818;stroke-width:1.0;"/><text fill="#000000" font-family="sans-serif" font-size="13" lengthAdjust="spacing" textLength="120" x="12" y="173.123">Your are analyzing:</text><text fill="#000000" font-family="sans-serif" font-size="13" lengthAdjust="spacing" textLength="349" x="12" y="188.4336">Examples.BetterDesign.Repository.CarExample.CarParts</text><text fill="#000000" font-family="sans-serif" font-size="13" font-weight="bold" lengthAdjust="spacing" textLength="55" x="365" y="188.4336">detailed</text><text fill="#000000" font-family="sans-serif" font-size="13" lengthAdjust="spacing" textLength="23" x="424" y="188.4336">and</text><text fill="#000000" font-family="sans-serif" font-size="13" font-weight="bold" lengthAdjust="spacing" textLength="166" x="451" y="188.4336">grouped per namespace</text><text fill="#000000" font-family="sans-serif" font-size="13" lengthAdjust="spacing" textLength="4" x="12" y="203.7441">&#160;</text><text fill="#000000" font-family="sans-serif" font-size="13" lengthAdjust="spacing" textLength="229" x="12" y="234.3652">You can click either the namespaces</text><text fill="#000000" font-family="sans-serif" font-size="13" lengthAdjust="spacing" textLength="266" x="12" y="249.6758">or class names for filtering them and their</text><text fill="#000000" font-family="sans-serif" font-size="13" lengthAdjust="spacing" textLength="130" x="12" y="264.9863">direct dependencies.</text><text fill="#000000" font-family="sans-serif" font-size="13" lengthAdjust="spacing" textLength="4" x="12" y="280.2969">&#160;</text><line style="stroke:#181818;stroke-width:1.0;" x1="7" x2="345" y1="214.1416" y2="214.1416"/><line style="stroke:#181818;stroke-width:1.0;" x1="7" x2="345" y1="216.1416" y2="216.1416"/><text fill="#000000" font-family="sans-serif" font-size="13" lengthAdjust="spacing" textLength="32" x="345" y="218.5547">Filter</text><line style="stroke:#181818;stroke-width:1.0;" x1="377" x2="715" y1="214.1416" y2="214.1416"/><line style="stroke:#181818;stroke-width:1.0;" x1="377" x2="715" y1="216.1416" y2="216.1416"/><ellipse cx="17.5" cy="310.1602" fill="#000000" rx="2.5" ry="2.5" style="stroke:#000000;stroke-width:0.0;"/><text fill="#000000" font-family="sans-serif" font-size="13" lengthAdjust="spacing" textLength="349" x="24" y="314.918">Examples.BetterDesign.Repository.CarExample.CarParts</text><text fill="#000000" font-family="sans-serif" font-size="13" font-weight="bold" lengthAdjust="spacing" textLength="67" x="377" y="314.918">simplified</text><text fill="#000000" font-family="sans-serif" font-size="13" lengthAdjust="spacing" textLength="23" x="448" y="314.918">and</text><text fill="#000000" font-family="sans-serif" font-size="13" font-weight="bold" lengthAdjust="spacing" textLength="166" x="475" y="314.918">grouped per namespace</text><text fill="#000000" font-family="sans-serif" font-size="13" lengthAdjust="spacing" textLength="4" x="641" y="314.918">:</text><text fill="#000000" font-family="sans-serif" font-size="13" lengthAdjust="spacing" textLength="12" x="12" y="330.2285">&#160;&#160;&#160;</text><a href="Examples.BetterDesign.Repository.CarExample.CarParts-diagram-simplified-grouped-per-namespace.svg" target="_top" title="Examples.BetterDesign.Repository.CarExample.CarParts-diagram-simplified-grouped-per-namespace.svg" xlink:actuate="onRequest" xlink:href="Examples.BetterDesign.Repository.CarExample.CarParts-diagram-simplified-grouped-per-namespace.svg" xlink:show="new" xlink:title="Examples.BetterDesign.Repository.CarExample.CarParts-diagram-simplified-grouped-per-namespace.svg" xlink:type="simple"><text fill="#0000FF" font-family="sans-serif" font-size="13" lengthAdjust="spacing" text-decoration="underline" textLength="671" x="24" y="330.2285">Examples.BetterDesign.Repository.CarExample.CarParts-diagram-simplified-grouped-per-namespace.svg</text></a><ellipse cx="17.5" cy="340.7813" fill="#000000" rx="2.5" ry="2.5" style="stroke:#000000;stroke-width:0.0;"/><text fill="#000000" font-family="sans-serif" font-size="13" lengthAdjust="spacing" textLength="78" x="24" y="345.5391">Full diagram</text><text fill="#000000" font-family="sans-serif" font-size="13" font-weight="bold" lengthAdjust="spacing" textLength="55" x="106" y="345.5391">detailed</text><text fill="#000000" font-family="sans-serif" font-size="13" lengthAdjust="spacing" textLength="23" x="165" y="345.5391">and</text><text fill="#000000" font-family="sans-serif" font-size="13" font-weight="bold" lengthAdjust="spacing" textLength="166" x="192" y="345.5391">grouped per namespace</text><text fill="#000000" font-family="sans-serif" font-size="13" lengthAdjust="spacing" textLength="4" x="358" y="345.5391">:</text><text fill="#000000" font-family="sans-serif" font-size="13" lengthAdjust="spacing" textLength="12" x="12" y="360.8496">&#160;&#160;&#160;</text><a href="full-diagram-detailed-grouped-per-namespace.svg" target="_top" title="full-diagram-detailed-grouped-per-namespace.svg" xlink:actuate="onRequest" xlink:href="full-diagram-detailed-grouped-per-namespace.svg" xlink:show="new" xlink:title="full-diagram-detailed-grouped-per-namespace.svg" xlink:type="simple"><text fill="#0000FF" font-family="sans-serif" font-size="13" lengthAdjust="spacing" text-decoration="underline" textLength="330" x="24" y="360.8496">full-diagram-detailed-grouped-per-namespace.svg</text></a><ellipse cx="17.5" cy="371.4023" fill="#000000" rx="2.5" ry="2.5" style="stroke:#000000;stroke-width:0.0;"/><text fill="#000000" font-family="sans-serif" font-size="13" lengthAdjust="spacing" textLength="41" x="24" y="376.1602">Home:</text><text fill="#000000" font-family="sans-serif" font-size="13" lengthAdjust="spacing" textLength="12" x="12" y="391.4707">&#160;&#160;&#160;</text><a href="index.html" target="_top" title="index.html" xlink:actuate="onRequest" xlink:href="index.html" xlink:show="new" xlink:title="index.html" xlink:type="simple"><text fill="#0000FF" font-family="sans-serif" font-size="13" lengthAdjust="spacing" text-decoration="underline" textLength="68" x="24" y="391.4707">index.html</text></a><line style="stroke:#181818;stroke-width:1.0;" x1="7" x2="324" y1="294.6943" y2="294.6943"/><line style="stroke:#181818;stroke-width:1.0;" x1="7" x2="324" y1="296.6943" y2="296.6943"/><text fill="#000000" font-family="sans-serif" font-size="13" lengthAdjust="spacing" textLength="74" x="324" y="299.1074">Select other</text><line style="stroke:#181818;stroke-width:1.0;" x1="398" x2="715" y1="294.6943" y2="294.6943"/><line style="stroke:#181818;stroke-width:1.0;" x1="398" x2="715" y1="296.6943" y2="296.6943"/></g><!--link DBCar to Driver--><g id="link_DBCar_Driver"><path codeLine="90" d="M1795.86,359.5547 C2184.45,359.5547 2657.88,359.5547 2657.88,359.5547 C2657.88,359.5547 2657.88,457.4147 2657.88,457.4147 " fill="none" id="DBCar-to-Driver" style="stroke:#6060BB;stroke-width:1.0;stroke-dasharray:7.0,7.0;"/><polygon fill="#6060BB" points="2657.88,462.4147,2661.88,453.4147,2657.88,457.4147,2653.88,453.4147,2657.88,462.4147" style="stroke:#6060BB;stroke-width:1.0;"/><text fill="#000000" font-family="sans-serif" font-size="13" lengthAdjust="spacing" textLength="29" x="2245.8" y="373.123">uses</text></g><!--reverse link Driver to DBCar--><g id="link_Driver_DBCar"><path codeLine="105" d="M2729.75,449.0847 C2729.75,449.0847 2729.75,355.5547 2729.75,355.5547 C2729.75,355.5547 2209.64,355.5547 1795.95,355.5547 " fill="none" id="Driver-backto-DBCar" style="stroke:#10BB10;stroke-width:1.0;"/><polygon fill="#10BB10" points="2729.75,462.0847,2733.75,456.0847,2729.75,450.0847,2725.75,456.0847,2729.75,462.0847" style="stroke:#10BB10;stroke-width:1.0;"/></g><!--link DBCar to Car--><g id="link_DBCar_Car"><path codeLine="91" d="M1795.99,258.5547 C1795.99,258.5547 2256.08,258.5547 2256.08,258.5547 " fill="none" id="DBCar-to-Car" style="stroke:#6060BB;stroke-width:1.0;stroke-dasharray:7.0,7.0;"/><polygon fill="#6060BB" points="2261.08,258.5547,2252.08,254.5547,2256.08,258.5547,2252.08,262.5547,2261.08,258.5547" style="stroke:#6060BB;stroke-width:1.0;"/><text fill="#000000" font-family="sans-serif" font-size="13" lengthAdjust="spacing" textLength="29" x="1996.03" y="255.123">uses</text></g><!--link DBCar to Seats--><g id="link_DBCar_Seats"><path codeLine="92" d="M1795.98,370.5547 C1919.88,370.5547 2018,370.5547 2018,370.5547 C2018,370.5547 2018,457.2747 2018,457.2747 " fill="none" id="DBCar-to-Seats" style="stroke:#6060BB;stroke-width:1.0;stroke-dasharray:7.0,7.0;"/><polygon fill="#6060BB" points="2018,462.2747,2022,453.2747,2018,457.2747,2014,453.2747,2018,462.2747" style="stroke:#6060BB;stroke-width:1.0;"/><text fill="#000000" font-family="sans-serif" font-size="13" lengthAdjust="spacing" textLength="29" x="1920.35" y="367.123">uses</text></g><!--reverse link Seats to DBCar--><g id="link_Seats_DBCar"><path codeLine="104" d="M1935,449.0847 C1935,449.0847 1935,374.5547 1935,374.5547 C1935,374.5547 1877,374.5547 1795.95,374.5547 " fill="none" id="Seats-backto-DBCar" style="stroke:#10BB10;stroke-width:1.0;"/><polygon fill="#10BB10" points="1935,462.0847,1939,456.0847,1935,450.0847,1931,456.0847,1935,462.0847" style="stroke:#10BB10;stroke-width:1.0;"/></g><!--link DBCar to Doors--><g id="link_DBCar_Doors"><path codeLine="93" d="M1795.75,348.5547 C2325.29,348.5547 3085.8,348.5547 3085.8,348.5547 C3085.8,348.5547 3085.8,457.1947 3085.8,457.1947 " fill="none" id="DBCar-to-Doors" style="stroke:#6060BB;stroke-width:1.0;stroke-dasharray:7.0,7.0;"/><polygon fill="#6060BB" points="3085.8,462.1947,3089.8,453.1947,3085.8,457.1947,3081.8,453.1947,3085.8,462.1947" style="stroke:#6060BB;stroke-width:1.0;"/><text fill="#000000" font-family="sans-serif" font-size="13" lengthAdjust="spacing" textLength="29" x="2465.1" y="362.123">uses</text></g><!--reverse link Doors to DBCar--><g id="link_Doors_DBCar"><path codeLine="107" d="M3019.4,449.0547 C3019.4,449.0547 3019.4,352.5547 3019.4,352.5547 C3019.4,352.5547 2304.82,352.5547 1795.93,352.5547 " fill="none" id="Doors-backto-DBCar" style="stroke:#10BB10;stroke-width:1.0;"/><polygon fill="#10BB10" points="3019.4,462.0547,3023.4,456.0547,3019.4,450.0547,3015.4,456.0547,3019.4,462.0547" style="stroke:#10BB10;stroke-width:1.0;"/></g><!--link DBCar to Wheels--><g id="link_DBCar_Wheels"><path codeLine="94" d="M1795.7,363.5547 C2025.54,363.5547 2248,363.5547 2248,363.5547 C2248,363.5547 2248,457.4147 2248,457.4147 " fill="none" id="DBCar-to-Wheels" style="stroke:#6060BB;stroke-width:1.0;stroke-dasharray:7.0,7.0;"/><polygon fill="#6060BB" points="2248,462.4147,2252,453.4147,2248,457.4147,2244,453.4147,2248,462.4147" style="stroke:#6060BB;stroke-width:1.0;"/><text fill="#000000" font-family="sans-serif" font-size="13" lengthAdjust="spacing" textLength="29" x="2038.78" y="360.123">uses</text></g><!--reverse link Wheels to DBCar--><g id="link_Wheels_DBCar"><path codeLine="106" d="M2233.5,449.1747 C2233.5,449.1747 2233.5,366.5547 2233.5,366.5547 C2233.5,366.5547 2019.49,366.5547 1795.97,366.5547 " fill="none" id="Wheels-backto-DBCar" style="stroke:#10BB10;stroke-width:1.0;"/><polygon fill="#10BB10" points="2233.5,462.1747,2237.5,456.1747,2233.5,450.1747,2229.5,456.1747,2233.5,462.1747" style="stroke:#10BB10;stroke-width:1.0;"/></g><!--reverse link Car to Wheels--><g id="link_Car_Wheels"><path codeLine="97" d="M2406.75,358.7947 C2406.75,358.7947 2406.75,463.0647 2406.75,463.0647 " fill="none" id="Car-backto-Wheels" style="stroke:#10BB10;stroke-width:1.0;"/><polygon fill="#10BB10" points="2406.75,345.7947,2402.75,351.7947,2406.75,357.7947,2410.75,351.7947,2406.75,345.7947" style="stroke:#10BB10;stroke-width:1.0;"/></g><!--reverse link Car to Seats--><g id="link_Car_Seats"><path codeLine="98" d="M2248.04,301.5547 C2248.04,301.5547 2101,301.5547 2101,301.5547 C2101,301.5547 2101,403.9047 2101,463.0747 " fill="none" id="Car-backto-Seats" style="stroke:#10BB10;stroke-width:1.0;"/><polygon fill="#10BB10" points="2261.04,301.5547,2255.04,297.5547,2249.04,301.5547,2255.04,305.5547,2261.04,301.5547" style="stroke:#10BB10;stroke-width:1.0;"/></g><!--reverse link Car to Driver--><g id="link_Car_Driver"><path codeLine="99" d="M2801.62,358.7947 C2801.62,358.7947 2801.62,463.0647 2801.62,463.0647 " fill="none" id="Car-backto-Driver" style="stroke:#10BB10;stroke-width:1.0;"/><polygon fill="#10BB10" points="2801.62,345.7947,2797.62,351.7947,2801.62,357.7947,2805.62,351.7947,2801.62,345.7947" style="stroke:#10BB10;stroke-width:1.0;"/></g><!--reverse link Car to Doors--><g id="link_Car_Doors"><path codeLine="100" d="M2887.79,301.5547 C2887.79,301.5547 3152.2,301.5547 3152.2,301.5547 C3152.2,301.5547 3152.2,403.9047 3152.2,463.0747 " fill="none" id="Car-backto-Doors" style="stroke:#10BB10;stroke-width:1.0;"/><polygon fill="#10BB10" points="2874.79,301.5547,2880.79,305.5547,2886.79,301.5547,2880.79,297.5547,2874.79,301.5547" style="stroke:#10BB10;stroke-width:1.0;"/></g><!--link Car to Doors--><g id="link_Car_Doors"><path codeLine="101" d="M2873.77,258.5547 C3042.66,258.5547 3218.6,258.5547 3218.6,258.5547 C3218.6,258.5547 3218.6,457.2447 3218.6,457.2447 " fill="none" id="Car-to-Doors" style="stroke:#6060BB;stroke-width:1.0;stroke-dasharray:7.0,7.0;"/><polygon fill="#6060BB" points="3218.6,462.2447,3222.6,453.2447,3218.6,457.2447,3214.6,453.2447,3218.6,462.2447" style="stroke:#6060BB;stroke-width:1.0;"/><text fill="#000000" font-family="sans-serif" font-size="13" lengthAdjust="spacing" textLength="29" x="3115.53" y="255.123">uses</text></g><!--SRC=[xLbDRziu4BthLmoSGxVQjPhkeGSXzi791digYcQ1nI8s0aOQsqGfKY3fVBJeV-zGacq6i6DBjkLWuI0878apxyrmPlWacszSvaop30INQ9zp1ANjL0MMMu5mOVXtZFyyx__rnB9Se8a6Q2tgApHy8gElc2l3hTBFqINJrHhtyGlJra0OfcWP5vY68J2PqeM9LhCSKyXHWsGPcfmb68ON7nnGFv3A8dJ-KpCDJ2FPCF7ydSj9F9G7PZ2KGzdhNND1ldkzeIGEa309YU39Dq1kfxIU_Ynj30obqhI06LDUXJ7zFovS46UtEYj0wGFNGvboZOc557EKASg4Kp0bx0qATqSv40SUGiDe3QShVCmtnqiP1O3RsoP0tPIp2TLCTmdNhM2w1DDTm4JcOJ8QkNYkPq90PLPZL-OinsI-G9qRRyByMsKuTy0fuq_Hr6PYDEe0Ct0j5BEqIv-fueA5yIBlNcPguSAF5SvUv7PTplSCustX5hjS5vnoMXN-nlgv6b3PR5DenS9wH2ec0B_312sPcskbhpH_GFtRnLX92uaIIlSwdyu_dGy6dNvQt8kR57rK-htuuFpstyVm0c0mS12T_errhLyjMf2RvIcpI9vMiqfORKf_W45cJRD8RfpfXa0U54_R22DLIZSCuygPDWZ3e13av1-rpp0ENLYh0YbhVasb7v1BJSyhQB_MeqdSpF-UsAx8Wy_ytocYC6-OUKbmLSvTkxpbb7ljxFCkfjKRvkrFquBtp-3TfSf8LPEUEUOf3O-aMe5EQGkaBpEaUDKOAePmASWhgLH6mYpN-C3LpDoPsVtTmi-Tu6IwZE2paWZtcB2PGITpAtrkk07w7NF9pHJJoFEzj5q64VnSkS0FUSsIUNhezacm7GpSg_5wZmTDDEJMAl9buzL_RcceAzq8UYm6QWmxJ6FFModReFcayNnLeWDsEE5yRuKIW-QpE-ZrF7U9njV4OkkwhzbKRgiRri_gOqphPHXhHl5fd9_6-JueBTzTxVWcgjQPq_3KyOPmGxgbSJtIPy_qkAeUFVB5iBwFjtprua_b-JCCyidKhfxB6-Ogb_RbM7NZQGzPBK-ZfcajhKzvNQS_ckQrj3xbTOq6QLokplX_bzKTvLNBHy5hWkj8agi8OurOQbkHmJi8j_k1Wwrr55s3QXJCSYKDu9FLBB5KOcEjiYNpcDPkgfbWosygejkpiWj6KN-dimnYe3emq0Pmgs2-3ceVjvoyxUDM9-a2UB_LwK46TVS-xDwUVQJGFfwFkZl5TWJaiegE05mrwJ6GYmAk3RptpZbO0IyGWnrAebwUooOFTgc4zW2hRcinmcBZc-3z0W00]--></g></svg>