<?xml version="1.0" encoding="us-ascii" standalone="no"?><svg xmlns="http://www.w3.org/2000/svg" xmlns:xlink="http://www.w3.org/1999/xlink" contentStyleType="text/css" height="561px" preserveAspectRatio="none" style="width:1158px;height:561px;background:#FFFFFF;" version="1.1" viewBox="0 0 1158 561" width="1158px" zoomAndPan="magnify"><defs/><g><text fill="#000000" font-family="sans-serif" font-size="20" font-weight="bold" lengthAdjust="spacing" textLength="592" x="217.25" y="29.3359">Examples.BasicExample.ClassExample.InnerClassExample</text><text fill="#000000" font-family="sans-serif" font-size="20" font-weight="bold" lengthAdjust="spacing" textLength="104" x="816.25" y="29.3359">simplified</text><text fill="#000000" font-family="sans-serif" font-size="20" font-weight="bold" lengthAdjust="spacing" textLength="7" x="920.25" y="29.3359">&#160;</text><!--cluster Examples--><g id="cluster_Examples"><path d="M570,72.5547 L639,72.5547 A3.75,3.75 0 0 1 641.5,75.0547 L648.5,95.043 L1149,95.043 A2.5,2.5 0 0 1 1151.5,97.543 L1151.5,552.0547 A2.5,2.5 0 0 1 1149,554.5547 L570,554.5547 A2.5,2.5 0 0 1 567.5,552.0547 L567.5,75.0547 A2.5,2.5 0 0 1 570,72.5547 " fill="none" style="stroke:#000000;stroke-width:1.5;"/><line style="stroke:#000000;stroke-width:1.5;" x1="567.5" x2="648.5" y1="95.043" y2="95.043"/><text fill="#000000" font-family="sans-serif" font-size="14" font-weight="bold" lengthAdjust="spacing" textLength="68" x="571.5" y="88.0898">Examples</text></g><!--cluster BasicExample--><g id="cluster_BasicExample"><path d="M594,115.5547 L692,115.5547 A3.75,3.75 0 0 1 694.5,118.0547 L701.5,138.043 L1125,138.043 A2.5,2.5 0 0 1 1127.5,140.543 L1127.5,528.0547 A2.5,2.5 0 0 1 1125,530.5547 L594,530.5547 A2.5,2.5 0 0 1 591.5,528.0547 L591.5,118.0547 A2.5,2.5 0 0 1 594,115.5547 " fill="none" style="stroke:#000000;stroke-width:1.5;"/><line style="stroke:#000000;stroke-width:1.5;" x1="591.5" x2="701.5" y1="138.043" y2="138.043"/><text fill="#000000" font-family="sans-serif" font-size="14" font-weight="bold" lengthAdjust="spacing" textLength="97" x="595.5" y="131.0898">BasicExample</text></g><!--class ClassExample_DOT_InnerClassExample--><a href="Examples.BasicExample.ClassExample.InnerClassExample-diagram-simplified.svg" target="_top" title="Examples.BasicExample.ClassExample.InnerClassExample-diagram-simplified.svg" xlink:actuate="onRequest" xlink:href="Examples.BasicExample.ClassExample.InnerClassExample-diagram-simplified.svg" xlink:show="new" xlink:title="Examples.BasicExample.ClassExample.InnerClassExample-diagram-simplified.svg" xlink:type="simple"><g id="elem_ClassExample_DOT_InnerClassExample"><rect codeLine="4" fill="#FFFF00" height="48" id="ClassExample_DOT_InnerClassExample" rx="2.5" ry="2.5" style="stroke:#181818;stroke-width:0.5;" width="302" x="679.5" y="358.5547"/><ellipse cx="694.5" cy="374.5547" fill="#ADD1B2" rx="11" ry="11" style="stroke:#181818;stroke-width:1.0;"/><path d="M696.9731,380.6978 Q696.3921,380.9966 695.7529,381.146 Q695.1138,381.2954 694.4082,381.2954 Q691.9014,381.2954 690.5815,379.6436 Q689.2617,377.9917 689.2617,374.8706 Q689.2617,371.7412 690.5815,370.0894 Q691.9014,368.4375 694.4082,368.4375 Q695.1138,368.4375 695.7612,368.5869 Q696.4087,368.7363 696.9731,369.0352 L696.9731,371.7578 Q696.3423,371.1768 695.7488,370.907 Q695.1553,370.6372 694.5244,370.6372 Q693.1797,370.6372 692.4949,371.7039 Q691.8101,372.7705 691.8101,374.8706 Q691.8101,376.9624 692.4949,378.0291 Q693.1797,379.0957 694.5244,379.0957 Q695.1553,379.0957 695.7488,378.8259 Q696.3423,378.5562 696.9731,377.9751 Z " fill="#000000"/><text fill="#000000" font-family="sans-serif" font-size="14" lengthAdjust="spacing" textLength="270" x="708.5" y="379.8457">ClassExample_DOT_InnerClassExample</text><line style="stroke:#181818;stroke-width:0.5;" x1="680.5" x2="980.5" y1="390.5547" y2="390.5547"/><line style="stroke:#181818;stroke-width:0.5;" x1="680.5" x2="980.5" y1="398.5547" y2="398.5547"/></g></a><!--class Useless--><a href="Examples.BasicExample.Useless-diagram-simplified.svg" target="_top" title="Examples.BasicExample.Useless-diagram-simplified.svg" xlink:actuate="onRequest" xlink:href="Examples.BasicExample.Useless-diagram-simplified.svg" xlink:show="new" xlink:title="Examples.BasicExample.Useless-diagram-simplified.svg" xlink:type="simple"><g id="elem_Useless"><rect codeLine="6" fill="#F1F1F1" height="48" id="Useless" rx="2.5" ry="2.5" style="stroke:#181818;stroke-width:0.5;" width="83" x="1017" y="358.5547"/><ellipse cx="1032" cy="374.5547" fill="#ADD1B2" rx="11" ry="11" style="stroke:#181818;stroke-width:1.0;"/><path d="M1034.4731,380.6978 Q1033.8921,380.9966 1033.2529,381.146 Q1032.6138,381.2954 1031.9082,381.2954 Q1029.4014,381.2954 1028.0815,379.6436 Q1026.7617,377.9917 1026.7617,374.8706 Q1026.7617,371.7412 1028.0815,370.0894 Q1029.4014,368.4375 1031.9082,368.4375 Q1032.6138,368.4375 1033.2612,368.5869 Q1033.9087,368.7363 1034.4731,369.0352 L1034.4731,371.7578 Q1033.8423,371.1768 1033.2488,370.907 Q1032.6553,370.6372 1032.0244,370.6372 Q1030.6797,370.6372 1029.9949,371.7039 Q1029.3101,372.7705 1029.3101,374.8706 Q1029.3101,376.9624 1029.9949,378.0291 Q1030.6797,379.0957 1032.0244,379.0957 Q1032.6553,379.0957 1033.2488,378.8259 Q1033.8423,378.5562 1034.4731,377.9751 Z " fill="#000000"/><text fill="#000000" font-family="sans-serif" font-size="14" lengthAdjust="spacing" textLength="51" x="1046" y="379.8457">Useless</text><line style="stroke:#181818;stroke-width:0.5;" x1="1018" x2="1099" y1="390.5547" y2="390.5547"/><line style="stroke:#181818;stroke-width:0.5;" x1="1018" x2="1099" y1="398.5547" y2="398.5547"/></g></a><!--class ClassExample_DOT_InnerClassExample_DOT_classInMethodExample--><a href="Examples.BasicExample.ClassExample.InnerClassExample.classInMethodExample-diagram-simplified.svg" target="_top" title="Examples.BasicExample.ClassExample.InnerClassExample.classInMethodExample-diagram-simplified.svg" xlink:actuate="onRequest" xlink:href="Examples.BasicExample.ClassExample.InnerClassExample.classInMethodExample-diagram-simplified.svg" xlink:show="new" xlink:title="Examples.BasicExample.ClassExample.InnerClassExample.classInMethodExample-diagram-simplified.svg" xlink:type="simple"><g id="elem_ClassExample_DOT_InnerClassExample_DOT_classInMethodExample"><rect codeLine="8" fill="#FFFF00" height="48" id="ClassExample_DOT_InnerClassExample_DOT_classInMethodExample" rx="2.5" ry="2.5" style="stroke:#181818;stroke-width:0.5;" width="503" x="608" y="466.5547"/><ellipse cx="623" cy="482.5547" fill="#ADD1B2" rx="11" ry="11" style="stroke:#181818;stroke-width:1.0;"/><path d="M625.4731,488.6978 Q624.8921,488.9966 624.2529,489.146 Q623.6138,489.2954 622.9082,489.2954 Q620.4014,489.2954 619.0815,487.6436 Q617.7617,485.9917 617.7617,482.8706 Q617.7617,479.7412 619.0815,478.0894 Q620.4014,476.4375 622.9082,476.4375 Q623.6138,476.4375 624.2612,476.5869 Q624.9087,476.7363 625.4731,477.0352 L625.4731,479.7578 Q624.8423,479.1768 624.2488,478.907 Q623.6553,478.6372 623.0244,478.6372 Q621.6797,478.6372 620.9949,479.7039 Q620.3101,480.7705 620.3101,482.8706 Q620.3101,484.9624 620.9949,486.0291 Q621.6797,487.0957 623.0244,487.0957 Q623.6553,487.0957 624.2488,486.8259 Q624.8423,486.5562 625.4731,485.9751 Z " fill="#000000"/><text fill="#000000" font-family="sans-serif" font-size="14" lengthAdjust="spacing" textLength="471" x="637" y="487.8457">ClassExample_DOT_InnerClassExample_DOT_classInMethodExample</text><line style="stroke:#181818;stroke-width:0.5;" x1="609" x2="1110" y1="498.5547" y2="498.5547"/><line style="stroke:#181818;stroke-width:0.5;" x1="609" x2="1110" y1="506.5547" y2="506.5547"/></g></a><!--class ClassExample--><a href="Examples.BasicExample.ClassExample-diagram-simplified.svg" target="_top" title="Examples.BasicExample.ClassExample-diagram-simplified.svg" xlink:actuate="onRequest" xlink:href="Examples.BasicExample.ClassExample-diagram-simplified.svg" xlink:show="new" xlink:title="Examples.BasicExample.ClassExample-diagram-simplified.svg" xlink:type="simple"><g id="elem_ClassExample"><rect codeLine="10" fill="#F1F1F1" height="48" id="ClassExample" rx="2.5" ry="2.5" style="stroke:#181818;stroke-width:0.5;" width="127" x="984" y="150.5547"/><ellipse cx="999" cy="166.5547" fill="#ADD1B2" rx="11" ry="11" style="stroke:#181818;stroke-width:1.0;"/><path d="M1001.4731,172.6978 Q1000.8921,172.9966 1000.2529,173.146 Q999.6138,173.2954 998.9082,173.2954 Q996.4014,173.2954 995.0815,171.6436 Q993.7617,169.9917 993.7617,166.8706 Q993.7617,163.7412 995.0815,162.0894 Q996.4014,160.4375 998.9082,160.4375 Q999.6138,160.4375 1000.2612,160.5869 Q1000.9087,160.7363 1001.4731,161.0352 L1001.4731,163.7578 Q1000.8423,163.1768 1000.2488,162.907 Q999.6553,162.6372 999.0244,162.6372 Q997.6797,162.6372 996.9949,163.7039 Q996.3101,164.7705 996.3101,166.8706 Q996.3101,168.9624 996.9949,170.0291 Q997.6797,171.0957 999.0244,171.0957 Q999.6553,171.0957 1000.2488,170.8259 Q1000.8423,170.5562 1001.4731,169.9751 Z " fill="#000000"/><text fill="#000000" font-family="sans-serif" font-size="14" lengthAdjust="spacing" textLength="95" x="1013" y="171.8457">ClassExample</text><line style="stroke:#181818;stroke-width:0.5;" x1="985" x2="1110" y1="182.5547" y2="182.5547"/><line style="stroke:#181818;stroke-width:0.5;" x1="985" x2="1110" y1="190.5547" y2="190.5547"/></g></a><g id="elem_FloatingNote"><path d="M6,50.5547 L6,298.2129 L551,298.2129 L551,60.5547 L541,50.5547 L6,50.5547 " fill="#FEFFDD" style="stroke:#181818;stroke-width:0.5;"/><path d="M541,50.5547 L541,60.5547 L551,60.5547 L541,50.5547 " fill="#FEFFDD" style="stroke:#181818;stroke-width:1.0;"/><text fill="#000000" font-family="sans-serif" font-size="13" lengthAdjust="spacing" textLength="120" x="12" y="68.123">Your are analyzing:</text><text fill="#000000" font-family="sans-serif" font-size="13" lengthAdjust="spacing" textLength="363" x="12" y="83.4336">Examples.BasicExample.ClassExample.InnerClassExample</text><text fill="#000000" font-family="sans-serif" font-size="13" font-weight="bold" lengthAdjust="spacing" textLength="67" x="379" y="83.4336">simplified</text><text fill="#000000" font-family="sans-serif" font-size="13" lengthAdjust="spacing" textLength="4" x="446" y="83.4336">&#160;</text><text fill="#000000" font-family="sans-serif" font-size="13" lengthAdjust="spacing" textLength="4" x="12" y="98.7441">&#160;</text><text fill="#000000" font-family="sans-serif" font-size="13" lengthAdjust="spacing" textLength="229" x="12" y="129.3652">You can click either the namespaces</text><text fill="#000000" font-family="sans-serif" font-size="13" lengthAdjust="spacing" textLength="266" x="12" y="144.6758">or class names for filtering them and their</text><text fill="#000000" font-family="sans-serif" font-size="13" lengthAdjust="spacing" textLength="130" x="12" y="159.9863">direct dependencies.</text><text fill="#000000" font-family="sans-serif" font-size="13" lengthAdjust="spacing" textLength="4" x="12" y="175.2969">&#160;</text><line style="stroke:#181818;stroke-width:1.0;" x1="7" x2="262.5" y1="109.1416" y2="109.1416"/><line style="stroke:#181818;stroke-width:1.0;" x1="7" x2="262.5" y1="111.1416" y2="111.1416"/><text fill="#000000" font-family="sans-serif" font-size="13" lengthAdjust="spacing" textLength="32" x="262.5" y="113.5547">Filter</text><line style="stroke:#181818;stroke-width:1.0;" x1="294.5" x2="550" y1="109.1416" y2="109.1416"/><line style="stroke:#181818;stroke-width:1.0;" x1="294.5" x2="550" y1="111.1416" y2="111.1416"/><ellipse cx="17.5" cy="205.1602" fill="#000000" rx="2.5" ry="2.5" style="stroke:#000000;stroke-width:0.0;"/><text fill="#000000" font-family="sans-serif" font-size="13" lengthAdjust="spacing" textLength="363" x="24" y="209.918">Examples.BasicExample.ClassExample.InnerClassExample</text><text fill="#000000" font-family="sans-serif" font-size="13" font-weight="bold" lengthAdjust="spacing" textLength="55" x="391" y="209.918">detailed</text><text fill="#000000" font-family="sans-serif" font-size="13" lengthAdjust="spacing" textLength="4" x="450" y="209.918">:</text><text fill="#000000" font-family="sans-serif" font-size="13" lengthAdjust="spacing" textLength="12" x="12" y="225.2285">&#160;&#160;&#160;</text><a href="Examples.BasicExample.ClassExample.InnerClassExample-diagram-detailed.svg" target="_top" title="Examples.BasicExample.ClassExample.InnerClassExample-diagram-detailed.svg" xlink:actuate="onRequest" xlink:href="Examples.BasicExample.ClassExample.InnerClassExample-diagram-detailed.svg" xlink:show="new" xlink:title="Examples.BasicExample.ClassExample.InnerClassExample-diagram-detailed.svg" xlink:type="simple"><text fill="#0000FF" font-family="sans-serif" font-size="13" lengthAdjust="spacing" text-decoration="underline" textLength="506" x="24" y="225.2285">Examples.BasicExample.ClassExample.InnerClassExample-diagram-detailed.svg</text></a><ellipse cx="17.5" cy="235.7813" fill="#000000" rx="2.5" ry="2.5" style="stroke:#000000;stroke-width:0.0;"/><text fill="#000000" font-family="sans-serif" font-size="13" lengthAdjust="spacing" textLength="78" x="24" y="240.5391">Full diagram</text><text fill="#000000" font-family="sans-serif" font-size="13" font-weight="bold" lengthAdjust="spacing" textLength="67" x="106" y="240.5391">simplified</text><text fill="#000000" font-family="sans-serif" font-size="13" lengthAdjust="spacing" textLength="23" x="177" y="240.5391">and</text><text fill="#000000" font-family="sans-serif" font-size="13" font-weight="bold" lengthAdjust="spacing" textLength="166" x="204" y="240.5391">grouped per namespace</text><text fill="#000000" font-family="sans-serif" font-size="13" lengthAdjust="spacing" textLength="4" x="370" y="240.5391">:</text><text fill="#000000" font-family="sans-serif" font-size="13" lengthAdjust="spacing" textLength="12" x="12" y="255.8496">&#160;&#160;&#160;</text><a href="full-diagram-simplified-grouped-per-namespace.svg" target="_top" title="full-diagram-simplified-grouped-per-namespace.svg" xlink:actuate="onRequest" xlink:href="full-diagram-simplified-grouped-per-namespace.svg" xlink:show="new" xlink:title="full-diagram-simplified-grouped-per-namespace.svg" xlink:type="simple"><text fill="#0000FF" font-family="sans-serif" font-size="13" lengthAdjust="spacing" text-decoration="underline" textLength="343" x="24" y="255.8496">full-diagram-simplified-grouped-per-namespace.svg</text></a><ellipse cx="17.5" cy="266.4023" fill="#000000" rx="2.5" ry="2.5" style="stroke:#000000;stroke-width:0.0;"/><text fill="#000000" font-family="sans-serif" font-size="13" lengthAdjust="spacing" textLength="41" x="24" y="271.1602">Home:</text><text fill="#000000" font-family="sans-serif" font-size="13" lengthAdjust="spacing" textLength="12" x="12" y="286.4707">&#160;&#160;&#160;</text><a href="index.html" target="_top" title="index.html" xlink:actuate="onRequest" xlink:href="index.html" xlink:show="new" xlink:title="index.html" xlink:type="simple"><text fill="#0000FF" font-family="sans-serif" font-size="13" lengthAdjust="spacing" text-decoration="underline" textLength="68" x="24" y="286.4707">index.html</text></a><line style="stroke:#181818;stroke-width:1.0;" x1="7" x2="241.5" y1="189.6943" y2="189.6943"/><line style="stroke:#181818;stroke-width:1.0;" x1="7" x2="241.5" y1="191.6943" y2="191.6943"/><text fill="#000000" font-family="sans-serif" font-size="13" lengthAdjust="spacing" textLength="74" x="241.5" y="194.1074">Select other</text><line style="stroke:#181818;stroke-width:1.0;" x1="315.5" x2="550" y1="189.6943" y2="189.6943"/><line style="stroke:#181818;stroke-width:1.0;" x1="315.5" x2="550" y1="191.6943" y2="191.6943"/></g><!--reverse link ClassExample_DOT_InnerClassExample to ClassExample_DOT_InnerClassExample_DOT_classInMethodExample--><g id="link_ClassExample_DOT_InnerClassExample_ClassExample_DOT_InnerClassExample_DOT_classInMethodExample"><path codeLine="17" d="M830.5,422.7947 C830.5,422.7947 830.5,466.3947 830.5,466.3947 " fill="none" id="ClassExample_DOT_InnerClassExample-backto-ClassExample_DOT_InnerClassExample_DOT_classInMethodExample" style="stroke:#10BBBB;stroke-width:1.0;"/><ellipse cx="830.5" cy="415.7947" fill="#FFFFFF" rx="8" ry="8" style="stroke:#10BBBB;stroke-width:1.0;"/><line style="stroke:#10BBBB;stroke-width:1.0;" x1="830.5" x2="830.5" y1="423.7947" y2="407.7947"/><line style="stroke:#10BBBB;stroke-width:1.0;" x1="822.5" x2="838.5" y1="415.7947" y2="415.7947"/></g><!--reverse link ClassExample to ClassExample_DOT_InnerClassExample--><g id="link_ClassExample_ClassExample_DOT_InnerClassExample"><path codeLine="19" d="M1000.5,214.8247 C1000.5,214.8247 1000.5,382.5547 1000.5,382.5547 C1000.5,382.5547 993.35,382.5547 981.98,382.5547 " fill="none" id="ClassExample-backto-ClassExample_DOT_InnerClassExample" style="stroke:#10BBBB;stroke-width:1.0;"/><ellipse cx="1000.5" cy="207.8247" fill="#FFFFFF" rx="8" ry="8" style="stroke:#10BBBB;stroke-width:1.0;"/><line style="stroke:#10BBBB;stroke-width:1.0;" x1="1000.5" x2="1000.5" y1="215.8247" y2="199.8247"/><line style="stroke:#10BBBB;stroke-width:1.0;" x1="992.5" x2="1008.5" y1="207.8247" y2="207.8247"/></g><!--reverse link ClassExample to Useless--><g id="link_ClassExample_Useless"><path codeLine="20" d="M1044.67,212.8247 C1044.67,212.8247 1044.67,358.1247 1044.67,358.1247 " fill="none" id="ClassExample-backto-Useless" style="stroke:#10BB10;stroke-width:1.0;"/><polygon fill="#10BB10" points="1044.67,199.8247,1040.67,205.8247,1044.67,211.8247,1048.67,205.8247,1044.67,199.8247" style="stroke:#10BB10;stroke-width:1.0;"/></g><!--link ClassExample to Useless--><g id="link_ClassExample_Useless"><path codeLine="21" d="M1072.33,198.8247 C1072.33,198.8247 1072.33,352.1247 1072.33,352.1247 " fill="none" id="ClassExample-to-Useless" style="stroke:#6060BB;stroke-width:1.0;stroke-dasharray:7.0,7.0;"/><polygon fill="#6060BB" points="1072.33,357.1247,1076.33,348.1247,1072.33,352.1247,1068.33,348.1247,1072.33,357.1247" style="stroke:#6060BB;stroke-width:1.0;"/><text fill="#000000" font-family="sans-serif" font-size="13" lengthAdjust="spacing" textLength="29" x="1042.33" y="272.043">uses</text></g><!--SRC=[jLGzRzim4DtrAmxn4825LAT31YFsaBP6CxGTsWw19GI4TB8FeKY1f5ixHVzxJx9a5qqCAOh3GH0_xhrtZtTqzwHBQMK1YZJwRObWh5-Pm9DN25UE7d3oRZpxk955gT15rz9HsioYzqewrqvkj4Rxxme8uOX_A2VCX82hjnNQBD368vpTchK5QH6abchxG7evYVKfQ68Tw-bqJigZdKvZpKIGIWsfelGUaFmABV07j2pGbJ95np76yW46tQr2plEyXc1XrUc2TMRL3zbOPsGnzP1XYJf3dH8htj5-GrNjc8ga8XSmCAKClIHL9yI-0C1YCGGfp4Wk-Nh35YzoFvT9KWcRhvM2Plj_3wjSXLXQiounWv8DsvibHAidPu0z_Y4yRC923WltOGVUJwR05eBOlasqyeLAaZEG3kRAIC-MV-4Q2Q2vakx4xpvy_NxtsCONUdR8QQSUHbjKolo2topjJuUy7uvBWNUFQMZsZvFrOkaseLwj8MxqP-JMpbxcJlGKrcaiU_RTTPjtpcNSQy2hdJs7MZ9OL5pQHZl0ZRSozTnPkJN5eRKcVFR9f8F17V0cN8mknjSyal0LIYWOzBf5Yz7b-99L9T6ietjW0cl7xt4FejFasej9D4mNuwDCRG9zu0RuyHS0]--></g></svg>