<?xml version="1.0" encoding="us-ascii" standalone="no"?><svg xmlns="http://www.w3.org/2000/svg" xmlns:xlink="http://www.w3.org/1999/xlink" contentStyleType="text/css" height="685px" preserveAspectRatio="none" style="width:1655px;height:685px;background:#FFFFFF;" version="1.1" viewBox="0 0 1655 685" width="1655px" zoomAndPan="magnify"><defs/><g><text fill="#000000" font-family="sans-serif" font-size="20" font-weight="bold" lengthAdjust="spacing" textLength="528" x="507.5" y="29.3359">Examples.BadDesign.WarehouseEntitities.Customer</text><text fill="#000000" font-family="sans-serif" font-size="20" font-weight="bold" lengthAdjust="spacing" textLength="84" x="1042.5" y="29.3359">detailed</text><text fill="#000000" font-family="sans-serif" font-size="20" font-weight="bold" lengthAdjust="spacing" textLength="7" x="1126.5" y="29.3359">&#160;</text><!--cluster Examples--><g id="cluster_Examples"><path d="M542.5,50.5547 L611.5,50.5547 A3.75,3.75 0 0 1 614,53.0547 L621,73.043 L1645.5,73.043 A2.5,2.5 0 0 1 1648,75.543 L1648,676.0547 A2.5,2.5 0 0 1 1645.5,678.5547 L542.5,678.5547 A2.5,2.5 0 0 1 540,676.0547 L540,53.0547 A2.5,2.5 0 0 1 542.5,50.5547 " fill="none" style="stroke:#000000;stroke-width:1.5;"/><line style="stroke:#000000;stroke-width:1.5;" x1="540" x2="621" y1="73.043" y2="73.043"/><text fill="#000000" font-family="sans-serif" font-size="14" font-weight="bold" lengthAdjust="spacing" textLength="68" x="544" y="66.0898">Examples</text></g><!--cluster BadDesign--><g id="cluster_BadDesign"><path d="M566.5,93.5547 L643.5,93.5547 A3.75,3.75 0 0 1 646,96.0547 L653,116.043 L1621.5,116.043 A2.5,2.5 0 0 1 1624,118.543 L1624,652.0547 A2.5,2.5 0 0 1 1621.5,654.5547 L566.5,654.5547 A2.5,2.5 0 0 1 564,652.0547 L564,96.0547 A2.5,2.5 0 0 1 566.5,93.5547 " fill="none" style="stroke:#000000;stroke-width:1.5;"/><line style="stroke:#000000;stroke-width:1.5;" x1="564" x2="653" y1="116.043" y2="116.043"/><text fill="#000000" font-family="sans-serif" font-size="14" font-weight="bold" lengthAdjust="spacing" textLength="76" x="568" y="109.0898">BadDesign</text></g><!--cluster WarehouseEntitities--><g id="cluster_WarehouseEntitities"><path d="M1016.5,531.5547 L1161.5,531.5547 A3.75,3.75 0 0 1 1164,534.0547 L1171,554.043 L1171.5,554.043 A2.5,2.5 0 0 1 1174,556.543 L1174,628.0547 A2.5,2.5 0 0 1 1171.5,630.5547 L1016.5,630.5547 A2.5,2.5 0 0 1 1014,628.0547 L1014,534.0547 A2.5,2.5 0 0 1 1016.5,531.5547 " fill="none" style="stroke:#000000;stroke-width:1.5;"/><line style="stroke:#000000;stroke-width:1.5;" x1="1014" x2="1171" y1="554.043" y2="554.043"/><text fill="#000000" font-family="sans-serif" font-size="14" font-weight="bold" lengthAdjust="spacing" textLength="144" x="1018" y="547.0898">WarehouseEntitities</text></g><!--class DB--><a href="Examples.BadDesign.DB-diagram-detailed.svg" target="_top" title="Examples.BadDesign.DB-diagram-detailed.svg" xlink:actuate="onRequest" xlink:href="Examples.BadDesign.DB-diagram-detailed.svg" xlink:show="new" xlink:title="Examples.BadDesign.DB-diagram-detailed.svg" xlink:type="simple"><g id="elem_DB"><rect codeLine="4" fill="#F1F1F1" height="377.7656" id="DB" rx="2.5" ry="2.5" style="stroke:#181818;stroke-width:0.5;" width="1027" x="580.5" y="128.5547"/><ellipse cx="1080.75" cy="144.5547" fill="#ADD1B2" rx="11" ry="11" style="stroke:#181818;stroke-width:1.0;"/><path d="M1083.2231,150.6978 Q1082.6421,150.9966 1082.0029,151.146 Q1081.3638,151.2954 1080.6582,151.2954 Q1078.1514,151.2954 1076.8315,149.6436 Q1075.5117,147.9917 1075.5117,144.8706 Q1075.5117,141.7412 1076.8315,140.0894 Q1078.1514,138.4375 1080.6582,138.4375 Q1081.3638,138.4375 1082.0112,138.5869 Q1082.6587,138.7363 1083.2231,139.0352 L1083.2231,141.7578 Q1082.5923,141.1768 1081.9988,140.907 Q1081.4053,140.6372 1080.7744,140.6372 Q1079.4297,140.6372 1078.7449,141.7039 Q1078.0601,142.7705 1078.0601,144.8706 Q1078.0601,146.9624 1078.7449,148.0291 Q1079.4297,149.0957 1080.7744,149.0957 Q1081.4053,149.0957 1081.9988,148.8259 Q1082.5923,148.5562 1083.2231,147.9751 Z " fill="#000000"/><text fill="#000000" font-family="sans-serif" font-size="14" lengthAdjust="spacing" textLength="18" x="1101.25" y="149.8457">DB</text><line style="stroke:#181818;stroke-width:0.5;" x1="581.5" x2="1606.5" y1="160.5547" y2="160.5547"/><line style="stroke:#181818;stroke-width:0.5;" x1="581.5" x2="1606.5" y1="168.5547" y2="168.5547"/><ellipse cx="591.5" cy="182.2988" fill="#84BE84" rx="3" ry="3" style="stroke:#038048;stroke-width:1.0;"/><text fill="#000000" font-family="sans-serif" font-size="14" lengthAdjust="spacing" textLength="27" x="600.5" y="186.0898">get(</text><text fill="#6060BB" font-family="sans-serif" font-size="14" lengthAdjust="spacing" textLength="125" x="627.5" y="186.0898">queryString:String</text><text fill="#000000" font-family="sans-serif" font-size="14" lengthAdjust="spacing" textLength="9" x="752.5" y="186.0898">):</text><text fill="#BB6060" font-family="sans-serif" font-size="14" lengthAdjust="spacing" textLength="41" x="765.5" y="186.0898">String</text><ellipse cx="591.5" cy="198.7871" fill="#84BE84" rx="3" ry="3" style="stroke:#038048;stroke-width:1.0;"/><text fill="#000000" font-family="sans-serif" font-size="14" lengthAdjust="spacing" textLength="101" x="600.5" y="202.5781">getCarsWhere(</text><text fill="#6060BB" font-family="sans-serif" font-size="14" lengthAdjust="spacing" textLength="169" x="701.5" y="202.5781">whereQueryString:String</text><text fill="#000000" font-family="sans-serif" font-size="14" lengthAdjust="spacing" textLength="9" x="870.5" y="202.5781">):</text><text fill="#BB6060" font-family="sans-serif" font-size="14" lengthAdjust="spacing" textLength="41" x="883.5" y="202.5781">String</text><ellipse cx="591.5" cy="215.2754" fill="#84BE84" rx="3" ry="3" style="stroke:#038048;stroke-width:1.0;"/><text fill="#000000" font-family="sans-serif" font-size="14" lengthAdjust="spacing" textLength="25" x="600.5" y="219.0664">set(</text><text fill="#6060BB" font-family="sans-serif" font-size="14" lengthAdjust="spacing" textLength="125" x="625.5" y="219.0664">queryString:String</text><text fill="#000000" font-family="sans-serif" font-size="14" lengthAdjust="spacing" textLength="9" x="750.5" y="219.0664">):</text><text fill="#BB6060" font-family="sans-serif" font-size="14" lengthAdjust="spacing" textLength="29" x="763.5" y="219.0664">void</text><ellipse cx="591.5" cy="231.7637" fill="#84BE84" rx="3" ry="3" style="stroke:#038048;stroke-width:1.0;"/><text fill="#000000" font-family="sans-serif" font-size="14" lengthAdjust="spacing" textLength="53" x="600.5" y="235.5547">update(</text><text fill="#6060BB" font-family="sans-serif" font-size="14" lengthAdjust="spacing" textLength="125" x="653.5" y="235.5547">queryString:String</text><text fill="#000000" font-family="sans-serif" font-size="14" lengthAdjust="spacing" textLength="9" x="778.5" y="235.5547">):</text><text fill="#BB6060" font-family="sans-serif" font-size="14" lengthAdjust="spacing" textLength="29" x="791.5" y="235.5547">void</text><ellipse cx="591.5" cy="248.252" fill="#84BE84" rx="3" ry="3" style="stroke:#038048;stroke-width:1.0;"/><text fill="#000000" font-family="sans-serif" font-size="14" lengthAdjust="spacing" textLength="101" x="600.5" y="252.043">getUserWhere(</text><text fill="#6060BB" font-family="sans-serif" font-size="14" lengthAdjust="spacing" textLength="84" x="701.5" y="252.043">query:String</text><text fill="#000000" font-family="sans-serif" font-size="14" lengthAdjust="spacing" textLength="9" x="785.5" y="252.043">):</text><text fill="#BB6060" font-family="sans-serif" font-size="14" lengthAdjust="spacing" textLength="316" x="798.5" y="252.043">Examples.BadDesign.WarehouseEntitities.User</text><ellipse cx="591.5" cy="264.7402" fill="#84BE84" rx="3" ry="3" style="stroke:#038048;stroke-width:1.0;"/><text fill="#000000" font-family="sans-serif" font-size="14" lengthAdjust="spacing" textLength="137" x="600.5" y="268.5313">getCustomerWhere(</text><text fill="#6060BB" font-family="sans-serif" font-size="14" lengthAdjust="spacing" textLength="84" x="737.5" y="268.5313">query:String</text><text fill="#000000" font-family="sans-serif" font-size="14" lengthAdjust="spacing" textLength="9" x="821.5" y="268.5313">):</text><text fill="#BB6060" font-family="sans-serif" font-size="14" lengthAdjust="spacing" textLength="352" x="834.5" y="268.5313">Examples.BadDesign.WarehouseEntitities.Customer</text><ellipse cx="591.5" cy="281.2285" fill="#84BE84" rx="3" ry="3" style="stroke:#038048;stroke-width:1.0;"/><text fill="#000000" font-family="sans-serif" font-size="14" lengthAdjust="spacing" textLength="170" x="600.5" y="285.0195">getWarehouseCarWhere(</text><text fill="#6060BB" font-family="sans-serif" font-size="14" lengthAdjust="spacing" textLength="84" x="770.5" y="285.0195">query:String</text><text fill="#000000" font-family="sans-serif" font-size="14" lengthAdjust="spacing" textLength="9" x="854.5" y="285.0195">):</text><text fill="#BB6060" font-family="sans-serif" font-size="14" lengthAdjust="spacing" textLength="309" x="867.5" y="285.0195">Examples.BadDesign.WarehouseEntitities.Car</text><ellipse cx="591.5" cy="297.7168" fill="#84BE84" rx="3" ry="3" style="stroke:#038048;stroke-width:1.0;"/><text fill="#000000" font-family="sans-serif" font-size="14" lengthAdjust="spacing" textLength="118" x="600.5" y="301.5078">getInvoiceWhere(</text><text fill="#6060BB" font-family="sans-serif" font-size="14" lengthAdjust="spacing" textLength="84" x="718.5" y="301.5078">query:String</text><text fill="#000000" font-family="sans-serif" font-size="14" lengthAdjust="spacing" textLength="9" x="802.5" y="301.5078">):</text><text fill="#BB6060" font-family="sans-serif" font-size="14" lengthAdjust="spacing" textLength="333" x="815.5" y="301.5078">Examples.BadDesign.WarehouseEntitities.Invoice</text><ellipse cx="591.5" cy="314.2051" fill="#84BE84" rx="3" ry="3" style="stroke:#038048;stroke-width:1.0;"/><text fill="#000000" font-family="sans-serif" font-size="14" lengthAdjust="spacing" textLength="148" x="600.5" y="317.9961">getComplaintsWhere(</text><text fill="#6060BB" font-family="sans-serif" font-size="14" lengthAdjust="spacing" textLength="84" x="748.5" y="317.9961">query:String</text><text fill="#000000" font-family="sans-serif" font-size="14" lengthAdjust="spacing" textLength="9" x="832.5" y="317.9961">):</text><text fill="#BB6060" font-family="sans-serif" font-size="14" lengthAdjust="spacing" textLength="363" x="845.5" y="317.9961">Examples.BadDesign.WarehouseEntitities.Complaints</text><ellipse cx="591.5" cy="330.6934" fill="#84BE84" rx="3" ry="3" style="stroke:#038048;stroke-width:1.0;"/><text fill="#000000" font-family="sans-serif" font-size="14" lengthAdjust="spacing" textLength="167" x="600.5" y="334.4844">getFirstCustomerWhere(</text><text fill="#6060BB" font-family="sans-serif" font-size="14" lengthAdjust="spacing" textLength="84" x="767.5" y="334.4844">query:String</text><text fill="#000000" font-family="sans-serif" font-size="14" lengthAdjust="spacing" textLength="9" x="851.5" y="334.4844">):</text><text fill="#BB6060" font-family="sans-serif" font-size="14" lengthAdjust="spacing" textLength="352" x="864.5" y="334.4844">Examples.BadDesign.WarehouseEntitities.Customer</text><ellipse cx="591.5" cy="347.1816" fill="#84BE84" rx="3" ry="3" style="stroke:#038048;stroke-width:1.0;"/><text fill="#000000" font-family="sans-serif" font-size="14" lengthAdjust="spacing" textLength="194" x="600.5" y="350.9727">getUserFromWarehouseCar(</text><text fill="#6060BB" font-family="sans-serif" font-size="14" lengthAdjust="spacing" textLength="343" x="794.5" y="350.9727">item:Examples.BadDesign.WarehouseEntitities.Car</text><text fill="#000000" font-family="sans-serif" font-size="14" lengthAdjust="spacing" textLength="9" x="1137.5" y="350.9727">):</text><text fill="#BB6060" font-family="sans-serif" font-size="14" lengthAdjust="spacing" textLength="316" x="1150.5" y="350.9727">Examples.BadDesign.WarehouseEntitities.User</text><ellipse cx="591.5" cy="363.6699" fill="#84BE84" rx="3" ry="3" style="stroke:#038048;stroke-width:1.0;"/><text fill="#000000" font-family="sans-serif" font-size="14" lengthAdjust="spacing" textLength="201" x="600.5" y="367.4609">getCustomerFromComplaint(</text><text fill="#6060BB" font-family="sans-serif" font-size="14" lengthAdjust="spacing" textLength="435" x="801.5" y="367.4609">complaint:Examples.BadDesign.WarehouseEntitities.Complaints</text><text fill="#000000" font-family="sans-serif" font-size="14" lengthAdjust="spacing" textLength="9" x="1236.5" y="367.4609">):</text><text fill="#BB6060" font-family="sans-serif" font-size="14" lengthAdjust="spacing" textLength="352" x="1249.5" y="367.4609">Examples.BadDesign.WarehouseEntitities.Customer</text><ellipse cx="591.5" cy="380.1582" fill="#84BE84" rx="3" ry="3" style="stroke:#038048;stroke-width:1.0;"/><text fill="#000000" font-family="sans-serif" font-size="14" lengthAdjust="spacing" textLength="194" x="600.5" y="383.9492">getWarehouseCarFromUser(</text><text fill="#6060BB" font-family="sans-serif" font-size="14" lengthAdjust="spacing" textLength="343" x="794.5" y="383.9492">user:Examples.BadDesign.WarehouseEntitities.Car</text><text fill="#000000" font-family="sans-serif" font-size="14" lengthAdjust="spacing" textLength="9" x="1137.5" y="383.9492">):</text><text fill="#BB6060" font-family="sans-serif" font-size="14" lengthAdjust="spacing" textLength="257" x="1150.5" y="383.9492">Examples.BadDesign.CarExample.Car</text><ellipse cx="591.5" cy="396.6465" fill="#84BE84" rx="3" ry="3" style="stroke:#038048;stroke-width:1.0;"/><text fill="#000000" font-family="sans-serif" font-size="14" lengthAdjust="spacing" textLength="178" x="600.5" y="400.4375">getInvoiceFromCustomer(</text><text fill="#6060BB" font-family="sans-serif" font-size="14" lengthAdjust="spacing" textLength="363" x="778.5" y="400.4375">c:Examples.BadDesign.WarehouseEntitities.Customer</text><text fill="#000000" font-family="sans-serif" font-size="14" lengthAdjust="spacing" textLength="9" x="1141.5" y="400.4375">):</text><text fill="#BB6060" font-family="sans-serif" font-size="14" lengthAdjust="spacing" textLength="333" x="1154.5" y="400.4375">Examples.BadDesign.WarehouseEntitities.Invoice</text><ellipse cx="591.5" cy="413.1348" fill="#84BE84" rx="3" ry="3" style="stroke:#038048;stroke-width:1.0;"/><text fill="#000000" font-family="sans-serif" font-size="14" lengthAdjust="spacing" textLength="241" x="600.5" y="416.9258">getComplaintsFromWarehouseCar(</text><text fill="#6060BB" font-family="sans-serif" font-size="14" lengthAdjust="spacing" textLength="343" x="841.5" y="416.9258">item:Examples.BadDesign.WarehouseEntitities.Car</text><text fill="#000000" font-family="sans-serif" font-size="14" lengthAdjust="spacing" textLength="9" x="1184.5" y="416.9258">):</text><text fill="#BB6060" font-family="sans-serif" font-size="14" lengthAdjust="spacing" textLength="363" x="1197.5" y="416.9258">Examples.BadDesign.WarehouseEntitities.Complaints</text><ellipse cx="591.5" cy="429.623" fill="#84BE84" rx="3" ry="3" style="stroke:#038048;stroke-width:1.0;"/><text fill="#000000" font-family="sans-serif" font-size="14" lengthAdjust="spacing" textLength="128" x="600.5" y="433.4141">getCarFromDriver(</text><text fill="#6060BB" font-family="sans-serif" font-size="14" lengthAdjust="spacing" textLength="349" x="728.5" y="433.4141">d:Examples.BadDesign.CarExample.CarParts.Driver</text><text fill="#000000" font-family="sans-serif" font-size="14" lengthAdjust="spacing" textLength="9" x="1077.5" y="433.4141">):</text><text fill="#BB6060" font-family="sans-serif" font-size="14" lengthAdjust="spacing" textLength="257" x="1090.5" y="433.4141">Examples.BadDesign.CarExample.Car</text><ellipse cx="591.5" cy="446.1113" fill="#84BE84" rx="3" ry="3" style="stroke:#038048;stroke-width:1.0;"/><text fill="#000000" font-family="sans-serif" font-size="14" lengthAdjust="spacing" textLength="128" x="600.5" y="449.9023">getDriverFromCar(</text><text fill="#6060BB" font-family="sans-serif" font-size="14" lengthAdjust="spacing" textLength="268" x="728.5" y="449.9023">c:Examples.BadDesign.CarExample.Car</text><text fill="#000000" font-family="sans-serif" font-size="14" lengthAdjust="spacing" textLength="9" x="996.5" y="449.9023">):</text><text fill="#BB6060" font-family="sans-serif" font-size="14" lengthAdjust="spacing" textLength="336" x="1009.5" y="449.9023">Examples.BadDesign.CarExample.CarParts.Driver</text><ellipse cx="591.5" cy="462.5996" fill="#84BE84" rx="3" ry="3" style="stroke:#038048;stroke-width:1.0;"/><text fill="#000000" font-family="sans-serif" font-size="14" lengthAdjust="spacing" textLength="135" x="600.5" y="466.3906">getWheelsFromCar(</text><text fill="#6060BB" font-family="sans-serif" font-size="14" lengthAdjust="spacing" textLength="268" x="735.5" y="466.3906">c:Examples.BadDesign.CarExample.Car</text><text fill="#000000" font-family="sans-serif" font-size="14" lengthAdjust="spacing" textLength="9" x="1003.5" y="466.3906">):</text><text fill="#BB6060" font-family="sans-serif" font-size="14" lengthAdjust="spacing" textLength="343" x="1016.5" y="466.3906">Examples.BadDesign.CarExample.CarParts.Wheels</text><ellipse cx="591.5" cy="479.0879" fill="#84BE84" rx="3" ry="3" style="stroke:#038048;stroke-width:1.0;"/><text fill="#000000" font-family="sans-serif" font-size="14" lengthAdjust="spacing" textLength="128" x="600.5" y="482.8789">getDoorsFromCar(</text><text fill="#6060BB" font-family="sans-serif" font-size="14" lengthAdjust="spacing" textLength="268" x="728.5" y="482.8789">c:Examples.BadDesign.CarExample.Car</text><text fill="#000000" font-family="sans-serif" font-size="14" lengthAdjust="spacing" textLength="9" x="996.5" y="482.8789">):</text><text fill="#BB6060" font-family="sans-serif" font-size="14" lengthAdjust="spacing" textLength="336" x="1009.5" y="482.8789">Examples.BadDesign.CarExample.CarParts.Doors</text><ellipse cx="591.5" cy="495.5762" fill="#84BE84" rx="3" ry="3" style="stroke:#038048;stroke-width:1.0;"/><text fill="#000000" font-family="sans-serif" font-size="14" lengthAdjust="spacing" textLength="123" x="600.5" y="499.3672">getSeatsFromCar(</text><text fill="#6060BB" font-family="sans-serif" font-size="14" lengthAdjust="spacing" textLength="268" x="723.5" y="499.3672">c:Examples.BadDesign.CarExample.Car</text><text fill="#000000" font-family="sans-serif" font-size="14" lengthAdjust="spacing" textLength="9" x="991.5" y="499.3672">):</text><text fill="#BB6060" font-family="sans-serif" font-size="14" lengthAdjust="spacing" textLength="331" x="1004.5" y="499.3672">Examples.BadDesign.CarExample.CarParts.Seats</text></g></a><!--class Customer--><a href="Examples.BadDesign.WarehouseEntitities.Customer-diagram-detailed.svg" target="_top" title="Examples.BadDesign.WarehouseEntitities.Customer-diagram-detailed.svg" xlink:actuate="onRequest" xlink:href="Examples.BadDesign.WarehouseEntitities.Customer-diagram-detailed.svg" xlink:show="new" xlink:title="Examples.BadDesign.WarehouseEntitities.Customer-diagram-detailed.svg" xlink:type="simple"><g id="elem_Customer"><rect codeLine="26" fill="#FFFF00" height="48" id="Customer" rx="2.5" ry="2.5" style="stroke:#181818;stroke-width:0.5;" width="99" x="1044.5" y="566.5547"/><ellipse cx="1059.5" cy="582.5547" fill="#ADD1B2" rx="11" ry="11" style="stroke:#181818;stroke-width:1.0;"/><path d="M1061.9731,588.6978 Q1061.3921,588.9966 1060.7529,589.146 Q1060.1138,589.2954 1059.4082,589.2954 Q1056.9014,589.2954 1055.5815,587.6436 Q1054.2617,585.9917 1054.2617,582.8706 Q1054.2617,579.7412 1055.5815,578.0894 Q1056.9014,576.4375 1059.4082,576.4375 Q1060.1138,576.4375 1060.7612,576.5869 Q1061.4087,576.7363 1061.9731,577.0352 L1061.9731,579.7578 Q1061.3423,579.1768 1060.7488,578.907 Q1060.1553,578.6372 1059.5244,578.6372 Q1058.1797,578.6372 1057.4949,579.7039 Q1056.8101,580.7705 1056.8101,582.8706 Q1056.8101,584.9624 1057.4949,586.0291 Q1058.1797,587.0957 1059.5244,587.0957 Q1060.1553,587.0957 1060.7488,586.8259 Q1061.3423,586.5562 1061.9731,585.9751 Z " fill="#000000"/><text fill="#000000" font-family="sans-serif" font-size="14" lengthAdjust="spacing" textLength="67" x="1073.5" y="587.8457">Customer</text><line style="stroke:#181818;stroke-width:0.5;" x1="1045.5" x2="1142.5" y1="598.5547" y2="598.5547"/><line style="stroke:#181818;stroke-width:0.5;" x1="1045.5" x2="1142.5" y1="606.5547" y2="606.5547"/></g></a><g id="elem_FloatingNote"><path d="M6,193.5547 L6,441.2129 L524,441.2129 L524,203.5547 L514,193.5547 L6,193.5547 " fill="#FEFFDD" style="stroke:#181818;stroke-width:0.5;"/><path d="M514,193.5547 L514,203.5547 L524,203.5547 L514,193.5547 " fill="#FEFFDD" style="stroke:#181818;stroke-width:1.0;"/><text fill="#000000" font-family="sans-serif" font-size="13" lengthAdjust="spacing" textLength="120" x="12" y="211.123">Your are analyzing:</text><text fill="#000000" font-family="sans-serif" font-size="13" lengthAdjust="spacing" textLength="323" x="12" y="226.4336">Examples.BadDesign.WarehouseEntitities.Customer</text><text fill="#000000" font-family="sans-serif" font-size="13" font-weight="bold" lengthAdjust="spacing" textLength="55" x="339" y="226.4336">detailed</text><text fill="#000000" font-family="sans-serif" font-size="13" lengthAdjust="spacing" textLength="4" x="394" y="226.4336">&#160;</text><text fill="#000000" font-family="sans-serif" font-size="13" lengthAdjust="spacing" textLength="4" x="12" y="241.7441">&#160;</text><text fill="#000000" font-family="sans-serif" font-size="13" lengthAdjust="spacing" textLength="229" x="12" y="272.3652">You can click either the namespaces</text><text fill="#000000" font-family="sans-serif" font-size="13" lengthAdjust="spacing" textLength="266" x="12" y="287.6758">or class names for filtering them and their</text><text fill="#000000" font-family="sans-serif" font-size="13" lengthAdjust="spacing" textLength="130" x="12" y="302.9863">direct dependencies.</text><text fill="#000000" font-family="sans-serif" font-size="13" lengthAdjust="spacing" textLength="4" x="12" y="318.2969">&#160;</text><line style="stroke:#181818;stroke-width:1.0;" x1="7" x2="249" y1="252.1416" y2="252.1416"/><line style="stroke:#181818;stroke-width:1.0;" x1="7" x2="249" y1="254.1416" y2="254.1416"/><text fill="#000000" font-family="sans-serif" font-size="13" lengthAdjust="spacing" textLength="32" x="249" y="256.5547">Filter</text><line style="stroke:#181818;stroke-width:1.0;" x1="281" x2="523" y1="252.1416" y2="252.1416"/><line style="stroke:#181818;stroke-width:1.0;" x1="281" x2="523" y1="254.1416" y2="254.1416"/><ellipse cx="17.5" cy="348.1602" fill="#000000" rx="2.5" ry="2.5" style="stroke:#000000;stroke-width:0.0;"/><text fill="#000000" font-family="sans-serif" font-size="13" lengthAdjust="spacing" textLength="323" x="24" y="352.918">Examples.BadDesign.WarehouseEntitities.Customer</text><text fill="#000000" font-family="sans-serif" font-size="13" font-weight="bold" lengthAdjust="spacing" textLength="67" x="351" y="352.918">simplified</text><text fill="#000000" font-family="sans-serif" font-size="13" lengthAdjust="spacing" textLength="4" x="422" y="352.918">:</text><text fill="#000000" font-family="sans-serif" font-size="13" lengthAdjust="spacing" textLength="12" x="12" y="368.2285">&#160;&#160;&#160;</text><a href="Examples.BadDesign.WarehouseEntitities.Customer-diagram-simplified.svg" target="_top" title="Examples.BadDesign.WarehouseEntitities.Customer-diagram-simplified.svg" xlink:actuate="onRequest" xlink:href="Examples.BadDesign.WarehouseEntitities.Customer-diagram-simplified.svg" xlink:show="new" xlink:title="Examples.BadDesign.WarehouseEntitities.Customer-diagram-simplified.svg" xlink:type="simple"><text fill="#0000FF" font-family="sans-serif" font-size="13" lengthAdjust="spacing" text-decoration="underline" textLength="479" x="24" y="368.2285">Examples.BadDesign.WarehouseEntitities.Customer-diagram-simplified.svg</text></a><ellipse cx="17.5" cy="378.7813" fill="#000000" rx="2.5" ry="2.5" style="stroke:#000000;stroke-width:0.0;"/><text fill="#000000" font-family="sans-serif" font-size="13" lengthAdjust="spacing" textLength="78" x="24" y="383.5391">Full diagram</text><text fill="#000000" font-family="sans-serif" font-size="13" font-weight="bold" lengthAdjust="spacing" textLength="55" x="106" y="383.5391">detailed</text><text fill="#000000" font-family="sans-serif" font-size="13" lengthAdjust="spacing" textLength="23" x="165" y="383.5391">and</text><text fill="#000000" font-family="sans-serif" font-size="13" font-weight="bold" lengthAdjust="spacing" textLength="166" x="192" y="383.5391">grouped per namespace</text><text fill="#000000" font-family="sans-serif" font-size="13" lengthAdjust="spacing" textLength="4" x="358" y="383.5391">:</text><text fill="#000000" font-family="sans-serif" font-size="13" lengthAdjust="spacing" textLength="12" x="12" y="398.8496">&#160;&#160;&#160;</text><a href="full-diagram-detailed-grouped-per-namespace.svg" target="_top" title="full-diagram-detailed-grouped-per-namespace.svg" xlink:actuate="onRequest" xlink:href="full-diagram-detailed-grouped-per-namespace.svg" xlink:show="new" xlink:title="full-diagram-detailed-grouped-per-namespace.svg" xlink:type="simple"><text fill="#0000FF" font-family="sans-serif" font-size="13" lengthAdjust="spacing" text-decoration="underline" textLength="330" x="24" y="398.8496">full-diagram-detailed-grouped-per-namespace.svg</text></a><ellipse cx="17.5" cy="409.4023" fill="#000000" rx="2.5" ry="2.5" style="stroke:#000000;stroke-width:0.0;"/><text fill="#000000" font-family="sans-serif" font-size="13" lengthAdjust="spacing" textLength="41" x="24" y="414.1602">Home:</text><text fill="#000000" font-family="sans-serif" font-size="13" lengthAdjust="spacing" textLength="12" x="12" y="429.4707">&#160;&#160;&#160;</text><a href="index.html" target="_top" title="index.html" xlink:actuate="onRequest" xlink:href="index.html" xlink:show="new" xlink:title="index.html" xlink:type="simple"><text fill="#0000FF" font-family="sans-serif" font-size="13" lengthAdjust="spacing" text-decoration="underline" textLength="68" x="24" y="429.4707">index.html</text></a><line style="stroke:#181818;stroke-width:1.0;" x1="7" x2="228" y1="332.6943" y2="332.6943"/><line style="stroke:#181818;stroke-width:1.0;" x1="7" x2="228" y1="334.6943" y2="334.6943"/><text fill="#000000" font-family="sans-serif" font-size="13" lengthAdjust="spacing" textLength="74" x="228" y="337.1074">Select other</text><line style="stroke:#181818;stroke-width:1.0;" x1="302" x2="523" y1="332.6943" y2="332.6943"/><line style="stroke:#181818;stroke-width:1.0;" x1="302" x2="523" y1="334.6943" y2="334.6943"/></g><!--link DB to Customer--><g id="link_DB_Customer"><path codeLine="33" d="M1094,506.7947 C1094,506.7947 1094,560.2047 1094,560.2047 " fill="none" id="DB-to-Customer" style="stroke:#6060BB;stroke-width:1.0;stroke-dasharray:7.0,7.0;"/><polygon fill="#6060BB" points="1094,565.2047,1098,556.2047,1094,560.2047,1090,556.2047,1094,565.2047" style="stroke:#6060BB;stroke-width:1.0;"/><text fill="#000000" font-family="sans-serif" font-size="13" lengthAdjust="spacing" textLength="29" x="1064" y="530.063">uses</text></g><!--SRC=[pLV1Rjf04Btp5IDoIEiA9-eX1miu68BQIzKggg88EApi0LPPxxgxwoIawhztrZOGQeS60WYG2B0pxxrvCninvfxBb6cMWE0IxJn5KDhELCDoAn3QXZzZyFcoU_t4abIWyKCMzz7mgVHlcSQPoWnUImgc9vtsCcDLWXeyBqRBkC3Oyw1zuM2w3QaiGlDEPHee5vXaOlxCvJGOoNVXZ-H8TZe3BYpgJcSaYG4Y9Y4IFBe7v7P66VG2aYLeKXQXeHobAO0PKtmB4_eyoI58aOjEI63itd0zaZ7N65c8CKKPeuoSc8Bs1eKxKOx4aNkmVIs6KmAVyBmQSWC0XiCjOLenPrDgP6i5vfk7wNZi90qo8Q0CMFVErUXvKwso56D8ISxI9CzRI9bG-X9_aTmgargKr5echJY_aAe502VJdloPJSHut0HcO20KisJqDng91fIDgAcu7zOxqGyhUWfcWD-41_09fcW_j2TAMeYKKBhJlBgykWp3PlTNXdf-OrsVW-9F-yB5TJy6i9OGXYwbsLqBMg7tc3Qtr7MiftbqHp_smMNsLic3ul4wTfR6pEB1uCccdmRr1fjoahV1l_56EC9giyfhSbGb2zAAccKmpT1n5R6gcA-I-XRXKNMKdDKsASfcN5fpN5kMj1L50wxDYKsF6_21LidBAQeNnIqcmTQZSSZxvtGltQuN7IsEWrsxTunhwmfnbTRNG37weCPJKldjfZkTkrrMyuhPmMwc7Fp-d_20R_XlKGv6N_E7rnoFW_-syplJrlW5oDv7eu3D9uDjCnIri3lBgYdnnJsR8Gfp6X8BBLKNbT8deZ2NKX5uWyoUYC1SoahWdrpagp_vD-vAkwz5_wm9PtCKGZsMsm99EgSrw4qFE5ZiEVHoKpGAMewKD81FLhF8qcOseKwkLhE0Ogj6DEeNA7zuLhHyx7UtDXm2e1FpVd5rD7y1]--></g></svg>