<?xml version="1.0" encoding="us-ascii" standalone="no"?><svg xmlns="http://www.w3.org/2000/svg" xmlns:xlink="http://www.w3.org/1999/xlink" contentStyleType="text/css" height="477px" preserveAspectRatio="none" style="width:1146px;height:477px;background:#FFFFFF;" version="1.1" viewBox="0 0 1146 477" width="1146px" zoomAndPan="magnify"><defs/><g><text fill="#000000" font-family="sans-serif" font-size="20" font-weight="bold" lengthAdjust="spacing" textLength="424" x="295" y="29.3359">Examples.BadDesign.WarehouseEntitities</text><text fill="#000000" font-family="sans-serif" font-size="20" font-weight="bold" lengthAdjust="spacing" textLength="104" x="726" y="29.3359">simplified</text><text fill="#000000" font-family="sans-serif" font-size="20" font-weight="bold" lengthAdjust="spacing" textLength="7" x="830" y="29.3359">&#160;</text><!--cluster Examples--><g id="cluster_Examples"><path d="M464.5,72.5547 L533.5,72.5547 A3.75,3.75 0 0 1 536,75.0547 L543,95.043 L1136.5,95.043 A2.5,2.5 0 0 1 1139,97.543 L1139,468.0547 A2.5,2.5 0 0 1 1136.5,470.5547 L464.5,470.5547 A2.5,2.5 0 0 1 462,468.0547 L462,75.0547 A2.5,2.5 0 0 1 464.5,72.5547 " fill="none" style="stroke:#000000;stroke-width:1.5;"/><line style="stroke:#000000;stroke-width:1.5;" x1="462" x2="543" y1="95.043" y2="95.043"/><text fill="#000000" font-family="sans-serif" font-size="14" font-weight="bold" lengthAdjust="spacing" textLength="68" x="466" y="88.0898">Examples</text></g><!--cluster BadDesign--><g id="cluster_BadDesign"><path d="M488.5,115.5547 L565.5,115.5547 A3.75,3.75 0 0 1 568,118.0547 L575,138.043 L1112.5,138.043 A2.5,2.5 0 0 1 1115,140.543 L1115,444.0547 A2.5,2.5 0 0 1 1112.5,446.5547 L488.5,446.5547 A2.5,2.5 0 0 1 486,444.0547 L486,118.0547 A2.5,2.5 0 0 1 488.5,115.5547 " fill="none" style="stroke:#000000;stroke-width:1.5;"/><line style="stroke:#000000;stroke-width:1.5;" x1="486" x2="575" y1="138.043" y2="138.043"/><text fill="#000000" font-family="sans-serif" font-size="14" font-weight="bold" lengthAdjust="spacing" textLength="76" x="490" y="131.0898">BadDesign</text></g><!--cluster WarehouseEntitities--><g id="cluster_WarehouseEntitities"><path d="M512.5,323.5547 L657.5,323.5547 A3.75,3.75 0 0 1 660,326.0547 L667,346.043 L1088.5,346.043 A2.5,2.5 0 0 1 1091,348.543 L1091,420.0547 A2.5,2.5 0 0 1 1088.5,422.5547 L512.5,422.5547 A2.5,2.5 0 0 1 510,420.0547 L510,326.0547 A2.5,2.5 0 0 1 512.5,323.5547 " fill="none" style="stroke:#000000;stroke-width:1.5;"/><line style="stroke:#000000;stroke-width:1.5;" x1="510" x2="667" y1="346.043" y2="346.043"/><text fill="#000000" font-family="sans-serif" font-size="14" font-weight="bold" lengthAdjust="spacing" textLength="144" x="514" y="339.0898">WarehouseEntitities</text></g><!--class DB--><a href="Examples.BadDesign.DB-diagram-simplified.svg" target="_top" title="Examples.BadDesign.DB-diagram-simplified.svg" xlink:actuate="onRequest" xlink:href="Examples.BadDesign.DB-diagram-simplified.svg" xlink:show="new" xlink:title="Examples.BadDesign.DB-diagram-simplified.svg" xlink:type="simple"><g id="elem_DB"><rect codeLine="4" fill="#F1F1F1" height="48" id="DB" rx="2.5" ry="2.5" style="stroke:#181818;stroke-width:0.5;" width="50" x="762" y="150.5547"/><ellipse cx="777" cy="166.5547" fill="#ADD1B2" rx="11" ry="11" style="stroke:#181818;stroke-width:1.0;"/><path d="M779.4731,172.6978 Q778.8921,172.9966 778.2529,173.146 Q777.6138,173.2954 776.9082,173.2954 Q774.4014,173.2954 773.0815,171.6436 Q771.7617,169.9917 771.7617,166.8706 Q771.7617,163.7412 773.0815,162.0894 Q774.4014,160.4375 776.9082,160.4375 Q777.6138,160.4375 778.2612,160.5869 Q778.9087,160.7363 779.4731,161.0352 L779.4731,163.7578 Q778.8423,163.1768 778.2488,162.907 Q777.6553,162.6372 777.0244,162.6372 Q775.6797,162.6372 774.9949,163.7039 Q774.3101,164.7705 774.3101,166.8706 Q774.3101,168.9624 774.9949,170.0291 Q775.6797,171.0957 777.0244,171.0957 Q777.6553,171.0957 778.2488,170.8259 Q778.8423,170.5562 779.4731,169.9751 Z " fill="#000000"/><text fill="#000000" font-family="sans-serif" font-size="14" lengthAdjust="spacing" textLength="18" x="791" y="171.8457">DB</text><line style="stroke:#181818;stroke-width:0.5;" x1="763" x2="811" y1="182.5547" y2="182.5547"/><line style="stroke:#181818;stroke-width:0.5;" x1="763" x2="811" y1="190.5547" y2="190.5547"/></g></a><!--class Complaints--><a href="Examples.BadDesign.WarehouseEntitities.Complaints-diagram-simplified.svg" target="_top" title="Examples.BadDesign.WarehouseEntitities.Complaints-diagram-simplified.svg" xlink:actuate="onRequest" xlink:href="Examples.BadDesign.WarehouseEntitities.Complaints-diagram-simplified.svg" xlink:show="new" xlink:title="Examples.BadDesign.WarehouseEntitities.Complaints-diagram-simplified.svg" xlink:type="simple"><g id="elem_Complaints"><rect codeLine="6" fill="#FFFF00" height="48" id="Complaints" rx="2.5" ry="2.5" style="stroke:#181818;stroke-width:0.5;" width="110" x="965" y="358.5547"/><ellipse cx="980" cy="374.5547" fill="#ADD1B2" rx="11" ry="11" style="stroke:#181818;stroke-width:1.0;"/><path d="M982.4731,380.6978 Q981.8921,380.9966 981.2529,381.146 Q980.6138,381.2954 979.9082,381.2954 Q977.4014,381.2954 976.0815,379.6436 Q974.7617,377.9917 974.7617,374.8706 Q974.7617,371.7412 976.0815,370.0894 Q977.4014,368.4375 979.9082,368.4375 Q980.6138,368.4375 981.2612,368.5869 Q981.9087,368.7363 982.4731,369.0352 L982.4731,371.7578 Q981.8423,371.1768 981.2488,370.907 Q980.6553,370.6372 980.0244,370.6372 Q978.6797,370.6372 977.9949,371.7039 Q977.3101,372.7705 977.3101,374.8706 Q977.3101,376.9624 977.9949,378.0291 Q978.6797,379.0957 980.0244,379.0957 Q980.6553,379.0957 981.2488,378.8259 Q981.8423,378.5562 982.4731,377.9751 Z " fill="#000000"/><text fill="#000000" font-family="sans-serif" font-size="14" lengthAdjust="spacing" textLength="78" x="994" y="379.8457">Complaints</text><line style="stroke:#181818;stroke-width:0.5;" x1="966" x2="1074" y1="390.5547" y2="390.5547"/><line style="stroke:#181818;stroke-width:0.5;" x1="966" x2="1074" y1="398.5547" y2="398.5547"/></g></a><!--class Invoice--><a href="Examples.BadDesign.WarehouseEntitities.Invoice-diagram-simplified.svg" target="_top" title="Examples.BadDesign.WarehouseEntitities.Invoice-diagram-simplified.svg" xlink:actuate="onRequest" xlink:href="Examples.BadDesign.WarehouseEntitities.Invoice-diagram-simplified.svg" xlink:show="new" xlink:title="Examples.BadDesign.WarehouseEntitities.Invoice-diagram-simplified.svg" xlink:type="simple"><g id="elem_Invoice"><rect codeLine="8" fill="#FFFF00" height="48" id="Invoice" rx="2.5" ry="2.5" style="stroke:#181818;stroke-width:0.5;" width="80" x="850" y="358.5547"/><ellipse cx="865" cy="374.5547" fill="#ADD1B2" rx="11" ry="11" style="stroke:#181818;stroke-width:1.0;"/><path d="M867.4731,380.6978 Q866.8921,380.9966 866.2529,381.146 Q865.6138,381.2954 864.9082,381.2954 Q862.4014,381.2954 861.0815,379.6436 Q859.7617,377.9917 859.7617,374.8706 Q859.7617,371.7412 861.0815,370.0894 Q862.4014,368.4375 864.9082,368.4375 Q865.6138,368.4375 866.2612,368.5869 Q866.9087,368.7363 867.4731,369.0352 L867.4731,371.7578 Q866.8423,371.1768 866.2488,370.907 Q865.6553,370.6372 865.0244,370.6372 Q863.6797,370.6372 862.9949,371.7039 Q862.3101,372.7705 862.3101,374.8706 Q862.3101,376.9624 862.9949,378.0291 Q863.6797,379.0957 865.0244,379.0957 Q865.6553,379.0957 866.2488,378.8259 Q866.8423,378.5562 867.4731,377.9751 Z " fill="#000000"/><text fill="#000000" font-family="sans-serif" font-size="14" lengthAdjust="spacing" textLength="48" x="879" y="379.8457">Invoice</text><line style="stroke:#181818;stroke-width:0.5;" x1="851" x2="929" y1="390.5547" y2="390.5547"/><line style="stroke:#181818;stroke-width:0.5;" x1="851" x2="929" y1="398.5547" y2="398.5547"/></g></a><!--class Car--><a href="Examples.BadDesign.WarehouseEntitities.Car-diagram-simplified.svg" target="_top" title="Examples.BadDesign.WarehouseEntitities.Car-diagram-simplified.svg" xlink:actuate="onRequest" xlink:href="Examples.BadDesign.WarehouseEntitities.Car-diagram-simplified.svg" xlink:show="new" xlink:title="Examples.BadDesign.WarehouseEntitities.Car-diagram-simplified.svg" xlink:type="simple"><g id="elem_Car"><rect codeLine="10" fill="#FFFF00" height="48" id="Car" rx="2.5" ry="2.5" style="stroke:#181818;stroke-width:0.5;" width="56" x="759" y="358.5547"/><ellipse cx="774" cy="374.5547" fill="#ADD1B2" rx="11" ry="11" style="stroke:#181818;stroke-width:1.0;"/><path d="M776.4731,380.6978 Q775.8921,380.9966 775.2529,381.146 Q774.6138,381.2954 773.9082,381.2954 Q771.4014,381.2954 770.0815,379.6436 Q768.7617,377.9917 768.7617,374.8706 Q768.7617,371.7412 770.0815,370.0894 Q771.4014,368.4375 773.9082,368.4375 Q774.6138,368.4375 775.2612,368.5869 Q775.9087,368.7363 776.4731,369.0352 L776.4731,371.7578 Q775.8423,371.1768 775.2488,370.907 Q774.6553,370.6372 774.0244,370.6372 Q772.6797,370.6372 771.9949,371.7039 Q771.3101,372.7705 771.3101,374.8706 Q771.3101,376.9624 771.9949,378.0291 Q772.6797,379.0957 774.0244,379.0957 Q774.6553,379.0957 775.2488,378.8259 Q775.8423,378.5562 776.4731,377.9751 Z " fill="#000000"/><text fill="#000000" font-family="sans-serif" font-size="14" lengthAdjust="spacing" textLength="24" x="788" y="379.8457">Car</text><line style="stroke:#181818;stroke-width:0.5;" x1="760" x2="814" y1="390.5547" y2="390.5547"/><line style="stroke:#181818;stroke-width:0.5;" x1="760" x2="814" y1="398.5547" y2="398.5547"/></g></a><!--class Customer--><a href="Examples.BadDesign.WarehouseEntitities.Customer-diagram-simplified.svg" target="_top" title="Examples.BadDesign.WarehouseEntitities.Customer-diagram-simplified.svg" xlink:actuate="onRequest" xlink:href="Examples.BadDesign.WarehouseEntitities.Customer-diagram-simplified.svg" xlink:show="new" xlink:title="Examples.BadDesign.WarehouseEntitities.Customer-diagram-simplified.svg" xlink:type="simple"><g id="elem_Customer"><rect codeLine="12" fill="#FFFF00" height="48" id="Customer" rx="2.5" ry="2.5" style="stroke:#181818;stroke-width:0.5;" width="99" x="624.5" y="358.5547"/><ellipse cx="639.5" cy="374.5547" fill="#ADD1B2" rx="11" ry="11" style="stroke:#181818;stroke-width:1.0;"/><path d="M641.9731,380.6978 Q641.3921,380.9966 640.7529,381.146 Q640.1138,381.2954 639.4082,381.2954 Q636.9014,381.2954 635.5815,379.6436 Q634.2617,377.9917 634.2617,374.8706 Q634.2617,371.7412 635.5815,370.0894 Q636.9014,368.4375 639.4082,368.4375 Q640.1138,368.4375 640.7612,368.5869 Q641.4087,368.7363 641.9731,369.0352 L641.9731,371.7578 Q641.3423,371.1768 640.7488,370.907 Q640.1553,370.6372 639.5244,370.6372 Q638.1797,370.6372 637.4949,371.7039 Q636.8101,372.7705 636.8101,374.8706 Q636.8101,376.9624 637.4949,378.0291 Q638.1797,379.0957 639.5244,379.0957 Q640.1553,379.0957 640.7488,378.8259 Q641.3423,378.5562 641.9731,377.9751 Z " fill="#000000"/><text fill="#000000" font-family="sans-serif" font-size="14" lengthAdjust="spacing" textLength="67" x="653.5" y="379.8457">Customer</text><line style="stroke:#181818;stroke-width:0.5;" x1="625.5" x2="722.5" y1="390.5547" y2="390.5547"/><line style="stroke:#181818;stroke-width:0.5;" x1="625.5" x2="722.5" y1="398.5547" y2="398.5547"/></g></a><!--class User--><a href="Examples.BadDesign.WarehouseEntitities.User-diagram-simplified.svg" target="_top" title="Examples.BadDesign.WarehouseEntitities.User-diagram-simplified.svg" xlink:actuate="onRequest" xlink:href="Examples.BadDesign.WarehouseEntitities.User-diagram-simplified.svg" xlink:show="new" xlink:title="Examples.BadDesign.WarehouseEntitities.User-diagram-simplified.svg" xlink:type="simple"><g id="elem_User"><rect codeLine="14" fill="#FFFF00" height="48" id="User" rx="2.5" ry="2.5" style="stroke:#181818;stroke-width:0.5;" width="63" x="526.5" y="358.5547"/><ellipse cx="541.5" cy="374.5547" fill="#ADD1B2" rx="11" ry="11" style="stroke:#181818;stroke-width:1.0;"/><path d="M543.9731,380.6978 Q543.3921,380.9966 542.7529,381.146 Q542.1138,381.2954 541.4082,381.2954 Q538.9014,381.2954 537.5815,379.6436 Q536.2617,377.9917 536.2617,374.8706 Q536.2617,371.7412 537.5815,370.0894 Q538.9014,368.4375 541.4082,368.4375 Q542.1138,368.4375 542.7612,368.5869 Q543.4087,368.7363 543.9731,369.0352 L543.9731,371.7578 Q543.3423,371.1768 542.7488,370.907 Q542.1553,370.6372 541.5244,370.6372 Q540.1797,370.6372 539.4949,371.7039 Q538.8101,372.7705 538.8101,374.8706 Q538.8101,376.9624 539.4949,378.0291 Q540.1797,379.0957 541.5244,379.0957 Q542.1553,379.0957 542.7488,378.8259 Q543.3423,378.5562 543.9731,377.9751 Z " fill="#000000"/><text fill="#000000" font-family="sans-serif" font-size="14" lengthAdjust="spacing" textLength="31" x="555.5" y="379.8457">User</text><line style="stroke:#181818;stroke-width:0.5;" x1="527.5" x2="588.5" y1="390.5547" y2="390.5547"/><line style="stroke:#181818;stroke-width:0.5;" x1="527.5" x2="588.5" y1="398.5547" y2="398.5547"/></g></a><g id="elem_FloatingNote"><path d="M6,50.5547 L6,298.2129 L446,298.2129 L446,60.5547 L436,50.5547 L6,50.5547 " fill="#FEFFDD" style="stroke:#181818;stroke-width:0.5;"/><path d="M436,50.5547 L436,60.5547 L446,60.5547 L436,50.5547 " fill="#FEFFDD" style="stroke:#181818;stroke-width:1.0;"/><text fill="#000000" font-family="sans-serif" font-size="13" lengthAdjust="spacing" textLength="120" x="12" y="68.123">Your are analyzing:</text><text fill="#000000" font-family="sans-serif" font-size="13" lengthAdjust="spacing" textLength="258" x="12" y="83.4336">Examples.BadDesign.WarehouseEntitities</text><text fill="#000000" font-family="sans-serif" font-size="13" font-weight="bold" lengthAdjust="spacing" textLength="67" x="274" y="83.4336">simplified</text><text fill="#000000" font-family="sans-serif" font-size="13" lengthAdjust="spacing" textLength="4" x="341" y="83.4336">&#160;</text><text fill="#000000" font-family="sans-serif" font-size="13" lengthAdjust="spacing" textLength="4" x="12" y="98.7441">&#160;</text><text fill="#000000" font-family="sans-serif" font-size="13" lengthAdjust="spacing" textLength="229" x="12" y="129.3652">You can click either the namespaces</text><text fill="#000000" font-family="sans-serif" font-size="13" lengthAdjust="spacing" textLength="266" x="12" y="144.6758">or class names for filtering them and their</text><text fill="#000000" font-family="sans-serif" font-size="13" lengthAdjust="spacing" textLength="130" x="12" y="159.9863">direct dependencies.</text><text fill="#000000" font-family="sans-serif" font-size="13" lengthAdjust="spacing" textLength="4" x="12" y="175.2969">&#160;</text><line style="stroke:#181818;stroke-width:1.0;" x1="7" x2="210" y1="109.1416" y2="109.1416"/><line style="stroke:#181818;stroke-width:1.0;" x1="7" x2="210" y1="111.1416" y2="111.1416"/><text fill="#000000" font-family="sans-serif" font-size="13" lengthAdjust="spacing" textLength="32" x="210" y="113.5547">Filter</text><line style="stroke:#181818;stroke-width:1.0;" x1="242" x2="445" y1="109.1416" y2="109.1416"/><line style="stroke:#181818;stroke-width:1.0;" x1="242" x2="445" y1="111.1416" y2="111.1416"/><ellipse cx="17.5" cy="205.1602" fill="#000000" rx="2.5" ry="2.5" style="stroke:#000000;stroke-width:0.0;"/><text fill="#000000" font-family="sans-serif" font-size="13" lengthAdjust="spacing" textLength="258" x="24" y="209.918">Examples.BadDesign.WarehouseEntitities</text><text fill="#000000" font-family="sans-serif" font-size="13" font-weight="bold" lengthAdjust="spacing" textLength="55" x="286" y="209.918">detailed</text><text fill="#000000" font-family="sans-serif" font-size="13" lengthAdjust="spacing" textLength="4" x="345" y="209.918">:</text><text fill="#000000" font-family="sans-serif" font-size="13" lengthAdjust="spacing" textLength="12" x="12" y="225.2285">&#160;&#160;&#160;</text><a href="Examples.BadDesign.WarehouseEntitities-diagram-detailed.svg" target="_top" title="Examples.BadDesign.WarehouseEntitities-diagram-detailed.svg" xlink:actuate="onRequest" xlink:href="Examples.BadDesign.WarehouseEntitities-diagram-detailed.svg" xlink:show="new" xlink:title="Examples.BadDesign.WarehouseEntitities-diagram-detailed.svg" xlink:type="simple"><text fill="#0000FF" font-family="sans-serif" font-size="13" lengthAdjust="spacing" text-decoration="underline" textLength="401" x="24" y="225.2285">Examples.BadDesign.WarehouseEntitities-diagram-detailed.svg</text></a><ellipse cx="17.5" cy="235.7813" fill="#000000" rx="2.5" ry="2.5" style="stroke:#000000;stroke-width:0.0;"/><text fill="#000000" font-family="sans-serif" font-size="13" lengthAdjust="spacing" textLength="78" x="24" y="240.5391">Full diagram</text><text fill="#000000" font-family="sans-serif" font-size="13" font-weight="bold" lengthAdjust="spacing" textLength="67" x="106" y="240.5391">simplified</text><text fill="#000000" font-family="sans-serif" font-size="13" lengthAdjust="spacing" textLength="23" x="177" y="240.5391">and</text><text fill="#000000" font-family="sans-serif" font-size="13" font-weight="bold" lengthAdjust="spacing" textLength="166" x="204" y="240.5391">grouped per namespace</text><text fill="#000000" font-family="sans-serif" font-size="13" lengthAdjust="spacing" textLength="4" x="370" y="240.5391">:</text><text fill="#000000" font-family="sans-serif" font-size="13" lengthAdjust="spacing" textLength="12" x="12" y="255.8496">&#160;&#160;&#160;</text><a href="full-diagram-simplified-grouped-per-namespace.svg" target="_top" title="full-diagram-simplified-grouped-per-namespace.svg" xlink:actuate="onRequest" xlink:href="full-diagram-simplified-grouped-per-namespace.svg" xlink:show="new" xlink:title="full-diagram-simplified-grouped-per-namespace.svg" xlink:type="simple"><text fill="#0000FF" font-family="sans-serif" font-size="13" lengthAdjust="spacing" text-decoration="underline" textLength="343" x="24" y="255.8496">full-diagram-simplified-grouped-per-namespace.svg</text></a><ellipse cx="17.5" cy="266.4023" fill="#000000" rx="2.5" ry="2.5" style="stroke:#000000;stroke-width:0.0;"/><text fill="#000000" font-family="sans-serif" font-size="13" lengthAdjust="spacing" textLength="41" x="24" y="271.1602">Home:</text><text fill="#000000" font-family="sans-serif" font-size="13" lengthAdjust="spacing" textLength="12" x="12" y="286.4707">&#160;&#160;&#160;</text><a href="index.html" target="_top" title="index.html" xlink:actuate="onRequest" xlink:href="index.html" xlink:show="new" xlink:title="index.html" xlink:type="simple"><text fill="#0000FF" font-family="sans-serif" font-size="13" lengthAdjust="spacing" text-decoration="underline" textLength="68" x="24" y="286.4707">index.html</text></a><line style="stroke:#181818;stroke-width:1.0;" x1="7" x2="189" y1="189.6943" y2="189.6943"/><line style="stroke:#181818;stroke-width:1.0;" x1="7" x2="189" y1="191.6943" y2="191.6943"/><text fill="#000000" font-family="sans-serif" font-size="13" lengthAdjust="spacing" textLength="74" x="189" y="194.1074">Select other</text><line style="stroke:#181818;stroke-width:1.0;" x1="263" x2="445" y1="189.6943" y2="189.6943"/><line style="stroke:#181818;stroke-width:1.0;" x1="263" x2="445" y1="191.6943" y2="191.6943"/></g><!--link DB to User--><g id="link_DB_User"><path codeLine="21" d="M761.62,166.5547 C702,166.5547 558,166.5547 558,166.5547 C558,166.5547 558,352.1947 558,352.1947 " fill="none" id="DB-to-User" style="stroke:#6060BB;stroke-width:1.0;stroke-dasharray:7.0,7.0;"/><polygon fill="#6060BB" points="558,357.1947,562,348.1947,558,352.1947,554,348.1947,558,357.1947" style="stroke:#6060BB;stroke-width:1.0;"/><text fill="#000000" font-family="sans-serif" font-size="13" lengthAdjust="spacing" textLength="29" x="536.99" y="163.123">uses</text></g><!--link DB to Customer--><g id="link_DB_Customer"><path codeLine="22" d="M761.64,182.5547 C728.32,182.5547 674,182.5547 674,182.5547 C674,182.5547 674,352.4347 674,352.4347 " fill="none" id="DB-to-Customer" style="stroke:#6060BB;stroke-width:1.0;stroke-dasharray:7.0,7.0;"/><polygon fill="#6060BB" points="674,357.4347,678,348.4347,674,352.4347,670,348.4347,674,357.4347" style="stroke:#6060BB;stroke-width:1.0;"/><text fill="#000000" font-family="sans-serif" font-size="13" lengthAdjust="spacing" textLength="29" x="644" y="220.243">uses</text></g><!--link DB to Car--><g id="link_DB_Car"><path codeLine="23" d="M787,198.8247 C787,198.8247 787,352.1247 787,352.1247 " fill="none" id="DB-to-Car" style="stroke:#6060BB;stroke-width:1.0;stroke-dasharray:7.0,7.0;"/><polygon fill="#6060BB" points="787,357.1247,791,348.1247,787,352.1247,783,348.1247,787,357.1247" style="stroke:#6060BB;stroke-width:1.0;"/><text fill="#000000" font-family="sans-serif" font-size="13" lengthAdjust="spacing" textLength="29" x="757" y="272.043">uses</text></g><!--link DB to Invoice--><g id="link_DB_Invoice"><path codeLine="24" d="M812.46,182.5547 C842.96,182.5547 890,182.5547 890,182.5547 C890,182.5547 890,352.4347 890,352.4347 " fill="none" id="DB-to-Invoice" style="stroke:#6060BB;stroke-width:1.0;stroke-dasharray:7.0,7.0;"/><polygon fill="#6060BB" points="890,357.4347,894,348.4347,890,352.4347,886,348.4347,890,357.4347" style="stroke:#6060BB;stroke-width:1.0;"/><text fill="#000000" font-family="sans-serif" font-size="13" lengthAdjust="spacing" textLength="29" x="860" y="225.293">uses</text></g><!--link DB to Complaints--><g id="link_DB_Complaints"><path codeLine="25" d="M812.38,166.5547 C872.77,166.5547 1020,166.5547 1020,166.5547 C1020,166.5547 1020,352.1947 1020,352.1947 " fill="none" id="DB-to-Complaints" style="stroke:#6060BB;stroke-width:1.0;stroke-dasharray:7.0,7.0;"/><polygon fill="#6060BB" points="1020,357.1947,1024,348.1947,1020,352.1947,1016,348.1947,1020,357.1947" style="stroke:#6060BB;stroke-width:1.0;"/><text fill="#000000" font-family="sans-serif" font-size="13" lengthAdjust="spacing" textLength="29" x="979.01" y="163.123">uses</text></g><!--SRC=[jLJ1Zfim4BtdAqQxXvMGe54FUuWsEIJPgBtqKbLL5JYCO4AiDMDacssoLV-zGq98rT8AjWK40dlUcpVFzhWdnILQB40h9dyi2OprUpFnock21wTUQFPskdWyO55gSj4IipKvbNFq6ItjJUNeaILORd8G14v9dDefoe807jxK-CM4ZIUu-M8g2m82PDJ75yNvBERN4SSSyto-KTgJdSzZ5cf8aI7LAdq2KdvF5kG5Z0Mv4bEXYDbO2K3dpgEma__TYKAarD65AClg3sLZpfIbr4D69N56d8gAw9ps8-bwnjH9wkG1z2uY8uzAdqgGsW5Wk-s73JE5kInJU668t7EU97NoJQKrDDE_-bJN4mIvDLL96PHYIcj845mKx8IWvR_2mmOM2YniOTUyxqn15meb5XsYlIzqajm0EjXeWrvi_I0hFu76zevIryjk2zRB3aNdt03VXF6xF7_XxR0mMXc9GiNUzRRz9yoVzTmUIMlpzIJhLSBUyxDHAVLNrG16bBH2Ey0aj6DAgPoNhJP4JuCOKTGdDqHG7Jr0p9sSsLuNZ1Px1wkJ7PQqd6F33kZWBQPUsiZEckBQHsOI-xiDa-wp7crlxwVtq-KoYHQ3h8OPoAY3_yZRxgink74KsakZ64FnjJcsxF-w2ReI_G00]--></g></svg>