<?xml version="1.0" encoding="us-ascii" standalone="no"?><svg xmlns="http://www.w3.org/2000/svg" xmlns:xlink="http://www.w3.org/1999/xlink" contentStyleType="text/css" height="554px" preserveAspectRatio="none" style="width:1565px;height:554px;background:#FFFFFF;" version="1.1" viewBox="0 0 1565 554" width="1565px" zoomAndPan="magnify"><defs/><g><text fill="#000000" font-family="sans-serif" font-size="20" font-weight="bold" lengthAdjust="spacing" textLength="381" x="389" y="29.3359">Examples.BetterDesign.DBCustomers</text><text fill="#000000" font-family="sans-serif" font-size="20" font-weight="bold" lengthAdjust="spacing" textLength="84" x="777" y="29.3359">detailed</text><text fill="#000000" font-family="sans-serif" font-size="20" font-weight="bold" lengthAdjust="spacing" textLength="38" x="868" y="29.3359">and</text><text fill="#000000" font-family="sans-serif" font-size="20" font-weight="bold" lengthAdjust="spacing" textLength="249" x="913" y="29.3359">grouped per namespace</text><!--cluster Examples--><g id="cluster_Examples"><a href="Examples-diagram-detailed-grouped-per-namespace.svg" target="_top" title="Examples-diagram-detailed-grouped-per-namespace.svg" xlink:actuate="onRequest" xlink:href="Examples-diagram-detailed-grouped-per-namespace.svg" xlink:show="new" xlink:title="Examples-diagram-detailed-grouped-per-namespace.svg" xlink:type="simple"><path d="M618.5,50.5547 L687.5,50.5547 A3.75,3.75 0 0 1 690,53.0547 L697,73.043 L1555.5,73.043 A2.5,2.5 0 0 1 1558,75.543 L1558,545.0547 A2.5,2.5 0 0 1 1555.5,547.5547 L618.5,547.5547 A2.5,2.5 0 0 1 616,545.0547 L616,53.0547 A2.5,2.5 0 0 1 618.5,50.5547 " fill="none" style="stroke:#000000;stroke-width:1.5;"/><line style="stroke:#000000;stroke-width:1.5;" x1="616" x2="697" y1="73.043" y2="73.043"/><text fill="#000000" font-family="sans-serif" font-size="14" font-weight="bold" lengthAdjust="spacing" textLength="68" x="620" y="66.0898">Examples</text></a></g><!--cluster BetterDesign--><g id="cluster_BetterDesign"><a href="Examples.BetterDesign-diagram-detailed-grouped-per-namespace.svg" target="_top" title="Examples.BetterDesign-diagram-detailed-grouped-per-namespace.svg" xlink:actuate="onRequest" xlink:href="Examples.BetterDesign-diagram-detailed-grouped-per-namespace.svg" xlink:show="new" xlink:title="Examples.BetterDesign-diagram-detailed-grouped-per-namespace.svg" xlink:type="simple"><path d="M642.5,93.5547 L736.5,93.5547 A3.75,3.75 0 0 1 739,96.0547 L746,116.043 L1531.5,116.043 A2.5,2.5 0 0 1 1534,118.543 L1534,521.0547 A2.5,2.5 0 0 1 1531.5,523.5547 L642.5,523.5547 A2.5,2.5 0 0 1 640,521.0547 L640,96.0547 A2.5,2.5 0 0 1 642.5,93.5547 " fill="none" style="stroke:#000000;stroke-width:1.5;"/><line style="stroke:#000000;stroke-width:1.5;" x1="640" x2="746" y1="116.043" y2="116.043"/><text fill="#000000" font-family="sans-serif" font-size="14" font-weight="bold" lengthAdjust="spacing" textLength="93" x="644" y="109.0898">BetterDesign</text></a></g><!--cluster FakeEntitities--><g id="cluster_FakeEntitities"><a href="Examples.BetterDesign.FakeEntitities-diagram-detailed-grouped-per-namespace.svg" target="_top" title="Examples.BetterDesign.FakeEntitities-diagram-detailed-grouped-per-namespace.svg" xlink:actuate="onRequest" xlink:href="Examples.BetterDesign.FakeEntitities-diagram-detailed-grouped-per-namespace.svg" xlink:show="new" xlink:title="Examples.BetterDesign.FakeEntitities-diagram-detailed-grouped-per-namespace.svg" xlink:type="simple"><path d="M798.5,400.5547 L898.5,400.5547 A3.75,3.75 0 0 1 901,403.0547 L908,423.043 L1381.5,423.043 A2.5,2.5 0 0 1 1384,425.543 L1384,497.0547 A2.5,2.5 0 0 1 1381.5,499.5547 L798.5,499.5547 A2.5,2.5 0 0 1 796,497.0547 L796,403.0547 A2.5,2.5 0 0 1 798.5,400.5547 " fill="none" style="stroke:#000000;stroke-width:1.5;"/><line style="stroke:#000000;stroke-width:1.5;" x1="796" x2="908" y1="423.043" y2="423.043"/><text fill="#000000" font-family="sans-serif" font-size="14" font-weight="bold" lengthAdjust="spacing" textLength="99" x="800" y="416.0898">FakeEntitities</text></a></g><!--class DBCustomers--><a href="Examples.BetterDesign.DBCustomers-diagram-detailed-grouped-per-namespace.svg" target="_top" title="Examples.BetterDesign.DBCustomers-diagram-detailed-grouped-per-namespace.svg" xlink:actuate="onRequest" xlink:href="Examples.BetterDesign.DBCustomers-diagram-detailed-grouped-per-namespace.svg" xlink:show="new" xlink:title="Examples.BetterDesign.DBCustomers-diagram-detailed-grouped-per-namespace.svg" xlink:type="simple"><g id="elem_DBCustomers"><rect codeLine="6" fill="#FFFF00" height="245.8594" id="DBCustomers" rx="2.5" ry="2.5" style="stroke:#181818;stroke-width:0.5;" width="862" x="656" y="128.5547"/><ellipse cx="1036.75" cy="144.5547" fill="#ADD1B2" rx="11" ry="11" style="stroke:#181818;stroke-width:1.0;"/><path d="M1039.2231,150.6978 Q1038.6421,150.9966 1038.0029,151.146 Q1037.3638,151.2954 1036.6582,151.2954 Q1034.1514,151.2954 1032.8315,149.6436 Q1031.5117,147.9917 1031.5117,144.8706 Q1031.5117,141.7412 1032.8315,140.0894 Q1034.1514,138.4375 1036.6582,138.4375 Q1037.3638,138.4375 1038.0112,138.5869 Q1038.6587,138.7363 1039.2231,139.0352 L1039.2231,141.7578 Q1038.5923,141.1768 1037.9988,140.907 Q1037.4053,140.6372 1036.7744,140.6372 Q1035.4297,140.6372 1034.7449,141.7039 Q1034.0601,142.7705 1034.0601,144.8706 Q1034.0601,146.9624 1034.7449,148.0291 Q1035.4297,149.0957 1036.7744,149.0957 Q1037.4053,149.0957 1037.9988,148.8259 Q1038.5923,148.5562 1039.2231,147.9751 Z " fill="#000000"/><text fill="#000000" font-family="sans-serif" font-size="14" lengthAdjust="spacing" textLength="92" x="1057.25" y="149.8457">DBCustomers</text><line style="stroke:#181818;stroke-width:0.5;" x1="657" x2="1517" y1="160.5547" y2="160.5547"/><line style="stroke:#181818;stroke-width:0.5;" x1="657" x2="1517" y1="168.5547" y2="168.5547"/><ellipse cx="667" cy="182.2988" fill="#84BE84" rx="3" ry="3" style="stroke:#038048;stroke-width:1.0;"/><text fill="#000000" font-family="sans-serif" font-size="14" lengthAdjust="spacing" textLength="94" x="676" y="186.0898">getCustomer(</text><text fill="#6060BB" font-family="sans-serif" font-size="14" lengthAdjust="spacing" textLength="312" x="770" y="186.0898">i:Examples.BetterDesign.FakeEntitities.Invoice</text><text fill="#000000" font-family="sans-serif" font-size="14" lengthAdjust="spacing" textLength="9" x="1082" y="186.0898">):</text><text fill="#BB6060" font-family="sans-serif" font-size="14" lengthAdjust="spacing" textLength="323" x="1095" y="186.0898">Examples.BetterDesign.FakeEntitities.Customer</text><ellipse cx="667" cy="198.7871" fill="#84BE84" rx="3" ry="3" style="stroke:#038048;stroke-width:1.0;"/><text fill="#000000" font-family="sans-serif" font-size="14" lengthAdjust="spacing" textLength="57" x="676" y="202.5781">getItem(</text><text fill="#6060BB" font-family="sans-serif" font-size="14" lengthAdjust="spacing" textLength="345" x="733" y="202.5781">c:Examples.BetterDesign.FakeEntitities.Complaints</text><text fill="#000000" font-family="sans-serif" font-size="14" lengthAdjust="spacing" textLength="9" x="1078" y="202.5781">):</text><text fill="#BB6060" font-family="sans-serif" font-size="14" lengthAdjust="spacing" textLength="286" x="1091" y="202.5781">Examples.BetterDesign.FakeEntitities.Item</text><ellipse cx="667" cy="215.2754" fill="#84BE84" rx="3" ry="3" style="stroke:#038048;stroke-width:1.0;"/><text fill="#000000" font-family="sans-serif" font-size="14" lengthAdjust="spacing" textLength="75" x="676" y="219.0664">getInvoice(</text><text fill="#6060BB" font-family="sans-serif" font-size="14" lengthAdjust="spacing" textLength="334" x="751" y="219.0664">c:Examples.BetterDesign.FakeEntitities.Customer</text><text fill="#000000" font-family="sans-serif" font-size="14" lengthAdjust="spacing" textLength="9" x="1085" y="219.0664">):</text><text fill="#BB6060" font-family="sans-serif" font-size="14" lengthAdjust="spacing" textLength="304" x="1098" y="219.0664">Examples.BetterDesign.FakeEntitities.Invoice</text><ellipse cx="667" cy="231.7637" fill="#84BE84" rx="3" ry="3" style="stroke:#038048;stroke-width:1.0;"/><text fill="#000000" font-family="sans-serif" font-size="14" lengthAdjust="spacing" textLength="105" x="676" y="235.5547">getComplaints(</text><text fill="#6060BB" font-family="sans-serif" font-size="14" lengthAdjust="spacing" textLength="334" x="781" y="235.5547">c:Examples.BetterDesign.FakeEntitities.Customer</text><text fill="#000000" font-family="sans-serif" font-size="14" lengthAdjust="spacing" textLength="9" x="1115" y="235.5547">):</text><text fill="#BB6060" font-family="sans-serif" font-size="14" lengthAdjust="spacing" textLength="334" x="1128" y="235.5547">Examples.BetterDesign.FakeEntitities.Complaints</text><ellipse cx="667" cy="248.252" fill="#84BE84" rx="3" ry="3" style="stroke:#038048;stroke-width:1.0;"/><text fill="#000000" font-family="sans-serif" font-size="14" lengthAdjust="spacing" textLength="58" x="676" y="252.043">getUser(</text><text fill="#6060BB" font-family="sans-serif" font-size="14" lengthAdjust="spacing" textLength="320" x="734" y="252.043">item:Examples.BetterDesign.FakeEntitities.Item</text><text fill="#000000" font-family="sans-serif" font-size="14" lengthAdjust="spacing" textLength="9" x="1054" y="252.043">):</text><text fill="#BB6060" font-family="sans-serif" font-size="14" lengthAdjust="spacing" textLength="287" x="1067" y="252.043">Examples.BetterDesign.FakeEntitities.User</text><ellipse cx="667" cy="264.7402" fill="#84BE84" rx="3" ry="3" style="stroke:#038048;stroke-width:1.0;"/><text fill="#000000" font-family="sans-serif" font-size="14" lengthAdjust="spacing" textLength="94" x="676" y="268.5313">getCustomer(</text><text fill="#6060BB" font-family="sans-serif" font-size="14" lengthAdjust="spacing" textLength="406" x="770" y="268.5313">complaint:Examples.BetterDesign.FakeEntitities.Complaints</text><text fill="#000000" font-family="sans-serif" font-size="14" lengthAdjust="spacing" textLength="9" x="1176" y="268.5313">):</text><text fill="#BB6060" font-family="sans-serif" font-size="14" lengthAdjust="spacing" textLength="323" x="1189" y="268.5313">Examples.BetterDesign.FakeEntitities.Customer</text><ellipse cx="667" cy="281.2285" fill="#84BE84" rx="3" ry="3" style="stroke:#038048;stroke-width:1.0;"/><text fill="#000000" font-family="sans-serif" font-size="14" lengthAdjust="spacing" textLength="57" x="676" y="285.0195">getItem(</text><text fill="#6060BB" font-family="sans-serif" font-size="14" lengthAdjust="spacing" textLength="321" x="733" y="285.0195">user:Examples.BetterDesign.FakeEntitities.User</text><text fill="#000000" font-family="sans-serif" font-size="14" lengthAdjust="spacing" textLength="9" x="1054" y="285.0195">):</text><text fill="#BB6060" font-family="sans-serif" font-size="14" lengthAdjust="spacing" textLength="286" x="1067" y="285.0195">Examples.BetterDesign.FakeEntitities.Item</text><ellipse cx="667" cy="297.7168" fill="#84BE84" rx="3" ry="3" style="stroke:#038048;stroke-width:1.0;"/><text fill="#000000" font-family="sans-serif" font-size="14" lengthAdjust="spacing" textLength="105" x="676" y="301.5078">getComplaints(</text><text fill="#6060BB" font-family="sans-serif" font-size="14" lengthAdjust="spacing" textLength="320" x="781" y="301.5078">item:Examples.BetterDesign.FakeEntitities.Item</text><text fill="#000000" font-family="sans-serif" font-size="14" lengthAdjust="spacing" textLength="9" x="1101" y="301.5078">):</text><text fill="#BB6060" font-family="sans-serif" font-size="14" lengthAdjust="spacing" textLength="334" x="1114" y="301.5078">Examples.BetterDesign.FakeEntitities.Complaints</text><ellipse cx="667" cy="314.2051" fill="#84BE84" rx="3" ry="3" style="stroke:#038048;stroke-width:1.0;"/><text fill="#000000" font-family="sans-serif" font-size="14" lengthAdjust="spacing" textLength="88" x="676" y="317.9961">getFirstUser(</text><text fill="#000000" font-family="sans-serif" font-size="14" lengthAdjust="spacing" textLength="9" x="764" y="317.9961">):</text><text fill="#BB6060" font-family="sans-serif" font-size="14" lengthAdjust="spacing" textLength="287" x="777" y="317.9961">Examples.BetterDesign.FakeEntitities.User</text><ellipse cx="667" cy="330.6934" fill="#84BE84" rx="3" ry="3" style="stroke:#038048;stroke-width:1.0;"/><text fill="#000000" font-family="sans-serif" font-size="14" lengthAdjust="spacing" textLength="87" x="676" y="334.4844">getFirstItem(</text><text fill="#000000" font-family="sans-serif" font-size="14" lengthAdjust="spacing" textLength="9" x="763" y="334.4844">):</text><text fill="#BB6060" font-family="sans-serif" font-size="14" lengthAdjust="spacing" textLength="286" x="776" y="334.4844">Examples.BetterDesign.FakeEntitities.Item</text><ellipse cx="667" cy="347.1816" fill="#84BE84" rx="3" ry="3" style="stroke:#038048;stroke-width:1.0;"/><text fill="#000000" font-family="sans-serif" font-size="14" lengthAdjust="spacing" textLength="105" x="676" y="350.9727">getFirstInvoice(</text><text fill="#000000" font-family="sans-serif" font-size="14" lengthAdjust="spacing" textLength="9" x="781" y="350.9727">):</text><text fill="#BB6060" font-family="sans-serif" font-size="14" lengthAdjust="spacing" textLength="304" x="794" y="350.9727">Examples.BetterDesign.FakeEntitities.Invoice</text><ellipse cx="667" cy="363.6699" fill="#84BE84" rx="3" ry="3" style="stroke:#038048;stroke-width:1.0;"/><text fill="#000000" font-family="sans-serif" font-size="14" lengthAdjust="spacing" textLength="135" x="676" y="367.4609">getFirstComplaints(</text><text fill="#000000" font-family="sans-serif" font-size="14" lengthAdjust="spacing" textLength="9" x="811" y="367.4609">):</text><text fill="#BB6060" font-family="sans-serif" font-size="14" lengthAdjust="spacing" textLength="334" x="824" y="367.4609">Examples.BetterDesign.FakeEntitities.Complaints</text></g></a><!--class Customer--><a href="Examples.BetterDesign.FakeEntitities.Customer-diagram-detailed-grouped-per-namespace.svg" target="_top" title="Examples.BetterDesign.FakeEntitities.Customer-diagram-detailed-grouped-per-namespace.svg" xlink:actuate="onRequest" xlink:href="Examples.BetterDesign.FakeEntitities.Customer-diagram-detailed-grouped-per-namespace.svg" xlink:show="new" xlink:title="Examples.BetterDesign.FakeEntitities.Customer-diagram-detailed-grouped-per-namespace.svg" xlink:type="simple"><g id="elem_Customer"><rect codeLine="29" fill="#F1F1F1" height="48" id="Customer" rx="2.5" ry="2.5" style="stroke:#181818;stroke-width:0.5;" width="99" x="1268.5" y="435.5547"/><ellipse cx="1283.5" cy="451.5547" fill="#ADD1B2" rx="11" ry="11" style="stroke:#181818;stroke-width:1.0;"/><path d="M1285.9731,457.6978 Q1285.3921,457.9966 1284.7529,458.146 Q1284.1138,458.2954 1283.4082,458.2954 Q1280.9014,458.2954 1279.5815,456.6436 Q1278.2617,454.9917 1278.2617,451.8706 Q1278.2617,448.7412 1279.5815,447.0894 Q1280.9014,445.4375 1283.4082,445.4375 Q1284.1138,445.4375 1284.7612,445.5869 Q1285.4087,445.7363 1285.9731,446.0352 L1285.9731,448.7578 Q1285.3423,448.1768 1284.7488,447.907 Q1284.1553,447.6372 1283.5244,447.6372 Q1282.1797,447.6372 1281.4949,448.7039 Q1280.8101,449.7705 1280.8101,451.8706 Q1280.8101,453.9624 1281.4949,455.0291 Q1282.1797,456.0957 1283.5244,456.0957 Q1284.1553,456.0957 1284.7488,455.8259 Q1285.3423,455.5562 1285.9731,454.9751 Z " fill="#000000"/><text fill="#000000" font-family="sans-serif" font-size="14" lengthAdjust="spacing" textLength="67" x="1297.5" y="456.8457">Customer</text><line style="stroke:#181818;stroke-width:0.5;" x1="1269.5" x2="1366.5" y1="467.5547" y2="467.5547"/><line style="stroke:#181818;stroke-width:0.5;" x1="1269.5" x2="1366.5" y1="475.5547" y2="475.5547"/></g></a><!--class Invoice--><a href="Examples.BetterDesign.FakeEntitities.Invoice-diagram-detailed-grouped-per-namespace.svg" target="_top" title="Examples.BetterDesign.FakeEntitities.Invoice-diagram-detailed-grouped-per-namespace.svg" xlink:actuate="onRequest" xlink:href="Examples.BetterDesign.FakeEntitities.Invoice-diagram-detailed-grouped-per-namespace.svg" xlink:show="new" xlink:title="Examples.BetterDesign.FakeEntitities.Invoice-diagram-detailed-grouped-per-namespace.svg" xlink:type="simple"><g id="elem_Invoice"><rect codeLine="31" fill="#F1F1F1" height="48" id="Invoice" rx="2.5" ry="2.5" style="stroke:#181818;stroke-width:0.5;" width="80" x="1153" y="435.5547"/><ellipse cx="1168" cy="451.5547" fill="#ADD1B2" rx="11" ry="11" style="stroke:#181818;stroke-width:1.0;"/><path d="M1170.4731,457.6978 Q1169.8921,457.9966 1169.2529,458.146 Q1168.6138,458.2954 1167.9082,458.2954 Q1165.4014,458.2954 1164.0815,456.6436 Q1162.7617,454.9917 1162.7617,451.8706 Q1162.7617,448.7412 1164.0815,447.0894 Q1165.4014,445.4375 1167.9082,445.4375 Q1168.6138,445.4375 1169.2612,445.5869 Q1169.9087,445.7363 1170.4731,446.0352 L1170.4731,448.7578 Q1169.8423,448.1768 1169.2488,447.907 Q1168.6553,447.6372 1168.0244,447.6372 Q1166.6797,447.6372 1165.9949,448.7039 Q1165.3101,449.7705 1165.3101,451.8706 Q1165.3101,453.9624 1165.9949,455.0291 Q1166.6797,456.0957 1168.0244,456.0957 Q1168.6553,456.0957 1169.2488,455.8259 Q1169.8423,455.5562 1170.4731,454.9751 Z " fill="#000000"/><text fill="#000000" font-family="sans-serif" font-size="14" lengthAdjust="spacing" textLength="48" x="1182" y="456.8457">Invoice</text><line style="stroke:#181818;stroke-width:0.5;" x1="1154" x2="1232" y1="467.5547" y2="467.5547"/><line style="stroke:#181818;stroke-width:0.5;" x1="1154" x2="1232" y1="475.5547" y2="475.5547"/></g></a><!--class Item--><a href="Examples.BetterDesign.FakeEntitities.Item-diagram-detailed-grouped-per-namespace.svg" target="_top" title="Examples.BetterDesign.FakeEntitities.Item-diagram-detailed-grouped-per-namespace.svg" xlink:actuate="onRequest" xlink:href="Examples.BetterDesign.FakeEntitities.Item-diagram-detailed-grouped-per-namespace.svg" xlink:show="new" xlink:title="Examples.BetterDesign.FakeEntitities.Item-diagram-detailed-grouped-per-namespace.svg" xlink:type="simple"><g id="elem_Item"><rect codeLine="33" fill="#F1F1F1" height="48" id="Item" rx="2.5" ry="2.5" style="stroke:#181818;stroke-width:0.5;" width="62" x="1056" y="435.5547"/><ellipse cx="1071" cy="451.5547" fill="#ADD1B2" rx="11" ry="11" style="stroke:#181818;stroke-width:1.0;"/><path d="M1073.4731,457.6978 Q1072.8921,457.9966 1072.2529,458.146 Q1071.6138,458.2954 1070.9082,458.2954 Q1068.4014,458.2954 1067.0815,456.6436 Q1065.7617,454.9917 1065.7617,451.8706 Q1065.7617,448.7412 1067.0815,447.0894 Q1068.4014,445.4375 1070.9082,445.4375 Q1071.6138,445.4375 1072.2612,445.5869 Q1072.9087,445.7363 1073.4731,446.0352 L1073.4731,448.7578 Q1072.8423,448.1768 1072.2488,447.907 Q1071.6553,447.6372 1071.0244,447.6372 Q1069.6797,447.6372 1068.9949,448.7039 Q1068.3101,449.7705 1068.3101,451.8706 Q1068.3101,453.9624 1068.9949,455.0291 Q1069.6797,456.0957 1071.0244,456.0957 Q1071.6553,456.0957 1072.2488,455.8259 Q1072.8423,455.5562 1073.4731,454.9751 Z " fill="#000000"/><text fill="#000000" font-family="sans-serif" font-size="14" lengthAdjust="spacing" textLength="30" x="1085" y="456.8457">Item</text><line style="stroke:#181818;stroke-width:0.5;" x1="1057" x2="1117" y1="467.5547" y2="467.5547"/><line style="stroke:#181818;stroke-width:0.5;" x1="1057" x2="1117" y1="475.5547" y2="475.5547"/></g></a><!--class Complaints--><a href="Examples.BetterDesign.FakeEntitities.Complaints-diagram-detailed-grouped-per-namespace.svg" target="_top" title="Examples.BetterDesign.FakeEntitities.Complaints-diagram-detailed-grouped-per-namespace.svg" xlink:actuate="onRequest" xlink:href="Examples.BetterDesign.FakeEntitities.Complaints-diagram-detailed-grouped-per-namespace.svg" xlink:show="new" xlink:title="Examples.BetterDesign.FakeEntitities.Complaints-diagram-detailed-grouped-per-namespace.svg" xlink:type="simple"><g id="elem_Complaints"><rect codeLine="35" fill="#F1F1F1" height="48" id="Complaints" rx="2.5" ry="2.5" style="stroke:#181818;stroke-width:0.5;" width="110" x="911" y="435.5547"/><ellipse cx="926" cy="451.5547" fill="#ADD1B2" rx="11" ry="11" style="stroke:#181818;stroke-width:1.0;"/><path d="M928.4731,457.6978 Q927.8921,457.9966 927.2529,458.146 Q926.6138,458.2954 925.9082,458.2954 Q923.4014,458.2954 922.0815,456.6436 Q920.7617,454.9917 920.7617,451.8706 Q920.7617,448.7412 922.0815,447.0894 Q923.4014,445.4375 925.9082,445.4375 Q926.6138,445.4375 927.2612,445.5869 Q927.9087,445.7363 928.4731,446.0352 L928.4731,448.7578 Q927.8423,448.1768 927.2488,447.907 Q926.6553,447.6372 926.0244,447.6372 Q924.6797,447.6372 923.9949,448.7039 Q923.3101,449.7705 923.3101,451.8706 Q923.3101,453.9624 923.9949,455.0291 Q924.6797,456.0957 926.0244,456.0957 Q926.6553,456.0957 927.2488,455.8259 Q927.8423,455.5562 928.4731,454.9751 Z " fill="#000000"/><text fill="#000000" font-family="sans-serif" font-size="14" lengthAdjust="spacing" textLength="78" x="940" y="456.8457">Complaints</text><line style="stroke:#181818;stroke-width:0.5;" x1="912" x2="1020" y1="467.5547" y2="467.5547"/><line style="stroke:#181818;stroke-width:0.5;" x1="912" x2="1020" y1="475.5547" y2="475.5547"/></g></a><!--class User--><a href="Examples.BetterDesign.FakeEntitities.User-diagram-detailed-grouped-per-namespace.svg" target="_top" title="Examples.BetterDesign.FakeEntitities.User-diagram-detailed-grouped-per-namespace.svg" xlink:actuate="onRequest" xlink:href="Examples.BetterDesign.FakeEntitities.User-diagram-detailed-grouped-per-namespace.svg" xlink:show="new" xlink:title="Examples.BetterDesign.FakeEntitities.User-diagram-detailed-grouped-per-namespace.svg" xlink:type="simple"><g id="elem_User"><rect codeLine="37" fill="#F1F1F1" height="48" id="User" rx="2.5" ry="2.5" style="stroke:#181818;stroke-width:0.5;" width="63" x="812.5" y="435.5547"/><ellipse cx="827.5" cy="451.5547" fill="#ADD1B2" rx="11" ry="11" style="stroke:#181818;stroke-width:1.0;"/><path d="M829.9731,457.6978 Q829.3921,457.9966 828.7529,458.146 Q828.1138,458.2954 827.4082,458.2954 Q824.9014,458.2954 823.5815,456.6436 Q822.2617,454.9917 822.2617,451.8706 Q822.2617,448.7412 823.5815,447.0894 Q824.9014,445.4375 827.4082,445.4375 Q828.1138,445.4375 828.7612,445.5869 Q829.4087,445.7363 829.9731,446.0352 L829.9731,448.7578 Q829.3423,448.1768 828.7488,447.907 Q828.1553,447.6372 827.5244,447.6372 Q826.1797,447.6372 825.4949,448.7039 Q824.8101,449.7705 824.8101,451.8706 Q824.8101,453.9624 825.4949,455.0291 Q826.1797,456.0957 827.5244,456.0957 Q828.1553,456.0957 828.7488,455.8259 Q829.3423,455.5562 829.9731,454.9751 Z " fill="#000000"/><text fill="#000000" font-family="sans-serif" font-size="14" lengthAdjust="spacing" textLength="31" x="841.5" y="456.8457">User</text><line style="stroke:#181818;stroke-width:0.5;" x1="813.5" x2="874.5" y1="467.5547" y2="467.5547"/><line style="stroke:#181818;stroke-width:0.5;" x1="813.5" x2="874.5" y1="475.5547" y2="475.5547"/></g></a><g id="elem_FloatingNote"><path d="M6,127.5547 L6,375.2129 L600,375.2129 L600,137.5547 L590,127.5547 L6,127.5547 " fill="#FEFFDD" style="stroke:#181818;stroke-width:0.5;"/><path d="M590,127.5547 L590,137.5547 L600,137.5547 L590,127.5547 " fill="#FEFFDD" style="stroke:#181818;stroke-width:1.0;"/><text fill="#000000" font-family="sans-serif" font-size="13" lengthAdjust="spacing" textLength="120" x="12" y="145.123">Your are analyzing:</text><text fill="#000000" font-family="sans-serif" font-size="13" lengthAdjust="spacing" textLength="233" x="12" y="160.4336">Examples.BetterDesign.DBCustomers</text><text fill="#000000" font-family="sans-serif" font-size="13" font-weight="bold" lengthAdjust="spacing" textLength="55" x="249" y="160.4336">detailed</text><text fill="#000000" font-family="sans-serif" font-size="13" lengthAdjust="spacing" textLength="23" x="308" y="160.4336">and</text><text fill="#000000" font-family="sans-serif" font-size="13" font-weight="bold" lengthAdjust="spacing" textLength="166" x="335" y="160.4336">grouped per namespace</text><text fill="#000000" font-family="sans-serif" font-size="13" lengthAdjust="spacing" textLength="4" x="12" y="175.7441">&#160;</text><text fill="#000000" font-family="sans-serif" font-size="13" lengthAdjust="spacing" textLength="229" x="12" y="206.3652">You can click either the namespaces</text><text fill="#000000" font-family="sans-serif" font-size="13" lengthAdjust="spacing" textLength="266" x="12" y="221.6758">or class names for filtering them and their</text><text fill="#000000" font-family="sans-serif" font-size="13" lengthAdjust="spacing" textLength="130" x="12" y="236.9863">direct dependencies.</text><text fill="#000000" font-family="sans-serif" font-size="13" lengthAdjust="spacing" textLength="4" x="12" y="252.2969">&#160;</text><line style="stroke:#181818;stroke-width:1.0;" x1="7" x2="287" y1="186.1416" y2="186.1416"/><line style="stroke:#181818;stroke-width:1.0;" x1="7" x2="287" y1="188.1416" y2="188.1416"/><text fill="#000000" font-family="sans-serif" font-size="13" lengthAdjust="spacing" textLength="32" x="287" y="190.5547">Filter</text><line style="stroke:#181818;stroke-width:1.0;" x1="319" x2="599" y1="186.1416" y2="186.1416"/><line style="stroke:#181818;stroke-width:1.0;" x1="319" x2="599" y1="188.1416" y2="188.1416"/><ellipse cx="17.5" cy="282.1602" fill="#000000" rx="2.5" ry="2.5" style="stroke:#000000;stroke-width:0.0;"/><text fill="#000000" font-family="sans-serif" font-size="13" lengthAdjust="spacing" textLength="233" x="24" y="286.918">Examples.BetterDesign.DBCustomers</text><text fill="#000000" font-family="sans-serif" font-size="13" font-weight="bold" lengthAdjust="spacing" textLength="67" x="261" y="286.918">simplified</text><text fill="#000000" font-family="sans-serif" font-size="13" lengthAdjust="spacing" textLength="23" x="332" y="286.918">and</text><text fill="#000000" font-family="sans-serif" font-size="13" font-weight="bold" lengthAdjust="spacing" textLength="166" x="359" y="286.918">grouped per namespace</text><text fill="#000000" font-family="sans-serif" font-size="13" lengthAdjust="spacing" textLength="4" x="525" y="286.918">:</text><text fill="#000000" font-family="sans-serif" font-size="13" lengthAdjust="spacing" textLength="12" x="12" y="302.2285">&#160;&#160;&#160;</text><a href="Examples.BetterDesign.DBCustomers-diagram-simplified-grouped-per-namespace.svg" target="_top" title="Examples.BetterDesign.DBCustomers-diagram-simplified-grouped-per-namespace.svg" xlink:actuate="onRequest" xlink:href="Examples.BetterDesign.DBCustomers-diagram-simplified-grouped-per-namespace.svg" xlink:show="new" xlink:title="Examples.BetterDesign.DBCustomers-diagram-simplified-grouped-per-namespace.svg" xlink:type="simple"><text fill="#0000FF" font-family="sans-serif" font-size="13" lengthAdjust="spacing" text-decoration="underline" textLength="555" x="24" y="302.2285">Examples.BetterDesign.DBCustomers-diagram-simplified-grouped-per-namespace.svg</text></a><ellipse cx="17.5" cy="312.7813" fill="#000000" rx="2.5" ry="2.5" style="stroke:#000000;stroke-width:0.0;"/><text fill="#000000" font-family="sans-serif" font-size="13" lengthAdjust="spacing" textLength="78" x="24" y="317.5391">Full diagram</text><text fill="#000000" font-family="sans-serif" font-size="13" font-weight="bold" lengthAdjust="spacing" textLength="55" x="106" y="317.5391">detailed</text><text fill="#000000" font-family="sans-serif" font-size="13" lengthAdjust="spacing" textLength="23" x="165" y="317.5391">and</text><text fill="#000000" font-family="sans-serif" font-size="13" font-weight="bold" lengthAdjust="spacing" textLength="166" x="192" y="317.5391">grouped per namespace</text><text fill="#000000" font-family="sans-serif" font-size="13" lengthAdjust="spacing" textLength="4" x="358" y="317.5391">:</text><text fill="#000000" font-family="sans-serif" font-size="13" lengthAdjust="spacing" textLength="12" x="12" y="332.8496">&#160;&#160;&#160;</text><a href="full-diagram-detailed-grouped-per-namespace.svg" target="_top" title="full-diagram-detailed-grouped-per-namespace.svg" xlink:actuate="onRequest" xlink:href="full-diagram-detailed-grouped-per-namespace.svg" xlink:show="new" xlink:title="full-diagram-detailed-grouped-per-namespace.svg" xlink:type="simple"><text fill="#0000FF" font-family="sans-serif" font-size="13" lengthAdjust="spacing" text-decoration="underline" textLength="330" x="24" y="332.8496">full-diagram-detailed-grouped-per-namespace.svg</text></a><ellipse cx="17.5" cy="343.4023" fill="#000000" rx="2.5" ry="2.5" style="stroke:#000000;stroke-width:0.0;"/><text fill="#000000" font-family="sans-serif" font-size="13" lengthAdjust="spacing" textLength="41" x="24" y="348.1602">Home:</text><text fill="#000000" font-family="sans-serif" font-size="13" lengthAdjust="spacing" textLength="12" x="12" y="363.4707">&#160;&#160;&#160;</text><a href="index.html" target="_top" title="index.html" xlink:actuate="onRequest" xlink:href="index.html" xlink:show="new" xlink:title="index.html" xlink:type="simple"><text fill="#0000FF" font-family="sans-serif" font-size="13" lengthAdjust="spacing" text-decoration="underline" textLength="68" x="24" y="363.4707">index.html</text></a><line style="stroke:#181818;stroke-width:1.0;" x1="7" x2="266" y1="266.6943" y2="266.6943"/><line style="stroke:#181818;stroke-width:1.0;" x1="7" x2="266" y1="268.6943" y2="268.6943"/><text fill="#000000" font-family="sans-serif" font-size="13" lengthAdjust="spacing" textLength="74" x="266" y="271.1074">Select other</text><line style="stroke:#181818;stroke-width:1.0;" x1="340" x2="599" y1="266.6943" y2="266.6943"/><line style="stroke:#181818;stroke-width:1.0;" x1="340" x2="599" y1="268.6943" y2="268.6943"/></g><!--link DBCustomers to Customer--><g id="link_DBCustomers_Customer"><path codeLine="52" d="M1318,374.9547 C1318,374.9547 1318,429.1347 1318,429.1347 " fill="none" id="DBCustomers-to-Customer" style="stroke:#6060BB;stroke-width:1.0;stroke-dasharray:7.0,7.0;"/><polygon fill="#6060BB" points="1318,434.1347,1322,425.1347,1318,429.1347,1314,425.1347,1318,434.1347" style="stroke:#6060BB;stroke-width:1.0;"/><text fill="#000000" font-family="sans-serif" font-size="13" lengthAdjust="spacing" textLength="29" x="1288" y="398.613">uses</text></g><!--link DBCustomers to Invoice--><g id="link_DBCustomers_Invoice"><path codeLine="53" d="M1193,374.9547 C1193,374.9547 1193,429.1347 1193,429.1347 " fill="none" id="DBCustomers-to-Invoice" style="stroke:#6060BB;stroke-width:1.0;stroke-dasharray:7.0,7.0;"/><polygon fill="#6060BB" points="1193,434.1347,1197,425.1347,1193,429.1347,1189,425.1347,1193,434.1347" style="stroke:#6060BB;stroke-width:1.0;"/><text fill="#000000" font-family="sans-serif" font-size="13" lengthAdjust="spacing" textLength="29" x="1163" y="398.613">uses</text></g><!--link DBCustomers to Item--><g id="link_DBCustomers_Item"><path codeLine="54" d="M1087,374.9547 C1087,374.9547 1087,429.1347 1087,429.1347 " fill="none" id="DBCustomers-to-Item" style="stroke:#6060BB;stroke-width:1.0;stroke-dasharray:7.0,7.0;"/><polygon fill="#6060BB" points="1087,434.1347,1091,425.1347,1087,429.1347,1083,425.1347,1087,434.1347" style="stroke:#6060BB;stroke-width:1.0;"/><text fill="#000000" font-family="sans-serif" font-size="13" lengthAdjust="spacing" textLength="29" x="1057" y="398.613">uses</text></g><!--link DBCustomers to Complaints--><g id="link_DBCustomers_Complaints"><path codeLine="55" d="M966,374.9547 C966,374.9547 966,429.1347 966,429.1347 " fill="none" id="DBCustomers-to-Complaints" style="stroke:#6060BB;stroke-width:1.0;stroke-dasharray:7.0,7.0;"/><polygon fill="#6060BB" points="966,434.1347,970,425.1347,966,429.1347,962,425.1347,966,434.1347" style="stroke:#6060BB;stroke-width:1.0;"/><text fill="#000000" font-family="sans-serif" font-size="13" lengthAdjust="spacing" textLength="29" x="936" y="398.613">uses</text></g><!--link DBCustomers to User--><g id="link_DBCustomers_User"><path codeLine="56" d="M844,374.9547 C844,374.9547 844,429.1347 844,429.1347 " fill="none" id="DBCustomers-to-User" style="stroke:#6060BB;stroke-width:1.0;stroke-dasharray:7.0,7.0;"/><polygon fill="#6060BB" points="844,434.1347,848,425.1347,844,429.1347,840,425.1347,844,434.1347" style="stroke:#6060BB;stroke-width:1.0;"/><text fill="#000000" font-family="sans-serif" font-size="13" lengthAdjust="spacing" textLength="29" x="814" y="398.613">uses</text></g><!--SRC=[rLTBRzf04BxpAqRaa9OA4lMGWmKSI8AQIovL3rL0Q6EFOPNrhhMxv5NbltSM_804i9rWqeO8WJtpVTyyTXYREovZfba4WakqJp62qdQc6fPRWT0r_1czxwVzoqSMnG9DPu3Mehv0mwUoSp4udnkh8jG6Mgq0BUC2WrOBc0pembIhUOm1nAX1iWXDp7nijRed3hNVaCeYD7-hkGQcaNoOU7hcSkgDv3xfHd8aUxqX5mJKwuqa4OBF9FY2-tU0tCx8djvo7mCZgJGPC6EMLo6ax-42WWGwwsX1IX-u7ic0Q_Gj11YZ353wd9GlQN-YS7UK8t7aBIWJck5amaDU71pb2W1kRWfHsm5dKwfpEyTk9vXjmcndc1rpFnsFdTBXN0X8t2haEvKKadl6cZeNSVuWiIa0frm-TcOs4kDn4vY1eL3CKlwlgN4QcNEMqPKqLEA5Fnl0rXAvBS5LQI3fgU8Ug5BHKkH7JoY4UbY80FW6KxGfqfTkgAG5NmcbUyspqxFJmQ3Pvzvc1KDsXvUInWEzwDwLl5VSn-w9m-X_zM0DR31mSCr-AQXKJuAL2xso66qMwPSJUQx8Xd5fpJvqEZblDIxpy36PwmducCYrkgmKFKl5FoFrJNLojR_CrlQa8dXLo_KXcKxBstJkF4D-6jbdjEaxZjESGlIg9cF_PwceHmzV-nqjEkJQxEZJsZflmRkzbBKLPycxQzhLERuMx4NzKLV5Nnh7xZ8jgm4SPcE01rfFWNO62xH8HaZ1g10MIk1SAEEMKKPRMgpndgkvcPZvxIH3cGXEZhdIQoKHRj5dTCxTDflit8OReF-GIsvc67HMi7FVrI0QBnjDqe3fzl-ud1NGl6gGhHlQkbdr3N7tZhXbnfTKazbNavNeUgcgBZd4PSKbvWVIHhEjj32oFOogVEgKhcZcSHY5xhUeh3Pd-qvLfGVjGOxbjZ7y6ODuFP0jexZQj8PZUfelzGUrsJg9hWar2dh6Lz80FbhDV4ij46eLvSezijrOuqRnOtNdvcYv98mx_OeJ5ZoWQXceXIMTbFMIk95NAyFA-AgLPp64CeOzjCuhWhy0]--></g></svg>