<?xml version="1.0" encoding="us-ascii" standalone="no"?><svg xmlns="http://www.w3.org/2000/svg" xmlns:xlink="http://www.w3.org/1999/xlink" contentStyleType="text/css" height="627px" preserveAspectRatio="none" style="width:1742px;height:627px;background:#FFFFFF;" version="1.1" viewBox="0 0 1742 627" width="1742px" zoomAndPan="magnify"><defs/><g><text fill="#000000" font-family="sans-serif" font-size="20" font-weight="bold" lengthAdjust="spacing" textLength="471" x="432.5" y="29.3359">Examples.BasicExample.AbstractBaseExample</text><text fill="#000000" font-family="sans-serif" font-size="20" font-weight="bold" lengthAdjust="spacing" textLength="84" x="910.5" y="29.3359">detailed</text><text fill="#000000" font-family="sans-serif" font-size="20" font-weight="bold" lengthAdjust="spacing" textLength="38" x="1001.5" y="29.3359">and</text><text fill="#000000" font-family="sans-serif" font-size="20" font-weight="bold" lengthAdjust="spacing" textLength="249" x="1046.5" y="29.3359">grouped per namespace</text><!--cluster Examples--><g id="cluster_Examples"><a href="Examples-diagram-detailed-grouped-per-namespace.svg" target="_top" title="Examples-diagram-detailed-grouped-per-namespace.svg" xlink:actuate="onRequest" xlink:href="Examples-diagram-detailed-grouped-per-namespace.svg" xlink:show="new" xlink:title="Examples-diagram-detailed-grouped-per-namespace.svg" xlink:type="simple"><path d="M672.5,64.5547 L741.5,64.5547 A3.75,3.75 0 0 1 744,67.0547 L751,87.043 L1732.5,87.043 A2.5,2.5 0 0 1 1735,89.543 L1735,618.0547 A2.5,2.5 0 0 1 1732.5,620.5547 L672.5,620.5547 A2.5,2.5 0 0 1 670,618.0547 L670,67.0547 A2.5,2.5 0 0 1 672.5,64.5547 " fill="none" style="stroke:#000000;stroke-width:1.5;"/><line style="stroke:#000000;stroke-width:1.5;" x1="670" x2="751" y1="87.043" y2="87.043"/><text fill="#000000" font-family="sans-serif" font-size="14" font-weight="bold" lengthAdjust="spacing" textLength="68" x="674" y="80.0898">Examples</text></a></g><!--cluster BasicExample--><g id="cluster_BasicExample"><a href="Examples.BasicExample-diagram-detailed-grouped-per-namespace.svg" target="_top" title="Examples.BasicExample-diagram-detailed-grouped-per-namespace.svg" xlink:actuate="onRequest" xlink:href="Examples.BasicExample-diagram-detailed-grouped-per-namespace.svg" xlink:show="new" xlink:title="Examples.BasicExample-diagram-detailed-grouped-per-namespace.svg" xlink:type="simple"><path d="M696.5,107.5547 L794.5,107.5547 A3.75,3.75 0 0 1 797,110.0547 L804,130.043 L1708.5,130.043 A2.5,2.5 0 0 1 1711,132.543 L1711,594.0547 A2.5,2.5 0 0 1 1708.5,596.5547 L696.5,596.5547 A2.5,2.5 0 0 1 694,594.0547 L694,110.0547 A2.5,2.5 0 0 1 696.5,107.5547 " fill="none" style="stroke:#000000;stroke-width:1.5;"/><line style="stroke:#000000;stroke-width:1.5;" x1="694" x2="804" y1="130.043" y2="130.043"/><text fill="#000000" font-family="sans-serif" font-size="14" font-weight="bold" lengthAdjust="spacing" textLength="97" x="698" y="123.0898">BasicExample</text></a></g><!--class AbstractBaseExample--><a href="Examples.BasicExample.AbstractBaseExample-diagram-detailed-grouped-per-namespace.svg" target="_top" title="Examples.BasicExample.AbstractBaseExample-diagram-detailed-grouped-per-namespace.svg" xlink:actuate="onRequest" xlink:href="Examples.BasicExample.AbstractBaseExample-diagram-detailed-grouped-per-namespace.svg" xlink:show="new" xlink:title="Examples.BasicExample.AbstractBaseExample-diagram-detailed-grouped-per-namespace.svg" xlink:type="simple"><g id="elem_AbstractBaseExample"><rect codeLine="6" fill="#FFFF00" height="64.4883" id="AbstractBaseExample" rx="2.5" ry="2.5" style="stroke:#181818;stroke-width:0.5;" width="948" x="728" y="142.5547"/><ellipse cx="1124.25" cy="158.5547" fill="#A9DCDF" rx="11" ry="11" style="stroke:#181818;stroke-width:1.0;"/><path d="M1124.1133,153.9028 L1122.9595,158.9746 L1125.2754,158.9746 Z M1122.6191,151.6616 L1125.6157,151.6616 L1128.9609,164.0547 L1126.5122,164.0547 L1125.7485,160.9917 L1122.4697,160.9917 L1121.7227,164.0547 L1119.2739,164.0547 Z " fill="#000000"/><text fill="#000000" font-family="sans-serif" font-size="14" font-style="italic" lengthAdjust="spacing" textLength="147" x="1144.75" y="163.8457">AbstractBaseExample</text><line style="stroke:#181818;stroke-width:0.5;" x1="729" x2="1675" y1="174.5547" y2="174.5547"/><line style="stroke:#181818;stroke-width:0.5;" x1="729" x2="1675" y1="182.5547" y2="182.5547"/><ellipse cx="739" cy="196.2988" fill="#84BE84" rx="3" ry="3" style="stroke:#038048;stroke-width:1.0;"/><text fill="#000000" font-family="sans-serif" font-size="14" lengthAdjust="spacing" textLength="121" x="748" y="200.0898">exampleAbstract(</text><text fill="#6060BB" font-family="sans-serif" font-size="14" lengthAdjust="spacing" textLength="570" x="869" y="200.0898">useless1:Examples.BasicExample.Useless, useless2:Examples.BasicExample.Useless</text><text fill="#000000" font-family="sans-serif" font-size="14" lengthAdjust="spacing" textLength="9" x="1439" y="200.0898">):</text><text fill="#BB6060" font-family="sans-serif" font-size="14" lengthAdjust="spacing" textLength="218" x="1452" y="200.0898">Examples.BasicExample.Useless</text></g></a><!--class Useless--><a href="Examples.BasicExample.Useless-diagram-detailed-grouped-per-namespace.svg" target="_top" title="Examples.BasicExample.Useless-diagram-detailed-grouped-per-namespace.svg" xlink:actuate="onRequest" xlink:href="Examples.BasicExample.Useless-diagram-detailed-grouped-per-namespace.svg" xlink:show="new" xlink:title="Examples.BasicExample.Useless-diagram-detailed-grouped-per-namespace.svg" xlink:type="simple"><g id="elem_Useless"><rect codeLine="9" fill="#F1F1F1" height="80.9766" id="Useless" rx="2.5" ry="2.5" style="stroke:#181818;stroke-width:0.5;" width="508" x="838" y="499.5547"/><ellipse cx="1062.25" cy="515.5547" fill="#ADD1B2" rx="11" ry="11" style="stroke:#181818;stroke-width:1.0;"/><path d="M1064.7231,521.6978 Q1064.1421,521.9966 1063.5029,522.146 Q1062.8638,522.2954 1062.1582,522.2954 Q1059.6514,522.2954 1058.3315,520.6436 Q1057.0117,518.9917 1057.0117,515.8706 Q1057.0117,512.7412 1058.3315,511.0894 Q1059.6514,509.4375 1062.1582,509.4375 Q1062.8638,509.4375 1063.5112,509.5869 Q1064.1587,509.7363 1064.7231,510.0352 L1064.7231,512.7578 Q1064.0923,512.1768 1063.4988,511.907 Q1062.9053,511.6372 1062.2744,511.6372 Q1060.9297,511.6372 1060.2449,512.7039 Q1059.5601,513.7705 1059.5601,515.8706 Q1059.5601,517.9624 1060.2449,519.0291 Q1060.9297,520.0957 1062.2744,520.0957 Q1062.9053,520.0957 1063.4988,519.8259 Q1064.0923,519.5562 1064.7231,518.9751 Z " fill="#000000"/><text fill="#000000" font-family="sans-serif" font-size="14" lengthAdjust="spacing" textLength="51" x="1082.75" y="520.8457">Useless</text><line style="stroke:#181818;stroke-width:0.5;" x1="839" x2="1345" y1="531.5547" y2="531.5547"/><ellipse cx="849" cy="545.2988" fill="#84BE84" rx="3" ry="3" style="stroke:#038048;stroke-width:1.0;"/><text fill="#000000" font-family="sans-serif" font-size="14" lengthAdjust="spacing" textLength="55" x="858" y="549.0898">useless(</text><text fill="#000000" font-family="sans-serif" font-size="14" lengthAdjust="spacing" textLength="9" x="913" y="549.0898">):</text><text fill="#BB6060" font-family="sans-serif" font-size="14" lengthAdjust="spacing" textLength="29" x="926" y="549.0898">void</text><rect fill="none" height="6" style="stroke:#C82930;stroke-width:1.0;" width="6" x="846" y="558.7871"/><text fill="#909090" font-family="sans-serif" font-size="14" lengthAdjust="spacing" textLength="482" x="858" y="565.5781">useless.testEnum: Examples.BasicExample.SideExample.SideTestEnum</text><line style="stroke:#181818;stroke-width:1.0;" x1="839" x2="1345" y1="572.5313" y2="572.5313"/></g></a><!--class BaseExample--><a href="Examples.BasicExample.BaseExample-diagram-detailed-grouped-per-namespace.svg" target="_top" title="Examples.BasicExample.BaseExample-diagram-detailed-grouped-per-namespace.svg" xlink:actuate="onRequest" xlink:href="Examples.BasicExample.BaseExample-diagram-detailed-grouped-per-namespace.svg" xlink:show="new" xlink:title="Examples.BasicExample.BaseExample-diagram-detailed-grouped-per-namespace.svg" xlink:type="simple"><g id="elem_BaseExample"><rect codeLine="14" fill="#F1F1F1" height="80.9766" id="BaseExample" rx="2.5" ry="2.5" style="stroke:#181818;stroke-width:0.5;" width="948" x="747" y="358.5547"/><ellipse cx="1171.75" cy="374.5547" fill="#ADD1B2" rx="11" ry="11" style="stroke:#181818;stroke-width:1.0;"/><path d="M1174.2231,380.6978 Q1173.6421,380.9966 1173.0029,381.146 Q1172.3638,381.2954 1171.6582,381.2954 Q1169.1514,381.2954 1167.8315,379.6436 Q1166.5117,377.9917 1166.5117,374.8706 Q1166.5117,371.7412 1167.8315,370.0894 Q1169.1514,368.4375 1171.6582,368.4375 Q1172.3638,368.4375 1173.0112,368.5869 Q1173.6587,368.7363 1174.2231,369.0352 L1174.2231,371.7578 Q1173.5923,371.1768 1172.9988,370.907 Q1172.4053,370.6372 1171.7744,370.6372 Q1170.4297,370.6372 1169.7449,371.7039 Q1169.0601,372.7705 1169.0601,374.8706 Q1169.0601,376.9624 1169.7449,378.0291 Q1170.4297,379.0957 1171.7744,379.0957 Q1172.4053,379.0957 1172.9988,378.8259 Q1173.5923,378.5562 1174.2231,377.9751 Z " fill="#000000"/><text fill="#000000" font-family="sans-serif" font-size="14" lengthAdjust="spacing" textLength="90" x="1192.25" y="379.8457">BaseExample</text><line style="stroke:#181818;stroke-width:0.5;" x1="748" x2="1694" y1="390.5547" y2="390.5547"/><line style="stroke:#181818;stroke-width:0.5;" x1="748" x2="1694" y1="398.5547" y2="398.5547"/><ellipse cx="758" cy="412.2988" fill="#84BE84" rx="3" ry="3" style="stroke:#038048;stroke-width:1.0;"/><text fill="#000000" font-family="sans-serif" font-size="14" lengthAdjust="spacing" textLength="121" x="767" y="416.0898">exampleAbstract(</text><text fill="#6060BB" font-family="sans-serif" font-size="14" lengthAdjust="spacing" textLength="570" x="888" y="416.0898">useless1:Examples.BasicExample.Useless, useless2:Examples.BasicExample.Useless</text><text fill="#000000" font-family="sans-serif" font-size="14" lengthAdjust="spacing" textLength="9" x="1458" y="416.0898">):</text><text fill="#BB6060" font-family="sans-serif" font-size="14" lengthAdjust="spacing" textLength="218" x="1471" y="416.0898">Examples.BasicExample.Useless</text><ellipse cx="758" cy="428.7871" fill="#84BE84" rx="3" ry="3" style="stroke:#038048;stroke-width:1.0;"/><text fill="#000000" font-family="sans-serif" font-size="14" lengthAdjust="spacing" textLength="101" x="767" y="432.5781">otherExample(</text><text fill="#000000" font-family="sans-serif" font-size="14" lengthAdjust="spacing" textLength="9" x="868" y="432.5781">):</text><text fill="#BB6060" font-family="sans-serif" font-size="14" lengthAdjust="spacing" textLength="29" x="881" y="432.5781">void</text></g></a><g id="elem_FloatingNote"><path d="M6,50.5547 L6,298.2129 L654,298.2129 L654,60.5547 L644,50.5547 L6,50.5547 " fill="#FEFFDD" style="stroke:#181818;stroke-width:0.5;"/><path d="M644,50.5547 L644,60.5547 L654,60.5547 L644,50.5547 " fill="#FEFFDD" style="stroke:#181818;stroke-width:1.0;"/><text fill="#000000" font-family="sans-serif" font-size="13" lengthAdjust="spacing" textLength="120" x="12" y="68.123">Your are analyzing:</text><text fill="#000000" font-family="sans-serif" font-size="13" lengthAdjust="spacing" textLength="287" x="12" y="83.4336">Examples.BasicExample.AbstractBaseExample</text><text fill="#000000" font-family="sans-serif" font-size="13" font-weight="bold" lengthAdjust="spacing" textLength="55" x="303" y="83.4336">detailed</text><text fill="#000000" font-family="sans-serif" font-size="13" lengthAdjust="spacing" textLength="23" x="362" y="83.4336">and</text><text fill="#000000" font-family="sans-serif" font-size="13" font-weight="bold" lengthAdjust="spacing" textLength="166" x="389" y="83.4336">grouped per namespace</text><text fill="#000000" font-family="sans-serif" font-size="13" lengthAdjust="spacing" textLength="4" x="12" y="98.7441">&#160;</text><text fill="#000000" font-family="sans-serif" font-size="13" lengthAdjust="spacing" textLength="229" x="12" y="129.3652">You can click either the namespaces</text><text fill="#000000" font-family="sans-serif" font-size="13" lengthAdjust="spacing" textLength="266" x="12" y="144.6758">or class names for filtering them and their</text><text fill="#000000" font-family="sans-serif" font-size="13" lengthAdjust="spacing" textLength="130" x="12" y="159.9863">direct dependencies.</text><text fill="#000000" font-family="sans-serif" font-size="13" lengthAdjust="spacing" textLength="4" x="12" y="175.2969">&#160;</text><line style="stroke:#181818;stroke-width:1.0;" x1="7" x2="314" y1="109.1416" y2="109.1416"/><line style="stroke:#181818;stroke-width:1.0;" x1="7" x2="314" y1="111.1416" y2="111.1416"/><text fill="#000000" font-family="sans-serif" font-size="13" lengthAdjust="spacing" textLength="32" x="314" y="113.5547">Filter</text><line style="stroke:#181818;stroke-width:1.0;" x1="346" x2="653" y1="109.1416" y2="109.1416"/><line style="stroke:#181818;stroke-width:1.0;" x1="346" x2="653" y1="111.1416" y2="111.1416"/><ellipse cx="17.5" cy="205.1602" fill="#000000" rx="2.5" ry="2.5" style="stroke:#000000;stroke-width:0.0;"/><text fill="#000000" font-family="sans-serif" font-size="13" lengthAdjust="spacing" textLength="287" x="24" y="209.918">Examples.BasicExample.AbstractBaseExample</text><text fill="#000000" font-family="sans-serif" font-size="13" font-weight="bold" lengthAdjust="spacing" textLength="67" x="315" y="209.918">simplified</text><text fill="#000000" font-family="sans-serif" font-size="13" lengthAdjust="spacing" textLength="23" x="386" y="209.918">and</text><text fill="#000000" font-family="sans-serif" font-size="13" font-weight="bold" lengthAdjust="spacing" textLength="166" x="413" y="209.918">grouped per namespace</text><text fill="#000000" font-family="sans-serif" font-size="13" lengthAdjust="spacing" textLength="4" x="579" y="209.918">:</text><text fill="#000000" font-family="sans-serif" font-size="13" lengthAdjust="spacing" textLength="12" x="12" y="225.2285">&#160;&#160;&#160;</text><a href="Examples.BasicExample.AbstractBaseExample-diagram-simplified-grouped-per-namespace.svg" target="_top" title="Examples.BasicExample.AbstractBaseExample-diagram-simplified-grouped-per-namespace.svg" xlink:actuate="onRequest" xlink:href="Examples.BasicExample.AbstractBaseExample-diagram-simplified-grouped-per-namespace.svg" xlink:show="new" xlink:title="Examples.BasicExample.AbstractBaseExample-diagram-simplified-grouped-per-namespace.svg" xlink:type="simple"><text fill="#0000FF" font-family="sans-serif" font-size="13" lengthAdjust="spacing" text-decoration="underline" textLength="609" x="24" y="225.2285">Examples.BasicExample.AbstractBaseExample-diagram-simplified-grouped-per-namespace.svg</text></a><ellipse cx="17.5" cy="235.7813" fill="#000000" rx="2.5" ry="2.5" style="stroke:#000000;stroke-width:0.0;"/><text fill="#000000" font-family="sans-serif" font-size="13" lengthAdjust="spacing" textLength="78" x="24" y="240.5391">Full diagram</text><text fill="#000000" font-family="sans-serif" font-size="13" font-weight="bold" lengthAdjust="spacing" textLength="55" x="106" y="240.5391">detailed</text><text fill="#000000" font-family="sans-serif" font-size="13" lengthAdjust="spacing" textLength="23" x="165" y="240.5391">and</text><text fill="#000000" font-family="sans-serif" font-size="13" font-weight="bold" lengthAdjust="spacing" textLength="166" x="192" y="240.5391">grouped per namespace</text><text fill="#000000" font-family="sans-serif" font-size="13" lengthAdjust="spacing" textLength="4" x="358" y="240.5391">:</text><text fill="#000000" font-family="sans-serif" font-size="13" lengthAdjust="spacing" textLength="12" x="12" y="255.8496">&#160;&#160;&#160;</text><a href="full-diagram-detailed-grouped-per-namespace.svg" target="_top" title="full-diagram-detailed-grouped-per-namespace.svg" xlink:actuate="onRequest" xlink:href="full-diagram-detailed-grouped-per-namespace.svg" xlink:show="new" xlink:title="full-diagram-detailed-grouped-per-namespace.svg" xlink:type="simple"><text fill="#0000FF" font-family="sans-serif" font-size="13" lengthAdjust="spacing" text-decoration="underline" textLength="330" x="24" y="255.8496">full-diagram-detailed-grouped-per-namespace.svg</text></a><ellipse cx="17.5" cy="266.4023" fill="#000000" rx="2.5" ry="2.5" style="stroke:#000000;stroke-width:0.0;"/><text fill="#000000" font-family="sans-serif" font-size="13" lengthAdjust="spacing" textLength="41" x="24" y="271.1602">Home:</text><text fill="#000000" font-family="sans-serif" font-size="13" lengthAdjust="spacing" textLength="12" x="12" y="286.4707">&#160;&#160;&#160;</text><a href="index.html" target="_top" title="index.html" xlink:actuate="onRequest" xlink:href="index.html" xlink:show="new" xlink:title="index.html" xlink:type="simple"><text fill="#0000FF" font-family="sans-serif" font-size="13" lengthAdjust="spacing" text-decoration="underline" textLength="68" x="24" y="286.4707">index.html</text></a><line style="stroke:#181818;stroke-width:1.0;" x1="7" x2="293" y1="189.6943" y2="189.6943"/><line style="stroke:#181818;stroke-width:1.0;" x1="7" x2="293" y1="191.6943" y2="191.6943"/><text fill="#000000" font-family="sans-serif" font-size="13" lengthAdjust="spacing" textLength="74" x="293" y="194.1074">Select other</text><line style="stroke:#181818;stroke-width:1.0;" x1="367" x2="653" y1="189.6943" y2="189.6943"/><line style="stroke:#181818;stroke-width:1.0;" x1="367" x2="653" y1="191.6943" y2="191.6943"/></g><!--link AbstractBaseExample to Useless--><g id="link_AbstractBaseExample_Useless"><path codeLine="29" d="M737.5,207.0347 C737.5,296.6047 737.5,540.5547 737.5,540.5547 C737.5,540.5547 831.66,540.5547 831.66,540.5547 " fill="none" id="AbstractBaseExample-to-Useless" style="stroke:#6060BB;stroke-width:1.0;stroke-dasharray:7.0,7.0;"/><polygon fill="#6060BB" points="836.66,540.5547,827.66,536.5547,831.66,540.5547,827.66,544.5547,836.66,540.5547" style="stroke:#6060BB;stroke-width:1.0;"/><text fill="#000000" font-family="sans-serif" font-size="13" lengthAdjust="spacing" textLength="29" x="707.5" y="417.443">uses</text></g><!--reverse link AbstractBaseExample to BaseExample--><g id="link_AbstractBaseExample_BaseExample"><path codeLine="30" d="M1211.5,227.7247 C1211.5,227.7247 1211.5,358.1947 1211.5,358.1947 " fill="none" id="AbstractBaseExample-backto-BaseExample" style="stroke:#FF0000;stroke-width:1.0;"/><polygon fill="none" points="1204.5,227.7247,1211.5,207.7247,1218.5,227.7247,1204.5,227.7247" style="stroke:#FF0000;stroke-width:1.0;"/></g><!--link BaseExample to Useless--><g id="link_BaseExample_Useless"><path codeLine="31" d="M1092,439.8347 C1092,439.8347 1092,493.3647 1092,493.3647 " fill="none" id="BaseExample-to-Useless" style="stroke:#6060BB;stroke-width:1.0;stroke-dasharray:7.0,7.0;"/><polygon fill="#6060BB" points="1092,498.3647,1096,489.3647,1092,493.3647,1088,489.3647,1092,498.3647" style="stroke:#6060BB;stroke-width:1.0;"/><text fill="#000000" font-family="sans-serif" font-size="13" lengthAdjust="spacing" textLength="29" x="1062" y="463.173">uses</text></g><!--SRC=[rLNVRzem47xFNt6Y3zso9MLzgBG8a4PLjAU-T7kO05KckO1Lnuvifxys_lUUmGGgGGbedJGWAB7lxllky-NEt75PCiqA45oYVIeHbBOp5LXk1KB7y6TCpjkzgqTMb09Dt6U6f_uf_ZOnLhFKqYBwDGZ332tZ0hCm12OpMfXgLPMOGOaQ92lGb2p5CEoSkUYzG2gBqFgbAWrC8_amyVJCvJGPoVU07ScHx7O7N5ZKtUv84Z2aJ48gU7e7oEsCxEblxMDW99Kc0sRCSXLoUiuN8OYeiouMe7J3zKXcN6Dg8SCIPOOovPJ14lO6XTjH3iI1Xt18YeRJ3S_v_YH9Em0O3Xj7ZpBEfbG7qHeZyh4ZYXtLiMDpFnsF7VD19GHujmFqNr7BoRr6NJdlm_ok2bm5uAJjOpopXHYFMy0C38HYbixZcWegg9rhXJVaE0WNVcy9zahGNK8V2WF0_CduOcjU7CSSTIDM9qyeX7fOi0Fu1BWCiehxePChINILKBhRkcXVjFlzLgyoLEV6V4csa_gvtFuCtkxyRRlEcSFeVKpW5LY_x-1QlIQ-H7vErrkgUeUTIlhzmzIhPVEPRfThJuBtYcVhF02YrsPVs-vRYnvRDFPALaMo8z4Rdk7c_GzlluA8eWPgDQczeslk_oysHtxHvBt5NpZtUN1wgGeQrjHI_qq_WWSQXa15O87IAv0OgXmMJE1IAED67wCPK6gyvweojwQQtDPHRWKdnpNJQoKH9fWoEWStE_saDzm0_N8kkPbX5c_4Nljk9X7Cjvgi4gPjEANfq-W3xsRhABgtHwEWcQIaeLfUr32TNgvLiMQUaEtMqmgQT_zuUBAigN7SszFU874lWe43edV-HCCJAhjnjByP1FlRnH5aNm00]--></g></svg>