<?xml version="1.0" encoding="us-ascii" standalone="no"?><svg xmlns="http://www.w3.org/2000/svg" xmlns:xlink="http://www.w3.org/1999/xlink" contentStyleType="text/css" height="614px" preserveAspectRatio="none" style="width:1246px;height:614px;background:#FFFFFF;" version="1.1" viewBox="0 0 1246 614" width="1246px" zoomAndPan="magnify"><defs/><g><text fill="#000000" font-family="sans-serif" font-size="20" font-weight="bold" lengthAdjust="spacing" textLength="222" x="456.25" y="29.3359">Example.SideExample</text><text fill="#000000" font-family="sans-serif" font-size="20" font-weight="bold" lengthAdjust="spacing" textLength="84" x="685.25" y="29.3359">detailed</text><text fill="#000000" font-family="sans-serif" font-size="20" font-weight="bold" lengthAdjust="spacing" textLength="7" x="769.25" y="29.3359">&#160;</text><!--cluster Example--><g id="cluster_Example"><path d="M405,56.0547 L466,56.0547 A3.75,3.75 0 0 1 468.5,58.5547 L475.5,78.543 L1237,78.543 A2.5,2.5 0 0 1 1239.5,81.043 L1239.5,494.0547 A2.5,2.5 0 0 1 1237,496.5547 L405,496.5547 A2.5,2.5 0 0 1 402.5,494.0547 L402.5,58.5547 A2.5,2.5 0 0 1 405,56.0547 " fill="none" style="stroke:#000000;stroke-width:1.5;"/><line style="stroke:#000000;stroke-width:1.5;" x1="402.5" x2="475.5" y1="78.543" y2="78.543"/><text fill="#000000" font-family="sans-serif" font-size="14" font-weight="bold" lengthAdjust="spacing" textLength="60" x="406.5" y="71.5898">Example</text></g><!--cluster SideExample--><g id="cluster_SideExample"><path d="M844,99.0547 L935,99.0547 A3.75,3.75 0 0 1 937.5,101.5547 L944.5,121.543 L1213,121.543 A2.5,2.5 0 0 1 1215.5,124.043 L1215.5,470.0547 A2.5,2.5 0 0 1 1213,472.5547 L844,472.5547 A2.5,2.5 0 0 1 841.5,470.0547 L841.5,101.5547 A2.5,2.5 0 0 1 844,99.0547 " fill="none" style="stroke:#000000;stroke-width:1.5;"/><line style="stroke:#000000;stroke-width:1.5;" x1="841.5" x2="944.5" y1="121.543" y2="121.543"/><text fill="#000000" font-family="sans-serif" font-size="14" font-weight="bold" lengthAdjust="spacing" textLength="90" x="845.5" y="114.5898">SideExample</text></g><!--class Useless--><a href="Example.Useless-diagram-detailed.svg" target="_top" title="Example.Useless-diagram-detailed.svg" xlink:actuate="onRequest" xlink:href="Example.Useless-diagram-detailed.svg" xlink:show="new" xlink:title="Example.Useless-diagram-detailed.svg" xlink:type="simple"><g id="elem_Useless"><rect codeLine="5" fill="#F1F1F1" height="80.9766" id="Useless" rx="2.5" ry="2.5" style="stroke:#181818;stroke-width:0.5;" width="404" x="418.5" y="134.0547"/><ellipse cx="590.75" cy="150.0547" fill="#ADD1B2" rx="11" ry="11" style="stroke:#181818;stroke-width:1.0;"/><path d="M593.2231,156.1978 Q592.6421,156.4966 592.0029,156.646 Q591.3638,156.7954 590.6582,156.7954 Q588.1514,156.7954 586.8315,155.1436 Q585.5117,153.4917 585.5117,150.3706 Q585.5117,147.2412 586.8315,145.5894 Q588.1514,143.9375 590.6582,143.9375 Q591.3638,143.9375 592.0112,144.0869 Q592.6587,144.2363 593.2231,144.5352 L593.2231,147.2578 Q592.5923,146.6768 591.9988,146.407 Q591.4053,146.1372 590.7744,146.1372 Q589.4297,146.1372 588.7449,147.2039 Q588.0601,148.2705 588.0601,150.3706 Q588.0601,152.4624 588.7449,153.5291 Q589.4297,154.5957 590.7744,154.5957 Q591.4053,154.5957 591.9988,154.3259 Q592.5923,154.0562 593.2231,153.4751 Z " fill="#000000"/><text fill="#000000" font-family="sans-serif" font-size="14" lengthAdjust="spacing" textLength="51" x="611.25" y="155.3457">Useless</text><line style="stroke:#181818;stroke-width:0.5;" x1="419.5" x2="821.5" y1="166.0547" y2="166.0547"/><ellipse cx="429.5" cy="179.7988" fill="#84BE84" rx="3" ry="3" style="stroke:#038048;stroke-width:1.0;"/><text fill="#000000" font-family="sans-serif" font-size="14" lengthAdjust="spacing" textLength="55" x="438.5" y="183.5898">useless(</text><text fill="#000000" font-family="sans-serif" font-size="14" lengthAdjust="spacing" textLength="5" x="493.5" y="183.5898">)</text><rect fill="none" height="6" style="stroke:#C82930;stroke-width:1.0;" width="6" x="426.5" y="193.2871"/><text fill="#909090" font-family="sans-serif" font-size="14" lengthAdjust="spacing" textLength="378" x="438.5" y="200.0781">useless.testEnum: Example.SideExample.SideTestEnum</text><line style="stroke:#181818;stroke-width:1.0;" x1="419.5" x2="821.5" y1="207.0313" y2="207.0313"/></g></a><!--class SideTestEnum--><a href="Example.SideExample.SideTestEnum-diagram-detailed.svg" target="_top" title="Example.SideExample.SideTestEnum-diagram-detailed.svg" xlink:actuate="onRequest" xlink:href="Example.SideExample.SideTestEnum-diagram-detailed.svg" xlink:show="new" xlink:title="Example.SideExample.SideTestEnum-diagram-detailed.svg" xlink:type="simple"><g id="elem_SideTestEnum"><rect codeLine="10" fill="#FFFF00" height="80.9766" id="SideTestEnum" rx="2.5" ry="2.5" style="stroke:#181818;stroke-width:0.5;" width="302" x="867.5" y="375.5547"/><ellipse cx="965.75" cy="391.5547" fill="#ADD1B2" rx="11" ry="11" style="stroke:#181818;stroke-width:1.0;"/><path d="M968.2231,397.6978 Q967.6421,397.9966 967.0029,398.146 Q966.3638,398.2954 965.6582,398.2954 Q963.1514,398.2954 961.8315,396.6436 Q960.5117,394.9917 960.5117,391.8706 Q960.5117,388.7412 961.8315,387.0894 Q963.1514,385.4375 965.6582,385.4375 Q966.3638,385.4375 967.0112,385.5869 Q967.6587,385.7363 968.2231,386.0352 L968.2231,388.7578 Q967.5923,388.1768 966.9988,387.907 Q966.4053,387.6372 965.7744,387.6372 Q964.4297,387.6372 963.7449,388.7039 Q963.0601,389.7705 963.0601,391.8706 Q963.0601,393.9624 963.7449,395.0291 Q964.4297,396.0957 965.7744,396.0957 Q966.4053,396.0957 966.9988,395.8259 Q967.5923,395.5562 968.2231,394.9751 Z " fill="#000000"/><text fill="#000000" font-family="sans-serif" font-size="14" lengthAdjust="spacing" textLength="97" x="986.25" y="396.8457">SideTestEnum</text><line style="stroke:#181818;stroke-width:0.5;" x1="868.5" x2="1168.5" y1="407.5547" y2="407.5547"/><ellipse cx="878.5" cy="421.2988" fill="none" rx="3" ry="3" style="stroke:#038048;stroke-width:1.0;"/><text fill="#000000" font-family="sans-serif" font-size="14" lengthAdjust="spacing" textLength="276" x="887.5" y="425.0898">TestEnumValue1: EnumTypePlaceHolder</text><ellipse cx="878.5" cy="437.7871" fill="none" rx="3" ry="3" style="stroke:#038048;stroke-width:1.0;"/><text fill="#000000" font-family="sans-serif" font-size="14" lengthAdjust="spacing" textLength="276" x="887.5" y="441.5781">TestEnumValue2: EnumTypePlaceHolder</text><line style="stroke:#181818;stroke-width:1.0;" x1="868.5" x2="1168.5" y1="448.5313" y2="448.5313"/><line style="stroke:#181818;stroke-width:1.0;" x1="868.5" x2="1168.5" y1="450.5313" y2="450.5313"/></g></a><!--class SideExample--><a href="Example.SideExample.SideExample-diagram-detailed.svg" target="_top" title="Example.SideExample.SideExample-diagram-detailed.svg" xlink:actuate="onRequest" xlink:href="Example.SideExample.SideExample-diagram-detailed.svg" xlink:show="new" xlink:title="Example.SideExample.SideExample-diagram-detailed.svg" xlink:type="simple"><g id="elem_SideExample"><rect codeLine="15" fill="#FFFF00" height="80.9766" id="SideExample" rx="2.5" ry="2.5" style="stroke:#181818;stroke-width:0.5;" width="342" x="857.5" y="134.0547"/><ellipse cx="980.25" cy="150.0547" fill="#ADD1B2" rx="11" ry="11" style="stroke:#181818;stroke-width:1.0;"/><path d="M982.7231,156.1978 Q982.1421,156.4966 981.5029,156.646 Q980.8638,156.7954 980.1582,156.7954 Q977.6514,156.7954 976.3315,155.1436 Q975.0117,153.4917 975.0117,150.3706 Q975.0117,147.2412 976.3315,145.5894 Q977.6514,143.9375 980.1582,143.9375 Q980.8638,143.9375 981.5112,144.0869 Q982.1587,144.2363 982.7231,144.5352 L982.7231,147.2578 Q982.0923,146.6768 981.4988,146.407 Q980.9053,146.1372 980.2744,146.1372 Q978.9297,146.1372 978.2449,147.2039 Q977.5601,148.2705 977.5601,150.3706 Q977.5601,152.4624 978.2449,153.5291 Q978.9297,154.5957 980.2744,154.5957 Q980.9053,154.5957 981.4988,154.3259 Q982.0923,154.0562 982.7231,153.4751 Z " fill="#000000"/><text fill="#000000" font-family="sans-serif" font-size="14" lengthAdjust="spacing" textLength="88" x="1000.75" y="155.3457">SideExample</text><line style="stroke:#181818;stroke-width:0.5;" x1="858.5" x2="1198.5" y1="166.0547" y2="166.0547"/><line style="stroke:#181818;stroke-width:0.5;" x1="858.5" x2="1198.5" y1="174.0547" y2="174.0547"/><ellipse cx="868.5" cy="187.7988" fill="#84BE84" rx="3" ry="3" style="stroke:#038048;stroke-width:1.0;"/><text fill="#000000" font-family="sans-serif" font-size="14" lengthAdjust="spacing" textLength="30" x="877.5" y="191.5898">test(</text><text fill="#6060BB" font-family="sans-serif" font-size="14" lengthAdjust="spacing" textLength="281" x="907.5" y="191.5898">test:Example.SideExample.SideTestEnum</text><text fill="#000000" font-family="sans-serif" font-size="14" lengthAdjust="spacing" textLength="5" x="1188.5" y="191.5898">)</text><ellipse cx="868.5" cy="204.2871" fill="#84BE84" rx="3" ry="3" style="stroke:#038048;stroke-width:1.0;"/><text fill="#000000" font-family="sans-serif" font-size="14" lengthAdjust="spacing" textLength="119" x="877.5" y="208.0781">testNoParameter(</text><text fill="#000000" font-family="sans-serif" font-size="14" lengthAdjust="spacing" textLength="5" x="996.5" y="208.0781">)</text></g></a><g id="elem_FloatingNote"><path d="M6,50.5547 L6,298.2129 L383,298.2129 L383,60.5547 L373,50.5547 L6,50.5547 " fill="#FEFFDD" style="stroke:#181818;stroke-width:0.5;"/><path d="M373,50.5547 L373,60.5547 L383,60.5547 L373,50.5547 " fill="#FEFFDD" style="stroke:#181818;stroke-width:1.0;"/><text fill="#000000" font-family="sans-serif" font-size="13" lengthAdjust="spacing" textLength="120" x="12" y="68.123">Your are analyzing:</text><text fill="#000000" font-family="sans-serif" font-size="13" lengthAdjust="spacing" textLength="136" x="12" y="83.4336">Example.SideExample</text><text fill="#000000" font-family="sans-serif" font-size="13" font-weight="bold" lengthAdjust="spacing" textLength="55" x="152" y="83.4336">detailed</text><text fill="#000000" font-family="sans-serif" font-size="13" lengthAdjust="spacing" textLength="4" x="207" y="83.4336">&#160;</text><text fill="#000000" font-family="sans-serif" font-size="13" lengthAdjust="spacing" textLength="4" x="12" y="98.7441">&#160;</text><text fill="#000000" font-family="sans-serif" font-size="13" lengthAdjust="spacing" textLength="229" x="12" y="129.3652">You can click either the namespaces</text><text fill="#000000" font-family="sans-serif" font-size="13" lengthAdjust="spacing" textLength="266" x="12" y="144.6758">or class names for filtering them and their</text><text fill="#000000" font-family="sans-serif" font-size="13" lengthAdjust="spacing" textLength="130" x="12" y="159.9863">direct dependencies.</text><text fill="#000000" font-family="sans-serif" font-size="13" lengthAdjust="spacing" textLength="4" x="12" y="175.2969">&#160;</text><line style="stroke:#181818;stroke-width:1.0;" x1="7" x2="178.5" y1="109.1416" y2="109.1416"/><line style="stroke:#181818;stroke-width:1.0;" x1="7" x2="178.5" y1="111.1416" y2="111.1416"/><text fill="#000000" font-family="sans-serif" font-size="13" lengthAdjust="spacing" textLength="32" x="178.5" y="113.5547">Filter</text><line style="stroke:#181818;stroke-width:1.0;" x1="210.5" x2="382" y1="109.1416" y2="109.1416"/><line style="stroke:#181818;stroke-width:1.0;" x1="210.5" x2="382" y1="111.1416" y2="111.1416"/><ellipse cx="17.5" cy="205.1602" fill="#000000" rx="2.5" ry="2.5" style="stroke:#000000;stroke-width:0.0;"/><text fill="#000000" font-family="sans-serif" font-size="13" lengthAdjust="spacing" textLength="136" x="24" y="209.918">Example.SideExample</text><text fill="#000000" font-family="sans-serif" font-size="13" font-weight="bold" lengthAdjust="spacing" textLength="67" x="164" y="209.918">simplified</text><text fill="#000000" font-family="sans-serif" font-size="13" lengthAdjust="spacing" textLength="4" x="235" y="209.918">:</text><text fill="#000000" font-family="sans-serif" font-size="13" lengthAdjust="spacing" textLength="12" x="12" y="225.2285">&#160;&#160;&#160;</text><a href="Example.SideExample-diagram-simplified.svg" target="_top" title="Example.SideExample-diagram-simplified.svg" xlink:actuate="onRequest" xlink:href="Example.SideExample-diagram-simplified.svg" xlink:show="new" xlink:title="Example.SideExample-diagram-simplified.svg" xlink:type="simple"><text fill="#0000FF" font-family="sans-serif" font-size="13" lengthAdjust="spacing" text-decoration="underline" textLength="292" x="24" y="225.2285">Example.SideExample-diagram-simplified.svg</text></a><ellipse cx="17.5" cy="235.7813" fill="#000000" rx="2.5" ry="2.5" style="stroke:#000000;stroke-width:0.0;"/><text fill="#000000" font-family="sans-serif" font-size="13" lengthAdjust="spacing" textLength="78" x="24" y="240.5391">Full diagram</text><text fill="#000000" font-family="sans-serif" font-size="13" font-weight="bold" lengthAdjust="spacing" textLength="55" x="106" y="240.5391">detailed</text><text fill="#000000" font-family="sans-serif" font-size="13" lengthAdjust="spacing" textLength="23" x="165" y="240.5391">and</text><text fill="#000000" font-family="sans-serif" font-size="13" font-weight="bold" lengthAdjust="spacing" textLength="166" x="192" y="240.5391">grouped per namespace</text><text fill="#000000" font-family="sans-serif" font-size="13" lengthAdjust="spacing" textLength="4" x="358" y="240.5391">:</text><text fill="#000000" font-family="sans-serif" font-size="13" lengthAdjust="spacing" textLength="12" x="12" y="255.8496">&#160;&#160;&#160;</text><a href="full-diagram-detailed-grouped-per-namespace.svg" target="_top" title="full-diagram-detailed-grouped-per-namespace.svg" xlink:actuate="onRequest" xlink:href="full-diagram-detailed-grouped-per-namespace.svg" xlink:show="new" xlink:title="full-diagram-detailed-grouped-per-namespace.svg" xlink:type="simple"><text fill="#0000FF" font-family="sans-serif" font-size="13" lengthAdjust="spacing" text-decoration="underline" textLength="330" x="24" y="255.8496">full-diagram-detailed-grouped-per-namespace.svg</text></a><ellipse cx="17.5" cy="266.4023" fill="#000000" rx="2.5" ry="2.5" style="stroke:#000000;stroke-width:0.0;"/><text fill="#000000" font-family="sans-serif" font-size="13" lengthAdjust="spacing" textLength="41" x="24" y="271.1602">Home:</text><text fill="#000000" font-family="sans-serif" font-size="13" lengthAdjust="spacing" textLength="12" x="12" y="286.4707">&#160;&#160;&#160;</text><a href="index.html" target="_top" title="index.html" xlink:actuate="onRequest" xlink:href="index.html" xlink:show="new" xlink:title="index.html" xlink:type="simple"><text fill="#0000FF" font-family="sans-serif" font-size="13" lengthAdjust="spacing" text-decoration="underline" textLength="68" x="24" y="286.4707">index.html</text></a><line style="stroke:#181818;stroke-width:1.0;" x1="7" x2="157.5" y1="189.6943" y2="189.6943"/><line style="stroke:#181818;stroke-width:1.0;" x1="7" x2="157.5" y1="191.6943" y2="191.6943"/><text fill="#000000" font-family="sans-serif" font-size="13" lengthAdjust="spacing" textLength="74" x="157.5" y="194.1074">Select other</text><line style="stroke:#181818;stroke-width:1.0;" x1="231.5" x2="382" y1="189.6943" y2="189.6943"/><line style="stroke:#181818;stroke-width:1.0;" x1="231.5" x2="382" y1="191.6943" y2="191.6943"/></g><!--class EnumTypePlaceHolder--><a href="EnumTypePlaceHolder-diagram-detailed.svg" target="_top" title="EnumTypePlaceHolder-diagram-detailed.svg" xlink:actuate="onRequest" xlink:href="EnumTypePlaceHolder-diagram-detailed.svg" xlink:show="new" xlink:title="EnumTypePlaceHolder-diagram-detailed.svg" xlink:type="simple"><g id="elem_EnumTypePlaceHolder"><rect codeLine="3" fill="#F5FFFA" height="48" id="EnumTypePlaceHolder" rx="2.5" ry="2.5" style="stroke:#181818;stroke-width:0.5;" width="185" x="926" y="559.5547"/><ellipse cx="941" cy="575.5547" fill="#ADD1B2" rx="11" ry="11" style="stroke:#181818;stroke-width:1.0;"/><path d="M943.4731,581.6978 Q942.8921,581.9966 942.2529,582.146 Q941.6138,582.2954 940.9082,582.2954 Q938.4014,582.2954 937.0815,580.6436 Q935.7617,578.9917 935.7617,575.8706 Q935.7617,572.7412 937.0815,571.0894 Q938.4014,569.4375 940.9082,569.4375 Q941.6138,569.4375 942.2612,569.5869 Q942.9087,569.7363 943.4731,570.0352 L943.4731,572.7578 Q942.8423,572.1768 942.2488,571.907 Q941.6553,571.6372 941.0244,571.6372 Q939.6797,571.6372 938.9949,572.7039 Q938.3101,573.7705 938.3101,575.8706 Q938.3101,577.9624 938.9949,579.0291 Q939.6797,580.0957 941.0244,580.0957 Q941.6553,580.0957 942.2488,579.8259 Q942.8423,579.5562 943.4731,578.9751 Z " fill="#000000"/><text fill="#000000" font-family="sans-serif" font-size="14" lengthAdjust="spacing" textLength="153" x="955" y="580.8457">EnumTypePlaceHolder</text><line style="stroke:#181818;stroke-width:0.5;" x1="927" x2="1110" y1="591.5547" y2="591.5547"/><line style="stroke:#181818;stroke-width:0.5;" x1="927" x2="1110" y1="599.5547" y2="599.5547"/></g></a><!--link Useless to SideTestEnum--><g id="link_Useless_SideTestEnum"><path codeLine="26" d="M686.67,215.3747 C758.69,258.7147 873.44,327.7647 947.36,372.2447 " fill="none" id="Useless-to-SideTestEnum" style="stroke:#909090;stroke-width:1.0;"/><polygon fill="#909090" points="951.17,375.1447,945.5105,367.0843,946.8825,372.5722,941.3946,373.9442,951.17,375.1447" style="stroke:#909090;stroke-width:1.0;"/><text fill="#000000" font-family="sans-serif" font-size="13" lengthAdjust="spacing" textLength="29" x="901.5" y="342.123">uses</text></g><!--link SideTestEnum to EnumTypePlaceHolder--><g id="link_SideTestEnum_EnumTypePlaceHolder"><path codeLine="29" d="M1018.5,456.6947 C1018.5,486.3947 1018.5,526.3547 1018.5,553.2147 " fill="none" id="SideTestEnum-to-EnumTypePlaceHolder" style="stroke:#6060BB;stroke-width:1.0;stroke-dasharray:7.0,7.0;"/><polygon fill="#6060BB" points="1018.5,558.0747,1022.5,549.0747,1018.5,553.0747,1014.5,549.0747,1018.5,558.0747" style="stroke:#6060BB;stroke-width:1.0;"/><text fill="#000000" font-family="sans-serif" font-size="13" lengthAdjust="spacing" textLength="29" x="1019.5" y="526.123">uses</text></g><!--link SideExample to SideTestEnum--><g id="link_SideExample_SideTestEnum"><path codeLine="30" d="M1026.84,215.3747 C1025.07,257.7647 1022.27,324.7447 1020.41,369.2847 " fill="none" id="SideExample-to-SideTestEnum" style="stroke:#6060BB;stroke-width:1.0;stroke-dasharray:7.0,7.0;"/><polygon fill="#6060BB" points="1020.17,374.1447,1024.5275,365.3122,1020.3704,369.1487,1016.534,364.9916,1020.17,374.1447" style="stroke:#6060BB;stroke-width:1.0;"/><text fill="#000000" font-family="sans-serif" font-size="13" lengthAdjust="spacing" textLength="29" x="1022.5" y="342.123">uses</text></g><!--SRC=[jLJ1Qjj04BthAmRxa4P5Yfj3eCBI8I4cbuP0aaAnTLYaaRDqjIjsLwsTqd_lh2NPSI8Z9r0Rp6hrvisyDpEst0g4gU7F69rFakiLAok1uJtFiJs3x-Te6HUO-pvCpnmqyQIo2ACVgjR0D0AJJAoVkLn62pd8iP0B6SSpBYpgE5v8Oe6CISW4ptu2Slk46kW792lHL2n3Gp5A4u0Pqzn2GS_5XeAoEdH9HUJkmFL2vbnZPY772cMECkDemYRjFGhtHhaaBhaF_VKQJWTUy4t5f0e0vlCUQ91pjjIi37O1eVcrJ5D7FQk5W1Qmxu6hrVUNMjKLvb2HuArOt-_I5HI-vU-2WpOeeA1W6xJBUQDAx0WuYL-5JxOKQJe2Pc0c5BDas2srpslil9Pr-R2ky4uGpOqIETL2Ij_UlgcaoGdZRrpQAuqayO_tjsDjdNeqv3SzxxnhRmwn4GV0PwWRrATfeQI5J0cbuz75v69oUJbAfcVkDZabP01xYAyJznqbRNXeqLWd9UhhykRyq29QJYy8I0F0lef3GVqZiGSvwDeQXL2_DtATu0x_dOaQlqHzRUb3dlSZuvZ0mpgwSJyiu_MK3wXmVlVtpBs9Zcp2wGksMtN7A37IeWyE0ma-eQqwwWF_3Ni2LnlJDGhQDIKDuCfgbbbQz4AhShVf4M7V2MzTyrxlLp0VDxEV1idms4Ba5inyCFbBNcymLpWVDwrAmwJtpsPRpD2KxZCTg_4V]--></g></svg>