<?xml version="1.0" encoding="us-ascii" standalone="no"?><svg xmlns="http://www.w3.org/2000/svg" xmlns:xlink="http://www.w3.org/1999/xlink" contentStyleType="text/css" height="824px" preserveAspectRatio="none" style="width:2987px;height:824px;background:#FFFFFF;" version="1.1" viewBox="0 0 2987 824" width="2987px" zoomAndPan="magnify"><defs/><g><text fill="#000000" font-family="sans-serif" font-size="20" font-weight="bold" lengthAdjust="spacing" textLength="244" x="1168.5" y="29.3359">Examples.BasicExample</text><text fill="#000000" font-family="sans-serif" font-size="20" font-weight="bold" lengthAdjust="spacing" textLength="84" x="1419.5" y="29.3359">detailed</text><text fill="#000000" font-family="sans-serif" font-size="20" font-weight="bold" lengthAdjust="spacing" textLength="38" x="1510.5" y="29.3359">and</text><text fill="#000000" font-family="sans-serif" font-size="20" font-weight="bold" lengthAdjust="spacing" textLength="249" x="1555.5" y="29.3359">grouped per namespace</text><!--cluster Examples--><g id="cluster_Examples"><a href="Examples-diagram-detailed-grouped-per-namespace.svg" target="_top" title="Examples-diagram-detailed-grouped-per-namespace.svg" xlink:actuate="onRequest" xlink:href="Examples-diagram-detailed-grouped-per-namespace.svg" xlink:show="new" xlink:title="Examples-diagram-detailed-grouped-per-namespace.svg" xlink:type="simple"><path d="M534.5,50.5547 L603.5,50.5547 A3.75,3.75 0 0 1 606,53.0547 L613,73.043 L2977.5,73.043 A2.5,2.5 0 0 1 2980,75.543 L2980,814.5547 A2.5,2.5 0 0 1 2977.5,817.0547 L534.5,817.0547 A2.5,2.5 0 0 1 532,814.5547 L532,53.0547 A2.5,2.5 0 0 1 534.5,50.5547 " fill="none" style="stroke:#000000;stroke-width:1.5;"/><line style="stroke:#000000;stroke-width:1.5;" x1="532" x2="613" y1="73.043" y2="73.043"/><text fill="#000000" font-family="sans-serif" font-size="14" font-weight="bold" lengthAdjust="spacing" textLength="68" x="536" y="66.0898">Examples</text></a></g><!--cluster BasicExample--><g id="cluster_BasicExample"><a href="Examples.BasicExample-diagram-detailed-grouped-per-namespace.svg" target="_top" title="Examples.BasicExample-diagram-detailed-grouped-per-namespace.svg" xlink:actuate="onRequest" xlink:href="Examples.BasicExample-diagram-detailed-grouped-per-namespace.svg" xlink:show="new" xlink:title="Examples.BasicExample-diagram-detailed-grouped-per-namespace.svg" xlink:type="simple"><path d="M558.5,93.5547 L656.5,93.5547 A3.75,3.75 0 0 1 659,96.0547 L666,116.043 L2953.5,116.043 A2.5,2.5 0 0 1 2956,118.543 L2956,790.5547 A2.5,2.5 0 0 1 2953.5,793.0547 L558.5,793.0547 A2.5,2.5 0 0 1 556,790.5547 L556,96.0547 A2.5,2.5 0 0 1 558.5,93.5547 " fill="none" style="stroke:#000000;stroke-width:1.5;"/><line style="stroke:#000000;stroke-width:1.5;" x1="556" x2="666" y1="116.043" y2="116.043"/><text fill="#000000" font-family="sans-serif" font-size="14" font-weight="bold" lengthAdjust="spacing" textLength="97" x="560" y="109.0898">BasicExample</text></a></g><!--cluster SideExample--><g id="cluster_SideExample"><a href="Examples.BasicExample.SideExample-diagram-detailed-grouped-per-namespace.svg" target="_top" title="Examples.BasicExample.SideExample-diagram-detailed-grouped-per-namespace.svg" xlink:actuate="onRequest" xlink:href="Examples.BasicExample.SideExample-diagram-detailed-grouped-per-namespace.svg" xlink:show="new" xlink:title="Examples.BasicExample.SideExample-diagram-detailed-grouped-per-namespace.svg" xlink:type="simple"><path d="M2323.5,496.0547 L2414.5,496.0547 A3.75,3.75 0 0 1 2417,498.5547 L2424,518.543 L2872.5,518.543 A2.5,2.5 0 0 1 2875,521.043 L2875,766.5547 A2.5,2.5 0 0 1 2872.5,769.0547 L2323.5,769.0547 A2.5,2.5 0 0 1 2321,766.5547 L2321,498.5547 A2.5,2.5 0 0 1 2323.5,496.0547 " fill="none" style="stroke:#000000;stroke-width:1.5;"/><line style="stroke:#000000;stroke-width:1.5;" x1="2321" x2="2424" y1="518.543" y2="518.543"/><text fill="#000000" font-family="sans-serif" font-size="14" font-weight="bold" lengthAdjust="spacing" textLength="90" x="2325" y="511.5898">SideExample</text></a></g><!--class ClassExample_DOT_InnerClassExample--><a href="Examples.BasicExample.ClassExample.InnerClassExample-diagram-detailed-grouped-per-namespace.svg" target="_top" title="Examples.BasicExample.ClassExample.InnerClassExample-diagram-detailed-grouped-per-namespace.svg" xlink:actuate="onRequest" xlink:href="Examples.BasicExample.ClassExample.InnerClassExample-diagram-detailed-grouped-per-namespace.svg" xlink:show="new" xlink:title="Examples.BasicExample.ClassExample.InnerClassExample-diagram-detailed-grouped-per-namespace.svg" xlink:type="simple"><g id="elem_ClassExample_DOT_InnerClassExample"><rect codeLine="6" fill="#FFFF00" height="64.4883" id="ClassExample_DOT_InnerClassExample" rx="2.5" ry="2.5" style="stroke:#181818;stroke-width:0.5;" width="574" x="572" y="398.5547"/><ellipse cx="719.75" cy="414.5547" fill="#ADD1B2" rx="11" ry="11" style="stroke:#181818;stroke-width:1.0;"/><path d="M722.2231,420.6978 Q721.6421,420.9966 721.0029,421.146 Q720.3638,421.2954 719.6582,421.2954 Q717.1514,421.2954 715.8315,419.6436 Q714.5117,417.9917 714.5117,414.8706 Q714.5117,411.7412 715.8315,410.0894 Q717.1514,408.4375 719.6582,408.4375 Q720.3638,408.4375 721.0112,408.5869 Q721.6587,408.7363 722.2231,409.0352 L722.2231,411.7578 Q721.5923,411.1768 720.9988,410.907 Q720.4053,410.6372 719.7744,410.6372 Q718.4297,410.6372 717.7449,411.7039 Q717.0601,412.7705 717.0601,414.8706 Q717.0601,416.9624 717.7449,418.0291 Q718.4297,419.0957 719.7744,419.0957 Q720.4053,419.0957 720.9988,418.8259 Q721.5923,418.5562 722.2231,417.9751 Z " fill="#000000"/><text fill="#000000" font-family="sans-serif" font-size="14" lengthAdjust="spacing" textLength="270" x="740.25" y="419.8457">ClassExample_DOT_InnerClassExample</text><line style="stroke:#181818;stroke-width:0.5;" x1="573" x2="1145" y1="430.5547" y2="430.5547"/><line style="stroke:#181818;stroke-width:0.5;" x1="573" x2="1145" y1="438.5547" y2="438.5547"/><ellipse cx="583" cy="452.2988" fill="#84BE84" rx="3" ry="3" style="stroke:#038048;stroke-width:1.0;"/><text fill="#000000" font-family="sans-serif" font-size="14" lengthAdjust="spacing" textLength="225" x="592" y="456.0898">methodClassInnerClassExample(</text><text fill="#6060BB" font-family="sans-serif" font-size="14" lengthAdjust="spacing" textLength="281" x="817" y="456.0898">useless1:Examples.BasicExample.Useless</text><text fill="#000000" font-family="sans-serif" font-size="14" lengthAdjust="spacing" textLength="9" x="1098" y="456.0898">):</text><text fill="#BB6060" font-family="sans-serif" font-size="14" lengthAdjust="spacing" textLength="29" x="1111" y="456.0898">void</text></g></a><!--class Useless--><a href="Examples.BasicExample.Useless-diagram-detailed-grouped-per-namespace.svg" target="_top" title="Examples.BasicExample.Useless-diagram-detailed-grouped-per-namespace.svg" xlink:actuate="onRequest" xlink:href="Examples.BasicExample.Useless-diagram-detailed-grouped-per-namespace.svg" xlink:show="new" xlink:title="Examples.BasicExample.Useless-diagram-detailed-grouped-per-namespace.svg" xlink:type="simple"><g id="elem_Useless"><rect codeLine="9" fill="#FFFF00" height="80.9766" id="Useless" rx="2.5" ry="2.5" style="stroke:#181818;stroke-width:0.5;" width="508" x="1372" y="531.0547"/><ellipse cx="1596.25" cy="547.0547" fill="#ADD1B2" rx="11" ry="11" style="stroke:#181818;stroke-width:1.0;"/><path d="M1598.7231,553.1978 Q1598.1421,553.4966 1597.5029,553.646 Q1596.8638,553.7954 1596.1582,553.7954 Q1593.6514,553.7954 1592.3315,552.1436 Q1591.0117,550.4917 1591.0117,547.3706 Q1591.0117,544.2412 1592.3315,542.5894 Q1593.6514,540.9375 1596.1582,540.9375 Q1596.8638,540.9375 1597.5112,541.0869 Q1598.1587,541.2363 1598.7231,541.5352 L1598.7231,544.2578 Q1598.0923,543.6768 1597.4988,543.407 Q1596.9053,543.1372 1596.2744,543.1372 Q1594.9297,543.1372 1594.2449,544.2039 Q1593.5601,545.2705 1593.5601,547.3706 Q1593.5601,549.4624 1594.2449,550.5291 Q1594.9297,551.5957 1596.2744,551.5957 Q1596.9053,551.5957 1597.4988,551.3259 Q1598.0923,551.0562 1598.7231,550.4751 Z " fill="#000000"/><text fill="#000000" font-family="sans-serif" font-size="14" lengthAdjust="spacing" textLength="51" x="1616.75" y="552.3457">Useless</text><line style="stroke:#181818;stroke-width:0.5;" x1="1373" x2="1879" y1="563.0547" y2="563.0547"/><ellipse cx="1383" cy="576.7988" fill="#84BE84" rx="3" ry="3" style="stroke:#038048;stroke-width:1.0;"/><text fill="#000000" font-family="sans-serif" font-size="14" lengthAdjust="spacing" textLength="55" x="1392" y="580.5898">useless(</text><text fill="#000000" font-family="sans-serif" font-size="14" lengthAdjust="spacing" textLength="9" x="1447" y="580.5898">):</text><text fill="#BB6060" font-family="sans-serif" font-size="14" lengthAdjust="spacing" textLength="29" x="1460" y="580.5898">void</text><rect fill="none" height="6" style="stroke:#C82930;stroke-width:1.0;" width="6" x="1380" y="590.2871"/><text fill="#909090" font-family="sans-serif" font-size="14" lengthAdjust="spacing" textLength="482" x="1392" y="597.0781">useless.testEnum: Examples.BasicExample.SideExample.SideTestEnum</text><line style="stroke:#181818;stroke-width:1.0;" x1="1373" x2="1879" y1="604.0313" y2="604.0313"/></g></a><!--class ClassExample_DOT_InnerClassExample_DOT_classInMethodExample--><a href="Examples.BasicExample.ClassExample.InnerClassExample.classInMethodExample-diagram-detailed-grouped-per-namespace.svg" target="_top" title="Examples.BasicExample.ClassExample.InnerClassExample.classInMethodExample-diagram-detailed-grouped-per-namespace.svg" xlink:actuate="onRequest" xlink:href="Examples.BasicExample.ClassExample.InnerClassExample.classInMethodExample-diagram-detailed-grouped-per-namespace.svg" xlink:show="new" xlink:title="Examples.BasicExample.ClassExample.InnerClassExample.classInMethodExample-diagram-detailed-grouped-per-namespace.svg" xlink:type="simple"><g id="elem_ClassExample_DOT_InnerClassExample_DOT_classInMethodExample"><rect codeLine="14" fill="#FFFF00" height="48" id="ClassExample_DOT_InnerClassExample_DOT_classInMethodExample" rx="2.5" ry="2.5" style="stroke:#181818;stroke-width:0.5;" width="503" x="607.5" y="547.5547"/><ellipse cx="622.5" cy="563.5547" fill="#ADD1B2" rx="11" ry="11" style="stroke:#181818;stroke-width:1.0;"/><path d="M624.9731,569.6978 Q624.3921,569.9966 623.7529,570.146 Q623.1138,570.2954 622.4082,570.2954 Q619.9014,570.2954 618.5815,568.6436 Q617.2617,566.9917 617.2617,563.8706 Q617.2617,560.7412 618.5815,559.0894 Q619.9014,557.4375 622.4082,557.4375 Q623.1138,557.4375 623.7612,557.5869 Q624.4087,557.7363 624.9731,558.0352 L624.9731,560.7578 Q624.3423,560.1768 623.7488,559.907 Q623.1553,559.6372 622.5244,559.6372 Q621.1797,559.6372 620.4949,560.7039 Q619.8101,561.7705 619.8101,563.8706 Q619.8101,565.9624 620.4949,567.0291 Q621.1797,568.0957 622.5244,568.0957 Q623.1553,568.0957 623.7488,567.8259 Q624.3423,567.5562 624.9731,566.9751 Z " fill="#000000"/><text fill="#000000" font-family="sans-serif" font-size="14" lengthAdjust="spacing" textLength="471" x="636.5" y="568.8457">ClassExample_DOT_InnerClassExample_DOT_classInMethodExample</text><line style="stroke:#181818;stroke-width:0.5;" x1="608.5" x2="1109.5" y1="579.5547" y2="579.5547"/><line style="stroke:#181818;stroke-width:0.5;" x1="608.5" x2="1109.5" y1="587.5547" y2="587.5547"/></g></a><!--class BaseExample--><a href="Examples.BasicExample.BaseExample-diagram-detailed-grouped-per-namespace.svg" target="_top" title="Examples.BasicExample.BaseExample-diagram-detailed-grouped-per-namespace.svg" xlink:actuate="onRequest" xlink:href="Examples.BasicExample.BaseExample-diagram-detailed-grouped-per-namespace.svg" xlink:show="new" xlink:title="Examples.BasicExample.BaseExample-diagram-detailed-grouped-per-namespace.svg" xlink:type="simple"><g id="elem_BaseExample"><rect codeLine="16" fill="#FFFF00" height="80.9766" id="BaseExample" rx="2.5" ry="2.5" style="stroke:#181818;stroke-width:0.5;" width="948" x="1955" y="390.0547"/><ellipse cx="2379.75" cy="406.0547" fill="#ADD1B2" rx="11" ry="11" style="stroke:#181818;stroke-width:1.0;"/><path d="M2382.2231,412.1978 Q2381.6421,412.4966 2381.0029,412.646 Q2380.3638,412.7954 2379.6582,412.7954 Q2377.1514,412.7954 2375.8315,411.1436 Q2374.5117,409.4917 2374.5117,406.3706 Q2374.5117,403.2412 2375.8315,401.5894 Q2377.1514,399.9375 2379.6582,399.9375 Q2380.3638,399.9375 2381.0112,400.0869 Q2381.6587,400.2363 2382.2231,400.5352 L2382.2231,403.2578 Q2381.5923,402.6768 2380.9988,402.407 Q2380.4053,402.1372 2379.7744,402.1372 Q2378.4297,402.1372 2377.7449,403.2039 Q2377.0601,404.2705 2377.0601,406.3706 Q2377.0601,408.4624 2377.7449,409.5291 Q2378.4297,410.5957 2379.7744,410.5957 Q2380.4053,410.5957 2380.9988,410.3259 Q2381.5923,410.0562 2382.2231,409.4751 Z " fill="#000000"/><text fill="#000000" font-family="sans-serif" font-size="14" lengthAdjust="spacing" textLength="90" x="2400.25" y="411.3457">BaseExample</text><line style="stroke:#181818;stroke-width:0.5;" x1="1956" x2="2902" y1="422.0547" y2="422.0547"/><line style="stroke:#181818;stroke-width:0.5;" x1="1956" x2="2902" y1="430.0547" y2="430.0547"/><ellipse cx="1966" cy="443.7988" fill="#84BE84" rx="3" ry="3" style="stroke:#038048;stroke-width:1.0;"/><text fill="#000000" font-family="sans-serif" font-size="14" lengthAdjust="spacing" textLength="121" x="1975" y="447.5898">exampleAbstract(</text><text fill="#6060BB" font-family="sans-serif" font-size="14" lengthAdjust="spacing" textLength="570" x="2096" y="447.5898">useless1:Examples.BasicExample.Useless, useless2:Examples.BasicExample.Useless</text><text fill="#000000" font-family="sans-serif" font-size="14" lengthAdjust="spacing" textLength="9" x="2666" y="447.5898">):</text><text fill="#BB6060" font-family="sans-serif" font-size="14" lengthAdjust="spacing" textLength="218" x="2679" y="447.5898">Examples.BasicExample.Useless</text><ellipse cx="1966" cy="460.2871" fill="#84BE84" rx="3" ry="3" style="stroke:#038048;stroke-width:1.0;"/><text fill="#000000" font-family="sans-serif" font-size="14" lengthAdjust="spacing" textLength="101" x="1975" y="464.0781">otherExample(</text><text fill="#000000" font-family="sans-serif" font-size="14" lengthAdjust="spacing" textLength="9" x="2076" y="464.0781">):</text><text fill="#BB6060" font-family="sans-serif" font-size="14" lengthAdjust="spacing" textLength="29" x="2089" y="464.0781">void</text></g></a><!--class AbstractBaseExample--><a href="Examples.BasicExample.AbstractBaseExample-diagram-detailed-grouped-per-namespace.svg" target="_top" title="Examples.BasicExample.AbstractBaseExample-diagram-detailed-grouped-per-namespace.svg" xlink:actuate="onRequest" xlink:href="Examples.BasicExample.AbstractBaseExample-diagram-detailed-grouped-per-namespace.svg" xlink:show="new" xlink:title="Examples.BasicExample.AbstractBaseExample-diagram-detailed-grouped-per-namespace.svg" xlink:type="simple"><g id="elem_AbstractBaseExample"><rect codeLine="20" fill="#FFFF00" height="64.4883" id="AbstractBaseExample" rx="2.5" ry="2.5" style="stroke:#181818;stroke-width:0.5;" width="948" x="1973" y="174.0547"/><ellipse cx="2369.25" cy="190.0547" fill="#A9DCDF" rx="11" ry="11" style="stroke:#181818;stroke-width:1.0;"/><path d="M2369.1133,185.4028 L2367.9595,190.4746 L2370.2754,190.4746 Z M2367.6191,183.1616 L2370.6157,183.1616 L2373.9609,195.5547 L2371.5122,195.5547 L2370.7485,192.4917 L2367.4697,192.4917 L2366.7227,195.5547 L2364.2739,195.5547 Z " fill="#000000"/><text fill="#000000" font-family="sans-serif" font-size="14" font-style="italic" lengthAdjust="spacing" textLength="147" x="2389.75" y="195.3457">AbstractBaseExample</text><line style="stroke:#181818;stroke-width:0.5;" x1="1974" x2="2920" y1="206.0547" y2="206.0547"/><line style="stroke:#181818;stroke-width:0.5;" x1="1974" x2="2920" y1="214.0547" y2="214.0547"/><ellipse cx="1984" cy="227.7988" fill="#84BE84" rx="3" ry="3" style="stroke:#038048;stroke-width:1.0;"/><text fill="#000000" font-family="sans-serif" font-size="14" lengthAdjust="spacing" textLength="121" x="1993" y="231.5898">exampleAbstract(</text><text fill="#6060BB" font-family="sans-serif" font-size="14" lengthAdjust="spacing" textLength="570" x="2114" y="231.5898">useless1:Examples.BasicExample.Useless, useless2:Examples.BasicExample.Useless</text><text fill="#000000" font-family="sans-serif" font-size="14" lengthAdjust="spacing" textLength="9" x="2684" y="231.5898">):</text><text fill="#BB6060" font-family="sans-serif" font-size="14" lengthAdjust="spacing" textLength="218" x="2697" y="231.5898">Examples.BasicExample.Useless</text></g></a><!--class BaseExample_DOT_EnumTest--><a href="Examples.BasicExample.BaseExample.EnumTest-diagram-detailed-grouped-per-namespace.svg" target="_top" title="Examples.BasicExample.BaseExample.EnumTest-diagram-detailed-grouped-per-namespace.svg" xlink:actuate="onRequest" xlink:href="Examples.BasicExample.BaseExample.EnumTest-diagram-detailed-grouped-per-namespace.svg" xlink:show="new" xlink:title="Examples.BasicExample.BaseExample.EnumTest-diagram-detailed-grouped-per-namespace.svg" xlink:type="simple"><g id="elem_BaseExample_DOT_EnumTest"><rect codeLine="23" fill="#FFFF00" height="80.9766" id="BaseExample_DOT_EnumTest" rx="2.5" ry="2.5" style="stroke:#181818;stroke-width:0.5;" width="273" x="2028.5" y="531.0547"/><ellipse cx="2061.05" cy="547.0547" fill="#ADD1B2" rx="11" ry="11" style="stroke:#181818;stroke-width:1.0;"/><path d="M2063.5231,553.1978 Q2062.9421,553.4966 2062.3029,553.646 Q2061.6638,553.7954 2060.9582,553.7954 Q2058.4514,553.7954 2057.1315,552.1436 Q2055.8117,550.4917 2055.8117,547.3706 Q2055.8117,544.2412 2057.1315,542.5894 Q2058.4514,540.9375 2060.9582,540.9375 Q2061.6638,540.9375 2062.3112,541.0869 Q2062.9587,541.2363 2063.5231,541.5352 L2063.5231,544.2578 Q2062.8923,543.6768 2062.2988,543.407 Q2061.7053,543.1372 2061.0744,543.1372 Q2059.7297,543.1372 2059.0449,544.2039 Q2058.3601,545.2705 2058.3601,547.3706 Q2058.3601,549.4624 2059.0449,550.5291 Q2059.7297,551.5957 2061.0744,551.5957 Q2061.7053,551.5957 2062.2988,551.3259 Q2062.8923,551.0562 2063.5231,550.4751 Z " fill="#000000"/><text fill="#000000" font-family="sans-serif" font-size="14" lengthAdjust="spacing" textLength="202" x="2078.95" y="552.3457">BaseExample_DOT_EnumTest</text><line style="stroke:#181818;stroke-width:0.5;" x1="2029.5" x2="2300.5" y1="563.0547" y2="563.0547"/><ellipse cx="2039.5" cy="576.7988" fill="none" rx="3" ry="3" style="stroke:#038048;stroke-width:1.0;"/><text fill="#000000" font-family="sans-serif" font-size="14" lengthAdjust="spacing" textLength="247" x="2048.5" y="580.5898">EnumValue1: EnumTypePlaceHolder</text><ellipse cx="2039.5" cy="593.2871" fill="none" rx="3" ry="3" style="stroke:#038048;stroke-width:1.0;"/><text fill="#000000" font-family="sans-serif" font-size="14" lengthAdjust="spacing" textLength="247" x="2048.5" y="597.0781">EnumValue2: EnumTypePlaceHolder</text><line style="stroke:#181818;stroke-width:1.0;" x1="2029.5" x2="2300.5" y1="604.0313" y2="604.0313"/><line style="stroke:#181818;stroke-width:1.0;" x1="2029.5" x2="2300.5" y1="606.0313" y2="606.0313"/></g></a><!--class IExample--><a href="Examples.BasicExample.IExample-diagram-detailed-grouped-per-namespace.svg" target="_top" title="Examples.BasicExample.IExample-diagram-detailed-grouped-per-namespace.svg" xlink:actuate="onRequest" xlink:href="Examples.BasicExample.IExample-diagram-detailed-grouped-per-namespace.svg" xlink:show="new" xlink:title="Examples.BasicExample.IExample-diagram-detailed-grouped-per-namespace.svg" xlink:type="simple"><g id="elem_IExample"><rect codeLine="28" fill="#FFFF00" height="64.4883" id="IExample" rx="2.5" ry="2.5" style="stroke:#181818;stroke-width:0.5;" width="702" x="1218" y="398.5547"/><ellipse cx="1533.25" cy="414.5547" fill="#B4A7E5" rx="11" ry="11" style="stroke:#181818;stroke-width:1.0;"/><path d="M1529.6777,410.8198 L1529.6777,408.6616 L1537.0571,408.6616 L1537.0571,410.8198 L1534.5918,410.8198 L1534.5918,418.8965 L1537.0571,418.8965 L1537.0571,421.0547 L1529.6777,421.0547 L1529.6777,418.8965 L1532.1431,418.8965 L1532.1431,410.8198 Z " fill="#000000"/><text fill="#000000" font-family="sans-serif" font-size="14" font-style="italic" lengthAdjust="spacing" textLength="63" x="1553.75" y="419.8457">IExample</text><line style="stroke:#181818;stroke-width:0.5;" x1="1219" x2="1919" y1="430.5547" y2="430.5547"/><line style="stroke:#181818;stroke-width:0.5;" x1="1219" x2="1919" y1="438.5547" y2="438.5547"/><ellipse cx="1229" cy="452.2988" fill="#84BE84" rx="3" ry="3" style="stroke:#038048;stroke-width:1.0;"/><text fill="#000000" font-family="sans-serif" font-size="14" lengthAdjust="spacing" textLength="64" x="1238" y="456.0898">example(</text><text fill="#6060BB" font-family="sans-serif" font-size="14" lengthAdjust="spacing" textLength="570" x="1302" y="456.0898">useless1:Examples.BasicExample.Useless, useless2:Examples.BasicExample.Useless</text><text fill="#000000" font-family="sans-serif" font-size="14" lengthAdjust="spacing" textLength="9" x="1872" y="456.0898">):</text><text fill="#BB6060" font-family="sans-serif" font-size="14" lengthAdjust="spacing" textLength="29" x="1885" y="456.0898">void</text></g></a><!--class ClassExample--><a href="Examples.BasicExample.ClassExample-diagram-detailed-grouped-per-namespace.svg" target="_top" title="Examples.BasicExample.ClassExample-diagram-detailed-grouped-per-namespace.svg" xlink:actuate="onRequest" xlink:href="Examples.BasicExample.ClassExample-diagram-detailed-grouped-per-namespace.svg" xlink:show="new" xlink:title="Examples.BasicExample.ClassExample-diagram-detailed-grouped-per-namespace.svg" xlink:type="simple"><g id="elem_ClassExample"><rect codeLine="31" fill="#FFFF00" height="154.9297" id="ClassExample" rx="2.5" ry="2.5" style="stroke:#181818;stroke-width:0.5;" width="948" x="849" y="128.5547"/><ellipse cx="1271.25" cy="144.5547" fill="#ADD1B2" rx="11" ry="11" style="stroke:#181818;stroke-width:1.0;"/><path d="M1273.7231,150.6978 Q1273.1421,150.9966 1272.5029,151.146 Q1271.8638,151.2954 1271.1582,151.2954 Q1268.6514,151.2954 1267.3315,149.6436 Q1266.0117,147.9917 1266.0117,144.8706 Q1266.0117,141.7412 1267.3315,140.0894 Q1268.6514,138.4375 1271.1582,138.4375 Q1271.8638,138.4375 1272.5112,138.5869 Q1273.1587,138.7363 1273.7231,139.0352 L1273.7231,141.7578 Q1273.0923,141.1768 1272.4988,140.907 Q1271.9053,140.6372 1271.2744,140.6372 Q1269.9297,140.6372 1269.2449,141.7039 Q1268.5601,142.7705 1268.5601,144.8706 Q1268.5601,146.9624 1269.2449,148.0291 Q1269.9297,149.0957 1271.2744,149.0957 Q1271.9053,149.0957 1272.4988,148.8259 Q1273.0923,148.5562 1273.7231,147.9751 Z " fill="#000000"/><text fill="#000000" font-family="sans-serif" font-size="14" lengthAdjust="spacing" textLength="95" x="1291.75" y="149.8457">ClassExample</text><line style="stroke:#181818;stroke-width:0.5;" x1="850" x2="1796" y1="160.5547" y2="160.5547"/><ellipse cx="860" cy="174.2988" fill="none" rx="3" ry="3" style="stroke:#038048;stroke-width:1.0;"/><text fill="#000000" font-family="sans-serif" font-size="14" lengthAdjust="spacing" textLength="357" x="869" y="178.0898">memberVarUseless: Examples.BasicExample.Useless</text><ellipse cx="860" cy="190.7871" fill="none" rx="3" ry="3" style="stroke:#038048;stroke-width:1.0;"/><text fill="#000000" font-family="sans-serif" font-size="14" lengthAdjust="spacing" textLength="485" x="869" y="194.5781">memberVarEnumTest: Examples.BasicExample.BaseExample.EnumTest</text><line style="stroke:#181818;stroke-width:1.0;" x1="850" x2="1796" y1="201.5313" y2="201.5313"/><line style="stroke:#181818;stroke-width:1.0;" x1="850" x2="1796" y1="203.5313" y2="203.5313"/><ellipse cx="860" cy="215.2754" fill="#84BE84" rx="3" ry="3" style="stroke:#038048;stroke-width:1.0;"/><text fill="#000000" font-family="sans-serif" font-size="14" lengthAdjust="spacing" textLength="64" x="869" y="219.0664">example(</text><text fill="#6060BB" font-family="sans-serif" font-size="14" lengthAdjust="spacing" textLength="570" x="933" y="219.0664">useless1:Examples.BasicExample.Useless, useless2:Examples.BasicExample.Useless</text><text fill="#000000" font-family="sans-serif" font-size="14" lengthAdjust="spacing" textLength="9" x="1503" y="219.0664">):</text><text fill="#BB6060" font-family="sans-serif" font-size="14" lengthAdjust="spacing" textLength="29" x="1516" y="219.0664">void</text><rect fill="none" height="6" style="stroke:#C82930;stroke-width:1.0;" width="6" x="857" y="228.7637"/><text fill="#909090" font-family="sans-serif" font-size="14" lengthAdjust="spacing" textLength="473" x="869" y="235.5547">example.localVarBaseExample: Examples.BasicExample.BaseExample</text><line style="stroke:#181818;stroke-width:1.0;" x1="850" x2="1796" y1="242.5078" y2="242.5078"/><ellipse cx="860" cy="256.252" fill="#84BE84" rx="3" ry="3" style="stroke:#038048;stroke-width:1.0;"/><text fill="#000000" font-family="sans-serif" font-size="14" lengthAdjust="spacing" textLength="86" x="869" y="260.043">getExample(</text><text fill="#000000" font-family="sans-serif" font-size="14" lengthAdjust="spacing" textLength="9" x="955" y="260.043">):</text><text fill="#BB6060" font-family="sans-serif" font-size="14" lengthAdjust="spacing" textLength="230" x="968" y="260.043">Examples.BasicExample.IExample</text><ellipse cx="860" cy="272.7402" fill="#84BE84" rx="3" ry="3" style="stroke:#038048;stroke-width:1.0;"/><text fill="#000000" font-family="sans-serif" font-size="14" lengthAdjust="spacing" textLength="121" x="869" y="276.5313">exampleAbstract(</text><text fill="#6060BB" font-family="sans-serif" font-size="14" lengthAdjust="spacing" textLength="570" x="990" y="276.5313">useless1:Examples.BasicExample.Useless, useless2:Examples.BasicExample.Useless</text><text fill="#000000" font-family="sans-serif" font-size="14" lengthAdjust="spacing" textLength="9" x="1560" y="276.5313">):</text><text fill="#BB6060" font-family="sans-serif" font-size="14" lengthAdjust="spacing" textLength="218" x="1573" y="276.5313">Examples.BasicExample.Useless</text></g></a><!--class SideTestEnum--><a href="Examples.BasicExample.SideExample.SideTestEnum-diagram-detailed-grouped-per-namespace.svg" target="_top" title="Examples.BasicExample.SideExample.SideTestEnum-diagram-detailed-grouped-per-namespace.svg" xlink:actuate="onRequest" xlink:href="Examples.BasicExample.SideExample.SideTestEnum-diagram-detailed-grouped-per-namespace.svg" xlink:show="new" xlink:title="Examples.BasicExample.SideExample.SideTestEnum-diagram-detailed-grouped-per-namespace.svg" xlink:type="simple"><g id="elem_SideTestEnum"><rect codeLine="50" fill="#FFFF00" height="80.9766" id="SideTestEnum" rx="2.5" ry="2.5" style="stroke:#181818;stroke-width:0.5;" width="302" x="2392" y="672.0547"/><ellipse cx="2490.25" cy="688.0547" fill="#ADD1B2" rx="11" ry="11" style="stroke:#181818;stroke-width:1.0;"/><path d="M2492.7231,694.1978 Q2492.1421,694.4966 2491.5029,694.646 Q2490.8638,694.7954 2490.1582,694.7954 Q2487.6514,694.7954 2486.3315,693.1436 Q2485.0117,691.4917 2485.0117,688.3706 Q2485.0117,685.2412 2486.3315,683.5894 Q2487.6514,681.9375 2490.1582,681.9375 Q2490.8638,681.9375 2491.5112,682.0869 Q2492.1587,682.2363 2492.7231,682.5352 L2492.7231,685.2578 Q2492.0923,684.6768 2491.4988,684.407 Q2490.9053,684.1372 2490.2744,684.1372 Q2488.9297,684.1372 2488.2449,685.2039 Q2487.5601,686.2705 2487.5601,688.3706 Q2487.5601,690.4624 2488.2449,691.5291 Q2488.9297,692.5957 2490.2744,692.5957 Q2490.9053,692.5957 2491.4988,692.3259 Q2492.0923,692.0562 2492.7231,691.4751 Z " fill="#000000"/><text fill="#000000" font-family="sans-serif" font-size="14" lengthAdjust="spacing" textLength="97" x="2510.75" y="693.3457">SideTestEnum</text><line style="stroke:#181818;stroke-width:0.5;" x1="2393" x2="2693" y1="704.0547" y2="704.0547"/><ellipse cx="2403" cy="717.7988" fill="none" rx="3" ry="3" style="stroke:#038048;stroke-width:1.0;"/><text fill="#000000" font-family="sans-serif" font-size="14" lengthAdjust="spacing" textLength="276" x="2412" y="721.5898">TestEnumValue1: EnumTypePlaceHolder</text><ellipse cx="2403" cy="734.2871" fill="none" rx="3" ry="3" style="stroke:#038048;stroke-width:1.0;"/><text fill="#000000" font-family="sans-serif" font-size="14" lengthAdjust="spacing" textLength="276" x="2412" y="738.0781">TestEnumValue2: EnumTypePlaceHolder</text><line style="stroke:#181818;stroke-width:1.0;" x1="2393" x2="2693" y1="745.0313" y2="745.0313"/><line style="stroke:#181818;stroke-width:1.0;" x1="2393" x2="2693" y1="747.0313" y2="747.0313"/></g></a><!--class SideExample--><a href="Examples.BasicExample.SideExample.SideExample-diagram-detailed-grouped-per-namespace.svg" target="_top" title="Examples.BasicExample.SideExample.SideExample-diagram-detailed-grouped-per-namespace.svg" xlink:actuate="onRequest" xlink:href="Examples.BasicExample.SideExample.SideExample-diagram-detailed-grouped-per-namespace.svg" xlink:show="new" xlink:title="Examples.BasicExample.SideExample.SideExample-diagram-detailed-grouped-per-namespace.svg" xlink:type="simple"><g id="elem_SideExample"><rect codeLine="55" fill="#FFFF00" height="80.9766" id="SideExample" rx="2.5" ry="2.5" style="stroke:#181818;stroke-width:0.5;" width="522" x="2337" y="531.0547"/><ellipse cx="2549.75" cy="547.0547" fill="#ADD1B2" rx="11" ry="11" style="stroke:#181818;stroke-width:1.0;"/><path d="M2552.2231,553.1978 Q2551.6421,553.4966 2551.0029,553.646 Q2550.3638,553.7954 2549.6582,553.7954 Q2547.1514,553.7954 2545.8315,552.1436 Q2544.5117,550.4917 2544.5117,547.3706 Q2544.5117,544.2412 2545.8315,542.5894 Q2547.1514,540.9375 2549.6582,540.9375 Q2550.3638,540.9375 2551.0112,541.0869 Q2551.6587,541.2363 2552.2231,541.5352 L2552.2231,544.2578 Q2551.5923,543.6768 2550.9988,543.407 Q2550.4053,543.1372 2549.7744,543.1372 Q2548.4297,543.1372 2547.7449,544.2039 Q2547.0601,545.2705 2547.0601,547.3706 Q2547.0601,549.4624 2547.7449,550.5291 Q2548.4297,551.5957 2549.7744,551.5957 Q2550.4053,551.5957 2550.9988,551.3259 Q2551.5923,551.0562 2552.2231,550.4751 Z " fill="#000000"/><text fill="#000000" font-family="sans-serif" font-size="14" lengthAdjust="spacing" textLength="88" x="2570.25" y="552.3457">SideExample</text><line style="stroke:#181818;stroke-width:0.5;" x1="2338" x2="2858" y1="563.0547" y2="563.0547"/><line style="stroke:#181818;stroke-width:0.5;" x1="2338" x2="2858" y1="571.0547" y2="571.0547"/><ellipse cx="2348" cy="584.7988" fill="#84BE84" rx="3" ry="3" style="stroke:#038048;stroke-width:1.0;"/><text fill="#000000" font-family="sans-serif" font-size="14" lengthAdjust="spacing" textLength="30" x="2357" y="588.5898">test(</text><text fill="#6060BB" font-family="sans-serif" font-size="14" lengthAdjust="spacing" textLength="424" x="2387" y="588.5898">testEnum:Examples.BasicExample.SideExample.SideTestEnum</text><text fill="#000000" font-family="sans-serif" font-size="14" lengthAdjust="spacing" textLength="9" x="2811" y="588.5898">):</text><text fill="#BB6060" font-family="sans-serif" font-size="14" lengthAdjust="spacing" textLength="29" x="2824" y="588.5898">void</text><ellipse cx="2348" cy="601.2871" fill="#84BE84" rx="3" ry="3" style="stroke:#038048;stroke-width:1.0;"/><text fill="#000000" font-family="sans-serif" font-size="14" lengthAdjust="spacing" textLength="119" x="2357" y="605.0781">testNoParameter(</text><text fill="#000000" font-family="sans-serif" font-size="14" lengthAdjust="spacing" textLength="9" x="2476" y="605.0781">):</text><text fill="#BB6060" font-family="sans-serif" font-size="14" lengthAdjust="spacing" textLength="29" x="2489" y="605.0781">void</text></g></a><g id="elem_FloatingNote"><path d="M6,82.0547 L6,329.7129 L516,329.7129 L516,92.0547 L506,82.0547 L6,82.0547 " fill="#FEFFDD" style="stroke:#181818;stroke-width:0.5;"/><path d="M506,82.0547 L506,92.0547 L516,92.0547 L506,82.0547 " fill="#FEFFDD" style="stroke:#181818;stroke-width:1.0;"/><text fill="#000000" font-family="sans-serif" font-size="13" lengthAdjust="spacing" textLength="120" x="12" y="99.623">Your are analyzing:</text><text fill="#000000" font-family="sans-serif" font-size="13" lengthAdjust="spacing" textLength="149" x="12" y="114.9336">Examples.BasicExample</text><text fill="#000000" font-family="sans-serif" font-size="13" font-weight="bold" lengthAdjust="spacing" textLength="55" x="165" y="114.9336">detailed</text><text fill="#000000" font-family="sans-serif" font-size="13" lengthAdjust="spacing" textLength="23" x="224" y="114.9336">and</text><text fill="#000000" font-family="sans-serif" font-size="13" font-weight="bold" lengthAdjust="spacing" textLength="166" x="251" y="114.9336">grouped per namespace</text><text fill="#000000" font-family="sans-serif" font-size="13" lengthAdjust="spacing" textLength="4" x="12" y="130.2441">&#160;</text><text fill="#000000" font-family="sans-serif" font-size="13" lengthAdjust="spacing" textLength="229" x="12" y="160.8652">You can click either the namespaces</text><text fill="#000000" font-family="sans-serif" font-size="13" lengthAdjust="spacing" textLength="266" x="12" y="176.1758">or class names for filtering them and their</text><text fill="#000000" font-family="sans-serif" font-size="13" lengthAdjust="spacing" textLength="130" x="12" y="191.4863">direct dependencies.</text><text fill="#000000" font-family="sans-serif" font-size="13" lengthAdjust="spacing" textLength="4" x="12" y="206.7969">&#160;</text><line style="stroke:#181818;stroke-width:1.0;" x1="7" x2="245" y1="140.6416" y2="140.6416"/><line style="stroke:#181818;stroke-width:1.0;" x1="7" x2="245" y1="142.6416" y2="142.6416"/><text fill="#000000" font-family="sans-serif" font-size="13" lengthAdjust="spacing" textLength="32" x="245" y="145.0547">Filter</text><line style="stroke:#181818;stroke-width:1.0;" x1="277" x2="515" y1="140.6416" y2="140.6416"/><line style="stroke:#181818;stroke-width:1.0;" x1="277" x2="515" y1="142.6416" y2="142.6416"/><ellipse cx="17.5" cy="236.6602" fill="#000000" rx="2.5" ry="2.5" style="stroke:#000000;stroke-width:0.0;"/><text fill="#000000" font-family="sans-serif" font-size="13" lengthAdjust="spacing" textLength="149" x="24" y="241.418">Examples.BasicExample</text><text fill="#000000" font-family="sans-serif" font-size="13" font-weight="bold" lengthAdjust="spacing" textLength="67" x="177" y="241.418">simplified</text><text fill="#000000" font-family="sans-serif" font-size="13" lengthAdjust="spacing" textLength="23" x="248" y="241.418">and</text><text fill="#000000" font-family="sans-serif" font-size="13" font-weight="bold" lengthAdjust="spacing" textLength="166" x="275" y="241.418">grouped per namespace</text><text fill="#000000" font-family="sans-serif" font-size="13" lengthAdjust="spacing" textLength="4" x="441" y="241.418">:</text><text fill="#000000" font-family="sans-serif" font-size="13" lengthAdjust="spacing" textLength="12" x="12" y="256.7285">&#160;&#160;&#160;</text><a href="Examples.BasicExample-diagram-simplified-grouped-per-namespace.svg" target="_top" title="Examples.BasicExample-diagram-simplified-grouped-per-namespace.svg" xlink:actuate="onRequest" xlink:href="Examples.BasicExample-diagram-simplified-grouped-per-namespace.svg" xlink:show="new" xlink:title="Examples.BasicExample-diagram-simplified-grouped-per-namespace.svg" xlink:type="simple"><text fill="#0000FF" font-family="sans-serif" font-size="13" lengthAdjust="spacing" text-decoration="underline" textLength="471" x="24" y="256.7285">Examples.BasicExample-diagram-simplified-grouped-per-namespace.svg</text></a><ellipse cx="17.5" cy="267.2813" fill="#000000" rx="2.5" ry="2.5" style="stroke:#000000;stroke-width:0.0;"/><text fill="#000000" font-family="sans-serif" font-size="13" lengthAdjust="spacing" textLength="78" x="24" y="272.0391">Full diagram</text><text fill="#000000" font-family="sans-serif" font-size="13" font-weight="bold" lengthAdjust="spacing" textLength="55" x="106" y="272.0391">detailed</text><text fill="#000000" font-family="sans-serif" font-size="13" lengthAdjust="spacing" textLength="23" x="165" y="272.0391">and</text><text fill="#000000" font-family="sans-serif" font-size="13" font-weight="bold" lengthAdjust="spacing" textLength="166" x="192" y="272.0391">grouped per namespace</text><text fill="#000000" font-family="sans-serif" font-size="13" lengthAdjust="spacing" textLength="4" x="358" y="272.0391">:</text><text fill="#000000" font-family="sans-serif" font-size="13" lengthAdjust="spacing" textLength="12" x="12" y="287.3496">&#160;&#160;&#160;</text><a href="full-diagram-detailed-grouped-per-namespace.svg" target="_top" title="full-diagram-detailed-grouped-per-namespace.svg" xlink:actuate="onRequest" xlink:href="full-diagram-detailed-grouped-per-namespace.svg" xlink:show="new" xlink:title="full-diagram-detailed-grouped-per-namespace.svg" xlink:type="simple"><text fill="#0000FF" font-family="sans-serif" font-size="13" lengthAdjust="spacing" text-decoration="underline" textLength="330" x="24" y="287.3496">full-diagram-detailed-grouped-per-namespace.svg</text></a><ellipse cx="17.5" cy="297.9023" fill="#000000" rx="2.5" ry="2.5" style="stroke:#000000;stroke-width:0.0;"/><text fill="#000000" font-family="sans-serif" font-size="13" lengthAdjust="spacing" textLength="41" x="24" y="302.6602">Home:</text><text fill="#000000" font-family="sans-serif" font-size="13" lengthAdjust="spacing" textLength="12" x="12" y="317.9707">&#160;&#160;&#160;</text><a href="index.html" target="_top" title="index.html" xlink:actuate="onRequest" xlink:href="index.html" xlink:show="new" xlink:title="index.html" xlink:type="simple"><text fill="#0000FF" font-family="sans-serif" font-size="13" lengthAdjust="spacing" text-decoration="underline" textLength="68" x="24" y="317.9707">index.html</text></a><line style="stroke:#181818;stroke-width:1.0;" x1="7" x2="224" y1="221.1943" y2="221.1943"/><line style="stroke:#181818;stroke-width:1.0;" x1="7" x2="224" y1="223.1943" y2="223.1943"/><text fill="#000000" font-family="sans-serif" font-size="13" lengthAdjust="spacing" textLength="74" x="224" y="225.6074">Select other</text><line style="stroke:#181818;stroke-width:1.0;" x1="298" x2="515" y1="221.1943" y2="221.1943"/><line style="stroke:#181818;stroke-width:1.0;" x1="298" x2="515" y1="223.1943" y2="223.1943"/></g><!--reverse link ClassExample_DOT_InnerClassExample to ClassExample_DOT_InnerClassExample_DOT_classInMethodExample--><g id="link_ClassExample_DOT_InnerClassExample_ClassExample_DOT_InnerClassExample_DOT_classInMethodExample"><path codeLine="72" d="M859,478.9047 C859,478.9047 859,547.2747 859,547.2747 " fill="none" id="ClassExample_DOT_InnerClassExample-backto-ClassExample_DOT_InnerClassExample_DOT_classInMethodExample" style="stroke:#10BBBB;stroke-width:1.0;"/><ellipse cx="859" cy="471.9047" fill="#FFFFFF" rx="8" ry="8" style="stroke:#10BBBB;stroke-width:1.0;"/><line style="stroke:#10BBBB;stroke-width:1.0;" x1="859" x2="859" y1="479.9047" y2="463.9047"/><line style="stroke:#10BBBB;stroke-width:1.0;" x1="851" x2="867" y1="471.9047" y2="471.9047"/></g><!--link Useless to SideTestEnum--><g id="link_Useless_SideTestEnum"><path codeLine="74" d="M1626,612.4847 C1626,654.2747 1626,713.0547 1626,713.0547 C1626,713.0547 2385.58,713.0547 2385.58,713.0547 " fill="none" id="Useless-to-SideTestEnum" style="stroke:#909090;stroke-width:1.0;"/><polygon fill="#909090" points="2390.58,713.0547,2381.58,709.0547,2385.58,713.0547,2381.58,717.0547,2390.58,713.0547" style="stroke:#909090;stroke-width:1.0;"/><text fill="#000000" font-family="sans-serif" font-size="13" lengthAdjust="spacing" textLength="29" x="1925.5" y="709.623">uses</text></g><!--reverse link AbstractBaseExample to BaseExample--><g id="link_AbstractBaseExample_BaseExample"><path codeLine="75" d="M2438,259.2247 C2438,259.2247 2438,389.6947 2438,389.6947 " fill="none" id="AbstractBaseExample-backto-BaseExample" style="stroke:#FF0000;stroke-width:1.0;"/><polygon fill="none" points="2431,259.2247,2438,239.2247,2445,259.2247,2431,259.2247" style="stroke:#FF0000;stroke-width:1.0;"/></g><!--reverse link BaseExample to BaseExample_DOT_EnumTest--><g id="link_BaseExample_BaseExample_DOT_EnumTest"><path codeLine="76" d="M2165,487.3347 C2165,487.3347 2165,530.8647 2165,530.8647 " fill="none" id="BaseExample-backto-BaseExample_DOT_EnumTest" style="stroke:#10BBBB;stroke-width:1.0;"/><ellipse cx="2165" cy="480.3347" fill="#FFFFFF" rx="8" ry="8" style="stroke:#10BBBB;stroke-width:1.0;"/><line style="stroke:#10BBBB;stroke-width:1.0;" x1="2165" x2="2165" y1="488.3347" y2="472.3347"/><line style="stroke:#10BBBB;stroke-width:1.0;" x1="2157" x2="2173" y1="480.3347" y2="480.3347"/></g><!--link BaseExample to Useless--><g id="link_BaseExample_Useless"><path codeLine="77" d="M1991.75,471.5547 C1991.75,517.3247 1991.75,585.0547 1991.75,585.0547 C1991.75,585.0547 1886.03,585.0547 1886.03,585.0547 " fill="none" id="BaseExample-to-Useless" style="stroke:#6060BB;stroke-width:1.0;stroke-dasharray:7.0,7.0;"/><polygon fill="#6060BB" points="1881.03,585.0547,1890.03,589.0547,1886.03,585.0547,1890.03,581.0547,1881.03,585.0547" style="stroke:#6060BB;stroke-width:1.0;"/><text fill="#000000" font-family="sans-serif" font-size="13" lengthAdjust="spacing" textLength="29" x="1961.75" y="577.733">uses</text></g><!--link AbstractBaseExample to Useless--><g id="link_AbstractBaseExample_Useless"><path codeLine="78" d="M1972.52,206.0547 C1950.57,206.0547 1937.5,206.0547 1937.5,206.0547 C1937.5,206.0547 1937.5,558.0547 1937.5,558.0547 C1937.5,558.0547 1886.37,558.0547 1886.37,558.0547 " fill="none" id="AbstractBaseExample-to-Useless" style="stroke:#6060BB;stroke-width:1.0;stroke-dasharray:7.0,7.0;"/><polygon fill="#6060BB" points="1881.37,558.0547,1890.37,562.0547,1886.37,558.0547,1890.37,554.0547,1881.37,558.0547" style="stroke:#6060BB;stroke-width:1.0;"/><text fill="#000000" font-family="sans-serif" font-size="13" lengthAdjust="spacing" textLength="29" x="1907.5" y="386.683">uses</text></g><!--link IExample to Useless--><g id="link_IExample_Useless"><path codeLine="79" d="M1626,462.9047 C1626,462.9047 1626,524.7647 1626,524.7647 " fill="none" id="IExample-to-Useless" style="stroke:#6060BB;stroke-width:1.0;stroke-dasharray:7.0,7.0;"/><polygon fill="#6060BB" points="1626,529.7647,1630,520.7647,1626,524.7647,1622,520.7647,1626,529.7647" style="stroke:#6060BB;stroke-width:1.0;"/><text fill="#000000" font-family="sans-serif" font-size="13" lengthAdjust="spacing" textLength="29" x="1596" y="490.403">uses</text></g><!--reverse link BaseExample to ClassExample--><g id="link_BaseExample_ClassExample"><path codeLine="80" d="M1961,368.8047 C1961,368.8047 1961,269.0547 1961,269.0547 C1961,269.0547 1890.87,269.0547 1797.11,269.0547 " fill="none" id="BaseExample-backto-ClassExample" style="stroke:#FF0000;stroke-width:1.0;"/><polygon fill="none" points="1968,368.8047,1961,388.8047,1954,368.8047,1968,368.8047" style="stroke:#FF0000;stroke-width:1.0;"/></g><!--link ClassExample to BaseExample--><g id="link_ClassExample_BaseExample"><path codeLine="85" d="M1797.38,254.0547 C1894.11,254.0547 1967,254.0547 1967,254.0547 C1967,254.0547 1967,383.6147 1967,383.6147 " fill="none" id="ClassExample-to-BaseExample" style="stroke:#909090;stroke-width:1.0;"/><polygon fill="#909090" points="1967,388.6147,1971,379.6147,1967,383.6147,1963,379.6147,1967,388.6147" style="stroke:#909090;stroke-width:1.0;"/><text fill="#000000" font-family="sans-serif" font-size="13" lengthAdjust="spacing" textLength="29" x="1916.97" y="250.623">uses</text></g><!--reverse link ClassExample to ClassExample_DOT_InnerClassExample--><g id="link_ClassExample_ClassExample_DOT_InnerClassExample"><path codeLine="81" d="M997.5,299.9447 C997.5,299.9447 997.5,398.1447 997.5,398.1447 " fill="none" id="ClassExample-backto-ClassExample_DOT_InnerClassExample" style="stroke:#10BBBB;stroke-width:1.0;"/><ellipse cx="997.5" cy="292.9447" fill="#FFFFFF" rx="8" ry="8" style="stroke:#10BBBB;stroke-width:1.0;"/><line style="stroke:#10BBBB;stroke-width:1.0;" x1="997.5" x2="997.5" y1="300.9447" y2="284.9447"/><line style="stroke:#10BBBB;stroke-width:1.0;" x1="989.5" x2="1005.5" y1="292.9447" y2="292.9447"/></g><!--reverse link ClassExample to Useless--><g id="link_ClassExample_Useless"><path codeLine="82" d="M1194,297.6547 C1194,297.6547 1194,537.0547 1194,537.0547 C1194,537.0547 1277.8,537.0547 1371.58,537.0547 " fill="none" id="ClassExample-backto-Useless" style="stroke:#10BB10;stroke-width:1.0;"/><polygon fill="#10BB10" points="1194,284.6547,1190,290.6547,1194,296.6547,1198,290.6547,1194,284.6547" style="stroke:#10BB10;stroke-width:1.0;"/></g><!--link ClassExample to Useless--><g id="link_ClassExample_Useless"><path codeLine="84" d="M1170,283.9847 C1170,383.2447 1170,542.0547 1170,542.0547 C1170,542.0547 1365.67,542.0547 1365.67,542.0547 " fill="none" id="ClassExample-to-Useless" style="stroke:#6060BB;stroke-width:1.0;stroke-dasharray:7.0,7.0;"/><polygon fill="#6060BB" points="1370.67,542.0547,1361.67,538.0547,1365.67,542.0547,1361.67,546.0547,1370.67,542.0547" style="stroke:#6060BB;stroke-width:1.0;"/><text fill="#000000" font-family="sans-serif" font-size="13" lengthAdjust="spacing" textLength="29" x="1140" y="507.423">uses</text></g><!--link ClassExample to IExample--><g id="link_ClassExample_IExample"><path codeLine="86" d="M1507.5,283.9447 C1507.5,283.9447 1507.5,392.1447 1507.5,392.1447 " fill="none" id="ClassExample-to-IExample" style="stroke:#6060BB;stroke-width:1.0;stroke-dasharray:7.0,7.0;"/><polygon fill="#6060BB" points="1507.5,397.1447,1511.5,388.1447,1507.5,392.1447,1503.5,388.1447,1507.5,397.1447" style="stroke:#6060BB;stroke-width:1.0;"/><text fill="#000000" font-family="sans-serif" font-size="13" lengthAdjust="spacing" textLength="29" x="1477.5" y="334.613">uses</text></g><!--link SideExample to SideTestEnum--><g id="link_SideExample_SideTestEnum"><path codeLine="89" d="M2543,612.3347 C2543,612.3347 2543,665.8647 2543,665.8647 " fill="none" id="SideExample-to-SideTestEnum" style="stroke:#6060BB;stroke-width:1.0;stroke-dasharray:7.0,7.0;"/><polygon fill="#6060BB" points="2543,670.8647,2547,661.8647,2543,665.8647,2539,661.8647,2543,670.8647" style="stroke:#6060BB;stroke-width:1.0;"/><text fill="#000000" font-family="sans-serif" font-size="13" lengthAdjust="spacing" textLength="29" x="2513" y="635.673">uses</text></g><!--SRC=[vLXBRzj64BxhLmpaGrgbP6GV0eIG15HkZEXGDq2S08Kb26jo92-ot1LsAITEc__UMJuaAY95KfJR1BKDWu-PRzupEpGVkLmnpK8GN6Bqk49GEhfNdOX70c5W-1VqBlgZrvzPk19et34pt4_leDSBC69SOD3h0PC1FLXgjLvX02lK85c8PiLyxFK6BopIg2DLXD3zKwqrC8t4myJZ5owNtbIs5J6LKpaSNd4HeHuEfvA4WCya-8Bx7m5vT4_qz6_BOs0gbIO2Papo51PqluWXI2bB7SP2wOBhgGouHZ-205Se0vG-9sqJiUzGs3VA2h72Ur1cZk5qmHUysY3o2G3StXOYEG5dIugRiyLpKXo7S9mDZciUbhEPrUXgBGIaR0tycgcn8FQDr8ovIkOR5M86mCbddztxA1IpMHUOWIkXM4H-lgQaw6oODvxBcTv8BlnL0BORXYgdrXG3QUuKWhcNzbrwC__jZvlvH4hK-QTbUkomkdjipTGyUqGXrATONO3d42BLTn3ZxI7_D5We6O6lXDB3xil-o_vut1sj3MMtCUTUiRBlazU35vPtzBC7Eo3ZiONfZXuK3r8IKkHhXUzIp587fU_RUIArgzZeHkO0EBjah_hsT-CwDq8JlPRhq2knznqFC7zzaz9d8XodXjEg4ov-wYUX_ptEWtQPw1PX7H-KAWFf1giKpj6qomvCG7wzCv5cVjIcD7x9KksYLGdLuKsLZmVHmQ9kNAuiTSJ126NUgXEf0jh_QSGQv7rSmROps0vHfmZSZBYTRotA1oRMUEx5rpTqL7mhYFwD4W7gRwakYgc6mzHQBkc8jIWTqEwaAdacfyoOxo1Jcet7neU8jaU6y0xr1wPJMxp3K_jRhYm3FQYVhKcgVCynAftvgSAkK3uJP7xEl1eUs9durlubHcqQ-U7osPqQFt03VNQfGbfaQNtvTyx-y8aMIg0AYu1q2P5KLmk8DO5BeOnT7ndjMokD3rojpToix-ORbBdWnBZLz5f9X3lq6JdDxf_fPcou0VfRSCdDFGPk3dlBcpUYyxMG93EONl-8QrQ5cFpXkRGPvcYQRtc7ct7PsRsEBZiCRPgqBTyCfsfExz4UcjR9C6hcWGR1E3um-_RR9QkuPstMhwEshxhp8DFXMhsrdzIGZZWdsIqRTBSdheMohlTVzBsS5ILjhrbdX6VGg_S3JqPhLRHbfb6mY2jfQ2J7evWYlz0gt6hk4MrXT3j7VunwxjoUdLD-ZiSpvmc-C7IE-S00xkrPKZKpTrJnhGWyU-OmPO8oCh8oEQdDd57JZbuXecZx7VnD0gboItsQ8-vKV_Qe4QJIRR46_EdSNUIBqw5FJW_PA6Zv7AsHsAUfhJeb1BrKqdc_L5Bca1F15QrljR1F5xiTs1e5dezr4-WQ6a_sS4_GrFCTgTFi35P3vSfszmy0]--></g></svg>