<?xml version="1.0" encoding="us-ascii" standalone="no"?><svg xmlns="http://www.w3.org/2000/svg" xmlns:xlink="http://www.w3.org/1999/xlink" contentStyleType="text/css" height="506px" preserveAspectRatio="none" style="width:1749px;height:506px;background:#FFFFFF;" version="1.1" viewBox="0 0 1749 506" width="1749px" zoomAndPan="magnify"><defs/><g><text fill="#000000" font-family="sans-serif" font-size="20" font-weight="bold" lengthAdjust="spacing" textLength="948" x="197.5" y="29.3359">Examples.BadDesign.BasicExample.ClassExample.InnerClassExample.classInMethodExample</text><text fill="#000000" font-family="sans-serif" font-size="20" font-weight="bold" lengthAdjust="spacing" textLength="84" x="1152.5" y="29.3359">detailed</text><text fill="#000000" font-family="sans-serif" font-size="20" font-weight="bold" lengthAdjust="spacing" textLength="38" x="1243.5" y="29.3359">and</text><text fill="#000000" font-family="sans-serif" font-size="20" font-weight="bold" lengthAdjust="spacing" textLength="249" x="1288.5" y="29.3359">grouped per namespace</text><!--cluster Examples--><g id="cluster_Examples"><a href="Examples-diagram-detailed-grouped-per-namespace.svg" target="_top" title="Examples-diagram-detailed-grouped-per-namespace.svg" xlink:actuate="onRequest" xlink:href="Examples-diagram-detailed-grouped-per-namespace.svg" xlink:show="new" xlink:title="Examples-diagram-detailed-grouped-per-namespace.svg" xlink:type="simple"><path d="M966.5,50.5547 L1035.5,50.5547 A3.75,3.75 0 0 1 1038,53.0547 L1045,73.043 L1739.5,73.043 A2.5,2.5 0 0 1 1742,75.543 L1742,497.0547 A2.5,2.5 0 0 1 1739.5,499.5547 L966.5,499.5547 A2.5,2.5 0 0 1 964,497.0547 L964,53.0547 A2.5,2.5 0 0 1 966.5,50.5547 " fill="none" style="stroke:#000000;stroke-width:1.5;"/><line style="stroke:#000000;stroke-width:1.5;" x1="964" x2="1045" y1="73.043" y2="73.043"/><text fill="#000000" font-family="sans-serif" font-size="14" font-weight="bold" lengthAdjust="spacing" textLength="68" x="968" y="66.0898">Examples</text></a></g><!--cluster BadDesign--><g id="cluster_BadDesign"><a href="Examples.BadDesign-diagram-detailed-grouped-per-namespace.svg" target="_top" title="Examples.BadDesign-diagram-detailed-grouped-per-namespace.svg" xlink:actuate="onRequest" xlink:href="Examples.BadDesign-diagram-detailed-grouped-per-namespace.svg" xlink:show="new" xlink:title="Examples.BadDesign-diagram-detailed-grouped-per-namespace.svg" xlink:type="simple"><path d="M990.5,93.5547 L1067.5,93.5547 A3.75,3.75 0 0 1 1070,96.0547 L1077,116.043 L1715.5,116.043 A2.5,2.5 0 0 1 1718,118.543 L1718,473.0547 A2.5,2.5 0 0 1 1715.5,475.5547 L990.5,475.5547 A2.5,2.5 0 0 1 988,473.0547 L988,96.0547 A2.5,2.5 0 0 1 990.5,93.5547 " fill="none" style="stroke:#000000;stroke-width:1.5;"/><line style="stroke:#000000;stroke-width:1.5;" x1="988" x2="1077" y1="116.043" y2="116.043"/><text fill="#000000" font-family="sans-serif" font-size="14" font-weight="bold" lengthAdjust="spacing" textLength="76" x="992" y="109.0898">BadDesign</text></a></g><!--cluster BasicExample--><g id="cluster_BasicExample"><a href="Examples.BadDesign.BasicExample-diagram-detailed-grouped-per-namespace.svg" target="_top" title="Examples.BadDesign.BasicExample-diagram-detailed-grouped-per-namespace.svg" xlink:actuate="onRequest" xlink:href="Examples.BadDesign.BasicExample-diagram-detailed-grouped-per-namespace.svg" xlink:show="new" xlink:title="Examples.BadDesign.BasicExample-diagram-detailed-grouped-per-namespace.svg" xlink:type="simple"><path d="M1014.5,136.5547 L1112.5,136.5547 A3.75,3.75 0 0 1 1115,139.0547 L1122,159.043 L1691.5,159.043 A2.5,2.5 0 0 1 1694,161.543 L1694,449.0547 A2.5,2.5 0 0 1 1691.5,451.5547 L1014.5,451.5547 A2.5,2.5 0 0 1 1012,449.0547 L1012,139.0547 A2.5,2.5 0 0 1 1014.5,136.5547 " fill="none" style="stroke:#000000;stroke-width:1.5;"/><line style="stroke:#000000;stroke-width:1.5;" x1="1012" x2="1122" y1="159.043" y2="159.043"/><text fill="#000000" font-family="sans-serif" font-size="14" font-weight="bold" lengthAdjust="spacing" textLength="97" x="1016" y="152.0898">BasicExample</text></a></g><!--class ClassExample_DOT_InnerClassExample_DOT_classInMethodExample--><a href="Examples.BadDesign.BasicExample.ClassExample.InnerClassExample.classInMethodExample-diagram-detailed-grouped-per-namespace.svg" target="_top" title="Examples.BadDesign.BasicExample.ClassExample.InnerClassExample.classInMethodExample-diagram-detailed-grouped-per-namespace.svg" xlink:actuate="onRequest" xlink:href="Examples.BadDesign.BasicExample.ClassExample.InnerClassExample.classInMethodExample-diagram-detailed-grouped-per-namespace.svg" xlink:show="new" xlink:title="Examples.BadDesign.BasicExample.ClassExample.InnerClassExample.classInMethodExample-diagram-detailed-grouped-per-namespace.svg" xlink:type="simple"><g id="elem_ClassExample_DOT_InnerClassExample_DOT_classInMethodExample"><rect codeLine="7" fill="#FFFF00" height="48" id="ClassExample_DOT_InnerClassExample_DOT_classInMethodExample" rx="2.5" ry="2.5" style="stroke:#181818;stroke-width:0.5;" width="503" x="1101.5" y="387.5547"/><ellipse cx="1116.5" cy="403.5547" fill="#ADD1B2" rx="11" ry="11" style="stroke:#181818;stroke-width:1.0;"/><path d="M1118.9731,409.6978 Q1118.3921,409.9966 1117.7529,410.146 Q1117.1138,410.2954 1116.4082,410.2954 Q1113.9014,410.2954 1112.5815,408.6436 Q1111.2617,406.9917 1111.2617,403.8706 Q1111.2617,400.7412 1112.5815,399.0894 Q1113.9014,397.4375 1116.4082,397.4375 Q1117.1138,397.4375 1117.7612,397.5869 Q1118.4087,397.7363 1118.9731,398.0352 L1118.9731,400.7578 Q1118.3423,400.1768 1117.7488,399.907 Q1117.1553,399.6372 1116.5244,399.6372 Q1115.1797,399.6372 1114.4949,400.7039 Q1113.8101,401.7705 1113.8101,403.8706 Q1113.8101,405.9624 1114.4949,407.0291 Q1115.1797,408.0957 1116.5244,408.0957 Q1117.1553,408.0957 1117.7488,407.8259 Q1118.3423,407.5562 1118.9731,406.9751 Z " fill="#000000"/><text fill="#000000" font-family="sans-serif" font-size="14" lengthAdjust="spacing" textLength="471" x="1130.5" y="408.8457">ClassExample_DOT_InnerClassExample_DOT_classInMethodExample</text><line style="stroke:#181818;stroke-width:0.5;" x1="1102.5" x2="1603.5" y1="419.5547" y2="419.5547"/><line style="stroke:#181818;stroke-width:0.5;" x1="1102.5" x2="1603.5" y1="427.5547" y2="427.5547"/></g></a><!--class ClassExample_DOT_InnerClassExample--><a href="Examples.BadDesign.BasicExample.ClassExample.InnerClassExample-diagram-detailed-grouped-per-namespace.svg" target="_top" title="Examples.BadDesign.BasicExample.ClassExample.InnerClassExample-diagram-detailed-grouped-per-namespace.svg" xlink:actuate="onRequest" xlink:href="Examples.BadDesign.BasicExample.ClassExample.InnerClassExample-diagram-detailed-grouped-per-namespace.svg" xlink:show="new" xlink:title="Examples.BadDesign.BasicExample.ClassExample.InnerClassExample-diagram-detailed-grouped-per-namespace.svg" xlink:type="simple"><g id="elem_ClassExample_DOT_InnerClassExample"><rect codeLine="9" fill="#F1F1F1" height="64.4883" id="ClassExample_DOT_InnerClassExample" rx="2.5" ry="2.5" style="stroke:#181818;stroke-width:0.5;" width="650" x="1028" y="171.5547"/><ellipse cx="1213.75" cy="187.5547" fill="#ADD1B2" rx="11" ry="11" style="stroke:#181818;stroke-width:1.0;"/><path d="M1216.2231,193.6978 Q1215.6421,193.9966 1215.0029,194.146 Q1214.3638,194.2954 1213.6582,194.2954 Q1211.1514,194.2954 1209.8315,192.6436 Q1208.5117,190.9917 1208.5117,187.8706 Q1208.5117,184.7412 1209.8315,183.0894 Q1211.1514,181.4375 1213.6582,181.4375 Q1214.3638,181.4375 1215.0112,181.5869 Q1215.6587,181.7363 1216.2231,182.0352 L1216.2231,184.7578 Q1215.5923,184.1768 1214.9988,183.907 Q1214.4053,183.6372 1213.7744,183.6372 Q1212.4297,183.6372 1211.7449,184.7039 Q1211.0601,185.7705 1211.0601,187.8706 Q1211.0601,189.9624 1211.7449,191.0291 Q1212.4297,192.0957 1213.7744,192.0957 Q1214.4053,192.0957 1214.9988,191.8259 Q1215.5923,191.5562 1216.2231,190.9751 Z " fill="#000000"/><text fill="#000000" font-family="sans-serif" font-size="14" lengthAdjust="spacing" textLength="270" x="1234.25" y="192.8457">ClassExample_DOT_InnerClassExample</text><line style="stroke:#181818;stroke-width:0.5;" x1="1029" x2="1677" y1="203.5547" y2="203.5547"/><line style="stroke:#181818;stroke-width:0.5;" x1="1029" x2="1677" y1="211.5547" y2="211.5547"/><ellipse cx="1039" cy="225.2988" fill="#84BE84" rx="3" ry="3" style="stroke:#038048;stroke-width:1.0;"/><text fill="#000000" font-family="sans-serif" font-size="14" lengthAdjust="spacing" textLength="225" x="1048" y="229.0898">methodClassInnerClassExample(</text><text fill="#6060BB" font-family="sans-serif" font-size="14" lengthAdjust="spacing" textLength="357" x="1273" y="229.0898">useless1:Examples.BadDesign.BasicExample.Useless</text><text fill="#000000" font-family="sans-serif" font-size="14" lengthAdjust="spacing" textLength="9" x="1630" y="229.0898">):</text><text fill="#BB6060" font-family="sans-serif" font-size="14" lengthAdjust="spacing" textLength="29" x="1643" y="229.0898">void</text></g></a><g id="elem_FloatingNote"><path d="M6,79.5547 L6,327.2129 L948,327.2129 L948,89.5547 L938,79.5547 L6,79.5547 " fill="#FEFFDD" style="stroke:#181818;stroke-width:0.5;"/><path d="M938,79.5547 L938,89.5547 L948,89.5547 L938,79.5547 " fill="#FEFFDD" style="stroke:#181818;stroke-width:1.0;"/><text fill="#000000" font-family="sans-serif" font-size="13" lengthAdjust="spacing" textLength="120" x="12" y="97.123">Your are analyzing:</text><text fill="#000000" font-family="sans-serif" font-size="13" lengthAdjust="spacing" textLength="581" x="12" y="112.4336">Examples.BadDesign.BasicExample.ClassExample.InnerClassExample.classInMethodExample</text><text fill="#000000" font-family="sans-serif" font-size="13" font-weight="bold" lengthAdjust="spacing" textLength="55" x="597" y="112.4336">detailed</text><text fill="#000000" font-family="sans-serif" font-size="13" lengthAdjust="spacing" textLength="23" x="656" y="112.4336">and</text><text fill="#000000" font-family="sans-serif" font-size="13" font-weight="bold" lengthAdjust="spacing" textLength="166" x="683" y="112.4336">grouped per namespace</text><text fill="#000000" font-family="sans-serif" font-size="13" lengthAdjust="spacing" textLength="4" x="12" y="127.7441">&#160;</text><text fill="#000000" font-family="sans-serif" font-size="13" lengthAdjust="spacing" textLength="229" x="12" y="158.3652">You can click either the namespaces</text><text fill="#000000" font-family="sans-serif" font-size="13" lengthAdjust="spacing" textLength="266" x="12" y="173.6758">or class names for filtering them and their</text><text fill="#000000" font-family="sans-serif" font-size="13" lengthAdjust="spacing" textLength="130" x="12" y="188.9863">direct dependencies.</text><text fill="#000000" font-family="sans-serif" font-size="13" lengthAdjust="spacing" textLength="4" x="12" y="204.2969">&#160;</text><line style="stroke:#181818;stroke-width:1.0;" x1="7" x2="461" y1="138.1416" y2="138.1416"/><line style="stroke:#181818;stroke-width:1.0;" x1="7" x2="461" y1="140.1416" y2="140.1416"/><text fill="#000000" font-family="sans-serif" font-size="13" lengthAdjust="spacing" textLength="32" x="461" y="142.5547">Filter</text><line style="stroke:#181818;stroke-width:1.0;" x1="493" x2="947" y1="138.1416" y2="138.1416"/><line style="stroke:#181818;stroke-width:1.0;" x1="493" x2="947" y1="140.1416" y2="140.1416"/><ellipse cx="17.5" cy="234.1602" fill="#000000" rx="2.5" ry="2.5" style="stroke:#000000;stroke-width:0.0;"/><text fill="#000000" font-family="sans-serif" font-size="13" lengthAdjust="spacing" textLength="581" x="24" y="238.918">Examples.BadDesign.BasicExample.ClassExample.InnerClassExample.classInMethodExample</text><text fill="#000000" font-family="sans-serif" font-size="13" font-weight="bold" lengthAdjust="spacing" textLength="67" x="609" y="238.918">simplified</text><text fill="#000000" font-family="sans-serif" font-size="13" lengthAdjust="spacing" textLength="23" x="680" y="238.918">and</text><text fill="#000000" font-family="sans-serif" font-size="13" font-weight="bold" lengthAdjust="spacing" textLength="166" x="707" y="238.918">grouped per namespace</text><text fill="#000000" font-family="sans-serif" font-size="13" lengthAdjust="spacing" textLength="4" x="873" y="238.918">:</text><text fill="#000000" font-family="sans-serif" font-size="13" lengthAdjust="spacing" textLength="12" x="12" y="254.2285">&#160;&#160;&#160;</text><a href="Examples.BadDesign.BasicExample.ClassExample.InnerClassExample.classInMethodExample-diagram-simplified-grouped-per-namespace.svg" target="_top" title="Examples.BadDesign.BasicExample.ClassExample.InnerClassExample.classInMethodExample-diagram-simplified-grouped-per-namespace.svg" xlink:actuate="onRequest" xlink:href="Examples.BadDesign.BasicExample.ClassExample.InnerClassExample.classInMethodExample-diagram-simplified-grouped-per-namespace.svg" xlink:show="new" xlink:title="Examples.BadDesign.BasicExample.ClassExample.InnerClassExample.classInMethodExample-diagram-simplified-grouped-per-namespace.svg" xlink:type="simple"><text fill="#0000FF" font-family="sans-serif" font-size="13" lengthAdjust="spacing" text-decoration="underline" textLength="903" x="24" y="254.2285">Examples.BadDesign.BasicExample.ClassExample.InnerClassExample.classInMethodExample-diagram-simplified-grouped-per-namespace.svg</text></a><ellipse cx="17.5" cy="264.7813" fill="#000000" rx="2.5" ry="2.5" style="stroke:#000000;stroke-width:0.0;"/><text fill="#000000" font-family="sans-serif" font-size="13" lengthAdjust="spacing" textLength="78" x="24" y="269.5391">Full diagram</text><text fill="#000000" font-family="sans-serif" font-size="13" font-weight="bold" lengthAdjust="spacing" textLength="55" x="106" y="269.5391">detailed</text><text fill="#000000" font-family="sans-serif" font-size="13" lengthAdjust="spacing" textLength="23" x="165" y="269.5391">and</text><text fill="#000000" font-family="sans-serif" font-size="13" font-weight="bold" lengthAdjust="spacing" textLength="166" x="192" y="269.5391">grouped per namespace</text><text fill="#000000" font-family="sans-serif" font-size="13" lengthAdjust="spacing" textLength="4" x="358" y="269.5391">:</text><text fill="#000000" font-family="sans-serif" font-size="13" lengthAdjust="spacing" textLength="12" x="12" y="284.8496">&#160;&#160;&#160;</text><a href="full-diagram-detailed-grouped-per-namespace.svg" target="_top" title="full-diagram-detailed-grouped-per-namespace.svg" xlink:actuate="onRequest" xlink:href="full-diagram-detailed-grouped-per-namespace.svg" xlink:show="new" xlink:title="full-diagram-detailed-grouped-per-namespace.svg" xlink:type="simple"><text fill="#0000FF" font-family="sans-serif" font-size="13" lengthAdjust="spacing" text-decoration="underline" textLength="330" x="24" y="284.8496">full-diagram-detailed-grouped-per-namespace.svg</text></a><ellipse cx="17.5" cy="295.4023" fill="#000000" rx="2.5" ry="2.5" style="stroke:#000000;stroke-width:0.0;"/><text fill="#000000" font-family="sans-serif" font-size="13" lengthAdjust="spacing" textLength="41" x="24" y="300.1602">Home:</text><text fill="#000000" font-family="sans-serif" font-size="13" lengthAdjust="spacing" textLength="12" x="12" y="315.4707">&#160;&#160;&#160;</text><a href="index.html" target="_top" title="index.html" xlink:actuate="onRequest" xlink:href="index.html" xlink:show="new" xlink:title="index.html" xlink:type="simple"><text fill="#0000FF" font-family="sans-serif" font-size="13" lengthAdjust="spacing" text-decoration="underline" textLength="68" x="24" y="315.4707">index.html</text></a><line style="stroke:#181818;stroke-width:1.0;" x1="7" x2="440" y1="218.6943" y2="218.6943"/><line style="stroke:#181818;stroke-width:1.0;" x1="7" x2="440" y1="220.6943" y2="220.6943"/><text fill="#000000" font-family="sans-serif" font-size="13" lengthAdjust="spacing" textLength="74" x="440" y="223.1074">Select other</text><line style="stroke:#181818;stroke-width:1.0;" x1="514" x2="947" y1="218.6943" y2="218.6943"/><line style="stroke:#181818;stroke-width:1.0;" x1="514" x2="947" y1="220.6943" y2="220.6943"/></g><!--reverse link ClassExample_DOT_InnerClassExample to ClassExample_DOT_InnerClassExample_DOT_classInMethodExample--><g id="link_ClassExample_DOT_InnerClassExample_ClassExample_DOT_InnerClassExample_DOT_classInMethodExample"><path codeLine="25" d="M1353,252.0547 C1353,252.0547 1353,387.0847 1353,387.0847 " fill="none" id="ClassExample_DOT_InnerClassExample-backto-ClassExample_DOT_InnerClassExample_DOT_classInMethodExample" style="stroke:#10BBBB;stroke-width:1.0;"/><ellipse cx="1353" cy="245.0547" fill="#FFFFFF" rx="8" ry="8" style="stroke:#10BBBB;stroke-width:1.0;"/><line style="stroke:#10BBBB;stroke-width:1.0;" x1="1353" x2="1353" y1="253.0547" y2="237.0547"/><line style="stroke:#10BBBB;stroke-width:1.0;" x1="1345" x2="1361" y1="245.0547" y2="245.0547"/></g><!--SRC=[nLLDRnen4BtpAqRaa7QZ9QI7711mM5BK79eUsXug5Y5dTnP6yTehsn2IAl-zOrXOQ8a8AYXeXVmn7- -z6TlsWLGXZCX1aaBtL21euoQwviX9XBQbPsnzQdO_pqLUIBIDIAGtQ6ciU6GfATSRFIciNKrkbKApjPBuoQtwYXmwBHSX259qWYIcGG12fRmmDdfQO0e56b0YHrk818EWVUbnT6jAEuJwBpqr80ooZv1FpwJ6hLYzBy1OnQhJwPDqQ3gTM354I8I2H5Bo04XkmlRyL_bOY9KsiCYxN8MCvzaY15ForlaYAG_8n2ebWuc350jKAQg4cEioxNUKVaVx93vv0ASHmn8FAAFzSd0z060mE06EC2KnvduDApHXYI9a5E4QHSFEniEXLwC_bH9AjmDgkYAHiViwwyfvNyulEiTL0E9wpHiJbylXi0x2GbzguRZ6TzpEjRNpkceRmXsK5txl25P9lxCUnqomLTlzrJyqDMjP7fT3scfqy-t7w9_MMgpkRFFJDksRg9uzePJwiQJySbJY_ytlC2eb1u0Bo1U2z9Rg_1NqGplJoa6YfJQT-dNpkXb5zUxKyiLcxLLh7-AVIyFsfO_I_TY2hN1Hv0FMkpDDQMbI2dlUqpa_Vdpqtw-juP4V1s0j732971ctpg341psfhNyC1DzWXS4PwQaTsUdzQ1rd98bTA_ntMY7SOo9OFV-QbA-a9GlyPQJ8JZ1jRCIkV3Tfr5vUCIavlxA_4eUtuPplrZVzu6Is7g8_E0ObtxXQMS2vCo9nNFFCwBn2tcBRFPMj7U7uNOI3iolkxYWQXYUzn_u0]--></g></svg>