<?xml version="1.0" encoding="us-ascii" standalone="no"?><svg xmlns="http://www.w3.org/2000/svg" xmlns:xlink="http://www.w3.org/1999/xlink" contentStyleType="text/css" height="680px" preserveAspectRatio="none" style="width:1922px;height:680px;background:#FFFFFF;" version="1.1" viewBox="0 0 1922 680" width="1922px" zoomAndPan="magnify"><defs/><g><text fill="#000000" font-family="sans-serif" font-size="20" font-weight="bold" lengthAdjust="spacing" textLength="586" x="612" y="29.3359">Examples.BadDesign.BasicExample.AbstractBaseExample</text><text fill="#000000" font-family="sans-serif" font-size="20" font-weight="bold" lengthAdjust="spacing" textLength="84" x="1205" y="29.3359">detailed</text><text fill="#000000" font-family="sans-serif" font-size="20" font-weight="bold" lengthAdjust="spacing" textLength="7" x="1289" y="29.3359">&#160;</text><!--cluster Examples--><g id="cluster_Examples"><path d="M576.5,50.5547 L645.5,50.5547 A3.75,3.75 0 0 1 648,53.0547 L655,73.043 L1912.5,73.043 A2.5,2.5 0 0 1 1915,75.543 L1915,671.0547 A2.5,2.5 0 0 1 1912.5,673.5547 L576.5,673.5547 A2.5,2.5 0 0 1 574,671.0547 L574,53.0547 A2.5,2.5 0 0 1 576.5,50.5547 " fill="none" style="stroke:#000000;stroke-width:1.5;"/><line style="stroke:#000000;stroke-width:1.5;" x1="574" x2="655" y1="73.043" y2="73.043"/><text fill="#000000" font-family="sans-serif" font-size="14" font-weight="bold" lengthAdjust="spacing" textLength="68" x="578" y="66.0898">Examples</text></g><!--cluster BadDesign--><g id="cluster_BadDesign"><path d="M600.5,93.5547 L677.5,93.5547 A3.75,3.75 0 0 1 680,96.0547 L687,116.043 L1888.5,116.043 A2.5,2.5 0 0 1 1891,118.543 L1891,647.0547 A2.5,2.5 0 0 1 1888.5,649.5547 L600.5,649.5547 A2.5,2.5 0 0 1 598,647.0547 L598,96.0547 A2.5,2.5 0 0 1 600.5,93.5547 " fill="none" style="stroke:#000000;stroke-width:1.5;"/><line style="stroke:#000000;stroke-width:1.5;" x1="598" x2="687" y1="116.043" y2="116.043"/><text fill="#000000" font-family="sans-serif" font-size="14" font-weight="bold" lengthAdjust="spacing" textLength="76" x="602" y="109.0898">BadDesign</text></g><!--cluster BasicExample--><g id="cluster_BasicExample"><path d="M624.5,136.5547 L722.5,136.5547 A3.75,3.75 0 0 1 725,139.0547 L732,159.043 L1864.5,159.043 A2.5,2.5 0 0 1 1867,161.543 L1867,623.0547 A2.5,2.5 0 0 1 1864.5,625.5547 L624.5,625.5547 A2.5,2.5 0 0 1 622,623.0547 L622,139.0547 A2.5,2.5 0 0 1 624.5,136.5547 " fill="none" style="stroke:#000000;stroke-width:1.5;"/><line style="stroke:#000000;stroke-width:1.5;" x1="622" x2="732" y1="159.043" y2="159.043"/><text fill="#000000" font-family="sans-serif" font-size="14" font-weight="bold" lengthAdjust="spacing" textLength="97" x="626" y="152.0898">BasicExample</text></g><!--class AbstractBaseExample--><a href="Examples.BadDesign.BasicExample.AbstractBaseExample-diagram-detailed.svg" target="_top" title="Examples.BadDesign.BasicExample.AbstractBaseExample-diagram-detailed.svg" xlink:actuate="onRequest" xlink:href="Examples.BadDesign.BasicExample.AbstractBaseExample-diagram-detailed.svg" xlink:show="new" xlink:title="Examples.BadDesign.BasicExample.AbstractBaseExample-diagram-detailed.svg" xlink:type="simple"><g id="elem_AbstractBaseExample"><rect codeLine="4" fill="#FFFF00" height="64.4883" id="AbstractBaseExample" rx="2.5" ry="2.5" style="stroke:#181818;stroke-width:0.5;" width="1176" x="656" y="171.5547"/><ellipse cx="1166.25" cy="187.5547" fill="#A9DCDF" rx="11" ry="11" style="stroke:#181818;stroke-width:1.0;"/><path d="M1166.1133,182.9028 L1164.9595,187.9746 L1167.2754,187.9746 Z M1164.6191,180.6616 L1167.6157,180.6616 L1170.9609,193.0547 L1168.5122,193.0547 L1167.7485,189.9917 L1164.4697,189.9917 L1163.7227,193.0547 L1161.2739,193.0547 Z " fill="#000000"/><text fill="#000000" font-family="sans-serif" font-size="14" font-style="italic" lengthAdjust="spacing" textLength="147" x="1186.75" y="192.8457">AbstractBaseExample</text><line style="stroke:#181818;stroke-width:0.5;" x1="657" x2="1831" y1="203.5547" y2="203.5547"/><line style="stroke:#181818;stroke-width:0.5;" x1="657" x2="1831" y1="211.5547" y2="211.5547"/><ellipse cx="667" cy="225.2988" fill="#84BE84" rx="3" ry="3" style="stroke:#038048;stroke-width:1.0;"/><text fill="#000000" font-family="sans-serif" font-size="14" lengthAdjust="spacing" textLength="121" x="676" y="229.0898">exampleAbstract(</text><text fill="#6060BB" font-family="sans-serif" font-size="14" lengthAdjust="spacing" textLength="722" x="797" y="229.0898">useless1:Examples.BadDesign.BasicExample.Useless, useless2:Examples.BadDesign.BasicExample.Useless</text><text fill="#000000" font-family="sans-serif" font-size="14" lengthAdjust="spacing" textLength="9" x="1519" y="229.0898">):</text><text fill="#BB6060" font-family="sans-serif" font-size="14" lengthAdjust="spacing" textLength="294" x="1532" y="229.0898">Examples.BadDesign.BasicExample.Useless</text></g></a><!--class Useless--><a href="Examples.BadDesign.BasicExample.Useless-diagram-detailed.svg" target="_top" title="Examples.BadDesign.BasicExample.Useless-diagram-detailed.svg" xlink:actuate="onRequest" xlink:href="Examples.BadDesign.BasicExample.Useless-diagram-detailed.svg" xlink:show="new" xlink:title="Examples.BadDesign.BasicExample.Useless-diagram-detailed.svg" xlink:type="simple"><g id="elem_Useless"><rect codeLine="7" fill="#F1F1F1" height="80.9766" id="Useless" rx="2.5" ry="2.5" style="stroke:#181818;stroke-width:0.5;" width="584" x="804" y="528.5547"/><ellipse cx="1066.25" cy="544.5547" fill="#ADD1B2" rx="11" ry="11" style="stroke:#181818;stroke-width:1.0;"/><path d="M1068.7231,550.6978 Q1068.1421,550.9966 1067.5029,551.146 Q1066.8638,551.2954 1066.1582,551.2954 Q1063.6514,551.2954 1062.3315,549.6436 Q1061.0117,547.9917 1061.0117,544.8706 Q1061.0117,541.7412 1062.3315,540.0894 Q1063.6514,538.4375 1066.1582,538.4375 Q1066.8638,538.4375 1067.5112,538.5869 Q1068.1587,538.7363 1068.7231,539.0352 L1068.7231,541.7578 Q1068.0923,541.1768 1067.4988,540.907 Q1066.9053,540.6372 1066.2744,540.6372 Q1064.9297,540.6372 1064.2449,541.7039 Q1063.5601,542.7705 1063.5601,544.8706 Q1063.5601,546.9624 1064.2449,548.0291 Q1064.9297,549.0957 1066.2744,549.0957 Q1066.9053,549.0957 1067.4988,548.8259 Q1068.0923,548.5562 1068.7231,547.9751 Z " fill="#000000"/><text fill="#000000" font-family="sans-serif" font-size="14" lengthAdjust="spacing" textLength="51" x="1086.75" y="549.8457">Useless</text><line style="stroke:#181818;stroke-width:0.5;" x1="805" x2="1387" y1="560.5547" y2="560.5547"/><ellipse cx="815" cy="574.2988" fill="#84BE84" rx="3" ry="3" style="stroke:#038048;stroke-width:1.0;"/><text fill="#000000" font-family="sans-serif" font-size="14" lengthAdjust="spacing" textLength="55" x="824" y="578.0898">useless(</text><text fill="#000000" font-family="sans-serif" font-size="14" lengthAdjust="spacing" textLength="9" x="879" y="578.0898">):</text><text fill="#BB6060" font-family="sans-serif" font-size="14" lengthAdjust="spacing" textLength="29" x="892" y="578.0898">void</text><rect fill="none" height="6" style="stroke:#C82930;stroke-width:1.0;" width="6" x="812" y="587.7871"/><text fill="#909090" font-family="sans-serif" font-size="14" lengthAdjust="spacing" textLength="558" x="824" y="594.5781">useless.testEnum: Examples.BadDesign.BasicExample.SideExample.SideTestEnum</text><line style="stroke:#181818;stroke-width:1.0;" x1="805" x2="1387" y1="601.5313" y2="601.5313"/></g></a><!--class BaseExample--><a href="Examples.BadDesign.BasicExample.BaseExample-diagram-detailed.svg" target="_top" title="Examples.BadDesign.BasicExample.BaseExample-diagram-detailed.svg" xlink:actuate="onRequest" xlink:href="Examples.BadDesign.BasicExample.BaseExample-diagram-detailed.svg" xlink:show="new" xlink:title="Examples.BadDesign.BasicExample.BaseExample-diagram-detailed.svg" xlink:type="simple"><g id="elem_BaseExample"><rect codeLine="12" fill="#F1F1F1" height="80.9766" id="BaseExample" rx="2.5" ry="2.5" style="stroke:#181818;stroke-width:0.5;" width="1176" x="675" y="387.5547"/><ellipse cx="1213.75" cy="403.5547" fill="#ADD1B2" rx="11" ry="11" style="stroke:#181818;stroke-width:1.0;"/><path d="M1216.2231,409.6978 Q1215.6421,409.9966 1215.0029,410.146 Q1214.3638,410.2954 1213.6582,410.2954 Q1211.1514,410.2954 1209.8315,408.6436 Q1208.5117,406.9917 1208.5117,403.8706 Q1208.5117,400.7412 1209.8315,399.0894 Q1211.1514,397.4375 1213.6582,397.4375 Q1214.3638,397.4375 1215.0112,397.5869 Q1215.6587,397.7363 1216.2231,398.0352 L1216.2231,400.7578 Q1215.5923,400.1768 1214.9988,399.907 Q1214.4053,399.6372 1213.7744,399.6372 Q1212.4297,399.6372 1211.7449,400.7039 Q1211.0601,401.7705 1211.0601,403.8706 Q1211.0601,405.9624 1211.7449,407.0291 Q1212.4297,408.0957 1213.7744,408.0957 Q1214.4053,408.0957 1214.9988,407.8259 Q1215.5923,407.5562 1216.2231,406.9751 Z " fill="#000000"/><text fill="#000000" font-family="sans-serif" font-size="14" lengthAdjust="spacing" textLength="90" x="1234.25" y="408.8457">BaseExample</text><line style="stroke:#181818;stroke-width:0.5;" x1="676" x2="1850" y1="419.5547" y2="419.5547"/><line style="stroke:#181818;stroke-width:0.5;" x1="676" x2="1850" y1="427.5547" y2="427.5547"/><ellipse cx="686" cy="441.2988" fill="#84BE84" rx="3" ry="3" style="stroke:#038048;stroke-width:1.0;"/><text fill="#000000" font-family="sans-serif" font-size="14" lengthAdjust="spacing" textLength="121" x="695" y="445.0898">exampleAbstract(</text><text fill="#6060BB" font-family="sans-serif" font-size="14" lengthAdjust="spacing" textLength="722" x="816" y="445.0898">useless1:Examples.BadDesign.BasicExample.Useless, useless2:Examples.BadDesign.BasicExample.Useless</text><text fill="#000000" font-family="sans-serif" font-size="14" lengthAdjust="spacing" textLength="9" x="1538" y="445.0898">):</text><text fill="#BB6060" font-family="sans-serif" font-size="14" lengthAdjust="spacing" textLength="294" x="1551" y="445.0898">Examples.BadDesign.BasicExample.Useless</text><ellipse cx="686" cy="457.7871" fill="#84BE84" rx="3" ry="3" style="stroke:#038048;stroke-width:1.0;"/><text fill="#000000" font-family="sans-serif" font-size="14" lengthAdjust="spacing" textLength="101" x="695" y="461.5781">otherExample(</text><text fill="#000000" font-family="sans-serif" font-size="14" lengthAdjust="spacing" textLength="9" x="796" y="461.5781">):</text><text fill="#BB6060" font-family="sans-serif" font-size="14" lengthAdjust="spacing" textLength="29" x="809" y="461.5781">void</text></g></a><g id="elem_FloatingNote"><path d="M6,79.5547 L6,327.2129 L558,327.2129 L558,89.5547 L548,79.5547 L6,79.5547 " fill="#FEFFDD" style="stroke:#181818;stroke-width:0.5;"/><path d="M548,79.5547 L548,89.5547 L558,89.5547 L548,79.5547 " fill="#FEFFDD" style="stroke:#181818;stroke-width:1.0;"/><text fill="#000000" font-family="sans-serif" font-size="13" lengthAdjust="spacing" textLength="120" x="12" y="97.123">Your are analyzing:</text><text fill="#000000" font-family="sans-serif" font-size="13" lengthAdjust="spacing" textLength="357" x="12" y="112.4336">Examples.BadDesign.BasicExample.AbstractBaseExample</text><text fill="#000000" font-family="sans-serif" font-size="13" font-weight="bold" lengthAdjust="spacing" textLength="55" x="373" y="112.4336">detailed</text><text fill="#000000" font-family="sans-serif" font-size="13" lengthAdjust="spacing" textLength="4" x="428" y="112.4336">&#160;</text><text fill="#000000" font-family="sans-serif" font-size="13" lengthAdjust="spacing" textLength="4" x="12" y="127.7441">&#160;</text><text fill="#000000" font-family="sans-serif" font-size="13" lengthAdjust="spacing" textLength="229" x="12" y="158.3652">You can click either the namespaces</text><text fill="#000000" font-family="sans-serif" font-size="13" lengthAdjust="spacing" textLength="266" x="12" y="173.6758">or class names for filtering them and their</text><text fill="#000000" font-family="sans-serif" font-size="13" lengthAdjust="spacing" textLength="130" x="12" y="188.9863">direct dependencies.</text><text fill="#000000" font-family="sans-serif" font-size="13" lengthAdjust="spacing" textLength="4" x="12" y="204.2969">&#160;</text><line style="stroke:#181818;stroke-width:1.0;" x1="7" x2="266" y1="138.1416" y2="138.1416"/><line style="stroke:#181818;stroke-width:1.0;" x1="7" x2="266" y1="140.1416" y2="140.1416"/><text fill="#000000" font-family="sans-serif" font-size="13" lengthAdjust="spacing" textLength="32" x="266" y="142.5547">Filter</text><line style="stroke:#181818;stroke-width:1.0;" x1="298" x2="557" y1="138.1416" y2="138.1416"/><line style="stroke:#181818;stroke-width:1.0;" x1="298" x2="557" y1="140.1416" y2="140.1416"/><ellipse cx="17.5" cy="234.1602" fill="#000000" rx="2.5" ry="2.5" style="stroke:#000000;stroke-width:0.0;"/><text fill="#000000" font-family="sans-serif" font-size="13" lengthAdjust="spacing" textLength="357" x="24" y="238.918">Examples.BadDesign.BasicExample.AbstractBaseExample</text><text fill="#000000" font-family="sans-serif" font-size="13" font-weight="bold" lengthAdjust="spacing" textLength="67" x="385" y="238.918">simplified</text><text fill="#000000" font-family="sans-serif" font-size="13" lengthAdjust="spacing" textLength="4" x="456" y="238.918">:</text><text fill="#000000" font-family="sans-serif" font-size="13" lengthAdjust="spacing" textLength="12" x="12" y="254.2285">&#160;&#160;&#160;</text><a href="Examples.BadDesign.BasicExample.AbstractBaseExample-diagram-simplified.svg" target="_top" title="Examples.BadDesign.BasicExample.AbstractBaseExample-diagram-simplified.svg" xlink:actuate="onRequest" xlink:href="Examples.BadDesign.BasicExample.AbstractBaseExample-diagram-simplified.svg" xlink:show="new" xlink:title="Examples.BadDesign.BasicExample.AbstractBaseExample-diagram-simplified.svg" xlink:type="simple"><text fill="#0000FF" font-family="sans-serif" font-size="13" lengthAdjust="spacing" text-decoration="underline" textLength="513" x="24" y="254.2285">Examples.BadDesign.BasicExample.AbstractBaseExample-diagram-simplified.svg</text></a><ellipse cx="17.5" cy="264.7813" fill="#000000" rx="2.5" ry="2.5" style="stroke:#000000;stroke-width:0.0;"/><text fill="#000000" font-family="sans-serif" font-size="13" lengthAdjust="spacing" textLength="78" x="24" y="269.5391">Full diagram</text><text fill="#000000" font-family="sans-serif" font-size="13" font-weight="bold" lengthAdjust="spacing" textLength="55" x="106" y="269.5391">detailed</text><text fill="#000000" font-family="sans-serif" font-size="13" lengthAdjust="spacing" textLength="23" x="165" y="269.5391">and</text><text fill="#000000" font-family="sans-serif" font-size="13" font-weight="bold" lengthAdjust="spacing" textLength="166" x="192" y="269.5391">grouped per namespace</text><text fill="#000000" font-family="sans-serif" font-size="13" lengthAdjust="spacing" textLength="4" x="358" y="269.5391">:</text><text fill="#000000" font-family="sans-serif" font-size="13" lengthAdjust="spacing" textLength="12" x="12" y="284.8496">&#160;&#160;&#160;</text><a href="full-diagram-detailed-grouped-per-namespace.svg" target="_top" title="full-diagram-detailed-grouped-per-namespace.svg" xlink:actuate="onRequest" xlink:href="full-diagram-detailed-grouped-per-namespace.svg" xlink:show="new" xlink:title="full-diagram-detailed-grouped-per-namespace.svg" xlink:type="simple"><text fill="#0000FF" font-family="sans-serif" font-size="13" lengthAdjust="spacing" text-decoration="underline" textLength="330" x="24" y="284.8496">full-diagram-detailed-grouped-per-namespace.svg</text></a><ellipse cx="17.5" cy="295.4023" fill="#000000" rx="2.5" ry="2.5" style="stroke:#000000;stroke-width:0.0;"/><text fill="#000000" font-family="sans-serif" font-size="13" lengthAdjust="spacing" textLength="41" x="24" y="300.1602">Home:</text><text fill="#000000" font-family="sans-serif" font-size="13" lengthAdjust="spacing" textLength="12" x="12" y="315.4707">&#160;&#160;&#160;</text><a href="index.html" target="_top" title="index.html" xlink:actuate="onRequest" xlink:href="index.html" xlink:show="new" xlink:title="index.html" xlink:type="simple"><text fill="#0000FF" font-family="sans-serif" font-size="13" lengthAdjust="spacing" text-decoration="underline" textLength="68" x="24" y="315.4707">index.html</text></a><line style="stroke:#181818;stroke-width:1.0;" x1="7" x2="245" y1="218.6943" y2="218.6943"/><line style="stroke:#181818;stroke-width:1.0;" x1="7" x2="245" y1="220.6943" y2="220.6943"/><text fill="#000000" font-family="sans-serif" font-size="13" lengthAdjust="spacing" textLength="74" x="245" y="223.1074">Select other</text><line style="stroke:#181818;stroke-width:1.0;" x1="319" x2="557" y1="218.6943" y2="218.6943"/><line style="stroke:#181818;stroke-width:1.0;" x1="319" x2="557" y1="220.6943" y2="220.6943"/></g><!--link AbstractBaseExample to Useless--><g id="link_AbstractBaseExample_Useless"><path codeLine="21" d="M665.5,236.0347 C665.5,325.6047 665.5,569.5547 665.5,569.5547 C665.5,569.5547 797.79,569.5547 797.79,569.5547 " fill="none" id="AbstractBaseExample-to-Useless" style="stroke:#6060BB;stroke-width:1.0;stroke-dasharray:7.0,7.0;"/><polygon fill="#6060BB" points="802.79,569.5547,793.79,565.5547,797.79,569.5547,793.79,573.5547,802.79,569.5547" style="stroke:#6060BB;stroke-width:1.0;"/><text fill="#000000" font-family="sans-serif" font-size="13" lengthAdjust="spacing" textLength="29" x="635.5" y="465.503">uses</text></g><!--reverse link AbstractBaseExample to BaseExample--><g id="link_AbstractBaseExample_BaseExample"><path codeLine="22" d="M1253.5,256.7247 C1253.5,256.7247 1253.5,387.1947 1253.5,387.1947 " fill="none" id="AbstractBaseExample-backto-BaseExample" style="stroke:#FF0000;stroke-width:1.0;"/><polygon fill="none" points="1246.5,256.7247,1253.5,236.7247,1260.5,256.7247,1246.5,256.7247" style="stroke:#FF0000;stroke-width:1.0;"/></g><!--link BaseExample to Useless--><g id="link_BaseExample_Useless"><path codeLine="23" d="M1096,468.8347 C1096,468.8347 1096,522.3647 1096,522.3647 " fill="none" id="BaseExample-to-Useless" style="stroke:#6060BB;stroke-width:1.0;stroke-dasharray:7.0,7.0;"/><polygon fill="#6060BB" points="1096,527.3647,1100,518.3647,1096,522.3647,1092,518.3647,1096,527.3647" style="stroke:#6060BB;stroke-width:1.0;"/><text fill="#000000" font-family="sans-serif" font-size="13" lengthAdjust="spacing" textLength="29" x="1066" y="492.173">uses</text></g><!--SRC=[vLHDZzCm4BttLupQmq8WsRA7bOZQI1IsuiHbuO3Q74myQQrrxCXsbzs5_U-C4_TB0ZLjuKGhHQuxR-QzDvEnTqBLpB0Af53e7ci4RTnIzvnm4c5anHEcLyFive5LjKIRJ1Z_W5Oi59siAC9zykwRTOOLZYunt44KSNHCIEHH1ADBdohhAUqG-b_roW0p24mn-VWar2ATgxDhpDLSZSTJ8HsQyNYkg0eKJ44XHN47ADmI3T035AlGrgn0InXjA81Pszv2IR_B9WMnyj4LaUJ-8CnSSM6mSC2nHiLH5OBejcLlKVf_j2_YYqTmcXuhw21AqIWYLm1WDZiXLSm5Mr1Zust2nDulyjnJcwwaX12mxw7N6aKBerSrSgZ9i8rPKRIcKn9yatyDZWCe9b2y0MrhVjGLhXC8CkyXMRfAvdaVc8MfrCoHuPzeF7eK0Yme2hqvnSlpR5lBQWN0u16brD_XHyCEu1LW2rZdU34gjIAwMcepxbyFhuUJIJzRMHeBQz-aXwXyQGDVGq1STKMCBdtTx6KAUmGc4q-XdnsNfH7tt3ox-HxW7RmEaN_oTyVOuC3l3JqWzruBlgi58DuFV3lqtqrZ4eVMtQXLbHwKUYiuxfu_1-IwN1mVxTvnqzfXIl-7yVJYcYqROlxAd53NBcZlTVh0FukzWFVDt1YKj0srijJ5fdkqYakZg-qkJYdsW7UzKtPcCXkq3kP9rldbXzIFXOMJAev-nhE1GPx7nxmklMDUhRD4_G80]--></g></svg>