<?xml version="1.0" encoding="us-ascii" standalone="no"?><svg xmlns="http://www.w3.org/2000/svg" xmlns:xlink="http://www.w3.org/1999/xlink" contentStyleType="text/css" height="522px" preserveAspectRatio="none" style="width:814px;height:522px;background:#FFFFFF;" version="1.1" viewBox="0 0 814 522" width="814px" zoomAndPan="magnify"><defs/><g><text fill="#000000" font-family="sans-serif" font-size="20" font-weight="bold" lengthAdjust="spacing" textLength="491" x="95.75" y="29.3359">Examples.BadDesign.CarExample.CarParts.Seats</text><text fill="#000000" font-family="sans-serif" font-size="20" font-weight="bold" lengthAdjust="spacing" textLength="104" x="593.75" y="29.3359">simplified</text><text fill="#000000" font-family="sans-serif" font-size="20" font-weight="bold" lengthAdjust="spacing" textLength="7" x="697.75" y="29.3359">&#160;</text><!--cluster Examples--><g id="cluster_Examples"><path d="M508,50.5547 L577,50.5547 A3.75,3.75 0 0 1 579.5,53.0547 L586.5,73.043 L805,73.043 A2.5,2.5 0 0 1 807.5,75.543 L807.5,513.0547 A2.5,2.5 0 0 1 805,515.5547 L508,515.5547 A2.5,2.5 0 0 1 505.5,513.0547 L505.5,53.0547 A2.5,2.5 0 0 1 508,50.5547 " fill="none" style="stroke:#000000;stroke-width:1.5;"/><line style="stroke:#000000;stroke-width:1.5;" x1="505.5" x2="586.5" y1="73.043" y2="73.043"/><text fill="#000000" font-family="sans-serif" font-size="14" font-weight="bold" lengthAdjust="spacing" textLength="68" x="509.5" y="66.0898">Examples</text></g><!--cluster BadDesign--><g id="cluster_BadDesign"><path d="M532,93.5547 L609,93.5547 A3.75,3.75 0 0 1 611.5,96.0547 L618.5,116.043 L781,116.043 A2.5,2.5 0 0 1 783.5,118.543 L783.5,489.0547 A2.5,2.5 0 0 1 781,491.5547 L532,491.5547 A2.5,2.5 0 0 1 529.5,489.0547 L529.5,96.0547 A2.5,2.5 0 0 1 532,93.5547 " fill="none" style="stroke:#000000;stroke-width:1.5;"/><line style="stroke:#000000;stroke-width:1.5;" x1="529.5" x2="618.5" y1="116.043" y2="116.043"/><text fill="#000000" font-family="sans-serif" font-size="14" font-weight="bold" lengthAdjust="spacing" textLength="76" x="533.5" y="109.0898">BadDesign</text></g><!--cluster CarExample--><g id="cluster_CarExample"><path d="M556,136.5547 L641,136.5547 A3.75,3.75 0 0 1 643.5,139.0547 L650.5,159.043 L699,159.043 A2.5,2.5 0 0 1 701.5,161.543 L701.5,465.0547 A2.5,2.5 0 0 1 699,467.5547 L556,467.5547 A2.5,2.5 0 0 1 553.5,465.0547 L553.5,139.0547 A2.5,2.5 0 0 1 556,136.5547 " fill="none" style="stroke:#000000;stroke-width:1.5;"/><line style="stroke:#000000;stroke-width:1.5;" x1="553.5" x2="650.5" y1="159.043" y2="159.043"/><text fill="#000000" font-family="sans-serif" font-size="14" font-weight="bold" lengthAdjust="spacing" textLength="84" x="557.5" y="152.0898">CarExample</text></g><!--cluster CarParts--><g id="cluster_CarParts"><path d="M580,344.5547 L642,344.5547 A3.75,3.75 0 0 1 644.5,347.0547 L651.5,367.043 L675,367.043 A2.5,2.5 0 0 1 677.5,369.543 L677.5,441.0547 A2.5,2.5 0 0 1 675,443.5547 L580,443.5547 A2.5,2.5 0 0 1 577.5,441.0547 L577.5,347.0547 A2.5,2.5 0 0 1 580,344.5547 " fill="none" style="stroke:#000000;stroke-width:1.5;"/><line style="stroke:#000000;stroke-width:1.5;" x1="577.5" x2="651.5" y1="367.043" y2="367.043"/><text fill="#000000" font-family="sans-serif" font-size="14" font-weight="bold" lengthAdjust="spacing" textLength="61" x="581.5" y="360.0898">CarParts</text></g><!--class DB--><a href="Examples.BadDesign.DB-diagram-simplified.svg" target="_top" title="Examples.BadDesign.DB-diagram-simplified.svg" xlink:actuate="onRequest" xlink:href="Examples.BadDesign.DB-diagram-simplified.svg" xlink:show="new" xlink:title="Examples.BadDesign.DB-diagram-simplified.svg" xlink:type="simple"><g id="elem_DB"><rect codeLine="4" fill="#F1F1F1" height="48" id="DB" rx="2.5" ry="2.5" style="stroke:#181818;stroke-width:0.5;" width="50" x="717.5" y="379.5547"/><ellipse cx="732.5" cy="395.5547" fill="#ADD1B2" rx="11" ry="11" style="stroke:#181818;stroke-width:1.0;"/><path d="M734.9731,401.6978 Q734.3921,401.9966 733.7529,402.146 Q733.1138,402.2954 732.4082,402.2954 Q729.9014,402.2954 728.5815,400.6436 Q727.2617,398.9917 727.2617,395.8706 Q727.2617,392.7412 728.5815,391.0894 Q729.9014,389.4375 732.4082,389.4375 Q733.1138,389.4375 733.7612,389.5869 Q734.4087,389.7363 734.9731,390.0352 L734.9731,392.7578 Q734.3423,392.1768 733.7488,391.907 Q733.1553,391.6372 732.5244,391.6372 Q731.1797,391.6372 730.4949,392.7039 Q729.8101,393.7705 729.8101,395.8706 Q729.8101,397.9624 730.4949,399.0291 Q731.1797,400.0957 732.5244,400.0957 Q733.1553,400.0957 733.7488,399.8259 Q734.3423,399.5562 734.9731,398.9751 Z " fill="#000000"/><text fill="#000000" font-family="sans-serif" font-size="14" lengthAdjust="spacing" textLength="18" x="746.5" y="400.8457">DB</text><line style="stroke:#181818;stroke-width:0.5;" x1="718.5" x2="766.5" y1="411.5547" y2="411.5547"/><line style="stroke:#181818;stroke-width:0.5;" x1="718.5" x2="766.5" y1="419.5547" y2="419.5547"/></g></a><!--class Car--><a href="Examples.BadDesign.CarExample.Car-diagram-simplified.svg" target="_top" title="Examples.BadDesign.CarExample.Car-diagram-simplified.svg" xlink:actuate="onRequest" xlink:href="Examples.BadDesign.CarExample.Car-diagram-simplified.svg" xlink:show="new" xlink:title="Examples.BadDesign.CarExample.Car-diagram-simplified.svg" xlink:type="simple"><g id="elem_Car"><rect codeLine="6" fill="#F1F1F1" height="48" id="Car" rx="2.5" ry="2.5" style="stroke:#181818;stroke-width:0.5;" width="56" x="614.5" y="171.5547"/><ellipse cx="629.5" cy="187.5547" fill="#ADD1B2" rx="11" ry="11" style="stroke:#181818;stroke-width:1.0;"/><path d="M631.9731,193.6978 Q631.3921,193.9966 630.7529,194.146 Q630.1138,194.2954 629.4082,194.2954 Q626.9014,194.2954 625.5815,192.6436 Q624.2617,190.9917 624.2617,187.8706 Q624.2617,184.7412 625.5815,183.0894 Q626.9014,181.4375 629.4082,181.4375 Q630.1138,181.4375 630.7612,181.5869 Q631.4087,181.7363 631.9731,182.0352 L631.9731,184.7578 Q631.3423,184.1768 630.7488,183.907 Q630.1553,183.6372 629.5244,183.6372 Q628.1797,183.6372 627.4949,184.7039 Q626.8101,185.7705 626.8101,187.8706 Q626.8101,189.9624 627.4949,191.0291 Q628.1797,192.0957 629.5244,192.0957 Q630.1553,192.0957 630.7488,191.8259 Q631.3423,191.5562 631.9731,190.9751 Z " fill="#000000"/><text fill="#000000" font-family="sans-serif" font-size="14" lengthAdjust="spacing" textLength="24" x="643.5" y="192.8457">Car</text><line style="stroke:#181818;stroke-width:0.5;" x1="615.5" x2="669.5" y1="203.5547" y2="203.5547"/><line style="stroke:#181818;stroke-width:0.5;" x1="615.5" x2="669.5" y1="211.5547" y2="211.5547"/></g></a><!--class Seats--><a href="Examples.BadDesign.CarExample.CarParts.Seats-diagram-simplified.svg" target="_top" title="Examples.BadDesign.CarExample.CarParts.Seats-diagram-simplified.svg" xlink:actuate="onRequest" xlink:href="Examples.BadDesign.CarExample.CarParts.Seats-diagram-simplified.svg" xlink:show="new" xlink:title="Examples.BadDesign.CarExample.CarParts.Seats-diagram-simplified.svg" xlink:type="simple"><g id="elem_Seats"><rect codeLine="8" fill="#FFFF00" height="48" id="Seats" rx="2.5" ry="2.5" style="stroke:#181818;stroke-width:0.5;" width="68" x="593.5" y="379.5547"/><ellipse cx="608.5" cy="395.5547" fill="#ADD1B2" rx="11" ry="11" style="stroke:#181818;stroke-width:1.0;"/><path d="M610.9731,401.6978 Q610.3921,401.9966 609.7529,402.146 Q609.1138,402.2954 608.4082,402.2954 Q605.9014,402.2954 604.5815,400.6436 Q603.2617,398.9917 603.2617,395.8706 Q603.2617,392.7412 604.5815,391.0894 Q605.9014,389.4375 608.4082,389.4375 Q609.1138,389.4375 609.7612,389.5869 Q610.4087,389.7363 610.9731,390.0352 L610.9731,392.7578 Q610.3423,392.1768 609.7488,391.907 Q609.1553,391.6372 608.5244,391.6372 Q607.1797,391.6372 606.4949,392.7039 Q605.8101,393.7705 605.8101,395.8706 Q605.8101,397.9624 606.4949,399.0291 Q607.1797,400.0957 608.5244,400.0957 Q609.1553,400.0957 609.7488,399.8259 Q610.3423,399.5562 610.9731,398.9751 Z " fill="#000000"/><text fill="#000000" font-family="sans-serif" font-size="14" lengthAdjust="spacing" textLength="36" x="622.5" y="400.8457">Seats</text><line style="stroke:#181818;stroke-width:0.5;" x1="594.5" x2="660.5" y1="411.5547" y2="411.5547"/><line style="stroke:#181818;stroke-width:0.5;" x1="594.5" x2="660.5" y1="419.5547" y2="419.5547"/></g></a><g id="elem_FloatingNote"><path d="M6,71.5547 L6,319.2129 L489,319.2129 L489,81.5547 L479,71.5547 L6,71.5547 " fill="#FEFFDD" style="stroke:#181818;stroke-width:0.5;"/><path d="M479,71.5547 L479,81.5547 L489,81.5547 L479,71.5547 " fill="#FEFFDD" style="stroke:#181818;stroke-width:1.0;"/><text fill="#000000" font-family="sans-serif" font-size="13" lengthAdjust="spacing" textLength="120" x="12" y="89.123">Your are analyzing:</text><text fill="#000000" font-family="sans-serif" font-size="13" lengthAdjust="spacing" textLength="301" x="12" y="104.4336">Examples.BadDesign.CarExample.CarParts.Seats</text><text fill="#000000" font-family="sans-serif" font-size="13" font-weight="bold" lengthAdjust="spacing" textLength="67" x="317" y="104.4336">simplified</text><text fill="#000000" font-family="sans-serif" font-size="13" lengthAdjust="spacing" textLength="4" x="384" y="104.4336">&#160;</text><text fill="#000000" font-family="sans-serif" font-size="13" lengthAdjust="spacing" textLength="4" x="12" y="119.7441">&#160;</text><text fill="#000000" font-family="sans-serif" font-size="13" lengthAdjust="spacing" textLength="229" x="12" y="150.3652">You can click either the namespaces</text><text fill="#000000" font-family="sans-serif" font-size="13" lengthAdjust="spacing" textLength="266" x="12" y="165.6758">or class names for filtering them and their</text><text fill="#000000" font-family="sans-serif" font-size="13" lengthAdjust="spacing" textLength="130" x="12" y="180.9863">direct dependencies.</text><text fill="#000000" font-family="sans-serif" font-size="13" lengthAdjust="spacing" textLength="4" x="12" y="196.2969">&#160;</text><line style="stroke:#181818;stroke-width:1.0;" x1="7" x2="231.5" y1="130.1416" y2="130.1416"/><line style="stroke:#181818;stroke-width:1.0;" x1="7" x2="231.5" y1="132.1416" y2="132.1416"/><text fill="#000000" font-family="sans-serif" font-size="13" lengthAdjust="spacing" textLength="32" x="231.5" y="134.5547">Filter</text><line style="stroke:#181818;stroke-width:1.0;" x1="263.5" x2="488" y1="130.1416" y2="130.1416"/><line style="stroke:#181818;stroke-width:1.0;" x1="263.5" x2="488" y1="132.1416" y2="132.1416"/><ellipse cx="17.5" cy="226.1602" fill="#000000" rx="2.5" ry="2.5" style="stroke:#000000;stroke-width:0.0;"/><text fill="#000000" font-family="sans-serif" font-size="13" lengthAdjust="spacing" textLength="301" x="24" y="230.918">Examples.BadDesign.CarExample.CarParts.Seats</text><text fill="#000000" font-family="sans-serif" font-size="13" font-weight="bold" lengthAdjust="spacing" textLength="55" x="329" y="230.918">detailed</text><text fill="#000000" font-family="sans-serif" font-size="13" lengthAdjust="spacing" textLength="4" x="388" y="230.918">:</text><text fill="#000000" font-family="sans-serif" font-size="13" lengthAdjust="spacing" textLength="12" x="12" y="246.2285">&#160;&#160;&#160;</text><a href="Examples.BadDesign.CarExample.CarParts.Seats-diagram-detailed.svg" target="_top" title="Examples.BadDesign.CarExample.CarParts.Seats-diagram-detailed.svg" xlink:actuate="onRequest" xlink:href="Examples.BadDesign.CarExample.CarParts.Seats-diagram-detailed.svg" xlink:show="new" xlink:title="Examples.BadDesign.CarExample.CarParts.Seats-diagram-detailed.svg" xlink:type="simple"><text fill="#0000FF" font-family="sans-serif" font-size="13" lengthAdjust="spacing" text-decoration="underline" textLength="444" x="24" y="246.2285">Examples.BadDesign.CarExample.CarParts.Seats-diagram-detailed.svg</text></a><ellipse cx="17.5" cy="256.7813" fill="#000000" rx="2.5" ry="2.5" style="stroke:#000000;stroke-width:0.0;"/><text fill="#000000" font-family="sans-serif" font-size="13" lengthAdjust="spacing" textLength="78" x="24" y="261.5391">Full diagram</text><text fill="#000000" font-family="sans-serif" font-size="13" font-weight="bold" lengthAdjust="spacing" textLength="67" x="106" y="261.5391">simplified</text><text fill="#000000" font-family="sans-serif" font-size="13" lengthAdjust="spacing" textLength="23" x="177" y="261.5391">and</text><text fill="#000000" font-family="sans-serif" font-size="13" font-weight="bold" lengthAdjust="spacing" textLength="166" x="204" y="261.5391">grouped per namespace</text><text fill="#000000" font-family="sans-serif" font-size="13" lengthAdjust="spacing" textLength="4" x="370" y="261.5391">:</text><text fill="#000000" font-family="sans-serif" font-size="13" lengthAdjust="spacing" textLength="12" x="12" y="276.8496">&#160;&#160;&#160;</text><a href="full-diagram-simplified-grouped-per-namespace.svg" target="_top" title="full-diagram-simplified-grouped-per-namespace.svg" xlink:actuate="onRequest" xlink:href="full-diagram-simplified-grouped-per-namespace.svg" xlink:show="new" xlink:title="full-diagram-simplified-grouped-per-namespace.svg" xlink:type="simple"><text fill="#0000FF" font-family="sans-serif" font-size="13" lengthAdjust="spacing" text-decoration="underline" textLength="343" x="24" y="276.8496">full-diagram-simplified-grouped-per-namespace.svg</text></a><ellipse cx="17.5" cy="287.4023" fill="#000000" rx="2.5" ry="2.5" style="stroke:#000000;stroke-width:0.0;"/><text fill="#000000" font-family="sans-serif" font-size="13" lengthAdjust="spacing" textLength="41" x="24" y="292.1602">Home:</text><text fill="#000000" font-family="sans-serif" font-size="13" lengthAdjust="spacing" textLength="12" x="12" y="307.4707">&#160;&#160;&#160;</text><a href="index.html" target="_top" title="index.html" xlink:actuate="onRequest" xlink:href="index.html" xlink:show="new" xlink:title="index.html" xlink:type="simple"><text fill="#0000FF" font-family="sans-serif" font-size="13" lengthAdjust="spacing" text-decoration="underline" textLength="68" x="24" y="307.4707">index.html</text></a><line style="stroke:#181818;stroke-width:1.0;" x1="7" x2="210.5" y1="210.6943" y2="210.6943"/><line style="stroke:#181818;stroke-width:1.0;" x1="7" x2="210.5" y1="212.6943" y2="212.6943"/><text fill="#000000" font-family="sans-serif" font-size="13" lengthAdjust="spacing" textLength="74" x="210.5" y="215.1074">Select other</text><line style="stroke:#181818;stroke-width:1.0;" x1="284.5" x2="488" y1="210.6943" y2="210.6943"/><line style="stroke:#181818;stroke-width:1.0;" x1="284.5" x2="488" y1="212.6943" y2="212.6943"/></g><!--link DB to Car--><g id="link_DB_Car"><path codeLine="15" d="M717.11,389.5547 C695.35,389.5547 667.5,389.5547 667.5,389.5547 C667.5,389.5547 667.5,225.7347 667.5,225.7347 " fill="none" id="DB-to-Car" style="stroke:#6060BB;stroke-width:1.0;stroke-dasharray:7.0,7.0;"/><polygon fill="#6060BB" points="667.5,220.7347,663.5,229.7347,667.5,225.7347,671.5,229.7347,667.5,220.7347" style="stroke:#6060BB;stroke-width:1.0;"/><text fill="#000000" font-family="sans-serif" font-size="13" lengthAdjust="spacing" textLength="29" x="637.5" y="329.013">uses</text></g><!--reverse link Car to DB--><g id="link_Car_DB"><path codeLine="19" d="M664.5,233.7547 C664.5,233.7547 664.5,399.5547 664.5,399.5547 C664.5,399.5547 694.59,399.5547 717.39,399.5547 " fill="none" id="Car-backto-DB" style="stroke:#10BB10;stroke-width:1.0;"/><polygon fill="#10BB10" points="664.5,220.7547,660.5,226.7547,664.5,232.7547,668.5,226.7547,664.5,220.7547" style="stroke:#10BB10;stroke-width:1.0;"/></g><!--link DB to Seats--><g id="link_DB_Seats"><path codeLine="16" d="M717.26,408.5547 C717.26,408.5547 667.84,408.5547 667.84,408.5547 " fill="none" id="DB-to-Seats" style="stroke:#6060BB;stroke-width:1.0;stroke-dasharray:7.0,7.0;"/><polygon fill="#6060BB" points="662.84,408.5547,671.84,412.5547,667.84,408.5547,671.84,404.5547,662.84,408.5547" style="stroke:#6060BB;stroke-width:1.0;"/><text fill="#000000" font-family="sans-serif" font-size="13" lengthAdjust="spacing" textLength="29" x="662.55" y="405.123">uses</text></g><!--reverse link Seats to DB--><g id="link_Seats_DB"><path codeLine="23" d="M675.69,418.5547 C675.69,418.5547 717.02,418.5547 717.02,418.5547 " fill="none" id="Seats-backto-DB" style="stroke:#10BB10;stroke-width:1.0;"/><polygon fill="#10BB10" points="662.69,418.5547,668.69,422.5547,674.69,418.5547,668.69,414.5547,662.69,418.5547" style="stroke:#10BB10;stroke-width:1.0;"/></g><!--link Car to Seats--><g id="link_Car_Seats"><path codeLine="20" d="M638,219.8247 C638,219.8247 638,373.1247 638,373.1247 " fill="none" id="Car-to-Seats" style="stroke:#909090;stroke-width:1.0;"/><polygon fill="#909090" points="638,378.1247,642,369.1247,638,373.1247,634,369.1247,638,378.1247" style="stroke:#909090;stroke-width:1.0;"/><text fill="#000000" font-family="sans-serif" font-size="13" lengthAdjust="spacing" textLength="29" x="608" y="293.043">uses</text></g><!--SRC=[pLJ1Zfim4Btp5QFDOILBKBQ7bHfjSc3JgAUgqfwgmC720x7MsCXsscIh_dl72I7PRjgGRYiL13AsvxqtRyQuHwbRRda3IchqcnR1MByqaPTU8Tmv-OJZj-dq_PethKANP5pCqCbQ9_VSThDX-8bRxv87vDu1OqxIlAma2iRWxar0cKRQU8IhpsPbWLi4hhdQF4bTZtFz6lXSvteocKlbqKuckIO2ABc6Kido4L3w9LgW5sZUe6jvYOvYZAKDtBdTB5JqNMqXI53OtP0-4GRIvbf8YwK7WIrgWRgKf7H7-u0gh9X04iWPN9YAGC-bsYP2FW30Od49GYmahwbyyHudSL_geWX2vYkbe5l-sREG6sErDQiM1RHaK6yEOtiT5G7q-8Vmk0kBAIpkmmwy7qo3UmX9TgsJfMzKKLm1Tp1NXdko-2FrGWHT2KuaFCjE6p7BJYZQSGDy8yJlzFm6zxcHGym-mxTd7CnvNFu_hFKB9QCDAcM-TeAsagwfleCk-6Txh-5-Qub5HJKtsW6klUMbfvQhh6aEFJUclI-TY4xtHR8OtQQtQPOLoNH0YM4CAqSd_A-W7HUl1tvjdaSSqVbyMBmOtP3UcxI8Vt5o1g0GoBiqt4Ny7wJTSqIN_JtFM_43]--></g></svg>