<?xml version="1.0" encoding="us-ascii" standalone="no"?><svg xmlns="http://www.w3.org/2000/svg" xmlns:xlink="http://www.w3.org/1999/xlink" contentStyleType="text/css" height="606px" preserveAspectRatio="none" style="width:1480px;height:606px;background:#FFFFFF;" version="1.1" viewBox="0 0 1480 606" width="1480px" zoomAndPan="magnify"><defs/><g><text fill="#000000" font-family="sans-serif" font-size="20" font-weight="bold" lengthAdjust="spacing" textLength="768" x="143.25" y="29.3359">Examples.BadDesign.BasicExample.ClassExample_DOT_InnerClassExample</text><text fill="#000000" font-family="sans-serif" font-size="20" font-weight="bold" lengthAdjust="spacing" textLength="104" x="918.25" y="29.3359">simplified</text><text fill="#000000" font-family="sans-serif" font-size="20" font-weight="bold" lengthAdjust="spacing" textLength="38" x="1029.25" y="29.3359">and</text><text fill="#000000" font-family="sans-serif" font-size="20" font-weight="bold" lengthAdjust="spacing" textLength="249" x="1074.25" y="29.3359">grouped per namespace</text><!--cluster Examples--><g id="cluster_Examples"><a href="Examples-diagram-simplified-grouped-per-namespace.svg" target="_top" title="Examples-diagram-simplified-grouped-per-namespace.svg" xlink:actuate="onRequest" xlink:href="Examples-diagram-simplified-grouped-per-namespace.svg" xlink:show="new" xlink:title="Examples-diagram-simplified-grouped-per-namespace.svg" xlink:type="simple"><path d="M844,50.5547 L913,50.5547 A3.75,3.75 0 0 1 915.5,53.0547 L922.5,73.043 L1471,73.043 A2.5,2.5 0 0 1 1473.5,75.543 L1473.5,597.0547 A2.5,2.5 0 0 1 1471,599.5547 L844,599.5547 A2.5,2.5 0 0 1 841.5,597.0547 L841.5,53.0547 A2.5,2.5 0 0 1 844,50.5547 " fill="none" style="stroke:#000000;stroke-width:1.5;"/><line style="stroke:#000000;stroke-width:1.5;" x1="841.5" x2="922.5" y1="73.043" y2="73.043"/><text fill="#000000" font-family="sans-serif" font-size="14" font-weight="bold" lengthAdjust="spacing" textLength="68" x="845.5" y="66.0898">Examples</text></a></g><!--cluster BadDesign--><g id="cluster_BadDesign"><a href="Examples.BadDesign-diagram-simplified-grouped-per-namespace.svg" target="_top" title="Examples.BadDesign-diagram-simplified-grouped-per-namespace.svg" xlink:actuate="onRequest" xlink:href="Examples.BadDesign-diagram-simplified-grouped-per-namespace.svg" xlink:show="new" xlink:title="Examples.BadDesign-diagram-simplified-grouped-per-namespace.svg" xlink:type="simple"><path d="M868,93.5547 L945,93.5547 A3.75,3.75 0 0 1 947.5,96.0547 L954.5,116.043 L1447,116.043 A2.5,2.5 0 0 1 1449.5,118.543 L1449.5,573.0547 A2.5,2.5 0 0 1 1447,575.5547 L868,575.5547 A2.5,2.5 0 0 1 865.5,573.0547 L865.5,96.0547 A2.5,2.5 0 0 1 868,93.5547 " fill="none" style="stroke:#000000;stroke-width:1.5;"/><line style="stroke:#000000;stroke-width:1.5;" x1="865.5" x2="954.5" y1="116.043" y2="116.043"/><text fill="#000000" font-family="sans-serif" font-size="14" font-weight="bold" lengthAdjust="spacing" textLength="76" x="869.5" y="109.0898">BadDesign</text></a></g><!--cluster BasicExample--><g id="cluster_BasicExample"><a href="Examples.BadDesign.BasicExample-diagram-simplified-grouped-per-namespace.svg" target="_top" title="Examples.BadDesign.BasicExample-diagram-simplified-grouped-per-namespace.svg" xlink:actuate="onRequest" xlink:href="Examples.BadDesign.BasicExample-diagram-simplified-grouped-per-namespace.svg" xlink:show="new" xlink:title="Examples.BadDesign.BasicExample-diagram-simplified-grouped-per-namespace.svg" xlink:type="simple"><path d="M892,136.5547 L990,136.5547 A3.75,3.75 0 0 1 992.5,139.0547 L999.5,159.043 L1423,159.043 A2.5,2.5 0 0 1 1425.5,161.543 L1425.5,549.0547 A2.5,2.5 0 0 1 1423,551.5547 L892,551.5547 A2.5,2.5 0 0 1 889.5,549.0547 L889.5,139.0547 A2.5,2.5 0 0 1 892,136.5547 " fill="none" style="stroke:#000000;stroke-width:1.5;"/><line style="stroke:#000000;stroke-width:1.5;" x1="889.5" x2="999.5" y1="159.043" y2="159.043"/><text fill="#000000" font-family="sans-serif" font-size="14" font-weight="bold" lengthAdjust="spacing" textLength="97" x="893.5" y="152.0898">BasicExample</text></a></g><!--class ClassExample_DOT_InnerClassExample--><a href="Examples.BadDesign.BasicExample.ClassExample_DOT_InnerClassExample-diagram-simplified-grouped-per-namespace.svg" target="_top" title="Examples.BadDesign.BasicExample.ClassExample_DOT_InnerClassExample-diagram-simplified-grouped-per-namespace.svg" xlink:actuate="onRequest" xlink:href="Examples.BadDesign.BasicExample.ClassExample_DOT_InnerClassExample-diagram-simplified-grouped-per-namespace.svg" xlink:show="new" xlink:title="Examples.BadDesign.BasicExample.ClassExample_DOT_InnerClassExample-diagram-simplified-grouped-per-namespace.svg" xlink:type="simple"><g id="elem_ClassExample_DOT_InnerClassExample"><rect codeLine="7" fill="#FFFF00" height="48" id="ClassExample_DOT_InnerClassExample" rx="2.5" ry="2.5" style="stroke:#181818;stroke-width:0.5;" width="302" x="1006.5" y="379.5547"/><ellipse cx="1021.5" cy="395.5547" fill="#ADD1B2" rx="11" ry="11" style="stroke:#181818;stroke-width:1.0;"/><path d="M1023.9731,401.6978 Q1023.3921,401.9966 1022.7529,402.146 Q1022.1138,402.2954 1021.4082,402.2954 Q1018.9014,402.2954 1017.5815,400.6436 Q1016.2617,398.9917 1016.2617,395.8706 Q1016.2617,392.7412 1017.5815,391.0894 Q1018.9014,389.4375 1021.4082,389.4375 Q1022.1138,389.4375 1022.7612,389.5869 Q1023.4087,389.7363 1023.9731,390.0352 L1023.9731,392.7578 Q1023.3423,392.1768 1022.7488,391.907 Q1022.1553,391.6372 1021.5244,391.6372 Q1020.1797,391.6372 1019.4949,392.7039 Q1018.8101,393.7705 1018.8101,395.8706 Q1018.8101,397.9624 1019.4949,399.0291 Q1020.1797,400.0957 1021.5244,400.0957 Q1022.1553,400.0957 1022.7488,399.8259 Q1023.3423,399.5562 1023.9731,398.9751 Z " fill="#000000"/><text fill="#000000" font-family="sans-serif" font-size="14" lengthAdjust="spacing" textLength="270" x="1035.5" y="400.8457">ClassExample_DOT_InnerClassExample</text><line style="stroke:#181818;stroke-width:0.5;" x1="1007.5" x2="1307.5" y1="411.5547" y2="411.5547"/><line style="stroke:#181818;stroke-width:0.5;" x1="1007.5" x2="1307.5" y1="419.5547" y2="419.5547"/></g></a><!--class ClassExample_DOT_InnerClassExample_DOT_classInMethodExample--><a href="Examples.BadDesign.BasicExample.ClassExample_DOT_InnerClassExample_DOT_classInMethodExample-diagram-simplified-grouped-per-namespace.svg" target="_top" title="Examples.BadDesign.BasicExample.ClassExample_DOT_InnerClassExample_DOT_classInMethodExample-diagram-simplified-grouped-per-namespace.svg" xlink:actuate="onRequest" xlink:href="Examples.BadDesign.BasicExample.ClassExample_DOT_InnerClassExample_DOT_classInMethodExample-diagram-simplified-grouped-per-namespace.svg" xlink:show="new" xlink:title="Examples.BadDesign.BasicExample.ClassExample_DOT_InnerClassExample_DOT_classInMethodExample-diagram-simplified-grouped-per-namespace.svg" xlink:type="simple"><g id="elem_ClassExample_DOT_InnerClassExample_DOT_classInMethodExample"><rect codeLine="9" fill="#F1F1F1" height="48" id="ClassExample_DOT_InnerClassExample_DOT_classInMethodExample" rx="2.5" ry="2.5" style="stroke:#181818;stroke-width:0.5;" width="503" x="906" y="487.5547"/><ellipse cx="921" cy="503.5547" fill="#ADD1B2" rx="11" ry="11" style="stroke:#181818;stroke-width:1.0;"/><path d="M923.4731,509.6978 Q922.8921,509.9966 922.2529,510.146 Q921.6138,510.2954 920.9082,510.2954 Q918.4014,510.2954 917.0815,508.6436 Q915.7617,506.9917 915.7617,503.8706 Q915.7617,500.7412 917.0815,499.0894 Q918.4014,497.4375 920.9082,497.4375 Q921.6138,497.4375 922.2612,497.5869 Q922.9087,497.7363 923.4731,498.0352 L923.4731,500.7578 Q922.8423,500.1768 922.2488,499.907 Q921.6553,499.6372 921.0244,499.6372 Q919.6797,499.6372 918.9949,500.7039 Q918.3101,501.7705 918.3101,503.8706 Q918.3101,505.9624 918.9949,507.0291 Q919.6797,508.0957 921.0244,508.0957 Q921.6553,508.0957 922.2488,507.8259 Q922.8423,507.5562 923.4731,506.9751 Z " fill="#000000"/><text fill="#000000" font-family="sans-serif" font-size="14" lengthAdjust="spacing" textLength="471" x="935" y="508.8457">ClassExample_DOT_InnerClassExample_DOT_classInMethodExample</text><line style="stroke:#181818;stroke-width:0.5;" x1="907" x2="1408" y1="519.5547" y2="519.5547"/><line style="stroke:#181818;stroke-width:0.5;" x1="907" x2="1408" y1="527.5547" y2="527.5547"/></g></a><!--class ClassExample--><a href="Examples.BadDesign.BasicExample.ClassExample-diagram-simplified-grouped-per-namespace.svg" target="_top" title="Examples.BadDesign.BasicExample.ClassExample-diagram-simplified-grouped-per-namespace.svg" xlink:actuate="onRequest" xlink:href="Examples.BadDesign.BasicExample.ClassExample-diagram-simplified-grouped-per-namespace.svg" xlink:show="new" xlink:title="Examples.BadDesign.BasicExample.ClassExample-diagram-simplified-grouped-per-namespace.svg" xlink:type="simple"><g id="elem_ClassExample"><rect codeLine="11" fill="#F1F1F1" height="48" id="ClassExample" rx="2.5" ry="2.5" style="stroke:#181818;stroke-width:0.5;" width="127" x="1094" y="171.5547"/><ellipse cx="1109" cy="187.5547" fill="#ADD1B2" rx="11" ry="11" style="stroke:#181818;stroke-width:1.0;"/><path d="M1111.4731,193.6978 Q1110.8921,193.9966 1110.2529,194.146 Q1109.6138,194.2954 1108.9082,194.2954 Q1106.4014,194.2954 1105.0815,192.6436 Q1103.7617,190.9917 1103.7617,187.8706 Q1103.7617,184.7412 1105.0815,183.0894 Q1106.4014,181.4375 1108.9082,181.4375 Q1109.6138,181.4375 1110.2612,181.5869 Q1110.9087,181.7363 1111.4731,182.0352 L1111.4731,184.7578 Q1110.8423,184.1768 1110.2488,183.907 Q1109.6553,183.6372 1109.0244,183.6372 Q1107.6797,183.6372 1106.9949,184.7039 Q1106.3101,185.7705 1106.3101,187.8706 Q1106.3101,189.9624 1106.9949,191.0291 Q1107.6797,192.0957 1109.0244,192.0957 Q1109.6553,192.0957 1110.2488,191.8259 Q1110.8423,191.5562 1111.4731,190.9751 Z " fill="#000000"/><text fill="#000000" font-family="sans-serif" font-size="14" lengthAdjust="spacing" textLength="95" x="1123" y="192.8457">ClassExample</text><line style="stroke:#181818;stroke-width:0.5;" x1="1095" x2="1220" y1="203.5547" y2="203.5547"/><line style="stroke:#181818;stroke-width:0.5;" x1="1095" x2="1220" y1="211.5547" y2="211.5547"/></g></a><g id="elem_FloatingNote"><path d="M6,71.5547 L6,319.2129 L825,319.2129 L825,81.5547 L815,71.5547 L6,71.5547 " fill="#FEFFDD" style="stroke:#181818;stroke-width:0.5;"/><path d="M815,71.5547 L815,81.5547 L825,81.5547 L815,71.5547 " fill="#FEFFDD" style="stroke:#181818;stroke-width:1.0;"/><text fill="#000000" font-family="sans-serif" font-size="13" lengthAdjust="spacing" textLength="120" x="12" y="89.123">Your are analyzing:</text><text fill="#000000" font-family="sans-serif" font-size="13" lengthAdjust="spacing" textLength="471" x="12" y="104.4336">Examples.BadDesign.BasicExample.ClassExample_DOT_InnerClassExample</text><text fill="#000000" font-family="sans-serif" font-size="13" font-weight="bold" lengthAdjust="spacing" textLength="67" x="487" y="104.4336">simplified</text><text fill="#000000" font-family="sans-serif" font-size="13" lengthAdjust="spacing" textLength="23" x="558" y="104.4336">and</text><text fill="#000000" font-family="sans-serif" font-size="13" font-weight="bold" lengthAdjust="spacing" textLength="166" x="585" y="104.4336">grouped per namespace</text><text fill="#000000" font-family="sans-serif" font-size="13" lengthAdjust="spacing" textLength="4" x="12" y="119.7441">&#160;</text><text fill="#000000" font-family="sans-serif" font-size="13" lengthAdjust="spacing" textLength="229" x="12" y="150.3652">You can click either the namespaces</text><text fill="#000000" font-family="sans-serif" font-size="13" lengthAdjust="spacing" textLength="266" x="12" y="165.6758">or class names for filtering them and their</text><text fill="#000000" font-family="sans-serif" font-size="13" lengthAdjust="spacing" textLength="130" x="12" y="180.9863">direct dependencies.</text><text fill="#000000" font-family="sans-serif" font-size="13" lengthAdjust="spacing" textLength="4" x="12" y="196.2969">&#160;</text><line style="stroke:#181818;stroke-width:1.0;" x1="7" x2="399.5" y1="130.1416" y2="130.1416"/><line style="stroke:#181818;stroke-width:1.0;" x1="7" x2="399.5" y1="132.1416" y2="132.1416"/><text fill="#000000" font-family="sans-serif" font-size="13" lengthAdjust="spacing" textLength="32" x="399.5" y="134.5547">Filter</text><line style="stroke:#181818;stroke-width:1.0;" x1="431.5" x2="824" y1="130.1416" y2="130.1416"/><line style="stroke:#181818;stroke-width:1.0;" x1="431.5" x2="824" y1="132.1416" y2="132.1416"/><ellipse cx="17.5" cy="226.1602" fill="#000000" rx="2.5" ry="2.5" style="stroke:#000000;stroke-width:0.0;"/><text fill="#000000" font-family="sans-serif" font-size="13" lengthAdjust="spacing" textLength="471" x="24" y="230.918">Examples.BadDesign.BasicExample.ClassExample_DOT_InnerClassExample</text><text fill="#000000" font-family="sans-serif" font-size="13" font-weight="bold" lengthAdjust="spacing" textLength="55" x="499" y="230.918">detailed</text><text fill="#000000" font-family="sans-serif" font-size="13" lengthAdjust="spacing" textLength="23" x="558" y="230.918">and</text><text fill="#000000" font-family="sans-serif" font-size="13" font-weight="bold" lengthAdjust="spacing" textLength="166" x="585" y="230.918">grouped per namespace</text><text fill="#000000" font-family="sans-serif" font-size="13" lengthAdjust="spacing" textLength="4" x="751" y="230.918">:</text><text fill="#000000" font-family="sans-serif" font-size="13" lengthAdjust="spacing" textLength="12" x="12" y="246.2285">&#160;&#160;&#160;</text><a href="Examples.BadDesign.BasicExample.ClassExample_DOT_InnerClassExample-diagram-detailed-grouped-per-namespace.svg" target="_top" title="Examples.BadDesign.BasicExample.ClassExample_DOT_InnerClassExample-diagram-detailed-grouped-per-namespace.svg" xlink:actuate="onRequest" xlink:href="Examples.BadDesign.BasicExample.ClassExample_DOT_InnerClassExample-diagram-detailed-grouped-per-namespace.svg" xlink:show="new" xlink:title="Examples.BadDesign.BasicExample.ClassExample_DOT_InnerClassExample-diagram-detailed-grouped-per-namespace.svg" xlink:type="simple"><text fill="#0000FF" font-family="sans-serif" font-size="13" lengthAdjust="spacing" text-decoration="underline" textLength="780" x="24" y="246.2285">Examples.BadDesign.BasicExample.ClassExample_DOT_InnerClassExample-diagram-detailed-grouped-per-namespace.svg</text></a><ellipse cx="17.5" cy="256.7813" fill="#000000" rx="2.5" ry="2.5" style="stroke:#000000;stroke-width:0.0;"/><text fill="#000000" font-family="sans-serif" font-size="13" lengthAdjust="spacing" textLength="78" x="24" y="261.5391">Full diagram</text><text fill="#000000" font-family="sans-serif" font-size="13" font-weight="bold" lengthAdjust="spacing" textLength="67" x="106" y="261.5391">simplified</text><text fill="#000000" font-family="sans-serif" font-size="13" lengthAdjust="spacing" textLength="23" x="177" y="261.5391">and</text><text fill="#000000" font-family="sans-serif" font-size="13" font-weight="bold" lengthAdjust="spacing" textLength="166" x="204" y="261.5391">grouped per namespace</text><text fill="#000000" font-family="sans-serif" font-size="13" lengthAdjust="spacing" textLength="4" x="370" y="261.5391">:</text><text fill="#000000" font-family="sans-serif" font-size="13" lengthAdjust="spacing" textLength="12" x="12" y="276.8496">&#160;&#160;&#160;</text><a href="full-diagram-simplified-grouped-per-namespace.svg" target="_top" title="full-diagram-simplified-grouped-per-namespace.svg" xlink:actuate="onRequest" xlink:href="full-diagram-simplified-grouped-per-namespace.svg" xlink:show="new" xlink:title="full-diagram-simplified-grouped-per-namespace.svg" xlink:type="simple"><text fill="#0000FF" font-family="sans-serif" font-size="13" lengthAdjust="spacing" text-decoration="underline" textLength="343" x="24" y="276.8496">full-diagram-simplified-grouped-per-namespace.svg</text></a><ellipse cx="17.5" cy="287.4023" fill="#000000" rx="2.5" ry="2.5" style="stroke:#000000;stroke-width:0.0;"/><text fill="#000000" font-family="sans-serif" font-size="13" lengthAdjust="spacing" textLength="41" x="24" y="292.1602">Home:</text><text fill="#000000" font-family="sans-serif" font-size="13" lengthAdjust="spacing" textLength="12" x="12" y="307.4707">&#160;&#160;&#160;</text><a href="index.html" target="_top" title="index.html" xlink:actuate="onRequest" xlink:href="index.html" xlink:show="new" xlink:title="index.html" xlink:type="simple"><text fill="#0000FF" font-family="sans-serif" font-size="13" lengthAdjust="spacing" text-decoration="underline" textLength="68" x="24" y="307.4707">index.html</text></a><line style="stroke:#181818;stroke-width:1.0;" x1="7" x2="378.5" y1="210.6943" y2="210.6943"/><line style="stroke:#181818;stroke-width:1.0;" x1="7" x2="378.5" y1="212.6943" y2="212.6943"/><text fill="#000000" font-family="sans-serif" font-size="13" lengthAdjust="spacing" textLength="74" x="378.5" y="215.1074">Select other</text><line style="stroke:#181818;stroke-width:1.0;" x1="452.5" x2="824" y1="210.6943" y2="210.6943"/><line style="stroke:#181818;stroke-width:1.0;" x1="452.5" x2="824" y1="212.6943" y2="212.6943"/></g><!--reverse link ClassExample_DOT_InnerClassExample to ClassExample_DOT_InnerClassExample_DOT_classInMethodExample--><g id="link_ClassExample_DOT_InnerClassExample_ClassExample_DOT_InnerClassExample_DOT_classInMethodExample"><path codeLine="26" d="M1157.5,443.7947 C1157.5,443.7947 1157.5,487.3947 1157.5,487.3947 " fill="none" id="ClassExample_DOT_InnerClassExample-backto-ClassExample_DOT_InnerClassExample_DOT_classInMethodExample" style="stroke:#10BBBB;stroke-width:1.0;"/><ellipse cx="1157.5" cy="436.7947" fill="#FFFFFF" rx="8" ry="8" style="stroke:#10BBBB;stroke-width:1.0;"/><line style="stroke:#10BBBB;stroke-width:1.0;" x1="1157.5" x2="1157.5" y1="444.7947" y2="428.7947"/><line style="stroke:#10BBBB;stroke-width:1.0;" x1="1149.5" x2="1165.5" y1="436.7947" y2="436.7947"/></g><!--reverse link ClassExample to ClassExample_DOT_InnerClassExample--><g id="link_ClassExample_ClassExample_DOT_InnerClassExample"><path codeLine="27" d="M1157.5,235.8247 C1157.5,235.8247 1157.5,379.1247 1157.5,379.1247 " fill="none" id="ClassExample-backto-ClassExample_DOT_InnerClassExample" style="stroke:#10BBBB;stroke-width:1.0;"/><ellipse cx="1157.5" cy="228.8247" fill="#FFFFFF" rx="8" ry="8" style="stroke:#10BBBB;stroke-width:1.0;"/><line style="stroke:#10BBBB;stroke-width:1.0;" x1="1157.5" x2="1157.5" y1="236.8247" y2="220.8247"/><line style="stroke:#10BBBB;stroke-width:1.0;" x1="1149.5" x2="1165.5" y1="228.8247" y2="228.8247"/></g><!--SRC=[nLLHJzj037xlhx3W0IbJEhR7Yl90MJKUnXwsbwcfgYFdj1ONNtHtWPQ9_pwdf4sHg4f6sAAgklXiV_vin_Qtn8LoAWT3Z65L85WN5hONA1Y4CqyFEFXyUlvbgVB2eEzVA7s9dkOi9qzfBU-FZFA-VfbTVlyvks96jok5AF8a1ye8THI1OYsYkRDbWHeATC0gHr-e5AFex6C5VDvZ6n2EVjdIWN8eDigi7eZdWuJ_SKG99pmSZia4TCDXmX8Jf8eXDPJU0b9OYBxyDJOU4hPE50JnIGgPl6Th5yAXqixNe78Wbx0cXsa0ZGMoHav9o3t1_a1JtTWAf0AFe1Fs6eCYSvYxP1i09fEtWyQQr5owBTv0npLaB93n5hBlx-RJQSLpN1e3jL6hUcrYpiJ15hKnFuJxrUQuSK5IZML_4N8pdHw1yZ0sLWMfuBLqPszhlAt9JgPQ8iFl5zmrsNwn1Dr2F2leuPAt1vUCrfz41otSQKk-aiBn2esnzpMLnqu9hQLhPrVy3MKCwowPxlNUDWLlvDwIp5z7TpAokUmscGt_i-FXNdO329y0CiLpP9dZ6TGHmiXON-q29MEkS7X7jlGpNzxCjdvcXiIqON1j6U46KrLwh9P9lHKzUP1VHan-WRg_uxkntINIUzoZKhFUSxz9Zrp3YOpVLptmRhfLY5N_EJGoaYrxm6LmAWrIzSpPl8by8Be7QjlhO2HzY2V7dqulv9d6xpeHMWNRTLZm1m00]--></g></svg>