<?xml version="1.0" encoding="us-ascii" standalone="no"?><svg xmlns="http://www.w3.org/2000/svg" xmlns:xlink="http://www.w3.org/1999/xlink" contentStyleType="text/css" height="453px" preserveAspectRatio="none" style="width:1555px;height:453px;background:#FFFFFF;" version="1.1" viewBox="0 0 1555 453" width="1555px" zoomAndPan="magnify"><defs/><g><text fill="#000000" font-family="sans-serif" font-size="20" font-weight="bold" lengthAdjust="spacing" textLength="833" x="158" y="29.3359">Examples.BasicExample.ClassExample.InnerClassExample.classInMethodExample</text><text fill="#000000" font-family="sans-serif" font-size="20" font-weight="bold" lengthAdjust="spacing" textLength="84" x="998" y="29.3359">detailed</text><text fill="#000000" font-family="sans-serif" font-size="20" font-weight="bold" lengthAdjust="spacing" textLength="38" x="1089" y="29.3359">and</text><text fill="#000000" font-family="sans-serif" font-size="20" font-weight="bold" lengthAdjust="spacing" textLength="249" x="1134" y="29.3359">grouped per namespace</text><!--cluster Examples--><g id="cluster_Examples"><a href="Examples-diagram-detailed-grouped-per-namespace.svg" target="_top" title="Examples-diagram-detailed-grouped-per-namespace.svg" xlink:actuate="onRequest" xlink:href="Examples-diagram-detailed-grouped-per-namespace.svg" xlink:show="new" xlink:title="Examples-diagram-detailed-grouped-per-namespace.svg" xlink:type="simple"><path d="M896.5,64.5547 L965.5,64.5547 A3.75,3.75 0 0 1 968,67.0547 L975,87.043 L1545.5,87.043 A2.5,2.5 0 0 1 1548,89.543 L1548,444.0547 A2.5,2.5 0 0 1 1545.5,446.5547 L896.5,446.5547 A2.5,2.5 0 0 1 894,444.0547 L894,67.0547 A2.5,2.5 0 0 1 896.5,64.5547 " fill="none" style="stroke:#000000;stroke-width:1.5;"/><line style="stroke:#000000;stroke-width:1.5;" x1="894" x2="975" y1="87.043" y2="87.043"/><text fill="#000000" font-family="sans-serif" font-size="14" font-weight="bold" lengthAdjust="spacing" textLength="68" x="898" y="80.0898">Examples</text></a></g><!--cluster BasicExample--><g id="cluster_BasicExample"><a href="Examples.BasicExample-diagram-detailed-grouped-per-namespace.svg" target="_top" title="Examples.BasicExample-diagram-detailed-grouped-per-namespace.svg" xlink:actuate="onRequest" xlink:href="Examples.BasicExample-diagram-detailed-grouped-per-namespace.svg" xlink:show="new" xlink:title="Examples.BasicExample-diagram-detailed-grouped-per-namespace.svg" xlink:type="simple"><path d="M920.5,107.5547 L1018.5,107.5547 A3.75,3.75 0 0 1 1021,110.0547 L1028,130.043 L1521.5,130.043 A2.5,2.5 0 0 1 1524,132.543 L1524,420.0547 A2.5,2.5 0 0 1 1521.5,422.5547 L920.5,422.5547 A2.5,2.5 0 0 1 918,420.0547 L918,110.0547 A2.5,2.5 0 0 1 920.5,107.5547 " fill="none" style="stroke:#000000;stroke-width:1.5;"/><line style="stroke:#000000;stroke-width:1.5;" x1="918" x2="1028" y1="130.043" y2="130.043"/><text fill="#000000" font-family="sans-serif" font-size="14" font-weight="bold" lengthAdjust="spacing" textLength="97" x="922" y="123.0898">BasicExample</text></a></g><!--class ClassExample_DOT_InnerClassExample_DOT_classInMethodExample--><a href="Examples.BasicExample.ClassExample.InnerClassExample.classInMethodExample-diagram-detailed-grouped-per-namespace.svg" target="_top" title="Examples.BasicExample.ClassExample.InnerClassExample.classInMethodExample-diagram-detailed-grouped-per-namespace.svg" xlink:actuate="onRequest" xlink:href="Examples.BasicExample.ClassExample.InnerClassExample.classInMethodExample-diagram-detailed-grouped-per-namespace.svg" xlink:show="new" xlink:title="Examples.BasicExample.ClassExample.InnerClassExample.classInMethodExample-diagram-detailed-grouped-per-namespace.svg" xlink:type="simple"><g id="elem_ClassExample_DOT_InnerClassExample_DOT_classInMethodExample"><rect codeLine="6" fill="#FFFF00" height="48" id="ClassExample_DOT_InnerClassExample_DOT_classInMethodExample" rx="2.5" ry="2.5" style="stroke:#181818;stroke-width:0.5;" width="503" x="969.5" y="358.5547"/><ellipse cx="984.5" cy="374.5547" fill="#ADD1B2" rx="11" ry="11" style="stroke:#181818;stroke-width:1.0;"/><path d="M986.9731,380.6978 Q986.3921,380.9966 985.7529,381.146 Q985.1138,381.2954 984.4082,381.2954 Q981.9014,381.2954 980.5815,379.6436 Q979.2617,377.9917 979.2617,374.8706 Q979.2617,371.7412 980.5815,370.0894 Q981.9014,368.4375 984.4082,368.4375 Q985.1138,368.4375 985.7612,368.5869 Q986.4087,368.7363 986.9731,369.0352 L986.9731,371.7578 Q986.3423,371.1768 985.7488,370.907 Q985.1553,370.6372 984.5244,370.6372 Q983.1797,370.6372 982.4949,371.7039 Q981.8101,372.7705 981.8101,374.8706 Q981.8101,376.9624 982.4949,378.0291 Q983.1797,379.0957 984.5244,379.0957 Q985.1553,379.0957 985.7488,378.8259 Q986.3423,378.5562 986.9731,377.9751 Z " fill="#000000"/><text fill="#000000" font-family="sans-serif" font-size="14" lengthAdjust="spacing" textLength="471" x="998.5" y="379.8457">ClassExample_DOT_InnerClassExample_DOT_classInMethodExample</text><line style="stroke:#181818;stroke-width:0.5;" x1="970.5" x2="1471.5" y1="390.5547" y2="390.5547"/><line style="stroke:#181818;stroke-width:0.5;" x1="970.5" x2="1471.5" y1="398.5547" y2="398.5547"/></g></a><!--class ClassExample_DOT_InnerClassExample--><a href="Examples.BasicExample.ClassExample.InnerClassExample-diagram-detailed-grouped-per-namespace.svg" target="_top" title="Examples.BasicExample.ClassExample.InnerClassExample-diagram-detailed-grouped-per-namespace.svg" xlink:actuate="onRequest" xlink:href="Examples.BasicExample.ClassExample.InnerClassExample-diagram-detailed-grouped-per-namespace.svg" xlink:show="new" xlink:title="Examples.BasicExample.ClassExample.InnerClassExample-diagram-detailed-grouped-per-namespace.svg" xlink:type="simple"><g id="elem_ClassExample_DOT_InnerClassExample"><rect codeLine="8" fill="#F1F1F1" height="64.4883" id="ClassExample_DOT_InnerClassExample" rx="2.5" ry="2.5" style="stroke:#181818;stroke-width:0.5;" width="574" x="934" y="142.5547"/><ellipse cx="1081.75" cy="158.5547" fill="#ADD1B2" rx="11" ry="11" style="stroke:#181818;stroke-width:1.0;"/><path d="M1084.2231,164.6978 Q1083.6421,164.9966 1083.0029,165.146 Q1082.3638,165.2954 1081.6582,165.2954 Q1079.1514,165.2954 1077.8315,163.6436 Q1076.5117,161.9917 1076.5117,158.8706 Q1076.5117,155.7412 1077.8315,154.0894 Q1079.1514,152.4375 1081.6582,152.4375 Q1082.3638,152.4375 1083.0112,152.5869 Q1083.6587,152.7363 1084.2231,153.0352 L1084.2231,155.7578 Q1083.5923,155.1768 1082.9988,154.907 Q1082.4053,154.6372 1081.7744,154.6372 Q1080.4297,154.6372 1079.7449,155.7039 Q1079.0601,156.7705 1079.0601,158.8706 Q1079.0601,160.9624 1079.7449,162.0291 Q1080.4297,163.0957 1081.7744,163.0957 Q1082.4053,163.0957 1082.9988,162.8259 Q1083.5923,162.5562 1084.2231,161.9751 Z " fill="#000000"/><text fill="#000000" font-family="sans-serif" font-size="14" lengthAdjust="spacing" textLength="270" x="1102.25" y="163.8457">ClassExample_DOT_InnerClassExample</text><line style="stroke:#181818;stroke-width:0.5;" x1="935" x2="1507" y1="174.5547" y2="174.5547"/><line style="stroke:#181818;stroke-width:0.5;" x1="935" x2="1507" y1="182.5547" y2="182.5547"/><ellipse cx="945" cy="196.2988" fill="#84BE84" rx="3" ry="3" style="stroke:#038048;stroke-width:1.0;"/><text fill="#000000" font-family="sans-serif" font-size="14" lengthAdjust="spacing" textLength="225" x="954" y="200.0898">methodClassInnerClassExample(</text><text fill="#6060BB" font-family="sans-serif" font-size="14" lengthAdjust="spacing" textLength="281" x="1179" y="200.0898">useless1:Examples.BasicExample.Useless</text><text fill="#000000" font-family="sans-serif" font-size="14" lengthAdjust="spacing" textLength="9" x="1460" y="200.0898">):</text><text fill="#BB6060" font-family="sans-serif" font-size="14" lengthAdjust="spacing" textLength="29" x="1473" y="200.0898">void</text></g></a><g id="elem_FloatingNote"><path d="M6,50.5547 L6,298.2129 L878,298.2129 L878,60.5547 L868,50.5547 L6,50.5547 " fill="#FEFFDD" style="stroke:#181818;stroke-width:0.5;"/><path d="M868,50.5547 L868,60.5547 L878,60.5547 L868,50.5547 " fill="#FEFFDD" style="stroke:#181818;stroke-width:1.0;"/><text fill="#000000" font-family="sans-serif" font-size="13" lengthAdjust="spacing" textLength="120" x="12" y="68.123">Your are analyzing:</text><text fill="#000000" font-family="sans-serif" font-size="13" lengthAdjust="spacing" textLength="511" x="12" y="83.4336">Examples.BasicExample.ClassExample.InnerClassExample.classInMethodExample</text><text fill="#000000" font-family="sans-serif" font-size="13" font-weight="bold" lengthAdjust="spacing" textLength="55" x="527" y="83.4336">detailed</text><text fill="#000000" font-family="sans-serif" font-size="13" lengthAdjust="spacing" textLength="23" x="586" y="83.4336">and</text><text fill="#000000" font-family="sans-serif" font-size="13" font-weight="bold" lengthAdjust="spacing" textLength="166" x="613" y="83.4336">grouped per namespace</text><text fill="#000000" font-family="sans-serif" font-size="13" lengthAdjust="spacing" textLength="4" x="12" y="98.7441">&#160;</text><text fill="#000000" font-family="sans-serif" font-size="13" lengthAdjust="spacing" textLength="229" x="12" y="129.3652">You can click either the namespaces</text><text fill="#000000" font-family="sans-serif" font-size="13" lengthAdjust="spacing" textLength="266" x="12" y="144.6758">or class names for filtering them and their</text><text fill="#000000" font-family="sans-serif" font-size="13" lengthAdjust="spacing" textLength="130" x="12" y="159.9863">direct dependencies.</text><text fill="#000000" font-family="sans-serif" font-size="13" lengthAdjust="spacing" textLength="4" x="12" y="175.2969">&#160;</text><line style="stroke:#181818;stroke-width:1.0;" x1="7" x2="426" y1="109.1416" y2="109.1416"/><line style="stroke:#181818;stroke-width:1.0;" x1="7" x2="426" y1="111.1416" y2="111.1416"/><text fill="#000000" font-family="sans-serif" font-size="13" lengthAdjust="spacing" textLength="32" x="426" y="113.5547">Filter</text><line style="stroke:#181818;stroke-width:1.0;" x1="458" x2="877" y1="109.1416" y2="109.1416"/><line style="stroke:#181818;stroke-width:1.0;" x1="458" x2="877" y1="111.1416" y2="111.1416"/><ellipse cx="17.5" cy="205.1602" fill="#000000" rx="2.5" ry="2.5" style="stroke:#000000;stroke-width:0.0;"/><text fill="#000000" font-family="sans-serif" font-size="13" lengthAdjust="spacing" textLength="511" x="24" y="209.918">Examples.BasicExample.ClassExample.InnerClassExample.classInMethodExample</text><text fill="#000000" font-family="sans-serif" font-size="13" font-weight="bold" lengthAdjust="spacing" textLength="67" x="539" y="209.918">simplified</text><text fill="#000000" font-family="sans-serif" font-size="13" lengthAdjust="spacing" textLength="23" x="610" y="209.918">and</text><text fill="#000000" font-family="sans-serif" font-size="13" font-weight="bold" lengthAdjust="spacing" textLength="166" x="637" y="209.918">grouped per namespace</text><text fill="#000000" font-family="sans-serif" font-size="13" lengthAdjust="spacing" textLength="4" x="803" y="209.918">:</text><text fill="#000000" font-family="sans-serif" font-size="13" lengthAdjust="spacing" textLength="12" x="12" y="225.2285">&#160;&#160;&#160;</text><a href="Examples.BasicExample.ClassExample.InnerClassExample.classInMethodExample-diagram-simplified-grouped-per-namespace.svg" target="_top" title="Examples.BasicExample.ClassExample.InnerClassExample.classInMethodExample-diagram-simplified-grouped-per-namespace.svg" xlink:actuate="onRequest" xlink:href="Examples.BasicExample.ClassExample.InnerClassExample.classInMethodExample-diagram-simplified-grouped-per-namespace.svg" xlink:show="new" xlink:title="Examples.BasicExample.ClassExample.InnerClassExample.classInMethodExample-diagram-simplified-grouped-per-namespace.svg" xlink:type="simple"><text fill="#0000FF" font-family="sans-serif" font-size="13" lengthAdjust="spacing" text-decoration="underline" textLength="833" x="24" y="225.2285">Examples.BasicExample.ClassExample.InnerClassExample.classInMethodExample-diagram-simplified-grouped-per-namespace.svg</text></a><ellipse cx="17.5" cy="235.7813" fill="#000000" rx="2.5" ry="2.5" style="stroke:#000000;stroke-width:0.0;"/><text fill="#000000" font-family="sans-serif" font-size="13" lengthAdjust="spacing" textLength="78" x="24" y="240.5391">Full diagram</text><text fill="#000000" font-family="sans-serif" font-size="13" font-weight="bold" lengthAdjust="spacing" textLength="55" x="106" y="240.5391">detailed</text><text fill="#000000" font-family="sans-serif" font-size="13" lengthAdjust="spacing" textLength="23" x="165" y="240.5391">and</text><text fill="#000000" font-family="sans-serif" font-size="13" font-weight="bold" lengthAdjust="spacing" textLength="166" x="192" y="240.5391">grouped per namespace</text><text fill="#000000" font-family="sans-serif" font-size="13" lengthAdjust="spacing" textLength="4" x="358" y="240.5391">:</text><text fill="#000000" font-family="sans-serif" font-size="13" lengthAdjust="spacing" textLength="12" x="12" y="255.8496">&#160;&#160;&#160;</text><a href="full-diagram-detailed-grouped-per-namespace.svg" target="_top" title="full-diagram-detailed-grouped-per-namespace.svg" xlink:actuate="onRequest" xlink:href="full-diagram-detailed-grouped-per-namespace.svg" xlink:show="new" xlink:title="full-diagram-detailed-grouped-per-namespace.svg" xlink:type="simple"><text fill="#0000FF" font-family="sans-serif" font-size="13" lengthAdjust="spacing" text-decoration="underline" textLength="330" x="24" y="255.8496">full-diagram-detailed-grouped-per-namespace.svg</text></a><ellipse cx="17.5" cy="266.4023" fill="#000000" rx="2.5" ry="2.5" style="stroke:#000000;stroke-width:0.0;"/><text fill="#000000" font-family="sans-serif" font-size="13" lengthAdjust="spacing" textLength="41" x="24" y="271.1602">Home:</text><text fill="#000000" font-family="sans-serif" font-size="13" lengthAdjust="spacing" textLength="12" x="12" y="286.4707">&#160;&#160;&#160;</text><a href="index.html" target="_top" title="index.html" xlink:actuate="onRequest" xlink:href="index.html" xlink:show="new" xlink:title="index.html" xlink:type="simple"><text fill="#0000FF" font-family="sans-serif" font-size="13" lengthAdjust="spacing" text-decoration="underline" textLength="68" x="24" y="286.4707">index.html</text></a><line style="stroke:#181818;stroke-width:1.0;" x1="7" x2="405" y1="189.6943" y2="189.6943"/><line style="stroke:#181818;stroke-width:1.0;" x1="7" x2="405" y1="191.6943" y2="191.6943"/><text fill="#000000" font-family="sans-serif" font-size="13" lengthAdjust="spacing" textLength="74" x="405" y="194.1074">Select other</text><line style="stroke:#181818;stroke-width:1.0;" x1="479" x2="877" y1="189.6943" y2="189.6943"/><line style="stroke:#181818;stroke-width:1.0;" x1="479" x2="877" y1="191.6943" y2="191.6943"/></g><!--reverse link ClassExample_DOT_InnerClassExample to ClassExample_DOT_InnerClassExample_DOT_classInMethodExample--><g id="link_ClassExample_DOT_InnerClassExample_ClassExample_DOT_InnerClassExample_DOT_classInMethodExample"><path codeLine="22" d="M1221,223.0547 C1221,223.0547 1221,358.0847 1221,358.0847 " fill="none" id="ClassExample_DOT_InnerClassExample-backto-ClassExample_DOT_InnerClassExample_DOT_classInMethodExample" style="stroke:#10BBBB;stroke-width:1.0;"/><ellipse cx="1221" cy="216.0547" fill="#FFFFFF" rx="8" ry="8" style="stroke:#10BBBB;stroke-width:1.0;"/><line style="stroke:#10BBBB;stroke-width:1.0;" x1="1221" x2="1221" y1="224.0547" y2="208.0547"/><line style="stroke:#10BBBB;stroke-width:1.0;" x1="1213" x2="1229" y1="216.0547" y2="216.0547"/></g><!--SRC=[nLLDRzf04BtpAqRaaDQH2UaX1mGSJ8kQGzD3sqE54ThOOnXblMljBWHIvRztrfYlbegGXXPPoBixC- -zcTcnlITL22DoaAJGBGe4RTn4rnmvYT2sz8YjTytkXxd82ucs4GbBIRLgzAImThMuKGhDpaxY5pVg4tB0jDg484ZH2PAO1W48bVB6sEXfWIaKQ42976qX4Wo2zgL7xzQKTWZrxtfgG1Xa7o4NZwJ6hLZz3rgnYbMdqoVfq7GwiM9Ya0W5YQJa7f3SXEtvR-DZ8LRQG8cxt8MCrraPWeLuwxm4vHSoiKh9OE8WnG9LYYeXLhY4_OBIdsWFui43UCqKME8NokXm4ZZt030Ol1fwc98OSn-66mvXXHqoThZ6RjZPU3ZqoljJAQ5oEw9-A-ePkwzHLyw7C3_g75S1Y6ipRqnSBeV3EWWBVQc5uthUSiFMrixh2csbwoXS-B4ds4x2_rI8Os6Wwj73LHsz__nrz5jbozszlNMAJdcMgBC5IgaVId5FVotmXJgEerno1RY0l9JTM-RWbv1lsfbM3X8jjUdKhvlNpIYgTwUMvuErLwtzBByjZzkNthVxjWKxGQB8XwbtPvhIogHCsdbFv_oDu9lqRzeG7dY60cjrm7HpP8OwWv89zAIsVc8Allg5mHdfgHtPwTre7MKaYHqtJ6-rGhZ3H71k_CYjFY2MBF2JaI8xmRIn5NlZkosYzhJNP2MOZ-6SXywpVd0oMq_HDxX1oQD8AmiuTqOaZgkN6PrlcBVOTc-rQY- -71VXuEoA-p2AXk49PiXF]--></g></svg>