<?xml version="1.0" encoding="us-ascii" standalone="no"?><svg xmlns="http://www.w3.org/2000/svg" xmlns:xlink="http://www.w3.org/1999/xlink" contentStyleType="text/css" height="522px" preserveAspectRatio="none" style="width:1079px;height:522px;background:#FFFFFF;" version="1.1" viewBox="0 0 1079 522" width="1079px" zoomAndPan="magnify"><defs/><g><text fill="#000000" font-family="sans-serif" font-size="20" font-weight="bold" lengthAdjust="spacing" textLength="380" x="283.75" y="29.3359">Examples.BadDesign.CarExample.Car</text><text fill="#000000" font-family="sans-serif" font-size="20" font-weight="bold" lengthAdjust="spacing" textLength="104" x="670.75" y="29.3359">simplified</text><text fill="#000000" font-family="sans-serif" font-size="20" font-weight="bold" lengthAdjust="spacing" textLength="7" x="774.75" y="29.3359">&#160;</text><!--cluster Examples--><g id="cluster_Examples"><path d="M440,50.5547 L509,50.5547 A3.75,3.75 0 0 1 511.5,53.0547 L518.5,73.043 L1070,73.043 A2.5,2.5 0 0 1 1072.5,75.543 L1072.5,513.0547 A2.5,2.5 0 0 1 1070,515.5547 L440,515.5547 A2.5,2.5 0 0 1 437.5,513.0547 L437.5,53.0547 A2.5,2.5 0 0 1 440,50.5547 " fill="none" style="stroke:#000000;stroke-width:1.5;"/><line style="stroke:#000000;stroke-width:1.5;" x1="437.5" x2="518.5" y1="73.043" y2="73.043"/><text fill="#000000" font-family="sans-serif" font-size="14" font-weight="bold" lengthAdjust="spacing" textLength="68" x="441.5" y="66.0898">Examples</text></g><!--cluster BadDesign--><g id="cluster_BadDesign"><path d="M464,93.5547 L541,93.5547 A3.75,3.75 0 0 1 543.5,96.0547 L550.5,116.043 L1046,116.043 A2.5,2.5 0 0 1 1048.5,118.543 L1048.5,489.0547 A2.5,2.5 0 0 1 1046,491.5547 L464,491.5547 A2.5,2.5 0 0 1 461.5,489.0547 L461.5,96.0547 A2.5,2.5 0 0 1 464,93.5547 " fill="none" style="stroke:#000000;stroke-width:1.5;"/><line style="stroke:#000000;stroke-width:1.5;" x1="461.5" x2="550.5" y1="116.043" y2="116.043"/><text fill="#000000" font-family="sans-serif" font-size="14" font-weight="bold" lengthAdjust="spacing" textLength="76" x="465.5" y="109.0898">BadDesign</text></g><!--cluster CarExample--><g id="cluster_CarExample"><path d="M488,136.5547 L573,136.5547 A3.75,3.75 0 0 1 575.5,139.0547 L582.5,159.043 L964,159.043 A2.5,2.5 0 0 1 966.5,161.543 L966.5,465.0547 A2.5,2.5 0 0 1 964,467.5547 L488,467.5547 A2.5,2.5 0 0 1 485.5,465.0547 L485.5,139.0547 A2.5,2.5 0 0 1 488,136.5547 " fill="none" style="stroke:#000000;stroke-width:1.5;"/><line style="stroke:#000000;stroke-width:1.5;" x1="485.5" x2="582.5" y1="159.043" y2="159.043"/><text fill="#000000" font-family="sans-serif" font-size="14" font-weight="bold" lengthAdjust="spacing" textLength="84" x="489.5" y="152.0898">CarExample</text></g><!--cluster CarParts--><g id="cluster_CarParts"><path d="M512,344.5547 L574,344.5547 A3.75,3.75 0 0 1 576.5,347.0547 L583.5,367.043 L940,367.043 A2.5,2.5 0 0 1 942.5,369.543 L942.5,441.0547 A2.5,2.5 0 0 1 940,443.5547 L512,443.5547 A2.5,2.5 0 0 1 509.5,441.0547 L509.5,347.0547 A2.5,2.5 0 0 1 512,344.5547 " fill="none" style="stroke:#000000;stroke-width:1.5;"/><line style="stroke:#000000;stroke-width:1.5;" x1="509.5" x2="583.5" y1="367.043" y2="367.043"/><text fill="#000000" font-family="sans-serif" font-size="14" font-weight="bold" lengthAdjust="spacing" textLength="61" x="513.5" y="360.0898">CarParts</text></g><!--class DB--><a href="Examples.BadDesign.DB-diagram-simplified.svg" target="_top" title="Examples.BadDesign.DB-diagram-simplified.svg" xlink:actuate="onRequest" xlink:href="Examples.BadDesign.DB-diagram-simplified.svg" xlink:show="new" xlink:title="Examples.BadDesign.DB-diagram-simplified.svg" xlink:type="simple"><g id="elem_DB"><rect codeLine="4" fill="#F1F1F1" height="48" id="DB" rx="2.5" ry="2.5" style="stroke:#181818;stroke-width:0.5;" width="50" x="982.5" y="379.5547"/><ellipse cx="997.5" cy="395.5547" fill="#ADD1B2" rx="11" ry="11" style="stroke:#181818;stroke-width:1.0;"/><path d="M999.9731,401.6978 Q999.3921,401.9966 998.7529,402.146 Q998.1138,402.2954 997.4082,402.2954 Q994.9014,402.2954 993.5815,400.6436 Q992.2617,398.9917 992.2617,395.8706 Q992.2617,392.7412 993.5815,391.0894 Q994.9014,389.4375 997.4082,389.4375 Q998.1138,389.4375 998.7612,389.5869 Q999.4087,389.7363 999.9731,390.0352 L999.9731,392.7578 Q999.3423,392.1768 998.7488,391.907 Q998.1553,391.6372 997.5244,391.6372 Q996.1797,391.6372 995.4949,392.7039 Q994.8101,393.7705 994.8101,395.8706 Q994.8101,397.9624 995.4949,399.0291 Q996.1797,400.0957 997.5244,400.0957 Q998.1553,400.0957 998.7488,399.8259 Q999.3423,399.5562 999.9731,398.9751 Z " fill="#000000"/><text fill="#000000" font-family="sans-serif" font-size="14" lengthAdjust="spacing" textLength="18" x="1011.5" y="400.8457">DB</text><line style="stroke:#181818;stroke-width:0.5;" x1="983.5" x2="1031.5" y1="411.5547" y2="411.5547"/><line style="stroke:#181818;stroke-width:0.5;" x1="983.5" x2="1031.5" y1="419.5547" y2="419.5547"/></g></a><!--class Car--><a href="Examples.BadDesign.CarExample.Car-diagram-simplified.svg" target="_top" title="Examples.BadDesign.CarExample.Car-diagram-simplified.svg" xlink:actuate="onRequest" xlink:href="Examples.BadDesign.CarExample.Car-diagram-simplified.svg" xlink:show="new" xlink:title="Examples.BadDesign.CarExample.Car-diagram-simplified.svg" xlink:type="simple"><g id="elem_Car"><rect codeLine="6" fill="#FFFF00" height="48" id="Car" rx="2.5" ry="2.5" style="stroke:#181818;stroke-width:0.5;" width="56" x="749.5" y="171.5547"/><ellipse cx="764.5" cy="187.5547" fill="#ADD1B2" rx="11" ry="11" style="stroke:#181818;stroke-width:1.0;"/><path d="M766.9731,193.6978 Q766.3921,193.9966 765.7529,194.146 Q765.1138,194.2954 764.4082,194.2954 Q761.9014,194.2954 760.5815,192.6436 Q759.2617,190.9917 759.2617,187.8706 Q759.2617,184.7412 760.5815,183.0894 Q761.9014,181.4375 764.4082,181.4375 Q765.1138,181.4375 765.7612,181.5869 Q766.4087,181.7363 766.9731,182.0352 L766.9731,184.7578 Q766.3423,184.1768 765.7488,183.907 Q765.1553,183.6372 764.5244,183.6372 Q763.1797,183.6372 762.4949,184.7039 Q761.8101,185.7705 761.8101,187.8706 Q761.8101,189.9624 762.4949,191.0291 Q763.1797,192.0957 764.5244,192.0957 Q765.1553,192.0957 765.7488,191.8259 Q766.3423,191.5562 766.9731,190.9751 Z " fill="#000000"/><text fill="#000000" font-family="sans-serif" font-size="14" lengthAdjust="spacing" textLength="24" x="778.5" y="192.8457">Car</text><line style="stroke:#181818;stroke-width:0.5;" x1="750.5" x2="804.5" y1="203.5547" y2="203.5547"/><line style="stroke:#181818;stroke-width:0.5;" x1="750.5" x2="804.5" y1="211.5547" y2="211.5547"/></g></a><!--class Driver--><a href="Examples.BadDesign.CarExample.CarParts.Driver-diagram-simplified.svg" target="_top" title="Examples.BadDesign.CarExample.CarParts.Driver-diagram-simplified.svg" xlink:actuate="onRequest" xlink:href="Examples.BadDesign.CarExample.CarParts.Driver-diagram-simplified.svg" xlink:show="new" xlink:title="Examples.BadDesign.CarExample.CarParts.Driver-diagram-simplified.svg" xlink:type="simple"><g id="elem_Driver"><rect codeLine="8" fill="#F1F1F1" height="48" id="Driver" rx="2.5" ry="2.5" style="stroke:#181818;stroke-width:0.5;" width="73" x="853" y="379.5547"/><ellipse cx="868" cy="395.5547" fill="#ADD1B2" rx="11" ry="11" style="stroke:#181818;stroke-width:1.0;"/><path d="M870.4731,401.6978 Q869.8921,401.9966 869.2529,402.146 Q868.6138,402.2954 867.9082,402.2954 Q865.4014,402.2954 864.0815,400.6436 Q862.7617,398.9917 862.7617,395.8706 Q862.7617,392.7412 864.0815,391.0894 Q865.4014,389.4375 867.9082,389.4375 Q868.6138,389.4375 869.2612,389.5869 Q869.9087,389.7363 870.4731,390.0352 L870.4731,392.7578 Q869.8423,392.1768 869.2488,391.907 Q868.6553,391.6372 868.0244,391.6372 Q866.6797,391.6372 865.9949,392.7039 Q865.3101,393.7705 865.3101,395.8706 Q865.3101,397.9624 865.9949,399.0291 Q866.6797,400.0957 868.0244,400.0957 Q868.6553,400.0957 869.2488,399.8259 Q869.8423,399.5562 870.4731,398.9751 Z " fill="#000000"/><text fill="#000000" font-family="sans-serif" font-size="14" lengthAdjust="spacing" textLength="41" x="882" y="400.8457">Driver</text><line style="stroke:#181818;stroke-width:0.5;" x1="854" x2="925" y1="411.5547" y2="411.5547"/><line style="stroke:#181818;stroke-width:0.5;" x1="854" x2="925" y1="419.5547" y2="419.5547"/></g></a><!--class Wheels--><a href="Examples.BadDesign.CarExample.CarParts.Wheels-diagram-simplified.svg" target="_top" title="Examples.BadDesign.CarExample.CarParts.Wheels-diagram-simplified.svg" xlink:actuate="onRequest" xlink:href="Examples.BadDesign.CarExample.CarParts.Wheels-diagram-simplified.svg" xlink:show="new" xlink:title="Examples.BadDesign.CarExample.CarParts.Wheels-diagram-simplified.svg" xlink:type="simple"><g id="elem_Wheels"><rect codeLine="10" fill="#F1F1F1" height="48" id="Wheels" rx="2.5" ry="2.5" style="stroke:#181818;stroke-width:0.5;" width="80" x="737.5" y="379.5547"/><ellipse cx="752.5" cy="395.5547" fill="#ADD1B2" rx="11" ry="11" style="stroke:#181818;stroke-width:1.0;"/><path d="M754.9731,401.6978 Q754.3921,401.9966 753.7529,402.146 Q753.1138,402.2954 752.4082,402.2954 Q749.9014,402.2954 748.5815,400.6436 Q747.2617,398.9917 747.2617,395.8706 Q747.2617,392.7412 748.5815,391.0894 Q749.9014,389.4375 752.4082,389.4375 Q753.1138,389.4375 753.7612,389.5869 Q754.4087,389.7363 754.9731,390.0352 L754.9731,392.7578 Q754.3423,392.1768 753.7488,391.907 Q753.1553,391.6372 752.5244,391.6372 Q751.1797,391.6372 750.4949,392.7039 Q749.8101,393.7705 749.8101,395.8706 Q749.8101,397.9624 750.4949,399.0291 Q751.1797,400.0957 752.5244,400.0957 Q753.1553,400.0957 753.7488,399.8259 Q754.3423,399.5562 754.9731,398.9751 Z " fill="#000000"/><text fill="#000000" font-family="sans-serif" font-size="14" lengthAdjust="spacing" textLength="48" x="766.5" y="400.8457">Wheels</text><line style="stroke:#181818;stroke-width:0.5;" x1="738.5" x2="816.5" y1="411.5547" y2="411.5547"/><line style="stroke:#181818;stroke-width:0.5;" x1="738.5" x2="816.5" y1="419.5547" y2="419.5547"/></g></a><!--class Doors--><a href="Examples.BadDesign.CarExample.CarParts.Doors-diagram-simplified.svg" target="_top" title="Examples.BadDesign.CarExample.CarParts.Doors-diagram-simplified.svg" xlink:actuate="onRequest" xlink:href="Examples.BadDesign.CarExample.CarParts.Doors-diagram-simplified.svg" xlink:show="new" xlink:title="Examples.BadDesign.CarExample.CarParts.Doors-diagram-simplified.svg" xlink:type="simple"><g id="elem_Doors"><rect codeLine="12" fill="#F1F1F1" height="48" id="Doors" rx="2.5" ry="2.5" style="stroke:#181818;stroke-width:0.5;" width="73" x="629" y="379.5547"/><ellipse cx="644" cy="395.5547" fill="#ADD1B2" rx="11" ry="11" style="stroke:#181818;stroke-width:1.0;"/><path d="M646.4731,401.6978 Q645.8921,401.9966 645.2529,402.146 Q644.6138,402.2954 643.9082,402.2954 Q641.4014,402.2954 640.0815,400.6436 Q638.7617,398.9917 638.7617,395.8706 Q638.7617,392.7412 640.0815,391.0894 Q641.4014,389.4375 643.9082,389.4375 Q644.6138,389.4375 645.2612,389.5869 Q645.9087,389.7363 646.4731,390.0352 L646.4731,392.7578 Q645.8423,392.1768 645.2488,391.907 Q644.6553,391.6372 644.0244,391.6372 Q642.6797,391.6372 641.9949,392.7039 Q641.3101,393.7705 641.3101,395.8706 Q641.3101,397.9624 641.9949,399.0291 Q642.6797,400.0957 644.0244,400.0957 Q644.6553,400.0957 645.2488,399.8259 Q645.8423,399.5562 646.4731,398.9751 Z " fill="#000000"/><text fill="#000000" font-family="sans-serif" font-size="14" lengthAdjust="spacing" textLength="41" x="658" y="400.8457">Doors</text><line style="stroke:#181818;stroke-width:0.5;" x1="630" x2="701" y1="411.5547" y2="411.5547"/><line style="stroke:#181818;stroke-width:0.5;" x1="630" x2="701" y1="419.5547" y2="419.5547"/></g></a><!--class Seats--><a href="Examples.BadDesign.CarExample.CarParts.Seats-diagram-simplified.svg" target="_top" title="Examples.BadDesign.CarExample.CarParts.Seats-diagram-simplified.svg" xlink:actuate="onRequest" xlink:href="Examples.BadDesign.CarExample.CarParts.Seats-diagram-simplified.svg" xlink:show="new" xlink:title="Examples.BadDesign.CarExample.CarParts.Seats-diagram-simplified.svg" xlink:type="simple"><g id="elem_Seats"><rect codeLine="14" fill="#F1F1F1" height="48" id="Seats" rx="2.5" ry="2.5" style="stroke:#181818;stroke-width:0.5;" width="68" x="525.5" y="379.5547"/><ellipse cx="540.5" cy="395.5547" fill="#ADD1B2" rx="11" ry="11" style="stroke:#181818;stroke-width:1.0;"/><path d="M542.9731,401.6978 Q542.3921,401.9966 541.7529,402.146 Q541.1138,402.2954 540.4082,402.2954 Q537.9014,402.2954 536.5815,400.6436 Q535.2617,398.9917 535.2617,395.8706 Q535.2617,392.7412 536.5815,391.0894 Q537.9014,389.4375 540.4082,389.4375 Q541.1138,389.4375 541.7612,389.5869 Q542.4087,389.7363 542.9731,390.0352 L542.9731,392.7578 Q542.3423,392.1768 541.7488,391.907 Q541.1553,391.6372 540.5244,391.6372 Q539.1797,391.6372 538.4949,392.7039 Q537.8101,393.7705 537.8101,395.8706 Q537.8101,397.9624 538.4949,399.0291 Q539.1797,400.0957 540.5244,400.0957 Q541.1553,400.0957 541.7488,399.8259 Q542.3423,399.5562 542.9731,398.9751 Z " fill="#000000"/><text fill="#000000" font-family="sans-serif" font-size="14" lengthAdjust="spacing" textLength="36" x="554.5" y="400.8457">Seats</text><line style="stroke:#181818;stroke-width:0.5;" x1="526.5" x2="592.5" y1="411.5547" y2="411.5547"/><line style="stroke:#181818;stroke-width:0.5;" x1="526.5" x2="592.5" y1="419.5547" y2="419.5547"/></g></a><g id="elem_FloatingNote"><path d="M6,71.5547 L6,319.2129 L421,319.2129 L421,81.5547 L411,71.5547 L6,71.5547 " fill="#FEFFDD" style="stroke:#181818;stroke-width:0.5;"/><path d="M411,71.5547 L411,81.5547 L421,81.5547 L411,71.5547 " fill="#FEFFDD" style="stroke:#181818;stroke-width:1.0;"/><text fill="#000000" font-family="sans-serif" font-size="13" lengthAdjust="spacing" textLength="120" x="12" y="89.123">Your are analyzing:</text><text fill="#000000" font-family="sans-serif" font-size="13" lengthAdjust="spacing" textLength="233" x="12" y="104.4336">Examples.BadDesign.CarExample.Car</text><text fill="#000000" font-family="sans-serif" font-size="13" font-weight="bold" lengthAdjust="spacing" textLength="67" x="249" y="104.4336">simplified</text><text fill="#000000" font-family="sans-serif" font-size="13" lengthAdjust="spacing" textLength="4" x="316" y="104.4336">&#160;</text><text fill="#000000" font-family="sans-serif" font-size="13" lengthAdjust="spacing" textLength="4" x="12" y="119.7441">&#160;</text><text fill="#000000" font-family="sans-serif" font-size="13" lengthAdjust="spacing" textLength="229" x="12" y="150.3652">You can click either the namespaces</text><text fill="#000000" font-family="sans-serif" font-size="13" lengthAdjust="spacing" textLength="266" x="12" y="165.6758">or class names for filtering them and their</text><text fill="#000000" font-family="sans-serif" font-size="13" lengthAdjust="spacing" textLength="130" x="12" y="180.9863">direct dependencies.</text><text fill="#000000" font-family="sans-serif" font-size="13" lengthAdjust="spacing" textLength="4" x="12" y="196.2969">&#160;</text><line style="stroke:#181818;stroke-width:1.0;" x1="7" x2="197.5" y1="130.1416" y2="130.1416"/><line style="stroke:#181818;stroke-width:1.0;" x1="7" x2="197.5" y1="132.1416" y2="132.1416"/><text fill="#000000" font-family="sans-serif" font-size="13" lengthAdjust="spacing" textLength="32" x="197.5" y="134.5547">Filter</text><line style="stroke:#181818;stroke-width:1.0;" x1="229.5" x2="420" y1="130.1416" y2="130.1416"/><line style="stroke:#181818;stroke-width:1.0;" x1="229.5" x2="420" y1="132.1416" y2="132.1416"/><ellipse cx="17.5" cy="226.1602" fill="#000000" rx="2.5" ry="2.5" style="stroke:#000000;stroke-width:0.0;"/><text fill="#000000" font-family="sans-serif" font-size="13" lengthAdjust="spacing" textLength="233" x="24" y="230.918">Examples.BadDesign.CarExample.Car</text><text fill="#000000" font-family="sans-serif" font-size="13" font-weight="bold" lengthAdjust="spacing" textLength="55" x="261" y="230.918">detailed</text><text fill="#000000" font-family="sans-serif" font-size="13" lengthAdjust="spacing" textLength="4" x="320" y="230.918">:</text><text fill="#000000" font-family="sans-serif" font-size="13" lengthAdjust="spacing" textLength="12" x="12" y="246.2285">&#160;&#160;&#160;</text><a href="Examples.BadDesign.CarExample.Car-diagram-detailed.svg" target="_top" title="Examples.BadDesign.CarExample.Car-diagram-detailed.svg" xlink:actuate="onRequest" xlink:href="Examples.BadDesign.CarExample.Car-diagram-detailed.svg" xlink:show="new" xlink:title="Examples.BadDesign.CarExample.Car-diagram-detailed.svg" xlink:type="simple"><text fill="#0000FF" font-family="sans-serif" font-size="13" lengthAdjust="spacing" text-decoration="underline" textLength="376" x="24" y="246.2285">Examples.BadDesign.CarExample.Car-diagram-detailed.svg</text></a><ellipse cx="17.5" cy="256.7813" fill="#000000" rx="2.5" ry="2.5" style="stroke:#000000;stroke-width:0.0;"/><text fill="#000000" font-family="sans-serif" font-size="13" lengthAdjust="spacing" textLength="78" x="24" y="261.5391">Full diagram</text><text fill="#000000" font-family="sans-serif" font-size="13" font-weight="bold" lengthAdjust="spacing" textLength="67" x="106" y="261.5391">simplified</text><text fill="#000000" font-family="sans-serif" font-size="13" lengthAdjust="spacing" textLength="23" x="177" y="261.5391">and</text><text fill="#000000" font-family="sans-serif" font-size="13" font-weight="bold" lengthAdjust="spacing" textLength="166" x="204" y="261.5391">grouped per namespace</text><text fill="#000000" font-family="sans-serif" font-size="13" lengthAdjust="spacing" textLength="4" x="370" y="261.5391">:</text><text fill="#000000" font-family="sans-serif" font-size="13" lengthAdjust="spacing" textLength="12" x="12" y="276.8496">&#160;&#160;&#160;</text><a href="full-diagram-simplified-grouped-per-namespace.svg" target="_top" title="full-diagram-simplified-grouped-per-namespace.svg" xlink:actuate="onRequest" xlink:href="full-diagram-simplified-grouped-per-namespace.svg" xlink:show="new" xlink:title="full-diagram-simplified-grouped-per-namespace.svg" xlink:type="simple"><text fill="#0000FF" font-family="sans-serif" font-size="13" lengthAdjust="spacing" text-decoration="underline" textLength="343" x="24" y="276.8496">full-diagram-simplified-grouped-per-namespace.svg</text></a><ellipse cx="17.5" cy="287.4023" fill="#000000" rx="2.5" ry="2.5" style="stroke:#000000;stroke-width:0.0;"/><text fill="#000000" font-family="sans-serif" font-size="13" lengthAdjust="spacing" textLength="41" x="24" y="292.1602">Home:</text><text fill="#000000" font-family="sans-serif" font-size="13" lengthAdjust="spacing" textLength="12" x="12" y="307.4707">&#160;&#160;&#160;</text><a href="index.html" target="_top" title="index.html" xlink:actuate="onRequest" xlink:href="index.html" xlink:show="new" xlink:title="index.html" xlink:type="simple"><text fill="#0000FF" font-family="sans-serif" font-size="13" lengthAdjust="spacing" text-decoration="underline" textLength="68" x="24" y="307.4707">index.html</text></a><line style="stroke:#181818;stroke-width:1.0;" x1="7" x2="176.5" y1="210.6943" y2="210.6943"/><line style="stroke:#181818;stroke-width:1.0;" x1="7" x2="176.5" y1="212.6943" y2="212.6943"/><text fill="#000000" font-family="sans-serif" font-size="13" lengthAdjust="spacing" textLength="74" x="176.5" y="215.1074">Select other</text><line style="stroke:#181818;stroke-width:1.0;" x1="250.5" x2="420" y1="210.6943" y2="210.6943"/><line style="stroke:#181818;stroke-width:1.0;" x1="250.5" x2="420" y1="212.6943" y2="212.6943"/></g><!--link DB to Car--><g id="link_DB_Car"><path codeLine="21" d="M1022.5,379.1747 C1022.5,321.8947 1022.5,183.5547 1022.5,183.5547 C1022.5,183.5547 811.6,183.5547 811.6,183.5547 " fill="none" id="DB-to-Car" style="stroke:#6060BB;stroke-width:1.0;stroke-dasharray:7.0,7.0;"/><polygon fill="#6060BB" points="806.6,183.5547,815.6,187.5547,811.6,183.5547,815.6,179.5547,806.6,183.5547" style="stroke:#6060BB;stroke-width:1.0;"/><text fill="#000000" font-family="sans-serif" font-size="13" lengthAdjust="spacing" textLength="29" x="984.86" y="180.123">uses</text></g><!--reverse link Car to DB--><g id="link_Car_DB"><path codeLine="30" d="M819.85,195.5547 C819.85,195.5547 1012.5,195.5547 1012.5,195.5547 C1012.5,195.5547 1012.5,324.4147 1012.5,379.2847 " fill="none" id="Car-backto-DB" style="stroke:#10BB10;stroke-width:1.0;"/><polygon fill="#10BB10" points="806.85,195.5547,812.85,199.5547,818.85,195.5547,812.85,191.5547,806.85,195.5547" style="stroke:#10BB10;stroke-width:1.0;"/></g><!--link DB to Driver--><g id="link_DB_Driver"><path codeLine="22" d="M982.19,395.5547 C982.19,395.5547 932.42,395.5547 932.42,395.5547 " fill="none" id="DB-to-Driver" style="stroke:#6060BB;stroke-width:1.0;stroke-dasharray:7.0,7.0;"/><polygon fill="#6060BB" points="927.42,395.5547,936.42,399.5547,932.42,395.5547,936.42,391.5547,927.42,395.5547" style="stroke:#6060BB;stroke-width:1.0;"/><text fill="#000000" font-family="sans-serif" font-size="13" lengthAdjust="spacing" textLength="29" x="927.3" y="392.123">uses</text></g><!--reverse link Driver to DB--><g id="link_Driver_DB"><path codeLine="35" d="M940.19,411.5547 C940.19,411.5547 982.05,411.5547 982.05,411.5547 " fill="none" id="Driver-backto-DB" style="stroke:#10BB10;stroke-width:1.0;"/><polygon fill="#10BB10" points="927.19,411.5547,933.19,415.5547,939.19,411.5547,933.19,407.5547,927.19,411.5547" style="stroke:#10BB10;stroke-width:1.0;"/></g><!--link DB to Wheels--><g id="link_DB_Wheels"><path codeLine="23" d="M1002.5,379.3547 C1002.5,361.2347 1002.5,339.5547 1002.5,339.5547 C1002.5,339.5547 813.5,339.5547 813.5,339.5547 C813.5,339.5547 813.5,373.3547 813.5,373.3547 " fill="none" id="DB-to-Wheels" style="stroke:#6060BB;stroke-width:1.0;stroke-dasharray:7.0,7.0;"/><polygon fill="#6060BB" points="813.5,378.3547,817.5,369.3547,813.5,373.3547,809.5,369.3547,813.5,378.3547" style="stroke:#6060BB;stroke-width:1.0;"/><text fill="#000000" font-family="sans-serif" font-size="13" lengthAdjust="spacing" textLength="29" x="881" y="336.123">uses</text></g><!--reverse link Wheels to DB--><g id="link_Wheels_DB"><path codeLine="36" d="M809.5,365.2347 C809.5,365.2347 809.5,359.5547 809.5,359.5547 C809.5,359.5547 992.5,359.5547 992.5,359.5547 C992.5,359.5547 992.5,369.0647 992.5,379.2347 " fill="none" id="Wheels-backto-DB" style="stroke:#10BB10;stroke-width:1.0;"/><polygon fill="#10BB10" points="809.5,378.2347,813.5,372.2347,809.5,366.2347,805.5,372.2347,809.5,378.2347" style="stroke:#10BB10;stroke-width:1.0;"/></g><!--link DB to Doors--><g id="link_DB_Doors"><path codeLine="24" d="M1012.5,427.8047 C1012.5,432.2747 1012.5,435.5547 1012.5,435.5547 C1012.5,435.5547 677.67,435.5547 677.67,435.5547 C677.67,435.5547 677.67,433.8047 677.67,433.8047 " fill="none" id="DB-to-Doors" style="stroke:#6060BB;stroke-width:1.0;stroke-dasharray:7.0,7.0;"/><polygon fill="#6060BB" points="677.67,428.8047,673.67,437.8047,677.67,433.8047,681.67,437.8047,677.67,428.8047" style="stroke:#6060BB;stroke-width:1.0;"/><text fill="#000000" font-family="sans-serif" font-size="13" lengthAdjust="spacing" textLength="29" x="818.08" y="449.123">uses</text></g><!--reverse link Doors to DB--><g id="link_Doors_DB"><path codeLine="37" d="M653.33,441.1047 C653.33,441.1047 653.33,442.5547 653.33,442.5547 C653.33,442.5547 992.5,442.5547 992.5,442.5547 C992.5,442.5547 992.5,435.8647 992.5,428.0347 " fill="none" id="Doors-backto-DB" style="stroke:#10BB10;stroke-width:1.0;"/><polygon fill="#10BB10" points="653.33,429.0347,649.33,435.0347,653.33,441.0347,657.33,435.0347,653.33,429.0347" style="stroke:#10BB10;stroke-width:1.0;"/></g><!--link DB to Seats--><g id="link_DB_Seats"><path codeLine="25" d="M1022.5,427.9047 C1022.5,438.9347 1022.5,449.5547 1022.5,449.5547 C1022.5,449.5547 570.83,449.5547 570.83,449.5547 C570.83,449.5547 570.83,433.9047 570.83,433.9047 " fill="none" id="DB-to-Seats" style="stroke:#6060BB;stroke-width:1.0;stroke-dasharray:7.0,7.0;"/><polygon fill="#6060BB" points="570.83,428.9047,566.83,437.9047,570.83,433.9047,574.83,437.9047,570.83,428.9047" style="stroke:#6060BB;stroke-width:1.0;"/><text fill="#000000" font-family="sans-serif" font-size="13" lengthAdjust="spacing" textLength="29" x="769.67" y="446.123">uses</text></g><!--reverse link Seats to DB--><g id="link_Seats_DB"><path codeLine="38" d="M548.17,441.8847 C548.17,441.8847 548.17,456.5547 548.17,456.5547 C548.17,456.5547 1002.5,456.5547 1002.5,456.5547 C1002.5,456.5547 1002.5,441.8147 1002.5,427.8847 " fill="none" id="Seats-backto-DB" style="stroke:#10BB10;stroke-width:1.0;"/><polygon fill="#10BB10" points="548.17,428.8847,544.17,434.8847,548.17,440.8847,552.17,434.8847,548.17,428.8847" style="stroke:#10BB10;stroke-width:1.0;"/></g><!--reverse link Driver to Car--><g id="link_Driver_Car"><path codeLine="28" d="M889.5,358.1247 C889.5,358.1247 889.5,207.5547 889.5,207.5547 C889.5,207.5547 838.94,207.5547 805.76,207.5547 " fill="none" id="Driver-backto-Car" style="stroke:#FF0000;stroke-width:1.0;"/><polygon fill="none" points="896.5,358.1247,889.5,378.1247,882.5,358.1247,896.5,358.1247" style="stroke:#FF0000;stroke-width:1.0;"/></g><!--reverse link Car to Wheels--><g id="link_Car_Wheels"><path codeLine="29" d="M777.5,233.8247 C777.5,233.8247 777.5,379.1247 777.5,379.1247 " fill="none" id="Car-backto-Wheels" style="stroke:#10BB10;stroke-width:1.0;"/><polygon fill="#10BB10" points="777.5,220.8247,773.5,226.8247,777.5,232.8247,781.5,226.8247,777.5,220.8247" style="stroke:#10BB10;stroke-width:1.0;"/></g><!--link Car to Doors--><g id="link_Car_Doors"><path codeLine="31" d="M749.24,203.5547 C716.06,203.5547 665.5,203.5547 665.5,203.5547 C665.5,203.5547 665.5,373.4347 665.5,373.4347 " fill="none" id="Car-to-Doors" style="stroke:#6060BB;stroke-width:1.0;stroke-dasharray:7.0,7.0;"/><polygon fill="#6060BB" points="665.5,378.4347,669.5,369.4347,665.5,373.4347,661.5,369.4347,665.5,378.4347" style="stroke:#6060BB;stroke-width:1.0;"/><text fill="#000000" font-family="sans-serif" font-size="13" lengthAdjust="spacing" textLength="29" x="635.5" y="243.193">uses</text></g><!--link Car to Seats--><g id="link_Car_Seats"><path codeLine="32" d="M749,187.5547 C689.91,187.5547 559.5,187.5547 559.5,187.5547 C559.5,187.5547 559.5,373.1947 559.5,373.1947 " fill="none" id="Car-to-Seats" style="stroke:#909090;stroke-width:1.0;"/><polygon fill="#909090" points="559.5,378.1947,563.5,369.1947,559.5,373.1947,555.5,369.1947,559.5,378.1947" style="stroke:#909090;stroke-width:1.0;"/><text fill="#000000" font-family="sans-serif" font-size="13" lengthAdjust="spacing" textLength="29" x="531.43" y="184.123">uses</text></g><!--SRC=[pLLDZzem4BtdLuoMmqgHah8zh5G47B8KzLHLsaDLGGvMCe2rZXtPPWlRzhztya5OM5ISDf4Qb2WVC-yzlvanvedBd6cMWU0IxJv7KDfkb6Uv5GXZmrzmz7uu_RXZMIxGX15BPsZuMeOFJDTlYrlmVSFfWQyufhuFutT5wjIJoYBSV5DR3KmZCCd4_eNBzMWfMsCkvL9E9dCkBEh9P2a95H8c8H4yUGBaTeCQw0AIPMXobg2X7AKfW1bJlOKLFQzA259HH6SaAYrkk5xAb6jCBAIOeqnH9fpaLRIFA8elgY0fo7rmqP-YPLoKwcd50B1ON4qBKixML9BWa1oQvtKS5vJphH1GVpvtfrY5xw-rskQOGavMD3Ru_e5yHG0D_Z4zgDC2IWkQj2Fl9vNX0OAJCRjmOpCHnpV03Co5OfRC_4obzg0s-y8gPz7brS-Y2uegRe0VXFYBpZ_WdfdUnk4tV8Cz2g6-bxG7OcVgBqnR4yuqVqOd6Q_ZhrZmrsg-RX25SLTJnVUbPgQKRY6c3EzBooCosq9B6UwcvPRcqEc0tc9luQ7qGgEWsLJI0EwiPecbhM6bLNRS6qOK-zO2x_ByXel1_V1-64LnE7KOHHZ1rj2UsmdQoNJrW5nFIX-Qowxl0RXguGRuNul-YiDhLuxnps0nq9Z6mNNfdiF_9g7TaHLtGnV0a_9rW4x5S43ffn7EI4ZfXs7nYuF_e2aQZfRTqOdX9rNk4B6gIOU0bVyEWBy1]--></g></svg>