<?xml version="1.0" encoding="us-ascii" standalone="no"?><svg xmlns="http://www.w3.org/2000/svg" xmlns:xlink="http://www.w3.org/1999/xlink" contentStyleType="text/css" height="477px" preserveAspectRatio="none" style="width:1294px;height:477px;background:#FFFFFF;" version="1.1" viewBox="0 0 1294 477" width="1294px" zoomAndPan="magnify"><defs/><g><text fill="#000000" font-family="sans-serif" font-size="20" font-weight="bold" lengthAdjust="spacing" textLength="383" x="242.75" y="29.3359">Examples.BetterDesign.FakeEntitities</text><text fill="#000000" font-family="sans-serif" font-size="20" font-weight="bold" lengthAdjust="spacing" textLength="104" x="632.75" y="29.3359">simplified</text><text fill="#000000" font-family="sans-serif" font-size="20" font-weight="bold" lengthAdjust="spacing" textLength="38" x="743.75" y="29.3359">and</text><text fill="#000000" font-family="sans-serif" font-size="20" font-weight="bold" lengthAdjust="spacing" textLength="249" x="788.75" y="29.3359">grouped per namespace</text><!--cluster Examples--><g id="cluster_Examples"><a href="Examples-diagram-simplified-grouped-per-namespace.svg" target="_top" title="Examples-diagram-simplified-grouped-per-namespace.svg" xlink:actuate="onRequest" xlink:href="Examples-diagram-simplified-grouped-per-namespace.svg" xlink:show="new" xlink:title="Examples-diagram-simplified-grouped-per-namespace.svg" xlink:type="simple"><path d="M606,72.5547 L675,72.5547 A3.75,3.75 0 0 1 677.5,75.0547 L684.5,95.043 L1285,95.043 A2.5,2.5 0 0 1 1287.5,97.543 L1287.5,468.0547 A2.5,2.5 0 0 1 1285,470.5547 L606,470.5547 A2.5,2.5 0 0 1 603.5,468.0547 L603.5,75.0547 A2.5,2.5 0 0 1 606,72.5547 " fill="none" style="stroke:#000000;stroke-width:1.5;"/><line style="stroke:#000000;stroke-width:1.5;" x1="603.5" x2="684.5" y1="95.043" y2="95.043"/><text fill="#000000" font-family="sans-serif" font-size="14" font-weight="bold" lengthAdjust="spacing" textLength="68" x="607.5" y="88.0898">Examples</text></a></g><!--cluster BetterDesign--><g id="cluster_BetterDesign"><a href="Examples.BetterDesign-diagram-simplified-grouped-per-namespace.svg" target="_top" title="Examples.BetterDesign-diagram-simplified-grouped-per-namespace.svg" xlink:actuate="onRequest" xlink:href="Examples.BetterDesign-diagram-simplified-grouped-per-namespace.svg" xlink:show="new" xlink:title="Examples.BetterDesign-diagram-simplified-grouped-per-namespace.svg" xlink:type="simple"><path d="M630,115.5547 L724,115.5547 A3.75,3.75 0 0 1 726.5,118.0547 L733.5,138.043 L1261,138.043 A2.5,2.5 0 0 1 1263.5,140.543 L1263.5,444.0547 A2.5,2.5 0 0 1 1261,446.5547 L630,446.5547 A2.5,2.5 0 0 1 627.5,444.0547 L627.5,118.0547 A2.5,2.5 0 0 1 630,115.5547 " fill="none" style="stroke:#000000;stroke-width:1.5;"/><line style="stroke:#000000;stroke-width:1.5;" x1="627.5" x2="733.5" y1="138.043" y2="138.043"/><text fill="#000000" font-family="sans-serif" font-size="14" font-weight="bold" lengthAdjust="spacing" textLength="93" x="631.5" y="131.0898">BetterDesign</text></a></g><!--cluster FakeEntitities--><g id="cluster_FakeEntitities"><a href="Examples.BetterDesign.FakeEntitities-diagram-simplified-grouped-per-namespace.svg" target="_top" title="Examples.BetterDesign.FakeEntitities-diagram-simplified-grouped-per-namespace.svg" xlink:actuate="onRequest" xlink:href="Examples.BetterDesign.FakeEntitities-diagram-simplified-grouped-per-namespace.svg" xlink:show="new" xlink:title="Examples.BetterDesign.FakeEntitities-diagram-simplified-grouped-per-namespace.svg" xlink:type="simple"><path d="M654,323.5547 L754,323.5547 A3.75,3.75 0 0 1 756.5,326.0547 L763.5,346.043 L1237,346.043 A2.5,2.5 0 0 1 1239.5,348.543 L1239.5,420.0547 A2.5,2.5 0 0 1 1237,422.5547 L654,422.5547 A2.5,2.5 0 0 1 651.5,420.0547 L651.5,326.0547 A2.5,2.5 0 0 1 654,323.5547 " fill="none" style="stroke:#000000;stroke-width:1.5;"/><line style="stroke:#000000;stroke-width:1.5;" x1="651.5" x2="763.5" y1="346.043" y2="346.043"/><text fill="#000000" font-family="sans-serif" font-size="14" font-weight="bold" lengthAdjust="spacing" textLength="99" x="655.5" y="339.0898">FakeEntitities</text></a></g><!--class DBCustomers--><a href="Examples.BetterDesign.DBCustomers-diagram-simplified-grouped-per-namespace.svg" target="_top" title="Examples.BetterDesign.DBCustomers-diagram-simplified-grouped-per-namespace.svg" xlink:actuate="onRequest" xlink:href="Examples.BetterDesign.DBCustomers-diagram-simplified-grouped-per-namespace.svg" xlink:show="new" xlink:title="Examples.BetterDesign.DBCustomers-diagram-simplified-grouped-per-namespace.svg" xlink:type="simple"><g id="elem_DBCustomers"><rect codeLine="6" fill="#F1F1F1" height="48" id="DBCustomers" rx="2.5" ry="2.5" style="stroke:#181818;stroke-width:0.5;" width="124" x="910.5" y="150.5547"/><ellipse cx="925.5" cy="166.5547" fill="#ADD1B2" rx="11" ry="11" style="stroke:#181818;stroke-width:1.0;"/><path d="M927.9731,172.6978 Q927.3921,172.9966 926.7529,173.146 Q926.1138,173.2954 925.4082,173.2954 Q922.9014,173.2954 921.5815,171.6436 Q920.2617,169.9917 920.2617,166.8706 Q920.2617,163.7412 921.5815,162.0894 Q922.9014,160.4375 925.4082,160.4375 Q926.1138,160.4375 926.7612,160.5869 Q927.4087,160.7363 927.9731,161.0352 L927.9731,163.7578 Q927.3423,163.1768 926.7488,162.907 Q926.1553,162.6372 925.5244,162.6372 Q924.1797,162.6372 923.4949,163.7039 Q922.8101,164.7705 922.8101,166.8706 Q922.8101,168.9624 923.4949,170.0291 Q924.1797,171.0957 925.5244,171.0957 Q926.1553,171.0957 926.7488,170.8259 Q927.3423,170.5562 927.9731,169.9751 Z " fill="#000000"/><text fill="#000000" font-family="sans-serif" font-size="14" lengthAdjust="spacing" textLength="92" x="939.5" y="171.8457">DBCustomers</text><line style="stroke:#181818;stroke-width:0.5;" x1="911.5" x2="1033.5" y1="182.5547" y2="182.5547"/><line style="stroke:#181818;stroke-width:0.5;" x1="911.5" x2="1033.5" y1="190.5547" y2="190.5547"/></g></a><!--class Item--><a href="Examples.BetterDesign.FakeEntitities.Item-diagram-simplified-grouped-per-namespace.svg" target="_top" title="Examples.BetterDesign.FakeEntitities.Item-diagram-simplified-grouped-per-namespace.svg" xlink:actuate="onRequest" xlink:href="Examples.BetterDesign.FakeEntitities.Item-diagram-simplified-grouped-per-namespace.svg" xlink:show="new" xlink:title="Examples.BetterDesign.FakeEntitities.Item-diagram-simplified-grouped-per-namespace.svg" xlink:type="simple"><g id="elem_Item"><rect codeLine="17" fill="#FFFF00" height="48" id="Item" rx="2.5" ry="2.5" style="stroke:#181818;stroke-width:0.5;" width="62" x="1161.5" y="358.5547"/><ellipse cx="1176.5" cy="374.5547" fill="#ADD1B2" rx="11" ry="11" style="stroke:#181818;stroke-width:1.0;"/><path d="M1178.9731,380.6978 Q1178.3921,380.9966 1177.7529,381.146 Q1177.1138,381.2954 1176.4082,381.2954 Q1173.9014,381.2954 1172.5815,379.6436 Q1171.2617,377.9917 1171.2617,374.8706 Q1171.2617,371.7412 1172.5815,370.0894 Q1173.9014,368.4375 1176.4082,368.4375 Q1177.1138,368.4375 1177.7612,368.5869 Q1178.4087,368.7363 1178.9731,369.0352 L1178.9731,371.7578 Q1178.3423,371.1768 1177.7488,370.907 Q1177.1553,370.6372 1176.5244,370.6372 Q1175.1797,370.6372 1174.4949,371.7039 Q1173.8101,372.7705 1173.8101,374.8706 Q1173.8101,376.9624 1174.4949,378.0291 Q1175.1797,379.0957 1176.5244,379.0957 Q1177.1553,379.0957 1177.7488,378.8259 Q1178.3423,378.5562 1178.9731,377.9751 Z " fill="#000000"/><text fill="#000000" font-family="sans-serif" font-size="14" lengthAdjust="spacing" textLength="30" x="1190.5" y="379.8457">Item</text><line style="stroke:#181818;stroke-width:0.5;" x1="1162.5" x2="1222.5" y1="390.5547" y2="390.5547"/><line style="stroke:#181818;stroke-width:0.5;" x1="1162.5" x2="1222.5" y1="398.5547" y2="398.5547"/></g></a><!--class User--><a href="Examples.BetterDesign.FakeEntitities.User-diagram-simplified-grouped-per-namespace.svg" target="_top" title="Examples.BetterDesign.FakeEntitities.User-diagram-simplified-grouped-per-namespace.svg" xlink:actuate="onRequest" xlink:href="Examples.BetterDesign.FakeEntitities.User-diagram-simplified-grouped-per-namespace.svg" xlink:show="new" xlink:title="Examples.BetterDesign.FakeEntitities.User-diagram-simplified-grouped-per-namespace.svg" xlink:type="simple"><g id="elem_User"><rect codeLine="19" fill="#FFFF00" height="48" id="User" rx="2.5" ry="2.5" style="stroke:#181818;stroke-width:0.5;" width="63" x="1063" y="358.5547"/><ellipse cx="1078" cy="374.5547" fill="#ADD1B2" rx="11" ry="11" style="stroke:#181818;stroke-width:1.0;"/><path d="M1080.4731,380.6978 Q1079.8921,380.9966 1079.2529,381.146 Q1078.6138,381.2954 1077.9082,381.2954 Q1075.4014,381.2954 1074.0815,379.6436 Q1072.7617,377.9917 1072.7617,374.8706 Q1072.7617,371.7412 1074.0815,370.0894 Q1075.4014,368.4375 1077.9082,368.4375 Q1078.6138,368.4375 1079.2612,368.5869 Q1079.9087,368.7363 1080.4731,369.0352 L1080.4731,371.7578 Q1079.8423,371.1768 1079.2488,370.907 Q1078.6553,370.6372 1078.0244,370.6372 Q1076.6797,370.6372 1075.9949,371.7039 Q1075.3101,372.7705 1075.3101,374.8706 Q1075.3101,376.9624 1075.9949,378.0291 Q1076.6797,379.0957 1078.0244,379.0957 Q1078.6553,379.0957 1079.2488,378.8259 Q1079.8423,378.5562 1080.4731,377.9751 Z " fill="#000000"/><text fill="#000000" font-family="sans-serif" font-size="14" lengthAdjust="spacing" textLength="31" x="1092" y="379.8457">User</text><line style="stroke:#181818;stroke-width:0.5;" x1="1064" x2="1125" y1="390.5547" y2="390.5547"/><line style="stroke:#181818;stroke-width:0.5;" x1="1064" x2="1125" y1="398.5547" y2="398.5547"/></g></a><!--class Complaints--><a href="Examples.BetterDesign.FakeEntitities.Complaints-diagram-simplified-grouped-per-namespace.svg" target="_top" title="Examples.BetterDesign.FakeEntitities.Complaints-diagram-simplified-grouped-per-namespace.svg" xlink:actuate="onRequest" xlink:href="Examples.BetterDesign.FakeEntitities.Complaints-diagram-simplified-grouped-per-namespace.svg" xlink:show="new" xlink:title="Examples.BetterDesign.FakeEntitities.Complaints-diagram-simplified-grouped-per-namespace.svg" xlink:type="simple"><g id="elem_Complaints"><rect codeLine="21" fill="#FFFF00" height="48" id="Complaints" rx="2.5" ry="2.5" style="stroke:#181818;stroke-width:0.5;" width="110" x="917.5" y="358.5547"/><ellipse cx="932.5" cy="374.5547" fill="#ADD1B2" rx="11" ry="11" style="stroke:#181818;stroke-width:1.0;"/><path d="M934.9731,380.6978 Q934.3921,380.9966 933.7529,381.146 Q933.1138,381.2954 932.4082,381.2954 Q929.9014,381.2954 928.5815,379.6436 Q927.2617,377.9917 927.2617,374.8706 Q927.2617,371.7412 928.5815,370.0894 Q929.9014,368.4375 932.4082,368.4375 Q933.1138,368.4375 933.7612,368.5869 Q934.4087,368.7363 934.9731,369.0352 L934.9731,371.7578 Q934.3423,371.1768 933.7488,370.907 Q933.1553,370.6372 932.5244,370.6372 Q931.1797,370.6372 930.4949,371.7039 Q929.8101,372.7705 929.8101,374.8706 Q929.8101,376.9624 930.4949,378.0291 Q931.1797,379.0957 932.5244,379.0957 Q933.1553,379.0957 933.7488,378.8259 Q934.3423,378.5562 934.9731,377.9751 Z " fill="#000000"/><text fill="#000000" font-family="sans-serif" font-size="14" lengthAdjust="spacing" textLength="78" x="946.5" y="379.8457">Complaints</text><line style="stroke:#181818;stroke-width:0.5;" x1="918.5" x2="1026.5" y1="390.5547" y2="390.5547"/><line style="stroke:#181818;stroke-width:0.5;" x1="918.5" x2="1026.5" y1="398.5547" y2="398.5547"/></g></a><!--class Invoice--><a href="Examples.BetterDesign.FakeEntitities.Invoice-diagram-simplified-grouped-per-namespace.svg" target="_top" title="Examples.BetterDesign.FakeEntitities.Invoice-diagram-simplified-grouped-per-namespace.svg" xlink:actuate="onRequest" xlink:href="Examples.BetterDesign.FakeEntitities.Invoice-diagram-simplified-grouped-per-namespace.svg" xlink:show="new" xlink:title="Examples.BetterDesign.FakeEntitities.Invoice-diagram-simplified-grouped-per-namespace.svg" xlink:type="simple"><g id="elem_Invoice"><rect codeLine="23" fill="#FFFF00" height="48" id="Invoice" rx="2.5" ry="2.5" style="stroke:#181818;stroke-width:0.5;" width="80" x="802.5" y="358.5547"/><ellipse cx="817.5" cy="374.5547" fill="#ADD1B2" rx="11" ry="11" style="stroke:#181818;stroke-width:1.0;"/><path d="M819.9731,380.6978 Q819.3921,380.9966 818.7529,381.146 Q818.1138,381.2954 817.4082,381.2954 Q814.9014,381.2954 813.5815,379.6436 Q812.2617,377.9917 812.2617,374.8706 Q812.2617,371.7412 813.5815,370.0894 Q814.9014,368.4375 817.4082,368.4375 Q818.1138,368.4375 818.7612,368.5869 Q819.4087,368.7363 819.9731,369.0352 L819.9731,371.7578 Q819.3423,371.1768 818.7488,370.907 Q818.1553,370.6372 817.5244,370.6372 Q816.1797,370.6372 815.4949,371.7039 Q814.8101,372.7705 814.8101,374.8706 Q814.8101,376.9624 815.4949,378.0291 Q816.1797,379.0957 817.5244,379.0957 Q818.1553,379.0957 818.7488,378.8259 Q819.3423,378.5562 819.9731,377.9751 Z " fill="#000000"/><text fill="#000000" font-family="sans-serif" font-size="14" lengthAdjust="spacing" textLength="48" x="831.5" y="379.8457">Invoice</text><line style="stroke:#181818;stroke-width:0.5;" x1="803.5" x2="881.5" y1="390.5547" y2="390.5547"/><line style="stroke:#181818;stroke-width:0.5;" x1="803.5" x2="881.5" y1="398.5547" y2="398.5547"/></g></a><!--class Customer--><a href="Examples.BetterDesign.FakeEntitities.Customer-diagram-simplified-grouped-per-namespace.svg" target="_top" title="Examples.BetterDesign.FakeEntitities.Customer-diagram-simplified-grouped-per-namespace.svg" xlink:actuate="onRequest" xlink:href="Examples.BetterDesign.FakeEntitities.Customer-diagram-simplified-grouped-per-namespace.svg" xlink:show="new" xlink:title="Examples.BetterDesign.FakeEntitities.Customer-diagram-simplified-grouped-per-namespace.svg" xlink:type="simple"><g id="elem_Customer"><rect codeLine="25" fill="#FFFF00" height="48" id="Customer" rx="2.5" ry="2.5" style="stroke:#181818;stroke-width:0.5;" width="99" x="668" y="358.5547"/><ellipse cx="683" cy="374.5547" fill="#ADD1B2" rx="11" ry="11" style="stroke:#181818;stroke-width:1.0;"/><path d="M685.4731,380.6978 Q684.8921,380.9966 684.2529,381.146 Q683.6138,381.2954 682.9082,381.2954 Q680.4014,381.2954 679.0815,379.6436 Q677.7617,377.9917 677.7617,374.8706 Q677.7617,371.7412 679.0815,370.0894 Q680.4014,368.4375 682.9082,368.4375 Q683.6138,368.4375 684.2612,368.5869 Q684.9087,368.7363 685.4731,369.0352 L685.4731,371.7578 Q684.8423,371.1768 684.2488,370.907 Q683.6553,370.6372 683.0244,370.6372 Q681.6797,370.6372 680.9949,371.7039 Q680.3101,372.7705 680.3101,374.8706 Q680.3101,376.9624 680.9949,378.0291 Q681.6797,379.0957 683.0244,379.0957 Q683.6553,379.0957 684.2488,378.8259 Q684.8423,378.5562 685.4731,377.9751 Z " fill="#000000"/><text fill="#000000" font-family="sans-serif" font-size="14" lengthAdjust="spacing" textLength="67" x="697" y="379.8457">Customer</text><line style="stroke:#181818;stroke-width:0.5;" x1="669" x2="766" y1="390.5547" y2="390.5547"/><line style="stroke:#181818;stroke-width:0.5;" x1="669" x2="766" y1="398.5547" y2="398.5547"/></g></a><g id="elem_FloatingNote"><path d="M6,50.5547 L6,298.2129 L587,298.2129 L587,60.5547 L577,50.5547 L6,50.5547 " fill="#FEFFDD" style="stroke:#181818;stroke-width:0.5;"/><path d="M577,50.5547 L577,60.5547 L587,60.5547 L577,50.5547 " fill="#FEFFDD" style="stroke:#181818;stroke-width:1.0;"/><text fill="#000000" font-family="sans-serif" font-size="13" lengthAdjust="spacing" textLength="120" x="12" y="68.123">Your are analyzing:</text><text fill="#000000" font-family="sans-serif" font-size="13" lengthAdjust="spacing" textLength="233" x="12" y="83.4336">Examples.BetterDesign.FakeEntitities</text><text fill="#000000" font-family="sans-serif" font-size="13" font-weight="bold" lengthAdjust="spacing" textLength="67" x="249" y="83.4336">simplified</text><text fill="#000000" font-family="sans-serif" font-size="13" lengthAdjust="spacing" textLength="23" x="320" y="83.4336">and</text><text fill="#000000" font-family="sans-serif" font-size="13" font-weight="bold" lengthAdjust="spacing" textLength="166" x="347" y="83.4336">grouped per namespace</text><text fill="#000000" font-family="sans-serif" font-size="13" lengthAdjust="spacing" textLength="4" x="12" y="98.7441">&#160;</text><text fill="#000000" font-family="sans-serif" font-size="13" lengthAdjust="spacing" textLength="229" x="12" y="129.3652">You can click either the namespaces</text><text fill="#000000" font-family="sans-serif" font-size="13" lengthAdjust="spacing" textLength="266" x="12" y="144.6758">or class names for filtering them and their</text><text fill="#000000" font-family="sans-serif" font-size="13" lengthAdjust="spacing" textLength="130" x="12" y="159.9863">direct dependencies.</text><text fill="#000000" font-family="sans-serif" font-size="13" lengthAdjust="spacing" textLength="4" x="12" y="175.2969">&#160;</text><line style="stroke:#181818;stroke-width:1.0;" x1="7" x2="280.5" y1="109.1416" y2="109.1416"/><line style="stroke:#181818;stroke-width:1.0;" x1="7" x2="280.5" y1="111.1416" y2="111.1416"/><text fill="#000000" font-family="sans-serif" font-size="13" lengthAdjust="spacing" textLength="32" x="280.5" y="113.5547">Filter</text><line style="stroke:#181818;stroke-width:1.0;" x1="312.5" x2="586" y1="109.1416" y2="109.1416"/><line style="stroke:#181818;stroke-width:1.0;" x1="312.5" x2="586" y1="111.1416" y2="111.1416"/><ellipse cx="17.5" cy="205.1602" fill="#000000" rx="2.5" ry="2.5" style="stroke:#000000;stroke-width:0.0;"/><text fill="#000000" font-family="sans-serif" font-size="13" lengthAdjust="spacing" textLength="233" x="24" y="209.918">Examples.BetterDesign.FakeEntitities</text><text fill="#000000" font-family="sans-serif" font-size="13" font-weight="bold" lengthAdjust="spacing" textLength="55" x="261" y="209.918">detailed</text><text fill="#000000" font-family="sans-serif" font-size="13" lengthAdjust="spacing" textLength="23" x="320" y="209.918">and</text><text fill="#000000" font-family="sans-serif" font-size="13" font-weight="bold" lengthAdjust="spacing" textLength="166" x="347" y="209.918">grouped per namespace</text><text fill="#000000" font-family="sans-serif" font-size="13" lengthAdjust="spacing" textLength="4" x="513" y="209.918">:</text><text fill="#000000" font-family="sans-serif" font-size="13" lengthAdjust="spacing" textLength="12" x="12" y="225.2285">&#160;&#160;&#160;</text><a href="Examples.BetterDesign.FakeEntitities-diagram-detailed-grouped-per-namespace.svg" target="_top" title="Examples.BetterDesign.FakeEntitities-diagram-detailed-grouped-per-namespace.svg" xlink:actuate="onRequest" xlink:href="Examples.BetterDesign.FakeEntitities-diagram-detailed-grouped-per-namespace.svg" xlink:show="new" xlink:title="Examples.BetterDesign.FakeEntitities-diagram-detailed-grouped-per-namespace.svg" xlink:type="simple"><text fill="#0000FF" font-family="sans-serif" font-size="13" lengthAdjust="spacing" text-decoration="underline" textLength="542" x="24" y="225.2285">Examples.BetterDesign.FakeEntitities-diagram-detailed-grouped-per-namespace.svg</text></a><ellipse cx="17.5" cy="235.7813" fill="#000000" rx="2.5" ry="2.5" style="stroke:#000000;stroke-width:0.0;"/><text fill="#000000" font-family="sans-serif" font-size="13" lengthAdjust="spacing" textLength="78" x="24" y="240.5391">Full diagram</text><text fill="#000000" font-family="sans-serif" font-size="13" font-weight="bold" lengthAdjust="spacing" textLength="67" x="106" y="240.5391">simplified</text><text fill="#000000" font-family="sans-serif" font-size="13" lengthAdjust="spacing" textLength="23" x="177" y="240.5391">and</text><text fill="#000000" font-family="sans-serif" font-size="13" font-weight="bold" lengthAdjust="spacing" textLength="166" x="204" y="240.5391">grouped per namespace</text><text fill="#000000" font-family="sans-serif" font-size="13" lengthAdjust="spacing" textLength="4" x="370" y="240.5391">:</text><text fill="#000000" font-family="sans-serif" font-size="13" lengthAdjust="spacing" textLength="12" x="12" y="255.8496">&#160;&#160;&#160;</text><a href="full-diagram-simplified-grouped-per-namespace.svg" target="_top" title="full-diagram-simplified-grouped-per-namespace.svg" xlink:actuate="onRequest" xlink:href="full-diagram-simplified-grouped-per-namespace.svg" xlink:show="new" xlink:title="full-diagram-simplified-grouped-per-namespace.svg" xlink:type="simple"><text fill="#0000FF" font-family="sans-serif" font-size="13" lengthAdjust="spacing" text-decoration="underline" textLength="343" x="24" y="255.8496">full-diagram-simplified-grouped-per-namespace.svg</text></a><ellipse cx="17.5" cy="266.4023" fill="#000000" rx="2.5" ry="2.5" style="stroke:#000000;stroke-width:0.0;"/><text fill="#000000" font-family="sans-serif" font-size="13" lengthAdjust="spacing" textLength="41" x="24" y="271.1602">Home:</text><text fill="#000000" font-family="sans-serif" font-size="13" lengthAdjust="spacing" textLength="12" x="12" y="286.4707">&#160;&#160;&#160;</text><a href="index.html" target="_top" title="index.html" xlink:actuate="onRequest" xlink:href="index.html" xlink:show="new" xlink:title="index.html" xlink:type="simple"><text fill="#0000FF" font-family="sans-serif" font-size="13" lengthAdjust="spacing" text-decoration="underline" textLength="68" x="24" y="286.4707">index.html</text></a><line style="stroke:#181818;stroke-width:1.0;" x1="7" x2="259.5" y1="189.6943" y2="189.6943"/><line style="stroke:#181818;stroke-width:1.0;" x1="7" x2="259.5" y1="191.6943" y2="191.6943"/><text fill="#000000" font-family="sans-serif" font-size="13" lengthAdjust="spacing" textLength="74" x="259.5" y="194.1074">Select other</text><line style="stroke:#181818;stroke-width:1.0;" x1="333.5" x2="586" y1="189.6943" y2="189.6943"/><line style="stroke:#181818;stroke-width:1.0;" x1="333.5" x2="586" y1="191.6943" y2="191.6943"/></g><!--link DBCustomers to Customer--><g id="link_DBCustomers_Customer"><path codeLine="40" d="M910.12,174.5547 C834.63,174.5547 717.5,174.5547 717.5,174.5547 C717.5,174.5547 717.5,352.2847 717.5,352.2847 " fill="none" id="DBCustomers-to-Customer" style="stroke:#6060BB;stroke-width:1.0;stroke-dasharray:7.0,7.0;"/><polygon fill="#6060BB" points="717.5,357.2847,721.5,348.2847,717.5,352.2847,713.5,348.2847,717.5,357.2847" style="stroke:#6060BB;stroke-width:1.0;"/><text fill="#000000" font-family="sans-serif" font-size="13" lengthAdjust="spacing" textLength="29" x="694.94" y="171.123">uses</text></g><!--link DBCustomers to Invoice--><g id="link_DBCustomers_Invoice"><path codeLine="41" d="M914,198.8247 C914,253.6947 914,382.5547 914,382.5547 C914,382.5547 888.85,382.5547 888.85,382.5547 " fill="none" id="DBCustomers-to-Invoice" style="stroke:#6060BB;stroke-width:1.0;stroke-dasharray:7.0,7.0;"/><polygon fill="#6060BB" points="883.85,382.5547,892.85,386.5547,888.85,382.5547,892.85,378.5547,883.85,382.5547" style="stroke:#6060BB;stroke-width:1.0;"/><text fill="#000000" font-family="sans-serif" font-size="13" lengthAdjust="spacing" textLength="29" x="884" y="299.833">uses</text></g><!--link DBCustomers to Item--><g id="link_DBCustomers_Item"><path codeLine="42" d="M1034.95,174.5547 C1100,174.5547 1192.5,174.5547 1192.5,174.5547 C1192.5,174.5547 1192.5,352.2847 1192.5,352.2847 " fill="none" id="DBCustomers-to-Item" style="stroke:#6060BB;stroke-width:1.0;stroke-dasharray:7.0,7.0;"/><polygon fill="#6060BB" points="1192.5,357.2847,1196.5,348.2847,1192.5,352.2847,1188.5,348.2847,1192.5,357.2847" style="stroke:#6060BB;stroke-width:1.0;"/><text fill="#000000" font-family="sans-serif" font-size="13" lengthAdjust="spacing" textLength="29" x="1162.5" y="181.213">uses</text></g><!--link DBCustomers to Complaints--><g id="link_DBCustomers_Complaints"><path codeLine="43" d="M972.5,198.8247 C972.5,198.8247 972.5,352.1247 972.5,352.1247 " fill="none" id="DBCustomers-to-Complaints" style="stroke:#6060BB;stroke-width:1.0;stroke-dasharray:7.0,7.0;"/><polygon fill="#6060BB" points="972.5,357.1247,976.5,348.1247,972.5,352.1247,968.5,348.1247,972.5,357.1247" style="stroke:#6060BB;stroke-width:1.0;"/><text fill="#000000" font-family="sans-serif" font-size="13" lengthAdjust="spacing" textLength="29" x="942.5" y="272.043">uses</text></g><!--link DBCustomers to User--><g id="link_DBCustomers_User"><path codeLine="44" d="M1031,198.8247 C1031,253.6947 1031,382.5547 1031,382.5547 C1031,382.5547 1056.75,382.5547 1056.75,382.5547 " fill="none" id="DBCustomers-to-User" style="stroke:#6060BB;stroke-width:1.0;stroke-dasharray:7.0,7.0;"/><polygon fill="#6060BB" points="1061.75,382.5547,1052.75,378.5547,1056.75,382.5547,1052.75,386.5547,1061.75,382.5547" style="stroke:#6060BB;stroke-width:1.0;"/><text fill="#000000" font-family="sans-serif" font-size="13" lengthAdjust="spacing" textLength="29" x="1001" y="300.133">uses</text></g><!--SRC=[rLPDRzf04BtpAqR98P8bNDH33YXmW0Grbrog7YgCqCOUmuhrhhMx9f2A_zvPOuo9eDXge2eW1FRCl3TVpsiMNAPCimG4bsZNAOBITgvQbbk1y63uEtQ_TlfFAvQa0eq_G6jHFwBXC-cFs0AV99dI6mrudk5anMEEaUS1an5TcccLfHX1YXeaIz2aB4JFU_ZYGlTRKbc4cvygqy0qaWyJwtSkPzr0VZfc80FPwusue6YzNY095K8c8HGyN01oEoTx-jhx60YaqcJ0ZDbUXPZ-nta8OkcianoKVd0To8Xh32r4cAACK8P4qT_2VaVXxYW7ui0zg9bVX9PnSJuxgXW0ZCTrmhOZpcRKzVOkUBi8sgQWxJAeRvQpoSHn7ML2GE7KgEOxLZ45A57txkTmlwa4To4uLNJbpsqY9fCRO0P6GZ5BNNYX6MgLpcLTAxLeY0o_ZeGxgEUfEZS7WcAwZhVjSJ3CZAKYQ7EojHMRfl0v_gPrDrG9gG1rxrffmnjj6r3Y5cWl4fIq6J7aN60eb76xnMZaKerBhZ8pDTdhj8mo5PmSzrnVb4HunP1b1jro5ZfYk07wn5noCyV8hyJU-rRJQ6sEcknIfjl_wvIT0VgeEWrLfC6m_tdS3-FxpvRKjHwNtBOfeTir2g7U2cARflH-6DAwclISxPNfkQKMZ4jRjvyLZojJVPPBnMauw_PwQtxjUXOgMxkQXVtVqgojpbVQubFQ_I_K-p2L4_hTJEBXZaupjLvmCLj7qSsbHa4d72KDuCfg5beQWbYhPC-yIxP7kzmwVw3mnxVtdVlEO33n-mrN0Bf0tJ9m4PIT6bmMn3rRBefGqT-BukIFeHBX4qRd0y1l]--></g></svg>