<?xml version="1.0" encoding="us-ascii" standalone="no"?><svg xmlns="http://www.w3.org/2000/svg" xmlns:xlink="http://www.w3.org/1999/xlink" contentStyleType="text/css" height="555px" preserveAspectRatio="none" style="width:824px;height:555px;background:#FFFFFF;" version="1.1" viewBox="0 0 824 555" width="824px" zoomAndPan="magnify"><defs/><g><text fill="#000000" font-family="sans-serif" font-size="20" font-weight="bold" lengthAdjust="spacing" textLength="314" x="42.25" y="29.3359">Example.AbstractBaseExample</text><text fill="#000000" font-family="sans-serif" font-size="20" font-weight="bold" lengthAdjust="spacing" textLength="104" x="363.25" y="29.3359">simplified</text><text fill="#000000" font-family="sans-serif" font-size="20" font-weight="bold" lengthAdjust="spacing" textLength="38" x="474.25" y="29.3359">and</text><text fill="#000000" font-family="sans-serif" font-size="20" font-weight="bold" lengthAdjust="spacing" textLength="249" x="519.25" y="29.3359">grouped per namespace</text><!--cluster Example--><g id="cluster_Example"><a href="Example-diagram-simplified-grouped-per-namespace.svg" target="_top" title="Example-diagram-simplified-grouped-per-namespace.svg" xlink:actuate="onRequest" xlink:href="Example-diagram-simplified-grouped-per-namespace.svg" xlink:show="new" xlink:title="Example-diagram-simplified-grouped-per-namespace.svg" xlink:type="simple"><path d="M565,115.5547 L626,115.5547 A3.75,3.75 0 0 1 628.5,118.0547 L635.5,138.043 L815,138.043 A2.5,2.5 0 0 1 817.5,140.543 L817.5,546.0547 A2.5,2.5 0 0 1 815,548.5547 L565,548.5547 A2.5,2.5 0 0 1 562.5,546.0547 L562.5,118.0547 A2.5,2.5 0 0 1 565,115.5547 " fill="none" style="stroke:#000000;stroke-width:1.5;"/><line style="stroke:#000000;stroke-width:1.5;" x1="562.5" x2="635.5" y1="138.043" y2="138.043"/><text fill="#000000" font-family="sans-serif" font-size="14" font-weight="bold" lengthAdjust="spacing" textLength="60" x="566.5" y="131.0898">Example</text></a></g><!--class AbstractBaseExample--><a href="Example.AbstractBaseExample-diagram-simplified-grouped-per-namespace.svg" target="_top" title="Example.AbstractBaseExample-diagram-simplified-grouped-per-namespace.svg" xlink:actuate="onRequest" xlink:href="Example.AbstractBaseExample-diagram-simplified-grouped-per-namespace.svg" xlink:show="new" xlink:title="Example.AbstractBaseExample-diagram-simplified-grouped-per-namespace.svg" xlink:type="simple"><g id="elem_AbstractBaseExample"><rect codeLine="4" fill="#FFFF00" height="48" id="AbstractBaseExample" rx="2.5" ry="2.5" style="stroke:#181818;stroke-width:0.5;" width="179" x="580" y="150.5547"/><ellipse cx="595" cy="166.5547" fill="#A9DCDF" rx="11" ry="11" style="stroke:#181818;stroke-width:1.0;"/><path d="M594.8633,161.9028 L593.7095,166.9746 L596.0254,166.9746 Z M593.3691,159.6616 L596.3657,159.6616 L599.7109,172.0547 L597.2622,172.0547 L596.4985,168.9917 L593.2197,168.9917 L592.4727,172.0547 L590.0239,172.0547 Z " fill="#000000"/><text fill="#000000" font-family="sans-serif" font-size="14" font-style="italic" lengthAdjust="spacing" textLength="147" x="609" y="171.8457">AbstractBaseExample</text><line style="stroke:#181818;stroke-width:0.5;" x1="581" x2="758" y1="182.5547" y2="182.5547"/><line style="stroke:#181818;stroke-width:0.5;" x1="581" x2="758" y1="190.5547" y2="190.5547"/></g></a><!--class Useless--><a href="Example.Useless-diagram-simplified-grouped-per-namespace.svg" target="_top" title="Example.Useless-diagram-simplified-grouped-per-namespace.svg" xlink:actuate="onRequest" xlink:href="Example.Useless-diagram-simplified-grouped-per-namespace.svg" xlink:show="new" xlink:title="Example.Useless-diagram-simplified-grouped-per-namespace.svg" xlink:type="simple"><g id="elem_Useless"><rect codeLine="6" fill="#F1F1F1" height="48" id="Useless" rx="2.5" ry="2.5" style="stroke:#181818;stroke-width:0.5;" width="83" x="618" y="484.5547"/><ellipse cx="633" cy="500.5547" fill="#ADD1B2" rx="11" ry="11" style="stroke:#181818;stroke-width:1.0;"/><path d="M635.4731,506.6978 Q634.8921,506.9966 634.2529,507.146 Q633.6138,507.2954 632.9082,507.2954 Q630.4014,507.2954 629.0815,505.6436 Q627.7617,503.9917 627.7617,500.8706 Q627.7617,497.7412 629.0815,496.0894 Q630.4014,494.4375 632.9082,494.4375 Q633.6138,494.4375 634.2612,494.5869 Q634.9087,494.7363 635.4731,495.0352 L635.4731,497.7578 Q634.8423,497.1768 634.2488,496.907 Q633.6553,496.6372 633.0244,496.6372 Q631.6797,496.6372 630.9949,497.7039 Q630.3101,498.7705 630.3101,500.8706 Q630.3101,502.9624 630.9949,504.0291 Q631.6797,505.0957 633.0244,505.0957 Q633.6553,505.0957 634.2488,504.8259 Q634.8423,504.5562 635.4731,503.9751 Z " fill="#000000"/><text fill="#000000" font-family="sans-serif" font-size="14" lengthAdjust="spacing" textLength="51" x="647" y="505.8457">Useless</text><line style="stroke:#181818;stroke-width:0.5;" x1="619" x2="700" y1="516.5547" y2="516.5547"/><line style="stroke:#181818;stroke-width:0.5;" x1="619" x2="700" y1="524.5547" y2="524.5547"/></g></a><!--class BaseExample--><a href="Example.BaseExample-diagram-simplified-grouped-per-namespace.svg" target="_top" title="Example.BaseExample-diagram-simplified-grouped-per-namespace.svg" xlink:actuate="onRequest" xlink:href="Example.BaseExample-diagram-simplified-grouped-per-namespace.svg" xlink:show="new" xlink:title="Example.BaseExample-diagram-simplified-grouped-per-namespace.svg" xlink:type="simple"><g id="elem_BaseExample"><rect codeLine="8" fill="#F1F1F1" height="48" id="BaseExample" rx="2.5" ry="2.5" style="stroke:#181818;stroke-width:0.5;" width="122" x="679.5" y="359.5547"/><ellipse cx="694.5" cy="375.5547" fill="#ADD1B2" rx="11" ry="11" style="stroke:#181818;stroke-width:1.0;"/><path d="M696.9731,381.6978 Q696.3921,381.9966 695.7529,382.146 Q695.1138,382.2954 694.4082,382.2954 Q691.9014,382.2954 690.5815,380.6436 Q689.2617,378.9917 689.2617,375.8706 Q689.2617,372.7412 690.5815,371.0894 Q691.9014,369.4375 694.4082,369.4375 Q695.1138,369.4375 695.7612,369.5869 Q696.4087,369.7363 696.9731,370.0352 L696.9731,372.7578 Q696.3423,372.1768 695.7488,371.907 Q695.1553,371.6372 694.5244,371.6372 Q693.1797,371.6372 692.4949,372.7039 Q691.8101,373.7705 691.8101,375.8706 Q691.8101,377.9624 692.4949,379.0291 Q693.1797,380.0957 694.5244,380.0957 Q695.1553,380.0957 695.7488,379.8259 Q696.3423,379.5562 696.9731,378.9751 Z " fill="#000000"/><text fill="#000000" font-family="sans-serif" font-size="14" lengthAdjust="spacing" textLength="90" x="708.5" y="380.8457">BaseExample</text><line style="stroke:#181818;stroke-width:0.5;" x1="680.5" x2="800.5" y1="391.5547" y2="391.5547"/><line style="stroke:#181818;stroke-width:0.5;" x1="680.5" x2="800.5" y1="399.5547" y2="399.5547"/></g></a><g id="elem_FloatingNote"><path d="M6,50.5547 L6,298.2129 L545,298.2129 L545,60.5547 L535,50.5547 L6,50.5547 " fill="#FEFFDD" style="stroke:#181818;stroke-width:0.5;"/><path d="M535,50.5547 L535,60.5547 L545,60.5547 L535,50.5547 " fill="#FEFFDD" style="stroke:#181818;stroke-width:1.0;"/><text fill="#000000" font-family="sans-serif" font-size="13" lengthAdjust="spacing" textLength="120" x="12" y="68.123">Your are analyzing:</text><text fill="#000000" font-family="sans-serif" font-size="13" lengthAdjust="spacing" textLength="191" x="12" y="83.4336">Example.AbstractBaseExample</text><text fill="#000000" font-family="sans-serif" font-size="13" font-weight="bold" lengthAdjust="spacing" textLength="67" x="207" y="83.4336">simplified</text><text fill="#000000" font-family="sans-serif" font-size="13" lengthAdjust="spacing" textLength="23" x="278" y="83.4336">and</text><text fill="#000000" font-family="sans-serif" font-size="13" font-weight="bold" lengthAdjust="spacing" textLength="166" x="305" y="83.4336">grouped per namespace</text><text fill="#000000" font-family="sans-serif" font-size="13" lengthAdjust="spacing" textLength="4" x="12" y="98.7441">&#160;</text><text fill="#000000" font-family="sans-serif" font-size="13" lengthAdjust="spacing" textLength="229" x="12" y="129.3652">You can click either the namespaces</text><text fill="#000000" font-family="sans-serif" font-size="13" lengthAdjust="spacing" textLength="266" x="12" y="144.6758">or class names for filtering them and their</text><text fill="#000000" font-family="sans-serif" font-size="13" lengthAdjust="spacing" textLength="130" x="12" y="159.9863">direct dependencies.</text><text fill="#000000" font-family="sans-serif" font-size="13" lengthAdjust="spacing" textLength="4" x="12" y="175.2969">&#160;</text><line style="stroke:#181818;stroke-width:1.0;" x1="7" x2="259.5" y1="109.1416" y2="109.1416"/><line style="stroke:#181818;stroke-width:1.0;" x1="7" x2="259.5" y1="111.1416" y2="111.1416"/><text fill="#000000" font-family="sans-serif" font-size="13" lengthAdjust="spacing" textLength="32" x="259.5" y="113.5547">Filter</text><line style="stroke:#181818;stroke-width:1.0;" x1="291.5" x2="544" y1="109.1416" y2="109.1416"/><line style="stroke:#181818;stroke-width:1.0;" x1="291.5" x2="544" y1="111.1416" y2="111.1416"/><ellipse cx="17.5" cy="205.1602" fill="#000000" rx="2.5" ry="2.5" style="stroke:#000000;stroke-width:0.0;"/><text fill="#000000" font-family="sans-serif" font-size="13" lengthAdjust="spacing" textLength="191" x="24" y="209.918">Example.AbstractBaseExample</text><text fill="#000000" font-family="sans-serif" font-size="13" font-weight="bold" lengthAdjust="spacing" textLength="55" x="219" y="209.918">detailed</text><text fill="#000000" font-family="sans-serif" font-size="13" lengthAdjust="spacing" textLength="23" x="278" y="209.918">and</text><text fill="#000000" font-family="sans-serif" font-size="13" font-weight="bold" lengthAdjust="spacing" textLength="166" x="305" y="209.918">grouped per namespace</text><text fill="#000000" font-family="sans-serif" font-size="13" lengthAdjust="spacing" textLength="4" x="471" y="209.918">:</text><text fill="#000000" font-family="sans-serif" font-size="13" lengthAdjust="spacing" textLength="12" x="12" y="225.2285">&#160;&#160;&#160;</text><a href="Example.AbstractBaseExample-diagram-detailed-grouped-per-namespace.svg" target="_top" title="Example.AbstractBaseExample-diagram-detailed-grouped-per-namespace.svg" xlink:actuate="onRequest" xlink:href="Example.AbstractBaseExample-diagram-detailed-grouped-per-namespace.svg" xlink:show="new" xlink:title="Example.AbstractBaseExample-diagram-detailed-grouped-per-namespace.svg" xlink:type="simple"><text fill="#0000FF" font-family="sans-serif" font-size="13" lengthAdjust="spacing" text-decoration="underline" textLength="500" x="24" y="225.2285">Example.AbstractBaseExample-diagram-detailed-grouped-per-namespace.svg</text></a><ellipse cx="17.5" cy="235.7813" fill="#000000" rx="2.5" ry="2.5" style="stroke:#000000;stroke-width:0.0;"/><text fill="#000000" font-family="sans-serif" font-size="13" lengthAdjust="spacing" textLength="78" x="24" y="240.5391">Full diagram</text><text fill="#000000" font-family="sans-serif" font-size="13" font-weight="bold" lengthAdjust="spacing" textLength="67" x="106" y="240.5391">simplified</text><text fill="#000000" font-family="sans-serif" font-size="13" lengthAdjust="spacing" textLength="23" x="177" y="240.5391">and</text><text fill="#000000" font-family="sans-serif" font-size="13" font-weight="bold" lengthAdjust="spacing" textLength="166" x="204" y="240.5391">grouped per namespace</text><text fill="#000000" font-family="sans-serif" font-size="13" lengthAdjust="spacing" textLength="4" x="370" y="240.5391">:</text><text fill="#000000" font-family="sans-serif" font-size="13" lengthAdjust="spacing" textLength="12" x="12" y="255.8496">&#160;&#160;&#160;</text><a href="full-diagram-simplified-grouped-per-namespace.svg" target="_top" title="full-diagram-simplified-grouped-per-namespace.svg" xlink:actuate="onRequest" xlink:href="full-diagram-simplified-grouped-per-namespace.svg" xlink:show="new" xlink:title="full-diagram-simplified-grouped-per-namespace.svg" xlink:type="simple"><text fill="#0000FF" font-family="sans-serif" font-size="13" lengthAdjust="spacing" text-decoration="underline" textLength="343" x="24" y="255.8496">full-diagram-simplified-grouped-per-namespace.svg</text></a><ellipse cx="17.5" cy="266.4023" fill="#000000" rx="2.5" ry="2.5" style="stroke:#000000;stroke-width:0.0;"/><text fill="#000000" font-family="sans-serif" font-size="13" lengthAdjust="spacing" textLength="41" x="24" y="271.1602">Home:</text><text fill="#000000" font-family="sans-serif" font-size="13" lengthAdjust="spacing" textLength="12" x="12" y="286.4707">&#160;&#160;&#160;</text><a href="index.html" target="_top" title="index.html" xlink:actuate="onRequest" xlink:href="index.html" xlink:show="new" xlink:title="index.html" xlink:type="simple"><text fill="#0000FF" font-family="sans-serif" font-size="13" lengthAdjust="spacing" text-decoration="underline" textLength="68" x="24" y="286.4707">index.html</text></a><line style="stroke:#181818;stroke-width:1.0;" x1="7" x2="238.5" y1="189.6943" y2="189.6943"/><line style="stroke:#181818;stroke-width:1.0;" x1="7" x2="238.5" y1="191.6943" y2="191.6943"/><text fill="#000000" font-family="sans-serif" font-size="13" lengthAdjust="spacing" textLength="74" x="238.5" y="194.1074">Select other</text><line style="stroke:#181818;stroke-width:1.0;" x1="312.5" x2="544" y1="189.6943" y2="189.6943"/><line style="stroke:#181818;stroke-width:1.0;" x1="312.5" x2="544" y1="191.6943" y2="191.6943"/></g><!--link AbstractBaseExample to Useless--><g id="link_AbstractBaseExample_Useless"><path codeLine="19" d="M661.01,198.8747 C646.85,240.6247 620.98,330.9347 631.5,407.5547 C634.85,431.9347 642.59,458.7547 649.08,478.4747 " fill="none" id="AbstractBaseExample-to-Useless" style="stroke:#6060BB;stroke-width:1.0;stroke-dasharray:7.0,7.0;"/><polygon fill="#6060BB" points="650.97,483.0947,651.9098,473.2908,649.3846,478.3527,644.3226,475.8275,650.97,483.0947" style="stroke:#6060BB;stroke-width:1.0;"/><text fill="#000000" font-family="sans-serif" font-size="13" lengthAdjust="spacing" textLength="29" x="632.5" y="388.623">uses</text></g><!--reverse link AbstractBaseExample to BaseExample--><g id="link_AbstractBaseExample_BaseExample"><path codeLine="20" d="M684.23,218.4947 C698.89,261.2447 720.84,325.2447 732.52,359.2947 " fill="none" id="AbstractBaseExample-backto-BaseExample" style="stroke:#FF0000;stroke-width:1.0;"/><polygon fill="none" points="677.37,221.0847,677.51,199.8947,690.62,216.5447,677.37,221.0847" style="stroke:#FF0000;stroke-width:1.0;"/></g><!--link BaseExample to Useless--><g id="link_BaseExample_Useless"><path codeLine="21" d="M725.07,407.9747 C711.67,428.3247 692.24,457.8447 678,479.4547 " fill="none" id="BaseExample-to-Useless" style="stroke:#6060BB;stroke-width:1.0;stroke-dasharray:7.0,7.0;"/><polygon fill="#6060BB" points="674.87,483.2147,683.1696,477.9121,677.627,479.0435,676.4956,473.5009,674.87,483.2147" style="stroke:#6060BB;stroke-width:1.0;"/><text fill="#000000" font-family="sans-serif" font-size="13" lengthAdjust="spacing" textLength="29" x="705.5" y="451.123">uses</text></g><!--SRC=[jLJ1Qjj04BthAuRu4118DJtaO6n37MfwogNqK2nXrjgHlNIrAtPMYPEs_zvPHx9IOXIRfaOOQJNptioRD_BAQuGfgIUSV1pFF-z5LMjCFst8Er7uXI1ipo2EIV6DAXNAE0PX91zjdMrgb52Z0oCgf5eK6CVJ3m5n7Xdh4Qw-syQ1SCWvGZy-ARETPEQzg3AJcTbigRH7DvjbXicW40OAhOeVWChlE9x_-Xo2p5Z70OBe-HHAVYuF45nSYAuEf7oZN6QaSbXua5YZaMWAXPG-qtv57TxOG1B8OnXkIw8NIh_T5Ei30AlL05eYbTWwKIKTPj9Y9OoL7B5Ikj_cUQXisMWDRT952dV5b0nmPEtJt-BzOYli81Jhjqztlj9vVWM2OAcjyApv7HibEYPtAlOANCWBFoFHIjREUMWkv-by9lFe4RMs3rp1x-Xlwc_4Rk7ddguzkPJY1FRfTlwXZGF7zQsjQbvS2Uyv6dZWfGGktmEtNw7X1Ig1sU1MMmeBADYfjSDxPHjQKxDP7p7MMd5QNysTDGWRB4H363Qu_SQG8k2hL4RH3cNw0ljL9zmdNBFxp_h1VuiD5OQ9EjIy4TOGuFxWHLQ_TBRg2vzmR5VxaAtJrUXcV3DUBF9q_ig4C06MZ60GOVehMOru_7boocZHAVETHVe7]--></g></svg>