<?xml version="1.0" encoding="us-ascii" standalone="no"?><svg xmlns="http://www.w3.org/2000/svg" xmlns:xlink="http://www.w3.org/1999/xlink" contentStyleType="text/css" height="554px" preserveAspectRatio="none" style="width:1641px;height:554px;background:#FFFFFF;" version="1.1" viewBox="0 0 1641 554" width="1641px" zoomAndPan="magnify"><defs/><g><text fill="#000000" font-family="sans-serif" font-size="20" font-weight="bold" lengthAdjust="spacing" textLength="505" x="365" y="29.3359">Examples.BetterDesign.FakeEntitities.Complaints</text><text fill="#000000" font-family="sans-serif" font-size="20" font-weight="bold" lengthAdjust="spacing" textLength="84" x="877" y="29.3359">detailed</text><text fill="#000000" font-family="sans-serif" font-size="20" font-weight="bold" lengthAdjust="spacing" textLength="38" x="968" y="29.3359">and</text><text fill="#000000" font-family="sans-serif" font-size="20" font-weight="bold" lengthAdjust="spacing" textLength="249" x="1013" y="29.3359">grouped per namespace</text><!--cluster Examples--><g id="cluster_Examples"><a href="Examples-diagram-detailed-grouped-per-namespace.svg" target="_top" title="Examples-diagram-detailed-grouped-per-namespace.svg" xlink:actuate="onRequest" xlink:href="Examples-diagram-detailed-grouped-per-namespace.svg" xlink:show="new" xlink:title="Examples-diagram-detailed-grouped-per-namespace.svg" xlink:type="simple"><path d="M694.5,50.5547 L763.5,50.5547 A3.75,3.75 0 0 1 766,53.0547 L773,73.043 L1631.5,73.043 A2.5,2.5 0 0 1 1634,75.543 L1634,545.0547 A2.5,2.5 0 0 1 1631.5,547.5547 L694.5,547.5547 A2.5,2.5 0 0 1 692,545.0547 L692,53.0547 A2.5,2.5 0 0 1 694.5,50.5547 " fill="none" style="stroke:#000000;stroke-width:1.5;"/><line style="stroke:#000000;stroke-width:1.5;" x1="692" x2="773" y1="73.043" y2="73.043"/><text fill="#000000" font-family="sans-serif" font-size="14" font-weight="bold" lengthAdjust="spacing" textLength="68" x="696" y="66.0898">Examples</text></a></g><!--cluster BetterDesign--><g id="cluster_BetterDesign"><a href="Examples.BetterDesign-diagram-detailed-grouped-per-namespace.svg" target="_top" title="Examples.BetterDesign-diagram-detailed-grouped-per-namespace.svg" xlink:actuate="onRequest" xlink:href="Examples.BetterDesign-diagram-detailed-grouped-per-namespace.svg" xlink:show="new" xlink:title="Examples.BetterDesign-diagram-detailed-grouped-per-namespace.svg" xlink:type="simple"><path d="M718.5,93.5547 L812.5,93.5547 A3.75,3.75 0 0 1 815,96.0547 L822,116.043 L1607.5,116.043 A2.5,2.5 0 0 1 1610,118.543 L1610,521.0547 A2.5,2.5 0 0 1 1607.5,523.5547 L718.5,523.5547 A2.5,2.5 0 0 1 716,521.0547 L716,96.0547 A2.5,2.5 0 0 1 718.5,93.5547 " fill="none" style="stroke:#000000;stroke-width:1.5;"/><line style="stroke:#000000;stroke-width:1.5;" x1="716" x2="822" y1="116.043" y2="116.043"/><text fill="#000000" font-family="sans-serif" font-size="14" font-weight="bold" lengthAdjust="spacing" textLength="93" x="720" y="109.0898">BetterDesign</text></a></g><!--cluster FakeEntitities--><g id="cluster_FakeEntitities"><a href="Examples.BetterDesign.FakeEntitities-diagram-detailed-grouped-per-namespace.svg" target="_top" title="Examples.BetterDesign.FakeEntitities-diagram-detailed-grouped-per-namespace.svg" xlink:actuate="onRequest" xlink:href="Examples.BetterDesign.FakeEntitities-diagram-detailed-grouped-per-namespace.svg" xlink:show="new" xlink:title="Examples.BetterDesign.FakeEntitities-diagram-detailed-grouped-per-namespace.svg" xlink:type="simple"><path d="M1094.5,400.5547 L1194.5,400.5547 A3.75,3.75 0 0 1 1197,403.0547 L1204,423.043 L1231.5,423.043 A2.5,2.5 0 0 1 1234,425.543 L1234,497.0547 A2.5,2.5 0 0 1 1231.5,499.5547 L1094.5,499.5547 A2.5,2.5 0 0 1 1092,497.0547 L1092,403.0547 A2.5,2.5 0 0 1 1094.5,400.5547 " fill="none" style="stroke:#000000;stroke-width:1.5;"/><line style="stroke:#000000;stroke-width:1.5;" x1="1092" x2="1204" y1="423.043" y2="423.043"/><text fill="#000000" font-family="sans-serif" font-size="14" font-weight="bold" lengthAdjust="spacing" textLength="99" x="1096" y="416.0898">FakeEntitities</text></a></g><!--class DBCustomers--><a href="Examples.BetterDesign.DBCustomers-diagram-detailed-grouped-per-namespace.svg" target="_top" title="Examples.BetterDesign.DBCustomers-diagram-detailed-grouped-per-namespace.svg" xlink:actuate="onRequest" xlink:href="Examples.BetterDesign.DBCustomers-diagram-detailed-grouped-per-namespace.svg" xlink:show="new" xlink:title="Examples.BetterDesign.DBCustomers-diagram-detailed-grouped-per-namespace.svg" xlink:type="simple"><g id="elem_DBCustomers"><rect codeLine="6" fill="#F1F1F1" height="245.8594" id="DBCustomers" rx="2.5" ry="2.5" style="stroke:#181818;stroke-width:0.5;" width="862" x="732" y="128.5547"/><ellipse cx="1112.75" cy="144.5547" fill="#ADD1B2" rx="11" ry="11" style="stroke:#181818;stroke-width:1.0;"/><path d="M1115.2231,150.6978 Q1114.6421,150.9966 1114.0029,151.146 Q1113.3638,151.2954 1112.6582,151.2954 Q1110.1514,151.2954 1108.8315,149.6436 Q1107.5117,147.9917 1107.5117,144.8706 Q1107.5117,141.7412 1108.8315,140.0894 Q1110.1514,138.4375 1112.6582,138.4375 Q1113.3638,138.4375 1114.0112,138.5869 Q1114.6587,138.7363 1115.2231,139.0352 L1115.2231,141.7578 Q1114.5923,141.1768 1113.9988,140.907 Q1113.4053,140.6372 1112.7744,140.6372 Q1111.4297,140.6372 1110.7449,141.7039 Q1110.0601,142.7705 1110.0601,144.8706 Q1110.0601,146.9624 1110.7449,148.0291 Q1111.4297,149.0957 1112.7744,149.0957 Q1113.4053,149.0957 1113.9988,148.8259 Q1114.5923,148.5562 1115.2231,147.9751 Z " fill="#000000"/><text fill="#000000" font-family="sans-serif" font-size="14" lengthAdjust="spacing" textLength="92" x="1133.25" y="149.8457">DBCustomers</text><line style="stroke:#181818;stroke-width:0.5;" x1="733" x2="1593" y1="160.5547" y2="160.5547"/><line style="stroke:#181818;stroke-width:0.5;" x1="733" x2="1593" y1="168.5547" y2="168.5547"/><ellipse cx="743" cy="182.2988" fill="#84BE84" rx="3" ry="3" style="stroke:#038048;stroke-width:1.0;"/><text fill="#000000" font-family="sans-serif" font-size="14" lengthAdjust="spacing" textLength="94" x="752" y="186.0898">getCustomer(</text><text fill="#6060BB" font-family="sans-serif" font-size="14" lengthAdjust="spacing" textLength="312" x="846" y="186.0898">i:Examples.BetterDesign.FakeEntitities.Invoice</text><text fill="#000000" font-family="sans-serif" font-size="14" lengthAdjust="spacing" textLength="9" x="1158" y="186.0898">):</text><text fill="#BB6060" font-family="sans-serif" font-size="14" lengthAdjust="spacing" textLength="323" x="1171" y="186.0898">Examples.BetterDesign.FakeEntitities.Customer</text><ellipse cx="743" cy="198.7871" fill="#84BE84" rx="3" ry="3" style="stroke:#038048;stroke-width:1.0;"/><text fill="#000000" font-family="sans-serif" font-size="14" lengthAdjust="spacing" textLength="57" x="752" y="202.5781">getItem(</text><text fill="#6060BB" font-family="sans-serif" font-size="14" lengthAdjust="spacing" textLength="345" x="809" y="202.5781">c:Examples.BetterDesign.FakeEntitities.Complaints</text><text fill="#000000" font-family="sans-serif" font-size="14" lengthAdjust="spacing" textLength="9" x="1154" y="202.5781">):</text><text fill="#BB6060" font-family="sans-serif" font-size="14" lengthAdjust="spacing" textLength="286" x="1167" y="202.5781">Examples.BetterDesign.FakeEntitities.Item</text><ellipse cx="743" cy="215.2754" fill="#84BE84" rx="3" ry="3" style="stroke:#038048;stroke-width:1.0;"/><text fill="#000000" font-family="sans-serif" font-size="14" lengthAdjust="spacing" textLength="75" x="752" y="219.0664">getInvoice(</text><text fill="#6060BB" font-family="sans-serif" font-size="14" lengthAdjust="spacing" textLength="334" x="827" y="219.0664">c:Examples.BetterDesign.FakeEntitities.Customer</text><text fill="#000000" font-family="sans-serif" font-size="14" lengthAdjust="spacing" textLength="9" x="1161" y="219.0664">):</text><text fill="#BB6060" font-family="sans-serif" font-size="14" lengthAdjust="spacing" textLength="304" x="1174" y="219.0664">Examples.BetterDesign.FakeEntitities.Invoice</text><ellipse cx="743" cy="231.7637" fill="#84BE84" rx="3" ry="3" style="stroke:#038048;stroke-width:1.0;"/><text fill="#000000" font-family="sans-serif" font-size="14" lengthAdjust="spacing" textLength="105" x="752" y="235.5547">getComplaints(</text><text fill="#6060BB" font-family="sans-serif" font-size="14" lengthAdjust="spacing" textLength="334" x="857" y="235.5547">c:Examples.BetterDesign.FakeEntitities.Customer</text><text fill="#000000" font-family="sans-serif" font-size="14" lengthAdjust="spacing" textLength="9" x="1191" y="235.5547">):</text><text fill="#BB6060" font-family="sans-serif" font-size="14" lengthAdjust="spacing" textLength="334" x="1204" y="235.5547">Examples.BetterDesign.FakeEntitities.Complaints</text><ellipse cx="743" cy="248.252" fill="#84BE84" rx="3" ry="3" style="stroke:#038048;stroke-width:1.0;"/><text fill="#000000" font-family="sans-serif" font-size="14" lengthAdjust="spacing" textLength="58" x="752" y="252.043">getUser(</text><text fill="#6060BB" font-family="sans-serif" font-size="14" lengthAdjust="spacing" textLength="320" x="810" y="252.043">item:Examples.BetterDesign.FakeEntitities.Item</text><text fill="#000000" font-family="sans-serif" font-size="14" lengthAdjust="spacing" textLength="9" x="1130" y="252.043">):</text><text fill="#BB6060" font-family="sans-serif" font-size="14" lengthAdjust="spacing" textLength="287" x="1143" y="252.043">Examples.BetterDesign.FakeEntitities.User</text><ellipse cx="743" cy="264.7402" fill="#84BE84" rx="3" ry="3" style="stroke:#038048;stroke-width:1.0;"/><text fill="#000000" font-family="sans-serif" font-size="14" lengthAdjust="spacing" textLength="94" x="752" y="268.5313">getCustomer(</text><text fill="#6060BB" font-family="sans-serif" font-size="14" lengthAdjust="spacing" textLength="406" x="846" y="268.5313">complaint:Examples.BetterDesign.FakeEntitities.Complaints</text><text fill="#000000" font-family="sans-serif" font-size="14" lengthAdjust="spacing" textLength="9" x="1252" y="268.5313">):</text><text fill="#BB6060" font-family="sans-serif" font-size="14" lengthAdjust="spacing" textLength="323" x="1265" y="268.5313">Examples.BetterDesign.FakeEntitities.Customer</text><ellipse cx="743" cy="281.2285" fill="#84BE84" rx="3" ry="3" style="stroke:#038048;stroke-width:1.0;"/><text fill="#000000" font-family="sans-serif" font-size="14" lengthAdjust="spacing" textLength="57" x="752" y="285.0195">getItem(</text><text fill="#6060BB" font-family="sans-serif" font-size="14" lengthAdjust="spacing" textLength="321" x="809" y="285.0195">user:Examples.BetterDesign.FakeEntitities.User</text><text fill="#000000" font-family="sans-serif" font-size="14" lengthAdjust="spacing" textLength="9" x="1130" y="285.0195">):</text><text fill="#BB6060" font-family="sans-serif" font-size="14" lengthAdjust="spacing" textLength="286" x="1143" y="285.0195">Examples.BetterDesign.FakeEntitities.Item</text><ellipse cx="743" cy="297.7168" fill="#84BE84" rx="3" ry="3" style="stroke:#038048;stroke-width:1.0;"/><text fill="#000000" font-family="sans-serif" font-size="14" lengthAdjust="spacing" textLength="105" x="752" y="301.5078">getComplaints(</text><text fill="#6060BB" font-family="sans-serif" font-size="14" lengthAdjust="spacing" textLength="320" x="857" y="301.5078">item:Examples.BetterDesign.FakeEntitities.Item</text><text fill="#000000" font-family="sans-serif" font-size="14" lengthAdjust="spacing" textLength="9" x="1177" y="301.5078">):</text><text fill="#BB6060" font-family="sans-serif" font-size="14" lengthAdjust="spacing" textLength="334" x="1190" y="301.5078">Examples.BetterDesign.FakeEntitities.Complaints</text><ellipse cx="743" cy="314.2051" fill="#84BE84" rx="3" ry="3" style="stroke:#038048;stroke-width:1.0;"/><text fill="#000000" font-family="sans-serif" font-size="14" lengthAdjust="spacing" textLength="88" x="752" y="317.9961">getFirstUser(</text><text fill="#000000" font-family="sans-serif" font-size="14" lengthAdjust="spacing" textLength="9" x="840" y="317.9961">):</text><text fill="#BB6060" font-family="sans-serif" font-size="14" lengthAdjust="spacing" textLength="287" x="853" y="317.9961">Examples.BetterDesign.FakeEntitities.User</text><ellipse cx="743" cy="330.6934" fill="#84BE84" rx="3" ry="3" style="stroke:#038048;stroke-width:1.0;"/><text fill="#000000" font-family="sans-serif" font-size="14" lengthAdjust="spacing" textLength="87" x="752" y="334.4844">getFirstItem(</text><text fill="#000000" font-family="sans-serif" font-size="14" lengthAdjust="spacing" textLength="9" x="839" y="334.4844">):</text><text fill="#BB6060" font-family="sans-serif" font-size="14" lengthAdjust="spacing" textLength="286" x="852" y="334.4844">Examples.BetterDesign.FakeEntitities.Item</text><ellipse cx="743" cy="347.1816" fill="#84BE84" rx="3" ry="3" style="stroke:#038048;stroke-width:1.0;"/><text fill="#000000" font-family="sans-serif" font-size="14" lengthAdjust="spacing" textLength="105" x="752" y="350.9727">getFirstInvoice(</text><text fill="#000000" font-family="sans-serif" font-size="14" lengthAdjust="spacing" textLength="9" x="857" y="350.9727">):</text><text fill="#BB6060" font-family="sans-serif" font-size="14" lengthAdjust="spacing" textLength="304" x="870" y="350.9727">Examples.BetterDesign.FakeEntitities.Invoice</text><ellipse cx="743" cy="363.6699" fill="#84BE84" rx="3" ry="3" style="stroke:#038048;stroke-width:1.0;"/><text fill="#000000" font-family="sans-serif" font-size="14" lengthAdjust="spacing" textLength="135" x="752" y="367.4609">getFirstComplaints(</text><text fill="#000000" font-family="sans-serif" font-size="14" lengthAdjust="spacing" textLength="9" x="887" y="367.4609">):</text><text fill="#BB6060" font-family="sans-serif" font-size="14" lengthAdjust="spacing" textLength="334" x="900" y="367.4609">Examples.BetterDesign.FakeEntitities.Complaints</text></g></a><!--class Complaints--><a href="Examples.BetterDesign.FakeEntitities.Complaints-diagram-detailed-grouped-per-namespace.svg" target="_top" title="Examples.BetterDesign.FakeEntitities.Complaints-diagram-detailed-grouped-per-namespace.svg" xlink:actuate="onRequest" xlink:href="Examples.BetterDesign.FakeEntitities.Complaints-diagram-detailed-grouped-per-namespace.svg" xlink:show="new" xlink:title="Examples.BetterDesign.FakeEntitities.Complaints-diagram-detailed-grouped-per-namespace.svg" xlink:type="simple"><g id="elem_Complaints"><rect codeLine="29" fill="#FFFF00" height="48" id="Complaints" rx="2.5" ry="2.5" style="stroke:#181818;stroke-width:0.5;" width="110" x="1108" y="435.5547"/><ellipse cx="1123" cy="451.5547" fill="#ADD1B2" rx="11" ry="11" style="stroke:#181818;stroke-width:1.0;"/><path d="M1125.4731,457.6978 Q1124.8921,457.9966 1124.2529,458.146 Q1123.6138,458.2954 1122.9082,458.2954 Q1120.4014,458.2954 1119.0815,456.6436 Q1117.7617,454.9917 1117.7617,451.8706 Q1117.7617,448.7412 1119.0815,447.0894 Q1120.4014,445.4375 1122.9082,445.4375 Q1123.6138,445.4375 1124.2612,445.5869 Q1124.9087,445.7363 1125.4731,446.0352 L1125.4731,448.7578 Q1124.8423,448.1768 1124.2488,447.907 Q1123.6553,447.6372 1123.0244,447.6372 Q1121.6797,447.6372 1120.9949,448.7039 Q1120.3101,449.7705 1120.3101,451.8706 Q1120.3101,453.9624 1120.9949,455.0291 Q1121.6797,456.0957 1123.0244,456.0957 Q1123.6553,456.0957 1124.2488,455.8259 Q1124.8423,455.5562 1125.4731,454.9751 Z " fill="#000000"/><text fill="#000000" font-family="sans-serif" font-size="14" lengthAdjust="spacing" textLength="78" x="1137" y="456.8457">Complaints</text><line style="stroke:#181818;stroke-width:0.5;" x1="1109" x2="1217" y1="467.5547" y2="467.5547"/><line style="stroke:#181818;stroke-width:0.5;" x1="1109" x2="1217" y1="475.5547" y2="475.5547"/></g></a><g id="elem_FloatingNote"><path d="M6,127.5547 L6,375.2129 L676,375.2129 L676,137.5547 L666,127.5547 L6,127.5547 " fill="#FEFFDD" style="stroke:#181818;stroke-width:0.5;"/><path d="M666,127.5547 L666,137.5547 L676,137.5547 L666,127.5547 " fill="#FEFFDD" style="stroke:#181818;stroke-width:1.0;"/><text fill="#000000" font-family="sans-serif" font-size="13" lengthAdjust="spacing" textLength="120" x="12" y="145.123">Your are analyzing:</text><text fill="#000000" font-family="sans-serif" font-size="13" lengthAdjust="spacing" textLength="309" x="12" y="160.4336">Examples.BetterDesign.FakeEntitities.Complaints</text><text fill="#000000" font-family="sans-serif" font-size="13" font-weight="bold" lengthAdjust="spacing" textLength="55" x="325" y="160.4336">detailed</text><text fill="#000000" font-family="sans-serif" font-size="13" lengthAdjust="spacing" textLength="23" x="384" y="160.4336">and</text><text fill="#000000" font-family="sans-serif" font-size="13" font-weight="bold" lengthAdjust="spacing" textLength="166" x="411" y="160.4336">grouped per namespace</text><text fill="#000000" font-family="sans-serif" font-size="13" lengthAdjust="spacing" textLength="4" x="12" y="175.7441">&#160;</text><text fill="#000000" font-family="sans-serif" font-size="13" lengthAdjust="spacing" textLength="229" x="12" y="206.3652">You can click either the namespaces</text><text fill="#000000" font-family="sans-serif" font-size="13" lengthAdjust="spacing" textLength="266" x="12" y="221.6758">or class names for filtering them and their</text><text fill="#000000" font-family="sans-serif" font-size="13" lengthAdjust="spacing" textLength="130" x="12" y="236.9863">direct dependencies.</text><text fill="#000000" font-family="sans-serif" font-size="13" lengthAdjust="spacing" textLength="4" x="12" y="252.2969">&#160;</text><line style="stroke:#181818;stroke-width:1.0;" x1="7" x2="325" y1="186.1416" y2="186.1416"/><line style="stroke:#181818;stroke-width:1.0;" x1="7" x2="325" y1="188.1416" y2="188.1416"/><text fill="#000000" font-family="sans-serif" font-size="13" lengthAdjust="spacing" textLength="32" x="325" y="190.5547">Filter</text><line style="stroke:#181818;stroke-width:1.0;" x1="357" x2="675" y1="186.1416" y2="186.1416"/><line style="stroke:#181818;stroke-width:1.0;" x1="357" x2="675" y1="188.1416" y2="188.1416"/><ellipse cx="17.5" cy="282.1602" fill="#000000" rx="2.5" ry="2.5" style="stroke:#000000;stroke-width:0.0;"/><text fill="#000000" font-family="sans-serif" font-size="13" lengthAdjust="spacing" textLength="309" x="24" y="286.918">Examples.BetterDesign.FakeEntitities.Complaints</text><text fill="#000000" font-family="sans-serif" font-size="13" font-weight="bold" lengthAdjust="spacing" textLength="67" x="337" y="286.918">simplified</text><text fill="#000000" font-family="sans-serif" font-size="13" lengthAdjust="spacing" textLength="23" x="408" y="286.918">and</text><text fill="#000000" font-family="sans-serif" font-size="13" font-weight="bold" lengthAdjust="spacing" textLength="166" x="435" y="286.918">grouped per namespace</text><text fill="#000000" font-family="sans-serif" font-size="13" lengthAdjust="spacing" textLength="4" x="601" y="286.918">:</text><text fill="#000000" font-family="sans-serif" font-size="13" lengthAdjust="spacing" textLength="12" x="12" y="302.2285">&#160;&#160;&#160;</text><a href="Examples.BetterDesign.FakeEntitities.Complaints-diagram-simplified-grouped-per-namespace.svg" target="_top" title="Examples.BetterDesign.FakeEntitities.Complaints-diagram-simplified-grouped-per-namespace.svg" xlink:actuate="onRequest" xlink:href="Examples.BetterDesign.FakeEntitities.Complaints-diagram-simplified-grouped-per-namespace.svg" xlink:show="new" xlink:title="Examples.BetterDesign.FakeEntitities.Complaints-diagram-simplified-grouped-per-namespace.svg" xlink:type="simple"><text fill="#0000FF" font-family="sans-serif" font-size="13" lengthAdjust="spacing" text-decoration="underline" textLength="631" x="24" y="302.2285">Examples.BetterDesign.FakeEntitities.Complaints-diagram-simplified-grouped-per-namespace.svg</text></a><ellipse cx="17.5" cy="312.7813" fill="#000000" rx="2.5" ry="2.5" style="stroke:#000000;stroke-width:0.0;"/><text fill="#000000" font-family="sans-serif" font-size="13" lengthAdjust="spacing" textLength="78" x="24" y="317.5391">Full diagram</text><text fill="#000000" font-family="sans-serif" font-size="13" font-weight="bold" lengthAdjust="spacing" textLength="55" x="106" y="317.5391">detailed</text><text fill="#000000" font-family="sans-serif" font-size="13" lengthAdjust="spacing" textLength="23" x="165" y="317.5391">and</text><text fill="#000000" font-family="sans-serif" font-size="13" font-weight="bold" lengthAdjust="spacing" textLength="166" x="192" y="317.5391">grouped per namespace</text><text fill="#000000" font-family="sans-serif" font-size="13" lengthAdjust="spacing" textLength="4" x="358" y="317.5391">:</text><text fill="#000000" font-family="sans-serif" font-size="13" lengthAdjust="spacing" textLength="12" x="12" y="332.8496">&#160;&#160;&#160;</text><a href="full-diagram-detailed-grouped-per-namespace.svg" target="_top" title="full-diagram-detailed-grouped-per-namespace.svg" xlink:actuate="onRequest" xlink:href="full-diagram-detailed-grouped-per-namespace.svg" xlink:show="new" xlink:title="full-diagram-detailed-grouped-per-namespace.svg" xlink:type="simple"><text fill="#0000FF" font-family="sans-serif" font-size="13" lengthAdjust="spacing" text-decoration="underline" textLength="330" x="24" y="332.8496">full-diagram-detailed-grouped-per-namespace.svg</text></a><ellipse cx="17.5" cy="343.4023" fill="#000000" rx="2.5" ry="2.5" style="stroke:#000000;stroke-width:0.0;"/><text fill="#000000" font-family="sans-serif" font-size="13" lengthAdjust="spacing" textLength="41" x="24" y="348.1602">Home:</text><text fill="#000000" font-family="sans-serif" font-size="13" lengthAdjust="spacing" textLength="12" x="12" y="363.4707">&#160;&#160;&#160;</text><a href="index.html" target="_top" title="index.html" xlink:actuate="onRequest" xlink:href="index.html" xlink:show="new" xlink:title="index.html" xlink:type="simple"><text fill="#0000FF" font-family="sans-serif" font-size="13" lengthAdjust="spacing" text-decoration="underline" textLength="68" x="24" y="363.4707">index.html</text></a><line style="stroke:#181818;stroke-width:1.0;" x1="7" x2="304" y1="266.6943" y2="266.6943"/><line style="stroke:#181818;stroke-width:1.0;" x1="7" x2="304" y1="268.6943" y2="268.6943"/><text fill="#000000" font-family="sans-serif" font-size="13" lengthAdjust="spacing" textLength="74" x="304" y="271.1074">Select other</text><line style="stroke:#181818;stroke-width:1.0;" x1="378" x2="675" y1="266.6943" y2="266.6943"/><line style="stroke:#181818;stroke-width:1.0;" x1="378" x2="675" y1="268.6943" y2="268.6943"/></g><!--link DBCustomers to Complaints--><g id="link_DBCustomers_Complaints"><path codeLine="44" d="M1163,374.9547 C1163,374.9547 1163,429.1347 1163,429.1347 " fill="none" id="DBCustomers-to-Complaints" style="stroke:#6060BB;stroke-width:1.0;stroke-dasharray:7.0,7.0;"/><polygon fill="#6060BB" points="1163,434.1347,1167,425.1347,1163,429.1347,1159,425.1347,1163,434.1347" style="stroke:#6060BB;stroke-width:1.0;"/><text fill="#000000" font-family="sans-serif" font-size="13" lengthAdjust="spacing" textLength="29" x="1133" y="398.613">uses</text></g><!--SRC=[rLTDRzf04BtpAqRaaDOLJjH33XPm80bgBhbKFLG1eOqzXbNMkzRkEbzL_djdmM18CB19I5f02EoPUM_cpLYpveRBd6cMWU0IxKEEeBITg8RbLY2q3N_4wFjnz_oUPRb04_RGMjHdQFXOXdrsW-UIJEbDzquLsJ0khO4WID0oBZ090c0oeGjZhOeS4yXHWsGPcfp560Jj8uVHRKXb4Pg_LQ61QIGV9XuUkHn70xa_y84So4wdpmM5xNG6ak0XPX9YmUCRG6udP4zVbO-1WLIQ39WniwkGqlzq6eBeEkji2ae_k1x8X6kCBIIOeqnGnexh3FOd2dT7EH077e1_eeRJ7vxoxQbI7G7WwieJevLmDgR-Q5L8hHAXHGYj1K9eRiV3eSkYNmW1fPk75dE2ARalKEVEsp1_g0pd0JZL-JwSs4mCXqrW1lf2CKlQN5ABDHREYsel5SKB5_wi2RPIrhfo-y90sM_hjJlhdHR6KW6qgTLtoSOFV8eEy0t6QESXlhHJ9It4IYZTQPuSdnptUiqkZtPghGjvgtYCxICNe_irWfLWlPuBrzpnULFoAMDLH2yiPkj9nf5d_xy7JqVd9STP7Tv6SxK0RoEveikIw8jI_3DKNwXJiVrbQjkJH8XyvNeJJSVbPJatpb0yp-mpslGLurHGYf5lCTv_bhRrwCThlw55-roR3NswjywRujPBkJTnPhYRddRxV7nDqRVrnxuKVseSkikqpoRmCQi2tD7E2hGiMA3jCaDAHgKmPGAdGXcteJ9QptADjrmLPcIAwz4YoaXmSgoONYg9S8qnepbtAswvbXjkW3ufbznCC0cNObU-oqaqdjQQp1Ecs__ZLhO5vbc3xBXw-w-6cvV3-iF3wuy2Er4xU40Xr5r9qMCIFgHkTNFo6PEocaZDhFYD4npIEMkd5-pDrb5qVQbHqEbBIGDuRpMBBRL0gbLMCO_8Tgt6ZUq7dl3gOFOK7uPTxn6024WlyovSdy7y1G00]--></g></svg>