<?xml version="1.0" encoding="us-ascii" standalone="no"?><svg xmlns="http://www.w3.org/2000/svg" xmlns:xlink="http://www.w3.org/1999/xlink" contentStyleType="text/css" height="714px" preserveAspectRatio="none" style="width:1280px;height:714px;background:#FFFFFF;" version="1.1" viewBox="0 0 1280 714" width="1280px" zoomAndPan="magnify"><defs/><g><text fill="#000000" font-family="sans-serif" font-size="20" font-weight="bold" lengthAdjust="spacing" textLength="499" x="177.5" y="29.3359">Examples.BadDesign.BasicExample.BaseExample</text><text fill="#000000" font-family="sans-serif" font-size="20" font-weight="bold" lengthAdjust="spacing" textLength="104" x="683.5" y="29.3359">simplified</text><text fill="#000000" font-family="sans-serif" font-size="20" font-weight="bold" lengthAdjust="spacing" textLength="38" x="794.5" y="29.3359">and</text><text fill="#000000" font-family="sans-serif" font-size="20" font-weight="bold" lengthAdjust="spacing" textLength="249" x="839.5" y="29.3359">grouped per namespace</text><!--cluster Examples--><g id="cluster_Examples"><a href="Examples-diagram-simplified-grouped-per-namespace.svg" target="_top" title="Examples-diagram-simplified-grouped-per-namespace.svg" xlink:actuate="onRequest" xlink:href="Examples-diagram-simplified-grouped-per-namespace.svg" xlink:show="new" xlink:title="Examples-diagram-simplified-grouped-per-namespace.svg" xlink:type="simple"><path d="M676.5,50.5547 L745.5,50.5547 A3.75,3.75 0 0 1 748,53.0547 L755,73.043 L1270.5,73.043 A2.5,2.5 0 0 1 1273,75.543 L1273,705.0547 A2.5,2.5 0 0 1 1270.5,707.5547 L676.5,707.5547 A2.5,2.5 0 0 1 674,705.0547 L674,53.0547 A2.5,2.5 0 0 1 676.5,50.5547 " fill="none" style="stroke:#000000;stroke-width:1.5;"/><line style="stroke:#000000;stroke-width:1.5;" x1="674" x2="755" y1="73.043" y2="73.043"/><text fill="#000000" font-family="sans-serif" font-size="14" font-weight="bold" lengthAdjust="spacing" textLength="68" x="678" y="66.0898">Examples</text></a></g><!--cluster BadDesign--><g id="cluster_BadDesign"><a href="Examples.BadDesign-diagram-simplified-grouped-per-namespace.svg" target="_top" title="Examples.BadDesign-diagram-simplified-grouped-per-namespace.svg" xlink:actuate="onRequest" xlink:href="Examples.BadDesign-diagram-simplified-grouped-per-namespace.svg" xlink:show="new" xlink:title="Examples.BadDesign-diagram-simplified-grouped-per-namespace.svg" xlink:type="simple"><path d="M700.5,93.5547 L777.5,93.5547 A3.75,3.75 0 0 1 780,96.0547 L787,116.043 L1246.5,116.043 A2.5,2.5 0 0 1 1249,118.543 L1249,681.0547 A2.5,2.5 0 0 1 1246.5,683.5547 L700.5,683.5547 A2.5,2.5 0 0 1 698,681.0547 L698,96.0547 A2.5,2.5 0 0 1 700.5,93.5547 " fill="none" style="stroke:#000000;stroke-width:1.5;"/><line style="stroke:#000000;stroke-width:1.5;" x1="698" x2="787" y1="116.043" y2="116.043"/><text fill="#000000" font-family="sans-serif" font-size="14" font-weight="bold" lengthAdjust="spacing" textLength="76" x="702" y="109.0898">BadDesign</text></a></g><!--cluster BasicExample--><g id="cluster_BasicExample"><a href="Examples.BadDesign.BasicExample-diagram-simplified-grouped-per-namespace.svg" target="_top" title="Examples.BadDesign.BasicExample-diagram-simplified-grouped-per-namespace.svg" xlink:actuate="onRequest" xlink:href="Examples.BadDesign.BasicExample-diagram-simplified-grouped-per-namespace.svg" xlink:show="new" xlink:title="Examples.BadDesign.BasicExample-diagram-simplified-grouped-per-namespace.svg" xlink:type="simple"><path d="M724.5,136.5547 L822.5,136.5547 A3.75,3.75 0 0 1 825,139.0547 L832,159.043 L1222.5,159.043 A2.5,2.5 0 0 1 1225,161.543 L1225,657.0547 A2.5,2.5 0 0 1 1222.5,659.5547 L724.5,659.5547 A2.5,2.5 0 0 1 722,657.0547 L722,139.0547 A2.5,2.5 0 0 1 724.5,136.5547 " fill="none" style="stroke:#000000;stroke-width:1.5;"/><line style="stroke:#000000;stroke-width:1.5;" x1="722" x2="832" y1="159.043" y2="159.043"/><text fill="#000000" font-family="sans-serif" font-size="14" font-weight="bold" lengthAdjust="spacing" textLength="97" x="726" y="152.0898">BasicExample</text></a></g><!--class BaseExample_DOT_EnumTest--><a href="Examples.BadDesign.BasicExample.BaseExample.EnumTest-diagram-simplified-grouped-per-namespace.svg" target="_top" title="Examples.BadDesign.BasicExample.BaseExample.EnumTest-diagram-simplified-grouped-per-namespace.svg" xlink:actuate="onRequest" xlink:href="Examples.BadDesign.BasicExample.BaseExample.EnumTest-diagram-simplified-grouped-per-namespace.svg" xlink:show="new" xlink:title="Examples.BadDesign.BasicExample.BaseExample.EnumTest-diagram-simplified-grouped-per-namespace.svg" xlink:type="simple"><g id="elem_BaseExample_DOT_EnumTest"><rect codeLine="7" fill="#FFFF00" height="48" id="BaseExample_DOT_EnumTest" rx="2.5" ry="2.5" style="stroke:#181818;stroke-width:0.5;" width="234" x="738" y="487.5547"/><ellipse cx="753" cy="503.5547" fill="#ADD1B2" rx="11" ry="11" style="stroke:#181818;stroke-width:1.0;"/><path d="M755.4731,509.6978 Q754.8921,509.9966 754.2529,510.146 Q753.6138,510.2954 752.9082,510.2954 Q750.4014,510.2954 749.0815,508.6436 Q747.7617,506.9917 747.7617,503.8706 Q747.7617,500.7412 749.0815,499.0894 Q750.4014,497.4375 752.9082,497.4375 Q753.6138,497.4375 754.2612,497.5869 Q754.9087,497.7363 755.4731,498.0352 L755.4731,500.7578 Q754.8423,500.1768 754.2488,499.907 Q753.6553,499.6372 753.0244,499.6372 Q751.6797,499.6372 750.9949,500.7039 Q750.3101,501.7705 750.3101,503.8706 Q750.3101,505.9624 750.9949,507.0291 Q751.6797,508.0957 753.0244,508.0957 Q753.6553,508.0957 754.2488,507.8259 Q754.8423,507.5562 755.4731,506.9751 Z " fill="#000000"/><text fill="#000000" font-family="sans-serif" font-size="14" lengthAdjust="spacing" textLength="202" x="767" y="508.8457">BaseExample_DOT_EnumTest</text><line style="stroke:#181818;stroke-width:0.5;" x1="739" x2="971" y1="519.5547" y2="519.5547"/><line style="stroke:#181818;stroke-width:0.5;" x1="739" x2="971" y1="527.5547" y2="527.5547"/></g></a><!--class BaseExample--><a href="Examples.BadDesign.BasicExample.BaseExample-diagram-simplified-grouped-per-namespace.svg" target="_top" title="Examples.BadDesign.BasicExample.BaseExample-diagram-simplified-grouped-per-namespace.svg" xlink:actuate="onRequest" xlink:href="Examples.BadDesign.BasicExample.BaseExample-diagram-simplified-grouped-per-namespace.svg" xlink:show="new" xlink:title="Examples.BadDesign.BasicExample.BaseExample-diagram-simplified-grouped-per-namespace.svg" xlink:type="simple"><g id="elem_BaseExample"><rect codeLine="9" fill="#FFFF00" height="48" id="BaseExample" rx="2.5" ry="2.5" style="stroke:#181818;stroke-width:0.5;" width="122" x="1047" y="379.5547"/><ellipse cx="1062" cy="395.5547" fill="#ADD1B2" rx="11" ry="11" style="stroke:#181818;stroke-width:1.0;"/><path d="M1064.4731,401.6978 Q1063.8921,401.9966 1063.2529,402.146 Q1062.6138,402.2954 1061.9082,402.2954 Q1059.4014,402.2954 1058.0815,400.6436 Q1056.7617,398.9917 1056.7617,395.8706 Q1056.7617,392.7412 1058.0815,391.0894 Q1059.4014,389.4375 1061.9082,389.4375 Q1062.6138,389.4375 1063.2612,389.5869 Q1063.9087,389.7363 1064.4731,390.0352 L1064.4731,392.7578 Q1063.8423,392.1768 1063.2488,391.907 Q1062.6553,391.6372 1062.0244,391.6372 Q1060.6797,391.6372 1059.9949,392.7039 Q1059.3101,393.7705 1059.3101,395.8706 Q1059.3101,397.9624 1059.9949,399.0291 Q1060.6797,400.0957 1062.0244,400.0957 Q1062.6553,400.0957 1063.2488,399.8259 Q1063.8423,399.5562 1064.4731,398.9751 Z " fill="#000000"/><text fill="#000000" font-family="sans-serif" font-size="14" lengthAdjust="spacing" textLength="90" x="1076" y="400.8457">BaseExample</text><line style="stroke:#181818;stroke-width:0.5;" x1="1048" x2="1168" y1="411.5547" y2="411.5547"/><line style="stroke:#181818;stroke-width:0.5;" x1="1048" x2="1168" y1="419.5547" y2="419.5547"/></g></a><!--class AbstractBaseExample--><a href="Examples.BadDesign.BasicExample.AbstractBaseExample-diagram-simplified-grouped-per-namespace.svg" target="_top" title="Examples.BadDesign.BasicExample.AbstractBaseExample-diagram-simplified-grouped-per-namespace.svg" xlink:actuate="onRequest" xlink:href="Examples.BadDesign.BasicExample.AbstractBaseExample-diagram-simplified-grouped-per-namespace.svg" xlink:show="new" xlink:title="Examples.BadDesign.BasicExample.AbstractBaseExample-diagram-simplified-grouped-per-namespace.svg" xlink:type="simple"><g id="elem_AbstractBaseExample"><rect codeLine="11" fill="#F1F1F1" height="48" id="AbstractBaseExample" rx="2.5" ry="2.5" style="stroke:#181818;stroke-width:0.5;" width="179" x="1023.5" y="171.5547"/><ellipse cx="1038.5" cy="187.5547" fill="#A9DCDF" rx="11" ry="11" style="stroke:#181818;stroke-width:1.0;"/><path d="M1038.3633,182.9028 L1037.2095,187.9746 L1039.5254,187.9746 Z M1036.8691,180.6616 L1039.8657,180.6616 L1043.2109,193.0547 L1040.7622,193.0547 L1039.9985,189.9917 L1036.7197,189.9917 L1035.9727,193.0547 L1033.5239,193.0547 Z " fill="#000000"/><text fill="#000000" font-family="sans-serif" font-size="14" font-style="italic" lengthAdjust="spacing" textLength="147" x="1052.5" y="192.8457">AbstractBaseExample</text><line style="stroke:#181818;stroke-width:0.5;" x1="1024.5" x2="1201.5" y1="203.5547" y2="203.5547"/><line style="stroke:#181818;stroke-width:0.5;" x1="1024.5" x2="1201.5" y1="211.5547" y2="211.5547"/></g></a><!--class Useless--><a href="Examples.BadDesign.BasicExample.Useless-diagram-simplified-grouped-per-namespace.svg" target="_top" title="Examples.BadDesign.BasicExample.Useless-diagram-simplified-grouped-per-namespace.svg" xlink:actuate="onRequest" xlink:href="Examples.BadDesign.BasicExample.Useless-diagram-simplified-grouped-per-namespace.svg" xlink:show="new" xlink:title="Examples.BadDesign.BasicExample.Useless-diagram-simplified-grouped-per-namespace.svg" xlink:type="simple"><g id="elem_Useless"><rect codeLine="13" fill="#F1F1F1" height="48" id="Useless" rx="2.5" ry="2.5" style="stroke:#181818;stroke-width:0.5;" width="83" x="1066.5" y="595.5547"/><ellipse cx="1081.5" cy="611.5547" fill="#ADD1B2" rx="11" ry="11" style="stroke:#181818;stroke-width:1.0;"/><path d="M1083.9731,617.6978 Q1083.3921,617.9966 1082.7529,618.146 Q1082.1138,618.2954 1081.4082,618.2954 Q1078.9014,618.2954 1077.5815,616.6436 Q1076.2617,614.9917 1076.2617,611.8706 Q1076.2617,608.7412 1077.5815,607.0894 Q1078.9014,605.4375 1081.4082,605.4375 Q1082.1138,605.4375 1082.7612,605.5869 Q1083.4087,605.7363 1083.9731,606.0352 L1083.9731,608.7578 Q1083.3423,608.1768 1082.7488,607.907 Q1082.1553,607.6372 1081.5244,607.6372 Q1080.1797,607.6372 1079.4949,608.7039 Q1078.8101,609.7705 1078.8101,611.8706 Q1078.8101,613.9624 1079.4949,615.0291 Q1080.1797,616.0957 1081.5244,616.0957 Q1082.1553,616.0957 1082.7488,615.8259 Q1083.3423,615.5562 1083.9731,614.9751 Z " fill="#000000"/><text fill="#000000" font-family="sans-serif" font-size="14" lengthAdjust="spacing" textLength="51" x="1095.5" y="616.8457">Useless</text><line style="stroke:#181818;stroke-width:0.5;" x1="1067.5" x2="1148.5" y1="627.5547" y2="627.5547"/><line style="stroke:#181818;stroke-width:0.5;" x1="1067.5" x2="1148.5" y1="635.5547" y2="635.5547"/></g></a><!--class ClassExample--><a href="Examples.BadDesign.BasicExample.ClassExample-diagram-simplified-grouped-per-namespace.svg" target="_top" title="Examples.BadDesign.BasicExample.ClassExample-diagram-simplified-grouped-per-namespace.svg" xlink:actuate="onRequest" xlink:href="Examples.BadDesign.BasicExample.ClassExample-diagram-simplified-grouped-per-namespace.svg" xlink:show="new" xlink:title="Examples.BadDesign.BasicExample.ClassExample-diagram-simplified-grouped-per-namespace.svg" xlink:type="simple"><g id="elem_ClassExample"><rect codeLine="15" fill="#F1F1F1" height="48" id="ClassExample" rx="2.5" ry="2.5" style="stroke:#181818;stroke-width:0.5;" width="127" x="1044.5" y="487.5547"/><ellipse cx="1059.5" cy="503.5547" fill="#ADD1B2" rx="11" ry="11" style="stroke:#181818;stroke-width:1.0;"/><path d="M1061.9731,509.6978 Q1061.3921,509.9966 1060.7529,510.146 Q1060.1138,510.2954 1059.4082,510.2954 Q1056.9014,510.2954 1055.5815,508.6436 Q1054.2617,506.9917 1054.2617,503.8706 Q1054.2617,500.7412 1055.5815,499.0894 Q1056.9014,497.4375 1059.4082,497.4375 Q1060.1138,497.4375 1060.7612,497.5869 Q1061.4087,497.7363 1061.9731,498.0352 L1061.9731,500.7578 Q1061.3423,500.1768 1060.7488,499.907 Q1060.1553,499.6372 1059.5244,499.6372 Q1058.1797,499.6372 1057.4949,500.7039 Q1056.8101,501.7705 1056.8101,503.8706 Q1056.8101,505.9624 1057.4949,507.0291 Q1058.1797,508.0957 1059.5244,508.0957 Q1060.1553,508.0957 1060.7488,507.8259 Q1061.3423,507.5562 1061.9731,506.9751 Z " fill="#000000"/><text fill="#000000" font-family="sans-serif" font-size="14" lengthAdjust="spacing" textLength="95" x="1073.5" y="508.8457">ClassExample</text><line style="stroke:#181818;stroke-width:0.5;" x1="1045.5" x2="1170.5" y1="519.5547" y2="519.5547"/><line style="stroke:#181818;stroke-width:0.5;" x1="1045.5" x2="1170.5" y1="527.5547" y2="527.5547"/></g></a><g id="elem_FloatingNote"><path d="M6,71.5547 L6,319.2129 L658,319.2129 L658,81.5547 L648,71.5547 L6,71.5547 " fill="#FEFFDD" style="stroke:#181818;stroke-width:0.5;"/><path d="M648,71.5547 L648,81.5547 L658,81.5547 L648,71.5547 " fill="#FEFFDD" style="stroke:#181818;stroke-width:1.0;"/><text fill="#000000" font-family="sans-serif" font-size="13" lengthAdjust="spacing" textLength="120" x="12" y="89.123">Your are analyzing:</text><text fill="#000000" font-family="sans-serif" font-size="13" lengthAdjust="spacing" textLength="304" x="12" y="104.4336">Examples.BadDesign.BasicExample.BaseExample</text><text fill="#000000" font-family="sans-serif" font-size="13" font-weight="bold" lengthAdjust="spacing" textLength="67" x="320" y="104.4336">simplified</text><text fill="#000000" font-family="sans-serif" font-size="13" lengthAdjust="spacing" textLength="23" x="391" y="104.4336">and</text><text fill="#000000" font-family="sans-serif" font-size="13" font-weight="bold" lengthAdjust="spacing" textLength="166" x="418" y="104.4336">grouped per namespace</text><text fill="#000000" font-family="sans-serif" font-size="13" lengthAdjust="spacing" textLength="4" x="12" y="119.7441">&#160;</text><text fill="#000000" font-family="sans-serif" font-size="13" lengthAdjust="spacing" textLength="229" x="12" y="150.3652">You can click either the namespaces</text><text fill="#000000" font-family="sans-serif" font-size="13" lengthAdjust="spacing" textLength="266" x="12" y="165.6758">or class names for filtering them and their</text><text fill="#000000" font-family="sans-serif" font-size="13" lengthAdjust="spacing" textLength="130" x="12" y="180.9863">direct dependencies.</text><text fill="#000000" font-family="sans-serif" font-size="13" lengthAdjust="spacing" textLength="4" x="12" y="196.2969">&#160;</text><line style="stroke:#181818;stroke-width:1.0;" x1="7" x2="316" y1="130.1416" y2="130.1416"/><line style="stroke:#181818;stroke-width:1.0;" x1="7" x2="316" y1="132.1416" y2="132.1416"/><text fill="#000000" font-family="sans-serif" font-size="13" lengthAdjust="spacing" textLength="32" x="316" y="134.5547">Filter</text><line style="stroke:#181818;stroke-width:1.0;" x1="348" x2="657" y1="130.1416" y2="130.1416"/><line style="stroke:#181818;stroke-width:1.0;" x1="348" x2="657" y1="132.1416" y2="132.1416"/><ellipse cx="17.5" cy="226.1602" fill="#000000" rx="2.5" ry="2.5" style="stroke:#000000;stroke-width:0.0;"/><text fill="#000000" font-family="sans-serif" font-size="13" lengthAdjust="spacing" textLength="304" x="24" y="230.918">Examples.BadDesign.BasicExample.BaseExample</text><text fill="#000000" font-family="sans-serif" font-size="13" font-weight="bold" lengthAdjust="spacing" textLength="55" x="332" y="230.918">detailed</text><text fill="#000000" font-family="sans-serif" font-size="13" lengthAdjust="spacing" textLength="23" x="391" y="230.918">and</text><text fill="#000000" font-family="sans-serif" font-size="13" font-weight="bold" lengthAdjust="spacing" textLength="166" x="418" y="230.918">grouped per namespace</text><text fill="#000000" font-family="sans-serif" font-size="13" lengthAdjust="spacing" textLength="4" x="584" y="230.918">:</text><text fill="#000000" font-family="sans-serif" font-size="13" lengthAdjust="spacing" textLength="12" x="12" y="246.2285">&#160;&#160;&#160;</text><a href="Examples.BadDesign.BasicExample.BaseExample-diagram-detailed-grouped-per-namespace.svg" target="_top" title="Examples.BadDesign.BasicExample.BaseExample-diagram-detailed-grouped-per-namespace.svg" xlink:actuate="onRequest" xlink:href="Examples.BadDesign.BasicExample.BaseExample-diagram-detailed-grouped-per-namespace.svg" xlink:show="new" xlink:title="Examples.BadDesign.BasicExample.BaseExample-diagram-detailed-grouped-per-namespace.svg" xlink:type="simple"><text fill="#0000FF" font-family="sans-serif" font-size="13" lengthAdjust="spacing" text-decoration="underline" textLength="613" x="24" y="246.2285">Examples.BadDesign.BasicExample.BaseExample-diagram-detailed-grouped-per-namespace.svg</text></a><ellipse cx="17.5" cy="256.7813" fill="#000000" rx="2.5" ry="2.5" style="stroke:#000000;stroke-width:0.0;"/><text fill="#000000" font-family="sans-serif" font-size="13" lengthAdjust="spacing" textLength="78" x="24" y="261.5391">Full diagram</text><text fill="#000000" font-family="sans-serif" font-size="13" font-weight="bold" lengthAdjust="spacing" textLength="67" x="106" y="261.5391">simplified</text><text fill="#000000" font-family="sans-serif" font-size="13" lengthAdjust="spacing" textLength="23" x="177" y="261.5391">and</text><text fill="#000000" font-family="sans-serif" font-size="13" font-weight="bold" lengthAdjust="spacing" textLength="166" x="204" y="261.5391">grouped per namespace</text><text fill="#000000" font-family="sans-serif" font-size="13" lengthAdjust="spacing" textLength="4" x="370" y="261.5391">:</text><text fill="#000000" font-family="sans-serif" font-size="13" lengthAdjust="spacing" textLength="12" x="12" y="276.8496">&#160;&#160;&#160;</text><a href="full-diagram-simplified-grouped-per-namespace.svg" target="_top" title="full-diagram-simplified-grouped-per-namespace.svg" xlink:actuate="onRequest" xlink:href="full-diagram-simplified-grouped-per-namespace.svg" xlink:show="new" xlink:title="full-diagram-simplified-grouped-per-namespace.svg" xlink:type="simple"><text fill="#0000FF" font-family="sans-serif" font-size="13" lengthAdjust="spacing" text-decoration="underline" textLength="343" x="24" y="276.8496">full-diagram-simplified-grouped-per-namespace.svg</text></a><ellipse cx="17.5" cy="287.4023" fill="#000000" rx="2.5" ry="2.5" style="stroke:#000000;stroke-width:0.0;"/><text fill="#000000" font-family="sans-serif" font-size="13" lengthAdjust="spacing" textLength="41" x="24" y="292.1602">Home:</text><text fill="#000000" font-family="sans-serif" font-size="13" lengthAdjust="spacing" textLength="12" x="12" y="307.4707">&#160;&#160;&#160;</text><a href="index.html" target="_top" title="index.html" xlink:actuate="onRequest" xlink:href="index.html" xlink:show="new" xlink:title="index.html" xlink:type="simple"><text fill="#0000FF" font-family="sans-serif" font-size="13" lengthAdjust="spacing" text-decoration="underline" textLength="68" x="24" y="307.4707">index.html</text></a><line style="stroke:#181818;stroke-width:1.0;" x1="7" x2="295" y1="210.6943" y2="210.6943"/><line style="stroke:#181818;stroke-width:1.0;" x1="7" x2="295" y1="212.6943" y2="212.6943"/><text fill="#000000" font-family="sans-serif" font-size="13" lengthAdjust="spacing" textLength="74" x="295" y="215.1074">Select other</text><line style="stroke:#181818;stroke-width:1.0;" x1="369" x2="657" y1="210.6943" y2="210.6943"/><line style="stroke:#181818;stroke-width:1.0;" x1="369" x2="657" y1="212.6943" y2="212.6943"/></g><!--reverse link AbstractBaseExample to BaseExample--><g id="link_AbstractBaseExample_BaseExample"><path codeLine="30" d="M1108,240.8247 C1108,240.8247 1108,379.1247 1108,379.1247 " fill="none" id="AbstractBaseExample-backto-BaseExample" style="stroke:#FF0000;stroke-width:1.0;"/><polygon fill="none" points="1101,240.8247,1108,220.8247,1115,240.8247,1101,240.8247" style="stroke:#FF0000;stroke-width:1.0;"/></g><!--reverse link BaseExample to BaseExample_DOT_EnumTest--><g id="link_BaseExample_BaseExample_DOT_EnumTest"><path codeLine="31" d="M1030.76,395.5547 C1030.76,395.5547 855,395.5547 855,395.5547 C855,395.5547 855,453.2247 855,487.2347 " fill="none" id="BaseExample-backto-BaseExample_DOT_EnumTest" style="stroke:#10BBBB;stroke-width:1.0;"/><ellipse cx="1037.76" cy="395.5547" fill="#FFFFFF" rx="8" ry="8" style="stroke:#10BBBB;stroke-width:1.0;"/><line style="stroke:#10BBBB;stroke-width:1.0;" x1="1029.76" x2="1045.76" y1="395.5547" y2="395.5547"/><line style="stroke:#10BBBB;stroke-width:1.0;" x1="1037.76" x2="1037.76" y1="387.5547" y2="403.5547"/></g><!--link BaseExample to Useless--><g id="link_BaseExample_Useless"><path codeLine="32" d="M1046.72,411.5547 C1041.12,411.5547 1037.5,411.5547 1037.5,411.5547 C1037.5,411.5547 1037.5,611.5547 1037.5,611.5547 C1037.5,611.5547 1060.18,611.5547 1060.18,611.5547 " fill="none" id="BaseExample-to-Useless" style="stroke:#6060BB;stroke-width:1.0;stroke-dasharray:7.0,7.0;"/><polygon fill="#6060BB" points="1065.18,611.5547,1056.18,607.5547,1060.18,611.5547,1056.18,615.5547,1065.18,611.5547" style="stroke:#6060BB;stroke-width:1.0;"/><text fill="#000000" font-family="sans-serif" font-size="13" lengthAdjust="spacing" textLength="29" x="1007.5" y="514.853">uses</text></g><!--link AbstractBaseExample to Useless--><g id="link_AbstractBaseExample_Useless"><path codeLine="33" d="M1030.5,220.0147 C1030.5,311.4047 1030.5,627.5547 1030.5,627.5547 C1030.5,627.5547 1060.07,627.5547 1060.07,627.5547 " fill="none" id="AbstractBaseExample-to-Useless" style="stroke:#6060BB;stroke-width:1.0;stroke-dasharray:7.0,7.0;"/><polygon fill="#6060BB" points="1065.07,627.5547,1056.07,623.5547,1060.07,627.5547,1056.07,631.5547,1065.07,627.5547" style="stroke:#6060BB;stroke-width:1.0;"/><text fill="#000000" font-family="sans-serif" font-size="13" lengthAdjust="spacing" textLength="29" x="1000.5" y="435.143">uses</text></g><!--reverse link BaseExample to ClassExample--><g id="link_BaseExample_ClassExample"><path codeLine="34" d="M1087.67,448.7947 C1087.67,448.7947 1087.67,487.3947 1087.67,487.3947 " fill="none" id="BaseExample-backto-ClassExample" style="stroke:#FF0000;stroke-width:1.0;"/><polygon fill="none" points="1080.67,448.7947,1087.67,428.7947,1094.67,448.7947,1080.67,448.7947" style="stroke:#FF0000;stroke-width:1.0;"/></g><!--link ClassExample to BaseExample--><g id="link_ClassExample_BaseExample"><path codeLine="38" d="M1128.33,487.3147 C1128.33,487.3147 1128.33,433.7147 1128.33,433.7147 " fill="none" id="ClassExample-to-BaseExample" style="stroke:#909090;stroke-width:1.0;"/><polygon fill="#909090" points="1128.33,428.7147,1124.33,437.7147,1128.33,433.7147,1132.33,437.7147,1128.33,428.7147" style="stroke:#909090;stroke-width:1.0;"/><text fill="#000000" font-family="sans-serif" font-size="13" lengthAdjust="spacing" textLength="29" x="1098.33" y="457.083">uses</text></g><!--reverse link ClassExample to Useless--><g id="link_ClassExample_Useless"><path codeLine="35" d="M1094.17,549.7947 C1094.17,549.7947 1094.17,595.3947 1094.17,595.3947 " fill="none" id="ClassExample-backto-Useless" style="stroke:#10BB10;stroke-width:1.0;"/><polygon fill="#10BB10" points="1094.17,536.7947,1090.17,542.7947,1094.17,548.7947,1098.17,542.7947,1094.17,536.7947" style="stroke:#10BB10;stroke-width:1.0;"/></g><!--link ClassExample to Useless--><g id="link_ClassExample_Useless"><path codeLine="37" d="M1121.83,535.7947 C1121.83,535.7947 1121.83,589.3947 1121.83,589.3947 " fill="none" id="ClassExample-to-Useless" style="stroke:#6060BB;stroke-width:1.0;stroke-dasharray:7.0,7.0;"/><polygon fill="#6060BB" points="1121.83,594.3947,1125.83,585.3947,1121.83,589.3947,1117.83,585.3947,1121.83,594.3947" style="stroke:#6060BB;stroke-width:1.0;"/><text fill="#000000" font-family="sans-serif" font-size="13" lengthAdjust="spacing" textLength="29" x="1091.83" y="559.163">uses</text></g><!--SRC=[nLPBRzim3BxxLn3jeO07U-aE1HOq0TQqnKxTOTrXI8n0iUb4g2mPejpNrlzUkhMJ54YHo5is9mXaYUJtyI4oT2DrAQmeG4cDxg54CDOjJE2aKmYd91-n_watlBWNHQcGuZEHdIF9kUOLoRJPhr-mMKCOakI5p2LcOGX2PxmrjwOgCOCIBMXH89KYnJ0y_LWZ30Dj7CB1JrDP41PPHwY7Hwdd_OdU5_H4J_HWS2cLGpiOJ3I3Goeqf4gcDu3IBLYUVrOw11DjB0i8ejTToFazVp71P6lfuWMK5z9ET2OjfWuoB55dg5F9Nhp2VaTLdvWQf0OFmS_D39sGQhkJ73y068yzh4UP57EkYAZ5Y1hR4TkEbhPZkfqdIStyib8A6YMl3BJaSZQmH5sfRyFzQWfiJKYExtsyS8LAaWCG19VA2CSvkUB22fRAooYlXSGJ6NvjCBSAwyPO_rs8DvdRdbj_S8veK-GUPJCz_tOzlT1LSOta_2ekRjLygHu-e5Bchg7yr8runzln1nJ5Z9mLVFrtu_gb4VVZl47Bbtk7kFuWRcn4E_1h9Fy1fr4jjNlWriKxipiQcOBdAlUy_tcJuOwd6B0_3ZZO1MgUE3aq366a3DLJIt3xBYtUIbFHbAhPT6bdgYIhhZouCXfXXgce2EknrmngaWJypQMMjC0iNhEzqbrt97XwHwJn-ftpDZny34SyLdPwO6-oDSMw_Ymg7ZL64-3zovNZhEVM52lcVPRTajkWInSu_HsD3xd8aiYduGK-pV438nptplZn0tax3hmWu_7XIU-4CPDuk7F3WJvmKH9qYkD-4JjcRBqF1LuzBcnoTjpR0QPrPuyGcqQz9zv-C_G6YZtxtAi_IJJq-X_HmZq3]--></g></svg>