<?xml version="1.0" encoding="us-ascii" standalone="no"?><svg xmlns="http://www.w3.org/2000/svg" xmlns:xlink="http://www.w3.org/1999/xlink" contentStyleType="text/css" height="642px" preserveAspectRatio="none" style="width:1628px;height:642px;background:#FFFFFF;" version="1.1" viewBox="0 0 1628 642" width="1628px" zoomAndPan="magnify"><defs/><g><text fill="#000000" font-family="sans-serif" font-size="20" font-weight="bold" lengthAdjust="spacing" textLength="343" x="439.75" y="29.3359">Examples.BasicExample.IExample</text><text fill="#000000" font-family="sans-serif" font-size="20" font-weight="bold" lengthAdjust="spacing" textLength="84" x="789.75" y="29.3359">detailed</text><text fill="#000000" font-family="sans-serif" font-size="20" font-weight="bold" lengthAdjust="spacing" textLength="38" x="880.75" y="29.3359">and</text><text fill="#000000" font-family="sans-serif" font-size="20" font-weight="bold" lengthAdjust="spacing" textLength="249" x="925.75" y="29.3359">grouped per namespace</text><!--cluster Examples--><g id="cluster_Examples"><a href="Examples-diagram-detailed-grouped-per-namespace.svg" target="_top" title="Examples-diagram-detailed-grouped-per-namespace.svg" xlink:actuate="onRequest" xlink:href="Examples-diagram-detailed-grouped-per-namespace.svg" xlink:show="new" xlink:title="Examples-diagram-detailed-grouped-per-namespace.svg" xlink:type="simple"><path d="M596,50.5547 L665,50.5547 A3.75,3.75 0 0 1 667.5,53.0547 L674.5,73.043 L1619,73.043 A2.5,2.5 0 0 1 1621.5,75.543 L1621.5,632.5547 A2.5,2.5 0 0 1 1619,635.0547 L596,635.0547 A2.5,2.5 0 0 1 593.5,632.5547 L593.5,53.0547 A2.5,2.5 0 0 1 596,50.5547 " fill="none" style="stroke:#000000;stroke-width:1.5;"/><line style="stroke:#000000;stroke-width:1.5;" x1="593.5" x2="674.5" y1="73.043" y2="73.043"/><text fill="#000000" font-family="sans-serif" font-size="14" font-weight="bold" lengthAdjust="spacing" textLength="68" x="597.5" y="66.0898">Examples</text></a></g><!--cluster BasicExample--><g id="cluster_BasicExample"><a href="Examples.BasicExample-diagram-detailed-grouped-per-namespace.svg" target="_top" title="Examples.BasicExample-diagram-detailed-grouped-per-namespace.svg" xlink:actuate="onRequest" xlink:href="Examples.BasicExample-diagram-detailed-grouped-per-namespace.svg" xlink:show="new" xlink:title="Examples.BasicExample-diagram-detailed-grouped-per-namespace.svg" xlink:type="simple"><path d="M620,93.5547 L718,93.5547 A3.75,3.75 0 0 1 720.5,96.0547 L727.5,116.043 L1595,116.043 A2.5,2.5 0 0 1 1597.5,118.543 L1597.5,608.5547 A2.5,2.5 0 0 1 1595,611.0547 L620,611.0547 A2.5,2.5 0 0 1 617.5,608.5547 L617.5,96.0547 A2.5,2.5 0 0 1 620,93.5547 " fill="none" style="stroke:#000000;stroke-width:1.5;"/><line style="stroke:#000000;stroke-width:1.5;" x1="617.5" x2="727.5" y1="116.043" y2="116.043"/><text fill="#000000" font-family="sans-serif" font-size="14" font-weight="bold" lengthAdjust="spacing" textLength="97" x="621.5" y="109.0898">BasicExample</text></a></g><!--class IExample--><a href="Examples.BasicExample.IExample-diagram-detailed-grouped-per-namespace.svg" target="_top" title="Examples.BasicExample.IExample-diagram-detailed-grouped-per-namespace.svg" xlink:actuate="onRequest" xlink:href="Examples.BasicExample.IExample-diagram-detailed-grouped-per-namespace.svg" xlink:show="new" xlink:title="Examples.BasicExample.IExample-diagram-detailed-grouped-per-namespace.svg" xlink:type="simple"><g id="elem_IExample"><rect codeLine="6" fill="#FFFF00" height="64.4883" id="IExample" rx="2.5" ry="2.5" style="stroke:#181818;stroke-width:0.5;" width="702" x="633.5" y="390.0547"/><ellipse cx="948.75" cy="406.0547" fill="#B4A7E5" rx="11" ry="11" style="stroke:#181818;stroke-width:1.0;"/><path d="M945.1777,402.3198 L945.1777,400.1616 L952.5571,400.1616 L952.5571,402.3198 L950.0918,402.3198 L950.0918,410.3965 L952.5571,410.3965 L952.5571,412.5547 L945.1777,412.5547 L945.1777,410.3965 L947.6431,410.3965 L947.6431,402.3198 Z " fill="#000000"/><text fill="#000000" font-family="sans-serif" font-size="14" font-style="italic" lengthAdjust="spacing" textLength="63" x="969.25" y="411.3457">IExample</text><line style="stroke:#181818;stroke-width:0.5;" x1="634.5" x2="1334.5" y1="422.0547" y2="422.0547"/><line style="stroke:#181818;stroke-width:0.5;" x1="634.5" x2="1334.5" y1="430.0547" y2="430.0547"/><ellipse cx="644.5" cy="443.7988" fill="#84BE84" rx="3" ry="3" style="stroke:#038048;stroke-width:1.0;"/><text fill="#000000" font-family="sans-serif" font-size="14" lengthAdjust="spacing" textLength="64" x="653.5" y="447.5898">example(</text><text fill="#6060BB" font-family="sans-serif" font-size="14" lengthAdjust="spacing" textLength="570" x="717.5" y="447.5898">useless1:Examples.BasicExample.Useless, useless2:Examples.BasicExample.Useless</text><text fill="#000000" font-family="sans-serif" font-size="14" lengthAdjust="spacing" textLength="9" x="1287.5" y="447.5898">):</text><text fill="#BB6060" font-family="sans-serif" font-size="14" lengthAdjust="spacing" textLength="29" x="1300.5" y="447.5898">void</text></g></a><!--class Useless--><a href="Examples.BasicExample.Useless-diagram-detailed-grouped-per-namespace.svg" target="_top" title="Examples.BasicExample.Useless-diagram-detailed-grouped-per-namespace.svg" xlink:actuate="onRequest" xlink:href="Examples.BasicExample.Useless-diagram-detailed-grouped-per-namespace.svg" xlink:show="new" xlink:title="Examples.BasicExample.Useless-diagram-detailed-grouped-per-namespace.svg" xlink:type="simple"><g id="elem_Useless"><rect codeLine="9" fill="#F1F1F1" height="80.9766" id="Useless" rx="2.5" ry="2.5" style="stroke:#181818;stroke-width:0.5;" width="508" x="1073.5" y="514.0547"/><ellipse cx="1297.75" cy="530.0547" fill="#ADD1B2" rx="11" ry="11" style="stroke:#181818;stroke-width:1.0;"/><path d="M1300.2231,536.1978 Q1299.6421,536.4966 1299.0029,536.646 Q1298.3638,536.7954 1297.6582,536.7954 Q1295.1514,536.7954 1293.8315,535.1436 Q1292.5117,533.4917 1292.5117,530.3706 Q1292.5117,527.2412 1293.8315,525.5894 Q1295.1514,523.9375 1297.6582,523.9375 Q1298.3638,523.9375 1299.0112,524.0869 Q1299.6587,524.2363 1300.2231,524.5352 L1300.2231,527.2578 Q1299.5923,526.6768 1298.9988,526.407 Q1298.4053,526.1372 1297.7744,526.1372 Q1296.4297,526.1372 1295.7449,527.2039 Q1295.0601,528.2705 1295.0601,530.3706 Q1295.0601,532.4624 1295.7449,533.5291 Q1296.4297,534.5957 1297.7744,534.5957 Q1298.4053,534.5957 1298.9988,534.3259 Q1299.5923,534.0562 1300.2231,533.4751 Z " fill="#000000"/><text fill="#000000" font-family="sans-serif" font-size="14" lengthAdjust="spacing" textLength="51" x="1318.25" y="535.3457">Useless</text><line style="stroke:#181818;stroke-width:0.5;" x1="1074.5" x2="1580.5" y1="546.0547" y2="546.0547"/><ellipse cx="1084.5" cy="559.7988" fill="#84BE84" rx="3" ry="3" style="stroke:#038048;stroke-width:1.0;"/><text fill="#000000" font-family="sans-serif" font-size="14" lengthAdjust="spacing" textLength="55" x="1093.5" y="563.5898">useless(</text><text fill="#000000" font-family="sans-serif" font-size="14" lengthAdjust="spacing" textLength="9" x="1148.5" y="563.5898">):</text><text fill="#BB6060" font-family="sans-serif" font-size="14" lengthAdjust="spacing" textLength="29" x="1161.5" y="563.5898">void</text><rect fill="none" height="6" style="stroke:#C82930;stroke-width:1.0;" width="6" x="1081.5" y="573.2871"/><text fill="#909090" font-family="sans-serif" font-size="14" lengthAdjust="spacing" textLength="482" x="1093.5" y="580.0781">useless.testEnum: Examples.BasicExample.SideExample.SideTestEnum</text><line style="stroke:#181818;stroke-width:1.0;" x1="1074.5" x2="1580.5" y1="587.0313" y2="587.0313"/></g></a><!--class ClassExample--><a href="Examples.BasicExample.ClassExample-diagram-detailed-grouped-per-namespace.svg" target="_top" title="Examples.BasicExample.ClassExample-diagram-detailed-grouped-per-namespace.svg" xlink:actuate="onRequest" xlink:href="Examples.BasicExample.ClassExample-diagram-detailed-grouped-per-namespace.svg" xlink:show="new" xlink:title="Examples.BasicExample.ClassExample-diagram-detailed-grouped-per-namespace.svg" xlink:type="simple"><g id="elem_ClassExample"><rect codeLine="14" fill="#F1F1F1" height="154.9297" id="ClassExample" rx="2.5" ry="2.5" style="stroke:#181818;stroke-width:0.5;" width="948" x="633.5" y="128.5547"/><ellipse cx="1055.75" cy="144.5547" fill="#ADD1B2" rx="11" ry="11" style="stroke:#181818;stroke-width:1.0;"/><path d="M1058.2231,150.6978 Q1057.6421,150.9966 1057.0029,151.146 Q1056.3638,151.2954 1055.6582,151.2954 Q1053.1514,151.2954 1051.8315,149.6436 Q1050.5117,147.9917 1050.5117,144.8706 Q1050.5117,141.7412 1051.8315,140.0894 Q1053.1514,138.4375 1055.6582,138.4375 Q1056.3638,138.4375 1057.0112,138.5869 Q1057.6587,138.7363 1058.2231,139.0352 L1058.2231,141.7578 Q1057.5923,141.1768 1056.9988,140.907 Q1056.4053,140.6372 1055.7744,140.6372 Q1054.4297,140.6372 1053.7449,141.7039 Q1053.0601,142.7705 1053.0601,144.8706 Q1053.0601,146.9624 1053.7449,148.0291 Q1054.4297,149.0957 1055.7744,149.0957 Q1056.4053,149.0957 1056.9988,148.8259 Q1057.5923,148.5562 1058.2231,147.9751 Z " fill="#000000"/><text fill="#000000" font-family="sans-serif" font-size="14" lengthAdjust="spacing" textLength="95" x="1076.25" y="149.8457">ClassExample</text><line style="stroke:#181818;stroke-width:0.5;" x1="634.5" x2="1580.5" y1="160.5547" y2="160.5547"/><ellipse cx="644.5" cy="174.2988" fill="none" rx="3" ry="3" style="stroke:#038048;stroke-width:1.0;"/><text fill="#000000" font-family="sans-serif" font-size="14" lengthAdjust="spacing" textLength="357" x="653.5" y="178.0898">memberVarUseless: Examples.BasicExample.Useless</text><ellipse cx="644.5" cy="190.7871" fill="none" rx="3" ry="3" style="stroke:#038048;stroke-width:1.0;"/><text fill="#000000" font-family="sans-serif" font-size="14" lengthAdjust="spacing" textLength="485" x="653.5" y="194.5781">memberVarEnumTest: Examples.BasicExample.BaseExample.EnumTest</text><line style="stroke:#181818;stroke-width:1.0;" x1="634.5" x2="1580.5" y1="201.5313" y2="201.5313"/><line style="stroke:#181818;stroke-width:1.0;" x1="634.5" x2="1580.5" y1="203.5313" y2="203.5313"/><ellipse cx="644.5" cy="215.2754" fill="#84BE84" rx="3" ry="3" style="stroke:#038048;stroke-width:1.0;"/><text fill="#000000" font-family="sans-serif" font-size="14" lengthAdjust="spacing" textLength="64" x="653.5" y="219.0664">example(</text><text fill="#6060BB" font-family="sans-serif" font-size="14" lengthAdjust="spacing" textLength="570" x="717.5" y="219.0664">useless1:Examples.BasicExample.Useless, useless2:Examples.BasicExample.Useless</text><text fill="#000000" font-family="sans-serif" font-size="14" lengthAdjust="spacing" textLength="9" x="1287.5" y="219.0664">):</text><text fill="#BB6060" font-family="sans-serif" font-size="14" lengthAdjust="spacing" textLength="29" x="1300.5" y="219.0664">void</text><rect fill="none" height="6" style="stroke:#C82930;stroke-width:1.0;" width="6" x="641.5" y="228.7637"/><text fill="#909090" font-family="sans-serif" font-size="14" lengthAdjust="spacing" textLength="473" x="653.5" y="235.5547">example.localVarBaseExample: Examples.BasicExample.BaseExample</text><line style="stroke:#181818;stroke-width:1.0;" x1="634.5" x2="1580.5" y1="242.5078" y2="242.5078"/><ellipse cx="644.5" cy="256.252" fill="#84BE84" rx="3" ry="3" style="stroke:#038048;stroke-width:1.0;"/><text fill="#000000" font-family="sans-serif" font-size="14" lengthAdjust="spacing" textLength="86" x="653.5" y="260.043">getExample(</text><text fill="#000000" font-family="sans-serif" font-size="14" lengthAdjust="spacing" textLength="9" x="739.5" y="260.043">):</text><text fill="#BB6060" font-family="sans-serif" font-size="14" lengthAdjust="spacing" textLength="230" x="752.5" y="260.043">Examples.BasicExample.IExample</text><ellipse cx="644.5" cy="272.7402" fill="#84BE84" rx="3" ry="3" style="stroke:#038048;stroke-width:1.0;"/><text fill="#000000" font-family="sans-serif" font-size="14" lengthAdjust="spacing" textLength="121" x="653.5" y="276.5313">exampleAbstract(</text><text fill="#6060BB" font-family="sans-serif" font-size="14" lengthAdjust="spacing" textLength="570" x="774.5" y="276.5313">useless1:Examples.BasicExample.Useless, useless2:Examples.BasicExample.Useless</text><text fill="#000000" font-family="sans-serif" font-size="14" lengthAdjust="spacing" textLength="9" x="1344.5" y="276.5313">):</text><text fill="#BB6060" font-family="sans-serif" font-size="14" lengthAdjust="spacing" textLength="218" x="1357.5" y="276.5313">Examples.BasicExample.Useless</text></g></a><g id="elem_FloatingNote"><path d="M6,82.0547 L6,329.7129 L577,329.7129 L577,92.0547 L567,82.0547 L6,82.0547 " fill="#FEFFDD" style="stroke:#181818;stroke-width:0.5;"/><path d="M567,82.0547 L567,92.0547 L577,92.0547 L567,82.0547 " fill="#FEFFDD" style="stroke:#181818;stroke-width:1.0;"/><text fill="#000000" font-family="sans-serif" font-size="13" lengthAdjust="spacing" textLength="120" x="12" y="99.623">Your are analyzing:</text><text fill="#000000" font-family="sans-serif" font-size="13" lengthAdjust="spacing" textLength="210" x="12" y="114.9336">Examples.BasicExample.IExample</text><text fill="#000000" font-family="sans-serif" font-size="13" font-weight="bold" lengthAdjust="spacing" textLength="55" x="226" y="114.9336">detailed</text><text fill="#000000" font-family="sans-serif" font-size="13" lengthAdjust="spacing" textLength="23" x="285" y="114.9336">and</text><text fill="#000000" font-family="sans-serif" font-size="13" font-weight="bold" lengthAdjust="spacing" textLength="166" x="312" y="114.9336">grouped per namespace</text><text fill="#000000" font-family="sans-serif" font-size="13" lengthAdjust="spacing" textLength="4" x="12" y="130.2441">&#160;</text><text fill="#000000" font-family="sans-serif" font-size="13" lengthAdjust="spacing" textLength="229" x="12" y="160.8652">You can click either the namespaces</text><text fill="#000000" font-family="sans-serif" font-size="13" lengthAdjust="spacing" textLength="266" x="12" y="176.1758">or class names for filtering them and their</text><text fill="#000000" font-family="sans-serif" font-size="13" lengthAdjust="spacing" textLength="130" x="12" y="191.4863">direct dependencies.</text><text fill="#000000" font-family="sans-serif" font-size="13" lengthAdjust="spacing" textLength="4" x="12" y="206.7969">&#160;</text><line style="stroke:#181818;stroke-width:1.0;" x1="7" x2="275.5" y1="140.6416" y2="140.6416"/><line style="stroke:#181818;stroke-width:1.0;" x1="7" x2="275.5" y1="142.6416" y2="142.6416"/><text fill="#000000" font-family="sans-serif" font-size="13" lengthAdjust="spacing" textLength="32" x="275.5" y="145.0547">Filter</text><line style="stroke:#181818;stroke-width:1.0;" x1="307.5" x2="576" y1="140.6416" y2="140.6416"/><line style="stroke:#181818;stroke-width:1.0;" x1="307.5" x2="576" y1="142.6416" y2="142.6416"/><ellipse cx="17.5" cy="236.6602" fill="#000000" rx="2.5" ry="2.5" style="stroke:#000000;stroke-width:0.0;"/><text fill="#000000" font-family="sans-serif" font-size="13" lengthAdjust="spacing" textLength="210" x="24" y="241.418">Examples.BasicExample.IExample</text><text fill="#000000" font-family="sans-serif" font-size="13" font-weight="bold" lengthAdjust="spacing" textLength="67" x="238" y="241.418">simplified</text><text fill="#000000" font-family="sans-serif" font-size="13" lengthAdjust="spacing" textLength="23" x="309" y="241.418">and</text><text fill="#000000" font-family="sans-serif" font-size="13" font-weight="bold" lengthAdjust="spacing" textLength="166" x="336" y="241.418">grouped per namespace</text><text fill="#000000" font-family="sans-serif" font-size="13" lengthAdjust="spacing" textLength="4" x="502" y="241.418">:</text><text fill="#000000" font-family="sans-serif" font-size="13" lengthAdjust="spacing" textLength="12" x="12" y="256.7285">&#160;&#160;&#160;</text><a href="Examples.BasicExample.IExample-diagram-simplified-grouped-per-namespace.svg" target="_top" title="Examples.BasicExample.IExample-diagram-simplified-grouped-per-namespace.svg" xlink:actuate="onRequest" xlink:href="Examples.BasicExample.IExample-diagram-simplified-grouped-per-namespace.svg" xlink:show="new" xlink:title="Examples.BasicExample.IExample-diagram-simplified-grouped-per-namespace.svg" xlink:type="simple"><text fill="#0000FF" font-family="sans-serif" font-size="13" lengthAdjust="spacing" text-decoration="underline" textLength="532" x="24" y="256.7285">Examples.BasicExample.IExample-diagram-simplified-grouped-per-namespace.svg</text></a><ellipse cx="17.5" cy="267.2813" fill="#000000" rx="2.5" ry="2.5" style="stroke:#000000;stroke-width:0.0;"/><text fill="#000000" font-family="sans-serif" font-size="13" lengthAdjust="spacing" textLength="78" x="24" y="272.0391">Full diagram</text><text fill="#000000" font-family="sans-serif" font-size="13" font-weight="bold" lengthAdjust="spacing" textLength="55" x="106" y="272.0391">detailed</text><text fill="#000000" font-family="sans-serif" font-size="13" lengthAdjust="spacing" textLength="23" x="165" y="272.0391">and</text><text fill="#000000" font-family="sans-serif" font-size="13" font-weight="bold" lengthAdjust="spacing" textLength="166" x="192" y="272.0391">grouped per namespace</text><text fill="#000000" font-family="sans-serif" font-size="13" lengthAdjust="spacing" textLength="4" x="358" y="272.0391">:</text><text fill="#000000" font-family="sans-serif" font-size="13" lengthAdjust="spacing" textLength="12" x="12" y="287.3496">&#160;&#160;&#160;</text><a href="full-diagram-detailed-grouped-per-namespace.svg" target="_top" title="full-diagram-detailed-grouped-per-namespace.svg" xlink:actuate="onRequest" xlink:href="full-diagram-detailed-grouped-per-namespace.svg" xlink:show="new" xlink:title="full-diagram-detailed-grouped-per-namespace.svg" xlink:type="simple"><text fill="#0000FF" font-family="sans-serif" font-size="13" lengthAdjust="spacing" text-decoration="underline" textLength="330" x="24" y="287.3496">full-diagram-detailed-grouped-per-namespace.svg</text></a><ellipse cx="17.5" cy="297.9023" fill="#000000" rx="2.5" ry="2.5" style="stroke:#000000;stroke-width:0.0;"/><text fill="#000000" font-family="sans-serif" font-size="13" lengthAdjust="spacing" textLength="41" x="24" y="302.6602">Home:</text><text fill="#000000" font-family="sans-serif" font-size="13" lengthAdjust="spacing" textLength="12" x="12" y="317.9707">&#160;&#160;&#160;</text><a href="index.html" target="_top" title="index.html" xlink:actuate="onRequest" xlink:href="index.html" xlink:show="new" xlink:title="index.html" xlink:type="simple"><text fill="#0000FF" font-family="sans-serif" font-size="13" lengthAdjust="spacing" text-decoration="underline" textLength="68" x="24" y="317.9707">index.html</text></a><line style="stroke:#181818;stroke-width:1.0;" x1="7" x2="254.5" y1="221.1943" y2="221.1943"/><line style="stroke:#181818;stroke-width:1.0;" x1="7" x2="254.5" y1="223.1943" y2="223.1943"/><text fill="#000000" font-family="sans-serif" font-size="13" lengthAdjust="spacing" textLength="74" x="254.5" y="225.6074">Select other</text><line style="stroke:#181818;stroke-width:1.0;" x1="328.5" x2="576" y1="221.1943" y2="221.1943"/><line style="stroke:#181818;stroke-width:1.0;" x1="328.5" x2="576" y1="223.1943" y2="223.1943"/></g><!--link IExample to Useless--><g id="link_IExample_Useless"><path codeLine="35" d="M1204.5,454.4647 C1204.5,454.4647 1204.5,507.9347 1204.5,507.9347 " fill="none" id="IExample-to-Useless" style="stroke:#6060BB;stroke-width:1.0;stroke-dasharray:7.0,7.0;"/><polygon fill="#6060BB" points="1204.5,512.9347,1208.5,503.9347,1204.5,507.9347,1200.5,503.9347,1204.5,512.9347" style="stroke:#6060BB;stroke-width:1.0;"/><text fill="#000000" font-family="sans-serif" font-size="13" lengthAdjust="spacing" textLength="29" x="1174.5" y="477.773">uses</text></g><!--reverse link ClassExample to Useless--><g id="link_ClassExample_Useless"><path codeLine="36" d="M1417.5,297.8347 C1417.5,297.8347 1417.5,513.8847 1417.5,513.8847 " fill="none" id="ClassExample-backto-Useless" style="stroke:#10BB10;stroke-width:1.0;"/><polygon fill="#10BB10" points="1417.5,284.8347,1413.5,290.8347,1417.5,296.8347,1421.5,290.8347,1417.5,284.8347" style="stroke:#10BB10;stroke-width:1.0;"/></g><!--link ClassExample to Useless--><g id="link_ClassExample_Useless"><path codeLine="37" d="M1499.5,283.8347 C1499.5,283.8347 1499.5,507.8847 1499.5,507.8847 " fill="none" id="ClassExample-to-Useless" style="stroke:#6060BB;stroke-width:1.0;stroke-dasharray:7.0,7.0;"/><polygon fill="#6060BB" points="1499.5,512.8847,1503.5,503.8847,1499.5,507.8847,1495.5,503.8847,1499.5,512.8847" style="stroke:#6060BB;stroke-width:1.0;"/><text fill="#000000" font-family="sans-serif" font-size="13" lengthAdjust="spacing" textLength="29" x="1469.5" y="392.423">uses</text></g><!--link ClassExample to IExample--><g id="link_ClassExample_IExample"><path codeLine="38" d="M984.5,284.0347 C984.5,284.0347 984.5,383.5847 984.5,383.5847 " fill="none" id="ClassExample-to-IExample" style="stroke:#6060BB;stroke-width:1.0;stroke-dasharray:7.0,7.0;"/><polygon fill="#6060BB" points="984.5,388.5847,988.5,379.5847,984.5,383.5847,980.5,379.5847,984.5,388.5847" style="stroke:#6060BB;stroke-width:1.0;"/><text fill="#000000" font-family="sans-serif" font-size="13" lengthAdjust="spacing" textLength="29" x="954.5" y="330.383">uses</text></g><!--SRC=[pLPTRzem57tFhxYY3zso9QLzgBG8a4RLQdlfIxT94w3A93TWrR4Zs-dNrF- -QmWXJ432j4xbImc-zvnpZszicpikSwPP1e9Bj4yvWj9shZpBhK3e6VwCqLbtSFd8iboW2OVCyBYy2x-M5-3x2Lh61IQ-3qmczCTCgoB717BK85c69cSn-dxln44EFAaiGkUdAZGmZPJ3nDCpbxDeBFyPrrYEPRz_nOL5tU-F9R51p2J4WiTtWDpEAPv-rZa6nb9f2c36BF-5bExJ1GIfSz7PWfGkk1xBX6kCBIIOeqnGnfnaBsblKBWHvKWSkG-DTHbE5ppbpPMHIm0m6ks731BEPZItmHeuA0430WmgmD3SpoOJf_6g40BAj0ESNkb9ARrYNIKtSNvH6Qu0EBdu6Cvj9YQJ3Z03Lq8nIyvVKxzuLNBbPSs3WtZXrnQm3HTtkNie3G2Nr3pfJg9r1xIUprRKHqyeX7fOI03u0BW4UTTBbRGGAw5qltFUFUyEXvr1OQXTZJcDjYlulXp-26NSsVwutedZ6BoFO8DiE7HqdS6zuaaPGjfUwBjyuFPYxdId73_CdCgLig3jhXnK1q2m6VQfwzwLjw55OozbaKKx2htX2TQllvNnAueWQE7MXHjhQgXwq5_wbc4sHVs3wTB-QF_i_PdbwdBrxKgZcygBLQpNxx_nLjxP0gNWKAYO2Ig_LbuB1pOQmDK_Gtkvpu86qVjNcNevbTMVfyPg5jitO7cRtCM3SdoXCZhRq6xrVvPwUA0J1T2ZPO6qP4ZILGeB9N0Xb77d1qRRQwxndgl2t9fYUbkXt0fEYMkbrqeYJ35cP9exW9Hd9CCDq2Vbafiv9c4DUvrRBy9xsHgoAfY6uPWszbOlUBLO9z4jQXe5RVTA6cgyHSFHxALQPMlb4SLkdIslONSDHqVBVfs4WuQj1YBNgWQy5cki7uoEJWdrj3i96c3RmBsIoXQmbL4htDy0]--></g></svg>