<?xml version="1.0" encoding="us-ascii" standalone="no"?><svg xmlns="http://www.w3.org/2000/svg" xmlns:xlink="http://www.w3.org/1999/xlink" contentStyleType="text/css" height="852px" preserveAspectRatio="none" style="width:1629px;height:852px;background:#FFFFFF;" version="1.1" viewBox="0 0 1629 852" width="1629px" zoomAndPan="magnify"><defs/><g><text fill="#000000" font-family="sans-serif" font-size="20" font-weight="bold" lengthAdjust="spacing" textLength="87" x="558.25" y="29.3359">Example</text><text fill="#000000" font-family="sans-serif" font-size="20" font-weight="bold" lengthAdjust="spacing" textLength="104" x="652.25" y="29.3359">simplified</text><text fill="#000000" font-family="sans-serif" font-size="20" font-weight="bold" lengthAdjust="spacing" textLength="38" x="763.25" y="29.3359">and</text><text fill="#000000" font-family="sans-serif" font-size="20" font-weight="bold" lengthAdjust="spacing" textLength="249" x="808.25" y="29.3359">grouped per namespace</text><!--cluster Example--><g id="cluster_Example"><a href="Example-diagram-simplified-grouped-per-namespace.svg" target="_top" title="Example-diagram-simplified-grouped-per-namespace.svg" xlink:actuate="onRequest" xlink:href="Example-diagram-simplified-grouped-per-namespace.svg" xlink:show="new" xlink:title="Example-diagram-simplified-grouped-per-namespace.svg" xlink:type="simple"><path d="M426,115.5547 L487,115.5547 A3.75,3.75 0 0 1 489.5,118.0547 L496.5,138.043 L1504,138.043 A2.5,2.5 0 0 1 1506.5,140.543 L1506.5,732.0547 A2.5,2.5 0 0 1 1504,734.5547 L426,734.5547 A2.5,2.5 0 0 1 423.5,732.0547 L423.5,118.0547 A2.5,2.5 0 0 1 426,115.5547 " fill="none" style="stroke:#000000;stroke-width:1.5;"/><line style="stroke:#000000;stroke-width:1.5;" x1="423.5" x2="496.5" y1="138.043" y2="138.043"/><text fill="#000000" font-family="sans-serif" font-size="14" font-weight="bold" lengthAdjust="spacing" textLength="60" x="427.5" y="131.0898">Example</text></a></g><!--cluster SideExample--><g id="cluster_SideExample"><a href="Example.SideExample-diagram-simplified-grouped-per-namespace.svg" target="_top" title="Example.SideExample-diagram-simplified-grouped-per-namespace.svg" xlink:actuate="onRequest" xlink:href="Example.SideExample-diagram-simplified-grouped-per-namespace.svg" xlink:show="new" xlink:title="Example.SideExample-diagram-simplified-grouped-per-namespace.svg" xlink:type="simple"><path d="M811,486.5547 L902,486.5547 A3.75,3.75 0 0 1 904.5,489.0547 L911.5,509.043 L968,509.043 A2.5,2.5 0 0 1 970.5,511.543 L970.5,708.0547 A2.5,2.5 0 0 1 968,710.5547 L811,710.5547 A2.5,2.5 0 0 1 808.5,708.0547 L808.5,489.0547 A2.5,2.5 0 0 1 811,486.5547 " fill="none" style="stroke:#000000;stroke-width:1.5;"/><line style="stroke:#000000;stroke-width:1.5;" x1="808.5" x2="911.5" y1="509.043" y2="509.043"/><text fill="#000000" font-family="sans-serif" font-size="14" font-weight="bold" lengthAdjust="spacing" textLength="90" x="812.5" y="502.0898">SideExample</text></a></g><!--class ClassExample--><a href="Example.ClassExample-diagram-simplified-grouped-per-namespace.svg" target="_top" title="Example.ClassExample-diagram-simplified-grouped-per-namespace.svg" xlink:actuate="onRequest" xlink:href="Example.ClassExample-diagram-simplified-grouped-per-namespace.svg" xlink:show="new" xlink:title="Example.ClassExample-diagram-simplified-grouped-per-namespace.svg" xlink:type="simple"><g id="elem_ClassExample"><rect codeLine="9" fill="#FFFF00" height="48" id="ClassExample" rx="2.5" ry="2.5" style="stroke:#181818;stroke-width:0.5;" width="127" x="800" y="150.5547"/><ellipse cx="815" cy="166.5547" fill="#ADD1B2" rx="11" ry="11" style="stroke:#181818;stroke-width:1.0;"/><path d="M817.4731,172.6978 Q816.8921,172.9966 816.2529,173.146 Q815.6138,173.2954 814.9082,173.2954 Q812.4014,173.2954 811.0815,171.6436 Q809.7617,169.9917 809.7617,166.8706 Q809.7617,163.7412 811.0815,162.0894 Q812.4014,160.4375 814.9082,160.4375 Q815.6138,160.4375 816.2612,160.5869 Q816.9087,160.7363 817.4731,161.0352 L817.4731,163.7578 Q816.8423,163.1768 816.2488,162.907 Q815.6553,162.6372 815.0244,162.6372 Q813.6797,162.6372 812.9949,163.7039 Q812.3101,164.7705 812.3101,166.8706 Q812.3101,168.9624 812.9949,170.0291 Q813.6797,171.0957 815.0244,171.0957 Q815.6553,171.0957 816.2488,170.8259 Q816.8423,170.5562 817.4731,169.9751 Z " fill="#000000"/><text fill="#000000" font-family="sans-serif" font-size="14" lengthAdjust="spacing" textLength="95" x="829" y="171.8457">ClassExample</text><line style="stroke:#181818;stroke-width:0.5;" x1="801" x2="926" y1="182.5547" y2="182.5547"/><line style="stroke:#181818;stroke-width:0.5;" x1="801" x2="926" y1="190.5547" y2="190.5547"/></g></a><!--class BaseExample--><a href="Example.BaseExample-diagram-simplified-grouped-per-namespace.svg" target="_top" title="Example.BaseExample-diagram-simplified-grouped-per-namespace.svg" xlink:actuate="onRequest" xlink:href="Example.BaseExample-diagram-simplified-grouped-per-namespace.svg" xlink:show="new" xlink:title="Example.BaseExample-diagram-simplified-grouped-per-namespace.svg" xlink:type="simple"><g id="elem_BaseExample"><rect codeLine="11" fill="#FFFF00" height="48" id="BaseExample" rx="2.5" ry="2.5" style="stroke:#181818;stroke-width:0.5;" width="122" x="671.5" y="375.5547"/><ellipse cx="686.5" cy="391.5547" fill="#ADD1B2" rx="11" ry="11" style="stroke:#181818;stroke-width:1.0;"/><path d="M688.9731,397.6978 Q688.3921,397.9966 687.7529,398.146 Q687.1138,398.2954 686.4082,398.2954 Q683.9014,398.2954 682.5815,396.6436 Q681.2617,394.9917 681.2617,391.8706 Q681.2617,388.7412 682.5815,387.0894 Q683.9014,385.4375 686.4082,385.4375 Q687.1138,385.4375 687.7612,385.5869 Q688.4087,385.7363 688.9731,386.0352 L688.9731,388.7578 Q688.3423,388.1768 687.7488,387.907 Q687.1553,387.6372 686.5244,387.6372 Q685.1797,387.6372 684.4949,388.7039 Q683.8101,389.7705 683.8101,391.8706 Q683.8101,393.9624 684.4949,395.0291 Q685.1797,396.0957 686.5244,396.0957 Q687.1553,396.0957 687.7488,395.8259 Q688.3423,395.5562 688.9731,394.9751 Z " fill="#000000"/><text fill="#000000" font-family="sans-serif" font-size="14" lengthAdjust="spacing" textLength="90" x="700.5" y="396.8457">BaseExample</text><line style="stroke:#181818;stroke-width:0.5;" x1="672.5" x2="792.5" y1="407.5547" y2="407.5547"/><line style="stroke:#181818;stroke-width:0.5;" x1="672.5" x2="792.5" y1="415.5547" y2="415.5547"/></g></a><!--class Useless--><a href="Example.Useless-diagram-simplified-grouped-per-namespace.svg" target="_top" title="Example.Useless-diagram-simplified-grouped-per-namespace.svg" xlink:actuate="onRequest" xlink:href="Example.Useless-diagram-simplified-grouped-per-namespace.svg" xlink:show="new" xlink:title="Example.Useless-diagram-simplified-grouped-per-namespace.svg" xlink:type="simple"><g id="elem_Useless"><rect codeLine="13" fill="#FFFF00" height="48" id="Useless" rx="2.5" ry="2.5" style="stroke:#181818;stroke-width:0.5;" width="83" x="440" y="521.5547"/><ellipse cx="455" cy="537.5547" fill="#ADD1B2" rx="11" ry="11" style="stroke:#181818;stroke-width:1.0;"/><path d="M457.4731,543.6978 Q456.8921,543.9966 456.2529,544.146 Q455.6138,544.2954 454.9082,544.2954 Q452.4014,544.2954 451.0815,542.6436 Q449.7617,540.9917 449.7617,537.8706 Q449.7617,534.7412 451.0815,533.0894 Q452.4014,531.4375 454.9082,531.4375 Q455.6138,531.4375 456.2612,531.5869 Q456.9087,531.7363 457.4731,532.0352 L457.4731,534.7578 Q456.8423,534.1768 456.2488,533.907 Q455.6553,533.6372 455.0244,533.6372 Q453.6797,533.6372 452.9949,534.7039 Q452.3101,535.7705 452.3101,537.8706 Q452.3101,539.9624 452.9949,541.0291 Q453.6797,542.0957 455.0244,542.0957 Q455.6553,542.0957 456.2488,541.8259 Q456.8423,541.5562 457.4731,540.9751 Z " fill="#000000"/><text fill="#000000" font-family="sans-serif" font-size="14" lengthAdjust="spacing" textLength="51" x="469" y="542.8457">Useless</text><line style="stroke:#181818;stroke-width:0.5;" x1="441" x2="522" y1="553.5547" y2="553.5547"/><line style="stroke:#181818;stroke-width:0.5;" x1="441" x2="522" y1="561.5547" y2="561.5547"/></g></a><!--class ClassExample_DOT_InnerClassExample--><a href="Example.ClassExample_DOT_InnerClassExample-diagram-simplified-grouped-per-namespace.svg" target="_top" title="Example.ClassExample_DOT_InnerClassExample-diagram-simplified-grouped-per-namespace.svg" xlink:actuate="onRequest" xlink:href="Example.ClassExample_DOT_InnerClassExample-diagram-simplified-grouped-per-namespace.svg" xlink:show="new" xlink:title="Example.ClassExample_DOT_InnerClassExample-diagram-simplified-grouped-per-namespace.svg" xlink:type="simple"><g id="elem_ClassExample_DOT_InnerClassExample"><rect codeLine="15" fill="#FFFF00" height="48" id="ClassExample_DOT_InnerClassExample" rx="2.5" ry="2.5" style="stroke:#181818;stroke-width:0.5;" width="302" x="1008.5" y="375.5547"/><ellipse cx="1023.5" cy="391.5547" fill="#ADD1B2" rx="11" ry="11" style="stroke:#181818;stroke-width:1.0;"/><path d="M1025.9731,397.6978 Q1025.3921,397.9966 1024.7529,398.146 Q1024.1138,398.2954 1023.4082,398.2954 Q1020.9014,398.2954 1019.5815,396.6436 Q1018.2617,394.9917 1018.2617,391.8706 Q1018.2617,388.7412 1019.5815,387.0894 Q1020.9014,385.4375 1023.4082,385.4375 Q1024.1138,385.4375 1024.7612,385.5869 Q1025.4087,385.7363 1025.9731,386.0352 L1025.9731,388.7578 Q1025.3423,388.1768 1024.7488,387.907 Q1024.1553,387.6372 1023.5244,387.6372 Q1022.1797,387.6372 1021.4949,388.7039 Q1020.8101,389.7705 1020.8101,391.8706 Q1020.8101,393.9624 1021.4949,395.0291 Q1022.1797,396.0957 1023.5244,396.0957 Q1024.1553,396.0957 1024.7488,395.8259 Q1025.3423,395.5562 1025.9731,394.9751 Z " fill="#000000"/><text fill="#000000" font-family="sans-serif" font-size="14" lengthAdjust="spacing" textLength="270" x="1037.5" y="396.8457">ClassExample_DOT_InnerClassExample</text><line style="stroke:#181818;stroke-width:0.5;" x1="1009.5" x2="1309.5" y1="407.5547" y2="407.5547"/><line style="stroke:#181818;stroke-width:0.5;" x1="1009.5" x2="1309.5" y1="415.5547" y2="415.5547"/></g></a><!--class ClassExample_DOT_InnerClassExample_DOT_classInMethodExample--><a href="Example.ClassExample_DOT_InnerClassExample_DOT_classInMethodExample-diagram-simplified-grouped-per-namespace.svg" target="_top" title="Example.ClassExample_DOT_InnerClassExample_DOT_classInMethodExample-diagram-simplified-grouped-per-namespace.svg" xlink:actuate="onRequest" xlink:href="Example.ClassExample_DOT_InnerClassExample_DOT_classInMethodExample-diagram-simplified-grouped-per-namespace.svg" xlink:show="new" xlink:title="Example.ClassExample_DOT_InnerClassExample_DOT_classInMethodExample-diagram-simplified-grouped-per-namespace.svg" xlink:type="simple"><g id="elem_ClassExample_DOT_InnerClassExample_DOT_classInMethodExample"><rect codeLine="17" fill="#FFFF00" height="48" id="ClassExample_DOT_InnerClassExample_DOT_classInMethodExample" rx="2.5" ry="2.5" style="stroke:#181818;stroke-width:0.5;" width="503" x="987" y="521.5547"/><ellipse cx="1002" cy="537.5547" fill="#ADD1B2" rx="11" ry="11" style="stroke:#181818;stroke-width:1.0;"/><path d="M1004.4731,543.6978 Q1003.8921,543.9966 1003.2529,544.146 Q1002.6138,544.2954 1001.9082,544.2954 Q999.4014,544.2954 998.0815,542.6436 Q996.7617,540.9917 996.7617,537.8706 Q996.7617,534.7412 998.0815,533.0894 Q999.4014,531.4375 1001.9082,531.4375 Q1002.6138,531.4375 1003.2612,531.5869 Q1003.9087,531.7363 1004.4731,532.0352 L1004.4731,534.7578 Q1003.8423,534.1768 1003.2488,533.907 Q1002.6553,533.6372 1002.0244,533.6372 Q1000.6797,533.6372 999.9949,534.7039 Q999.3101,535.7705 999.3101,537.8706 Q999.3101,539.9624 999.9949,541.0291 Q1000.6797,542.0957 1002.0244,542.0957 Q1002.6553,542.0957 1003.2488,541.8259 Q1003.8423,541.5562 1004.4731,540.9751 Z " fill="#000000"/><text fill="#000000" font-family="sans-serif" font-size="14" lengthAdjust="spacing" textLength="471" x="1016" y="542.8457">ClassExample_DOT_InnerClassExample_DOT_classInMethodExample</text><line style="stroke:#181818;stroke-width:0.5;" x1="988" x2="1489" y1="553.5547" y2="553.5547"/><line style="stroke:#181818;stroke-width:0.5;" x1="988" x2="1489" y1="561.5547" y2="561.5547"/></g></a><!--class IExample--><a href="Example.IExample-diagram-simplified-grouped-per-namespace.svg" target="_top" title="Example.IExample-diagram-simplified-grouped-per-namespace.svg" xlink:actuate="onRequest" xlink:href="Example.IExample-diagram-simplified-grouped-per-namespace.svg" xlink:show="new" xlink:title="Example.IExample-diagram-simplified-grouped-per-namespace.svg" xlink:type="simple"><g id="elem_IExample"><rect codeLine="19" fill="#FFFF00" height="48" id="IExample" rx="2.5" ry="2.5" style="stroke:#181818;stroke-width:0.5;" width="95" x="440" y="375.5547"/><ellipse cx="455" cy="391.5547" fill="#B4A7E5" rx="11" ry="11" style="stroke:#181818;stroke-width:1.0;"/><path d="M451.4277,387.8198 L451.4277,385.6616 L458.8071,385.6616 L458.8071,387.8198 L456.3418,387.8198 L456.3418,395.8965 L458.8071,395.8965 L458.8071,398.0547 L451.4277,398.0547 L451.4277,395.8965 L453.8931,395.8965 L453.8931,387.8198 Z " fill="#000000"/><text fill="#000000" font-family="sans-serif" font-size="14" font-style="italic" lengthAdjust="spacing" textLength="63" x="469" y="396.8457">IExample</text><line style="stroke:#181818;stroke-width:0.5;" x1="441" x2="534" y1="407.5547" y2="407.5547"/><line style="stroke:#181818;stroke-width:0.5;" x1="441" x2="534" y1="415.5547" y2="415.5547"/></g></a><!--class BaseExample_DOT_EnumTest--><a href="Example.BaseExample_DOT_EnumTest-diagram-simplified-grouped-per-namespace.svg" target="_top" title="Example.BaseExample_DOT_EnumTest-diagram-simplified-grouped-per-namespace.svg" xlink:actuate="onRequest" xlink:href="Example.BaseExample_DOT_EnumTest-diagram-simplified-grouped-per-namespace.svg" xlink:show="new" xlink:title="Example.BaseExample_DOT_EnumTest-diagram-simplified-grouped-per-namespace.svg" xlink:type="simple"><g id="elem_BaseExample_DOT_EnumTest"><rect codeLine="21" fill="#FFFF00" height="48" id="BaseExample_DOT_EnumTest" rx="2.5" ry="2.5" style="stroke:#181818;stroke-width:0.5;" width="234" x="558.5" y="521.5547"/><ellipse cx="573.5" cy="537.5547" fill="#ADD1B2" rx="11" ry="11" style="stroke:#181818;stroke-width:1.0;"/><path d="M575.9731,543.6978 Q575.3921,543.9966 574.7529,544.146 Q574.1138,544.2954 573.4082,544.2954 Q570.9014,544.2954 569.5815,542.6436 Q568.2617,540.9917 568.2617,537.8706 Q568.2617,534.7412 569.5815,533.0894 Q570.9014,531.4375 573.4082,531.4375 Q574.1138,531.4375 574.7612,531.5869 Q575.4087,531.7363 575.9731,532.0352 L575.9731,534.7578 Q575.3423,534.1768 574.7488,533.907 Q574.1553,533.6372 573.5244,533.6372 Q572.1797,533.6372 571.4949,534.7039 Q570.8101,535.7705 570.8101,537.8706 Q570.8101,539.9624 571.4949,541.0291 Q572.1797,542.0957 573.5244,542.0957 Q574.1553,542.0957 574.7488,541.8259 Q575.3423,541.5562 575.9731,540.9751 Z " fill="#000000"/><text fill="#000000" font-family="sans-serif" font-size="14" lengthAdjust="spacing" textLength="202" x="587.5" y="542.8457">BaseExample_DOT_EnumTest</text><line style="stroke:#181818;stroke-width:0.5;" x1="559.5" x2="791.5" y1="553.5547" y2="553.5547"/><line style="stroke:#181818;stroke-width:0.5;" x1="559.5" x2="791.5" y1="561.5547" y2="561.5547"/></g></a><!--class AbstractBaseExample--><a href="Example.AbstractBaseExample-diagram-simplified-grouped-per-namespace.svg" target="_top" title="Example.AbstractBaseExample-diagram-simplified-grouped-per-namespace.svg" xlink:actuate="onRequest" xlink:href="Example.AbstractBaseExample-diagram-simplified-grouped-per-namespace.svg" xlink:show="new" xlink:title="Example.AbstractBaseExample-diagram-simplified-grouped-per-namespace.svg" xlink:type="simple"><g id="elem_AbstractBaseExample"><rect codeLine="23" fill="#FFFF00" height="48" id="AbstractBaseExample" rx="2.5" ry="2.5" style="stroke:#181818;stroke-width:0.5;" width="179" x="550" y="150.5547"/><ellipse cx="565" cy="166.5547" fill="#A9DCDF" rx="11" ry="11" style="stroke:#181818;stroke-width:1.0;"/><path d="M564.8633,161.9028 L563.7095,166.9746 L566.0254,166.9746 Z M563.3691,159.6616 L566.3657,159.6616 L569.7109,172.0547 L567.2622,172.0547 L566.4985,168.9917 L563.2197,168.9917 L562.4727,172.0547 L560.0239,172.0547 Z " fill="#000000"/><text fill="#000000" font-family="sans-serif" font-size="14" font-style="italic" lengthAdjust="spacing" textLength="147" x="579" y="171.8457">AbstractBaseExample</text><line style="stroke:#181818;stroke-width:0.5;" x1="551" x2="728" y1="182.5547" y2="182.5547"/><line style="stroke:#181818;stroke-width:0.5;" x1="551" x2="728" y1="190.5547" y2="190.5547"/></g></a><!--class SideTestEnum--><a href="Example.SideExample.SideTestEnum-diagram-simplified-grouped-per-namespace.svg" target="_top" title="Example.SideExample.SideTestEnum-diagram-simplified-grouped-per-namespace.svg" xlink:actuate="onRequest" xlink:href="Example.SideExample.SideTestEnum-diagram-simplified-grouped-per-namespace.svg" xlink:show="new" xlink:title="Example.SideExample.SideTestEnum-diagram-simplified-grouped-per-namespace.svg" xlink:type="simple"><g id="elem_SideTestEnum"><rect codeLine="31" fill="#FFFF00" height="48" id="SideTestEnum" rx="2.5" ry="2.5" style="stroke:#181818;stroke-width:0.5;" width="129" x="825" y="646.5547"/><ellipse cx="840" cy="662.5547" fill="#ADD1B2" rx="11" ry="11" style="stroke:#181818;stroke-width:1.0;"/><path d="M842.4731,668.6978 Q841.8921,668.9966 841.2529,669.146 Q840.6138,669.2954 839.9082,669.2954 Q837.4014,669.2954 836.0815,667.6436 Q834.7617,665.9917 834.7617,662.8706 Q834.7617,659.7412 836.0815,658.0894 Q837.4014,656.4375 839.9082,656.4375 Q840.6138,656.4375 841.2612,656.5869 Q841.9087,656.7363 842.4731,657.0352 L842.4731,659.7578 Q841.8423,659.1768 841.2488,658.907 Q840.6553,658.6372 840.0244,658.6372 Q838.6797,658.6372 837.9949,659.7039 Q837.3101,660.7705 837.3101,662.8706 Q837.3101,664.9624 837.9949,666.0291 Q838.6797,667.0957 840.0244,667.0957 Q840.6553,667.0957 841.2488,666.8259 Q841.8423,666.5562 842.4731,665.9751 Z " fill="#000000"/><text fill="#000000" font-family="sans-serif" font-size="14" lengthAdjust="spacing" textLength="97" x="854" y="667.8457">SideTestEnum</text><line style="stroke:#181818;stroke-width:0.5;" x1="826" x2="953" y1="678.5547" y2="678.5547"/><line style="stroke:#181818;stroke-width:0.5;" x1="826" x2="953" y1="686.5547" y2="686.5547"/></g></a><!--class SideExample--><a href="Example.SideExample.SideExample-diagram-simplified-grouped-per-namespace.svg" target="_top" title="Example.SideExample.SideExample-diagram-simplified-grouped-per-namespace.svg" xlink:actuate="onRequest" xlink:href="Example.SideExample.SideExample-diagram-simplified-grouped-per-namespace.svg" xlink:show="new" xlink:title="Example.SideExample.SideExample-diagram-simplified-grouped-per-namespace.svg" xlink:type="simple"><g id="elem_SideExample"><rect codeLine="33" fill="#FFFF00" height="48" id="SideExample" rx="2.5" ry="2.5" style="stroke:#181818;stroke-width:0.5;" width="120" x="829.5" y="521.5547"/><ellipse cx="844.5" cy="537.5547" fill="#ADD1B2" rx="11" ry="11" style="stroke:#181818;stroke-width:1.0;"/><path d="M846.9731,543.6978 Q846.3921,543.9966 845.7529,544.146 Q845.1138,544.2954 844.4082,544.2954 Q841.9014,544.2954 840.5815,542.6436 Q839.2617,540.9917 839.2617,537.8706 Q839.2617,534.7412 840.5815,533.0894 Q841.9014,531.4375 844.4082,531.4375 Q845.1138,531.4375 845.7612,531.5869 Q846.4087,531.7363 846.9731,532.0352 L846.9731,534.7578 Q846.3423,534.1768 845.7488,533.907 Q845.1553,533.6372 844.5244,533.6372 Q843.1797,533.6372 842.4949,534.7039 Q841.8101,535.7705 841.8101,537.8706 Q841.8101,539.9624 842.4949,541.0291 Q843.1797,542.0957 844.5244,542.0957 Q845.1553,542.0957 845.7488,541.8259 Q846.3423,541.5562 846.9731,540.9751 Z " fill="#000000"/><text fill="#000000" font-family="sans-serif" font-size="14" lengthAdjust="spacing" textLength="88" x="858.5" y="542.8457">SideExample</text><line style="stroke:#181818;stroke-width:0.5;" x1="830.5" x2="948.5" y1="553.5547" y2="553.5547"/><line style="stroke:#181818;stroke-width:0.5;" x1="830.5" x2="948.5" y1="561.5547" y2="561.5547"/></g></a><g id="elem_FloatingNote"><path d="M6,50.5547 L6,298.2129 L407,298.2129 L407,60.5547 L397,50.5547 L6,50.5547 " fill="#FEFFDD" style="stroke:#181818;stroke-width:0.5;"/><path d="M397,50.5547 L397,60.5547 L407,60.5547 L397,50.5547 " fill="#FEFFDD" style="stroke:#181818;stroke-width:1.0;"/><text fill="#000000" font-family="sans-serif" font-size="13" lengthAdjust="spacing" textLength="120" x="12" y="68.123">Your are analyzing:</text><text fill="#000000" font-family="sans-serif" font-size="13" lengthAdjust="spacing" textLength="53" x="12" y="83.4336">Example</text><text fill="#000000" font-family="sans-serif" font-size="13" font-weight="bold" lengthAdjust="spacing" textLength="67" x="69" y="83.4336">simplified</text><text fill="#000000" font-family="sans-serif" font-size="13" lengthAdjust="spacing" textLength="23" x="140" y="83.4336">and</text><text fill="#000000" font-family="sans-serif" font-size="13" font-weight="bold" lengthAdjust="spacing" textLength="166" x="167" y="83.4336">grouped per namespace</text><text fill="#000000" font-family="sans-serif" font-size="13" lengthAdjust="spacing" textLength="4" x="12" y="98.7441">&#160;</text><text fill="#000000" font-family="sans-serif" font-size="13" lengthAdjust="spacing" textLength="229" x="12" y="129.3652">You can click either the namespaces</text><text fill="#000000" font-family="sans-serif" font-size="13" lengthAdjust="spacing" textLength="266" x="12" y="144.6758">or class names for filtering them and their</text><text fill="#000000" font-family="sans-serif" font-size="13" lengthAdjust="spacing" textLength="130" x="12" y="159.9863">direct dependencies.</text><text fill="#000000" font-family="sans-serif" font-size="13" lengthAdjust="spacing" textLength="4" x="12" y="175.2969">&#160;</text><line style="stroke:#181818;stroke-width:1.0;" x1="7" x2="190.5" y1="109.1416" y2="109.1416"/><line style="stroke:#181818;stroke-width:1.0;" x1="7" x2="190.5" y1="111.1416" y2="111.1416"/><text fill="#000000" font-family="sans-serif" font-size="13" lengthAdjust="spacing" textLength="32" x="190.5" y="113.5547">Filter</text><line style="stroke:#181818;stroke-width:1.0;" x1="222.5" x2="406" y1="109.1416" y2="109.1416"/><line style="stroke:#181818;stroke-width:1.0;" x1="222.5" x2="406" y1="111.1416" y2="111.1416"/><ellipse cx="17.5" cy="205.1602" fill="#000000" rx="2.5" ry="2.5" style="stroke:#000000;stroke-width:0.0;"/><text fill="#000000" font-family="sans-serif" font-size="13" lengthAdjust="spacing" textLength="53" x="24" y="209.918">Example</text><text fill="#000000" font-family="sans-serif" font-size="13" font-weight="bold" lengthAdjust="spacing" textLength="55" x="81" y="209.918">detailed</text><text fill="#000000" font-family="sans-serif" font-size="13" lengthAdjust="spacing" textLength="23" x="140" y="209.918">and</text><text fill="#000000" font-family="sans-serif" font-size="13" font-weight="bold" lengthAdjust="spacing" textLength="166" x="167" y="209.918">grouped per namespace</text><text fill="#000000" font-family="sans-serif" font-size="13" lengthAdjust="spacing" textLength="4" x="333" y="209.918">:</text><text fill="#000000" font-family="sans-serif" font-size="13" lengthAdjust="spacing" textLength="12" x="12" y="225.2285">&#160;&#160;&#160;</text><a href="Example-diagram-detailed-grouped-per-namespace.svg" target="_top" title="Example-diagram-detailed-grouped-per-namespace.svg" xlink:actuate="onRequest" xlink:href="Example-diagram-detailed-grouped-per-namespace.svg" xlink:show="new" xlink:title="Example-diagram-detailed-grouped-per-namespace.svg" xlink:type="simple"><text fill="#0000FF" font-family="sans-serif" font-size="13" lengthAdjust="spacing" text-decoration="underline" textLength="362" x="24" y="225.2285">Example-diagram-detailed-grouped-per-namespace.svg</text></a><ellipse cx="17.5" cy="235.7813" fill="#000000" rx="2.5" ry="2.5" style="stroke:#000000;stroke-width:0.0;"/><text fill="#000000" font-family="sans-serif" font-size="13" lengthAdjust="spacing" textLength="78" x="24" y="240.5391">Full diagram</text><text fill="#000000" font-family="sans-serif" font-size="13" font-weight="bold" lengthAdjust="spacing" textLength="67" x="106" y="240.5391">simplified</text><text fill="#000000" font-family="sans-serif" font-size="13" lengthAdjust="spacing" textLength="23" x="177" y="240.5391">and</text><text fill="#000000" font-family="sans-serif" font-size="13" font-weight="bold" lengthAdjust="spacing" textLength="166" x="204" y="240.5391">grouped per namespace</text><text fill="#000000" font-family="sans-serif" font-size="13" lengthAdjust="spacing" textLength="4" x="370" y="240.5391">:</text><text fill="#000000" font-family="sans-serif" font-size="13" lengthAdjust="spacing" textLength="12" x="12" y="255.8496">&#160;&#160;&#160;</text><a href="full-diagram-simplified-grouped-per-namespace.svg" target="_top" title="full-diagram-simplified-grouped-per-namespace.svg" xlink:actuate="onRequest" xlink:href="full-diagram-simplified-grouped-per-namespace.svg" xlink:show="new" xlink:title="full-diagram-simplified-grouped-per-namespace.svg" xlink:type="simple"><text fill="#0000FF" font-family="sans-serif" font-size="13" lengthAdjust="spacing" text-decoration="underline" textLength="343" x="24" y="255.8496">full-diagram-simplified-grouped-per-namespace.svg</text></a><ellipse cx="17.5" cy="266.4023" fill="#000000" rx="2.5" ry="2.5" style="stroke:#000000;stroke-width:0.0;"/><text fill="#000000" font-family="sans-serif" font-size="13" lengthAdjust="spacing" textLength="41" x="24" y="271.1602">Home:</text><text fill="#000000" font-family="sans-serif" font-size="13" lengthAdjust="spacing" textLength="12" x="12" y="286.4707">&#160;&#160;&#160;</text><a href="index.html" target="_top" title="index.html" xlink:actuate="onRequest" xlink:href="index.html" xlink:show="new" xlink:title="index.html" xlink:type="simple"><text fill="#0000FF" font-family="sans-serif" font-size="13" lengthAdjust="spacing" text-decoration="underline" textLength="68" x="24" y="286.4707">index.html</text></a><line style="stroke:#181818;stroke-width:1.0;" x1="7" x2="169.5" y1="189.6943" y2="189.6943"/><line style="stroke:#181818;stroke-width:1.0;" x1="7" x2="169.5" y1="191.6943" y2="191.6943"/><text fill="#000000" font-family="sans-serif" font-size="13" lengthAdjust="spacing" textLength="74" x="169.5" y="194.1074">Select other</text><line style="stroke:#181818;stroke-width:1.0;" x1="243.5" x2="406" y1="189.6943" y2="189.6943"/><line style="stroke:#181818;stroke-width:1.0;" x1="243.5" x2="406" y1="191.6943" y2="191.6943"/></g><!--class EnumTest--><a href="EnumTest-diagram-simplified-grouped-per-namespace.svg" target="_top" title="EnumTest-diagram-simplified-grouped-per-namespace.svg" xlink:actuate="onRequest" xlink:href="EnumTest-diagram-simplified-grouped-per-namespace.svg" xlink:show="new" xlink:title="EnumTest-diagram-simplified-grouped-per-namespace.svg" xlink:type="simple"><g id="elem_EnumTest"><rect codeLine="3" fill="#F5FFFA" height="48" id="EnumTest" rx="2.5" ry="2.5" style="stroke:#181818;stroke-width:0.5;" width="100" x="1522.5" y="375.5547"/><ellipse cx="1537.5" cy="391.5547" fill="#ADD1B2" rx="11" ry="11" style="stroke:#181818;stroke-width:1.0;"/><path d="M1539.9731,397.6978 Q1539.3921,397.9966 1538.7529,398.146 Q1538.1138,398.2954 1537.4082,398.2954 Q1534.9014,398.2954 1533.5815,396.6436 Q1532.2617,394.9917 1532.2617,391.8706 Q1532.2617,388.7412 1533.5815,387.0894 Q1534.9014,385.4375 1537.4082,385.4375 Q1538.1138,385.4375 1538.7612,385.5869 Q1539.4087,385.7363 1539.9731,386.0352 L1539.9731,388.7578 Q1539.3423,388.1768 1538.7488,387.907 Q1538.1553,387.6372 1537.5244,387.6372 Q1536.1797,387.6372 1535.4949,388.7039 Q1534.8101,389.7705 1534.8101,391.8706 Q1534.8101,393.9624 1535.4949,395.0291 Q1536.1797,396.0957 1537.5244,396.0957 Q1538.1553,396.0957 1538.7488,395.8259 Q1539.3423,395.5562 1539.9731,394.9751 Z " fill="#000000"/><text fill="#000000" font-family="sans-serif" font-size="14" lengthAdjust="spacing" textLength="68" x="1551.5" y="396.8457">EnumTest</text><line style="stroke:#181818;stroke-width:0.5;" x1="1523.5" x2="1621.5" y1="407.5547" y2="407.5547"/><line style="stroke:#181818;stroke-width:0.5;" x1="1523.5" x2="1621.5" y1="415.5547" y2="415.5547"/></g></a><!--class EnumTypePlaceHolder--><a href="EnumTypePlaceHolder-diagram-simplified-grouped-per-namespace.svg" target="_top" title="EnumTypePlaceHolder-diagram-simplified-grouped-per-namespace.svg" xlink:actuate="onRequest" xlink:href="EnumTypePlaceHolder-diagram-simplified-grouped-per-namespace.svg" xlink:show="new" xlink:title="EnumTypePlaceHolder-diagram-simplified-grouped-per-namespace.svg" xlink:type="simple"><g id="elem_EnumTypePlaceHolder"><rect codeLine="5" fill="#F5FFFA" height="48" id="EnumTypePlaceHolder" rx="2.5" ry="2.5" style="stroke:#181818;stroke-width:0.5;" width="185" x="797" y="797.5547"/><ellipse cx="812" cy="813.5547" fill="#ADD1B2" rx="11" ry="11" style="stroke:#181818;stroke-width:1.0;"/><path d="M814.4731,819.6978 Q813.8921,819.9966 813.2529,820.146 Q812.6138,820.2954 811.9082,820.2954 Q809.4014,820.2954 808.0815,818.6436 Q806.7617,816.9917 806.7617,813.8706 Q806.7617,810.7412 808.0815,809.0894 Q809.4014,807.4375 811.9082,807.4375 Q812.6138,807.4375 813.2612,807.5869 Q813.9087,807.7363 814.4731,808.0352 L814.4731,810.7578 Q813.8423,810.1768 813.2488,809.907 Q812.6553,809.6372 812.0244,809.6372 Q810.6797,809.6372 809.9949,810.7039 Q809.3101,811.7705 809.3101,813.8706 Q809.3101,815.9624 809.9949,817.0291 Q810.6797,818.0957 812.0244,818.0957 Q812.6553,818.0957 813.2488,817.8259 Q813.8423,817.5562 814.4731,816.9751 Z " fill="#000000"/><text fill="#000000" font-family="sans-serif" font-size="14" lengthAdjust="spacing" textLength="153" x="826" y="818.8457">EnumTypePlaceHolder</text><line style="stroke:#181818;stroke-width:0.5;" x1="798" x2="981" y1="829.5547" y2="829.5547"/><line style="stroke:#181818;stroke-width:0.5;" x1="798" x2="981" y1="837.5547" y2="837.5547"/></g></a><!--reverse link BaseExample to ClassExample--><g id="link_BaseExample_ClassExample"><path codeLine="48" d="M780.09,361.2747 C784.97,356.3047 789.57,351.0247 793.5,345.5547 C827.12,298.7647 848.13,233.4447 857.6,198.9847 " fill="none" id="BaseExample-backto-ClassExample" style="stroke:#FF0000;stroke-width:1.0;"/><polygon fill="none" points="785.46,365.7747,765.99,374.1447,775.99,355.4547,785.46,365.7747" style="stroke:#FF0000;stroke-width:1.0;"/></g><!--link ClassExample to BaseExample--><g id="link_ClassExample_BaseExample"><path codeLine="52" d="M843.22,198.9447 C819.16,227.7347 779.2,278.9147 754.5,328.5547 C748.1,341.4147 743.07,356.5247 739.45,369.4047 " fill="none" id="ClassExample-to-BaseExample" style="stroke:#909090;stroke-width:1.0;"/><polygon fill="#909090" points="737.88,374.1547,744.109,366.5258,739.1968,369.3312,736.3914,364.419,737.88,374.1547" style="stroke:#909090;stroke-width:1.0;"/><text fill="#000000" font-family="sans-serif" font-size="13" lengthAdjust="spacing" textLength="29" x="755.5" y="342.123">uses</text></g><!--reverse link ClassExample to ClassExample_DOT_InnerClassExample--><g id="link_ClassExample_ClassExample_DOT_InnerClassExample"><path codeLine="49" d="M907.12,208.4147 C967.58,253.9647 1075.37,335.1747 1128.36,375.0947 " fill="none" id="ClassExample-backto-ClassExample_DOT_InnerClassExample" style="stroke:#10BBBB;stroke-width:1.0;"/><ellipse cx="902.0072" cy="203.8117" fill="#FFFFFF" rx="8" ry="8" style="stroke:#10BBBB;stroke-width:1.0;"/><line style="stroke:#10BBBB;stroke-width:1.0;" x1="908.3943" x2="895.62" y1="208.6288" y2="198.9947"/><line style="stroke:#10BBBB;stroke-width:1.0;" x1="897.1901" x2="906.8242" y1="210.1989" y2="197.4246"/></g><!--link ClassExample to Useless--><g id="link_ClassExample_Useless"><path codeLine="50" d="M865.44,198.8347 C868.13,246.7947 867.42,357.6347 811.5,423.5547 C774.18,467.5547 746.9,458.4147 690.5,470.5547 C658.08,477.5347 571.45,464.3347 541.5,478.5547 C524.16,486.7947 509.54,502.5247 499.07,516.5747 " fill="none" id="ClassExample-to-Useless" style="stroke:#6060BB;stroke-width:1.0;stroke-dasharray:7.0,7.0;"/><polygon fill="#6060BB" points="495.69,520.2547,504.2123,515.318,498.6258,516.2073,497.7365,510.6208,495.69,520.2547" style="stroke:#6060BB;stroke-width:1.0;"/><text fill="#000000" font-family="sans-serif" font-size="13" lengthAdjust="spacing" textLength="29" x="839.5" y="404.623">uses</text></g><!--link ClassExample to EnumTest--><g id="link_ClassExample_EnumTest"><path codeLine="51" d="M927.16,194.5747 C1042.87,229.3247 1295.27,305.9147 1506.5,375.5547 C1509.83,376.6547 1513.24,377.7947 1516.69,378.9547 " fill="none" id="ClassExample-to-EnumTest" style="stroke:#6060BB;stroke-width:1.0;stroke-dasharray:7.0,7.0;"/><polygon fill="#6060BB" points="1521.11,380.7947,1513.885,374.1015,1516.3781,379.1793,1511.3003,381.6724,1521.11,380.7947" style="stroke:#6060BB;stroke-width:1.0;"/><text fill="#000000" font-family="sans-serif" font-size="13" lengthAdjust="spacing" textLength="29" x="1402.5" y="342.123">uses</text></g><!--reverse link AbstractBaseExample to BaseExample--><g id="link_AbstractBaseExample_BaseExample"><path codeLine="53" d="M657.35,218.3547 C676.8,265.0047 707.22,337.9347 722.71,375.0947 " fill="none" id="AbstractBaseExample-backto-BaseExample" style="stroke:#FF0000;stroke-width:1.0;"/><polygon fill="none" points="650.51,221.1547,649.28,199.9947,663.44,215.7647,650.51,221.1547" style="stroke:#FF0000;stroke-width:1.0;"/></g><!--reverse link BaseExample to BaseExample_DOT_EnumTest--><g id="link_BaseExample_BaseExample_DOT_EnumTest"><path codeLine="54" d="M717.38,438.7647 C707.01,464.9447 693.6,498.8347 684.78,521.1047 " fill="none" id="BaseExample-backto-BaseExample_DOT_EnumTest" style="stroke:#10BBBB;stroke-width:1.0;"/><ellipse cx="720.2738" cy="432.4524" fill="#FFFFFF" rx="8" ry="8" style="stroke:#10BBBB;stroke-width:1.0;"/><line style="stroke:#10BBBB;stroke-width:1.0;" x1="717.3277" x2="723.22" y1="439.8902" y2="425.0147"/><line style="stroke:#10BBBB;stroke-width:1.0;" x1="712.8361" x2="727.7116" y1="429.5063" y2="435.3986"/></g><!--link BaseExample to Useless--><g id="link_BaseExample_Useless"><path codeLine="55" d="M701.74,423.8047 C678.92,439.7647 646.36,459.9147 614.5,470.5547 C583.54,480.8947 570.58,463.7447 541.5,478.5547 C524.52,487.2047 509.99,502.7947 499.49,516.6547 " fill="none" id="BaseExample-to-Useless" style="stroke:#6060BB;stroke-width:1.0;stroke-dasharray:7.0,7.0;"/><polygon fill="#6060BB" points="496.09,520.2747,504.6514,515.4061,499.0579,516.2508,498.2132,510.6574,496.09,520.2747" style="stroke:#6060BB;stroke-width:1.0;"/><text fill="#000000" font-family="sans-serif" font-size="13" lengthAdjust="spacing" textLength="29" x="652.5" y="467.123">uses</text></g><!--link Useless to SideTestEnum--><g id="link_Useless_SideTestEnum"><path codeLine="56" d="M523.3,563.1047 C529.37,565.3547 535.58,567.5747 541.5,569.5547 C636.64,601.3947 748.4,632.3947 819.09,651.2347 " fill="none" id="Useless-to-SideTestEnum" style="stroke:#909090;stroke-width:1.0;"/><polygon fill="#909090" points="823.53,652.6847,815.8623,646.5036,818.6984,651.3982,813.8038,654.2342,823.53,652.6847" style="stroke:#909090;stroke-width:1.0;"/><text fill="#000000" font-family="sans-serif" font-size="13" lengthAdjust="spacing" textLength="29" x="693.5" y="613.123">uses</text></g><!--reverse link ClassExample_DOT_InnerClassExample to ClassExample_DOT_InnerClassExample_DOT_classInMethodExample--><g id="link_ClassExample_DOT_InnerClassExample_ClassExample_DOT_InnerClassExample_DOT_classInMethodExample"><path codeLine="57" d="M1180.06,438.0247 C1194.48,464.3047 1213.3,498.6247 1225.64,521.1047 " fill="none" id="ClassExample_DOT_InnerClassExample-backto-ClassExample_DOT_InnerClassExample_DOT_classInMethodExample" style="stroke:#10BBBB;stroke-width:1.0;"/><ellipse cx="1176.2163" cy="432.0294" fill="#FFFFFF" rx="8" ry="8" style="stroke:#10BBBB;stroke-width:1.0;"/><line style="stroke:#10BBBB;stroke-width:1.0;" x1="1180.0626" x2="1172.37" y1="439.0441" y2="425.0147"/><line style="stroke:#10BBBB;stroke-width:1.0;" x1="1169.2016" x2="1183.231" y1="435.8757" y2="428.1831"/></g><!--link IExample to Useless--><g id="link_IExample_Useless"><path codeLine="58" d="M486.52,424.0147 C485.49,448.9047 483.84,488.2947 482.72,515.2247 " fill="none" id="IExample-to-Useless" style="stroke:#6060BB;stroke-width:1.0;stroke-dasharray:7.0,7.0;"/><polygon fill="#6060BB" points="482.48,520.1047,486.8628,511.2847,482.6947,515.1093,478.8702,510.9412,482.48,520.1047" style="stroke:#6060BB;stroke-width:1.0;"/><text fill="#000000" font-family="sans-serif" font-size="13" lengthAdjust="spacing" textLength="29" x="485.5" y="467.123">uses</text></g><!--link AbstractBaseExample to Useless--><g id="link_AbstractBaseExample_Useless"><path codeLine="59" d="M632.91,199.0547 C620.02,243.7947 589.44,343.8647 552.5,423.5547 C537.2,456.5647 515.58,492.2447 500.23,516.2447 " fill="none" id="AbstractBaseExample-to-Useless" style="stroke:#6060BB;stroke-width:1.0;stroke-dasharray:7.0,7.0;"/><polygon fill="#6060BB" points="497.05,520.1847,505.2732,514.7644,499.7473,515.9746,498.5371,510.4487,497.05,520.1847" style="stroke:#6060BB;stroke-width:1.0;"/><text fill="#000000" font-family="sans-serif" font-size="13" lengthAdjust="spacing" textLength="29" x="573.5" y="404.623">uses</text></g><!--link SideTestEnum to EnumTypePlaceHolder--><g id="link_SideTestEnum_EnumTypePlaceHolder"><path codeLine="62" d="M889.5,694.8347 C889.5,720.9647 889.5,763.3947 889.5,791.6347 " fill="none" id="SideTestEnum-to-EnumTypePlaceHolder" style="stroke:#6060BB;stroke-width:1.0;stroke-dasharray:7.0,7.0;"/><polygon fill="#6060BB" points="889.5,796.4347,893.5,787.4347,889.5,791.4347,885.5,787.4347,889.5,796.4347" style="stroke:#6060BB;stroke-width:1.0;"/><text fill="#000000" font-family="sans-serif" font-size="13" lengthAdjust="spacing" textLength="29" x="890.5" y="764.123">uses</text></g><!--link SideExample to SideTestEnum--><g id="link_SideExample_SideTestEnum"><path codeLine="63" d="M889.5,569.9747 C889.5,589.9847 889.5,618.8547 889.5,640.3547 " fill="none" id="SideExample-to-SideTestEnum" style="stroke:#6060BB;stroke-width:1.0;stroke-dasharray:7.0,7.0;"/><polygon fill="#6060BB" points="889.5,645.2147,893.5,636.2147,889.5,640.2147,885.5,636.2147,889.5,645.2147" style="stroke:#6060BB;stroke-width:1.0;"/><text fill="#000000" font-family="sans-serif" font-size="13" lengthAdjust="spacing" textLength="29" x="890.5" y="613.123">uses</text></g><!--SRC=[nLTDRzf04BtpAqR98HALNTf3fAA0rD14uP2qKj931GXjy1XMNUzQkoRV_U-T1HjClEQR5b1aZ-VDp9jztjaaF148PuQ_OFrphNdnnAAO3DMguNJ1Guv1jGfC1cGQQZMECO0ODKWMeOdP0AlLiuyMtQn8bI0S_L9Z3KmZOPXuVk5oME_ARS9sPLSs6fTS9AWRZQwam31W4WQ23tu3ycH4_lHdZZ7GbKgJ0pDcQeMGxiD922h4UaUJf7J1TLS6NECWWG1Zb07A0KVZJzFUeh1Fb4rYarTXJY70X76ncW3n1e1E9qLw0MT3pI8lmtifpYESDyFvvc7OwzcCbsCX80LjrBaiSKW1Pbddy5LvhrI4MGXEVNdoHqaaUhqZO0OkXM89zVA65hioxVI574TtQ19BDRtSC2iSNtEPj3GIqTVAdtpSvnX_27AyKY8WbccAHUkEsKwW9PIn-c3Ky5ZZ0rTZqpVZ-_uCsHUS2CvkuKP9X7iSiB51Ax1KxeORe5_89JSZ3FpA797ffwY7DQj-pTeoXVijUrU8kc3Uk37FA8HwpAz16lMS6Ipcobdtb-gdeNUFxkTfKil-KkHxrF_s_QxVbXBr6WrrE__BmYRM2QWjhp4PgM2RYakZx4A5NYhKOKxhVhjOM_kGqfpGocz7ArnsAOBTcqGpcX6BrNnDpUuNnl5qbnfEMYgAQTO6iCzz1XvfjWAnIe3UkmWbpS4G3hjFpcCNc13FlUwYXM3-BGySQvMpRfu4tiaY5snoRTLdLUZEj-2olK205crL8KjvxzA3nJAMAFK0xNSh6Fw3XdCi5auQBfN32Htfrlh0mNnjXLOk6WKTyvGqW4-J7OjMBjGgcXTU9zyDtJEghaF5sPlNEIPzz3pdCAmuJpqV2FEfTawV4bZ9S7T7ypl7fxLJ2jVpcuNJ2DI1bj-i1Sq6q78CrVwbPhyzh-ayPnNWhjdYw5lkiRFLpgwLJb5dYCrQbJrmCYxT6PTshsHXjnH4-Q6gKZZAR4RTjMJhHTZgrSftixAomqNLlljlgq2dR7euAQrSsRy0]--></g></svg>