<?xml version="1.0" encoding="us-ascii" standalone="no"?><svg xmlns="http://www.w3.org/2000/svg" xmlns:xlink="http://www.w3.org/1999/xlink" contentStyleType="text/css" height="477px" preserveAspectRatio="none" style="width:945px;height:477px;background:#FFFFFF;" version="1.1" viewBox="0 0 945 477" width="945px" zoomAndPan="magnify"><defs/><g><text fill="#000000" font-family="sans-serif" font-size="20" font-weight="bold" lengthAdjust="spacing" textLength="504" x="10" y="29.3359">Examples.BadDesign.WarehouseEntitities.Invoice</text><text fill="#000000" font-family="sans-serif" font-size="20" font-weight="bold" lengthAdjust="spacing" textLength="104" x="521" y="29.3359">simplified</text><text fill="#000000" font-family="sans-serif" font-size="20" font-weight="bold" lengthAdjust="spacing" textLength="38" x="632" y="29.3359">and</text><text fill="#000000" font-family="sans-serif" font-size="20" font-weight="bold" lengthAdjust="spacing" textLength="249" x="677" y="29.3359">grouped per namespace</text><!--cluster Examples--><g id="cluster_Examples"><a href="Examples-diagram-simplified-grouped-per-namespace.svg" target="_top" title="Examples-diagram-simplified-grouped-per-namespace.svg" xlink:actuate="onRequest" xlink:href="Examples-diagram-simplified-grouped-per-namespace.svg" xlink:show="new" xlink:title="Examples-diagram-simplified-grouped-per-namespace.svg" xlink:type="simple"><path d="M684.75,72.5547 L753.75,72.5547 A3.75,3.75 0 0 1 756.25,75.0547 L763.25,95.043 L935.75,95.043 A2.5,2.5 0 0 1 938.25,97.543 L938.25,468.0547 A2.5,2.5 0 0 1 935.75,470.5547 L684.75,470.5547 A2.5,2.5 0 0 1 682.25,468.0547 L682.25,75.0547 A2.5,2.5 0 0 1 684.75,72.5547 " fill="none" style="stroke:#000000;stroke-width:1.5;"/><line style="stroke:#000000;stroke-width:1.5;" x1="682.25" x2="763.25" y1="95.043" y2="95.043"/><text fill="#000000" font-family="sans-serif" font-size="14" font-weight="bold" lengthAdjust="spacing" textLength="68" x="686.25" y="88.0898">Examples</text></a></g><!--cluster BadDesign--><g id="cluster_BadDesign"><a href="Examples.BadDesign-diagram-simplified-grouped-per-namespace.svg" target="_top" title="Examples.BadDesign-diagram-simplified-grouped-per-namespace.svg" xlink:actuate="onRequest" xlink:href="Examples.BadDesign-diagram-simplified-grouped-per-namespace.svg" xlink:show="new" xlink:title="Examples.BadDesign-diagram-simplified-grouped-per-namespace.svg" xlink:type="simple"><path d="M708.75,115.5547 L785.75,115.5547 A3.75,3.75 0 0 1 788.25,118.0547 L795.25,138.043 L911.75,138.043 A2.5,2.5 0 0 1 914.25,140.543 L914.25,444.0547 A2.5,2.5 0 0 1 911.75,446.5547 L708.75,446.5547 A2.5,2.5 0 0 1 706.25,444.0547 L706.25,118.0547 A2.5,2.5 0 0 1 708.75,115.5547 " fill="none" style="stroke:#000000;stroke-width:1.5;"/><line style="stroke:#000000;stroke-width:1.5;" x1="706.25" x2="795.25" y1="138.043" y2="138.043"/><text fill="#000000" font-family="sans-serif" font-size="14" font-weight="bold" lengthAdjust="spacing" textLength="76" x="710.25" y="131.0898">BadDesign</text></a></g><!--cluster WarehouseEntitities--><g id="cluster_WarehouseEntitities"><a href="Examples.BadDesign.WarehouseEntitities-diagram-simplified-grouped-per-namespace.svg" target="_top" title="Examples.BadDesign.WarehouseEntitities-diagram-simplified-grouped-per-namespace.svg" xlink:actuate="onRequest" xlink:href="Examples.BadDesign.WarehouseEntitities-diagram-simplified-grouped-per-namespace.svg" xlink:show="new" xlink:title="Examples.BadDesign.WarehouseEntitities-diagram-simplified-grouped-per-namespace.svg" xlink:type="simple"><path d="M732.75,323.5547 L877.75,323.5547 A3.75,3.75 0 0 1 880.25,326.0547 L887.25,346.043 L887.75,346.043 A2.5,2.5 0 0 1 890.25,348.543 L890.25,420.0547 A2.5,2.5 0 0 1 887.75,422.5547 L732.75,422.5547 A2.5,2.5 0 0 1 730.25,420.0547 L730.25,326.0547 A2.5,2.5 0 0 1 732.75,323.5547 " fill="none" style="stroke:#000000;stroke-width:1.5;"/><line style="stroke:#000000;stroke-width:1.5;" x1="730.25" x2="887.25" y1="346.043" y2="346.043"/><text fill="#000000" font-family="sans-serif" font-size="14" font-weight="bold" lengthAdjust="spacing" textLength="144" x="734.25" y="339.0898">WarehouseEntitities</text></a></g><!--class DB--><a href="Examples.BadDesign.DB-diagram-simplified-grouped-per-namespace.svg" target="_top" title="Examples.BadDesign.DB-diagram-simplified-grouped-per-namespace.svg" xlink:actuate="onRequest" xlink:href="Examples.BadDesign.DB-diagram-simplified-grouped-per-namespace.svg" xlink:show="new" xlink:title="Examples.BadDesign.DB-diagram-simplified-grouped-per-namespace.svg" xlink:type="simple"><g id="elem_DB"><rect codeLine="6" fill="#F1F1F1" height="48" id="DB" rx="2.5" ry="2.5" style="stroke:#181818;stroke-width:0.5;" width="50" x="785.25" y="150.5547"/><ellipse cx="800.25" cy="166.5547" fill="#ADD1B2" rx="11" ry="11" style="stroke:#181818;stroke-width:1.0;"/><path d="M802.7231,172.6978 Q802.1421,172.9966 801.5029,173.146 Q800.8638,173.2954 800.1582,173.2954 Q797.6514,173.2954 796.3315,171.6436 Q795.0117,169.9917 795.0117,166.8706 Q795.0117,163.7412 796.3315,162.0894 Q797.6514,160.4375 800.1582,160.4375 Q800.8638,160.4375 801.5112,160.5869 Q802.1587,160.7363 802.7231,161.0352 L802.7231,163.7578 Q802.0923,163.1768 801.4988,162.907 Q800.9053,162.6372 800.2744,162.6372 Q798.9297,162.6372 798.2449,163.7039 Q797.5601,164.7705 797.5601,166.8706 Q797.5601,168.9624 798.2449,170.0291 Q798.9297,171.0957 800.2744,171.0957 Q800.9053,171.0957 801.4988,170.8259 Q802.0923,170.5562 802.7231,169.9751 Z " fill="#000000"/><text fill="#000000" font-family="sans-serif" font-size="14" lengthAdjust="spacing" textLength="18" x="814.25" y="171.8457">DB</text><line style="stroke:#181818;stroke-width:0.5;" x1="786.25" x2="834.25" y1="182.5547" y2="182.5547"/><line style="stroke:#181818;stroke-width:0.5;" x1="786.25" x2="834.25" y1="190.5547" y2="190.5547"/></g></a><!--class Invoice--><a href="Examples.BadDesign.WarehouseEntitities.Invoice-diagram-simplified-grouped-per-namespace.svg" target="_top" title="Examples.BadDesign.WarehouseEntitities.Invoice-diagram-simplified-grouped-per-namespace.svg" xlink:actuate="onRequest" xlink:href="Examples.BadDesign.WarehouseEntitities.Invoice-diagram-simplified-grouped-per-namespace.svg" xlink:show="new" xlink:title="Examples.BadDesign.WarehouseEntitities.Invoice-diagram-simplified-grouped-per-namespace.svg" xlink:type="simple"><g id="elem_Invoice"><rect codeLine="17" fill="#FFFF00" height="48" id="Invoice" rx="2.5" ry="2.5" style="stroke:#181818;stroke-width:0.5;" width="80" x="770.25" y="358.5547"/><ellipse cx="785.25" cy="374.5547" fill="#ADD1B2" rx="11" ry="11" style="stroke:#181818;stroke-width:1.0;"/><path d="M787.7231,380.6978 Q787.1421,380.9966 786.5029,381.146 Q785.8638,381.2954 785.1582,381.2954 Q782.6514,381.2954 781.3315,379.6436 Q780.0117,377.9917 780.0117,374.8706 Q780.0117,371.7412 781.3315,370.0894 Q782.6514,368.4375 785.1582,368.4375 Q785.8638,368.4375 786.5112,368.5869 Q787.1587,368.7363 787.7231,369.0352 L787.7231,371.7578 Q787.0923,371.1768 786.4988,370.907 Q785.9053,370.6372 785.2744,370.6372 Q783.9297,370.6372 783.2449,371.7039 Q782.5601,372.7705 782.5601,374.8706 Q782.5601,376.9624 783.2449,378.0291 Q783.9297,379.0957 785.2744,379.0957 Q785.9053,379.0957 786.4988,378.8259 Q787.0923,378.5562 787.7231,377.9751 Z " fill="#000000"/><text fill="#000000" font-family="sans-serif" font-size="14" lengthAdjust="spacing" textLength="48" x="799.25" y="379.8457">Invoice</text><line style="stroke:#181818;stroke-width:0.5;" x1="771.25" x2="849.25" y1="390.5547" y2="390.5547"/><line style="stroke:#181818;stroke-width:0.5;" x1="771.25" x2="849.25" y1="398.5547" y2="398.5547"/></g></a><g id="elem_FloatingNote"><path d="M10.75,50.5547 L10.75,298.2129 L665.75,298.2129 L665.75,60.5547 L655.75,50.5547 L10.75,50.5547 " fill="#FEFFDD" style="stroke:#181818;stroke-width:0.5;"/><path d="M655.75,50.5547 L655.75,60.5547 L665.75,60.5547 L655.75,50.5547 " fill="#FEFFDD" style="stroke:#181818;stroke-width:1.0;"/><text fill="#000000" font-family="sans-serif" font-size="13" lengthAdjust="spacing" textLength="120" x="16.75" y="68.123">Your are analyzing:</text><text fill="#000000" font-family="sans-serif" font-size="13" lengthAdjust="spacing" textLength="307" x="16.75" y="83.4336">Examples.BadDesign.WarehouseEntitities.Invoice</text><text fill="#000000" font-family="sans-serif" font-size="13" font-weight="bold" lengthAdjust="spacing" textLength="67" x="327.75" y="83.4336">simplified</text><text fill="#000000" font-family="sans-serif" font-size="13" lengthAdjust="spacing" textLength="23" x="398.75" y="83.4336">and</text><text fill="#000000" font-family="sans-serif" font-size="13" font-weight="bold" lengthAdjust="spacing" textLength="166" x="425.75" y="83.4336">grouped per namespace</text><text fill="#000000" font-family="sans-serif" font-size="13" lengthAdjust="spacing" textLength="4" x="16.75" y="98.7441">&#160;</text><text fill="#000000" font-family="sans-serif" font-size="13" lengthAdjust="spacing" textLength="229" x="16.75" y="129.3652">You can click either the namespaces</text><text fill="#000000" font-family="sans-serif" font-size="13" lengthAdjust="spacing" textLength="266" x="16.75" y="144.6758">or class names for filtering them and their</text><text fill="#000000" font-family="sans-serif" font-size="13" lengthAdjust="spacing" textLength="130" x="16.75" y="159.9863">direct dependencies.</text><text fill="#000000" font-family="sans-serif" font-size="13" lengthAdjust="spacing" textLength="4" x="16.75" y="175.2969">&#160;</text><line style="stroke:#181818;stroke-width:1.0;" x1="11.75" x2="322.25" y1="109.1416" y2="109.1416"/><line style="stroke:#181818;stroke-width:1.0;" x1="11.75" x2="322.25" y1="111.1416" y2="111.1416"/><text fill="#000000" font-family="sans-serif" font-size="13" lengthAdjust="spacing" textLength="32" x="322.25" y="113.5547">Filter</text><line style="stroke:#181818;stroke-width:1.0;" x1="354.25" x2="664.75" y1="109.1416" y2="109.1416"/><line style="stroke:#181818;stroke-width:1.0;" x1="354.25" x2="664.75" y1="111.1416" y2="111.1416"/><ellipse cx="22.25" cy="205.1602" fill="#000000" rx="2.5" ry="2.5" style="stroke:#000000;stroke-width:0.0;"/><text fill="#000000" font-family="sans-serif" font-size="13" lengthAdjust="spacing" textLength="307" x="28.75" y="209.918">Examples.BadDesign.WarehouseEntitities.Invoice</text><text fill="#000000" font-family="sans-serif" font-size="13" font-weight="bold" lengthAdjust="spacing" textLength="55" x="339.75" y="209.918">detailed</text><text fill="#000000" font-family="sans-serif" font-size="13" lengthAdjust="spacing" textLength="23" x="398.75" y="209.918">and</text><text fill="#000000" font-family="sans-serif" font-size="13" font-weight="bold" lengthAdjust="spacing" textLength="166" x="425.75" y="209.918">grouped per namespace</text><text fill="#000000" font-family="sans-serif" font-size="13" lengthAdjust="spacing" textLength="4" x="591.75" y="209.918">:</text><text fill="#000000" font-family="sans-serif" font-size="13" lengthAdjust="spacing" textLength="12" x="16.75" y="225.2285">&#160;&#160;&#160;</text><a href="Examples.BadDesign.WarehouseEntitities.Invoice-diagram-detailed-grouped-per-namespace.svg" target="_top" title="Examples.BadDesign.WarehouseEntitities.Invoice-diagram-detailed-grouped-per-namespace.svg" xlink:actuate="onRequest" xlink:href="Examples.BadDesign.WarehouseEntitities.Invoice-diagram-detailed-grouped-per-namespace.svg" xlink:show="new" xlink:title="Examples.BadDesign.WarehouseEntitities.Invoice-diagram-detailed-grouped-per-namespace.svg" xlink:type="simple"><text fill="#0000FF" font-family="sans-serif" font-size="13" lengthAdjust="spacing" text-decoration="underline" textLength="616" x="28.75" y="225.2285">Examples.BadDesign.WarehouseEntitities.Invoice-diagram-detailed-grouped-per-namespace.svg</text></a><ellipse cx="22.25" cy="235.7813" fill="#000000" rx="2.5" ry="2.5" style="stroke:#000000;stroke-width:0.0;"/><text fill="#000000" font-family="sans-serif" font-size="13" lengthAdjust="spacing" textLength="78" x="28.75" y="240.5391">Full diagram</text><text fill="#000000" font-family="sans-serif" font-size="13" font-weight="bold" lengthAdjust="spacing" textLength="67" x="110.75" y="240.5391">simplified</text><text fill="#000000" font-family="sans-serif" font-size="13" lengthAdjust="spacing" textLength="23" x="181.75" y="240.5391">and</text><text fill="#000000" font-family="sans-serif" font-size="13" font-weight="bold" lengthAdjust="spacing" textLength="166" x="208.75" y="240.5391">grouped per namespace</text><text fill="#000000" font-family="sans-serif" font-size="13" lengthAdjust="spacing" textLength="4" x="374.75" y="240.5391">:</text><text fill="#000000" font-family="sans-serif" font-size="13" lengthAdjust="spacing" textLength="12" x="16.75" y="255.8496">&#160;&#160;&#160;</text><a href="full-diagram-simplified-grouped-per-namespace.svg" target="_top" title="full-diagram-simplified-grouped-per-namespace.svg" xlink:actuate="onRequest" xlink:href="full-diagram-simplified-grouped-per-namespace.svg" xlink:show="new" xlink:title="full-diagram-simplified-grouped-per-namespace.svg" xlink:type="simple"><text fill="#0000FF" font-family="sans-serif" font-size="13" lengthAdjust="spacing" text-decoration="underline" textLength="343" x="28.75" y="255.8496">full-diagram-simplified-grouped-per-namespace.svg</text></a><ellipse cx="22.25" cy="266.4023" fill="#000000" rx="2.5" ry="2.5" style="stroke:#000000;stroke-width:0.0;"/><text fill="#000000" font-family="sans-serif" font-size="13" lengthAdjust="spacing" textLength="41" x="28.75" y="271.1602">Home:</text><text fill="#000000" font-family="sans-serif" font-size="13" lengthAdjust="spacing" textLength="12" x="16.75" y="286.4707">&#160;&#160;&#160;</text><a href="index.html" target="_top" title="index.html" xlink:actuate="onRequest" xlink:href="index.html" xlink:show="new" xlink:title="index.html" xlink:type="simple"><text fill="#0000FF" font-family="sans-serif" font-size="13" lengthAdjust="spacing" text-decoration="underline" textLength="68" x="28.75" y="286.4707">index.html</text></a><line style="stroke:#181818;stroke-width:1.0;" x1="11.75" x2="301.25" y1="189.6943" y2="189.6943"/><line style="stroke:#181818;stroke-width:1.0;" x1="11.75" x2="301.25" y1="191.6943" y2="191.6943"/><text fill="#000000" font-family="sans-serif" font-size="13" lengthAdjust="spacing" textLength="74" x="301.25" y="194.1074">Select other</text><line style="stroke:#181818;stroke-width:1.0;" x1="375.25" x2="664.75" y1="189.6943" y2="189.6943"/><line style="stroke:#181818;stroke-width:1.0;" x1="375.25" x2="664.75" y1="191.6943" y2="191.6943"/></g><!--link DB to Invoice--><g id="link_DB_Invoice"><path codeLine="32" d="M810.25,198.8247 C810.25,198.8247 810.25,352.1247 810.25,352.1247 " fill="none" id="DB-to-Invoice" style="stroke:#6060BB;stroke-width:1.0;stroke-dasharray:7.0,7.0;"/><polygon fill="#6060BB" points="810.25,357.1247,814.25,348.1247,810.25,352.1247,806.25,348.1247,810.25,357.1247" style="stroke:#6060BB;stroke-width:1.0;"/><text fill="#000000" font-family="sans-serif" font-size="13" lengthAdjust="spacing" textLength="29" x="780.25" y="272.043">uses</text></g><!--SRC=[rLN1Rk903BtdAwpsK2aIMRI77b3XG2dQlVIoXzMA83HD7B0wyKGp0uMk-k_hK4WgRKf9LxHQWX39s7xFzhFZxeaBPLKEcXZzfa0mrYzCuCbhX2j7ZzZxsXtSh5LUQ7JHKAKZT3JdwAUok31BXpSindB9wNTU6KeGmj2Hs5D6c8OXA4xbqToQPO4f56Y1LOwkK0c6uTMN4cGGiF48Px_Cqe945X-bDu_4yrxC9qIFEUP-VqpQe-ttOnPyI1H3eYcv1oI_47lvgNqSn6oi62Zddfz29lVPDeJmBQtpBQZy8HjpIXOJ3oaMo2boKb9zXls1kZmn9KW97aBhJ5FqYlJRUKeL0M0oQGVGIKdDHHsTFKnd5xuZuJjL-CYjvjDfoN-yr1fsJgtwiEUNIO0AjNP_2_URoN4VWgJAwsZXSpsTde5oCDP6UUdChIWig9ohMh-eIaja-DqGhgviOxdRGy1EQmsj6msRMpeQjeNPuZm55zScbtqW_JbzOl0WqmMIcWUPWnnP9Y63BGkuriQLiwH4JeN55Oa-PsvvDwkYp3I9OytorZ327IPAX5mEusw3E78WtuoOt0BJw4NishVA8NXgFDydAyV_dtmEGJJD_j5BuZrAFg3bGtlktNlhI6hd6zJQFEme7Zi67rkzryRbCmQc8PzNHgV5QC65l1wE-i39R4kAfJujQdbb67Q0QszLuaKAcJLvpRmdjdztEcXUqj7a_B9xsHqEfz6WhVQX1tBW_frR4yeV]--></g></svg>