<?xml version="1.0" encoding="us-ascii" standalone="no"?><svg xmlns="http://www.w3.org/2000/svg" xmlns:xlink="http://www.w3.org/1999/xlink" contentStyleType="text/css" height="606px" preserveAspectRatio="none" style="width:1540px;height:606px;background:#FFFFFF;" version="1.1" viewBox="0 0 1540 606" width="1540px" zoomAndPan="magnify"><defs/><g><text fill="#000000" font-family="sans-serif" font-size="20" font-weight="bold" lengthAdjust="spacing" textLength="506" x="451" y="29.3359">Examples.BadDesign.BasicExample.ClassExample</text><text fill="#000000" font-family="sans-serif" font-size="20" font-weight="bold" lengthAdjust="spacing" textLength="104" x="964" y="29.3359">simplified</text><text fill="#000000" font-family="sans-serif" font-size="20" font-weight="bold" lengthAdjust="spacing" textLength="7" x="1068" y="29.3359">&#160;</text><!--cluster Examples--><g id="cluster_Examples"><path d="M516.5,50.5547 L585.5,50.5547 A3.75,3.75 0 0 1 588,53.0547 L595,73.043 L1530.5,73.043 A2.5,2.5 0 0 1 1533,75.543 L1533,597.0547 A2.5,2.5 0 0 1 1530.5,599.5547 L516.5,599.5547 A2.5,2.5 0 0 1 514,597.0547 L514,53.0547 A2.5,2.5 0 0 1 516.5,50.5547 " fill="none" style="stroke:#000000;stroke-width:1.5;"/><line style="stroke:#000000;stroke-width:1.5;" x1="514" x2="595" y1="73.043" y2="73.043"/><text fill="#000000" font-family="sans-serif" font-size="14" font-weight="bold" lengthAdjust="spacing" textLength="68" x="518" y="66.0898">Examples</text></g><!--cluster BadDesign--><g id="cluster_BadDesign"><path d="M540.5,93.5547 L617.5,93.5547 A3.75,3.75 0 0 1 620,96.0547 L627,116.043 L1506.5,116.043 A2.5,2.5 0 0 1 1509,118.543 L1509,573.0547 A2.5,2.5 0 0 1 1506.5,575.5547 L540.5,575.5547 A2.5,2.5 0 0 1 538,573.0547 L538,96.0547 A2.5,2.5 0 0 1 540.5,93.5547 " fill="none" style="stroke:#000000;stroke-width:1.5;"/><line style="stroke:#000000;stroke-width:1.5;" x1="538" x2="627" y1="116.043" y2="116.043"/><text fill="#000000" font-family="sans-serif" font-size="14" font-weight="bold" lengthAdjust="spacing" textLength="76" x="542" y="109.0898">BadDesign</text></g><!--cluster BasicExample--><g id="cluster_BasicExample"><path d="M564.5,136.5547 L662.5,136.5547 A3.75,3.75 0 0 1 665,139.0547 L672,159.043 L1482.5,159.043 A2.5,2.5 0 0 1 1485,161.543 L1485,549.0547 A2.5,2.5 0 0 1 1482.5,551.5547 L564.5,551.5547 A2.5,2.5 0 0 1 562,549.0547 L562,139.0547 A2.5,2.5 0 0 1 564.5,136.5547 " fill="none" style="stroke:#000000;stroke-width:1.5;"/><line style="stroke:#000000;stroke-width:1.5;" x1="562" x2="672" y1="159.043" y2="159.043"/><text fill="#000000" font-family="sans-serif" font-size="14" font-weight="bold" lengthAdjust="spacing" textLength="97" x="566" y="152.0898">BasicExample</text></g><!--class ClassExample--><a href="Examples.BadDesign.BasicExample.ClassExample-diagram-simplified.svg" target="_top" title="Examples.BadDesign.BasicExample.ClassExample-diagram-simplified.svg" xlink:actuate="onRequest" xlink:href="Examples.BadDesign.BasicExample.ClassExample-diagram-simplified.svg" xlink:show="new" xlink:title="Examples.BadDesign.BasicExample.ClassExample-diagram-simplified.svg" xlink:type="simple"><g id="elem_ClassExample"><rect codeLine="4" fill="#FFFF00" height="48" id="ClassExample" rx="2.5" ry="2.5" style="stroke:#181818;stroke-width:0.5;" width="127" x="825.5" y="171.5547"/><ellipse cx="840.5" cy="187.5547" fill="#ADD1B2" rx="11" ry="11" style="stroke:#181818;stroke-width:1.0;"/><path d="M842.9731,193.6978 Q842.3921,193.9966 841.7529,194.146 Q841.1138,194.2954 840.4082,194.2954 Q837.9014,194.2954 836.5815,192.6436 Q835.2617,190.9917 835.2617,187.8706 Q835.2617,184.7412 836.5815,183.0894 Q837.9014,181.4375 840.4082,181.4375 Q841.1138,181.4375 841.7612,181.5869 Q842.4087,181.7363 842.9731,182.0352 L842.9731,184.7578 Q842.3423,184.1768 841.7488,183.907 Q841.1553,183.6372 840.5244,183.6372 Q839.1797,183.6372 838.4949,184.7039 Q837.8101,185.7705 837.8101,187.8706 Q837.8101,189.9624 838.4949,191.0291 Q839.1797,192.0957 840.5244,192.0957 Q841.1553,192.0957 841.7488,191.8259 Q842.3423,191.5562 842.9731,190.9751 Z " fill="#000000"/><text fill="#000000" font-family="sans-serif" font-size="14" lengthAdjust="spacing" textLength="95" x="854.5" y="192.8457">ClassExample</text><line style="stroke:#181818;stroke-width:0.5;" x1="826.5" x2="951.5" y1="203.5547" y2="203.5547"/><line style="stroke:#181818;stroke-width:0.5;" x1="826.5" x2="951.5" y1="211.5547" y2="211.5547"/></g></a><!--class BaseExample--><a href="Examples.BadDesign.BasicExample.BaseExample-diagram-simplified.svg" target="_top" title="Examples.BadDesign.BasicExample.BaseExample-diagram-simplified.svg" xlink:actuate="onRequest" xlink:href="Examples.BadDesign.BasicExample.BaseExample-diagram-simplified.svg" xlink:show="new" xlink:title="Examples.BadDesign.BasicExample.BaseExample-diagram-simplified.svg" xlink:type="simple"><g id="elem_BaseExample"><rect codeLine="6" fill="#F1F1F1" height="48" id="BaseExample" rx="2.5" ry="2.5" style="stroke:#181818;stroke-width:0.5;" width="122" x="731" y="379.5547"/><ellipse cx="746" cy="395.5547" fill="#ADD1B2" rx="11" ry="11" style="stroke:#181818;stroke-width:1.0;"/><path d="M748.4731,401.6978 Q747.8921,401.9966 747.2529,402.146 Q746.6138,402.2954 745.9082,402.2954 Q743.4014,402.2954 742.0815,400.6436 Q740.7617,398.9917 740.7617,395.8706 Q740.7617,392.7412 742.0815,391.0894 Q743.4014,389.4375 745.9082,389.4375 Q746.6138,389.4375 747.2612,389.5869 Q747.9087,389.7363 748.4731,390.0352 L748.4731,392.7578 Q747.8423,392.1768 747.2488,391.907 Q746.6553,391.6372 746.0244,391.6372 Q744.6797,391.6372 743.9949,392.7039 Q743.3101,393.7705 743.3101,395.8706 Q743.3101,397.9624 743.9949,399.0291 Q744.6797,400.0957 746.0244,400.0957 Q746.6553,400.0957 747.2488,399.8259 Q747.8423,399.5562 748.4731,398.9751 Z " fill="#000000"/><text fill="#000000" font-family="sans-serif" font-size="14" lengthAdjust="spacing" textLength="90" x="760" y="400.8457">BaseExample</text><line style="stroke:#181818;stroke-width:0.5;" x1="732" x2="852" y1="411.5547" y2="411.5547"/><line style="stroke:#181818;stroke-width:0.5;" x1="732" x2="852" y1="419.5547" y2="419.5547"/></g></a><!--class Useless--><a href="Examples.BadDesign.BasicExample.Useless-diagram-simplified.svg" target="_top" title="Examples.BadDesign.BasicExample.Useless-diagram-simplified.svg" xlink:actuate="onRequest" xlink:href="Examples.BadDesign.BasicExample.Useless-diagram-simplified.svg" xlink:show="new" xlink:title="Examples.BadDesign.BasicExample.Useless-diagram-simplified.svg" xlink:type="simple"><g id="elem_Useless"><rect codeLine="8" fill="#F1F1F1" height="48" id="Useless" rx="2.5" ry="2.5" style="stroke:#181818;stroke-width:0.5;" width="83" x="847.5" y="487.5547"/><ellipse cx="862.5" cy="503.5547" fill="#ADD1B2" rx="11" ry="11" style="stroke:#181818;stroke-width:1.0;"/><path d="M864.9731,509.6978 Q864.3921,509.9966 863.7529,510.146 Q863.1138,510.2954 862.4082,510.2954 Q859.9014,510.2954 858.5815,508.6436 Q857.2617,506.9917 857.2617,503.8706 Q857.2617,500.7412 858.5815,499.0894 Q859.9014,497.4375 862.4082,497.4375 Q863.1138,497.4375 863.7612,497.5869 Q864.4087,497.7363 864.9731,498.0352 L864.9731,500.7578 Q864.3423,500.1768 863.7488,499.907 Q863.1553,499.6372 862.5244,499.6372 Q861.1797,499.6372 860.4949,500.7039 Q859.8101,501.7705 859.8101,503.8706 Q859.8101,505.9624 860.4949,507.0291 Q861.1797,508.0957 862.5244,508.0957 Q863.1553,508.0957 863.7488,507.8259 Q864.3423,507.5562 864.9731,506.9751 Z " fill="#000000"/><text fill="#000000" font-family="sans-serif" font-size="14" lengthAdjust="spacing" textLength="51" x="876.5" y="508.8457">Useless</text><line style="stroke:#181818;stroke-width:0.5;" x1="848.5" x2="929.5" y1="519.5547" y2="519.5547"/><line style="stroke:#181818;stroke-width:0.5;" x1="848.5" x2="929.5" y1="527.5547" y2="527.5547"/></g></a><!--class BaseExample_DOT_EnumTest--><a href="Examples.BadDesign.BasicExample.BaseExample.EnumTest-diagram-simplified.svg" target="_top" title="Examples.BadDesign.BasicExample.BaseExample.EnumTest-diagram-simplified.svg" xlink:actuate="onRequest" xlink:href="Examples.BadDesign.BasicExample.BaseExample.EnumTest-diagram-simplified.svg" xlink:show="new" xlink:title="Examples.BadDesign.BasicExample.BaseExample.EnumTest-diagram-simplified.svg" xlink:type="simple"><g id="elem_BaseExample_DOT_EnumTest"><rect codeLine="10" fill="#F1F1F1" height="48" id="BaseExample_DOT_EnumTest" rx="2.5" ry="2.5" style="stroke:#181818;stroke-width:0.5;" width="234" x="578" y="487.5547"/><ellipse cx="593" cy="503.5547" fill="#ADD1B2" rx="11" ry="11" style="stroke:#181818;stroke-width:1.0;"/><path d="M595.4731,509.6978 Q594.8921,509.9966 594.2529,510.146 Q593.6138,510.2954 592.9082,510.2954 Q590.4014,510.2954 589.0815,508.6436 Q587.7617,506.9917 587.7617,503.8706 Q587.7617,500.7412 589.0815,499.0894 Q590.4014,497.4375 592.9082,497.4375 Q593.6138,497.4375 594.2612,497.5869 Q594.9087,497.7363 595.4731,498.0352 L595.4731,500.7578 Q594.8423,500.1768 594.2488,499.907 Q593.6553,499.6372 593.0244,499.6372 Q591.6797,499.6372 590.9949,500.7039 Q590.3101,501.7705 590.3101,503.8706 Q590.3101,505.9624 590.9949,507.0291 Q591.6797,508.0957 593.0244,508.0957 Q593.6553,508.0957 594.2488,507.8259 Q594.8423,507.5562 595.4731,506.9751 Z " fill="#000000"/><text fill="#000000" font-family="sans-serif" font-size="14" lengthAdjust="spacing" textLength="202" x="607" y="508.8457">BaseExample_DOT_EnumTest</text><line style="stroke:#181818;stroke-width:0.5;" x1="579" x2="811" y1="519.5547" y2="519.5547"/><line style="stroke:#181818;stroke-width:0.5;" x1="579" x2="811" y1="527.5547" y2="527.5547"/></g></a><!--class IExample--><a href="Examples.BadDesign.BasicExample.IExample-diagram-simplified.svg" target="_top" title="Examples.BadDesign.BasicExample.IExample-diagram-simplified.svg" xlink:actuate="onRequest" xlink:href="Examples.BadDesign.BasicExample.IExample-diagram-simplified.svg" xlink:show="new" xlink:title="Examples.BadDesign.BasicExample.IExample-diagram-simplified.svg" xlink:type="simple"><g id="elem_IExample"><rect codeLine="12" fill="#F1F1F1" height="48" id="IExample" rx="2.5" ry="2.5" style="stroke:#181818;stroke-width:0.5;" width="95" x="925.5" y="379.5547"/><ellipse cx="940.5" cy="395.5547" fill="#B4A7E5" rx="11" ry="11" style="stroke:#181818;stroke-width:1.0;"/><path d="M936.9277,391.8198 L936.9277,389.6616 L944.3071,389.6616 L944.3071,391.8198 L941.8418,391.8198 L941.8418,399.8965 L944.3071,399.8965 L944.3071,402.0547 L936.9277,402.0547 L936.9277,399.8965 L939.3931,399.8965 L939.3931,391.8198 Z " fill="#000000"/><text fill="#000000" font-family="sans-serif" font-size="14" font-style="italic" lengthAdjust="spacing" textLength="63" x="954.5" y="400.8457">IExample</text><line style="stroke:#181818;stroke-width:0.5;" x1="926.5" x2="1019.5" y1="411.5547" y2="411.5547"/><line style="stroke:#181818;stroke-width:0.5;" x1="926.5" x2="1019.5" y1="419.5547" y2="419.5547"/></g></a><!--class ClassExample_DOT_InnerClassExample--><a href="Examples.BadDesign.BasicExample.ClassExample.InnerClassExample-diagram-simplified.svg" target="_top" title="Examples.BadDesign.BasicExample.ClassExample.InnerClassExample-diagram-simplified.svg" xlink:actuate="onRequest" xlink:href="Examples.BadDesign.BasicExample.ClassExample.InnerClassExample-diagram-simplified.svg" xlink:show="new" xlink:title="Examples.BadDesign.BasicExample.ClassExample.InnerClassExample-diagram-simplified.svg" xlink:type="simple"><g id="elem_ClassExample_DOT_InnerClassExample"><rect codeLine="14" fill="#FFFF00" height="48" id="ClassExample_DOT_InnerClassExample" rx="2.5" ry="2.5" style="stroke:#181818;stroke-width:0.5;" width="302" x="1061" y="379.5547"/><ellipse cx="1076" cy="395.5547" fill="#ADD1B2" rx="11" ry="11" style="stroke:#181818;stroke-width:1.0;"/><path d="M1078.4731,401.6978 Q1077.8921,401.9966 1077.2529,402.146 Q1076.6138,402.2954 1075.9082,402.2954 Q1073.4014,402.2954 1072.0815,400.6436 Q1070.7617,398.9917 1070.7617,395.8706 Q1070.7617,392.7412 1072.0815,391.0894 Q1073.4014,389.4375 1075.9082,389.4375 Q1076.6138,389.4375 1077.2612,389.5869 Q1077.9087,389.7363 1078.4731,390.0352 L1078.4731,392.7578 Q1077.8423,392.1768 1077.2488,391.907 Q1076.6553,391.6372 1076.0244,391.6372 Q1074.6797,391.6372 1073.9949,392.7039 Q1073.3101,393.7705 1073.3101,395.8706 Q1073.3101,397.9624 1073.9949,399.0291 Q1074.6797,400.0957 1076.0244,400.0957 Q1076.6553,400.0957 1077.2488,399.8259 Q1077.8423,399.5562 1078.4731,398.9751 Z " fill="#000000"/><text fill="#000000" font-family="sans-serif" font-size="14" lengthAdjust="spacing" textLength="270" x="1090" y="400.8457">ClassExample_DOT_InnerClassExample</text><line style="stroke:#181818;stroke-width:0.5;" x1="1062" x2="1362" y1="411.5547" y2="411.5547"/><line style="stroke:#181818;stroke-width:0.5;" x1="1062" x2="1362" y1="419.5547" y2="419.5547"/></g></a><!--class ClassExample_DOT_InnerClassExample_DOT_classInMethodExample--><a href="Examples.BadDesign.BasicExample.ClassExample.InnerClassExample.classInMethodExample-diagram-simplified.svg" target="_top" title="Examples.BadDesign.BasicExample.ClassExample.InnerClassExample.classInMethodExample-diagram-simplified.svg" xlink:actuate="onRequest" xlink:href="Examples.BadDesign.BasicExample.ClassExample.InnerClassExample.classInMethodExample-diagram-simplified.svg" xlink:show="new" xlink:title="Examples.BadDesign.BasicExample.ClassExample.InnerClassExample.classInMethodExample-diagram-simplified.svg" xlink:type="simple"><g id="elem_ClassExample_DOT_InnerClassExample_DOT_classInMethodExample"><rect codeLine="16" fill="#FFFF00" height="48" id="ClassExample_DOT_InnerClassExample_DOT_classInMethodExample" rx="2.5" ry="2.5" style="stroke:#181818;stroke-width:0.5;" width="503" x="965.5" y="487.5547"/><ellipse cx="980.5" cy="503.5547" fill="#ADD1B2" rx="11" ry="11" style="stroke:#181818;stroke-width:1.0;"/><path d="M982.9731,509.6978 Q982.3921,509.9966 981.7529,510.146 Q981.1138,510.2954 980.4082,510.2954 Q977.9014,510.2954 976.5815,508.6436 Q975.2617,506.9917 975.2617,503.8706 Q975.2617,500.7412 976.5815,499.0894 Q977.9014,497.4375 980.4082,497.4375 Q981.1138,497.4375 981.7612,497.5869 Q982.4087,497.7363 982.9731,498.0352 L982.9731,500.7578 Q982.3423,500.1768 981.7488,499.907 Q981.1553,499.6372 980.5244,499.6372 Q979.1797,499.6372 978.4949,500.7039 Q977.8101,501.7705 977.8101,503.8706 Q977.8101,505.9624 978.4949,507.0291 Q979.1797,508.0957 980.5244,508.0957 Q981.1553,508.0957 981.7488,507.8259 Q982.3423,507.5562 982.9731,506.9751 Z " fill="#000000"/><text fill="#000000" font-family="sans-serif" font-size="14" lengthAdjust="spacing" textLength="471" x="994.5" y="508.8457">ClassExample_DOT_InnerClassExample_DOT_classInMethodExample</text><line style="stroke:#181818;stroke-width:0.5;" x1="966.5" x2="1467.5" y1="519.5547" y2="519.5547"/><line style="stroke:#181818;stroke-width:0.5;" x1="966.5" x2="1467.5" y1="527.5547" y2="527.5547"/></g></a><g id="elem_FloatingNote"><path d="M6,71.5547 L6,319.2129 L498,319.2129 L498,81.5547 L488,71.5547 L6,71.5547 " fill="#FEFFDD" style="stroke:#181818;stroke-width:0.5;"/><path d="M488,71.5547 L488,81.5547 L498,81.5547 L488,71.5547 " fill="#FEFFDD" style="stroke:#181818;stroke-width:1.0;"/><text fill="#000000" font-family="sans-serif" font-size="13" lengthAdjust="spacing" textLength="120" x="12" y="89.123">Your are analyzing:</text><text fill="#000000" font-family="sans-serif" font-size="13" lengthAdjust="spacing" textLength="310" x="12" y="104.4336">Examples.BadDesign.BasicExample.ClassExample</text><text fill="#000000" font-family="sans-serif" font-size="13" font-weight="bold" lengthAdjust="spacing" textLength="67" x="326" y="104.4336">simplified</text><text fill="#000000" font-family="sans-serif" font-size="13" lengthAdjust="spacing" textLength="4" x="393" y="104.4336">&#160;</text><text fill="#000000" font-family="sans-serif" font-size="13" lengthAdjust="spacing" textLength="4" x="12" y="119.7441">&#160;</text><text fill="#000000" font-family="sans-serif" font-size="13" lengthAdjust="spacing" textLength="229" x="12" y="150.3652">You can click either the namespaces</text><text fill="#000000" font-family="sans-serif" font-size="13" lengthAdjust="spacing" textLength="266" x="12" y="165.6758">or class names for filtering them and their</text><text fill="#000000" font-family="sans-serif" font-size="13" lengthAdjust="spacing" textLength="130" x="12" y="180.9863">direct dependencies.</text><text fill="#000000" font-family="sans-serif" font-size="13" lengthAdjust="spacing" textLength="4" x="12" y="196.2969">&#160;</text><line style="stroke:#181818;stroke-width:1.0;" x1="7" x2="236" y1="130.1416" y2="130.1416"/><line style="stroke:#181818;stroke-width:1.0;" x1="7" x2="236" y1="132.1416" y2="132.1416"/><text fill="#000000" font-family="sans-serif" font-size="13" lengthAdjust="spacing" textLength="32" x="236" y="134.5547">Filter</text><line style="stroke:#181818;stroke-width:1.0;" x1="268" x2="497" y1="130.1416" y2="130.1416"/><line style="stroke:#181818;stroke-width:1.0;" x1="268" x2="497" y1="132.1416" y2="132.1416"/><ellipse cx="17.5" cy="226.1602" fill="#000000" rx="2.5" ry="2.5" style="stroke:#000000;stroke-width:0.0;"/><text fill="#000000" font-family="sans-serif" font-size="13" lengthAdjust="spacing" textLength="310" x="24" y="230.918">Examples.BadDesign.BasicExample.ClassExample</text><text fill="#000000" font-family="sans-serif" font-size="13" font-weight="bold" lengthAdjust="spacing" textLength="55" x="338" y="230.918">detailed</text><text fill="#000000" font-family="sans-serif" font-size="13" lengthAdjust="spacing" textLength="4" x="397" y="230.918">:</text><text fill="#000000" font-family="sans-serif" font-size="13" lengthAdjust="spacing" textLength="12" x="12" y="246.2285">&#160;&#160;&#160;</text><a href="Examples.BadDesign.BasicExample.ClassExample-diagram-detailed.svg" target="_top" title="Examples.BadDesign.BasicExample.ClassExample-diagram-detailed.svg" xlink:actuate="onRequest" xlink:href="Examples.BadDesign.BasicExample.ClassExample-diagram-detailed.svg" xlink:show="new" xlink:title="Examples.BadDesign.BasicExample.ClassExample-diagram-detailed.svg" xlink:type="simple"><text fill="#0000FF" font-family="sans-serif" font-size="13" lengthAdjust="spacing" text-decoration="underline" textLength="453" x="24" y="246.2285">Examples.BadDesign.BasicExample.ClassExample-diagram-detailed.svg</text></a><ellipse cx="17.5" cy="256.7813" fill="#000000" rx="2.5" ry="2.5" style="stroke:#000000;stroke-width:0.0;"/><text fill="#000000" font-family="sans-serif" font-size="13" lengthAdjust="spacing" textLength="78" x="24" y="261.5391">Full diagram</text><text fill="#000000" font-family="sans-serif" font-size="13" font-weight="bold" lengthAdjust="spacing" textLength="67" x="106" y="261.5391">simplified</text><text fill="#000000" font-family="sans-serif" font-size="13" lengthAdjust="spacing" textLength="23" x="177" y="261.5391">and</text><text fill="#000000" font-family="sans-serif" font-size="13" font-weight="bold" lengthAdjust="spacing" textLength="166" x="204" y="261.5391">grouped per namespace</text><text fill="#000000" font-family="sans-serif" font-size="13" lengthAdjust="spacing" textLength="4" x="370" y="261.5391">:</text><text fill="#000000" font-family="sans-serif" font-size="13" lengthAdjust="spacing" textLength="12" x="12" y="276.8496">&#160;&#160;&#160;</text><a href="full-diagram-simplified-grouped-per-namespace.svg" target="_top" title="full-diagram-simplified-grouped-per-namespace.svg" xlink:actuate="onRequest" xlink:href="full-diagram-simplified-grouped-per-namespace.svg" xlink:show="new" xlink:title="full-diagram-simplified-grouped-per-namespace.svg" xlink:type="simple"><text fill="#0000FF" font-family="sans-serif" font-size="13" lengthAdjust="spacing" text-decoration="underline" textLength="343" x="24" y="276.8496">full-diagram-simplified-grouped-per-namespace.svg</text></a><ellipse cx="17.5" cy="287.4023" fill="#000000" rx="2.5" ry="2.5" style="stroke:#000000;stroke-width:0.0;"/><text fill="#000000" font-family="sans-serif" font-size="13" lengthAdjust="spacing" textLength="41" x="24" y="292.1602">Home:</text><text fill="#000000" font-family="sans-serif" font-size="13" lengthAdjust="spacing" textLength="12" x="12" y="307.4707">&#160;&#160;&#160;</text><a href="index.html" target="_top" title="index.html" xlink:actuate="onRequest" xlink:href="index.html" xlink:show="new" xlink:title="index.html" xlink:type="simple"><text fill="#0000FF" font-family="sans-serif" font-size="13" lengthAdjust="spacing" text-decoration="underline" textLength="68" x="24" y="307.4707">index.html</text></a><line style="stroke:#181818;stroke-width:1.0;" x1="7" x2="215" y1="210.6943" y2="210.6943"/><line style="stroke:#181818;stroke-width:1.0;" x1="7" x2="215" y1="212.6943" y2="212.6943"/><text fill="#000000" font-family="sans-serif" font-size="13" lengthAdjust="spacing" textLength="74" x="215" y="215.1074">Select other</text><line style="stroke:#181818;stroke-width:1.0;" x1="289" x2="497" y1="210.6943" y2="210.6943"/><line style="stroke:#181818;stroke-width:1.0;" x1="289" x2="497" y1="212.6943" y2="212.6943"/></g><!--reverse link BaseExample to ClassExample--><g id="link_BaseExample_ClassExample"><path codeLine="23" d="M834.67,358.2847 C834.67,358.2847 834.67,219.9847 834.67,219.9847 " fill="none" id="BaseExample-backto-ClassExample" style="stroke:#FF0000;stroke-width:1.0;"/><polygon fill="none" points="841.67,358.2847,834.67,378.2847,827.67,358.2847,841.67,358.2847" style="stroke:#FF0000;stroke-width:1.0;"/></g><!--link ClassExample to BaseExample--><g id="link_ClassExample_BaseExample"><path codeLine="28" d="M843.83,219.8247 C843.83,219.8247 843.83,373.1247 843.83,373.1247 " fill="none" id="ClassExample-to-BaseExample" style="stroke:#909090;stroke-width:1.0;"/><polygon fill="#909090" points="843.83,378.1247,847.83,369.1247,843.83,373.1247,839.83,369.1247,843.83,378.1247" style="stroke:#909090;stroke-width:1.0;"/><text fill="#000000" font-family="sans-serif" font-size="13" lengthAdjust="spacing" textLength="29" x="813.83" y="293.043">uses</text></g><!--reverse link ClassExample to ClassExample_DOT_InnerClassExample--><g id="link_ClassExample_ClassExample_DOT_InnerClassExample"><path codeLine="24" d="M968.81,195.5547 C968.81,195.5547 1212,195.5547 1212,195.5547 C1212,195.5547 1212,324.4147 1212,379.2847 " fill="none" id="ClassExample-backto-ClassExample_DOT_InnerClassExample" style="stroke:#10BBBB;stroke-width:1.0;"/><ellipse cx="961.81" cy="195.5547" fill="#FFFFFF" rx="8" ry="8" style="stroke:#10BBBB;stroke-width:1.0;"/><line style="stroke:#10BBBB;stroke-width:1.0;" x1="969.81" x2="953.81" y1="195.5547" y2="195.5547"/><line style="stroke:#10BBBB;stroke-width:1.0;" x1="961.81" x2="961.81" y1="203.5547" y2="187.5547"/></g><!--reverse link ClassExample to Useless--><g id="link_ClassExample_Useless"><path codeLine="25" d="M901.33,233.8247 C901.33,233.8247 901.33,487.2047 901.33,487.2047 " fill="none" id="ClassExample-backto-Useless" style="stroke:#10BB10;stroke-width:1.0;"/><polygon fill="#10BB10" points="901.33,220.8247,897.33,226.8247,901.33,232.8247,905.33,226.8247,901.33,220.8247" style="stroke:#10BB10;stroke-width:1.0;"/></g><!--link ClassExample to Useless--><g id="link_ClassExample_Useless"><path codeLine="27" d="M877.17,219.8247 C877.17,219.8247 877.17,481.2047 877.17,481.2047 " fill="none" id="ClassExample-to-Useless" style="stroke:#6060BB;stroke-width:1.0;stroke-dasharray:7.0,7.0;"/><polygon fill="#6060BB" points="877.17,486.2047,881.17,477.2047,877.17,481.2047,873.17,477.2047,877.17,486.2047" style="stroke:#6060BB;stroke-width:1.0;"/><text fill="#000000" font-family="sans-serif" font-size="13" lengthAdjust="spacing" textLength="29" x="847.17" y="347.083">uses</text></g><!--link ClassExample to IExample--><g id="link_ClassExample_IExample"><path codeLine="29" d="M939,219.8247 C939,219.8247 939,373.1247 939,373.1247 " fill="none" id="ClassExample-to-IExample" style="stroke:#6060BB;stroke-width:1.0;stroke-dasharray:7.0,7.0;"/><polygon fill="#6060BB" points="939,378.1247,943,369.1247,939,373.1247,935,369.1247,939,378.1247" style="stroke:#6060BB;stroke-width:1.0;"/><text fill="#000000" font-family="sans-serif" font-size="13" lengthAdjust="spacing" textLength="29" x="909" y="293.043">uses</text></g><!--reverse link BaseExample to BaseExample_DOT_EnumTest--><g id="link_BaseExample_BaseExample_DOT_EnumTest"><path codeLine="30" d="M771.5,443.7947 C771.5,443.7947 771.5,487.3947 771.5,487.3947 " fill="none" id="BaseExample-backto-BaseExample_DOT_EnumTest" style="stroke:#10BBBB;stroke-width:1.0;"/><ellipse cx="771.5" cy="436.7947" fill="#FFFFFF" rx="8" ry="8" style="stroke:#10BBBB;stroke-width:1.0;"/><line style="stroke:#10BBBB;stroke-width:1.0;" x1="771.5" x2="771.5" y1="444.7947" y2="428.7947"/><line style="stroke:#10BBBB;stroke-width:1.0;" x1="763.5" x2="779.5" y1="436.7947" y2="436.7947"/></g><!--link BaseExample to Useless--><g id="link_BaseExample_Useless"><path codeLine="31" d="M829.75,427.7947 C829.75,459.6347 829.75,511.5547 829.75,511.5547 C829.75,511.5547 841.21,511.5547 841.21,511.5547 " fill="none" id="BaseExample-to-Useless" style="stroke:#6060BB;stroke-width:1.0;stroke-dasharray:7.0,7.0;"/><polygon fill="#6060BB" points="846.21,511.5547,837.21,507.5547,841.21,511.5547,837.21,515.5547,846.21,511.5547" style="stroke:#6060BB;stroke-width:1.0;"/><text fill="#000000" font-family="sans-serif" font-size="13" lengthAdjust="spacing" textLength="29" x="799.75" y="471.973">uses</text></g><!--link IExample to Useless--><g id="link_IExample_Useless"><path codeLine="32" d="M948,427.7947 C948,459.6347 948,511.5547 948,511.5547 C948,511.5547 936.93,511.5547 936.93,511.5547 " fill="none" id="IExample-to-Useless" style="stroke:#6060BB;stroke-width:1.0;stroke-dasharray:7.0,7.0;"/><polygon fill="#6060BB" points="931.93,511.5547,940.93,515.5547,936.93,511.5547,940.93,507.5547,931.93,511.5547" style="stroke:#6060BB;stroke-width:1.0;"/><text fill="#000000" font-family="sans-serif" font-size="13" lengthAdjust="spacing" textLength="29" x="918" y="471.773">uses</text></g><!--reverse link ClassExample_DOT_InnerClassExample to ClassExample_DOT_InnerClassExample_DOT_classInMethodExample--><g id="link_ClassExample_DOT_InnerClassExample_ClassExample_DOT_InnerClassExample_DOT_classInMethodExample"><path codeLine="33" d="M1212,443.7947 C1212,443.7947 1212,487.3947 1212,487.3947 " fill="none" id="ClassExample_DOT_InnerClassExample-backto-ClassExample_DOT_InnerClassExample_DOT_classInMethodExample" style="stroke:#10BBBB;stroke-width:1.0;"/><ellipse cx="1212" cy="436.7947" fill="#FFFFFF" rx="8" ry="8" style="stroke:#10BBBB;stroke-width:1.0;"/><line style="stroke:#10BBBB;stroke-width:1.0;" x1="1212" x2="1212" y1="444.7947" y2="428.7947"/><line style="stroke:#10BBBB;stroke-width:1.0;" x1="1204" x2="1220" y1="436.7947" y2="436.7947"/></g><!--SRC=[lLLDRzim3BtxLn3DeO07U-aE1HOaENHjC1-s7TOTXiGe18jEXCgI8IbRsct_lRJZV61h42iVSu10iac-zqYAiez2bSom0gHGw9vA16tSJ0TEE8dGj-8PU- -wmxi5Aqg9DhvX_1Qjc2fQMP4rx-CFabdRR20ChQ25o0NoC8J-sohAC53Q8LnyrtC3p20mnUJJir3JtaGT4twY9cem60dfq0m64qK0a345cHJP8w1mCpH0Vw1OWRPa6LhoqOOCAEZoBUIqp-iGHAYoBeWVhnR2J1GN1ZC774jK75KcYEaIzYlAwekkG2hm43obS7HCo5e8vG40ncEV214NR4hbYrPnOljZcgOLaT5SIcW-_vspIbiOJesUbyYXf0IjanE6Anuv1LZ7txX7ZLj4Rj7QROFxKHUu2Y4eNOjuvWgPfXV0B8oaPevI_9bw8I2JfWXUIJimGni5IwxGUK8fzK_uLHFvuq67DjYUpPRrRZ87iFXcgVd8RZ-3nlAaw5kg7cw_t3_SgNbnZzRv9IHUkRNa9XGTqPpwRI-_f7s1adDKPxi7wmGbIg4vef7ZVmASexNtqwxVri4IzGdfhk2dqXE_5jL3v2NDj5OFdCts4cf1O53IdDFA0YwSOPcZCPiRNMpcR8zizwGhy9b3_T_Hk6EGfv5NZGElqVk6CAwwD_Humkmu0NxeOOD-rMs1lfgEPuHuROvvuiNZpdNtcW3JUDXQ4lHWRj5N6Ybxtwr-QJJqkk4EW_DIbdXZRHFqwigTzvONv7dhblp_zjXnG4zyu7VV7S5nLyTncNe1]--></g></svg>