<?xml version="1.0" encoding="us-ascii" standalone="no"?><svg xmlns="http://www.w3.org/2000/svg" xmlns:xlink="http://www.w3.org/1999/xlink" contentStyleType="text/css" height="1131px" preserveAspectRatio="none" style="width:2093px;height:1131px;background:#FFFFFF;" version="1.1" viewBox="0 0 2093 1131" width="2093px" zoomAndPan="magnify"><defs/><g><text fill="#000000" font-family="sans-serif" font-size="20" font-weight="bold" lengthAdjust="spacing" textLength="328" x="679.5" y="29.3359">Examples.BasicExample.Useless</text><text fill="#000000" font-family="sans-serif" font-size="20" font-weight="bold" lengthAdjust="spacing" textLength="84" x="1014.5" y="29.3359">detailed</text><text fill="#000000" font-family="sans-serif" font-size="20" font-weight="bold" lengthAdjust="spacing" textLength="38" x="1105.5" y="29.3359">and</text><text fill="#000000" font-family="sans-serif" font-size="20" font-weight="bold" lengthAdjust="spacing" textLength="249" x="1150.5" y="29.3359">grouped per namespace</text><!--cluster Examples--><g id="cluster_Examples"><a href="Examples-diagram-detailed-grouped-per-namespace.svg" target="_top" title="Examples-diagram-detailed-grouped-per-namespace.svg" xlink:actuate="onRequest" xlink:href="Examples-diagram-detailed-grouped-per-namespace.svg" xlink:show="new" xlink:title="Examples-diagram-detailed-grouped-per-namespace.svg" xlink:type="simple"><path d="M586.5,64.5547 L655.5,64.5547 A3.75,3.75 0 0 1 658,67.0547 L665,87.043 L2083.5,87.043 A2.5,2.5 0 0 1 2086,89.543 L2086,1122.0547 A2.5,2.5 0 0 1 2083.5,1124.5547 L586.5,1124.5547 A2.5,2.5 0 0 1 584,1122.0547 L584,67.0547 A2.5,2.5 0 0 1 586.5,64.5547 " fill="none" style="stroke:#000000;stroke-width:1.5;"/><line style="stroke:#000000;stroke-width:1.5;" x1="584" x2="665" y1="87.043" y2="87.043"/><text fill="#000000" font-family="sans-serif" font-size="14" font-weight="bold" lengthAdjust="spacing" textLength="68" x="588" y="80.0898">Examples</text></a></g><!--cluster BasicExample--><g id="cluster_BasicExample"><a href="Examples.BasicExample-diagram-detailed-grouped-per-namespace.svg" target="_top" title="Examples.BasicExample-diagram-detailed-grouped-per-namespace.svg" xlink:actuate="onRequest" xlink:href="Examples.BasicExample-diagram-detailed-grouped-per-namespace.svg" xlink:show="new" xlink:title="Examples.BasicExample-diagram-detailed-grouped-per-namespace.svg" xlink:type="simple"><path d="M610.5,107.5547 L708.5,107.5547 A3.75,3.75 0 0 1 711,110.0547 L718,130.043 L2059.5,130.043 A2.5,2.5 0 0 1 2062,132.543 L2062,1098.0547 A2.5,2.5 0 0 1 2059.5,1100.5547 L610.5,1100.5547 A2.5,2.5 0 0 1 608,1098.0547 L608,110.0547 A2.5,2.5 0 0 1 610.5,107.5547 " fill="none" style="stroke:#000000;stroke-width:1.5;"/><line style="stroke:#000000;stroke-width:1.5;" x1="608" x2="718" y1="130.043" y2="130.043"/><text fill="#000000" font-family="sans-serif" font-size="14" font-weight="bold" lengthAdjust="spacing" textLength="97" x="612" y="123.0898">BasicExample</text></a></g><!--cluster SideExample--><g id="cluster_SideExample"><a href="Examples.BasicExample.SideExample-diagram-detailed-grouped-per-namespace.svg" target="_top" title="Examples.BasicExample.SideExample-diagram-detailed-grouped-per-namespace.svg" xlink:actuate="onRequest" xlink:href="Examples.BasicExample.SideExample-diagram-detailed-grouped-per-namespace.svg" xlink:show="new" xlink:title="Examples.BasicExample.SideExample-diagram-detailed-grouped-per-namespace.svg" xlink:type="simple"><path d="M713.5,944.5547 L804.5,944.5547 A3.75,3.75 0 0 1 807,947.0547 L814,967.043 L1042.5,967.043 A2.5,2.5 0 0 1 1045,969.543 L1045,1074.0547 A2.5,2.5 0 0 1 1042.5,1076.5547 L713.5,1076.5547 A2.5,2.5 0 0 1 711,1074.0547 L711,947.0547 A2.5,2.5 0 0 1 713.5,944.5547 " fill="none" style="stroke:#000000;stroke-width:1.5;"/><line style="stroke:#000000;stroke-width:1.5;" x1="711" x2="814" y1="967.043" y2="967.043"/><text fill="#000000" font-family="sans-serif" font-size="14" font-weight="bold" lengthAdjust="spacing" textLength="90" x="715" y="960.0898">SideExample</text></a></g><!--class Useless--><a href="Examples.BasicExample.Useless-diagram-detailed-grouped-per-namespace.svg" target="_top" title="Examples.BasicExample.Useless-diagram-detailed-grouped-per-namespace.svg" xlink:actuate="onRequest" xlink:href="Examples.BasicExample.Useless-diagram-detailed-grouped-per-namespace.svg" xlink:show="new" xlink:title="Examples.BasicExample.Useless-diagram-detailed-grouped-per-namespace.svg" xlink:type="simple"><g id="elem_Useless"><rect codeLine="6" fill="#FFFF00" height="80.9766" id="Useless" rx="2.5" ry="2.5" style="stroke:#181818;stroke-width:0.5;" width="508" x="624" y="838.5547"/><ellipse cx="848.25" cy="854.5547" fill="#ADD1B2" rx="11" ry="11" style="stroke:#181818;stroke-width:1.0;"/><path d="M850.7231,860.6978 Q850.1421,860.9966 849.5029,861.146 Q848.8638,861.2954 848.1582,861.2954 Q845.6514,861.2954 844.3315,859.6436 Q843.0117,857.9917 843.0117,854.8706 Q843.0117,851.7412 844.3315,850.0894 Q845.6514,848.4375 848.1582,848.4375 Q848.8638,848.4375 849.5112,848.5869 Q850.1587,848.7363 850.7231,849.0352 L850.7231,851.7578 Q850.0923,851.1768 849.4988,850.907 Q848.9053,850.6372 848.2744,850.6372 Q846.9297,850.6372 846.2449,851.7039 Q845.5601,852.7705 845.5601,854.8706 Q845.5601,856.9624 846.2449,858.0291 Q846.9297,859.0957 848.2744,859.0957 Q848.9053,859.0957 849.4988,858.8259 Q850.0923,858.5562 850.7231,857.9751 Z " fill="#000000"/><text fill="#000000" font-family="sans-serif" font-size="14" lengthAdjust="spacing" textLength="51" x="868.75" y="859.8457">Useless</text><line style="stroke:#181818;stroke-width:0.5;" x1="625" x2="1131" y1="870.5547" y2="870.5547"/><ellipse cx="635" cy="884.2988" fill="#84BE84" rx="3" ry="3" style="stroke:#038048;stroke-width:1.0;"/><text fill="#000000" font-family="sans-serif" font-size="14" lengthAdjust="spacing" textLength="55" x="644" y="888.0898">useless(</text><text fill="#000000" font-family="sans-serif" font-size="14" lengthAdjust="spacing" textLength="9" x="699" y="888.0898">):</text><text fill="#BB6060" font-family="sans-serif" font-size="14" lengthAdjust="spacing" textLength="29" x="712" y="888.0898">void</text><rect fill="none" height="6" style="stroke:#C82930;stroke-width:1.0;" width="6" x="632" y="897.7871"/><text fill="#909090" font-family="sans-serif" font-size="14" lengthAdjust="spacing" textLength="482" x="644" y="904.5781">useless.testEnum: Examples.BasicExample.SideExample.SideTestEnum</text><line style="stroke:#181818;stroke-width:1.0;" x1="625" x2="1131" y1="911.5313" y2="911.5313"/></g></a><!--class ClassExample_DOT_InnerClassExample--><a href="Examples.BasicExample.ClassExample.InnerClassExample-diagram-detailed-grouped-per-namespace.svg" target="_top" title="Examples.BasicExample.ClassExample.InnerClassExample-diagram-detailed-grouped-per-namespace.svg" xlink:actuate="onRequest" xlink:href="Examples.BasicExample.ClassExample.InnerClassExample-diagram-detailed-grouped-per-namespace.svg" xlink:show="new" xlink:title="Examples.BasicExample.ClassExample.InnerClassExample-diagram-detailed-grouped-per-namespace.svg" xlink:type="simple"><g id="elem_ClassExample_DOT_InnerClassExample"><rect codeLine="11" fill="#F1F1F1" height="64.4883" id="ClassExample_DOT_InnerClassExample" rx="2.5" ry="2.5" style="stroke:#181818;stroke-width:0.5;" width="574" x="735" y="714.5547"/><ellipse cx="882.75" cy="730.5547" fill="#ADD1B2" rx="11" ry="11" style="stroke:#181818;stroke-width:1.0;"/><path d="M885.2231,736.6978 Q884.6421,736.9966 884.0029,737.146 Q883.3638,737.2954 882.6582,737.2954 Q880.1514,737.2954 878.8315,735.6436 Q877.5117,733.9917 877.5117,730.8706 Q877.5117,727.7412 878.8315,726.0894 Q880.1514,724.4375 882.6582,724.4375 Q883.3638,724.4375 884.0112,724.5869 Q884.6587,724.7363 885.2231,725.0352 L885.2231,727.7578 Q884.5923,727.1768 883.9988,726.907 Q883.4053,726.6372 882.7744,726.6372 Q881.4297,726.6372 880.7449,727.7039 Q880.0601,728.7705 880.0601,730.8706 Q880.0601,732.9624 880.7449,734.0291 Q881.4297,735.0957 882.7744,735.0957 Q883.4053,735.0957 883.9988,734.8259 Q884.5923,734.5562 885.2231,733.9751 Z " fill="#000000"/><text fill="#000000" font-family="sans-serif" font-size="14" lengthAdjust="spacing" textLength="270" x="903.25" y="735.8457">ClassExample_DOT_InnerClassExample</text><line style="stroke:#181818;stroke-width:0.5;" x1="736" x2="1308" y1="746.5547" y2="746.5547"/><line style="stroke:#181818;stroke-width:0.5;" x1="736" x2="1308" y1="754.5547" y2="754.5547"/><ellipse cx="746" cy="768.2988" fill="#84BE84" rx="3" ry="3" style="stroke:#038048;stroke-width:1.0;"/><text fill="#000000" font-family="sans-serif" font-size="14" lengthAdjust="spacing" textLength="225" x="755" y="772.0898">methodClassInnerClassExample(</text><text fill="#6060BB" font-family="sans-serif" font-size="14" lengthAdjust="spacing" textLength="281" x="980" y="772.0898">useless1:Examples.BasicExample.Useless</text><text fill="#000000" font-family="sans-serif" font-size="14" lengthAdjust="spacing" textLength="9" x="1261" y="772.0898">):</text><text fill="#BB6060" font-family="sans-serif" font-size="14" lengthAdjust="spacing" textLength="29" x="1274" y="772.0898">void</text></g></a><!--class BaseExample--><a href="Examples.BasicExample.BaseExample-diagram-detailed-grouped-per-namespace.svg" target="_top" title="Examples.BasicExample.BaseExample-diagram-detailed-grouped-per-namespace.svg" xlink:actuate="onRequest" xlink:href="Examples.BasicExample.BaseExample-diagram-detailed-grouped-per-namespace.svg" xlink:show="new" xlink:title="Examples.BasicExample.BaseExample-diagram-detailed-grouped-per-namespace.svg" xlink:type="simple"><g id="elem_BaseExample"><rect codeLine="14" fill="#F1F1F1" height="80.9766" id="BaseExample" rx="2.5" ry="2.5" style="stroke:#181818;stroke-width:0.5;" width="948" x="679" y="358.5547"/><ellipse cx="1103.75" cy="374.5547" fill="#ADD1B2" rx="11" ry="11" style="stroke:#181818;stroke-width:1.0;"/><path d="M1106.2231,380.6978 Q1105.6421,380.9966 1105.0029,381.146 Q1104.3638,381.2954 1103.6582,381.2954 Q1101.1514,381.2954 1099.8315,379.6436 Q1098.5117,377.9917 1098.5117,374.8706 Q1098.5117,371.7412 1099.8315,370.0894 Q1101.1514,368.4375 1103.6582,368.4375 Q1104.3638,368.4375 1105.0112,368.5869 Q1105.6587,368.7363 1106.2231,369.0352 L1106.2231,371.7578 Q1105.5923,371.1768 1104.9988,370.907 Q1104.4053,370.6372 1103.7744,370.6372 Q1102.4297,370.6372 1101.7449,371.7039 Q1101.0601,372.7705 1101.0601,374.8706 Q1101.0601,376.9624 1101.7449,378.0291 Q1102.4297,379.0957 1103.7744,379.0957 Q1104.4053,379.0957 1104.9988,378.8259 Q1105.5923,378.5562 1106.2231,377.9751 Z " fill="#000000"/><text fill="#000000" font-family="sans-serif" font-size="14" lengthAdjust="spacing" textLength="90" x="1124.25" y="379.8457">BaseExample</text><line style="stroke:#181818;stroke-width:0.5;" x1="680" x2="1626" y1="390.5547" y2="390.5547"/><line style="stroke:#181818;stroke-width:0.5;" x1="680" x2="1626" y1="398.5547" y2="398.5547"/><ellipse cx="690" cy="412.2988" fill="#84BE84" rx="3" ry="3" style="stroke:#038048;stroke-width:1.0;"/><text fill="#000000" font-family="sans-serif" font-size="14" lengthAdjust="spacing" textLength="121" x="699" y="416.0898">exampleAbstract(</text><text fill="#6060BB" font-family="sans-serif" font-size="14" lengthAdjust="spacing" textLength="570" x="820" y="416.0898">useless1:Examples.BasicExample.Useless, useless2:Examples.BasicExample.Useless</text><text fill="#000000" font-family="sans-serif" font-size="14" lengthAdjust="spacing" textLength="9" x="1390" y="416.0898">):</text><text fill="#BB6060" font-family="sans-serif" font-size="14" lengthAdjust="spacing" textLength="218" x="1403" y="416.0898">Examples.BasicExample.Useless</text><ellipse cx="690" cy="428.7871" fill="#84BE84" rx="3" ry="3" style="stroke:#038048;stroke-width:1.0;"/><text fill="#000000" font-family="sans-serif" font-size="14" lengthAdjust="spacing" textLength="101" x="699" y="432.5781">otherExample(</text><text fill="#000000" font-family="sans-serif" font-size="14" lengthAdjust="spacing" textLength="9" x="800" y="432.5781">):</text><text fill="#BB6060" font-family="sans-serif" font-size="14" lengthAdjust="spacing" textLength="29" x="813" y="432.5781">void</text></g></a><!--class AbstractBaseExample--><a href="Examples.BasicExample.AbstractBaseExample-diagram-detailed-grouped-per-namespace.svg" target="_top" title="Examples.BasicExample.AbstractBaseExample-diagram-detailed-grouped-per-namespace.svg" xlink:actuate="onRequest" xlink:href="Examples.BasicExample.AbstractBaseExample-diagram-detailed-grouped-per-namespace.svg" xlink:show="new" xlink:title="Examples.BasicExample.AbstractBaseExample-diagram-detailed-grouped-per-namespace.svg" xlink:type="simple"><g id="elem_AbstractBaseExample"><rect codeLine="18" fill="#F1F1F1" height="64.4883" id="AbstractBaseExample" rx="2.5" ry="2.5" style="stroke:#181818;stroke-width:0.5;" width="948" x="642" y="142.5547"/><ellipse cx="1038.25" cy="158.5547" fill="#A9DCDF" rx="11" ry="11" style="stroke:#181818;stroke-width:1.0;"/><path d="M1038.1133,153.9028 L1036.9595,158.9746 L1039.2754,158.9746 Z M1036.6191,151.6616 L1039.6157,151.6616 L1042.9609,164.0547 L1040.5122,164.0547 L1039.7485,160.9917 L1036.4697,160.9917 L1035.7227,164.0547 L1033.2739,164.0547 Z " fill="#000000"/><text fill="#000000" font-family="sans-serif" font-size="14" font-style="italic" lengthAdjust="spacing" textLength="147" x="1058.75" y="163.8457">AbstractBaseExample</text><line style="stroke:#181818;stroke-width:0.5;" x1="643" x2="1589" y1="174.5547" y2="174.5547"/><line style="stroke:#181818;stroke-width:0.5;" x1="643" x2="1589" y1="182.5547" y2="182.5547"/><ellipse cx="653" cy="196.2988" fill="#84BE84" rx="3" ry="3" style="stroke:#038048;stroke-width:1.0;"/><text fill="#000000" font-family="sans-serif" font-size="14" lengthAdjust="spacing" textLength="121" x="662" y="200.0898">exampleAbstract(</text><text fill="#6060BB" font-family="sans-serif" font-size="14" lengthAdjust="spacing" textLength="570" x="783" y="200.0898">useless1:Examples.BasicExample.Useless, useless2:Examples.BasicExample.Useless</text><text fill="#000000" font-family="sans-serif" font-size="14" lengthAdjust="spacing" textLength="9" x="1353" y="200.0898">):</text><text fill="#BB6060" font-family="sans-serif" font-size="14" lengthAdjust="spacing" textLength="218" x="1366" y="200.0898">Examples.BasicExample.Useless</text></g></a><!--class IExample--><a href="Examples.BasicExample.IExample-diagram-detailed-grouped-per-namespace.svg" target="_top" title="Examples.BasicExample.IExample-diagram-detailed-grouped-per-namespace.svg" xlink:actuate="onRequest" xlink:href="Examples.BasicExample.IExample-diagram-detailed-grouped-per-namespace.svg" xlink:show="new" xlink:title="Examples.BasicExample.IExample-diagram-detailed-grouped-per-namespace.svg" xlink:type="simple"><g id="elem_IExample"><rect codeLine="21" fill="#F1F1F1" height="64.4883" id="IExample" rx="2.5" ry="2.5" style="stroke:#181818;stroke-width:0.5;" width="702" x="1344" y="714.5547"/><ellipse cx="1659.25" cy="730.5547" fill="#B4A7E5" rx="11" ry="11" style="stroke:#181818;stroke-width:1.0;"/><path d="M1655.6777,726.8198 L1655.6777,724.6616 L1663.0571,724.6616 L1663.0571,726.8198 L1660.5918,726.8198 L1660.5918,734.8965 L1663.0571,734.8965 L1663.0571,737.0547 L1655.6777,737.0547 L1655.6777,734.8965 L1658.1431,734.8965 L1658.1431,726.8198 Z " fill="#000000"/><text fill="#000000" font-family="sans-serif" font-size="14" font-style="italic" lengthAdjust="spacing" textLength="63" x="1679.75" y="735.8457">IExample</text><line style="stroke:#181818;stroke-width:0.5;" x1="1345" x2="2045" y1="746.5547" y2="746.5547"/><line style="stroke:#181818;stroke-width:0.5;" x1="1345" x2="2045" y1="754.5547" y2="754.5547"/><ellipse cx="1355" cy="768.2988" fill="#84BE84" rx="3" ry="3" style="stroke:#038048;stroke-width:1.0;"/><text fill="#000000" font-family="sans-serif" font-size="14" lengthAdjust="spacing" textLength="64" x="1364" y="772.0898">example(</text><text fill="#6060BB" font-family="sans-serif" font-size="14" lengthAdjust="spacing" textLength="570" x="1428" y="772.0898">useless1:Examples.BasicExample.Useless, useless2:Examples.BasicExample.Useless</text><text fill="#000000" font-family="sans-serif" font-size="14" lengthAdjust="spacing" textLength="9" x="1998" y="772.0898">):</text><text fill="#BB6060" font-family="sans-serif" font-size="14" lengthAdjust="spacing" textLength="29" x="2011" y="772.0898">void</text></g></a><!--class ClassExample--><a href="Examples.BasicExample.ClassExample-diagram-detailed-grouped-per-namespace.svg" target="_top" title="Examples.BasicExample.ClassExample-diagram-detailed-grouped-per-namespace.svg" xlink:actuate="onRequest" xlink:href="Examples.BasicExample.ClassExample-diagram-detailed-grouped-per-namespace.svg" xlink:show="new" xlink:title="Examples.BasicExample.ClassExample-diagram-detailed-grouped-per-namespace.svg" xlink:type="simple"><g id="elem_ClassExample"><rect codeLine="24" fill="#F1F1F1" height="154.9297" id="ClassExample" rx="2.5" ry="2.5" style="stroke:#181818;stroke-width:0.5;" width="948" x="698" y="499.5547"/><ellipse cx="1120.25" cy="515.5547" fill="#ADD1B2" rx="11" ry="11" style="stroke:#181818;stroke-width:1.0;"/><path d="M1122.7231,521.6978 Q1122.1421,521.9966 1121.5029,522.146 Q1120.8638,522.2954 1120.1582,522.2954 Q1117.6514,522.2954 1116.3315,520.6436 Q1115.0117,518.9917 1115.0117,515.8706 Q1115.0117,512.7412 1116.3315,511.0894 Q1117.6514,509.4375 1120.1582,509.4375 Q1120.8638,509.4375 1121.5112,509.5869 Q1122.1587,509.7363 1122.7231,510.0352 L1122.7231,512.7578 Q1122.0923,512.1768 1121.4988,511.907 Q1120.9053,511.6372 1120.2744,511.6372 Q1118.9297,511.6372 1118.2449,512.7039 Q1117.5601,513.7705 1117.5601,515.8706 Q1117.5601,517.9624 1118.2449,519.0291 Q1118.9297,520.0957 1120.2744,520.0957 Q1120.9053,520.0957 1121.4988,519.8259 Q1122.0923,519.5562 1122.7231,518.9751 Z " fill="#000000"/><text fill="#000000" font-family="sans-serif" font-size="14" lengthAdjust="spacing" textLength="95" x="1140.75" y="520.8457">ClassExample</text><line style="stroke:#181818;stroke-width:0.5;" x1="699" x2="1645" y1="531.5547" y2="531.5547"/><ellipse cx="709" cy="545.2988" fill="none" rx="3" ry="3" style="stroke:#038048;stroke-width:1.0;"/><text fill="#000000" font-family="sans-serif" font-size="14" lengthAdjust="spacing" textLength="357" x="718" y="549.0898">memberVarUseless: Examples.BasicExample.Useless</text><ellipse cx="709" cy="561.7871" fill="none" rx="3" ry="3" style="stroke:#038048;stroke-width:1.0;"/><text fill="#000000" font-family="sans-serif" font-size="14" lengthAdjust="spacing" textLength="485" x="718" y="565.5781">memberVarEnumTest: Examples.BasicExample.BaseExample.EnumTest</text><line style="stroke:#181818;stroke-width:1.0;" x1="699" x2="1645" y1="572.5313" y2="572.5313"/><line style="stroke:#181818;stroke-width:1.0;" x1="699" x2="1645" y1="574.5313" y2="574.5313"/><ellipse cx="709" cy="586.2754" fill="#84BE84" rx="3" ry="3" style="stroke:#038048;stroke-width:1.0;"/><text fill="#000000" font-family="sans-serif" font-size="14" lengthAdjust="spacing" textLength="64" x="718" y="590.0664">example(</text><text fill="#6060BB" font-family="sans-serif" font-size="14" lengthAdjust="spacing" textLength="570" x="782" y="590.0664">useless1:Examples.BasicExample.Useless, useless2:Examples.BasicExample.Useless</text><text fill="#000000" font-family="sans-serif" font-size="14" lengthAdjust="spacing" textLength="9" x="1352" y="590.0664">):</text><text fill="#BB6060" font-family="sans-serif" font-size="14" lengthAdjust="spacing" textLength="29" x="1365" y="590.0664">void</text><rect fill="none" height="6" style="stroke:#C82930;stroke-width:1.0;" width="6" x="706" y="599.7637"/><text fill="#909090" font-family="sans-serif" font-size="14" lengthAdjust="spacing" textLength="473" x="718" y="606.5547">example.localVarBaseExample: Examples.BasicExample.BaseExample</text><line style="stroke:#181818;stroke-width:1.0;" x1="699" x2="1645" y1="613.5078" y2="613.5078"/><ellipse cx="709" cy="627.252" fill="#84BE84" rx="3" ry="3" style="stroke:#038048;stroke-width:1.0;"/><text fill="#000000" font-family="sans-serif" font-size="14" lengthAdjust="spacing" textLength="86" x="718" y="631.043">getExample(</text><text fill="#000000" font-family="sans-serif" font-size="14" lengthAdjust="spacing" textLength="9" x="804" y="631.043">):</text><text fill="#BB6060" font-family="sans-serif" font-size="14" lengthAdjust="spacing" textLength="230" x="817" y="631.043">Examples.BasicExample.IExample</text><ellipse cx="709" cy="643.7402" fill="#84BE84" rx="3" ry="3" style="stroke:#038048;stroke-width:1.0;"/><text fill="#000000" font-family="sans-serif" font-size="14" lengthAdjust="spacing" textLength="121" x="718" y="647.5313">exampleAbstract(</text><text fill="#6060BB" font-family="sans-serif" font-size="14" lengthAdjust="spacing" textLength="570" x="839" y="647.5313">useless1:Examples.BasicExample.Useless, useless2:Examples.BasicExample.Useless</text><text fill="#000000" font-family="sans-serif" font-size="14" lengthAdjust="spacing" textLength="9" x="1409" y="647.5313">):</text><text fill="#BB6060" font-family="sans-serif" font-size="14" lengthAdjust="spacing" textLength="218" x="1422" y="647.5313">Examples.BasicExample.Useless</text></g></a><!--class SideTestEnum--><a href="Examples.BasicExample.SideExample.SideTestEnum-diagram-detailed-grouped-per-namespace.svg" target="_top" title="Examples.BasicExample.SideExample.SideTestEnum-diagram-detailed-grouped-per-namespace.svg" xlink:actuate="onRequest" xlink:href="Examples.BasicExample.SideExample.SideTestEnum-diagram-detailed-grouped-per-namespace.svg" xlink:show="new" xlink:title="Examples.BasicExample.SideExample.SideTestEnum-diagram-detailed-grouped-per-namespace.svg" xlink:type="simple"><g id="elem_SideTestEnum"><rect codeLine="43" fill="#F1F1F1" height="80.9766" id="SideTestEnum" rx="2.5" ry="2.5" style="stroke:#181818;stroke-width:0.5;" width="302" x="727" y="979.5547"/><ellipse cx="825.25" cy="995.5547" fill="#ADD1B2" rx="11" ry="11" style="stroke:#181818;stroke-width:1.0;"/><path d="M827.7231,1001.6978 Q827.1421,1001.9966 826.5029,1002.146 Q825.8638,1002.2954 825.1582,1002.2954 Q822.6514,1002.2954 821.3315,1000.6436 Q820.0117,998.9917 820.0117,995.8706 Q820.0117,992.7412 821.3315,991.0894 Q822.6514,989.4375 825.1582,989.4375 Q825.8638,989.4375 826.5112,989.5869 Q827.1587,989.7363 827.7231,990.0352 L827.7231,992.7578 Q827.0923,992.1768 826.4988,991.907 Q825.9053,991.6372 825.2744,991.6372 Q823.9297,991.6372 823.2449,992.7039 Q822.5601,993.7705 822.5601,995.8706 Q822.5601,997.9624 823.2449,999.0291 Q823.9297,1000.0957 825.2744,1000.0957 Q825.9053,1000.0957 826.4988,999.8259 Q827.0923,999.5562 827.7231,998.9751 Z " fill="#000000"/><text fill="#000000" font-family="sans-serif" font-size="14" lengthAdjust="spacing" textLength="97" x="845.75" y="1000.8457">SideTestEnum</text><line style="stroke:#181818;stroke-width:0.5;" x1="728" x2="1028" y1="1011.5547" y2="1011.5547"/><ellipse cx="738" cy="1025.2988" fill="none" rx="3" ry="3" style="stroke:#038048;stroke-width:1.0;"/><text fill="#000000" font-family="sans-serif" font-size="14" lengthAdjust="spacing" textLength="276" x="747" y="1029.0898">TestEnumValue1: EnumTypePlaceHolder</text><ellipse cx="738" cy="1041.7871" fill="none" rx="3" ry="3" style="stroke:#038048;stroke-width:1.0;"/><text fill="#000000" font-family="sans-serif" font-size="14" lengthAdjust="spacing" textLength="276" x="747" y="1045.5781">TestEnumValue2: EnumTypePlaceHolder</text><line style="stroke:#181818;stroke-width:1.0;" x1="728" x2="1028" y1="1052.5313" y2="1052.5313"/><line style="stroke:#181818;stroke-width:1.0;" x1="728" x2="1028" y1="1054.5313" y2="1054.5313"/></g></a><g id="elem_FloatingNote"><path d="M6,50.5547 L6,298.2129 L568,298.2129 L568,60.5547 L558,50.5547 L6,50.5547 " fill="#FEFFDD" style="stroke:#181818;stroke-width:0.5;"/><path d="M558,50.5547 L558,60.5547 L568,60.5547 L558,50.5547 " fill="#FEFFDD" style="stroke:#181818;stroke-width:1.0;"/><text fill="#000000" font-family="sans-serif" font-size="13" lengthAdjust="spacing" textLength="120" x="12" y="68.123">Your are analyzing:</text><text fill="#000000" font-family="sans-serif" font-size="13" lengthAdjust="spacing" textLength="201" x="12" y="83.4336">Examples.BasicExample.Useless</text><text fill="#000000" font-family="sans-serif" font-size="13" font-weight="bold" lengthAdjust="spacing" textLength="55" x="217" y="83.4336">detailed</text><text fill="#000000" font-family="sans-serif" font-size="13" lengthAdjust="spacing" textLength="23" x="276" y="83.4336">and</text><text fill="#000000" font-family="sans-serif" font-size="13" font-weight="bold" lengthAdjust="spacing" textLength="166" x="303" y="83.4336">grouped per namespace</text><text fill="#000000" font-family="sans-serif" font-size="13" lengthAdjust="spacing" textLength="4" x="12" y="98.7441">&#160;</text><text fill="#000000" font-family="sans-serif" font-size="13" lengthAdjust="spacing" textLength="229" x="12" y="129.3652">You can click either the namespaces</text><text fill="#000000" font-family="sans-serif" font-size="13" lengthAdjust="spacing" textLength="266" x="12" y="144.6758">or class names for filtering them and their</text><text fill="#000000" font-family="sans-serif" font-size="13" lengthAdjust="spacing" textLength="130" x="12" y="159.9863">direct dependencies.</text><text fill="#000000" font-family="sans-serif" font-size="13" lengthAdjust="spacing" textLength="4" x="12" y="175.2969">&#160;</text><line style="stroke:#181818;stroke-width:1.0;" x1="7" x2="271" y1="109.1416" y2="109.1416"/><line style="stroke:#181818;stroke-width:1.0;" x1="7" x2="271" y1="111.1416" y2="111.1416"/><text fill="#000000" font-family="sans-serif" font-size="13" lengthAdjust="spacing" textLength="32" x="271" y="113.5547">Filter</text><line style="stroke:#181818;stroke-width:1.0;" x1="303" x2="567" y1="109.1416" y2="109.1416"/><line style="stroke:#181818;stroke-width:1.0;" x1="303" x2="567" y1="111.1416" y2="111.1416"/><ellipse cx="17.5" cy="205.1602" fill="#000000" rx="2.5" ry="2.5" style="stroke:#000000;stroke-width:0.0;"/><text fill="#000000" font-family="sans-serif" font-size="13" lengthAdjust="spacing" textLength="201" x="24" y="209.918">Examples.BasicExample.Useless</text><text fill="#000000" font-family="sans-serif" font-size="13" font-weight="bold" lengthAdjust="spacing" textLength="67" x="229" y="209.918">simplified</text><text fill="#000000" font-family="sans-serif" font-size="13" lengthAdjust="spacing" textLength="23" x="300" y="209.918">and</text><text fill="#000000" font-family="sans-serif" font-size="13" font-weight="bold" lengthAdjust="spacing" textLength="166" x="327" y="209.918">grouped per namespace</text><text fill="#000000" font-family="sans-serif" font-size="13" lengthAdjust="spacing" textLength="4" x="493" y="209.918">:</text><text fill="#000000" font-family="sans-serif" font-size="13" lengthAdjust="spacing" textLength="12" x="12" y="225.2285">&#160;&#160;&#160;</text><a href="Examples.BasicExample.Useless-diagram-simplified-grouped-per-namespace.svg" target="_top" title="Examples.BasicExample.Useless-diagram-simplified-grouped-per-namespace.svg" xlink:actuate="onRequest" xlink:href="Examples.BasicExample.Useless-diagram-simplified-grouped-per-namespace.svg" xlink:show="new" xlink:title="Examples.BasicExample.Useless-diagram-simplified-grouped-per-namespace.svg" xlink:type="simple"><text fill="#0000FF" font-family="sans-serif" font-size="13" lengthAdjust="spacing" text-decoration="underline" textLength="523" x="24" y="225.2285">Examples.BasicExample.Useless-diagram-simplified-grouped-per-namespace.svg</text></a><ellipse cx="17.5" cy="235.7813" fill="#000000" rx="2.5" ry="2.5" style="stroke:#000000;stroke-width:0.0;"/><text fill="#000000" font-family="sans-serif" font-size="13" lengthAdjust="spacing" textLength="78" x="24" y="240.5391">Full diagram</text><text fill="#000000" font-family="sans-serif" font-size="13" font-weight="bold" lengthAdjust="spacing" textLength="55" x="106" y="240.5391">detailed</text><text fill="#000000" font-family="sans-serif" font-size="13" lengthAdjust="spacing" textLength="23" x="165" y="240.5391">and</text><text fill="#000000" font-family="sans-serif" font-size="13" font-weight="bold" lengthAdjust="spacing" textLength="166" x="192" y="240.5391">grouped per namespace</text><text fill="#000000" font-family="sans-serif" font-size="13" lengthAdjust="spacing" textLength="4" x="358" y="240.5391">:</text><text fill="#000000" font-family="sans-serif" font-size="13" lengthAdjust="spacing" textLength="12" x="12" y="255.8496">&#160;&#160;&#160;</text><a href="full-diagram-detailed-grouped-per-namespace.svg" target="_top" title="full-diagram-detailed-grouped-per-namespace.svg" xlink:actuate="onRequest" xlink:href="full-diagram-detailed-grouped-per-namespace.svg" xlink:show="new" xlink:title="full-diagram-detailed-grouped-per-namespace.svg" xlink:type="simple"><text fill="#0000FF" font-family="sans-serif" font-size="13" lengthAdjust="spacing" text-decoration="underline" textLength="330" x="24" y="255.8496">full-diagram-detailed-grouped-per-namespace.svg</text></a><ellipse cx="17.5" cy="266.4023" fill="#000000" rx="2.5" ry="2.5" style="stroke:#000000;stroke-width:0.0;"/><text fill="#000000" font-family="sans-serif" font-size="13" lengthAdjust="spacing" textLength="41" x="24" y="271.1602">Home:</text><text fill="#000000" font-family="sans-serif" font-size="13" lengthAdjust="spacing" textLength="12" x="12" y="286.4707">&#160;&#160;&#160;</text><a href="index.html" target="_top" title="index.html" xlink:actuate="onRequest" xlink:href="index.html" xlink:show="new" xlink:title="index.html" xlink:type="simple"><text fill="#0000FF" font-family="sans-serif" font-size="13" lengthAdjust="spacing" text-decoration="underline" textLength="68" x="24" y="286.4707">index.html</text></a><line style="stroke:#181818;stroke-width:1.0;" x1="7" x2="250" y1="189.6943" y2="189.6943"/><line style="stroke:#181818;stroke-width:1.0;" x1="7" x2="250" y1="191.6943" y2="191.6943"/><text fill="#000000" font-family="sans-serif" font-size="13" lengthAdjust="spacing" textLength="74" x="250" y="194.1074">Select other</text><line style="stroke:#181818;stroke-width:1.0;" x1="324" x2="567" y1="189.6943" y2="189.6943"/><line style="stroke:#181818;stroke-width:1.0;" x1="324" x2="567" y1="191.6943" y2="191.6943"/></g><!--link Useless to SideTestEnum--><g id="link_Useless_SideTestEnum"><path codeLine="61" d="M878,919.8347 C878,919.8347 878,973.3647 878,973.3647 " fill="none" id="Useless-to-SideTestEnum" style="stroke:#909090;stroke-width:1.0;"/><polygon fill="#909090" points="878,978.3647,882,969.3647,878,973.3647,874,969.3647,878,978.3647" style="stroke:#909090;stroke-width:1.0;"/><text fill="#000000" font-family="sans-serif" font-size="13" lengthAdjust="spacing" textLength="29" x="848" y="943.173">uses</text></g><!--reverse link AbstractBaseExample to BaseExample--><g id="link_AbstractBaseExample_BaseExample"><path codeLine="63" d="M1134.5,227.7247 C1134.5,227.7247 1134.5,358.1947 1134.5,358.1947 " fill="none" id="AbstractBaseExample-backto-BaseExample" style="stroke:#FF0000;stroke-width:1.0;"/><polygon fill="none" points="1127.5,227.7247,1134.5,207.7247,1141.5,227.7247,1127.5,227.7247" style="stroke:#FF0000;stroke-width:1.0;"/></g><!--link BaseExample to Useless--><g id="link_BaseExample_Useless"><path codeLine="64" d="M688.5,439.9747 C688.5,439.9747 688.5,832.2347 688.5,832.2347 " fill="none" id="BaseExample-to-Useless" style="stroke:#6060BB;stroke-width:1.0;stroke-dasharray:7.0,7.0;"/><polygon fill="#6060BB" points="688.5,837.2347,692.5,828.2347,688.5,832.2347,684.5,828.2347,688.5,837.2347" style="stroke:#6060BB;stroke-width:1.0;"/><text fill="#000000" font-family="sans-serif" font-size="13" lengthAdjust="spacing" textLength="29" x="658.5" y="632.673">uses</text></g><!--link AbstractBaseExample to Useless--><g id="link_AbstractBaseExample_Useless"><path codeLine="65" d="M660.5,206.6547 C660.5,206.6547 660.5,832.2247 660.5,832.2247 " fill="none" id="AbstractBaseExample-to-Useless" style="stroke:#6060BB;stroke-width:1.0;stroke-dasharray:7.0,7.0;"/><polygon fill="#6060BB" points="660.5,837.2247,664.5,828.2247,660.5,832.2247,656.5,828.2247,660.5,837.2247" style="stroke:#6060BB;stroke-width:1.0;"/><text fill="#000000" font-family="sans-serif" font-size="13" lengthAdjust="spacing" textLength="29" x="630.5" y="516.003">uses</text></g><!--link IExample to Useless--><g id="link_IExample_Useless"><path codeLine="66" d="M1695,778.7547 C1695,818.1147 1695,879.5547 1695,879.5547 C1695,879.5547 1138.3,879.5547 1138.3,879.5547 " fill="none" id="IExample-to-Useless" style="stroke:#6060BB;stroke-width:1.0;stroke-dasharray:7.0,7.0;"/><polygon fill="#6060BB" points="1133.3,879.5547,1142.3,883.5547,1138.3,879.5547,1142.3,875.5547,1133.3,879.5547" style="stroke:#6060BB;stroke-width:1.0;"/><text fill="#000000" font-family="sans-serif" font-size="13" lengthAdjust="spacing" textLength="29" x="1437.05" y="876.123">uses</text></g><!--reverse link BaseExample to ClassExample--><g id="link_BaseExample_ClassExample"><path codeLine="67" d="M1007.67,460.8947 C1007.67,460.8947 1007.67,499.2847 1007.67,499.2847 " fill="none" id="BaseExample-backto-ClassExample" style="stroke:#FF0000;stroke-width:1.0;"/><polygon fill="none" points="1000.67,460.8947,1007.67,440.8947,1014.67,460.8947,1000.67,460.8947" style="stroke:#FF0000;stroke-width:1.0;"/></g><!--link ClassExample to BaseExample--><g id="link_ClassExample_BaseExample"><path codeLine="71" d="M1317.33,499.2447 C1317.33,499.2447 1317.33,446.0447 1317.33,446.0447 " fill="none" id="ClassExample-to-BaseExample" style="stroke:#909090;stroke-width:1.0;"/><polygon fill="#909090" points="1317.33,441.0447,1313.33,450.0447,1317.33,446.0447,1321.33,450.0447,1317.33,441.0447" style="stroke:#909090;stroke-width:1.0;"/><text fill="#000000" font-family="sans-serif" font-size="13" lengthAdjust="spacing" textLength="29" x="1287.33" y="469.213">uses</text></g><!--reverse link ClassExample to ClassExample_DOT_InnerClassExample--><g id="link_ClassExample_ClassExample_DOT_InnerClassExample"><path codeLine="68" d="M1022,670.8547 C1022,670.8547 1022,714.0947 1022,714.0947 " fill="none" id="ClassExample-backto-ClassExample_DOT_InnerClassExample" style="stroke:#10BBBB;stroke-width:1.0;"/><ellipse cx="1022" cy="663.8547" fill="#FFFFFF" rx="8" ry="8" style="stroke:#10BBBB;stroke-width:1.0;"/><line style="stroke:#10BBBB;stroke-width:1.0;" x1="1022" x2="1022" y1="671.8547" y2="655.8547"/><line style="stroke:#10BBBB;stroke-width:1.0;" x1="1014" x2="1030" y1="663.8547" y2="663.8547"/></g><!--reverse link ClassExample to Useless--><g id="link_ClassExample_Useless"><path codeLine="69" d="M722.67,668.8247 C722.67,668.8247 722.67,838.1847 722.67,838.1847 " fill="none" id="ClassExample-backto-Useless" style="stroke:#10BB10;stroke-width:1.0;"/><polygon fill="#10BB10" points="722.67,655.8247,718.67,661.8247,722.67,667.8247,726.67,661.8247,722.67,655.8247" style="stroke:#10BB10;stroke-width:1.0;"/></g><!--link ClassExample to Useless--><g id="link_ClassExample_Useless"><path codeLine="70" d="M710.33,654.8247 C710.33,654.8247 710.33,832.1847 710.33,832.1847 " fill="none" id="ClassExample-to-Useless" style="stroke:#6060BB;stroke-width:1.0;stroke-dasharray:7.0,7.0;"/><polygon fill="#6060BB" points="710.33,837.1847,714.33,828.1847,710.33,832.1847,706.33,828.1847,710.33,837.1847" style="stroke:#6060BB;stroke-width:1.0;"/><text fill="#000000" font-family="sans-serif" font-size="13" lengthAdjust="spacing" textLength="29" x="680.33" y="740.073">uses</text></g><!--link ClassExample to IExample--><g id="link_ClassExample_IExample"><path codeLine="72" d="M1495,654.8547 C1495,654.8547 1495,708.0947 1495,708.0947 " fill="none" id="ClassExample-to-IExample" style="stroke:#6060BB;stroke-width:1.0;stroke-dasharray:7.0,7.0;"/><polygon fill="#6060BB" points="1495,713.0947,1499,704.0947,1495,708.0947,1491,704.0947,1495,713.0947" style="stroke:#6060BB;stroke-width:1.0;"/><text fill="#000000" font-family="sans-serif" font-size="13" lengthAdjust="spacing" textLength="29" x="1465" y="678.043">uses</text></g><!--SRC=[vLXjRziu3FwUNq6a7xPbPo_jXm4paW2NtehbopPWBy3G185gqwamMGeafLktsty_oh4JPutVqlHkmxL54ClaG_AXH8erdxbSCiqI45oYlLqYA6slLSToAn06Xd_3uAm_UlcL9Kk1nXypmyFioVzWaDOCz7eHMiO5HhqUC1dHmaAhrH8ZMA86oH8qInPYhpTuvX177QaiGlUJMcbW6ac7YTjlN2w2gJoMgQcSok7mWWkBUZYSIZ868PCG2Xv-1kJsckJfOwjZO2gL9W56Xj9LYEavJY78EIUTf4Rf2zTJ6N6DeOK8boWZb24dhzTctv6tz4Ov8yvu3-h2CfmMUCph0oEE0E3oiXBHYpXRK5wzBQwNuNc4vstmV7EpcCsSXnSh8I1JQy5pxavCwXkhkNATpLSgmHo04uTV_MkRYDci2yp0XL3C4k-lQRDqDieR9WiKjB8Bt_U0xP1OHcvRCv3jfUhSDyra8wCdjoY4-f8Q1tWAgpN8uq6if8LG2QM7tUVzv_tnk3iQF7EheoS1xBmUZvr0TtIZU9I9f6ZUhjYBllljZZ8JlaLZNyfL4fJ4-uv7MFp-FfFFJNWUMVbHGzgvUvSzpFzwytu-aH9rSRMKpwAGVqUj7SqRVXEaQXcbG7SWzvEUqNKQL6QzLMhgIAC7h6Ed87CW5RZM_lFAMCr2Uv_e_yZtxTczM6gYcpcVLkhAlBNE2Ck8g4nDpbQJ5EsH_R-bol7A9RNZkBHu-vCw7YT78UyN8ArT5MXT90ykYSaLwezCPq44rVtlPotN4bnh2EgBcP_BTeR3NpmvfTqpSzWNAcI2mY-4ru21dTxfub-WlKyLgpumkoNpDouYZyvLGcCFNMR_dPiWVA5n0-XeMI1V4YJNLGof9t0kb7731QFRzrBZ3LShCpUhg_a6PIuuAMuzVQqamXM6Z4XpqqasFnbkWFvYBhcvniWlO6zrYq5qVkmLoGEcrx_ZfRl6JF4QMbe52pBjx_pLLRZi5jp4bns5WwgpExSvm4ScLdXAHSOLKPhytmeIVwL4X7g_xDb-sQpsjZXL3vo3ijFsNvotGXGbnwtTYOH7D8at-e47atKkkWskKT1yhgIXLf2s0Cfyh5MozJmWsRtPxLIFnDxboRe_phnHstC4WMic1Zg7J87WNvwiMzVC7zNCxJM6zjti1tzJP7H0PbvzQ-_Kpt8Fw-pnq2V7Xsp5QZ733RO5F2MyK_AI_FGE_pz44qkzpD9flzHIJaWJkEFnkmFRu3WMyz46ke77apkuHoX0nVhn3m00]--></g></svg>