<?xml version="1.0" encoding="us-ascii" standalone="no"?><svg xmlns="http://www.w3.org/2000/svg" xmlns:xlink="http://www.w3.org/1999/xlink" contentStyleType="text/css" height="903px" preserveAspectRatio="none" style="width:4162px;height:903px;background:#FFFFFF;" version="1.1" viewBox="0 0 4162 903" width="4162px" zoomAndPan="magnify"><defs/><g><text fill="#000000" font-family="sans-serif" font-size="20" font-weight="bold" lengthAdjust="spacing" textLength="481" x="1784.5" y="29.3359">Examples.BetterDesign.Repository.CarExample</text><text fill="#000000" font-family="sans-serif" font-size="20" font-weight="bold" lengthAdjust="spacing" textLength="84" x="2272.5" y="29.3359">detailed</text><text fill="#000000" font-family="sans-serif" font-size="20" font-weight="bold" lengthAdjust="spacing" textLength="7" x="2356.5" y="29.3359">&#160;</text><!--cluster Examples--><g id="cluster_Examples"><path d="M512.5,50.5547 L581.5,50.5547 A3.75,3.75 0 0 1 584,53.0547 L591,73.043 L4152.5,73.043 A2.5,2.5 0 0 1 4155,75.543 L4155,893.5547 A2.5,2.5 0 0 1 4152.5,896.0547 L512.5,896.0547 A2.5,2.5 0 0 1 510,893.5547 L510,53.0547 A2.5,2.5 0 0 1 512.5,50.5547 " fill="none" style="stroke:#000000;stroke-width:1.5;"/><line style="stroke:#000000;stroke-width:1.5;" x1="510" x2="591" y1="73.043" y2="73.043"/><text fill="#000000" font-family="sans-serif" font-size="14" font-weight="bold" lengthAdjust="spacing" textLength="68" x="514" y="66.0898">Examples</text></g><!--cluster BetterDesign--><g id="cluster_BetterDesign"><path d="M536.5,93.5547 L630.5,93.5547 A3.75,3.75 0 0 1 633,96.0547 L640,116.043 L4128.5,116.043 A2.5,2.5 0 0 1 4131,118.543 L4131,869.5547 A2.5,2.5 0 0 1 4128.5,872.0547 L536.5,872.0547 A2.5,2.5 0 0 1 534,869.5547 L534,96.0547 A2.5,2.5 0 0 1 536.5,93.5547 " fill="none" style="stroke:#000000;stroke-width:1.5;"/><line style="stroke:#000000;stroke-width:1.5;" x1="534" x2="640" y1="116.043" y2="116.043"/><text fill="#000000" font-family="sans-serif" font-size="14" font-weight="bold" lengthAdjust="spacing" textLength="93" x="538" y="109.0898">BetterDesign</text></g><!--cluster Repository--><g id="cluster_Repository"><path d="M1540.5,136.5547 L1619.5,136.5547 A3.75,3.75 0 0 1 1622,139.0547 L1629,159.043 L4104.5,159.043 A2.5,2.5 0 0 1 4107,161.543 L4107,845.5547 A2.5,2.5 0 0 1 4104.5,848.0547 L1540.5,848.0547 A2.5,2.5 0 0 1 1538,845.5547 L1538,139.0547 A2.5,2.5 0 0 1 1540.5,136.5547 " fill="none" style="stroke:#000000;stroke-width:1.5;"/><line style="stroke:#000000;stroke-width:1.5;" x1="1538" x2="1629" y1="159.043" y2="159.043"/><text fill="#000000" font-family="sans-serif" font-size="14" font-weight="bold" lengthAdjust="spacing" textLength="78" x="1542" y="152.0898">Repository</text></g><!--cluster CarExample--><g id="cluster_CarExample"><path d="M1564.5,179.5547 L1649.5,179.5547 A3.75,3.75 0 0 1 1652,182.0547 L1659,202.043 L3072.5,202.043 A2.5,2.5 0 0 1 3075,204.543 L3075,821.5547 A2.5,2.5 0 0 1 3072.5,824.0547 L1564.5,824.0547 A2.5,2.5 0 0 1 1562,821.5547 L1562,182.0547 A2.5,2.5 0 0 1 1564.5,179.5547 " fill="none" style="stroke:#000000;stroke-width:1.5;"/><line style="stroke:#000000;stroke-width:1.5;" x1="1562" x2="1659" y1="202.043" y2="202.043"/><text fill="#000000" font-family="sans-serif" font-size="14" font-weight="bold" lengthAdjust="spacing" textLength="84" x="1566" y="195.0898">CarExample</text></g><!--cluster CarParts--><g id="cluster_CarParts"><path d="M1588.5,668.0547 L1650.5,668.0547 A3.75,3.75 0 0 1 1653,670.5547 L1660,690.543 L3048.5,690.543 A2.5,2.5 0 0 1 3051,693.043 L3051,797.5547 A2.5,2.5 0 0 1 3048.5,800.0547 L1588.5,800.0547 A2.5,2.5 0 0 1 1586,797.5547 L1586,670.5547 A2.5,2.5 0 0 1 1588.5,668.0547 " fill="none" style="stroke:#000000;stroke-width:1.5;"/><line style="stroke:#000000;stroke-width:1.5;" x1="1586" x2="1660" y1="690.543" y2="690.543"/><text fill="#000000" font-family="sans-serif" font-size="14" font-weight="bold" lengthAdjust="spacing" textLength="61" x="1590" y="683.5898">CarParts</text></g><!--class Service--><a href="Examples.BetterDesign.Service-diagram-detailed.svg" target="_top" title="Examples.BetterDesign.Service-diagram-detailed.svg" xlink:actuate="onRequest" xlink:href="Examples.BetterDesign.Service-diagram-detailed.svg" xlink:show="new" xlink:title="Examples.BetterDesign.Service-diagram-detailed.svg" xlink:type="simple"><g id="elem_Service"><rect codeLine="4" fill="#F1F1F1" height="80.9766" id="Service" rx="2.5" ry="2.5" style="stroke:#181818;stroke-width:0.5;" width="971" x="550.5" y="222.5547"/><ellipse cx="1007.75" cy="238.5547" fill="#ADD1B2" rx="11" ry="11" style="stroke:#181818;stroke-width:1.0;"/><path d="M1010.2231,244.6978 Q1009.6421,244.9966 1009.0029,245.146 Q1008.3638,245.2954 1007.6582,245.2954 Q1005.1514,245.2954 1003.8315,243.6436 Q1002.5117,241.9917 1002.5117,238.8706 Q1002.5117,235.7412 1003.8315,234.0894 Q1005.1514,232.4375 1007.6582,232.4375 Q1008.3638,232.4375 1009.0112,232.5869 Q1009.6587,232.7363 1010.2231,233.0352 L1010.2231,235.7578 Q1009.5923,235.1768 1008.9988,234.907 Q1008.4053,234.6372 1007.7744,234.6372 Q1006.4297,234.6372 1005.7449,235.7039 Q1005.0601,236.7705 1005.0601,238.8706 Q1005.0601,240.9624 1005.7449,242.0291 Q1006.4297,243.0957 1007.7744,243.0957 Q1008.4053,243.0957 1008.9988,242.8259 Q1009.5923,242.5562 1010.2231,241.9751 Z " fill="#000000"/><text fill="#000000" font-family="sans-serif" font-size="14" lengthAdjust="spacing" textLength="48" x="1028.25" y="243.8457">Service</text><line style="stroke:#181818;stroke-width:0.5;" x1="551.5" x2="1520.5" y1="254.5547" y2="254.5547"/><line style="stroke:#181818;stroke-width:0.5;" x1="551.5" x2="1520.5" y1="262.5547" y2="262.5547"/><ellipse cx="561.5" cy="276.2988" fill="#84BE84" rx="3" ry="3" style="stroke:#038048;stroke-width:1.0;"/><text fill="#000000" font-family="sans-serif" font-size="14" lengthAdjust="spacing" textLength="108" x="570.5" y="280.0898">getOrderedCar(</text><text fill="#6060BB" font-family="sans-serif" font-size="14" lengthAdjust="spacing" textLength="432" x="678.5" y="280.0898">physicalCar:Examples.BetterDesign.Repository.CarExample.Car</text><text fill="#000000" font-family="sans-serif" font-size="14" lengthAdjust="spacing" textLength="9" x="1110.5" y="280.0898">):</text><text fill="#BB6060" font-family="sans-serif" font-size="14" lengthAdjust="spacing" textLength="392" x="1123.5" y="280.0898">Examples.BetterDesign.Repository.WarehouseEntities.Car</text><ellipse cx="561.5" cy="292.7871" fill="#84BE84" rx="3" ry="3" style="stroke:#038048;stroke-width:1.0;"/><text fill="#000000" font-family="sans-serif" font-size="14" lengthAdjust="spacing" textLength="105" x="570.5" y="296.5781">getPhysicalCar(</text><text fill="#6060BB" font-family="sans-serif" font-size="14" lengthAdjust="spacing" textLength="417" x="675.5" y="296.5781">car:Examples.BetterDesign.Repository.WarehouseEntities.Car</text><text fill="#000000" font-family="sans-serif" font-size="14" lengthAdjust="spacing" textLength="9" x="1092.5" y="296.5781">):</text><text fill="#BB6060" font-family="sans-serif" font-size="14" lengthAdjust="spacing" textLength="349" x="1105.5" y="296.5781">Examples.BetterDesign.Repository.CarExample.Car</text></g></a><!--class DBCar--><a href="Examples.BetterDesign.Repository.DBCar-diagram-detailed.svg" target="_top" title="Examples.BetterDesign.Repository.DBCar-diagram-detailed.svg" xlink:actuate="onRequest" xlink:href="Examples.BetterDesign.Repository.DBCar-diagram-detailed.svg" xlink:show="new" xlink:title="Examples.BetterDesign.Repository.DBCar-diagram-detailed.svg" xlink:type="simple"><g id="elem_DBCar"><rect codeLine="8" fill="#F1F1F1" height="196.3945" id="DBCar" rx="2.5" ry="2.5" style="stroke:#181818;stroke-width:0.5;" width="999" x="3091.5" y="447.0547"/><ellipse cx="3565.75" cy="463.0547" fill="#ADD1B2" rx="11" ry="11" style="stroke:#181818;stroke-width:1.0;"/><path d="M3568.2231,469.1978 Q3567.6421,469.4966 3567.0029,469.646 Q3566.3638,469.7954 3565.6582,469.7954 Q3563.1514,469.7954 3561.8315,468.1436 Q3560.5117,466.4917 3560.5117,463.3706 Q3560.5117,460.2412 3561.8315,458.5894 Q3563.1514,456.9375 3565.6582,456.9375 Q3566.3638,456.9375 3567.0112,457.0869 Q3567.6587,457.2363 3568.2231,457.5352 L3568.2231,460.2578 Q3567.5923,459.6768 3566.9988,459.407 Q3566.4053,459.1372 3565.7744,459.1372 Q3564.4297,459.1372 3563.7449,460.2039 Q3563.0601,461.2705 3563.0601,463.3706 Q3563.0601,465.4624 3563.7449,466.5291 Q3564.4297,467.5957 3565.7744,467.5957 Q3566.4053,467.5957 3566.9988,467.3259 Q3567.5923,467.0562 3568.2231,466.4751 Z " fill="#000000"/><text fill="#000000" font-family="sans-serif" font-size="14" lengthAdjust="spacing" textLength="42" x="3586.25" y="468.3457">DBCar</text><line style="stroke:#181818;stroke-width:0.5;" x1="3092.5" x2="4089.5" y1="479.0547" y2="479.0547"/><line style="stroke:#181818;stroke-width:0.5;" x1="3092.5" x2="4089.5" y1="487.0547" y2="487.0547"/><ellipse cx="3102.5" cy="500.7988" fill="#84BE84" rx="3" ry="3" style="stroke:#038048;stroke-width:1.0;"/><text fill="#000000" font-family="sans-serif" font-size="14" lengthAdjust="spacing" textLength="122" x="3111.5" y="504.5898">getCarsForDriver(</text><text fill="#6060BB" font-family="sans-serif" font-size="14" lengthAdjust="spacing" textLength="472" x="3233.5" y="504.5898">driver:Examples.BetterDesign.Repository.CarExample.CarParts.Driver</text><text fill="#000000" font-family="sans-serif" font-size="14" lengthAdjust="spacing" textLength="9" x="3705.5" y="504.5898">):</text><text fill="#BB6060" font-family="sans-serif" font-size="14" lengthAdjust="spacing" textLength="41" x="3718.5" y="504.5898">String</text><ellipse cx="3102.5" cy="517.2871" fill="#84BE84" rx="3" ry="3" style="stroke:#038048;stroke-width:1.0;"/><text fill="#000000" font-family="sans-serif" font-size="14" lengthAdjust="spacing" textLength="77" x="3111.5" y="521.0781">updateCar(</text><text fill="#6060BB" font-family="sans-serif" font-size="14" lengthAdjust="spacing" textLength="844" x="3188.5" y="521.0781">car:Examples.BetterDesign.Repository.CarExample.Car, seats:Examples.BetterDesign.Repository.CarExample.CarParts.Seats</text><text fill="#000000" font-family="sans-serif" font-size="14" lengthAdjust="spacing" textLength="9" x="4032.5" y="521.0781">):</text><text fill="#BB6060" font-family="sans-serif" font-size="14" lengthAdjust="spacing" textLength="29" x="4045.5" y="521.0781">void</text><ellipse cx="3102.5" cy="533.7754" fill="#84BE84" rx="3" ry="3" style="stroke:#038048;stroke-width:1.0;"/><text fill="#000000" font-family="sans-serif" font-size="14" lengthAdjust="spacing" textLength="77" x="3111.5" y="537.5664">updateCar(</text><text fill="#6060BB" font-family="sans-serif" font-size="14" lengthAdjust="spacing" textLength="854" x="3188.5" y="537.5664">car:Examples.BetterDesign.Repository.CarExample.Car, doors:Examples.BetterDesign.Repository.CarExample.CarParts.Doors</text><text fill="#000000" font-family="sans-serif" font-size="14" lengthAdjust="spacing" textLength="9" x="4042.5" y="537.5664">):</text><text fill="#BB6060" font-family="sans-serif" font-size="14" lengthAdjust="spacing" textLength="29" x="4055.5" y="537.5664">void</text><ellipse cx="3102.5" cy="550.2637" fill="#84BE84" rx="3" ry="3" style="stroke:#038048;stroke-width:1.0;"/><text fill="#000000" font-family="sans-serif" font-size="14" lengthAdjust="spacing" textLength="70" x="3111.5" y="554.0547">sellCarTo(</text><text fill="#6060BB" font-family="sans-serif" font-size="14" lengthAdjust="spacing" textLength="854" x="3181.5" y="554.0547">car:Examples.BetterDesign.Repository.CarExample.Car, driver:Examples.BetterDesign.Repository.CarExample.CarParts.Driver</text><text fill="#000000" font-family="sans-serif" font-size="14" lengthAdjust="spacing" textLength="9" x="4035.5" y="554.0547">):</text><text fill="#BB6060" font-family="sans-serif" font-size="14" lengthAdjust="spacing" textLength="29" x="4048.5" y="554.0547">void</text><ellipse cx="3102.5" cy="566.752" fill="#84BE84" rx="3" ry="3" style="stroke:#038048;stroke-width:1.0;"/><text fill="#000000" font-family="sans-serif" font-size="14" lengthAdjust="spacing" textLength="51" x="3111.5" y="570.543">getCar(</text><text fill="#6060BB" font-family="sans-serif" font-size="14" lengthAdjust="spacing" textLength="441" x="3162.5" y="570.543">d:Examples.BetterDesign.Repository.CarExample.CarParts.Driver</text><text fill="#000000" font-family="sans-serif" font-size="14" lengthAdjust="spacing" textLength="9" x="3603.5" y="570.543">):</text><text fill="#BB6060" font-family="sans-serif" font-size="14" lengthAdjust="spacing" textLength="349" x="3616.5" y="570.543">Examples.BetterDesign.Repository.CarExample.Car</text><ellipse cx="3102.5" cy="583.2402" fill="#84BE84" rx="3" ry="3" style="stroke:#038048;stroke-width:1.0;"/><text fill="#000000" font-family="sans-serif" font-size="14" lengthAdjust="spacing" textLength="68" x="3111.5" y="587.0313">getDriver(</text><text fill="#6060BB" font-family="sans-serif" font-size="14" lengthAdjust="spacing" textLength="360" x="3179.5" y="587.0313">c:Examples.BetterDesign.Repository.CarExample.Car</text><text fill="#000000" font-family="sans-serif" font-size="14" lengthAdjust="spacing" textLength="9" x="3539.5" y="587.0313">):</text><text fill="#BB6060" font-family="sans-serif" font-size="14" lengthAdjust="spacing" textLength="428" x="3552.5" y="587.0313">Examples.BetterDesign.Repository.CarExample.CarParts.Driver</text><ellipse cx="3102.5" cy="599.7285" fill="#84BE84" rx="3" ry="3" style="stroke:#038048;stroke-width:1.0;"/><text fill="#000000" font-family="sans-serif" font-size="14" lengthAdjust="spacing" textLength="75" x="3111.5" y="603.5195">getWheels(</text><text fill="#6060BB" font-family="sans-serif" font-size="14" lengthAdjust="spacing" textLength="360" x="3186.5" y="603.5195">c:Examples.BetterDesign.Repository.CarExample.Car</text><text fill="#000000" font-family="sans-serif" font-size="14" lengthAdjust="spacing" textLength="9" x="3546.5" y="603.5195">):</text><text fill="#BB6060" font-family="sans-serif" font-size="14" lengthAdjust="spacing" textLength="435" x="3559.5" y="603.5195">Examples.BetterDesign.Repository.CarExample.CarParts.Wheels</text><ellipse cx="3102.5" cy="616.2168" fill="#84BE84" rx="3" ry="3" style="stroke:#038048;stroke-width:1.0;"/><text fill="#000000" font-family="sans-serif" font-size="14" lengthAdjust="spacing" textLength="68" x="3111.5" y="620.0078">getDoors(</text><text fill="#6060BB" font-family="sans-serif" font-size="14" lengthAdjust="spacing" textLength="360" x="3179.5" y="620.0078">c:Examples.BetterDesign.Repository.CarExample.Car</text><text fill="#000000" font-family="sans-serif" font-size="14" lengthAdjust="spacing" textLength="9" x="3539.5" y="620.0078">):</text><text fill="#BB6060" font-family="sans-serif" font-size="14" lengthAdjust="spacing" textLength="428" x="3552.5" y="620.0078">Examples.BetterDesign.Repository.CarExample.CarParts.Doors</text><ellipse cx="3102.5" cy="632.7051" fill="#84BE84" rx="3" ry="3" style="stroke:#038048;stroke-width:1.0;"/><text fill="#000000" font-family="sans-serif" font-size="14" lengthAdjust="spacing" textLength="63" x="3111.5" y="636.4961">getSeats(</text><text fill="#6060BB" font-family="sans-serif" font-size="14" lengthAdjust="spacing" textLength="360" x="3174.5" y="636.4961">c:Examples.BetterDesign.Repository.CarExample.Car</text><text fill="#000000" font-family="sans-serif" font-size="14" lengthAdjust="spacing" textLength="9" x="3534.5" y="636.4961">):</text><text fill="#BB6060" font-family="sans-serif" font-size="14" lengthAdjust="spacing" textLength="423" x="3547.5" y="636.4961">Examples.BetterDesign.Repository.CarExample.CarParts.Seats</text></g></a><!--class Vehicle--><a href="Examples.BetterDesign.Repository.CarExample.Vehicle-diagram-detailed.svg" target="_top" title="Examples.BetterDesign.Repository.CarExample.Vehicle-diagram-detailed.svg" xlink:actuate="onRequest" xlink:href="Examples.BetterDesign.Repository.CarExample.Vehicle-diagram-detailed.svg" xlink:show="new" xlink:title="Examples.BetterDesign.Repository.CarExample.Vehicle-diagram-detailed.svg" xlink:type="simple"><g id="elem_Vehicle"><rect codeLine="19" fill="#FFFF00" height="97.4648" id="Vehicle" rx="2.5" ry="2.5" style="stroke:#181818;stroke-width:0.5;" width="332" x="2439" y="214.5547"/><ellipse cx="2576.25" cy="230.5547" fill="#ADD1B2" rx="11" ry="11" style="stroke:#181818;stroke-width:1.0;"/><path d="M2578.7231,236.6978 Q2578.1421,236.9966 2577.5029,237.146 Q2576.8638,237.2954 2576.1582,237.2954 Q2573.6514,237.2954 2572.3315,235.6436 Q2571.0117,233.9917 2571.0117,230.8706 Q2571.0117,227.7412 2572.3315,226.0894 Q2573.6514,224.4375 2576.1582,224.4375 Q2576.8638,224.4375 2577.5112,224.5869 Q2578.1587,224.7363 2578.7231,225.0352 L2578.7231,227.7578 Q2578.0923,227.1768 2577.4988,226.907 Q2576.9053,226.6372 2576.2744,226.6372 Q2574.9297,226.6372 2574.2449,227.7039 Q2573.5601,228.7705 2573.5601,230.8706 Q2573.5601,232.9624 2574.2449,234.0291 Q2574.9297,235.0957 2576.2744,235.0957 Q2576.9053,235.0957 2577.4988,234.8259 Q2578.0923,234.5562 2578.7231,233.9751 Z " fill="#000000"/><text fill="#000000" font-family="sans-serif" font-size="14" lengthAdjust="spacing" textLength="49" x="2596.75" y="235.8457">Vehicle</text><line style="stroke:#181818;stroke-width:0.5;" x1="2440" x2="2770" y1="246.5547" y2="246.5547"/><ellipse cx="2450" cy="260.2988" fill="none" rx="3" ry="3" style="stroke:#038048;stroke-width:1.0;"/><text fill="#000000" font-family="sans-serif" font-size="14" lengthAdjust="spacing" textLength="306" x="2459" y="264.0898">db: Examples.BetterDesign.Repository.DBCar</text><line style="stroke:#181818;stroke-width:1.0;" x1="2440" x2="2770" y1="271.043" y2="271.043"/><line style="stroke:#181818;stroke-width:1.0;" x1="2440" x2="2770" y1="273.043" y2="273.043"/><ellipse cx="2450" cy="284.7871" fill="#84BE84" rx="3" ry="3" style="stroke:#038048;stroke-width:1.0;"/><text fill="#000000" font-family="sans-serif" font-size="14" lengthAdjust="spacing" textLength="67" x="2459" y="288.5781">setSpeed(</text><text fill="#6060BB" font-family="sans-serif" font-size="14" lengthAdjust="spacing" textLength="63" x="2526" y="288.5781">speed:int</text><text fill="#000000" font-family="sans-serif" font-size="14" lengthAdjust="spacing" textLength="9" x="2589" y="288.5781">):</text><text fill="#BB6060" font-family="sans-serif" font-size="14" lengthAdjust="spacing" textLength="29" x="2602" y="288.5781">void</text><ellipse cx="2450" cy="301.2754" fill="#84BE84" rx="3" ry="3" style="stroke:#038048;stroke-width:1.0;"/><text fill="#000000" font-family="sans-serif" font-size="14" lengthAdjust="spacing" textLength="69" x="2459" y="305.0664">getSpeed(</text><text fill="#000000" font-family="sans-serif" font-size="14" lengthAdjust="spacing" textLength="9" x="2528" y="305.0664">):</text><text fill="#BB6060" font-family="sans-serif" font-size="14" lengthAdjust="spacing" textLength="18" x="2541" y="305.0664">int</text></g></a><!--class Car--><a href="Examples.BetterDesign.Repository.CarExample.Car-diagram-detailed.svg" target="_top" title="Examples.BetterDesign.Repository.CarExample.Car-diagram-detailed.svg" xlink:actuate="onRequest" xlink:href="Examples.BetterDesign.Repository.CarExample.Car-diagram-detailed.svg" xlink:show="new" xlink:title="Examples.BetterDesign.Repository.CarExample.Car-diagram-detailed.svg" xlink:type="simple"><g id="elem_Car"><rect codeLine="25" fill="#FFFF00" height="130.4414" id="Car" rx="2.5" ry="2.5" style="stroke:#181818;stroke-width:0.5;" width="611" x="2012.5" y="480.0547"/><ellipse cx="2301.75" cy="496.0547" fill="#ADD1B2" rx="11" ry="11" style="stroke:#181818;stroke-width:1.0;"/><path d="M2304.2231,502.1978 Q2303.6421,502.4966 2303.0029,502.646 Q2302.3638,502.7954 2301.6582,502.7954 Q2299.1514,502.7954 2297.8315,501.1436 Q2296.5117,499.4917 2296.5117,496.3706 Q2296.5117,493.2412 2297.8315,491.5894 Q2299.1514,489.9375 2301.6582,489.9375 Q2302.3638,489.9375 2303.0112,490.0869 Q2303.6587,490.2363 2304.2231,490.5352 L2304.2231,493.2578 Q2303.5923,492.6768 2302.9988,492.407 Q2302.4053,492.1372 2301.7744,492.1372 Q2300.4297,492.1372 2299.7449,493.2039 Q2299.0601,494.2705 2299.0601,496.3706 Q2299.0601,498.4624 2299.7449,499.5291 Q2300.4297,500.5957 2301.7744,500.5957 Q2302.4053,500.5957 2302.9988,500.3259 Q2303.5923,500.0562 2304.2231,499.4751 Z " fill="#000000"/><text fill="#000000" font-family="sans-serif" font-size="14" lengthAdjust="spacing" textLength="24" x="2322.25" y="501.3457">Car</text><line style="stroke:#181818;stroke-width:0.5;" x1="2013.5" x2="2622.5" y1="512.0547" y2="512.0547"/><ellipse cx="2023.5" cy="525.7988" fill="none" rx="3" ry="3" style="stroke:#038048;stroke-width:1.0;"/><text fill="#000000" font-family="sans-serif" font-size="14" lengthAdjust="spacing" textLength="490" x="2032.5" y="529.5898">wheels: Examples.BetterDesign.Repository.CarExample.CarParts.Wheels</text><ellipse cx="2023.5" cy="542.2871" fill="none" rx="3" ry="3" style="stroke:#038048;stroke-width:1.0;"/><text fill="#000000" font-family="sans-serif" font-size="14" lengthAdjust="spacing" textLength="466" x="2032.5" y="546.0781">seats: Examples.BetterDesign.Repository.CarExample.CarParts.Seats</text><ellipse cx="2023.5" cy="558.7754" fill="none" rx="3" ry="3" style="stroke:#038048;stroke-width:1.0;"/><text fill="#000000" font-family="sans-serif" font-size="14" lengthAdjust="spacing" textLength="476" x="2032.5" y="562.5664">driver: Examples.BetterDesign.Repository.CarExample.CarParts.Driver</text><ellipse cx="2023.5" cy="575.2637" fill="none" rx="3" ry="3" style="stroke:#038048;stroke-width:1.0;"/><text fill="#000000" font-family="sans-serif" font-size="14" lengthAdjust="spacing" textLength="476" x="2032.5" y="579.0547">doors: Examples.BetterDesign.Repository.CarExample.CarParts.Doors</text><line style="stroke:#181818;stroke-width:1.0;" x1="2013.5" x2="2622.5" y1="586.0078" y2="586.0078"/><line style="stroke:#181818;stroke-width:1.0;" x1="2013.5" x2="2622.5" y1="588.0078" y2="588.0078"/><ellipse cx="2023.5" cy="599.752" fill="#84BE84" rx="3" ry="3" style="stroke:#038048;stroke-width:1.0;"/><text fill="#000000" font-family="sans-serif" font-size="14" lengthAdjust="spacing" textLength="71" x="2032.5" y="603.543">createCar(</text><text fill="#6060BB" font-family="sans-serif" font-size="14" lengthAdjust="spacing" textLength="472" x="2103.5" y="603.543">doors:Examples.BetterDesign.Repository.CarExample.CarParts.Doors</text><text fill="#000000" font-family="sans-serif" font-size="14" lengthAdjust="spacing" textLength="9" x="2575.5" y="603.543">):</text><text fill="#BB6060" font-family="sans-serif" font-size="14" lengthAdjust="spacing" textLength="29" x="2588.5" y="603.543">void</text></g></a><!--class Seats--><a href="Examples.BetterDesign.Repository.CarExample.CarParts.Seats-diagram-detailed.svg" target="_top" title="Examples.BetterDesign.Repository.CarExample.CarParts.Seats-diagram-detailed.svg" xlink:actuate="onRequest" xlink:href="Examples.BetterDesign.Repository.CarExample.CarParts.Seats-diagram-detailed.svg" xlink:show="new" xlink:title="Examples.BetterDesign.Repository.CarExample.CarParts.Seats-diagram-detailed.svg" xlink:type="simple"><g id="elem_Seats"><rect codeLine="33" fill="#FFFF00" height="80.9766" id="Seats" rx="2.5" ry="2.5" style="stroke:#181818;stroke-width:0.5;" width="332" x="1969" y="703.0547"/><ellipse cx="2112.75" cy="719.0547" fill="#ADD1B2" rx="11" ry="11" style="stroke:#181818;stroke-width:1.0;"/><path d="M2115.2231,725.1978 Q2114.6421,725.4966 2114.0029,725.646 Q2113.3638,725.7954 2112.6582,725.7954 Q2110.1514,725.7954 2108.8315,724.1436 Q2107.5117,722.4917 2107.5117,719.3706 Q2107.5117,716.2412 2108.8315,714.5894 Q2110.1514,712.9375 2112.6582,712.9375 Q2113.3638,712.9375 2114.0112,713.0869 Q2114.6587,713.2363 2115.2231,713.5352 L2115.2231,716.2578 Q2114.5923,715.6768 2113.9988,715.407 Q2113.4053,715.1372 2112.7744,715.1372 Q2111.4297,715.1372 2110.7449,716.2039 Q2110.0601,717.2705 2110.0601,719.3706 Q2110.0601,721.4624 2110.7449,722.5291 Q2111.4297,723.5957 2112.7744,723.5957 Q2113.4053,723.5957 2113.9988,723.3259 Q2114.5923,723.0562 2115.2231,722.4751 Z " fill="#000000"/><text fill="#000000" font-family="sans-serif" font-size="14" lengthAdjust="spacing" textLength="36" x="2133.25" y="724.3457">Seats</text><line style="stroke:#181818;stroke-width:0.5;" x1="1970" x2="2300" y1="735.0547" y2="735.0547"/><ellipse cx="1980" cy="748.7988" fill="none" rx="3" ry="3" style="stroke:#038048;stroke-width:1.0;"/><text fill="#000000" font-family="sans-serif" font-size="14" lengthAdjust="spacing" textLength="306" x="1989" y="752.5898">db: Examples.BetterDesign.Repository.DBCar</text><line style="stroke:#181818;stroke-width:1.0;" x1="1970" x2="2300" y1="759.543" y2="759.543"/><line style="stroke:#181818;stroke-width:1.0;" x1="1970" x2="2300" y1="761.543" y2="761.543"/><ellipse cx="1980" cy="773.2871" fill="#84BE84" rx="3" ry="3" style="stroke:#038048;stroke-width:1.0;"/><text fill="#000000" font-family="sans-serif" font-size="14" lengthAdjust="spacing" textLength="74" x="1989" y="777.0781">getWeight(</text><text fill="#000000" font-family="sans-serif" font-size="14" lengthAdjust="spacing" textLength="9" x="2063" y="777.0781">):</text><text fill="#BB6060" font-family="sans-serif" font-size="14" lengthAdjust="spacing" textLength="18" x="2076" y="777.0781">int</text></g></a><!--class Wheels--><a href="Examples.BetterDesign.Repository.CarExample.CarParts.Wheels-diagram-detailed.svg" target="_top" title="Examples.BetterDesign.Repository.CarExample.CarParts.Wheels-diagram-detailed.svg" xlink:actuate="onRequest" xlink:href="Examples.BetterDesign.Repository.CarExample.CarParts.Wheels-diagram-detailed.svg" xlink:show="new" xlink:title="Examples.BetterDesign.Repository.CarExample.CarParts.Wheels-diagram-detailed.svg" xlink:type="simple"><g id="elem_Wheels"><rect codeLine="38" fill="#FFFF00" height="80.9766" id="Wheels" rx="2.5" ry="2.5" style="stroke:#181818;stroke-width:0.5;" width="332" x="2703" y="703.0547"/><ellipse cx="2840.75" cy="719.0547" fill="#ADD1B2" rx="11" ry="11" style="stroke:#181818;stroke-width:1.0;"/><path d="M2843.2231,725.1978 Q2842.6421,725.4966 2842.0029,725.646 Q2841.3638,725.7954 2840.6582,725.7954 Q2838.1514,725.7954 2836.8315,724.1436 Q2835.5117,722.4917 2835.5117,719.3706 Q2835.5117,716.2412 2836.8315,714.5894 Q2838.1514,712.9375 2840.6582,712.9375 Q2841.3638,712.9375 2842.0112,713.0869 Q2842.6587,713.2363 2843.2231,713.5352 L2843.2231,716.2578 Q2842.5923,715.6768 2841.9988,715.407 Q2841.4053,715.1372 2840.7744,715.1372 Q2839.4297,715.1372 2838.7449,716.2039 Q2838.0601,717.2705 2838.0601,719.3706 Q2838.0601,721.4624 2838.7449,722.5291 Q2839.4297,723.5957 2840.7744,723.5957 Q2841.4053,723.5957 2841.9988,723.3259 Q2842.5923,723.0562 2843.2231,722.4751 Z " fill="#000000"/><text fill="#000000" font-family="sans-serif" font-size="14" lengthAdjust="spacing" textLength="48" x="2861.25" y="724.3457">Wheels</text><line style="stroke:#181818;stroke-width:0.5;" x1="2704" x2="3034" y1="735.0547" y2="735.0547"/><ellipse cx="2714" cy="748.7988" fill="none" rx="3" ry="3" style="stroke:#038048;stroke-width:1.0;"/><text fill="#000000" font-family="sans-serif" font-size="14" lengthAdjust="spacing" textLength="306" x="2723" y="752.5898">db: Examples.BetterDesign.Repository.DBCar</text><line style="stroke:#181818;stroke-width:1.0;" x1="2704" x2="3034" y1="759.543" y2="759.543"/><line style="stroke:#181818;stroke-width:1.0;" x1="2704" x2="3034" y1="761.543" y2="761.543"/><ellipse cx="2714" cy="773.2871" fill="#84BE84" rx="3" ry="3" style="stroke:#038048;stroke-width:1.0;"/><text fill="#000000" font-family="sans-serif" font-size="14" lengthAdjust="spacing" textLength="74" x="2723" y="777.0781">getWeight(</text><text fill="#000000" font-family="sans-serif" font-size="14" lengthAdjust="spacing" textLength="9" x="2797" y="777.0781">):</text><text fill="#BB6060" font-family="sans-serif" font-size="14" lengthAdjust="spacing" textLength="18" x="2810" y="777.0781">int</text></g></a><!--class Driver--><a href="Examples.BetterDesign.Repository.CarExample.CarParts.Driver-diagram-detailed.svg" target="_top" title="Examples.BetterDesign.Repository.CarExample.CarParts.Driver-diagram-detailed.svg" xlink:actuate="onRequest" xlink:href="Examples.BetterDesign.Repository.CarExample.CarParts.Driver-diagram-detailed.svg" xlink:show="new" xlink:title="Examples.BetterDesign.Repository.CarExample.CarParts.Driver-diagram-detailed.svg" xlink:type="simple"><g id="elem_Driver"><rect codeLine="43" fill="#FFFF00" height="80.9766" id="Driver" rx="2.5" ry="2.5" style="stroke:#181818;stroke-width:0.5;" width="332" x="2336" y="703.0547"/><ellipse cx="2477.25" cy="719.0547" fill="#ADD1B2" rx="11" ry="11" style="stroke:#181818;stroke-width:1.0;"/><path d="M2479.7231,725.1978 Q2479.1421,725.4966 2478.5029,725.646 Q2477.8638,725.7954 2477.1582,725.7954 Q2474.6514,725.7954 2473.3315,724.1436 Q2472.0117,722.4917 2472.0117,719.3706 Q2472.0117,716.2412 2473.3315,714.5894 Q2474.6514,712.9375 2477.1582,712.9375 Q2477.8638,712.9375 2478.5112,713.0869 Q2479.1587,713.2363 2479.7231,713.5352 L2479.7231,716.2578 Q2479.0923,715.6768 2478.4988,715.407 Q2477.9053,715.1372 2477.2744,715.1372 Q2475.9297,715.1372 2475.2449,716.2039 Q2474.5601,717.2705 2474.5601,719.3706 Q2474.5601,721.4624 2475.2449,722.5291 Q2475.9297,723.5957 2477.2744,723.5957 Q2477.9053,723.5957 2478.4988,723.3259 Q2479.0923,723.0562 2479.7231,722.4751 Z " fill="#000000"/><text fill="#000000" font-family="sans-serif" font-size="14" lengthAdjust="spacing" textLength="41" x="2497.75" y="724.3457">Driver</text><line style="stroke:#181818;stroke-width:0.5;" x1="2337" x2="2667" y1="735.0547" y2="735.0547"/><ellipse cx="2347" cy="748.7988" fill="none" rx="3" ry="3" style="stroke:#038048;stroke-width:1.0;"/><text fill="#000000" font-family="sans-serif" font-size="14" lengthAdjust="spacing" textLength="306" x="2356" y="752.5898">db: Examples.BetterDesign.Repository.DBCar</text><line style="stroke:#181818;stroke-width:1.0;" x1="2337" x2="2667" y1="759.543" y2="759.543"/><line style="stroke:#181818;stroke-width:1.0;" x1="2337" x2="2667" y1="761.543" y2="761.543"/><ellipse cx="2347" cy="773.2871" fill="#84BE84" rx="3" ry="3" style="stroke:#038048;stroke-width:1.0;"/><text fill="#000000" font-family="sans-serif" font-size="14" lengthAdjust="spacing" textLength="74" x="2356" y="777.0781">getWeight(</text><text fill="#000000" font-family="sans-serif" font-size="14" lengthAdjust="spacing" textLength="9" x="2430" y="777.0781">):</text><text fill="#BB6060" font-family="sans-serif" font-size="14" lengthAdjust="spacing" textLength="18" x="2443" y="777.0781">int</text></g></a><!--class Doors--><a href="Examples.BetterDesign.Repository.CarExample.CarParts.Doors-diagram-detailed.svg" target="_top" title="Examples.BetterDesign.Repository.CarExample.CarParts.Doors-diagram-detailed.svg" xlink:actuate="onRequest" xlink:href="Examples.BetterDesign.Repository.CarExample.CarParts.Doors-diagram-detailed.svg" xlink:show="new" xlink:title="Examples.BetterDesign.Repository.CarExample.CarParts.Doors-diagram-detailed.svg" xlink:type="simple"><g id="elem_Doors"><rect codeLine="48" fill="#FFFF00" height="80.9766" id="Doors" rx="2.5" ry="2.5" style="stroke:#181818;stroke-width:0.5;" width="332" x="1602" y="703.0547"/><ellipse cx="1743.25" cy="719.0547" fill="#ADD1B2" rx="11" ry="11" style="stroke:#181818;stroke-width:1.0;"/><path d="M1745.7231,725.1978 Q1745.1421,725.4966 1744.5029,725.646 Q1743.8638,725.7954 1743.1582,725.7954 Q1740.6514,725.7954 1739.3315,724.1436 Q1738.0117,722.4917 1738.0117,719.3706 Q1738.0117,716.2412 1739.3315,714.5894 Q1740.6514,712.9375 1743.1582,712.9375 Q1743.8638,712.9375 1744.5112,713.0869 Q1745.1587,713.2363 1745.7231,713.5352 L1745.7231,716.2578 Q1745.0923,715.6768 1744.4988,715.407 Q1743.9053,715.1372 1743.2744,715.1372 Q1741.9297,715.1372 1741.2449,716.2039 Q1740.5601,717.2705 1740.5601,719.3706 Q1740.5601,721.4624 1741.2449,722.5291 Q1741.9297,723.5957 1743.2744,723.5957 Q1743.9053,723.5957 1744.4988,723.3259 Q1745.0923,723.0562 1745.7231,722.4751 Z " fill="#000000"/><text fill="#000000" font-family="sans-serif" font-size="14" lengthAdjust="spacing" textLength="41" x="1763.75" y="724.3457">Doors</text><line style="stroke:#181818;stroke-width:0.5;" x1="1603" x2="1933" y1="735.0547" y2="735.0547"/><ellipse cx="1613" cy="748.7988" fill="none" rx="3" ry="3" style="stroke:#038048;stroke-width:1.0;"/><text fill="#000000" font-family="sans-serif" font-size="14" lengthAdjust="spacing" textLength="306" x="1622" y="752.5898">db: Examples.BetterDesign.Repository.DBCar</text><line style="stroke:#181818;stroke-width:1.0;" x1="1603" x2="1933" y1="759.543" y2="759.543"/><line style="stroke:#181818;stroke-width:1.0;" x1="1603" x2="1933" y1="761.543" y2="761.543"/><ellipse cx="1613" cy="773.2871" fill="#84BE84" rx="3" ry="3" style="stroke:#038048;stroke-width:1.0;"/><text fill="#000000" font-family="sans-serif" font-size="14" lengthAdjust="spacing" textLength="74" x="1622" y="777.0781">getWeight(</text><text fill="#000000" font-family="sans-serif" font-size="14" lengthAdjust="spacing" textLength="9" x="1696" y="777.0781">):</text><text fill="#BB6060" font-family="sans-serif" font-size="14" lengthAdjust="spacing" textLength="18" x="1709" y="777.0781">int</text></g></a><g id="elem_FloatingNote"><path d="M6,139.0547 L6,386.7129 L494,386.7129 L494,149.0547 L484,139.0547 L6,139.0547 " fill="#FEFFDD" style="stroke:#181818;stroke-width:0.5;"/><path d="M484,139.0547 L484,149.0547 L494,149.0547 L484,139.0547 " fill="#FEFFDD" style="stroke:#181818;stroke-width:1.0;"/><text fill="#000000" font-family="sans-serif" font-size="13" lengthAdjust="spacing" textLength="120" x="12" y="156.623">Your are analyzing:</text><text fill="#000000" font-family="sans-serif" font-size="13" lengthAdjust="spacing" textLength="293" x="12" y="171.9336">Examples.BetterDesign.Repository.CarExample</text><text fill="#000000" font-family="sans-serif" font-size="13" font-weight="bold" lengthAdjust="spacing" textLength="55" x="309" y="171.9336">detailed</text><text fill="#000000" font-family="sans-serif" font-size="13" lengthAdjust="spacing" textLength="4" x="364" y="171.9336">&#160;</text><text fill="#000000" font-family="sans-serif" font-size="13" lengthAdjust="spacing" textLength="4" x="12" y="187.2441">&#160;</text><text fill="#000000" font-family="sans-serif" font-size="13" lengthAdjust="spacing" textLength="229" x="12" y="217.8652">You can click either the namespaces</text><text fill="#000000" font-family="sans-serif" font-size="13" lengthAdjust="spacing" textLength="266" x="12" y="233.1758">or class names for filtering them and their</text><text fill="#000000" font-family="sans-serif" font-size="13" lengthAdjust="spacing" textLength="130" x="12" y="248.4863">direct dependencies.</text><text fill="#000000" font-family="sans-serif" font-size="13" lengthAdjust="spacing" textLength="4" x="12" y="263.7969">&#160;</text><line style="stroke:#181818;stroke-width:1.0;" x1="7" x2="234" y1="197.6416" y2="197.6416"/><line style="stroke:#181818;stroke-width:1.0;" x1="7" x2="234" y1="199.6416" y2="199.6416"/><text fill="#000000" font-family="sans-serif" font-size="13" lengthAdjust="spacing" textLength="32" x="234" y="202.0547">Filter</text><line style="stroke:#181818;stroke-width:1.0;" x1="266" x2="493" y1="197.6416" y2="197.6416"/><line style="stroke:#181818;stroke-width:1.0;" x1="266" x2="493" y1="199.6416" y2="199.6416"/><ellipse cx="17.5" cy="293.6602" fill="#000000" rx="2.5" ry="2.5" style="stroke:#000000;stroke-width:0.0;"/><text fill="#000000" font-family="sans-serif" font-size="13" lengthAdjust="spacing" textLength="293" x="24" y="298.418">Examples.BetterDesign.Repository.CarExample</text><text fill="#000000" font-family="sans-serif" font-size="13" font-weight="bold" lengthAdjust="spacing" textLength="67" x="321" y="298.418">simplified</text><text fill="#000000" font-family="sans-serif" font-size="13" lengthAdjust="spacing" textLength="4" x="392" y="298.418">:</text><text fill="#000000" font-family="sans-serif" font-size="13" lengthAdjust="spacing" textLength="12" x="12" y="313.7285">&#160;&#160;&#160;</text><a href="Examples.BetterDesign.Repository.CarExample-diagram-simplified.svg" target="_top" title="Examples.BetterDesign.Repository.CarExample-diagram-simplified.svg" xlink:actuate="onRequest" xlink:href="Examples.BetterDesign.Repository.CarExample-diagram-simplified.svg" xlink:show="new" xlink:title="Examples.BetterDesign.Repository.CarExample-diagram-simplified.svg" xlink:type="simple"><text fill="#0000FF" font-family="sans-serif" font-size="13" lengthAdjust="spacing" text-decoration="underline" textLength="449" x="24" y="313.7285">Examples.BetterDesign.Repository.CarExample-diagram-simplified.svg</text></a><ellipse cx="17.5" cy="324.2813" fill="#000000" rx="2.5" ry="2.5" style="stroke:#000000;stroke-width:0.0;"/><text fill="#000000" font-family="sans-serif" font-size="13" lengthAdjust="spacing" textLength="78" x="24" y="329.0391">Full diagram</text><text fill="#000000" font-family="sans-serif" font-size="13" font-weight="bold" lengthAdjust="spacing" textLength="55" x="106" y="329.0391">detailed</text><text fill="#000000" font-family="sans-serif" font-size="13" lengthAdjust="spacing" textLength="23" x="165" y="329.0391">and</text><text fill="#000000" font-family="sans-serif" font-size="13" font-weight="bold" lengthAdjust="spacing" textLength="166" x="192" y="329.0391">grouped per namespace</text><text fill="#000000" font-family="sans-serif" font-size="13" lengthAdjust="spacing" textLength="4" x="358" y="329.0391">:</text><text fill="#000000" font-family="sans-serif" font-size="13" lengthAdjust="spacing" textLength="12" x="12" y="344.3496">&#160;&#160;&#160;</text><a href="full-diagram-detailed-grouped-per-namespace.svg" target="_top" title="full-diagram-detailed-grouped-per-namespace.svg" xlink:actuate="onRequest" xlink:href="full-diagram-detailed-grouped-per-namespace.svg" xlink:show="new" xlink:title="full-diagram-detailed-grouped-per-namespace.svg" xlink:type="simple"><text fill="#0000FF" font-family="sans-serif" font-size="13" lengthAdjust="spacing" text-decoration="underline" textLength="330" x="24" y="344.3496">full-diagram-detailed-grouped-per-namespace.svg</text></a><ellipse cx="17.5" cy="354.9023" fill="#000000" rx="2.5" ry="2.5" style="stroke:#000000;stroke-width:0.0;"/><text fill="#000000" font-family="sans-serif" font-size="13" lengthAdjust="spacing" textLength="41" x="24" y="359.6602">Home:</text><text fill="#000000" font-family="sans-serif" font-size="13" lengthAdjust="spacing" textLength="12" x="12" y="374.9707">&#160;&#160;&#160;</text><a href="index.html" target="_top" title="index.html" xlink:actuate="onRequest" xlink:href="index.html" xlink:show="new" xlink:title="index.html" xlink:type="simple"><text fill="#0000FF" font-family="sans-serif" font-size="13" lengthAdjust="spacing" text-decoration="underline" textLength="68" x="24" y="374.9707">index.html</text></a><line style="stroke:#181818;stroke-width:1.0;" x1="7" x2="213" y1="278.1943" y2="278.1943"/><line style="stroke:#181818;stroke-width:1.0;" x1="7" x2="213" y1="280.1943" y2="280.1943"/><text fill="#000000" font-family="sans-serif" font-size="13" lengthAdjust="spacing" textLength="74" x="213" y="282.6074">Select other</text><line style="stroke:#181818;stroke-width:1.0;" x1="287" x2="493" y1="278.1943" y2="278.1943"/><line style="stroke:#181818;stroke-width:1.0;" x1="287" x2="493" y1="280.1943" y2="280.1943"/></g><!--link Service to Car--><g id="link_Service_Car"><path codeLine="58" d="M1521.63,263.0547 C1850.61,263.0547 2225.75,263.0547 2225.75,263.0547 C2225.75,263.0547 2225.75,473.6447 2225.75,473.6447 " fill="none" id="Service-to-Car" style="stroke:#6060BB;stroke-width:1.0;stroke-dasharray:7.0,7.0;"/><polygon fill="#6060BB" points="2225.75,478.6447,2229.75,469.6447,2225.75,473.6447,2221.75,469.6447,2225.75,478.6447" style="stroke:#6060BB;stroke-width:1.0;"/><text fill="#000000" font-family="sans-serif" font-size="13" lengthAdjust="spacing" textLength="29" x="1948.99" y="259.623">uses</text></g><!--link DBCar to Driver--><g id="link_DBCar_Driver"><path codeLine="61" d="M3091.19,632.0547 C2867.47,632.0547 2653.17,632.0547 2653.17,632.0547 C2653.17,632.0547 2653.17,696.6647 2653.17,696.6647 " fill="none" id="DBCar-to-Driver" style="stroke:#6060BB;stroke-width:1.0;stroke-dasharray:7.0,7.0;"/><polygon fill="#6060BB" points="2653.17,701.6647,2657.17,692.6647,2653.17,696.6647,2649.17,692.6647,2653.17,701.6647" style="stroke:#6060BB;stroke-width:1.0;"/><text fill="#000000" font-family="sans-serif" font-size="13" lengthAdjust="spacing" textLength="29" x="2809.87" y="628.623">uses</text></g><!--reverse link Driver to DBCar--><g id="link_Driver_DBCar"><path codeLine="79" d="M2638.33,688.8647 C2638.33,688.8647 2638.33,629.0547 2638.33,629.0547 C2638.33,629.0547 2861.17,629.0547 3091.3,629.0547 " fill="none" id="Driver-backto-DBCar" style="stroke:#10BB10;stroke-width:1.0;"/><polygon fill="#10BB10" points="2638.33,701.8647,2642.33,695.8647,2638.33,689.8647,2634.33,695.8647,2638.33,701.8647" style="stroke:#10BB10;stroke-width:1.0;"/></g><!--link DBCar to Car--><g id="link_DBCar_Car"><path codeLine="62" d="M3091.07,524.0547 C3091.07,524.0547 2629.93,524.0547 2629.93,524.0547 " fill="none" id="DBCar-to-Car" style="stroke:#6060BB;stroke-width:1.0;stroke-dasharray:7.0,7.0;"/><polygon fill="#6060BB" points="2624.93,524.0547,2633.93,528.0547,2629.93,524.0547,2633.93,520.0547,2624.93,524.0547" style="stroke:#6060BB;stroke-width:1.0;"/><text fill="#000000" font-family="sans-serif" font-size="13" lengthAdjust="spacing" textLength="29" x="2830.5" y="520.623">uses</text></g><!--link DBCar to Seats--><g id="link_DBCar_Seats"><path codeLine="63" d="M3091.05,625.0547 C2702.39,625.0547 2228.88,625.0547 2228.88,625.0547 C2228.88,625.0547 2228.88,696.7747 2228.88,696.7747 " fill="none" id="DBCar-to-Seats" style="stroke:#6060BB;stroke-width:1.0;stroke-dasharray:7.0,7.0;"/><polygon fill="#6060BB" points="2228.88,701.7747,2232.88,692.7747,2228.88,696.7747,2224.88,692.7747,2228.88,701.7747" style="stroke:#6060BB;stroke-width:1.0;"/><text fill="#000000" font-family="sans-serif" font-size="13" lengthAdjust="spacing" textLength="29" x="2594.1" y="638.623">uses</text></g><!--reverse link Seats to DBCar--><g id="link_Seats_DBCar"><path codeLine="77" d="M2156.75,688.7647 C2156.75,688.7647 2156.75,621.0547 2156.75,621.0547 C2156.75,621.0547 2677.25,621.0547 3091.13,621.0547 " fill="none" id="Seats-backto-DBCar" style="stroke:#10BB10;stroke-width:1.0;"/><polygon fill="#10BB10" points="2156.75,701.7647,2160.75,695.7647,2156.75,689.7647,2152.75,695.7647,2156.75,701.7647" style="stroke:#10BB10;stroke-width:1.0;"/></g><!--link DBCar to Doors--><g id="link_DBCar_Doors"><path codeLine="64" d="M3091.25,614.0547 C2561.71,614.0547 1801.2,614.0547 1801.2,614.0547 C1801.2,614.0547 1801.2,696.5847 1801.2,696.5847 " fill="none" id="DBCar-to-Doors" style="stroke:#6060BB;stroke-width:1.0;stroke-dasharray:7.0,7.0;"/><polygon fill="#6060BB" points="1801.2,701.5847,1805.2,692.5847,1801.2,696.5847,1797.2,692.5847,1801.2,701.5847" style="stroke:#6060BB;stroke-width:1.0;"/><text fill="#000000" font-family="sans-serif" font-size="13" lengthAdjust="spacing" textLength="29" x="2374.96" y="627.623">uses</text></g><!--reverse link Doors to DBCar--><g id="link_Doors_DBCar"><path codeLine="80" d="M1867.6,688.8047 C1867.6,688.8047 1867.6,618.0547 1867.6,618.0547 C1867.6,618.0547 2582.18,618.0547 3091.07,618.0547 " fill="none" id="Doors-backto-DBCar" style="stroke:#10BB10;stroke-width:1.0;"/><polygon fill="#10BB10" points="1867.6,701.8047,1871.6,695.8047,1867.6,689.8047,1863.6,695.8047,1867.6,701.8047" style="stroke:#10BB10;stroke-width:1.0;"/></g><!--link DBCar to Wheels--><g id="link_DBCar_Wheels"><path codeLine="65" d="M3091.13,640.0547 C3007.36,640.0547 2947,640.0547 2947,640.0547 C2947,640.0547 2947,696.6447 2947,696.6447 " fill="none" id="DBCar-to-Wheels" style="stroke:#6060BB;stroke-width:1.0;stroke-dasharray:7.0,7.0;"/><polygon fill="#6060BB" points="2947,701.6447,2951,692.6447,2947,696.6447,2943,692.6447,2947,701.6447" style="stroke:#6060BB;stroke-width:1.0;"/><text fill="#000000" font-family="sans-serif" font-size="13" lengthAdjust="spacing" textLength="29" x="2960.77" y="636.623">uses</text></g><!--reverse link Wheels to DBCar--><g id="link_Wheels_DBCar"><path codeLine="78" d="M2859,688.6047 C2859,688.6047 2859,636.0547 2859,636.0547 C2859,636.0547 2962.21,636.0547 3091.11,636.0547 " fill="none" id="Wheels-backto-DBCar" style="stroke:#10BB10;stroke-width:1.0;"/><polygon fill="#10BB10" points="2859,701.6047,2863,695.6047,2859,689.6047,2855,695.6047,2859,701.6047" style="stroke:#10BB10;stroke-width:1.0;"/></g><!--reverse link Vehicle to DBCar--><g id="link_Vehicle_DBCar"><path codeLine="68" d="M2725.67,325.9647 C2725.67,325.9647 2725.67,464.0547 2725.67,464.0547 C2725.67,464.0547 2899.34,464.0547 3091.08,464.0547 " fill="none" id="Vehicle-backto-DBCar" style="stroke:#10BB10;stroke-width:1.0;"/><polygon fill="#10BB10" points="2725.67,312.9647,2721.67,318.9647,2725.67,324.9647,2729.67,318.9647,2725.67,312.9647" style="stroke:#10BB10;stroke-width:1.0;"/></g><!--reverse link Vehicle to Car--><g id="link_Vehicle_Car"><path codeLine="69" d="M2531.25,332.8547 C2531.25,332.8547 2531.25,479.6947 2531.25,479.6947 " fill="none" id="Vehicle-backto-Car" style="stroke:#FF0000;stroke-width:1.0;"/><polygon fill="none" points="2524.25,332.8547,2531.25,312.8547,2538.25,332.8547,2524.25,332.8547" style="stroke:#FF0000;stroke-width:1.0;"/></g><!--reverse link Car to Wheels--><g id="link_Car_Wheels"><path codeLine="70" d="M2637.86,567.0547 C2637.86,567.0547 2748.33,567.0547 2748.33,567.0547 C2748.33,567.0547 2748.33,650.4747 2748.33,702.6147 " fill="none" id="Car-backto-Wheels" style="stroke:#10BB10;stroke-width:1.0;"/><polygon fill="#10BB10" points="2624.86,567.0547,2630.86,571.0547,2636.86,567.0547,2630.86,563.0547,2624.86,567.0547" style="stroke:#10BB10;stroke-width:1.0;"/></g><!--reverse link Car to Seats--><g id="link_Car_Seats"><path codeLine="71" d="M2084.62,624.3247 C2084.62,624.3247 2084.62,702.8447 2084.62,702.8447 " fill="none" id="Car-backto-Seats" style="stroke:#10BB10;stroke-width:1.0;"/><polygon fill="#10BB10" points="2084.62,611.3247,2080.62,617.3247,2084.62,623.3247,2088.62,617.3247,2084.62,611.3247" style="stroke:#10BB10;stroke-width:1.0;"/></g><!--reverse link Car to Driver--><g id="link_Car_Driver"><path codeLine="72" d="M2479.75,624.3247 C2479.75,624.3247 2479.75,702.8447 2479.75,702.8447 " fill="none" id="Car-backto-Driver" style="stroke:#10BB10;stroke-width:1.0;"/><polygon fill="#10BB10" points="2479.75,611.3247,2475.75,617.3247,2479.75,623.3247,2483.75,617.3247,2479.75,611.3247" style="stroke:#10BB10;stroke-width:1.0;"/></g><!--reverse link Car to Doors--><g id="link_Car_Doors"><path codeLine="73" d="M1998.31,567.0547 C1998.31,567.0547 1734.8,567.0547 1734.8,567.0547 C1734.8,567.0547 1734.8,650.4747 1734.8,702.6147 " fill="none" id="Car-backto-Doors" style="stroke:#10BB10;stroke-width:1.0;"/><polygon fill="#10BB10" points="2011.31,567.0547,2005.31,563.0547,1999.31,567.0547,2005.31,571.0547,2011.31,567.0547" style="stroke:#10BB10;stroke-width:1.0;"/></g><!--link Car to Doors--><g id="link_Car_Doors"><path codeLine="74" d="M2012.22,524.0547 C1843.74,524.0547 1668.4,524.0547 1668.4,524.0547 C1668.4,524.0547 1668.4,696.7847 1668.4,696.7847 " fill="none" id="Car-to-Doors" style="stroke:#6060BB;stroke-width:1.0;stroke-dasharray:7.0,7.0;"/><polygon fill="#6060BB" points="1668.4,701.7847,1672.4,692.7847,1668.4,696.7847,1664.4,692.7847,1668.4,701.7847" style="stroke:#6060BB;stroke-width:1.0;"/><text fill="#000000" font-family="sans-serif" font-size="13" lengthAdjust="spacing" textLength="29" x="1723.95" y="520.623">uses</text></g><!--SRC=[vLXDSzCm4BtxL-oaXu8XeN3emPFa44g74p2KWM6Q78IrIJGeaaTIIWFqloFPJk90FcmbSSiqXunJQ_UzVViXLVex4mbHP0AS2JIp144gCvQ1OOOZj3NxYT6hi-wRMp99EEfM3ur1TO6QZKJh8oPICoFLhFMQg7mDX255GnX76eRGVk5ST0CX3KBZgvmg80g12C9dFvaOHNtXxRil-gBJkMJSMdKwVM6zGqm4n9p5tm6P6QC2-mM2J50d94PjRQIo2uZMsLzXQ7yFKnUMZLiziUIeUs2gBoXJ61kWcA2WA69cQMQmLyZT6-b077W8rUBGp3wm8KiZiIe0mFLr1HTDoiZ89gwvTDJIDwF1m56vd78E-O9LpLniOJXISfeWXSGAj10d3ESqXjPyuNzktCoDcjQekJ1QOhwL4vmxO5QiszROJFXWq02YuP9BOgp0xsmP190dO7sqLwXkM8mRrSZV_yClOmBmo_e7U0OZDEyLHONKYlQaFPJ2G2ovL9t6-TdvMQ_Nw2RZcMOnuNP1L45wzzX-uHnsdqQmuhdNSxuRk_lbY-s2iPngV2DigxcoMZfT1l1XIN1z174Pvjkml0DOAuTbVfUotvRWWfEBdhKjK_VfmXqfppMp2_MbL1UAtU06rMZwhchAFn1bT2lpkqEzA-EcIJ6TZjmqeSJWVhbSfVGSD1AZ_IAvSgOx0hcHZDOH1fLIUOPnuKmzmj38NLzzaeSCuzY5jIwGhEOtLFeHkNYFY0NjRJqQrpsHT-fGPFvbZCZr0sQU4LodkMkNXonvePsBlDDfzO1v5wTfolikPrzoAopu_8nZ5dEiTXwSMstQ94zcTjx97ukzqibAlqKbz-YWqodOQPkE196kJuTsho8cJELPDa_rPjyxN2v1Su_-IIXvC5crg2B-ZxH38zYZlLTIuiu1u5-wnRB8TZ7OOsGMlQLRE_WFWzNQYnLkEttKVf2uMt3pgh521ggNMy6uVENvD_vyxqCs6fl3zEU1zClQmLV0pFfnAvYrhQ-2cVKZLz2D3sy1dV7_hDyfXEK-SBIrf_0wpPv2JWoJGWFU6aLYWnI6IawMDrsHNRjMkc3xbLJh-YGJQT3gLZvCG0HJZVeWF0imGSbBbdsuhuo8HHmr0DSALjoAwyVDnaVzkFdMUQJgB406Fly2XSthavSsl9TdWsRPwqGleFPlYwIGbe5PbJ6eMjFLOjgIitj0phhZ7e3puNCVo6bZLWO- -4GuMcCk48CzIkBeZVftyTS7c9TUZO1fudtm_W00]--></g></svg>