<?xml version="1.0" encoding="us-ascii" standalone="no"?><svg xmlns="http://www.w3.org/2000/svg" xmlns:xlink="http://www.w3.org/1999/xlink" contentStyleType="text/css" height="621px" preserveAspectRatio="none" style="width:1848px;height:621px;background:#FFFFFF;" version="1.1" viewBox="0 0 1848 621" width="1848px" zoomAndPan="magnify"><defs/><g><text fill="#000000" font-family="sans-serif" font-size="20" font-weight="bold" lengthAdjust="spacing" textLength="672" x="532.25" y="29.3359">Examples.BetterDesign.Repository.WarehouseEntities.Complaints</text><text fill="#000000" font-family="sans-serif" font-size="20" font-weight="bold" lengthAdjust="spacing" textLength="84" x="1211.25" y="29.3359">detailed</text><text fill="#000000" font-family="sans-serif" font-size="20" font-weight="bold" lengthAdjust="spacing" textLength="7" x="1295.25" y="29.3359">&#160;</text><!--cluster Examples--><g id="cluster_Examples"><path d="M630,50.5547 L699,50.5547 A3.75,3.75 0 0 1 701.5,53.0547 L708.5,73.043 L1839,73.043 A2.5,2.5 0 0 1 1841.5,75.543 L1841.5,612.0547 A2.5,2.5 0 0 1 1839,614.5547 L630,614.5547 A2.5,2.5 0 0 1 627.5,612.0547 L627.5,53.0547 A2.5,2.5 0 0 1 630,50.5547 " fill="none" style="stroke:#000000;stroke-width:1.5;"/><line style="stroke:#000000;stroke-width:1.5;" x1="627.5" x2="708.5" y1="73.043" y2="73.043"/><text fill="#000000" font-family="sans-serif" font-size="14" font-weight="bold" lengthAdjust="spacing" textLength="68" x="631.5" y="66.0898">Examples</text></g><!--cluster BetterDesign--><g id="cluster_BetterDesign"><path d="M654,93.5547 L748,93.5547 A3.75,3.75 0 0 1 750.5,96.0547 L757.5,116.043 L1815,116.043 A2.5,2.5 0 0 1 1817.5,118.543 L1817.5,588.0547 A2.5,2.5 0 0 1 1815,590.5547 L654,590.5547 A2.5,2.5 0 0 1 651.5,588.0547 L651.5,96.0547 A2.5,2.5 0 0 1 654,93.5547 " fill="none" style="stroke:#000000;stroke-width:1.5;"/><line style="stroke:#000000;stroke-width:1.5;" x1="651.5" x2="757.5" y1="116.043" y2="116.043"/><text fill="#000000" font-family="sans-serif" font-size="14" font-weight="bold" lengthAdjust="spacing" textLength="93" x="655.5" y="109.0898">BetterDesign</text></g><!--cluster Repository--><g id="cluster_Repository"><path d="M678,136.5547 L757,136.5547 A3.75,3.75 0 0 1 759.5,139.0547 L766.5,159.043 L1791,159.043 A2.5,2.5 0 0 1 1793.5,161.543 L1793.5,564.0547 A2.5,2.5 0 0 1 1791,566.5547 L678,566.5547 A2.5,2.5 0 0 1 675.5,564.0547 L675.5,139.0547 A2.5,2.5 0 0 1 678,136.5547 " fill="none" style="stroke:#000000;stroke-width:1.5;"/><line style="stroke:#000000;stroke-width:1.5;" x1="675.5" x2="766.5" y1="159.043" y2="159.043"/><text fill="#000000" font-family="sans-serif" font-size="14" font-weight="bold" lengthAdjust="spacing" textLength="78" x="679.5" y="152.0898">Repository</text></g><!--cluster WarehouseEntities--><g id="cluster_WarehouseEntities"><path d="M1163,443.5547 L1297,443.5547 A3.75,3.75 0 0 1 1299.5,446.0547 L1306.5,466.043 L1307,466.043 A2.5,2.5 0 0 1 1309.5,468.543 L1309.5,540.0547 A2.5,2.5 0 0 1 1307,542.5547 L1163,542.5547 A2.5,2.5 0 0 1 1160.5,540.0547 L1160.5,446.0547 A2.5,2.5 0 0 1 1163,443.5547 " fill="none" style="stroke:#000000;stroke-width:1.5;"/><line style="stroke:#000000;stroke-width:1.5;" x1="1160.5" x2="1306.5" y1="466.043" y2="466.043"/><text fill="#000000" font-family="sans-serif" font-size="14" font-weight="bold" lengthAdjust="spacing" textLength="133" x="1164.5" y="459.0898">WarehouseEntities</text></g><!--class DBWarehouse--><a href="Examples.BetterDesign.Repository.DBWarehouse-diagram-detailed.svg" target="_top" title="Examples.BetterDesign.Repository.DBWarehouse-diagram-detailed.svg" xlink:actuate="onRequest" xlink:href="Examples.BetterDesign.Repository.DBWarehouse-diagram-detailed.svg" xlink:show="new" xlink:title="Examples.BetterDesign.Repository.DBWarehouse-diagram-detailed.svg" xlink:type="simple"><g id="elem_DBWarehouse"><rect codeLine="4" fill="#F1F1F1" height="245.8594" id="DBWarehouse" rx="2.5" ry="2.5" style="stroke:#181818;stroke-width:0.5;" width="1086" x="691.5" y="171.5547"/><ellipse cx="1183.25" cy="187.5547" fill="#ADD1B2" rx="11" ry="11" style="stroke:#181818;stroke-width:1.0;"/><path d="M1185.7231,193.6978 Q1185.1421,193.9966 1184.5029,194.146 Q1183.8638,194.2954 1183.1582,194.2954 Q1180.6514,194.2954 1179.3315,192.6436 Q1178.0117,190.9917 1178.0117,187.8706 Q1178.0117,184.7412 1179.3315,183.0894 Q1180.6514,181.4375 1183.1582,181.4375 Q1183.8638,181.4375 1184.5112,181.5869 Q1185.1587,181.7363 1185.7231,182.0352 L1185.7231,184.7578 Q1185.0923,184.1768 1184.4988,183.907 Q1183.9053,183.6372 1183.2744,183.6372 Q1181.9297,183.6372 1181.2449,184.7039 Q1180.5601,185.7705 1180.5601,187.8706 Q1180.5601,189.9624 1181.2449,191.0291 Q1181.9297,192.0957 1183.2744,192.0957 Q1183.9053,192.0957 1184.4988,191.8259 Q1185.0923,191.5562 1185.7231,190.9751 Z " fill="#000000"/><text fill="#000000" font-family="sans-serif" font-size="14" lengthAdjust="spacing" textLength="94" x="1203.75" y="192.8457">DBWarehouse</text><line style="stroke:#181818;stroke-width:0.5;" x1="692.5" x2="1776.5" y1="203.5547" y2="203.5547"/><line style="stroke:#181818;stroke-width:0.5;" x1="692.5" x2="1776.5" y1="211.5547" y2="211.5547"/><ellipse cx="702.5" cy="225.2988" fill="#84BE84" rx="3" ry="3" style="stroke:#038048;stroke-width:1.0;"/><text fill="#000000" font-family="sans-serif" font-size="14" lengthAdjust="spacing" textLength="94" x="711.5" y="229.0898">getCustomer(</text><text fill="#6060BB" font-family="sans-serif" font-size="14" lengthAdjust="spacing" textLength="424" x="805.5" y="229.0898">i:Examples.BetterDesign.Repository.WarehouseEntities.Invoice</text><text fill="#000000" font-family="sans-serif" font-size="14" lengthAdjust="spacing" textLength="9" x="1229.5" y="229.0898">):</text><text fill="#BB6060" font-family="sans-serif" font-size="14" lengthAdjust="spacing" textLength="435" x="1242.5" y="229.0898">Examples.BetterDesign.Repository.WarehouseEntities.Customer</text><ellipse cx="702.5" cy="241.7871" fill="#84BE84" rx="3" ry="3" style="stroke:#038048;stroke-width:1.0;"/><text fill="#000000" font-family="sans-serif" font-size="14" lengthAdjust="spacing" textLength="51" x="711.5" y="245.5781">getCar(</text><text fill="#6060BB" font-family="sans-serif" font-size="14" lengthAdjust="spacing" textLength="457" x="762.5" y="245.5781">c:Examples.BetterDesign.Repository.WarehouseEntities.Complaints</text><text fill="#000000" font-family="sans-serif" font-size="14" lengthAdjust="spacing" textLength="9" x="1219.5" y="245.5781">):</text><text fill="#BB6060" font-family="sans-serif" font-size="14" lengthAdjust="spacing" textLength="392" x="1232.5" y="245.5781">Examples.BetterDesign.Repository.WarehouseEntities.Car</text><ellipse cx="702.5" cy="258.2754" fill="#84BE84" rx="3" ry="3" style="stroke:#038048;stroke-width:1.0;"/><text fill="#000000" font-family="sans-serif" font-size="14" lengthAdjust="spacing" textLength="75" x="711.5" y="262.0664">getInvoice(</text><text fill="#6060BB" font-family="sans-serif" font-size="14" lengthAdjust="spacing" textLength="446" x="786.5" y="262.0664">c:Examples.BetterDesign.Repository.WarehouseEntities.Customer</text><text fill="#000000" font-family="sans-serif" font-size="14" lengthAdjust="spacing" textLength="9" x="1232.5" y="262.0664">):</text><text fill="#BB6060" font-family="sans-serif" font-size="14" lengthAdjust="spacing" textLength="416" x="1245.5" y="262.0664">Examples.BetterDesign.Repository.WarehouseEntities.Invoice</text><ellipse cx="702.5" cy="274.7637" fill="#84BE84" rx="3" ry="3" style="stroke:#038048;stroke-width:1.0;"/><text fill="#000000" font-family="sans-serif" font-size="14" lengthAdjust="spacing" textLength="105" x="711.5" y="278.5547">getComplaints(</text><text fill="#6060BB" font-family="sans-serif" font-size="14" lengthAdjust="spacing" textLength="446" x="816.5" y="278.5547">c:Examples.BetterDesign.Repository.WarehouseEntities.Customer</text><text fill="#000000" font-family="sans-serif" font-size="14" lengthAdjust="spacing" textLength="9" x="1262.5" y="278.5547">):</text><text fill="#BB6060" font-family="sans-serif" font-size="14" lengthAdjust="spacing" textLength="446" x="1275.5" y="278.5547">Examples.BetterDesign.Repository.WarehouseEntities.Complaints</text><ellipse cx="702.5" cy="291.252" fill="#84BE84" rx="3" ry="3" style="stroke:#038048;stroke-width:1.0;"/><text fill="#000000" font-family="sans-serif" font-size="14" lengthAdjust="spacing" textLength="58" x="711.5" y="295.043">getUser(</text><text fill="#6060BB" font-family="sans-serif" font-size="14" lengthAdjust="spacing" textLength="417" x="769.5" y="295.043">car:Examples.BetterDesign.Repository.WarehouseEntities.Car</text><text fill="#000000" font-family="sans-serif" font-size="14" lengthAdjust="spacing" textLength="9" x="1186.5" y="295.043">):</text><text fill="#BB6060" font-family="sans-serif" font-size="14" lengthAdjust="spacing" textLength="399" x="1199.5" y="295.043">Examples.BetterDesign.Repository.WarehouseEntities.User</text><ellipse cx="702.5" cy="307.7402" fill="#84BE84" rx="3" ry="3" style="stroke:#038048;stroke-width:1.0;"/><text fill="#000000" font-family="sans-serif" font-size="14" lengthAdjust="spacing" textLength="94" x="711.5" y="311.5313">getCustomer(</text><text fill="#6060BB" font-family="sans-serif" font-size="14" lengthAdjust="spacing" textLength="518" x="805.5" y="311.5313">complaint:Examples.BetterDesign.Repository.WarehouseEntities.Complaints</text><text fill="#000000" font-family="sans-serif" font-size="14" lengthAdjust="spacing" textLength="9" x="1323.5" y="311.5313">):</text><text fill="#BB6060" font-family="sans-serif" font-size="14" lengthAdjust="spacing" textLength="435" x="1336.5" y="311.5313">Examples.BetterDesign.Repository.WarehouseEntities.Customer</text><ellipse cx="702.5" cy="324.2285" fill="#84BE84" rx="3" ry="3" style="stroke:#038048;stroke-width:1.0;"/><text fill="#000000" font-family="sans-serif" font-size="14" lengthAdjust="spacing" textLength="51" x="711.5" y="328.0195">getCar(</text><text fill="#6060BB" font-family="sans-serif" font-size="14" lengthAdjust="spacing" textLength="433" x="762.5" y="328.0195">user:Examples.BetterDesign.Repository.WarehouseEntities.User</text><text fill="#000000" font-family="sans-serif" font-size="14" lengthAdjust="spacing" textLength="9" x="1195.5" y="328.0195">):</text><text fill="#BB6060" font-family="sans-serif" font-size="14" lengthAdjust="spacing" textLength="392" x="1208.5" y="328.0195">Examples.BetterDesign.Repository.WarehouseEntities.Car</text><ellipse cx="702.5" cy="340.7168" fill="#84BE84" rx="3" ry="3" style="stroke:#038048;stroke-width:1.0;"/><text fill="#000000" font-family="sans-serif" font-size="14" lengthAdjust="spacing" textLength="105" x="711.5" y="344.5078">getComplaints(</text><text fill="#6060BB" font-family="sans-serif" font-size="14" lengthAdjust="spacing" textLength="417" x="816.5" y="344.5078">car:Examples.BetterDesign.Repository.WarehouseEntities.Car</text><text fill="#000000" font-family="sans-serif" font-size="14" lengthAdjust="spacing" textLength="9" x="1233.5" y="344.5078">):</text><text fill="#BB6060" font-family="sans-serif" font-size="14" lengthAdjust="spacing" textLength="446" x="1246.5" y="344.5078">Examples.BetterDesign.Repository.WarehouseEntities.Complaints</text><ellipse cx="702.5" cy="357.2051" fill="#84BE84" rx="3" ry="3" style="stroke:#038048;stroke-width:1.0;"/><text fill="#000000" font-family="sans-serif" font-size="14" lengthAdjust="spacing" textLength="88" x="711.5" y="360.9961">getFirstUser(</text><text fill="#000000" font-family="sans-serif" font-size="14" lengthAdjust="spacing" textLength="9" x="799.5" y="360.9961">):</text><text fill="#BB6060" font-family="sans-serif" font-size="14" lengthAdjust="spacing" textLength="399" x="812.5" y="360.9961">Examples.BetterDesign.Repository.WarehouseEntities.User</text><ellipse cx="702.5" cy="373.6934" fill="#84BE84" rx="3" ry="3" style="stroke:#038048;stroke-width:1.0;"/><text fill="#000000" font-family="sans-serif" font-size="14" lengthAdjust="spacing" textLength="81" x="711.5" y="377.4844">getFirstCar(</text><text fill="#000000" font-family="sans-serif" font-size="14" lengthAdjust="spacing" textLength="9" x="792.5" y="377.4844">):</text><text fill="#BB6060" font-family="sans-serif" font-size="14" lengthAdjust="spacing" textLength="392" x="805.5" y="377.4844">Examples.BetterDesign.Repository.WarehouseEntities.Car</text><ellipse cx="702.5" cy="390.1816" fill="#84BE84" rx="3" ry="3" style="stroke:#038048;stroke-width:1.0;"/><text fill="#000000" font-family="sans-serif" font-size="14" lengthAdjust="spacing" textLength="105" x="711.5" y="393.9727">getFirstInvoice(</text><text fill="#000000" font-family="sans-serif" font-size="14" lengthAdjust="spacing" textLength="9" x="816.5" y="393.9727">):</text><text fill="#BB6060" font-family="sans-serif" font-size="14" lengthAdjust="spacing" textLength="416" x="829.5" y="393.9727">Examples.BetterDesign.Repository.WarehouseEntities.Invoice</text><ellipse cx="702.5" cy="406.6699" fill="#84BE84" rx="3" ry="3" style="stroke:#038048;stroke-width:1.0;"/><text fill="#000000" font-family="sans-serif" font-size="14" lengthAdjust="spacing" textLength="135" x="711.5" y="410.4609">getFirstComplaints(</text><text fill="#000000" font-family="sans-serif" font-size="14" lengthAdjust="spacing" textLength="9" x="846.5" y="410.4609">):</text><text fill="#BB6060" font-family="sans-serif" font-size="14" lengthAdjust="spacing" textLength="446" x="859.5" y="410.4609">Examples.BetterDesign.Repository.WarehouseEntities.Complaints</text></g></a><!--class Complaints--><a href="Examples.BetterDesign.Repository.WarehouseEntities.Complaints-diagram-detailed.svg" target="_top" title="Examples.BetterDesign.Repository.WarehouseEntities.Complaints-diagram-detailed.svg" xlink:actuate="onRequest" xlink:href="Examples.BetterDesign.Repository.WarehouseEntities.Complaints-diagram-detailed.svg" xlink:show="new" xlink:title="Examples.BetterDesign.Repository.WarehouseEntities.Complaints-diagram-detailed.svg" xlink:type="simple"><g id="elem_Complaints"><rect codeLine="18" fill="#FFFF00" height="48" id="Complaints" rx="2.5" ry="2.5" style="stroke:#181818;stroke-width:0.5;" width="110" x="1179.5" y="478.5547"/><ellipse cx="1194.5" cy="494.5547" fill="#ADD1B2" rx="11" ry="11" style="stroke:#181818;stroke-width:1.0;"/><path d="M1196.9731,500.6978 Q1196.3921,500.9966 1195.7529,501.146 Q1195.1138,501.2954 1194.4082,501.2954 Q1191.9014,501.2954 1190.5815,499.6436 Q1189.2617,497.9917 1189.2617,494.8706 Q1189.2617,491.7412 1190.5815,490.0894 Q1191.9014,488.4375 1194.4082,488.4375 Q1195.1138,488.4375 1195.7612,488.5869 Q1196.4087,488.7363 1196.9731,489.0352 L1196.9731,491.7578 Q1196.3423,491.1768 1195.7488,490.907 Q1195.1553,490.6372 1194.5244,490.6372 Q1193.1797,490.6372 1192.4949,491.7039 Q1191.8101,492.7705 1191.8101,494.8706 Q1191.8101,496.9624 1192.4949,498.0291 Q1193.1797,499.0957 1194.5244,499.0957 Q1195.1553,499.0957 1195.7488,498.8259 Q1196.3423,498.5562 1196.9731,497.9751 Z " fill="#000000"/><text fill="#000000" font-family="sans-serif" font-size="14" lengthAdjust="spacing" textLength="78" x="1208.5" y="499.8457">Complaints</text><line style="stroke:#181818;stroke-width:0.5;" x1="1180.5" x2="1288.5" y1="510.5547" y2="510.5547"/><line style="stroke:#181818;stroke-width:0.5;" x1="1180.5" x2="1288.5" y1="518.5547" y2="518.5547"/></g></a><g id="elem_FloatingNote"><path d="M6,170.5547 L6,418.2129 L611,418.2129 L611,180.5547 L601,170.5547 L6,170.5547 " fill="#FEFFDD" style="stroke:#181818;stroke-width:0.5;"/><path d="M601,170.5547 L601,180.5547 L611,180.5547 L601,170.5547 " fill="#FEFFDD" style="stroke:#181818;stroke-width:1.0;"/><text fill="#000000" font-family="sans-serif" font-size="13" lengthAdjust="spacing" textLength="120" x="12" y="188.123">Your are analyzing:</text><text fill="#000000" font-family="sans-serif" font-size="13" lengthAdjust="spacing" textLength="410" x="12" y="203.4336">Examples.BetterDesign.Repository.WarehouseEntities.Complaints</text><text fill="#000000" font-family="sans-serif" font-size="13" font-weight="bold" lengthAdjust="spacing" textLength="55" x="426" y="203.4336">detailed</text><text fill="#000000" font-family="sans-serif" font-size="13" lengthAdjust="spacing" textLength="4" x="481" y="203.4336">&#160;</text><text fill="#000000" font-family="sans-serif" font-size="13" lengthAdjust="spacing" textLength="4" x="12" y="218.7441">&#160;</text><text fill="#000000" font-family="sans-serif" font-size="13" lengthAdjust="spacing" textLength="229" x="12" y="249.3652">You can click either the namespaces</text><text fill="#000000" font-family="sans-serif" font-size="13" lengthAdjust="spacing" textLength="266" x="12" y="264.6758">or class names for filtering them and their</text><text fill="#000000" font-family="sans-serif" font-size="13" lengthAdjust="spacing" textLength="130" x="12" y="279.9863">direct dependencies.</text><text fill="#000000" font-family="sans-serif" font-size="13" lengthAdjust="spacing" textLength="4" x="12" y="295.2969">&#160;</text><line style="stroke:#181818;stroke-width:1.0;" x1="7" x2="292.5" y1="229.1416" y2="229.1416"/><line style="stroke:#181818;stroke-width:1.0;" x1="7" x2="292.5" y1="231.1416" y2="231.1416"/><text fill="#000000" font-family="sans-serif" font-size="13" lengthAdjust="spacing" textLength="32" x="292.5" y="233.5547">Filter</text><line style="stroke:#181818;stroke-width:1.0;" x1="324.5" x2="610" y1="229.1416" y2="229.1416"/><line style="stroke:#181818;stroke-width:1.0;" x1="324.5" x2="610" y1="231.1416" y2="231.1416"/><ellipse cx="17.5" cy="325.1602" fill="#000000" rx="2.5" ry="2.5" style="stroke:#000000;stroke-width:0.0;"/><text fill="#000000" font-family="sans-serif" font-size="13" lengthAdjust="spacing" textLength="410" x="24" y="329.918">Examples.BetterDesign.Repository.WarehouseEntities.Complaints</text><text fill="#000000" font-family="sans-serif" font-size="13" font-weight="bold" lengthAdjust="spacing" textLength="67" x="438" y="329.918">simplified</text><text fill="#000000" font-family="sans-serif" font-size="13" lengthAdjust="spacing" textLength="4" x="509" y="329.918">:</text><text fill="#000000" font-family="sans-serif" font-size="13" lengthAdjust="spacing" textLength="12" x="12" y="345.2285">&#160;&#160;&#160;</text><a href="Examples.BetterDesign.Repository.WarehouseEntities.Complaints-diagram-simplified.svg" target="_top" title="Examples.BetterDesign.Repository.WarehouseEntities.Complaints-diagram-simplified.svg" xlink:actuate="onRequest" xlink:href="Examples.BetterDesign.Repository.WarehouseEntities.Complaints-diagram-simplified.svg" xlink:show="new" xlink:title="Examples.BetterDesign.Repository.WarehouseEntities.Complaints-diagram-simplified.svg" xlink:type="simple"><text fill="#0000FF" font-family="sans-serif" font-size="13" lengthAdjust="spacing" text-decoration="underline" textLength="566" x="24" y="345.2285">Examples.BetterDesign.Repository.WarehouseEntities.Complaints-diagram-simplified.svg</text></a><ellipse cx="17.5" cy="355.7813" fill="#000000" rx="2.5" ry="2.5" style="stroke:#000000;stroke-width:0.0;"/><text fill="#000000" font-family="sans-serif" font-size="13" lengthAdjust="spacing" textLength="78" x="24" y="360.5391">Full diagram</text><text fill="#000000" font-family="sans-serif" font-size="13" font-weight="bold" lengthAdjust="spacing" textLength="55" x="106" y="360.5391">detailed</text><text fill="#000000" font-family="sans-serif" font-size="13" lengthAdjust="spacing" textLength="23" x="165" y="360.5391">and</text><text fill="#000000" font-family="sans-serif" font-size="13" font-weight="bold" lengthAdjust="spacing" textLength="166" x="192" y="360.5391">grouped per namespace</text><text fill="#000000" font-family="sans-serif" font-size="13" lengthAdjust="spacing" textLength="4" x="358" y="360.5391">:</text><text fill="#000000" font-family="sans-serif" font-size="13" lengthAdjust="spacing" textLength="12" x="12" y="375.8496">&#160;&#160;&#160;</text><a href="full-diagram-detailed-grouped-per-namespace.svg" target="_top" title="full-diagram-detailed-grouped-per-namespace.svg" xlink:actuate="onRequest" xlink:href="full-diagram-detailed-grouped-per-namespace.svg" xlink:show="new" xlink:title="full-diagram-detailed-grouped-per-namespace.svg" xlink:type="simple"><text fill="#0000FF" font-family="sans-serif" font-size="13" lengthAdjust="spacing" text-decoration="underline" textLength="330" x="24" y="375.8496">full-diagram-detailed-grouped-per-namespace.svg</text></a><ellipse cx="17.5" cy="386.4023" fill="#000000" rx="2.5" ry="2.5" style="stroke:#000000;stroke-width:0.0;"/><text fill="#000000" font-family="sans-serif" font-size="13" lengthAdjust="spacing" textLength="41" x="24" y="391.1602">Home:</text><text fill="#000000" font-family="sans-serif" font-size="13" lengthAdjust="spacing" textLength="12" x="12" y="406.4707">&#160;&#160;&#160;</text><a href="index.html" target="_top" title="index.html" xlink:actuate="onRequest" xlink:href="index.html" xlink:show="new" xlink:title="index.html" xlink:type="simple"><text fill="#0000FF" font-family="sans-serif" font-size="13" lengthAdjust="spacing" text-decoration="underline" textLength="68" x="24" y="406.4707">index.html</text></a><line style="stroke:#181818;stroke-width:1.0;" x1="7" x2="271.5" y1="309.6943" y2="309.6943"/><line style="stroke:#181818;stroke-width:1.0;" x1="7" x2="271.5" y1="311.6943" y2="311.6943"/><text fill="#000000" font-family="sans-serif" font-size="13" lengthAdjust="spacing" textLength="74" x="271.5" y="314.1074">Select other</text><line style="stroke:#181818;stroke-width:1.0;" x1="345.5" x2="610" y1="309.6943" y2="309.6943"/><line style="stroke:#181818;stroke-width:1.0;" x1="345.5" x2="610" y1="311.6943" y2="311.6943"/></g><!--link DBWarehouse to Complaints--><g id="link_DBWarehouse_Complaints"><path codeLine="25" d="M1234.5,417.9547 C1234.5,417.9547 1234.5,472.1347 1234.5,472.1347 " fill="none" id="DBWarehouse-to-Complaints" style="stroke:#6060BB;stroke-width:1.0;stroke-dasharray:7.0,7.0;"/><polygon fill="#6060BB" points="1234.5,477.1347,1238.5,468.1347,1234.5,472.1347,1230.5,468.1347,1234.5,477.1347" style="stroke:#6060BB;stroke-width:1.0;"/><text fill="#000000" font-family="sans-serif" font-size="13" lengthAdjust="spacing" textLength="29" x="1204.5" y="441.613">uses</text></g><!--SRC=[rLPBRzf04BxpAqRaaDOL3keX1miuc0IrbnvQLLK475RhCQoothLsbpIawd_ls1Y3ItWK34ev81xp-1uprjX7eL9cM09IA7Jp544RDzKD9vn4w5ZnWi77Tk_-cIMfHEk7w1oQExHYelolc6ehd3Pp_mSpEDKpY_UAKWL5zZLbCA6S1S-Bq34XCV8ywDnaHNiDfHr2yq7F350kCCNa_4MeIJ1IDNORgP7gTWT2KfrkTwIe7t2cW4l17m65cw81UWF54hGfusWfHniAODOkVeMOliTv2SANHIS4Dye-23DIaJ387KIOeefGyGpEekqtbDa_EckIDVVWL6PMq1SHYvmRAGK0m-59HLkHO1CQWDQgj6-V9kDn1dSmanAAWAgk6N_FcnWzIp62b4Gi1VIy9R2Oqilwo-HMaTIYf5QPjEhvIIUuB218q6T_wX8v7ZU1MHX8pHoPy8M6fq4XXKrx5RWBImqE4MmjV0F_0Yd0hxm_m0UOeElFh2FSvbqdrie1rrARRlEsVTiEmsPF14TOz5azQS6nSvDLxBqFe58w3BFYpQCMiy1QLAxGO5iOyE2a8Ji32VOQ_aApEZbKnQgHGTNVYWkbRly5aGsRrxbyjzkMWZCJd6HyZHGobAyPiNEh-PBtczkD8nQSye-oOqsvis_tthruGnErSoa6mjWTct6n-SvnR1s9IzcQezZvvBxamtUXoPv9kzIy_2wG7NZbx3mUwxeJ_xg3hkOefVvPdaC4-PekmuDUSBROQ-ZdaXcKT2zgPG6VdM7SqR4Q6vsihjM0OlS9q_Yd-z8VNYtcPEptJlGC0g1_RDryDfl-0G00]--></g></svg>