<?xml version="1.0" encoding="us-ascii" standalone="no"?><svg xmlns="http://www.w3.org/2000/svg" xmlns:xlink="http://www.w3.org/1999/xlink" contentStyleType="text/css" height="685px" preserveAspectRatio="none" style="width:1590px;height:685px;background:#FFFFFF;" version="1.1" viewBox="0 0 1590 685" width="1590px" zoomAndPan="magnify"><defs/><g><text fill="#000000" font-family="sans-serif" font-size="20" font-weight="bold" lengthAdjust="spacing" textLength="424" x="527.25" y="29.3359">Examples.BadDesign.WarehouseEntitities</text><text fill="#000000" font-family="sans-serif" font-size="20" font-weight="bold" lengthAdjust="spacing" textLength="84" x="958.25" y="29.3359">detailed</text><text fill="#000000" font-family="sans-serif" font-size="20" font-weight="bold" lengthAdjust="spacing" textLength="7" x="1042.25" y="29.3359">&#160;</text><!--cluster Examples--><g id="cluster_Examples"><path d="M478,50.5547 L547,50.5547 A3.75,3.75 0 0 1 549.5,53.0547 L556.5,73.043 L1581,73.043 A2.5,2.5 0 0 1 1583.5,75.543 L1583.5,676.0547 A2.5,2.5 0 0 1 1581,678.5547 L478,678.5547 A2.5,2.5 0 0 1 475.5,676.0547 L475.5,53.0547 A2.5,2.5 0 0 1 478,50.5547 " fill="none" style="stroke:#000000;stroke-width:1.5;"/><line style="stroke:#000000;stroke-width:1.5;" x1="475.5" x2="556.5" y1="73.043" y2="73.043"/><text fill="#000000" font-family="sans-serif" font-size="14" font-weight="bold" lengthAdjust="spacing" textLength="68" x="479.5" y="66.0898">Examples</text></g><!--cluster BadDesign--><g id="cluster_BadDesign"><path d="M502,93.5547 L579,93.5547 A3.75,3.75 0 0 1 581.5,96.0547 L588.5,116.043 L1557,116.043 A2.5,2.5 0 0 1 1559.5,118.543 L1559.5,652.0547 A2.5,2.5 0 0 1 1557,654.5547 L502,654.5547 A2.5,2.5 0 0 1 499.5,652.0547 L499.5,96.0547 A2.5,2.5 0 0 1 502,93.5547 " fill="none" style="stroke:#000000;stroke-width:1.5;"/><line style="stroke:#000000;stroke-width:1.5;" x1="499.5" x2="588.5" y1="116.043" y2="116.043"/><text fill="#000000" font-family="sans-serif" font-size="14" font-weight="bold" lengthAdjust="spacing" textLength="76" x="503.5" y="109.0898">BadDesign</text></g><!--cluster WarehouseEntitities--><g id="cluster_WarehouseEntitities"><path d="M755,531.5547 L900,531.5547 A3.75,3.75 0 0 1 902.5,534.0547 L909.5,554.043 L1331,554.043 A2.5,2.5 0 0 1 1333.5,556.543 L1333.5,628.0547 A2.5,2.5 0 0 1 1331,630.5547 L755,630.5547 A2.5,2.5 0 0 1 752.5,628.0547 L752.5,534.0547 A2.5,2.5 0 0 1 755,531.5547 " fill="none" style="stroke:#000000;stroke-width:1.5;"/><line style="stroke:#000000;stroke-width:1.5;" x1="752.5" x2="909.5" y1="554.043" y2="554.043"/><text fill="#000000" font-family="sans-serif" font-size="14" font-weight="bold" lengthAdjust="spacing" textLength="144" x="756.5" y="547.0898">WarehouseEntitities</text></g><!--class DB--><a href="Examples.BadDesign.DB-diagram-detailed.svg" target="_top" title="Examples.BadDesign.DB-diagram-detailed.svg" xlink:actuate="onRequest" xlink:href="Examples.BadDesign.DB-diagram-detailed.svg" xlink:show="new" xlink:title="Examples.BadDesign.DB-diagram-detailed.svg" xlink:type="simple"><g id="elem_DB"><rect codeLine="4" fill="#F1F1F1" height="377.7656" id="DB" rx="2.5" ry="2.5" style="stroke:#181818;stroke-width:0.5;" width="1027" x="516" y="128.5547"/><ellipse cx="1016.25" cy="144.5547" fill="#ADD1B2" rx="11" ry="11" style="stroke:#181818;stroke-width:1.0;"/><path d="M1018.7231,150.6978 Q1018.1421,150.9966 1017.5029,151.146 Q1016.8638,151.2954 1016.1582,151.2954 Q1013.6514,151.2954 1012.3315,149.6436 Q1011.0117,147.9917 1011.0117,144.8706 Q1011.0117,141.7412 1012.3315,140.0894 Q1013.6514,138.4375 1016.1582,138.4375 Q1016.8638,138.4375 1017.5112,138.5869 Q1018.1587,138.7363 1018.7231,139.0352 L1018.7231,141.7578 Q1018.0923,141.1768 1017.4988,140.907 Q1016.9053,140.6372 1016.2744,140.6372 Q1014.9297,140.6372 1014.2449,141.7039 Q1013.5601,142.7705 1013.5601,144.8706 Q1013.5601,146.9624 1014.2449,148.0291 Q1014.9297,149.0957 1016.2744,149.0957 Q1016.9053,149.0957 1017.4988,148.8259 Q1018.0923,148.5562 1018.7231,147.9751 Z " fill="#000000"/><text fill="#000000" font-family="sans-serif" font-size="14" lengthAdjust="spacing" textLength="18" x="1036.75" y="149.8457">DB</text><line style="stroke:#181818;stroke-width:0.5;" x1="517" x2="1542" y1="160.5547" y2="160.5547"/><line style="stroke:#181818;stroke-width:0.5;" x1="517" x2="1542" y1="168.5547" y2="168.5547"/><ellipse cx="527" cy="182.2988" fill="#84BE84" rx="3" ry="3" style="stroke:#038048;stroke-width:1.0;"/><text fill="#000000" font-family="sans-serif" font-size="14" lengthAdjust="spacing" textLength="27" x="536" y="186.0898">get(</text><text fill="#6060BB" font-family="sans-serif" font-size="14" lengthAdjust="spacing" textLength="125" x="563" y="186.0898">queryString:String</text><text fill="#000000" font-family="sans-serif" font-size="14" lengthAdjust="spacing" textLength="9" x="688" y="186.0898">):</text><text fill="#BB6060" font-family="sans-serif" font-size="14" lengthAdjust="spacing" textLength="41" x="701" y="186.0898">String</text><ellipse cx="527" cy="198.7871" fill="#84BE84" rx="3" ry="3" style="stroke:#038048;stroke-width:1.0;"/><text fill="#000000" font-family="sans-serif" font-size="14" lengthAdjust="spacing" textLength="101" x="536" y="202.5781">getCarsWhere(</text><text fill="#6060BB" font-family="sans-serif" font-size="14" lengthAdjust="spacing" textLength="169" x="637" y="202.5781">whereQueryString:String</text><text fill="#000000" font-family="sans-serif" font-size="14" lengthAdjust="spacing" textLength="9" x="806" y="202.5781">):</text><text fill="#BB6060" font-family="sans-serif" font-size="14" lengthAdjust="spacing" textLength="41" x="819" y="202.5781">String</text><ellipse cx="527" cy="215.2754" fill="#84BE84" rx="3" ry="3" style="stroke:#038048;stroke-width:1.0;"/><text fill="#000000" font-family="sans-serif" font-size="14" lengthAdjust="spacing" textLength="25" x="536" y="219.0664">set(</text><text fill="#6060BB" font-family="sans-serif" font-size="14" lengthAdjust="spacing" textLength="125" x="561" y="219.0664">queryString:String</text><text fill="#000000" font-family="sans-serif" font-size="14" lengthAdjust="spacing" textLength="9" x="686" y="219.0664">):</text><text fill="#BB6060" font-family="sans-serif" font-size="14" lengthAdjust="spacing" textLength="29" x="699" y="219.0664">void</text><ellipse cx="527" cy="231.7637" fill="#84BE84" rx="3" ry="3" style="stroke:#038048;stroke-width:1.0;"/><text fill="#000000" font-family="sans-serif" font-size="14" lengthAdjust="spacing" textLength="53" x="536" y="235.5547">update(</text><text fill="#6060BB" font-family="sans-serif" font-size="14" lengthAdjust="spacing" textLength="125" x="589" y="235.5547">queryString:String</text><text fill="#000000" font-family="sans-serif" font-size="14" lengthAdjust="spacing" textLength="9" x="714" y="235.5547">):</text><text fill="#BB6060" font-family="sans-serif" font-size="14" lengthAdjust="spacing" textLength="29" x="727" y="235.5547">void</text><ellipse cx="527" cy="248.252" fill="#84BE84" rx="3" ry="3" style="stroke:#038048;stroke-width:1.0;"/><text fill="#000000" font-family="sans-serif" font-size="14" lengthAdjust="spacing" textLength="101" x="536" y="252.043">getUserWhere(</text><text fill="#6060BB" font-family="sans-serif" font-size="14" lengthAdjust="spacing" textLength="84" x="637" y="252.043">query:String</text><text fill="#000000" font-family="sans-serif" font-size="14" lengthAdjust="spacing" textLength="9" x="721" y="252.043">):</text><text fill="#BB6060" font-family="sans-serif" font-size="14" lengthAdjust="spacing" textLength="316" x="734" y="252.043">Examples.BadDesign.WarehouseEntitities.User</text><ellipse cx="527" cy="264.7402" fill="#84BE84" rx="3" ry="3" style="stroke:#038048;stroke-width:1.0;"/><text fill="#000000" font-family="sans-serif" font-size="14" lengthAdjust="spacing" textLength="137" x="536" y="268.5313">getCustomerWhere(</text><text fill="#6060BB" font-family="sans-serif" font-size="14" lengthAdjust="spacing" textLength="84" x="673" y="268.5313">query:String</text><text fill="#000000" font-family="sans-serif" font-size="14" lengthAdjust="spacing" textLength="9" x="757" y="268.5313">):</text><text fill="#BB6060" font-family="sans-serif" font-size="14" lengthAdjust="spacing" textLength="352" x="770" y="268.5313">Examples.BadDesign.WarehouseEntitities.Customer</text><ellipse cx="527" cy="281.2285" fill="#84BE84" rx="3" ry="3" style="stroke:#038048;stroke-width:1.0;"/><text fill="#000000" font-family="sans-serif" font-size="14" lengthAdjust="spacing" textLength="170" x="536" y="285.0195">getWarehouseCarWhere(</text><text fill="#6060BB" font-family="sans-serif" font-size="14" lengthAdjust="spacing" textLength="84" x="706" y="285.0195">query:String</text><text fill="#000000" font-family="sans-serif" font-size="14" lengthAdjust="spacing" textLength="9" x="790" y="285.0195">):</text><text fill="#BB6060" font-family="sans-serif" font-size="14" lengthAdjust="spacing" textLength="309" x="803" y="285.0195">Examples.BadDesign.WarehouseEntitities.Car</text><ellipse cx="527" cy="297.7168" fill="#84BE84" rx="3" ry="3" style="stroke:#038048;stroke-width:1.0;"/><text fill="#000000" font-family="sans-serif" font-size="14" lengthAdjust="spacing" textLength="118" x="536" y="301.5078">getInvoiceWhere(</text><text fill="#6060BB" font-family="sans-serif" font-size="14" lengthAdjust="spacing" textLength="84" x="654" y="301.5078">query:String</text><text fill="#000000" font-family="sans-serif" font-size="14" lengthAdjust="spacing" textLength="9" x="738" y="301.5078">):</text><text fill="#BB6060" font-family="sans-serif" font-size="14" lengthAdjust="spacing" textLength="333" x="751" y="301.5078">Examples.BadDesign.WarehouseEntitities.Invoice</text><ellipse cx="527" cy="314.2051" fill="#84BE84" rx="3" ry="3" style="stroke:#038048;stroke-width:1.0;"/><text fill="#000000" font-family="sans-serif" font-size="14" lengthAdjust="spacing" textLength="148" x="536" y="317.9961">getComplaintsWhere(</text><text fill="#6060BB" font-family="sans-serif" font-size="14" lengthAdjust="spacing" textLength="84" x="684" y="317.9961">query:String</text><text fill="#000000" font-family="sans-serif" font-size="14" lengthAdjust="spacing" textLength="9" x="768" y="317.9961">):</text><text fill="#BB6060" font-family="sans-serif" font-size="14" lengthAdjust="spacing" textLength="363" x="781" y="317.9961">Examples.BadDesign.WarehouseEntitities.Complaints</text><ellipse cx="527" cy="330.6934" fill="#84BE84" rx="3" ry="3" style="stroke:#038048;stroke-width:1.0;"/><text fill="#000000" font-family="sans-serif" font-size="14" lengthAdjust="spacing" textLength="167" x="536" y="334.4844">getFirstCustomerWhere(</text><text fill="#6060BB" font-family="sans-serif" font-size="14" lengthAdjust="spacing" textLength="84" x="703" y="334.4844">query:String</text><text fill="#000000" font-family="sans-serif" font-size="14" lengthAdjust="spacing" textLength="9" x="787" y="334.4844">):</text><text fill="#BB6060" font-family="sans-serif" font-size="14" lengthAdjust="spacing" textLength="352" x="800" y="334.4844">Examples.BadDesign.WarehouseEntitities.Customer</text><ellipse cx="527" cy="347.1816" fill="#84BE84" rx="3" ry="3" style="stroke:#038048;stroke-width:1.0;"/><text fill="#000000" font-family="sans-serif" font-size="14" lengthAdjust="spacing" textLength="194" x="536" y="350.9727">getUserFromWarehouseCar(</text><text fill="#6060BB" font-family="sans-serif" font-size="14" lengthAdjust="spacing" textLength="343" x="730" y="350.9727">item:Examples.BadDesign.WarehouseEntitities.Car</text><text fill="#000000" font-family="sans-serif" font-size="14" lengthAdjust="spacing" textLength="9" x="1073" y="350.9727">):</text><text fill="#BB6060" font-family="sans-serif" font-size="14" lengthAdjust="spacing" textLength="316" x="1086" y="350.9727">Examples.BadDesign.WarehouseEntitities.User</text><ellipse cx="527" cy="363.6699" fill="#84BE84" rx="3" ry="3" style="stroke:#038048;stroke-width:1.0;"/><text fill="#000000" font-family="sans-serif" font-size="14" lengthAdjust="spacing" textLength="201" x="536" y="367.4609">getCustomerFromComplaint(</text><text fill="#6060BB" font-family="sans-serif" font-size="14" lengthAdjust="spacing" textLength="435" x="737" y="367.4609">complaint:Examples.BadDesign.WarehouseEntitities.Complaints</text><text fill="#000000" font-family="sans-serif" font-size="14" lengthAdjust="spacing" textLength="9" x="1172" y="367.4609">):</text><text fill="#BB6060" font-family="sans-serif" font-size="14" lengthAdjust="spacing" textLength="352" x="1185" y="367.4609">Examples.BadDesign.WarehouseEntitities.Customer</text><ellipse cx="527" cy="380.1582" fill="#84BE84" rx="3" ry="3" style="stroke:#038048;stroke-width:1.0;"/><text fill="#000000" font-family="sans-serif" font-size="14" lengthAdjust="spacing" textLength="194" x="536" y="383.9492">getWarehouseCarFromUser(</text><text fill="#6060BB" font-family="sans-serif" font-size="14" lengthAdjust="spacing" textLength="343" x="730" y="383.9492">user:Examples.BadDesign.WarehouseEntitities.Car</text><text fill="#000000" font-family="sans-serif" font-size="14" lengthAdjust="spacing" textLength="9" x="1073" y="383.9492">):</text><text fill="#BB6060" font-family="sans-serif" font-size="14" lengthAdjust="spacing" textLength="257" x="1086" y="383.9492">Examples.BadDesign.CarExample.Car</text><ellipse cx="527" cy="396.6465" fill="#84BE84" rx="3" ry="3" style="stroke:#038048;stroke-width:1.0;"/><text fill="#000000" font-family="sans-serif" font-size="14" lengthAdjust="spacing" textLength="178" x="536" y="400.4375">getInvoiceFromCustomer(</text><text fill="#6060BB" font-family="sans-serif" font-size="14" lengthAdjust="spacing" textLength="363" x="714" y="400.4375">c:Examples.BadDesign.WarehouseEntitities.Customer</text><text fill="#000000" font-family="sans-serif" font-size="14" lengthAdjust="spacing" textLength="9" x="1077" y="400.4375">):</text><text fill="#BB6060" font-family="sans-serif" font-size="14" lengthAdjust="spacing" textLength="333" x="1090" y="400.4375">Examples.BadDesign.WarehouseEntitities.Invoice</text><ellipse cx="527" cy="413.1348" fill="#84BE84" rx="3" ry="3" style="stroke:#038048;stroke-width:1.0;"/><text fill="#000000" font-family="sans-serif" font-size="14" lengthAdjust="spacing" textLength="241" x="536" y="416.9258">getComplaintsFromWarehouseCar(</text><text fill="#6060BB" font-family="sans-serif" font-size="14" lengthAdjust="spacing" textLength="343" x="777" y="416.9258">item:Examples.BadDesign.WarehouseEntitities.Car</text><text fill="#000000" font-family="sans-serif" font-size="14" lengthAdjust="spacing" textLength="9" x="1120" y="416.9258">):</text><text fill="#BB6060" font-family="sans-serif" font-size="14" lengthAdjust="spacing" textLength="363" x="1133" y="416.9258">Examples.BadDesign.WarehouseEntitities.Complaints</text><ellipse cx="527" cy="429.623" fill="#84BE84" rx="3" ry="3" style="stroke:#038048;stroke-width:1.0;"/><text fill="#000000" font-family="sans-serif" font-size="14" lengthAdjust="spacing" textLength="128" x="536" y="433.4141">getCarFromDriver(</text><text fill="#6060BB" font-family="sans-serif" font-size="14" lengthAdjust="spacing" textLength="349" x="664" y="433.4141">d:Examples.BadDesign.CarExample.CarParts.Driver</text><text fill="#000000" font-family="sans-serif" font-size="14" lengthAdjust="spacing" textLength="9" x="1013" y="433.4141">):</text><text fill="#BB6060" font-family="sans-serif" font-size="14" lengthAdjust="spacing" textLength="257" x="1026" y="433.4141">Examples.BadDesign.CarExample.Car</text><ellipse cx="527" cy="446.1113" fill="#84BE84" rx="3" ry="3" style="stroke:#038048;stroke-width:1.0;"/><text fill="#000000" font-family="sans-serif" font-size="14" lengthAdjust="spacing" textLength="128" x="536" y="449.9023">getDriverFromCar(</text><text fill="#6060BB" font-family="sans-serif" font-size="14" lengthAdjust="spacing" textLength="268" x="664" y="449.9023">c:Examples.BadDesign.CarExample.Car</text><text fill="#000000" font-family="sans-serif" font-size="14" lengthAdjust="spacing" textLength="9" x="932" y="449.9023">):</text><text fill="#BB6060" font-family="sans-serif" font-size="14" lengthAdjust="spacing" textLength="336" x="945" y="449.9023">Examples.BadDesign.CarExample.CarParts.Driver</text><ellipse cx="527" cy="462.5996" fill="#84BE84" rx="3" ry="3" style="stroke:#038048;stroke-width:1.0;"/><text fill="#000000" font-family="sans-serif" font-size="14" lengthAdjust="spacing" textLength="135" x="536" y="466.3906">getWheelsFromCar(</text><text fill="#6060BB" font-family="sans-serif" font-size="14" lengthAdjust="spacing" textLength="268" x="671" y="466.3906">c:Examples.BadDesign.CarExample.Car</text><text fill="#000000" font-family="sans-serif" font-size="14" lengthAdjust="spacing" textLength="9" x="939" y="466.3906">):</text><text fill="#BB6060" font-family="sans-serif" font-size="14" lengthAdjust="spacing" textLength="343" x="952" y="466.3906">Examples.BadDesign.CarExample.CarParts.Wheels</text><ellipse cx="527" cy="479.0879" fill="#84BE84" rx="3" ry="3" style="stroke:#038048;stroke-width:1.0;"/><text fill="#000000" font-family="sans-serif" font-size="14" lengthAdjust="spacing" textLength="128" x="536" y="482.8789">getDoorsFromCar(</text><text fill="#6060BB" font-family="sans-serif" font-size="14" lengthAdjust="spacing" textLength="268" x="664" y="482.8789">c:Examples.BadDesign.CarExample.Car</text><text fill="#000000" font-family="sans-serif" font-size="14" lengthAdjust="spacing" textLength="9" x="932" y="482.8789">):</text><text fill="#BB6060" font-family="sans-serif" font-size="14" lengthAdjust="spacing" textLength="336" x="945" y="482.8789">Examples.BadDesign.CarExample.CarParts.Doors</text><ellipse cx="527" cy="495.5762" fill="#84BE84" rx="3" ry="3" style="stroke:#038048;stroke-width:1.0;"/><text fill="#000000" font-family="sans-serif" font-size="14" lengthAdjust="spacing" textLength="123" x="536" y="499.3672">getSeatsFromCar(</text><text fill="#6060BB" font-family="sans-serif" font-size="14" lengthAdjust="spacing" textLength="268" x="659" y="499.3672">c:Examples.BadDesign.CarExample.Car</text><text fill="#000000" font-family="sans-serif" font-size="14" lengthAdjust="spacing" textLength="9" x="927" y="499.3672">):</text><text fill="#BB6060" font-family="sans-serif" font-size="14" lengthAdjust="spacing" textLength="331" x="940" y="499.3672">Examples.BadDesign.CarExample.CarParts.Seats</text></g></a><!--class Complaints--><a href="Examples.BadDesign.WarehouseEntitities.Complaints-diagram-detailed.svg" target="_top" title="Examples.BadDesign.WarehouseEntitities.Complaints-diagram-detailed.svg" xlink:actuate="onRequest" xlink:href="Examples.BadDesign.WarehouseEntitities.Complaints-diagram-detailed.svg" xlink:show="new" xlink:title="Examples.BadDesign.WarehouseEntitities.Complaints-diagram-detailed.svg" xlink:type="simple"><g id="elem_Complaints"><rect codeLine="26" fill="#FFFF00" height="48" id="Complaints" rx="2.5" ry="2.5" style="stroke:#181818;stroke-width:0.5;" width="110" x="1207.5" y="566.5547"/><ellipse cx="1222.5" cy="582.5547" fill="#ADD1B2" rx="11" ry="11" style="stroke:#181818;stroke-width:1.0;"/><path d="M1224.9731,588.6978 Q1224.3921,588.9966 1223.7529,589.146 Q1223.1138,589.2954 1222.4082,589.2954 Q1219.9014,589.2954 1218.5815,587.6436 Q1217.2617,585.9917 1217.2617,582.8706 Q1217.2617,579.7412 1218.5815,578.0894 Q1219.9014,576.4375 1222.4082,576.4375 Q1223.1138,576.4375 1223.7612,576.5869 Q1224.4087,576.7363 1224.9731,577.0352 L1224.9731,579.7578 Q1224.3423,579.1768 1223.7488,578.907 Q1223.1553,578.6372 1222.5244,578.6372 Q1221.1797,578.6372 1220.4949,579.7039 Q1219.8101,580.7705 1219.8101,582.8706 Q1219.8101,584.9624 1220.4949,586.0291 Q1221.1797,587.0957 1222.5244,587.0957 Q1223.1553,587.0957 1223.7488,586.8259 Q1224.3423,586.5562 1224.9731,585.9751 Z " fill="#000000"/><text fill="#000000" font-family="sans-serif" font-size="14" lengthAdjust="spacing" textLength="78" x="1236.5" y="587.8457">Complaints</text><line style="stroke:#181818;stroke-width:0.5;" x1="1208.5" x2="1316.5" y1="598.5547" y2="598.5547"/><line style="stroke:#181818;stroke-width:0.5;" x1="1208.5" x2="1316.5" y1="606.5547" y2="606.5547"/></g></a><!--class Invoice--><a href="Examples.BadDesign.WarehouseEntitities.Invoice-diagram-detailed.svg" target="_top" title="Examples.BadDesign.WarehouseEntitities.Invoice-diagram-detailed.svg" xlink:actuate="onRequest" xlink:href="Examples.BadDesign.WarehouseEntitities.Invoice-diagram-detailed.svg" xlink:show="new" xlink:title="Examples.BadDesign.WarehouseEntitities.Invoice-diagram-detailed.svg" xlink:type="simple"><g id="elem_Invoice"><rect codeLine="28" fill="#FFFF00" height="48" id="Invoice" rx="2.5" ry="2.5" style="stroke:#181818;stroke-width:0.5;" width="80" x="1092.5" y="566.5547"/><ellipse cx="1107.5" cy="582.5547" fill="#ADD1B2" rx="11" ry="11" style="stroke:#181818;stroke-width:1.0;"/><path d="M1109.9731,588.6978 Q1109.3921,588.9966 1108.7529,589.146 Q1108.1138,589.2954 1107.4082,589.2954 Q1104.9014,589.2954 1103.5815,587.6436 Q1102.2617,585.9917 1102.2617,582.8706 Q1102.2617,579.7412 1103.5815,578.0894 Q1104.9014,576.4375 1107.4082,576.4375 Q1108.1138,576.4375 1108.7612,576.5869 Q1109.4087,576.7363 1109.9731,577.0352 L1109.9731,579.7578 Q1109.3423,579.1768 1108.7488,578.907 Q1108.1553,578.6372 1107.5244,578.6372 Q1106.1797,578.6372 1105.4949,579.7039 Q1104.8101,580.7705 1104.8101,582.8706 Q1104.8101,584.9624 1105.4949,586.0291 Q1106.1797,587.0957 1107.5244,587.0957 Q1108.1553,587.0957 1108.7488,586.8259 Q1109.3423,586.5562 1109.9731,585.9751 Z " fill="#000000"/><text fill="#000000" font-family="sans-serif" font-size="14" lengthAdjust="spacing" textLength="48" x="1121.5" y="587.8457">Invoice</text><line style="stroke:#181818;stroke-width:0.5;" x1="1093.5" x2="1171.5" y1="598.5547" y2="598.5547"/><line style="stroke:#181818;stroke-width:0.5;" x1="1093.5" x2="1171.5" y1="606.5547" y2="606.5547"/></g></a><!--class Car--><a href="Examples.BadDesign.WarehouseEntitities.Car-diagram-detailed.svg" target="_top" title="Examples.BadDesign.WarehouseEntitities.Car-diagram-detailed.svg" xlink:actuate="onRequest" xlink:href="Examples.BadDesign.WarehouseEntitities.Car-diagram-detailed.svg" xlink:show="new" xlink:title="Examples.BadDesign.WarehouseEntitities.Car-diagram-detailed.svg" xlink:type="simple"><g id="elem_Car"><rect codeLine="30" fill="#FFFF00" height="48" id="Car" rx="2.5" ry="2.5" style="stroke:#181818;stroke-width:0.5;" width="56" x="1001.5" y="566.5547"/><ellipse cx="1016.5" cy="582.5547" fill="#ADD1B2" rx="11" ry="11" style="stroke:#181818;stroke-width:1.0;"/><path d="M1018.9731,588.6978 Q1018.3921,588.9966 1017.7529,589.146 Q1017.1138,589.2954 1016.4082,589.2954 Q1013.9014,589.2954 1012.5815,587.6436 Q1011.2617,585.9917 1011.2617,582.8706 Q1011.2617,579.7412 1012.5815,578.0894 Q1013.9014,576.4375 1016.4082,576.4375 Q1017.1138,576.4375 1017.7612,576.5869 Q1018.4087,576.7363 1018.9731,577.0352 L1018.9731,579.7578 Q1018.3423,579.1768 1017.7488,578.907 Q1017.1553,578.6372 1016.5244,578.6372 Q1015.1797,578.6372 1014.4949,579.7039 Q1013.8101,580.7705 1013.8101,582.8706 Q1013.8101,584.9624 1014.4949,586.0291 Q1015.1797,587.0957 1016.5244,587.0957 Q1017.1553,587.0957 1017.7488,586.8259 Q1018.3423,586.5562 1018.9731,585.9751 Z " fill="#000000"/><text fill="#000000" font-family="sans-serif" font-size="14" lengthAdjust="spacing" textLength="24" x="1030.5" y="587.8457">Car</text><line style="stroke:#181818;stroke-width:0.5;" x1="1002.5" x2="1056.5" y1="598.5547" y2="598.5547"/><line style="stroke:#181818;stroke-width:0.5;" x1="1002.5" x2="1056.5" y1="606.5547" y2="606.5547"/></g></a><!--class Customer--><a href="Examples.BadDesign.WarehouseEntitities.Customer-diagram-detailed.svg" target="_top" title="Examples.BadDesign.WarehouseEntitities.Customer-diagram-detailed.svg" xlink:actuate="onRequest" xlink:href="Examples.BadDesign.WarehouseEntitities.Customer-diagram-detailed.svg" xlink:show="new" xlink:title="Examples.BadDesign.WarehouseEntitities.Customer-diagram-detailed.svg" xlink:type="simple"><g id="elem_Customer"><rect codeLine="32" fill="#FFFF00" height="48" id="Customer" rx="2.5" ry="2.5" style="stroke:#181818;stroke-width:0.5;" width="99" x="867" y="566.5547"/><ellipse cx="882" cy="582.5547" fill="#ADD1B2" rx="11" ry="11" style="stroke:#181818;stroke-width:1.0;"/><path d="M884.4731,588.6978 Q883.8921,588.9966 883.2529,589.146 Q882.6138,589.2954 881.9082,589.2954 Q879.4014,589.2954 878.0815,587.6436 Q876.7617,585.9917 876.7617,582.8706 Q876.7617,579.7412 878.0815,578.0894 Q879.4014,576.4375 881.9082,576.4375 Q882.6138,576.4375 883.2612,576.5869 Q883.9087,576.7363 884.4731,577.0352 L884.4731,579.7578 Q883.8423,579.1768 883.2488,578.907 Q882.6553,578.6372 882.0244,578.6372 Q880.6797,578.6372 879.9949,579.7039 Q879.3101,580.7705 879.3101,582.8706 Q879.3101,584.9624 879.9949,586.0291 Q880.6797,587.0957 882.0244,587.0957 Q882.6553,587.0957 883.2488,586.8259 Q883.8423,586.5562 884.4731,585.9751 Z " fill="#000000"/><text fill="#000000" font-family="sans-serif" font-size="14" lengthAdjust="spacing" textLength="67" x="896" y="587.8457">Customer</text><line style="stroke:#181818;stroke-width:0.5;" x1="868" x2="965" y1="598.5547" y2="598.5547"/><line style="stroke:#181818;stroke-width:0.5;" x1="868" x2="965" y1="606.5547" y2="606.5547"/></g></a><!--class User--><a href="Examples.BadDesign.WarehouseEntitities.User-diagram-detailed.svg" target="_top" title="Examples.BadDesign.WarehouseEntitities.User-diagram-detailed.svg" xlink:actuate="onRequest" xlink:href="Examples.BadDesign.WarehouseEntitities.User-diagram-detailed.svg" xlink:show="new" xlink:title="Examples.BadDesign.WarehouseEntitities.User-diagram-detailed.svg" xlink:type="simple"><g id="elem_User"><rect codeLine="34" fill="#FFFF00" height="48" id="User" rx="2.5" ry="2.5" style="stroke:#181818;stroke-width:0.5;" width="63" x="769" y="566.5547"/><ellipse cx="784" cy="582.5547" fill="#ADD1B2" rx="11" ry="11" style="stroke:#181818;stroke-width:1.0;"/><path d="M786.4731,588.6978 Q785.8921,588.9966 785.2529,589.146 Q784.6138,589.2954 783.9082,589.2954 Q781.4014,589.2954 780.0815,587.6436 Q778.7617,585.9917 778.7617,582.8706 Q778.7617,579.7412 780.0815,578.0894 Q781.4014,576.4375 783.9082,576.4375 Q784.6138,576.4375 785.2612,576.5869 Q785.9087,576.7363 786.4731,577.0352 L786.4731,579.7578 Q785.8423,579.1768 785.2488,578.907 Q784.6553,578.6372 784.0244,578.6372 Q782.6797,578.6372 781.9949,579.7039 Q781.3101,580.7705 781.3101,582.8706 Q781.3101,584.9624 781.9949,586.0291 Q782.6797,587.0957 784.0244,587.0957 Q784.6553,587.0957 785.2488,586.8259 Q785.8423,586.5562 786.4731,585.9751 Z " fill="#000000"/><text fill="#000000" font-family="sans-serif" font-size="14" lengthAdjust="spacing" textLength="31" x="798" y="587.8457">User</text><line style="stroke:#181818;stroke-width:0.5;" x1="770" x2="831" y1="598.5547" y2="598.5547"/><line style="stroke:#181818;stroke-width:0.5;" x1="770" x2="831" y1="606.5547" y2="606.5547"/></g></a><g id="elem_FloatingNote"><path d="M6,193.5547 L6,441.2129 L459,441.2129 L459,203.5547 L449,193.5547 L6,193.5547 " fill="#FEFFDD" style="stroke:#181818;stroke-width:0.5;"/><path d="M449,193.5547 L449,203.5547 L459,203.5547 L449,193.5547 " fill="#FEFFDD" style="stroke:#181818;stroke-width:1.0;"/><text fill="#000000" font-family="sans-serif" font-size="13" lengthAdjust="spacing" textLength="120" x="12" y="211.123">Your are analyzing:</text><text fill="#000000" font-family="sans-serif" font-size="13" lengthAdjust="spacing" textLength="258" x="12" y="226.4336">Examples.BadDesign.WarehouseEntitities</text><text fill="#000000" font-family="sans-serif" font-size="13" font-weight="bold" lengthAdjust="spacing" textLength="55" x="274" y="226.4336">detailed</text><text fill="#000000" font-family="sans-serif" font-size="13" lengthAdjust="spacing" textLength="4" x="329" y="226.4336">&#160;</text><text fill="#000000" font-family="sans-serif" font-size="13" lengthAdjust="spacing" textLength="4" x="12" y="241.7441">&#160;</text><text fill="#000000" font-family="sans-serif" font-size="13" lengthAdjust="spacing" textLength="229" x="12" y="272.3652">You can click either the namespaces</text><text fill="#000000" font-family="sans-serif" font-size="13" lengthAdjust="spacing" textLength="266" x="12" y="287.6758">or class names for filtering them and their</text><text fill="#000000" font-family="sans-serif" font-size="13" lengthAdjust="spacing" textLength="130" x="12" y="302.9863">direct dependencies.</text><text fill="#000000" font-family="sans-serif" font-size="13" lengthAdjust="spacing" textLength="4" x="12" y="318.2969">&#160;</text><line style="stroke:#181818;stroke-width:1.0;" x1="7" x2="216.5" y1="252.1416" y2="252.1416"/><line style="stroke:#181818;stroke-width:1.0;" x1="7" x2="216.5" y1="254.1416" y2="254.1416"/><text fill="#000000" font-family="sans-serif" font-size="13" lengthAdjust="spacing" textLength="32" x="216.5" y="256.5547">Filter</text><line style="stroke:#181818;stroke-width:1.0;" x1="248.5" x2="458" y1="252.1416" y2="252.1416"/><line style="stroke:#181818;stroke-width:1.0;" x1="248.5" x2="458" y1="254.1416" y2="254.1416"/><ellipse cx="17.5" cy="348.1602" fill="#000000" rx="2.5" ry="2.5" style="stroke:#000000;stroke-width:0.0;"/><text fill="#000000" font-family="sans-serif" font-size="13" lengthAdjust="spacing" textLength="258" x="24" y="352.918">Examples.BadDesign.WarehouseEntitities</text><text fill="#000000" font-family="sans-serif" font-size="13" font-weight="bold" lengthAdjust="spacing" textLength="67" x="286" y="352.918">simplified</text><text fill="#000000" font-family="sans-serif" font-size="13" lengthAdjust="spacing" textLength="4" x="357" y="352.918">:</text><text fill="#000000" font-family="sans-serif" font-size="13" lengthAdjust="spacing" textLength="12" x="12" y="368.2285">&#160;&#160;&#160;</text><a href="Examples.BadDesign.WarehouseEntitities-diagram-simplified.svg" target="_top" title="Examples.BadDesign.WarehouseEntitities-diagram-simplified.svg" xlink:actuate="onRequest" xlink:href="Examples.BadDesign.WarehouseEntitities-diagram-simplified.svg" xlink:show="new" xlink:title="Examples.BadDesign.WarehouseEntitities-diagram-simplified.svg" xlink:type="simple"><text fill="#0000FF" font-family="sans-serif" font-size="13" lengthAdjust="spacing" text-decoration="underline" textLength="414" x="24" y="368.2285">Examples.BadDesign.WarehouseEntitities-diagram-simplified.svg</text></a><ellipse cx="17.5" cy="378.7813" fill="#000000" rx="2.5" ry="2.5" style="stroke:#000000;stroke-width:0.0;"/><text fill="#000000" font-family="sans-serif" font-size="13" lengthAdjust="spacing" textLength="78" x="24" y="383.5391">Full diagram</text><text fill="#000000" font-family="sans-serif" font-size="13" font-weight="bold" lengthAdjust="spacing" textLength="55" x="106" y="383.5391">detailed</text><text fill="#000000" font-family="sans-serif" font-size="13" lengthAdjust="spacing" textLength="23" x="165" y="383.5391">and</text><text fill="#000000" font-family="sans-serif" font-size="13" font-weight="bold" lengthAdjust="spacing" textLength="166" x="192" y="383.5391">grouped per namespace</text><text fill="#000000" font-family="sans-serif" font-size="13" lengthAdjust="spacing" textLength="4" x="358" y="383.5391">:</text><text fill="#000000" font-family="sans-serif" font-size="13" lengthAdjust="spacing" textLength="12" x="12" y="398.8496">&#160;&#160;&#160;</text><a href="full-diagram-detailed-grouped-per-namespace.svg" target="_top" title="full-diagram-detailed-grouped-per-namespace.svg" xlink:actuate="onRequest" xlink:href="full-diagram-detailed-grouped-per-namespace.svg" xlink:show="new" xlink:title="full-diagram-detailed-grouped-per-namespace.svg" xlink:type="simple"><text fill="#0000FF" font-family="sans-serif" font-size="13" lengthAdjust="spacing" text-decoration="underline" textLength="330" x="24" y="398.8496">full-diagram-detailed-grouped-per-namespace.svg</text></a><ellipse cx="17.5" cy="409.4023" fill="#000000" rx="2.5" ry="2.5" style="stroke:#000000;stroke-width:0.0;"/><text fill="#000000" font-family="sans-serif" font-size="13" lengthAdjust="spacing" textLength="41" x="24" y="414.1602">Home:</text><text fill="#000000" font-family="sans-serif" font-size="13" lengthAdjust="spacing" textLength="12" x="12" y="429.4707">&#160;&#160;&#160;</text><a href="index.html" target="_top" title="index.html" xlink:actuate="onRequest" xlink:href="index.html" xlink:show="new" xlink:title="index.html" xlink:type="simple"><text fill="#0000FF" font-family="sans-serif" font-size="13" lengthAdjust="spacing" text-decoration="underline" textLength="68" x="24" y="429.4707">index.html</text></a><line style="stroke:#181818;stroke-width:1.0;" x1="7" x2="195.5" y1="332.6943" y2="332.6943"/><line style="stroke:#181818;stroke-width:1.0;" x1="7" x2="195.5" y1="334.6943" y2="334.6943"/><text fill="#000000" font-family="sans-serif" font-size="13" lengthAdjust="spacing" textLength="74" x="195.5" y="337.1074">Select other</text><line style="stroke:#181818;stroke-width:1.0;" x1="269.5" x2="458" y1="332.6943" y2="332.6943"/><line style="stroke:#181818;stroke-width:1.0;" x1="269.5" x2="458" y1="334.6943" y2="334.6943"/></g><!--link DB to User--><g id="link_DB_User"><path codeLine="41" d="M800.5,506.7947 C800.5,506.7947 800.5,560.2047 800.5,560.2047 " fill="none" id="DB-to-User" style="stroke:#6060BB;stroke-width:1.0;stroke-dasharray:7.0,7.0;"/><polygon fill="#6060BB" points="800.5,565.2047,804.5,556.2047,800.5,560.2047,796.5,556.2047,800.5,565.2047" style="stroke:#6060BB;stroke-width:1.0;"/><text fill="#000000" font-family="sans-serif" font-size="13" lengthAdjust="spacing" textLength="29" x="770.5" y="530.063">uses</text></g><!--link DB to Customer--><g id="link_DB_Customer"><path codeLine="42" d="M916.5,506.7947 C916.5,506.7947 916.5,560.2047 916.5,560.2047 " fill="none" id="DB-to-Customer" style="stroke:#6060BB;stroke-width:1.0;stroke-dasharray:7.0,7.0;"/><polygon fill="#6060BB" points="916.5,565.2047,920.5,556.2047,916.5,560.2047,912.5,556.2047,916.5,565.2047" style="stroke:#6060BB;stroke-width:1.0;"/><text fill="#000000" font-family="sans-serif" font-size="13" lengthAdjust="spacing" textLength="29" x="886.5" y="530.063">uses</text></g><!--link DB to Car--><g id="link_DB_Car"><path codeLine="43" d="M1029.5,506.7947 C1029.5,506.7947 1029.5,560.2047 1029.5,560.2047 " fill="none" id="DB-to-Car" style="stroke:#6060BB;stroke-width:1.0;stroke-dasharray:7.0,7.0;"/><polygon fill="#6060BB" points="1029.5,565.2047,1033.5,556.2047,1029.5,560.2047,1025.5,556.2047,1029.5,565.2047" style="stroke:#6060BB;stroke-width:1.0;"/><text fill="#000000" font-family="sans-serif" font-size="13" lengthAdjust="spacing" textLength="29" x="999.5" y="530.063">uses</text></g><!--link DB to Invoice--><g id="link_DB_Invoice"><path codeLine="44" d="M1132.5,506.7947 C1132.5,506.7947 1132.5,560.2047 1132.5,560.2047 " fill="none" id="DB-to-Invoice" style="stroke:#6060BB;stroke-width:1.0;stroke-dasharray:7.0,7.0;"/><polygon fill="#6060BB" points="1132.5,565.2047,1136.5,556.2047,1132.5,560.2047,1128.5,556.2047,1132.5,565.2047" style="stroke:#6060BB;stroke-width:1.0;"/><text fill="#000000" font-family="sans-serif" font-size="13" lengthAdjust="spacing" textLength="29" x="1102.5" y="530.063">uses</text></g><!--link DB to Complaints--><g id="link_DB_Complaints"><path codeLine="45" d="M1262.5,506.7947 C1262.5,506.7947 1262.5,560.2047 1262.5,560.2047 " fill="none" id="DB-to-Complaints" style="stroke:#6060BB;stroke-width:1.0;stroke-dasharray:7.0,7.0;"/><polygon fill="#6060BB" points="1262.5,565.2047,1266.5,556.2047,1262.5,560.2047,1258.5,556.2047,1262.5,565.2047" style="stroke:#6060BB;stroke-width:1.0;"/><text fill="#000000" font-family="sans-serif" font-size="13" lengthAdjust="spacing" textLength="29" x="1232.5" y="530.063">uses</text></g><!--SRC=[pPTHRzem4CVV-HGd-j0j4scrXpr4m0EbQ7kPDbLJDHKUhEG0guwTsQOjdVRTTqv2A4fWWH54AvMMtFtlTt-VJMqUkKoOPZ48Bj4k4mIbxLorBBS2eMluAmOVh_ktBonE11f_mA8X6ZwJ_ZtJE5SBWxUIWkaR3NXUX9PnWP7dGVVAPVTRKbc4za-rq40fm2GJorSkPy5O7Y8xbcFPwusuiAXxlR4aOGYPX53my16Gspbge1yWMOmcOI49ZANI5C2CoTw5AVqzJIK8n4N7n1MvNxWUouXh32r4cA2CK8R4u6Tbxr2u9yeLSSKzgDs2uHJ7fpnjWde7W8U7UjcTYBCPBL9dhU6RfzbauW162o4W3zXqodNaUJEj5Wb6a90jXIMUjoAOKdgXlqhkv4aTIkeKIUkQdrMCAm5E5htuSnkBoQGDpC18A6R9rg-qxYt8RQzeT3YeDc0uAF5abG5-anx01vYXVTUTAcaXL4BfNllJzQVhmQ3T_xL0lRopRbM3xALxvUBwxmFOI1WCN4gxln6qLhzXsjpJ6cDrcMVtwFinQfcZTVAaUBIflKWYPh4nURBfXq6zmwQqI3tvUXl1TmNBYxKmbWRoj2IheYMQ8fXcwBH4h0ppHTAwXNXIZhncUPaKPJCkhJcjBKNP4j68QtDcq-C6VAHL_7QAgg6unJZOUpIQt7-Ekt2x6ZfSFGuENRrJR5lNYEkqkWUAqOqQJqdvkxlsTEfstiqMiuF3J6by_v_nWEyuBVB166h-jCtnAFZdSdvZsXe_4pdwQ6IowMImVOQYKlPWh8eMt-opEQ8mvu6OiPHTL4gV2M6AKWAyGsRF1315MGF-II6t_ik_UyVLlW-zoTbsLRXOeX3gERyn782LdsBrcVA4ne38yZqCOhevaFpJOW-QFACn9FTXNH_7HTT6kQGhTAqlQ2ps4cvICpGAkbWhQG1Vh6QXfLlzb4w1zRK-eDYo2QtgoxV_S94T5nE_lvVH402zQ-28kiLCDQ7D6f5T7H1D4A-Fn4BzVuUWgj1V]--></g></svg>