<?xml version="1.0" encoding="us-ascii" standalone="no"?><svg xmlns="http://www.w3.org/2000/svg" xmlns:xlink="http://www.w3.org/1999/xlink" contentStyleType="text/css" height="630px" preserveAspectRatio="none" style="width:1283px;height:630px;background:#FFFFFF;" version="1.1" viewBox="0 0 1283 630" width="1283px" zoomAndPan="magnify"><defs/><g><text fill="#000000" font-family="sans-serif" font-size="20" font-weight="bold" lengthAdjust="spacing" textLength="404" x="226.75" y="29.3359">Examples.BetterDesign.CarExample.Car</text><text fill="#000000" font-family="sans-serif" font-size="20" font-weight="bold" lengthAdjust="spacing" textLength="104" x="637.75" y="29.3359">simplified</text><text fill="#000000" font-family="sans-serif" font-size="20" font-weight="bold" lengthAdjust="spacing" textLength="38" x="748.75" y="29.3359">and</text><text fill="#000000" font-family="sans-serif" font-size="20" font-weight="bold" lengthAdjust="spacing" textLength="249" x="793.75" y="29.3359">grouped per namespace</text><!--cluster Examples--><g id="cluster_Examples"><a href="Examples-diagram-simplified-grouped-per-namespace.svg" target="_top" title="Examples-diagram-simplified-grouped-per-namespace.svg" xlink:actuate="onRequest" xlink:href="Examples-diagram-simplified-grouped-per-namespace.svg" xlink:show="new" xlink:title="Examples-diagram-simplified-grouped-per-namespace.svg" xlink:type="simple"><path d="M620,50.5547 L689,50.5547 A3.75,3.75 0 0 1 691.5,53.0547 L698.5,73.043 L1274,73.043 A2.5,2.5 0 0 1 1276.5,75.543 L1276.5,621.0547 A2.5,2.5 0 0 1 1274,623.5547 L620,623.5547 A2.5,2.5 0 0 1 617.5,621.0547 L617.5,53.0547 A2.5,2.5 0 0 1 620,50.5547 " fill="none" style="stroke:#000000;stroke-width:1.5;"/><line style="stroke:#000000;stroke-width:1.5;" x1="617.5" x2="698.5" y1="73.043" y2="73.043"/><text fill="#000000" font-family="sans-serif" font-size="14" font-weight="bold" lengthAdjust="spacing" textLength="68" x="621.5" y="66.0898">Examples</text></a></g><!--cluster BetterDesign--><g id="cluster_BetterDesign"><a href="Examples.BetterDesign-diagram-simplified-grouped-per-namespace.svg" target="_top" title="Examples.BetterDesign-diagram-simplified-grouped-per-namespace.svg" xlink:actuate="onRequest" xlink:href="Examples.BetterDesign-diagram-simplified-grouped-per-namespace.svg" xlink:show="new" xlink:title="Examples.BetterDesign-diagram-simplified-grouped-per-namespace.svg" xlink:type="simple"><path d="M644,93.5547 L738,93.5547 A3.75,3.75 0 0 1 740.5,96.0547 L747.5,116.043 L1250,116.043 A2.5,2.5 0 0 1 1252.5,118.543 L1252.5,597.0547 A2.5,2.5 0 0 1 1250,599.5547 L644,599.5547 A2.5,2.5 0 0 1 641.5,597.0547 L641.5,96.0547 A2.5,2.5 0 0 1 644,93.5547 " fill="none" style="stroke:#000000;stroke-width:1.5;"/><line style="stroke:#000000;stroke-width:1.5;" x1="641.5" x2="747.5" y1="116.043" y2="116.043"/><text fill="#000000" font-family="sans-serif" font-size="14" font-weight="bold" lengthAdjust="spacing" textLength="93" x="645.5" y="109.0898">BetterDesign</text></a></g><!--cluster CarExample--><g id="cluster_CarExample"><a href="Examples.BetterDesign.CarExample-diagram-simplified-grouped-per-namespace.svg" target="_top" title="Examples.BetterDesign.CarExample-diagram-simplified-grouped-per-namespace.svg" xlink:actuate="onRequest" xlink:href="Examples.BetterDesign.CarExample-diagram-simplified-grouped-per-namespace.svg" xlink:show="new" xlink:title="Examples.BetterDesign.CarExample-diagram-simplified-grouped-per-namespace.svg" xlink:type="simple"><path d="M668,136.5547 L753,136.5547 A3.75,3.75 0 0 1 755.5,139.0547 L762.5,159.043 L1144,159.043 A2.5,2.5 0 0 1 1146.5,161.543 L1146.5,573.0547 A2.5,2.5 0 0 1 1144,575.5547 L668,575.5547 A2.5,2.5 0 0 1 665.5,573.0547 L665.5,139.0547 A2.5,2.5 0 0 1 668,136.5547 " fill="none" style="stroke:#000000;stroke-width:1.5;"/><line style="stroke:#000000;stroke-width:1.5;" x1="665.5" x2="762.5" y1="159.043" y2="159.043"/><text fill="#000000" font-family="sans-serif" font-size="14" font-weight="bold" lengthAdjust="spacing" textLength="84" x="669.5" y="152.0898">CarExample</text></a></g><!--cluster CarParts--><g id="cluster_CarParts"><a href="Examples.BetterDesign.CarExample.CarParts-diagram-simplified-grouped-per-namespace.svg" target="_top" title="Examples.BetterDesign.CarExample.CarParts-diagram-simplified-grouped-per-namespace.svg" xlink:actuate="onRequest" xlink:href="Examples.BetterDesign.CarExample.CarParts-diagram-simplified-grouped-per-namespace.svg" xlink:show="new" xlink:title="Examples.BetterDesign.CarExample.CarParts-diagram-simplified-grouped-per-namespace.svg" xlink:type="simple"><path d="M692,452.5547 L754,452.5547 A3.75,3.75 0 0 1 756.5,455.0547 L763.5,475.043 L1120,475.043 A2.5,2.5 0 0 1 1122.5,477.543 L1122.5,549.0547 A2.5,2.5 0 0 1 1120,551.5547 L692,551.5547 A2.5,2.5 0 0 1 689.5,549.0547 L689.5,455.0547 A2.5,2.5 0 0 1 692,452.5547 " fill="none" style="stroke:#000000;stroke-width:1.5;"/><line style="stroke:#000000;stroke-width:1.5;" x1="689.5" x2="763.5" y1="475.043" y2="475.043"/><text fill="#000000" font-family="sans-serif" font-size="14" font-weight="bold" lengthAdjust="spacing" textLength="61" x="693.5" y="468.0898">CarParts</text></a></g><!--class DBCar--><a href="Examples.BetterDesign.DBCar-diagram-simplified-grouped-per-namespace.svg" target="_top" title="Examples.BetterDesign.DBCar-diagram-simplified-grouped-per-namespace.svg" xlink:actuate="onRequest" xlink:href="Examples.BetterDesign.DBCar-diagram-simplified-grouped-per-namespace.svg" xlink:show="new" xlink:title="Examples.BetterDesign.DBCar-diagram-simplified-grouped-per-namespace.svg" xlink:type="simple"><g id="elem_DBCar"><rect codeLine="6" fill="#F1F1F1" height="48" id="DBCar" rx="2.5" ry="2.5" style="stroke:#181818;stroke-width:0.5;" width="74" x="1162.5" y="379.5547"/><ellipse cx="1177.5" cy="395.5547" fill="#ADD1B2" rx="11" ry="11" style="stroke:#181818;stroke-width:1.0;"/><path d="M1179.9731,401.6978 Q1179.3921,401.9966 1178.7529,402.146 Q1178.1138,402.2954 1177.4082,402.2954 Q1174.9014,402.2954 1173.5815,400.6436 Q1172.2617,398.9917 1172.2617,395.8706 Q1172.2617,392.7412 1173.5815,391.0894 Q1174.9014,389.4375 1177.4082,389.4375 Q1178.1138,389.4375 1178.7612,389.5869 Q1179.4087,389.7363 1179.9731,390.0352 L1179.9731,392.7578 Q1179.3423,392.1768 1178.7488,391.907 Q1178.1553,391.6372 1177.5244,391.6372 Q1176.1797,391.6372 1175.4949,392.7039 Q1174.8101,393.7705 1174.8101,395.8706 Q1174.8101,397.9624 1175.4949,399.0291 Q1176.1797,400.0957 1177.5244,400.0957 Q1178.1553,400.0957 1178.7488,399.8259 Q1179.3423,399.5562 1179.9731,398.9751 Z " fill="#000000"/><text fill="#000000" font-family="sans-serif" font-size="14" lengthAdjust="spacing" textLength="42" x="1191.5" y="400.8457">DBCar</text><line style="stroke:#181818;stroke-width:0.5;" x1="1163.5" x2="1235.5" y1="411.5547" y2="411.5547"/><line style="stroke:#181818;stroke-width:0.5;" x1="1163.5" x2="1235.5" y1="419.5547" y2="419.5547"/></g></a><!--class Car--><a href="Examples.BetterDesign.CarExample.Car-diagram-simplified-grouped-per-namespace.svg" target="_top" title="Examples.BetterDesign.CarExample.Car-diagram-simplified-grouped-per-namespace.svg" xlink:actuate="onRequest" xlink:href="Examples.BetterDesign.CarExample.Car-diagram-simplified-grouped-per-namespace.svg" xlink:show="new" xlink:title="Examples.BetterDesign.CarExample.Car-diagram-simplified-grouped-per-namespace.svg" xlink:type="simple"><g id="elem_Car"><rect codeLine="17" fill="#FFFF00" height="48" id="Car" rx="2.5" ry="2.5" style="stroke:#181818;stroke-width:0.5;" width="56" x="938.5" y="379.5547"/><ellipse cx="953.5" cy="395.5547" fill="#ADD1B2" rx="11" ry="11" style="stroke:#181818;stroke-width:1.0;"/><path d="M955.9731,401.6978 Q955.3921,401.9966 954.7529,402.146 Q954.1138,402.2954 953.4082,402.2954 Q950.9014,402.2954 949.5815,400.6436 Q948.2617,398.9917 948.2617,395.8706 Q948.2617,392.7412 949.5815,391.0894 Q950.9014,389.4375 953.4082,389.4375 Q954.1138,389.4375 954.7612,389.5869 Q955.4087,389.7363 955.9731,390.0352 L955.9731,392.7578 Q955.3423,392.1768 954.7488,391.907 Q954.1553,391.6372 953.5244,391.6372 Q952.1797,391.6372 951.4949,392.7039 Q950.8101,393.7705 950.8101,395.8706 Q950.8101,397.9624 951.4949,399.0291 Q952.1797,400.0957 953.5244,400.0957 Q954.1553,400.0957 954.7488,399.8259 Q955.3423,399.5562 955.9731,398.9751 Z " fill="#000000"/><text fill="#000000" font-family="sans-serif" font-size="14" lengthAdjust="spacing" textLength="24" x="967.5" y="400.8457">Car</text><line style="stroke:#181818;stroke-width:0.5;" x1="939.5" x2="993.5" y1="411.5547" y2="411.5547"/><line style="stroke:#181818;stroke-width:0.5;" x1="939.5" x2="993.5" y1="419.5547" y2="419.5547"/></g></a><!--class Vehicle--><a href="Examples.BetterDesign.CarExample.Vehicle-diagram-simplified-grouped-per-namespace.svg" target="_top" title="Examples.BetterDesign.CarExample.Vehicle-diagram-simplified-grouped-per-namespace.svg" xlink:actuate="onRequest" xlink:href="Examples.BetterDesign.CarExample.Vehicle-diagram-simplified-grouped-per-namespace.svg" xlink:show="new" xlink:title="Examples.BetterDesign.CarExample.Vehicle-diagram-simplified-grouped-per-namespace.svg" xlink:type="simple"><g id="elem_Vehicle"><rect codeLine="19" fill="#F1F1F1" height="48" id="Vehicle" rx="2.5" ry="2.5" style="stroke:#181818;stroke-width:0.5;" width="81" x="987" y="171.5547"/><ellipse cx="1002" cy="187.5547" fill="#ADD1B2" rx="11" ry="11" style="stroke:#181818;stroke-width:1.0;"/><path d="M1004.4731,193.6978 Q1003.8921,193.9966 1003.2529,194.146 Q1002.6138,194.2954 1001.9082,194.2954 Q999.4014,194.2954 998.0815,192.6436 Q996.7617,190.9917 996.7617,187.8706 Q996.7617,184.7412 998.0815,183.0894 Q999.4014,181.4375 1001.9082,181.4375 Q1002.6138,181.4375 1003.2612,181.5869 Q1003.9087,181.7363 1004.4731,182.0352 L1004.4731,184.7578 Q1003.8423,184.1768 1003.2488,183.907 Q1002.6553,183.6372 1002.0244,183.6372 Q1000.6797,183.6372 999.9949,184.7039 Q999.3101,185.7705 999.3101,187.8706 Q999.3101,189.9624 999.9949,191.0291 Q1000.6797,192.0957 1002.0244,192.0957 Q1002.6553,192.0957 1003.2488,191.8259 Q1003.8423,191.5562 1004.4731,190.9751 Z " fill="#000000"/><text fill="#000000" font-family="sans-serif" font-size="14" lengthAdjust="spacing" textLength="49" x="1016" y="192.8457">Vehicle</text><line style="stroke:#181818;stroke-width:0.5;" x1="988" x2="1067" y1="203.5547" y2="203.5547"/><line style="stroke:#181818;stroke-width:0.5;" x1="988" x2="1067" y1="211.5547" y2="211.5547"/></g></a><!--class Wheels--><a href="Examples.BetterDesign.CarExample.CarParts.Wheels-diagram-simplified-grouped-per-namespace.svg" target="_top" title="Examples.BetterDesign.CarExample.CarParts.Wheels-diagram-simplified-grouped-per-namespace.svg" xlink:actuate="onRequest" xlink:href="Examples.BetterDesign.CarExample.CarParts.Wheels-diagram-simplified-grouped-per-namespace.svg" xlink:show="new" xlink:title="Examples.BetterDesign.CarExample.CarParts.Wheels-diagram-simplified-grouped-per-namespace.svg" xlink:type="simple"><g id="elem_Wheels"><rect codeLine="33" fill="#F1F1F1" height="48" id="Wheels" rx="2.5" ry="2.5" style="stroke:#181818;stroke-width:0.5;" width="80" x="814.5" y="487.5547"/><ellipse cx="829.5" cy="503.5547" fill="#ADD1B2" rx="11" ry="11" style="stroke:#181818;stroke-width:1.0;"/><path d="M831.9731,509.6978 Q831.3921,509.9966 830.7529,510.146 Q830.1138,510.2954 829.4082,510.2954 Q826.9014,510.2954 825.5815,508.6436 Q824.2617,506.9917 824.2617,503.8706 Q824.2617,500.7412 825.5815,499.0894 Q826.9014,497.4375 829.4082,497.4375 Q830.1138,497.4375 830.7612,497.5869 Q831.4087,497.7363 831.9731,498.0352 L831.9731,500.7578 Q831.3423,500.1768 830.7488,499.907 Q830.1553,499.6372 829.5244,499.6372 Q828.1797,499.6372 827.4949,500.7039 Q826.8101,501.7705 826.8101,503.8706 Q826.8101,505.9624 827.4949,507.0291 Q828.1797,508.0957 829.5244,508.0957 Q830.1553,508.0957 830.7488,507.8259 Q831.3423,507.5562 831.9731,506.9751 Z " fill="#000000"/><text fill="#000000" font-family="sans-serif" font-size="14" lengthAdjust="spacing" textLength="48" x="843.5" y="508.8457">Wheels</text><line style="stroke:#181818;stroke-width:0.5;" x1="815.5" x2="893.5" y1="519.5547" y2="519.5547"/><line style="stroke:#181818;stroke-width:0.5;" x1="815.5" x2="893.5" y1="527.5547" y2="527.5547"/></g></a><!--class Seats--><a href="Examples.BetterDesign.CarExample.CarParts.Seats-diagram-simplified-grouped-per-namespace.svg" target="_top" title="Examples.BetterDesign.CarExample.CarParts.Seats-diagram-simplified-grouped-per-namespace.svg" xlink:actuate="onRequest" xlink:href="Examples.BetterDesign.CarExample.CarParts.Seats-diagram-simplified-grouped-per-namespace.svg" xlink:show="new" xlink:title="Examples.BetterDesign.CarExample.CarParts.Seats-diagram-simplified-grouped-per-namespace.svg" xlink:type="simple"><g id="elem_Seats"><rect codeLine="35" fill="#F1F1F1" height="48" id="Seats" rx="2.5" ry="2.5" style="stroke:#181818;stroke-width:0.5;" width="68" x="1038.5" y="487.5547"/><ellipse cx="1053.5" cy="503.5547" fill="#ADD1B2" rx="11" ry="11" style="stroke:#181818;stroke-width:1.0;"/><path d="M1055.9731,509.6978 Q1055.3921,509.9966 1054.7529,510.146 Q1054.1138,510.2954 1053.4082,510.2954 Q1050.9014,510.2954 1049.5815,508.6436 Q1048.2617,506.9917 1048.2617,503.8706 Q1048.2617,500.7412 1049.5815,499.0894 Q1050.9014,497.4375 1053.4082,497.4375 Q1054.1138,497.4375 1054.7612,497.5869 Q1055.4087,497.7363 1055.9731,498.0352 L1055.9731,500.7578 Q1055.3423,500.1768 1054.7488,499.907 Q1054.1553,499.6372 1053.5244,499.6372 Q1052.1797,499.6372 1051.4949,500.7039 Q1050.8101,501.7705 1050.8101,503.8706 Q1050.8101,505.9624 1051.4949,507.0291 Q1052.1797,508.0957 1053.5244,508.0957 Q1054.1553,508.0957 1054.7488,507.8259 Q1055.3423,507.5562 1055.9731,506.9751 Z " fill="#000000"/><text fill="#000000" font-family="sans-serif" font-size="14" lengthAdjust="spacing" textLength="36" x="1067.5" y="508.8457">Seats</text><line style="stroke:#181818;stroke-width:0.5;" x1="1039.5" x2="1105.5" y1="519.5547" y2="519.5547"/><line style="stroke:#181818;stroke-width:0.5;" x1="1039.5" x2="1105.5" y1="527.5547" y2="527.5547"/></g></a><!--class Driver--><a href="Examples.BetterDesign.CarExample.CarParts.Driver-diagram-simplified-grouped-per-namespace.svg" target="_top" title="Examples.BetterDesign.CarExample.CarParts.Driver-diagram-simplified-grouped-per-namespace.svg" xlink:actuate="onRequest" xlink:href="Examples.BetterDesign.CarExample.CarParts.Driver-diagram-simplified-grouped-per-namespace.svg" xlink:show="new" xlink:title="Examples.BetterDesign.CarExample.CarParts.Driver-diagram-simplified-grouped-per-namespace.svg" xlink:type="simple"><g id="elem_Driver"><rect codeLine="37" fill="#F1F1F1" height="48" id="Driver" rx="2.5" ry="2.5" style="stroke:#181818;stroke-width:0.5;" width="73" x="930" y="487.5547"/><ellipse cx="945" cy="503.5547" fill="#ADD1B2" rx="11" ry="11" style="stroke:#181818;stroke-width:1.0;"/><path d="M947.4731,509.6978 Q946.8921,509.9966 946.2529,510.146 Q945.6138,510.2954 944.9082,510.2954 Q942.4014,510.2954 941.0815,508.6436 Q939.7617,506.9917 939.7617,503.8706 Q939.7617,500.7412 941.0815,499.0894 Q942.4014,497.4375 944.9082,497.4375 Q945.6138,497.4375 946.2612,497.5869 Q946.9087,497.7363 947.4731,498.0352 L947.4731,500.7578 Q946.8423,500.1768 946.2488,499.907 Q945.6553,499.6372 945.0244,499.6372 Q943.6797,499.6372 942.9949,500.7039 Q942.3101,501.7705 942.3101,503.8706 Q942.3101,505.9624 942.9949,507.0291 Q943.6797,508.0957 945.0244,508.0957 Q945.6553,508.0957 946.2488,507.8259 Q946.8423,507.5562 947.4731,506.9751 Z " fill="#000000"/><text fill="#000000" font-family="sans-serif" font-size="14" lengthAdjust="spacing" textLength="41" x="959" y="508.8457">Driver</text><line style="stroke:#181818;stroke-width:0.5;" x1="931" x2="1002" y1="519.5547" y2="519.5547"/><line style="stroke:#181818;stroke-width:0.5;" x1="931" x2="1002" y1="527.5547" y2="527.5547"/></g></a><!--class Doors--><a href="Examples.BetterDesign.CarExample.CarParts.Doors-diagram-simplified-grouped-per-namespace.svg" target="_top" title="Examples.BetterDesign.CarExample.CarParts.Doors-diagram-simplified-grouped-per-namespace.svg" xlink:actuate="onRequest" xlink:href="Examples.BetterDesign.CarExample.CarParts.Doors-diagram-simplified-grouped-per-namespace.svg" xlink:show="new" xlink:title="Examples.BetterDesign.CarExample.CarParts.Doors-diagram-simplified-grouped-per-namespace.svg" xlink:type="simple"><g id="elem_Doors"><rect codeLine="39" fill="#F1F1F1" height="48" id="Doors" rx="2.5" ry="2.5" style="stroke:#181818;stroke-width:0.5;" width="73" x="706" y="487.5547"/><ellipse cx="721" cy="503.5547" fill="#ADD1B2" rx="11" ry="11" style="stroke:#181818;stroke-width:1.0;"/><path d="M723.4731,509.6978 Q722.8921,509.9966 722.2529,510.146 Q721.6138,510.2954 720.9082,510.2954 Q718.4014,510.2954 717.0815,508.6436 Q715.7617,506.9917 715.7617,503.8706 Q715.7617,500.7412 717.0815,499.0894 Q718.4014,497.4375 720.9082,497.4375 Q721.6138,497.4375 722.2612,497.5869 Q722.9087,497.7363 723.4731,498.0352 L723.4731,500.7578 Q722.8423,500.1768 722.2488,499.907 Q721.6553,499.6372 721.0244,499.6372 Q719.6797,499.6372 718.9949,500.7039 Q718.3101,501.7705 718.3101,503.8706 Q718.3101,505.9624 718.9949,507.0291 Q719.6797,508.0957 721.0244,508.0957 Q721.6553,508.0957 722.2488,507.8259 Q722.8423,507.5562 723.4731,506.9751 Z " fill="#000000"/><text fill="#000000" font-family="sans-serif" font-size="14" lengthAdjust="spacing" textLength="41" x="735" y="508.8457">Doors</text><line style="stroke:#181818;stroke-width:0.5;" x1="707" x2="778" y1="519.5547" y2="519.5547"/><line style="stroke:#181818;stroke-width:0.5;" x1="707" x2="778" y1="527.5547" y2="527.5547"/></g></a><g id="elem_FloatingNote"><path d="M6,71.5547 L6,319.2129 L601,319.2129 L601,81.5547 L591,71.5547 L6,71.5547 " fill="#FEFFDD" style="stroke:#181818;stroke-width:0.5;"/><path d="M591,71.5547 L591,81.5547 L601,81.5547 L591,71.5547 " fill="#FEFFDD" style="stroke:#181818;stroke-width:1.0;"/><text fill="#000000" font-family="sans-serif" font-size="13" lengthAdjust="spacing" textLength="120" x="12" y="89.123">Your are analyzing:</text><text fill="#000000" font-family="sans-serif" font-size="13" lengthAdjust="spacing" textLength="247" x="12" y="104.4336">Examples.BetterDesign.CarExample.Car</text><text fill="#000000" font-family="sans-serif" font-size="13" font-weight="bold" lengthAdjust="spacing" textLength="67" x="263" y="104.4336">simplified</text><text fill="#000000" font-family="sans-serif" font-size="13" lengthAdjust="spacing" textLength="23" x="334" y="104.4336">and</text><text fill="#000000" font-family="sans-serif" font-size="13" font-weight="bold" lengthAdjust="spacing" textLength="166" x="361" y="104.4336">grouped per namespace</text><text fill="#000000" font-family="sans-serif" font-size="13" lengthAdjust="spacing" textLength="4" x="12" y="119.7441">&#160;</text><text fill="#000000" font-family="sans-serif" font-size="13" lengthAdjust="spacing" textLength="229" x="12" y="150.3652">You can click either the namespaces</text><text fill="#000000" font-family="sans-serif" font-size="13" lengthAdjust="spacing" textLength="266" x="12" y="165.6758">or class names for filtering them and their</text><text fill="#000000" font-family="sans-serif" font-size="13" lengthAdjust="spacing" textLength="130" x="12" y="180.9863">direct dependencies.</text><text fill="#000000" font-family="sans-serif" font-size="13" lengthAdjust="spacing" textLength="4" x="12" y="196.2969">&#160;</text><line style="stroke:#181818;stroke-width:1.0;" x1="7" x2="287.5" y1="130.1416" y2="130.1416"/><line style="stroke:#181818;stroke-width:1.0;" x1="7" x2="287.5" y1="132.1416" y2="132.1416"/><text fill="#000000" font-family="sans-serif" font-size="13" lengthAdjust="spacing" textLength="32" x="287.5" y="134.5547">Filter</text><line style="stroke:#181818;stroke-width:1.0;" x1="319.5" x2="600" y1="130.1416" y2="130.1416"/><line style="stroke:#181818;stroke-width:1.0;" x1="319.5" x2="600" y1="132.1416" y2="132.1416"/><ellipse cx="17.5" cy="226.1602" fill="#000000" rx="2.5" ry="2.5" style="stroke:#000000;stroke-width:0.0;"/><text fill="#000000" font-family="sans-serif" font-size="13" lengthAdjust="spacing" textLength="247" x="24" y="230.918">Examples.BetterDesign.CarExample.Car</text><text fill="#000000" font-family="sans-serif" font-size="13" font-weight="bold" lengthAdjust="spacing" textLength="55" x="275" y="230.918">detailed</text><text fill="#000000" font-family="sans-serif" font-size="13" lengthAdjust="spacing" textLength="23" x="334" y="230.918">and</text><text fill="#000000" font-family="sans-serif" font-size="13" font-weight="bold" lengthAdjust="spacing" textLength="166" x="361" y="230.918">grouped per namespace</text><text fill="#000000" font-family="sans-serif" font-size="13" lengthAdjust="spacing" textLength="4" x="527" y="230.918">:</text><text fill="#000000" font-family="sans-serif" font-size="13" lengthAdjust="spacing" textLength="12" x="12" y="246.2285">&#160;&#160;&#160;</text><a href="Examples.BetterDesign.CarExample.Car-diagram-detailed-grouped-per-namespace.svg" target="_top" title="Examples.BetterDesign.CarExample.Car-diagram-detailed-grouped-per-namespace.svg" xlink:actuate="onRequest" xlink:href="Examples.BetterDesign.CarExample.Car-diagram-detailed-grouped-per-namespace.svg" xlink:show="new" xlink:title="Examples.BetterDesign.CarExample.Car-diagram-detailed-grouped-per-namespace.svg" xlink:type="simple"><text fill="#0000FF" font-family="sans-serif" font-size="13" lengthAdjust="spacing" text-decoration="underline" textLength="556" x="24" y="246.2285">Examples.BetterDesign.CarExample.Car-diagram-detailed-grouped-per-namespace.svg</text></a><ellipse cx="17.5" cy="256.7813" fill="#000000" rx="2.5" ry="2.5" style="stroke:#000000;stroke-width:0.0;"/><text fill="#000000" font-family="sans-serif" font-size="13" lengthAdjust="spacing" textLength="78" x="24" y="261.5391">Full diagram</text><text fill="#000000" font-family="sans-serif" font-size="13" font-weight="bold" lengthAdjust="spacing" textLength="67" x="106" y="261.5391">simplified</text><text fill="#000000" font-family="sans-serif" font-size="13" lengthAdjust="spacing" textLength="23" x="177" y="261.5391">and</text><text fill="#000000" font-family="sans-serif" font-size="13" font-weight="bold" lengthAdjust="spacing" textLength="166" x="204" y="261.5391">grouped per namespace</text><text fill="#000000" font-family="sans-serif" font-size="13" lengthAdjust="spacing" textLength="4" x="370" y="261.5391">:</text><text fill="#000000" font-family="sans-serif" font-size="13" lengthAdjust="spacing" textLength="12" x="12" y="276.8496">&#160;&#160;&#160;</text><a href="full-diagram-simplified-grouped-per-namespace.svg" target="_top" title="full-diagram-simplified-grouped-per-namespace.svg" xlink:actuate="onRequest" xlink:href="full-diagram-simplified-grouped-per-namespace.svg" xlink:show="new" xlink:title="full-diagram-simplified-grouped-per-namespace.svg" xlink:type="simple"><text fill="#0000FF" font-family="sans-serif" font-size="13" lengthAdjust="spacing" text-decoration="underline" textLength="343" x="24" y="276.8496">full-diagram-simplified-grouped-per-namespace.svg</text></a><ellipse cx="17.5" cy="287.4023" fill="#000000" rx="2.5" ry="2.5" style="stroke:#000000;stroke-width:0.0;"/><text fill="#000000" font-family="sans-serif" font-size="13" lengthAdjust="spacing" textLength="41" x="24" y="292.1602">Home:</text><text fill="#000000" font-family="sans-serif" font-size="13" lengthAdjust="spacing" textLength="12" x="12" y="307.4707">&#160;&#160;&#160;</text><a href="index.html" target="_top" title="index.html" xlink:actuate="onRequest" xlink:href="index.html" xlink:show="new" xlink:title="index.html" xlink:type="simple"><text fill="#0000FF" font-family="sans-serif" font-size="13" lengthAdjust="spacing" text-decoration="underline" textLength="68" x="24" y="307.4707">index.html</text></a><line style="stroke:#181818;stroke-width:1.0;" x1="7" x2="266.5" y1="210.6943" y2="210.6943"/><line style="stroke:#181818;stroke-width:1.0;" x1="7" x2="266.5" y1="212.6943" y2="212.6943"/><text fill="#000000" font-family="sans-serif" font-size="13" lengthAdjust="spacing" textLength="74" x="266.5" y="215.1074">Select other</text><line style="stroke:#181818;stroke-width:1.0;" x1="340.5" x2="600" y1="210.6943" y2="210.6943"/><line style="stroke:#181818;stroke-width:1.0;" x1="340.5" x2="600" y1="212.6943" y2="212.6943"/></g><!--link DBCar to Driver--><g id="link_DBCar_Driver"><path codeLine="56" d="M1162.01,400.5547 C1104.26,400.5547 1000.17,400.5547 1000.17,400.5547 C1000.17,400.5547 1000.17,481.1947 1000.17,481.1947 " fill="none" id="DBCar-to-Driver" style="stroke:#6060BB;stroke-width:1.0;stroke-dasharray:7.0,7.0;"/><polygon fill="#6060BB" points="1000.17,486.1947,1004.17,477.1947,1000.17,481.1947,996.17,477.1947,1000.17,486.1947" style="stroke:#6060BB;stroke-width:1.0;"/><text fill="#000000" font-family="sans-serif" font-size="13" lengthAdjust="spacing" textLength="29" x="1010.77" y="397.123">uses</text></g><!--reverse link Driver to DBCar--><g id="link_Driver_DBCar"><path codeLine="74" d="M997.33,478.5247 C997.33,478.5247 997.33,477.5547 997.33,477.5547 C997.33,477.5547 1224.17,477.5547 1224.17,477.5547 C1224.17,477.5547 1224.17,449.3647 1224.17,427.7847 " fill="none" id="Driver-backto-DBCar" style="stroke:#10BB10;stroke-width:1.0;"/><polygon fill="#10BB10" points="997.33,486.2047,1001.33,480.2047,997.33,474.2047,993.33,480.2047,997.33,486.2047" style="stroke:#10BB10;stroke-width:1.0;"/></g><!--link DBCar to Car--><g id="link_DBCar_Car"><path codeLine="57" d="M1162.06,393.5547 C1162.06,393.5547 1000.68,393.5547 1000.68,393.5547 " fill="none" id="DBCar-to-Car" style="stroke:#6060BB;stroke-width:1.0;stroke-dasharray:7.0,7.0;"/><polygon fill="#6060BB" points="995.68,393.5547,1004.68,397.5547,1000.68,393.5547,1004.68,389.5547,995.68,393.5547" style="stroke:#6060BB;stroke-width:1.0;"/><text fill="#000000" font-family="sans-serif" font-size="13" lengthAdjust="spacing" textLength="29" x="1051.37" y="390.123">uses</text></g><!--link DBCar to Seats--><g id="link_DBCar_Seats"><path codeLine="58" d="M1162.19,414.5547 C1131.72,414.5547 1093.67,414.5547 1093.67,414.5547 C1093.67,414.5547 1093.67,481.0747 1093.67,481.0747 " fill="none" id="DBCar-to-Seats" style="stroke:#6060BB;stroke-width:1.0;stroke-dasharray:7.0,7.0;"/><polygon fill="#6060BB" points="1093.67,486.0747,1097.67,477.0747,1093.67,481.0747,1089.67,477.0747,1093.67,486.0747" style="stroke:#6060BB;stroke-width:1.0;"/><text fill="#000000" font-family="sans-serif" font-size="13" lengthAdjust="spacing" textLength="29" x="1064.67" y="411.123">uses</text></g><!--reverse link Seats to DBCar--><g id="link_Seats_DBCar"><path codeLine="73" d="M1080.83,473.1747 C1080.83,473.1747 1080.83,407.5547 1080.83,407.5547 C1080.83,407.5547 1127.48,407.5547 1162.28,407.5547 " fill="none" id="Seats-backto-DBCar" style="stroke:#10BB10;stroke-width:1.0;"/><polygon fill="#10BB10" points="1080.83,486.1747,1084.83,480.1747,1080.83,474.1747,1076.83,480.1747,1080.83,486.1747" style="stroke:#10BB10;stroke-width:1.0;"/></g><!--link DBCar to Doors--><g id="link_DBCar_Doors"><path codeLine="59" d="M1174.83,427.8747 C1174.83,438.0447 1174.83,447.5547 1174.83,447.5547 C1174.83,447.5547 764.4,447.5547 764.4,447.5547 C764.4,447.5547 764.4,481.3547 764.4,481.3547 " fill="none" id="DBCar-to-Doors" style="stroke:#6060BB;stroke-width:1.0;stroke-dasharray:7.0,7.0;"/><polygon fill="#6060BB" points="764.4,486.3547,768.4,477.3547,764.4,481.3547,760.4,477.3547,764.4,486.3547" style="stroke:#6060BB;stroke-width:1.0;"/><text fill="#000000" font-family="sans-serif" font-size="13" lengthAdjust="spacing" textLength="29" x="932.56" y="444.123">uses</text></g><!--reverse link Doors to DBCar--><g id="link_Doors_DBCar"><path codeLine="75" d="M720.6,473.3247 C720.6,473.3247 720.6,437.5547 720.6,437.5547 C720.6,437.5547 1187.17,437.5547 1187.17,437.5547 C1187.17,437.5547 1187.17,433.3547 1187.17,427.9047 " fill="none" id="Doors-backto-DBCar" style="stroke:#10BB10;stroke-width:1.0;"/><polygon fill="#10BB10" points="720.6,486.3247,724.6,480.3247,720.6,474.3247,716.6,480.3247,720.6,486.3247" style="stroke:#10BB10;stroke-width:1.0;"/></g><!--link DBCar to Wheels--><g id="link_DBCar_Wheels"><path codeLine="60" d="M1199.5,427.7547 C1199.5,445.8747 1199.5,467.5547 1199.5,467.5547 C1199.5,467.5547 874.5,467.5547 874.5,467.5547 C874.5,467.5547 874.5,481.2347 874.5,481.2347 " fill="none" id="DBCar-to-Wheels" style="stroke:#6060BB;stroke-width:1.0;stroke-dasharray:7.0,7.0;"/><polygon fill="#6060BB" points="874.5,486.2347,878.5,477.2347,874.5,481.2347,870.5,477.2347,874.5,486.2347" style="stroke:#6060BB;stroke-width:1.0;"/><text fill="#000000" font-family="sans-serif" font-size="13" lengthAdjust="spacing" textLength="29" x="1020.06" y="464.123">uses</text></g><!--reverse link Wheels to DBCar--><g id="link_Wheels_DBCar"><path codeLine="72" d="M834.5,473.0847 C834.5,473.0847 834.5,457.5547 834.5,457.5547 C834.5,457.5547 1211.83,457.5547 1211.83,457.5547 C1211.83,457.5547 1211.83,442.3147 1211.83,428.0247 " fill="none" id="Wheels-backto-DBCar" style="stroke:#10BB10;stroke-width:1.0;"/><polygon fill="#10BB10" points="834.5,486.0847,838.5,480.0847,834.5,474.0847,830.5,480.0847,834.5,486.0847" style="stroke:#10BB10;stroke-width:1.0;"/></g><!--reverse link Vehicle to Car--><g id="link_Vehicle_Car"><path codeLine="63" d="M990.75,240.8247 C990.75,240.8247 990.75,379.1247 990.75,379.1247 " fill="none" id="Vehicle-backto-Car" style="stroke:#FF0000;stroke-width:1.0;"/><polygon fill="none" points="983.75,240.8247,990.75,220.8247,997.75,240.8247,983.75,240.8247" style="stroke:#FF0000;stroke-width:1.0;"/></g><!--reverse link Car to Wheels--><g id="link_Car_Wheels"><path codeLine="64" d="M924.24,415.5547 C924.24,415.5547 854.5,415.5547 854.5,415.5547 C854.5,415.5547 854.5,458.6347 854.5,487.0847 " fill="none" id="Car-backto-Wheels" style="stroke:#10BB10;stroke-width:1.0;"/><polygon fill="#10BB10" points="937.24,415.5547,931.24,411.5547,925.24,415.5547,931.24,419.5547,937.24,415.5547" style="stroke:#10BB10;stroke-width:1.0;"/></g><!--reverse link Car to Seats--><g id="link_Car_Seats"><path codeLine="65" d="M1008.66,421.5547 C1008.66,421.5547 1048.33,421.5547 1048.33,421.5547 C1048.33,421.5547 1048.33,460.7747 1048.33,487.4347 " fill="none" id="Car-backto-Seats" style="stroke:#10BB10;stroke-width:1.0;"/><polygon fill="#10BB10" points="995.66,421.5547,1001.66,425.5547,1007.66,421.5547,1001.66,417.5547,995.66,421.5547" style="stroke:#10BB10;stroke-width:1.0;"/></g><!--reverse link Car to Driver--><g id="link_Car_Driver"><path codeLine="66" d="M966.5,441.7947 C966.5,441.7947 966.5,487.3947 966.5,487.3947 " fill="none" id="Car-backto-Driver" style="stroke:#10BB10;stroke-width:1.0;"/><polygon fill="#10BB10" points="966.5,428.7947,962.5,434.7947,966.5,440.7947,970.5,434.7947,966.5,428.7947" style="stroke:#10BB10;stroke-width:1.0;"/></g><!--reverse link Car to Doors--><g id="link_Car_Doors"><path codeLine="67" d="M924.14,391.5547 C924.14,391.5547 735.2,391.5547 735.2,391.5547 C735.2,391.5547 735.2,452.2047 735.2,487.2747 " fill="none" id="Car-backto-Doors" style="stroke:#10BB10;stroke-width:1.0;"/><polygon fill="#10BB10" points="937.14,391.5547,931.14,387.5547,925.14,391.5547,931.14,395.5547,937.14,391.5547" style="stroke:#10BB10;stroke-width:1.0;"/></g><!--link Car to Doors--><g id="link_Car_Doors"><path codeLine="68" d="M938.17,403.5547 C879.43,403.5547 749.8,403.5547 749.8,403.5547 C749.8,403.5547 749.8,481.3147 749.8,481.3147 " fill="none" id="Car-to-Doors" style="stroke:#6060BB;stroke-width:1.0;stroke-dasharray:7.0,7.0;"/><polygon fill="#6060BB" points="749.8,486.3147,753.8,477.3147,749.8,481.3147,745.8,477.3147,749.8,486.3147" style="stroke:#6060BB;stroke-width:1.0;"/><text fill="#000000" font-family="sans-serif" font-size="13" lengthAdjust="spacing" textLength="29" x="775.1" y="400.123">uses</text></g><!--reverse link Vehicle to DBCar--><g id="link_Vehicle_DBCar"><path codeLine="69" d="M1058.17,233.7447 C1058.17,233.7447 1058.17,386.5547 1058.17,386.5547 C1058.17,386.5547 1120.49,386.5547 1162.37,386.5547 " fill="none" id="Vehicle-backto-DBCar" style="stroke:#10BB10;stroke-width:1.0;"/><polygon fill="#10BB10" points="1058.17,220.7447,1054.17,226.7447,1058.17,232.7447,1062.17,226.7447,1058.17,220.7447" style="stroke:#10BB10;stroke-width:1.0;"/></g><!--SRC=[xLXTQzim57tthxYi3mM3lNGFVGXD7zAkxAaC2XiZ2KMrhnDHMJAIqg-j_ttN7t7IaRHI5gSCLafnOjrpZgxEkObhRhaic6Ov22xHFXO8IjkP2Yot0k74y2ViV-gTVdvWUI7Gn4Eq5lKv6ZwLyHdJpOto4iBGS7h1Cuvf60AJARqrrMfUO0e5Qf0iHrEm1CFmv6C9VHf8PH4-_51p3KmZrJ3n-CJbj3-ME-SSox4S32wu8BJ1O2o95H8c8H4ykGNaTaRhwS-oni1OAaqBc37rkv3Hwwo289NbwhmYfGkknpBb6XCBAHOeKvG99_arxHMAyeugIKho41ptbw9bNBozE-eO08n6Bh1HojcKJZrQW4SDQ4IWKGiQcxlfP59glPWB0KsHLyyNgZ82Q5cNvM_nVb4vBY0uTVGXdjbSJ2OVW1cu48fPEeLByb3G5hTzNUc59pFyN0Ftef-R-knF18sxrX_R-R0qmQP3hUxwKbQSpy7XcSef-NHY-zegt5F2W3PhWRAGewGqP51fWJEXJ9adHZOhDDvnDJVNPdvptQ9S2qw5IwsNIYBSOCBc1ij0DhF3S0Fqct79pGpJU0LxMRkwZU1vxPB5bkdsl-giDuXMHeB3rDZ6sAzR-uz1vpcu76KSFA8GwhwHy-mZwXlEUEBKcyNIhPBebSMEpsnJGjyZeyjjR4Ze_n3l8SJkzENbLwQjSKnojNQxgU8pLogQ-FiCKNWfQqgsZFHYrFWhlKBcryAwOkywppM_G-qbj2xPlrAbj5z7gug_qBdDEDzFV3OF-7SQyTKsDapl7Ny2m24zfJZzG6ThIucbUpKAUd9HqW0-MCqIIrx9jCgNolkqTgqFWjSU5EBHmN7lk3SSJk9J_p137-WK3UoMeYFOrN7P9KCzFhfaQ3wSMeeTc6I59t3-edloAneTqDIQH4xY0xV_Nn3c4RNagES8-w8ddNBKtkcKeWbMjnoLGTqekip06aSvxAXEpeuztoeFl1tdBjdNQ5qWD_xg1BewSsVatm00]--></g></svg>