<?xml version="1.0" encoding="us-ascii" standalone="no"?><svg xmlns="http://www.w3.org/2000/svg" xmlns:xlink="http://www.w3.org/1999/xlink" contentStyleType="text/css" height="571px" preserveAspectRatio="none" style="width:1232px;height:571px;background:#FFFFFF;" version="1.1" viewBox="0 0 1232 571" width="1232px" zoomAndPan="magnify"><defs/><g><text fill="#000000" font-family="sans-serif" font-size="20" font-weight="bold" lengthAdjust="spacing" textLength="234" x="286" y="29.3359">Example.ClassExample</text><text fill="#000000" font-family="sans-serif" font-size="20" font-weight="bold" lengthAdjust="spacing" textLength="104" x="527" y="29.3359">simplified</text><text fill="#000000" font-family="sans-serif" font-size="20" font-weight="bold" lengthAdjust="spacing" textLength="38" x="638" y="29.3359">and</text><text fill="#000000" font-family="sans-serif" font-size="20" font-weight="bold" lengthAdjust="spacing" textLength="249" x="683" y="29.3359">grouped per namespace</text><!--cluster Example--><g id="cluster_Example"><a href="Example-diagram-simplified-grouped-per-namespace.svg" target="_top" title="Example-diagram-simplified-grouped-per-namespace.svg" xlink:actuate="onRequest" xlink:href="Example-diagram-simplified-grouped-per-namespace.svg" xlink:show="new" xlink:title="Example-diagram-simplified-grouped-per-namespace.svg" xlink:type="simple"><path d="M516.5,115.5547 L577.5,115.5547 A3.75,3.75 0 0 1 580,118.0547 L587,138.043 L1103.5,138.043 A2.5,2.5 0 0 1 1106,140.543 L1106,562.0547 A2.5,2.5 0 0 1 1103.5,564.5547 L516.5,564.5547 A2.5,2.5 0 0 1 514,562.0547 L514,118.0547 A2.5,2.5 0 0 1 516.5,115.5547 " fill="none" style="stroke:#000000;stroke-width:1.5;"/><line style="stroke:#000000;stroke-width:1.5;" x1="514" x2="587" y1="138.043" y2="138.043"/><text fill="#000000" font-family="sans-serif" font-size="14" font-weight="bold" lengthAdjust="spacing" textLength="60" x="518" y="131.0898">Example</text></a></g><!--class ClassExample--><a href="Example.ClassExample-diagram-simplified-grouped-per-namespace.svg" target="_top" title="Example.ClassExample-diagram-simplified-grouped-per-namespace.svg" xlink:actuate="onRequest" xlink:href="Example.ClassExample-diagram-simplified-grouped-per-namespace.svg" xlink:show="new" xlink:title="Example.ClassExample-diagram-simplified-grouped-per-namespace.svg" xlink:type="simple"><g id="elem_ClassExample"><rect codeLine="7" fill="#FFFF00" height="48" id="ClassExample" rx="2.5" ry="2.5" style="stroke:#181818;stroke-width:0.5;" width="127" x="665.5" y="150.5547"/><ellipse cx="680.5" cy="166.5547" fill="#ADD1B2" rx="11" ry="11" style="stroke:#181818;stroke-width:1.0;"/><path d="M682.9731,172.6978 Q682.3921,172.9966 681.7529,173.146 Q681.1138,173.2954 680.4082,173.2954 Q677.9014,173.2954 676.5815,171.6436 Q675.2617,169.9917 675.2617,166.8706 Q675.2617,163.7412 676.5815,162.0894 Q677.9014,160.4375 680.4082,160.4375 Q681.1138,160.4375 681.7612,160.5869 Q682.4087,160.7363 682.9731,161.0352 L682.9731,163.7578 Q682.3423,163.1768 681.7488,162.907 Q681.1553,162.6372 680.5244,162.6372 Q679.1797,162.6372 678.4949,163.7039 Q677.8101,164.7705 677.8101,166.8706 Q677.8101,168.9624 678.4949,170.0291 Q679.1797,171.0957 680.5244,171.0957 Q681.1553,171.0957 681.7488,170.8259 Q682.3423,170.5562 682.9731,169.9751 Z " fill="#000000"/><text fill="#000000" font-family="sans-serif" font-size="14" lengthAdjust="spacing" textLength="95" x="694.5" y="171.8457">ClassExample</text><line style="stroke:#181818;stroke-width:0.5;" x1="666.5" x2="791.5" y1="182.5547" y2="182.5547"/><line style="stroke:#181818;stroke-width:0.5;" x1="666.5" x2="791.5" y1="190.5547" y2="190.5547"/></g></a><!--class BaseExample--><a href="Example.BaseExample-diagram-simplified-grouped-per-namespace.svg" target="_top" title="Example.BaseExample-diagram-simplified-grouped-per-namespace.svg" xlink:actuate="onRequest" xlink:href="Example.BaseExample-diagram-simplified-grouped-per-namespace.svg" xlink:show="new" xlink:title="Example.BaseExample-diagram-simplified-grouped-per-namespace.svg" xlink:type="simple"><g id="elem_BaseExample"><rect codeLine="9" fill="#F1F1F1" height="48" id="BaseExample" rx="2.5" ry="2.5" style="stroke:#181818;stroke-width:0.5;" width="122" x="631" y="375.5547"/><ellipse cx="646" cy="391.5547" fill="#ADD1B2" rx="11" ry="11" style="stroke:#181818;stroke-width:1.0;"/><path d="M648.4731,397.6978 Q647.8921,397.9966 647.2529,398.146 Q646.6138,398.2954 645.9082,398.2954 Q643.4014,398.2954 642.0815,396.6436 Q640.7617,394.9917 640.7617,391.8706 Q640.7617,388.7412 642.0815,387.0894 Q643.4014,385.4375 645.9082,385.4375 Q646.6138,385.4375 647.2612,385.5869 Q647.9087,385.7363 648.4731,386.0352 L648.4731,388.7578 Q647.8423,388.1768 647.2488,387.907 Q646.6553,387.6372 646.0244,387.6372 Q644.6797,387.6372 643.9949,388.7039 Q643.3101,389.7705 643.3101,391.8706 Q643.3101,393.9624 643.9949,395.0291 Q644.6797,396.0957 646.0244,396.0957 Q646.6553,396.0957 647.2488,395.8259 Q647.8423,395.5562 648.4731,394.9751 Z " fill="#000000"/><text fill="#000000" font-family="sans-serif" font-size="14" lengthAdjust="spacing" textLength="90" x="660" y="396.8457">BaseExample</text><line style="stroke:#181818;stroke-width:0.5;" x1="632" x2="752" y1="407.5547" y2="407.5547"/><line style="stroke:#181818;stroke-width:0.5;" x1="632" x2="752" y1="415.5547" y2="415.5547"/></g></a><!--class Useless--><a href="Example.Useless-diagram-simplified-grouped-per-namespace.svg" target="_top" title="Example.Useless-diagram-simplified-grouped-per-namespace.svg" xlink:actuate="onRequest" xlink:href="Example.Useless-diagram-simplified-grouped-per-namespace.svg" xlink:show="new" xlink:title="Example.Useless-diagram-simplified-grouped-per-namespace.svg" xlink:type="simple"><g id="elem_Useless"><rect codeLine="11" fill="#F1F1F1" height="48" id="Useless" rx="2.5" ry="2.5" style="stroke:#181818;stroke-width:0.5;" width="83" x="569.5" y="500.5547"/><ellipse cx="584.5" cy="516.5547" fill="#ADD1B2" rx="11" ry="11" style="stroke:#181818;stroke-width:1.0;"/><path d="M586.9731,522.6978 Q586.3921,522.9966 585.7529,523.146 Q585.1138,523.2954 584.4082,523.2954 Q581.9014,523.2954 580.5815,521.6436 Q579.2617,519.9917 579.2617,516.8706 Q579.2617,513.7412 580.5815,512.0894 Q581.9014,510.4375 584.4082,510.4375 Q585.1138,510.4375 585.7612,510.5869 Q586.4087,510.7363 586.9731,511.0352 L586.9731,513.7578 Q586.3423,513.1768 585.7488,512.907 Q585.1553,512.6372 584.5244,512.6372 Q583.1797,512.6372 582.4949,513.7039 Q581.8101,514.7705 581.8101,516.8706 Q581.8101,518.9624 582.4949,520.0291 Q583.1797,521.0957 584.5244,521.0957 Q585.1553,521.0957 585.7488,520.8259 Q586.3423,520.5562 586.9731,519.9751 Z " fill="#000000"/><text fill="#000000" font-family="sans-serif" font-size="14" lengthAdjust="spacing" textLength="51" x="598.5" y="521.8457">Useless</text><line style="stroke:#181818;stroke-width:0.5;" x1="570.5" x2="651.5" y1="532.5547" y2="532.5547"/><line style="stroke:#181818;stroke-width:0.5;" x1="570.5" x2="651.5" y1="540.5547" y2="540.5547"/></g></a><!--class ClassExample_DOT_InnerClassExample--><a href="Example.ClassExample_DOT_InnerClassExample-diagram-simplified-grouped-per-namespace.svg" target="_top" title="Example.ClassExample_DOT_InnerClassExample-diagram-simplified-grouped-per-namespace.svg" xlink:actuate="onRequest" xlink:href="Example.ClassExample_DOT_InnerClassExample-diagram-simplified-grouped-per-namespace.svg" xlink:show="new" xlink:title="Example.ClassExample_DOT_InnerClassExample-diagram-simplified-grouped-per-namespace.svg" xlink:type="simple"><g id="elem_ClassExample_DOT_InnerClassExample"><rect codeLine="13" fill="#F1F1F1" height="48" id="ClassExample_DOT_InnerClassExample" rx="2.5" ry="2.5" style="stroke:#181818;stroke-width:0.5;" width="302" x="788" y="375.5547"/><ellipse cx="803" cy="391.5547" fill="#ADD1B2" rx="11" ry="11" style="stroke:#181818;stroke-width:1.0;"/><path d="M805.4731,397.6978 Q804.8921,397.9966 804.2529,398.146 Q803.6138,398.2954 802.9082,398.2954 Q800.4014,398.2954 799.0815,396.6436 Q797.7617,394.9917 797.7617,391.8706 Q797.7617,388.7412 799.0815,387.0894 Q800.4014,385.4375 802.9082,385.4375 Q803.6138,385.4375 804.2612,385.5869 Q804.9087,385.7363 805.4731,386.0352 L805.4731,388.7578 Q804.8423,388.1768 804.2488,387.907 Q803.6553,387.6372 803.0244,387.6372 Q801.6797,387.6372 800.9949,388.7039 Q800.3101,389.7705 800.3101,391.8706 Q800.3101,393.9624 800.9949,395.0291 Q801.6797,396.0957 803.0244,396.0957 Q803.6553,396.0957 804.2488,395.8259 Q804.8423,395.5562 805.4731,394.9751 Z " fill="#000000"/><text fill="#000000" font-family="sans-serif" font-size="14" lengthAdjust="spacing" textLength="270" x="817" y="396.8457">ClassExample_DOT_InnerClassExample</text><line style="stroke:#181818;stroke-width:0.5;" x1="789" x2="1089" y1="407.5547" y2="407.5547"/><line style="stroke:#181818;stroke-width:0.5;" x1="789" x2="1089" y1="415.5547" y2="415.5547"/></g></a><g id="elem_FloatingNote"><path d="M6,50.5547 L6,298.2129 L498,298.2129 L498,60.5547 L488,50.5547 L6,50.5547 " fill="#FEFFDD" style="stroke:#181818;stroke-width:0.5;"/><path d="M488,50.5547 L488,60.5547 L498,60.5547 L488,50.5547 " fill="#FEFFDD" style="stroke:#181818;stroke-width:1.0;"/><text fill="#000000" font-family="sans-serif" font-size="13" lengthAdjust="spacing" textLength="120" x="12" y="68.123">Your are analyzing:</text><text fill="#000000" font-family="sans-serif" font-size="13" lengthAdjust="spacing" textLength="144" x="12" y="83.4336">Example.ClassExample</text><text fill="#000000" font-family="sans-serif" font-size="13" font-weight="bold" lengthAdjust="spacing" textLength="67" x="160" y="83.4336">simplified</text><text fill="#000000" font-family="sans-serif" font-size="13" lengthAdjust="spacing" textLength="23" x="231" y="83.4336">and</text><text fill="#000000" font-family="sans-serif" font-size="13" font-weight="bold" lengthAdjust="spacing" textLength="166" x="258" y="83.4336">grouped per namespace</text><text fill="#000000" font-family="sans-serif" font-size="13" lengthAdjust="spacing" textLength="4" x="12" y="98.7441">&#160;</text><text fill="#000000" font-family="sans-serif" font-size="13" lengthAdjust="spacing" textLength="229" x="12" y="129.3652">You can click either the namespaces</text><text fill="#000000" font-family="sans-serif" font-size="13" lengthAdjust="spacing" textLength="266" x="12" y="144.6758">or class names for filtering them and their</text><text fill="#000000" font-family="sans-serif" font-size="13" lengthAdjust="spacing" textLength="130" x="12" y="159.9863">direct dependencies.</text><text fill="#000000" font-family="sans-serif" font-size="13" lengthAdjust="spacing" textLength="4" x="12" y="175.2969">&#160;</text><line style="stroke:#181818;stroke-width:1.0;" x1="7" x2="236" y1="109.1416" y2="109.1416"/><line style="stroke:#181818;stroke-width:1.0;" x1="7" x2="236" y1="111.1416" y2="111.1416"/><text fill="#000000" font-family="sans-serif" font-size="13" lengthAdjust="spacing" textLength="32" x="236" y="113.5547">Filter</text><line style="stroke:#181818;stroke-width:1.0;" x1="268" x2="497" y1="109.1416" y2="109.1416"/><line style="stroke:#181818;stroke-width:1.0;" x1="268" x2="497" y1="111.1416" y2="111.1416"/><ellipse cx="17.5" cy="205.1602" fill="#000000" rx="2.5" ry="2.5" style="stroke:#000000;stroke-width:0.0;"/><text fill="#000000" font-family="sans-serif" font-size="13" lengthAdjust="spacing" textLength="144" x="24" y="209.918">Example.ClassExample</text><text fill="#000000" font-family="sans-serif" font-size="13" font-weight="bold" lengthAdjust="spacing" textLength="55" x="172" y="209.918">detailed</text><text fill="#000000" font-family="sans-serif" font-size="13" lengthAdjust="spacing" textLength="23" x="231" y="209.918">and</text><text fill="#000000" font-family="sans-serif" font-size="13" font-weight="bold" lengthAdjust="spacing" textLength="166" x="258" y="209.918">grouped per namespace</text><text fill="#000000" font-family="sans-serif" font-size="13" lengthAdjust="spacing" textLength="4" x="424" y="209.918">:</text><text fill="#000000" font-family="sans-serif" font-size="13" lengthAdjust="spacing" textLength="12" x="12" y="225.2285">&#160;&#160;&#160;</text><a href="Example.ClassExample-diagram-detailed-grouped-per-namespace.svg" target="_top" title="Example.ClassExample-diagram-detailed-grouped-per-namespace.svg" xlink:actuate="onRequest" xlink:href="Example.ClassExample-diagram-detailed-grouped-per-namespace.svg" xlink:show="new" xlink:title="Example.ClassExample-diagram-detailed-grouped-per-namespace.svg" xlink:type="simple"><text fill="#0000FF" font-family="sans-serif" font-size="13" lengthAdjust="spacing" text-decoration="underline" textLength="453" x="24" y="225.2285">Example.ClassExample-diagram-detailed-grouped-per-namespace.svg</text></a><ellipse cx="17.5" cy="235.7813" fill="#000000" rx="2.5" ry="2.5" style="stroke:#000000;stroke-width:0.0;"/><text fill="#000000" font-family="sans-serif" font-size="13" lengthAdjust="spacing" textLength="78" x="24" y="240.5391">Full diagram</text><text fill="#000000" font-family="sans-serif" font-size="13" font-weight="bold" lengthAdjust="spacing" textLength="67" x="106" y="240.5391">simplified</text><text fill="#000000" font-family="sans-serif" font-size="13" lengthAdjust="spacing" textLength="23" x="177" y="240.5391">and</text><text fill="#000000" font-family="sans-serif" font-size="13" font-weight="bold" lengthAdjust="spacing" textLength="166" x="204" y="240.5391">grouped per namespace</text><text fill="#000000" font-family="sans-serif" font-size="13" lengthAdjust="spacing" textLength="4" x="370" y="240.5391">:</text><text fill="#000000" font-family="sans-serif" font-size="13" lengthAdjust="spacing" textLength="12" x="12" y="255.8496">&#160;&#160;&#160;</text><a href="full-diagram-simplified-grouped-per-namespace.svg" target="_top" title="full-diagram-simplified-grouped-per-namespace.svg" xlink:actuate="onRequest" xlink:href="full-diagram-simplified-grouped-per-namespace.svg" xlink:show="new" xlink:title="full-diagram-simplified-grouped-per-namespace.svg" xlink:type="simple"><text fill="#0000FF" font-family="sans-serif" font-size="13" lengthAdjust="spacing" text-decoration="underline" textLength="343" x="24" y="255.8496">full-diagram-simplified-grouped-per-namespace.svg</text></a><ellipse cx="17.5" cy="266.4023" fill="#000000" rx="2.5" ry="2.5" style="stroke:#000000;stroke-width:0.0;"/><text fill="#000000" font-family="sans-serif" font-size="13" lengthAdjust="spacing" textLength="41" x="24" y="271.1602">Home:</text><text fill="#000000" font-family="sans-serif" font-size="13" lengthAdjust="spacing" textLength="12" x="12" y="286.4707">&#160;&#160;&#160;</text><a href="index.html" target="_top" title="index.html" xlink:actuate="onRequest" xlink:href="index.html" xlink:show="new" xlink:title="index.html" xlink:type="simple"><text fill="#0000FF" font-family="sans-serif" font-size="13" lengthAdjust="spacing" text-decoration="underline" textLength="68" x="24" y="286.4707">index.html</text></a><line style="stroke:#181818;stroke-width:1.0;" x1="7" x2="215" y1="189.6943" y2="189.6943"/><line style="stroke:#181818;stroke-width:1.0;" x1="7" x2="215" y1="191.6943" y2="191.6943"/><text fill="#000000" font-family="sans-serif" font-size="13" lengthAdjust="spacing" textLength="74" x="215" y="194.1074">Select other</text><line style="stroke:#181818;stroke-width:1.0;" x1="289" x2="497" y1="189.6943" y2="189.6943"/><line style="stroke:#181818;stroke-width:1.0;" x1="289" x2="497" y1="191.6943" y2="191.6943"/></g><!--class EnumTest--><a href="EnumTest-diagram-simplified-grouped-per-namespace.svg" target="_top" title="EnumTest-diagram-simplified-grouped-per-namespace.svg" xlink:actuate="onRequest" xlink:href="EnumTest-diagram-simplified-grouped-per-namespace.svg" xlink:show="new" xlink:title="EnumTest-diagram-simplified-grouped-per-namespace.svg" xlink:type="simple"><g id="elem_EnumTest"><rect codeLine="3" fill="#F5FFFA" height="48" id="EnumTest" rx="2.5" ry="2.5" style="stroke:#181818;stroke-width:0.5;" width="100" x="1125" y="375.5547"/><ellipse cx="1140" cy="391.5547" fill="#ADD1B2" rx="11" ry="11" style="stroke:#181818;stroke-width:1.0;"/><path d="M1142.4731,397.6978 Q1141.8921,397.9966 1141.2529,398.146 Q1140.6138,398.2954 1139.9082,398.2954 Q1137.4014,398.2954 1136.0815,396.6436 Q1134.7617,394.9917 1134.7617,391.8706 Q1134.7617,388.7412 1136.0815,387.0894 Q1137.4014,385.4375 1139.9082,385.4375 Q1140.6138,385.4375 1141.2612,385.5869 Q1141.9087,385.7363 1142.4731,386.0352 L1142.4731,388.7578 Q1141.8423,388.1768 1141.2488,387.907 Q1140.6553,387.6372 1140.0244,387.6372 Q1138.6797,387.6372 1137.9949,388.7039 Q1137.3101,389.7705 1137.3101,391.8706 Q1137.3101,393.9624 1137.9949,395.0291 Q1138.6797,396.0957 1140.0244,396.0957 Q1140.6553,396.0957 1141.2488,395.8259 Q1141.8423,395.5562 1142.4731,394.9751 Z " fill="#000000"/><text fill="#000000" font-family="sans-serif" font-size="14" lengthAdjust="spacing" textLength="68" x="1154" y="396.8457">EnumTest</text><line style="stroke:#181818;stroke-width:0.5;" x1="1126" x2="1224" y1="407.5547" y2="407.5547"/><line style="stroke:#181818;stroke-width:0.5;" x1="1126" x2="1224" y1="415.5547" y2="415.5547"/></g></a><!--reverse link BaseExample to ClassExample--><g id="link_BaseExample_ClassExample"><path codeLine="26" d="M719.6,357.1947 C721.34,353.3747 722.85,349.4647 724,345.5547 C738.88,294.9947 735.44,232.2947 731.99,198.9647 " fill="none" id="BaseExample-backto-ClassExample" style="stroke:#FF0000;stroke-width:1.0;"/><polygon fill="none" points="725.42,360.1347,709.62,374.2447,713.17,353.3547,725.42,360.1347" style="stroke:#FF0000;stroke-width:1.0;"/></g><!--link ClassExample to BaseExample--><g id="link_ClassExample_BaseExample"><path codeLine="30" d="M717.88,199.0247 C703.72,231.3947 681.47,291.8647 685,345.5547 C685.51,353.3047 686.43,361.6447 687.45,369.3747 " fill="none" id="ClassExample-to-BaseExample" style="stroke:#909090;stroke-width:1.0;"/><polygon fill="#909090" points="688.23,374.1347,690.9591,364.6715,687.5449,369.1818,683.0345,365.7677,688.23,374.1347" style="stroke:#909090;stroke-width:1.0;"/><text fill="#000000" font-family="sans-serif" font-size="13" lengthAdjust="spacing" textLength="29" x="686" y="342.123">uses</text></g><!--reverse link ClassExample to ClassExample_DOT_InnerClassExample--><g id="link_ClassExample_ClassExample_DOT_InnerClassExample"><path codeLine="27" d="M761.86,210.4447 C805.08,256.3447 879.87,335.7647 916.9,375.0947 " fill="none" id="ClassExample-backto-ClassExample_DOT_InnerClassExample" style="stroke:#10BBBB;stroke-width:1.0;"/><ellipse cx="757.5667" cy="205.8167" fill="#FFFFFF" rx="8" ry="8" style="stroke:#10BBBB;stroke-width:1.0;"/><line style="stroke:#10BBBB;stroke-width:1.0;" x1="763.0534" x2="752.08" y1="211.6387" y2="199.9947"/><line style="stroke:#10BBBB;stroke-width:1.0;" x1="751.7447" x2="763.3887" y1="211.3034" y2="200.33"/></g><!--link ClassExample to Useless--><g id="link_ClassExample_Useless"><path codeLine="28" d="M704.09,198.8047 C669.08,233.3847 606.93,302.1947 583,375.5547 C569.83,415.9247 584.64,464.6347 597.22,494.8547 " fill="none" id="ClassExample-to-Useless" style="stroke:#6060BB;stroke-width:1.0;stroke-dasharray:7.0,7.0;"/><polygon fill="#6060BB" points="599.54,499.2747,599.6972,489.4271,597.5825,494.6738,592.3358,492.5591,599.54,499.2747" style="stroke:#6060BB;stroke-width:1.0;"/><text fill="#000000" font-family="sans-serif" font-size="13" lengthAdjust="spacing" textLength="29" x="584" y="404.623">uses</text></g><!--link ClassExample to EnumTest--><g id="link_ClassExample_EnumTest"><path codeLine="29" d="M775.89,198.9947 C859.87,240.9947 1035.36,328.7347 1122.94,372.5247 " fill="none" id="ClassExample-to-EnumTest" style="stroke:#6060BB;stroke-width:1.0;stroke-dasharray:7.0,7.0;"/><polygon fill="#6060BB" points="1127.07,375.0947,1120.7896,367.5081,1122.5922,372.87,1117.2302,374.6726,1127.07,375.0947" style="stroke:#6060BB;stroke-width:1.0;"/><text fill="#000000" font-family="sans-serif" font-size="13" lengthAdjust="spacing" textLength="29" x="1068" y="342.123">uses</text></g><!--link BaseExample to Useless--><g id="link_BaseExample_Useless"><path codeLine="31" d="M676.57,423.9747 C663.17,444.3247 643.74,473.8447 629.5,495.4547 " fill="none" id="BaseExample-to-Useless" style="stroke:#6060BB;stroke-width:1.0;stroke-dasharray:7.0,7.0;"/><polygon fill="#6060BB" points="626.37,499.2147,634.6696,493.9121,629.127,495.0435,627.9956,489.5009,626.37,499.2147" style="stroke:#6060BB;stroke-width:1.0;"/><text fill="#000000" font-family="sans-serif" font-size="13" lengthAdjust="spacing" textLength="29" x="657" y="467.123">uses</text></g><!--SRC=[jLHHRzem47xFhpYL1wHCoTWUAWq13sL5syEwXtKF4ucGcrp0ccD7jjFITltlEqD2c0W5kZQWo7Rklk_kk_DPRWN2mF07x7_iZIwNB2y4XcF1ZAasuFk6qu9d75FV1oPJEffhLHQOGe4Q9ClH52n1tn-yTr0ZJogBSFPBbHgOHl9Xulw1ota_al_D4Sb83eSJBYpguJ2In089av08dlm6v7P1zlHgV0n4Kcao8CRrAMIqprOG59MppbUajE0waYdNc5X8iK2Peamucd1D-mE5-w8SYIFtOKy-ALh6nU5iI140c4xRO8AKixbcUL231HL8G2311YGqj_CuTh5CIY6WSZf9qpgAZ00sh8tx8TulAiSQWfDYot1XSn77Py0CJ8HYbbI-efxmrZMub6L-ZSQwlAlbYQpG-SQb7MkaH1-z9wyBOw6CgoKZ2GgDjroLPcRAczd6SoOuKMwsSAKamWqch3Jecg7gKyCDq3_Zafi5fg7NUDJbtPJhrAWVQm7QckP04nmhp3qAeUvMglnBTi4Cxd9jdPvArSBnqz05eNs3Nvsy0lQsAhFFtwzdNwL4VOI4xSOlYgWxLdb18os5r-mAkAEf1HIR1H8hHqaJ9eEtxUe6UoSJoXEwD2oEUk3DR5s4hluQ1GqG9GtWqcgMM58_qofl0k-JxOdcTQfjbsFm9vXsgCPnqDfxNkljVKS-7teNzEnnszEoxMZXj7FUEoUuE1pjN2xe0nNN7ELQJzhdVIZsJpttYuDHwxpOST_-U5ImVm40]--></g></svg>