<?xml version="1.0" encoding="us-ascii" standalone="no"?><svg xmlns="http://www.w3.org/2000/svg" xmlns:xlink="http://www.w3.org/1999/xlink" contentStyleType="text/css" height="515px" preserveAspectRatio="none" style="width:2102px;height:515px;background:#FFFFFF;" version="1.1" viewBox="0 0 2102 515" width="2102px" zoomAndPan="magnify"><defs/><g><text fill="#000000" font-family="sans-serif" font-size="20" font-weight="bold" lengthAdjust="spacing" textLength="667" x="514.75" y="29.3359">Examples.BadDesign.BasicExample.BaseExample_DOT_EnumTest</text><text fill="#000000" font-family="sans-serif" font-size="20" font-weight="bold" lengthAdjust="spacing" textLength="84" x="1188.75" y="29.3359">detailed</text><text fill="#000000" font-family="sans-serif" font-size="20" font-weight="bold" lengthAdjust="spacing" textLength="38" x="1279.75" y="29.3359">and</text><text fill="#000000" font-family="sans-serif" font-size="20" font-weight="bold" lengthAdjust="spacing" textLength="249" x="1324.75" y="29.3359">grouped per namespace</text><!--cluster Examples--><g id="cluster_Examples"><a href="Examples-diagram-detailed-grouped-per-namespace.svg" target="_top" title="Examples-diagram-detailed-grouped-per-namespace.svg" xlink:actuate="onRequest" xlink:href="Examples-diagram-detailed-grouped-per-namespace.svg" xlink:show="new" xlink:title="Examples-diagram-detailed-grouped-per-namespace.svg" xlink:type="simple"><path d="M794,50.5547 L863,50.5547 A3.75,3.75 0 0 1 865.5,53.0547 L872.5,73.043 L2093,73.043 A2.5,2.5 0 0 1 2095.5,75.543 L2095.5,505.5547 A2.5,2.5 0 0 1 2093,508.0547 L794,508.0547 A2.5,2.5 0 0 1 791.5,505.5547 L791.5,53.0547 A2.5,2.5 0 0 1 794,50.5547 " fill="none" style="stroke:#000000;stroke-width:1.5;"/><line style="stroke:#000000;stroke-width:1.5;" x1="791.5" x2="872.5" y1="73.043" y2="73.043"/><text fill="#000000" font-family="sans-serif" font-size="14" font-weight="bold" lengthAdjust="spacing" textLength="68" x="795.5" y="66.0898">Examples</text></a></g><!--cluster BadDesign--><g id="cluster_BadDesign"><a href="Examples.BadDesign-diagram-detailed-grouped-per-namespace.svg" target="_top" title="Examples.BadDesign-diagram-detailed-grouped-per-namespace.svg" xlink:actuate="onRequest" xlink:href="Examples.BadDesign-diagram-detailed-grouped-per-namespace.svg" xlink:show="new" xlink:title="Examples.BadDesign-diagram-detailed-grouped-per-namespace.svg" xlink:type="simple"><path d="M818,93.5547 L895,93.5547 A3.75,3.75 0 0 1 897.5,96.0547 L904.5,116.043 L2069,116.043 A2.5,2.5 0 0 1 2071.5,118.543 L2071.5,481.5547 A2.5,2.5 0 0 1 2069,484.0547 L818,484.0547 A2.5,2.5 0 0 1 815.5,481.5547 L815.5,96.0547 A2.5,2.5 0 0 1 818,93.5547 " fill="none" style="stroke:#000000;stroke-width:1.5;"/><line style="stroke:#000000;stroke-width:1.5;" x1="815.5" x2="904.5" y1="116.043" y2="116.043"/><text fill="#000000" font-family="sans-serif" font-size="14" font-weight="bold" lengthAdjust="spacing" textLength="76" x="819.5" y="109.0898">BadDesign</text></a></g><!--cluster BasicExample--><g id="cluster_BasicExample"><a href="Examples.BadDesign.BasicExample-diagram-detailed-grouped-per-namespace.svg" target="_top" title="Examples.BadDesign.BasicExample-diagram-detailed-grouped-per-namespace.svg" xlink:actuate="onRequest" xlink:href="Examples.BadDesign.BasicExample-diagram-detailed-grouped-per-namespace.svg" xlink:show="new" xlink:title="Examples.BadDesign.BasicExample-diagram-detailed-grouped-per-namespace.svg" xlink:type="simple"><path d="M842,136.5547 L940,136.5547 A3.75,3.75 0 0 1 942.5,139.0547 L949.5,159.043 L2045,159.043 A2.5,2.5 0 0 1 2047.5,161.543 L2047.5,457.5547 A2.5,2.5 0 0 1 2045,460.0547 L842,460.0547 A2.5,2.5 0 0 1 839.5,457.5547 L839.5,139.0547 A2.5,2.5 0 0 1 842,136.5547 " fill="none" style="stroke:#000000;stroke-width:1.5;"/><line style="stroke:#000000;stroke-width:1.5;" x1="839.5" x2="949.5" y1="159.043" y2="159.043"/><text fill="#000000" font-family="sans-serif" font-size="14" font-weight="bold" lengthAdjust="spacing" textLength="97" x="843.5" y="152.0898">BasicExample</text></a></g><!--class BaseExample_DOT_EnumTest--><a href="Examples.BadDesign.BasicExample.BaseExample_DOT_EnumTest-diagram-detailed-grouped-per-namespace.svg" target="_top" title="Examples.BadDesign.BasicExample.BaseExample_DOT_EnumTest-diagram-detailed-grouped-per-namespace.svg" xlink:actuate="onRequest" xlink:href="Examples.BadDesign.BasicExample.BaseExample_DOT_EnumTest-diagram-detailed-grouped-per-namespace.svg" xlink:show="new" xlink:title="Examples.BadDesign.BasicExample.BaseExample_DOT_EnumTest-diagram-detailed-grouped-per-namespace.svg" xlink:type="simple"><g id="elem_BaseExample_DOT_EnumTest"><rect codeLine="7" fill="#FFFF00" height="48" id="BaseExample_DOT_EnumTest" rx="2.5" ry="2.5" style="stroke:#181818;stroke-width:0.5;" width="234" x="1326.5" y="396.0547"/><ellipse cx="1341.5" cy="412.0547" fill="#ADD1B2" rx="11" ry="11" style="stroke:#181818;stroke-width:1.0;"/><path d="M1343.9731,418.1978 Q1343.3921,418.4966 1342.7529,418.646 Q1342.1138,418.7954 1341.4082,418.7954 Q1338.9014,418.7954 1337.5815,417.1436 Q1336.2617,415.4917 1336.2617,412.3706 Q1336.2617,409.2412 1337.5815,407.5894 Q1338.9014,405.9375 1341.4082,405.9375 Q1342.1138,405.9375 1342.7612,406.0869 Q1343.4087,406.2363 1343.9731,406.5352 L1343.9731,409.2578 Q1343.3423,408.6768 1342.7488,408.407 Q1342.1553,408.1372 1341.5244,408.1372 Q1340.1797,408.1372 1339.4949,409.2039 Q1338.8101,410.2705 1338.8101,412.3706 Q1338.8101,414.4624 1339.4949,415.5291 Q1340.1797,416.5957 1341.5244,416.5957 Q1342.1553,416.5957 1342.7488,416.3259 Q1343.3423,416.0562 1343.9731,415.4751 Z " fill="#000000"/><text fill="#000000" font-family="sans-serif" font-size="14" lengthAdjust="spacing" textLength="202" x="1355.5" y="417.3457">BaseExample_DOT_EnumTest</text><line style="stroke:#181818;stroke-width:0.5;" x1="1327.5" x2="1559.5" y1="428.0547" y2="428.0547"/><line style="stroke:#181818;stroke-width:0.5;" x1="1327.5" x2="1559.5" y1="436.0547" y2="436.0547"/></g></a><!--class BaseExample--><a href="Examples.BadDesign.BasicExample.BaseExample-diagram-detailed-grouped-per-namespace.svg" target="_top" title="Examples.BadDesign.BasicExample.BaseExample-diagram-detailed-grouped-per-namespace.svg" xlink:actuate="onRequest" xlink:href="Examples.BadDesign.BasicExample.BaseExample-diagram-detailed-grouped-per-namespace.svg" xlink:show="new" xlink:title="Examples.BadDesign.BasicExample.BaseExample-diagram-detailed-grouped-per-namespace.svg" xlink:type="simple"><g id="elem_BaseExample"><rect codeLine="9" fill="#F1F1F1" height="80.9766" id="BaseExample" rx="2.5" ry="2.5" style="stroke:#181818;stroke-width:0.5;" width="1176" x="855.5" y="171.5547"/><ellipse cx="1394.25" cy="187.5547" fill="#ADD1B2" rx="11" ry="11" style="stroke:#181818;stroke-width:1.0;"/><path d="M1396.7231,193.6978 Q1396.1421,193.9966 1395.5029,194.146 Q1394.8638,194.2954 1394.1582,194.2954 Q1391.6514,194.2954 1390.3315,192.6436 Q1389.0117,190.9917 1389.0117,187.8706 Q1389.0117,184.7412 1390.3315,183.0894 Q1391.6514,181.4375 1394.1582,181.4375 Q1394.8638,181.4375 1395.5112,181.5869 Q1396.1587,181.7363 1396.7231,182.0352 L1396.7231,184.7578 Q1396.0923,184.1768 1395.4988,183.907 Q1394.9053,183.6372 1394.2744,183.6372 Q1392.9297,183.6372 1392.2449,184.7039 Q1391.5601,185.7705 1391.5601,187.8706 Q1391.5601,189.9624 1392.2449,191.0291 Q1392.9297,192.0957 1394.2744,192.0957 Q1394.9053,192.0957 1395.4988,191.8259 Q1396.0923,191.5562 1396.7231,190.9751 Z " fill="#000000"/><text fill="#000000" font-family="sans-serif" font-size="14" lengthAdjust="spacing" textLength="90" x="1414.75" y="192.8457">BaseExample</text><line style="stroke:#181818;stroke-width:0.5;" x1="856.5" x2="2030.5" y1="203.5547" y2="203.5547"/><line style="stroke:#181818;stroke-width:0.5;" x1="856.5" x2="2030.5" y1="211.5547" y2="211.5547"/><ellipse cx="866.5" cy="225.2988" fill="#84BE84" rx="3" ry="3" style="stroke:#038048;stroke-width:1.0;"/><text fill="#000000" font-family="sans-serif" font-size="14" lengthAdjust="spacing" textLength="121" x="875.5" y="229.0898">exampleAbstract(</text><text fill="#6060BB" font-family="sans-serif" font-size="14" lengthAdjust="spacing" textLength="722" x="996.5" y="229.0898">useless1:Examples.BadDesign.BasicExample.Useless, useless2:Examples.BadDesign.BasicExample.Useless</text><text fill="#000000" font-family="sans-serif" font-size="14" lengthAdjust="spacing" textLength="9" x="1718.5" y="229.0898">):</text><text fill="#BB6060" font-family="sans-serif" font-size="14" lengthAdjust="spacing" textLength="294" x="1731.5" y="229.0898">Examples.BadDesign.BasicExample.Useless</text><ellipse cx="866.5" cy="241.7871" fill="#84BE84" rx="3" ry="3" style="stroke:#038048;stroke-width:1.0;"/><text fill="#000000" font-family="sans-serif" font-size="14" lengthAdjust="spacing" textLength="101" x="875.5" y="245.5781">otherExample(</text><text fill="#000000" font-family="sans-serif" font-size="14" lengthAdjust="spacing" textLength="9" x="976.5" y="245.5781">):</text><text fill="#BB6060" font-family="sans-serif" font-size="14" lengthAdjust="spacing" textLength="29" x="989.5" y="245.5781">void</text></g></a><g id="elem_FloatingNote"><path d="M6,88.0547 L6,335.7129 L775,335.7129 L775,98.0547 L765,88.0547 L6,88.0547 " fill="#FEFFDD" style="stroke:#181818;stroke-width:0.5;"/><path d="M765,88.0547 L765,98.0547 L775,98.0547 L765,88.0547 " fill="#FEFFDD" style="stroke:#181818;stroke-width:1.0;"/><text fill="#000000" font-family="sans-serif" font-size="13" lengthAdjust="spacing" textLength="120" x="12" y="105.623">Your are analyzing:</text><text fill="#000000" font-family="sans-serif" font-size="13" lengthAdjust="spacing" textLength="408" x="12" y="120.9336">Examples.BadDesign.BasicExample.BaseExample_DOT_EnumTest</text><text fill="#000000" font-family="sans-serif" font-size="13" font-weight="bold" lengthAdjust="spacing" textLength="55" x="424" y="120.9336">detailed</text><text fill="#000000" font-family="sans-serif" font-size="13" lengthAdjust="spacing" textLength="23" x="483" y="120.9336">and</text><text fill="#000000" font-family="sans-serif" font-size="13" font-weight="bold" lengthAdjust="spacing" textLength="166" x="510" y="120.9336">grouped per namespace</text><text fill="#000000" font-family="sans-serif" font-size="13" lengthAdjust="spacing" textLength="4" x="12" y="136.2441">&#160;</text><text fill="#000000" font-family="sans-serif" font-size="13" lengthAdjust="spacing" textLength="229" x="12" y="166.8652">You can click either the namespaces</text><text fill="#000000" font-family="sans-serif" font-size="13" lengthAdjust="spacing" textLength="266" x="12" y="182.1758">or class names for filtering them and their</text><text fill="#000000" font-family="sans-serif" font-size="13" lengthAdjust="spacing" textLength="130" x="12" y="197.4863">direct dependencies.</text><text fill="#000000" font-family="sans-serif" font-size="13" lengthAdjust="spacing" textLength="4" x="12" y="212.7969">&#160;</text><line style="stroke:#181818;stroke-width:1.0;" x1="7" x2="374.5" y1="146.6416" y2="146.6416"/><line style="stroke:#181818;stroke-width:1.0;" x1="7" x2="374.5" y1="148.6416" y2="148.6416"/><text fill="#000000" font-family="sans-serif" font-size="13" lengthAdjust="spacing" textLength="32" x="374.5" y="151.0547">Filter</text><line style="stroke:#181818;stroke-width:1.0;" x1="406.5" x2="774" y1="146.6416" y2="146.6416"/><line style="stroke:#181818;stroke-width:1.0;" x1="406.5" x2="774" y1="148.6416" y2="148.6416"/><ellipse cx="17.5" cy="242.6602" fill="#000000" rx="2.5" ry="2.5" style="stroke:#000000;stroke-width:0.0;"/><text fill="#000000" font-family="sans-serif" font-size="13" lengthAdjust="spacing" textLength="408" x="24" y="247.418">Examples.BadDesign.BasicExample.BaseExample_DOT_EnumTest</text><text fill="#000000" font-family="sans-serif" font-size="13" font-weight="bold" lengthAdjust="spacing" textLength="67" x="436" y="247.418">simplified</text><text fill="#000000" font-family="sans-serif" font-size="13" lengthAdjust="spacing" textLength="23" x="507" y="247.418">and</text><text fill="#000000" font-family="sans-serif" font-size="13" font-weight="bold" lengthAdjust="spacing" textLength="166" x="534" y="247.418">grouped per namespace</text><text fill="#000000" font-family="sans-serif" font-size="13" lengthAdjust="spacing" textLength="4" x="700" y="247.418">:</text><text fill="#000000" font-family="sans-serif" font-size="13" lengthAdjust="spacing" textLength="12" x="12" y="262.7285">&#160;&#160;&#160;</text><a href="Examples.BadDesign.BasicExample.BaseExample_DOT_EnumTest-diagram-simplified-grouped-per-namespace.svg" target="_top" title="Examples.BadDesign.BasicExample.BaseExample_DOT_EnumTest-diagram-simplified-grouped-per-namespace.svg" xlink:actuate="onRequest" xlink:href="Examples.BadDesign.BasicExample.BaseExample_DOT_EnumTest-diagram-simplified-grouped-per-namespace.svg" xlink:show="new" xlink:title="Examples.BadDesign.BasicExample.BaseExample_DOT_EnumTest-diagram-simplified-grouped-per-namespace.svg" xlink:type="simple"><text fill="#0000FF" font-family="sans-serif" font-size="13" lengthAdjust="spacing" text-decoration="underline" textLength="730" x="24" y="262.7285">Examples.BadDesign.BasicExample.BaseExample_DOT_EnumTest-diagram-simplified-grouped-per-namespace.svg</text></a><ellipse cx="17.5" cy="273.2813" fill="#000000" rx="2.5" ry="2.5" style="stroke:#000000;stroke-width:0.0;"/><text fill="#000000" font-family="sans-serif" font-size="13" lengthAdjust="spacing" textLength="78" x="24" y="278.0391">Full diagram</text><text fill="#000000" font-family="sans-serif" font-size="13" font-weight="bold" lengthAdjust="spacing" textLength="55" x="106" y="278.0391">detailed</text><text fill="#000000" font-family="sans-serif" font-size="13" lengthAdjust="spacing" textLength="23" x="165" y="278.0391">and</text><text fill="#000000" font-family="sans-serif" font-size="13" font-weight="bold" lengthAdjust="spacing" textLength="166" x="192" y="278.0391">grouped per namespace</text><text fill="#000000" font-family="sans-serif" font-size="13" lengthAdjust="spacing" textLength="4" x="358" y="278.0391">:</text><text fill="#000000" font-family="sans-serif" font-size="13" lengthAdjust="spacing" textLength="12" x="12" y="293.3496">&#160;&#160;&#160;</text><a href="full-diagram-detailed-grouped-per-namespace.svg" target="_top" title="full-diagram-detailed-grouped-per-namespace.svg" xlink:actuate="onRequest" xlink:href="full-diagram-detailed-grouped-per-namespace.svg" xlink:show="new" xlink:title="full-diagram-detailed-grouped-per-namespace.svg" xlink:type="simple"><text fill="#0000FF" font-family="sans-serif" font-size="13" lengthAdjust="spacing" text-decoration="underline" textLength="330" x="24" y="293.3496">full-diagram-detailed-grouped-per-namespace.svg</text></a><ellipse cx="17.5" cy="303.9023" fill="#000000" rx="2.5" ry="2.5" style="stroke:#000000;stroke-width:0.0;"/><text fill="#000000" font-family="sans-serif" font-size="13" lengthAdjust="spacing" textLength="41" x="24" y="308.6602">Home:</text><text fill="#000000" font-family="sans-serif" font-size="13" lengthAdjust="spacing" textLength="12" x="12" y="323.9707">&#160;&#160;&#160;</text><a href="index.html" target="_top" title="index.html" xlink:actuate="onRequest" xlink:href="index.html" xlink:show="new" xlink:title="index.html" xlink:type="simple"><text fill="#0000FF" font-family="sans-serif" font-size="13" lengthAdjust="spacing" text-decoration="underline" textLength="68" x="24" y="323.9707">index.html</text></a><line style="stroke:#181818;stroke-width:1.0;" x1="7" x2="353.5" y1="227.1943" y2="227.1943"/><line style="stroke:#181818;stroke-width:1.0;" x1="7" x2="353.5" y1="229.1943" y2="229.1943"/><text fill="#000000" font-family="sans-serif" font-size="13" lengthAdjust="spacing" textLength="74" x="353.5" y="231.6074">Select other</text><line style="stroke:#181818;stroke-width:1.0;" x1="427.5" x2="774" y1="227.1943" y2="227.1943"/><line style="stroke:#181818;stroke-width:1.0;" x1="427.5" x2="774" y1="229.1943" y2="229.1943"/></g><!--reverse link BaseExample to BaseExample_DOT_EnumTest--><g id="link_BaseExample_BaseExample_DOT_EnumTest"><path codeLine="26" d="M1443.5,268.6547 C1443.5,268.6547 1443.5,395.8047 1443.5,395.8047 " fill="none" id="BaseExample-backto-BaseExample_DOT_EnumTest" style="stroke:#10BBBB;stroke-width:1.0;"/><ellipse cx="1443.5" cy="261.6547" fill="#FFFFFF" rx="8" ry="8" style="stroke:#10BBBB;stroke-width:1.0;"/><line style="stroke:#10BBBB;stroke-width:1.0;" x1="1443.5" x2="1443.5" y1="269.6547" y2="253.6547"/><line style="stroke:#10BBBB;stroke-width:1.0;" x1="1435.5" x2="1451.5" y1="261.6547" y2="261.6547"/></g><!--SRC=[nLLBRzf04BxpAqRaaDQf2SaX1mH8THBKKtfeUgW0eSKUmoZhNMjtJHuL_pspO1wHYC0qRP65rklvvllciRFsWLGkZCX0aaBtd2DeuwQwviX9XBQb5snTDhktJoBB9Tf6998Rj3HHlB8Kb_l-1SlrwERx_UXM5TazMWT1aA0J93490X0guOs9qKME2UHeG8aCRIvY38BskIVhrfHs2FLVkZ0W3396oESNKfFMGFq35GCrK9rEZwH3q-aC5Ek0M2Y89SKFWEIcRCz_6uo5WTA63OIrorr8-JrTk63TtZfRaFA2p40bP31sa62EAa4L4mUqfFs1qd_HdiIJ1_074LlYNKffVyoSMG3ezuyb2nCI4-wXS4CPbbGXKuLhgeQTJOP37rUla19AM8Ngh9Ic35-phi3xEB_f35SEY3F_r9YwJ0w7TH0MUb8BnzMwu-whhS7h_6zbfn8l_DxXR9FVdKd_I88t1TnVughKdCkoyOzkr0zekuF4dZoZbFgn53q_JderjTK4bie0pW2N-AzZwuo8tQTsgfM3M4jjElMhvbKpYkhTmlAqiFQYjK_HpwNX5oWHbuSYskUUj_kv1My4H96NKEzMyx8ERZ7TIflTaUtXdMbAjftEQwVNEkDRZEV5_piByCXt0t13EU2mCsJTEeLI7rnBRVrT87ZivGPdf0ixiiLujFOpaiJGZVuxhH3660kkchzCoflGaWL-Kb9afvWqjdnliDjXrERlc9Gnl_DzbHp-3ASya0_wmL-pzHBzMJKeUKnhPVcCBCu6rpmrEjieRx7jdihMgfpuix1_Si5j6KN3yFWfzme0]--></g></svg>