<?xml version="1.0" encoding="us-ascii" standalone="no"?><svg xmlns="http://www.w3.org/2000/svg" xmlns:xlink="http://www.w3.org/1999/xlink" contentStyleType="text/css" height="413px" preserveAspectRatio="none" style="width:646px;height:413px;background:#FFFFFF;" version="1.1" viewBox="0 0 646 413" width="646px" zoomAndPan="magnify"><defs/><g><text fill="#000000" font-family="sans-serif" font-size="20" font-weight="bold" lengthAdjust="spacing" textLength="167" x="173.75" y="29.3359">FieldAccessExpr</text><text fill="#000000" font-family="sans-serif" font-size="20" font-weight="bold" lengthAdjust="spacing" textLength="104" x="347.75" y="29.3359">simplified</text><text fill="#000000" font-family="sans-serif" font-size="20" font-weight="bold" lengthAdjust="spacing" textLength="7" x="451.75" y="29.3359">&#160;</text><!--cluster preadapter--><g id="cluster_preadapter"><path d="M414,72.5547 L492,72.5547 A3.75,3.75 0 0 1 494.5,75.0547 L501.5,95.043 L637,95.043 A2.5,2.5 0 0 1 639.5,97.543 L639.5,236.0547 A2.5,2.5 0 0 1 637,238.5547 L414,238.5547 A2.5,2.5 0 0 1 411.5,236.0547 L411.5,75.0547 A2.5,2.5 0 0 1 414,72.5547 " fill="none" style="stroke:#000000;stroke-width:1.5;"/><line style="stroke:#000000;stroke-width:1.5;" x1="411.5" x2="501.5" y1="95.043" y2="95.043"/><text fill="#000000" font-family="sans-serif" font-size="14" font-weight="bold" lengthAdjust="spacing" textLength="77" x="415.5" y="88.0898">preadapter</text></g><!--cluster domain--><g id="cluster_domain"><path d="M438,115.5547 L493,115.5547 A3.75,3.75 0 0 1 495.5,118.0547 L502.5,138.043 L613,138.043 A2.5,2.5 0 0 1 615.5,140.543 L615.5,212.0547 A2.5,2.5 0 0 1 613,214.5547 L438,214.5547 A2.5,2.5 0 0 1 435.5,212.0547 L435.5,118.0547 A2.5,2.5 0 0 1 438,115.5547 " fill="none" style="stroke:#000000;stroke-width:1.5;"/><line style="stroke:#000000;stroke-width:1.5;" x1="435.5" x2="502.5" y1="138.043" y2="138.043"/><text fill="#000000" font-family="sans-serif" font-size="14" font-weight="bold" lengthAdjust="spacing" textLength="54" x="439.5" y="131.0898">domain</text></g><!--class ASTVisitorDebug--><a href="preadapter.domain.ASTVisitorDebug-diagram-simplified.svg" target="_top" title="preadapter.domain.ASTVisitorDebug-diagram-simplified.svg" xlink:actuate="onRequest" xlink:href="preadapter.domain.ASTVisitorDebug-diagram-simplified.svg" xlink:show="new" xlink:title="preadapter.domain.ASTVisitorDebug-diagram-simplified.svg" xlink:type="simple"><g id="elem_ASTVisitorDebug"><rect codeLine="6" fill="#F1F1F1" height="48" id="ASTVisitorDebug" rx="2.5" ry="2.5" style="stroke:#181818;stroke-width:0.5;" width="148" x="451.5" y="150.5547"/><ellipse cx="466.5" cy="166.5547" fill="#ADD1B2" rx="11" ry="11" style="stroke:#181818;stroke-width:1.0;"/><path d="M468.9731,172.6978 Q468.3921,172.9966 467.7529,173.146 Q467.1138,173.2954 466.4082,173.2954 Q463.9014,173.2954 462.5815,171.6436 Q461.2617,169.9917 461.2617,166.8706 Q461.2617,163.7412 462.5815,162.0894 Q463.9014,160.4375 466.4082,160.4375 Q467.1138,160.4375 467.7612,160.5869 Q468.4087,160.7363 468.9731,161.0352 L468.9731,163.7578 Q468.3423,163.1768 467.7488,162.907 Q467.1553,162.6372 466.5244,162.6372 Q465.1797,162.6372 464.4949,163.7039 Q463.8101,164.7705 463.8101,166.8706 Q463.8101,168.9624 464.4949,170.0291 Q465.1797,171.0957 466.5244,171.0957 Q467.1553,171.0957 467.7488,170.8259 Q468.3423,170.5562 468.9731,169.9751 Z " fill="#000000"/><text fill="#000000" font-family="sans-serif" font-size="14" lengthAdjust="spacing" textLength="116" x="480.5" y="171.8457">ASTVisitorDebug</text><line style="stroke:#181818;stroke-width:0.5;" x1="452.5" x2="598.5" y1="182.5547" y2="182.5547"/><line style="stroke:#181818;stroke-width:0.5;" x1="452.5" x2="598.5" y1="190.5547" y2="190.5547"/></g></a><g id="elem_FloatingNote"><path d="M6,50.5547 L6,298.2129 L395,298.2129 L395,60.5547 L385,50.5547 L6,50.5547 " fill="#FEFFDD" style="stroke:#181818;stroke-width:0.5;"/><path d="M385,50.5547 L385,60.5547 L395,60.5547 L385,50.5547 " fill="#FEFFDD" style="stroke:#181818;stroke-width:1.0;"/><text fill="#000000" font-family="sans-serif" font-size="13" lengthAdjust="spacing" textLength="120" x="12" y="68.123">Your are analyzing:</text><text fill="#000000" font-family="sans-serif" font-size="13" lengthAdjust="spacing" textLength="102" x="12" y="83.4336">FieldAccessExpr</text><text fill="#000000" font-family="sans-serif" font-size="13" font-weight="bold" lengthAdjust="spacing" textLength="67" x="118" y="83.4336">simplified</text><text fill="#000000" font-family="sans-serif" font-size="13" lengthAdjust="spacing" textLength="4" x="185" y="83.4336">&#160;</text><text fill="#000000" font-family="sans-serif" font-size="13" lengthAdjust="spacing" textLength="4" x="12" y="98.7441">&#160;</text><text fill="#000000" font-family="sans-serif" font-size="13" lengthAdjust="spacing" textLength="229" x="12" y="129.3652">You can click either the namespaces</text><text fill="#000000" font-family="sans-serif" font-size="13" lengthAdjust="spacing" textLength="266" x="12" y="144.6758">or class names for filtering them and their</text><text fill="#000000" font-family="sans-serif" font-size="13" lengthAdjust="spacing" textLength="130" x="12" y="159.9863">direct dependencies.</text><text fill="#000000" font-family="sans-serif" font-size="13" lengthAdjust="spacing" textLength="4" x="12" y="175.2969">&#160;</text><line style="stroke:#181818;stroke-width:1.0;" x1="7" x2="184.5" y1="109.1416" y2="109.1416"/><line style="stroke:#181818;stroke-width:1.0;" x1="7" x2="184.5" y1="111.1416" y2="111.1416"/><text fill="#000000" font-family="sans-serif" font-size="13" lengthAdjust="spacing" textLength="32" x="184.5" y="113.5547">Filter</text><line style="stroke:#181818;stroke-width:1.0;" x1="216.5" x2="394" y1="109.1416" y2="109.1416"/><line style="stroke:#181818;stroke-width:1.0;" x1="216.5" x2="394" y1="111.1416" y2="111.1416"/><ellipse cx="17.5" cy="205.1602" fill="#000000" rx="2.5" ry="2.5" style="stroke:#000000;stroke-width:0.0;"/><text fill="#000000" font-family="sans-serif" font-size="13" lengthAdjust="spacing" textLength="102" x="24" y="209.918">FieldAccessExpr</text><text fill="#000000" font-family="sans-serif" font-size="13" font-weight="bold" lengthAdjust="spacing" textLength="55" x="130" y="209.918">detailed</text><text fill="#000000" font-family="sans-serif" font-size="13" lengthAdjust="spacing" textLength="4" x="189" y="209.918">:</text><text fill="#000000" font-family="sans-serif" font-size="13" lengthAdjust="spacing" textLength="12" x="12" y="225.2285">&#160;&#160;&#160;</text><a href="FieldAccessExpr-diagram-detailed.svg" target="_top" title="FieldAccessExpr-diagram-detailed.svg" xlink:actuate="onRequest" xlink:href="FieldAccessExpr-diagram-detailed.svg" xlink:show="new" xlink:title="FieldAccessExpr-diagram-detailed.svg" xlink:type="simple"><text fill="#0000FF" font-family="sans-serif" font-size="13" lengthAdjust="spacing" text-decoration="underline" textLength="245" x="24" y="225.2285">FieldAccessExpr-diagram-detailed.svg</text></a><ellipse cx="17.5" cy="235.7813" fill="#000000" rx="2.5" ry="2.5" style="stroke:#000000;stroke-width:0.0;"/><text fill="#000000" font-family="sans-serif" font-size="13" lengthAdjust="spacing" textLength="78" x="24" y="240.5391">Full diagram</text><text fill="#000000" font-family="sans-serif" font-size="13" font-weight="bold" lengthAdjust="spacing" textLength="67" x="106" y="240.5391">simplified</text><text fill="#000000" font-family="sans-serif" font-size="13" lengthAdjust="spacing" textLength="23" x="177" y="240.5391">and</text><text fill="#000000" font-family="sans-serif" font-size="13" font-weight="bold" lengthAdjust="spacing" textLength="166" x="204" y="240.5391">grouped per namespace</text><text fill="#000000" font-family="sans-serif" font-size="13" lengthAdjust="spacing" textLength="4" x="370" y="240.5391">:</text><text fill="#000000" font-family="sans-serif" font-size="13" lengthAdjust="spacing" textLength="12" x="12" y="255.8496">&#160;&#160;&#160;</text><a href="full-diagram-simplified-grouped-per-namespace.svg" target="_top" title="full-diagram-simplified-grouped-per-namespace.svg" xlink:actuate="onRequest" xlink:href="full-diagram-simplified-grouped-per-namespace.svg" xlink:show="new" xlink:title="full-diagram-simplified-grouped-per-namespace.svg" xlink:type="simple"><text fill="#0000FF" font-family="sans-serif" font-size="13" lengthAdjust="spacing" text-decoration="underline" textLength="343" x="24" y="255.8496">full-diagram-simplified-grouped-per-namespace.svg</text></a><ellipse cx="17.5" cy="266.4023" fill="#000000" rx="2.5" ry="2.5" style="stroke:#000000;stroke-width:0.0;"/><text fill="#000000" font-family="sans-serif" font-size="13" lengthAdjust="spacing" textLength="41" x="24" y="271.1602">Home:</text><text fill="#000000" font-family="sans-serif" font-size="13" lengthAdjust="spacing" textLength="12" x="12" y="286.4707">&#160;&#160;&#160;</text><a href="index.html" target="_top" title="index.html" xlink:actuate="onRequest" xlink:href="index.html" xlink:show="new" xlink:title="index.html" xlink:type="simple"><text fill="#0000FF" font-family="sans-serif" font-size="13" lengthAdjust="spacing" text-decoration="underline" textLength="68" x="24" y="286.4707">index.html</text></a><line style="stroke:#181818;stroke-width:1.0;" x1="7" x2="163.5" y1="189.6943" y2="189.6943"/><line style="stroke:#181818;stroke-width:1.0;" x1="7" x2="163.5" y1="191.6943" y2="191.6943"/><text fill="#000000" font-family="sans-serif" font-size="13" lengthAdjust="spacing" textLength="74" x="163.5" y="194.1074">Select other</text><line style="stroke:#181818;stroke-width:1.0;" x1="237.5" x2="394" y1="189.6943" y2="189.6943"/><line style="stroke:#181818;stroke-width:1.0;" x1="237.5" x2="394" y1="191.6943" y2="191.6943"/></g><!--class FieldAccessExpr--><a href="FieldAccessExpr-diagram-simplified.svg" target="_top" title="FieldAccessExpr-diagram-simplified.svg" xlink:actuate="onRequest" xlink:href="FieldAccessExpr-diagram-simplified.svg" xlink:show="new" xlink:title="FieldAccessExpr-diagram-simplified.svg" xlink:type="simple"><g id="elem_FieldAccessExpr"><rect codeLine="4" fill="#FFFF00" height="48" id="FieldAccessExpr" rx="2.5" ry="2.5" style="stroke:#181818;stroke-width:0.5;" width="143" x="454" y="358.5547"/><ellipse cx="469" cy="374.5547" fill="#ADD1B2" rx="11" ry="11" style="stroke:#181818;stroke-width:1.0;"/><path d="M471.4731,380.6978 Q470.8921,380.9966 470.2529,381.146 Q469.6138,381.2954 468.9082,381.2954 Q466.4014,381.2954 465.0815,379.6436 Q463.7617,377.9917 463.7617,374.8706 Q463.7617,371.7412 465.0815,370.0894 Q466.4014,368.4375 468.9082,368.4375 Q469.6138,368.4375 470.2612,368.5869 Q470.9087,368.7363 471.4731,369.0352 L471.4731,371.7578 Q470.8423,371.1768 470.2488,370.907 Q469.6553,370.6372 469.0244,370.6372 Q467.6797,370.6372 466.9949,371.7039 Q466.3101,372.7705 466.3101,374.8706 Q466.3101,376.9624 466.9949,378.0291 Q467.6797,379.0957 469.0244,379.0957 Q469.6553,379.0957 470.2488,378.8259 Q470.8423,378.5562 471.4731,377.9751 Z " fill="#000000"/><text fill="#000000" font-family="sans-serif" font-size="14" lengthAdjust="spacing" textLength="111" x="483" y="379.8457">FieldAccessExpr</text><line style="stroke:#181818;stroke-width:0.5;" x1="455" x2="596" y1="390.5547" y2="390.5547"/><line style="stroke:#181818;stroke-width:0.5;" x1="455" x2="596" y1="398.5547" y2="398.5547"/></g></a><!--link ASTVisitorDebug to FieldAccessExpr--><g id="link_ASTVisitorDebug_FieldAccessExpr"><path codeLine="15" d="M525.5,198.8247 C525.5,198.8247 525.5,352.1247 525.5,352.1247 " fill="none" id="ASTVisitorDebug-to-FieldAccessExpr" style="stroke:#6060BB;stroke-width:1.0;stroke-dasharray:7.0,7.0;"/><polygon fill="#6060BB" points="525.5,357.1247,529.5,348.1247,525.5,352.1247,521.5,348.1247,525.5,357.1247" style="stroke:#6060BB;stroke-width:1.0;"/><text fill="#000000" font-family="sans-serif" font-size="13" lengthAdjust="spacing" textLength="29" x="495.5" y="272.043">uses</text></g><!--SRC=[jLDDQzj04BthLmp98R0WrUIGWuaDILhJKoufXMBfCD6Ev26htMLtrTef_UyT-HDiWfD3T12Izirxyzv3yOMjnu0T6BQKLfx0XRHmMU9a26uZlzBuUZITCHbzLzSKuxUb3w1KvCuRRfYqKd3xPG1EC-iImSKlrmV0G80MpUgLRJikxHc6qfPsCfcnIHGcaz8A1zHeeJPSlm1nMb00kO75Zg97uP4P5mI0CMw-GYFlpPf2D0Tq9oleuO53QJK7gXDeycGrsPef5XlP9pB3YHj41d45fzjgIiXclQku0O3v_0YKQyPMeintq2B-RgjgJTSR0zlZO-V3XagrmVMUD7YnkRUer4wg4O8z_s4ytuxbCfRlnmwwtrr7EmeMqyjYaJfJLHU04MR6OPAW7gMqR1FZiUstFHvssAZ1vOgCSN_WR_OlWsqhFX1gzD97eLs7R8kxfny_EN9ouIizzwq8dCMyBIbQ0A9s9Vczwu9Fmrx1mzfn82EPEXk1bYbWdQJI9hZkqEbOi1-4dqIKdG-sc5_UZ6v6z_TLCJsf5SRGH_bV_WC0]--></g></svg>