<?xml version="1.0" encoding="us-ascii" standalone="no"?><svg xmlns="http://www.w3.org/2000/svg" xmlns:xlink="http://www.w3.org/1999/xlink" contentStyleType="text/css" height="413px" preserveAspectRatio="none" style="width:683px;height:413px;background:#FFFFFF;" version="1.1" viewBox="0 0 683 413" width="683px" zoomAndPan="magnify"><defs/><g><text fill="#000000" font-family="sans-serif" font-size="20" font-weight="bold" lengthAdjust="spacing" textLength="127" x="65" y="29.3359">ForEachStmt</text><text fill="#000000" font-family="sans-serif" font-size="20" font-weight="bold" lengthAdjust="spacing" textLength="104" x="199" y="29.3359">simplified</text><text fill="#000000" font-family="sans-serif" font-size="20" font-weight="bold" lengthAdjust="spacing" textLength="38" x="310" y="29.3359">and</text><text fill="#000000" font-family="sans-serif" font-size="20" font-weight="bold" lengthAdjust="spacing" textLength="249" x="355" y="29.3359">grouped per namespace</text><!--cluster preadapter--><g id="cluster_preadapter"><a href="preadapter-diagram-simplified-grouped-per-namespace.svg" target="_top" title="preadapter-diagram-simplified-grouped-per-namespace.svg" xlink:actuate="onRequest" xlink:href="preadapter-diagram-simplified-grouped-per-namespace.svg" xlink:show="new" xlink:title="preadapter-diagram-simplified-grouped-per-namespace.svg" xlink:type="simple"><path d="M450.5,72.5547 L528.5,72.5547 A3.75,3.75 0 0 1 531,75.0547 L538,95.043 L673.5,95.043 A2.5,2.5 0 0 1 676,97.543 L676,236.0547 A2.5,2.5 0 0 1 673.5,238.5547 L450.5,238.5547 A2.5,2.5 0 0 1 448,236.0547 L448,75.0547 A2.5,2.5 0 0 1 450.5,72.5547 " fill="none" style="stroke:#000000;stroke-width:1.5;"/><line style="stroke:#000000;stroke-width:1.5;" x1="448" x2="538" y1="95.043" y2="95.043"/><text fill="#000000" font-family="sans-serif" font-size="14" font-weight="bold" lengthAdjust="spacing" textLength="77" x="452" y="88.0898">preadapter</text></a></g><!--cluster domain--><g id="cluster_domain"><a href="preadapter.domain-diagram-simplified-grouped-per-namespace.svg" target="_top" title="preadapter.domain-diagram-simplified-grouped-per-namespace.svg" xlink:actuate="onRequest" xlink:href="preadapter.domain-diagram-simplified-grouped-per-namespace.svg" xlink:show="new" xlink:title="preadapter.domain-diagram-simplified-grouped-per-namespace.svg" xlink:type="simple"><path d="M474.5,115.5547 L529.5,115.5547 A3.75,3.75 0 0 1 532,118.0547 L539,138.043 L649.5,138.043 A2.5,2.5 0 0 1 652,140.543 L652,212.0547 A2.5,2.5 0 0 1 649.5,214.5547 L474.5,214.5547 A2.5,2.5 0 0 1 472,212.0547 L472,118.0547 A2.5,2.5 0 0 1 474.5,115.5547 " fill="none" style="stroke:#000000;stroke-width:1.5;"/><line style="stroke:#000000;stroke-width:1.5;" x1="472" x2="539" y1="138.043" y2="138.043"/><text fill="#000000" font-family="sans-serif" font-size="14" font-weight="bold" lengthAdjust="spacing" textLength="54" x="476" y="131.0898">domain</text></a></g><!--class ASTVisitorDebug--><a href="preadapter.domain.ASTVisitorDebug-diagram-simplified-grouped-per-namespace.svg" target="_top" title="preadapter.domain.ASTVisitorDebug-diagram-simplified-grouped-per-namespace.svg" xlink:actuate="onRequest" xlink:href="preadapter.domain.ASTVisitorDebug-diagram-simplified-grouped-per-namespace.svg" xlink:show="new" xlink:title="preadapter.domain.ASTVisitorDebug-diagram-simplified-grouped-per-namespace.svg" xlink:type="simple"><g id="elem_ASTVisitorDebug"><rect codeLine="9" fill="#F1F1F1" height="48" id="ASTVisitorDebug" rx="2.5" ry="2.5" style="stroke:#181818;stroke-width:0.5;" width="148" x="488" y="150.5547"/><ellipse cx="503" cy="166.5547" fill="#ADD1B2" rx="11" ry="11" style="stroke:#181818;stroke-width:1.0;"/><path d="M505.4731,172.6978 Q504.8921,172.9966 504.2529,173.146 Q503.6138,173.2954 502.9082,173.2954 Q500.4014,173.2954 499.0815,171.6436 Q497.7617,169.9917 497.7617,166.8706 Q497.7617,163.7412 499.0815,162.0894 Q500.4014,160.4375 502.9082,160.4375 Q503.6138,160.4375 504.2612,160.5869 Q504.9087,160.7363 505.4731,161.0352 L505.4731,163.7578 Q504.8423,163.1768 504.2488,162.907 Q503.6553,162.6372 503.0244,162.6372 Q501.6797,162.6372 500.9949,163.7039 Q500.3101,164.7705 500.3101,166.8706 Q500.3101,168.9624 500.9949,170.0291 Q501.6797,171.0957 503.0244,171.0957 Q503.6553,171.0957 504.2488,170.8259 Q504.8423,170.5562 505.4731,169.9751 Z " fill="#000000"/><text fill="#000000" font-family="sans-serif" font-size="14" lengthAdjust="spacing" textLength="116" x="517" y="171.8457">ASTVisitorDebug</text><line style="stroke:#181818;stroke-width:0.5;" x1="489" x2="635" y1="182.5547" y2="182.5547"/><line style="stroke:#181818;stroke-width:0.5;" x1="489" x2="635" y1="190.5547" y2="190.5547"/></g></a><g id="elem_FloatingNote"><path d="M6,50.5547 L6,298.2129 L432,298.2129 L432,60.5547 L422,50.5547 L6,50.5547 " fill="#FEFFDD" style="stroke:#181818;stroke-width:0.5;"/><path d="M422,50.5547 L422,60.5547 L432,60.5547 L422,50.5547 " fill="#FEFFDD" style="stroke:#181818;stroke-width:1.0;"/><text fill="#000000" font-family="sans-serif" font-size="13" lengthAdjust="spacing" textLength="120" x="12" y="68.123">Your are analyzing:</text><text fill="#000000" font-family="sans-serif" font-size="13" lengthAdjust="spacing" textLength="78" x="12" y="83.4336">ForEachStmt</text><text fill="#000000" font-family="sans-serif" font-size="13" font-weight="bold" lengthAdjust="spacing" textLength="67" x="94" y="83.4336">simplified</text><text fill="#000000" font-family="sans-serif" font-size="13" lengthAdjust="spacing" textLength="23" x="165" y="83.4336">and</text><text fill="#000000" font-family="sans-serif" font-size="13" font-weight="bold" lengthAdjust="spacing" textLength="166" x="192" y="83.4336">grouped per namespace</text><text fill="#000000" font-family="sans-serif" font-size="13" lengthAdjust="spacing" textLength="4" x="12" y="98.7441">&#160;</text><text fill="#000000" font-family="sans-serif" font-size="13" lengthAdjust="spacing" textLength="229" x="12" y="129.3652">You can click either the namespaces</text><text fill="#000000" font-family="sans-serif" font-size="13" lengthAdjust="spacing" textLength="266" x="12" y="144.6758">or class names for filtering them and their</text><text fill="#000000" font-family="sans-serif" font-size="13" lengthAdjust="spacing" textLength="130" x="12" y="159.9863">direct dependencies.</text><text fill="#000000" font-family="sans-serif" font-size="13" lengthAdjust="spacing" textLength="4" x="12" y="175.2969">&#160;</text><line style="stroke:#181818;stroke-width:1.0;" x1="7" x2="203" y1="109.1416" y2="109.1416"/><line style="stroke:#181818;stroke-width:1.0;" x1="7" x2="203" y1="111.1416" y2="111.1416"/><text fill="#000000" font-family="sans-serif" font-size="13" lengthAdjust="spacing" textLength="32" x="203" y="113.5547">Filter</text><line style="stroke:#181818;stroke-width:1.0;" x1="235" x2="431" y1="109.1416" y2="109.1416"/><line style="stroke:#181818;stroke-width:1.0;" x1="235" x2="431" y1="111.1416" y2="111.1416"/><ellipse cx="17.5" cy="205.1602" fill="#000000" rx="2.5" ry="2.5" style="stroke:#000000;stroke-width:0.0;"/><text fill="#000000" font-family="sans-serif" font-size="13" lengthAdjust="spacing" textLength="78" x="24" y="209.918">ForEachStmt</text><text fill="#000000" font-family="sans-serif" font-size="13" font-weight="bold" lengthAdjust="spacing" textLength="55" x="106" y="209.918">detailed</text><text fill="#000000" font-family="sans-serif" font-size="13" lengthAdjust="spacing" textLength="23" x="165" y="209.918">and</text><text fill="#000000" font-family="sans-serif" font-size="13" font-weight="bold" lengthAdjust="spacing" textLength="166" x="192" y="209.918">grouped per namespace</text><text fill="#000000" font-family="sans-serif" font-size="13" lengthAdjust="spacing" textLength="4" x="358" y="209.918">:</text><text fill="#000000" font-family="sans-serif" font-size="13" lengthAdjust="spacing" textLength="12" x="12" y="225.2285">&#160;&#160;&#160;</text><a href="ForEachStmt-diagram-detailed-grouped-per-namespace.svg" target="_top" title="ForEachStmt-diagram-detailed-grouped-per-namespace.svg" xlink:actuate="onRequest" xlink:href="ForEachStmt-diagram-detailed-grouped-per-namespace.svg" xlink:show="new" xlink:title="ForEachStmt-diagram-detailed-grouped-per-namespace.svg" xlink:type="simple"><text fill="#0000FF" font-family="sans-serif" font-size="13" lengthAdjust="spacing" text-decoration="underline" textLength="387" x="24" y="225.2285">ForEachStmt-diagram-detailed-grouped-per-namespace.svg</text></a><ellipse cx="17.5" cy="235.7813" fill="#000000" rx="2.5" ry="2.5" style="stroke:#000000;stroke-width:0.0;"/><text fill="#000000" font-family="sans-serif" font-size="13" lengthAdjust="spacing" textLength="78" x="24" y="240.5391">Full diagram</text><text fill="#000000" font-family="sans-serif" font-size="13" font-weight="bold" lengthAdjust="spacing" textLength="67" x="106" y="240.5391">simplified</text><text fill="#000000" font-family="sans-serif" font-size="13" lengthAdjust="spacing" textLength="23" x="177" y="240.5391">and</text><text fill="#000000" font-family="sans-serif" font-size="13" font-weight="bold" lengthAdjust="spacing" textLength="166" x="204" y="240.5391">grouped per namespace</text><text fill="#000000" font-family="sans-serif" font-size="13" lengthAdjust="spacing" textLength="4" x="370" y="240.5391">:</text><text fill="#000000" font-family="sans-serif" font-size="13" lengthAdjust="spacing" textLength="12" x="12" y="255.8496">&#160;&#160;&#160;</text><a href="full-diagram-simplified-grouped-per-namespace.svg" target="_top" title="full-diagram-simplified-grouped-per-namespace.svg" xlink:actuate="onRequest" xlink:href="full-diagram-simplified-grouped-per-namespace.svg" xlink:show="new" xlink:title="full-diagram-simplified-grouped-per-namespace.svg" xlink:type="simple"><text fill="#0000FF" font-family="sans-serif" font-size="13" lengthAdjust="spacing" text-decoration="underline" textLength="343" x="24" y="255.8496">full-diagram-simplified-grouped-per-namespace.svg</text></a><ellipse cx="17.5" cy="266.4023" fill="#000000" rx="2.5" ry="2.5" style="stroke:#000000;stroke-width:0.0;"/><text fill="#000000" font-family="sans-serif" font-size="13" lengthAdjust="spacing" textLength="41" x="24" y="271.1602">Home:</text><text fill="#000000" font-family="sans-serif" font-size="13" lengthAdjust="spacing" textLength="12" x="12" y="286.4707">&#160;&#160;&#160;</text><a href="index.html" target="_top" title="index.html" xlink:actuate="onRequest" xlink:href="index.html" xlink:show="new" xlink:title="index.html" xlink:type="simple"><text fill="#0000FF" font-family="sans-serif" font-size="13" lengthAdjust="spacing" text-decoration="underline" textLength="68" x="24" y="286.4707">index.html</text></a><line style="stroke:#181818;stroke-width:1.0;" x1="7" x2="182" y1="189.6943" y2="189.6943"/><line style="stroke:#181818;stroke-width:1.0;" x1="7" x2="182" y1="191.6943" y2="191.6943"/><text fill="#000000" font-family="sans-serif" font-size="13" lengthAdjust="spacing" textLength="74" x="182" y="194.1074">Select other</text><line style="stroke:#181818;stroke-width:1.0;" x1="256" x2="431" y1="189.6943" y2="189.6943"/><line style="stroke:#181818;stroke-width:1.0;" x1="256" x2="431" y1="191.6943" y2="191.6943"/></g><!--class ForEachStmt--><a href="ForEachStmt-diagram-simplified-grouped-per-namespace.svg" target="_top" title="ForEachStmt-diagram-simplified-grouped-per-namespace.svg" xlink:actuate="onRequest" xlink:href="ForEachStmt-diagram-simplified-grouped-per-namespace.svg" xlink:show="new" xlink:title="ForEachStmt-diagram-simplified-grouped-per-namespace.svg" xlink:type="simple"><g id="elem_ForEachStmt"><rect codeLine="4" fill="#FFFF00" height="48" id="ForEachStmt" rx="2.5" ry="2.5" style="stroke:#181818;stroke-width:0.5;" width="118" x="503" y="358.5547"/><ellipse cx="518" cy="374.5547" fill="#ADD1B2" rx="11" ry="11" style="stroke:#181818;stroke-width:1.0;"/><path d="M520.4731,380.6978 Q519.8921,380.9966 519.2529,381.146 Q518.6138,381.2954 517.9082,381.2954 Q515.4014,381.2954 514.0815,379.6436 Q512.7617,377.9917 512.7617,374.8706 Q512.7617,371.7412 514.0815,370.0894 Q515.4014,368.4375 517.9082,368.4375 Q518.6138,368.4375 519.2612,368.5869 Q519.9087,368.7363 520.4731,369.0352 L520.4731,371.7578 Q519.8423,371.1768 519.2488,370.907 Q518.6553,370.6372 518.0244,370.6372 Q516.6797,370.6372 515.9949,371.7039 Q515.3101,372.7705 515.3101,374.8706 Q515.3101,376.9624 515.9949,378.0291 Q516.6797,379.0957 518.0244,379.0957 Q518.6553,379.0957 519.2488,378.8259 Q519.8423,378.5562 520.4731,377.9751 Z " fill="#000000"/><text fill="#000000" font-family="sans-serif" font-size="14" lengthAdjust="spacing" textLength="86" x="532" y="379.8457">ForEachStmt</text><line style="stroke:#181818;stroke-width:0.5;" x1="504" x2="620" y1="390.5547" y2="390.5547"/><line style="stroke:#181818;stroke-width:0.5;" x1="504" x2="620" y1="398.5547" y2="398.5547"/></g></a><!--link ASTVisitorDebug to ForEachStmt--><g id="link_ASTVisitorDebug_ForEachStmt"><path codeLine="24" d="M562,198.8247 C562,198.8247 562,352.1247 562,352.1247 " fill="none" id="ASTVisitorDebug-to-ForEachStmt" style="stroke:#6060BB;stroke-width:1.0;stroke-dasharray:7.0,7.0;"/><polygon fill="#6060BB" points="562,357.1247,566,348.1247,562,352.1247,558,348.1247,562,357.1247" style="stroke:#6060BB;stroke-width:1.0;"/><text fill="#000000" font-family="sans-serif" font-size="13" lengthAdjust="spacing" textLength="29" x="532" y="272.043">uses</text></g><!--SRC=[jLHDQzj04BthLmp98I2mQdh8mSI69gtfAHUNGh6CMMj7zf3z43kh94xeV-_8NueJW-E2ZJ3IQjvxy-P3_42kKa5PCEGmBYi47-B29v6YGRXXUi7Ur-vWwCCFLIn6qKP8KoPR6Ie9TPg2SbgEvi7N5MgeC81J5hbI1QRfpPU6OP0u7n4k_lWwW0ee66MMB-JclTpzBtNkSjVl3yb43Fr-xeGS2kMWC5Gy059SIBpyjHY6tFaW0OfvVGgbF9Sh2accYROhKRcXa3jD0Oi86Yjq6br1oDbQTeIcUUCRaKOyXNqR6gCYSzo4-0U0yVWDkgD9pQKZdIr7PuFj2BQpmsRyE9zCLigrCR01dLJ1hNWf13lL5dvCzwUtkAKWgSzpjeZMJ2ONe1Y6ngieDRsNnYVhYh-jq677dzE6ooKQuv_WDVcRNC6TyTmqJqaLge2Fv6kUSZsRxc1JGnnRut3l7S8C2rKpDjtVp2CJWrmbEU85wYnf4SAhjAfaJ2Jpzk7Kn5yFKcRQMqLkZtbpThe0RCRx0rNsRVJhDp557xxZh9uVadiVSwhyIbzwSkUjV5HauCvj5vvapK4CHv25jEXa9KjOvN36kMYvM-pQmDv07Z8l0N0b6_cf7vmjjacocPA0HhRKEmPyZa4LKNfM1c_Rt7iIUsBuXxOcnuSn6rzUTw-xjxUJRB3teO0UI3SO_W40]--></g></svg>