<?xml version="1.0" encoding="us-ascii" standalone="no"?><svg xmlns="http://www.w3.org/2000/svg" xmlns:xlink="http://www.w3.org/1999/xlink" contentStyleType="text/css" height="602px" preserveAspectRatio="none" style="width:997px;height:602px;background:#FFFFFF;" version="1.1" viewBox="0 0 997 602" width="997px" zoomAndPan="magnify"><defs/><g><text fill="#000000" font-family="sans-serif" font-size="20" font-weight="bold" lengthAdjust="spacing" textLength="268" x="298.75" y="29.3359">list_BRQTO_String_BRQTC</text><text fill="#000000" font-family="sans-serif" font-size="20" font-weight="bold" lengthAdjust="spacing" textLength="104" x="573.75" y="29.3359">simplified</text><text fill="#000000" font-family="sans-serif" font-size="20" font-weight="bold" lengthAdjust="spacing" textLength="7" x="677.75" y="29.3359">&#160;</text><!--cluster preadapter--><g id="cluster_preadapter"><path d="M414,72.5547 L492,72.5547 A3.75,3.75 0 0 1 494.5,75.0547 L501.5,95.043 L988,95.043 A2.5,2.5 0 0 1 990.5,97.543 L990.5,482.0547 A2.5,2.5 0 0 1 988,484.5547 L414,484.5547 A2.5,2.5 0 0 1 411.5,482.0547 L411.5,75.0547 A2.5,2.5 0 0 1 414,72.5547 " fill="none" style="stroke:#000000;stroke-width:1.5;"/><line style="stroke:#000000;stroke-width:1.5;" x1="411.5" x2="501.5" y1="95.043" y2="95.043"/><text fill="#000000" font-family="sans-serif" font-size="14" font-weight="bold" lengthAdjust="spacing" textLength="77" x="415.5" y="88.0898">preadapter</text></g><!--cluster domain--><g id="cluster_domain"><path d="M438,361.5547 L493,361.5547 A3.75,3.75 0 0 1 495.5,364.0547 L502.5,384.043 L591,384.043 A2.5,2.5 0 0 1 593.5,386.543 L593.5,458.0547 A2.5,2.5 0 0 1 591,460.5547 L438,460.5547 A2.5,2.5 0 0 1 435.5,458.0547 L435.5,364.0547 A2.5,2.5 0 0 1 438,361.5547 " fill="none" style="stroke:#000000;stroke-width:1.5;"/><line style="stroke:#000000;stroke-width:1.5;" x1="435.5" x2="502.5" y1="384.043" y2="384.043"/><text fill="#000000" font-family="sans-serif" font-size="14" font-weight="bold" lengthAdjust="spacing" textLength="54" x="439.5" y="377.0898">domain</text></g><!--cluster infrastructure--><g id="cluster_infrastructure"><path d="M438,115.5547 L538,115.5547 A3.75,3.75 0 0 1 540.5,118.0547 L547.5,138.043 L571,138.043 A2.5,2.5 0 0 1 573.5,140.543 L573.5,212.0547 A2.5,2.5 0 0 1 571,214.5547 L438,214.5547 A2.5,2.5 0 0 1 435.5,212.0547 L435.5,118.0547 A2.5,2.5 0 0 1 438,115.5547 " fill="none" style="stroke:#000000;stroke-width:1.5;"/><line style="stroke:#000000;stroke-width:1.5;" x1="435.5" x2="547.5" y1="138.043" y2="138.043"/><text fill="#000000" font-family="sans-serif" font-size="14" font-weight="bold" lengthAdjust="spacing" textLength="99" x="439.5" y="131.0898">infrastructure</text></g><!--cluster service--><g id="cluster_service"><path d="M600,115.5547 L651,115.5547 A3.75,3.75 0 0 1 653.5,118.0547 L660.5,138.043 L964,138.043 A2.5,2.5 0 0 1 966.5,140.543 L966.5,212.0547 A2.5,2.5 0 0 1 964,214.5547 L600,214.5547 A2.5,2.5 0 0 1 597.5,212.0547 L597.5,118.0547 A2.5,2.5 0 0 1 600,115.5547 " fill="none" style="stroke:#000000;stroke-width:1.5;"/><line style="stroke:#000000;stroke-width:1.5;" x1="597.5" x2="660.5" y1="138.043" y2="138.043"/><text fill="#000000" font-family="sans-serif" font-size="14" font-weight="bold" lengthAdjust="spacing" textLength="50" x="601.5" y="131.0898">service</text></g><!--class Datastructure--><a href="preadapter.domain.Datastructure-diagram-simplified.svg" target="_top" title="preadapter.domain.Datastructure-diagram-simplified.svg" xlink:actuate="onRequest" xlink:href="preadapter.domain.Datastructure-diagram-simplified.svg" xlink:show="new" xlink:title="preadapter.domain.Datastructure-diagram-simplified.svg" xlink:type="simple"><g id="elem_Datastructure"><rect codeLine="5" fill="#F1F1F1" height="48" id="Datastructure" rx="2.5" ry="2.5" style="stroke:#181818;stroke-width:0.5;" width="125" x="452" y="396.5547"/><ellipse cx="467" cy="412.5547" fill="#ADD1B2" rx="11" ry="11" style="stroke:#181818;stroke-width:1.0;"/><path d="M469.4731,418.6978 Q468.8921,418.9966 468.2529,419.146 Q467.6138,419.2954 466.9082,419.2954 Q464.4014,419.2954 463.0815,417.6436 Q461.7617,415.9917 461.7617,412.8706 Q461.7617,409.7412 463.0815,408.0894 Q464.4014,406.4375 466.9082,406.4375 Q467.6138,406.4375 468.2612,406.5869 Q468.9087,406.7363 469.4731,407.0352 L469.4731,409.7578 Q468.8423,409.1768 468.2488,408.907 Q467.6553,408.6372 467.0244,408.6372 Q465.6797,408.6372 464.9949,409.7039 Q464.3101,410.7705 464.3101,412.8706 Q464.3101,414.9624 464.9949,416.0291 Q465.6797,417.0957 467.0244,417.0957 Q467.6553,417.0957 468.2488,416.8259 Q468.8423,416.5562 469.4731,415.9751 Z " fill="#000000"/><text fill="#000000" font-family="sans-serif" font-size="14" lengthAdjust="spacing" textLength="93" x="481" y="417.8457">Datastructure</text><line style="stroke:#181818;stroke-width:0.5;" x1="453" x2="576" y1="428.5547" y2="428.5547"/><line style="stroke:#181818;stroke-width:0.5;" x1="453" x2="576" y1="436.5547" y2="436.5547"/></g></a><!--class CreateYML--><a href="preadapter.infrastructure.CreateYML-diagram-simplified.svg" target="_top" title="preadapter.infrastructure.CreateYML-diagram-simplified.svg" xlink:actuate="onRequest" xlink:href="preadapter.infrastructure.CreateYML-diagram-simplified.svg" xlink:show="new" xlink:title="preadapter.infrastructure.CreateYML-diagram-simplified.svg" xlink:type="simple"><g id="elem_CreateYML"><rect codeLine="7" fill="#F1F1F1" height="48" id="CreateYML" rx="2.5" ry="2.5" style="stroke:#181818;stroke-width:0.5;" width="105" x="452" y="150.5547"/><ellipse cx="467" cy="166.5547" fill="#ADD1B2" rx="11" ry="11" style="stroke:#181818;stroke-width:1.0;"/><path d="M469.4731,172.6978 Q468.8921,172.9966 468.2529,173.146 Q467.6138,173.2954 466.9082,173.2954 Q464.4014,173.2954 463.0815,171.6436 Q461.7617,169.9917 461.7617,166.8706 Q461.7617,163.7412 463.0815,162.0894 Q464.4014,160.4375 466.9082,160.4375 Q467.6138,160.4375 468.2612,160.5869 Q468.9087,160.7363 469.4731,161.0352 L469.4731,163.7578 Q468.8423,163.1768 468.2488,162.907 Q467.6553,162.6372 467.0244,162.6372 Q465.6797,162.6372 464.9949,163.7039 Q464.3101,164.7705 464.3101,166.8706 Q464.3101,168.9624 464.9949,170.0291 Q465.6797,171.0957 467.0244,171.0957 Q467.6553,171.0957 468.2488,170.8259 Q468.8423,170.5562 469.4731,169.9751 Z " fill="#000000"/><text fill="#000000" font-family="sans-serif" font-size="14" lengthAdjust="spacing" textLength="73" x="481" y="171.8457">CreateYML</text><line style="stroke:#181818;stroke-width:0.5;" x1="453" x2="556" y1="182.5547" y2="182.5547"/><line style="stroke:#181818;stroke-width:0.5;" x1="453" x2="556" y1="190.5547" y2="190.5547"/></g></a><!--class AnalyzeAST--><a href="preadapter.service.AnalyzeAST-diagram-simplified.svg" target="_top" title="preadapter.service.AnalyzeAST-diagram-simplified.svg" xlink:actuate="onRequest" xlink:href="preadapter.service.AnalyzeAST-diagram-simplified.svg" xlink:show="new" xlink:title="preadapter.service.AnalyzeAST-diagram-simplified.svg" xlink:type="simple"><g id="elem_AnalyzeAST"><rect codeLine="9" fill="#F1F1F1" height="48" id="AnalyzeAST" rx="2.5" ry="2.5" style="stroke:#181818;stroke-width:0.5;" width="113" x="614" y="150.5547"/><ellipse cx="629" cy="166.5547" fill="#ADD1B2" rx="11" ry="11" style="stroke:#181818;stroke-width:1.0;"/><path d="M631.4731,172.6978 Q630.8921,172.9966 630.2529,173.146 Q629.6138,173.2954 628.9082,173.2954 Q626.4014,173.2954 625.0815,171.6436 Q623.7617,169.9917 623.7617,166.8706 Q623.7617,163.7412 625.0815,162.0894 Q626.4014,160.4375 628.9082,160.4375 Q629.6138,160.4375 630.2612,160.5869 Q630.9087,160.7363 631.4731,161.0352 L631.4731,163.7578 Q630.8423,163.1768 630.2488,162.907 Q629.6553,162.6372 629.0244,162.6372 Q627.6797,162.6372 626.9949,163.7039 Q626.3101,164.7705 626.3101,166.8706 Q626.3101,168.9624 626.9949,170.0291 Q627.6797,171.0957 629.0244,171.0957 Q629.6553,171.0957 630.2488,170.8259 Q630.8423,170.5562 631.4731,169.9751 Z " fill="#000000"/><text fill="#000000" font-family="sans-serif" font-size="14" lengthAdjust="spacing" textLength="81" x="643" y="171.8457">AnalyzeAST</text><line style="stroke:#181818;stroke-width:0.5;" x1="615" x2="726" y1="182.5547" y2="182.5547"/><line style="stroke:#181818;stroke-width:0.5;" x1="615" x2="726" y1="190.5547" y2="190.5547"/></g></a><!--class RecursiveFileProcessor--><a href="preadapter.service.RecursiveFileProcessor-diagram-simplified.svg" target="_top" title="preadapter.service.RecursiveFileProcessor-diagram-simplified.svg" xlink:actuate="onRequest" xlink:href="preadapter.service.RecursiveFileProcessor-diagram-simplified.svg" xlink:show="new" xlink:title="preadapter.service.RecursiveFileProcessor-diagram-simplified.svg" xlink:type="simple"><g id="elem_RecursiveFileProcessor"><rect codeLine="11" fill="#F1F1F1" height="48" id="RecursiveFileProcessor" rx="2.5" ry="2.5" style="stroke:#181818;stroke-width:0.5;" width="188" x="762.5" y="150.5547"/><ellipse cx="777.5" cy="166.5547" fill="#ADD1B2" rx="11" ry="11" style="stroke:#181818;stroke-width:1.0;"/><path d="M779.9731,172.6978 Q779.3921,172.9966 778.7529,173.146 Q778.1138,173.2954 777.4082,173.2954 Q774.9014,173.2954 773.5815,171.6436 Q772.2617,169.9917 772.2617,166.8706 Q772.2617,163.7412 773.5815,162.0894 Q774.9014,160.4375 777.4082,160.4375 Q778.1138,160.4375 778.7612,160.5869 Q779.4087,160.7363 779.9731,161.0352 L779.9731,163.7578 Q779.3423,163.1768 778.7488,162.907 Q778.1553,162.6372 777.5244,162.6372 Q776.1797,162.6372 775.4949,163.7039 Q774.8101,164.7705 774.8101,166.8706 Q774.8101,168.9624 775.4949,170.0291 Q776.1797,171.0957 777.5244,171.0957 Q778.1553,171.0957 778.7488,170.8259 Q779.3423,170.5562 779.9731,169.9751 Z " fill="#000000"/><text fill="#000000" font-family="sans-serif" font-size="14" lengthAdjust="spacing" textLength="156" x="791.5" y="171.8457">RecursiveFileProcessor</text><line style="stroke:#181818;stroke-width:0.5;" x1="763.5" x2="949.5" y1="182.5547" y2="182.5547"/><line style="stroke:#181818;stroke-width:0.5;" x1="763.5" x2="949.5" y1="190.5547" y2="190.5547"/></g></a><g id="elem_FloatingNote"><path d="M6,50.5547 L6,298.2129 L395,298.2129 L395,60.5547 L385,50.5547 L6,50.5547 " fill="#FEFFDD" style="stroke:#181818;stroke-width:0.5;"/><path d="M385,50.5547 L385,60.5547 L395,60.5547 L385,50.5547 " fill="#FEFFDD" style="stroke:#181818;stroke-width:1.0;"/><text fill="#000000" font-family="sans-serif" font-size="13" lengthAdjust="spacing" textLength="120" x="12" y="68.123">Your are analyzing:</text><text fill="#000000" font-family="sans-serif" font-size="13" lengthAdjust="spacing" textLength="163" x="12" y="83.4336">list_BRQTO_String_BRQTC</text><text fill="#000000" font-family="sans-serif" font-size="13" font-weight="bold" lengthAdjust="spacing" textLength="67" x="179" y="83.4336">simplified</text><text fill="#000000" font-family="sans-serif" font-size="13" lengthAdjust="spacing" textLength="4" x="246" y="83.4336">&#160;</text><text fill="#000000" font-family="sans-serif" font-size="13" lengthAdjust="spacing" textLength="4" x="12" y="98.7441">&#160;</text><text fill="#000000" font-family="sans-serif" font-size="13" lengthAdjust="spacing" textLength="229" x="12" y="129.3652">You can click either the namespaces</text><text fill="#000000" font-family="sans-serif" font-size="13" lengthAdjust="spacing" textLength="266" x="12" y="144.6758">or class names for filtering them and their</text><text fill="#000000" font-family="sans-serif" font-size="13" lengthAdjust="spacing" textLength="130" x="12" y="159.9863">direct dependencies.</text><text fill="#000000" font-family="sans-serif" font-size="13" lengthAdjust="spacing" textLength="4" x="12" y="175.2969">&#160;</text><line style="stroke:#181818;stroke-width:1.0;" x1="7" x2="184.5" y1="109.1416" y2="109.1416"/><line style="stroke:#181818;stroke-width:1.0;" x1="7" x2="184.5" y1="111.1416" y2="111.1416"/><text fill="#000000" font-family="sans-serif" font-size="13" lengthAdjust="spacing" textLength="32" x="184.5" y="113.5547">Filter</text><line style="stroke:#181818;stroke-width:1.0;" x1="216.5" x2="394" y1="109.1416" y2="109.1416"/><line style="stroke:#181818;stroke-width:1.0;" x1="216.5" x2="394" y1="111.1416" y2="111.1416"/><ellipse cx="17.5" cy="205.1602" fill="#000000" rx="2.5" ry="2.5" style="stroke:#000000;stroke-width:0.0;"/><text fill="#000000" font-family="sans-serif" font-size="13" lengthAdjust="spacing" textLength="163" x="24" y="209.918">list_BRQTO_String_BRQTC</text><text fill="#000000" font-family="sans-serif" font-size="13" font-weight="bold" lengthAdjust="spacing" textLength="55" x="191" y="209.918">detailed</text><text fill="#000000" font-family="sans-serif" font-size="13" lengthAdjust="spacing" textLength="4" x="250" y="209.918">:</text><text fill="#000000" font-family="sans-serif" font-size="13" lengthAdjust="spacing" textLength="12" x="12" y="225.2285">&#160;&#160;&#160;</text><a href="list_BRQTO_String_BRQTC-diagram-detailed.svg" target="_top" title="list_BRQTO_String_BRQTC-diagram-detailed.svg" xlink:actuate="onRequest" xlink:href="list_BRQTO_String_BRQTC-diagram-detailed.svg" xlink:show="new" xlink:title="list_BRQTO_String_BRQTC-diagram-detailed.svg" xlink:type="simple"><text fill="#0000FF" font-family="sans-serif" font-size="13" lengthAdjust="spacing" text-decoration="underline" textLength="306" x="24" y="225.2285">list_BRQTO_String_BRQTC-diagram-detailed.svg</text></a><ellipse cx="17.5" cy="235.7813" fill="#000000" rx="2.5" ry="2.5" style="stroke:#000000;stroke-width:0.0;"/><text fill="#000000" font-family="sans-serif" font-size="13" lengthAdjust="spacing" textLength="78" x="24" y="240.5391">Full diagram</text><text fill="#000000" font-family="sans-serif" font-size="13" font-weight="bold" lengthAdjust="spacing" textLength="67" x="106" y="240.5391">simplified</text><text fill="#000000" font-family="sans-serif" font-size="13" lengthAdjust="spacing" textLength="23" x="177" y="240.5391">and</text><text fill="#000000" font-family="sans-serif" font-size="13" font-weight="bold" lengthAdjust="spacing" textLength="166" x="204" y="240.5391">grouped per namespace</text><text fill="#000000" font-family="sans-serif" font-size="13" lengthAdjust="spacing" textLength="4" x="370" y="240.5391">:</text><text fill="#000000" font-family="sans-serif" font-size="13" lengthAdjust="spacing" textLength="12" x="12" y="255.8496">&#160;&#160;&#160;</text><a href="full-diagram-simplified-grouped-per-namespace.svg" target="_top" title="full-diagram-simplified-grouped-per-namespace.svg" xlink:actuate="onRequest" xlink:href="full-diagram-simplified-grouped-per-namespace.svg" xlink:show="new" xlink:title="full-diagram-simplified-grouped-per-namespace.svg" xlink:type="simple"><text fill="#0000FF" font-family="sans-serif" font-size="13" lengthAdjust="spacing" text-decoration="underline" textLength="343" x="24" y="255.8496">full-diagram-simplified-grouped-per-namespace.svg</text></a><ellipse cx="17.5" cy="266.4023" fill="#000000" rx="2.5" ry="2.5" style="stroke:#000000;stroke-width:0.0;"/><text fill="#000000" font-family="sans-serif" font-size="13" lengthAdjust="spacing" textLength="41" x="24" y="271.1602">Home:</text><text fill="#000000" font-family="sans-serif" font-size="13" lengthAdjust="spacing" textLength="12" x="12" y="286.4707">&#160;&#160;&#160;</text><a href="index.html" target="_top" title="index.html" xlink:actuate="onRequest" xlink:href="index.html" xlink:show="new" xlink:title="index.html" xlink:type="simple"><text fill="#0000FF" font-family="sans-serif" font-size="13" lengthAdjust="spacing" text-decoration="underline" textLength="68" x="24" y="286.4707">index.html</text></a><line style="stroke:#181818;stroke-width:1.0;" x1="7" x2="163.5" y1="189.6943" y2="189.6943"/><line style="stroke:#181818;stroke-width:1.0;" x1="7" x2="163.5" y1="191.6943" y2="191.6943"/><text fill="#000000" font-family="sans-serif" font-size="13" lengthAdjust="spacing" textLength="74" x="163.5" y="194.1074">Select other</text><line style="stroke:#181818;stroke-width:1.0;" x1="237.5" x2="394" y1="189.6943" y2="189.6943"/><line style="stroke:#181818;stroke-width:1.0;" x1="237.5" x2="394" y1="191.6943" y2="191.6943"/></g><!--class list_BRQTO_String_BRQTC--><a href="list_BRQTO_String_BRQTC-diagram-simplified.svg" target="_top" title="list_BRQTO_String_BRQTC-diagram-simplified.svg" xlink:actuate="onRequest" xlink:href="list_BRQTO_String_BRQTC-diagram-simplified.svg" xlink:show="new" xlink:title="list_BRQTO_String_BRQTC-diagram-simplified.svg" xlink:type="simple"><g id="elem_list_BRQTO_String_BRQTC"><rect codeLine="3" fill="#FFFF00" height="48" id="list_BRQTO_String_BRQTC" rx="2.5" ry="2.5" style="stroke:#181818;stroke-width:0.5;" width="209" x="593" y="547.5547"/><ellipse cx="608" cy="563.5547" fill="#ADD1B2" rx="11" ry="11" style="stroke:#181818;stroke-width:1.0;"/><path d="M610.4731,569.6978 Q609.8921,569.9966 609.2529,570.146 Q608.6138,570.2954 607.9082,570.2954 Q605.4014,570.2954 604.0815,568.6436 Q602.7617,566.9917 602.7617,563.8706 Q602.7617,560.7412 604.0815,559.0894 Q605.4014,557.4375 607.9082,557.4375 Q608.6138,557.4375 609.2612,557.5869 Q609.9087,557.7363 610.4731,558.0352 L610.4731,560.7578 Q609.8423,560.1768 609.2488,559.907 Q608.6553,559.6372 608.0244,559.6372 Q606.6797,559.6372 605.9949,560.7039 Q605.3101,561.7705 605.3101,563.8706 Q605.3101,565.9624 605.9949,567.0291 Q606.6797,568.0957 608.0244,568.0957 Q608.6553,568.0957 609.2488,567.8259 Q609.8423,567.5562 610.4731,566.9751 Z " fill="#000000"/><text fill="#000000" font-family="sans-serif" font-size="14" lengthAdjust="spacing" textLength="177" x="622" y="568.8457">list_BRQTO_String_BRQTC</text><line style="stroke:#181818;stroke-width:0.5;" x1="594" x2="801" y1="579.5547" y2="579.5547"/><line style="stroke:#181818;stroke-width:0.5;" x1="594" x2="801" y1="587.5547" y2="587.5547"/></g></a><!--link Datastructure to list_BRQTO_String_BRQTC--><g id="link_Datastructure_list_BRQTO_String_BRQTC"><path codeLine="20" d="M508.15,445.0447 C503.93,466.2247 501.7,497.1047 517.5,517.5547 C527.24,530.1647 555.83,540.8747 587.44,549.3047 " fill="none" id="Datastructure-to-list_BRQTO_String_BRQTC" style="stroke:#6060BB;stroke-width:1.0;stroke-dasharray:7.0,7.0;"/><polygon fill="#6060BB" points="591.95,550.7447,584.2438,544.6117,587.1104,549.4884,582.2337,552.355,591.95,550.7447" style="stroke:#6060BB;stroke-width:1.0;"/><text fill="#000000" font-family="sans-serif" font-size="13" lengthAdjust="spacing" textLength="29" x="518.5" y="514.123">uses</text></g><!--link Datastructure to list_BRQTO_String_BRQTC--><g id="link_Datastructure_list_BRQTO_String_BRQTC"><path codeLine="21" d="M528.7,444.9147 C542.43,466.0047 564.89,496.8247 590.5,517.5547 C603.38,527.9847 618.66,537.0647 633.57,544.6347 " fill="none" id="Datastructure-to-list_BRQTO_String_BRQTC-1" style="stroke:#909090;stroke-width:1.0;"/><polygon fill="#909090" points="637.61,547.1347,631.3199,539.5562,633.1293,544.9158,627.7697,546.7253,637.61,547.1347" style="stroke:#909090;stroke-width:1.0;"/><text fill="#000000" font-family="sans-serif" font-size="13" lengthAdjust="spacing" textLength="29" x="591.5" y="514.123">uses</text></g><!--link CreateYML to list_BRQTO_String_BRQTC--><g id="link_CreateYML_list_BRQTO_String_BRQTC"><path codeLine="24" d="M524.12,198.8947 C547.3,227.6247 585.51,278.7547 607.5,328.5547 C637.81,397.1847 617.96,423.5847 647.5,492.5547 C655.01,510.0947 666.29,528.1147 676.24,542.4147 " fill="none" id="CreateYML-to-list_BRQTO_String_BRQTC" style="stroke:#6060BB;stroke-width:1.0;stroke-dasharray:7.0,7.0;"/><polygon fill="#6060BB" points="679.55,546.1247,677.6251,536.4658,676.6655,542.0406,671.0906,541.081,679.55,546.1247" style="stroke:#6060BB;stroke-width:1.0;"/><text fill="#000000" font-family="sans-serif" font-size="13" lengthAdjust="spacing" textLength="29" x="648.5" y="425.623">uses</text></g><!--link CreateYML to Datastructure--><g id="link_CreateYML_Datastructure"><path codeLine="25" d="M505.19,198.9347 C506.18,231.7147 508.16,293.1847 510.5,345.5547 C511.16,360.4047 512.04,376.9147 512.81,390.5647 " fill="none" id="CreateYML-to-Datastructure" style="stroke:#6060BB;stroke-width:1.0;stroke-dasharray:7.0,7.0;"/><polygon fill="#6060BB" points="513.13,395.2347,516.6085,386.0206,512.8439,390.2429,508.6216,386.4783,513.13,395.2347" style="stroke:#6060BB;stroke-width:1.0;"/><text fill="#000000" font-family="sans-serif" font-size="13" lengthAdjust="spacing" textLength="29" x="511.5" y="342.123">uses</text></g><!--link AnalyzeAST to Datastructure--><g id="link_AnalyzeAST_Datastructure"><path codeLine="28" d="M655.54,198.9547 C626.71,244.0447 563.57,342.8047 532.5,391.4047 " fill="none" id="AnalyzeAST-to-Datastructure" style="stroke:#909090;stroke-width:1.0;"/><polygon fill="#909090" points="529.41,395.2347,537.6332,389.8144,532.1073,391.0246,530.8971,385.4987,529.41,395.2347" style="stroke:#909090;stroke-width:1.0;"/><text fill="#000000" font-family="sans-serif" font-size="13" lengthAdjust="spacing" textLength="29" x="569.5" y="342.123">uses</text></g><!--link AnalyzeAST to list_BRQTO_String_BRQTC--><g id="link_AnalyzeAST_list_BRQTO_String_BRQTC"><path codeLine="29" d="M672.89,198.8547 C676.3,232.8347 682.6,297.9947 686.5,353.5547 C691.21,420.6247 694.7,499.4847 696.38,541.2147 " fill="none" id="AnalyzeAST-to-list_BRQTO_String_BRQTC" style="stroke:#909090;stroke-width:1.0;"/><polygon fill="#909090" points="696.61,546.0947,700.2471,536.942,696.4102,541.0987,692.2535,537.2618,696.61,546.0947" style="stroke:#909090;stroke-width:1.0;"/><text fill="#000000" font-family="sans-serif" font-size="13" lengthAdjust="spacing" textLength="29" x="694.5" y="425.623">uses</text></g><!--link RecursiveFileProcessor to list_BRQTO_String_BRQTC--><g id="link_RecursiveFileProcessor_list_BRQTO_String_BRQTC"><path codeLine="30" d="M847.86,198.7847 C828.19,251.3947 778.23,383.5747 732.5,492.5547 C725.59,509.0147 717.46,527.2147 710.76,541.8947 " fill="none" id="RecursiveFileProcessor-to-list_BRQTO_String_BRQTC" style="stroke:#909090;stroke-width:1.0;"/><polygon fill="#909090" points="708.37,546.1347,715.7604,539.6245,710.4562,541.5907,708.49,536.2866,708.37,546.1347" style="stroke:#909090;stroke-width:1.0;"/><text fill="#000000" font-family="sans-serif" font-size="13" lengthAdjust="spacing" textLength="29" x="787.5" y="425.623">uses</text></g><!--link RecursiveFileProcessor to list_BRQTO_String_BRQTC--><g id="link_RecursiveFileProcessor_list_BRQTO_String_BRQTC"><path codeLine="31" d="M860.8,198.8747 C869.78,254.5647 885.03,397.7147 825.5,492.5547 C811.29,515.1947 787.87,532.2247 764.92,544.5047 " fill="none" id="RecursiveFileProcessor-to-list_BRQTO_String_BRQTC-1" style="stroke:#6060BB;stroke-width:1.0;stroke-dasharray:7.0,7.0;"/><polygon fill="#6060BB" points="760.73,547.2047,770.5614,546.6193,765.1703,544.906,766.8836,539.5149,760.73,547.2047" style="stroke:#6060BB;stroke-width:1.0;"/><text fill="#000000" font-family="sans-serif" font-size="13" lengthAdjust="spacing" textLength="29" x="867.5" y="425.623">uses</text></g><!--SRC=[jLHTQzim57tthxWq3mM3tR27ma8JQ5B27lRPzANOfWZhEXMJ9IF9MTkn_xvhvyDaZMSdfGwOA3htdFjrueIJ25TMlE3emt0YXNKFqziVTzyU5iu8jQmFC_1zA_92YamWztsukgW29fxI3k7iNfS6c45WYidd5ueQnQedKwnYDHxFXNHenkDO4HUaJ44gHVeJKBX7D40lK2n7Mx0KBSLeGm1cxVfNoEYSrHIaKw5pIeLNNuI95HS6KmSS2rGSLIhGXclP1ShgHbSYbRWFxLbpT4p8EcUg3W2Yg0KSSC6MXkN1DYIqgsMILFJpKahONF_RYIfZtryQNHR8eQ2oToNx_bOo8u8TVnCURC822WjsOOtk9vtZba9G4vx2HvVB93a3Pc4kDNEK_LSQfhTkQriRkcjkSbghm-0PfTI_uBVtnuFDr0g3ZBE2vXLodJEXmXlcc7McJ5r9UnH57OXsET81EAWaL6OQXd16DmxlltpULsj3dQ9eqQm4ZU6wjWLUB-xsjLxVlqNb5jFIMB52CXD-DvgSOiaN1nKFOxlLpsb3UptmRjXpcDKTC2XfQxMoW4_EiDIHQJAZyyOr8y8U2N-rTbxNgeRHu79uEPnEat3IQXiOGMdfVwgJBOW67uVL9mbwi9rSs_wIUtrCSdAT_HYx6lFscZUhx_tVdti3w9tK4Pp7jAx3sU_5UzIe_m80]--></g></svg>