<?xml version="1.0" encoding="us-ascii" standalone="no"?><svg xmlns="http://www.w3.org/2000/svg" xmlns:xlink="http://www.w3.org/1999/xlink" contentStyleType="text/css" height="1362px" preserveAspectRatio="none" style="width:3074px;height:1362px;background:#FFFFFF;" version="1.1" viewBox="0 0 3074 1362" width="3074px" zoomAndPan="magnify"><defs/><g><text fill="#000000" font-family="sans-serif" font-size="20" font-weight="bold" lengthAdjust="spacing" textLength="268" x="1347.25" y="29.3359">list_BRQTO_String_BRQTC</text><text fill="#000000" font-family="sans-serif" font-size="20" font-weight="bold" lengthAdjust="spacing" textLength="84" x="1622.25" y="29.3359">detailed</text><text fill="#000000" font-family="sans-serif" font-size="20" font-weight="bold" lengthAdjust="spacing" textLength="7" x="1706.25" y="29.3359">&#160;</text><!--cluster preadapter--><g id="cluster_preadapter"><path d="M402,50.5547 L480,50.5547 A3.75,3.75 0 0 1 482.5,53.0547 L489.5,73.043 L3065,73.043 A2.5,2.5 0 0 1 3067.5,75.543 L3067.5,1242.0547 A2.5,2.5 0 0 1 3065,1244.5547 L402,1244.5547 A2.5,2.5 0 0 1 399.5,1242.0547 L399.5,53.0547 A2.5,2.5 0 0 1 402,50.5547 " fill="none" style="stroke:#000000;stroke-width:1.5;"/><line style="stroke:#000000;stroke-width:1.5;" x1="399.5" x2="489.5" y1="73.043" y2="73.043"/><text fill="#000000" font-family="sans-serif" font-size="14" font-weight="bold" lengthAdjust="spacing" textLength="77" x="403.5" y="66.0898">preadapter</text></g><!--cluster domain--><g id="cluster_domain"><path d="M1345,735.5547 L1400,735.5547 A3.75,3.75 0 0 1 1402.5,738.0547 L1409.5,758.043 L2106,758.043 A2.5,2.5 0 0 1 2108.5,760.543 L2108.5,1218.0547 A2.5,2.5 0 0 1 2106,1220.5547 L1345,1220.5547 A2.5,2.5 0 0 1 1342.5,1218.0547 L1342.5,738.0547 A2.5,2.5 0 0 1 1345,735.5547 " fill="none" style="stroke:#000000;stroke-width:1.5;"/><line style="stroke:#000000;stroke-width:1.5;" x1="1342.5" x2="1409.5" y1="758.043" y2="758.043"/><text fill="#000000" font-family="sans-serif" font-size="14" font-weight="bold" lengthAdjust="spacing" textLength="54" x="1346.5" y="751.0898">domain</text></g><!--cluster infrastructure--><g id="cluster_infrastructure"><path d="M426,93.5547 L526,93.5547 A3.75,3.75 0 0 1 528.5,96.0547 L535.5,116.043 L1851,116.043 A2.5,2.5 0 0 1 1853.5,118.543 L1853.5,684.0547 A2.5,2.5 0 0 1 1851,686.5547 L426,686.5547 A2.5,2.5 0 0 1 423.5,684.0547 L423.5,96.0547 A2.5,2.5 0 0 1 426,93.5547 " fill="none" style="stroke:#000000;stroke-width:1.5;"/><line style="stroke:#000000;stroke-width:1.5;" x1="423.5" x2="535.5" y1="116.043" y2="116.043"/><text fill="#000000" font-family="sans-serif" font-size="14" font-weight="bold" lengthAdjust="spacing" textLength="99" x="427.5" y="109.0898">infrastructure</text></g><!--cluster service--><g id="cluster_service"><path d="M1880,295.5547 L1931,295.5547 A3.75,3.75 0 0 1 1933.5,298.0547 L1940.5,318.043 L3041,318.043 A2.5,2.5 0 0 1 3043.5,320.543 L3043.5,482.0547 A2.5,2.5 0 0 1 3041,484.5547 L1880,484.5547 A2.5,2.5 0 0 1 1877.5,482.0547 L1877.5,298.0547 A2.5,2.5 0 0 1 1880,295.5547 " fill="none" style="stroke:#000000;stroke-width:1.5;"/><line style="stroke:#000000;stroke-width:1.5;" x1="1877.5" x2="1940.5" y1="318.043" y2="318.043"/><text fill="#000000" font-family="sans-serif" font-size="14" font-weight="bold" lengthAdjust="spacing" textLength="50" x="1881.5" y="311.0898">service</text></g><!--class Datastructure--><a href="preadapter.domain.Datastructure-diagram-detailed.svg" target="_top" title="preadapter.domain.Datastructure-diagram-detailed.svg" xlink:actuate="onRequest" xlink:href="preadapter.domain.Datastructure-diagram-detailed.svg" xlink:show="new" xlink:title="preadapter.domain.Datastructure-diagram-detailed.svg" xlink:type="simple"><g id="elem_Datastructure"><rect codeLine="5" fill="#F1F1F1" height="434.2539" id="Datastructure" rx="2.5" ry="2.5" style="stroke:#181818;stroke-width:0.5;" width="733" x="1359" y="770.5547"/><ellipse cx="1674.75" cy="786.5547" fill="#ADD1B2" rx="11" ry="11" style="stroke:#181818;stroke-width:1.0;"/><path d="M1677.2231,792.6978 Q1676.6421,792.9966 1676.0029,793.146 Q1675.3638,793.2954 1674.6582,793.2954 Q1672.1514,793.2954 1670.8315,791.6436 Q1669.5117,789.9917 1669.5117,786.8706 Q1669.5117,783.7412 1670.8315,782.0894 Q1672.1514,780.4375 1674.6582,780.4375 Q1675.3638,780.4375 1676.0112,780.5869 Q1676.6587,780.7363 1677.2231,781.0352 L1677.2231,783.7578 Q1676.5923,783.1768 1675.9988,782.907 Q1675.4053,782.6372 1674.7744,782.6372 Q1673.4297,782.6372 1672.7449,783.7039 Q1672.0601,784.7705 1672.0601,786.8706 Q1672.0601,788.9624 1672.7449,790.0291 Q1673.4297,791.0957 1674.7744,791.0957 Q1675.4053,791.0957 1675.9988,790.8259 Q1676.5923,790.5562 1677.2231,789.9751 Z " fill="#000000"/><text fill="#000000" font-family="sans-serif" font-size="14" lengthAdjust="spacing" textLength="93" x="1695.25" y="791.8457">Datastructure</text><line style="stroke:#181818;stroke-width:0.5;" x1="1360" x2="2091" y1="802.5547" y2="802.5547"/><ellipse cx="1370" cy="816.2988" fill="none" rx="3" ry="3" style="stroke:#038048;stroke-width:1.0;"/><text fill="#000000" font-family="sans-serif" font-size="14" lengthAdjust="spacing" textLength="361" x="1379" y="820.0898">class_to_datastructure: dict[String,SubDataStructure]</text><ellipse cx="1370" cy="832.7871" fill="none" rx="3" ry="3" style="stroke:#038048;stroke-width:1.0;"/><text fill="#000000" font-family="sans-serif" font-size="14" lengthAdjust="spacing" textLength="442" x="1379" y="836.5781">namespace_to_datastructures: dict[String,list[SubDataStructure]]</text><ellipse cx="1370" cy="849.2754" fill="none" rx="3" ry="3" style="stroke:#038048;stroke-width:1.0;"/><text fill="#000000" font-family="sans-serif" font-size="14" lengthAdjust="spacing" textLength="368" x="1379" y="853.0664">namespace_to_namespace_list: dict[String,list[String]]</text><ellipse cx="1370" cy="865.7637" fill="none" rx="3" ry="3" style="stroke:#038048;stroke-width:1.0;"/><text fill="#000000" font-family="sans-serif" font-size="14" lengthAdjust="spacing" textLength="150" x="1379" y="869.5547">skip_types: list[String]</text><ellipse cx="1370" cy="882.252" fill="none" rx="3" ry="3" style="stroke:#038048;stroke-width:1.0;"/><text fill="#000000" font-family="sans-serif" font-size="14" lengthAdjust="spacing" textLength="181" x="1379" y="886.043">logger: preadapter.Logger</text><line style="stroke:#181818;stroke-width:1.0;" x1="1360" x2="2091" y1="892.9961" y2="892.9961"/><line style="stroke:#181818;stroke-width:1.0;" x1="1360" x2="2091" y1="894.9961" y2="894.9961"/><ellipse cx="1370" cy="906.7402" fill="#84BE84" rx="3" ry="3" style="stroke:#038048;stroke-width:1.0;"/><text fill="#000000" font-family="sans-serif" font-size="14" lengthAdjust="spacing" textLength="139" x="1379" y="910.5313">ResolveClassNames(</text><text fill="#000000" font-family="sans-serif" font-size="14" lengthAdjust="spacing" textLength="5" x="1518" y="910.5313">)</text><rect fill="none" height="6" style="stroke:#C82930;stroke-width:1.0;" width="6" x="1367" y="920.2285"/><text fill="#909090" font-family="sans-serif" font-size="14" lengthAdjust="spacing" textLength="399" x="1379" y="927.0195">ResolveClassNames.variables: list_BRQTO_Variable_BRQTC</text><rect fill="none" height="6" style="stroke:#C82930;stroke-width:1.0;" width="6" x="1367" y="936.7168"/><text fill="#909090" font-family="sans-serif" font-size="14" lengthAdjust="spacing" textLength="256" x="1379" y="943.5078">ResolveClassNames.variable: Variable</text><rect fill="none" height="6" style="stroke:#C82930;stroke-width:1.0;" width="6" x="1367" y="953.2051"/><text fill="#909090" font-family="sans-serif" font-size="14" lengthAdjust="spacing" textLength="251" x="1379" y="959.9961">ResolveClassNames.method: Method</text><rect fill="none" height="6" style="stroke:#C82930;stroke-width:1.0;" width="6" x="1367" y="969.6934"/><text fill="#909090" font-family="sans-serif" font-size="14" lengthAdjust="spacing" textLength="385" x="1379" y="976.4844">ResolveClassNames.subDataStructure: SubDataStructure</text><line style="stroke:#181818;stroke-width:1.0;" x1="1360" x2="2091" y1="983.4375" y2="983.4375"/><rect fill="#F24D5C" height="6" style="stroke:#C82930;stroke-width:1.0;" width="6" x="1367" y="994.1816"/><text fill="#000000" font-family="sans-serif" font-size="14" lengthAdjust="spacing" textLength="133" x="1379" y="1000.9727">CorrectClassScope(</text><text fill="#6060BB" font-family="sans-serif" font-size="14" lengthAdjust="spacing" textLength="569" x="1512" y="1000.9727">CorrectClassScope:SubDataStructure, CorrectClassScope:list_BRQTO_String_BRQTC</text><text fill="#000000" font-family="sans-serif" font-size="14" lengthAdjust="spacing" textLength="5" x="2081" y="1000.9727">)</text><line style="stroke:#181818;stroke-width:1.0;" x1="1360" x2="2091" y1="1007.9258" y2="1007.9258"/><ellipse cx="1370" cy="1021.6699" fill="#84BE84" rx="3" ry="3" style="stroke:#038048;stroke-width:1.0;"/><text fill="#000000" font-family="sans-serif" font-size="14" lengthAdjust="spacing" textLength="199" x="1379" y="1025.4609">GetFQDNForUsedClassName(</text><text fill="#6060BB" font-family="sans-serif" font-size="14" lengthAdjust="spacing" textLength="318" x="1578" y="1025.4609">GetFQDNForUsedClassName:SubDataStructure</text><text fill="#000000" font-family="sans-serif" font-size="14" lengthAdjust="spacing" textLength="5" x="1896" y="1025.4609">)</text><rect fill="none" height="6" style="stroke:#C82930;stroke-width:1.0;" width="6" x="1367" y="1035.1582"/><text fill="#909090" font-family="sans-serif" font-size="14" lengthAdjust="spacing" textLength="477" x="1379" y="1041.9492">GetFQDNForUsedClassName.classnameList: list_BRQTO_String_BRQTC</text><rect fill="none" height="6" style="stroke:#C82930;stroke-width:1.0;" width="6" x="1367" y="1051.6465"/><text fill="#909090" font-family="sans-serif" font-size="14" lengthAdjust="spacing" textLength="486" x="1379" y="1058.4375">GetFQDNForUsedClassName.fittingClassNames: String_BRQTO__BRQTC</text><rect fill="none" height="6" style="stroke:#C82930;stroke-width:1.0;" width="6" x="1367" y="1068.1348"/><text fill="#909090" font-family="sans-serif" font-size="14" lengthAdjust="spacing" textLength="518" x="1379" y="1074.9258">GetFQDNForUsedClassName.bestFittingClassNames: String_BRQTO__BRQTC</text><line style="stroke:#181818;stroke-width:1.0;" x1="1360" x2="2091" y1="1081.8789" y2="1081.8789"/><ellipse cx="1370" cy="1095.623" fill="#84BE84" rx="3" ry="3" style="stroke:#038048;stroke-width:1.0;"/><text fill="#000000" font-family="sans-serif" font-size="14" lengthAdjust="spacing" textLength="105" x="1379" y="1099.4141">get_skip_types(</text><text fill="#000000" font-family="sans-serif" font-size="14" lengthAdjust="spacing" textLength="5" x="1484" y="1099.4141">)</text><ellipse cx="1370" cy="1112.1113" fill="#84BE84" rx="3" ry="3" style="stroke:#038048;stroke-width:1.0;"/><text fill="#000000" font-family="sans-serif" font-size="14" lengthAdjust="spacing" textLength="188" x="1379" y="1115.9023">append_sub_datastructure(</text><text fill="#6060BB" font-family="sans-serif" font-size="14" lengthAdjust="spacing" textLength="307" x="1567" y="1115.9023">append_sub_datastructure:SubDataStructure</text><text fill="#000000" font-family="sans-serif" font-size="14" lengthAdjust="spacing" textLength="5" x="1874" y="1115.9023">)</text><line style="stroke:#181818;stroke-width:1.0;" x1="1360" x2="2091" y1="1122.8555" y2="1122.8555"/><ellipse cx="1370" cy="1136.5996" fill="#84BE84" rx="3" ry="3" style="stroke:#038048;stroke-width:1.0;"/><text fill="#000000" font-family="sans-serif" font-size="14" lengthAdjust="spacing" textLength="97" x="1379" y="1140.3906">append_class(</text><text fill="#6060BB" font-family="sans-serif" font-size="14" lengthAdjust="spacing" textLength="554" x="1476" y="1140.3906">append_class:list_BRQTO_String_BRQTC, append_class:list_BRQTO_String_BRQTC</text><text fill="#000000" font-family="sans-serif" font-size="14" lengthAdjust="spacing" textLength="5" x="2030" y="1140.3906">)</text><rect fill="none" height="6" style="stroke:#C82930;stroke-width:1.0;" width="6" x="1367" y="1150.0879"/><text fill="#909090" font-family="sans-serif" font-size="14" lengthAdjust="spacing" textLength="348" x="1379" y="1156.8789">append_class.sub_datastructure: SubDataStructure</text><line style="stroke:#181818;stroke-width:1.0;" x1="1360" x2="2091" y1="1163.832" y2="1163.832"/><ellipse cx="1370" cy="1177.5762" fill="#84BE84" rx="3" ry="3" style="stroke:#038048;stroke-width:1.0;"/><text fill="#000000" font-family="sans-serif" font-size="14" lengthAdjust="spacing" textLength="132" x="1379" y="1181.3672">get_classname_list(</text><text fill="#000000" font-family="sans-serif" font-size="14" lengthAdjust="spacing" textLength="5" x="1511" y="1181.3672">)</text><ellipse cx="1370" cy="1194.0645" fill="#84BE84" rx="3" ry="3" style="stroke:#038048;stroke-width:1.0;"/><text fill="#000000" font-family="sans-serif" font-size="14" lengthAdjust="spacing" textLength="258" x="1379" y="1197.8555">get_datastructures_from_class_name(</text><text fill="#000000" font-family="sans-serif" font-size="14" lengthAdjust="spacing" textLength="5" x="1637" y="1197.8555">)</text></g></a><!--class CreateYML--><a href="preadapter.infrastructure.CreateYML-diagram-detailed.svg" target="_top" title="preadapter.infrastructure.CreateYML-diagram-detailed.svg" xlink:actuate="onRequest" xlink:href="preadapter.infrastructure.CreateYML-diagram-detailed.svg" xlink:show="new" xlink:title="preadapter.infrastructure.CreateYML-diagram-detailed.svg" xlink:type="simple"><g id="elem_CreateYML"><rect codeLine="34" fill="#F1F1F1" height="541.6719" id="CreateYML" rx="2.5" ry="2.5" style="stroke:#181818;stroke-width:0.5;" width="1397" x="440" y="128.5547"/><ellipse cx="1097.75" cy="144.5547" fill="#ADD1B2" rx="11" ry="11" style="stroke:#181818;stroke-width:1.0;"/><path d="M1100.2231,150.6978 Q1099.6421,150.9966 1099.0029,151.146 Q1098.3638,151.2954 1097.6582,151.2954 Q1095.1514,151.2954 1093.8315,149.6436 Q1092.5117,147.9917 1092.5117,144.8706 Q1092.5117,141.7412 1093.8315,140.0894 Q1095.1514,138.4375 1097.6582,138.4375 Q1098.3638,138.4375 1099.0112,138.5869 Q1099.6587,138.7363 1100.2231,139.0352 L1100.2231,141.7578 Q1099.5923,141.1768 1098.9988,140.907 Q1098.4053,140.6372 1097.7744,140.6372 Q1096.4297,140.6372 1095.7449,141.7039 Q1095.0601,142.7705 1095.0601,144.8706 Q1095.0601,146.9624 1095.7449,148.0291 Q1096.4297,149.0957 1097.7744,149.0957 Q1098.4053,149.0957 1098.9988,148.8259 Q1099.5923,148.5562 1100.2231,147.9751 Z " fill="#000000"/><text fill="#000000" font-family="sans-serif" font-size="14" lengthAdjust="spacing" textLength="73" x="1118.25" y="149.8457">CreateYML</text><line style="stroke:#181818;stroke-width:0.5;" x1="441" x2="1836" y1="160.5547" y2="160.5547"/><ellipse cx="451" cy="174.2988" fill="none" rx="3" ry="3" style="stroke:#038048;stroke-width:1.0;"/><text fill="#000000" font-family="sans-serif" font-size="14" lengthAdjust="spacing" textLength="306" x="460" y="178.0898">dummperOptions: DumperOptions.FlowStyle</text><ellipse cx="451" cy="190.7871" fill="none" rx="3" ry="3" style="stroke:#038048;stroke-width:1.0;"/><text fill="#000000" font-family="sans-serif" font-size="14" lengthAdjust="spacing" textLength="107" x="460" y="194.5781">startMark: Mark</text><ellipse cx="451" cy="207.2754" fill="none" rx="3" ry="3" style="stroke:#038048;stroke-width:1.0;"/><text fill="#000000" font-family="sans-serif" font-size="14" lengthAdjust="spacing" textLength="102" x="460" y="211.0664">endMark: Mark</text><line style="stroke:#181818;stroke-width:1.0;" x1="441" x2="1836" y1="218.0195" y2="218.0195"/><line style="stroke:#181818;stroke-width:1.0;" x1="441" x2="1836" y1="220.0195" y2="220.0195"/><rect fill="#F24D5C" height="6" style="stroke:#C82930;stroke-width:1.0;" width="6" x="448" y="228.7637"/><text fill="#000000" font-family="sans-serif" font-size="14" lengthAdjust="spacing" textLength="272" x="460" y="235.5547">appendTupleNodeValueSequenceNode(</text><text fill="#6060BB" font-family="sans-serif" font-size="14" lengthAdjust="spacing" textLength="744" x="732" y="235.5547">appendTupleNodeValueSequenceNode:dictpingNode, appendTupleNodeValueSequenceNode:SequenceNode</text><text fill="#000000" font-family="sans-serif" font-size="14" lengthAdjust="spacing" textLength="5" x="1476" y="235.5547">)</text><rect fill="#F24D5C" height="6" style="stroke:#C82930;stroke-width:1.0;" width="6" x="448" y="245.252"/><text fill="#000000" font-family="sans-serif" font-size="14" lengthAdjust="spacing" textLength="211" x="460" y="252.043">appendTupleNodeValueString(</text><text fill="#6060BB" font-family="sans-serif" font-size="14" lengthAdjust="spacing" textLength="302" x="671" y="252.043">appendTupleNodeValueString:dictpingNode</text><text fill="#000000" font-family="sans-serif" font-size="14" lengthAdjust="spacing" textLength="5" x="973" y="252.043">)</text><line style="stroke:#181818;stroke-width:1.0;" x1="441" x2="1836" y1="258.9961" y2="258.9961"/><rect fill="#F24D5C" height="6" style="stroke:#C82930;stroke-width:1.0;" width="6" x="448" y="269.7402"/><text fill="#000000" font-family="sans-serif" font-size="14" lengthAdjust="spacing" textLength="331" x="460" y="276.5313">appendTupleNodeValueStringToSequenceNode(</text><text fill="#6060BB" font-family="sans-serif" font-size="14" lengthAdjust="spacing" textLength="432" x="791" y="276.5313">appendTupleNodeValueStringToSequenceNode:SequenceNode</text><text fill="#000000" font-family="sans-serif" font-size="14" lengthAdjust="spacing" textLength="5" x="1223" y="276.5313">)</text><rect fill="none" height="6" style="stroke:#C82930;stroke-width:1.0;" width="6" x="448" y="286.2285"/><text fill="#909090" font-family="sans-serif" font-size="14" lengthAdjust="spacing" textLength="1371" x="460" y="293.0195">appendTupleNodeValueStringToSequenceNode.mappingNode: dictpingNode_BRQTO_Tag_DOT_MAP_COMMA__SPC_Arraylist_BRQTO__BRQTC_BRQTO__BRQTC_COMMA__SPC_dummperOptions_BRQTC</text><line style="stroke:#181818;stroke-width:1.0;" x1="441" x2="1836" y1="299.9727" y2="299.9727"/><rect fill="#F24D5C" height="6" style="stroke:#C82930;stroke-width:1.0;" width="6" x="448" y="310.7168"/><text fill="#000000" font-family="sans-serif" font-size="14" lengthAdjust="spacing" textLength="123" x="460" y="317.5078">appendSequence(</text><text fill="#6060BB" font-family="sans-serif" font-size="14" lengthAdjust="spacing" textLength="521" x="583" y="317.5078">appendSequence:dictpingNode, appendSequence:list_BRQTO_String_BRQTC</text><text fill="#000000" font-family="sans-serif" font-size="14" lengthAdjust="spacing" textLength="5" x="1104" y="317.5078">)</text><rect fill="none" height="6" style="stroke:#C82930;stroke-width:1.0;" width="6" x="448" y="327.2051"/><text fill="#909090" font-family="sans-serif" font-size="14" lengthAdjust="spacing" textLength="359" x="460" y="333.9961">appendSequence.subSequenceNode: SequenceNode</text><line style="stroke:#181818;stroke-width:1.0;" x1="441" x2="1836" y1="340.9492" y2="340.9492"/><ellipse cx="451" cy="354.6934" fill="#84BE84" rx="3" ry="3" style="stroke:#038048;stroke-width:1.0;"/><text fill="#000000" font-family="sans-serif" font-size="14" lengthAdjust="spacing" textLength="50" x="460" y="358.4844">Create(</text><text fill="#6060BB" font-family="sans-serif" font-size="14" lengthAdjust="spacing" textLength="463" x="510" y="358.4844">Create:preadapter.domain.Datastructure, Create:preadapter.Logger</text><text fill="#000000" font-family="sans-serif" font-size="14" lengthAdjust="spacing" textLength="5" x="973" y="358.4844">)</text><rect fill="none" height="6" style="stroke:#C82930;stroke-width:1.0;" width="6" x="448" y="368.1816"/><text fill="#909090" font-family="sans-serif" font-size="14" lengthAdjust="spacing" textLength="1247" x="460" y="374.9727">Create.subDataStructureSequenceYmlNode: SequenceNode_BRQTO_Tag_DOT_SEQ_COMMA__SPC_Arraylist_BRQTO__BRQTC_BRQTO__BRQTC_COMMA__SPC_dummperOptions_BRQTC</text><rect fill="none" height="6" style="stroke:#C82930;stroke-width:1.0;" width="6" x="448" y="384.6699"/><text fill="#909090" font-family="sans-serif" font-size="14" lengthAdjust="spacing" textLength="1234" x="460" y="391.4609">Create.subDataStructureMappingYmlNode: dictpingNode_BRQTO_Tag_DOT_MAP_COMMA__SPC_Arraylist_BRQTO__BRQTC_BRQTO__BRQTC_COMMA__SPC_dummperOptions_BRQTC</text><rect fill="none" height="6" style="stroke:#C82930;stroke-width:1.0;" width="6" x="448" y="401.1582"/><text fill="#909090" font-family="sans-serif" font-size="14" lengthAdjust="spacing" textLength="569" x="460" y="407.9492">Create.subDataStructure: preadapter.domain.Datastructure_DOT_SubDataStructure</text><rect fill="none" height="6" style="stroke:#C82930;stroke-width:1.0;" width="6" x="448" y="417.6465"/><text fill="#909090" font-family="sans-serif" font-size="14" lengthAdjust="spacing" textLength="1188" x="460" y="424.4375">Create.fromImportsSequenceNode: SequenceNode_BRQTO_Tag_DOT_SEQ_COMMA__SPC_Arraylist_BRQTO__BRQTC_BRQTO__BRQTC_COMMA__SPC_dummperOptions_BRQTC</text><rect fill="none" height="6" style="stroke:#C82930;stroke-width:1.0;" width="6" x="448" y="434.1348"/><text fill="#909090" font-family="sans-serif" font-size="14" lengthAdjust="spacing" textLength="1175" x="460" y="440.9258">Create.fromImportsMappingNode: dictpingNode_BRQTO_Tag_DOT_MAP_COMMA__SPC_Arraylist_BRQTO__BRQTC_BRQTO__BRQTC_COMMA__SPC_dummperOptions_BRQTC</text><rect fill="none" height="6" style="stroke:#C82930;stroke-width:1.0;" width="6" x="448" y="450.623"/><text fill="#909090" font-family="sans-serif" font-size="14" lengthAdjust="spacing" textLength="1145" x="460" y="457.4141">Create.staticsSequenceNode: SequenceNode_BRQTO_Tag_DOT_SEQ_COMMA__SPC_Arraylist_BRQTO__BRQTC_BRQTO__BRQTC_COMMA__SPC_dummperOptions_BRQTC</text><rect fill="none" height="6" style="stroke:#C82930;stroke-width:1.0;" width="6" x="448" y="467.1113"/><text fill="#909090" font-family="sans-serif" font-size="14" lengthAdjust="spacing" textLength="1132" x="460" y="473.9023">Create.staticsMappingNode: dictpingNode_BRQTO_Tag_DOT_MAP_COMMA__SPC_Arraylist_BRQTO__BRQTC_BRQTO__BRQTC_COMMA__SPC_dummperOptions_BRQTC</text><rect fill="none" height="6" style="stroke:#C82930;stroke-width:1.0;" width="6" x="448" y="483.5996"/><text fill="#909090" font-family="sans-serif" font-size="14" lengthAdjust="spacing" textLength="1163" x="460" y="490.3906">Create.variablesSequenceNode: SequenceNode_BRQTO_Tag_DOT_SEQ_COMMA__SPC_Arraylist_BRQTO__BRQTC_BRQTO__BRQTC_COMMA__SPC_dummperOptions_BRQTC</text><rect fill="none" height="6" style="stroke:#C82930;stroke-width:1.0;" width="6" x="448" y="500.0879"/><text fill="#909090" font-family="sans-serif" font-size="14" lengthAdjust="spacing" textLength="1150" x="460" y="506.8789">Create.variablesMappingNode: dictpingNode_BRQTO_Tag_DOT_MAP_COMMA__SPC_Arraylist_BRQTO__BRQTC_BRQTO__BRQTC_COMMA__SPC_dummperOptions_BRQTC</text><rect fill="none" height="6" style="stroke:#C82930;stroke-width:1.0;" width="6" x="448" y="516.5762"/><text fill="#909090" font-family="sans-serif" font-size="14" lengthAdjust="spacing" textLength="1162" x="460" y="523.3672">Create.methodsSequenceNode: SequenceNode_BRQTO_Tag_DOT_SEQ_COMMA__SPC_Arraylist_BRQTO__BRQTC_BRQTO__BRQTC_COMMA__SPC_dummperOptions_BRQTC</text><rect fill="none" height="6" style="stroke:#C82930;stroke-width:1.0;" width="6" x="448" y="533.0645"/><text fill="#909090" font-family="sans-serif" font-size="14" lengthAdjust="spacing" textLength="1078" x="460" y="539.8555">Create.parameters: SequenceNode_BRQTO_Tag_DOT_SEQ_COMMA__SPC_Arraylist_BRQTO__BRQTC_BRQTO__BRQTC_COMMA__SPC_dummperOptions_BRQTC</text><rect fill="none" height="6" style="stroke:#C82930;stroke-width:1.0;" width="6" x="448" y="549.5527"/><text fill="#909090" font-family="sans-serif" font-size="14" lengthAdjust="spacing" textLength="1219" x="460" y="556.3438">Create.methodParametersMappingNode: dictpingNode_BRQTO_Tag_DOT_MAP_COMMA__SPC_Arraylist_BRQTO__BRQTC_BRQTO__BRQTC_COMMA__SPC_dummperOptions_BRQTC</text><rect fill="none" height="6" style="stroke:#C82930;stroke-width:1.0;" width="6" x="448" y="566.041"/><text fill="#909090" font-family="sans-serif" font-size="14" lengthAdjust="spacing" textLength="1116" x="460" y="572.832">Create.methodVariables: SequenceNode_BRQTO_Tag_DOT_SEQ_COMMA__SPC_Arraylist_BRQTO__BRQTC_BRQTO__BRQTC_COMMA__SPC_dummperOptions_BRQTC</text><rect fill="none" height="6" style="stroke:#C82930;stroke-width:1.0;" width="6" x="448" y="582.5293"/><text fill="#909090" font-family="sans-serif" font-size="14" lengthAdjust="spacing" textLength="1205" x="460" y="589.3203">Create.methodVariablesMappingNode: dictpingNode_BRQTO_Tag_DOT_MAP_COMMA__SPC_Arraylist_BRQTO__BRQTC_BRQTO__BRQTC_COMMA__SPC_dummperOptions_BRQTC</text><rect fill="none" height="6" style="stroke:#C82930;stroke-width:1.0;" width="6" x="448" y="599.0176"/><text fill="#909090" font-family="sans-serif" font-size="14" lengthAdjust="spacing" textLength="1082" x="460" y="605.8086">Create.methodNode: dictpingNode_BRQTO_Tag_DOT_MAP_COMMA__SPC_Arraylist_BRQTO__BRQTC_BRQTO__BRQTC_COMMA__SPC_dummperOptions_BRQTC</text><rect fill="none" height="6" style="stroke:#C82930;stroke-width:1.0;" width="6" x="448" y="615.5059"/><text fill="#909090" font-family="sans-serif" font-size="14" lengthAdjust="spacing" textLength="1116" x="460" y="622.2969">Create.tmpMappingNode: dictpingNode_BRQTO_Tag_DOT_MAP_COMMA__SPC_Arraylist_BRQTO__BRQTC_BRQTO__BRQTC_COMMA__SPC_dummperOptions_BRQTC</text><rect fill="none" height="6" style="stroke:#C82930;stroke-width:1.0;" width="6" x="448" y="631.9941"/><text fill="#909090" font-family="sans-serif" font-size="14" lengthAdjust="spacing" textLength="123" x="460" y="638.7852">Create.yaml: Yaml</text><rect fill="none" height="6" style="stroke:#C82930;stroke-width:1.0;" width="6" x="448" y="648.4824"/><text fill="#909090" font-family="sans-serif" font-size="14" lengthAdjust="spacing" textLength="170" x="460" y="655.2734">Create.writer: PrintWriter</text><line style="stroke:#181818;stroke-width:1.0;" x1="441" x2="1836" y1="662.2266" y2="662.2266"/></g></a><!--class AnalyzeAST--><a href="preadapter.service.AnalyzeAST-diagram-detailed.svg" target="_top" title="preadapter.service.AnalyzeAST-diagram-detailed.svg" xlink:actuate="onRequest" xlink:href="preadapter.service.AnalyzeAST-diagram-detailed.svg" xlink:show="new" xlink:title="preadapter.service.AnalyzeAST-diagram-detailed.svg" xlink:type="simple"><g id="elem_AnalyzeAST"><rect codeLine="69" fill="#F1F1F1" height="130.4414" id="AnalyzeAST" rx="2.5" ry="2.5" style="stroke:#181818;stroke-width:0.5;" width="643" x="1894" y="334.5547"/><ellipse cx="2170.75" cy="350.5547" fill="#ADD1B2" rx="11" ry="11" style="stroke:#181818;stroke-width:1.0;"/><path d="M2173.2231,356.6978 Q2172.6421,356.9966 2172.0029,357.146 Q2171.3638,357.2954 2170.6582,357.2954 Q2168.1514,357.2954 2166.8315,355.6436 Q2165.5117,353.9917 2165.5117,350.8706 Q2165.5117,347.7412 2166.8315,346.0894 Q2168.1514,344.4375 2170.6582,344.4375 Q2171.3638,344.4375 2172.0112,344.5869 Q2172.6587,344.7363 2173.2231,345.0352 L2173.2231,347.7578 Q2172.5923,347.1768 2171.9988,346.907 Q2171.4053,346.6372 2170.7744,346.6372 Q2169.4297,346.6372 2168.7449,347.7039 Q2168.0601,348.7705 2168.0601,350.8706 Q2168.0601,352.9624 2168.7449,354.0291 Q2169.4297,355.0957 2170.7744,355.0957 Q2171.4053,355.0957 2171.9988,354.8259 Q2172.5923,354.5562 2173.2231,353.9751 Z " fill="#000000"/><text fill="#000000" font-family="sans-serif" font-size="14" lengthAdjust="spacing" textLength="81" x="2191.25" y="355.8457">AnalyzeAST</text><line style="stroke:#181818;stroke-width:0.5;" x1="1895" x2="2536" y1="366.5547" y2="366.5547"/><ellipse cx="1905" cy="380.2988" fill="#84BE84" rx="3" ry="3" style="stroke:#038048;stroke-width:1.0;"/><text fill="#000000" font-family="sans-serif" font-size="14" lengthAdjust="spacing" textLength="211" x="1914" y="384.0898">SearchRecurseCSharpToYAML(</text><text fill="#6060BB" font-family="sans-serif" font-size="14" lengthAdjust="spacing" textLength="338" x="2125" y="384.0898">SearchRecurseCSharpToYAML:preadapter.Logger</text><text fill="#000000" font-family="sans-serif" font-size="14" lengthAdjust="spacing" textLength="5" x="2463" y="384.0898">)</text><rect fill="none" height="6" style="stroke:#C82930;stroke-width:1.0;" width="6" x="1902" y="393.7871"/><text fill="#909090" font-family="sans-serif" font-size="14" lengthAdjust="spacing" textLength="539" x="1914" y="400.5781">SearchRecurseCSharpToYAML.datastructure: preadapter.domain.Datastructure</text><rect fill="none" height="6" style="stroke:#C82930;stroke-width:1.0;" width="6" x="1902" y="410.2754"/><text fill="#909090" font-family="sans-serif" font-size="14" lengthAdjust="spacing" textLength="617" x="1914" y="417.0664">SearchRecurseCSharpToYAML.recurseFileProcess: RecursiveFileProcessor_BRQTO__BRQTC</text><rect fill="none" height="6" style="stroke:#C82930;stroke-width:1.0;" width="6" x="1902" y="426.7637"/><text fill="#909090" font-family="sans-serif" font-size="14" lengthAdjust="spacing" textLength="476" x="1914" y="433.5547">SearchRecurseCSharpToYAML.listFilePaths: list_BRQTO_String_BRQTC</text><rect fill="none" height="6" style="stroke:#C82930;stroke-width:1.0;" width="6" x="1902" y="443.252"/><text fill="#909090" font-family="sans-serif" font-size="14" lengthAdjust="spacing" textLength="346" x="1914" y="450.043">SearchRecurseCSharpToYAML.cu: CompilationUnit</text><line style="stroke:#181818;stroke-width:1.0;" x1="1895" x2="2536" y1="456.9961" y2="456.9961"/></g></a><!--class RecursiveFileProcessor--><a href="preadapter.service.RecursiveFileProcessor-diagram-detailed.svg" target="_top" title="preadapter.service.RecursiveFileProcessor-diagram-detailed.svg" xlink:actuate="onRequest" xlink:href="preadapter.service.RecursiveFileProcessor-diagram-detailed.svg" xlink:show="new" xlink:title="preadapter.service.RecursiveFileProcessor-diagram-detailed.svg" xlink:type="simple"><g id="elem_RecursiveFileProcessor"><rect codeLine="77" fill="#F1F1F1" height="138.4414" id="RecursiveFileProcessor" rx="2.5" ry="2.5" style="stroke:#181818;stroke-width:0.5;" width="455" x="2572" y="330.5547"/><ellipse cx="2717.25" cy="346.5547" fill="#ADD1B2" rx="11" ry="11" style="stroke:#181818;stroke-width:1.0;"/><path d="M2719.7231,352.6978 Q2719.1421,352.9966 2718.5029,353.146 Q2717.8638,353.2954 2717.1582,353.2954 Q2714.6514,353.2954 2713.3315,351.6436 Q2712.0117,349.9917 2712.0117,346.8706 Q2712.0117,343.7412 2713.3315,342.0894 Q2714.6514,340.4375 2717.1582,340.4375 Q2717.8638,340.4375 2718.5112,340.5869 Q2719.1587,340.7363 2719.7231,341.0352 L2719.7231,343.7578 Q2719.0923,343.1768 2718.4988,342.907 Q2717.9053,342.6372 2717.2744,342.6372 Q2715.9297,342.6372 2715.2449,343.7039 Q2714.5601,344.7705 2714.5601,346.8706 Q2714.5601,348.9624 2715.2449,350.0291 Q2715.9297,351.0957 2717.2744,351.0957 Q2717.9053,351.0957 2718.4988,350.8259 Q2719.0923,350.5562 2719.7231,349.9751 Z " fill="#000000"/><text fill="#000000" font-family="sans-serif" font-size="14" lengthAdjust="spacing" textLength="156" x="2737.75" y="351.8457">RecursiveFileProcessor</text><line style="stroke:#181818;stroke-width:0.5;" x1="2573" x2="3026" y1="362.5547" y2="362.5547"/><ellipse cx="2583" cy="376.2988" fill="#84BE84" rx="3" ry="3" style="stroke:#038048;stroke-width:1.0;"/><text fill="#000000" font-family="sans-serif" font-size="14" lengthAdjust="spacing" textLength="81" x="2592" y="380.0898">SearchPath(</text><text fill="#000000" font-family="sans-serif" font-size="14" lengthAdjust="spacing" textLength="5" x="2673" y="380.0898">)</text><rect fill="none" height="6" style="stroke:#C82930;stroke-width:1.0;" width="6" x="2580" y="389.7871"/><text fill="#909090" font-family="sans-serif" font-size="14" lengthAdjust="spacing" textLength="309" x="2592" y="396.5781">SearchPath.fileList: list_BRQTO_String_BRQTC</text><line style="stroke:#181818;stroke-width:1.0;" x1="2573" x2="3026" y1="403.5313" y2="403.5313"/><rect fill="#F24D5C" height="6" style="stroke:#C82930;stroke-width:1.0;" width="6" x="2580" y="414.2754"/><text fill="#000000" font-family="sans-serif" font-size="14" lengthAdjust="spacing" textLength="119" x="2592" y="421.0664">ProcessDirectory(</text><text fill="#6060BB" font-family="sans-serif" font-size="14" lengthAdjust="spacing" textLength="295" x="2711" y="421.0664">ProcessDirectory:list_BRQTO_String_BRQTC</text><text fill="#000000" font-family="sans-serif" font-size="14" lengthAdjust="spacing" textLength="5" x="3006" y="421.0664">)</text><rect fill="none" height="6" style="stroke:#C82930;stroke-width:1.0;" width="6" x="2580" y="430.7637"/><text fill="#909090" font-family="sans-serif" font-size="14" lengthAdjust="spacing" textLength="429" x="2592" y="437.5547">ProcessDirectory.stream: DirectoryStream_BRQTO_Path_BRQTC</text><rect fill="none" height="6" style="stroke:#C82930;stroke-width:1.0;" width="6" x="2580" y="447.252"/><text fill="#909090" font-family="sans-serif" font-size="14" lengthAdjust="spacing" textLength="187" x="2592" y="454.043">ProcessDirectory.path: Path</text><line style="stroke:#181818;stroke-width:1.0;" x1="2573" x2="3026" y1="460.9961" y2="460.9961"/></g></a><g id="elem_FloatingNote"><path d="M6,275.5547 L6,523.2129 L383,523.2129 L383,285.5547 L373,275.5547 L6,275.5547 " fill="#FEFFDD" style="stroke:#181818;stroke-width:0.5;"/><path d="M373,275.5547 L373,285.5547 L383,285.5547 L373,275.5547 " fill="#FEFFDD" style="stroke:#181818;stroke-width:1.0;"/><text fill="#000000" font-family="sans-serif" font-size="13" lengthAdjust="spacing" textLength="120" x="12" y="293.123">Your are analyzing:</text><text fill="#000000" font-family="sans-serif" font-size="13" lengthAdjust="spacing" textLength="163" x="12" y="308.4336">list_BRQTO_String_BRQTC</text><text fill="#000000" font-family="sans-serif" font-size="13" font-weight="bold" lengthAdjust="spacing" textLength="55" x="179" y="308.4336">detailed</text><text fill="#000000" font-family="sans-serif" font-size="13" lengthAdjust="spacing" textLength="4" x="234" y="308.4336">&#160;</text><text fill="#000000" font-family="sans-serif" font-size="13" lengthAdjust="spacing" textLength="4" x="12" y="323.7441">&#160;</text><text fill="#000000" font-family="sans-serif" font-size="13" lengthAdjust="spacing" textLength="229" x="12" y="354.3652">You can click either the namespaces</text><text fill="#000000" font-family="sans-serif" font-size="13" lengthAdjust="spacing" textLength="266" x="12" y="369.6758">or class names for filtering them and their</text><text fill="#000000" font-family="sans-serif" font-size="13" lengthAdjust="spacing" textLength="130" x="12" y="384.9863">direct dependencies.</text><text fill="#000000" font-family="sans-serif" font-size="13" lengthAdjust="spacing" textLength="4" x="12" y="400.2969">&#160;</text><line style="stroke:#181818;stroke-width:1.0;" x1="7" x2="178.5" y1="334.1416" y2="334.1416"/><line style="stroke:#181818;stroke-width:1.0;" x1="7" x2="178.5" y1="336.1416" y2="336.1416"/><text fill="#000000" font-family="sans-serif" font-size="13" lengthAdjust="spacing" textLength="32" x="178.5" y="338.5547">Filter</text><line style="stroke:#181818;stroke-width:1.0;" x1="210.5" x2="382" y1="334.1416" y2="334.1416"/><line style="stroke:#181818;stroke-width:1.0;" x1="210.5" x2="382" y1="336.1416" y2="336.1416"/><ellipse cx="17.5" cy="430.1602" fill="#000000" rx="2.5" ry="2.5" style="stroke:#000000;stroke-width:0.0;"/><text fill="#000000" font-family="sans-serif" font-size="13" lengthAdjust="spacing" textLength="163" x="24" y="434.918">list_BRQTO_String_BRQTC</text><text fill="#000000" font-family="sans-serif" font-size="13" font-weight="bold" lengthAdjust="spacing" textLength="67" x="191" y="434.918">simplified</text><text fill="#000000" font-family="sans-serif" font-size="13" lengthAdjust="spacing" textLength="4" x="262" y="434.918">:</text><text fill="#000000" font-family="sans-serif" font-size="13" lengthAdjust="spacing" textLength="12" x="12" y="450.2285">&#160;&#160;&#160;</text><a href="list_BRQTO_String_BRQTC-diagram-simplified.svg" target="_top" title="list_BRQTO_String_BRQTC-diagram-simplified.svg" xlink:actuate="onRequest" xlink:href="list_BRQTO_String_BRQTC-diagram-simplified.svg" xlink:show="new" xlink:title="list_BRQTO_String_BRQTC-diagram-simplified.svg" xlink:type="simple"><text fill="#0000FF" font-family="sans-serif" font-size="13" lengthAdjust="spacing" text-decoration="underline" textLength="319" x="24" y="450.2285">list_BRQTO_String_BRQTC-diagram-simplified.svg</text></a><ellipse cx="17.5" cy="460.7813" fill="#000000" rx="2.5" ry="2.5" style="stroke:#000000;stroke-width:0.0;"/><text fill="#000000" font-family="sans-serif" font-size="13" lengthAdjust="spacing" textLength="78" x="24" y="465.5391">Full diagram</text><text fill="#000000" font-family="sans-serif" font-size="13" font-weight="bold" lengthAdjust="spacing" textLength="55" x="106" y="465.5391">detailed</text><text fill="#000000" font-family="sans-serif" font-size="13" lengthAdjust="spacing" textLength="23" x="165" y="465.5391">and</text><text fill="#000000" font-family="sans-serif" font-size="13" font-weight="bold" lengthAdjust="spacing" textLength="166" x="192" y="465.5391">grouped per namespace</text><text fill="#000000" font-family="sans-serif" font-size="13" lengthAdjust="spacing" textLength="4" x="358" y="465.5391">:</text><text fill="#000000" font-family="sans-serif" font-size="13" lengthAdjust="spacing" textLength="12" x="12" y="480.8496">&#160;&#160;&#160;</text><a href="full-diagram-detailed-grouped-per-namespace.svg" target="_top" title="full-diagram-detailed-grouped-per-namespace.svg" xlink:actuate="onRequest" xlink:href="full-diagram-detailed-grouped-per-namespace.svg" xlink:show="new" xlink:title="full-diagram-detailed-grouped-per-namespace.svg" xlink:type="simple"><text fill="#0000FF" font-family="sans-serif" font-size="13" lengthAdjust="spacing" text-decoration="underline" textLength="330" x="24" y="480.8496">full-diagram-detailed-grouped-per-namespace.svg</text></a><ellipse cx="17.5" cy="491.4023" fill="#000000" rx="2.5" ry="2.5" style="stroke:#000000;stroke-width:0.0;"/><text fill="#000000" font-family="sans-serif" font-size="13" lengthAdjust="spacing" textLength="41" x="24" y="496.1602">Home:</text><text fill="#000000" font-family="sans-serif" font-size="13" lengthAdjust="spacing" textLength="12" x="12" y="511.4707">&#160;&#160;&#160;</text><a href="index.html" target="_top" title="index.html" xlink:actuate="onRequest" xlink:href="index.html" xlink:show="new" xlink:title="index.html" xlink:type="simple"><text fill="#0000FF" font-family="sans-serif" font-size="13" lengthAdjust="spacing" text-decoration="underline" textLength="68" x="24" y="511.4707">index.html</text></a><line style="stroke:#181818;stroke-width:1.0;" x1="7" x2="157.5" y1="414.6943" y2="414.6943"/><line style="stroke:#181818;stroke-width:1.0;" x1="7" x2="157.5" y1="416.6943" y2="416.6943"/><text fill="#000000" font-family="sans-serif" font-size="13" lengthAdjust="spacing" textLength="74" x="157.5" y="419.1074">Select other</text><line style="stroke:#181818;stroke-width:1.0;" x1="231.5" x2="382" y1="414.6943" y2="414.6943"/><line style="stroke:#181818;stroke-width:1.0;" x1="231.5" x2="382" y1="416.6943" y2="416.6943"/></g><!--class list_BRQTO_String_BRQTC--><a href="list_BRQTO_String_BRQTC-diagram-detailed.svg" target="_top" title="list_BRQTO_String_BRQTC-diagram-detailed.svg" xlink:actuate="onRequest" xlink:href="list_BRQTO_String_BRQTC-diagram-detailed.svg" xlink:show="new" xlink:title="list_BRQTO_String_BRQTC-diagram-detailed.svg" xlink:type="simple"><g id="elem_list_BRQTO_String_BRQTC"><rect codeLine="3" fill="#FFFF00" height="48" id="list_BRQTO_String_BRQTC" rx="2.5" ry="2.5" style="stroke:#181818;stroke-width:0.5;" width="209" x="2108" y="1307.5547"/><ellipse cx="2123" cy="1323.5547" fill="#ADD1B2" rx="11" ry="11" style="stroke:#181818;stroke-width:1.0;"/><path d="M2125.4731,1329.6978 Q2124.8921,1329.9966 2124.2529,1330.146 Q2123.6138,1330.2954 2122.9082,1330.2954 Q2120.4014,1330.2954 2119.0815,1328.6436 Q2117.7617,1326.9917 2117.7617,1323.8706 Q2117.7617,1320.7412 2119.0815,1319.0894 Q2120.4014,1317.4375 2122.9082,1317.4375 Q2123.6138,1317.4375 2124.2612,1317.5869 Q2124.9087,1317.7363 2125.4731,1318.0352 L2125.4731,1320.7578 Q2124.8423,1320.1768 2124.2488,1319.907 Q2123.6553,1319.6372 2123.0244,1319.6372 Q2121.6797,1319.6372 2120.9949,1320.7039 Q2120.3101,1321.7705 2120.3101,1323.8706 Q2120.3101,1325.9624 2120.9949,1327.0291 Q2121.6797,1328.0957 2123.0244,1328.0957 Q2123.6553,1328.0957 2124.2488,1327.8259 Q2124.8423,1327.5562 2125.4731,1326.9751 Z " fill="#000000"/><text fill="#000000" font-family="sans-serif" font-size="14" lengthAdjust="spacing" textLength="177" x="2137" y="1328.8457">list_BRQTO_String_BRQTC</text><line style="stroke:#181818;stroke-width:0.5;" x1="2109" x2="2316" y1="1339.5547" y2="1339.5547"/><line style="stroke:#181818;stroke-width:0.5;" x1="2109" x2="2316" y1="1347.5547" y2="1347.5547"/></g></a><!--link Datastructure to list_BRQTO_String_BRQTC--><g id="link_Datastructure_list_BRQTO_String_BRQTC"><path codeLine="93" d="M1869.31,1204.8047 C1895.52,1232.5847 1924.75,1258.0747 1956.5,1277.5547 C1999.9,1304.1847 2054.43,1317.6547 2101.99,1324.3747 " fill="none" id="Datastructure-to-list_BRQTO_String_BRQTC" style="stroke:#6060BB;stroke-width:1.0;stroke-dasharray:7.0,7.0;"/><polygon fill="#6060BB" points="2106.76,1325.1647,2098.3783,1319.9929,2101.8052,1324.4936,2097.3046,1327.9205,2106.76,1325.1647" style="stroke:#6060BB;stroke-width:1.0;"/><text fill="#000000" font-family="sans-serif" font-size="13" lengthAdjust="spacing" textLength="29" x="1957.5" y="1274.123">uses</text></g><!--link Datastructure to list_BRQTO_String_BRQTC--><g id="link_Datastructure_list_BRQTO_String_BRQTC"><path codeLine="94" d="M1997.42,1205.0447 C2033.06,1230.5347 2069.66,1255.3347 2105.5,1277.5547 C2121.15,1287.2547 2138.82,1296.6047 2155.22,1304.6847 " fill="none" id="Datastructure-to-list_BRQTO_String_BRQTC-1" style="stroke:#909090;stroke-width:1.0;"/><polygon fill="#909090" points="2159.27,1307.1447,2152.922,1299.6145,2154.7725,1304.9602,2149.4268,1306.8106,2159.27,1307.1447" style="stroke:#909090;stroke-width:1.0;"/><text fill="#000000" font-family="sans-serif" font-size="13" lengthAdjust="spacing" textLength="29" x="2106.5" y="1274.123">uses</text></g><!--link CreateYML to list_BRQTO_String_BRQTC--><g id="link_CreateYML_list_BRQTO_String_BRQTC"><path codeLine="97" d="M1786.02,671.0347 C1816.7,679.7647 1847.29,687.6847 1877.5,694.5547 C1928.07,706.0447 2073.57,689.2247 2108.5,727.5547 C2187.68,814.4447 2139.5,1140.0247 2173.5,1252.5547 C2178.69,1269.7247 2187.42,1287.7047 2195.31,1302.0647 " fill="none" id="CreateYML-to-list_BRQTO_String_BRQTC" style="stroke:#6060BB;stroke-width:1.0;stroke-dasharray:7.0,7.0;"/><polygon fill="#6060BB" points="2198.18,1306.1847,2197.2677,1296.3782,2195.7348,1301.8234,2190.2896,1300.2905,2198.18,1306.1847" style="stroke:#6060BB;stroke-width:1.0;"/><text fill="#000000" font-family="sans-serif" font-size="13" lengthAdjust="spacing" textLength="29" x="2174.5" y="992.623">uses</text></g><!--link CreateYML to Datastructure--><g id="link_CreateYML_Datastructure"><path codeLine="98" d="M1409.23,670.8247 C1441.17,702.7147 1473.47,734.9547 1504.61,766.0347 " fill="none" id="CreateYML-to-Datastructure" style="stroke:#6060BB;stroke-width:1.0;stroke-dasharray:7.0,7.0;"/><polygon fill="#6060BB" points="1507.79,769.2147,1504.2359,760.0295,1504.2473,765.6863,1498.5905,765.6977,1507.79,769.2147" style="stroke:#6060BB;stroke-width:1.0;"/><text fill="#000000" font-family="sans-serif" font-size="13" lengthAdjust="spacing" textLength="29" x="1450.5" y="716.123">uses</text></g><!--link AnalyzeAST to Datastructure--><g id="link_AnalyzeAST_Datastructure"><path codeLine="101" d="M2161.66,464.9447 C2101.22,537.2347 1999.82,658.4847 1910.01,765.9047 " fill="none" id="AnalyzeAST-to-Datastructure" style="stroke:#909090;stroke-width:1.0;"/><polygon fill="#909090" points="1906.28,769.3647,1915.113,765.0082,1909.4795,765.5224,1908.9653,759.889,1906.28,769.3647" style="stroke:#909090;stroke-width:1.0;"/><text fill="#000000" font-family="sans-serif" font-size="13" lengthAdjust="spacing" textLength="29" x="1956.5" y="716.123">uses</text></g><!--link AnalyzeAST to list_BRQTO_String_BRQTC--><g id="link_AnalyzeAST_list_BRQTO_String_BRQTC"><path codeLine="102" d="M2215.29,464.8447 C2214.7,648.7947 2213.01,1172.2947 2212.59,1301.4747 " fill="none" id="AnalyzeAST-to-list_BRQTO_String_BRQTC" style="stroke:#909090;stroke-width:1.0;"/><polygon fill="#909090" points="2212.57,1306.3247,2216.5957,1297.3362,2212.5843,1301.3247,2208.5957,1297.3133,2212.57,1306.3247" style="stroke:#909090;stroke-width:1.0;"/><text fill="#000000" font-family="sans-serif" font-size="13" lengthAdjust="spacing" textLength="29" x="2214.5" y="992.623">uses</text></g><!--link RecursiveFileProcessor to list_BRQTO_String_BRQTC--><g id="link_RecursiveFileProcessor_list_BRQTO_String_BRQTC"><path codeLine="103" d="M2756.34,468.9447 C2637.78,656.7747 2310.61,1175.1147 2230.42,1302.1647 " fill="none" id="RecursiveFileProcessor-to-list_BRQTO_String_BRQTC" style="stroke:#909090;stroke-width:1.0;"/><polygon fill="#909090" points="2227.23,1306.2247,2235.4186,1300.7523,2229.9005,1301.9976,2228.6552,1296.4795,2227.23,1306.2247" style="stroke:#909090;stroke-width:1.0;"/><text fill="#000000" font-family="sans-serif" font-size="13" lengthAdjust="spacing" textLength="29" x="2593.5" y="992.623">uses</text></g><!--link RecursiveFileProcessor to list_BRQTO_String_BRQTC--><g id="link_RecursiveFileProcessor_list_BRQTO_String_BRQTC"><path codeLine="104" d="M2809.02,468.7947 C2827.35,630.2047 2848.39,1037.9547 2631.5,1252.5547 C2588.87,1294.7347 2432.23,1314.7747 2323.06,1323.7947 " fill="none" id="RecursiveFileProcessor-to-list_BRQTO_String_BRQTC-1" style="stroke:#6060BB;stroke-width:1.0;stroke-dasharray:7.0,7.0;"/><polygon fill="#6060BB" points="2318.24,1324.2647,2327.5403,1327.5057,2323.2228,1323.8506,2326.8779,1319.5331,2318.24,1324.2647" style="stroke:#6060BB;stroke-width:1.0;"/><text fill="#000000" font-family="sans-serif" font-size="13" lengthAdjust="spacing" textLength="29" x="2818.5" y="992.623">uses</text></g><!--SRC=[rLbRJ-Cu57xlhx3WONOBpQ1z66aYMgcKxUvAb5iwh52f8fES5eiapjeEJ6Ur_trjvzAcIPgq20q5AH3xdEzSVNpi228yGAUS_03pjvEUHxYmpsvlnbUs9HW9vlfbWDfj5mGc7hZjDZhzhCXxhO0AG0VtD688Cq0umDxYX-Gn7u96E0_1Gz3j3eadW7Mx3u54GWuEaECHvna14K_0a7oW0Fl0G-m0bpoKIGBCUJoAPl9zfY6a54NjIqLSzGzX3u5B63W2kH12u4BW4E16BDO2JyrG9KG9RwDgdJdnGu_CYDPQMeSGcamgo3ikmNE6_SwIoU0ly-bKYHX6deSIWhmlbCxjzfpHA0GNXTBmpEXsEnKva-mPVihSIPWwagcJCIrb_abzI068TC9tuqdutdHwW317GuzY8NM_bA5inMwjSaEznQb6iMnqk03Few_etzP_BPJ4B6I0NHpAQ1akzJ49Z7CiC1SiSaGaSsWogQ6e4YQbI0lHKIp75jHsLzbCwNL7J6ArZwteKO5QwUmquSsyL-3dUG3bYKa1fHHc-QAOoc3q_napVoQXBHQX4hawdqnxT3u7Pguwya8FjRhTXEGMEFLUOA0SSQca_t8weu503lKewnvyEVboSdPsq3lzh4Pxlsgk3ihHV3rHlmUz0fJnWXd1ZrwgNP8ETybed109ycx09ah1TeBnGJnHrqGZ_NSd2BuMLnEjHpg5xNGIv05bgive4CkX8PIxl41chYCV5w7CYcMNnI_HuWZz0M9uStuvfEmR1pUpg5oN2cApmjQDQLA1PUYrg1R0XKxzpORi8c16XAfUo-39M2sHh-mt2tW4BePR2ScYCGTXBnTpWpLuX72ejYbR9c2- -fGpLr5NXp3JBM7LyTa8hYcgCl0ODQ5gaa2hE4RHeBe563ixopPTQHivNB7bwxmzOzIFeNJfheKftTj8C6DBK6CWPmJSZoxo-riLLUqUvqQ-BtVxgr0G6iXqF8zMNWsvfxzQOk51kgC8pCG8isTP5UKp6PN-NXbBDezE4j5n57fmILsumru45lmJoTv93spAbcekK-rweUupN3Yk5MAklgpbJoclJhSjLDFqEQNMryWcGMEweqTAk3UPkc6fr0CRlgHCZ8kxZlGjMQDZFBVFhyRsg7zj3wv6exvjMzS3kyyONgmivNWHvrzMoFEfM5eAKrUcscroM4fJcZ3Pv9ihJOgaQaqk6gWa7Cig4w_GYhrTpvarxUinAjB5_LiJvMFUGeEIwdplUqKZrg9j_NxpJj7UNkzHdA6PsZybIRTNswmxnSIEhjYowkMf7UWlFwHCyEhS_41XNT5tzDDhJeDm2ddYTVR3jOck- -3Mx62u5uxDjDq7ryPdslrmR8XbumgoCl8FgsBipkjCqVr9WRlbvSk7zktT_gsk3wsYyCDzyEG2-vw9xkMpESyh8qBTPrxBDbxyhLzoRNVfyPe3Uo6oU-_hBmxGjyRvWtLnllP8RG5cpjCjE17ZCB2UC0l7zBu_kYZlzYl9TsliA-6CjOkGciwpWT-hHR5uR2ZTSyse0roMcPYElAoEKhRjxLgrJ9MQ6XgB9_wM6y9g4KvaeW7rG-9XbTNV0YAQPrYv_UNPLaxRCFEK0tQ_frzY63Cfez5rQtOwJrGzrv_AA5kKgx5EzPP3-3gMx7EbEtqJPIEM7aZWbLsD4w607KfkML_aSptidr2xsGzwDzfFI5yh8mPnTd84tmN3ZW0NgNFLybkIAMct92yKYrRTvpTZSXZ7UshqAZy48XD573YgHUjC3kEeJ3iDq7QsBN-Dscfo3RkpdSqGwnppTfkJcjFQl2dc0j1OgIqmjt5TJKbzBzojGlq_]--></g></svg>