<?xml version="1.0" encoding="us-ascii" standalone="no"?><svg xmlns="http://www.w3.org/2000/svg" xmlns:xlink="http://www.w3.org/1999/xlink" contentStyleType="text/css" height="984px" preserveAspectRatio="none" style="width:1545px;height:984px;background:#FFFFFF;" version="1.1" viewBox="0 0 1545 984" width="1545px" zoomAndPan="magnify"><defs/><g><text fill="#000000" font-family="sans-serif" font-size="20" font-weight="bold" lengthAdjust="spacing" textLength="819" x="307" y="29.3359">list_BRQTO_tuple_BRQTO_String_COMMA_String_COMMA_String_BRQTC_BRQTC</text><text fill="#000000" font-family="sans-serif" font-size="20" font-weight="bold" lengthAdjust="spacing" textLength="84" x="1133" y="29.3359">detailed</text><text fill="#000000" font-family="sans-serif" font-size="20" font-weight="bold" lengthAdjust="spacing" textLength="7" x="1217" y="29.3359">&#160;</text><!--cluster preadapter--><g id="cluster_preadapter"><path d="M722.5,50.5547 L800.5,50.5547 A3.75,3.75 0 0 1 803,53.0547 L810,73.043 L1535.5,73.043 A2.5,2.5 0 0 1 1538,75.543 L1538,864.0547 A2.5,2.5 0 0 1 1535.5,866.5547 L722.5,866.5547 A2.5,2.5 0 0 1 720,864.0547 L720,53.0547 A2.5,2.5 0 0 1 722.5,50.5547 " fill="none" style="stroke:#000000;stroke-width:1.5;"/><line style="stroke:#000000;stroke-width:1.5;" x1="720" x2="810" y1="73.043" y2="73.043"/><text fill="#000000" font-family="sans-serif" font-size="14" font-weight="bold" lengthAdjust="spacing" textLength="77" x="724" y="66.0898">preadapter</text></g><!--cluster domain--><g id="cluster_domain"><path d="M746.5,93.5547 L801.5,93.5547 A3.75,3.75 0 0 1 804,96.0547 L811,116.043 L1511.5,116.043 A2.5,2.5 0 0 1 1514,118.543 L1514,840.0547 A2.5,2.5 0 0 1 1511.5,842.5547 L746.5,842.5547 A2.5,2.5 0 0 1 744,840.0547 L744,96.0547 A2.5,2.5 0 0 1 746.5,93.5547 " fill="none" style="stroke:#000000;stroke-width:1.5;"/><line style="stroke:#000000;stroke-width:1.5;" x1="744" x2="811" y1="116.043" y2="116.043"/><text fill="#000000" font-family="sans-serif" font-size="14" font-weight="bold" lengthAdjust="spacing" textLength="54" x="748" y="109.0898">domain</text></g><!--class ASTVisitor--><a href="preadapter.domain.ASTVisitor-diagram-detailed.svg" target="_top" title="preadapter.domain.ASTVisitor-diagram-detailed.svg" xlink:actuate="onRequest" xlink:href="preadapter.domain.ASTVisitor-diagram-detailed.svg" xlink:show="new" xlink:title="preadapter.domain.ASTVisitor-diagram-detailed.svg" xlink:type="simple"><g id="elem_ASTVisitor"><rect codeLine="5" fill="#F1F1F1" height="698.0664" id="ASTVisitor" rx="2.5" ry="2.5" style="stroke:#181818;stroke-width:0.5;" width="737" x="760.5" y="128.5547"/><ellipse cx="1089.25" cy="144.5547" fill="#ADD1B2" rx="11" ry="11" style="stroke:#181818;stroke-width:1.0;"/><path d="M1091.7231,150.6978 Q1091.1421,150.9966 1090.5029,151.146 Q1089.8638,151.2954 1089.1582,151.2954 Q1086.6514,151.2954 1085.3315,149.6436 Q1084.0117,147.9917 1084.0117,144.8706 Q1084.0117,141.7412 1085.3315,140.0894 Q1086.6514,138.4375 1089.1582,138.4375 Q1089.8638,138.4375 1090.5112,138.5869 Q1091.1587,138.7363 1091.7231,139.0352 L1091.7231,141.7578 Q1091.0923,141.1768 1090.4988,140.907 Q1089.9053,140.6372 1089.2744,140.6372 Q1087.9297,140.6372 1087.2449,141.7039 Q1086.5601,142.7705 1086.5601,144.8706 Q1086.5601,146.9624 1087.2449,148.0291 Q1087.9297,149.0957 1089.2744,149.0957 Q1089.9053,149.0957 1090.4988,148.8259 Q1091.0923,148.5562 1091.7231,147.9751 Z " fill="#000000"/><text fill="#000000" font-family="sans-serif" font-size="14" lengthAdjust="spacing" textLength="71" x="1109.75" y="149.8457">ASTVisitor</text><line style="stroke:#181818;stroke-width:0.5;" x1="761.5" x2="1496.5" y1="160.5547" y2="160.5547"/><ellipse cx="771.5" cy="174.2988" fill="none" rx="3" ry="3" style="stroke:#038048;stroke-width:1.0;"/><text fill="#000000" font-family="sans-serif" font-size="14" lengthAdjust="spacing" textLength="181" x="780.5" y="178.0898">logger: preadapter.Logger</text><ellipse cx="771.5" cy="190.7871" fill="none" rx="3" ry="3" style="stroke:#038048;stroke-width:1.0;"/><text fill="#000000" font-family="sans-serif" font-size="14" lengthAdjust="spacing" textLength="329" x="780.5" y="194.5781">datastructure: preadapter.domain.Datastructure</text><ellipse cx="771.5" cy="207.2754" fill="none" rx="3" ry="3" style="stroke:#038048;stroke-width:1.0;"/><text fill="#000000" font-family="sans-serif" font-size="14" lengthAdjust="spacing" textLength="193" x="780.5" y="211.0664">activeMethodList: list[String]</text><ellipse cx="771.5" cy="223.7637" fill="none" rx="3" ry="3" style="stroke:#038048;stroke-width:1.0;"/><text fill="#000000" font-family="sans-serif" font-size="14" lengthAdjust="spacing" textLength="215" x="780.5" y="227.5547">activeClassnameList: list[String]</text><ellipse cx="771.5" cy="240.252" fill="none" rx="3" ry="3" style="stroke:#038048;stroke-width:1.0;"/><text fill="#000000" font-family="sans-serif" font-size="14" lengthAdjust="spacing" textLength="179" x="780.5" y="244.043">namespaceList: list[String]</text><ellipse cx="771.5" cy="256.7402" fill="none" rx="3" ry="3" style="stroke:#038048;stroke-width:1.0;"/><text fill="#000000" font-family="sans-serif" font-size="14" lengthAdjust="spacing" textLength="134" x="780.5" y="260.5313">allUsing: list[String]</text><ellipse cx="771.5" cy="273.2285" fill="none" rx="3" ry="3" style="stroke:#038048;stroke-width:1.0;"/><text fill="#000000" font-family="sans-serif" font-size="14" lengthAdjust="spacing" textLength="193" x="780.5" y="277.0195">usingDict: dict[String,String]</text><ellipse cx="771.5" cy="289.7168" fill="none" rx="3" ry="3" style="stroke:#038048;stroke-width:1.0;"/><text fill="#000000" font-family="sans-serif" font-size="14" lengthAdjust="spacing" textLength="187" x="780.5" y="293.5078">deepness: HandleDeepness</text><ellipse cx="771.5" cy="306.2051" fill="none" rx="3" ry="3" style="stroke:#038048;stroke-width:1.0;"/><text fill="#000000" font-family="sans-serif" font-size="14" lengthAdjust="spacing" textLength="157" x="780.5" y="309.9961">ignoreType: list[String]</text><line style="stroke:#181818;stroke-width:1.0;" x1="761.5" x2="1496.5" y1="316.9492" y2="316.9492"/><line style="stroke:#181818;stroke-width:1.0;" x1="761.5" x2="1496.5" y1="318.9492" y2="318.9492"/><ellipse cx="771.5" cy="330.6934" fill="#84BE84" rx="3" ry="3" style="stroke:#038048;stroke-width:1.0;"/><text fill="#000000" font-family="sans-serif" font-size="14" lengthAdjust="spacing" textLength="92" x="780.5" y="334.4844">SimplifyType(</text><text fill="#000000" font-family="sans-serif" font-size="14" lengthAdjust="spacing" textLength="5" x="872.5" y="334.4844">)</text><ellipse cx="771.5" cy="347.1816" fill="#84BE84" rx="3" ry="3" style="stroke:#038048;stroke-width:1.0;"/><text fill="#000000" font-family="sans-serif" font-size="14" lengthAdjust="spacing" textLength="116" x="780.5" y="350.9727">cleanClassName(</text><text fill="#000000" font-family="sans-serif" font-size="14" lengthAdjust="spacing" textLength="5" x="896.5" y="350.9727">)</text><line style="stroke:#181818;stroke-width:1.0;" x1="761.5" x2="1496.5" y1="357.9258" y2="357.9258"/><ellipse cx="771.5" cy="371.6699" fill="#84BE84" rx="3" ry="3" style="stroke:#038048;stroke-width:1.0;"/><text fill="#000000" font-family="sans-serif" font-size="14" lengthAdjust="spacing" textLength="146" x="780.5" y="375.4609">CreateClassInterface(</text><text fill="#6060BB" font-family="sans-serif" font-size="14" lengthAdjust="spacing" textLength="336" x="926.5" y="375.4609">CreateClassInterface:ClassOrInterfaceDeclaration</text><text fill="#000000" font-family="sans-serif" font-size="14" lengthAdjust="spacing" textLength="5" x="1262.5" y="375.4609">)</text><rect fill="none" height="6" style="stroke:#C82930;stroke-width:1.0;" width="6" x="768.5" y="385.1582"/><text fill="#909090" font-family="sans-serif" font-size="14" lengthAdjust="spacing" textLength="711" x="780.5" y="391.9492">CreateClassInterface.parentSubDataStructure: preadapter.domain.Datastructure_DOT_SubDataStructure</text><rect fill="none" height="6" style="stroke:#C82930;stroke-width:1.0;" width="6" x="768.5" y="401.6465"/><text fill="#909090" font-family="sans-serif" font-size="14" lengthAdjust="spacing" textLength="665" x="780.5" y="408.4375">CreateClassInterface.subDataStructure: preadapter.domain.Datastructure_DOT_SubDataStructure</text><line style="stroke:#181818;stroke-width:1.0;" x1="761.5" x2="1496.5" y1="415.3906" y2="415.3906"/><ellipse cx="771.5" cy="429.1348" fill="#84BE84" rx="3" ry="3" style="stroke:#038048;stroke-width:1.0;"/><text fill="#000000" font-family="sans-serif" font-size="14" lengthAdjust="spacing" textLength="32" x="780.5" y="432.9258">visit(</text><text fill="#6060BB" font-family="sans-serif" font-size="14" lengthAdjust="spacing" textLength="231" x="812.5" y="432.9258">visit:MethodDeclaration, visit:Void</text><text fill="#000000" font-family="sans-serif" font-size="14" lengthAdjust="spacing" textLength="5" x="1043.5" y="432.9258">)</text><rect fill="none" height="6" style="stroke:#C82930;stroke-width:1.0;" width="6" x="768.5" y="442.623"/><text fill="#909090" font-family="sans-serif" font-size="14" lengthAdjust="spacing" textLength="551" x="780.5" y="449.4141">visit.subDataStructure: preadapter.domain.Datastructure_DOT_SubDataStructure</text><rect fill="none" height="6" style="stroke:#C82930;stroke-width:1.0;" width="6" x="768.5" y="459.1113"/><text fill="#909090" font-family="sans-serif" font-size="14" lengthAdjust="spacing" textLength="700" x="780.5" y="465.9023">visit.argumentsTuple: list_BRQTO_tuple_BRQTO_String_COMMA_String_COMMA_String_BRQTC_BRQTC</text><rect fill="none" height="6" style="stroke:#C82930;stroke-width:1.0;" width="6" x="768.5" y="475.5996"/><text fill="#909090" font-family="sans-serif" font-size="14" lengthAdjust="spacing" textLength="251" x="780.5" y="482.3906">visit.argument: Optional_DOT_empty</text><rect fill="none" height="6" style="stroke:#C82930;stroke-width:1.0;" width="6" x="768.5" y="492.0879"/><text fill="#909090" font-family="sans-serif" font-size="14" lengthAdjust="spacing" textLength="551" x="780.5" y="498.8789">visit.subDataStructure: preadapter.domain.Datastructure_DOT_SubDataStructure</text><rect fill="none" height="6" style="stroke:#C82930;stroke-width:1.0;" width="6" x="768.5" y="508.5762"/><text fill="#909090" font-family="sans-serif" font-size="14" lengthAdjust="spacing" textLength="291" x="780.5" y="515.3672">visit.variableDeclarator: VariableDeclarator</text><rect fill="none" height="6" style="stroke:#C82930;stroke-width:1.0;" width="6" x="768.5" y="525.0645"/><text fill="#909090" font-family="sans-serif" font-size="14" lengthAdjust="spacing" textLength="551" x="780.5" y="531.8555">visit.subDataStructure: preadapter.domain.Datastructure_DOT_SubDataStructure</text><rect fill="none" height="6" style="stroke:#C82930;stroke-width:1.0;" width="6" x="768.5" y="541.5527"/><text fill="#909090" font-family="sans-serif" font-size="14" lengthAdjust="spacing" textLength="595" x="780.5" y="548.3438">visit.subDataStructureParent: preadapter.domain.Datastructure_DOT_SubDataStructure</text><rect fill="none" height="6" style="stroke:#C82930;stroke-width:1.0;" width="6" x="768.5" y="558.041"/><text fill="#909090" font-family="sans-serif" font-size="14" lengthAdjust="spacing" textLength="587" x="780.5" y="564.832">visit.subDataStructureChild: preadapter.domain.Datastructure_DOT_SubDataStructure</text><rect fill="none" height="6" style="stroke:#C82930;stroke-width:1.0;" width="6" x="768.5" y="574.5293"/><text fill="#909090" font-family="sans-serif" font-size="14" lengthAdjust="spacing" textLength="595" x="780.5" y="581.3203">visit.subDataStructureParent: preadapter.domain.Datastructure_DOT_SubDataStructure</text><rect fill="none" height="6" style="stroke:#C82930;stroke-width:1.0;" width="6" x="768.5" y="591.0176"/><text fill="#909090" font-family="sans-serif" font-size="14" lengthAdjust="spacing" textLength="420" x="780.5" y="597.8086">visit.variableName: n_DOT_getNameAsString_BRQTO__BRQTC</text><rect fill="none" height="6" style="stroke:#C82930;stroke-width:1.0;" width="6" x="768.5" y="607.5059"/><text fill="#909090" font-family="sans-serif" font-size="14" lengthAdjust="spacing" textLength="408" x="780.5" y="614.2969">visit.variableType: n_DOT_getTypeAsString_BRQTO__BRQTC</text><rect fill="none" height="6" style="stroke:#C82930;stroke-width:1.0;" width="6" x="768.5" y="623.9941"/><text fill="#909090" font-family="sans-serif" font-size="14" lengthAdjust="spacing" textLength="573" x="780.5" y="630.7852">visit.initializer: n_DOT_getInitializer_BRQTO__BRQTC_DOT_toString_BRQTO__BRQTC</text><rect fill="none" height="6" style="stroke:#C82930;stroke-width:1.0;" width="6" x="768.5" y="640.4824"/><text fill="#909090" font-family="sans-serif" font-size="14" lengthAdjust="spacing" textLength="417" x="780.5" y="647.2734">visit.method: preadapter.domain.Datastructure_DOT_Method</text><line style="stroke:#181818;stroke-width:1.0;" x1="761.5" x2="1496.5" y1="654.2266" y2="654.2266"/><ellipse cx="771.5" cy="667.9707" fill="#84BE84" rx="3" ry="3" style="stroke:#038048;stroke-width:1.0;"/><text fill="#000000" font-family="sans-serif" font-size="14" lengthAdjust="spacing" textLength="32" x="780.5" y="671.7617">visit(</text><text fill="#6060BB" font-family="sans-serif" font-size="14" lengthAdjust="spacing" textLength="292" x="812.5" y="671.7617">visit:ClassOrInterfaceDeclaration, visit:Void</text><text fill="#000000" font-family="sans-serif" font-size="14" lengthAdjust="spacing" textLength="5" x="1104.5" y="671.7617">)</text><ellipse cx="771.5" cy="684.459" fill="#84BE84" rx="3" ry="3" style="stroke:#038048;stroke-width:1.0;"/><text fill="#000000" font-family="sans-serif" font-size="14" lengthAdjust="spacing" textLength="32" x="780.5" y="688.25">visit(</text><text fill="#6060BB" font-family="sans-serif" font-size="14" lengthAdjust="spacing" textLength="212" x="812.5" y="688.25">visit:FieldDeclaration, visit:Void</text><text fill="#000000" font-family="sans-serif" font-size="14" lengthAdjust="spacing" textLength="5" x="1024.5" y="688.25">)</text><ellipse cx="771.5" cy="700.9473" fill="#84BE84" rx="3" ry="3" style="stroke:#038048;stroke-width:1.0;"/><text fill="#000000" font-family="sans-serif" font-size="14" lengthAdjust="spacing" textLength="32" x="780.5" y="704.7383">visit(</text><text fill="#6060BB" font-family="sans-serif" font-size="14" lengthAdjust="spacing" textLength="235" x="812.5" y="704.7383">visit:PackageDeclaration, visit:Void</text><text fill="#000000" font-family="sans-serif" font-size="14" lengthAdjust="spacing" textLength="5" x="1047.5" y="704.7383">)</text><ellipse cx="771.5" cy="717.4355" fill="#84BE84" rx="3" ry="3" style="stroke:#038048;stroke-width:1.0;"/><text fill="#000000" font-family="sans-serif" font-size="14" lengthAdjust="spacing" textLength="32" x="780.5" y="721.2266">visit(</text><text fill="#6060BB" font-family="sans-serif" font-size="14" lengthAdjust="spacing" textLength="225" x="812.5" y="721.2266">visit:ImportDeclaration, visit:Void</text><text fill="#000000" font-family="sans-serif" font-size="14" lengthAdjust="spacing" textLength="5" x="1037.5" y="721.2266">)</text><ellipse cx="771.5" cy="733.9238" fill="#84BE84" rx="3" ry="3" style="stroke:#038048;stroke-width:1.0;"/><text fill="#000000" font-family="sans-serif" font-size="14" lengthAdjust="spacing" textLength="32" x="780.5" y="737.7148">visit(</text><text fill="#6060BB" font-family="sans-serif" font-size="14" lengthAdjust="spacing" textLength="280" x="812.5" y="737.7148">visit:EnumConstantDeclaration, visit:Void</text><text fill="#000000" font-family="sans-serif" font-size="14" lengthAdjust="spacing" textLength="5" x="1092.5" y="737.7148">)</text><ellipse cx="771.5" cy="750.4121" fill="#84BE84" rx="3" ry="3" style="stroke:#038048;stroke-width:1.0;"/><text fill="#000000" font-family="sans-serif" font-size="14" lengthAdjust="spacing" textLength="32" x="780.5" y="754.2031">visit(</text><text fill="#6060BB" font-family="sans-serif" font-size="14" lengthAdjust="spacing" textLength="218" x="812.5" y="754.2031">visit:EnumDeclaration, visit:Void</text><text fill="#000000" font-family="sans-serif" font-size="14" lengthAdjust="spacing" textLength="5" x="1030.5" y="754.2031">)</text><ellipse cx="771.5" cy="766.9004" fill="#84BE84" rx="3" ry="3" style="stroke:#038048;stroke-width:1.0;"/><text fill="#000000" font-family="sans-serif" font-size="14" lengthAdjust="spacing" textLength="32" x="780.5" y="770.6914">visit(</text><text fill="#6060BB" font-family="sans-serif" font-size="14" lengthAdjust="spacing" textLength="228" x="812.5" y="770.6914">visit:VariableDeclarator, visit:Void</text><text fill="#000000" font-family="sans-serif" font-size="14" lengthAdjust="spacing" textLength="5" x="1040.5" y="770.6914">)</text><line style="stroke:#181818;stroke-width:1.0;" x1="761.5" x2="1496.5" y1="777.6445" y2="777.6445"/><ellipse cx="771.5" cy="791.3887" fill="#84BE84" rx="3" ry="3" style="stroke:#038048;stroke-width:1.0;"/><text fill="#000000" font-family="sans-serif" font-size="14" lengthAdjust="spacing" textLength="39" x="780.5" y="795.1797">main(</text><text fill="#6060BB" font-family="sans-serif" font-size="14" lengthAdjust="spacing" textLength="195" x="819.5" y="795.1797">main:String_BRQTO__BRQTC</text><text fill="#000000" font-family="sans-serif" font-size="14" lengthAdjust="spacing" textLength="5" x="1014.5" y="795.1797">)</text><rect fill="none" height="6" style="stroke:#C82930;stroke-width:1.0;" width="6" x="768.5" y="804.877"/><text fill="#909090" font-family="sans-serif" font-size="14" lengthAdjust="spacing" textLength="174" x="780.5" y="811.668">main.cu: CompilationUnit</text><line style="stroke:#181818;stroke-width:1.0;" x1="761.5" x2="1496.5" y1="818.6211" y2="818.6211"/></g></a><g id="elem_FloatingNote"><path d="M6,353.5547 L6,601.2129 L704,601.2129 L704,363.5547 L694,353.5547 L6,353.5547 " fill="#FEFFDD" style="stroke:#181818;stroke-width:0.5;"/><path d="M694,353.5547 L694,363.5547 L704,363.5547 L694,353.5547 " fill="#FEFFDD" style="stroke:#181818;stroke-width:1.0;"/><text fill="#000000" font-family="sans-serif" font-size="13" lengthAdjust="spacing" textLength="120" x="12" y="371.123">Your are analyzing:</text><text fill="#000000" font-family="sans-serif" font-size="13" lengthAdjust="spacing" textLength="503" x="12" y="386.4336">list_BRQTO_tuple_BRQTO_String_COMMA_String_COMMA_String_BRQTC_BRQTC</text><text fill="#000000" font-family="sans-serif" font-size="13" font-weight="bold" lengthAdjust="spacing" textLength="55" x="519" y="386.4336">detailed</text><text fill="#000000" font-family="sans-serif" font-size="13" lengthAdjust="spacing" textLength="4" x="574" y="386.4336">&#160;</text><text fill="#000000" font-family="sans-serif" font-size="13" lengthAdjust="spacing" textLength="4" x="12" y="401.7441">&#160;</text><text fill="#000000" font-family="sans-serif" font-size="13" lengthAdjust="spacing" textLength="229" x="12" y="432.3652">You can click either the namespaces</text><text fill="#000000" font-family="sans-serif" font-size="13" lengthAdjust="spacing" textLength="266" x="12" y="447.6758">or class names for filtering them and their</text><text fill="#000000" font-family="sans-serif" font-size="13" lengthAdjust="spacing" textLength="130" x="12" y="462.9863">direct dependencies.</text><text fill="#000000" font-family="sans-serif" font-size="13" lengthAdjust="spacing" textLength="4" x="12" y="478.2969">&#160;</text><line style="stroke:#181818;stroke-width:1.0;" x1="7" x2="339" y1="412.1416" y2="412.1416"/><line style="stroke:#181818;stroke-width:1.0;" x1="7" x2="339" y1="414.1416" y2="414.1416"/><text fill="#000000" font-family="sans-serif" font-size="13" lengthAdjust="spacing" textLength="32" x="339" y="416.5547">Filter</text><line style="stroke:#181818;stroke-width:1.0;" x1="371" x2="703" y1="412.1416" y2="412.1416"/><line style="stroke:#181818;stroke-width:1.0;" x1="371" x2="703" y1="414.1416" y2="414.1416"/><ellipse cx="17.5" cy="508.1602" fill="#000000" rx="2.5" ry="2.5" style="stroke:#000000;stroke-width:0.0;"/><text fill="#000000" font-family="sans-serif" font-size="13" lengthAdjust="spacing" textLength="503" x="24" y="512.918">list_BRQTO_tuple_BRQTO_String_COMMA_String_COMMA_String_BRQTC_BRQTC</text><text fill="#000000" font-family="sans-serif" font-size="13" font-weight="bold" lengthAdjust="spacing" textLength="67" x="531" y="512.918">simplified</text><text fill="#000000" font-family="sans-serif" font-size="13" lengthAdjust="spacing" textLength="4" x="602" y="512.918">:</text><text fill="#000000" font-family="sans-serif" font-size="13" lengthAdjust="spacing" textLength="12" x="12" y="528.2285">&#160;&#160;&#160;</text><a href="list_BRQTO_tuple_BRQTO_String_COMMA_String_COMMA_String_BRQTC_BRQTC-diagram-simplified.svg" target="_top" title="list_BRQTO_tuple_BRQTO_String_COMMA_String_COMMA_String_BRQTC_BRQTC-diagram-simplified.svg" xlink:actuate="onRequest" xlink:href="list_BRQTO_tuple_BRQTO_String_COMMA_String_COMMA_String_BRQTC_BRQTC-diagram-simplified.svg" xlink:show="new" xlink:title="list_BRQTO_tuple_BRQTO_String_COMMA_String_COMMA_String_BRQTC_BRQTC-diagram-simplified.svg" xlink:type="simple"><text fill="#0000FF" font-family="sans-serif" font-size="13" lengthAdjust="spacing" text-decoration="underline" textLength="659" x="24" y="528.2285">list_BRQTO_tuple_BRQTO_String_COMMA_String_COMMA_String_BRQTC_BRQTC-diagram-simplified.svg</text></a><ellipse cx="17.5" cy="538.7813" fill="#000000" rx="2.5" ry="2.5" style="stroke:#000000;stroke-width:0.0;"/><text fill="#000000" font-family="sans-serif" font-size="13" lengthAdjust="spacing" textLength="78" x="24" y="543.5391">Full diagram</text><text fill="#000000" font-family="sans-serif" font-size="13" font-weight="bold" lengthAdjust="spacing" textLength="55" x="106" y="543.5391">detailed</text><text fill="#000000" font-family="sans-serif" font-size="13" lengthAdjust="spacing" textLength="23" x="165" y="543.5391">and</text><text fill="#000000" font-family="sans-serif" font-size="13" font-weight="bold" lengthAdjust="spacing" textLength="166" x="192" y="543.5391">grouped per namespace</text><text fill="#000000" font-family="sans-serif" font-size="13" lengthAdjust="spacing" textLength="4" x="358" y="543.5391">:</text><text fill="#000000" font-family="sans-serif" font-size="13" lengthAdjust="spacing" textLength="12" x="12" y="558.8496">&#160;&#160;&#160;</text><a href="full-diagram-detailed-grouped-per-namespace.svg" target="_top" title="full-diagram-detailed-grouped-per-namespace.svg" xlink:actuate="onRequest" xlink:href="full-diagram-detailed-grouped-per-namespace.svg" xlink:show="new" xlink:title="full-diagram-detailed-grouped-per-namespace.svg" xlink:type="simple"><text fill="#0000FF" font-family="sans-serif" font-size="13" lengthAdjust="spacing" text-decoration="underline" textLength="330" x="24" y="558.8496">full-diagram-detailed-grouped-per-namespace.svg</text></a><ellipse cx="17.5" cy="569.4023" fill="#000000" rx="2.5" ry="2.5" style="stroke:#000000;stroke-width:0.0;"/><text fill="#000000" font-family="sans-serif" font-size="13" lengthAdjust="spacing" textLength="41" x="24" y="574.1602">Home:</text><text fill="#000000" font-family="sans-serif" font-size="13" lengthAdjust="spacing" textLength="12" x="12" y="589.4707">&#160;&#160;&#160;</text><a href="index.html" target="_top" title="index.html" xlink:actuate="onRequest" xlink:href="index.html" xlink:show="new" xlink:title="index.html" xlink:type="simple"><text fill="#0000FF" font-family="sans-serif" font-size="13" lengthAdjust="spacing" text-decoration="underline" textLength="68" x="24" y="589.4707">index.html</text></a><line style="stroke:#181818;stroke-width:1.0;" x1="7" x2="318" y1="492.6943" y2="492.6943"/><line style="stroke:#181818;stroke-width:1.0;" x1="7" x2="318" y1="494.6943" y2="494.6943"/><text fill="#000000" font-family="sans-serif" font-size="13" lengthAdjust="spacing" textLength="74" x="318" y="497.1074">Select other</text><line style="stroke:#181818;stroke-width:1.0;" x1="392" x2="703" y1="492.6943" y2="492.6943"/><line style="stroke:#181818;stroke-width:1.0;" x1="392" x2="703" y1="494.6943" y2="494.6943"/></g><!--class list_BRQTO_tuple_BRQTO_String_COMMA_String_COMMA_String_BRQTC_BRQTC--><a href="list_BRQTO_tuple_BRQTO_String_COMMA_String_COMMA_String_BRQTC_BRQTC-diagram-detailed.svg" target="_top" title="list_BRQTO_tuple_BRQTO_String_COMMA_String_COMMA_String_BRQTC_BRQTC-diagram-detailed.svg" xlink:actuate="onRequest" xlink:href="list_BRQTO_tuple_BRQTO_String_COMMA_String_COMMA_String_BRQTC_BRQTC-diagram-detailed.svg" xlink:show="new" xlink:title="list_BRQTO_tuple_BRQTO_String_COMMA_String_COMMA_String_BRQTC_BRQTC-diagram-detailed.svg" xlink:type="simple"><g id="elem_list_BRQTO_tuple_BRQTO_String_COMMA_String_COMMA_String_BRQTC_BRQTC"><rect codeLine="3" fill="#FFFF00" height="48" id="list_BRQTO_tuple_BRQTO_String_COMMA_String_COMMA_String_BRQTC_BRQTC" rx="2.5" ry="2.5" style="stroke:#181818;stroke-width:0.5;" width="580" x="839" y="929.5547"/><ellipse cx="854" cy="945.5547" fill="#ADD1B2" rx="11" ry="11" style="stroke:#181818;stroke-width:1.0;"/><path d="M856.4731,951.6978 Q855.8921,951.9966 855.2529,952.146 Q854.6138,952.2954 853.9082,952.2954 Q851.4014,952.2954 850.0815,950.6436 Q848.7617,948.9917 848.7617,945.8706 Q848.7617,942.7412 850.0815,941.0894 Q851.4014,939.4375 853.9082,939.4375 Q854.6138,939.4375 855.2612,939.5869 Q855.9087,939.7363 856.4731,940.0352 L856.4731,942.7578 Q855.8423,942.1768 855.2488,941.907 Q854.6553,941.6372 854.0244,941.6372 Q852.6797,941.6372 851.9949,942.7039 Q851.3101,943.7705 851.3101,945.8706 Q851.3101,947.9624 851.9949,949.0291 Q852.6797,950.0957 854.0244,950.0957 Q854.6553,950.0957 855.2488,949.8259 Q855.8423,949.5562 856.4731,948.9751 Z " fill="#000000"/><text fill="#000000" font-family="sans-serif" font-size="14" lengthAdjust="spacing" textLength="548" x="868" y="950.8457">list_BRQTO_tuple_BRQTO_String_COMMA_String_COMMA_String_BRQTC_BRQTC</text><line style="stroke:#181818;stroke-width:0.5;" x1="840" x2="1418" y1="961.5547" y2="961.5547"/><line style="stroke:#181818;stroke-width:0.5;" x1="840" x2="1418" y1="969.5547" y2="969.5547"/></g></a><!--link ASTVisitor to list_BRQTO_tuple_BRQTO_String_COMMA_String_COMMA_String_BRQTC_BRQTC--><g id="link_ASTVisitor_list_BRQTO_tuple_BRQTO_String_COMMA_String_COMMA_String_BRQTC_BRQTC"><path codeLine="57" d="M1129,826.7747 C1129,866.3447 1129,900.5747 1129,923.2847 " fill="none" id="ASTVisitor-to-list_BRQTO_tuple_BRQTO_String_COMMA_String_COMMA_String_BRQTC_BRQTC" style="stroke:#909090;stroke-width:1.0;"/><polygon fill="#909090" points="1129,928.0947,1133,919.0947,1129,923.0947,1125,919.0947,1129,928.0947" style="stroke:#909090;stroke-width:1.0;"/><text fill="#000000" font-family="sans-serif" font-size="13" lengthAdjust="spacing" textLength="29" x="1130" y="896.123">uses</text></g><!--SRC=[tLTHRziu37xFho2wXzrvSrRSmu0PJO0skM85rcPRiWA790WqYt65oP8XoTsoOVzzbEsuIUjq2UOR3jS2HYII7ybF92qxuIJ2YHLVCVhhk2-5TOkpz-yceuNBCudLxx4pGYMBmUZoyhHnuTK6vHE2WADZGY8F0ZXvuQ7x7QKTmj4_EZV0309JJAw-acKqKwtxdAcPwlNEXNHeUhsP8gyGCmMn5F4dGE5kq00zGB4KRSPYj6IZ3IamQyjTMD9wMK2GBw-TKj3S_n1cfhWm63lWcA7Yg6A1jbkw7QFq4ksTUES1j9EV5MacnL8K6H9h032TjW0TSi4ImzBmpa7NtYRpkG_zF9SIAeLjZZqNGP0OdMV88ID2QpA3O1tUainh_BLnM1c5P1JMHdS-N-iKrm22oFtIlN6fdC-FW5aubvevok2AogbJ7bSRzBRBv3hJCYTuia8fzMVurldUWQh6CeECiuoggyjroeJgdeudry8AHsKtdJuctkM6y8apU0PI9mcQQDF7csAhadFcc7KcZrrkC6e8PRYfK1cns8bRl4Hte_aRuYegU9-MBCotb0O-Gt-mE_NgKz-D9EK7wyT3ap3tag68oPJJiv8-trRYY9b2QoDuJRKgSLYjAx58gE5niihmdejUhz8Ob_smyZf_d2orSX1hgKtlwENno-EpiwF-oGk_s_-pCeWbCbKaVqNv_SGa32kh0T7lIiuk51t2acXfjctIZ8hboDGRGwG2CzGZMcs55y8MvgjZ_z-CsSreGYitpZ_wGXZlNIcBuMYok6zL1N5m3BPLxpNRjxw7ckajH55PuHiiFYzjecij-3wC5jejX_zJTymaUKfdPYT-TaLjpCI3VKSmoZnXJ1QvO9gvrTuWlvclMsO4-oZhRj4qBgyVxFrNex_lxctHhx_PwU16IFv_J7HT6tw8Hw0Ai0ITNvxQZJuPBGvib3Lm-TAfWVtoru254aumIVTiiu5xSRUx1Ll8dVuLXsan9FSxXtAW7Zw87tcnxHp9Uy2U2vIy9QotBFx4ahOYkqWpRLnBO7-hF1rePHrJRKAs1FLmr3QYrSNYIwiPpqkYtQNyw9kwADWuZs2Wqqp88giFr3HRjKfNzgVqeRFN7_nhka-XQ0SmM8Pf0RyuGzTj-lPQ6ftUtQWZqZrG_K4NTnxzEWcdJqe6vs6_bOylYEX6Jr_SFm00]--></g></svg>