<?xml version="1.0" encoding="us-ascii" standalone="no"?><svg xmlns="http://www.w3.org/2000/svg" xmlns:xlink="http://www.w3.org/1999/xlink" contentStyleType="text/css" height="413px" preserveAspectRatio="none" style="width:773px;height:413px;background:#FFFFFF;" version="1.1" viewBox="0 0 773 413" width="773px" zoomAndPan="magnify"><defs/><g><text fill="#000000" font-family="sans-serif" font-size="20" font-weight="bold" lengthAdjust="spacing" textLength="276" x="35.5" y="29.3359">LocalClassDeclarationStmt</text><text fill="#000000" font-family="sans-serif" font-size="20" font-weight="bold" lengthAdjust="spacing" textLength="104" x="318.5" y="29.3359">simplified</text><text fill="#000000" font-family="sans-serif" font-size="20" font-weight="bold" lengthAdjust="spacing" textLength="38" x="429.5" y="29.3359">and</text><text fill="#000000" font-family="sans-serif" font-size="20" font-weight="bold" lengthAdjust="spacing" textLength="249" x="474.5" y="29.3359">grouped per namespace</text><!--cluster preadapter--><g id="cluster_preadapter"><a href="preadapter-diagram-simplified-grouped-per-namespace.svg" target="_top" title="preadapter-diagram-simplified-grouped-per-namespace.svg" xlink:actuate="onRequest" xlink:href="preadapter-diagram-simplified-grouped-per-namespace.svg" xlink:show="new" xlink:title="preadapter-diagram-simplified-grouped-per-namespace.svg" xlink:type="simple"><path d="M540.5,72.5547 L618.5,72.5547 A3.75,3.75 0 0 1 621,75.0547 L628,95.043 L763.5,95.043 A2.5,2.5 0 0 1 766,97.543 L766,236.0547 A2.5,2.5 0 0 1 763.5,238.5547 L540.5,238.5547 A2.5,2.5 0 0 1 538,236.0547 L538,75.0547 A2.5,2.5 0 0 1 540.5,72.5547 " fill="none" style="stroke:#000000;stroke-width:1.5;"/><line style="stroke:#000000;stroke-width:1.5;" x1="538" x2="628" y1="95.043" y2="95.043"/><text fill="#000000" font-family="sans-serif" font-size="14" font-weight="bold" lengthAdjust="spacing" textLength="77" x="542" y="88.0898">preadapter</text></a></g><!--cluster domain--><g id="cluster_domain"><a href="preadapter.domain-diagram-simplified-grouped-per-namespace.svg" target="_top" title="preadapter.domain-diagram-simplified-grouped-per-namespace.svg" xlink:actuate="onRequest" xlink:href="preadapter.domain-diagram-simplified-grouped-per-namespace.svg" xlink:show="new" xlink:title="preadapter.domain-diagram-simplified-grouped-per-namespace.svg" xlink:type="simple"><path d="M564.5,115.5547 L619.5,115.5547 A3.75,3.75 0 0 1 622,118.0547 L629,138.043 L739.5,138.043 A2.5,2.5 0 0 1 742,140.543 L742,212.0547 A2.5,2.5 0 0 1 739.5,214.5547 L564.5,214.5547 A2.5,2.5 0 0 1 562,212.0547 L562,118.0547 A2.5,2.5 0 0 1 564.5,115.5547 " fill="none" style="stroke:#000000;stroke-width:1.5;"/><line style="stroke:#000000;stroke-width:1.5;" x1="562" x2="629" y1="138.043" y2="138.043"/><text fill="#000000" font-family="sans-serif" font-size="14" font-weight="bold" lengthAdjust="spacing" textLength="54" x="566" y="131.0898">domain</text></a></g><!--class ASTVisitorDebug--><a href="preadapter.domain.ASTVisitorDebug-diagram-simplified-grouped-per-namespace.svg" target="_top" title="preadapter.domain.ASTVisitorDebug-diagram-simplified-grouped-per-namespace.svg" xlink:actuate="onRequest" xlink:href="preadapter.domain.ASTVisitorDebug-diagram-simplified-grouped-per-namespace.svg" xlink:show="new" xlink:title="preadapter.domain.ASTVisitorDebug-diagram-simplified-grouped-per-namespace.svg" xlink:type="simple"><g id="elem_ASTVisitorDebug"><rect codeLine="9" fill="#F1F1F1" height="48" id="ASTVisitorDebug" rx="2.5" ry="2.5" style="stroke:#181818;stroke-width:0.5;" width="148" x="578" y="150.5547"/><ellipse cx="593" cy="166.5547" fill="#ADD1B2" rx="11" ry="11" style="stroke:#181818;stroke-width:1.0;"/><path d="M595.4731,172.6978 Q594.8921,172.9966 594.2529,173.146 Q593.6138,173.2954 592.9082,173.2954 Q590.4014,173.2954 589.0815,171.6436 Q587.7617,169.9917 587.7617,166.8706 Q587.7617,163.7412 589.0815,162.0894 Q590.4014,160.4375 592.9082,160.4375 Q593.6138,160.4375 594.2612,160.5869 Q594.9087,160.7363 595.4731,161.0352 L595.4731,163.7578 Q594.8423,163.1768 594.2488,162.907 Q593.6553,162.6372 593.0244,162.6372 Q591.6797,162.6372 590.9949,163.7039 Q590.3101,164.7705 590.3101,166.8706 Q590.3101,168.9624 590.9949,170.0291 Q591.6797,171.0957 593.0244,171.0957 Q593.6553,171.0957 594.2488,170.8259 Q594.8423,170.5562 595.4731,169.9751 Z " fill="#000000"/><text fill="#000000" font-family="sans-serif" font-size="14" lengthAdjust="spacing" textLength="116" x="607" y="171.8457">ASTVisitorDebug</text><line style="stroke:#181818;stroke-width:0.5;" x1="579" x2="725" y1="182.5547" y2="182.5547"/><line style="stroke:#181818;stroke-width:0.5;" x1="579" x2="725" y1="190.5547" y2="190.5547"/></g></a><g id="elem_FloatingNote"><path d="M6,50.5547 L6,298.2129 L522,298.2129 L522,60.5547 L512,50.5547 L6,50.5547 " fill="#FEFFDD" style="stroke:#181818;stroke-width:0.5;"/><path d="M512,50.5547 L512,60.5547 L522,60.5547 L512,50.5547 " fill="#FEFFDD" style="stroke:#181818;stroke-width:1.0;"/><text fill="#000000" font-family="sans-serif" font-size="13" lengthAdjust="spacing" textLength="120" x="12" y="68.123">Your are analyzing:</text><text fill="#000000" font-family="sans-serif" font-size="13" lengthAdjust="spacing" textLength="168" x="12" y="83.4336">LocalClassDeclarationStmt</text><text fill="#000000" font-family="sans-serif" font-size="13" font-weight="bold" lengthAdjust="spacing" textLength="67" x="184" y="83.4336">simplified</text><text fill="#000000" font-family="sans-serif" font-size="13" lengthAdjust="spacing" textLength="23" x="255" y="83.4336">and</text><text fill="#000000" font-family="sans-serif" font-size="13" font-weight="bold" lengthAdjust="spacing" textLength="166" x="282" y="83.4336">grouped per namespace</text><text fill="#000000" font-family="sans-serif" font-size="13" lengthAdjust="spacing" textLength="4" x="12" y="98.7441">&#160;</text><text fill="#000000" font-family="sans-serif" font-size="13" lengthAdjust="spacing" textLength="229" x="12" y="129.3652">You can click either the namespaces</text><text fill="#000000" font-family="sans-serif" font-size="13" lengthAdjust="spacing" textLength="266" x="12" y="144.6758">or class names for filtering them and their</text><text fill="#000000" font-family="sans-serif" font-size="13" lengthAdjust="spacing" textLength="130" x="12" y="159.9863">direct dependencies.</text><text fill="#000000" font-family="sans-serif" font-size="13" lengthAdjust="spacing" textLength="4" x="12" y="175.2969">&#160;</text><line style="stroke:#181818;stroke-width:1.0;" x1="7" x2="248" y1="109.1416" y2="109.1416"/><line style="stroke:#181818;stroke-width:1.0;" x1="7" x2="248" y1="111.1416" y2="111.1416"/><text fill="#000000" font-family="sans-serif" font-size="13" lengthAdjust="spacing" textLength="32" x="248" y="113.5547">Filter</text><line style="stroke:#181818;stroke-width:1.0;" x1="280" x2="521" y1="109.1416" y2="109.1416"/><line style="stroke:#181818;stroke-width:1.0;" x1="280" x2="521" y1="111.1416" y2="111.1416"/><ellipse cx="17.5" cy="205.1602" fill="#000000" rx="2.5" ry="2.5" style="stroke:#000000;stroke-width:0.0;"/><text fill="#000000" font-family="sans-serif" font-size="13" lengthAdjust="spacing" textLength="168" x="24" y="209.918">LocalClassDeclarationStmt</text><text fill="#000000" font-family="sans-serif" font-size="13" font-weight="bold" lengthAdjust="spacing" textLength="55" x="196" y="209.918">detailed</text><text fill="#000000" font-family="sans-serif" font-size="13" lengthAdjust="spacing" textLength="23" x="255" y="209.918">and</text><text fill="#000000" font-family="sans-serif" font-size="13" font-weight="bold" lengthAdjust="spacing" textLength="166" x="282" y="209.918">grouped per namespace</text><text fill="#000000" font-family="sans-serif" font-size="13" lengthAdjust="spacing" textLength="4" x="448" y="209.918">:</text><text fill="#000000" font-family="sans-serif" font-size="13" lengthAdjust="spacing" textLength="12" x="12" y="225.2285">&#160;&#160;&#160;</text><a href="LocalClassDeclarationStmt-diagram-detailed-grouped-per-namespace.svg" target="_top" title="LocalClassDeclarationStmt-diagram-detailed-grouped-per-namespace.svg" xlink:actuate="onRequest" xlink:href="LocalClassDeclarationStmt-diagram-detailed-grouped-per-namespace.svg" xlink:show="new" xlink:title="LocalClassDeclarationStmt-diagram-detailed-grouped-per-namespace.svg" xlink:type="simple"><text fill="#0000FF" font-family="sans-serif" font-size="13" lengthAdjust="spacing" text-decoration="underline" textLength="477" x="24" y="225.2285">LocalClassDeclarationStmt-diagram-detailed-grouped-per-namespace.svg</text></a><ellipse cx="17.5" cy="235.7813" fill="#000000" rx="2.5" ry="2.5" style="stroke:#000000;stroke-width:0.0;"/><text fill="#000000" font-family="sans-serif" font-size="13" lengthAdjust="spacing" textLength="78" x="24" y="240.5391">Full diagram</text><text fill="#000000" font-family="sans-serif" font-size="13" font-weight="bold" lengthAdjust="spacing" textLength="67" x="106" y="240.5391">simplified</text><text fill="#000000" font-family="sans-serif" font-size="13" lengthAdjust="spacing" textLength="23" x="177" y="240.5391">and</text><text fill="#000000" font-family="sans-serif" font-size="13" font-weight="bold" lengthAdjust="spacing" textLength="166" x="204" y="240.5391">grouped per namespace</text><text fill="#000000" font-family="sans-serif" font-size="13" lengthAdjust="spacing" textLength="4" x="370" y="240.5391">:</text><text fill="#000000" font-family="sans-serif" font-size="13" lengthAdjust="spacing" textLength="12" x="12" y="255.8496">&#160;&#160;&#160;</text><a href="full-diagram-simplified-grouped-per-namespace.svg" target="_top" title="full-diagram-simplified-grouped-per-namespace.svg" xlink:actuate="onRequest" xlink:href="full-diagram-simplified-grouped-per-namespace.svg" xlink:show="new" xlink:title="full-diagram-simplified-grouped-per-namespace.svg" xlink:type="simple"><text fill="#0000FF" font-family="sans-serif" font-size="13" lengthAdjust="spacing" text-decoration="underline" textLength="343" x="24" y="255.8496">full-diagram-simplified-grouped-per-namespace.svg</text></a><ellipse cx="17.5" cy="266.4023" fill="#000000" rx="2.5" ry="2.5" style="stroke:#000000;stroke-width:0.0;"/><text fill="#000000" font-family="sans-serif" font-size="13" lengthAdjust="spacing" textLength="41" x="24" y="271.1602">Home:</text><text fill="#000000" font-family="sans-serif" font-size="13" lengthAdjust="spacing" textLength="12" x="12" y="286.4707">&#160;&#160;&#160;</text><a href="index.html" target="_top" title="index.html" xlink:actuate="onRequest" xlink:href="index.html" xlink:show="new" xlink:title="index.html" xlink:type="simple"><text fill="#0000FF" font-family="sans-serif" font-size="13" lengthAdjust="spacing" text-decoration="underline" textLength="68" x="24" y="286.4707">index.html</text></a><line style="stroke:#181818;stroke-width:1.0;" x1="7" x2="227" y1="189.6943" y2="189.6943"/><line style="stroke:#181818;stroke-width:1.0;" x1="7" x2="227" y1="191.6943" y2="191.6943"/><text fill="#000000" font-family="sans-serif" font-size="13" lengthAdjust="spacing" textLength="74" x="227" y="194.1074">Select other</text><line style="stroke:#181818;stroke-width:1.0;" x1="301" x2="521" y1="189.6943" y2="189.6943"/><line style="stroke:#181818;stroke-width:1.0;" x1="301" x2="521" y1="191.6943" y2="191.6943"/></g><!--class LocalClassDeclarationStmt--><a href="LocalClassDeclarationStmt-diagram-simplified-grouped-per-namespace.svg" target="_top" title="LocalClassDeclarationStmt-diagram-simplified-grouped-per-namespace.svg" xlink:actuate="onRequest" xlink:href="LocalClassDeclarationStmt-diagram-simplified-grouped-per-namespace.svg" xlink:show="new" xlink:title="LocalClassDeclarationStmt-diagram-simplified-grouped-per-namespace.svg" xlink:type="simple"><g id="elem_LocalClassDeclarationStmt"><rect codeLine="4" fill="#FFFF00" height="48" id="LocalClassDeclarationStmt" rx="2.5" ry="2.5" style="stroke:#181818;stroke-width:0.5;" width="212" x="546" y="358.5547"/><ellipse cx="561" cy="374.5547" fill="#ADD1B2" rx="11" ry="11" style="stroke:#181818;stroke-width:1.0;"/><path d="M563.4731,380.6978 Q562.8921,380.9966 562.2529,381.146 Q561.6138,381.2954 560.9082,381.2954 Q558.4014,381.2954 557.0815,379.6436 Q555.7617,377.9917 555.7617,374.8706 Q555.7617,371.7412 557.0815,370.0894 Q558.4014,368.4375 560.9082,368.4375 Q561.6138,368.4375 562.2612,368.5869 Q562.9087,368.7363 563.4731,369.0352 L563.4731,371.7578 Q562.8423,371.1768 562.2488,370.907 Q561.6553,370.6372 561.0244,370.6372 Q559.6797,370.6372 558.9949,371.7039 Q558.3101,372.7705 558.3101,374.8706 Q558.3101,376.9624 558.9949,378.0291 Q559.6797,379.0957 561.0244,379.0957 Q561.6553,379.0957 562.2488,378.8259 Q562.8423,378.5562 563.4731,377.9751 Z " fill="#000000"/><text fill="#000000" font-family="sans-serif" font-size="14" lengthAdjust="spacing" textLength="180" x="575" y="379.8457">LocalClassDeclarationStmt</text><line style="stroke:#181818;stroke-width:0.5;" x1="547" x2="757" y1="390.5547" y2="390.5547"/><line style="stroke:#181818;stroke-width:0.5;" x1="547" x2="757" y1="398.5547" y2="398.5547"/></g></a><!--link ASTVisitorDebug to LocalClassDeclarationStmt--><g id="link_ASTVisitorDebug_LocalClassDeclarationStmt"><path codeLine="24" d="M652,198.8247 C652,198.8247 652,352.1247 652,352.1247 " fill="none" id="ASTVisitorDebug-to-LocalClassDeclarationStmt" style="stroke:#6060BB;stroke-width:1.0;stroke-dasharray:7.0,7.0;"/><polygon fill="#6060BB" points="652,357.1247,656,348.1247,652,352.1247,648,348.1247,652,357.1247" style="stroke:#6060BB;stroke-width:1.0;"/><text fill="#000000" font-family="sans-serif" font-size="13" lengthAdjust="spacing" textLength="29" x="622" y="272.043">uses</text></g><!--SRC=[jLHDQzj04BthLmp98I2mQdh8mSI6ni7qK79nAHHBcBLs90_P3x6xIkA4_lUE_2NIEB45jJ56MizxRpxUh7yWKmadD2Wo65OLWdLXQQD0GI7SU7h1mTV-w8VDXHehuVqTvee1WQoP1XqWZZtfIb51AECOX95yL3fRLoYXGWT6QFILo36ERxuqVAF8s81myTlM3eH3nWYrUY5J3bBpVuHIavhXS48ge1iEKyDIa0i3kQBy0P32akFvfyLuI8rr7C3AcrCe-BrOKt1gJRHUY_83kTH8SfW7a5YXaMXoGfziPAUecdzi8zA8n_1PKHA387My9EuD0Cnc7tBr98cI9zdRCVQsJ3rcwksP4lzOPbcJrQHM2hQWJjtTfL8mmLwrXH_J_MurxYY8U_USB8DMMNO1miD4MQx8bFTiaMWpZO-xTqetJiiBBbUeb7s2r-XFT0LZPNqpTC4TgXm-agtztDUB-HusL-H3snIujmPXWRceFJQksRhQamV-5cJ8Br4cKOjWNY55nVRYEjgNhec_7gHCfDM2p1lcxLbt0TYknJkgvDlqvo_o5AoxmqLT7fBxDwQh_5gVPpAscYygDkEvouKdlXw02mx0YwpHy2eNiCxXZBvekLlife0tXZnKF0V05M_hIHyuMsoJPECIXsgzXHxmEJYH1vvPuQnkSnzmRCVmTsEDZfincLrUzw_xjxTPClha4e41y6my_0K0]--></g></svg>