<?xml version="1.0" encoding="us-ascii" standalone="no"?><svg xmlns="http://www.w3.org/2000/svg" xmlns:xlink="http://www.w3.org/1999/xlink" contentStyleType="text/css" height="413px" preserveAspectRatio="none" style="width:703px;height:413px;background:#FFFFFF;" version="1.1" viewBox="0 0 703 413" width="703px" zoomAndPan="magnify"><defs/><g><text fill="#000000" font-family="sans-serif" font-size="20" font-weight="bold" lengthAdjust="spacing" textLength="164" x="56.5" y="29.3359">LongLiteralExpr</text><text fill="#000000" font-family="sans-serif" font-size="20" font-weight="bold" lengthAdjust="spacing" textLength="104" x="227.5" y="29.3359">simplified</text><text fill="#000000" font-family="sans-serif" font-size="20" font-weight="bold" lengthAdjust="spacing" textLength="38" x="338.5" y="29.3359">and</text><text fill="#000000" font-family="sans-serif" font-size="20" font-weight="bold" lengthAdjust="spacing" textLength="249" x="383.5" y="29.3359">grouped per namespace</text><!--cluster preadapter--><g id="cluster_preadapter"><a href="preadapter-diagram-simplified-grouped-per-namespace.svg" target="_top" title="preadapter-diagram-simplified-grouped-per-namespace.svg" xlink:actuate="onRequest" xlink:href="preadapter-diagram-simplified-grouped-per-namespace.svg" xlink:show="new" xlink:title="preadapter-diagram-simplified-grouped-per-namespace.svg" xlink:type="simple"><path d="M470.5,72.5547 L548.5,72.5547 A3.75,3.75 0 0 1 551,75.0547 L558,95.043 L693.5,95.043 A2.5,2.5 0 0 1 696,97.543 L696,236.0547 A2.5,2.5 0 0 1 693.5,238.5547 L470.5,238.5547 A2.5,2.5 0 0 1 468,236.0547 L468,75.0547 A2.5,2.5 0 0 1 470.5,72.5547 " fill="none" style="stroke:#000000;stroke-width:1.5;"/><line style="stroke:#000000;stroke-width:1.5;" x1="468" x2="558" y1="95.043" y2="95.043"/><text fill="#000000" font-family="sans-serif" font-size="14" font-weight="bold" lengthAdjust="spacing" textLength="77" x="472" y="88.0898">preadapter</text></a></g><!--cluster domain--><g id="cluster_domain"><a href="preadapter.domain-diagram-simplified-grouped-per-namespace.svg" target="_top" title="preadapter.domain-diagram-simplified-grouped-per-namespace.svg" xlink:actuate="onRequest" xlink:href="preadapter.domain-diagram-simplified-grouped-per-namespace.svg" xlink:show="new" xlink:title="preadapter.domain-diagram-simplified-grouped-per-namespace.svg" xlink:type="simple"><path d="M494.5,115.5547 L549.5,115.5547 A3.75,3.75 0 0 1 552,118.0547 L559,138.043 L669.5,138.043 A2.5,2.5 0 0 1 672,140.543 L672,212.0547 A2.5,2.5 0 0 1 669.5,214.5547 L494.5,214.5547 A2.5,2.5 0 0 1 492,212.0547 L492,118.0547 A2.5,2.5 0 0 1 494.5,115.5547 " fill="none" style="stroke:#000000;stroke-width:1.5;"/><line style="stroke:#000000;stroke-width:1.5;" x1="492" x2="559" y1="138.043" y2="138.043"/><text fill="#000000" font-family="sans-serif" font-size="14" font-weight="bold" lengthAdjust="spacing" textLength="54" x="496" y="131.0898">domain</text></a></g><!--class ASTVisitorDebug--><a href="preadapter.domain.ASTVisitorDebug-diagram-simplified-grouped-per-namespace.svg" target="_top" title="preadapter.domain.ASTVisitorDebug-diagram-simplified-grouped-per-namespace.svg" xlink:actuate="onRequest" xlink:href="preadapter.domain.ASTVisitorDebug-diagram-simplified-grouped-per-namespace.svg" xlink:show="new" xlink:title="preadapter.domain.ASTVisitorDebug-diagram-simplified-grouped-per-namespace.svg" xlink:type="simple"><g id="elem_ASTVisitorDebug"><rect codeLine="9" fill="#F1F1F1" height="48" id="ASTVisitorDebug" rx="2.5" ry="2.5" style="stroke:#181818;stroke-width:0.5;" width="148" x="508" y="150.5547"/><ellipse cx="523" cy="166.5547" fill="#ADD1B2" rx="11" ry="11" style="stroke:#181818;stroke-width:1.0;"/><path d="M525.4731,172.6978 Q524.8921,172.9966 524.2529,173.146 Q523.6138,173.2954 522.9082,173.2954 Q520.4014,173.2954 519.0815,171.6436 Q517.7617,169.9917 517.7617,166.8706 Q517.7617,163.7412 519.0815,162.0894 Q520.4014,160.4375 522.9082,160.4375 Q523.6138,160.4375 524.2612,160.5869 Q524.9087,160.7363 525.4731,161.0352 L525.4731,163.7578 Q524.8423,163.1768 524.2488,162.907 Q523.6553,162.6372 523.0244,162.6372 Q521.6797,162.6372 520.9949,163.7039 Q520.3101,164.7705 520.3101,166.8706 Q520.3101,168.9624 520.9949,170.0291 Q521.6797,171.0957 523.0244,171.0957 Q523.6553,171.0957 524.2488,170.8259 Q524.8423,170.5562 525.4731,169.9751 Z " fill="#000000"/><text fill="#000000" font-family="sans-serif" font-size="14" lengthAdjust="spacing" textLength="116" x="537" y="171.8457">ASTVisitorDebug</text><line style="stroke:#181818;stroke-width:0.5;" x1="509" x2="655" y1="182.5547" y2="182.5547"/><line style="stroke:#181818;stroke-width:0.5;" x1="509" x2="655" y1="190.5547" y2="190.5547"/></g></a><g id="elem_FloatingNote"><path d="M6,50.5547 L6,298.2129 L452,298.2129 L452,60.5547 L442,50.5547 L6,50.5547 " fill="#FEFFDD" style="stroke:#181818;stroke-width:0.5;"/><path d="M442,50.5547 L442,60.5547 L452,60.5547 L442,50.5547 " fill="#FEFFDD" style="stroke:#181818;stroke-width:1.0;"/><text fill="#000000" font-family="sans-serif" font-size="13" lengthAdjust="spacing" textLength="120" x="12" y="68.123">Your are analyzing:</text><text fill="#000000" font-family="sans-serif" font-size="13" lengthAdjust="spacing" textLength="98" x="12" y="83.4336">LongLiteralExpr</text><text fill="#000000" font-family="sans-serif" font-size="13" font-weight="bold" lengthAdjust="spacing" textLength="67" x="114" y="83.4336">simplified</text><text fill="#000000" font-family="sans-serif" font-size="13" lengthAdjust="spacing" textLength="23" x="185" y="83.4336">and</text><text fill="#000000" font-family="sans-serif" font-size="13" font-weight="bold" lengthAdjust="spacing" textLength="166" x="212" y="83.4336">grouped per namespace</text><text fill="#000000" font-family="sans-serif" font-size="13" lengthAdjust="spacing" textLength="4" x="12" y="98.7441">&#160;</text><text fill="#000000" font-family="sans-serif" font-size="13" lengthAdjust="spacing" textLength="229" x="12" y="129.3652">You can click either the namespaces</text><text fill="#000000" font-family="sans-serif" font-size="13" lengthAdjust="spacing" textLength="266" x="12" y="144.6758">or class names for filtering them and their</text><text fill="#000000" font-family="sans-serif" font-size="13" lengthAdjust="spacing" textLength="130" x="12" y="159.9863">direct dependencies.</text><text fill="#000000" font-family="sans-serif" font-size="13" lengthAdjust="spacing" textLength="4" x="12" y="175.2969">&#160;</text><line style="stroke:#181818;stroke-width:1.0;" x1="7" x2="213" y1="109.1416" y2="109.1416"/><line style="stroke:#181818;stroke-width:1.0;" x1="7" x2="213" y1="111.1416" y2="111.1416"/><text fill="#000000" font-family="sans-serif" font-size="13" lengthAdjust="spacing" textLength="32" x="213" y="113.5547">Filter</text><line style="stroke:#181818;stroke-width:1.0;" x1="245" x2="451" y1="109.1416" y2="109.1416"/><line style="stroke:#181818;stroke-width:1.0;" x1="245" x2="451" y1="111.1416" y2="111.1416"/><ellipse cx="17.5" cy="205.1602" fill="#000000" rx="2.5" ry="2.5" style="stroke:#000000;stroke-width:0.0;"/><text fill="#000000" font-family="sans-serif" font-size="13" lengthAdjust="spacing" textLength="98" x="24" y="209.918">LongLiteralExpr</text><text fill="#000000" font-family="sans-serif" font-size="13" font-weight="bold" lengthAdjust="spacing" textLength="55" x="126" y="209.918">detailed</text><text fill="#000000" font-family="sans-serif" font-size="13" lengthAdjust="spacing" textLength="23" x="185" y="209.918">and</text><text fill="#000000" font-family="sans-serif" font-size="13" font-weight="bold" lengthAdjust="spacing" textLength="166" x="212" y="209.918">grouped per namespace</text><text fill="#000000" font-family="sans-serif" font-size="13" lengthAdjust="spacing" textLength="4" x="378" y="209.918">:</text><text fill="#000000" font-family="sans-serif" font-size="13" lengthAdjust="spacing" textLength="12" x="12" y="225.2285">&#160;&#160;&#160;</text><a href="LongLiteralExpr-diagram-detailed-grouped-per-namespace.svg" target="_top" title="LongLiteralExpr-diagram-detailed-grouped-per-namespace.svg" xlink:actuate="onRequest" xlink:href="LongLiteralExpr-diagram-detailed-grouped-per-namespace.svg" xlink:show="new" xlink:title="LongLiteralExpr-diagram-detailed-grouped-per-namespace.svg" xlink:type="simple"><text fill="#0000FF" font-family="sans-serif" font-size="13" lengthAdjust="spacing" text-decoration="underline" textLength="407" x="24" y="225.2285">LongLiteralExpr-diagram-detailed-grouped-per-namespace.svg</text></a><ellipse cx="17.5" cy="235.7813" fill="#000000" rx="2.5" ry="2.5" style="stroke:#000000;stroke-width:0.0;"/><text fill="#000000" font-family="sans-serif" font-size="13" lengthAdjust="spacing" textLength="78" x="24" y="240.5391">Full diagram</text><text fill="#000000" font-family="sans-serif" font-size="13" font-weight="bold" lengthAdjust="spacing" textLength="67" x="106" y="240.5391">simplified</text><text fill="#000000" font-family="sans-serif" font-size="13" lengthAdjust="spacing" textLength="23" x="177" y="240.5391">and</text><text fill="#000000" font-family="sans-serif" font-size="13" font-weight="bold" lengthAdjust="spacing" textLength="166" x="204" y="240.5391">grouped per namespace</text><text fill="#000000" font-family="sans-serif" font-size="13" lengthAdjust="spacing" textLength="4" x="370" y="240.5391">:</text><text fill="#000000" font-family="sans-serif" font-size="13" lengthAdjust="spacing" textLength="12" x="12" y="255.8496">&#160;&#160;&#160;</text><a href="full-diagram-simplified-grouped-per-namespace.svg" target="_top" title="full-diagram-simplified-grouped-per-namespace.svg" xlink:actuate="onRequest" xlink:href="full-diagram-simplified-grouped-per-namespace.svg" xlink:show="new" xlink:title="full-diagram-simplified-grouped-per-namespace.svg" xlink:type="simple"><text fill="#0000FF" font-family="sans-serif" font-size="13" lengthAdjust="spacing" text-decoration="underline" textLength="343" x="24" y="255.8496">full-diagram-simplified-grouped-per-namespace.svg</text></a><ellipse cx="17.5" cy="266.4023" fill="#000000" rx="2.5" ry="2.5" style="stroke:#000000;stroke-width:0.0;"/><text fill="#000000" font-family="sans-serif" font-size="13" lengthAdjust="spacing" textLength="41" x="24" y="271.1602">Home:</text><text fill="#000000" font-family="sans-serif" font-size="13" lengthAdjust="spacing" textLength="12" x="12" y="286.4707">&#160;&#160;&#160;</text><a href="index.html" target="_top" title="index.html" xlink:actuate="onRequest" xlink:href="index.html" xlink:show="new" xlink:title="index.html" xlink:type="simple"><text fill="#0000FF" font-family="sans-serif" font-size="13" lengthAdjust="spacing" text-decoration="underline" textLength="68" x="24" y="286.4707">index.html</text></a><line style="stroke:#181818;stroke-width:1.0;" x1="7" x2="192" y1="189.6943" y2="189.6943"/><line style="stroke:#181818;stroke-width:1.0;" x1="7" x2="192" y1="191.6943" y2="191.6943"/><text fill="#000000" font-family="sans-serif" font-size="13" lengthAdjust="spacing" textLength="74" x="192" y="194.1074">Select other</text><line style="stroke:#181818;stroke-width:1.0;" x1="266" x2="451" y1="189.6943" y2="189.6943"/><line style="stroke:#181818;stroke-width:1.0;" x1="266" x2="451" y1="191.6943" y2="191.6943"/></g><!--class LongLiteralExpr--><a href="LongLiteralExpr-diagram-simplified-grouped-per-namespace.svg" target="_top" title="LongLiteralExpr-diagram-simplified-grouped-per-namespace.svg" xlink:actuate="onRequest" xlink:href="LongLiteralExpr-diagram-simplified-grouped-per-namespace.svg" xlink:show="new" xlink:title="LongLiteralExpr-diagram-simplified-grouped-per-namespace.svg" xlink:type="simple"><g id="elem_LongLiteralExpr"><rect codeLine="4" fill="#FFFF00" height="48" id="LongLiteralExpr" rx="2.5" ry="2.5" style="stroke:#181818;stroke-width:0.5;" width="140" x="512" y="358.5547"/><ellipse cx="527" cy="374.5547" fill="#ADD1B2" rx="11" ry="11" style="stroke:#181818;stroke-width:1.0;"/><path d="M529.4731,380.6978 Q528.8921,380.9966 528.2529,381.146 Q527.6138,381.2954 526.9082,381.2954 Q524.4014,381.2954 523.0815,379.6436 Q521.7617,377.9917 521.7617,374.8706 Q521.7617,371.7412 523.0815,370.0894 Q524.4014,368.4375 526.9082,368.4375 Q527.6138,368.4375 528.2612,368.5869 Q528.9087,368.7363 529.4731,369.0352 L529.4731,371.7578 Q528.8423,371.1768 528.2488,370.907 Q527.6553,370.6372 527.0244,370.6372 Q525.6797,370.6372 524.9949,371.7039 Q524.3101,372.7705 524.3101,374.8706 Q524.3101,376.9624 524.9949,378.0291 Q525.6797,379.0957 527.0244,379.0957 Q527.6553,379.0957 528.2488,378.8259 Q528.8423,378.5562 529.4731,377.9751 Z " fill="#000000"/><text fill="#000000" font-family="sans-serif" font-size="14" lengthAdjust="spacing" textLength="108" x="541" y="379.8457">LongLiteralExpr</text><line style="stroke:#181818;stroke-width:0.5;" x1="513" x2="651" y1="390.5547" y2="390.5547"/><line style="stroke:#181818;stroke-width:0.5;" x1="513" x2="651" y1="398.5547" y2="398.5547"/></g></a><!--link ASTVisitorDebug to LongLiteralExpr--><g id="link_ASTVisitorDebug_LongLiteralExpr"><path codeLine="24" d="M582,198.8247 C582,198.8247 582,352.1247 582,352.1247 " fill="none" id="ASTVisitorDebug-to-LongLiteralExpr" style="stroke:#6060BB;stroke-width:1.0;stroke-dasharray:7.0,7.0;"/><polygon fill="#6060BB" points="582,357.1247,586,348.1247,582,352.1247,578,348.1247,582,357.1247" style="stroke:#6060BB;stroke-width:1.0;"/><text fill="#000000" font-family="sans-serif" font-size="13" lengthAdjust="spacing" textLength="29" x="552" y="272.043">uses</text></g><!--SRC=[jLHBQzj04BxhLmp98I2mQdh8mSI69Atf8UIIKYYMCMljI1wocXMxgyHEw7_lo2yHsyKnnKOOQJNVOrxopyILSge4GunXKI5O5sOs2XGCmesdD-nzxGuUB1SF5D0fytrUEOXZJsLbA2VKSGoAjHmLpjOLQgZG0QiIVQKoZEERBmtB868R42v-szg1SYWOPHPln4KlvV-XJpdbVdz8Hk3zVieY09bYo0nbpu0KPX8lVot6GyhMIO3oVdKAkJpdImenr4INIr6v8PUo9eTP08qLiaRE27soadr2qxonZKWZ7iD-AXg38dCy4Qa308n6EmmTJQgG3dKsF9qrlYFupXQV-9TYF6uS36jZO0qwgP8R0xaGR5LR-37T7xR43GL9dUR9B9HcFBu0vM5eh0fIsqSPWcXL-TrA_Jlpptc0omKQOr_XFVeJNS6ziRvfff9gL0vVoDP-uklfP0kR6FAXBG0yMaQOOgPgZyqqh6VKamUvScBoCzH9r2A4LsbLYMDntpwSQlpz86MYRQc8Fp2lpquNWFMuxr4bjqy_Vv6dODqtdDR58RdTc5Fbb_hIatjRoiT61k_SwSAhh3r8mW5aGKjaMT4SbXxEE1SjTujT9V1X80ybBm5m9PlvgH-SBROnsKo9GoFRQja3peDJMP2UvSwMhVUUn9uOljVMwFWm9gFBw-vrz-vkd0psFXZG0-c8Xxy0]--></g></svg>