<?xml version="1.0" encoding="us-ascii" standalone="no"?><svg xmlns="http://www.w3.org/2000/svg" xmlns:xlink="http://www.w3.org/1999/xlink" contentStyleType="text/css" height="413px" preserveAspectRatio="none" style="width:755px;height:413px;background:#FFFFFF;" version="1.1" viewBox="0 0 755 413" width="755px" zoomAndPan="magnify"><defs/><g><text fill="#000000" font-family="sans-serif" font-size="20" font-weight="bold" lengthAdjust="spacing" textLength="248" x="40.5" y="29.3359">ModuleExportsDirective</text><text fill="#000000" font-family="sans-serif" font-size="20" font-weight="bold" lengthAdjust="spacing" textLength="104" x="295.5" y="29.3359">simplified</text><text fill="#000000" font-family="sans-serif" font-size="20" font-weight="bold" lengthAdjust="spacing" textLength="38" x="406.5" y="29.3359">and</text><text fill="#000000" font-family="sans-serif" font-size="20" font-weight="bold" lengthAdjust="spacing" textLength="249" x="451.5" y="29.3359">grouped per namespace</text><!--cluster preadapter--><g id="cluster_preadapter"><a href="preadapter-diagram-simplified-grouped-per-namespace.svg" target="_top" title="preadapter-diagram-simplified-grouped-per-namespace.svg" xlink:actuate="onRequest" xlink:href="preadapter-diagram-simplified-grouped-per-namespace.svg" xlink:show="new" xlink:title="preadapter-diagram-simplified-grouped-per-namespace.svg" xlink:type="simple"><path d="M522.5,72.5547 L600.5,72.5547 A3.75,3.75 0 0 1 603,75.0547 L610,95.043 L745.5,95.043 A2.5,2.5 0 0 1 748,97.543 L748,236.0547 A2.5,2.5 0 0 1 745.5,238.5547 L522.5,238.5547 A2.5,2.5 0 0 1 520,236.0547 L520,75.0547 A2.5,2.5 0 0 1 522.5,72.5547 " fill="none" style="stroke:#000000;stroke-width:1.5;"/><line style="stroke:#000000;stroke-width:1.5;" x1="520" x2="610" y1="95.043" y2="95.043"/><text fill="#000000" font-family="sans-serif" font-size="14" font-weight="bold" lengthAdjust="spacing" textLength="77" x="524" y="88.0898">preadapter</text></a></g><!--cluster domain--><g id="cluster_domain"><a href="preadapter.domain-diagram-simplified-grouped-per-namespace.svg" target="_top" title="preadapter.domain-diagram-simplified-grouped-per-namespace.svg" xlink:actuate="onRequest" xlink:href="preadapter.domain-diagram-simplified-grouped-per-namespace.svg" xlink:show="new" xlink:title="preadapter.domain-diagram-simplified-grouped-per-namespace.svg" xlink:type="simple"><path d="M546.5,115.5547 L601.5,115.5547 A3.75,3.75 0 0 1 604,118.0547 L611,138.043 L721.5,138.043 A2.5,2.5 0 0 1 724,140.543 L724,212.0547 A2.5,2.5 0 0 1 721.5,214.5547 L546.5,214.5547 A2.5,2.5 0 0 1 544,212.0547 L544,118.0547 A2.5,2.5 0 0 1 546.5,115.5547 " fill="none" style="stroke:#000000;stroke-width:1.5;"/><line style="stroke:#000000;stroke-width:1.5;" x1="544" x2="611" y1="138.043" y2="138.043"/><text fill="#000000" font-family="sans-serif" font-size="14" font-weight="bold" lengthAdjust="spacing" textLength="54" x="548" y="131.0898">domain</text></a></g><!--class ASTVisitorDebug--><a href="preadapter.domain.ASTVisitorDebug-diagram-simplified-grouped-per-namespace.svg" target="_top" title="preadapter.domain.ASTVisitorDebug-diagram-simplified-grouped-per-namespace.svg" xlink:actuate="onRequest" xlink:href="preadapter.domain.ASTVisitorDebug-diagram-simplified-grouped-per-namespace.svg" xlink:show="new" xlink:title="preadapter.domain.ASTVisitorDebug-diagram-simplified-grouped-per-namespace.svg" xlink:type="simple"><g id="elem_ASTVisitorDebug"><rect codeLine="9" fill="#F1F1F1" height="48" id="ASTVisitorDebug" rx="2.5" ry="2.5" style="stroke:#181818;stroke-width:0.5;" width="148" x="560" y="150.5547"/><ellipse cx="575" cy="166.5547" fill="#ADD1B2" rx="11" ry="11" style="stroke:#181818;stroke-width:1.0;"/><path d="M577.4731,172.6978 Q576.8921,172.9966 576.2529,173.146 Q575.6138,173.2954 574.9082,173.2954 Q572.4014,173.2954 571.0815,171.6436 Q569.7617,169.9917 569.7617,166.8706 Q569.7617,163.7412 571.0815,162.0894 Q572.4014,160.4375 574.9082,160.4375 Q575.6138,160.4375 576.2612,160.5869 Q576.9087,160.7363 577.4731,161.0352 L577.4731,163.7578 Q576.8423,163.1768 576.2488,162.907 Q575.6553,162.6372 575.0244,162.6372 Q573.6797,162.6372 572.9949,163.7039 Q572.3101,164.7705 572.3101,166.8706 Q572.3101,168.9624 572.9949,170.0291 Q573.6797,171.0957 575.0244,171.0957 Q575.6553,171.0957 576.2488,170.8259 Q576.8423,170.5562 577.4731,169.9751 Z " fill="#000000"/><text fill="#000000" font-family="sans-serif" font-size="14" lengthAdjust="spacing" textLength="116" x="589" y="171.8457">ASTVisitorDebug</text><line style="stroke:#181818;stroke-width:0.5;" x1="561" x2="707" y1="182.5547" y2="182.5547"/><line style="stroke:#181818;stroke-width:0.5;" x1="561" x2="707" y1="190.5547" y2="190.5547"/></g></a><g id="elem_FloatingNote"><path d="M6,50.5547 L6,298.2129 L504,298.2129 L504,60.5547 L494,50.5547 L6,50.5547 " fill="#FEFFDD" style="stroke:#181818;stroke-width:0.5;"/><path d="M494,50.5547 L494,60.5547 L504,60.5547 L494,50.5547 " fill="#FEFFDD" style="stroke:#181818;stroke-width:1.0;"/><text fill="#000000" font-family="sans-serif" font-size="13" lengthAdjust="spacing" textLength="120" x="12" y="68.123">Your are analyzing:</text><text fill="#000000" font-family="sans-serif" font-size="13" lengthAdjust="spacing" textLength="150" x="12" y="83.4336">ModuleExportsDirective</text><text fill="#000000" font-family="sans-serif" font-size="13" font-weight="bold" lengthAdjust="spacing" textLength="67" x="166" y="83.4336">simplified</text><text fill="#000000" font-family="sans-serif" font-size="13" lengthAdjust="spacing" textLength="23" x="237" y="83.4336">and</text><text fill="#000000" font-family="sans-serif" font-size="13" font-weight="bold" lengthAdjust="spacing" textLength="166" x="264" y="83.4336">grouped per namespace</text><text fill="#000000" font-family="sans-serif" font-size="13" lengthAdjust="spacing" textLength="4" x="12" y="98.7441">&#160;</text><text fill="#000000" font-family="sans-serif" font-size="13" lengthAdjust="spacing" textLength="229" x="12" y="129.3652">You can click either the namespaces</text><text fill="#000000" font-family="sans-serif" font-size="13" lengthAdjust="spacing" textLength="266" x="12" y="144.6758">or class names for filtering them and their</text><text fill="#000000" font-family="sans-serif" font-size="13" lengthAdjust="spacing" textLength="130" x="12" y="159.9863">direct dependencies.</text><text fill="#000000" font-family="sans-serif" font-size="13" lengthAdjust="spacing" textLength="4" x="12" y="175.2969">&#160;</text><line style="stroke:#181818;stroke-width:1.0;" x1="7" x2="239" y1="109.1416" y2="109.1416"/><line style="stroke:#181818;stroke-width:1.0;" x1="7" x2="239" y1="111.1416" y2="111.1416"/><text fill="#000000" font-family="sans-serif" font-size="13" lengthAdjust="spacing" textLength="32" x="239" y="113.5547">Filter</text><line style="stroke:#181818;stroke-width:1.0;" x1="271" x2="503" y1="109.1416" y2="109.1416"/><line style="stroke:#181818;stroke-width:1.0;" x1="271" x2="503" y1="111.1416" y2="111.1416"/><ellipse cx="17.5" cy="205.1602" fill="#000000" rx="2.5" ry="2.5" style="stroke:#000000;stroke-width:0.0;"/><text fill="#000000" font-family="sans-serif" font-size="13" lengthAdjust="spacing" textLength="150" x="24" y="209.918">ModuleExportsDirective</text><text fill="#000000" font-family="sans-serif" font-size="13" font-weight="bold" lengthAdjust="spacing" textLength="55" x="178" y="209.918">detailed</text><text fill="#000000" font-family="sans-serif" font-size="13" lengthAdjust="spacing" textLength="23" x="237" y="209.918">and</text><text fill="#000000" font-family="sans-serif" font-size="13" font-weight="bold" lengthAdjust="spacing" textLength="166" x="264" y="209.918">grouped per namespace</text><text fill="#000000" font-family="sans-serif" font-size="13" lengthAdjust="spacing" textLength="4" x="430" y="209.918">:</text><text fill="#000000" font-family="sans-serif" font-size="13" lengthAdjust="spacing" textLength="12" x="12" y="225.2285">&#160;&#160;&#160;</text><a href="ModuleExportsDirective-diagram-detailed-grouped-per-namespace.svg" target="_top" title="ModuleExportsDirective-diagram-detailed-grouped-per-namespace.svg" xlink:actuate="onRequest" xlink:href="ModuleExportsDirective-diagram-detailed-grouped-per-namespace.svg" xlink:show="new" xlink:title="ModuleExportsDirective-diagram-detailed-grouped-per-namespace.svg" xlink:type="simple"><text fill="#0000FF" font-family="sans-serif" font-size="13" lengthAdjust="spacing" text-decoration="underline" textLength="459" x="24" y="225.2285">ModuleExportsDirective-diagram-detailed-grouped-per-namespace.svg</text></a><ellipse cx="17.5" cy="235.7813" fill="#000000" rx="2.5" ry="2.5" style="stroke:#000000;stroke-width:0.0;"/><text fill="#000000" font-family="sans-serif" font-size="13" lengthAdjust="spacing" textLength="78" x="24" y="240.5391">Full diagram</text><text fill="#000000" font-family="sans-serif" font-size="13" font-weight="bold" lengthAdjust="spacing" textLength="67" x="106" y="240.5391">simplified</text><text fill="#000000" font-family="sans-serif" font-size="13" lengthAdjust="spacing" textLength="23" x="177" y="240.5391">and</text><text fill="#000000" font-family="sans-serif" font-size="13" font-weight="bold" lengthAdjust="spacing" textLength="166" x="204" y="240.5391">grouped per namespace</text><text fill="#000000" font-family="sans-serif" font-size="13" lengthAdjust="spacing" textLength="4" x="370" y="240.5391">:</text><text fill="#000000" font-family="sans-serif" font-size="13" lengthAdjust="spacing" textLength="12" x="12" y="255.8496">&#160;&#160;&#160;</text><a href="full-diagram-simplified-grouped-per-namespace.svg" target="_top" title="full-diagram-simplified-grouped-per-namespace.svg" xlink:actuate="onRequest" xlink:href="full-diagram-simplified-grouped-per-namespace.svg" xlink:show="new" xlink:title="full-diagram-simplified-grouped-per-namespace.svg" xlink:type="simple"><text fill="#0000FF" font-family="sans-serif" font-size="13" lengthAdjust="spacing" text-decoration="underline" textLength="343" x="24" y="255.8496">full-diagram-simplified-grouped-per-namespace.svg</text></a><ellipse cx="17.5" cy="266.4023" fill="#000000" rx="2.5" ry="2.5" style="stroke:#000000;stroke-width:0.0;"/><text fill="#000000" font-family="sans-serif" font-size="13" lengthAdjust="spacing" textLength="41" x="24" y="271.1602">Home:</text><text fill="#000000" font-family="sans-serif" font-size="13" lengthAdjust="spacing" textLength="12" x="12" y="286.4707">&#160;&#160;&#160;</text><a href="index.html" target="_top" title="index.html" xlink:actuate="onRequest" xlink:href="index.html" xlink:show="new" xlink:title="index.html" xlink:type="simple"><text fill="#0000FF" font-family="sans-serif" font-size="13" lengthAdjust="spacing" text-decoration="underline" textLength="68" x="24" y="286.4707">index.html</text></a><line style="stroke:#181818;stroke-width:1.0;" x1="7" x2="218" y1="189.6943" y2="189.6943"/><line style="stroke:#181818;stroke-width:1.0;" x1="7" x2="218" y1="191.6943" y2="191.6943"/><text fill="#000000" font-family="sans-serif" font-size="13" lengthAdjust="spacing" textLength="74" x="218" y="194.1074">Select other</text><line style="stroke:#181818;stroke-width:1.0;" x1="292" x2="503" y1="189.6943" y2="189.6943"/><line style="stroke:#181818;stroke-width:1.0;" x1="292" x2="503" y1="191.6943" y2="191.6943"/></g><!--class ModuleExportsDirective--><a href="ModuleExportsDirective-diagram-simplified-grouped-per-namespace.svg" target="_top" title="ModuleExportsDirective-diagram-simplified-grouped-per-namespace.svg" xlink:actuate="onRequest" xlink:href="ModuleExportsDirective-diagram-simplified-grouped-per-namespace.svg" xlink:show="new" xlink:title="ModuleExportsDirective-diagram-simplified-grouped-per-namespace.svg" xlink:type="simple"><g id="elem_ModuleExportsDirective"><rect codeLine="4" fill="#FFFF00" height="48" id="ModuleExportsDirective" rx="2.5" ry="2.5" style="stroke:#181818;stroke-width:0.5;" width="195" x="536.5" y="358.5547"/><ellipse cx="551.5" cy="374.5547" fill="#ADD1B2" rx="11" ry="11" style="stroke:#181818;stroke-width:1.0;"/><path d="M553.9731,380.6978 Q553.3921,380.9966 552.7529,381.146 Q552.1138,381.2954 551.4082,381.2954 Q548.9014,381.2954 547.5815,379.6436 Q546.2617,377.9917 546.2617,374.8706 Q546.2617,371.7412 547.5815,370.0894 Q548.9014,368.4375 551.4082,368.4375 Q552.1138,368.4375 552.7612,368.5869 Q553.4087,368.7363 553.9731,369.0352 L553.9731,371.7578 Q553.3423,371.1768 552.7488,370.907 Q552.1553,370.6372 551.5244,370.6372 Q550.1797,370.6372 549.4949,371.7039 Q548.8101,372.7705 548.8101,374.8706 Q548.8101,376.9624 549.4949,378.0291 Q550.1797,379.0957 551.5244,379.0957 Q552.1553,379.0957 552.7488,378.8259 Q553.3423,378.5562 553.9731,377.9751 Z " fill="#000000"/><text fill="#000000" font-family="sans-serif" font-size="14" lengthAdjust="spacing" textLength="163" x="565.5" y="379.8457">ModuleExportsDirective</text><line style="stroke:#181818;stroke-width:0.5;" x1="537.5" x2="730.5" y1="390.5547" y2="390.5547"/><line style="stroke:#181818;stroke-width:0.5;" x1="537.5" x2="730.5" y1="398.5547" y2="398.5547"/></g></a><!--link ASTVisitorDebug to ModuleExportsDirective--><g id="link_ASTVisitorDebug_ModuleExportsDirective"><path codeLine="24" d="M634,198.8247 C634,198.8247 634,352.1247 634,352.1247 " fill="none" id="ASTVisitorDebug-to-ModuleExportsDirective" style="stroke:#6060BB;stroke-width:1.0;stroke-dasharray:7.0,7.0;"/><polygon fill="#6060BB" points="634,357.1247,638,348.1247,634,352.1247,630,348.1247,634,357.1247" style="stroke:#6060BB;stroke-width:1.0;"/><text fill="#000000" font-family="sans-serif" font-size="13" lengthAdjust="spacing" textLength="29" x="604" y="272.043">uses</text></g><!--SRC=[jLHHQ-9047xFhnZQXqB0dDn37wGAr_RaNgulFGuE8x9c9pfqinjsDbPRxh_VHAEXhMA5KqJCPkRxlfdvPlc9RAcyAi2GnR0g4PmFSnS52WRXXka5Ur-xWvzELmQ_Bqjvo_VaCGkqG8XZfg8qb1FgE0PbjHpDlAjAr52Y1wiAv59b6CStNsgmGMHTGBZuuoeFogFaABDw8JlhfVO_iAGsjVt-a4n0t- -dLdWWKnOoGzaJ88MvnCjFcyEGMkSbG35lJY6NvtmD8Rhgw69DAd_8frQlXO764gr6cn5oig5zH5E_SJL9JHx3mOeq1aNcU3tI5G0OZVO3TJIfcKoliuNhD30TWUdiO19UpCRZMi-mCWQQf9FwkjMH2y2EjKq_nll35RY58EdQCfc7mep75w0OXiQf89r-46T4cpaSwDlHFdnE4Lokq1Zt3A_Ht-WAxepZUj1AUbDwN92hUCBLTB9BcnZYqBO37fn5c6AcAiRQAOsDcHZacvCbdgDEeZP3S9LMfLXAYcWVJXN-kXSoqQvGPDyWDsUd4q2p2X-Wac-FltuJKt3-7gVLR1_T-vXJwTVyCfCxLyYr93OyTxdmB5S2IC41P7aBjBA-EQmrdD4NBNQRkodWZI7t5Iy1S2Lx-gaFd2ss5bcxnAEHtNMM0PV1gop8p7BlYbPxJs9F3FymrkYu6PFHvNNtkdjxEqu6XwuFw84CXk4V]--></g></svg>