<?xml version="1.0" encoding="us-ascii" standalone="no"?><svg xmlns="http://www.w3.org/2000/svg" xmlns:xlink="http://www.w3.org/1999/xlink" contentStyleType="text/css" height="434px" preserveAspectRatio="none" style="width:965px;height:434px;background:#FFFFFF;" version="1.1" viewBox="0 0 965 434" width="965px" zoomAndPan="magnify"><defs/><g><text fill="#000000" font-family="sans-serif" font-size="20" font-weight="bold" lengthAdjust="spacing" textLength="53" x="243.25" y="29.3359">Node</text><text fill="#000000" font-family="sans-serif" font-size="20" font-weight="bold" lengthAdjust="spacing" textLength="104" x="303.25" y="29.3359">simplified</text><text fill="#000000" font-family="sans-serif" font-size="20" font-weight="bold" lengthAdjust="spacing" textLength="38" x="414.25" y="29.3359">and</text><text fill="#000000" font-family="sans-serif" font-size="20" font-weight="bold" lengthAdjust="spacing" textLength="249" x="459.25" y="29.3359">grouped per namespace</text><!--cluster preadapter--><g id="cluster_preadapter"><a href="preadapter-diagram-simplified-grouped-per-namespace.svg" target="_top" title="preadapter-diagram-simplified-grouped-per-namespace.svg" xlink:actuate="onRequest" xlink:href="preadapter-diagram-simplified-grouped-per-namespace.svg" xlink:show="new" xlink:title="preadapter-diagram-simplified-grouped-per-namespace.svg" xlink:type="simple"><path d="M414,50.5547 L492,50.5547 A3.75,3.75 0 0 1 494.5,53.0547 L501.5,73.043 L956,73.043 A2.5,2.5 0 0 1 958.5,75.543 L958.5,281.0547 A2.5,2.5 0 0 1 956,283.5547 L414,283.5547 A2.5,2.5 0 0 1 411.5,281.0547 L411.5,53.0547 A2.5,2.5 0 0 1 414,50.5547 " fill="none" style="stroke:#000000;stroke-width:1.5;"/><line style="stroke:#000000;stroke-width:1.5;" x1="411.5" x2="501.5" y1="73.043" y2="73.043"/><text fill="#000000" font-family="sans-serif" font-size="14" font-weight="bold" lengthAdjust="spacing" textLength="77" x="415.5" y="66.0898">preadapter</text></a></g><!--cluster domain--><g id="cluster_domain"><a href="preadapter.domain-diagram-simplified-grouped-per-namespace.svg" target="_top" title="preadapter.domain-diagram-simplified-grouped-per-namespace.svg" xlink:actuate="onRequest" xlink:href="preadapter.domain-diagram-simplified-grouped-per-namespace.svg" xlink:show="new" xlink:title="preadapter.domain-diagram-simplified-grouped-per-namespace.svg" xlink:type="simple"><path d="M438,93.5547 L493,93.5547 A3.75,3.75 0 0 1 495.5,96.0547 L502.5,116.043 L932,116.043 A2.5,2.5 0 0 1 934.5,118.543 L934.5,257.0547 A2.5,2.5 0 0 1 932,259.5547 L438,259.5547 A2.5,2.5 0 0 1 435.5,257.0547 L435.5,96.0547 A2.5,2.5 0 0 1 438,93.5547 " fill="none" style="stroke:#000000;stroke-width:1.5;"/><line style="stroke:#000000;stroke-width:1.5;" x1="435.5" x2="502.5" y1="116.043" y2="116.043"/><text fill="#000000" font-family="sans-serif" font-size="14" font-weight="bold" lengthAdjust="spacing" textLength="54" x="439.5" y="109.0898">domain</text></a></g><!--cluster ASTVisitor--><g id="cluster_ASTVisitor"><path d="M735,136.5547 L813,136.5547 A3.75,3.75 0 0 1 815.5,139.0547 L822.5,159.043 L908,159.043 A2.5,2.5 0 0 1 910.5,161.543 L910.5,233.0547 A2.5,2.5 0 0 1 908,235.5547 L735,235.5547 A2.5,2.5 0 0 1 732.5,233.0547 L732.5,139.0547 A2.5,2.5 0 0 1 735,136.5547 " fill="none" style="stroke:#000000;stroke-width:1.5;"/><line style="stroke:#000000;stroke-width:1.5;" x1="732.5" x2="822.5" y1="159.043" y2="159.043"/><text fill="#000000" font-family="sans-serif" font-size="14" font-weight="bold" lengthAdjust="spacing" textLength="77" x="736.5" y="152.0898">ASTVisitor</text></g><!--class ASTVisitor_DOT_HandleDeepness--><a href="preadapter.domain.ASTVisitor.HandleDeepness-diagram-simplified-grouped-per-namespace.svg" target="_top" title="preadapter.domain.ASTVisitor.HandleDeepness-diagram-simplified-grouped-per-namespace.svg" xlink:actuate="onRequest" xlink:href="preadapter.domain.ASTVisitor.HandleDeepness-diagram-simplified-grouped-per-namespace.svg" xlink:show="new" xlink:title="preadapter.domain.ASTVisitor.HandleDeepness-diagram-simplified-grouped-per-namespace.svg" xlink:type="simple"><g id="elem_ASTVisitor_DOT_HandleDeepness"><rect codeLine="9" fill="#F1F1F1" height="48" id="ASTVisitor_DOT_HandleDeepness" rx="2.5" ry="2.5" style="stroke:#181818;stroke-width:0.5;" width="261" x="452" y="171.5547"/><ellipse cx="467" cy="187.5547" fill="#ADD1B2" rx="11" ry="11" style="stroke:#181818;stroke-width:1.0;"/><path d="M469.4731,193.6978 Q468.8921,193.9966 468.2529,194.146 Q467.6138,194.2954 466.9082,194.2954 Q464.4014,194.2954 463.0815,192.6436 Q461.7617,190.9917 461.7617,187.8706 Q461.7617,184.7412 463.0815,183.0894 Q464.4014,181.4375 466.9082,181.4375 Q467.6138,181.4375 468.2612,181.5869 Q468.9087,181.7363 469.4731,182.0352 L469.4731,184.7578 Q468.8423,184.1768 468.2488,183.907 Q467.6553,183.6372 467.0244,183.6372 Q465.6797,183.6372 464.9949,184.7039 Q464.3101,185.7705 464.3101,187.8706 Q464.3101,189.9624 464.9949,191.0291 Q465.6797,192.0957 467.0244,192.0957 Q467.6553,192.0957 468.2488,191.8259 Q468.8423,191.5562 469.4731,190.9751 Z " fill="#000000"/><text fill="#000000" font-family="sans-serif" font-size="14" lengthAdjust="spacing" textLength="229" x="481" y="192.8457">ASTVisitor_DOT_HandleDeepness</text><line style="stroke:#181818;stroke-width:0.5;" x1="453" x2="712" y1="203.5547" y2="203.5547"/><line style="stroke:#181818;stroke-width:0.5;" x1="453" x2="712" y1="211.5547" y2="211.5547"/></g></a><!--class HandleDeepness--><g id="elem_HandleDeepness"><rect fill="#F1F1F1" height="48" id="HandleDeepness" rx="2.5" ry="2.5" style="stroke:#181818;stroke-width:0.5;" width="146" x="748.5" y="171.5547"/><ellipse cx="763.5" cy="187.5547" fill="#ADD1B2" rx="11" ry="11" style="stroke:#181818;stroke-width:1.0;"/><path d="M765.9731,193.6978 Q765.3921,193.9966 764.7529,194.146 Q764.1138,194.2954 763.4082,194.2954 Q760.9014,194.2954 759.5815,192.6436 Q758.2617,190.9917 758.2617,187.8706 Q758.2617,184.7412 759.5815,183.0894 Q760.9014,181.4375 763.4082,181.4375 Q764.1138,181.4375 764.7612,181.5869 Q765.4087,181.7363 765.9731,182.0352 L765.9731,184.7578 Q765.3423,184.1768 764.7488,183.907 Q764.1553,183.6372 763.5244,183.6372 Q762.1797,183.6372 761.4949,184.7039 Q760.8101,185.7705 760.8101,187.8706 Q760.8101,189.9624 761.4949,191.0291 Q762.1797,192.0957 763.5244,192.0957 Q764.1553,192.0957 764.7488,191.8259 Q765.3423,191.5562 765.9731,190.9751 Z " fill="#000000"/><text fill="#000000" font-family="sans-serif" font-size="14" lengthAdjust="spacing" textLength="114" x="777.5" y="192.8457">HandleDeepness</text><line style="stroke:#181818;stroke-width:0.5;" x1="749.5" x2="893.5" y1="203.5547" y2="203.5547"/><line style="stroke:#181818;stroke-width:0.5;" x1="749.5" x2="893.5" y1="211.5547" y2="211.5547"/></g><g id="elem_FloatingNote"><path d="M6,71.5547 L6,319.2129 L395,319.2129 L395,81.5547 L385,71.5547 L6,71.5547 " fill="#FEFFDD" style="stroke:#181818;stroke-width:0.5;"/><path d="M385,71.5547 L385,81.5547 L395,81.5547 L385,71.5547 " fill="#FEFFDD" style="stroke:#181818;stroke-width:1.0;"/><text fill="#000000" font-family="sans-serif" font-size="13" lengthAdjust="spacing" textLength="120" x="12" y="89.123">Your are analyzing:</text><text fill="#000000" font-family="sans-serif" font-size="13" lengthAdjust="spacing" textLength="33" x="12" y="104.4336">Node</text><text fill="#000000" font-family="sans-serif" font-size="13" font-weight="bold" lengthAdjust="spacing" textLength="67" x="49" y="104.4336">simplified</text><text fill="#000000" font-family="sans-serif" font-size="13" lengthAdjust="spacing" textLength="23" x="120" y="104.4336">and</text><text fill="#000000" font-family="sans-serif" font-size="13" font-weight="bold" lengthAdjust="spacing" textLength="166" x="147" y="104.4336">grouped per namespace</text><text fill="#000000" font-family="sans-serif" font-size="13" lengthAdjust="spacing" textLength="4" x="12" y="119.7441">&#160;</text><text fill="#000000" font-family="sans-serif" font-size="13" lengthAdjust="spacing" textLength="229" x="12" y="150.3652">You can click either the namespaces</text><text fill="#000000" font-family="sans-serif" font-size="13" lengthAdjust="spacing" textLength="266" x="12" y="165.6758">or class names for filtering them and their</text><text fill="#000000" font-family="sans-serif" font-size="13" lengthAdjust="spacing" textLength="130" x="12" y="180.9863">direct dependencies.</text><text fill="#000000" font-family="sans-serif" font-size="13" lengthAdjust="spacing" textLength="4" x="12" y="196.2969">&#160;</text><line style="stroke:#181818;stroke-width:1.0;" x1="7" x2="184.5" y1="130.1416" y2="130.1416"/><line style="stroke:#181818;stroke-width:1.0;" x1="7" x2="184.5" y1="132.1416" y2="132.1416"/><text fill="#000000" font-family="sans-serif" font-size="13" lengthAdjust="spacing" textLength="32" x="184.5" y="134.5547">Filter</text><line style="stroke:#181818;stroke-width:1.0;" x1="216.5" x2="394" y1="130.1416" y2="130.1416"/><line style="stroke:#181818;stroke-width:1.0;" x1="216.5" x2="394" y1="132.1416" y2="132.1416"/><ellipse cx="17.5" cy="226.1602" fill="#000000" rx="2.5" ry="2.5" style="stroke:#000000;stroke-width:0.0;"/><text fill="#000000" font-family="sans-serif" font-size="13" lengthAdjust="spacing" textLength="33" x="24" y="230.918">Node</text><text fill="#000000" font-family="sans-serif" font-size="13" font-weight="bold" lengthAdjust="spacing" textLength="55" x="61" y="230.918">detailed</text><text fill="#000000" font-family="sans-serif" font-size="13" lengthAdjust="spacing" textLength="23" x="120" y="230.918">and</text><text fill="#000000" font-family="sans-serif" font-size="13" font-weight="bold" lengthAdjust="spacing" textLength="166" x="147" y="230.918">grouped per namespace</text><text fill="#000000" font-family="sans-serif" font-size="13" lengthAdjust="spacing" textLength="4" x="313" y="230.918">:</text><text fill="#000000" font-family="sans-serif" font-size="13" lengthAdjust="spacing" textLength="12" x="12" y="246.2285">&#160;&#160;&#160;</text><a href="Node-diagram-detailed-grouped-per-namespace.svg" target="_top" title="Node-diagram-detailed-grouped-per-namespace.svg" xlink:actuate="onRequest" xlink:href="Node-diagram-detailed-grouped-per-namespace.svg" xlink:show="new" xlink:title="Node-diagram-detailed-grouped-per-namespace.svg" xlink:type="simple"><text fill="#0000FF" font-family="sans-serif" font-size="13" lengthAdjust="spacing" text-decoration="underline" textLength="342" x="24" y="246.2285">Node-diagram-detailed-grouped-per-namespace.svg</text></a><ellipse cx="17.5" cy="256.7813" fill="#000000" rx="2.5" ry="2.5" style="stroke:#000000;stroke-width:0.0;"/><text fill="#000000" font-family="sans-serif" font-size="13" lengthAdjust="spacing" textLength="78" x="24" y="261.5391">Full diagram</text><text fill="#000000" font-family="sans-serif" font-size="13" font-weight="bold" lengthAdjust="spacing" textLength="67" x="106" y="261.5391">simplified</text><text fill="#000000" font-family="sans-serif" font-size="13" lengthAdjust="spacing" textLength="23" x="177" y="261.5391">and</text><text fill="#000000" font-family="sans-serif" font-size="13" font-weight="bold" lengthAdjust="spacing" textLength="166" x="204" y="261.5391">grouped per namespace</text><text fill="#000000" font-family="sans-serif" font-size="13" lengthAdjust="spacing" textLength="4" x="370" y="261.5391">:</text><text fill="#000000" font-family="sans-serif" font-size="13" lengthAdjust="spacing" textLength="12" x="12" y="276.8496">&#160;&#160;&#160;</text><a href="full-diagram-simplified-grouped-per-namespace.svg" target="_top" title="full-diagram-simplified-grouped-per-namespace.svg" xlink:actuate="onRequest" xlink:href="full-diagram-simplified-grouped-per-namespace.svg" xlink:show="new" xlink:title="full-diagram-simplified-grouped-per-namespace.svg" xlink:type="simple"><text fill="#0000FF" font-family="sans-serif" font-size="13" lengthAdjust="spacing" text-decoration="underline" textLength="343" x="24" y="276.8496">full-diagram-simplified-grouped-per-namespace.svg</text></a><ellipse cx="17.5" cy="287.4023" fill="#000000" rx="2.5" ry="2.5" style="stroke:#000000;stroke-width:0.0;"/><text fill="#000000" font-family="sans-serif" font-size="13" lengthAdjust="spacing" textLength="41" x="24" y="292.1602">Home:</text><text fill="#000000" font-family="sans-serif" font-size="13" lengthAdjust="spacing" textLength="12" x="12" y="307.4707">&#160;&#160;&#160;</text><a href="index.html" target="_top" title="index.html" xlink:actuate="onRequest" xlink:href="index.html" xlink:show="new" xlink:title="index.html" xlink:type="simple"><text fill="#0000FF" font-family="sans-serif" font-size="13" lengthAdjust="spacing" text-decoration="underline" textLength="68" x="24" y="307.4707">index.html</text></a><line style="stroke:#181818;stroke-width:1.0;" x1="7" x2="163.5" y1="210.6943" y2="210.6943"/><line style="stroke:#181818;stroke-width:1.0;" x1="7" x2="163.5" y1="212.6943" y2="212.6943"/><text fill="#000000" font-family="sans-serif" font-size="13" lengthAdjust="spacing" textLength="74" x="163.5" y="215.1074">Select other</text><line style="stroke:#181818;stroke-width:1.0;" x1="237.5" x2="394" y1="210.6943" y2="210.6943"/><line style="stroke:#181818;stroke-width:1.0;" x1="237.5" x2="394" y1="212.6943" y2="212.6943"/></g><!--class Node--><a href="Node-diagram-simplified-grouped-per-namespace.svg" target="_top" title="Node-diagram-simplified-grouped-per-namespace.svg" xlink:actuate="onRequest" xlink:href="Node-diagram-simplified-grouped-per-namespace.svg" xlink:show="new" xlink:title="Node-diagram-simplified-grouped-per-namespace.svg" xlink:type="simple"><g id="elem_Node"><rect codeLine="4" fill="#FFFF00" height="48" id="Node" rx="2.5" ry="2.5" style="stroke:#181818;stroke-width:0.5;" width="68" x="787.5" y="379.5547"/><ellipse cx="802.5" cy="395.5547" fill="#ADD1B2" rx="11" ry="11" style="stroke:#181818;stroke-width:1.0;"/><path d="M804.9731,401.6978 Q804.3921,401.9966 803.7529,402.146 Q803.1138,402.2954 802.4082,402.2954 Q799.9014,402.2954 798.5815,400.6436 Q797.2617,398.9917 797.2617,395.8706 Q797.2617,392.7412 798.5815,391.0894 Q799.9014,389.4375 802.4082,389.4375 Q803.1138,389.4375 803.7612,389.5869 Q804.4087,389.7363 804.9731,390.0352 L804.9731,392.7578 Q804.3423,392.1768 803.7488,391.907 Q803.1553,391.6372 802.5244,391.6372 Q801.1797,391.6372 800.4949,392.7039 Q799.8101,393.7705 799.8101,395.8706 Q799.8101,397.9624 800.4949,399.0291 Q801.1797,400.0957 802.5244,400.0957 Q803.1553,400.0957 803.7488,399.8259 Q804.3423,399.5562 804.9731,398.9751 Z " fill="#000000"/><text fill="#000000" font-family="sans-serif" font-size="14" lengthAdjust="spacing" textLength="36" x="816.5" y="400.8457">Node</text><line style="stroke:#181818;stroke-width:0.5;" x1="788.5" x2="854.5" y1="411.5547" y2="411.5547"/><line style="stroke:#181818;stroke-width:0.5;" x1="788.5" x2="854.5" y1="419.5547" y2="419.5547"/></g></a><!--link HandleDeepness to Node--><g id="link_HandleDeepness_Node"><path codeLine="24" d="M821.5,219.8247 C821.5,219.8247 821.5,373.1247 821.5,373.1247 " fill="none" id="HandleDeepness-to-Node" style="stroke:#6060BB;stroke-width:1.0;stroke-dasharray:7.0,7.0;"/><polygon fill="#6060BB" points="821.5,378.1247,825.5,369.1247,821.5,373.1247,817.5,369.1247,821.5,378.1247" style="stroke:#6060BB;stroke-width:1.0;"/><text fill="#000000" font-family="sans-serif" font-size="13" lengthAdjust="spacing" textLength="29" x="791.5" y="293.043">uses</text></g><!--SRC=[jLJDI-D05B_dhtZeGGWqM_RWeTZ2gXHFxa5PM4mfO-QbVJXv4sOcQfNzt_TDcpRRjQ0vj8IIJDxlutt5Fn7NogaA3366LOrWNLZQ950m21UUtd3qVJYvjHeXJJrLjQ6IKASfADPoj72sgL53ZGvOLUXhLM2QNdoBq4d2DY2S_BQD0-LGCCgiteWNevnxS-QSytWy9HFGZSSv2oiKYg4mL3m1KbXAlFnr60yvMoS1ollDAPJoNAufn4MChjQYSaCkPqqEYm0QQsIDN13wR2DxXoQ-iL4aYgVG-jSO59dFtKl60F3m4643JMeXLHzimOCMD13GO0VA_FDYDejQqyOOQ46zQhPLBOLWfzh1FzEziHLkAKWgyfejGsLcinDG7gR6gY1Ll9KU9viQhsloNuvVKuFJ5HfZN-0z-PESmPMnFZP8ITwrmsUoZP_xvd6-WyqD-T2bAjACy8Y5QZp63hV3vic3N2Kn-INgBEaGmgkqgcKKn7BtqDVu-q7AJDjA4UynjsVz1Q0TuGzKsO-x-r_aALWtl_vvFx-HOJ1uZLWpIlm1yNyGsNvqNrjhNzAhArl99qH6xzXbW1TPSP12191bh91b7KjOUpZYl7JS7NQJmDwW7afU0k1CTlDBFpXQR3GPfyUXaNsrx05VWrD5a9wLpbQTzv74zWp_qDQanyX1zd1wFZmVNbxEiidcum4Za8Pu-0i0]--></g></svg>