<?xml version="1.0" encoding="us-ascii" standalone="no"?><svg xmlns="http://www.w3.org/2000/svg" xmlns:xlink="http://www.w3.org/1999/xlink" contentStyleType="text/css" height="413px" preserveAspectRatio="none" style="width:667px;height:413px;background:#FFFFFF;" version="1.1" viewBox="0 0 667 413" width="667px" zoomAndPan="magnify"><defs/><g><text fill="#000000" font-family="sans-serif" font-size="20" font-weight="bold" lengthAdjust="spacing" textLength="105" x="68" y="29.3359">Parameter</text><text fill="#000000" font-family="sans-serif" font-size="20" font-weight="bold" lengthAdjust="spacing" textLength="104" x="180" y="29.3359">simplified</text><text fill="#000000" font-family="sans-serif" font-size="20" font-weight="bold" lengthAdjust="spacing" textLength="38" x="291" y="29.3359">and</text><text fill="#000000" font-family="sans-serif" font-size="20" font-weight="bold" lengthAdjust="spacing" textLength="249" x="336" y="29.3359">grouped per namespace</text><!--cluster preadapter--><g id="cluster_preadapter"><a href="preadapter-diagram-simplified-grouped-per-namespace.svg" target="_top" title="preadapter-diagram-simplified-grouped-per-namespace.svg" xlink:actuate="onRequest" xlink:href="preadapter-diagram-simplified-grouped-per-namespace.svg" xlink:show="new" xlink:title="preadapter-diagram-simplified-grouped-per-namespace.svg" xlink:type="simple"><path d="M434.5,72.5547 L512.5,72.5547 A3.75,3.75 0 0 1 515,75.0547 L522,95.043 L657.5,95.043 A2.5,2.5 0 0 1 660,97.543 L660,236.0547 A2.5,2.5 0 0 1 657.5,238.5547 L434.5,238.5547 A2.5,2.5 0 0 1 432,236.0547 L432,75.0547 A2.5,2.5 0 0 1 434.5,72.5547 " fill="none" style="stroke:#000000;stroke-width:1.5;"/><line style="stroke:#000000;stroke-width:1.5;" x1="432" x2="522" y1="95.043" y2="95.043"/><text fill="#000000" font-family="sans-serif" font-size="14" font-weight="bold" lengthAdjust="spacing" textLength="77" x="436" y="88.0898">preadapter</text></a></g><!--cluster domain--><g id="cluster_domain"><a href="preadapter.domain-diagram-simplified-grouped-per-namespace.svg" target="_top" title="preadapter.domain-diagram-simplified-grouped-per-namespace.svg" xlink:actuate="onRequest" xlink:href="preadapter.domain-diagram-simplified-grouped-per-namespace.svg" xlink:show="new" xlink:title="preadapter.domain-diagram-simplified-grouped-per-namespace.svg" xlink:type="simple"><path d="M458.5,115.5547 L513.5,115.5547 A3.75,3.75 0 0 1 516,118.0547 L523,138.043 L633.5,138.043 A2.5,2.5 0 0 1 636,140.543 L636,212.0547 A2.5,2.5 0 0 1 633.5,214.5547 L458.5,214.5547 A2.5,2.5 0 0 1 456,212.0547 L456,118.0547 A2.5,2.5 0 0 1 458.5,115.5547 " fill="none" style="stroke:#000000;stroke-width:1.5;"/><line style="stroke:#000000;stroke-width:1.5;" x1="456" x2="523" y1="138.043" y2="138.043"/><text fill="#000000" font-family="sans-serif" font-size="14" font-weight="bold" lengthAdjust="spacing" textLength="54" x="460" y="131.0898">domain</text></a></g><!--class ASTVisitorDebug--><a href="preadapter.domain.ASTVisitorDebug-diagram-simplified-grouped-per-namespace.svg" target="_top" title="preadapter.domain.ASTVisitorDebug-diagram-simplified-grouped-per-namespace.svg" xlink:actuate="onRequest" xlink:href="preadapter.domain.ASTVisitorDebug-diagram-simplified-grouped-per-namespace.svg" xlink:show="new" xlink:title="preadapter.domain.ASTVisitorDebug-diagram-simplified-grouped-per-namespace.svg" xlink:type="simple"><g id="elem_ASTVisitorDebug"><rect codeLine="9" fill="#F1F1F1" height="48" id="ASTVisitorDebug" rx="2.5" ry="2.5" style="stroke:#181818;stroke-width:0.5;" width="148" x="472" y="150.5547"/><ellipse cx="487" cy="166.5547" fill="#ADD1B2" rx="11" ry="11" style="stroke:#181818;stroke-width:1.0;"/><path d="M489.4731,172.6978 Q488.8921,172.9966 488.2529,173.146 Q487.6138,173.2954 486.9082,173.2954 Q484.4014,173.2954 483.0815,171.6436 Q481.7617,169.9917 481.7617,166.8706 Q481.7617,163.7412 483.0815,162.0894 Q484.4014,160.4375 486.9082,160.4375 Q487.6138,160.4375 488.2612,160.5869 Q488.9087,160.7363 489.4731,161.0352 L489.4731,163.7578 Q488.8423,163.1768 488.2488,162.907 Q487.6553,162.6372 487.0244,162.6372 Q485.6797,162.6372 484.9949,163.7039 Q484.3101,164.7705 484.3101,166.8706 Q484.3101,168.9624 484.9949,170.0291 Q485.6797,171.0957 487.0244,171.0957 Q487.6553,171.0957 488.2488,170.8259 Q488.8423,170.5562 489.4731,169.9751 Z " fill="#000000"/><text fill="#000000" font-family="sans-serif" font-size="14" lengthAdjust="spacing" textLength="116" x="501" y="171.8457">ASTVisitorDebug</text><line style="stroke:#181818;stroke-width:0.5;" x1="473" x2="619" y1="182.5547" y2="182.5547"/><line style="stroke:#181818;stroke-width:0.5;" x1="473" x2="619" y1="190.5547" y2="190.5547"/></g></a><g id="elem_FloatingNote"><path d="M6,50.5547 L6,298.2129 L416,298.2129 L416,60.5547 L406,50.5547 L6,50.5547 " fill="#FEFFDD" style="stroke:#181818;stroke-width:0.5;"/><path d="M406,50.5547 L406,60.5547 L416,60.5547 L406,50.5547 " fill="#FEFFDD" style="stroke:#181818;stroke-width:1.0;"/><text fill="#000000" font-family="sans-serif" font-size="13" lengthAdjust="spacing" textLength="120" x="12" y="68.123">Your are analyzing:</text><text fill="#000000" font-family="sans-serif" font-size="13" lengthAdjust="spacing" textLength="62" x="12" y="83.4336">Parameter</text><text fill="#000000" font-family="sans-serif" font-size="13" font-weight="bold" lengthAdjust="spacing" textLength="67" x="78" y="83.4336">simplified</text><text fill="#000000" font-family="sans-serif" font-size="13" lengthAdjust="spacing" textLength="23" x="149" y="83.4336">and</text><text fill="#000000" font-family="sans-serif" font-size="13" font-weight="bold" lengthAdjust="spacing" textLength="166" x="176" y="83.4336">grouped per namespace</text><text fill="#000000" font-family="sans-serif" font-size="13" lengthAdjust="spacing" textLength="4" x="12" y="98.7441">&#160;</text><text fill="#000000" font-family="sans-serif" font-size="13" lengthAdjust="spacing" textLength="229" x="12" y="129.3652">You can click either the namespaces</text><text fill="#000000" font-family="sans-serif" font-size="13" lengthAdjust="spacing" textLength="266" x="12" y="144.6758">or class names for filtering them and their</text><text fill="#000000" font-family="sans-serif" font-size="13" lengthAdjust="spacing" textLength="130" x="12" y="159.9863">direct dependencies.</text><text fill="#000000" font-family="sans-serif" font-size="13" lengthAdjust="spacing" textLength="4" x="12" y="175.2969">&#160;</text><line style="stroke:#181818;stroke-width:1.0;" x1="7" x2="195" y1="109.1416" y2="109.1416"/><line style="stroke:#181818;stroke-width:1.0;" x1="7" x2="195" y1="111.1416" y2="111.1416"/><text fill="#000000" font-family="sans-serif" font-size="13" lengthAdjust="spacing" textLength="32" x="195" y="113.5547">Filter</text><line style="stroke:#181818;stroke-width:1.0;" x1="227" x2="415" y1="109.1416" y2="109.1416"/><line style="stroke:#181818;stroke-width:1.0;" x1="227" x2="415" y1="111.1416" y2="111.1416"/><ellipse cx="17.5" cy="205.1602" fill="#000000" rx="2.5" ry="2.5" style="stroke:#000000;stroke-width:0.0;"/><text fill="#000000" font-family="sans-serif" font-size="13" lengthAdjust="spacing" textLength="62" x="24" y="209.918">Parameter</text><text fill="#000000" font-family="sans-serif" font-size="13" font-weight="bold" lengthAdjust="spacing" textLength="55" x="90" y="209.918">detailed</text><text fill="#000000" font-family="sans-serif" font-size="13" lengthAdjust="spacing" textLength="23" x="149" y="209.918">and</text><text fill="#000000" font-family="sans-serif" font-size="13" font-weight="bold" lengthAdjust="spacing" textLength="166" x="176" y="209.918">grouped per namespace</text><text fill="#000000" font-family="sans-serif" font-size="13" lengthAdjust="spacing" textLength="4" x="342" y="209.918">:</text><text fill="#000000" font-family="sans-serif" font-size="13" lengthAdjust="spacing" textLength="12" x="12" y="225.2285">&#160;&#160;&#160;</text><a href="Parameter-diagram-detailed-grouped-per-namespace.svg" target="_top" title="Parameter-diagram-detailed-grouped-per-namespace.svg" xlink:actuate="onRequest" xlink:href="Parameter-diagram-detailed-grouped-per-namespace.svg" xlink:show="new" xlink:title="Parameter-diagram-detailed-grouped-per-namespace.svg" xlink:type="simple"><text fill="#0000FF" font-family="sans-serif" font-size="13" lengthAdjust="spacing" text-decoration="underline" textLength="371" x="24" y="225.2285">Parameter-diagram-detailed-grouped-per-namespace.svg</text></a><ellipse cx="17.5" cy="235.7813" fill="#000000" rx="2.5" ry="2.5" style="stroke:#000000;stroke-width:0.0;"/><text fill="#000000" font-family="sans-serif" font-size="13" lengthAdjust="spacing" textLength="78" x="24" y="240.5391">Full diagram</text><text fill="#000000" font-family="sans-serif" font-size="13" font-weight="bold" lengthAdjust="spacing" textLength="67" x="106" y="240.5391">simplified</text><text fill="#000000" font-family="sans-serif" font-size="13" lengthAdjust="spacing" textLength="23" x="177" y="240.5391">and</text><text fill="#000000" font-family="sans-serif" font-size="13" font-weight="bold" lengthAdjust="spacing" textLength="166" x="204" y="240.5391">grouped per namespace</text><text fill="#000000" font-family="sans-serif" font-size="13" lengthAdjust="spacing" textLength="4" x="370" y="240.5391">:</text><text fill="#000000" font-family="sans-serif" font-size="13" lengthAdjust="spacing" textLength="12" x="12" y="255.8496">&#160;&#160;&#160;</text><a href="full-diagram-simplified-grouped-per-namespace.svg" target="_top" title="full-diagram-simplified-grouped-per-namespace.svg" xlink:actuate="onRequest" xlink:href="full-diagram-simplified-grouped-per-namespace.svg" xlink:show="new" xlink:title="full-diagram-simplified-grouped-per-namespace.svg" xlink:type="simple"><text fill="#0000FF" font-family="sans-serif" font-size="13" lengthAdjust="spacing" text-decoration="underline" textLength="343" x="24" y="255.8496">full-diagram-simplified-grouped-per-namespace.svg</text></a><ellipse cx="17.5" cy="266.4023" fill="#000000" rx="2.5" ry="2.5" style="stroke:#000000;stroke-width:0.0;"/><text fill="#000000" font-family="sans-serif" font-size="13" lengthAdjust="spacing" textLength="41" x="24" y="271.1602">Home:</text><text fill="#000000" font-family="sans-serif" font-size="13" lengthAdjust="spacing" textLength="12" x="12" y="286.4707">&#160;&#160;&#160;</text><a href="index.html" target="_top" title="index.html" xlink:actuate="onRequest" xlink:href="index.html" xlink:show="new" xlink:title="index.html" xlink:type="simple"><text fill="#0000FF" font-family="sans-serif" font-size="13" lengthAdjust="spacing" text-decoration="underline" textLength="68" x="24" y="286.4707">index.html</text></a><line style="stroke:#181818;stroke-width:1.0;" x1="7" x2="174" y1="189.6943" y2="189.6943"/><line style="stroke:#181818;stroke-width:1.0;" x1="7" x2="174" y1="191.6943" y2="191.6943"/><text fill="#000000" font-family="sans-serif" font-size="13" lengthAdjust="spacing" textLength="74" x="174" y="194.1074">Select other</text><line style="stroke:#181818;stroke-width:1.0;" x1="248" x2="415" y1="189.6943" y2="189.6943"/><line style="stroke:#181818;stroke-width:1.0;" x1="248" x2="415" y1="191.6943" y2="191.6943"/></g><!--class Parameter--><a href="Parameter-diagram-simplified-grouped-per-namespace.svg" target="_top" title="Parameter-diagram-simplified-grouped-per-namespace.svg" xlink:actuate="onRequest" xlink:href="Parameter-diagram-simplified-grouped-per-namespace.svg" xlink:show="new" xlink:title="Parameter-diagram-simplified-grouped-per-namespace.svg" xlink:type="simple"><g id="elem_Parameter"><rect codeLine="4" fill="#FFFF00" height="48" id="Parameter" rx="2.5" ry="2.5" style="stroke:#181818;stroke-width:0.5;" width="102" x="495" y="358.5547"/><ellipse cx="510" cy="374.5547" fill="#ADD1B2" rx="11" ry="11" style="stroke:#181818;stroke-width:1.0;"/><path d="M512.4731,380.6978 Q511.8921,380.9966 511.2529,381.146 Q510.6138,381.2954 509.9082,381.2954 Q507.4014,381.2954 506.0815,379.6436 Q504.7617,377.9917 504.7617,374.8706 Q504.7617,371.7412 506.0815,370.0894 Q507.4014,368.4375 509.9082,368.4375 Q510.6138,368.4375 511.2612,368.5869 Q511.9087,368.7363 512.4731,369.0352 L512.4731,371.7578 Q511.8423,371.1768 511.2488,370.907 Q510.6553,370.6372 510.0244,370.6372 Q508.6797,370.6372 507.9949,371.7039 Q507.3101,372.7705 507.3101,374.8706 Q507.3101,376.9624 507.9949,378.0291 Q508.6797,379.0957 510.0244,379.0957 Q510.6553,379.0957 511.2488,378.8259 Q511.8423,378.5562 512.4731,377.9751 Z " fill="#000000"/><text fill="#000000" font-family="sans-serif" font-size="14" lengthAdjust="spacing" textLength="70" x="524" y="379.8457">Parameter</text><line style="stroke:#181818;stroke-width:0.5;" x1="496" x2="596" y1="390.5547" y2="390.5547"/><line style="stroke:#181818;stroke-width:0.5;" x1="496" x2="596" y1="398.5547" y2="398.5547"/></g></a><!--link ASTVisitorDebug to Parameter--><g id="link_ASTVisitorDebug_Parameter"><path codeLine="24" d="M546,198.8247 C546,198.8247 546,352.1247 546,352.1247 " fill="none" id="ASTVisitorDebug-to-Parameter" style="stroke:#6060BB;stroke-width:1.0;stroke-dasharray:7.0,7.0;"/><polygon fill="#6060BB" points="546,357.1247,550,348.1247,546,352.1247,542,348.1247,546,357.1247" style="stroke:#6060BB;stroke-width:1.0;"/><text fill="#000000" font-family="sans-serif" font-size="13" lengthAdjust="spacing" textLength="29" x="516" y="272.043">uses</text></g><!--SRC=[jLHBQzj04BxhLmp98I2mQdh8mSI69iNq50efXM8PizQEx26hNR6pIkA4_lVEMhQLXy5nmKOOQVKzvYc-9rihhoemP36iQWJdmz8bWO91k69wni7N_kXdn6103sdALDM6IaATfg2ibgE5TqsD6ce1M05ohGfCqwilaJzAh0i8PtzSuq5v58uogsUoYq5k_qyujxaT3iTaX3WSvbQaeL0M2aF5FI25fU3bh-CmvDPv0IZczXHAUIxN4X9AH5ThKxaXdrjD7ei06ckq6cr1o5bhUuScld7H99gdy3e9ZK6HEPo2v0u0aycEszEa5dBVsohqDioUC7ixPiOFY-aqkeuROs13EgfwM-jI17Qk7VsGxmzNuLQ2f3PFsJ9KPZez0yKmDau5gUUjj3nfgzrLPr-sd_E5ynKQunxX9VcRNC2DSHoRfgG2jSS7SWtFk9dFThIP8GvTqd3hBC8S2zKmngvlff29GQwIBF4ITPPq3D5LMjLjtDt3iO6_x9NCjAiKsJVAcxFZ3M0prX-aicztltuJKt3-EywRnJwxzvXZxTV-qfCRLyc7H8RjrEd2ewmtIC81P14hjBAA9QnZEE5STDeTjqtWpK3kIru0S27R-AaVd0mRWunJuj78XZhBW4_1go98pqhlgYxsWM2FX7zeQt9u6BF9-MN_idzzFSr6hpuIC03f1SC_]--></g></svg>