<?xml version="1.0" encoding="us-ascii" standalone="no"?><svg xmlns="http://www.w3.org/2000/svg" xmlns:xlink="http://www.w3.org/1999/xlink" contentStyleType="text/css" height="618px" preserveAspectRatio="none" style="width:3981px;height:618px;background:#FFFFFF;" version="1.1" viewBox="0 0 3981 618" width="3981px" zoomAndPan="magnify"><defs/><g><text fill="#000000" font-family="sans-serif" font-size="20" font-weight="bold" lengthAdjust="spacing" textLength="377" x="1589.25" y="29.3359">preadapter.infrastructure.CreateYML</text><text fill="#000000" font-family="sans-serif" font-size="20" font-weight="bold" lengthAdjust="spacing" textLength="104" x="1973.25" y="29.3359">simplified</text><text fill="#000000" font-family="sans-serif" font-size="20" font-weight="bold" lengthAdjust="spacing" textLength="38" x="2084.25" y="29.3359">and</text><text fill="#000000" font-family="sans-serif" font-size="20" font-weight="bold" lengthAdjust="spacing" textLength="249" x="2129.25" y="29.3359">grouped per namespace</text><!--cluster DumperOptions--><g id="cluster_DumperOptions"><path d="M3846,361.5547 L3962,361.5547 A3.75,3.75 0 0 1 3964.5,364.0547 L3971.5,384.043 L3972,384.043 A2.5,2.5 0 0 1 3974.5,386.543 L3974.5,458.0547 A2.5,2.5 0 0 1 3972,460.5547 L3846,460.5547 A2.5,2.5 0 0 1 3843.5,458.0547 L3843.5,364.0547 A2.5,2.5 0 0 1 3846,361.5547 " fill="none" style="stroke:#000000;stroke-width:1.5;"/><line style="stroke:#000000;stroke-width:1.5;" x1="3843.5" x2="3971.5" y1="384.043" y2="384.043"/><text fill="#000000" font-family="sans-serif" font-size="14" font-weight="bold" lengthAdjust="spacing" textLength="115" x="3847.5" y="377.0898">DumperOptions</text></g><!--cluster preadapter--><g id="cluster_preadapter"><a href="preadapter-diagram-simplified-grouped-per-namespace.svg" target="_top" title="preadapter-diagram-simplified-grouped-per-namespace.svg" xlink:actuate="onRequest" xlink:href="preadapter-diagram-simplified-grouped-per-namespace.svg" xlink:show="new" xlink:title="preadapter-diagram-simplified-grouped-per-namespace.svg" xlink:type="simple"><path d="M600,72.5547 L678,72.5547 A3.75,3.75 0 0 1 680.5,75.0547 L687.5,95.043 L1056,95.043 A2.5,2.5 0 0 1 1058.5,97.543 L1058.5,609.0547 A2.5,2.5 0 0 1 1056,611.5547 L600,611.5547 A2.5,2.5 0 0 1 597.5,609.0547 L597.5,75.0547 A2.5,2.5 0 0 1 600,72.5547 " fill="none" style="stroke:#000000;stroke-width:1.5;"/><line style="stroke:#000000;stroke-width:1.5;" x1="597.5" x2="687.5" y1="95.043" y2="95.043"/><text fill="#000000" font-family="sans-serif" font-size="14" font-weight="bold" lengthAdjust="spacing" textLength="77" x="601.5" y="88.0898">preadapter</text></a></g><!--cluster domain--><g id="cluster_domain"><a href="preadapter.domain-diagram-simplified-grouped-per-namespace.svg" target="_top" title="preadapter.domain-diagram-simplified-grouped-per-namespace.svg" xlink:actuate="onRequest" xlink:href="preadapter.domain-diagram-simplified-grouped-per-namespace.svg" xlink:show="new" xlink:title="preadapter.domain-diagram-simplified-grouped-per-namespace.svg" xlink:type="simple"><path d="M715,361.5547 L770,361.5547 A3.75,3.75 0 0 1 772.5,364.0547 L779.5,384.043 L1032,384.043 A2.5,2.5 0 0 1 1034.5,386.543 L1034.5,585.0547 A2.5,2.5 0 0 1 1032,587.5547 L715,587.5547 A2.5,2.5 0 0 1 712.5,585.0547 L712.5,364.0547 A2.5,2.5 0 0 1 715,361.5547 " fill="none" style="stroke:#000000;stroke-width:1.5;"/><line style="stroke:#000000;stroke-width:1.5;" x1="712.5" x2="779.5" y1="384.043" y2="384.043"/><text fill="#000000" font-family="sans-serif" font-size="14" font-weight="bold" lengthAdjust="spacing" textLength="54" x="716.5" y="377.0898">domain</text></a></g><!--cluster infrastructure--><g id="cluster_infrastructure"><a href="preadapter.infrastructure-diagram-simplified-grouped-per-namespace.svg" target="_top" title="preadapter.infrastructure-diagram-simplified-grouped-per-namespace.svg" xlink:actuate="onRequest" xlink:href="preadapter.infrastructure-diagram-simplified-grouped-per-namespace.svg" xlink:show="new" xlink:title="preadapter.infrastructure-diagram-simplified-grouped-per-namespace.svg" xlink:type="simple"><path d="M899,115.5547 L999,115.5547 A3.75,3.75 0 0 1 1001.5,118.0547 L1008.5,138.043 L1032,138.043 A2.5,2.5 0 0 1 1034.5,140.543 L1034.5,212.0547 A2.5,2.5 0 0 1 1032,214.5547 L899,214.5547 A2.5,2.5 0 0 1 896.5,212.0547 L896.5,118.0547 A2.5,2.5 0 0 1 899,115.5547 " fill="none" style="stroke:#000000;stroke-width:1.5;"/><line style="stroke:#000000;stroke-width:1.5;" x1="896.5" x2="1008.5" y1="138.043" y2="138.043"/><text fill="#000000" font-family="sans-serif" font-size="14" font-weight="bold" lengthAdjust="spacing" textLength="99" x="900.5" y="131.0898">infrastructure</text></a></g><!--class FlowStyle--><a href="DumperOptions.FlowStyle-diagram-simplified-grouped-per-namespace.svg" target="_top" title="DumperOptions.FlowStyle-diagram-simplified-grouped-per-namespace.svg" xlink:actuate="onRequest" xlink:href="DumperOptions.FlowStyle-diagram-simplified-grouped-per-namespace.svg" xlink:show="new" xlink:title="DumperOptions.FlowStyle-diagram-simplified-grouped-per-namespace.svg" xlink:type="simple"><g id="elem_FlowStyle"><rect codeLine="3" fill="#F5FFFA" height="48" id="FlowStyle" rx="2.5" ry="2.5" style="stroke:#181818;stroke-width:0.5;" width="96" x="3860.5" y="396.5547"/><ellipse cx="3875.5" cy="412.5547" fill="#ADD1B2" rx="11" ry="11" style="stroke:#181818;stroke-width:1.0;"/><path d="M3877.9731,418.6978 Q3877.3921,418.9966 3876.7529,419.146 Q3876.1138,419.2954 3875.4082,419.2954 Q3872.9014,419.2954 3871.5815,417.6436 Q3870.2617,415.9917 3870.2617,412.8706 Q3870.2617,409.7412 3871.5815,408.0894 Q3872.9014,406.4375 3875.4082,406.4375 Q3876.1138,406.4375 3876.7612,406.5869 Q3877.4087,406.7363 3877.9731,407.0352 L3877.9731,409.7578 Q3877.3423,409.1768 3876.7488,408.907 Q3876.1553,408.6372 3875.5244,408.6372 Q3874.1797,408.6372 3873.4949,409.7039 Q3872.8101,410.7705 3872.8101,412.8706 Q3872.8101,414.9624 3873.4949,416.0291 Q3874.1797,417.0957 3875.5244,417.0957 Q3876.1553,417.0957 3876.7488,416.8259 Q3877.3423,416.5562 3877.9731,415.9751 Z " fill="#000000"/><text fill="#000000" font-family="sans-serif" font-size="14" lengthAdjust="spacing" textLength="64" x="3889.5" y="417.8457">FlowStyle</text><line style="stroke:#181818;stroke-width:0.5;" x1="3861.5" x2="3955.5" y1="428.5547" y2="428.5547"/><line style="stroke:#181818;stroke-width:0.5;" x1="3861.5" x2="3955.5" y1="436.5547" y2="436.5547"/></g></a><!--class Logger--><a href="preadapter.Logger-diagram-simplified-grouped-per-namespace.svg" target="_top" title="preadapter.Logger-diagram-simplified-grouped-per-namespace.svg" xlink:actuate="onRequest" xlink:href="preadapter.Logger-diagram-simplified-grouped-per-namespace.svg" xlink:show="new" xlink:title="preadapter.Logger-diagram-simplified-grouped-per-namespace.svg" xlink:type="simple"><g id="elem_Logger"><rect codeLine="23" fill="#F1F1F1" height="48" id="Logger" rx="2.5" ry="2.5" style="stroke:#181818;stroke-width:0.5;" width="80" x="613.5" y="523.5547"/><ellipse cx="628.5" cy="539.5547" fill="#ADD1B2" rx="11" ry="11" style="stroke:#181818;stroke-width:1.0;"/><path d="M630.9731,545.6978 Q630.3921,545.9966 629.7529,546.146 Q629.1138,546.2954 628.4082,546.2954 Q625.9014,546.2954 624.5815,544.6436 Q623.2617,542.9917 623.2617,539.8706 Q623.2617,536.7412 624.5815,535.0894 Q625.9014,533.4375 628.4082,533.4375 Q629.1138,533.4375 629.7612,533.5869 Q630.4087,533.7363 630.9731,534.0352 L630.9731,536.7578 Q630.3423,536.1768 629.7488,535.907 Q629.1553,535.6372 628.5244,535.6372 Q627.1797,535.6372 626.4949,536.7039 Q625.8101,537.7705 625.8101,539.8706 Q625.8101,541.9624 626.4949,543.0291 Q627.1797,544.0957 628.5244,544.0957 Q629.1553,544.0957 629.7488,543.8259 Q630.3423,543.5562 630.9731,542.9751 Z " fill="#000000"/><text fill="#000000" font-family="sans-serif" font-size="14" lengthAdjust="spacing" textLength="48" x="642.5" y="544.8457">Logger</text><line style="stroke:#181818;stroke-width:0.5;" x1="614.5" x2="692.5" y1="555.5547" y2="555.5547"/><line style="stroke:#181818;stroke-width:0.5;" x1="614.5" x2="692.5" y1="563.5547" y2="563.5547"/></g></a><!--class Datastructure--><a href="preadapter.domain.Datastructure-diagram-simplified-grouped-per-namespace.svg" target="_top" title="preadapter.domain.Datastructure-diagram-simplified-grouped-per-namespace.svg" xlink:actuate="onRequest" xlink:href="preadapter.domain.Datastructure-diagram-simplified-grouped-per-namespace.svg" xlink:show="new" xlink:title="preadapter.domain.Datastructure-diagram-simplified-grouped-per-namespace.svg" xlink:type="simple"><g id="elem_Datastructure"><rect codeLine="31" fill="#F1F1F1" height="48" id="Datastructure" rx="2.5" ry="2.5" style="stroke:#181818;stroke-width:0.5;" width="125" x="811" y="396.5547"/><ellipse cx="826" cy="412.5547" fill="#ADD1B2" rx="11" ry="11" style="stroke:#181818;stroke-width:1.0;"/><path d="M828.4731,418.6978 Q827.8921,418.9966 827.2529,419.146 Q826.6138,419.2954 825.9082,419.2954 Q823.4014,419.2954 822.0815,417.6436 Q820.7617,415.9917 820.7617,412.8706 Q820.7617,409.7412 822.0815,408.0894 Q823.4014,406.4375 825.9082,406.4375 Q826.6138,406.4375 827.2612,406.5869 Q827.9087,406.7363 828.4731,407.0352 L828.4731,409.7578 Q827.8423,409.1768 827.2488,408.907 Q826.6553,408.6372 826.0244,408.6372 Q824.6797,408.6372 823.9949,409.7039 Q823.3101,410.7705 823.3101,412.8706 Q823.3101,414.9624 823.9949,416.0291 Q824.6797,417.0957 826.0244,417.0957 Q826.6553,417.0957 827.2488,416.8259 Q827.8423,416.5562 828.4731,415.9751 Z " fill="#000000"/><text fill="#000000" font-family="sans-serif" font-size="14" lengthAdjust="spacing" textLength="93" x="840" y="417.8457">Datastructure</text><line style="stroke:#181818;stroke-width:0.5;" x1="812" x2="935" y1="428.5547" y2="428.5547"/><line style="stroke:#181818;stroke-width:0.5;" x1="812" x2="935" y1="436.5547" y2="436.5547"/></g></a><!--class Datastructure_DOT_SubDataStructure--><a href="preadapter.domain.Datastructure_DOT_SubDataStructure-diagram-simplified-grouped-per-namespace.svg" target="_top" title="preadapter.domain.Datastructure_DOT_SubDataStructure-diagram-simplified-grouped-per-namespace.svg" xlink:actuate="onRequest" xlink:href="preadapter.domain.Datastructure_DOT_SubDataStructure-diagram-simplified-grouped-per-namespace.svg" xlink:show="new" xlink:title="preadapter.domain.Datastructure_DOT_SubDataStructure-diagram-simplified-grouped-per-namespace.svg" xlink:type="simple"><g id="elem_Datastructure_DOT_SubDataStructure"><rect codeLine="33" fill="#F1F1F1" height="48" id="Datastructure_DOT_SubDataStructure" rx="2.5" ry="2.5" style="stroke:#181818;stroke-width:0.5;" width="289" x="729" y="523.5547"/><ellipse cx="744" cy="539.5547" fill="#ADD1B2" rx="11" ry="11" style="stroke:#181818;stroke-width:1.0;"/><path d="M746.4731,545.6978 Q745.8921,545.9966 745.2529,546.146 Q744.6138,546.2954 743.9082,546.2954 Q741.4014,546.2954 740.0815,544.6436 Q738.7617,542.9917 738.7617,539.8706 Q738.7617,536.7412 740.0815,535.0894 Q741.4014,533.4375 743.9082,533.4375 Q744.6138,533.4375 745.2612,533.5869 Q745.9087,533.7363 746.4731,534.0352 L746.4731,536.7578 Q745.8423,536.1768 745.2488,535.907 Q744.6553,535.6372 744.0244,535.6372 Q742.6797,535.6372 741.9949,536.7039 Q741.3101,537.7705 741.3101,539.8706 Q741.3101,541.9624 741.9949,543.0291 Q742.6797,544.0957 744.0244,544.0957 Q744.6553,544.0957 745.2488,543.8259 Q745.8423,543.5562 746.4731,542.9751 Z " fill="#000000"/><text fill="#000000" font-family="sans-serif" font-size="14" lengthAdjust="spacing" textLength="257" x="758" y="544.8457">Datastructure_DOT_SubDataStructure</text><line style="stroke:#181818;stroke-width:0.5;" x1="730" x2="1017" y1="555.5547" y2="555.5547"/><line style="stroke:#181818;stroke-width:0.5;" x1="730" x2="1017" y1="563.5547" y2="563.5547"/></g></a><!--class CreateYML--><a href="preadapter.infrastructure.CreateYML-diagram-simplified-grouped-per-namespace.svg" target="_top" title="preadapter.infrastructure.CreateYML-diagram-simplified-grouped-per-namespace.svg" xlink:actuate="onRequest" xlink:href="preadapter.infrastructure.CreateYML-diagram-simplified-grouped-per-namespace.svg" xlink:show="new" xlink:title="preadapter.infrastructure.CreateYML-diagram-simplified-grouped-per-namespace.svg" xlink:type="simple"><g id="elem_CreateYML"><rect codeLine="43" fill="#FFFF00" height="48" id="CreateYML" rx="2.5" ry="2.5" style="stroke:#181818;stroke-width:0.5;" width="105" x="913" y="150.5547"/><ellipse cx="928" cy="166.5547" fill="#ADD1B2" rx="11" ry="11" style="stroke:#181818;stroke-width:1.0;"/><path d="M930.4731,172.6978 Q929.8921,172.9966 929.2529,173.146 Q928.6138,173.2954 927.9082,173.2954 Q925.4014,173.2954 924.0815,171.6436 Q922.7617,169.9917 922.7617,166.8706 Q922.7617,163.7412 924.0815,162.0894 Q925.4014,160.4375 927.9082,160.4375 Q928.6138,160.4375 929.2612,160.5869 Q929.9087,160.7363 930.4731,161.0352 L930.4731,163.7578 Q929.8423,163.1768 929.2488,162.907 Q928.6553,162.6372 928.0244,162.6372 Q926.6797,162.6372 925.9949,163.7039 Q925.3101,164.7705 925.3101,166.8706 Q925.3101,168.9624 925.9949,170.0291 Q926.6797,171.0957 928.0244,171.0957 Q928.6553,171.0957 929.2488,170.8259 Q929.8423,170.5562 930.4731,169.9751 Z " fill="#000000"/><text fill="#000000" font-family="sans-serif" font-size="14" lengthAdjust="spacing" textLength="73" x="942" y="171.8457">CreateYML</text><line style="stroke:#181818;stroke-width:0.5;" x1="914" x2="1017" y1="182.5547" y2="182.5547"/><line style="stroke:#181818;stroke-width:0.5;" x1="914" x2="1017" y1="190.5547" y2="190.5547"/></g></a><g id="elem_FloatingNote"><path d="M6,50.5547 L6,298.2129 L581,298.2129 L581,60.5547 L571,50.5547 L6,50.5547 " fill="#FEFFDD" style="stroke:#181818;stroke-width:0.5;"/><path d="M571,50.5547 L571,60.5547 L581,60.5547 L571,50.5547 " fill="#FEFFDD" style="stroke:#181818;stroke-width:1.0;"/><text fill="#000000" font-family="sans-serif" font-size="13" lengthAdjust="spacing" textLength="120" x="12" y="68.123">Your are analyzing:</text><text fill="#000000" font-family="sans-serif" font-size="13" lengthAdjust="spacing" textLength="227" x="12" y="83.4336">preadapter.infrastructure.CreateYML</text><text fill="#000000" font-family="sans-serif" font-size="13" font-weight="bold" lengthAdjust="spacing" textLength="67" x="243" y="83.4336">simplified</text><text fill="#000000" font-family="sans-serif" font-size="13" lengthAdjust="spacing" textLength="23" x="314" y="83.4336">and</text><text fill="#000000" font-family="sans-serif" font-size="13" font-weight="bold" lengthAdjust="spacing" textLength="166" x="341" y="83.4336">grouped per namespace</text><text fill="#000000" font-family="sans-serif" font-size="13" lengthAdjust="spacing" textLength="4" x="12" y="98.7441">&#160;</text><text fill="#000000" font-family="sans-serif" font-size="13" lengthAdjust="spacing" textLength="229" x="12" y="129.3652">You can click either the namespaces</text><text fill="#000000" font-family="sans-serif" font-size="13" lengthAdjust="spacing" textLength="266" x="12" y="144.6758">or class names for filtering them and their</text><text fill="#000000" font-family="sans-serif" font-size="13" lengthAdjust="spacing" textLength="130" x="12" y="159.9863">direct dependencies.</text><text fill="#000000" font-family="sans-serif" font-size="13" lengthAdjust="spacing" textLength="4" x="12" y="175.2969">&#160;</text><line style="stroke:#181818;stroke-width:1.0;" x1="7" x2="277.5" y1="109.1416" y2="109.1416"/><line style="stroke:#181818;stroke-width:1.0;" x1="7" x2="277.5" y1="111.1416" y2="111.1416"/><text fill="#000000" font-family="sans-serif" font-size="13" lengthAdjust="spacing" textLength="32" x="277.5" y="113.5547">Filter</text><line style="stroke:#181818;stroke-width:1.0;" x1="309.5" x2="580" y1="109.1416" y2="109.1416"/><line style="stroke:#181818;stroke-width:1.0;" x1="309.5" x2="580" y1="111.1416" y2="111.1416"/><ellipse cx="17.5" cy="205.1602" fill="#000000" rx="2.5" ry="2.5" style="stroke:#000000;stroke-width:0.0;"/><text fill="#000000" font-family="sans-serif" font-size="13" lengthAdjust="spacing" textLength="227" x="24" y="209.918">preadapter.infrastructure.CreateYML</text><text fill="#000000" font-family="sans-serif" font-size="13" font-weight="bold" lengthAdjust="spacing" textLength="55" x="255" y="209.918">detailed</text><text fill="#000000" font-family="sans-serif" font-size="13" lengthAdjust="spacing" textLength="23" x="314" y="209.918">and</text><text fill="#000000" font-family="sans-serif" font-size="13" font-weight="bold" lengthAdjust="spacing" textLength="166" x="341" y="209.918">grouped per namespace</text><text fill="#000000" font-family="sans-serif" font-size="13" lengthAdjust="spacing" textLength="4" x="507" y="209.918">:</text><text fill="#000000" font-family="sans-serif" font-size="13" lengthAdjust="spacing" textLength="12" x="12" y="225.2285">&#160;&#160;&#160;</text><a href="preadapter.infrastructure.CreateYML-diagram-detailed-grouped-per-namespace.svg" target="_top" title="preadapter.infrastructure.CreateYML-diagram-detailed-grouped-per-namespace.svg" xlink:actuate="onRequest" xlink:href="preadapter.infrastructure.CreateYML-diagram-detailed-grouped-per-namespace.svg" xlink:show="new" xlink:title="preadapter.infrastructure.CreateYML-diagram-detailed-grouped-per-namespace.svg" xlink:type="simple"><text fill="#0000FF" font-family="sans-serif" font-size="13" lengthAdjust="spacing" text-decoration="underline" textLength="536" x="24" y="225.2285">preadapter.infrastructure.CreateYML-diagram-detailed-grouped-per-namespace.svg</text></a><ellipse cx="17.5" cy="235.7813" fill="#000000" rx="2.5" ry="2.5" style="stroke:#000000;stroke-width:0.0;"/><text fill="#000000" font-family="sans-serif" font-size="13" lengthAdjust="spacing" textLength="78" x="24" y="240.5391">Full diagram</text><text fill="#000000" font-family="sans-serif" font-size="13" font-weight="bold" lengthAdjust="spacing" textLength="67" x="106" y="240.5391">simplified</text><text fill="#000000" font-family="sans-serif" font-size="13" lengthAdjust="spacing" textLength="23" x="177" y="240.5391">and</text><text fill="#000000" font-family="sans-serif" font-size="13" font-weight="bold" lengthAdjust="spacing" textLength="166" x="204" y="240.5391">grouped per namespace</text><text fill="#000000" font-family="sans-serif" font-size="13" lengthAdjust="spacing" textLength="4" x="370" y="240.5391">:</text><text fill="#000000" font-family="sans-serif" font-size="13" lengthAdjust="spacing" textLength="12" x="12" y="255.8496">&#160;&#160;&#160;</text><a href="full-diagram-simplified-grouped-per-namespace.svg" target="_top" title="full-diagram-simplified-grouped-per-namespace.svg" xlink:actuate="onRequest" xlink:href="full-diagram-simplified-grouped-per-namespace.svg" xlink:show="new" xlink:title="full-diagram-simplified-grouped-per-namespace.svg" xlink:type="simple"><text fill="#0000FF" font-family="sans-serif" font-size="13" lengthAdjust="spacing" text-decoration="underline" textLength="343" x="24" y="255.8496">full-diagram-simplified-grouped-per-namespace.svg</text></a><ellipse cx="17.5" cy="266.4023" fill="#000000" rx="2.5" ry="2.5" style="stroke:#000000;stroke-width:0.0;"/><text fill="#000000" font-family="sans-serif" font-size="13" lengthAdjust="spacing" textLength="41" x="24" y="271.1602">Home:</text><text fill="#000000" font-family="sans-serif" font-size="13" lengthAdjust="spacing" textLength="12" x="12" y="286.4707">&#160;&#160;&#160;</text><a href="index.html" target="_top" title="index.html" xlink:actuate="onRequest" xlink:href="index.html" xlink:show="new" xlink:title="index.html" xlink:type="simple"><text fill="#0000FF" font-family="sans-serif" font-size="13" lengthAdjust="spacing" text-decoration="underline" textLength="68" x="24" y="286.4707">index.html</text></a><line style="stroke:#181818;stroke-width:1.0;" x1="7" x2="256.5" y1="189.6943" y2="189.6943"/><line style="stroke:#181818;stroke-width:1.0;" x1="7" x2="256.5" y1="191.6943" y2="191.6943"/><text fill="#000000" font-family="sans-serif" font-size="13" lengthAdjust="spacing" textLength="74" x="256.5" y="194.1074">Select other</text><line style="stroke:#181818;stroke-width:1.0;" x1="330.5" x2="580" y1="189.6943" y2="189.6943"/><line style="stroke:#181818;stroke-width:1.0;" x1="330.5" x2="580" y1="191.6943" y2="191.6943"/></g><!--class Mark--><a href="Mark-diagram-simplified-grouped-per-namespace.svg" target="_top" title="Mark-diagram-simplified-grouped-per-namespace.svg" xlink:actuate="onRequest" xlink:href="Mark-diagram-simplified-grouped-per-namespace.svg" xlink:show="new" xlink:title="Mark-diagram-simplified-grouped-per-namespace.svg" xlink:type="simple"><g id="elem_Mark"><rect codeLine="5" fill="#F5FFFA" height="48" id="Mark" rx="2.5" ry="2.5" style="stroke:#181818;stroke-width:0.5;" width="66" x="1485.5" y="396.5547"/><ellipse cx="1500.5" cy="412.5547" fill="#ADD1B2" rx="11" ry="11" style="stroke:#181818;stroke-width:1.0;"/><path d="M1502.9731,418.6978 Q1502.3921,418.9966 1501.7529,419.146 Q1501.1138,419.2954 1500.4082,419.2954 Q1497.9014,419.2954 1496.5815,417.6436 Q1495.2617,415.9917 1495.2617,412.8706 Q1495.2617,409.7412 1496.5815,408.0894 Q1497.9014,406.4375 1500.4082,406.4375 Q1501.1138,406.4375 1501.7612,406.5869 Q1502.4087,406.7363 1502.9731,407.0352 L1502.9731,409.7578 Q1502.3423,409.1768 1501.7488,408.907 Q1501.1553,408.6372 1500.5244,408.6372 Q1499.1797,408.6372 1498.4949,409.7039 Q1497.8101,410.7705 1497.8101,412.8706 Q1497.8101,414.9624 1498.4949,416.0291 Q1499.1797,417.0957 1500.5244,417.0957 Q1501.1553,417.0957 1501.7488,416.8259 Q1502.3423,416.5562 1502.9731,415.9751 Z " fill="#000000"/><text fill="#000000" font-family="sans-serif" font-size="14" lengthAdjust="spacing" textLength="34" x="1514.5" y="417.8457">Mark</text><line style="stroke:#181818;stroke-width:0.5;" x1="1486.5" x2="1550.5" y1="428.5547" y2="428.5547"/><line style="stroke:#181818;stroke-width:0.5;" x1="1486.5" x2="1550.5" y1="436.5547" y2="436.5547"/></g></a><!--class dictpingNode--><a href="dictpingNode-diagram-simplified-grouped-per-namespace.svg" target="_top" title="dictpingNode-diagram-simplified-grouped-per-namespace.svg" xlink:actuate="onRequest" xlink:href="dictpingNode-diagram-simplified-grouped-per-namespace.svg" xlink:show="new" xlink:title="dictpingNode-diagram-simplified-grouped-per-namespace.svg" xlink:type="simple"><g id="elem_dictpingNode"><rect codeLine="7" fill="#F5FFFA" height="48" id="dictpingNode" rx="2.5" ry="2.5" style="stroke:#181818;stroke-width:0.5;" width="124" x="1586.5" y="396.5547"/><ellipse cx="1601.5" cy="412.5547" fill="#ADD1B2" rx="11" ry="11" style="stroke:#181818;stroke-width:1.0;"/><path d="M1603.9731,418.6978 Q1603.3921,418.9966 1602.7529,419.146 Q1602.1138,419.2954 1601.4082,419.2954 Q1598.9014,419.2954 1597.5815,417.6436 Q1596.2617,415.9917 1596.2617,412.8706 Q1596.2617,409.7412 1597.5815,408.0894 Q1598.9014,406.4375 1601.4082,406.4375 Q1602.1138,406.4375 1602.7612,406.5869 Q1603.4087,406.7363 1603.9731,407.0352 L1603.9731,409.7578 Q1603.3423,409.1768 1602.7488,408.907 Q1602.1553,408.6372 1601.5244,408.6372 Q1600.1797,408.6372 1599.4949,409.7039 Q1598.8101,410.7705 1598.8101,412.8706 Q1598.8101,414.9624 1599.4949,416.0291 Q1600.1797,417.0957 1601.5244,417.0957 Q1602.1553,417.0957 1602.7488,416.8259 Q1603.3423,416.5562 1603.9731,415.9751 Z " fill="#000000"/><text fill="#000000" font-family="sans-serif" font-size="14" lengthAdjust="spacing" textLength="92" x="1615.5" y="417.8457">dictpingNode</text><line style="stroke:#181818;stroke-width:0.5;" x1="1587.5" x2="1709.5" y1="428.5547" y2="428.5547"/><line style="stroke:#181818;stroke-width:0.5;" x1="1587.5" x2="1709.5" y1="436.5547" y2="436.5547"/></g></a><!--class SequenceNode--><a href="SequenceNode-diagram-simplified-grouped-per-namespace.svg" target="_top" title="SequenceNode-diagram-simplified-grouped-per-namespace.svg" xlink:actuate="onRequest" xlink:href="SequenceNode-diagram-simplified-grouped-per-namespace.svg" xlink:show="new" xlink:title="SequenceNode-diagram-simplified-grouped-per-namespace.svg" xlink:type="simple"><g id="elem_SequenceNode"><rect codeLine="9" fill="#F5FFFA" height="48" id="SequenceNode" rx="2.5" ry="2.5" style="stroke:#181818;stroke-width:0.5;" width="134" x="1175.5" y="396.5547"/><ellipse cx="1190.5" cy="412.5547" fill="#ADD1B2" rx="11" ry="11" style="stroke:#181818;stroke-width:1.0;"/><path d="M1192.9731,418.6978 Q1192.3921,418.9966 1191.7529,419.146 Q1191.1138,419.2954 1190.4082,419.2954 Q1187.9014,419.2954 1186.5815,417.6436 Q1185.2617,415.9917 1185.2617,412.8706 Q1185.2617,409.7412 1186.5815,408.0894 Q1187.9014,406.4375 1190.4082,406.4375 Q1191.1138,406.4375 1191.7612,406.5869 Q1192.4087,406.7363 1192.9731,407.0352 L1192.9731,409.7578 Q1192.3423,409.1768 1191.7488,408.907 Q1191.1553,408.6372 1190.5244,408.6372 Q1189.1797,408.6372 1188.4949,409.7039 Q1187.8101,410.7705 1187.8101,412.8706 Q1187.8101,414.9624 1188.4949,416.0291 Q1189.1797,417.0957 1190.5244,417.0957 Q1191.1553,417.0957 1191.7488,416.8259 Q1192.3423,416.5562 1192.9731,415.9751 Z " fill="#000000"/><text fill="#000000" font-family="sans-serif" font-size="14" lengthAdjust="spacing" textLength="102" x="1204.5" y="417.8457">SequenceNode</text><line style="stroke:#181818;stroke-width:0.5;" x1="1176.5" x2="1308.5" y1="428.5547" y2="428.5547"/><line style="stroke:#181818;stroke-width:0.5;" x1="1176.5" x2="1308.5" y1="436.5547" y2="436.5547"/></g></a><!--class dictpingNode_BRQTO_Tag_DOT_MAP_COMMA__SPC_Arraylist_BRQTO__BRQTC_BRQTO__BRQTC_COMMA__SPC_dummperOptions_BRQTC--><a href="dictpingNode_BRQTO_Tag_DOT_MAP_COMMA__SPC_Arraylist_BRQTO__BRQTC_BRQTO__BRQTC_COMMA__SPC_dummperOptions_BRQTC-diagram-simplified-grouped-per-namespace.svg" target="_top" title="dictpingNode_BRQTO_Tag_DOT_MAP_COMMA__SPC_Arraylist_BRQTO__BRQTC_BRQTO__BRQTC_COMMA__SPC_dummperOptions_BRQTC-diagram-simplified-grouped-per-namespace.svg" xlink:actuate="onRequest" xlink:href="dictpingNode_BRQTO_Tag_DOT_MAP_COMMA__SPC_Arraylist_BRQTO__BRQTC_BRQTO__BRQTC_COMMA__SPC_dummperOptions_BRQTC-diagram-simplified-grouped-per-namespace.svg" xlink:show="new" xlink:title="dictpingNode_BRQTO_Tag_DOT_MAP_COMMA__SPC_Arraylist_BRQTO__BRQTC_BRQTO__BRQTC_COMMA__SPC_dummperOptions_BRQTC-diagram-simplified-grouped-per-namespace.svg" xlink:type="simple"><g id="elem_dictpingNode_BRQTO_Tag_DOT_MAP_COMMA__SPC_Arraylist_BRQTO__BRQTC_BRQTO__BRQTC_COMMA__SPC_dummperOptions_BRQTC"><rect codeLine="11" fill="#F5FFFA" height="48" id="dictpingNode_BRQTO_Tag_DOT_MAP_COMMA__SPC_Arraylist_BRQTO__BRQTC_BRQTO__BRQTC_COMMA__SPC_dummperOptions_BRQTC" rx="2.5" ry="2.5" style="stroke:#181818;stroke-width:0.5;" width="968" x="1745.5" y="396.5547"/><ellipse cx="1760.5" cy="412.5547" fill="#ADD1B2" rx="11" ry="11" style="stroke:#181818;stroke-width:1.0;"/><path d="M1762.9731,418.6978 Q1762.3921,418.9966 1761.7529,419.146 Q1761.1138,419.2954 1760.4082,419.2954 Q1757.9014,419.2954 1756.5815,417.6436 Q1755.2617,415.9917 1755.2617,412.8706 Q1755.2617,409.7412 1756.5815,408.0894 Q1757.9014,406.4375 1760.4082,406.4375 Q1761.1138,406.4375 1761.7612,406.5869 Q1762.4087,406.7363 1762.9731,407.0352 L1762.9731,409.7578 Q1762.3423,409.1768 1761.7488,408.907 Q1761.1553,408.6372 1760.5244,408.6372 Q1759.1797,408.6372 1758.4949,409.7039 Q1757.8101,410.7705 1757.8101,412.8706 Q1757.8101,414.9624 1758.4949,416.0291 Q1759.1797,417.0957 1760.5244,417.0957 Q1761.1553,417.0957 1761.7488,416.8259 Q1762.3423,416.5562 1762.9731,415.9751 Z " fill="#000000"/><text fill="#000000" font-family="sans-serif" font-size="14" lengthAdjust="spacing" textLength="936" x="1774.5" y="417.8457">dictpingNode_BRQTO_Tag_DOT_MAP_COMMA__SPC_Arraylist_BRQTO__BRQTC_BRQTO__BRQTC_COMMA__SPC_dummperOptions_BRQTC</text><line style="stroke:#181818;stroke-width:0.5;" x1="1746.5" x2="2712.5" y1="428.5547" y2="428.5547"/><line style="stroke:#181818;stroke-width:0.5;" x1="1746.5" x2="2712.5" y1="436.5547" y2="436.5547"/></g></a><!--class list_BRQTO_String_BRQTC--><a href="list_BRQTO_String_BRQTC-diagram-simplified-grouped-per-namespace.svg" target="_top" title="list_BRQTO_String_BRQTC-diagram-simplified-grouped-per-namespace.svg" xlink:actuate="onRequest" xlink:href="list_BRQTO_String_BRQTC-diagram-simplified-grouped-per-namespace.svg" xlink:show="new" xlink:title="list_BRQTO_String_BRQTC-diagram-simplified-grouped-per-namespace.svg" xlink:type="simple"><g id="elem_list_BRQTO_String_BRQTC"><rect codeLine="13" fill="#F5FFFA" height="48" id="list_BRQTO_String_BRQTC" rx="2.5" ry="2.5" style="stroke:#181818;stroke-width:0.5;" width="209" x="1075" y="523.5547"/><ellipse cx="1090" cy="539.5547" fill="#ADD1B2" rx="11" ry="11" style="stroke:#181818;stroke-width:1.0;"/><path d="M1092.4731,545.6978 Q1091.8921,545.9966 1091.2529,546.146 Q1090.6138,546.2954 1089.9082,546.2954 Q1087.4014,546.2954 1086.0815,544.6436 Q1084.7617,542.9917 1084.7617,539.8706 Q1084.7617,536.7412 1086.0815,535.0894 Q1087.4014,533.4375 1089.9082,533.4375 Q1090.6138,533.4375 1091.2612,533.5869 Q1091.9087,533.7363 1092.4731,534.0352 L1092.4731,536.7578 Q1091.8423,536.1768 1091.2488,535.907 Q1090.6553,535.6372 1090.0244,535.6372 Q1088.6797,535.6372 1087.9949,536.7039 Q1087.3101,537.7705 1087.3101,539.8706 Q1087.3101,541.9624 1087.9949,543.0291 Q1088.6797,544.0957 1090.0244,544.0957 Q1090.6553,544.0957 1091.2488,543.8259 Q1091.8423,543.5562 1092.4731,542.9751 Z " fill="#000000"/><text fill="#000000" font-family="sans-serif" font-size="14" lengthAdjust="spacing" textLength="177" x="1104" y="544.8457">list_BRQTO_String_BRQTC</text><line style="stroke:#181818;stroke-width:0.5;" x1="1076" x2="1283" y1="555.5547" y2="555.5547"/><line style="stroke:#181818;stroke-width:0.5;" x1="1076" x2="1283" y1="563.5547" y2="563.5547"/></g></a><!--class SequenceNode_BRQTO_Tag_DOT_SEQ_COMMA__SPC_Arraylist_BRQTO__BRQTC_BRQTO__BRQTC_COMMA__SPC_dummperOptions_BRQTC--><a href="SequenceNode_BRQTO_Tag_DOT_SEQ_COMMA__SPC_Arraylist_BRQTO__BRQTC_BRQTO__BRQTC_COMMA__SPC_dummperOptions_BRQTC-diagram-simplified-grouped-per-namespace.svg" target="_top" title="SequenceNode_BRQTO_Tag_DOT_SEQ_COMMA__SPC_Arraylist_BRQTO__BRQTC_BRQTO__BRQTC_COMMA__SPC_dummperOptions_BRQTC-diagram-simplified-grouped-per-namespace.svg" xlink:actuate="onRequest" xlink:href="SequenceNode_BRQTO_Tag_DOT_SEQ_COMMA__SPC_Arraylist_BRQTO__BRQTC_BRQTO__BRQTC_COMMA__SPC_dummperOptions_BRQTC-diagram-simplified-grouped-per-namespace.svg" xlink:show="new" xlink:title="SequenceNode_BRQTO_Tag_DOT_SEQ_COMMA__SPC_Arraylist_BRQTO__BRQTC_BRQTO__BRQTC_COMMA__SPC_dummperOptions_BRQTC-diagram-simplified-grouped-per-namespace.svg" xlink:type="simple"><g id="elem_SequenceNode_BRQTO_Tag_DOT_SEQ_COMMA__SPC_Arraylist_BRQTO__BRQTC_BRQTO__BRQTC_COMMA__SPC_dummperOptions_BRQTC"><rect codeLine="15" fill="#F5FFFA" height="48" id="SequenceNode_BRQTO_Tag_DOT_SEQ_COMMA__SPC_Arraylist_BRQTO__BRQTC_BRQTO__BRQTC_COMMA__SPC_dummperOptions_BRQTC" rx="2.5" ry="2.5" style="stroke:#181818;stroke-width:0.5;" width="975" x="2850" y="396.5547"/><ellipse cx="2865" cy="412.5547" fill="#ADD1B2" rx="11" ry="11" style="stroke:#181818;stroke-width:1.0;"/><path d="M2867.4731,418.6978 Q2866.8921,418.9966 2866.2529,419.146 Q2865.6138,419.2954 2864.9082,419.2954 Q2862.4014,419.2954 2861.0815,417.6436 Q2859.7617,415.9917 2859.7617,412.8706 Q2859.7617,409.7412 2861.0815,408.0894 Q2862.4014,406.4375 2864.9082,406.4375 Q2865.6138,406.4375 2866.2612,406.5869 Q2866.9087,406.7363 2867.4731,407.0352 L2867.4731,409.7578 Q2866.8423,409.1768 2866.2488,408.907 Q2865.6553,408.6372 2865.0244,408.6372 Q2863.6797,408.6372 2862.9949,409.7039 Q2862.3101,410.7705 2862.3101,412.8706 Q2862.3101,414.9624 2862.9949,416.0291 Q2863.6797,417.0957 2865.0244,417.0957 Q2865.6553,417.0957 2866.2488,416.8259 Q2866.8423,416.5562 2867.4731,415.9751 Z " fill="#000000"/><text fill="#000000" font-family="sans-serif" font-size="14" lengthAdjust="spacing" textLength="943" x="2879" y="417.8457">SequenceNode_BRQTO_Tag_DOT_SEQ_COMMA__SPC_Arraylist_BRQTO__BRQTC_BRQTO__BRQTC_COMMA__SPC_dummperOptions_BRQTC</text><line style="stroke:#181818;stroke-width:0.5;" x1="2851" x2="3824" y1="428.5547" y2="428.5547"/><line style="stroke:#181818;stroke-width:0.5;" x1="2851" x2="3824" y1="436.5547" y2="436.5547"/></g></a><!--class Yaml--><a href="Yaml-diagram-simplified-grouped-per-namespace.svg" target="_top" title="Yaml-diagram-simplified-grouped-per-namespace.svg" xlink:actuate="onRequest" xlink:href="Yaml-diagram-simplified-grouped-per-namespace.svg" xlink:show="new" xlink:title="Yaml-diagram-simplified-grouped-per-namespace.svg" xlink:type="simple"><g id="elem_Yaml"><rect codeLine="17" fill="#F5FFFA" height="48" id="Yaml" rx="2.5" ry="2.5" style="stroke:#181818;stroke-width:0.5;" width="66" x="1074.5" y="396.5547"/><ellipse cx="1089.5" cy="412.5547" fill="#ADD1B2" rx="11" ry="11" style="stroke:#181818;stroke-width:1.0;"/><path d="M1091.9731,418.6978 Q1091.3921,418.9966 1090.7529,419.146 Q1090.1138,419.2954 1089.4082,419.2954 Q1086.9014,419.2954 1085.5815,417.6436 Q1084.2617,415.9917 1084.2617,412.8706 Q1084.2617,409.7412 1085.5815,408.0894 Q1086.9014,406.4375 1089.4082,406.4375 Q1090.1138,406.4375 1090.7612,406.5869 Q1091.4087,406.7363 1091.9731,407.0352 L1091.9731,409.7578 Q1091.3423,409.1768 1090.7488,408.907 Q1090.1553,408.6372 1089.5244,408.6372 Q1088.1797,408.6372 1087.4949,409.7039 Q1086.8101,410.7705 1086.8101,412.8706 Q1086.8101,414.9624 1087.4949,416.0291 Q1088.1797,417.0957 1089.5244,417.0957 Q1090.1553,417.0957 1090.7488,416.8259 Q1091.3423,416.5562 1091.9731,415.9751 Z " fill="#000000"/><text fill="#000000" font-family="sans-serif" font-size="14" lengthAdjust="spacing" textLength="34" x="1103.5" y="417.8457">Yaml</text><line style="stroke:#181818;stroke-width:0.5;" x1="1075.5" x2="1139.5" y1="428.5547" y2="428.5547"/><line style="stroke:#181818;stroke-width:0.5;" x1="1075.5" x2="1139.5" y1="436.5547" y2="436.5547"/></g></a><!--class PrintWriter--><a href="PrintWriter-diagram-simplified-grouped-per-namespace.svg" target="_top" title="PrintWriter-diagram-simplified-grouped-per-namespace.svg" xlink:actuate="onRequest" xlink:href="PrintWriter-diagram-simplified-grouped-per-namespace.svg" xlink:show="new" xlink:title="PrintWriter-diagram-simplified-grouped-per-namespace.svg" xlink:type="simple"><g id="elem_PrintWriter"><rect codeLine="19" fill="#F5FFFA" height="48" id="PrintWriter" rx="2.5" ry="2.5" style="stroke:#181818;stroke-width:0.5;" width="105" x="1345" y="396.5547"/><ellipse cx="1360" cy="412.5547" fill="#ADD1B2" rx="11" ry="11" style="stroke:#181818;stroke-width:1.0;"/><path d="M1362.4731,418.6978 Q1361.8921,418.9966 1361.2529,419.146 Q1360.6138,419.2954 1359.9082,419.2954 Q1357.4014,419.2954 1356.0815,417.6436 Q1354.7617,415.9917 1354.7617,412.8706 Q1354.7617,409.7412 1356.0815,408.0894 Q1357.4014,406.4375 1359.9082,406.4375 Q1360.6138,406.4375 1361.2612,406.5869 Q1361.9087,406.7363 1362.4731,407.0352 L1362.4731,409.7578 Q1361.8423,409.1768 1361.2488,408.907 Q1360.6553,408.6372 1360.0244,408.6372 Q1358.6797,408.6372 1357.9949,409.7039 Q1357.3101,410.7705 1357.3101,412.8706 Q1357.3101,414.9624 1357.9949,416.0291 Q1358.6797,417.0957 1360.0244,417.0957 Q1360.6553,417.0957 1361.2488,416.8259 Q1361.8423,416.5562 1362.4731,415.9751 Z " fill="#000000"/><text fill="#000000" font-family="sans-serif" font-size="14" lengthAdjust="spacing" textLength="73" x="1374" y="417.8457">PrintWriter</text><line style="stroke:#181818;stroke-width:0.5;" x1="1346" x2="1449" y1="428.5547" y2="428.5547"/><line style="stroke:#181818;stroke-width:0.5;" x1="1346" x2="1449" y1="436.5547" y2="436.5547"/></g></a><!--reverse link Datastructure to Datastructure_DOT_SubDataStructure--><g id="link_Datastructure_Datastructure_DOT_SubDataStructure"><path codeLine="60" d="M873.5,460.5947 C873.5,481.2347 873.5,505.8647 873.5,523.4647 " fill="none" id="Datastructure-backto-Datastructure_DOT_SubDataStructure" style="stroke:#10BBBB;stroke-width:1.0;"/><ellipse cx="873.5" cy="453.7747" fill="#FFFFFF" rx="8" ry="8" style="stroke:#10BBBB;stroke-width:1.0;"/><line style="stroke:#10BBBB;stroke-width:1.0;" x1="873.5" x2="873.5" y1="461.7747" y2="445.7747"/><line style="stroke:#10BBBB;stroke-width:1.0;" x1="865.5" x2="881.5" y1="453.7747" y2="453.7747"/></g><!--link Datastructure to Logger--><g id="link_Datastructure_Logger"><path codeLine="61" d="M842.59,445.0147 C831.73,452.8647 819.3,461.4247 807.5,468.5547 C772.23,489.8847 730.4,510.8047 699.25,525.6047 " fill="none" id="Datastructure-to-Logger" style="stroke:#6060BB;stroke-width:1.0;stroke-dasharray:7.0,7.0;"/><polygon fill="#6060BB" points="694.95,528.1147,704.7958,527.8688,699.4669,525.9706,701.3652,520.6417,694.95,528.1147" style="stroke:#6060BB;stroke-width:1.0;"/><text fill="#000000" font-family="sans-serif" font-size="13" lengthAdjust="spacing" textLength="29" x="791.5" y="490.123">uses</text></g><!--link Datastructure to list_BRQTO_String_BRQTC--><g id="link_Datastructure_list_BRQTO_String_BRQTC"><path codeLine="62" d="M915.5,444.9847 C930.44,452.9147 947.52,461.5347 963.5,468.5547 C1008.39,488.2747 1060,507.0447 1101.51,521.2347 " fill="none" id="Datastructure-to-list_BRQTO_String_BRQTC" style="stroke:#6060BB;stroke-width:1.0;stroke-dasharray:7.0,7.0;"/><polygon fill="#6060BB" points="1106.04,523.1147,1098.8088,516.4281,1101.3067,521.5036,1096.2311,524.0015,1106.04,523.1147" style="stroke:#6060BB;stroke-width:1.0;"/><text fill="#000000" font-family="sans-serif" font-size="13" lengthAdjust="spacing" textLength="29" x="1022.5" y="490.123">uses</text></g><!--link Datastructure to list_BRQTO_String_BRQTC--><g id="link_Datastructure_list_BRQTO_String_BRQTC"><path codeLine="63" d="M910.19,444.9647 C925.99,453.8947 945.04,463.2147 963.5,468.5547 C1005.05,480.5847 1019.27,463.4847 1060.5,476.5547 C1090.79,486.1547 1121.62,504.5847 1144.31,520.1247 " fill="none" id="Datastructure-to-list_BRQTO_String_BRQTC-1" style="stroke:#909090;stroke-width:1.0;"/><polygon fill="#909090" points="1148.02,523.3947,1142.8895,514.9877,1143.9065,520.5524,1138.3418,521.5693,1148.02,523.3947" style="stroke:#909090;stroke-width:1.0;"/><text fill="#000000" font-family="sans-serif" font-size="13" lengthAdjust="spacing" textLength="29" x="1099.5" y="490.123">uses</text></g><!--link CreateYML to FlowStyle--><g id="link_CreateYML_FlowStyle"><path codeLine="66" d="M1018.49,176.5847 C1388.2,184.0447 3575.34,233.0947 3842.5,353.5547 C3860.97,361.8847 3877.15,377.8247 3888.86,391.9547 " fill="none" id="CreateYML-to-FlowStyle" style="stroke:#6060BB;stroke-width:1.0;stroke-dasharray:7.0,7.0;"/><polygon fill="#6060BB" points="3892.35,395.2747,3889.8002,385.7616,3889.2057,391.3871,3883.5801,390.7926,3892.35,395.2747" style="stroke:#6060BB;stroke-width:1.0;"/><text fill="#000000" font-family="sans-serif" font-size="13" lengthAdjust="spacing" textLength="29" x="3797.5" y="342.123">uses</text></g><!--link CreateYML to Mark--><g id="link_CreateYML_Mark"><path codeLine="67" d="M1018.49,184.1147 C1115.42,201.8647 1324.46,249.9547 1467.5,353.5547 C1481.39,363.6147 1493.35,378.4947 1502.18,391.5847 " fill="none" id="CreateYML-to-Mark" style="stroke:#6060BB;stroke-width:1.0;stroke-dasharray:7.0,7.0;"/><polygon fill="#6060BB" points="1505.3,395.3147,1503.7128,385.5946,1502.5595,391.1326,1497.0215,389.9793,1505.3,395.3147" style="stroke:#6060BB;stroke-width:1.0;"/><text fill="#000000" font-family="sans-serif" font-size="13" lengthAdjust="spacing" textLength="29" x="1456.5" y="342.123">uses</text></g><!--link CreateYML to dictpingNode--><g id="link_CreateYML_dictpingNode"><path codeLine="68" d="M1018.27,190.0547 C1113.67,216.4447 1321.05,274.5847 1494.5,328.5547 C1528.05,338.9947 1538.82,336.4347 1569.5,353.5547 C1588.17,363.9747 1606.64,379.0647 1621.02,392.1847 " fill="none" id="CreateYML-to-dictpingNode" style="stroke:#6060BB;stroke-width:1.0;stroke-dasharray:7.0,7.0;"/><polygon fill="#6060BB" points="1624.35,395.1947,1620.4645,386.1447,1620.6815,391.7974,1615.0288,392.0143,1624.35,395.1947" style="stroke:#6060BB;stroke-width:1.0;"/><text fill="#000000" font-family="sans-serif" font-size="13" lengthAdjust="spacing" textLength="29" x="1553.5" y="342.123">uses</text></g><!--link CreateYML to SequenceNode--><g id="link_CreateYML_SequenceNode"><path codeLine="69" d="M1018.4,198.1847 C1071.46,223.2247 1152.42,268.1747 1203.5,328.5547 C1218.82,346.6647 1228.96,371.7047 1235.05,390.9247 " fill="none" id="CreateYML-to-SequenceNode" style="stroke:#6060BB;stroke-width:1.0;stroke-dasharray:7.0,7.0;"/><polygon fill="#6060BB" points="1236.66,395.1847,1237.8651,385.4098,1235.2036,390.4015,1230.212,387.74,1236.66,395.1847" style="stroke:#6060BB;stroke-width:1.0;"/><text fill="#000000" font-family="sans-serif" font-size="13" lengthAdjust="spacing" textLength="29" x="1214.5" y="342.123">uses</text></g><!--link CreateYML to SequenceNode--><g id="link_CreateYML_SequenceNode"><path codeLine="72" d="M992.06,198.9547 C1043.56,244.3147 1156.73,344.0047 1211.54,392.2847 " fill="none" id="CreateYML-to-SequenceNode-1" style="stroke:#909090;stroke-width:1.0;"/><polygon fill="#909090" points="1215.02,395.2347,1210.9338,386.2735,1211.2767,391.92,1205.6302,392.2629,1215.02,395.2347" style="stroke:#909090;stroke-width:1.0;"/><text fill="#000000" font-family="sans-serif" font-size="13" lengthAdjust="spacing" textLength="29" x="1153.5" y="342.123">uses</text></g><!--link CreateYML to dictpingNode_BRQTO_Tag_DOT_MAP_COMMA__SPC_Arraylist_BRQTO__BRQTC_BRQTO__BRQTC_COMMA__SPC_dummperOptions_BRQTC--><g id="link_CreateYML_dictpingNode_BRQTO_Tag_DOT_MAP_COMMA__SPC_Arraylist_BRQTO__BRQTC_BRQTO__BRQTC_COMMA__SPC_dummperOptions_BRQTC"><path codeLine="70" d="M1018.2,185.7247 C1203.82,221.5547 1830.64,342.5547 2102.24,394.9847 " fill="none" id="CreateYML-to-dictpingNode_BRQTO_Tag_DOT_MAP_COMMA__SPC_Arraylist_BRQTO__BRQTC_BRQTO__BRQTC_COMMA__SPC_dummperOptions_BRQTC" style="stroke:#909090;stroke-width:1.0;"/><polygon fill="#909090" points="2106.8,396.0647,2098.7149,390.4405,2101.8896,395.1226,2097.2075,398.2972,2106.8,396.0647" style="stroke:#909090;stroke-width:1.0;"/><text fill="#000000" font-family="sans-serif" font-size="13" lengthAdjust="spacing" textLength="29" x="1821.5" y="342.123">uses</text></g><!--link CreateYML to list_BRQTO_String_BRQTC--><g id="link_CreateYML_list_BRQTO_String_BRQTC"><path codeLine="71" d="M1018.17,176.7547 C1299.17,183.6947 2613.43,222.9847 2731.5,353.5547 C2765.78,391.4647 2766.72,431.5147 2731.5,468.5547 C2681.92,520.6947 1636.96,540.1047 1290.21,545.1247 " fill="none" id="CreateYML-to-list_BRQTO_String_BRQTC" style="stroke:#6060BB;stroke-width:1.0;stroke-dasharray:7.0,7.0;"/><polygon fill="#6060BB" points="1285.41,545.2047,1294.4662,549.0757,1290.4095,545.1333,1294.3519,541.0765,1285.41,545.2047" style="stroke:#6060BB;stroke-width:1.0;"/><text fill="#000000" font-family="sans-serif" font-size="13" lengthAdjust="spacing" textLength="29" x="2758.5" y="425.623">uses</text></g><!--link CreateYML to Datastructure--><g id="link_CreateYML_Datastructure"><path codeLine="73" d="M956.68,198.9547 C939.75,243.8547 902.74,342.0047 884.34,390.8147 " fill="none" id="CreateYML-to-Datastructure" style="stroke:#6060BB;stroke-width:1.0;stroke-dasharray:7.0,7.0;"/><polygon fill="#6060BB" points="882.29,395.2347,889.1954,388.2122,884.0456,390.553,881.7048,385.4032,882.29,395.2347" style="stroke:#6060BB;stroke-width:1.0;"/><text fill="#000000" font-family="sans-serif" font-size="13" lengthAdjust="spacing" textLength="29" x="906.5" y="342.123">uses</text></g><!--link CreateYML to Logger--><g id="link_CreateYML_Logger"><path codeLine="74" d="M912.63,192.9547 C846.83,217.5747 736.46,269.2147 681.5,353.5547 C648.64,403.9747 647.92,477.4347 650.54,517.6247 " fill="none" id="CreateYML-to-Logger" style="stroke:#6060BB;stroke-width:1.0;stroke-dasharray:7.0,7.0;"/><polygon fill="#6060BB" points="650.95,522.3047,654.2723,513.0331,650.5796,517.3184,646.2943,513.6257,650.95,522.3047" style="stroke:#6060BB;stroke-width:1.0;"/><text fill="#000000" font-family="sans-serif" font-size="13" lengthAdjust="spacing" textLength="29" x="682.5" y="425.623">uses</text></g><!--link CreateYML to SequenceNode_BRQTO_Tag_DOT_SEQ_COMMA__SPC_Arraylist_BRQTO__BRQTC_BRQTO__BRQTC_COMMA__SPC_dummperOptions_BRQTC--><g id="link_CreateYML_SequenceNode_BRQTO_Tag_DOT_SEQ_COMMA__SPC_Arraylist_BRQTO__BRQTC_BRQTO__BRQTC_COMMA__SPC_dummperOptions_BRQTC"><path codeLine="75" d="M1018.49,178.2447 C1238.78,189.7747 2103.66,238.6247 2809.5,328.5547 C2948.53,346.2647 3106.82,374.6547 3213.53,395.0147 " fill="none" id="CreateYML-to-SequenceNode_BRQTO_Tag_DOT_SEQ_COMMA__SPC_Arraylist_BRQTO__BRQTC_BRQTO__BRQTC_COMMA__SPC_dummperOptions_BRQTC" style="stroke:#909090;stroke-width:1.0;"/><polygon fill="#909090" points="3218.21,396.1047,3210.1092,390.5032,3213.2969,395.1763,3208.6238,398.3641,3218.21,396.1047" style="stroke:#909090;stroke-width:1.0;"/><text fill="#000000" font-family="sans-serif" font-size="13" lengthAdjust="spacing" textLength="29" x="2926.5" y="342.123">uses</text></g><!--link CreateYML to Datastructure_DOT_SubDataStructure--><g id="link_CreateYML_Datastructure_DOT_SubDataStructure"><path codeLine="76" d="M970.12,198.9047 C979.13,250.3047 994.76,376.0247 953.5,468.5547 C944.55,488.6347 927.84,506.2247 912,519.5947 " fill="none" id="CreateYML-to-Datastructure_DOT_SubDataStructure" style="stroke:#909090;stroke-width:1.0;"/><polygon fill="#909090" points="908.56,523.2447,918.0523,520.6184,912.4221,520.0692,912.9714,514.439,908.56,523.2447" style="stroke:#909090;stroke-width:1.0;"/><text fill="#000000" font-family="sans-serif" font-size="13" lengthAdjust="spacing" textLength="29" x="979.5" y="425.623">uses</text></g><!--link CreateYML to Yaml--><g id="link_CreateYML_Yaml"><path codeLine="77" d="M979.12,198.9547 C1005.3,243.9447 1062.6,342.4047 1090.95,391.1047 " fill="none" id="CreateYML-to-Yaml" style="stroke:#909090;stroke-width:1.0;"/><polygon fill="#909090" points="1093.93,395.2347,1092.8543,385.4447,1091.4124,390.9148,1085.9424,389.4729,1093.93,395.2347" style="stroke:#909090;stroke-width:1.0;"/><text fill="#000000" font-family="sans-serif" font-size="13" lengthAdjust="spacing" textLength="29" x="1062.5" y="342.123">uses</text></g><!--link CreateYML to PrintWriter--><g id="link_CreateYML_PrintWriter"><path codeLine="78" d="M1018.24,195.6347 C1091.21,224.6947 1225.5,282.7947 1327.5,353.5547 C1343.53,364.6747 1359.5,379.3847 1372.13,392.0947 " fill="none" id="CreateYML-to-PrintWriter" style="stroke:#909090;stroke-width:1.0;"/><polygon fill="#909090" points="1375.29,395.3247,1371.8287,386.1041,1371.7831,391.7608,1366.1264,391.7151,1375.29,395.3247" style="stroke:#909090;stroke-width:1.0;"/><text fill="#000000" font-family="sans-serif" font-size="13" lengthAdjust="spacing" textLength="29" x="1310.5" y="342.123">uses</text></g><!--SRC=[pLTVJzim47_lfpYD1wHEoRez8AsYI526za0fh4WJQgl894wnI9pCTe22zjrtRj8cwLAQP2ciLAIsxtxtD-SxnPH7uL2oPzhzqZaA1IKE2HKL9kEk85A9o5QHe6OVJnIz6Pn3kosP7thCPTHfju5m1xTc8eX2wa181N3YKnaIcxRRXvyqyb6B1uh2XviW4a04HHxYpPyPdtKdl6cH4pxXlTuPyn2nrvjm50esuM1xpBu7ojGTqkE_b4V2X0S22OYKyIwuk7ON4AYaflONGl474nFkC45j1GuDANSejncLPYnsH3rz4cWXMdWRofddK4MOjzquz1S0ZCSbK0s7aPaWlh74DX9C0p6D5QOf7sRJgTRqBF8yI9WgUNofb8i0Awaf-pQvtmEVBY4O-lF9l5E-Dvr-02BXp0k8mXXSO0AruWYTHZuY3KF50YvD97WSgJacyNYyuQIYJh0tO5nfF_hmqlgTI1qGSOyYzACHF8VPAbmOvcZLiyj6y4VqLuIfIHFyxB9n_QsJ7rVNG-kQpApJuRKrEBwq-iF1uDYoHfTzwrW8ClUOL0dPuj7FBpBaJkHdeXYVhpbev_8QyL16XP7ITMHbouQJnkE-vgVHjwlcu_AcyXhnq0tnFLHSFnh1kyG8gf-2OJ56sCpg7z7teUy5Kjy_10ipLlm75aJIaj6jjUAqj3_JMWmN0QTmIsqIIQeliEIgbKm2Vbt6cRoZZjbAETAR97UjLDNz9N56vc8w3sQpDTHahofux8v-u8VOF3ZGlFBmY6q1e04Ay0BtASSht8NTXY35Bh873Tv1Z8eWJIVm2UFvECLxrGK0_9K6CPHvIbJQfHG9orFKI170W9MK7vUdw5PlZiehLSXMKzFNqxd9e1GdDxn3UiS6v4hRE-T-ldb-hR5kv5tOE05Kw-ZBtYTpwc4FN2xXTkY9_oS1yuQKIKJOnxcdr0TsHgkLr8aag4SMpH3G9oM8hJ2MhWZyLFSkqbOaprXRbp4fJArjHV-ZCTxxt3d1pzIeLw6tYZ37UmUT0vGnDOyAUX7e0cQDh8YpgP4lZOPsV-telwbH0grs6DQokqpToTcvQR0kihCSuc9ehi-Ucv7hm-H6uKemkS2zxSHRtzmgwLhEyleEtFG-5hucZI2_ygPNDtRt0tHzFMiLqFhY5bDpVVRiaBn4-GC0]--></g></svg>