<?xml version="1.0" encoding="us-ascii" standalone="no"?><svg xmlns="http://www.w3.org/2000/svg" xmlns:xlink="http://www.w3.org/1999/xlink" contentStyleType="text/css" height="453px" preserveAspectRatio="none" style="width:1256px;height:453px;background:#FFFFFF;" version="1.1" viewBox="0 0 1256 453" width="1256px" zoomAndPan="magnify"><defs/><g><text fill="#000000" font-family="sans-serif" font-size="20" font-weight="bold" lengthAdjust="spacing" textLength="707" x="61.75" y="29.3359">preadapter.domain.Datastructure_DOT_Method_DOT_ParameterType</text><text fill="#000000" font-family="sans-serif" font-size="20" font-weight="bold" lengthAdjust="spacing" textLength="104" x="775.75" y="29.3359">simplified</text><text fill="#000000" font-family="sans-serif" font-size="20" font-weight="bold" lengthAdjust="spacing" textLength="38" x="886.75" y="29.3359">and</text><text fill="#000000" font-family="sans-serif" font-size="20" font-weight="bold" lengthAdjust="spacing" textLength="249" x="931.75" y="29.3359">grouped per namespace</text><!--cluster preadapter--><g id="cluster_preadapter"><a href="preadapter-diagram-simplified-grouped-per-namespace.svg" target="_top" title="preadapter-diagram-simplified-grouped-per-namespace.svg" xlink:actuate="onRequest" xlink:href="preadapter-diagram-simplified-grouped-per-namespace.svg" xlink:show="new" xlink:title="preadapter-diagram-simplified-grouped-per-namespace.svg" xlink:type="simple"><path d="M804,72.5547 L882,72.5547 A3.75,3.75 0 0 1 884.5,75.0547 L891.5,95.043 L1247,95.043 A2.5,2.5 0 0 1 1249.5,97.543 L1249.5,444.0547 A2.5,2.5 0 0 1 1247,446.5547 L804,446.5547 A2.5,2.5 0 0 1 801.5,444.0547 L801.5,75.0547 A2.5,2.5 0 0 1 804,72.5547 " fill="none" style="stroke:#000000;stroke-width:1.5;"/><line style="stroke:#000000;stroke-width:1.5;" x1="801.5" x2="891.5" y1="95.043" y2="95.043"/><text fill="#000000" font-family="sans-serif" font-size="14" font-weight="bold" lengthAdjust="spacing" textLength="77" x="805.5" y="88.0898">preadapter</text></a></g><!--cluster domain--><g id="cluster_domain"><a href="preadapter.domain-diagram-simplified-grouped-per-namespace.svg" target="_top" title="preadapter.domain-diagram-simplified-grouped-per-namespace.svg" xlink:actuate="onRequest" xlink:href="preadapter.domain-diagram-simplified-grouped-per-namespace.svg" xlink:show="new" xlink:title="preadapter.domain-diagram-simplified-grouped-per-namespace.svg" xlink:type="simple"><path d="M828,115.5547 L883,115.5547 A3.75,3.75 0 0 1 885.5,118.0547 L892.5,138.043 L1223,138.043 A2.5,2.5 0 0 1 1225.5,140.543 L1225.5,420.0547 A2.5,2.5 0 0 1 1223,422.5547 L828,422.5547 A2.5,2.5 0 0 1 825.5,420.0547 L825.5,118.0547 A2.5,2.5 0 0 1 828,115.5547 " fill="none" style="stroke:#000000;stroke-width:1.5;"/><line style="stroke:#000000;stroke-width:1.5;" x1="825.5" x2="892.5" y1="138.043" y2="138.043"/><text fill="#000000" font-family="sans-serif" font-size="14" font-weight="bold" lengthAdjust="spacing" textLength="54" x="829.5" y="131.0898">domain</text></a></g><!--class Datastructure_DOT_Method_DOT_ParameterType--><a href="preadapter.domain.Datastructure_DOT_Method_DOT_ParameterType-diagram-simplified-grouped-per-namespace.svg" target="_top" title="preadapter.domain.Datastructure_DOT_Method_DOT_ParameterType-diagram-simplified-grouped-per-namespace.svg" xlink:actuate="onRequest" xlink:href="preadapter.domain.Datastructure_DOT_Method_DOT_ParameterType-diagram-simplified-grouped-per-namespace.svg" xlink:show="new" xlink:title="preadapter.domain.Datastructure_DOT_Method_DOT_ParameterType-diagram-simplified-grouped-per-namespace.svg" xlink:type="simple"><g id="elem_Datastructure_DOT_Method_DOT_ParameterType"><rect codeLine="6" fill="#FFFF00" height="48" id="Datastructure_DOT_Method_DOT_ParameterType" rx="2.5" ry="2.5" style="stroke:#181818;stroke-width:0.5;" width="368" x="841.5" y="358.5547"/><ellipse cx="856.5" cy="374.5547" fill="#ADD1B2" rx="11" ry="11" style="stroke:#181818;stroke-width:1.0;"/><path d="M858.9731,380.6978 Q858.3921,380.9966 857.7529,381.146 Q857.1138,381.2954 856.4082,381.2954 Q853.9014,381.2954 852.5815,379.6436 Q851.2617,377.9917 851.2617,374.8706 Q851.2617,371.7412 852.5815,370.0894 Q853.9014,368.4375 856.4082,368.4375 Q857.1138,368.4375 857.7612,368.5869 Q858.4087,368.7363 858.9731,369.0352 L858.9731,371.7578 Q858.3423,371.1768 857.7488,370.907 Q857.1553,370.6372 856.5244,370.6372 Q855.1797,370.6372 854.4949,371.7039 Q853.8101,372.7705 853.8101,374.8706 Q853.8101,376.9624 854.4949,378.0291 Q855.1797,379.0957 856.5244,379.0957 Q857.1553,379.0957 857.7488,378.8259 Q858.3423,378.5562 858.9731,377.9751 Z " fill="#000000"/><text fill="#000000" font-family="sans-serif" font-size="14" lengthAdjust="spacing" textLength="336" x="870.5" y="379.8457">Datastructure_DOT_Method_DOT_ParameterType</text><line style="stroke:#181818;stroke-width:0.5;" x1="842.5" x2="1208.5" y1="390.5547" y2="390.5547"/><line style="stroke:#181818;stroke-width:0.5;" x1="842.5" x2="1208.5" y1="398.5547" y2="398.5547"/></g></a><!--class Datastructure_DOT_Method--><a href="preadapter.domain.Datastructure_DOT_Method-diagram-simplified-grouped-per-namespace.svg" target="_top" title="preadapter.domain.Datastructure_DOT_Method-diagram-simplified-grouped-per-namespace.svg" xlink:actuate="onRequest" xlink:href="preadapter.domain.Datastructure_DOT_Method-diagram-simplified-grouped-per-namespace.svg" xlink:show="new" xlink:title="preadapter.domain.Datastructure_DOT_Method-diagram-simplified-grouped-per-namespace.svg" xlink:type="simple"><g id="elem_Datastructure_DOT_Method"><rect codeLine="8" fill="#F1F1F1" height="48" id="Datastructure_DOT_Method" rx="2.5" ry="2.5" style="stroke:#181818;stroke-width:0.5;" width="221" x="915" y="150.5547"/><ellipse cx="930" cy="166.5547" fill="#ADD1B2" rx="11" ry="11" style="stroke:#181818;stroke-width:1.0;"/><path d="M932.4731,172.6978 Q931.8921,172.9966 931.2529,173.146 Q930.6138,173.2954 929.9082,173.2954 Q927.4014,173.2954 926.0815,171.6436 Q924.7617,169.9917 924.7617,166.8706 Q924.7617,163.7412 926.0815,162.0894 Q927.4014,160.4375 929.9082,160.4375 Q930.6138,160.4375 931.2612,160.5869 Q931.9087,160.7363 932.4731,161.0352 L932.4731,163.7578 Q931.8423,163.1768 931.2488,162.907 Q930.6553,162.6372 930.0244,162.6372 Q928.6797,162.6372 927.9949,163.7039 Q927.3101,164.7705 927.3101,166.8706 Q927.3101,168.9624 927.9949,170.0291 Q928.6797,171.0957 930.0244,171.0957 Q930.6553,171.0957 931.2488,170.8259 Q931.8423,170.5562 932.4731,169.9751 Z " fill="#000000"/><text fill="#000000" font-family="sans-serif" font-size="14" lengthAdjust="spacing" textLength="189" x="944" y="171.8457">Datastructure_DOT_Method</text><line style="stroke:#181818;stroke-width:0.5;" x1="916" x2="1135" y1="182.5547" y2="182.5547"/><line style="stroke:#181818;stroke-width:0.5;" x1="916" x2="1135" y1="190.5547" y2="190.5547"/></g></a><g id="elem_FloatingNote"><path d="M6,50.5547 L6,298.2129 L785,298.2129 L785,60.5547 L775,50.5547 L6,50.5547 " fill="#FEFFDD" style="stroke:#181818;stroke-width:0.5;"/><path d="M775,50.5547 L775,60.5547 L785,60.5547 L775,50.5547 " fill="#FEFFDD" style="stroke:#181818;stroke-width:1.0;"/><text fill="#000000" font-family="sans-serif" font-size="13" lengthAdjust="spacing" textLength="120" x="12" y="68.123">Your are analyzing:</text><text fill="#000000" font-family="sans-serif" font-size="13" lengthAdjust="spacing" textLength="431" x="12" y="83.4336">preadapter.domain.Datastructure_DOT_Method_DOT_ParameterType</text><text fill="#000000" font-family="sans-serif" font-size="13" font-weight="bold" lengthAdjust="spacing" textLength="67" x="447" y="83.4336">simplified</text><text fill="#000000" font-family="sans-serif" font-size="13" lengthAdjust="spacing" textLength="23" x="518" y="83.4336">and</text><text fill="#000000" font-family="sans-serif" font-size="13" font-weight="bold" lengthAdjust="spacing" textLength="166" x="545" y="83.4336">grouped per namespace</text><text fill="#000000" font-family="sans-serif" font-size="13" lengthAdjust="spacing" textLength="4" x="12" y="98.7441">&#160;</text><text fill="#000000" font-family="sans-serif" font-size="13" lengthAdjust="spacing" textLength="229" x="12" y="129.3652">You can click either the namespaces</text><text fill="#000000" font-family="sans-serif" font-size="13" lengthAdjust="spacing" textLength="266" x="12" y="144.6758">or class names for filtering them and their</text><text fill="#000000" font-family="sans-serif" font-size="13" lengthAdjust="spacing" textLength="130" x="12" y="159.9863">direct dependencies.</text><text fill="#000000" font-family="sans-serif" font-size="13" lengthAdjust="spacing" textLength="4" x="12" y="175.2969">&#160;</text><line style="stroke:#181818;stroke-width:1.0;" x1="7" x2="379.5" y1="109.1416" y2="109.1416"/><line style="stroke:#181818;stroke-width:1.0;" x1="7" x2="379.5" y1="111.1416" y2="111.1416"/><text fill="#000000" font-family="sans-serif" font-size="13" lengthAdjust="spacing" textLength="32" x="379.5" y="113.5547">Filter</text><line style="stroke:#181818;stroke-width:1.0;" x1="411.5" x2="784" y1="109.1416" y2="109.1416"/><line style="stroke:#181818;stroke-width:1.0;" x1="411.5" x2="784" y1="111.1416" y2="111.1416"/><ellipse cx="17.5" cy="205.1602" fill="#000000" rx="2.5" ry="2.5" style="stroke:#000000;stroke-width:0.0;"/><text fill="#000000" font-family="sans-serif" font-size="13" lengthAdjust="spacing" textLength="431" x="24" y="209.918">preadapter.domain.Datastructure_DOT_Method_DOT_ParameterType</text><text fill="#000000" font-family="sans-serif" font-size="13" font-weight="bold" lengthAdjust="spacing" textLength="55" x="459" y="209.918">detailed</text><text fill="#000000" font-family="sans-serif" font-size="13" lengthAdjust="spacing" textLength="23" x="518" y="209.918">and</text><text fill="#000000" font-family="sans-serif" font-size="13" font-weight="bold" lengthAdjust="spacing" textLength="166" x="545" y="209.918">grouped per namespace</text><text fill="#000000" font-family="sans-serif" font-size="13" lengthAdjust="spacing" textLength="4" x="711" y="209.918">:</text><text fill="#000000" font-family="sans-serif" font-size="13" lengthAdjust="spacing" textLength="12" x="12" y="225.2285">&#160;&#160;&#160;</text><a href="preadapter.domain.Datastructure_DOT_Method_DOT_ParameterType-diagram-detailed-grouped-per-namespace.svg" target="_top" title="preadapter.domain.Datastructure_DOT_Method_DOT_ParameterType-diagram-detailed-grouped-per-namespace.svg" xlink:actuate="onRequest" xlink:href="preadapter.domain.Datastructure_DOT_Method_DOT_ParameterType-diagram-detailed-grouped-per-namespace.svg" xlink:show="new" xlink:title="preadapter.domain.Datastructure_DOT_Method_DOT_ParameterType-diagram-detailed-grouped-per-namespace.svg" xlink:type="simple"><text fill="#0000FF" font-family="sans-serif" font-size="13" lengthAdjust="spacing" text-decoration="underline" textLength="740" x="24" y="225.2285">preadapter.domain.Datastructure_DOT_Method_DOT_ParameterType-diagram-detailed-grouped-per-namespace.svg</text></a><ellipse cx="17.5" cy="235.7813" fill="#000000" rx="2.5" ry="2.5" style="stroke:#000000;stroke-width:0.0;"/><text fill="#000000" font-family="sans-serif" font-size="13" lengthAdjust="spacing" textLength="78" x="24" y="240.5391">Full diagram</text><text fill="#000000" font-family="sans-serif" font-size="13" font-weight="bold" lengthAdjust="spacing" textLength="67" x="106" y="240.5391">simplified</text><text fill="#000000" font-family="sans-serif" font-size="13" lengthAdjust="spacing" textLength="23" x="177" y="240.5391">and</text><text fill="#000000" font-family="sans-serif" font-size="13" font-weight="bold" lengthAdjust="spacing" textLength="166" x="204" y="240.5391">grouped per namespace</text><text fill="#000000" font-family="sans-serif" font-size="13" lengthAdjust="spacing" textLength="4" x="370" y="240.5391">:</text><text fill="#000000" font-family="sans-serif" font-size="13" lengthAdjust="spacing" textLength="12" x="12" y="255.8496">&#160;&#160;&#160;</text><a href="full-diagram-simplified-grouped-per-namespace.svg" target="_top" title="full-diagram-simplified-grouped-per-namespace.svg" xlink:actuate="onRequest" xlink:href="full-diagram-simplified-grouped-per-namespace.svg" xlink:show="new" xlink:title="full-diagram-simplified-grouped-per-namespace.svg" xlink:type="simple"><text fill="#0000FF" font-family="sans-serif" font-size="13" lengthAdjust="spacing" text-decoration="underline" textLength="343" x="24" y="255.8496">full-diagram-simplified-grouped-per-namespace.svg</text></a><ellipse cx="17.5" cy="266.4023" fill="#000000" rx="2.5" ry="2.5" style="stroke:#000000;stroke-width:0.0;"/><text fill="#000000" font-family="sans-serif" font-size="13" lengthAdjust="spacing" textLength="41" x="24" y="271.1602">Home:</text><text fill="#000000" font-family="sans-serif" font-size="13" lengthAdjust="spacing" textLength="12" x="12" y="286.4707">&#160;&#160;&#160;</text><a href="index.html" target="_top" title="index.html" xlink:actuate="onRequest" xlink:href="index.html" xlink:show="new" xlink:title="index.html" xlink:type="simple"><text fill="#0000FF" font-family="sans-serif" font-size="13" lengthAdjust="spacing" text-decoration="underline" textLength="68" x="24" y="286.4707">index.html</text></a><line style="stroke:#181818;stroke-width:1.0;" x1="7" x2="358.5" y1="189.6943" y2="189.6943"/><line style="stroke:#181818;stroke-width:1.0;" x1="7" x2="358.5" y1="191.6943" y2="191.6943"/><text fill="#000000" font-family="sans-serif" font-size="13" lengthAdjust="spacing" textLength="74" x="358.5" y="194.1074">Select other</text><line style="stroke:#181818;stroke-width:1.0;" x1="432.5" x2="784" y1="189.6943" y2="189.6943"/><line style="stroke:#181818;stroke-width:1.0;" x1="432.5" x2="784" y1="191.6943" y2="191.6943"/></g><!--reverse link Datastructure_DOT_Method to Datastructure_DOT_Method_DOT_ParameterType--><g id="link_Datastructure_DOT_Method_Datastructure_DOT_Method_DOT_ParameterType"><path codeLine="21" d="M1025.5,214.8247 C1025.5,214.8247 1025.5,358.1247 1025.5,358.1247 " fill="none" id="Datastructure_DOT_Method-backto-Datastructure_DOT_Method_DOT_ParameterType" style="stroke:#10BBBB;stroke-width:1.0;"/><ellipse cx="1025.5" cy="207.8247" fill="#FFFFFF" rx="8" ry="8" style="stroke:#10BBBB;stroke-width:1.0;"/><line style="stroke:#10BBBB;stroke-width:1.0;" x1="1025.5" x2="1025.5" y1="215.8247" y2="199.8247"/><line style="stroke:#10BBBB;stroke-width:1.0;" x1="1017.5" x2="1033.5" y1="207.8247" y2="207.8247"/></g><!--SRC=[lLHDRzim3BtdLn3jeO07UzsEGTF3MWIxh1kmNeRO25IBJeZAb279RTEX_trKuiGT5g3riium34dcutly4FqjSQESgi4GOrWr2DQ5fHq52WRXpDCZZZ-UdZSEbLPDG9TfMolYx585vODhoz0wd5z-lPv_GG7gzV9RT8bYVHqz9ecdkZ5K4Uea0SLQZXREjWrgQD01Yx5lL8b9SlO-KfwFs0Q4en-sTQ0S2aQPrIFnOfppVzEISywJoPICW2UJd4KDb8gXD5JU0b9OYhryUeo7dAqJ0-NzvXGgsLTh5w8-MjThKbcGorcJmpA0nWPP8vU4FjlGVaSJ_zX84iaJE31kZK6HUJbgoJ00p6Q7qAMQr4BswPOqxSXI8KjtP9c_MnH5Z6tQ6WCTQ52DjcehSR1ZxU4lyNwsDMvTa5JW8Lk6sXJ54IWFKsDLaAfTII-ETk1dTVWjImFPuUTUbrskz-L_E05qdNXGv_oZJdYbwECL6cFlr-AV_YA0GNA7YkjKdLpOMeQcDEDRLn3kPSY0f220Z8CQMGP21MiDS66iZoD5oSqHfZkohP_xzcQ-yp8t9C1UuvLbX1iiLUinpgHkh7ho86z5J7w9EdlckyTk0XWzxVtP1oe6S2AtzLKFl9bj51dxng6H6spP0pu4fyeWDQkShNljOx7zeqwZ0VtsBfqTVpZz94-H7dRHVW40]--></g></svg>