<?xml version="1.0" encoding="us-ascii" standalone="no"?><svg xmlns="http://www.w3.org/2000/svg" xmlns:xlink="http://www.w3.org/1999/xlink" contentStyleType="text/css" height="453px" preserveAspectRatio="none" style="width:1014px;height:453px;background:#FFFFFF;" version="1.1" viewBox="0 0 1014 453" width="1014px" zoomAndPan="magnify"><defs/><g><text fill="#000000" font-family="sans-serif" font-size="20" font-weight="bold" lengthAdjust="spacing" textLength="585" x="148.75" y="29.3359">preadapter.domain.Datastructure.Method.ParameterType</text><text fill="#000000" font-family="sans-serif" font-size="20" font-weight="bold" lengthAdjust="spacing" textLength="104" x="740.75" y="29.3359">simplified</text><text fill="#000000" font-family="sans-serif" font-size="20" font-weight="bold" lengthAdjust="spacing" textLength="7" x="844.75" y="29.3359">&#160;</text><!--cluster preadapter--><g id="cluster_preadapter"><path d="M562,72.5547 L640,72.5547 A3.75,3.75 0 0 1 642.5,75.0547 L649.5,95.043 L1005,95.043 A2.5,2.5 0 0 1 1007.5,97.543 L1007.5,444.0547 A2.5,2.5 0 0 1 1005,446.5547 L562,446.5547 A2.5,2.5 0 0 1 559.5,444.0547 L559.5,75.0547 A2.5,2.5 0 0 1 562,72.5547 " fill="none" style="stroke:#000000;stroke-width:1.5;"/><line style="stroke:#000000;stroke-width:1.5;" x1="559.5" x2="649.5" y1="95.043" y2="95.043"/><text fill="#000000" font-family="sans-serif" font-size="14" font-weight="bold" lengthAdjust="spacing" textLength="77" x="563.5" y="88.0898">preadapter</text></g><!--cluster domain--><g id="cluster_domain"><path d="M586,115.5547 L641,115.5547 A3.75,3.75 0 0 1 643.5,118.0547 L650.5,138.043 L981,138.043 A2.5,2.5 0 0 1 983.5,140.543 L983.5,420.0547 A2.5,2.5 0 0 1 981,422.5547 L586,422.5547 A2.5,2.5 0 0 1 583.5,420.0547 L583.5,118.0547 A2.5,2.5 0 0 1 586,115.5547 " fill="none" style="stroke:#000000;stroke-width:1.5;"/><line style="stroke:#000000;stroke-width:1.5;" x1="583.5" x2="650.5" y1="138.043" y2="138.043"/><text fill="#000000" font-family="sans-serif" font-size="14" font-weight="bold" lengthAdjust="spacing" textLength="54" x="587.5" y="131.0898">domain</text></g><!--class Datastructure_DOT_Method_DOT_ParameterType--><a href="preadapter.domain.Datastructure.Method.ParameterType-diagram-simplified.svg" target="_top" title="preadapter.domain.Datastructure.Method.ParameterType-diagram-simplified.svg" xlink:actuate="onRequest" xlink:href="preadapter.domain.Datastructure.Method.ParameterType-diagram-simplified.svg" xlink:show="new" xlink:title="preadapter.domain.Datastructure.Method.ParameterType-diagram-simplified.svg" xlink:type="simple"><g id="elem_Datastructure_DOT_Method_DOT_ParameterType"><rect codeLine="4" fill="#FFFF00" height="48" id="Datastructure_DOT_Method_DOT_ParameterType" rx="2.5" ry="2.5" style="stroke:#181818;stroke-width:0.5;" width="368" x="599.5" y="358.5547"/><ellipse cx="614.5" cy="374.5547" fill="#ADD1B2" rx="11" ry="11" style="stroke:#181818;stroke-width:1.0;"/><path d="M616.9731,380.6978 Q616.3921,380.9966 615.7529,381.146 Q615.1138,381.2954 614.4082,381.2954 Q611.9014,381.2954 610.5815,379.6436 Q609.2617,377.9917 609.2617,374.8706 Q609.2617,371.7412 610.5815,370.0894 Q611.9014,368.4375 614.4082,368.4375 Q615.1138,368.4375 615.7612,368.5869 Q616.4087,368.7363 616.9731,369.0352 L616.9731,371.7578 Q616.3423,371.1768 615.7488,370.907 Q615.1553,370.6372 614.5244,370.6372 Q613.1797,370.6372 612.4949,371.7039 Q611.8101,372.7705 611.8101,374.8706 Q611.8101,376.9624 612.4949,378.0291 Q613.1797,379.0957 614.5244,379.0957 Q615.1553,379.0957 615.7488,378.8259 Q616.3423,378.5562 616.9731,377.9751 Z " fill="#000000"/><text fill="#000000" font-family="sans-serif" font-size="14" lengthAdjust="spacing" textLength="336" x="628.5" y="379.8457">Datastructure_DOT_Method_DOT_ParameterType</text><line style="stroke:#181818;stroke-width:0.5;" x1="600.5" x2="966.5" y1="390.5547" y2="390.5547"/><line style="stroke:#181818;stroke-width:0.5;" x1="600.5" x2="966.5" y1="398.5547" y2="398.5547"/></g></a><!--class Datastructure_DOT_Method--><a href="preadapter.domain.Datastructure.Method-diagram-simplified.svg" target="_top" title="preadapter.domain.Datastructure.Method-diagram-simplified.svg" xlink:actuate="onRequest" xlink:href="preadapter.domain.Datastructure.Method-diagram-simplified.svg" xlink:show="new" xlink:title="preadapter.domain.Datastructure.Method-diagram-simplified.svg" xlink:type="simple"><g id="elem_Datastructure_DOT_Method"><rect codeLine="6" fill="#F1F1F1" height="48" id="Datastructure_DOT_Method" rx="2.5" ry="2.5" style="stroke:#181818;stroke-width:0.5;" width="221" x="673" y="150.5547"/><ellipse cx="688" cy="166.5547" fill="#ADD1B2" rx="11" ry="11" style="stroke:#181818;stroke-width:1.0;"/><path d="M690.4731,172.6978 Q689.8921,172.9966 689.2529,173.146 Q688.6138,173.2954 687.9082,173.2954 Q685.4014,173.2954 684.0815,171.6436 Q682.7617,169.9917 682.7617,166.8706 Q682.7617,163.7412 684.0815,162.0894 Q685.4014,160.4375 687.9082,160.4375 Q688.6138,160.4375 689.2612,160.5869 Q689.9087,160.7363 690.4731,161.0352 L690.4731,163.7578 Q689.8423,163.1768 689.2488,162.907 Q688.6553,162.6372 688.0244,162.6372 Q686.6797,162.6372 685.9949,163.7039 Q685.3101,164.7705 685.3101,166.8706 Q685.3101,168.9624 685.9949,170.0291 Q686.6797,171.0957 688.0244,171.0957 Q688.6553,171.0957 689.2488,170.8259 Q689.8423,170.5562 690.4731,169.9751 Z " fill="#000000"/><text fill="#000000" font-family="sans-serif" font-size="14" lengthAdjust="spacing" textLength="189" x="702" y="171.8457">Datastructure_DOT_Method</text><line style="stroke:#181818;stroke-width:0.5;" x1="674" x2="893" y1="182.5547" y2="182.5547"/><line style="stroke:#181818;stroke-width:0.5;" x1="674" x2="893" y1="190.5547" y2="190.5547"/></g></a><g id="elem_FloatingNote"><path d="M6,50.5547 L6,298.2129 L543,298.2129 L543,60.5547 L533,50.5547 L6,50.5547 " fill="#FEFFDD" style="stroke:#181818;stroke-width:0.5;"/><path d="M533,50.5547 L533,60.5547 L543,60.5547 L533,50.5547 " fill="#FEFFDD" style="stroke:#181818;stroke-width:1.0;"/><text fill="#000000" font-family="sans-serif" font-size="13" lengthAdjust="spacing" textLength="120" x="12" y="68.123">Your are analyzing:</text><text fill="#000000" font-family="sans-serif" font-size="13" lengthAdjust="spacing" textLength="355" x="12" y="83.4336">preadapter.domain.Datastructure.Method.ParameterType</text><text fill="#000000" font-family="sans-serif" font-size="13" font-weight="bold" lengthAdjust="spacing" textLength="67" x="371" y="83.4336">simplified</text><text fill="#000000" font-family="sans-serif" font-size="13" lengthAdjust="spacing" textLength="4" x="438" y="83.4336">&#160;</text><text fill="#000000" font-family="sans-serif" font-size="13" lengthAdjust="spacing" textLength="4" x="12" y="98.7441">&#160;</text><text fill="#000000" font-family="sans-serif" font-size="13" lengthAdjust="spacing" textLength="229" x="12" y="129.3652">You can click either the namespaces</text><text fill="#000000" font-family="sans-serif" font-size="13" lengthAdjust="spacing" textLength="266" x="12" y="144.6758">or class names for filtering them and their</text><text fill="#000000" font-family="sans-serif" font-size="13" lengthAdjust="spacing" textLength="130" x="12" y="159.9863">direct dependencies.</text><text fill="#000000" font-family="sans-serif" font-size="13" lengthAdjust="spacing" textLength="4" x="12" y="175.2969">&#160;</text><line style="stroke:#181818;stroke-width:1.0;" x1="7" x2="258.5" y1="109.1416" y2="109.1416"/><line style="stroke:#181818;stroke-width:1.0;" x1="7" x2="258.5" y1="111.1416" y2="111.1416"/><text fill="#000000" font-family="sans-serif" font-size="13" lengthAdjust="spacing" textLength="32" x="258.5" y="113.5547">Filter</text><line style="stroke:#181818;stroke-width:1.0;" x1="290.5" x2="542" y1="109.1416" y2="109.1416"/><line style="stroke:#181818;stroke-width:1.0;" x1="290.5" x2="542" y1="111.1416" y2="111.1416"/><ellipse cx="17.5" cy="205.1602" fill="#000000" rx="2.5" ry="2.5" style="stroke:#000000;stroke-width:0.0;"/><text fill="#000000" font-family="sans-serif" font-size="13" lengthAdjust="spacing" textLength="355" x="24" y="209.918">preadapter.domain.Datastructure.Method.ParameterType</text><text fill="#000000" font-family="sans-serif" font-size="13" font-weight="bold" lengthAdjust="spacing" textLength="55" x="383" y="209.918">detailed</text><text fill="#000000" font-family="sans-serif" font-size="13" lengthAdjust="spacing" textLength="4" x="442" y="209.918">:</text><text fill="#000000" font-family="sans-serif" font-size="13" lengthAdjust="spacing" textLength="12" x="12" y="225.2285">&#160;&#160;&#160;</text><a href="preadapter.domain.Datastructure.Method.ParameterType-diagram-detailed.svg" target="_top" title="preadapter.domain.Datastructure.Method.ParameterType-diagram-detailed.svg" xlink:actuate="onRequest" xlink:href="preadapter.domain.Datastructure.Method.ParameterType-diagram-detailed.svg" xlink:show="new" xlink:title="preadapter.domain.Datastructure.Method.ParameterType-diagram-detailed.svg" xlink:type="simple"><text fill="#0000FF" font-family="sans-serif" font-size="13" lengthAdjust="spacing" text-decoration="underline" textLength="498" x="24" y="225.2285">preadapter.domain.Datastructure.Method.ParameterType-diagram-detailed.svg</text></a><ellipse cx="17.5" cy="235.7813" fill="#000000" rx="2.5" ry="2.5" style="stroke:#000000;stroke-width:0.0;"/><text fill="#000000" font-family="sans-serif" font-size="13" lengthAdjust="spacing" textLength="78" x="24" y="240.5391">Full diagram</text><text fill="#000000" font-family="sans-serif" font-size="13" font-weight="bold" lengthAdjust="spacing" textLength="67" x="106" y="240.5391">simplified</text><text fill="#000000" font-family="sans-serif" font-size="13" lengthAdjust="spacing" textLength="23" x="177" y="240.5391">and</text><text fill="#000000" font-family="sans-serif" font-size="13" font-weight="bold" lengthAdjust="spacing" textLength="166" x="204" y="240.5391">grouped per namespace</text><text fill="#000000" font-family="sans-serif" font-size="13" lengthAdjust="spacing" textLength="4" x="370" y="240.5391">:</text><text fill="#000000" font-family="sans-serif" font-size="13" lengthAdjust="spacing" textLength="12" x="12" y="255.8496">&#160;&#160;&#160;</text><a href="full-diagram-simplified-grouped-per-namespace.svg" target="_top" title="full-diagram-simplified-grouped-per-namespace.svg" xlink:actuate="onRequest" xlink:href="full-diagram-simplified-grouped-per-namespace.svg" xlink:show="new" xlink:title="full-diagram-simplified-grouped-per-namespace.svg" xlink:type="simple"><text fill="#0000FF" font-family="sans-serif" font-size="13" lengthAdjust="spacing" text-decoration="underline" textLength="343" x="24" y="255.8496">full-diagram-simplified-grouped-per-namespace.svg</text></a><ellipse cx="17.5" cy="266.4023" fill="#000000" rx="2.5" ry="2.5" style="stroke:#000000;stroke-width:0.0;"/><text fill="#000000" font-family="sans-serif" font-size="13" lengthAdjust="spacing" textLength="41" x="24" y="271.1602">Home:</text><text fill="#000000" font-family="sans-serif" font-size="13" lengthAdjust="spacing" textLength="12" x="12" y="286.4707">&#160;&#160;&#160;</text><a href="index.html" target="_top" title="index.html" xlink:actuate="onRequest" xlink:href="index.html" xlink:show="new" xlink:title="index.html" xlink:type="simple"><text fill="#0000FF" font-family="sans-serif" font-size="13" lengthAdjust="spacing" text-decoration="underline" textLength="68" x="24" y="286.4707">index.html</text></a><line style="stroke:#181818;stroke-width:1.0;" x1="7" x2="237.5" y1="189.6943" y2="189.6943"/><line style="stroke:#181818;stroke-width:1.0;" x1="7" x2="237.5" y1="191.6943" y2="191.6943"/><text fill="#000000" font-family="sans-serif" font-size="13" lengthAdjust="spacing" textLength="74" x="237.5" y="194.1074">Select other</text><line style="stroke:#181818;stroke-width:1.0;" x1="311.5" x2="542" y1="189.6943" y2="189.6943"/><line style="stroke:#181818;stroke-width:1.0;" x1="311.5" x2="542" y1="191.6943" y2="191.6943"/></g><!--reverse link Datastructure_DOT_Method to Datastructure_DOT_Method_DOT_ParameterType--><g id="link_Datastructure_DOT_Method_Datastructure_DOT_Method_DOT_ParameterType"><path codeLine="13" d="M783.5,214.8247 C783.5,214.8247 783.5,358.1247 783.5,358.1247 " fill="none" id="Datastructure_DOT_Method-backto-Datastructure_DOT_Method_DOT_ParameterType" style="stroke:#10BBBB;stroke-width:1.0;"/><ellipse cx="783.5" cy="207.8247" fill="#FFFFFF" rx="8" ry="8" style="stroke:#10BBBB;stroke-width:1.0;"/><line style="stroke:#10BBBB;stroke-width:1.0;" x1="783.5" x2="783.5" y1="215.8247" y2="199.8247"/><line style="stroke:#10BBBB;stroke-width:1.0;" x1="775.5" x2="791.5" y1="207.8247" y2="207.8247"/></g><!--SRC=[jL9BJzmm4BxlhnZ10SaeAUrnnN80jEe5YWGNj8dGA9xiZd1iotPQbgh_lUDz2X0gNS27o8vdlfSdthFr6B03mvRIt1Eua6Pka3WPWkF8ZpJyTdJY0w56doYKsdN8jZp7X365labzeFA2f4cNLncAfEec8oaLkVE6MoQj51n_oMWd0-iImTwjwmDW842BPlx8TZgix4VGLBQoez6OZToFHfKL8cZGGcEukGVYDAC0yW4h6D5ZGr5wN902Z77v5revjmi84PQhEz6fyuP3PJK7QX9eycGrsOOfbalQQpBvncMIJAvWHqkQ4h9P699S060osGMfq8nJEHThl3B-dDPr5ZRkZO7LzVCCirUbfi7rdZHu2MmJbb9hFQq0RF2txSMghP2sOjEsvVtkEbf3iCJtKCvIP-fw3p32s3XC4lcbpCW0La_o3-DtvpzkxfRc5zkdKRupjwslfGFOdvCnxXVy5db_Tf3uPa6lIrXp7yWRlMd1fzKUmDd2Vo0Zx-Pi17f80PiaOzC6rstdPYYrBumF_YEtmsAo__NeL5PTl6ya_W80]--></g></svg>