<?xml version="1.0" encoding="us-ascii" standalone="no"?><svg xmlns="http://www.w3.org/2000/svg" xmlns:xlink="http://www.w3.org/1999/xlink" contentStyleType="text/css" height="453px" preserveAspectRatio="none" style="width:1138px;height:453px;background:#FFFFFF;" version="1.1" viewBox="0 0 1138 453" width="1138px" zoomAndPan="magnify"><defs/><g><text fill="#000000" font-family="sans-serif" font-size="20" font-weight="bold" lengthAdjust="spacing" textLength="615" x="48.75" y="29.3359">preadapter.domain.ASTVisitorDebug_DOT_HandleDeepness</text><text fill="#000000" font-family="sans-serif" font-size="20" font-weight="bold" lengthAdjust="spacing" textLength="104" x="670.75" y="29.3359">simplified</text><text fill="#000000" font-family="sans-serif" font-size="20" font-weight="bold" lengthAdjust="spacing" textLength="38" x="781.75" y="29.3359">and</text><text fill="#000000" font-family="sans-serif" font-size="20" font-weight="bold" lengthAdjust="spacing" textLength="249" x="826.75" y="29.3359">grouped per namespace</text><!--cluster preadapter--><g id="cluster_preadapter"><a href="preadapter-diagram-simplified-grouped-per-namespace.svg" target="_top" title="preadapter-diagram-simplified-grouped-per-namespace.svg" xlink:actuate="onRequest" xlink:href="preadapter-diagram-simplified-grouped-per-namespace.svg" xlink:show="new" xlink:title="preadapter-diagram-simplified-grouped-per-namespace.svg" xlink:type="simple"><path d="M748,72.5547 L826,72.5547 A3.75,3.75 0 0 1 828.5,75.0547 L835.5,95.043 L1129,95.043 A2.5,2.5 0 0 1 1131.5,97.543 L1131.5,444.0547 A2.5,2.5 0 0 1 1129,446.5547 L748,446.5547 A2.5,2.5 0 0 1 745.5,444.0547 L745.5,75.0547 A2.5,2.5 0 0 1 748,72.5547 " fill="none" style="stroke:#000000;stroke-width:1.5;"/><line style="stroke:#000000;stroke-width:1.5;" x1="745.5" x2="835.5" y1="95.043" y2="95.043"/><text fill="#000000" font-family="sans-serif" font-size="14" font-weight="bold" lengthAdjust="spacing" textLength="77" x="749.5" y="88.0898">preadapter</text></a></g><!--cluster domain--><g id="cluster_domain"><a href="preadapter.domain-diagram-simplified-grouped-per-namespace.svg" target="_top" title="preadapter.domain-diagram-simplified-grouped-per-namespace.svg" xlink:actuate="onRequest" xlink:href="preadapter.domain-diagram-simplified-grouped-per-namespace.svg" xlink:show="new" xlink:title="preadapter.domain-diagram-simplified-grouped-per-namespace.svg" xlink:type="simple"><path d="M772,115.5547 L827,115.5547 A3.75,3.75 0 0 1 829.5,118.0547 L836.5,138.043 L1105,138.043 A2.5,2.5 0 0 1 1107.5,140.543 L1107.5,420.0547 A2.5,2.5 0 0 1 1105,422.5547 L772,422.5547 A2.5,2.5 0 0 1 769.5,420.0547 L769.5,118.0547 A2.5,2.5 0 0 1 772,115.5547 " fill="none" style="stroke:#000000;stroke-width:1.5;"/><line style="stroke:#000000;stroke-width:1.5;" x1="769.5" x2="836.5" y1="138.043" y2="138.043"/><text fill="#000000" font-family="sans-serif" font-size="14" font-weight="bold" lengthAdjust="spacing" textLength="54" x="773.5" y="131.0898">domain</text></a></g><!--class ASTVisitorDebug_DOT_HandleDeepness--><a href="preadapter.domain.ASTVisitorDebug_DOT_HandleDeepness-diagram-simplified-grouped-per-namespace.svg" target="_top" title="preadapter.domain.ASTVisitorDebug_DOT_HandleDeepness-diagram-simplified-grouped-per-namespace.svg" xlink:actuate="onRequest" xlink:href="preadapter.domain.ASTVisitorDebug_DOT_HandleDeepness-diagram-simplified-grouped-per-namespace.svg" xlink:show="new" xlink:title="preadapter.domain.ASTVisitorDebug_DOT_HandleDeepness-diagram-simplified-grouped-per-namespace.svg" xlink:type="simple"><g id="elem_ASTVisitorDebug_DOT_HandleDeepness"><rect codeLine="6" fill="#FFFF00" height="48" id="ASTVisitorDebug_DOT_HandleDeepness" rx="2.5" ry="2.5" style="stroke:#181818;stroke-width:0.5;" width="306" x="785.5" y="358.5547"/><ellipse cx="800.5" cy="374.5547" fill="#ADD1B2" rx="11" ry="11" style="stroke:#181818;stroke-width:1.0;"/><path d="M802.9731,380.6978 Q802.3921,380.9966 801.7529,381.146 Q801.1138,381.2954 800.4082,381.2954 Q797.9014,381.2954 796.5815,379.6436 Q795.2617,377.9917 795.2617,374.8706 Q795.2617,371.7412 796.5815,370.0894 Q797.9014,368.4375 800.4082,368.4375 Q801.1138,368.4375 801.7612,368.5869 Q802.4087,368.7363 802.9731,369.0352 L802.9731,371.7578 Q802.3423,371.1768 801.7488,370.907 Q801.1553,370.6372 800.5244,370.6372 Q799.1797,370.6372 798.4949,371.7039 Q797.8101,372.7705 797.8101,374.8706 Q797.8101,376.9624 798.4949,378.0291 Q799.1797,379.0957 800.5244,379.0957 Q801.1553,379.0957 801.7488,378.8259 Q802.3423,378.5562 802.9731,377.9751 Z " fill="#000000"/><text fill="#000000" font-family="sans-serif" font-size="14" lengthAdjust="spacing" textLength="274" x="814.5" y="379.8457">ASTVisitorDebug_DOT_HandleDeepness</text><line style="stroke:#181818;stroke-width:0.5;" x1="786.5" x2="1090.5" y1="390.5547" y2="390.5547"/><line style="stroke:#181818;stroke-width:0.5;" x1="786.5" x2="1090.5" y1="398.5547" y2="398.5547"/></g></a><!--class ASTVisitorDebug--><a href="preadapter.domain.ASTVisitorDebug-diagram-simplified-grouped-per-namespace.svg" target="_top" title="preadapter.domain.ASTVisitorDebug-diagram-simplified-grouped-per-namespace.svg" xlink:actuate="onRequest" xlink:href="preadapter.domain.ASTVisitorDebug-diagram-simplified-grouped-per-namespace.svg" xlink:show="new" xlink:title="preadapter.domain.ASTVisitorDebug-diagram-simplified-grouped-per-namespace.svg" xlink:type="simple"><g id="elem_ASTVisitorDebug"><rect codeLine="8" fill="#F1F1F1" height="48" id="ASTVisitorDebug" rx="2.5" ry="2.5" style="stroke:#181818;stroke-width:0.5;" width="148" x="864.5" y="150.5547"/><ellipse cx="879.5" cy="166.5547" fill="#ADD1B2" rx="11" ry="11" style="stroke:#181818;stroke-width:1.0;"/><path d="M881.9731,172.6978 Q881.3921,172.9966 880.7529,173.146 Q880.1138,173.2954 879.4082,173.2954 Q876.9014,173.2954 875.5815,171.6436 Q874.2617,169.9917 874.2617,166.8706 Q874.2617,163.7412 875.5815,162.0894 Q876.9014,160.4375 879.4082,160.4375 Q880.1138,160.4375 880.7612,160.5869 Q881.4087,160.7363 881.9731,161.0352 L881.9731,163.7578 Q881.3423,163.1768 880.7488,162.907 Q880.1553,162.6372 879.5244,162.6372 Q878.1797,162.6372 877.4949,163.7039 Q876.8101,164.7705 876.8101,166.8706 Q876.8101,168.9624 877.4949,170.0291 Q878.1797,171.0957 879.5244,171.0957 Q880.1553,171.0957 880.7488,170.8259 Q881.3423,170.5562 881.9731,169.9751 Z " fill="#000000"/><text fill="#000000" font-family="sans-serif" font-size="14" lengthAdjust="spacing" textLength="116" x="893.5" y="171.8457">ASTVisitorDebug</text><line style="stroke:#181818;stroke-width:0.5;" x1="865.5" x2="1011.5" y1="182.5547" y2="182.5547"/><line style="stroke:#181818;stroke-width:0.5;" x1="865.5" x2="1011.5" y1="190.5547" y2="190.5547"/></g></a><g id="elem_FloatingNote"><path d="M6,50.5547 L6,298.2129 L729,298.2129 L729,60.5547 L719,50.5547 L6,50.5547 " fill="#FEFFDD" style="stroke:#181818;stroke-width:0.5;"/><path d="M719,50.5547 L719,60.5547 L729,60.5547 L719,50.5547 " fill="#FEFFDD" style="stroke:#181818;stroke-width:1.0;"/><text fill="#000000" font-family="sans-serif" font-size="13" lengthAdjust="spacing" textLength="120" x="12" y="68.123">Your are analyzing:</text><text fill="#000000" font-family="sans-serif" font-size="13" lengthAdjust="spacing" textLength="375" x="12" y="83.4336">preadapter.domain.ASTVisitorDebug_DOT_HandleDeepness</text><text fill="#000000" font-family="sans-serif" font-size="13" font-weight="bold" lengthAdjust="spacing" textLength="67" x="391" y="83.4336">simplified</text><text fill="#000000" font-family="sans-serif" font-size="13" lengthAdjust="spacing" textLength="23" x="462" y="83.4336">and</text><text fill="#000000" font-family="sans-serif" font-size="13" font-weight="bold" lengthAdjust="spacing" textLength="166" x="489" y="83.4336">grouped per namespace</text><text fill="#000000" font-family="sans-serif" font-size="13" lengthAdjust="spacing" textLength="4" x="12" y="98.7441">&#160;</text><text fill="#000000" font-family="sans-serif" font-size="13" lengthAdjust="spacing" textLength="229" x="12" y="129.3652">You can click either the namespaces</text><text fill="#000000" font-family="sans-serif" font-size="13" lengthAdjust="spacing" textLength="266" x="12" y="144.6758">or class names for filtering them and their</text><text fill="#000000" font-family="sans-serif" font-size="13" lengthAdjust="spacing" textLength="130" x="12" y="159.9863">direct dependencies.</text><text fill="#000000" font-family="sans-serif" font-size="13" lengthAdjust="spacing" textLength="4" x="12" y="175.2969">&#160;</text><line style="stroke:#181818;stroke-width:1.0;" x1="7" x2="351.5" y1="109.1416" y2="109.1416"/><line style="stroke:#181818;stroke-width:1.0;" x1="7" x2="351.5" y1="111.1416" y2="111.1416"/><text fill="#000000" font-family="sans-serif" font-size="13" lengthAdjust="spacing" textLength="32" x="351.5" y="113.5547">Filter</text><line style="stroke:#181818;stroke-width:1.0;" x1="383.5" x2="728" y1="109.1416" y2="109.1416"/><line style="stroke:#181818;stroke-width:1.0;" x1="383.5" x2="728" y1="111.1416" y2="111.1416"/><ellipse cx="17.5" cy="205.1602" fill="#000000" rx="2.5" ry="2.5" style="stroke:#000000;stroke-width:0.0;"/><text fill="#000000" font-family="sans-serif" font-size="13" lengthAdjust="spacing" textLength="375" x="24" y="209.918">preadapter.domain.ASTVisitorDebug_DOT_HandleDeepness</text><text fill="#000000" font-family="sans-serif" font-size="13" font-weight="bold" lengthAdjust="spacing" textLength="55" x="403" y="209.918">detailed</text><text fill="#000000" font-family="sans-serif" font-size="13" lengthAdjust="spacing" textLength="23" x="462" y="209.918">and</text><text fill="#000000" font-family="sans-serif" font-size="13" font-weight="bold" lengthAdjust="spacing" textLength="166" x="489" y="209.918">grouped per namespace</text><text fill="#000000" font-family="sans-serif" font-size="13" lengthAdjust="spacing" textLength="4" x="655" y="209.918">:</text><text fill="#000000" font-family="sans-serif" font-size="13" lengthAdjust="spacing" textLength="12" x="12" y="225.2285">&#160;&#160;&#160;</text><a href="preadapter.domain.ASTVisitorDebug_DOT_HandleDeepness-diagram-detailed-grouped-per-namespace.svg" target="_top" title="preadapter.domain.ASTVisitorDebug_DOT_HandleDeepness-diagram-detailed-grouped-per-namespace.svg" xlink:actuate="onRequest" xlink:href="preadapter.domain.ASTVisitorDebug_DOT_HandleDeepness-diagram-detailed-grouped-per-namespace.svg" xlink:show="new" xlink:title="preadapter.domain.ASTVisitorDebug_DOT_HandleDeepness-diagram-detailed-grouped-per-namespace.svg" xlink:type="simple"><text fill="#0000FF" font-family="sans-serif" font-size="13" lengthAdjust="spacing" text-decoration="underline" textLength="684" x="24" y="225.2285">preadapter.domain.ASTVisitorDebug_DOT_HandleDeepness-diagram-detailed-grouped-per-namespace.svg</text></a><ellipse cx="17.5" cy="235.7813" fill="#000000" rx="2.5" ry="2.5" style="stroke:#000000;stroke-width:0.0;"/><text fill="#000000" font-family="sans-serif" font-size="13" lengthAdjust="spacing" textLength="78" x="24" y="240.5391">Full diagram</text><text fill="#000000" font-family="sans-serif" font-size="13" font-weight="bold" lengthAdjust="spacing" textLength="67" x="106" y="240.5391">simplified</text><text fill="#000000" font-family="sans-serif" font-size="13" lengthAdjust="spacing" textLength="23" x="177" y="240.5391">and</text><text fill="#000000" font-family="sans-serif" font-size="13" font-weight="bold" lengthAdjust="spacing" textLength="166" x="204" y="240.5391">grouped per namespace</text><text fill="#000000" font-family="sans-serif" font-size="13" lengthAdjust="spacing" textLength="4" x="370" y="240.5391">:</text><text fill="#000000" font-family="sans-serif" font-size="13" lengthAdjust="spacing" textLength="12" x="12" y="255.8496">&#160;&#160;&#160;</text><a href="full-diagram-simplified-grouped-per-namespace.svg" target="_top" title="full-diagram-simplified-grouped-per-namespace.svg" xlink:actuate="onRequest" xlink:href="full-diagram-simplified-grouped-per-namespace.svg" xlink:show="new" xlink:title="full-diagram-simplified-grouped-per-namespace.svg" xlink:type="simple"><text fill="#0000FF" font-family="sans-serif" font-size="13" lengthAdjust="spacing" text-decoration="underline" textLength="343" x="24" y="255.8496">full-diagram-simplified-grouped-per-namespace.svg</text></a><ellipse cx="17.5" cy="266.4023" fill="#000000" rx="2.5" ry="2.5" style="stroke:#000000;stroke-width:0.0;"/><text fill="#000000" font-family="sans-serif" font-size="13" lengthAdjust="spacing" textLength="41" x="24" y="271.1602">Home:</text><text fill="#000000" font-family="sans-serif" font-size="13" lengthAdjust="spacing" textLength="12" x="12" y="286.4707">&#160;&#160;&#160;</text><a href="index.html" target="_top" title="index.html" xlink:actuate="onRequest" xlink:href="index.html" xlink:show="new" xlink:title="index.html" xlink:type="simple"><text fill="#0000FF" font-family="sans-serif" font-size="13" lengthAdjust="spacing" text-decoration="underline" textLength="68" x="24" y="286.4707">index.html</text></a><line style="stroke:#181818;stroke-width:1.0;" x1="7" x2="330.5" y1="189.6943" y2="189.6943"/><line style="stroke:#181818;stroke-width:1.0;" x1="7" x2="330.5" y1="191.6943" y2="191.6943"/><text fill="#000000" font-family="sans-serif" font-size="13" lengthAdjust="spacing" textLength="74" x="330.5" y="194.1074">Select other</text><line style="stroke:#181818;stroke-width:1.0;" x1="404.5" x2="728" y1="189.6943" y2="189.6943"/><line style="stroke:#181818;stroke-width:1.0;" x1="404.5" x2="728" y1="191.6943" y2="191.6943"/></g><!--reverse link ASTVisitorDebug to ASTVisitorDebug_DOT_HandleDeepness--><g id="link_ASTVisitorDebug_ASTVisitorDebug_DOT_HandleDeepness"><path codeLine="21" d="M938.5,214.8247 C938.5,214.8247 938.5,358.1247 938.5,358.1247 " fill="none" id="ASTVisitorDebug-backto-ASTVisitorDebug_DOT_HandleDeepness" style="stroke:#10BBBB;stroke-width:1.0;"/><ellipse cx="938.5" cy="207.8247" fill="#FFFFFF" rx="8" ry="8" style="stroke:#10BBBB;stroke-width:1.0;"/><line style="stroke:#10BBBB;stroke-width:1.0;" x1="938.5" x2="938.5" y1="215.8247" y2="199.8247"/><line style="stroke:#10BBBB;stroke-width:1.0;" x1="930.5" x2="946.5" y1="207.8247" y2="207.8247"/></g><!--SRC=[jPHDQzj048Rl-XL3SWYeI4rxD76WZJ4vfOU4Gh6CM6j7zf3LhDXT9N5A_dj7ZcobrE2FOc6ChPsPvvslzO_4jNAg0aECOLaZM1SMDWeK3CALfrSSVBsyhXqghUg0BjMsKiJfj_k7d-GfM3V2MJFFHpyUybl5sk08iMRq7kBOKrKRAWbr78CSogkviqsD6cfqmAf2Nwi2u_ZgSukwZjW6XBDVjd6W78gFCijNulaWuvDho3ZZuN1CHX33OSQY0Wh5K1Wg7W4fBCHUldeV3nbR9mPAKAktKCh_SXL2LBVMrGegFyXbhCbX4K1ZZQoH2qAVlcFlqRGdjeMqy1YEp5TZK6HsPoiL1O39v1XCeadDPMgIDIpf88b0aWqazK_pwRJDPTmO0vtJGJrPgombm8RQk-_YtjeAro58AlwIBa9bfjCpK1x6ngeWNRgJcOispX_g_bTr3gJ3xwqXknflg_lX0EWcxwX9-S_ExodoV8d6sEULsBVz1U-Zxb0fdOQB6rl9bIUZTkh-mBDS6I091v3bhf1blKjOQO0ROtrxGIZP2o4zaMryxfjPlecI6nB7NkETPOGP5ghnsDumtUNeoODyIcBo2zJfXzYzxti2qTlMmpvHCO0BsSMz7ZYPRIkodHA7HlRJiWTy2KuLGNfMEblrsWTY-q-VejtJzIcPd7-v_2xFD3bkU_u0]--></g></svg>