<?xml version="1.0" encoding="us-ascii" standalone="no"?><svg xmlns="http://www.w3.org/2000/svg" xmlns:xlink="http://www.w3.org/1999/xlink" contentStyleType="text/css" height="557px" preserveAspectRatio="none" style="width:698px;height:557px;background:#FFFFFF;" version="1.1" viewBox="0 0 698 557" width="698px" zoomAndPan="magnify"><defs/><g><text fill="#000000" font-family="sans-serif" font-size="20" font-weight="bold" lengthAdjust="spacing" textLength="253" x="10" y="29.3359">preadapter.LoggingType</text><text fill="#000000" font-family="sans-serif" font-size="20" font-weight="bold" lengthAdjust="spacing" textLength="104" x="270" y="29.3359">simplified</text><text fill="#000000" font-family="sans-serif" font-size="20" font-weight="bold" lengthAdjust="spacing" textLength="38" x="381" y="29.3359">and</text><text fill="#000000" font-family="sans-serif" font-size="20" font-weight="bold" lengthAdjust="spacing" textLength="249" x="426" y="29.3359">grouped per namespace</text><!--cluster preadapter--><g id="cluster_preadapter"><a href="preadapter-diagram-simplified-grouped-per-namespace.svg" target="_top" title="preadapter-diagram-simplified-grouped-per-namespace.svg" xlink:actuate="onRequest" xlink:href="preadapter-diagram-simplified-grouped-per-namespace.svg" xlink:show="new" xlink:title="preadapter-diagram-simplified-grouped-per-namespace.svg" xlink:type="simple"><path d="M524.75,115.5547 L602.75,115.5547 A3.75,3.75 0 0 1 605.25,118.0547 L612.25,138.043 L673.75,138.043 A2.5,2.5 0 0 1 676.25,140.543 L676.25,437.0547 A2.5,2.5 0 0 1 673.75,439.5547 L524.75,439.5547 A2.5,2.5 0 0 1 522.25,437.0547 L522.25,118.0547 A2.5,2.5 0 0 1 524.75,115.5547 " fill="none" style="stroke:#000000;stroke-width:1.5;"/><line style="stroke:#000000;stroke-width:1.5;" x1="522.25" x2="612.25" y1="138.043" y2="138.043"/><text fill="#000000" font-family="sans-serif" font-size="14" font-weight="bold" lengthAdjust="spacing" textLength="77" x="526.25" y="131.0898">preadapter</text></a></g><!--class LoggingType--><a href="preadapter.LoggingType-diagram-simplified-grouped-per-namespace.svg" target="_top" title="preadapter.LoggingType-diagram-simplified-grouped-per-namespace.svg" xlink:actuate="onRequest" xlink:href="preadapter.LoggingType-diagram-simplified-grouped-per-namespace.svg" xlink:show="new" xlink:title="preadapter.LoggingType-diagram-simplified-grouped-per-namespace.svg" xlink:type="simple"><g id="elem_LoggingType"><rect codeLine="7" fill="#FFFF00" height="48" id="LoggingType" rx="2.5" ry="2.5" style="stroke:#181818;stroke-width:0.5;" width="121" x="538.75" y="375.5547"/><ellipse cx="553.75" cy="391.5547" fill="#ADD1B2" rx="11" ry="11" style="stroke:#181818;stroke-width:1.0;"/><path d="M556.2231,397.6978 Q555.6421,397.9966 555.0029,398.146 Q554.3638,398.2954 553.6582,398.2954 Q551.1514,398.2954 549.8315,396.6436 Q548.5117,394.9917 548.5117,391.8706 Q548.5117,388.7412 549.8315,387.0894 Q551.1514,385.4375 553.6582,385.4375 Q554.3638,385.4375 555.0112,385.5869 Q555.6587,385.7363 556.2231,386.0352 L556.2231,388.7578 Q555.5923,388.1768 554.9988,387.907 Q554.4053,387.6372 553.7744,387.6372 Q552.4297,387.6372 551.7449,388.7039 Q551.0601,389.7705 551.0601,391.8706 Q551.0601,393.9624 551.7449,395.0291 Q552.4297,396.0957 553.7744,396.0957 Q554.4053,396.0957 554.9988,395.8259 Q555.5923,395.5562 556.2231,394.9751 Z " fill="#000000"/><text fill="#000000" font-family="sans-serif" font-size="14" lengthAdjust="spacing" textLength="89" x="567.75" y="396.8457">LoggingType</text><line style="stroke:#181818;stroke-width:0.5;" x1="539.75" x2="658.75" y1="407.5547" y2="407.5547"/><line style="stroke:#181818;stroke-width:0.5;" x1="539.75" x2="658.75" y1="415.5547" y2="415.5547"/></g></a><!--class Logger--><a href="preadapter.Logger-diagram-simplified-grouped-per-namespace.svg" target="_top" title="preadapter.Logger-diagram-simplified-grouped-per-namespace.svg" xlink:actuate="onRequest" xlink:href="preadapter.Logger-diagram-simplified-grouped-per-namespace.svg" xlink:show="new" xlink:title="preadapter.Logger-diagram-simplified-grouped-per-namespace.svg" xlink:type="simple"><g id="elem_Logger"><rect codeLine="9" fill="#F1F1F1" height="48" id="Logger" rx="2.5" ry="2.5" style="stroke:#181818;stroke-width:0.5;" width="80" x="559.25" y="150.5547"/><ellipse cx="574.25" cy="166.5547" fill="#ADD1B2" rx="11" ry="11" style="stroke:#181818;stroke-width:1.0;"/><path d="M576.7231,172.6978 Q576.1421,172.9966 575.5029,173.146 Q574.8638,173.2954 574.1582,173.2954 Q571.6514,173.2954 570.3315,171.6436 Q569.0117,169.9917 569.0117,166.8706 Q569.0117,163.7412 570.3315,162.0894 Q571.6514,160.4375 574.1582,160.4375 Q574.8638,160.4375 575.5112,160.5869 Q576.1587,160.7363 576.7231,161.0352 L576.7231,163.7578 Q576.0923,163.1768 575.4988,162.907 Q574.9053,162.6372 574.2744,162.6372 Q572.9297,162.6372 572.2449,163.7039 Q571.5601,164.7705 571.5601,166.8706 Q571.5601,168.9624 572.2449,170.0291 Q572.9297,171.0957 574.2744,171.0957 Q574.9053,171.0957 575.4988,170.8259 Q576.0923,170.5562 576.7231,169.9751 Z " fill="#000000"/><text fill="#000000" font-family="sans-serif" font-size="14" lengthAdjust="spacing" textLength="48" x="588.25" y="171.8457">Logger</text><line style="stroke:#181818;stroke-width:0.5;" x1="560.25" x2="638.25" y1="182.5547" y2="182.5547"/><line style="stroke:#181818;stroke-width:0.5;" x1="560.25" x2="638.25" y1="190.5547" y2="190.5547"/></g></a><g id="elem_FloatingNote"><path d="M6.25,50.5547 L6.25,298.2129 L506.25,298.2129 L506.25,60.5547 L496.25,50.5547 L6.25,50.5547 " fill="#FEFFDD" style="stroke:#181818;stroke-width:0.5;"/><path d="M496.25,50.5547 L496.25,60.5547 L506.25,60.5547 L496.25,50.5547 " fill="#FEFFDD" style="stroke:#181818;stroke-width:1.0;"/><text fill="#000000" font-family="sans-serif" font-size="13" lengthAdjust="spacing" textLength="120" x="12.25" y="68.123">Your are analyzing:</text><text fill="#000000" font-family="sans-serif" font-size="13" lengthAdjust="spacing" textLength="152" x="12.25" y="83.4336">preadapter.LoggingType</text><text fill="#000000" font-family="sans-serif" font-size="13" font-weight="bold" lengthAdjust="spacing" textLength="67" x="168.25" y="83.4336">simplified</text><text fill="#000000" font-family="sans-serif" font-size="13" lengthAdjust="spacing" textLength="23" x="239.25" y="83.4336">and</text><text fill="#000000" font-family="sans-serif" font-size="13" font-weight="bold" lengthAdjust="spacing" textLength="166" x="266.25" y="83.4336">grouped per namespace</text><text fill="#000000" font-family="sans-serif" font-size="13" lengthAdjust="spacing" textLength="4" x="12.25" y="98.7441">&#160;</text><text fill="#000000" font-family="sans-serif" font-size="13" lengthAdjust="spacing" textLength="229" x="12.25" y="129.3652">You can click either the namespaces</text><text fill="#000000" font-family="sans-serif" font-size="13" lengthAdjust="spacing" textLength="266" x="12.25" y="144.6758">or class names for filtering them and their</text><text fill="#000000" font-family="sans-serif" font-size="13" lengthAdjust="spacing" textLength="130" x="12.25" y="159.9863">direct dependencies.</text><text fill="#000000" font-family="sans-serif" font-size="13" lengthAdjust="spacing" textLength="4" x="12.25" y="175.2969">&#160;</text><line style="stroke:#181818;stroke-width:1.0;" x1="7.25" x2="240.25" y1="109.1416" y2="109.1416"/><line style="stroke:#181818;stroke-width:1.0;" x1="7.25" x2="240.25" y1="111.1416" y2="111.1416"/><text fill="#000000" font-family="sans-serif" font-size="13" lengthAdjust="spacing" textLength="32" x="240.25" y="113.5547">Filter</text><line style="stroke:#181818;stroke-width:1.0;" x1="272.25" x2="505.25" y1="109.1416" y2="109.1416"/><line style="stroke:#181818;stroke-width:1.0;" x1="272.25" x2="505.25" y1="111.1416" y2="111.1416"/><ellipse cx="17.75" cy="205.1602" fill="#000000" rx="2.5" ry="2.5" style="stroke:#000000;stroke-width:0.0;"/><text fill="#000000" font-family="sans-serif" font-size="13" lengthAdjust="spacing" textLength="152" x="24.25" y="209.918">preadapter.LoggingType</text><text fill="#000000" font-family="sans-serif" font-size="13" font-weight="bold" lengthAdjust="spacing" textLength="55" x="180.25" y="209.918">detailed</text><text fill="#000000" font-family="sans-serif" font-size="13" lengthAdjust="spacing" textLength="23" x="239.25" y="209.918">and</text><text fill="#000000" font-family="sans-serif" font-size="13" font-weight="bold" lengthAdjust="spacing" textLength="166" x="266.25" y="209.918">grouped per namespace</text><text fill="#000000" font-family="sans-serif" font-size="13" lengthAdjust="spacing" textLength="4" x="432.25" y="209.918">:</text><text fill="#000000" font-family="sans-serif" font-size="13" lengthAdjust="spacing" textLength="12" x="12.25" y="225.2285">&#160;&#160;&#160;</text><a href="preadapter.LoggingType-diagram-detailed-grouped-per-namespace.svg" target="_top" title="preadapter.LoggingType-diagram-detailed-grouped-per-namespace.svg" xlink:actuate="onRequest" xlink:href="preadapter.LoggingType-diagram-detailed-grouped-per-namespace.svg" xlink:show="new" xlink:title="preadapter.LoggingType-diagram-detailed-grouped-per-namespace.svg" xlink:type="simple"><text fill="#0000FF" font-family="sans-serif" font-size="13" lengthAdjust="spacing" text-decoration="underline" textLength="461" x="24.25" y="225.2285">preadapter.LoggingType-diagram-detailed-grouped-per-namespace.svg</text></a><ellipse cx="17.75" cy="235.7813" fill="#000000" rx="2.5" ry="2.5" style="stroke:#000000;stroke-width:0.0;"/><text fill="#000000" font-family="sans-serif" font-size="13" lengthAdjust="spacing" textLength="78" x="24.25" y="240.5391">Full diagram</text><text fill="#000000" font-family="sans-serif" font-size="13" font-weight="bold" lengthAdjust="spacing" textLength="67" x="106.25" y="240.5391">simplified</text><text fill="#000000" font-family="sans-serif" font-size="13" lengthAdjust="spacing" textLength="23" x="177.25" y="240.5391">and</text><text fill="#000000" font-family="sans-serif" font-size="13" font-weight="bold" lengthAdjust="spacing" textLength="166" x="204.25" y="240.5391">grouped per namespace</text><text fill="#000000" font-family="sans-serif" font-size="13" lengthAdjust="spacing" textLength="4" x="370.25" y="240.5391">:</text><text fill="#000000" font-family="sans-serif" font-size="13" lengthAdjust="spacing" textLength="12" x="12.25" y="255.8496">&#160;&#160;&#160;</text><a href="full-diagram-simplified-grouped-per-namespace.svg" target="_top" title="full-diagram-simplified-grouped-per-namespace.svg" xlink:actuate="onRequest" xlink:href="full-diagram-simplified-grouped-per-namespace.svg" xlink:show="new" xlink:title="full-diagram-simplified-grouped-per-namespace.svg" xlink:type="simple"><text fill="#0000FF" font-family="sans-serif" font-size="13" lengthAdjust="spacing" text-decoration="underline" textLength="343" x="24.25" y="255.8496">full-diagram-simplified-grouped-per-namespace.svg</text></a><ellipse cx="17.75" cy="266.4023" fill="#000000" rx="2.5" ry="2.5" style="stroke:#000000;stroke-width:0.0;"/><text fill="#000000" font-family="sans-serif" font-size="13" lengthAdjust="spacing" textLength="41" x="24.25" y="271.1602">Home:</text><text fill="#000000" font-family="sans-serif" font-size="13" lengthAdjust="spacing" textLength="12" x="12.25" y="286.4707">&#160;&#160;&#160;</text><a href="index.html" target="_top" title="index.html" xlink:actuate="onRequest" xlink:href="index.html" xlink:show="new" xlink:title="index.html" xlink:type="simple"><text fill="#0000FF" font-family="sans-serif" font-size="13" lengthAdjust="spacing" text-decoration="underline" textLength="68" x="24.25" y="286.4707">index.html</text></a><line style="stroke:#181818;stroke-width:1.0;" x1="7.25" x2="219.25" y1="189.6943" y2="189.6943"/><line style="stroke:#181818;stroke-width:1.0;" x1="7.25" x2="219.25" y1="191.6943" y2="191.6943"/><text fill="#000000" font-family="sans-serif" font-size="13" lengthAdjust="spacing" textLength="74" x="219.25" y="194.1074">Select other</text><line style="stroke:#181818;stroke-width:1.0;" x1="293.25" x2="505.25" y1="189.6943" y2="189.6943"/><line style="stroke:#181818;stroke-width:1.0;" x1="293.25" x2="505.25" y1="191.6943" y2="191.6943"/></g><!--class EnumTypePlaceHolder--><a href="EnumTypePlaceHolder-diagram-simplified-grouped-per-namespace.svg" target="_top" title="EnumTypePlaceHolder-diagram-simplified-grouped-per-namespace.svg" xlink:actuate="onRequest" xlink:href="EnumTypePlaceHolder-diagram-simplified-grouped-per-namespace.svg" xlink:show="new" xlink:title="EnumTypePlaceHolder-diagram-simplified-grouped-per-namespace.svg" xlink:type="simple"><g id="elem_EnumTypePlaceHolder"><rect codeLine="3" fill="#F5FFFA" height="48" id="EnumTypePlaceHolder" rx="2.5" ry="2.5" style="stroke:#181818;stroke-width:0.5;" width="185" x="506.75" y="502.5547"/><ellipse cx="521.75" cy="518.5547" fill="#ADD1B2" rx="11" ry="11" style="stroke:#181818;stroke-width:1.0;"/><path d="M524.2231,524.6978 Q523.6421,524.9966 523.0029,525.146 Q522.3638,525.2954 521.6582,525.2954 Q519.1514,525.2954 517.8315,523.6436 Q516.5117,521.9917 516.5117,518.8706 Q516.5117,515.7412 517.8315,514.0894 Q519.1514,512.4375 521.6582,512.4375 Q522.3638,512.4375 523.0112,512.5869 Q523.6587,512.7363 524.2231,513.0352 L524.2231,515.7578 Q523.5923,515.1768 522.9988,514.907 Q522.4053,514.6372 521.7744,514.6372 Q520.4297,514.6372 519.7449,515.7039 Q519.0601,516.7705 519.0601,518.8706 Q519.0601,520.9624 519.7449,522.0291 Q520.4297,523.0957 521.7744,523.0957 Q522.4053,523.0957 522.9988,522.8259 Q523.5923,522.5562 524.2231,521.9751 Z " fill="#000000"/><text fill="#000000" font-family="sans-serif" font-size="14" lengthAdjust="spacing" textLength="153" x="535.75" y="523.8457">EnumTypePlaceHolder</text><line style="stroke:#181818;stroke-width:0.5;" x1="507.75" x2="690.75" y1="534.5547" y2="534.5547"/><line style="stroke:#181818;stroke-width:0.5;" x1="507.75" x2="690.75" y1="542.5547" y2="542.5547"/></g></a><!--link LoggingType to EnumTypePlaceHolder--><g id="link_LoggingType_EnumTypePlaceHolder"><path codeLine="22" d="M599.25,423.7747 C599.25,444.3847 599.25,474.5747 599.25,496.7247 " fill="none" id="LoggingType-to-EnumTypePlaceHolder" style="stroke:#6060BB;stroke-width:1.0;stroke-dasharray:7.0,7.0;"/><polygon fill="#6060BB" points="599.25,501.4647,603.25,492.4647,599.25,496.4647,595.25,492.4647,599.25,501.4647" style="stroke:#6060BB;stroke-width:1.0;"/><text fill="#000000" font-family="sans-serif" font-size="13" lengthAdjust="spacing" textLength="29" x="600.25" y="469.123">uses</text></g><!--link Logger to LoggingType--><g id="link_Logger_LoggingType"><path codeLine="23" d="M599.25,198.9947 C599.25,239.9847 599.25,324.5647 599.25,369.3147 " fill="none" id="Logger-to-LoggingType" style="stroke:#6060BB;stroke-width:1.0;stroke-dasharray:7.0,7.0;"/><polygon fill="#6060BB" points="599.25,374.0947,603.25,365.0947,599.25,369.0947,595.25,365.0947,599.25,374.0947" style="stroke:#6060BB;stroke-width:1.0;"/><text fill="#000000" font-family="sans-serif" font-size="13" lengthAdjust="spacing" textLength="29" x="600.25" y="342.123">uses</text></g><!--SRC=[jLHDQzj04BthLmp98I2mQdh8mSG-nDJaq8P2UocMCHljI1ww7s9tbSG9_U-TzPUILiOH94OOQJNpthmtCmeK5CALfoSSVHvEQeT2YZgWoxxQgY9J_LpN26dgITUAIaAPfY2CvAFAsQP62JKwC4AZhqM1QNhrAO9D4cC3mjalspWG3Zb7gFKJ0uvoymuikSdDU3mZnI3ZSMwO1mfXe51K_0QaiE9u_cjpFEJ6EWuGtczFeUJdSWF19SHelI7b6tAvaUIm222nHYFH58G-szB-G1NVs4WIoLCugaXY4AHEws5N060-xmOQI1AL4tgmXnliO0OCCpZ0PFw-MYnYFRD6ATWbzV9rNqV900VMDlqKxutLk8SWTkqnMmMj5eip41vcoeh0YcvvCf9j7xwOHaU1tnN3t5WbkPhvlEEqPorm_erCcBAP6fwJFya5J9NriSk2ZM6JxyasVkcRk-KXSwd8XzOBkBK6uGuBqNYCOxAROKyU-2h9a5-Xp98sestUgqxshVrvPywHeJev96-rQ8rAsOUDFvs4_yZOdVMbsVe_jRhcpu24ztSB7dZRWGK4uBtKQ7WpI_ZOdhVONNfOC5pmZhtf1nyM6ukCRNMeUE-iyO2FmOaYS1jAPtLR-uXZUuQ_K7jaJhFv-UNmSdXzlSWcdOiE8s2RFIJ_pzsht2Fu-_I_]--></g></svg>