<?xml version="1.0" encoding="us-ascii" standalone="no"?><svg xmlns="http://www.w3.org/2000/svg" xmlns:xlink="http://www.w3.org/1999/xlink" contentStyleType="text/css" height="453px" preserveAspectRatio="none" style="width:981px;height:453px;background:#FFFFFF;" version="1.1" viewBox="0 0 981 453" width="981px" zoomAndPan="magnify"><defs/><g><text fill="#000000" font-family="sans-serif" font-size="20" font-weight="bold" lengthAdjust="spacing" textLength="493" x="31" y="29.3359">preadapter.domain.ASTVisitor_DOT_ObjectType</text><text fill="#000000" font-family="sans-serif" font-size="20" font-weight="bold" lengthAdjust="spacing" textLength="104" x="531" y="29.3359">simplified</text><text fill="#000000" font-family="sans-serif" font-size="20" font-weight="bold" lengthAdjust="spacing" textLength="38" x="642" y="29.3359">and</text><text fill="#000000" font-family="sans-serif" font-size="20" font-weight="bold" lengthAdjust="spacing" textLength="249" x="687" y="29.3359">grouped per namespace</text><!--cluster preadapter--><g id="cluster_preadapter"><a href="preadapter-diagram-simplified-grouped-per-namespace.svg" target="_top" title="preadapter-diagram-simplified-grouped-per-namespace.svg" xlink:actuate="onRequest" xlink:href="preadapter-diagram-simplified-grouped-per-namespace.svg" xlink:show="new" xlink:title="preadapter-diagram-simplified-grouped-per-namespace.svg" xlink:type="simple"><path d="M672.5,72.5547 L750.5,72.5547 A3.75,3.75 0 0 1 753,75.0547 L760,95.043 L971.5,95.043 A2.5,2.5 0 0 1 974,97.543 L974,444.0547 A2.5,2.5 0 0 1 971.5,446.5547 L672.5,446.5547 A2.5,2.5 0 0 1 670,444.0547 L670,75.0547 A2.5,2.5 0 0 1 672.5,72.5547 " fill="none" style="stroke:#000000;stroke-width:1.5;"/><line style="stroke:#000000;stroke-width:1.5;" x1="670" x2="760" y1="95.043" y2="95.043"/><text fill="#000000" font-family="sans-serif" font-size="14" font-weight="bold" lengthAdjust="spacing" textLength="77" x="674" y="88.0898">preadapter</text></a></g><!--cluster domain--><g id="cluster_domain"><a href="preadapter.domain-diagram-simplified-grouped-per-namespace.svg" target="_top" title="preadapter.domain-diagram-simplified-grouped-per-namespace.svg" xlink:actuate="onRequest" xlink:href="preadapter.domain-diagram-simplified-grouped-per-namespace.svg" xlink:show="new" xlink:title="preadapter.domain-diagram-simplified-grouped-per-namespace.svg" xlink:type="simple"><path d="M696.5,115.5547 L751.5,115.5547 A3.75,3.75 0 0 1 754,118.0547 L761,138.043 L947.5,138.043 A2.5,2.5 0 0 1 950,140.543 L950,420.0547 A2.5,2.5 0 0 1 947.5,422.5547 L696.5,422.5547 A2.5,2.5 0 0 1 694,420.0547 L694,118.0547 A2.5,2.5 0 0 1 696.5,115.5547 " fill="none" style="stroke:#000000;stroke-width:1.5;"/><line style="stroke:#000000;stroke-width:1.5;" x1="694" x2="761" y1="138.043" y2="138.043"/><text fill="#000000" font-family="sans-serif" font-size="14" font-weight="bold" lengthAdjust="spacing" textLength="54" x="698" y="131.0898">domain</text></a></g><!--class ASTVisitor_DOT_ObjectType--><a href="preadapter.domain.ASTVisitor_DOT_ObjectType-diagram-simplified-grouped-per-namespace.svg" target="_top" title="preadapter.domain.ASTVisitor_DOT_ObjectType-diagram-simplified-grouped-per-namespace.svg" xlink:actuate="onRequest" xlink:href="preadapter.domain.ASTVisitor_DOT_ObjectType-diagram-simplified-grouped-per-namespace.svg" xlink:show="new" xlink:title="preadapter.domain.ASTVisitor_DOT_ObjectType-diagram-simplified-grouped-per-namespace.svg" xlink:type="simple"><g id="elem_ASTVisitor_DOT_ObjectType"><rect codeLine="5" fill="#FFFF00" height="48" id="ASTVisitor_DOT_ObjectType" rx="2.5" ry="2.5" style="stroke:#181818;stroke-width:0.5;" width="224" x="710" y="358.5547"/><ellipse cx="725" cy="374.5547" fill="#ADD1B2" rx="11" ry="11" style="stroke:#181818;stroke-width:1.0;"/><path d="M727.4731,380.6978 Q726.8921,380.9966 726.2529,381.146 Q725.6138,381.2954 724.9082,381.2954 Q722.4014,381.2954 721.0815,379.6436 Q719.7617,377.9917 719.7617,374.8706 Q719.7617,371.7412 721.0815,370.0894 Q722.4014,368.4375 724.9082,368.4375 Q725.6138,368.4375 726.2612,368.5869 Q726.9087,368.7363 727.4731,369.0352 L727.4731,371.7578 Q726.8423,371.1768 726.2488,370.907 Q725.6553,370.6372 725.0244,370.6372 Q723.6797,370.6372 722.9949,371.7039 Q722.3101,372.7705 722.3101,374.8706 Q722.3101,376.9624 722.9949,378.0291 Q723.6797,379.0957 725.0244,379.0957 Q725.6553,379.0957 726.2488,378.8259 Q726.8423,378.5562 727.4731,377.9751 Z " fill="#000000"/><text fill="#000000" font-family="sans-serif" font-size="14" lengthAdjust="spacing" textLength="192" x="739" y="379.8457">ASTVisitor_DOT_ObjectType</text><line style="stroke:#181818;stroke-width:0.5;" x1="711" x2="933" y1="390.5547" y2="390.5547"/><line style="stroke:#181818;stroke-width:0.5;" x1="711" x2="933" y1="398.5547" y2="398.5547"/></g></a><!--class ASTVisitor--><a href="preadapter.domain.ASTVisitor-diagram-simplified-grouped-per-namespace.svg" target="_top" title="preadapter.domain.ASTVisitor-diagram-simplified-grouped-per-namespace.svg" xlink:actuate="onRequest" xlink:href="preadapter.domain.ASTVisitor-diagram-simplified-grouped-per-namespace.svg" xlink:show="new" xlink:title="preadapter.domain.ASTVisitor-diagram-simplified-grouped-per-namespace.svg" xlink:type="simple"><g id="elem_ASTVisitor"><rect codeLine="7" fill="#F1F1F1" height="48" id="ASTVisitor" rx="2.5" ry="2.5" style="stroke:#181818;stroke-width:0.5;" width="103" x="770.5" y="150.5547"/><ellipse cx="785.5" cy="166.5547" fill="#ADD1B2" rx="11" ry="11" style="stroke:#181818;stroke-width:1.0;"/><path d="M787.9731,172.6978 Q787.3921,172.9966 786.7529,173.146 Q786.1138,173.2954 785.4082,173.2954 Q782.9014,173.2954 781.5815,171.6436 Q780.2617,169.9917 780.2617,166.8706 Q780.2617,163.7412 781.5815,162.0894 Q782.9014,160.4375 785.4082,160.4375 Q786.1138,160.4375 786.7612,160.5869 Q787.4087,160.7363 787.9731,161.0352 L787.9731,163.7578 Q787.3423,163.1768 786.7488,162.907 Q786.1553,162.6372 785.5244,162.6372 Q784.1797,162.6372 783.4949,163.7039 Q782.8101,164.7705 782.8101,166.8706 Q782.8101,168.9624 783.4949,170.0291 Q784.1797,171.0957 785.5244,171.0957 Q786.1553,171.0957 786.7488,170.8259 Q787.3423,170.5562 787.9731,169.9751 Z " fill="#000000"/><text fill="#000000" font-family="sans-serif" font-size="14" lengthAdjust="spacing" textLength="71" x="799.5" y="171.8457">ASTVisitor</text><line style="stroke:#181818;stroke-width:0.5;" x1="771.5" x2="872.5" y1="182.5547" y2="182.5547"/><line style="stroke:#181818;stroke-width:0.5;" x1="771.5" x2="872.5" y1="190.5547" y2="190.5547"/></g></a><g id="elem_FloatingNote"><path d="M6,50.5547 L6,298.2129 L654,298.2129 L654,60.5547 L644,50.5547 L6,50.5547 " fill="#FEFFDD" style="stroke:#181818;stroke-width:0.5;"/><path d="M644,50.5547 L644,60.5547 L654,60.5547 L644,50.5547 " fill="#FEFFDD" style="stroke:#181818;stroke-width:1.0;"/><text fill="#000000" font-family="sans-serif" font-size="13" lengthAdjust="spacing" textLength="120" x="12" y="68.123">Your are analyzing:</text><text fill="#000000" font-family="sans-serif" font-size="13" lengthAdjust="spacing" textLength="300" x="12" y="83.4336">preadapter.domain.ASTVisitor_DOT_ObjectType</text><text fill="#000000" font-family="sans-serif" font-size="13" font-weight="bold" lengthAdjust="spacing" textLength="67" x="316" y="83.4336">simplified</text><text fill="#000000" font-family="sans-serif" font-size="13" lengthAdjust="spacing" textLength="23" x="387" y="83.4336">and</text><text fill="#000000" font-family="sans-serif" font-size="13" font-weight="bold" lengthAdjust="spacing" textLength="166" x="414" y="83.4336">grouped per namespace</text><text fill="#000000" font-family="sans-serif" font-size="13" lengthAdjust="spacing" textLength="4" x="12" y="98.7441">&#160;</text><text fill="#000000" font-family="sans-serif" font-size="13" lengthAdjust="spacing" textLength="229" x="12" y="129.3652">You can click either the namespaces</text><text fill="#000000" font-family="sans-serif" font-size="13" lengthAdjust="spacing" textLength="266" x="12" y="144.6758">or class names for filtering them and their</text><text fill="#000000" font-family="sans-serif" font-size="13" lengthAdjust="spacing" textLength="130" x="12" y="159.9863">direct dependencies.</text><text fill="#000000" font-family="sans-serif" font-size="13" lengthAdjust="spacing" textLength="4" x="12" y="175.2969">&#160;</text><line style="stroke:#181818;stroke-width:1.0;" x1="7" x2="314" y1="109.1416" y2="109.1416"/><line style="stroke:#181818;stroke-width:1.0;" x1="7" x2="314" y1="111.1416" y2="111.1416"/><text fill="#000000" font-family="sans-serif" font-size="13" lengthAdjust="spacing" textLength="32" x="314" y="113.5547">Filter</text><line style="stroke:#181818;stroke-width:1.0;" x1="346" x2="653" y1="109.1416" y2="109.1416"/><line style="stroke:#181818;stroke-width:1.0;" x1="346" x2="653" y1="111.1416" y2="111.1416"/><ellipse cx="17.5" cy="205.1602" fill="#000000" rx="2.5" ry="2.5" style="stroke:#000000;stroke-width:0.0;"/><text fill="#000000" font-family="sans-serif" font-size="13" lengthAdjust="spacing" textLength="300" x="24" y="209.918">preadapter.domain.ASTVisitor_DOT_ObjectType</text><text fill="#000000" font-family="sans-serif" font-size="13" font-weight="bold" lengthAdjust="spacing" textLength="55" x="328" y="209.918">detailed</text><text fill="#000000" font-family="sans-serif" font-size="13" lengthAdjust="spacing" textLength="23" x="387" y="209.918">and</text><text fill="#000000" font-family="sans-serif" font-size="13" font-weight="bold" lengthAdjust="spacing" textLength="166" x="414" y="209.918">grouped per namespace</text><text fill="#000000" font-family="sans-serif" font-size="13" lengthAdjust="spacing" textLength="4" x="580" y="209.918">:</text><text fill="#000000" font-family="sans-serif" font-size="13" lengthAdjust="spacing" textLength="12" x="12" y="225.2285">&#160;&#160;&#160;</text><a href="preadapter.domain.ASTVisitor_DOT_ObjectType-diagram-detailed-grouped-per-namespace.svg" target="_top" title="preadapter.domain.ASTVisitor_DOT_ObjectType-diagram-detailed-grouped-per-namespace.svg" xlink:actuate="onRequest" xlink:href="preadapter.domain.ASTVisitor_DOT_ObjectType-diagram-detailed-grouped-per-namespace.svg" xlink:show="new" xlink:title="preadapter.domain.ASTVisitor_DOT_ObjectType-diagram-detailed-grouped-per-namespace.svg" xlink:type="simple"><text fill="#0000FF" font-family="sans-serif" font-size="13" lengthAdjust="spacing" text-decoration="underline" textLength="609" x="24" y="225.2285">preadapter.domain.ASTVisitor_DOT_ObjectType-diagram-detailed-grouped-per-namespace.svg</text></a><ellipse cx="17.5" cy="235.7813" fill="#000000" rx="2.5" ry="2.5" style="stroke:#000000;stroke-width:0.0;"/><text fill="#000000" font-family="sans-serif" font-size="13" lengthAdjust="spacing" textLength="78" x="24" y="240.5391">Full diagram</text><text fill="#000000" font-family="sans-serif" font-size="13" font-weight="bold" lengthAdjust="spacing" textLength="67" x="106" y="240.5391">simplified</text><text fill="#000000" font-family="sans-serif" font-size="13" lengthAdjust="spacing" textLength="23" x="177" y="240.5391">and</text><text fill="#000000" font-family="sans-serif" font-size="13" font-weight="bold" lengthAdjust="spacing" textLength="166" x="204" y="240.5391">grouped per namespace</text><text fill="#000000" font-family="sans-serif" font-size="13" lengthAdjust="spacing" textLength="4" x="370" y="240.5391">:</text><text fill="#000000" font-family="sans-serif" font-size="13" lengthAdjust="spacing" textLength="12" x="12" y="255.8496">&#160;&#160;&#160;</text><a href="full-diagram-simplified-grouped-per-namespace.svg" target="_top" title="full-diagram-simplified-grouped-per-namespace.svg" xlink:actuate="onRequest" xlink:href="full-diagram-simplified-grouped-per-namespace.svg" xlink:show="new" xlink:title="full-diagram-simplified-grouped-per-namespace.svg" xlink:type="simple"><text fill="#0000FF" font-family="sans-serif" font-size="13" lengthAdjust="spacing" text-decoration="underline" textLength="343" x="24" y="255.8496">full-diagram-simplified-grouped-per-namespace.svg</text></a><ellipse cx="17.5" cy="266.4023" fill="#000000" rx="2.5" ry="2.5" style="stroke:#000000;stroke-width:0.0;"/><text fill="#000000" font-family="sans-serif" font-size="13" lengthAdjust="spacing" textLength="41" x="24" y="271.1602">Home:</text><text fill="#000000" font-family="sans-serif" font-size="13" lengthAdjust="spacing" textLength="12" x="12" y="286.4707">&#160;&#160;&#160;</text><a href="index.html" target="_top" title="index.html" xlink:actuate="onRequest" xlink:href="index.html" xlink:show="new" xlink:title="index.html" xlink:type="simple"><text fill="#0000FF" font-family="sans-serif" font-size="13" lengthAdjust="spacing" text-decoration="underline" textLength="68" x="24" y="286.4707">index.html</text></a><line style="stroke:#181818;stroke-width:1.0;" x1="7" x2="293" y1="189.6943" y2="189.6943"/><line style="stroke:#181818;stroke-width:1.0;" x1="7" x2="293" y1="191.6943" y2="191.6943"/><text fill="#000000" font-family="sans-serif" font-size="13" lengthAdjust="spacing" textLength="74" x="293" y="194.1074">Select other</text><line style="stroke:#181818;stroke-width:1.0;" x1="367" x2="653" y1="189.6943" y2="189.6943"/><line style="stroke:#181818;stroke-width:1.0;" x1="367" x2="653" y1="191.6943" y2="191.6943"/></g><!--reverse link ASTVisitor to ASTVisitor_DOT_ObjectType--><g id="link_ASTVisitor_ASTVisitor_DOT_ObjectType"><path codeLine="20" d="M822,214.5147 C822,256.8447 822,323.1047 822,358.0947 " fill="none" id="ASTVisitor-backto-ASTVisitor_DOT_ObjectType" style="stroke:#10BBBB;stroke-width:1.0;"/><ellipse cx="822" cy="207.7847" fill="#FFFFFF" rx="8" ry="8" style="stroke:#10BBBB;stroke-width:1.0;"/><line style="stroke:#10BBBB;stroke-width:1.0;" x1="822" x2="822" y1="215.7847" y2="199.7847"/><line style="stroke:#10BBBB;stroke-width:1.0;" x1="814" x2="830" y1="207.7847" y2="207.7847"/></g><!--SRC=[jLHDQzj04BtxLmp98Q0YDUtHn84smVIK768AnH9chHtPa-w7s5qbSKh-UsTjsKgfgQs25o6atPdttdnjeA0GhZozul3pvNNjK4XH1tIPj5gGoRuyJBwJfs3TxFP-ChkVFs8P9giQ8KaywLfHHIYJ18IHlBLmjgbHGeqEZD3eQr5YabnzZ0pN0sC3mjaFspWG3jb7gDKhcSKmDwUYparkHgCnAKOUZNB3v50A0wMYyYSWXINRywlpyP0RwzX0UB_PXOh_gpK4YutMUatA7-Ho8ycnCf1Oev5eIaAVRMWVKCKJ6qaYUGBzmfGO1Ad3GNB-060wxO6UIX8B9tIwvKXRx9InqnrsvfyMHH6LZnkbe7NgLO6jk8e1TgoT-o7URrRZ5e8ulo_PCcXL56SWF8oL5O5hSiUDDTWvlylo7qdfoGw_zaAsgTsNxlu4qFPPdxxulpeVAUbyXKhPvxMqjwFa7T3JLq3BV75ZTSsNX8HJrm2U-H803ZC0Zwj6mmDRmLe3t2ZhuyWBxdrcUYBR-9blvhCToamHEtOQxwn1c6Cf6e_npcXlEKyU-Ad8a5-YpDvXTxwR00PlUm-xGDa0BdZUZbfmCjieClQ6GyKpQ8q7V0bEb85hLZchE-r3jlshJeD_zjI7T7h-wV8hhoBjDHo_0G00]--></g></svg>