<?xml version="1.0" encoding="us-ascii" standalone="no"?><svg xmlns="http://www.w3.org/2000/svg" xmlns:xlink="http://www.w3.org/1999/xlink" contentStyleType="text/css" height="453px" preserveAspectRatio="none" style="width:1181px;height:453px;background:#FFFFFF;" version="1.1" viewBox="0 0 1181 453" width="1181px" zoomAndPan="magnify"><defs/><g><text fill="#000000" font-family="sans-serif" font-size="20" font-weight="bold" lengthAdjust="spacing" textLength="637" x="69" y="29.3359">preadapter.domain.Datastructure_DOT_Method_DOT_Variable</text><text fill="#000000" font-family="sans-serif" font-size="20" font-weight="bold" lengthAdjust="spacing" textLength="84" x="713" y="29.3359">detailed</text><text fill="#000000" font-family="sans-serif" font-size="20" font-weight="bold" lengthAdjust="spacing" textLength="38" x="804" y="29.3359">and</text><text fill="#000000" font-family="sans-serif" font-size="20" font-weight="bold" lengthAdjust="spacing" textLength="249" x="849" y="29.3359">grouped per namespace</text><!--cluster preadapter--><g id="cluster_preadapter"><a href="preadapter-diagram-detailed-grouped-per-namespace.svg" target="_top" title="preadapter-diagram-detailed-grouped-per-namespace.svg" xlink:actuate="onRequest" xlink:href="preadapter-diagram-detailed-grouped-per-namespace.svg" xlink:show="new" xlink:title="preadapter-diagram-detailed-grouped-per-namespace.svg" xlink:type="simple"><path d="M774.5,72.5547 L852.5,72.5547 A3.75,3.75 0 0 1 855,75.0547 L862,95.043 L1171.5,95.043 A2.5,2.5 0 0 1 1174,97.543 L1174,444.0547 A2.5,2.5 0 0 1 1171.5,446.5547 L774.5,446.5547 A2.5,2.5 0 0 1 772,444.0547 L772,75.0547 A2.5,2.5 0 0 1 774.5,72.5547 " fill="none" style="stroke:#000000;stroke-width:1.5;"/><line style="stroke:#000000;stroke-width:1.5;" x1="772" x2="862" y1="95.043" y2="95.043"/><text fill="#000000" font-family="sans-serif" font-size="14" font-weight="bold" lengthAdjust="spacing" textLength="77" x="776" y="88.0898">preadapter</text></a></g><!--cluster domain--><g id="cluster_domain"><a href="preadapter.domain-diagram-detailed-grouped-per-namespace.svg" target="_top" title="preadapter.domain-diagram-detailed-grouped-per-namespace.svg" xlink:actuate="onRequest" xlink:href="preadapter.domain-diagram-detailed-grouped-per-namespace.svg" xlink:show="new" xlink:title="preadapter.domain-diagram-detailed-grouped-per-namespace.svg" xlink:type="simple"><path d="M798.5,115.5547 L853.5,115.5547 A3.75,3.75 0 0 1 856,118.0547 L863,138.043 L1147.5,138.043 A2.5,2.5 0 0 1 1150,140.543 L1150,420.0547 A2.5,2.5 0 0 1 1147.5,422.5547 L798.5,422.5547 A2.5,2.5 0 0 1 796,420.0547 L796,118.0547 A2.5,2.5 0 0 1 798.5,115.5547 " fill="none" style="stroke:#000000;stroke-width:1.5;"/><line style="stroke:#000000;stroke-width:1.5;" x1="796" x2="863" y1="138.043" y2="138.043"/><text fill="#000000" font-family="sans-serif" font-size="14" font-weight="bold" lengthAdjust="spacing" textLength="54" x="800" y="131.0898">domain</text></a></g><!--class Datastructure_DOT_Method_DOT_Variable--><a href="preadapter.domain.Datastructure_DOT_Method_DOT_Variable-diagram-detailed-grouped-per-namespace.svg" target="_top" title="preadapter.domain.Datastructure_DOT_Method_DOT_Variable-diagram-detailed-grouped-per-namespace.svg" xlink:actuate="onRequest" xlink:href="preadapter.domain.Datastructure_DOT_Method_DOT_Variable-diagram-detailed-grouped-per-namespace.svg" xlink:show="new" xlink:title="preadapter.domain.Datastructure_DOT_Method_DOT_Variable-diagram-detailed-grouped-per-namespace.svg" xlink:type="simple"><g id="elem_Datastructure_DOT_Method_DOT_Variable"><rect codeLine="6" fill="#FFFF00" height="48" id="Datastructure_DOT_Method_DOT_Variable" rx="2.5" ry="2.5" style="stroke:#181818;stroke-width:0.5;" width="321" x="812.5" y="358.5547"/><ellipse cx="827.5" cy="374.5547" fill="#ADD1B2" rx="11" ry="11" style="stroke:#181818;stroke-width:1.0;"/><path d="M829.9731,380.6978 Q829.3921,380.9966 828.7529,381.146 Q828.1138,381.2954 827.4082,381.2954 Q824.9014,381.2954 823.5815,379.6436 Q822.2617,377.9917 822.2617,374.8706 Q822.2617,371.7412 823.5815,370.0894 Q824.9014,368.4375 827.4082,368.4375 Q828.1138,368.4375 828.7612,368.5869 Q829.4087,368.7363 829.9731,369.0352 L829.9731,371.7578 Q829.3423,371.1768 828.7488,370.907 Q828.1553,370.6372 827.5244,370.6372 Q826.1797,370.6372 825.4949,371.7039 Q824.8101,372.7705 824.8101,374.8706 Q824.8101,376.9624 825.4949,378.0291 Q826.1797,379.0957 827.5244,379.0957 Q828.1553,379.0957 828.7488,378.8259 Q829.3423,378.5562 829.9731,377.9751 Z " fill="#000000"/><text fill="#000000" font-family="sans-serif" font-size="14" lengthAdjust="spacing" textLength="289" x="841.5" y="379.8457">Datastructure_DOT_Method_DOT_Variable</text><line style="stroke:#181818;stroke-width:0.5;" x1="813.5" x2="1132.5" y1="390.5547" y2="390.5547"/><line style="stroke:#181818;stroke-width:0.5;" x1="813.5" x2="1132.5" y1="398.5547" y2="398.5547"/></g></a><!--class Datastructure_DOT_Method--><a href="preadapter.domain.Datastructure_DOT_Method-diagram-detailed-grouped-per-namespace.svg" target="_top" title="preadapter.domain.Datastructure_DOT_Method-diagram-detailed-grouped-per-namespace.svg" xlink:actuate="onRequest" xlink:href="preadapter.domain.Datastructure_DOT_Method-diagram-detailed-grouped-per-namespace.svg" xlink:show="new" xlink:title="preadapter.domain.Datastructure_DOT_Method-diagram-detailed-grouped-per-namespace.svg" xlink:type="simple"><g id="elem_Datastructure_DOT_Method"><rect codeLine="8" fill="#F1F1F1" height="48" id="Datastructure_DOT_Method" rx="2.5" ry="2.5" style="stroke:#181818;stroke-width:0.5;" width="221" x="862.5" y="150.5547"/><ellipse cx="877.5" cy="166.5547" fill="#ADD1B2" rx="11" ry="11" style="stroke:#181818;stroke-width:1.0;"/><path d="M879.9731,172.6978 Q879.3921,172.9966 878.7529,173.146 Q878.1138,173.2954 877.4082,173.2954 Q874.9014,173.2954 873.5815,171.6436 Q872.2617,169.9917 872.2617,166.8706 Q872.2617,163.7412 873.5815,162.0894 Q874.9014,160.4375 877.4082,160.4375 Q878.1138,160.4375 878.7612,160.5869 Q879.4087,160.7363 879.9731,161.0352 L879.9731,163.7578 Q879.3423,163.1768 878.7488,162.907 Q878.1553,162.6372 877.5244,162.6372 Q876.1797,162.6372 875.4949,163.7039 Q874.8101,164.7705 874.8101,166.8706 Q874.8101,168.9624 875.4949,170.0291 Q876.1797,171.0957 877.5244,171.0957 Q878.1553,171.0957 878.7488,170.8259 Q879.3423,170.5562 879.9731,169.9751 Z " fill="#000000"/><text fill="#000000" font-family="sans-serif" font-size="14" lengthAdjust="spacing" textLength="189" x="891.5" y="171.8457">Datastructure_DOT_Method</text><line style="stroke:#181818;stroke-width:0.5;" x1="863.5" x2="1082.5" y1="182.5547" y2="182.5547"/><line style="stroke:#181818;stroke-width:0.5;" x1="863.5" x2="1082.5" y1="190.5547" y2="190.5547"/></g></a><g id="elem_FloatingNote"><path d="M6,50.5547 L6,298.2129 L756,298.2129 L756,60.5547 L746,50.5547 L6,50.5547 " fill="#FEFFDD" style="stroke:#181818;stroke-width:0.5;"/><path d="M746,50.5547 L746,60.5547 L756,60.5547 L746,50.5547 " fill="#FEFFDD" style="stroke:#181818;stroke-width:1.0;"/><text fill="#000000" font-family="sans-serif" font-size="13" lengthAdjust="spacing" textLength="120" x="12" y="68.123">Your are analyzing:</text><text fill="#000000" font-family="sans-serif" font-size="13" lengthAdjust="spacing" textLength="389" x="12" y="83.4336">preadapter.domain.Datastructure_DOT_Method_DOT_Variable</text><text fill="#000000" font-family="sans-serif" font-size="13" font-weight="bold" lengthAdjust="spacing" textLength="55" x="405" y="83.4336">detailed</text><text fill="#000000" font-family="sans-serif" font-size="13" lengthAdjust="spacing" textLength="23" x="464" y="83.4336">and</text><text fill="#000000" font-family="sans-serif" font-size="13" font-weight="bold" lengthAdjust="spacing" textLength="166" x="491" y="83.4336">grouped per namespace</text><text fill="#000000" font-family="sans-serif" font-size="13" lengthAdjust="spacing" textLength="4" x="12" y="98.7441">&#160;</text><text fill="#000000" font-family="sans-serif" font-size="13" lengthAdjust="spacing" textLength="229" x="12" y="129.3652">You can click either the namespaces</text><text fill="#000000" font-family="sans-serif" font-size="13" lengthAdjust="spacing" textLength="266" x="12" y="144.6758">or class names for filtering them and their</text><text fill="#000000" font-family="sans-serif" font-size="13" lengthAdjust="spacing" textLength="130" x="12" y="159.9863">direct dependencies.</text><text fill="#000000" font-family="sans-serif" font-size="13" lengthAdjust="spacing" textLength="4" x="12" y="175.2969">&#160;</text><line style="stroke:#181818;stroke-width:1.0;" x1="7" x2="365" y1="109.1416" y2="109.1416"/><line style="stroke:#181818;stroke-width:1.0;" x1="7" x2="365" y1="111.1416" y2="111.1416"/><text fill="#000000" font-family="sans-serif" font-size="13" lengthAdjust="spacing" textLength="32" x="365" y="113.5547">Filter</text><line style="stroke:#181818;stroke-width:1.0;" x1="397" x2="755" y1="109.1416" y2="109.1416"/><line style="stroke:#181818;stroke-width:1.0;" x1="397" x2="755" y1="111.1416" y2="111.1416"/><ellipse cx="17.5" cy="205.1602" fill="#000000" rx="2.5" ry="2.5" style="stroke:#000000;stroke-width:0.0;"/><text fill="#000000" font-family="sans-serif" font-size="13" lengthAdjust="spacing" textLength="389" x="24" y="209.918">preadapter.domain.Datastructure_DOT_Method_DOT_Variable</text><text fill="#000000" font-family="sans-serif" font-size="13" font-weight="bold" lengthAdjust="spacing" textLength="67" x="417" y="209.918">simplified</text><text fill="#000000" font-family="sans-serif" font-size="13" lengthAdjust="spacing" textLength="23" x="488" y="209.918">and</text><text fill="#000000" font-family="sans-serif" font-size="13" font-weight="bold" lengthAdjust="spacing" textLength="166" x="515" y="209.918">grouped per namespace</text><text fill="#000000" font-family="sans-serif" font-size="13" lengthAdjust="spacing" textLength="4" x="681" y="209.918">:</text><text fill="#000000" font-family="sans-serif" font-size="13" lengthAdjust="spacing" textLength="12" x="12" y="225.2285">&#160;&#160;&#160;</text><a href="preadapter.domain.Datastructure_DOT_Method_DOT_Variable-diagram-simplified-grouped-per-namespace.svg" target="_top" title="preadapter.domain.Datastructure_DOT_Method_DOT_Variable-diagram-simplified-grouped-per-namespace.svg" xlink:actuate="onRequest" xlink:href="preadapter.domain.Datastructure_DOT_Method_DOT_Variable-diagram-simplified-grouped-per-namespace.svg" xlink:show="new" xlink:title="preadapter.domain.Datastructure_DOT_Method_DOT_Variable-diagram-simplified-grouped-per-namespace.svg" xlink:type="simple"><text fill="#0000FF" font-family="sans-serif" font-size="13" lengthAdjust="spacing" text-decoration="underline" textLength="711" x="24" y="225.2285">preadapter.domain.Datastructure_DOT_Method_DOT_Variable-diagram-simplified-grouped-per-namespace.svg</text></a><ellipse cx="17.5" cy="235.7813" fill="#000000" rx="2.5" ry="2.5" style="stroke:#000000;stroke-width:0.0;"/><text fill="#000000" font-family="sans-serif" font-size="13" lengthAdjust="spacing" textLength="78" x="24" y="240.5391">Full diagram</text><text fill="#000000" font-family="sans-serif" font-size="13" font-weight="bold" lengthAdjust="spacing" textLength="55" x="106" y="240.5391">detailed</text><text fill="#000000" font-family="sans-serif" font-size="13" lengthAdjust="spacing" textLength="23" x="165" y="240.5391">and</text><text fill="#000000" font-family="sans-serif" font-size="13" font-weight="bold" lengthAdjust="spacing" textLength="166" x="192" y="240.5391">grouped per namespace</text><text fill="#000000" font-family="sans-serif" font-size="13" lengthAdjust="spacing" textLength="4" x="358" y="240.5391">:</text><text fill="#000000" font-family="sans-serif" font-size="13" lengthAdjust="spacing" textLength="12" x="12" y="255.8496">&#160;&#160;&#160;</text><a href="full-diagram-detailed-grouped-per-namespace.svg" target="_top" title="full-diagram-detailed-grouped-per-namespace.svg" xlink:actuate="onRequest" xlink:href="full-diagram-detailed-grouped-per-namespace.svg" xlink:show="new" xlink:title="full-diagram-detailed-grouped-per-namespace.svg" xlink:type="simple"><text fill="#0000FF" font-family="sans-serif" font-size="13" lengthAdjust="spacing" text-decoration="underline" textLength="330" x="24" y="255.8496">full-diagram-detailed-grouped-per-namespace.svg</text></a><ellipse cx="17.5" cy="266.4023" fill="#000000" rx="2.5" ry="2.5" style="stroke:#000000;stroke-width:0.0;"/><text fill="#000000" font-family="sans-serif" font-size="13" lengthAdjust="spacing" textLength="41" x="24" y="271.1602">Home:</text><text fill="#000000" font-family="sans-serif" font-size="13" lengthAdjust="spacing" textLength="12" x="12" y="286.4707">&#160;&#160;&#160;</text><a href="index.html" target="_top" title="index.html" xlink:actuate="onRequest" xlink:href="index.html" xlink:show="new" xlink:title="index.html" xlink:type="simple"><text fill="#0000FF" font-family="sans-serif" font-size="13" lengthAdjust="spacing" text-decoration="underline" textLength="68" x="24" y="286.4707">index.html</text></a><line style="stroke:#181818;stroke-width:1.0;" x1="7" x2="344" y1="189.6943" y2="189.6943"/><line style="stroke:#181818;stroke-width:1.0;" x1="7" x2="344" y1="191.6943" y2="191.6943"/><text fill="#000000" font-family="sans-serif" font-size="13" lengthAdjust="spacing" textLength="74" x="344" y="194.1074">Select other</text><line style="stroke:#181818;stroke-width:1.0;" x1="418" x2="755" y1="189.6943" y2="189.6943"/><line style="stroke:#181818;stroke-width:1.0;" x1="418" x2="755" y1="191.6943" y2="191.6943"/></g><!--reverse link Datastructure_DOT_Method to Datastructure_DOT_Method_DOT_Variable--><g id="link_Datastructure_DOT_Method_Datastructure_DOT_Method_DOT_Variable"><path codeLine="21" d="M973,214.8247 C973,214.8247 973,358.1247 973,358.1247 " fill="none" id="Datastructure_DOT_Method-backto-Datastructure_DOT_Method_DOT_Variable" style="stroke:#10BBBB;stroke-width:1.0;"/><ellipse cx="973" cy="207.8247" fill="#FFFFFF" rx="8" ry="8" style="stroke:#10BBBB;stroke-width:1.0;"/><line style="stroke:#10BBBB;stroke-width:1.0;" x1="973" x2="973" y1="215.8247" y2="199.8247"/><line style="stroke:#10BBBB;stroke-width:1.0;" x1="965" x2="981" y1="207.8247" y2="207.8247"/></g><!--SRC=[jLHDQzj04BthLmp98Q0Y9UtHn3aqmVJIzD1IA9OHO-t87hBQ5Rkh94x9V-_8bgs46X8vM0YnakRDU_FfxzZKwB02pOR2gYQmBYnj53XeWalFJpJwSd5LEqA5TI2NAbiXc_G60_hWcY8qZlAR7x_oxoH0jJx-HiSu5mTnh2WWQr9n36YKV5WuszIae2O71YloDHOKnvVdBTTLP6mWEFbZ6mVeI32eLqzi5gFC75z4PZ8p7azO2yTud1cH0GKQA3GNTq0Sbc8lZnxZ8JFMYG5wl_aAfRoNQnSYkxMkrgHoO9SPnOwA08fgCefCmUJJ3UrFqkqVsvAqv34S7h3dgjPSyjiXIru1O3eza2jHZ0lfdwHdJ3gcH9YI7LFgxnUpMHlLfD4QEjY0sco5bWBViMx1Rt5-inLj7R3a_J5TXahFPYU07YRQOf1QtKhhHJlmY-o_IiyWRlYxrs6Nudrf7-eUkjuxj5S-Nlbt2JrTaTRsOItu-G3HWtGEazPfEhksbQn2QRpZLWmUP8s0X1z01huY8oDVmbe1N6lhswM1CY72Sy-syRblvldEIwvPWBt2Msi8vbHWuwdTEjt6zEn1xf8D-oMfz8Nl7hkH7ptl_Tc7AGPm9dFvhWkEPjkAR7l6aPPfjSO3FGQ7HP2AbSvMlVQHsFvNfMX0htrAfgUVBxxADKiE7gn_]--></g></svg>