<?xml version="1.0" encoding="us-ascii" standalone="no"?><svg xmlns="http://www.w3.org/2000/svg" xmlns:xlink="http://www.w3.org/1999/xlink" contentStyleType="text/css" height="618px" preserveAspectRatio="none" style="width:3911px;height:618px;background:#FFFFFF;" version="1.1" viewBox="0 0 3911 618" width="3911px" zoomAndPan="magnify"><defs/><g><text fill="#000000" font-family="sans-serif" font-size="20" font-weight="bold" lengthAdjust="spacing" textLength="261" x="1612.25" y="29.3359">preadapter.infrastructure</text><text fill="#000000" font-family="sans-serif" font-size="20" font-weight="bold" lengthAdjust="spacing" textLength="104" x="1880.25" y="29.3359">simplified</text><text fill="#000000" font-family="sans-serif" font-size="20" font-weight="bold" lengthAdjust="spacing" textLength="38" x="1991.25" y="29.3359">and</text><text fill="#000000" font-family="sans-serif" font-size="20" font-weight="bold" lengthAdjust="spacing" textLength="249" x="2036.25" y="29.3359">grouped per namespace</text><!--cluster DumperOptions--><g id="cluster_DumperOptions"><path d="M3776,361.5547 L3892,361.5547 A3.75,3.75 0 0 1 3894.5,364.0547 L3901.5,384.043 L3902,384.043 A2.5,2.5 0 0 1 3904.5,386.543 L3904.5,458.0547 A2.5,2.5 0 0 1 3902,460.5547 L3776,460.5547 A2.5,2.5 0 0 1 3773.5,458.0547 L3773.5,364.0547 A2.5,2.5 0 0 1 3776,361.5547 " fill="none" style="stroke:#000000;stroke-width:1.5;"/><line style="stroke:#000000;stroke-width:1.5;" x1="3773.5" x2="3901.5" y1="384.043" y2="384.043"/><text fill="#000000" font-family="sans-serif" font-size="14" font-weight="bold" lengthAdjust="spacing" textLength="115" x="3777.5" y="377.0898">DumperOptions</text></g><!--cluster preadapter--><g id="cluster_preadapter"><a href="preadapter-diagram-simplified-grouped-per-namespace.svg" target="_top" title="preadapter-diagram-simplified-grouped-per-namespace.svg" xlink:actuate="onRequest" xlink:href="preadapter-diagram-simplified-grouped-per-namespace.svg" xlink:show="new" xlink:title="preadapter-diagram-simplified-grouped-per-namespace.svg" xlink:type="simple"><path d="M530,72.5547 L608,72.5547 A3.75,3.75 0 0 1 610.5,75.0547 L617.5,95.043 L986,95.043 A2.5,2.5 0 0 1 988.5,97.543 L988.5,609.0547 A2.5,2.5 0 0 1 986,611.5547 L530,611.5547 A2.5,2.5 0 0 1 527.5,609.0547 L527.5,75.0547 A2.5,2.5 0 0 1 530,72.5547 " fill="none" style="stroke:#000000;stroke-width:1.5;"/><line style="stroke:#000000;stroke-width:1.5;" x1="527.5" x2="617.5" y1="95.043" y2="95.043"/><text fill="#000000" font-family="sans-serif" font-size="14" font-weight="bold" lengthAdjust="spacing" textLength="77" x="531.5" y="88.0898">preadapter</text></a></g><!--cluster domain--><g id="cluster_domain"><a href="preadapter.domain-diagram-simplified-grouped-per-namespace.svg" target="_top" title="preadapter.domain-diagram-simplified-grouped-per-namespace.svg" xlink:actuate="onRequest" xlink:href="preadapter.domain-diagram-simplified-grouped-per-namespace.svg" xlink:show="new" xlink:title="preadapter.domain-diagram-simplified-grouped-per-namespace.svg" xlink:type="simple"><path d="M645,361.5547 L700,361.5547 A3.75,3.75 0 0 1 702.5,364.0547 L709.5,384.043 L962,384.043 A2.5,2.5 0 0 1 964.5,386.543 L964.5,585.0547 A2.5,2.5 0 0 1 962,587.5547 L645,587.5547 A2.5,2.5 0 0 1 642.5,585.0547 L642.5,364.0547 A2.5,2.5 0 0 1 645,361.5547 " fill="none" style="stroke:#000000;stroke-width:1.5;"/><line style="stroke:#000000;stroke-width:1.5;" x1="642.5" x2="709.5" y1="384.043" y2="384.043"/><text fill="#000000" font-family="sans-serif" font-size="14" font-weight="bold" lengthAdjust="spacing" textLength="54" x="646.5" y="377.0898">domain</text></a></g><!--cluster infrastructure--><g id="cluster_infrastructure"><a href="preadapter.infrastructure-diagram-simplified-grouped-per-namespace.svg" target="_top" title="preadapter.infrastructure-diagram-simplified-grouped-per-namespace.svg" xlink:actuate="onRequest" xlink:href="preadapter.infrastructure-diagram-simplified-grouped-per-namespace.svg" xlink:show="new" xlink:title="preadapter.infrastructure-diagram-simplified-grouped-per-namespace.svg" xlink:type="simple"><path d="M829,115.5547 L929,115.5547 A3.75,3.75 0 0 1 931.5,118.0547 L938.5,138.043 L962,138.043 A2.5,2.5 0 0 1 964.5,140.543 L964.5,212.0547 A2.5,2.5 0 0 1 962,214.5547 L829,214.5547 A2.5,2.5 0 0 1 826.5,212.0547 L826.5,118.0547 A2.5,2.5 0 0 1 829,115.5547 " fill="none" style="stroke:#000000;stroke-width:1.5;"/><line style="stroke:#000000;stroke-width:1.5;" x1="826.5" x2="938.5" y1="138.043" y2="138.043"/><text fill="#000000" font-family="sans-serif" font-size="14" font-weight="bold" lengthAdjust="spacing" textLength="99" x="830.5" y="131.0898">infrastructure</text></a></g><!--class FlowStyle--><a href="DumperOptions.FlowStyle-diagram-simplified-grouped-per-namespace.svg" target="_top" title="DumperOptions.FlowStyle-diagram-simplified-grouped-per-namespace.svg" xlink:actuate="onRequest" xlink:href="DumperOptions.FlowStyle-diagram-simplified-grouped-per-namespace.svg" xlink:show="new" xlink:title="DumperOptions.FlowStyle-diagram-simplified-grouped-per-namespace.svg" xlink:type="simple"><g id="elem_FlowStyle"><rect codeLine="3" fill="#F5FFFA" height="48" id="FlowStyle" rx="2.5" ry="2.5" style="stroke:#181818;stroke-width:0.5;" width="96" x="3790.5" y="396.5547"/><ellipse cx="3805.5" cy="412.5547" fill="#ADD1B2" rx="11" ry="11" style="stroke:#181818;stroke-width:1.0;"/><path d="M3807.9731,418.6978 Q3807.3921,418.9966 3806.7529,419.146 Q3806.1138,419.2954 3805.4082,419.2954 Q3802.9014,419.2954 3801.5815,417.6436 Q3800.2617,415.9917 3800.2617,412.8706 Q3800.2617,409.7412 3801.5815,408.0894 Q3802.9014,406.4375 3805.4082,406.4375 Q3806.1138,406.4375 3806.7612,406.5869 Q3807.4087,406.7363 3807.9731,407.0352 L3807.9731,409.7578 Q3807.3423,409.1768 3806.7488,408.907 Q3806.1553,408.6372 3805.5244,408.6372 Q3804.1797,408.6372 3803.4949,409.7039 Q3802.8101,410.7705 3802.8101,412.8706 Q3802.8101,414.9624 3803.4949,416.0291 Q3804.1797,417.0957 3805.5244,417.0957 Q3806.1553,417.0957 3806.7488,416.8259 Q3807.3423,416.5562 3807.9731,415.9751 Z " fill="#000000"/><text fill="#000000" font-family="sans-serif" font-size="14" lengthAdjust="spacing" textLength="64" x="3819.5" y="417.8457">FlowStyle</text><line style="stroke:#181818;stroke-width:0.5;" x1="3791.5" x2="3885.5" y1="428.5547" y2="428.5547"/><line style="stroke:#181818;stroke-width:0.5;" x1="3791.5" x2="3885.5" y1="436.5547" y2="436.5547"/></g></a><!--class Logger--><a href="preadapter.Logger-diagram-simplified-grouped-per-namespace.svg" target="_top" title="preadapter.Logger-diagram-simplified-grouped-per-namespace.svg" xlink:actuate="onRequest" xlink:href="preadapter.Logger-diagram-simplified-grouped-per-namespace.svg" xlink:show="new" xlink:title="preadapter.Logger-diagram-simplified-grouped-per-namespace.svg" xlink:type="simple"><g id="elem_Logger"><rect codeLine="23" fill="#F1F1F1" height="48" id="Logger" rx="2.5" ry="2.5" style="stroke:#181818;stroke-width:0.5;" width="80" x="543.5" y="523.5547"/><ellipse cx="558.5" cy="539.5547" fill="#ADD1B2" rx="11" ry="11" style="stroke:#181818;stroke-width:1.0;"/><path d="M560.9731,545.6978 Q560.3921,545.9966 559.7529,546.146 Q559.1138,546.2954 558.4082,546.2954 Q555.9014,546.2954 554.5815,544.6436 Q553.2617,542.9917 553.2617,539.8706 Q553.2617,536.7412 554.5815,535.0894 Q555.9014,533.4375 558.4082,533.4375 Q559.1138,533.4375 559.7612,533.5869 Q560.4087,533.7363 560.9731,534.0352 L560.9731,536.7578 Q560.3423,536.1768 559.7488,535.907 Q559.1553,535.6372 558.5244,535.6372 Q557.1797,535.6372 556.4949,536.7039 Q555.8101,537.7705 555.8101,539.8706 Q555.8101,541.9624 556.4949,543.0291 Q557.1797,544.0957 558.5244,544.0957 Q559.1553,544.0957 559.7488,543.8259 Q560.3423,543.5562 560.9731,542.9751 Z " fill="#000000"/><text fill="#000000" font-family="sans-serif" font-size="14" lengthAdjust="spacing" textLength="48" x="572.5" y="544.8457">Logger</text><line style="stroke:#181818;stroke-width:0.5;" x1="544.5" x2="622.5" y1="555.5547" y2="555.5547"/><line style="stroke:#181818;stroke-width:0.5;" x1="544.5" x2="622.5" y1="563.5547" y2="563.5547"/></g></a><!--class Datastructure--><a href="preadapter.domain.Datastructure-diagram-simplified-grouped-per-namespace.svg" target="_top" title="preadapter.domain.Datastructure-diagram-simplified-grouped-per-namespace.svg" xlink:actuate="onRequest" xlink:href="preadapter.domain.Datastructure-diagram-simplified-grouped-per-namespace.svg" xlink:show="new" xlink:title="preadapter.domain.Datastructure-diagram-simplified-grouped-per-namespace.svg" xlink:type="simple"><g id="elem_Datastructure"><rect codeLine="31" fill="#F1F1F1" height="48" id="Datastructure" rx="2.5" ry="2.5" style="stroke:#181818;stroke-width:0.5;" width="125" x="741" y="396.5547"/><ellipse cx="756" cy="412.5547" fill="#ADD1B2" rx="11" ry="11" style="stroke:#181818;stroke-width:1.0;"/><path d="M758.4731,418.6978 Q757.8921,418.9966 757.2529,419.146 Q756.6138,419.2954 755.9082,419.2954 Q753.4014,419.2954 752.0815,417.6436 Q750.7617,415.9917 750.7617,412.8706 Q750.7617,409.7412 752.0815,408.0894 Q753.4014,406.4375 755.9082,406.4375 Q756.6138,406.4375 757.2612,406.5869 Q757.9087,406.7363 758.4731,407.0352 L758.4731,409.7578 Q757.8423,409.1768 757.2488,408.907 Q756.6553,408.6372 756.0244,408.6372 Q754.6797,408.6372 753.9949,409.7039 Q753.3101,410.7705 753.3101,412.8706 Q753.3101,414.9624 753.9949,416.0291 Q754.6797,417.0957 756.0244,417.0957 Q756.6553,417.0957 757.2488,416.8259 Q757.8423,416.5562 758.4731,415.9751 Z " fill="#000000"/><text fill="#000000" font-family="sans-serif" font-size="14" lengthAdjust="spacing" textLength="93" x="770" y="417.8457">Datastructure</text><line style="stroke:#181818;stroke-width:0.5;" x1="742" x2="865" y1="428.5547" y2="428.5547"/><line style="stroke:#181818;stroke-width:0.5;" x1="742" x2="865" y1="436.5547" y2="436.5547"/></g></a><!--class Datastructure_DOT_SubDataStructure--><a href="preadapter.domain.Datastructure_DOT_SubDataStructure-diagram-simplified-grouped-per-namespace.svg" target="_top" title="preadapter.domain.Datastructure_DOT_SubDataStructure-diagram-simplified-grouped-per-namespace.svg" xlink:actuate="onRequest" xlink:href="preadapter.domain.Datastructure_DOT_SubDataStructure-diagram-simplified-grouped-per-namespace.svg" xlink:show="new" xlink:title="preadapter.domain.Datastructure_DOT_SubDataStructure-diagram-simplified-grouped-per-namespace.svg" xlink:type="simple"><g id="elem_Datastructure_DOT_SubDataStructure"><rect codeLine="33" fill="#F1F1F1" height="48" id="Datastructure_DOT_SubDataStructure" rx="2.5" ry="2.5" style="stroke:#181818;stroke-width:0.5;" width="289" x="659" y="523.5547"/><ellipse cx="674" cy="539.5547" fill="#ADD1B2" rx="11" ry="11" style="stroke:#181818;stroke-width:1.0;"/><path d="M676.4731,545.6978 Q675.8921,545.9966 675.2529,546.146 Q674.6138,546.2954 673.9082,546.2954 Q671.4014,546.2954 670.0815,544.6436 Q668.7617,542.9917 668.7617,539.8706 Q668.7617,536.7412 670.0815,535.0894 Q671.4014,533.4375 673.9082,533.4375 Q674.6138,533.4375 675.2612,533.5869 Q675.9087,533.7363 676.4731,534.0352 L676.4731,536.7578 Q675.8423,536.1768 675.2488,535.907 Q674.6553,535.6372 674.0244,535.6372 Q672.6797,535.6372 671.9949,536.7039 Q671.3101,537.7705 671.3101,539.8706 Q671.3101,541.9624 671.9949,543.0291 Q672.6797,544.0957 674.0244,544.0957 Q674.6553,544.0957 675.2488,543.8259 Q675.8423,543.5562 676.4731,542.9751 Z " fill="#000000"/><text fill="#000000" font-family="sans-serif" font-size="14" lengthAdjust="spacing" textLength="257" x="688" y="544.8457">Datastructure_DOT_SubDataStructure</text><line style="stroke:#181818;stroke-width:0.5;" x1="660" x2="947" y1="555.5547" y2="555.5547"/><line style="stroke:#181818;stroke-width:0.5;" x1="660" x2="947" y1="563.5547" y2="563.5547"/></g></a><!--class CreateYML--><a href="preadapter.infrastructure.CreateYML-diagram-simplified-grouped-per-namespace.svg" target="_top" title="preadapter.infrastructure.CreateYML-diagram-simplified-grouped-per-namespace.svg" xlink:actuate="onRequest" xlink:href="preadapter.infrastructure.CreateYML-diagram-simplified-grouped-per-namespace.svg" xlink:show="new" xlink:title="preadapter.infrastructure.CreateYML-diagram-simplified-grouped-per-namespace.svg" xlink:type="simple"><g id="elem_CreateYML"><rect codeLine="43" fill="#FFFF00" height="48" id="CreateYML" rx="2.5" ry="2.5" style="stroke:#181818;stroke-width:0.5;" width="105" x="843" y="150.5547"/><ellipse cx="858" cy="166.5547" fill="#ADD1B2" rx="11" ry="11" style="stroke:#181818;stroke-width:1.0;"/><path d="M860.4731,172.6978 Q859.8921,172.9966 859.2529,173.146 Q858.6138,173.2954 857.9082,173.2954 Q855.4014,173.2954 854.0815,171.6436 Q852.7617,169.9917 852.7617,166.8706 Q852.7617,163.7412 854.0815,162.0894 Q855.4014,160.4375 857.9082,160.4375 Q858.6138,160.4375 859.2612,160.5869 Q859.9087,160.7363 860.4731,161.0352 L860.4731,163.7578 Q859.8423,163.1768 859.2488,162.907 Q858.6553,162.6372 858.0244,162.6372 Q856.6797,162.6372 855.9949,163.7039 Q855.3101,164.7705 855.3101,166.8706 Q855.3101,168.9624 855.9949,170.0291 Q856.6797,171.0957 858.0244,171.0957 Q858.6553,171.0957 859.2488,170.8259 Q859.8423,170.5562 860.4731,169.9751 Z " fill="#000000"/><text fill="#000000" font-family="sans-serif" font-size="14" lengthAdjust="spacing" textLength="73" x="872" y="171.8457">CreateYML</text><line style="stroke:#181818;stroke-width:0.5;" x1="844" x2="947" y1="182.5547" y2="182.5547"/><line style="stroke:#181818;stroke-width:0.5;" x1="844" x2="947" y1="190.5547" y2="190.5547"/></g></a><g id="elem_FloatingNote"><path d="M6,50.5547 L6,298.2129 L511,298.2129 L511,60.5547 L501,50.5547 L6,50.5547 " fill="#FEFFDD" style="stroke:#181818;stroke-width:0.5;"/><path d="M501,50.5547 L501,60.5547 L511,60.5547 L501,50.5547 " fill="#FEFFDD" style="stroke:#181818;stroke-width:1.0;"/><text fill="#000000" font-family="sans-serif" font-size="13" lengthAdjust="spacing" textLength="120" x="12" y="68.123">Your are analyzing:</text><text fill="#000000" font-family="sans-serif" font-size="13" lengthAdjust="spacing" textLength="157" x="12" y="83.4336">preadapter.infrastructure</text><text fill="#000000" font-family="sans-serif" font-size="13" font-weight="bold" lengthAdjust="spacing" textLength="67" x="173" y="83.4336">simplified</text><text fill="#000000" font-family="sans-serif" font-size="13" lengthAdjust="spacing" textLength="23" x="244" y="83.4336">and</text><text fill="#000000" font-family="sans-serif" font-size="13" font-weight="bold" lengthAdjust="spacing" textLength="166" x="271" y="83.4336">grouped per namespace</text><text fill="#000000" font-family="sans-serif" font-size="13" lengthAdjust="spacing" textLength="4" x="12" y="98.7441">&#160;</text><text fill="#000000" font-family="sans-serif" font-size="13" lengthAdjust="spacing" textLength="229" x="12" y="129.3652">You can click either the namespaces</text><text fill="#000000" font-family="sans-serif" font-size="13" lengthAdjust="spacing" textLength="266" x="12" y="144.6758">or class names for filtering them and their</text><text fill="#000000" font-family="sans-serif" font-size="13" lengthAdjust="spacing" textLength="130" x="12" y="159.9863">direct dependencies.</text><text fill="#000000" font-family="sans-serif" font-size="13" lengthAdjust="spacing" textLength="4" x="12" y="175.2969">&#160;</text><line style="stroke:#181818;stroke-width:1.0;" x1="7" x2="242.5" y1="109.1416" y2="109.1416"/><line style="stroke:#181818;stroke-width:1.0;" x1="7" x2="242.5" y1="111.1416" y2="111.1416"/><text fill="#000000" font-family="sans-serif" font-size="13" lengthAdjust="spacing" textLength="32" x="242.5" y="113.5547">Filter</text><line style="stroke:#181818;stroke-width:1.0;" x1="274.5" x2="510" y1="109.1416" y2="109.1416"/><line style="stroke:#181818;stroke-width:1.0;" x1="274.5" x2="510" y1="111.1416" y2="111.1416"/><ellipse cx="17.5" cy="205.1602" fill="#000000" rx="2.5" ry="2.5" style="stroke:#000000;stroke-width:0.0;"/><text fill="#000000" font-family="sans-serif" font-size="13" lengthAdjust="spacing" textLength="157" x="24" y="209.918">preadapter.infrastructure</text><text fill="#000000" font-family="sans-serif" font-size="13" font-weight="bold" lengthAdjust="spacing" textLength="55" x="185" y="209.918">detailed</text><text fill="#000000" font-family="sans-serif" font-size="13" lengthAdjust="spacing" textLength="23" x="244" y="209.918">and</text><text fill="#000000" font-family="sans-serif" font-size="13" font-weight="bold" lengthAdjust="spacing" textLength="166" x="271" y="209.918">grouped per namespace</text><text fill="#000000" font-family="sans-serif" font-size="13" lengthAdjust="spacing" textLength="4" x="437" y="209.918">:</text><text fill="#000000" font-family="sans-serif" font-size="13" lengthAdjust="spacing" textLength="12" x="12" y="225.2285">&#160;&#160;&#160;</text><a href="preadapter.infrastructure-diagram-detailed-grouped-per-namespace.svg" target="_top" title="preadapter.infrastructure-diagram-detailed-grouped-per-namespace.svg" xlink:actuate="onRequest" xlink:href="preadapter.infrastructure-diagram-detailed-grouped-per-namespace.svg" xlink:show="new" xlink:title="preadapter.infrastructure-diagram-detailed-grouped-per-namespace.svg" xlink:type="simple"><text fill="#0000FF" font-family="sans-serif" font-size="13" lengthAdjust="spacing" text-decoration="underline" textLength="466" x="24" y="225.2285">preadapter.infrastructure-diagram-detailed-grouped-per-namespace.svg</text></a><ellipse cx="17.5" cy="235.7813" fill="#000000" rx="2.5" ry="2.5" style="stroke:#000000;stroke-width:0.0;"/><text fill="#000000" font-family="sans-serif" font-size="13" lengthAdjust="spacing" textLength="78" x="24" y="240.5391">Full diagram</text><text fill="#000000" font-family="sans-serif" font-size="13" font-weight="bold" lengthAdjust="spacing" textLength="67" x="106" y="240.5391">simplified</text><text fill="#000000" font-family="sans-serif" font-size="13" lengthAdjust="spacing" textLength="23" x="177" y="240.5391">and</text><text fill="#000000" font-family="sans-serif" font-size="13" font-weight="bold" lengthAdjust="spacing" textLength="166" x="204" y="240.5391">grouped per namespace</text><text fill="#000000" font-family="sans-serif" font-size="13" lengthAdjust="spacing" textLength="4" x="370" y="240.5391">:</text><text fill="#000000" font-family="sans-serif" font-size="13" lengthAdjust="spacing" textLength="12" x="12" y="255.8496">&#160;&#160;&#160;</text><a href="full-diagram-simplified-grouped-per-namespace.svg" target="_top" title="full-diagram-simplified-grouped-per-namespace.svg" xlink:actuate="onRequest" xlink:href="full-diagram-simplified-grouped-per-namespace.svg" xlink:show="new" xlink:title="full-diagram-simplified-grouped-per-namespace.svg" xlink:type="simple"><text fill="#0000FF" font-family="sans-serif" font-size="13" lengthAdjust="spacing" text-decoration="underline" textLength="343" x="24" y="255.8496">full-diagram-simplified-grouped-per-namespace.svg</text></a><ellipse cx="17.5" cy="266.4023" fill="#000000" rx="2.5" ry="2.5" style="stroke:#000000;stroke-width:0.0;"/><text fill="#000000" font-family="sans-serif" font-size="13" lengthAdjust="spacing" textLength="41" x="24" y="271.1602">Home:</text><text fill="#000000" font-family="sans-serif" font-size="13" lengthAdjust="spacing" textLength="12" x="12" y="286.4707">&#160;&#160;&#160;</text><a href="index.html" target="_top" title="index.html" xlink:actuate="onRequest" xlink:href="index.html" xlink:show="new" xlink:title="index.html" xlink:type="simple"><text fill="#0000FF" font-family="sans-serif" font-size="13" lengthAdjust="spacing" text-decoration="underline" textLength="68" x="24" y="286.4707">index.html</text></a><line style="stroke:#181818;stroke-width:1.0;" x1="7" x2="221.5" y1="189.6943" y2="189.6943"/><line style="stroke:#181818;stroke-width:1.0;" x1="7" x2="221.5" y1="191.6943" y2="191.6943"/><text fill="#000000" font-family="sans-serif" font-size="13" lengthAdjust="spacing" textLength="74" x="221.5" y="194.1074">Select other</text><line style="stroke:#181818;stroke-width:1.0;" x1="295.5" x2="510" y1="189.6943" y2="189.6943"/><line style="stroke:#181818;stroke-width:1.0;" x1="295.5" x2="510" y1="191.6943" y2="191.6943"/></g><!--class Mark--><a href="Mark-diagram-simplified-grouped-per-namespace.svg" target="_top" title="Mark-diagram-simplified-grouped-per-namespace.svg" xlink:actuate="onRequest" xlink:href="Mark-diagram-simplified-grouped-per-namespace.svg" xlink:show="new" xlink:title="Mark-diagram-simplified-grouped-per-namespace.svg" xlink:type="simple"><g id="elem_Mark"><rect codeLine="5" fill="#F5FFFA" height="48" id="Mark" rx="2.5" ry="2.5" style="stroke:#181818;stroke-width:0.5;" width="66" x="1415.5" y="396.5547"/><ellipse cx="1430.5" cy="412.5547" fill="#ADD1B2" rx="11" ry="11" style="stroke:#181818;stroke-width:1.0;"/><path d="M1432.9731,418.6978 Q1432.3921,418.9966 1431.7529,419.146 Q1431.1138,419.2954 1430.4082,419.2954 Q1427.9014,419.2954 1426.5815,417.6436 Q1425.2617,415.9917 1425.2617,412.8706 Q1425.2617,409.7412 1426.5815,408.0894 Q1427.9014,406.4375 1430.4082,406.4375 Q1431.1138,406.4375 1431.7612,406.5869 Q1432.4087,406.7363 1432.9731,407.0352 L1432.9731,409.7578 Q1432.3423,409.1768 1431.7488,408.907 Q1431.1553,408.6372 1430.5244,408.6372 Q1429.1797,408.6372 1428.4949,409.7039 Q1427.8101,410.7705 1427.8101,412.8706 Q1427.8101,414.9624 1428.4949,416.0291 Q1429.1797,417.0957 1430.5244,417.0957 Q1431.1553,417.0957 1431.7488,416.8259 Q1432.3423,416.5562 1432.9731,415.9751 Z " fill="#000000"/><text fill="#000000" font-family="sans-serif" font-size="14" lengthAdjust="spacing" textLength="34" x="1444.5" y="417.8457">Mark</text><line style="stroke:#181818;stroke-width:0.5;" x1="1416.5" x2="1480.5" y1="428.5547" y2="428.5547"/><line style="stroke:#181818;stroke-width:0.5;" x1="1416.5" x2="1480.5" y1="436.5547" y2="436.5547"/></g></a><!--class dictpingNode--><a href="dictpingNode-diagram-simplified-grouped-per-namespace.svg" target="_top" title="dictpingNode-diagram-simplified-grouped-per-namespace.svg" xlink:actuate="onRequest" xlink:href="dictpingNode-diagram-simplified-grouped-per-namespace.svg" xlink:show="new" xlink:title="dictpingNode-diagram-simplified-grouped-per-namespace.svg" xlink:type="simple"><g id="elem_dictpingNode"><rect codeLine="7" fill="#F5FFFA" height="48" id="dictpingNode" rx="2.5" ry="2.5" style="stroke:#181818;stroke-width:0.5;" width="124" x="1516.5" y="396.5547"/><ellipse cx="1531.5" cy="412.5547" fill="#ADD1B2" rx="11" ry="11" style="stroke:#181818;stroke-width:1.0;"/><path d="M1533.9731,418.6978 Q1533.3921,418.9966 1532.7529,419.146 Q1532.1138,419.2954 1531.4082,419.2954 Q1528.9014,419.2954 1527.5815,417.6436 Q1526.2617,415.9917 1526.2617,412.8706 Q1526.2617,409.7412 1527.5815,408.0894 Q1528.9014,406.4375 1531.4082,406.4375 Q1532.1138,406.4375 1532.7612,406.5869 Q1533.4087,406.7363 1533.9731,407.0352 L1533.9731,409.7578 Q1533.3423,409.1768 1532.7488,408.907 Q1532.1553,408.6372 1531.5244,408.6372 Q1530.1797,408.6372 1529.4949,409.7039 Q1528.8101,410.7705 1528.8101,412.8706 Q1528.8101,414.9624 1529.4949,416.0291 Q1530.1797,417.0957 1531.5244,417.0957 Q1532.1553,417.0957 1532.7488,416.8259 Q1533.3423,416.5562 1533.9731,415.9751 Z " fill="#000000"/><text fill="#000000" font-family="sans-serif" font-size="14" lengthAdjust="spacing" textLength="92" x="1545.5" y="417.8457">dictpingNode</text><line style="stroke:#181818;stroke-width:0.5;" x1="1517.5" x2="1639.5" y1="428.5547" y2="428.5547"/><line style="stroke:#181818;stroke-width:0.5;" x1="1517.5" x2="1639.5" y1="436.5547" y2="436.5547"/></g></a><!--class SequenceNode--><a href="SequenceNode-diagram-simplified-grouped-per-namespace.svg" target="_top" title="SequenceNode-diagram-simplified-grouped-per-namespace.svg" xlink:actuate="onRequest" xlink:href="SequenceNode-diagram-simplified-grouped-per-namespace.svg" xlink:show="new" xlink:title="SequenceNode-diagram-simplified-grouped-per-namespace.svg" xlink:type="simple"><g id="elem_SequenceNode"><rect codeLine="9" fill="#F5FFFA" height="48" id="SequenceNode" rx="2.5" ry="2.5" style="stroke:#181818;stroke-width:0.5;" width="134" x="1105.5" y="396.5547"/><ellipse cx="1120.5" cy="412.5547" fill="#ADD1B2" rx="11" ry="11" style="stroke:#181818;stroke-width:1.0;"/><path d="M1122.9731,418.6978 Q1122.3921,418.9966 1121.7529,419.146 Q1121.1138,419.2954 1120.4082,419.2954 Q1117.9014,419.2954 1116.5815,417.6436 Q1115.2617,415.9917 1115.2617,412.8706 Q1115.2617,409.7412 1116.5815,408.0894 Q1117.9014,406.4375 1120.4082,406.4375 Q1121.1138,406.4375 1121.7612,406.5869 Q1122.4087,406.7363 1122.9731,407.0352 L1122.9731,409.7578 Q1122.3423,409.1768 1121.7488,408.907 Q1121.1553,408.6372 1120.5244,408.6372 Q1119.1797,408.6372 1118.4949,409.7039 Q1117.8101,410.7705 1117.8101,412.8706 Q1117.8101,414.9624 1118.4949,416.0291 Q1119.1797,417.0957 1120.5244,417.0957 Q1121.1553,417.0957 1121.7488,416.8259 Q1122.3423,416.5562 1122.9731,415.9751 Z " fill="#000000"/><text fill="#000000" font-family="sans-serif" font-size="14" lengthAdjust="spacing" textLength="102" x="1134.5" y="417.8457">SequenceNode</text><line style="stroke:#181818;stroke-width:0.5;" x1="1106.5" x2="1238.5" y1="428.5547" y2="428.5547"/><line style="stroke:#181818;stroke-width:0.5;" x1="1106.5" x2="1238.5" y1="436.5547" y2="436.5547"/></g></a><!--class dictpingNode_BRQTO_Tag_DOT_MAP_COMMA__SPC_Arraylist_BRQTO__BRQTC_BRQTO__BRQTC_COMMA__SPC_dummperOptions_BRQTC--><a href="dictpingNode_BRQTO_Tag_DOT_MAP_COMMA__SPC_Arraylist_BRQTO__BRQTC_BRQTO__BRQTC_COMMA__SPC_dummperOptions_BRQTC-diagram-simplified-grouped-per-namespace.svg" target="_top" title="dictpingNode_BRQTO_Tag_DOT_MAP_COMMA__SPC_Arraylist_BRQTO__BRQTC_BRQTO__BRQTC_COMMA__SPC_dummperOptions_BRQTC-diagram-simplified-grouped-per-namespace.svg" xlink:actuate="onRequest" xlink:href="dictpingNode_BRQTO_Tag_DOT_MAP_COMMA__SPC_Arraylist_BRQTO__BRQTC_BRQTO__BRQTC_COMMA__SPC_dummperOptions_BRQTC-diagram-simplified-grouped-per-namespace.svg" xlink:show="new" xlink:title="dictpingNode_BRQTO_Tag_DOT_MAP_COMMA__SPC_Arraylist_BRQTO__BRQTC_BRQTO__BRQTC_COMMA__SPC_dummperOptions_BRQTC-diagram-simplified-grouped-per-namespace.svg" xlink:type="simple"><g id="elem_dictpingNode_BRQTO_Tag_DOT_MAP_COMMA__SPC_Arraylist_BRQTO__BRQTC_BRQTO__BRQTC_COMMA__SPC_dummperOptions_BRQTC"><rect codeLine="11" fill="#F5FFFA" height="48" id="dictpingNode_BRQTO_Tag_DOT_MAP_COMMA__SPC_Arraylist_BRQTO__BRQTC_BRQTO__BRQTC_COMMA__SPC_dummperOptions_BRQTC" rx="2.5" ry="2.5" style="stroke:#181818;stroke-width:0.5;" width="968" x="1675.5" y="396.5547"/><ellipse cx="1690.5" cy="412.5547" fill="#ADD1B2" rx="11" ry="11" style="stroke:#181818;stroke-width:1.0;"/><path d="M1692.9731,418.6978 Q1692.3921,418.9966 1691.7529,419.146 Q1691.1138,419.2954 1690.4082,419.2954 Q1687.9014,419.2954 1686.5815,417.6436 Q1685.2617,415.9917 1685.2617,412.8706 Q1685.2617,409.7412 1686.5815,408.0894 Q1687.9014,406.4375 1690.4082,406.4375 Q1691.1138,406.4375 1691.7612,406.5869 Q1692.4087,406.7363 1692.9731,407.0352 L1692.9731,409.7578 Q1692.3423,409.1768 1691.7488,408.907 Q1691.1553,408.6372 1690.5244,408.6372 Q1689.1797,408.6372 1688.4949,409.7039 Q1687.8101,410.7705 1687.8101,412.8706 Q1687.8101,414.9624 1688.4949,416.0291 Q1689.1797,417.0957 1690.5244,417.0957 Q1691.1553,417.0957 1691.7488,416.8259 Q1692.3423,416.5562 1692.9731,415.9751 Z " fill="#000000"/><text fill="#000000" font-family="sans-serif" font-size="14" lengthAdjust="spacing" textLength="936" x="1704.5" y="417.8457">dictpingNode_BRQTO_Tag_DOT_MAP_COMMA__SPC_Arraylist_BRQTO__BRQTC_BRQTO__BRQTC_COMMA__SPC_dummperOptions_BRQTC</text><line style="stroke:#181818;stroke-width:0.5;" x1="1676.5" x2="2642.5" y1="428.5547" y2="428.5547"/><line style="stroke:#181818;stroke-width:0.5;" x1="1676.5" x2="2642.5" y1="436.5547" y2="436.5547"/></g></a><!--class list_BRQTO_String_BRQTC--><a href="list_BRQTO_String_BRQTC-diagram-simplified-grouped-per-namespace.svg" target="_top" title="list_BRQTO_String_BRQTC-diagram-simplified-grouped-per-namespace.svg" xlink:actuate="onRequest" xlink:href="list_BRQTO_String_BRQTC-diagram-simplified-grouped-per-namespace.svg" xlink:show="new" xlink:title="list_BRQTO_String_BRQTC-diagram-simplified-grouped-per-namespace.svg" xlink:type="simple"><g id="elem_list_BRQTO_String_BRQTC"><rect codeLine="13" fill="#F5FFFA" height="48" id="list_BRQTO_String_BRQTC" rx="2.5" ry="2.5" style="stroke:#181818;stroke-width:0.5;" width="209" x="1005" y="523.5547"/><ellipse cx="1020" cy="539.5547" fill="#ADD1B2" rx="11" ry="11" style="stroke:#181818;stroke-width:1.0;"/><path d="M1022.4731,545.6978 Q1021.8921,545.9966 1021.2529,546.146 Q1020.6138,546.2954 1019.9082,546.2954 Q1017.4014,546.2954 1016.0815,544.6436 Q1014.7617,542.9917 1014.7617,539.8706 Q1014.7617,536.7412 1016.0815,535.0894 Q1017.4014,533.4375 1019.9082,533.4375 Q1020.6138,533.4375 1021.2612,533.5869 Q1021.9087,533.7363 1022.4731,534.0352 L1022.4731,536.7578 Q1021.8423,536.1768 1021.2488,535.907 Q1020.6553,535.6372 1020.0244,535.6372 Q1018.6797,535.6372 1017.9949,536.7039 Q1017.3101,537.7705 1017.3101,539.8706 Q1017.3101,541.9624 1017.9949,543.0291 Q1018.6797,544.0957 1020.0244,544.0957 Q1020.6553,544.0957 1021.2488,543.8259 Q1021.8423,543.5562 1022.4731,542.9751 Z " fill="#000000"/><text fill="#000000" font-family="sans-serif" font-size="14" lengthAdjust="spacing" textLength="177" x="1034" y="544.8457">list_BRQTO_String_BRQTC</text><line style="stroke:#181818;stroke-width:0.5;" x1="1006" x2="1213" y1="555.5547" y2="555.5547"/><line style="stroke:#181818;stroke-width:0.5;" x1="1006" x2="1213" y1="563.5547" y2="563.5547"/></g></a><!--class SequenceNode_BRQTO_Tag_DOT_SEQ_COMMA__SPC_Arraylist_BRQTO__BRQTC_BRQTO__BRQTC_COMMA__SPC_dummperOptions_BRQTC--><a href="SequenceNode_BRQTO_Tag_DOT_SEQ_COMMA__SPC_Arraylist_BRQTO__BRQTC_BRQTO__BRQTC_COMMA__SPC_dummperOptions_BRQTC-diagram-simplified-grouped-per-namespace.svg" target="_top" title="SequenceNode_BRQTO_Tag_DOT_SEQ_COMMA__SPC_Arraylist_BRQTO__BRQTC_BRQTO__BRQTC_COMMA__SPC_dummperOptions_BRQTC-diagram-simplified-grouped-per-namespace.svg" xlink:actuate="onRequest" xlink:href="SequenceNode_BRQTO_Tag_DOT_SEQ_COMMA__SPC_Arraylist_BRQTO__BRQTC_BRQTO__BRQTC_COMMA__SPC_dummperOptions_BRQTC-diagram-simplified-grouped-per-namespace.svg" xlink:show="new" xlink:title="SequenceNode_BRQTO_Tag_DOT_SEQ_COMMA__SPC_Arraylist_BRQTO__BRQTC_BRQTO__BRQTC_COMMA__SPC_dummperOptions_BRQTC-diagram-simplified-grouped-per-namespace.svg" xlink:type="simple"><g id="elem_SequenceNode_BRQTO_Tag_DOT_SEQ_COMMA__SPC_Arraylist_BRQTO__BRQTC_BRQTO__BRQTC_COMMA__SPC_dummperOptions_BRQTC"><rect codeLine="15" fill="#F5FFFA" height="48" id="SequenceNode_BRQTO_Tag_DOT_SEQ_COMMA__SPC_Arraylist_BRQTO__BRQTC_BRQTO__BRQTC_COMMA__SPC_dummperOptions_BRQTC" rx="2.5" ry="2.5" style="stroke:#181818;stroke-width:0.5;" width="975" x="2780" y="396.5547"/><ellipse cx="2795" cy="412.5547" fill="#ADD1B2" rx="11" ry="11" style="stroke:#181818;stroke-width:1.0;"/><path d="M2797.4731,418.6978 Q2796.8921,418.9966 2796.2529,419.146 Q2795.6138,419.2954 2794.9082,419.2954 Q2792.4014,419.2954 2791.0815,417.6436 Q2789.7617,415.9917 2789.7617,412.8706 Q2789.7617,409.7412 2791.0815,408.0894 Q2792.4014,406.4375 2794.9082,406.4375 Q2795.6138,406.4375 2796.2612,406.5869 Q2796.9087,406.7363 2797.4731,407.0352 L2797.4731,409.7578 Q2796.8423,409.1768 2796.2488,408.907 Q2795.6553,408.6372 2795.0244,408.6372 Q2793.6797,408.6372 2792.9949,409.7039 Q2792.3101,410.7705 2792.3101,412.8706 Q2792.3101,414.9624 2792.9949,416.0291 Q2793.6797,417.0957 2795.0244,417.0957 Q2795.6553,417.0957 2796.2488,416.8259 Q2796.8423,416.5562 2797.4731,415.9751 Z " fill="#000000"/><text fill="#000000" font-family="sans-serif" font-size="14" lengthAdjust="spacing" textLength="943" x="2809" y="417.8457">SequenceNode_BRQTO_Tag_DOT_SEQ_COMMA__SPC_Arraylist_BRQTO__BRQTC_BRQTO__BRQTC_COMMA__SPC_dummperOptions_BRQTC</text><line style="stroke:#181818;stroke-width:0.5;" x1="2781" x2="3754" y1="428.5547" y2="428.5547"/><line style="stroke:#181818;stroke-width:0.5;" x1="2781" x2="3754" y1="436.5547" y2="436.5547"/></g></a><!--class Yaml--><a href="Yaml-diagram-simplified-grouped-per-namespace.svg" target="_top" title="Yaml-diagram-simplified-grouped-per-namespace.svg" xlink:actuate="onRequest" xlink:href="Yaml-diagram-simplified-grouped-per-namespace.svg" xlink:show="new" xlink:title="Yaml-diagram-simplified-grouped-per-namespace.svg" xlink:type="simple"><g id="elem_Yaml"><rect codeLine="17" fill="#F5FFFA" height="48" id="Yaml" rx="2.5" ry="2.5" style="stroke:#181818;stroke-width:0.5;" width="66" x="1004.5" y="396.5547"/><ellipse cx="1019.5" cy="412.5547" fill="#ADD1B2" rx="11" ry="11" style="stroke:#181818;stroke-width:1.0;"/><path d="M1021.9731,418.6978 Q1021.3921,418.9966 1020.7529,419.146 Q1020.1138,419.2954 1019.4082,419.2954 Q1016.9014,419.2954 1015.5815,417.6436 Q1014.2617,415.9917 1014.2617,412.8706 Q1014.2617,409.7412 1015.5815,408.0894 Q1016.9014,406.4375 1019.4082,406.4375 Q1020.1138,406.4375 1020.7612,406.5869 Q1021.4087,406.7363 1021.9731,407.0352 L1021.9731,409.7578 Q1021.3423,409.1768 1020.7488,408.907 Q1020.1553,408.6372 1019.5244,408.6372 Q1018.1797,408.6372 1017.4949,409.7039 Q1016.8101,410.7705 1016.8101,412.8706 Q1016.8101,414.9624 1017.4949,416.0291 Q1018.1797,417.0957 1019.5244,417.0957 Q1020.1553,417.0957 1020.7488,416.8259 Q1021.3423,416.5562 1021.9731,415.9751 Z " fill="#000000"/><text fill="#000000" font-family="sans-serif" font-size="14" lengthAdjust="spacing" textLength="34" x="1033.5" y="417.8457">Yaml</text><line style="stroke:#181818;stroke-width:0.5;" x1="1005.5" x2="1069.5" y1="428.5547" y2="428.5547"/><line style="stroke:#181818;stroke-width:0.5;" x1="1005.5" x2="1069.5" y1="436.5547" y2="436.5547"/></g></a><!--class PrintWriter--><a href="PrintWriter-diagram-simplified-grouped-per-namespace.svg" target="_top" title="PrintWriter-diagram-simplified-grouped-per-namespace.svg" xlink:actuate="onRequest" xlink:href="PrintWriter-diagram-simplified-grouped-per-namespace.svg" xlink:show="new" xlink:title="PrintWriter-diagram-simplified-grouped-per-namespace.svg" xlink:type="simple"><g id="elem_PrintWriter"><rect codeLine="19" fill="#F5FFFA" height="48" id="PrintWriter" rx="2.5" ry="2.5" style="stroke:#181818;stroke-width:0.5;" width="105" x="1275" y="396.5547"/><ellipse cx="1290" cy="412.5547" fill="#ADD1B2" rx="11" ry="11" style="stroke:#181818;stroke-width:1.0;"/><path d="M1292.4731,418.6978 Q1291.8921,418.9966 1291.2529,419.146 Q1290.6138,419.2954 1289.9082,419.2954 Q1287.4014,419.2954 1286.0815,417.6436 Q1284.7617,415.9917 1284.7617,412.8706 Q1284.7617,409.7412 1286.0815,408.0894 Q1287.4014,406.4375 1289.9082,406.4375 Q1290.6138,406.4375 1291.2612,406.5869 Q1291.9087,406.7363 1292.4731,407.0352 L1292.4731,409.7578 Q1291.8423,409.1768 1291.2488,408.907 Q1290.6553,408.6372 1290.0244,408.6372 Q1288.6797,408.6372 1287.9949,409.7039 Q1287.3101,410.7705 1287.3101,412.8706 Q1287.3101,414.9624 1287.9949,416.0291 Q1288.6797,417.0957 1290.0244,417.0957 Q1290.6553,417.0957 1291.2488,416.8259 Q1291.8423,416.5562 1292.4731,415.9751 Z " fill="#000000"/><text fill="#000000" font-family="sans-serif" font-size="14" lengthAdjust="spacing" textLength="73" x="1304" y="417.8457">PrintWriter</text><line style="stroke:#181818;stroke-width:0.5;" x1="1276" x2="1379" y1="428.5547" y2="428.5547"/><line style="stroke:#181818;stroke-width:0.5;" x1="1276" x2="1379" y1="436.5547" y2="436.5547"/></g></a><!--reverse link Datastructure to Datastructure_DOT_SubDataStructure--><g id="link_Datastructure_Datastructure_DOT_SubDataStructure"><path codeLine="60" d="M803.5,460.5947 C803.5,481.2347 803.5,505.8647 803.5,523.4647 " fill="none" id="Datastructure-backto-Datastructure_DOT_SubDataStructure" style="stroke:#10BBBB;stroke-width:1.0;"/><ellipse cx="803.5" cy="453.7747" fill="#FFFFFF" rx="8" ry="8" style="stroke:#10BBBB;stroke-width:1.0;"/><line style="stroke:#10BBBB;stroke-width:1.0;" x1="803.5" x2="803.5" y1="461.7747" y2="445.7747"/><line style="stroke:#10BBBB;stroke-width:1.0;" x1="795.5" x2="811.5" y1="453.7747" y2="453.7747"/></g><!--link Datastructure to Logger--><g id="link_Datastructure_Logger"><path codeLine="61" d="M772.59,445.0147 C761.73,452.8647 749.3,461.4247 737.5,468.5547 C702.23,489.8847 660.4,510.8047 629.25,525.6047 " fill="none" id="Datastructure-to-Logger" style="stroke:#6060BB;stroke-width:1.0;stroke-dasharray:7.0,7.0;"/><polygon fill="#6060BB" points="624.95,528.1147,634.7958,527.8688,629.4669,525.9706,631.3652,520.6417,624.95,528.1147" style="stroke:#6060BB;stroke-width:1.0;"/><text fill="#000000" font-family="sans-serif" font-size="13" lengthAdjust="spacing" textLength="29" x="721.5" y="490.123">uses</text></g><!--link Datastructure to list_BRQTO_String_BRQTC--><g id="link_Datastructure_list_BRQTO_String_BRQTC"><path codeLine="62" d="M845.5,444.9847 C860.44,452.9147 877.52,461.5347 893.5,468.5547 C938.39,488.2747 990,507.0447 1031.51,521.2347 " fill="none" id="Datastructure-to-list_BRQTO_String_BRQTC" style="stroke:#6060BB;stroke-width:1.0;stroke-dasharray:7.0,7.0;"/><polygon fill="#6060BB" points="1036.04,523.1147,1028.8088,516.4281,1031.3067,521.5036,1026.2311,524.0015,1036.04,523.1147" style="stroke:#6060BB;stroke-width:1.0;"/><text fill="#000000" font-family="sans-serif" font-size="13" lengthAdjust="spacing" textLength="29" x="952.5" y="490.123">uses</text></g><!--link Datastructure to list_BRQTO_String_BRQTC--><g id="link_Datastructure_list_BRQTO_String_BRQTC"><path codeLine="63" d="M840.19,444.9647 C855.99,453.8947 875.04,463.2147 893.5,468.5547 C935.05,480.5847 949.27,463.4847 990.5,476.5547 C1020.79,486.1547 1051.62,504.5847 1074.31,520.1247 " fill="none" id="Datastructure-to-list_BRQTO_String_BRQTC-1" style="stroke:#909090;stroke-width:1.0;"/><polygon fill="#909090" points="1078.02,523.3947,1072.8895,514.9877,1073.9065,520.5524,1068.3418,521.5693,1078.02,523.3947" style="stroke:#909090;stroke-width:1.0;"/><text fill="#000000" font-family="sans-serif" font-size="13" lengthAdjust="spacing" textLength="29" x="1029.5" y="490.123">uses</text></g><!--link CreateYML to FlowStyle--><g id="link_CreateYML_FlowStyle"><path codeLine="66" d="M948.49,176.5847 C1318.2,184.0447 3505.34,233.0947 3772.5,353.5547 C3790.97,361.8847 3807.15,377.8247 3818.86,391.9547 " fill="none" id="CreateYML-to-FlowStyle" style="stroke:#6060BB;stroke-width:1.0;stroke-dasharray:7.0,7.0;"/><polygon fill="#6060BB" points="3822.35,395.2747,3819.8002,385.7616,3819.2057,391.3871,3813.5801,390.7926,3822.35,395.2747" style="stroke:#6060BB;stroke-width:1.0;"/><text fill="#000000" font-family="sans-serif" font-size="13" lengthAdjust="spacing" textLength="29" x="3727.5" y="342.123">uses</text></g><!--link CreateYML to Mark--><g id="link_CreateYML_Mark"><path codeLine="67" d="M948.49,184.1147 C1045.42,201.8647 1254.46,249.9547 1397.5,353.5547 C1411.39,363.6147 1423.35,378.4947 1432.18,391.5847 " fill="none" id="CreateYML-to-Mark" style="stroke:#6060BB;stroke-width:1.0;stroke-dasharray:7.0,7.0;"/><polygon fill="#6060BB" points="1435.3,395.3147,1433.7128,385.5946,1432.5595,391.1326,1427.0215,389.9793,1435.3,395.3147" style="stroke:#6060BB;stroke-width:1.0;"/><text fill="#000000" font-family="sans-serif" font-size="13" lengthAdjust="spacing" textLength="29" x="1386.5" y="342.123">uses</text></g><!--link CreateYML to dictpingNode--><g id="link_CreateYML_dictpingNode"><path codeLine="68" d="M948.27,190.0547 C1043.67,216.4447 1251.05,274.5847 1424.5,328.5547 C1458.05,338.9947 1468.82,336.4347 1499.5,353.5547 C1518.17,363.9747 1536.64,379.0647 1551.02,392.1847 " fill="none" id="CreateYML-to-dictpingNode" style="stroke:#6060BB;stroke-width:1.0;stroke-dasharray:7.0,7.0;"/><polygon fill="#6060BB" points="1554.35,395.1947,1550.4645,386.1447,1550.6815,391.7974,1545.0288,392.0143,1554.35,395.1947" style="stroke:#6060BB;stroke-width:1.0;"/><text fill="#000000" font-family="sans-serif" font-size="13" lengthAdjust="spacing" textLength="29" x="1483.5" y="342.123">uses</text></g><!--link CreateYML to SequenceNode--><g id="link_CreateYML_SequenceNode"><path codeLine="69" d="M948.4,198.1847 C1001.46,223.2247 1082.42,268.1747 1133.5,328.5547 C1148.82,346.6647 1158.96,371.7047 1165.05,390.9247 " fill="none" id="CreateYML-to-SequenceNode" style="stroke:#6060BB;stroke-width:1.0;stroke-dasharray:7.0,7.0;"/><polygon fill="#6060BB" points="1166.66,395.1847,1167.8651,385.4098,1165.2036,390.4015,1160.212,387.74,1166.66,395.1847" style="stroke:#6060BB;stroke-width:1.0;"/><text fill="#000000" font-family="sans-serif" font-size="13" lengthAdjust="spacing" textLength="29" x="1144.5" y="342.123">uses</text></g><!--link CreateYML to SequenceNode--><g id="link_CreateYML_SequenceNode"><path codeLine="72" d="M922.06,198.9547 C973.56,244.3147 1086.73,344.0047 1141.54,392.2847 " fill="none" id="CreateYML-to-SequenceNode-1" style="stroke:#909090;stroke-width:1.0;"/><polygon fill="#909090" points="1145.02,395.2347,1140.9338,386.2735,1141.2767,391.92,1135.6302,392.2629,1145.02,395.2347" style="stroke:#909090;stroke-width:1.0;"/><text fill="#000000" font-family="sans-serif" font-size="13" lengthAdjust="spacing" textLength="29" x="1083.5" y="342.123">uses</text></g><!--link CreateYML to dictpingNode_BRQTO_Tag_DOT_MAP_COMMA__SPC_Arraylist_BRQTO__BRQTC_BRQTO__BRQTC_COMMA__SPC_dummperOptions_BRQTC--><g id="link_CreateYML_dictpingNode_BRQTO_Tag_DOT_MAP_COMMA__SPC_Arraylist_BRQTO__BRQTC_BRQTO__BRQTC_COMMA__SPC_dummperOptions_BRQTC"><path codeLine="70" d="M948.2,185.7247 C1133.82,221.5547 1760.64,342.5547 2032.24,394.9847 " fill="none" id="CreateYML-to-dictpingNode_BRQTO_Tag_DOT_MAP_COMMA__SPC_Arraylist_BRQTO__BRQTC_BRQTO__BRQTC_COMMA__SPC_dummperOptions_BRQTC" style="stroke:#909090;stroke-width:1.0;"/><polygon fill="#909090" points="2036.8,396.0647,2028.7149,390.4405,2031.8896,395.1226,2027.2075,398.2972,2036.8,396.0647" style="stroke:#909090;stroke-width:1.0;"/><text fill="#000000" font-family="sans-serif" font-size="13" lengthAdjust="spacing" textLength="29" x="1751.5" y="342.123">uses</text></g><!--link CreateYML to list_BRQTO_String_BRQTC--><g id="link_CreateYML_list_BRQTO_String_BRQTC"><path codeLine="71" d="M948.17,176.7547 C1229.17,183.6947 2543.43,222.9847 2661.5,353.5547 C2695.78,391.4647 2696.72,431.5147 2661.5,468.5547 C2611.92,520.6947 1566.96,540.1047 1220.21,545.1247 " fill="none" id="CreateYML-to-list_BRQTO_String_BRQTC" style="stroke:#6060BB;stroke-width:1.0;stroke-dasharray:7.0,7.0;"/><polygon fill="#6060BB" points="1215.41,545.2047,1224.4662,549.0757,1220.4095,545.1333,1224.3519,541.0765,1215.41,545.2047" style="stroke:#6060BB;stroke-width:1.0;"/><text fill="#000000" font-family="sans-serif" font-size="13" lengthAdjust="spacing" textLength="29" x="2688.5" y="425.623">uses</text></g><!--link CreateYML to Datastructure--><g id="link_CreateYML_Datastructure"><path codeLine="73" d="M886.68,198.9547 C869.75,243.8547 832.74,342.0047 814.34,390.8147 " fill="none" id="CreateYML-to-Datastructure" style="stroke:#6060BB;stroke-width:1.0;stroke-dasharray:7.0,7.0;"/><polygon fill="#6060BB" points="812.29,395.2347,819.1954,388.2122,814.0456,390.553,811.7048,385.4032,812.29,395.2347" style="stroke:#6060BB;stroke-width:1.0;"/><text fill="#000000" font-family="sans-serif" font-size="13" lengthAdjust="spacing" textLength="29" x="836.5" y="342.123">uses</text></g><!--link CreateYML to Logger--><g id="link_CreateYML_Logger"><path codeLine="74" d="M842.63,192.9547 C776.83,217.5747 666.46,269.2147 611.5,353.5547 C578.64,403.9747 577.92,477.4347 580.54,517.6247 " fill="none" id="CreateYML-to-Logger" style="stroke:#6060BB;stroke-width:1.0;stroke-dasharray:7.0,7.0;"/><polygon fill="#6060BB" points="580.95,522.3047,584.2723,513.0331,580.5796,517.3184,576.2943,513.6257,580.95,522.3047" style="stroke:#6060BB;stroke-width:1.0;"/><text fill="#000000" font-family="sans-serif" font-size="13" lengthAdjust="spacing" textLength="29" x="612.5" y="425.623">uses</text></g><!--link CreateYML to SequenceNode_BRQTO_Tag_DOT_SEQ_COMMA__SPC_Arraylist_BRQTO__BRQTC_BRQTO__BRQTC_COMMA__SPC_dummperOptions_BRQTC--><g id="link_CreateYML_SequenceNode_BRQTO_Tag_DOT_SEQ_COMMA__SPC_Arraylist_BRQTO__BRQTC_BRQTO__BRQTC_COMMA__SPC_dummperOptions_BRQTC"><path codeLine="75" d="M948.49,178.2447 C1168.78,189.7747 2033.66,238.6247 2739.5,328.5547 C2878.53,346.2647 3036.82,374.6547 3143.53,395.0147 " fill="none" id="CreateYML-to-SequenceNode_BRQTO_Tag_DOT_SEQ_COMMA__SPC_Arraylist_BRQTO__BRQTC_BRQTO__BRQTC_COMMA__SPC_dummperOptions_BRQTC" style="stroke:#909090;stroke-width:1.0;"/><polygon fill="#909090" points="3148.21,396.1047,3140.1092,390.5032,3143.2969,395.1763,3138.6238,398.3641,3148.21,396.1047" style="stroke:#909090;stroke-width:1.0;"/><text fill="#000000" font-family="sans-serif" font-size="13" lengthAdjust="spacing" textLength="29" x="2856.5" y="342.123">uses</text></g><!--link CreateYML to Datastructure_DOT_SubDataStructure--><g id="link_CreateYML_Datastructure_DOT_SubDataStructure"><path codeLine="76" d="M900.12,198.9047 C909.13,250.3047 924.76,376.0247 883.5,468.5547 C874.55,488.6347 857.84,506.2247 842,519.5947 " fill="none" id="CreateYML-to-Datastructure_DOT_SubDataStructure" style="stroke:#909090;stroke-width:1.0;"/><polygon fill="#909090" points="838.56,523.2447,848.0523,520.6184,842.4221,520.0692,842.9714,514.439,838.56,523.2447" style="stroke:#909090;stroke-width:1.0;"/><text fill="#000000" font-family="sans-serif" font-size="13" lengthAdjust="spacing" textLength="29" x="909.5" y="425.623">uses</text></g><!--link CreateYML to Yaml--><g id="link_CreateYML_Yaml"><path codeLine="77" d="M909.12,198.9547 C935.3,243.9447 992.6,342.4047 1020.95,391.1047 " fill="none" id="CreateYML-to-Yaml" style="stroke:#909090;stroke-width:1.0;"/><polygon fill="#909090" points="1023.93,395.2347,1022.8543,385.4447,1021.4124,390.9148,1015.9424,389.4729,1023.93,395.2347" style="stroke:#909090;stroke-width:1.0;"/><text fill="#000000" font-family="sans-serif" font-size="13" lengthAdjust="spacing" textLength="29" x="992.5" y="342.123">uses</text></g><!--link CreateYML to PrintWriter--><g id="link_CreateYML_PrintWriter"><path codeLine="78" d="M948.24,195.6347 C1021.21,224.6947 1155.5,282.7947 1257.5,353.5547 C1273.53,364.6747 1289.5,379.3847 1302.13,392.0947 " fill="none" id="CreateYML-to-PrintWriter" style="stroke:#909090;stroke-width:1.0;"/><polygon fill="#909090" points="1305.29,395.3247,1301.8287,386.1041,1301.7831,391.7608,1296.1264,391.7151,1305.29,395.3247" style="stroke:#909090;stroke-width:1.0;"/><text fill="#000000" font-family="sans-serif" font-size="13" lengthAdjust="spacing" textLength="29" x="1240.5" y="342.123">uses</text></g><!--SRC=[pLVVJzim47xlNt621wHEoRez8AsYI526za0fh4WJQgl896wnI9pCTe22zh_ltAHDqgLj4b9OMZMrS_w- -vNpMJ7bKZYIx8MslxQE0q69Gm95XSduH12fH6YhK51eDYNp0fTD67MQJI3SmQcfyCE0EX1G0PnuL0R4fitcqMUDTzpWlgAmT-k70WX244xSsGlZq_Q8rqCquYFUwPmp5t4wdH57Ah091zjbzWDGfkvH7d-IDH96t1SeGAICPc62uyaS0bNJqjwS5FymCU8E4zHMuD20SeTocr5fHhG3wkedlYRHv4tOP9H35M7kTfFGDm0m7Ax5CXn6fe9unWBHY94CH3AMIAPyd8x7Mglpq7KXNbJAkmjL9WYmP4sMR-FzuNjq0S7GTy_clVBSyNWFY8HproSA_Ns9ATA8ed4MUeZK3nJpkJHHu6cWPfYSm-6Q9oLrWlqUuwgBVlNWjV4dPkqHyO0K-bOBdiDi5SmDSxJgwM4j-0FwEyGqf35-UbYx_jRfp-kRldL3fjPP_yRgdLnPtNwlTs9PWwkkTI84cRbCgbXiVkjc1obn9_HIKOoUhpXevtorU2Ybma3fch6qPSsJskE-ugV1z-lwu_AkVBLuw9PuBYgkRxNWNM44rI_1i0GZR6hqHlG3wBg-r7iDmSACTVwH-Q6qP7XdBLTQsfz9BOPBdrEuepO99TMRLRoPIYO1lnF6cRodZjb8LYJxHsOpAQlxQ-oCr7PquK-dAwZnN5dmo1rTtmkmFN2WVkNX2Li0G0CKu6RjKOxRzGHs6u84EyyUD7W7CSg3D1tV8undunJDbIS0-2SD8YZpZAXKdvD3bfMea2A00Il87vMdy4vF3eehbRkiegQRqxdEeEGdDtn0UaS6P4hR1-V-IljTf9r-oxkGXJHrhLVqjdUnYJYHAhsVpAYBFN2nXDkX9_wV1CmQKYGHuG3FFOKks9ciLb8dag0kcJT3G9-L8BR2M4w4xoMwjr6sf7ZAsgeBuyBKs5RqFnd3_I-jKxp6HhKAlPN27EuVjWwHOsmUv_GYq0RC6baIPrqZNnWDxVxMqf-nKG2jSXXMihj8tSdOkUvWdMTdCSJveRdwyimPkJfCvYXS2YOJkFSzyLOtjqow5hEykWFNlO-vhqajo1lUzFB6xlu0NLtFIWMqEjtyr5nzUVgGl43v2m00]--></g></svg>