<?xml version="1.0" encoding="us-ascii" standalone="no"?><svg xmlns="http://www.w3.org/2000/svg" xmlns:xlink="http://www.w3.org/1999/xlink" contentStyleType="text/css" height="445px" preserveAspectRatio="none" style="width:1034px;height:445px;background:#FFFFFF;" version="1.1" viewBox="0 0 1034 445" width="1034px" zoomAndPan="magnify"><defs/><g><text fill="#000000" font-family="sans-serif" font-size="20" font-weight="bold" lengthAdjust="spacing" textLength="436" x="243.25" y="29.3359">preadapter.service.RecursiveFileProcessor</text><text fill="#000000" font-family="sans-serif" font-size="20" font-weight="bold" lengthAdjust="spacing" textLength="84" x="686.25" y="29.3359">detailed</text><text fill="#000000" font-family="sans-serif" font-size="20" font-weight="bold" lengthAdjust="spacing" textLength="7" x="770.25" y="29.3359">&#160;</text><!--cluster preadapter--><g id="cluster_preadapter"><path d="M482,50.5547 L560,50.5547 A3.75,3.75 0 0 1 562.5,53.0547 L569.5,73.043 L1025,73.043 A2.5,2.5 0 0 1 1027.5,75.543 L1027.5,321.0547 A2.5,2.5 0 0 1 1025,323.5547 L482,323.5547 A2.5,2.5 0 0 1 479.5,321.0547 L479.5,53.0547 A2.5,2.5 0 0 1 482,50.5547 " fill="none" style="stroke:#000000;stroke-width:1.5;"/><line style="stroke:#000000;stroke-width:1.5;" x1="479.5" x2="569.5" y1="73.043" y2="73.043"/><text fill="#000000" font-family="sans-serif" font-size="14" font-weight="bold" lengthAdjust="spacing" textLength="77" x="483.5" y="66.0898">preadapter</text></g><!--cluster service--><g id="cluster_service"><path d="M506,93.5547 L557,93.5547 A3.75,3.75 0 0 1 559.5,96.0547 L566.5,116.043 L1001,116.043 A2.5,2.5 0 0 1 1003.5,118.543 L1003.5,297.0547 A2.5,2.5 0 0 1 1001,299.5547 L506,299.5547 A2.5,2.5 0 0 1 503.5,297.0547 L503.5,96.0547 A2.5,2.5 0 0 1 506,93.5547 " fill="none" style="stroke:#000000;stroke-width:1.5;"/><line style="stroke:#000000;stroke-width:1.5;" x1="503.5" x2="566.5" y1="116.043" y2="116.043"/><text fill="#000000" font-family="sans-serif" font-size="14" font-weight="bold" lengthAdjust="spacing" textLength="50" x="507.5" y="109.0898">service</text></g><!--class RecursiveFileProcessor--><a href="preadapter.service.RecursiveFileProcessor-diagram-detailed.svg" target="_top" title="preadapter.service.RecursiveFileProcessor-diagram-detailed.svg" xlink:actuate="onRequest" xlink:href="preadapter.service.RecursiveFileProcessor-diagram-detailed.svg" xlink:show="new" xlink:title="preadapter.service.RecursiveFileProcessor-diagram-detailed.svg" xlink:type="simple"><g id="elem_RecursiveFileProcessor"><rect codeLine="6" fill="#FFFF00" height="154.9297" id="RecursiveFileProcessor" rx="2.5" ry="2.5" style="stroke:#181818;stroke-width:0.5;" width="467" x="520" y="128.5547"/><ellipse cx="671.25" cy="144.5547" fill="#ADD1B2" rx="11" ry="11" style="stroke:#181818;stroke-width:1.0;"/><path d="M673.7231,150.6978 Q673.1421,150.9966 672.5029,151.146 Q671.8638,151.2954 671.1582,151.2954 Q668.6514,151.2954 667.3315,149.6436 Q666.0117,147.9917 666.0117,144.8706 Q666.0117,141.7412 667.3315,140.0894 Q668.6514,138.4375 671.1582,138.4375 Q671.8638,138.4375 672.5112,138.5869 Q673.1587,138.7363 673.7231,139.0352 L673.7231,141.7578 Q673.0923,141.1768 672.4988,140.907 Q671.9053,140.6372 671.2744,140.6372 Q669.9297,140.6372 669.2449,141.7039 Q668.5601,142.7705 668.5601,144.8706 Q668.5601,146.9624 669.2449,148.0291 Q669.9297,149.0957 671.2744,149.0957 Q671.9053,149.0957 672.4988,148.8259 Q673.0923,148.5562 673.7231,147.9751 Z " fill="#000000"/><text fill="#000000" font-family="sans-serif" font-size="14" lengthAdjust="spacing" textLength="156" x="691.75" y="149.8457">RecursiveFileProcessor</text><line style="stroke:#181818;stroke-width:0.5;" x1="521" x2="986" y1="160.5547" y2="160.5547"/><ellipse cx="531" cy="174.2988" fill="#84BE84" rx="3" ry="3" style="stroke:#038048;stroke-width:1.0;"/><text fill="#000000" font-family="sans-serif" font-size="14" lengthAdjust="spacing" textLength="81" x="540" y="178.0898">SearchPath(</text><text fill="#6060BB" font-family="sans-serif" font-size="14" lengthAdjust="spacing" textLength="76" x="621" y="178.0898">path:String</text><text fill="#000000" font-family="sans-serif" font-size="14" lengthAdjust="spacing" textLength="9" x="697" y="178.0898">):</text><text fill="#BB6060" font-family="sans-serif" font-size="14" lengthAdjust="spacing" textLength="71" x="710" y="178.0898">list[String]</text><rect fill="none" height="6" style="stroke:#C82930;stroke-width:1.0;" width="6" x="528" y="187.7871"/><text fill="#909090" font-family="sans-serif" font-size="14" lengthAdjust="spacing" textLength="203" x="540" y="194.5781">SearchPath.fileList: list[String]</text><line style="stroke:#181818;stroke-width:1.0;" x1="521" x2="986" y1="201.5313" y2="201.5313"/><rect fill="#F24D5C" height="6" style="stroke:#C82930;stroke-width:1.0;" width="6" x="528" y="212.2754"/><text fill="#000000" font-family="sans-serif" font-size="14" lengthAdjust="spacing" textLength="119" x="540" y="219.0664">ProcessDirectory(</text><text fill="#6060BB" font-family="sans-serif" font-size="14" lengthAdjust="spacing" textLength="280" x="659" y="219.0664">sourceDirectory:String, fileList:list[String]</text><text fill="#000000" font-family="sans-serif" font-size="14" lengthAdjust="spacing" textLength="9" x="939" y="219.0664">):</text><text fill="#BB6060" font-family="sans-serif" font-size="14" lengthAdjust="spacing" textLength="29" x="952" y="219.0664">void</text><rect fill="none" height="6" style="stroke:#C82930;stroke-width:1.0;" width="6" x="528" y="228.7637"/><text fill="#909090" font-family="sans-serif" font-size="14" lengthAdjust="spacing" textLength="323" x="540" y="235.5547">ProcessDirectory.stream: DirectoryStream[Path]</text><rect fill="none" height="6" style="stroke:#C82930;stroke-width:1.0;" width="6" x="528" y="245.252"/><text fill="#909090" font-family="sans-serif" font-size="14" lengthAdjust="spacing" textLength="255" x="540" y="252.043">ProcessDirectory.isDirectory: boolean</text><rect fill="none" height="6" style="stroke:#C82930;stroke-width:1.0;" width="6" x="528" y="261.7402"/><text fill="#909090" font-family="sans-serif" font-size="14" lengthAdjust="spacing" textLength="187" x="540" y="268.5313">ProcessDirectory.path: Path</text><line style="stroke:#181818;stroke-width:1.0;" x1="521" x2="986" y1="275.4844" y2="275.4844"/></g></a><g id="elem_FloatingNote"><path d="M6,82.0547 L6,329.7129 L463,329.7129 L463,92.0547 L453,82.0547 L6,82.0547 " fill="#FEFFDD" style="stroke:#181818;stroke-width:0.5;"/><path d="M453,82.0547 L453,92.0547 L463,92.0547 L453,82.0547 " fill="#FEFFDD" style="stroke:#181818;stroke-width:1.0;"/><text fill="#000000" font-family="sans-serif" font-size="13" lengthAdjust="spacing" textLength="120" x="12" y="99.623">Your are analyzing:</text><text fill="#000000" font-family="sans-serif" font-size="13" lengthAdjust="spacing" textLength="262" x="12" y="114.9336">preadapter.service.RecursiveFileProcessor</text><text fill="#000000" font-family="sans-serif" font-size="13" font-weight="bold" lengthAdjust="spacing" textLength="55" x="278" y="114.9336">detailed</text><text fill="#000000" font-family="sans-serif" font-size="13" lengthAdjust="spacing" textLength="4" x="333" y="114.9336">&#160;</text><text fill="#000000" font-family="sans-serif" font-size="13" lengthAdjust="spacing" textLength="4" x="12" y="130.2441">&#160;</text><text fill="#000000" font-family="sans-serif" font-size="13" lengthAdjust="spacing" textLength="229" x="12" y="160.8652">You can click either the namespaces</text><text fill="#000000" font-family="sans-serif" font-size="13" lengthAdjust="spacing" textLength="266" x="12" y="176.1758">or class names for filtering them and their</text><text fill="#000000" font-family="sans-serif" font-size="13" lengthAdjust="spacing" textLength="130" x="12" y="191.4863">direct dependencies.</text><text fill="#000000" font-family="sans-serif" font-size="13" lengthAdjust="spacing" textLength="4" x="12" y="206.7969">&#160;</text><line style="stroke:#181818;stroke-width:1.0;" x1="7" x2="218.5" y1="140.6416" y2="140.6416"/><line style="stroke:#181818;stroke-width:1.0;" x1="7" x2="218.5" y1="142.6416" y2="142.6416"/><text fill="#000000" font-family="sans-serif" font-size="13" lengthAdjust="spacing" textLength="32" x="218.5" y="145.0547">Filter</text><line style="stroke:#181818;stroke-width:1.0;" x1="250.5" x2="462" y1="140.6416" y2="140.6416"/><line style="stroke:#181818;stroke-width:1.0;" x1="250.5" x2="462" y1="142.6416" y2="142.6416"/><ellipse cx="17.5" cy="236.6602" fill="#000000" rx="2.5" ry="2.5" style="stroke:#000000;stroke-width:0.0;"/><text fill="#000000" font-family="sans-serif" font-size="13" lengthAdjust="spacing" textLength="262" x="24" y="241.418">preadapter.service.RecursiveFileProcessor</text><text fill="#000000" font-family="sans-serif" font-size="13" font-weight="bold" lengthAdjust="spacing" textLength="67" x="290" y="241.418">simplified</text><text fill="#000000" font-family="sans-serif" font-size="13" lengthAdjust="spacing" textLength="4" x="361" y="241.418">:</text><text fill="#000000" font-family="sans-serif" font-size="13" lengthAdjust="spacing" textLength="12" x="12" y="256.7285">&#160;&#160;&#160;</text><a href="preadapter.service.RecursiveFileProcessor-diagram-simplified.svg" target="_top" title="preadapter.service.RecursiveFileProcessor-diagram-simplified.svg" xlink:actuate="onRequest" xlink:href="preadapter.service.RecursiveFileProcessor-diagram-simplified.svg" xlink:show="new" xlink:title="preadapter.service.RecursiveFileProcessor-diagram-simplified.svg" xlink:type="simple"><text fill="#0000FF" font-family="sans-serif" font-size="13" lengthAdjust="spacing" text-decoration="underline" textLength="418" x="24" y="256.7285">preadapter.service.RecursiveFileProcessor-diagram-simplified.svg</text></a><ellipse cx="17.5" cy="267.2813" fill="#000000" rx="2.5" ry="2.5" style="stroke:#000000;stroke-width:0.0;"/><text fill="#000000" font-family="sans-serif" font-size="13" lengthAdjust="spacing" textLength="78" x="24" y="272.0391">Full diagram</text><text fill="#000000" font-family="sans-serif" font-size="13" font-weight="bold" lengthAdjust="spacing" textLength="55" x="106" y="272.0391">detailed</text><text fill="#000000" font-family="sans-serif" font-size="13" lengthAdjust="spacing" textLength="23" x="165" y="272.0391">and</text><text fill="#000000" font-family="sans-serif" font-size="13" font-weight="bold" lengthAdjust="spacing" textLength="166" x="192" y="272.0391">grouped per namespace</text><text fill="#000000" font-family="sans-serif" font-size="13" lengthAdjust="spacing" textLength="4" x="358" y="272.0391">:</text><text fill="#000000" font-family="sans-serif" font-size="13" lengthAdjust="spacing" textLength="12" x="12" y="287.3496">&#160;&#160;&#160;</text><a href="full-diagram-detailed-grouped-per-namespace.svg" target="_top" title="full-diagram-detailed-grouped-per-namespace.svg" xlink:actuate="onRequest" xlink:href="full-diagram-detailed-grouped-per-namespace.svg" xlink:show="new" xlink:title="full-diagram-detailed-grouped-per-namespace.svg" xlink:type="simple"><text fill="#0000FF" font-family="sans-serif" font-size="13" lengthAdjust="spacing" text-decoration="underline" textLength="330" x="24" y="287.3496">full-diagram-detailed-grouped-per-namespace.svg</text></a><ellipse cx="17.5" cy="297.9023" fill="#000000" rx="2.5" ry="2.5" style="stroke:#000000;stroke-width:0.0;"/><text fill="#000000" font-family="sans-serif" font-size="13" lengthAdjust="spacing" textLength="41" x="24" y="302.6602">Home:</text><text fill="#000000" font-family="sans-serif" font-size="13" lengthAdjust="spacing" textLength="12" x="12" y="317.9707">&#160;&#160;&#160;</text><a href="index.html" target="_top" title="index.html" xlink:actuate="onRequest" xlink:href="index.html" xlink:show="new" xlink:title="index.html" xlink:type="simple"><text fill="#0000FF" font-family="sans-serif" font-size="13" lengthAdjust="spacing" text-decoration="underline" textLength="68" x="24" y="317.9707">index.html</text></a><line style="stroke:#181818;stroke-width:1.0;" x1="7" x2="197.5" y1="221.1943" y2="221.1943"/><line style="stroke:#181818;stroke-width:1.0;" x1="7" x2="197.5" y1="223.1943" y2="223.1943"/><text fill="#000000" font-family="sans-serif" font-size="13" lengthAdjust="spacing" textLength="74" x="197.5" y="225.6074">Select other</text><line style="stroke:#181818;stroke-width:1.0;" x1="271.5" x2="462" y1="221.1943" y2="221.1943"/><line style="stroke:#181818;stroke-width:1.0;" x1="271.5" x2="462" y1="223.1943" y2="223.1943"/></g><!--class Path--><a href="Path-diagram-detailed.svg" target="_top" title="Path-diagram-detailed.svg" xlink:actuate="onRequest" xlink:href="Path-diagram-detailed.svg" xlink:show="new" xlink:title="Path-diagram-detailed.svg" xlink:type="simple"><g id="elem_Path"><rect codeLine="4" fill="#F5FFFA" height="48" id="Path" rx="2.5" ry="2.5" style="stroke:#181818;stroke-width:0.5;" width="62" x="722.5" y="390.0547"/><ellipse cx="737.5" cy="406.0547" fill="#ADD1B2" rx="11" ry="11" style="stroke:#181818;stroke-width:1.0;"/><path d="M739.9731,412.1978 Q739.3921,412.4966 738.7529,412.646 Q738.1138,412.7954 737.4082,412.7954 Q734.9014,412.7954 733.5815,411.1436 Q732.2617,409.4917 732.2617,406.3706 Q732.2617,403.2412 733.5815,401.5894 Q734.9014,399.9375 737.4082,399.9375 Q738.1138,399.9375 738.7612,400.0869 Q739.4087,400.2363 739.9731,400.5352 L739.9731,403.2578 Q739.3423,402.6768 738.7488,402.407 Q738.1553,402.1372 737.5244,402.1372 Q736.1797,402.1372 735.4949,403.2039 Q734.8101,404.2705 734.8101,406.3706 Q734.8101,408.4624 735.4949,409.5291 Q736.1797,410.5957 737.5244,410.5957 Q738.1553,410.5957 738.7488,410.3259 Q739.3423,410.0562 739.9731,409.4751 Z " fill="#000000"/><text fill="#000000" font-family="sans-serif" font-size="14" lengthAdjust="spacing" textLength="30" x="751.5" y="411.3457">Path</text><line style="stroke:#181818;stroke-width:0.5;" x1="723.5" x2="783.5" y1="422.0547" y2="422.0547"/><line style="stroke:#181818;stroke-width:0.5;" x1="723.5" x2="783.5" y1="430.0547" y2="430.0547"/></g></a><!--link RecursiveFileProcessor to Path--><g id="link_RecursiveFileProcessor_Path"><path codeLine="23" d="M753.5,283.8047 C753.5,283.8047 753.5,383.8647 753.5,383.8647 " fill="none" id="RecursiveFileProcessor-to-Path" style="stroke:#909090;stroke-width:1.0;"/><polygon fill="#909090" points="753.5,388.8647,757.5,379.8647,753.5,383.8647,749.5,379.8647,753.5,388.8647" style="stroke:#909090;stroke-width:1.0;"/><text fill="#000000" font-family="sans-serif" font-size="13" lengthAdjust="spacing" textLength="29" x="723.5" y="330.403">uses</text></g><!--SRC=[jLHDZvim4BtpAqRiOLjQsAY7bOeI3jagwg6jLisfIZYuPWZM6XlPJhhPgl-zOo2WxAPIDb91uiEyUVFcUGRx85J33Aj12eLkto1euoeTEE4amjIA9qm_JBB682jOuz0a5irES4o-8zyQAtQu41BlZUPehJOGHGKwHaj55C7qnXDaWT8E8VoXjmQOGM2AoVsJK9jqhIvaNgkrciq8G86psLeHDt2cW4l17m25gz00NK2n6ct3Y8DYY8LBPcst2YMzboq5QV7ecgGL_a6OjIg4GUwWm0PLWOeBj4cNTedIVz4-YKyUmMkgiA9kf2X5MmSv002hrTa4SI7OXZOi7caIkzlakPUns4e9FU3OBrzN56sCtZPOG4Fc3CP4qK54IU43_o4uxeDY2eg7e37dPrtZWK2GKOz9vMgPvo4m2mkfcIDplr4319trzynL1FMt5xawLhZwAfIx8qTg-1ty2Q3VjFDDliJFvnhsAAN-HGAeCdW7IsI6LrxrcscfbGEkfJQpy7PoEvdFmwoXB-dI-KwQtdX0zZQ58-Hyxh5X9eLrgmwPzz0sHtmC_pZnPvYDYHFgLVn2qIcSueZZdgQlxLFRlzhiJmksD8qS1r2l_JqCIKxa-5T9EosACqfvBYonpczo2iFAibrecoE_X52Cpodyr5eYKvVmjBlPjkgHkzIBrpH6Pntmtx3NSDVEWq59mwML1NnqXd57arqQNO-ZdHBsbV2NWnESFtVnwggpD8-pRj0XXQsbN-rV]--></g></svg>