<?xml version="1.0" encoding="us-ascii" standalone="no"?><svg xmlns="http://www.w3.org/2000/svg" xmlns:xlink="http://www.w3.org/1999/xlink" contentStyleType="text/css" height="537px" preserveAspectRatio="none" style="width:1554px;height:537px;background:#FFFFFF;" version="1.1" viewBox="0 0 1554 537" width="1554px" zoomAndPan="magnify"><defs/><g><text fill="#000000" font-family="sans-serif" font-size="20" font-weight="bold" lengthAdjust="spacing" textLength="261" x="433.75" y="29.3359">preadapter.infrastructure</text><text fill="#000000" font-family="sans-serif" font-size="20" font-weight="bold" lengthAdjust="spacing" textLength="104" x="701.75" y="29.3359">simplified</text><text fill="#000000" font-family="sans-serif" font-size="20" font-weight="bold" lengthAdjust="spacing" textLength="38" x="812.75" y="29.3359">and</text><text fill="#000000" font-family="sans-serif" font-size="20" font-weight="bold" lengthAdjust="spacing" textLength="249" x="857.75" y="29.3359">grouped per namespace</text><!--cluster DumperOptions--><g id="cluster_DumperOptions"><path d="M1419,323.5547 L1535,323.5547 A3.75,3.75 0 0 1 1537.5,326.0547 L1544.5,346.043 L1545,346.043 A2.5,2.5 0 0 1 1547.5,348.543 L1547.5,420.0547 A2.5,2.5 0 0 1 1545,422.5547 L1419,422.5547 A2.5,2.5 0 0 1 1416.5,420.0547 L1416.5,326.0547 A2.5,2.5 0 0 1 1419,323.5547 " fill="none" style="stroke:#000000;stroke-width:1.5;"/><line style="stroke:#000000;stroke-width:1.5;" x1="1416.5" x2="1544.5" y1="346.043" y2="346.043"/><text fill="#000000" font-family="sans-serif" font-size="14" font-weight="bold" lengthAdjust="spacing" textLength="115" x="1420.5" y="339.0898">DumperOptions</text></g><!--cluster preadapter--><g id="cluster_preadapter"><a href="preadapter-diagram-simplified-grouped-per-namespace.svg" target="_top" title="preadapter-diagram-simplified-grouped-per-namespace.svg" xlink:actuate="onRequest" xlink:href="preadapter-diagram-simplified-grouped-per-namespace.svg" xlink:show="new" xlink:title="preadapter-diagram-simplified-grouped-per-namespace.svg" xlink:type="simple"><path d="M530,72.5547 L608,72.5547 A3.75,3.75 0 0 1 610.5,75.0547 L617.5,95.043 L744,95.043 A2.5,2.5 0 0 1 746.5,97.543 L746.5,528.0547 A2.5,2.5 0 0 1 744,530.5547 L530,530.5547 A2.5,2.5 0 0 1 527.5,528.0547 L527.5,75.0547 A2.5,2.5 0 0 1 530,72.5547 " fill="none" style="stroke:#000000;stroke-width:1.5;"/><line style="stroke:#000000;stroke-width:1.5;" x1="527.5" x2="617.5" y1="95.043" y2="95.043"/><text fill="#000000" font-family="sans-serif" font-size="14" font-weight="bold" lengthAdjust="spacing" textLength="77" x="531.5" y="88.0898">preadapter</text></a></g><!--cluster domain--><g id="cluster_domain"><a href="preadapter.domain-diagram-simplified-grouped-per-namespace.svg" target="_top" title="preadapter.domain-diagram-simplified-grouped-per-namespace.svg" xlink:actuate="onRequest" xlink:href="preadapter.domain-diagram-simplified-grouped-per-namespace.svg" xlink:show="new" xlink:title="preadapter.domain-diagram-simplified-grouped-per-namespace.svg" xlink:type="simple"><path d="M567,323.5547 L622,323.5547 A3.75,3.75 0 0 1 624.5,326.0547 L631.5,346.043 L720,346.043 A2.5,2.5 0 0 1 722.5,348.543 L722.5,420.0547 A2.5,2.5 0 0 1 720,422.5547 L567,422.5547 A2.5,2.5 0 0 1 564.5,420.0547 L564.5,326.0547 A2.5,2.5 0 0 1 567,323.5547 " fill="none" style="stroke:#000000;stroke-width:1.5;"/><line style="stroke:#000000;stroke-width:1.5;" x1="564.5" x2="631.5" y1="346.043" y2="346.043"/><text fill="#000000" font-family="sans-serif" font-size="14" font-weight="bold" lengthAdjust="spacing" textLength="54" x="568.5" y="339.0898">domain</text></a></g><!--cluster infrastructure--><g id="cluster_infrastructure"><a href="preadapter.infrastructure-diagram-simplified-grouped-per-namespace.svg" target="_top" title="preadapter.infrastructure-diagram-simplified-grouped-per-namespace.svg" xlink:actuate="onRequest" xlink:href="preadapter.infrastructure-diagram-simplified-grouped-per-namespace.svg" xlink:show="new" xlink:title="preadapter.infrastructure-diagram-simplified-grouped-per-namespace.svg" xlink:type="simple"><path d="M587,115.5547 L687,115.5547 A3.75,3.75 0 0 1 689.5,118.0547 L696.5,138.043 L720,138.043 A2.5,2.5 0 0 1 722.5,140.543 L722.5,212.0547 A2.5,2.5 0 0 1 720,214.5547 L587,214.5547 A2.5,2.5 0 0 1 584.5,212.0547 L584.5,118.0547 A2.5,2.5 0 0 1 587,115.5547 " fill="none" style="stroke:#000000;stroke-width:1.5;"/><line style="stroke:#000000;stroke-width:1.5;" x1="584.5" x2="696.5" y1="138.043" y2="138.043"/><text fill="#000000" font-family="sans-serif" font-size="14" font-weight="bold" lengthAdjust="spacing" textLength="99" x="588.5" y="131.0898">infrastructure</text></a></g><!--class FlowStyle--><a href="DumperOptions.FlowStyle-diagram-simplified-grouped-per-namespace.svg" target="_top" title="DumperOptions.FlowStyle-diagram-simplified-grouped-per-namespace.svg" xlink:actuate="onRequest" xlink:href="DumperOptions.FlowStyle-diagram-simplified-grouped-per-namespace.svg" xlink:show="new" xlink:title="DumperOptions.FlowStyle-diagram-simplified-grouped-per-namespace.svg" xlink:type="simple"><g id="elem_FlowStyle"><rect codeLine="4" fill="#F5FFFA" height="48" id="FlowStyle" rx="2.5" ry="2.5" style="stroke:#181818;stroke-width:0.5;" width="96" x="1433.5" y="358.5547"/><ellipse cx="1448.5" cy="374.5547" fill="#ADD1B2" rx="11" ry="11" style="stroke:#181818;stroke-width:1.0;"/><path d="M1450.9731,380.6978 Q1450.3921,380.9966 1449.7529,381.146 Q1449.1138,381.2954 1448.4082,381.2954 Q1445.9014,381.2954 1444.5815,379.6436 Q1443.2617,377.9917 1443.2617,374.8706 Q1443.2617,371.7412 1444.5815,370.0894 Q1445.9014,368.4375 1448.4082,368.4375 Q1449.1138,368.4375 1449.7612,368.5869 Q1450.4087,368.7363 1450.9731,369.0352 L1450.9731,371.7578 Q1450.3423,371.1768 1449.7488,370.907 Q1449.1553,370.6372 1448.5244,370.6372 Q1447.1797,370.6372 1446.4949,371.7039 Q1445.8101,372.7705 1445.8101,374.8706 Q1445.8101,376.9624 1446.4949,378.0291 Q1447.1797,379.0957 1448.5244,379.0957 Q1449.1553,379.0957 1449.7488,378.8259 Q1450.3423,378.5562 1450.9731,377.9751 Z " fill="#000000"/><text fill="#000000" font-family="sans-serif" font-size="14" lengthAdjust="spacing" textLength="64" x="1462.5" y="379.8457">FlowStyle</text><line style="stroke:#181818;stroke-width:0.5;" x1="1434.5" x2="1528.5" y1="390.5547" y2="390.5547"/><line style="stroke:#181818;stroke-width:0.5;" x1="1434.5" x2="1528.5" y1="398.5547" y2="398.5547"/></g></a><!--class Logger--><a href="preadapter.Logger-diagram-simplified-grouped-per-namespace.svg" target="_top" title="preadapter.Logger-diagram-simplified-grouped-per-namespace.svg" xlink:actuate="onRequest" xlink:href="preadapter.Logger-diagram-simplified-grouped-per-namespace.svg" xlink:show="new" xlink:title="preadapter.Logger-diagram-simplified-grouped-per-namespace.svg" xlink:type="simple"><g id="elem_Logger"><rect codeLine="18" fill="#F1F1F1" height="48" id="Logger" rx="2.5" ry="2.5" style="stroke:#181818;stroke-width:0.5;" width="80" x="573.5" y="466.5547"/><ellipse cx="588.5" cy="482.5547" fill="#ADD1B2" rx="11" ry="11" style="stroke:#181818;stroke-width:1.0;"/><path d="M590.9731,488.6978 Q590.3921,488.9966 589.7529,489.146 Q589.1138,489.2954 588.4082,489.2954 Q585.9014,489.2954 584.5815,487.6436 Q583.2617,485.9917 583.2617,482.8706 Q583.2617,479.7412 584.5815,478.0894 Q585.9014,476.4375 588.4082,476.4375 Q589.1138,476.4375 589.7612,476.5869 Q590.4087,476.7363 590.9731,477.0352 L590.9731,479.7578 Q590.3423,479.1768 589.7488,478.907 Q589.1553,478.6372 588.5244,478.6372 Q587.1797,478.6372 586.4949,479.7039 Q585.8101,480.7705 585.8101,482.8706 Q585.8101,484.9624 586.4949,486.0291 Q587.1797,487.0957 588.5244,487.0957 Q589.1553,487.0957 589.7488,486.8259 Q590.3423,486.5562 590.9731,485.9751 Z " fill="#000000"/><text fill="#000000" font-family="sans-serif" font-size="14" lengthAdjust="spacing" textLength="48" x="602.5" y="487.8457">Logger</text><line style="stroke:#181818;stroke-width:0.5;" x1="574.5" x2="652.5" y1="498.5547" y2="498.5547"/><line style="stroke:#181818;stroke-width:0.5;" x1="574.5" x2="652.5" y1="506.5547" y2="506.5547"/></g></a><!--class Datastructure--><a href="preadapter.domain.Datastructure-diagram-simplified-grouped-per-namespace.svg" target="_top" title="preadapter.domain.Datastructure-diagram-simplified-grouped-per-namespace.svg" xlink:actuate="onRequest" xlink:href="preadapter.domain.Datastructure-diagram-simplified-grouped-per-namespace.svg" xlink:show="new" xlink:title="preadapter.domain.Datastructure-diagram-simplified-grouped-per-namespace.svg" xlink:type="simple"><g id="elem_Datastructure"><rect codeLine="26" fill="#F1F1F1" height="48" id="Datastructure" rx="2.5" ry="2.5" style="stroke:#181818;stroke-width:0.5;" width="125" x="581" y="358.5547"/><ellipse cx="596" cy="374.5547" fill="#ADD1B2" rx="11" ry="11" style="stroke:#181818;stroke-width:1.0;"/><path d="M598.4731,380.6978 Q597.8921,380.9966 597.2529,381.146 Q596.6138,381.2954 595.9082,381.2954 Q593.4014,381.2954 592.0815,379.6436 Q590.7617,377.9917 590.7617,374.8706 Q590.7617,371.7412 592.0815,370.0894 Q593.4014,368.4375 595.9082,368.4375 Q596.6138,368.4375 597.2612,368.5869 Q597.9087,368.7363 598.4731,369.0352 L598.4731,371.7578 Q597.8423,371.1768 597.2488,370.907 Q596.6553,370.6372 596.0244,370.6372 Q594.6797,370.6372 593.9949,371.7039 Q593.3101,372.7705 593.3101,374.8706 Q593.3101,376.9624 593.9949,378.0291 Q594.6797,379.0957 596.0244,379.0957 Q596.6553,379.0957 597.2488,378.8259 Q597.8423,378.5562 598.4731,377.9751 Z " fill="#000000"/><text fill="#000000" font-family="sans-serif" font-size="14" lengthAdjust="spacing" textLength="93" x="610" y="379.8457">Datastructure</text><line style="stroke:#181818;stroke-width:0.5;" x1="582" x2="705" y1="390.5547" y2="390.5547"/><line style="stroke:#181818;stroke-width:0.5;" x1="582" x2="705" y1="398.5547" y2="398.5547"/></g></a><!--class CreateYML--><a href="preadapter.infrastructure.CreateYML-diagram-simplified-grouped-per-namespace.svg" target="_top" title="preadapter.infrastructure.CreateYML-diagram-simplified-grouped-per-namespace.svg" xlink:actuate="onRequest" xlink:href="preadapter.infrastructure.CreateYML-diagram-simplified-grouped-per-namespace.svg" xlink:show="new" xlink:title="preadapter.infrastructure.CreateYML-diagram-simplified-grouped-per-namespace.svg" xlink:type="simple"><g id="elem_CreateYML"><rect codeLine="36" fill="#FFFF00" height="48" id="CreateYML" rx="2.5" ry="2.5" style="stroke:#181818;stroke-width:0.5;" width="105" x="601" y="150.5547"/><ellipse cx="616" cy="166.5547" fill="#ADD1B2" rx="11" ry="11" style="stroke:#181818;stroke-width:1.0;"/><path d="M618.4731,172.6978 Q617.8921,172.9966 617.2529,173.146 Q616.6138,173.2954 615.9082,173.2954 Q613.4014,173.2954 612.0815,171.6436 Q610.7617,169.9917 610.7617,166.8706 Q610.7617,163.7412 612.0815,162.0894 Q613.4014,160.4375 615.9082,160.4375 Q616.6138,160.4375 617.2612,160.5869 Q617.9087,160.7363 618.4731,161.0352 L618.4731,163.7578 Q617.8423,163.1768 617.2488,162.907 Q616.6553,162.6372 616.0244,162.6372 Q614.6797,162.6372 613.9949,163.7039 Q613.3101,164.7705 613.3101,166.8706 Q613.3101,168.9624 613.9949,170.0291 Q614.6797,171.0957 616.0244,171.0957 Q616.6553,171.0957 617.2488,170.8259 Q617.8423,170.5562 618.4731,169.9751 Z " fill="#000000"/><text fill="#000000" font-family="sans-serif" font-size="14" lengthAdjust="spacing" textLength="73" x="630" y="171.8457">CreateYML</text><line style="stroke:#181818;stroke-width:0.5;" x1="602" x2="705" y1="182.5547" y2="182.5547"/><line style="stroke:#181818;stroke-width:0.5;" x1="602" x2="705" y1="190.5547" y2="190.5547"/></g></a><g id="elem_FloatingNote"><path d="M6,50.5547 L6,298.2129 L511,298.2129 L511,60.5547 L501,50.5547 L6,50.5547 " fill="#FEFFDD" style="stroke:#181818;stroke-width:0.5;"/><path d="M501,50.5547 L501,60.5547 L511,60.5547 L501,50.5547 " fill="#FEFFDD" style="stroke:#181818;stroke-width:1.0;"/><text fill="#000000" font-family="sans-serif" font-size="13" lengthAdjust="spacing" textLength="120" x="12" y="68.123">Your are analyzing:</text><text fill="#000000" font-family="sans-serif" font-size="13" lengthAdjust="spacing" textLength="157" x="12" y="83.4336">preadapter.infrastructure</text><text fill="#000000" font-family="sans-serif" font-size="13" font-weight="bold" lengthAdjust="spacing" textLength="67" x="173" y="83.4336">simplified</text><text fill="#000000" font-family="sans-serif" font-size="13" lengthAdjust="spacing" textLength="23" x="244" y="83.4336">and</text><text fill="#000000" font-family="sans-serif" font-size="13" font-weight="bold" lengthAdjust="spacing" textLength="166" x="271" y="83.4336">grouped per namespace</text><text fill="#000000" font-family="sans-serif" font-size="13" lengthAdjust="spacing" textLength="4" x="12" y="98.7441">&#160;</text><text fill="#000000" font-family="sans-serif" font-size="13" lengthAdjust="spacing" textLength="229" x="12" y="129.3652">You can click either the namespaces</text><text fill="#000000" font-family="sans-serif" font-size="13" lengthAdjust="spacing" textLength="266" x="12" y="144.6758">or class names for filtering them and their</text><text fill="#000000" font-family="sans-serif" font-size="13" lengthAdjust="spacing" textLength="130" x="12" y="159.9863">direct dependencies.</text><text fill="#000000" font-family="sans-serif" font-size="13" lengthAdjust="spacing" textLength="4" x="12" y="175.2969">&#160;</text><line style="stroke:#181818;stroke-width:1.0;" x1="7" x2="242.5" y1="109.1416" y2="109.1416"/><line style="stroke:#181818;stroke-width:1.0;" x1="7" x2="242.5" y1="111.1416" y2="111.1416"/><text fill="#000000" font-family="sans-serif" font-size="13" lengthAdjust="spacing" textLength="32" x="242.5" y="113.5547">Filter</text><line style="stroke:#181818;stroke-width:1.0;" x1="274.5" x2="510" y1="109.1416" y2="109.1416"/><line style="stroke:#181818;stroke-width:1.0;" x1="274.5" x2="510" y1="111.1416" y2="111.1416"/><ellipse cx="17.5" cy="205.1602" fill="#000000" rx="2.5" ry="2.5" style="stroke:#000000;stroke-width:0.0;"/><text fill="#000000" font-family="sans-serif" font-size="13" lengthAdjust="spacing" textLength="157" x="24" y="209.918">preadapter.infrastructure</text><text fill="#000000" font-family="sans-serif" font-size="13" font-weight="bold" lengthAdjust="spacing" textLength="55" x="185" y="209.918">detailed</text><text fill="#000000" font-family="sans-serif" font-size="13" lengthAdjust="spacing" textLength="23" x="244" y="209.918">and</text><text fill="#000000" font-family="sans-serif" font-size="13" font-weight="bold" lengthAdjust="spacing" textLength="166" x="271" y="209.918">grouped per namespace</text><text fill="#000000" font-family="sans-serif" font-size="13" lengthAdjust="spacing" textLength="4" x="437" y="209.918">:</text><text fill="#000000" font-family="sans-serif" font-size="13" lengthAdjust="spacing" textLength="12" x="12" y="225.2285">&#160;&#160;&#160;</text><a href="preadapter.infrastructure-diagram-detailed-grouped-per-namespace.svg" target="_top" title="preadapter.infrastructure-diagram-detailed-grouped-per-namespace.svg" xlink:actuate="onRequest" xlink:href="preadapter.infrastructure-diagram-detailed-grouped-per-namespace.svg" xlink:show="new" xlink:title="preadapter.infrastructure-diagram-detailed-grouped-per-namespace.svg" xlink:type="simple"><text fill="#0000FF" font-family="sans-serif" font-size="13" lengthAdjust="spacing" text-decoration="underline" textLength="466" x="24" y="225.2285">preadapter.infrastructure-diagram-detailed-grouped-per-namespace.svg</text></a><ellipse cx="17.5" cy="235.7813" fill="#000000" rx="2.5" ry="2.5" style="stroke:#000000;stroke-width:0.0;"/><text fill="#000000" font-family="sans-serif" font-size="13" lengthAdjust="spacing" textLength="78" x="24" y="240.5391">Full diagram</text><text fill="#000000" font-family="sans-serif" font-size="13" font-weight="bold" lengthAdjust="spacing" textLength="67" x="106" y="240.5391">simplified</text><text fill="#000000" font-family="sans-serif" font-size="13" lengthAdjust="spacing" textLength="23" x="177" y="240.5391">and</text><text fill="#000000" font-family="sans-serif" font-size="13" font-weight="bold" lengthAdjust="spacing" textLength="166" x="204" y="240.5391">grouped per namespace</text><text fill="#000000" font-family="sans-serif" font-size="13" lengthAdjust="spacing" textLength="4" x="370" y="240.5391">:</text><text fill="#000000" font-family="sans-serif" font-size="13" lengthAdjust="spacing" textLength="12" x="12" y="255.8496">&#160;&#160;&#160;</text><a href="full-diagram-simplified-grouped-per-namespace.svg" target="_top" title="full-diagram-simplified-grouped-per-namespace.svg" xlink:actuate="onRequest" xlink:href="full-diagram-simplified-grouped-per-namespace.svg" xlink:show="new" xlink:title="full-diagram-simplified-grouped-per-namespace.svg" xlink:type="simple"><text fill="#0000FF" font-family="sans-serif" font-size="13" lengthAdjust="spacing" text-decoration="underline" textLength="343" x="24" y="255.8496">full-diagram-simplified-grouped-per-namespace.svg</text></a><ellipse cx="17.5" cy="266.4023" fill="#000000" rx="2.5" ry="2.5" style="stroke:#000000;stroke-width:0.0;"/><text fill="#000000" font-family="sans-serif" font-size="13" lengthAdjust="spacing" textLength="41" x="24" y="271.1602">Home:</text><text fill="#000000" font-family="sans-serif" font-size="13" lengthAdjust="spacing" textLength="12" x="12" y="286.4707">&#160;&#160;&#160;</text><a href="index.html" target="_top" title="index.html" xlink:actuate="onRequest" xlink:href="index.html" xlink:show="new" xlink:title="index.html" xlink:type="simple"><text fill="#0000FF" font-family="sans-serif" font-size="13" lengthAdjust="spacing" text-decoration="underline" textLength="68" x="24" y="286.4707">index.html</text></a><line style="stroke:#181818;stroke-width:1.0;" x1="7" x2="221.5" y1="189.6943" y2="189.6943"/><line style="stroke:#181818;stroke-width:1.0;" x1="7" x2="221.5" y1="191.6943" y2="191.6943"/><text fill="#000000" font-family="sans-serif" font-size="13" lengthAdjust="spacing" textLength="74" x="221.5" y="194.1074">Select other</text><line style="stroke:#181818;stroke-width:1.0;" x1="295.5" x2="510" y1="189.6943" y2="189.6943"/><line style="stroke:#181818;stroke-width:1.0;" x1="295.5" x2="510" y1="191.6943" y2="191.6943"/></g><!--class Mark--><a href="Mark-diagram-simplified-grouped-per-namespace.svg" target="_top" title="Mark-diagram-simplified-grouped-per-namespace.svg" xlink:actuate="onRequest" xlink:href="Mark-diagram-simplified-grouped-per-namespace.svg" xlink:show="new" xlink:title="Mark-diagram-simplified-grouped-per-namespace.svg" xlink:type="simple"><g id="elem_Mark"><rect codeLine="6" fill="#F5FFFA" height="48" id="Mark" rx="2.5" ry="2.5" style="stroke:#181818;stroke-width:0.5;" width="66" x="762.5" y="358.5547"/><ellipse cx="777.5" cy="374.5547" fill="#ADD1B2" rx="11" ry="11" style="stroke:#181818;stroke-width:1.0;"/><path d="M779.9731,380.6978 Q779.3921,380.9966 778.7529,381.146 Q778.1138,381.2954 777.4082,381.2954 Q774.9014,381.2954 773.5815,379.6436 Q772.2617,377.9917 772.2617,374.8706 Q772.2617,371.7412 773.5815,370.0894 Q774.9014,368.4375 777.4082,368.4375 Q778.1138,368.4375 778.7612,368.5869 Q779.4087,368.7363 779.9731,369.0352 L779.9731,371.7578 Q779.3423,371.1768 778.7488,370.907 Q778.1553,370.6372 777.5244,370.6372 Q776.1797,370.6372 775.4949,371.7039 Q774.8101,372.7705 774.8101,374.8706 Q774.8101,376.9624 775.4949,378.0291 Q776.1797,379.0957 777.5244,379.0957 Q778.1553,379.0957 778.7488,378.8259 Q779.3423,378.5562 779.9731,377.9751 Z " fill="#000000"/><text fill="#000000" font-family="sans-serif" font-size="14" lengthAdjust="spacing" textLength="34" x="791.5" y="379.8457">Mark</text><line style="stroke:#181818;stroke-width:0.5;" x1="763.5" x2="827.5" y1="390.5547" y2="390.5547"/><line style="stroke:#181818;stroke-width:0.5;" x1="763.5" x2="827.5" y1="398.5547" y2="398.5547"/></g></a><!--class dictpingNode--><a href="dictpingNode-diagram-simplified-grouped-per-namespace.svg" target="_top" title="dictpingNode-diagram-simplified-grouped-per-namespace.svg" xlink:actuate="onRequest" xlink:href="dictpingNode-diagram-simplified-grouped-per-namespace.svg" xlink:show="new" xlink:title="dictpingNode-diagram-simplified-grouped-per-namespace.svg" xlink:type="simple"><g id="elem_dictpingNode"><rect codeLine="8" fill="#F5FFFA" height="48" id="dictpingNode" rx="2.5" ry="2.5" style="stroke:#181818;stroke-width:0.5;" width="124" x="863.5" y="358.5547"/><ellipse cx="878.5" cy="374.5547" fill="#ADD1B2" rx="11" ry="11" style="stroke:#181818;stroke-width:1.0;"/><path d="M880.9731,380.6978 Q880.3921,380.9966 879.7529,381.146 Q879.1138,381.2954 878.4082,381.2954 Q875.9014,381.2954 874.5815,379.6436 Q873.2617,377.9917 873.2617,374.8706 Q873.2617,371.7412 874.5815,370.0894 Q875.9014,368.4375 878.4082,368.4375 Q879.1138,368.4375 879.7612,368.5869 Q880.4087,368.7363 880.9731,369.0352 L880.9731,371.7578 Q880.3423,371.1768 879.7488,370.907 Q879.1553,370.6372 878.5244,370.6372 Q877.1797,370.6372 876.4949,371.7039 Q875.8101,372.7705 875.8101,374.8706 Q875.8101,376.9624 876.4949,378.0291 Q877.1797,379.0957 878.5244,379.0957 Q879.1553,379.0957 879.7488,378.8259 Q880.3423,378.5562 880.9731,377.9751 Z " fill="#000000"/><text fill="#000000" font-family="sans-serif" font-size="14" lengthAdjust="spacing" textLength="92" x="892.5" y="379.8457">dictpingNode</text><line style="stroke:#181818;stroke-width:0.5;" x1="864.5" x2="986.5" y1="390.5547" y2="390.5547"/><line style="stroke:#181818;stroke-width:0.5;" x1="864.5" x2="986.5" y1="398.5547" y2="398.5547"/></g></a><!--class SequenceNode--><a href="SequenceNode-diagram-simplified-grouped-per-namespace.svg" target="_top" title="SequenceNode-diagram-simplified-grouped-per-namespace.svg" xlink:actuate="onRequest" xlink:href="SequenceNode-diagram-simplified-grouped-per-namespace.svg" xlink:show="new" xlink:title="SequenceNode-diagram-simplified-grouped-per-namespace.svg" xlink:type="simple"><g id="elem_SequenceNode"><rect codeLine="10" fill="#F5FFFA" height="48" id="SequenceNode" rx="2.5" ry="2.5" style="stroke:#181818;stroke-width:0.5;" width="134" x="1022.5" y="358.5547"/><ellipse cx="1037.5" cy="374.5547" fill="#ADD1B2" rx="11" ry="11" style="stroke:#181818;stroke-width:1.0;"/><path d="M1039.9731,380.6978 Q1039.3921,380.9966 1038.7529,381.146 Q1038.1138,381.2954 1037.4082,381.2954 Q1034.9014,381.2954 1033.5815,379.6436 Q1032.2617,377.9917 1032.2617,374.8706 Q1032.2617,371.7412 1033.5815,370.0894 Q1034.9014,368.4375 1037.4082,368.4375 Q1038.1138,368.4375 1038.7612,368.5869 Q1039.4087,368.7363 1039.9731,369.0352 L1039.9731,371.7578 Q1039.3423,371.1768 1038.7488,370.907 Q1038.1553,370.6372 1037.5244,370.6372 Q1036.1797,370.6372 1035.4949,371.7039 Q1034.8101,372.7705 1034.8101,374.8706 Q1034.8101,376.9624 1035.4949,378.0291 Q1036.1797,379.0957 1037.5244,379.0957 Q1038.1553,379.0957 1038.7488,378.8259 Q1039.3423,378.5562 1039.9731,377.9751 Z " fill="#000000"/><text fill="#000000" font-family="sans-serif" font-size="14" lengthAdjust="spacing" textLength="102" x="1051.5" y="379.8457">SequenceNode</text><line style="stroke:#181818;stroke-width:0.5;" x1="1023.5" x2="1155.5" y1="390.5547" y2="390.5547"/><line style="stroke:#181818;stroke-width:0.5;" x1="1023.5" x2="1155.5" y1="398.5547" y2="398.5547"/></g></a><!--class Yaml--><a href="Yaml-diagram-simplified-grouped-per-namespace.svg" target="_top" title="Yaml-diagram-simplified-grouped-per-namespace.svg" xlink:actuate="onRequest" xlink:href="Yaml-diagram-simplified-grouped-per-namespace.svg" xlink:show="new" xlink:title="Yaml-diagram-simplified-grouped-per-namespace.svg" xlink:type="simple"><g id="elem_Yaml"><rect codeLine="12" fill="#F5FFFA" height="48" id="Yaml" rx="2.5" ry="2.5" style="stroke:#181818;stroke-width:0.5;" width="66" x="1191.5" y="358.5547"/><ellipse cx="1206.5" cy="374.5547" fill="#ADD1B2" rx="11" ry="11" style="stroke:#181818;stroke-width:1.0;"/><path d="M1208.9731,380.6978 Q1208.3921,380.9966 1207.7529,381.146 Q1207.1138,381.2954 1206.4082,381.2954 Q1203.9014,381.2954 1202.5815,379.6436 Q1201.2617,377.9917 1201.2617,374.8706 Q1201.2617,371.7412 1202.5815,370.0894 Q1203.9014,368.4375 1206.4082,368.4375 Q1207.1138,368.4375 1207.7612,368.5869 Q1208.4087,368.7363 1208.9731,369.0352 L1208.9731,371.7578 Q1208.3423,371.1768 1207.7488,370.907 Q1207.1553,370.6372 1206.5244,370.6372 Q1205.1797,370.6372 1204.4949,371.7039 Q1203.8101,372.7705 1203.8101,374.8706 Q1203.8101,376.9624 1204.4949,378.0291 Q1205.1797,379.0957 1206.5244,379.0957 Q1207.1553,379.0957 1207.7488,378.8259 Q1208.3423,378.5562 1208.9731,377.9751 Z " fill="#000000"/><text fill="#000000" font-family="sans-serif" font-size="14" lengthAdjust="spacing" textLength="34" x="1220.5" y="379.8457">Yaml</text><line style="stroke:#181818;stroke-width:0.5;" x1="1192.5" x2="1256.5" y1="390.5547" y2="390.5547"/><line style="stroke:#181818;stroke-width:0.5;" x1="1192.5" x2="1256.5" y1="398.5547" y2="398.5547"/></g></a><!--class PrintWriter--><a href="PrintWriter-diagram-simplified-grouped-per-namespace.svg" target="_top" title="PrintWriter-diagram-simplified-grouped-per-namespace.svg" xlink:actuate="onRequest" xlink:href="PrintWriter-diagram-simplified-grouped-per-namespace.svg" xlink:show="new" xlink:title="PrintWriter-diagram-simplified-grouped-per-namespace.svg" xlink:type="simple"><g id="elem_PrintWriter"><rect codeLine="14" fill="#F5FFFA" height="48" id="PrintWriter" rx="2.5" ry="2.5" style="stroke:#181818;stroke-width:0.5;" width="105" x="1293" y="358.5547"/><ellipse cx="1308" cy="374.5547" fill="#ADD1B2" rx="11" ry="11" style="stroke:#181818;stroke-width:1.0;"/><path d="M1310.4731,380.6978 Q1309.8921,380.9966 1309.2529,381.146 Q1308.6138,381.2954 1307.9082,381.2954 Q1305.4014,381.2954 1304.0815,379.6436 Q1302.7617,377.9917 1302.7617,374.8706 Q1302.7617,371.7412 1304.0815,370.0894 Q1305.4014,368.4375 1307.9082,368.4375 Q1308.6138,368.4375 1309.2612,368.5869 Q1309.9087,368.7363 1310.4731,369.0352 L1310.4731,371.7578 Q1309.8423,371.1768 1309.2488,370.907 Q1308.6553,370.6372 1308.0244,370.6372 Q1306.6797,370.6372 1305.9949,371.7039 Q1305.3101,372.7705 1305.3101,374.8706 Q1305.3101,376.9624 1305.9949,378.0291 Q1306.6797,379.0957 1308.0244,379.0957 Q1308.6553,379.0957 1309.2488,378.8259 Q1309.8423,378.5562 1310.4731,377.9751 Z " fill="#000000"/><text fill="#000000" font-family="sans-serif" font-size="14" lengthAdjust="spacing" textLength="73" x="1322" y="379.8457">PrintWriter</text><line style="stroke:#181818;stroke-width:0.5;" x1="1294" x2="1397" y1="390.5547" y2="390.5547"/><line style="stroke:#181818;stroke-width:0.5;" x1="1294" x2="1397" y1="398.5547" y2="398.5547"/></g></a><!--reverse link Datastructure to Logger--><g id="link_Datastructure_Logger"><path codeLine="53" d="M617.25,420.7947 C617.25,420.7947 617.25,466.3947 617.25,466.3947 " fill="none" id="Datastructure-backto-Logger" style="stroke:#10BB10;stroke-width:1.0;"/><polygon fill="#10BB10" points="617.25,407.7947,613.25,413.7947,617.25,419.7947,621.25,413.7947,617.25,407.7947" style="stroke:#10BB10;stroke-width:1.0;"/></g><!--reverse link CreateYML to FlowStyle--><g id="link_CreateYML_FlowStyle"><path codeLine="56" d="M720.24,156.5547 C720.24,156.5547 1481.5,156.5547 1481.5,156.5547 C1481.5,156.5547 1481.5,300.0647 1481.5,358.3647 " fill="none" id="CreateYML-backto-FlowStyle" style="stroke:#10BB10;stroke-width:1.0;"/><polygon fill="#10BB10" points="707.24,156.5547,713.24,160.5547,719.24,156.5547,713.24,152.5547,707.24,156.5547" style="stroke:#10BB10;stroke-width:1.0;"/></g><!--reverse link CreateYML to Mark--><g id="link_CreateYML_Mark"><path codeLine="57" d="M720.38,192.5547 C720.38,192.5547 795.5,192.5547 795.5,192.5547 C795.5,192.5547 795.5,306.7847 795.5,358.1047 " fill="none" id="CreateYML-backto-Mark" style="stroke:#10BB10;stroke-width:1.0;"/><polygon fill="#10BB10" points="707.38,192.5547,713.38,196.5547,719.38,192.5547,713.38,188.5547,707.38,192.5547" style="stroke:#10BB10;stroke-width:1.0;"/></g><!--link CreateYML to dictpingNode--><g id="link_CreateYML_dictpingNode"><path codeLine="58" d="M706.27,186.5547 C785.37,186.5547 925.5,186.5547 925.5,186.5547 C925.5,186.5547 925.5,352.1247 925.5,352.1247 " fill="none" id="CreateYML-to-dictpingNode" style="stroke:#6060BB;stroke-width:1.0;stroke-dasharray:7.0,7.0;"/><polygon fill="#6060BB" points="925.5,357.1247,929.5,348.1247,925.5,352.1247,921.5,348.1247,925.5,357.1247" style="stroke:#6060BB;stroke-width:1.0;"/><text fill="#000000" font-family="sans-serif" font-size="13" lengthAdjust="spacing" textLength="29" x="868.67" y="183.123">uses</text></g><!--link CreateYML to SequenceNode--><g id="link_CreateYML_SequenceNode"><path codeLine="59" d="M706.31,180.5547 C817.83,180.5547 1067.17,180.5547 1067.17,180.5547 C1067.17,180.5547 1067.17,352.1847 1067.17,352.1847 " fill="none" id="CreateYML-to-SequenceNode" style="stroke:#6060BB;stroke-width:1.0;stroke-dasharray:7.0,7.0;"/><polygon fill="#6060BB" points="1067.17,357.1847,1071.17,348.1847,1067.17,352.1847,1063.17,348.1847,1067.17,357.1847" style="stroke:#6060BB;stroke-width:1.0;"/><text fill="#000000" font-family="sans-serif" font-size="13" lengthAdjust="spacing" textLength="29" x="942.56" y="177.123">uses</text></g><!--link CreateYML to SequenceNode--><g id="link_CreateYML_SequenceNode"><path codeLine="60" d="M706.08,174.5547 C826.47,174.5547 1111.83,174.5547 1111.83,174.5547 C1111.83,174.5547 1111.83,352.2847 1111.83,352.2847 " fill="none" id="CreateYML-to-SequenceNode-1" style="stroke:#909090;stroke-width:1.0;"/><polygon fill="#909090" points="1111.83,357.2847,1115.83,348.2847,1111.83,352.2847,1107.83,348.2847,1111.83,357.2847" style="stroke:#909090;stroke-width:1.0;"/><text fill="#000000" font-family="sans-serif" font-size="13" lengthAdjust="spacing" textLength="29" x="998.82" y="171.123">uses</text></g><!--link CreateYML to Datastructure--><g id="link_CreateYML_Datastructure"><path codeLine="61" d="M653.5,198.8247 C653.5,198.8247 653.5,352.1247 653.5,352.1247 " fill="none" id="CreateYML-to-Datastructure" style="stroke:#6060BB;stroke-width:1.0;stroke-dasharray:7.0,7.0;"/><polygon fill="#6060BB" points="653.5,357.1247,657.5,348.1247,653.5,352.1247,649.5,348.1247,653.5,357.1247" style="stroke:#6060BB;stroke-width:1.0;"/><text fill="#000000" font-family="sans-serif" font-size="13" lengthAdjust="spacing" textLength="29" x="623.5" y="272.043">uses</text></g><!--link CreateYML to Logger--><g id="link_CreateYML_Logger"><path codeLine="62" d="M600.54,174.5547 C587.53,174.5547 577.25,174.5547 577.25,174.5547 C577.25,174.5547 577.25,460.2847 577.25,460.2847 " fill="none" id="CreateYML-to-Logger" style="stroke:#6060BB;stroke-width:1.0;stroke-dasharray:7.0,7.0;"/><polygon fill="#6060BB" points="577.25,465.2847,581.25,456.2847,577.25,460.2847,573.25,456.2847,577.25,465.2847" style="stroke:#6060BB;stroke-width:1.0;"/><text fill="#000000" font-family="sans-serif" font-size="13" lengthAdjust="spacing" textLength="29" x="547.25" y="302.343">uses</text></g><!--link CreateYML to Yaml--><g id="link_CreateYML_Yaml"><path codeLine="63" d="M706.45,168.5547 C848,168.5547 1224.5,168.5547 1224.5,168.5547 C1224.5,168.5547 1224.5,352.4247 1224.5,352.4247 " fill="none" id="CreateYML-to-Yaml" style="stroke:#909090;stroke-width:1.0;"/><polygon fill="#909090" points="1224.5,357.4247,1228.5,348.4247,1224.5,352.4247,1220.5,348.4247,1224.5,357.4247" style="stroke:#909090;stroke-width:1.0;"/><text fill="#000000" font-family="sans-serif" font-size="13" lengthAdjust="spacing" textLength="29" x="1058.41" y="165.123">uses</text></g><!--link CreateYML to PrintWriter--><g id="link_CreateYML_PrintWriter"><path codeLine="64" d="M706.37,162.5547 C868.13,162.5547 1345.5,162.5547 1345.5,162.5547 C1345.5,162.5547 1345.5,352.1747 1345.5,352.1747 " fill="none" id="CreateYML-to-PrintWriter" style="stroke:#909090;stroke-width:1.0;"/><polygon fill="#909090" points="1345.5,357.1747,1349.5,348.1747,1345.5,352.1747,1341.5,348.1747,1345.5,357.1747" style="stroke:#909090;stroke-width:1.0;"/><text fill="#000000" font-family="sans-serif" font-size="13" lengthAdjust="spacing" textLength="29" x="1090.74" y="159.123">uses</text></g><!--SRC=[pLRVJzim47xlNt621wH8oSeUa5PH7W2XFG2RnCE4sWYPvD9QE7PcEq11-zztRbAIi4ARaegrLLixTz_zy7VdCtTSPaop50INQ6SPWj9sgdgMMu5mQFWJ3hxsZpADB6QPHHrmcMXchCuZcsi4ppCypGHFECQU1qp6j3NHAiymXWmrI9QYoLY4ddVunU4TzQIo23lNAjV028999cPFN4u6OzcDeR4So-7mZ0l26Gx7aan1n2H4WaTtWDnEIPw-AXq3Owaq2J1ZYbr8Q9tC8SWr9vtEZT8VhiSovXeZ2p5cA6EK4KSJ56QlKBWdoXbnnZruBwWOBUDYTKYK6m0OZTx4ycFE9dII_WBHBv5yGl9Va09pFmb3vzLPBWIKIgsokt0b8O0NgvNwAhlVLOeB24wvUmocDXLXk0FCm9bGp5A-BuaYlU8qJlEKa7vabYjf0X9ukB8p8kTezCQJbZx1xWMNzeJoci9pxqzfzOBfEpBXVZh1YtbaitbWiNEzlkm4_mf_vqH3BF7hoqxmhrag2DVzT8BtawhA_jASY4omjTK7qVVWH2ZZAfOHlQbQxhdApOt9RszUD6y4DxPYD5mgYN2B4SiDkf8lMvBX1kYJSCdD5EEWLsbKLTWeoRQ-FvV9g1NrkPfCNg6MUst1YtISg9GQF1Lnzyx30pLIe00iKCjBKLBJIs2xHr1XBuk70jx26Is336ALCYwRvrJijJS0y0yD2gZWbDdQRR74M5DY0ue0h299bw4kfmny0ccA01eDuvCPzMeqMEUg_mZ3cf21ww0Mho_EtpDSIRNkqZCKT3-lHxWjPkB_8M0pa7M827iqawtrWgt9EYSTaJGADX-x01-jPf6biqoqIYlV1oJRKhmMxQQAPMFghMgbdZ_QtUyV7-_tGt_9zRkv_LV7kax1DNnvQzfjZpIVODTI2qQx1_q3qWk3e-QW2WCWQfiDO1hpQ2iOYk5Rtxr3_oCm3MzMqQ4Jv98xcmSxdx4tLw-Fr0kKlm00]--></g></svg>