<?xml version="1.0" encoding="us-ascii" standalone="no"?><svg xmlns="http://www.w3.org/2000/svg" xmlns:xlink="http://www.w3.org/1999/xlink" contentStyleType="text/css" height="453px" preserveAspectRatio="none" style="width:972px;height:453px;background:#FFFFFF;" version="1.1" viewBox="0 0 972 453" width="972px" zoomAndPan="magnify"><defs/><g><text fill="#000000" font-family="sans-serif" font-size="20" font-weight="bold" lengthAdjust="spacing" textLength="615" x="112.75" y="29.3359">preadapter.domain.ASTVisitorDebug_DOT_HandleDeepness</text><text fill="#000000" font-family="sans-serif" font-size="20" font-weight="bold" lengthAdjust="spacing" textLength="104" x="734.75" y="29.3359">simplified</text><text fill="#000000" font-family="sans-serif" font-size="20" font-weight="bold" lengthAdjust="spacing" textLength="7" x="838.75" y="29.3359">&#160;</text><!--cluster preadapter--><g id="cluster_preadapter"><path d="M582,72.5547 L660,72.5547 A3.75,3.75 0 0 1 662.5,75.0547 L669.5,95.043 L963,95.043 A2.5,2.5 0 0 1 965.5,97.543 L965.5,444.0547 A2.5,2.5 0 0 1 963,446.5547 L582,446.5547 A2.5,2.5 0 0 1 579.5,444.0547 L579.5,75.0547 A2.5,2.5 0 0 1 582,72.5547 " fill="none" style="stroke:#000000;stroke-width:1.5;"/><line style="stroke:#000000;stroke-width:1.5;" x1="579.5" x2="669.5" y1="95.043" y2="95.043"/><text fill="#000000" font-family="sans-serif" font-size="14" font-weight="bold" lengthAdjust="spacing" textLength="77" x="583.5" y="88.0898">preadapter</text></g><!--cluster domain--><g id="cluster_domain"><path d="M606,115.5547 L661,115.5547 A3.75,3.75 0 0 1 663.5,118.0547 L670.5,138.043 L939,138.043 A2.5,2.5 0 0 1 941.5,140.543 L941.5,420.0547 A2.5,2.5 0 0 1 939,422.5547 L606,422.5547 A2.5,2.5 0 0 1 603.5,420.0547 L603.5,118.0547 A2.5,2.5 0 0 1 606,115.5547 " fill="none" style="stroke:#000000;stroke-width:1.5;"/><line style="stroke:#000000;stroke-width:1.5;" x1="603.5" x2="670.5" y1="138.043" y2="138.043"/><text fill="#000000" font-family="sans-serif" font-size="14" font-weight="bold" lengthAdjust="spacing" textLength="54" x="607.5" y="131.0898">domain</text></g><!--class ASTVisitorDebug_DOT_HandleDeepness--><a href="preadapter.domain.ASTVisitorDebug_DOT_HandleDeepness-diagram-simplified.svg" target="_top" title="preadapter.domain.ASTVisitorDebug_DOT_HandleDeepness-diagram-simplified.svg" xlink:actuate="onRequest" xlink:href="preadapter.domain.ASTVisitorDebug_DOT_HandleDeepness-diagram-simplified.svg" xlink:show="new" xlink:title="preadapter.domain.ASTVisitorDebug_DOT_HandleDeepness-diagram-simplified.svg" xlink:type="simple"><g id="elem_ASTVisitorDebug_DOT_HandleDeepness"><rect codeLine="4" fill="#FFFF00" height="48" id="ASTVisitorDebug_DOT_HandleDeepness" rx="2.5" ry="2.5" style="stroke:#181818;stroke-width:0.5;" width="306" x="619.5" y="358.5547"/><ellipse cx="634.5" cy="374.5547" fill="#ADD1B2" rx="11" ry="11" style="stroke:#181818;stroke-width:1.0;"/><path d="M636.9731,380.6978 Q636.3921,380.9966 635.7529,381.146 Q635.1138,381.2954 634.4082,381.2954 Q631.9014,381.2954 630.5815,379.6436 Q629.2617,377.9917 629.2617,374.8706 Q629.2617,371.7412 630.5815,370.0894 Q631.9014,368.4375 634.4082,368.4375 Q635.1138,368.4375 635.7612,368.5869 Q636.4087,368.7363 636.9731,369.0352 L636.9731,371.7578 Q636.3423,371.1768 635.7488,370.907 Q635.1553,370.6372 634.5244,370.6372 Q633.1797,370.6372 632.4949,371.7039 Q631.8101,372.7705 631.8101,374.8706 Q631.8101,376.9624 632.4949,378.0291 Q633.1797,379.0957 634.5244,379.0957 Q635.1553,379.0957 635.7488,378.8259 Q636.3423,378.5562 636.9731,377.9751 Z " fill="#000000"/><text fill="#000000" font-family="sans-serif" font-size="14" lengthAdjust="spacing" textLength="274" x="648.5" y="379.8457">ASTVisitorDebug_DOT_HandleDeepness</text><line style="stroke:#181818;stroke-width:0.5;" x1="620.5" x2="924.5" y1="390.5547" y2="390.5547"/><line style="stroke:#181818;stroke-width:0.5;" x1="620.5" x2="924.5" y1="398.5547" y2="398.5547"/></g></a><!--class ASTVisitorDebug--><a href="preadapter.domain.ASTVisitorDebug-diagram-simplified.svg" target="_top" title="preadapter.domain.ASTVisitorDebug-diagram-simplified.svg" xlink:actuate="onRequest" xlink:href="preadapter.domain.ASTVisitorDebug-diagram-simplified.svg" xlink:show="new" xlink:title="preadapter.domain.ASTVisitorDebug-diagram-simplified.svg" xlink:type="simple"><g id="elem_ASTVisitorDebug"><rect codeLine="6" fill="#F1F1F1" height="48" id="ASTVisitorDebug" rx="2.5" ry="2.5" style="stroke:#181818;stroke-width:0.5;" width="148" x="698.5" y="150.5547"/><ellipse cx="713.5" cy="166.5547" fill="#ADD1B2" rx="11" ry="11" style="stroke:#181818;stroke-width:1.0;"/><path d="M715.9731,172.6978 Q715.3921,172.9966 714.7529,173.146 Q714.1138,173.2954 713.4082,173.2954 Q710.9014,173.2954 709.5815,171.6436 Q708.2617,169.9917 708.2617,166.8706 Q708.2617,163.7412 709.5815,162.0894 Q710.9014,160.4375 713.4082,160.4375 Q714.1138,160.4375 714.7612,160.5869 Q715.4087,160.7363 715.9731,161.0352 L715.9731,163.7578 Q715.3423,163.1768 714.7488,162.907 Q714.1553,162.6372 713.5244,162.6372 Q712.1797,162.6372 711.4949,163.7039 Q710.8101,164.7705 710.8101,166.8706 Q710.8101,168.9624 711.4949,170.0291 Q712.1797,171.0957 713.5244,171.0957 Q714.1553,171.0957 714.7488,170.8259 Q715.3423,170.5562 715.9731,169.9751 Z " fill="#000000"/><text fill="#000000" font-family="sans-serif" font-size="14" lengthAdjust="spacing" textLength="116" x="727.5" y="171.8457">ASTVisitorDebug</text><line style="stroke:#181818;stroke-width:0.5;" x1="699.5" x2="845.5" y1="182.5547" y2="182.5547"/><line style="stroke:#181818;stroke-width:0.5;" x1="699.5" x2="845.5" y1="190.5547" y2="190.5547"/></g></a><g id="elem_FloatingNote"><path d="M6,50.5547 L6,298.2129 L563,298.2129 L563,60.5547 L553,50.5547 L6,50.5547 " fill="#FEFFDD" style="stroke:#181818;stroke-width:0.5;"/><path d="M553,50.5547 L553,60.5547 L563,60.5547 L553,50.5547 " fill="#FEFFDD" style="stroke:#181818;stroke-width:1.0;"/><text fill="#000000" font-family="sans-serif" font-size="13" lengthAdjust="spacing" textLength="120" x="12" y="68.123">Your are analyzing:</text><text fill="#000000" font-family="sans-serif" font-size="13" lengthAdjust="spacing" textLength="375" x="12" y="83.4336">preadapter.domain.ASTVisitorDebug_DOT_HandleDeepness</text><text fill="#000000" font-family="sans-serif" font-size="13" font-weight="bold" lengthAdjust="spacing" textLength="67" x="391" y="83.4336">simplified</text><text fill="#000000" font-family="sans-serif" font-size="13" lengthAdjust="spacing" textLength="4" x="458" y="83.4336">&#160;</text><text fill="#000000" font-family="sans-serif" font-size="13" lengthAdjust="spacing" textLength="4" x="12" y="98.7441">&#160;</text><text fill="#000000" font-family="sans-serif" font-size="13" lengthAdjust="spacing" textLength="229" x="12" y="129.3652">You can click either the namespaces</text><text fill="#000000" font-family="sans-serif" font-size="13" lengthAdjust="spacing" textLength="266" x="12" y="144.6758">or class names for filtering them and their</text><text fill="#000000" font-family="sans-serif" font-size="13" lengthAdjust="spacing" textLength="130" x="12" y="159.9863">direct dependencies.</text><text fill="#000000" font-family="sans-serif" font-size="13" lengthAdjust="spacing" textLength="4" x="12" y="175.2969">&#160;</text><line style="stroke:#181818;stroke-width:1.0;" x1="7" x2="268.5" y1="109.1416" y2="109.1416"/><line style="stroke:#181818;stroke-width:1.0;" x1="7" x2="268.5" y1="111.1416" y2="111.1416"/><text fill="#000000" font-family="sans-serif" font-size="13" lengthAdjust="spacing" textLength="32" x="268.5" y="113.5547">Filter</text><line style="stroke:#181818;stroke-width:1.0;" x1="300.5" x2="562" y1="109.1416" y2="109.1416"/><line style="stroke:#181818;stroke-width:1.0;" x1="300.5" x2="562" y1="111.1416" y2="111.1416"/><ellipse cx="17.5" cy="205.1602" fill="#000000" rx="2.5" ry="2.5" style="stroke:#000000;stroke-width:0.0;"/><text fill="#000000" font-family="sans-serif" font-size="13" lengthAdjust="spacing" textLength="375" x="24" y="209.918">preadapter.domain.ASTVisitorDebug_DOT_HandleDeepness</text><text fill="#000000" font-family="sans-serif" font-size="13" font-weight="bold" lengthAdjust="spacing" textLength="55" x="403" y="209.918">detailed</text><text fill="#000000" font-family="sans-serif" font-size="13" lengthAdjust="spacing" textLength="4" x="462" y="209.918">:</text><text fill="#000000" font-family="sans-serif" font-size="13" lengthAdjust="spacing" textLength="12" x="12" y="225.2285">&#160;&#160;&#160;</text><a href="preadapter.domain.ASTVisitorDebug_DOT_HandleDeepness-diagram-detailed.svg" target="_top" title="preadapter.domain.ASTVisitorDebug_DOT_HandleDeepness-diagram-detailed.svg" xlink:actuate="onRequest" xlink:href="preadapter.domain.ASTVisitorDebug_DOT_HandleDeepness-diagram-detailed.svg" xlink:show="new" xlink:title="preadapter.domain.ASTVisitorDebug_DOT_HandleDeepness-diagram-detailed.svg" xlink:type="simple"><text fill="#0000FF" font-family="sans-serif" font-size="13" lengthAdjust="spacing" text-decoration="underline" textLength="518" x="24" y="225.2285">preadapter.domain.ASTVisitorDebug_DOT_HandleDeepness-diagram-detailed.svg</text></a><ellipse cx="17.5" cy="235.7813" fill="#000000" rx="2.5" ry="2.5" style="stroke:#000000;stroke-width:0.0;"/><text fill="#000000" font-family="sans-serif" font-size="13" lengthAdjust="spacing" textLength="78" x="24" y="240.5391">Full diagram</text><text fill="#000000" font-family="sans-serif" font-size="13" font-weight="bold" lengthAdjust="spacing" textLength="67" x="106" y="240.5391">simplified</text><text fill="#000000" font-family="sans-serif" font-size="13" lengthAdjust="spacing" textLength="23" x="177" y="240.5391">and</text><text fill="#000000" font-family="sans-serif" font-size="13" font-weight="bold" lengthAdjust="spacing" textLength="166" x="204" y="240.5391">grouped per namespace</text><text fill="#000000" font-family="sans-serif" font-size="13" lengthAdjust="spacing" textLength="4" x="370" y="240.5391">:</text><text fill="#000000" font-family="sans-serif" font-size="13" lengthAdjust="spacing" textLength="12" x="12" y="255.8496">&#160;&#160;&#160;</text><a href="full-diagram-simplified-grouped-per-namespace.svg" target="_top" title="full-diagram-simplified-grouped-per-namespace.svg" xlink:actuate="onRequest" xlink:href="full-diagram-simplified-grouped-per-namespace.svg" xlink:show="new" xlink:title="full-diagram-simplified-grouped-per-namespace.svg" xlink:type="simple"><text fill="#0000FF" font-family="sans-serif" font-size="13" lengthAdjust="spacing" text-decoration="underline" textLength="343" x="24" y="255.8496">full-diagram-simplified-grouped-per-namespace.svg</text></a><ellipse cx="17.5" cy="266.4023" fill="#000000" rx="2.5" ry="2.5" style="stroke:#000000;stroke-width:0.0;"/><text fill="#000000" font-family="sans-serif" font-size="13" lengthAdjust="spacing" textLength="41" x="24" y="271.1602">Home:</text><text fill="#000000" font-family="sans-serif" font-size="13" lengthAdjust="spacing" textLength="12" x="12" y="286.4707">&#160;&#160;&#160;</text><a href="index.html" target="_top" title="index.html" xlink:actuate="onRequest" xlink:href="index.html" xlink:show="new" xlink:title="index.html" xlink:type="simple"><text fill="#0000FF" font-family="sans-serif" font-size="13" lengthAdjust="spacing" text-decoration="underline" textLength="68" x="24" y="286.4707">index.html</text></a><line style="stroke:#181818;stroke-width:1.0;" x1="7" x2="247.5" y1="189.6943" y2="189.6943"/><line style="stroke:#181818;stroke-width:1.0;" x1="7" x2="247.5" y1="191.6943" y2="191.6943"/><text fill="#000000" font-family="sans-serif" font-size="13" lengthAdjust="spacing" textLength="74" x="247.5" y="194.1074">Select other</text><line style="stroke:#181818;stroke-width:1.0;" x1="321.5" x2="562" y1="189.6943" y2="189.6943"/><line style="stroke:#181818;stroke-width:1.0;" x1="321.5" x2="562" y1="191.6943" y2="191.6943"/></g><!--reverse link ASTVisitorDebug to ASTVisitorDebug_DOT_HandleDeepness--><g id="link_ASTVisitorDebug_ASTVisitorDebug_DOT_HandleDeepness"><path codeLine="13" d="M772.5,214.8247 C772.5,214.8247 772.5,358.1247 772.5,358.1247 " fill="none" id="ASTVisitorDebug-backto-ASTVisitorDebug_DOT_HandleDeepness" style="stroke:#10BBBB;stroke-width:1.0;"/><ellipse cx="772.5" cy="207.8247" fill="#FFFFFF" rx="8" ry="8" style="stroke:#10BBBB;stroke-width:1.0;"/><line style="stroke:#10BBBB;stroke-width:1.0;" x1="772.5" x2="772.5" y1="215.8247" y2="199.8247"/><line style="stroke:#10BBBB;stroke-width:1.0;" x1="764.5" x2="780.5" y1="207.8247" y2="207.8247"/></g><!--SRC=[jL9BQzj04BxxLmp98R15IjgZYGDDZCcfFIGKYYN2L3kIXwncbzrr6wVqltVa-04jfSPjzY0axSptcacFB04Zzk1OAAy2WOzvuKUPioEuJFnCutSNLo4IMWoPOcbzZopb-xlxJvmu-pYbBylkOVhn_k4MnJgQ4WMXbC2On7rmt39PO-3oV42x6edF12UV_J82HW8KTAjdbcvSoV-WgQIIoMJ6Jb4caqgK21eKQ1mtZq2S5nH17o3OKmhOKD8U7xK05Mtz5rhzRjSGAcoexbMd7LuuLc8vKfF1KY2n90rJAbzexyWDDtuW6SWD76d9KaPsQqEQ2m3CvySW5PQnq_4MMxmoVUtgUX0sMpe7c-jVCnoy6jD5lmna8MXWkx2CsUff5M27lsylDcs5jXMxjZtlhUzf2y4QtrEvoBshwnF013FdCMla7tH7Hh0PoL4H_cDUUpylok5qHSxvR_1TPVquNDeXElvCkcKxqsaSTE3LQi_WPkquajC9UKb0JpbYatL1skZx_OQCjVOtpwE_9_Mcc9- -lRZMKnV7pVmd]--></g></svg>