<?xml version="1.0" encoding="us-ascii" standalone="no"?><svg xmlns="http://www.w3.org/2000/svg" xmlns:xlink="http://www.w3.org/1999/xlink" contentStyleType="text/css" height="557px" preserveAspectRatio="none" style="width:588px;height:557px;background:#FFFFFF;" version="1.1" viewBox="0 0 588 557" width="588px" zoomAndPan="magnify"><defs/><g><text fill="#000000" font-family="sans-serif" font-size="20" font-weight="bold" lengthAdjust="spacing" textLength="253" x="101.5" y="29.3359">preadapter.LoggingType</text><text fill="#000000" font-family="sans-serif" font-size="20" font-weight="bold" lengthAdjust="spacing" textLength="104" x="361.5" y="29.3359">simplified</text><text fill="#000000" font-family="sans-serif" font-size="20" font-weight="bold" lengthAdjust="spacing" textLength="7" x="465.5" y="29.3359">&#160;</text><!--cluster preadapter--><g id="cluster_preadapter"><path d="M414,115.5547 L492,115.5547 A3.75,3.75 0 0 1 494.5,118.0547 L501.5,138.043 L563,138.043 A2.5,2.5 0 0 1 565.5,140.543 L565.5,437.0547 A2.5,2.5 0 0 1 563,439.5547 L414,439.5547 A2.5,2.5 0 0 1 411.5,437.0547 L411.5,118.0547 A2.5,2.5 0 0 1 414,115.5547 " fill="none" style="stroke:#000000;stroke-width:1.5;"/><line style="stroke:#000000;stroke-width:1.5;" x1="411.5" x2="501.5" y1="138.043" y2="138.043"/><text fill="#000000" font-family="sans-serif" font-size="14" font-weight="bold" lengthAdjust="spacing" textLength="77" x="415.5" y="131.0898">preadapter</text></g><!--class LoggingType--><a href="preadapter.LoggingType-diagram-simplified.svg" target="_top" title="preadapter.LoggingType-diagram-simplified.svg" xlink:actuate="onRequest" xlink:href="preadapter.LoggingType-diagram-simplified.svg" xlink:show="new" xlink:title="preadapter.LoggingType-diagram-simplified.svg" xlink:type="simple"><g id="elem_LoggingType"><rect codeLine="5" fill="#FFFF00" height="48" id="LoggingType" rx="2.5" ry="2.5" style="stroke:#181818;stroke-width:0.5;" width="121" x="428" y="375.5547"/><ellipse cx="443" cy="391.5547" fill="#ADD1B2" rx="11" ry="11" style="stroke:#181818;stroke-width:1.0;"/><path d="M445.4731,397.6978 Q444.8921,397.9966 444.2529,398.146 Q443.6138,398.2954 442.9082,398.2954 Q440.4014,398.2954 439.0815,396.6436 Q437.7617,394.9917 437.7617,391.8706 Q437.7617,388.7412 439.0815,387.0894 Q440.4014,385.4375 442.9082,385.4375 Q443.6138,385.4375 444.2612,385.5869 Q444.9087,385.7363 445.4731,386.0352 L445.4731,388.7578 Q444.8423,388.1768 444.2488,387.907 Q443.6553,387.6372 443.0244,387.6372 Q441.6797,387.6372 440.9949,388.7039 Q440.3101,389.7705 440.3101,391.8706 Q440.3101,393.9624 440.9949,395.0291 Q441.6797,396.0957 443.0244,396.0957 Q443.6553,396.0957 444.2488,395.8259 Q444.8423,395.5562 445.4731,394.9751 Z " fill="#000000"/><text fill="#000000" font-family="sans-serif" font-size="14" lengthAdjust="spacing" textLength="89" x="457" y="396.8457">LoggingType</text><line style="stroke:#181818;stroke-width:0.5;" x1="429" x2="548" y1="407.5547" y2="407.5547"/><line style="stroke:#181818;stroke-width:0.5;" x1="429" x2="548" y1="415.5547" y2="415.5547"/></g></a><!--class Logger--><a href="preadapter.Logger-diagram-simplified.svg" target="_top" title="preadapter.Logger-diagram-simplified.svg" xlink:actuate="onRequest" xlink:href="preadapter.Logger-diagram-simplified.svg" xlink:show="new" xlink:title="preadapter.Logger-diagram-simplified.svg" xlink:type="simple"><g id="elem_Logger"><rect codeLine="7" fill="#F1F1F1" height="48" id="Logger" rx="2.5" ry="2.5" style="stroke:#181818;stroke-width:0.5;" width="80" x="448.5" y="150.5547"/><ellipse cx="463.5" cy="166.5547" fill="#ADD1B2" rx="11" ry="11" style="stroke:#181818;stroke-width:1.0;"/><path d="M465.9731,172.6978 Q465.3921,172.9966 464.7529,173.146 Q464.1138,173.2954 463.4082,173.2954 Q460.9014,173.2954 459.5815,171.6436 Q458.2617,169.9917 458.2617,166.8706 Q458.2617,163.7412 459.5815,162.0894 Q460.9014,160.4375 463.4082,160.4375 Q464.1138,160.4375 464.7612,160.5869 Q465.4087,160.7363 465.9731,161.0352 L465.9731,163.7578 Q465.3423,163.1768 464.7488,162.907 Q464.1553,162.6372 463.5244,162.6372 Q462.1797,162.6372 461.4949,163.7039 Q460.8101,164.7705 460.8101,166.8706 Q460.8101,168.9624 461.4949,170.0291 Q462.1797,171.0957 463.5244,171.0957 Q464.1553,171.0957 464.7488,170.8259 Q465.3423,170.5562 465.9731,169.9751 Z " fill="#000000"/><text fill="#000000" font-family="sans-serif" font-size="14" lengthAdjust="spacing" textLength="48" x="477.5" y="171.8457">Logger</text><line style="stroke:#181818;stroke-width:0.5;" x1="449.5" x2="527.5" y1="182.5547" y2="182.5547"/><line style="stroke:#181818;stroke-width:0.5;" x1="449.5" x2="527.5" y1="190.5547" y2="190.5547"/></g></a><g id="elem_FloatingNote"><path d="M6,50.5547 L6,298.2129 L395,298.2129 L395,60.5547 L385,50.5547 L6,50.5547 " fill="#FEFFDD" style="stroke:#181818;stroke-width:0.5;"/><path d="M385,50.5547 L385,60.5547 L395,60.5547 L385,50.5547 " fill="#FEFFDD" style="stroke:#181818;stroke-width:1.0;"/><text fill="#000000" font-family="sans-serif" font-size="13" lengthAdjust="spacing" textLength="120" x="12" y="68.123">Your are analyzing:</text><text fill="#000000" font-family="sans-serif" font-size="13" lengthAdjust="spacing" textLength="152" x="12" y="83.4336">preadapter.LoggingType</text><text fill="#000000" font-family="sans-serif" font-size="13" font-weight="bold" lengthAdjust="spacing" textLength="67" x="168" y="83.4336">simplified</text><text fill="#000000" font-family="sans-serif" font-size="13" lengthAdjust="spacing" textLength="4" x="235" y="83.4336">&#160;</text><text fill="#000000" font-family="sans-serif" font-size="13" lengthAdjust="spacing" textLength="4" x="12" y="98.7441">&#160;</text><text fill="#000000" font-family="sans-serif" font-size="13" lengthAdjust="spacing" textLength="229" x="12" y="129.3652">You can click either the namespaces</text><text fill="#000000" font-family="sans-serif" font-size="13" lengthAdjust="spacing" textLength="266" x="12" y="144.6758">or class names for filtering them and their</text><text fill="#000000" font-family="sans-serif" font-size="13" lengthAdjust="spacing" textLength="130" x="12" y="159.9863">direct dependencies.</text><text fill="#000000" font-family="sans-serif" font-size="13" lengthAdjust="spacing" textLength="4" x="12" y="175.2969">&#160;</text><line style="stroke:#181818;stroke-width:1.0;" x1="7" x2="184.5" y1="109.1416" y2="109.1416"/><line style="stroke:#181818;stroke-width:1.0;" x1="7" x2="184.5" y1="111.1416" y2="111.1416"/><text fill="#000000" font-family="sans-serif" font-size="13" lengthAdjust="spacing" textLength="32" x="184.5" y="113.5547">Filter</text><line style="stroke:#181818;stroke-width:1.0;" x1="216.5" x2="394" y1="109.1416" y2="109.1416"/><line style="stroke:#181818;stroke-width:1.0;" x1="216.5" x2="394" y1="111.1416" y2="111.1416"/><ellipse cx="17.5" cy="205.1602" fill="#000000" rx="2.5" ry="2.5" style="stroke:#000000;stroke-width:0.0;"/><text fill="#000000" font-family="sans-serif" font-size="13" lengthAdjust="spacing" textLength="152" x="24" y="209.918">preadapter.LoggingType</text><text fill="#000000" font-family="sans-serif" font-size="13" font-weight="bold" lengthAdjust="spacing" textLength="55" x="180" y="209.918">detailed</text><text fill="#000000" font-family="sans-serif" font-size="13" lengthAdjust="spacing" textLength="4" x="239" y="209.918">:</text><text fill="#000000" font-family="sans-serif" font-size="13" lengthAdjust="spacing" textLength="12" x="12" y="225.2285">&#160;&#160;&#160;</text><a href="preadapter.LoggingType-diagram-detailed.svg" target="_top" title="preadapter.LoggingType-diagram-detailed.svg" xlink:actuate="onRequest" xlink:href="preadapter.LoggingType-diagram-detailed.svg" xlink:show="new" xlink:title="preadapter.LoggingType-diagram-detailed.svg" xlink:type="simple"><text fill="#0000FF" font-family="sans-serif" font-size="13" lengthAdjust="spacing" text-decoration="underline" textLength="295" x="24" y="225.2285">preadapter.LoggingType-diagram-detailed.svg</text></a><ellipse cx="17.5" cy="235.7813" fill="#000000" rx="2.5" ry="2.5" style="stroke:#000000;stroke-width:0.0;"/><text fill="#000000" font-family="sans-serif" font-size="13" lengthAdjust="spacing" textLength="78" x="24" y="240.5391">Full diagram</text><text fill="#000000" font-family="sans-serif" font-size="13" font-weight="bold" lengthAdjust="spacing" textLength="67" x="106" y="240.5391">simplified</text><text fill="#000000" font-family="sans-serif" font-size="13" lengthAdjust="spacing" textLength="23" x="177" y="240.5391">and</text><text fill="#000000" font-family="sans-serif" font-size="13" font-weight="bold" lengthAdjust="spacing" textLength="166" x="204" y="240.5391">grouped per namespace</text><text fill="#000000" font-family="sans-serif" font-size="13" lengthAdjust="spacing" textLength="4" x="370" y="240.5391">:</text><text fill="#000000" font-family="sans-serif" font-size="13" lengthAdjust="spacing" textLength="12" x="12" y="255.8496">&#160;&#160;&#160;</text><a href="full-diagram-simplified-grouped-per-namespace.svg" target="_top" title="full-diagram-simplified-grouped-per-namespace.svg" xlink:actuate="onRequest" xlink:href="full-diagram-simplified-grouped-per-namespace.svg" xlink:show="new" xlink:title="full-diagram-simplified-grouped-per-namespace.svg" xlink:type="simple"><text fill="#0000FF" font-family="sans-serif" font-size="13" lengthAdjust="spacing" text-decoration="underline" textLength="343" x="24" y="255.8496">full-diagram-simplified-grouped-per-namespace.svg</text></a><ellipse cx="17.5" cy="266.4023" fill="#000000" rx="2.5" ry="2.5" style="stroke:#000000;stroke-width:0.0;"/><text fill="#000000" font-family="sans-serif" font-size="13" lengthAdjust="spacing" textLength="41" x="24" y="271.1602">Home:</text><text fill="#000000" font-family="sans-serif" font-size="13" lengthAdjust="spacing" textLength="12" x="12" y="286.4707">&#160;&#160;&#160;</text><a href="index.html" target="_top" title="index.html" xlink:actuate="onRequest" xlink:href="index.html" xlink:show="new" xlink:title="index.html" xlink:type="simple"><text fill="#0000FF" font-family="sans-serif" font-size="13" lengthAdjust="spacing" text-decoration="underline" textLength="68" x="24" y="286.4707">index.html</text></a><line style="stroke:#181818;stroke-width:1.0;" x1="7" x2="163.5" y1="189.6943" y2="189.6943"/><line style="stroke:#181818;stroke-width:1.0;" x1="7" x2="163.5" y1="191.6943" y2="191.6943"/><text fill="#000000" font-family="sans-serif" font-size="13" lengthAdjust="spacing" textLength="74" x="163.5" y="194.1074">Select other</text><line style="stroke:#181818;stroke-width:1.0;" x1="237.5" x2="394" y1="189.6943" y2="189.6943"/><line style="stroke:#181818;stroke-width:1.0;" x1="237.5" x2="394" y1="191.6943" y2="191.6943"/></g><!--class EnumTypePlaceHolder--><a href="EnumTypePlaceHolder-diagram-simplified.svg" target="_top" title="EnumTypePlaceHolder-diagram-simplified.svg" xlink:actuate="onRequest" xlink:href="EnumTypePlaceHolder-diagram-simplified.svg" xlink:show="new" xlink:title="EnumTypePlaceHolder-diagram-simplified.svg" xlink:type="simple"><g id="elem_EnumTypePlaceHolder"><rect codeLine="3" fill="#F5FFFA" height="48" id="EnumTypePlaceHolder" rx="2.5" ry="2.5" style="stroke:#181818;stroke-width:0.5;" width="185" x="396" y="502.5547"/><ellipse cx="411" cy="518.5547" fill="#ADD1B2" rx="11" ry="11" style="stroke:#181818;stroke-width:1.0;"/><path d="M413.4731,524.6978 Q412.8921,524.9966 412.2529,525.146 Q411.6138,525.2954 410.9082,525.2954 Q408.4014,525.2954 407.0815,523.6436 Q405.7617,521.9917 405.7617,518.8706 Q405.7617,515.7412 407.0815,514.0894 Q408.4014,512.4375 410.9082,512.4375 Q411.6138,512.4375 412.2612,512.5869 Q412.9087,512.7363 413.4731,513.0352 L413.4731,515.7578 Q412.8423,515.1768 412.2488,514.907 Q411.6553,514.6372 411.0244,514.6372 Q409.6797,514.6372 408.9949,515.7039 Q408.3101,516.7705 408.3101,518.8706 Q408.3101,520.9624 408.9949,522.0291 Q409.6797,523.0957 411.0244,523.0957 Q411.6553,523.0957 412.2488,522.8259 Q412.8423,522.5562 413.4731,521.9751 Z " fill="#000000"/><text fill="#000000" font-family="sans-serif" font-size="14" lengthAdjust="spacing" textLength="153" x="425" y="523.8457">EnumTypePlaceHolder</text><line style="stroke:#181818;stroke-width:0.5;" x1="397" x2="580" y1="534.5547" y2="534.5547"/><line style="stroke:#181818;stroke-width:0.5;" x1="397" x2="580" y1="542.5547" y2="542.5547"/></g></a><!--link LoggingType to EnumTypePlaceHolder--><g id="link_LoggingType_EnumTypePlaceHolder"><path codeLine="16" d="M488.5,423.7747 C488.5,444.3847 488.5,474.5747 488.5,496.7247 " fill="none" id="LoggingType-to-EnumTypePlaceHolder" style="stroke:#6060BB;stroke-width:1.0;stroke-dasharray:7.0,7.0;"/><polygon fill="#6060BB" points="488.5,501.4647,492.5,492.4647,488.5,496.4647,484.5,492.4647,488.5,501.4647" style="stroke:#6060BB;stroke-width:1.0;"/><text fill="#000000" font-family="sans-serif" font-size="13" lengthAdjust="spacing" textLength="29" x="489.5" y="469.123">uses</text></g><!--link Logger to LoggingType--><g id="link_Logger_LoggingType"><path codeLine="17" d="M488.5,198.9947 C488.5,239.9847 488.5,324.5647 488.5,369.3147 " fill="none" id="Logger-to-LoggingType" style="stroke:#6060BB;stroke-width:1.0;stroke-dasharray:7.0,7.0;"/><polygon fill="#6060BB" points="488.5,374.0947,492.5,365.0947,488.5,369.0947,484.5,365.0947,488.5,374.0947" style="stroke:#6060BB;stroke-width:1.0;"/><text fill="#000000" font-family="sans-serif" font-size="13" lengthAdjust="spacing" textLength="29" x="489.5" y="342.123">uses</text></g><!--SRC=[jLCzJyCm4DtpAqum85bAg1WOAjgXY8e1418iACbWnPTWuO_8Te22-E-Sqoz16m436QB4Vk_TktTsa44Xd7dvXkEJqRHro0Ll0xhioZQDDCtzeaLWp4lTAbbB58p1sN74JnDZ0yB1W-qSS8V03LUBD-AC2_CxeS8KPZAPIqMuoQGm90KLDr0fMJq1ol283kW5XclqBQ_G4ySw0d3lbwjGqt_TIr2LYDRaHCGFwGeZfCCgWC0MZK1JIVJPikmTghXZOv5OdC6WQO61IzLRfju08C_tOrCXUUEuJjUCp3ytPHd5vvrIiDh-daFqorZZRDUYW9QQtZJCsBfYJG8R_IqzNT5IegKRshRkfTMubf0KmMls6BGgomFW7kRAya3URsYIoJBK2zFfsCgj8fbBgmIvoVCzgtkyBAl2uRKquPm2ql2UVAnq1yBzCSbTzGKgPL-6fNl3Esl3WhqI7D44VlN0ls6FuBplnw6YgLZZ0L-3urMWGr4xgxUdOapOFyAtWIG3eyZomzFHwMWsAxFftcC0O-WytRXaD_0lt07zDVqJ]--></g></svg>