<?xml version="1.0" encoding="us-ascii" standalone="no"?><svg xmlns="http://www.w3.org/2000/svg" xmlns:xlink="http://www.w3.org/1999/xlink" contentStyleType="text/css" height="669px" preserveAspectRatio="none" style="width:1313px;height:669px;background:#FFFFFF;" version="1.1" viewBox="0 0 1313 669" width="1313px" zoomAndPan="magnify"><defs/><g><text fill="#000000" font-family="sans-serif" font-size="20" font-weight="bold" lengthAdjust="spacing" textLength="485" x="348.25" y="29.3359">preadapter.domain.Datastructure_DOT_Method</text><text fill="#000000" font-family="sans-serif" font-size="20" font-weight="bold" lengthAdjust="spacing" textLength="104" x="840.25" y="29.3359">simplified</text><text fill="#000000" font-family="sans-serif" font-size="20" font-weight="bold" lengthAdjust="spacing" textLength="7" x="944.25" y="29.3359">&#160;</text><!--cluster preadapter--><g id="cluster_preadapter"><path d="M504,72.5547 L582,72.5547 A3.75,3.75 0 0 1 584.5,75.0547 L591.5,95.043 L1304,95.043 A2.5,2.5 0 0 1 1306.5,97.543 L1306.5,660.0547 A2.5,2.5 0 0 1 1304,662.5547 L504,662.5547 A2.5,2.5 0 0 1 501.5,660.0547 L501.5,75.0547 A2.5,2.5 0 0 1 504,72.5547 " fill="none" style="stroke:#000000;stroke-width:1.5;"/><line style="stroke:#000000;stroke-width:1.5;" x1="501.5" x2="591.5" y1="95.043" y2="95.043"/><text fill="#000000" font-family="sans-serif" font-size="14" font-weight="bold" lengthAdjust="spacing" textLength="77" x="505.5" y="88.0898">preadapter</text></g><!--cluster domain--><g id="cluster_domain"><path d="M528,115.5547 L583,115.5547 A3.75,3.75 0 0 1 585.5,118.0547 L592.5,138.043 L1280,138.043 A2.5,2.5 0 0 1 1282.5,140.543 L1282.5,636.0547 A2.5,2.5 0 0 1 1280,638.5547 L528,638.5547 A2.5,2.5 0 0 1 525.5,636.0547 L525.5,118.0547 A2.5,2.5 0 0 1 528,115.5547 " fill="none" style="stroke:#000000;stroke-width:1.5;"/><line style="stroke:#000000;stroke-width:1.5;" x1="525.5" x2="592.5" y1="138.043" y2="138.043"/><text fill="#000000" font-family="sans-serif" font-size="14" font-weight="bold" lengthAdjust="spacing" textLength="54" x="529.5" y="131.0898">domain</text></g><!--class Datastructure_DOT_Method--><a href="preadapter.domain.Datastructure_DOT_Method-diagram-simplified.svg" target="_top" title="preadapter.domain.Datastructure_DOT_Method-diagram-simplified.svg" xlink:actuate="onRequest" xlink:href="preadapter.domain.Datastructure_DOT_Method-diagram-simplified.svg" xlink:show="new" xlink:title="preadapter.domain.Datastructure_DOT_Method-diagram-simplified.svg" xlink:type="simple"><g id="elem_Datastructure_DOT_Method"><rect codeLine="4" fill="#FFFF00" height="48" id="Datastructure_DOT_Method" rx="2.5" ry="2.5" style="stroke:#181818;stroke-width:0.5;" width="221" x="805" y="466.5547"/><ellipse cx="820" cy="482.5547" fill="#ADD1B2" rx="11" ry="11" style="stroke:#181818;stroke-width:1.0;"/><path d="M822.4731,488.6978 Q821.8921,488.9966 821.2529,489.146 Q820.6138,489.2954 819.9082,489.2954 Q817.4014,489.2954 816.0815,487.6436 Q814.7617,485.9917 814.7617,482.8706 Q814.7617,479.7412 816.0815,478.0894 Q817.4014,476.4375 819.9082,476.4375 Q820.6138,476.4375 821.2612,476.5869 Q821.9087,476.7363 822.4731,477.0352 L822.4731,479.7578 Q821.8423,479.1768 821.2488,478.907 Q820.6553,478.6372 820.0244,478.6372 Q818.6797,478.6372 817.9949,479.7039 Q817.3101,480.7705 817.3101,482.8706 Q817.3101,484.9624 817.9949,486.0291 Q818.6797,487.0957 820.0244,487.0957 Q820.6553,487.0957 821.2488,486.8259 Q821.8423,486.5562 822.4731,485.9751 Z " fill="#000000"/><text fill="#000000" font-family="sans-serif" font-size="14" lengthAdjust="spacing" textLength="189" x="834" y="487.8457">Datastructure_DOT_Method</text><line style="stroke:#181818;stroke-width:0.5;" x1="806" x2="1025" y1="498.5547" y2="498.5547"/><line style="stroke:#181818;stroke-width:0.5;" x1="806" x2="1025" y1="506.5547" y2="506.5547"/></g></a><!--class Datastructure_DOT_Method_DOT_ParameterType--><a href="preadapter.domain.Datastructure_DOT_Method_DOT_ParameterType-diagram-simplified.svg" target="_top" title="preadapter.domain.Datastructure_DOT_Method_DOT_ParameterType-diagram-simplified.svg" xlink:actuate="onRequest" xlink:href="preadapter.domain.Datastructure_DOT_Method_DOT_ParameterType-diagram-simplified.svg" xlink:show="new" xlink:title="preadapter.domain.Datastructure_DOT_Method_DOT_ParameterType-diagram-simplified.svg" xlink:type="simple"><g id="elem_Datastructure_DOT_Method_DOT_ParameterType"><rect codeLine="6" fill="#F1F1F1" height="48" id="Datastructure_DOT_Method_DOT_ParameterType" rx="2.5" ry="2.5" style="stroke:#181818;stroke-width:0.5;" width="368" x="541.5" y="574.5547"/><ellipse cx="556.5" cy="590.5547" fill="#ADD1B2" rx="11" ry="11" style="stroke:#181818;stroke-width:1.0;"/><path d="M558.9731,596.6978 Q558.3921,596.9966 557.7529,597.146 Q557.1138,597.2954 556.4082,597.2954 Q553.9014,597.2954 552.5815,595.6436 Q551.2617,593.9917 551.2617,590.8706 Q551.2617,587.7412 552.5815,586.0894 Q553.9014,584.4375 556.4082,584.4375 Q557.1138,584.4375 557.7612,584.5869 Q558.4087,584.7363 558.9731,585.0352 L558.9731,587.7578 Q558.3423,587.1768 557.7488,586.907 Q557.1553,586.6372 556.5244,586.6372 Q555.1797,586.6372 554.4949,587.7039 Q553.8101,588.7705 553.8101,590.8706 Q553.8101,592.9624 554.4949,594.0291 Q555.1797,595.0957 556.5244,595.0957 Q557.1553,595.0957 557.7488,594.8259 Q558.3423,594.5562 558.9731,593.9751 Z " fill="#000000"/><text fill="#000000" font-family="sans-serif" font-size="14" lengthAdjust="spacing" textLength="336" x="570.5" y="595.8457">Datastructure_DOT_Method_DOT_ParameterType</text><line style="stroke:#181818;stroke-width:0.5;" x1="542.5" x2="908.5" y1="606.5547" y2="606.5547"/><line style="stroke:#181818;stroke-width:0.5;" x1="542.5" x2="908.5" y1="614.5547" y2="614.5547"/></g></a><!--class Datastructure_DOT_Method_DOT_Variable--><a href="preadapter.domain.Datastructure_DOT_Method_DOT_Variable-diagram-simplified.svg" target="_top" title="preadapter.domain.Datastructure_DOT_Method_DOT_Variable-diagram-simplified.svg" xlink:actuate="onRequest" xlink:href="preadapter.domain.Datastructure_DOT_Method_DOT_Variable-diagram-simplified.svg" xlink:show="new" xlink:title="preadapter.domain.Datastructure_DOT_Method_DOT_Variable-diagram-simplified.svg" xlink:type="simple"><g id="elem_Datastructure_DOT_Method_DOT_Variable"><rect codeLine="8" fill="#F1F1F1" height="48" id="Datastructure_DOT_Method_DOT_Variable" rx="2.5" ry="2.5" style="stroke:#181818;stroke-width:0.5;" width="321" x="945" y="574.5547"/><ellipse cx="960" cy="590.5547" fill="#ADD1B2" rx="11" ry="11" style="stroke:#181818;stroke-width:1.0;"/><path d="M962.4731,596.6978 Q961.8921,596.9966 961.2529,597.146 Q960.6138,597.2954 959.9082,597.2954 Q957.4014,597.2954 956.0815,595.6436 Q954.7617,593.9917 954.7617,590.8706 Q954.7617,587.7412 956.0815,586.0894 Q957.4014,584.4375 959.9082,584.4375 Q960.6138,584.4375 961.2612,584.5869 Q961.9087,584.7363 962.4731,585.0352 L962.4731,587.7578 Q961.8423,587.1768 961.2488,586.907 Q960.6553,586.6372 960.0244,586.6372 Q958.6797,586.6372 957.9949,587.7039 Q957.3101,588.7705 957.3101,590.8706 Q957.3101,592.9624 957.9949,594.0291 Q958.6797,595.0957 960.0244,595.0957 Q960.6553,595.0957 961.2488,594.8259 Q961.8423,594.5562 962.4731,593.9751 Z " fill="#000000"/><text fill="#000000" font-family="sans-serif" font-size="14" lengthAdjust="spacing" textLength="289" x="974" y="595.8457">Datastructure_DOT_Method_DOT_Variable</text><line style="stroke:#181818;stroke-width:0.5;" x1="946" x2="1265" y1="606.5547" y2="606.5547"/><line style="stroke:#181818;stroke-width:0.5;" x1="946" x2="1265" y1="614.5547" y2="614.5547"/></g></a><!--class Datastructure--><a href="preadapter.domain.Datastructure-diagram-simplified.svg" target="_top" title="preadapter.domain.Datastructure-diagram-simplified.svg" xlink:actuate="onRequest" xlink:href="preadapter.domain.Datastructure-diagram-simplified.svg" xlink:show="new" xlink:title="preadapter.domain.Datastructure-diagram-simplified.svg" xlink:type="simple"><g id="elem_Datastructure"><rect codeLine="10" fill="#F1F1F1" height="48" id="Datastructure" rx="2.5" ry="2.5" style="stroke:#181818;stroke-width:0.5;" width="125" x="902" y="358.5547"/><ellipse cx="917" cy="374.5547" fill="#ADD1B2" rx="11" ry="11" style="stroke:#181818;stroke-width:1.0;"/><path d="M919.4731,380.6978 Q918.8921,380.9966 918.2529,381.146 Q917.6138,381.2954 916.9082,381.2954 Q914.4014,381.2954 913.0815,379.6436 Q911.7617,377.9917 911.7617,374.8706 Q911.7617,371.7412 913.0815,370.0894 Q914.4014,368.4375 916.9082,368.4375 Q917.6138,368.4375 918.2612,368.5869 Q918.9087,368.7363 919.4731,369.0352 L919.4731,371.7578 Q918.8423,371.1768 918.2488,370.907 Q917.6553,370.6372 917.0244,370.6372 Q915.6797,370.6372 914.9949,371.7039 Q914.3101,372.7705 914.3101,374.8706 Q914.3101,376.9624 914.9949,378.0291 Q915.6797,379.0957 917.0244,379.0957 Q917.6553,379.0957 918.2488,378.8259 Q918.8423,378.5562 919.4731,377.9751 Z " fill="#000000"/><text fill="#000000" font-family="sans-serif" font-size="14" lengthAdjust="spacing" textLength="93" x="931" y="379.8457">Datastructure</text><line style="stroke:#181818;stroke-width:0.5;" x1="903" x2="1026" y1="390.5547" y2="390.5547"/><line style="stroke:#181818;stroke-width:0.5;" x1="903" x2="1026" y1="398.5547" y2="398.5547"/></g></a><!--class ASTVisitor--><a href="preadapter.domain.ASTVisitor-diagram-simplified.svg" target="_top" title="preadapter.domain.ASTVisitor-diagram-simplified.svg" xlink:actuate="onRequest" xlink:href="preadapter.domain.ASTVisitor-diagram-simplified.svg" xlink:show="new" xlink:title="preadapter.domain.ASTVisitor-diagram-simplified.svg" xlink:type="simple"><g id="elem_ASTVisitor"><rect codeLine="12" fill="#F1F1F1" height="48" id="ASTVisitor" rx="2.5" ry="2.5" style="stroke:#181818;stroke-width:0.5;" width="103" x="863" y="150.5547"/><ellipse cx="878" cy="166.5547" fill="#ADD1B2" rx="11" ry="11" style="stroke:#181818;stroke-width:1.0;"/><path d="M880.4731,172.6978 Q879.8921,172.9966 879.2529,173.146 Q878.6138,173.2954 877.9082,173.2954 Q875.4014,173.2954 874.0815,171.6436 Q872.7617,169.9917 872.7617,166.8706 Q872.7617,163.7412 874.0815,162.0894 Q875.4014,160.4375 877.9082,160.4375 Q878.6138,160.4375 879.2612,160.5869 Q879.9087,160.7363 880.4731,161.0352 L880.4731,163.7578 Q879.8423,163.1768 879.2488,162.907 Q878.6553,162.6372 878.0244,162.6372 Q876.6797,162.6372 875.9949,163.7039 Q875.3101,164.7705 875.3101,166.8706 Q875.3101,168.9624 875.9949,170.0291 Q876.6797,171.0957 878.0244,171.0957 Q878.6553,171.0957 879.2488,170.8259 Q879.8423,170.5562 880.4731,169.9751 Z " fill="#000000"/><text fill="#000000" font-family="sans-serif" font-size="14" lengthAdjust="spacing" textLength="71" x="892" y="171.8457">ASTVisitor</text><line style="stroke:#181818;stroke-width:0.5;" x1="864" x2="965" y1="182.5547" y2="182.5547"/><line style="stroke:#181818;stroke-width:0.5;" x1="864" x2="965" y1="190.5547" y2="190.5547"/></g></a><g id="elem_FloatingNote"><path d="M6,50.5547 L6,298.2129 L485,298.2129 L485,60.5547 L475,50.5547 L6,50.5547 " fill="#FEFFDD" style="stroke:#181818;stroke-width:0.5;"/><path d="M475,50.5547 L475,60.5547 L485,60.5547 L475,50.5547 " fill="#FEFFDD" style="stroke:#181818;stroke-width:1.0;"/><text fill="#000000" font-family="sans-serif" font-size="13" lengthAdjust="spacing" textLength="120" x="12" y="68.123">Your are analyzing:</text><text fill="#000000" font-family="sans-serif" font-size="13" lengthAdjust="spacing" textLength="297" x="12" y="83.4336">preadapter.domain.Datastructure_DOT_Method</text><text fill="#000000" font-family="sans-serif" font-size="13" font-weight="bold" lengthAdjust="spacing" textLength="67" x="313" y="83.4336">simplified</text><text fill="#000000" font-family="sans-serif" font-size="13" lengthAdjust="spacing" textLength="4" x="380" y="83.4336">&#160;</text><text fill="#000000" font-family="sans-serif" font-size="13" lengthAdjust="spacing" textLength="4" x="12" y="98.7441">&#160;</text><text fill="#000000" font-family="sans-serif" font-size="13" lengthAdjust="spacing" textLength="229" x="12" y="129.3652">You can click either the namespaces</text><text fill="#000000" font-family="sans-serif" font-size="13" lengthAdjust="spacing" textLength="266" x="12" y="144.6758">or class names for filtering them and their</text><text fill="#000000" font-family="sans-serif" font-size="13" lengthAdjust="spacing" textLength="130" x="12" y="159.9863">direct dependencies.</text><text fill="#000000" font-family="sans-serif" font-size="13" lengthAdjust="spacing" textLength="4" x="12" y="175.2969">&#160;</text><line style="stroke:#181818;stroke-width:1.0;" x1="7" x2="229.5" y1="109.1416" y2="109.1416"/><line style="stroke:#181818;stroke-width:1.0;" x1="7" x2="229.5" y1="111.1416" y2="111.1416"/><text fill="#000000" font-family="sans-serif" font-size="13" lengthAdjust="spacing" textLength="32" x="229.5" y="113.5547">Filter</text><line style="stroke:#181818;stroke-width:1.0;" x1="261.5" x2="484" y1="109.1416" y2="109.1416"/><line style="stroke:#181818;stroke-width:1.0;" x1="261.5" x2="484" y1="111.1416" y2="111.1416"/><ellipse cx="17.5" cy="205.1602" fill="#000000" rx="2.5" ry="2.5" style="stroke:#000000;stroke-width:0.0;"/><text fill="#000000" font-family="sans-serif" font-size="13" lengthAdjust="spacing" textLength="297" x="24" y="209.918">preadapter.domain.Datastructure_DOT_Method</text><text fill="#000000" font-family="sans-serif" font-size="13" font-weight="bold" lengthAdjust="spacing" textLength="55" x="325" y="209.918">detailed</text><text fill="#000000" font-family="sans-serif" font-size="13" lengthAdjust="spacing" textLength="4" x="384" y="209.918">:</text><text fill="#000000" font-family="sans-serif" font-size="13" lengthAdjust="spacing" textLength="12" x="12" y="225.2285">&#160;&#160;&#160;</text><a href="preadapter.domain.Datastructure_DOT_Method-diagram-detailed.svg" target="_top" title="preadapter.domain.Datastructure_DOT_Method-diagram-detailed.svg" xlink:actuate="onRequest" xlink:href="preadapter.domain.Datastructure_DOT_Method-diagram-detailed.svg" xlink:show="new" xlink:title="preadapter.domain.Datastructure_DOT_Method-diagram-detailed.svg" xlink:type="simple"><text fill="#0000FF" font-family="sans-serif" font-size="13" lengthAdjust="spacing" text-decoration="underline" textLength="440" x="24" y="225.2285">preadapter.domain.Datastructure_DOT_Method-diagram-detailed.svg</text></a><ellipse cx="17.5" cy="235.7813" fill="#000000" rx="2.5" ry="2.5" style="stroke:#000000;stroke-width:0.0;"/><text fill="#000000" font-family="sans-serif" font-size="13" lengthAdjust="spacing" textLength="78" x="24" y="240.5391">Full diagram</text><text fill="#000000" font-family="sans-serif" font-size="13" font-weight="bold" lengthAdjust="spacing" textLength="67" x="106" y="240.5391">simplified</text><text fill="#000000" font-family="sans-serif" font-size="13" lengthAdjust="spacing" textLength="23" x="177" y="240.5391">and</text><text fill="#000000" font-family="sans-serif" font-size="13" font-weight="bold" lengthAdjust="spacing" textLength="166" x="204" y="240.5391">grouped per namespace</text><text fill="#000000" font-family="sans-serif" font-size="13" lengthAdjust="spacing" textLength="4" x="370" y="240.5391">:</text><text fill="#000000" font-family="sans-serif" font-size="13" lengthAdjust="spacing" textLength="12" x="12" y="255.8496">&#160;&#160;&#160;</text><a href="full-diagram-simplified-grouped-per-namespace.svg" target="_top" title="full-diagram-simplified-grouped-per-namespace.svg" xlink:actuate="onRequest" xlink:href="full-diagram-simplified-grouped-per-namespace.svg" xlink:show="new" xlink:title="full-diagram-simplified-grouped-per-namespace.svg" xlink:type="simple"><text fill="#0000FF" font-family="sans-serif" font-size="13" lengthAdjust="spacing" text-decoration="underline" textLength="343" x="24" y="255.8496">full-diagram-simplified-grouped-per-namespace.svg</text></a><ellipse cx="17.5" cy="266.4023" fill="#000000" rx="2.5" ry="2.5" style="stroke:#000000;stroke-width:0.0;"/><text fill="#000000" font-family="sans-serif" font-size="13" lengthAdjust="spacing" textLength="41" x="24" y="271.1602">Home:</text><text fill="#000000" font-family="sans-serif" font-size="13" lengthAdjust="spacing" textLength="12" x="12" y="286.4707">&#160;&#160;&#160;</text><a href="index.html" target="_top" title="index.html" xlink:actuate="onRequest" xlink:href="index.html" xlink:show="new" xlink:title="index.html" xlink:type="simple"><text fill="#0000FF" font-family="sans-serif" font-size="13" lengthAdjust="spacing" text-decoration="underline" textLength="68" x="24" y="286.4707">index.html</text></a><line style="stroke:#181818;stroke-width:1.0;" x1="7" x2="208.5" y1="189.6943" y2="189.6943"/><line style="stroke:#181818;stroke-width:1.0;" x1="7" x2="208.5" y1="191.6943" y2="191.6943"/><text fill="#000000" font-family="sans-serif" font-size="13" lengthAdjust="spacing" textLength="74" x="208.5" y="194.1074">Select other</text><line style="stroke:#181818;stroke-width:1.0;" x1="282.5" x2="484" y1="189.6943" y2="189.6943"/><line style="stroke:#181818;stroke-width:1.0;" x1="282.5" x2="484" y1="191.6943" y2="191.6943"/></g><!--reverse link Datastructure_DOT_Method to Datastructure_DOT_Method_DOT_ParameterType--><g id="link_Datastructure_DOT_Method_Datastructure_DOT_Method_DOT_ParameterType"><path codeLine="19" d="M857.25,530.7947 C857.25,530.7947 857.25,574.3947 857.25,574.3947 " fill="none" id="Datastructure_DOT_Method-backto-Datastructure_DOT_Method_DOT_ParameterType" style="stroke:#10BBBB;stroke-width:1.0;"/><ellipse cx="857.25" cy="523.7947" fill="#FFFFFF" rx="8" ry="8" style="stroke:#10BBBB;stroke-width:1.0;"/><line style="stroke:#10BBBB;stroke-width:1.0;" x1="857.25" x2="857.25" y1="531.7947" y2="515.7947"/><line style="stroke:#10BBBB;stroke-width:1.0;" x1="849.25" x2="865.25" y1="523.7947" y2="523.7947"/></g><!--reverse link Datastructure_DOT_Method to Datastructure_DOT_Method_DOT_Variable--><g id="link_Datastructure_DOT_Method_Datastructure_DOT_Method_DOT_Variable"><path codeLine="20" d="M985.5,530.7947 C985.5,530.7947 985.5,574.3947 985.5,574.3947 " fill="none" id="Datastructure_DOT_Method-backto-Datastructure_DOT_Method_DOT_Variable" style="stroke:#10BBBB;stroke-width:1.0;"/><ellipse cx="985.5" cy="523.7947" fill="#FFFFFF" rx="8" ry="8" style="stroke:#10BBBB;stroke-width:1.0;"/><line style="stroke:#10BBBB;stroke-width:1.0;" x1="985.5" x2="985.5" y1="531.7947" y2="515.7947"/><line style="stroke:#10BBBB;stroke-width:1.0;" x1="977.5" x2="993.5" y1="523.7947" y2="523.7947"/></g><!--reverse link Datastructure to Datastructure_DOT_Method--><g id="link_Datastructure_Datastructure_DOT_Method"><path codeLine="21" d="M964,422.7947 C964,422.7947 964,466.3947 964,466.3947 " fill="none" id="Datastructure-backto-Datastructure_DOT_Method" style="stroke:#10BBBB;stroke-width:1.0;"/><ellipse cx="964" cy="415.7947" fill="#FFFFFF" rx="8" ry="8" style="stroke:#10BBBB;stroke-width:1.0;"/><line style="stroke:#10BBBB;stroke-width:1.0;" x1="964" x2="964" y1="423.7947" y2="407.7947"/><line style="stroke:#10BBBB;stroke-width:1.0;" x1="956" x2="972" y1="415.7947" y2="415.7947"/></g><!--reverse link ASTVisitor to Datastructure--><g id="link_ASTVisitor_Datastructure"><path codeLine="22" d="M934,212.8247 C934,212.8247 934,358.1247 934,358.1247 " fill="none" id="ASTVisitor-backto-Datastructure" style="stroke:#10BB10;stroke-width:1.0;"/><polygon fill="#10BB10" points="934,199.8247,930,205.8247,934,211.8247,938,205.8247,934,199.8247" style="stroke:#10BB10;stroke-width:1.0;"/></g><!--link ASTVisitor to Datastructure_DOT_Method--><g id="link_ASTVisitor_Datastructure_DOT_Method"><path codeLine="23" d="M882.5,198.8247 C882.5,198.8247 882.5,460.2047 882.5,460.2047 " fill="none" id="ASTVisitor-to-Datastructure_DOT_Method" style="stroke:#909090;stroke-width:1.0;"/><polygon fill="#909090" points="882.5,465.2047,886.5,456.2047,882.5,460.2047,878.5,456.2047,882.5,465.2047" style="stroke:#909090;stroke-width:1.0;"/><text fill="#000000" font-family="sans-serif" font-size="13" lengthAdjust="spacing" textLength="29" x="852.5" y="326.083">uses</text></g><!--SRC=[lLNRQjj047ttLmp9Gs2BNATlDR6XRJ1zwGLY0i4MOQeTsKDMks9trSOf_VVE-bgQ5CLsMmc4f9rpcQCT5ExOrkYn0iEMug8cS3xENIToD0GNWH-e_weth3sXnZgIxsfN8Tlk9KOCqJT5R3pTNduQttuW0MfGAd1L6owPj59myJ9n33lMHOAJ6zTuG4-05itYWUsiFxM7aq_jr0u68pQ27GocLkYXG0k5uU8EYEESFCW5B5OKQYme2CPvAS0GLc-XbEToII5sKdKbxdIwOJ-rcZqL4JJLP3NPWYbqLx9NPDAAIo99NC5UZMYAo6RPXcG009F9y_6PPfp9PyisBDtmTPRdoSIeCGRMox_dbVfIQkPTKvE6MiBP1gFKnaKf15l-7JnRmpA1PLlOJlUzgsX3mHBLVNSUAvFd9u01HiPXb7W_oYxem3h-FU8wA9kTzvLBE5sGCUuRV1SBFmwmiRpzdCQ5f7gSfcKVOu_XVxPwdCThz8nVp07sDiY_vQpTmH5ARwx6rnmuoW0_9RDRRjSuaxburW7_hFOCtYtxz6HaLfmDGFVHOn5bL4llgjsizgNsKRkTFSRfHJOvFU-zbIFFZjl__qjrkwFR10zLUOhub_sbrgpdlNRM5YfXUjrBPvuDzp48VMY2_Az-0W00]--></g></svg>