<?xml version="1.0" encoding="us-ascii" standalone="no"?><svg xmlns="http://www.w3.org/2000/svg" xmlns:xlink="http://www.w3.org/1999/xlink" contentStyleType="text/css" height="496px" preserveAspectRatio="none" style="width:1334px;height:496px;background:#FFFFFF;" version="1.1" viewBox="0 0 1334 496" width="1334px" zoomAndPan="magnify"><defs/><g><text fill="#000000" font-family="sans-serif" font-size="20" font-weight="bold" lengthAdjust="spacing" textLength="112" x="408.25" y="29.3359">PrintWriter</text><text fill="#000000" font-family="sans-serif" font-size="20" font-weight="bold" lengthAdjust="spacing" textLength="84" x="527.25" y="29.3359">detailed</text><text fill="#000000" font-family="sans-serif" font-size="20" font-weight="bold" lengthAdjust="spacing" textLength="38" x="618.25" y="29.3359">and</text><text fill="#000000" font-family="sans-serif" font-size="20" font-weight="bold" lengthAdjust="spacing" textLength="249" x="663.25" y="29.3359">grouped per namespace</text><!--cluster preadapter--><g id="cluster_preadapter"><a href="preadapter-diagram-detailed-grouped-per-namespace.svg" target="_top" title="preadapter-diagram-detailed-grouped-per-namespace.svg" xlink:actuate="onRequest" xlink:href="preadapter-diagram-detailed-grouped-per-namespace.svg" xlink:show="new" xlink:title="preadapter-diagram-detailed-grouped-per-namespace.svg" xlink:type="simple"><path d="M452,50.5547 L530,50.5547 A3.75,3.75 0 0 1 532.5,53.0547 L539.5,73.043 L1325,73.043 A2.5,2.5 0 0 1 1327.5,75.543 L1327.5,419.0547 A2.5,2.5 0 0 1 1325,421.5547 L452,421.5547 A2.5,2.5 0 0 1 449.5,419.0547 L449.5,53.0547 A2.5,2.5 0 0 1 452,50.5547 " fill="none" style="stroke:#000000;stroke-width:1.5;"/><line style="stroke:#000000;stroke-width:1.5;" x1="449.5" x2="539.5" y1="73.043" y2="73.043"/><text fill="#000000" font-family="sans-serif" font-size="14" font-weight="bold" lengthAdjust="spacing" textLength="77" x="453.5" y="66.0898">preadapter</text></a></g><!--cluster infrastructure--><g id="cluster_infrastructure"><a href="preadapter.infrastructure-diagram-detailed-grouped-per-namespace.svg" target="_top" title="preadapter.infrastructure-diagram-detailed-grouped-per-namespace.svg" xlink:actuate="onRequest" xlink:href="preadapter.infrastructure-diagram-detailed-grouped-per-namespace.svg" xlink:show="new" xlink:title="preadapter.infrastructure-diagram-detailed-grouped-per-namespace.svg" xlink:type="simple"><path d="M476,93.5547 L576,93.5547 A3.75,3.75 0 0 1 578.5,96.0547 L585.5,116.043 L1301,116.043 A2.5,2.5 0 0 1 1303.5,118.543 L1303.5,395.0547 A2.5,2.5 0 0 1 1301,397.5547 L476,397.5547 A2.5,2.5 0 0 1 473.5,395.0547 L473.5,96.0547 A2.5,2.5 0 0 1 476,93.5547 " fill="none" style="stroke:#000000;stroke-width:1.5;"/><line style="stroke:#000000;stroke-width:1.5;" x1="473.5" x2="585.5" y1="116.043" y2="116.043"/><text fill="#000000" font-family="sans-serif" font-size="14" font-weight="bold" lengthAdjust="spacing" textLength="99" x="477.5" y="109.0898">infrastructure</text></a></g><!--class CreateYML--><a href="preadapter.infrastructure.CreateYML-diagram-detailed-grouped-per-namespace.svg" target="_top" title="preadapter.infrastructure.CreateYML-diagram-detailed-grouped-per-namespace.svg" xlink:actuate="onRequest" xlink:href="preadapter.infrastructure.CreateYML-diagram-detailed-grouped-per-namespace.svg" xlink:show="new" xlink:title="preadapter.infrastructure.CreateYML-diagram-detailed-grouped-per-namespace.svg" xlink:type="simple"><g id="elem_CreateYML"><rect codeLine="9" fill="#F1F1F1" height="253.3711" id="CreateYML" rx="2.5" ry="2.5" style="stroke:#181818;stroke-width:0.5;" width="798" x="489.5" y="128.5547"/><ellipse cx="847.75" cy="144.5547" fill="#ADD1B2" rx="11" ry="11" style="stroke:#181818;stroke-width:1.0;"/><path d="M850.2231,150.6978 Q849.6421,150.9966 849.0029,151.146 Q848.3638,151.2954 847.6582,151.2954 Q845.1514,151.2954 843.8315,149.6436 Q842.5117,147.9917 842.5117,144.8706 Q842.5117,141.7412 843.8315,140.0894 Q845.1514,138.4375 847.6582,138.4375 Q848.3638,138.4375 849.0112,138.5869 Q849.6587,138.7363 850.2231,139.0352 L850.2231,141.7578 Q849.5923,141.1768 848.9988,140.907 Q848.4053,140.6372 847.7744,140.6372 Q846.4297,140.6372 845.7449,141.7039 Q845.0601,142.7705 845.0601,144.8706 Q845.0601,146.9624 845.7449,148.0291 Q846.4297,149.0957 847.7744,149.0957 Q848.4053,149.0957 848.9988,148.8259 Q849.5923,148.5562 850.2231,147.9751 Z " fill="#000000"/><text fill="#000000" font-family="sans-serif" font-size="14" lengthAdjust="spacing" textLength="73" x="868.25" y="149.8457">CreateYML</text><line style="stroke:#181818;stroke-width:0.5;" x1="490.5" x2="1286.5" y1="160.5547" y2="160.5547"/><ellipse cx="500.5" cy="174.2988" fill="none" rx="3" ry="3" style="stroke:#038048;stroke-width:1.0;"/><text fill="#000000" font-family="sans-serif" font-size="14" lengthAdjust="spacing" textLength="306" x="509.5" y="178.0898">dummperOptions: DumperOptions.FlowStyle</text><ellipse cx="500.5" cy="190.7871" fill="none" rx="3" ry="3" style="stroke:#038048;stroke-width:1.0;"/><text fill="#000000" font-family="sans-serif" font-size="14" lengthAdjust="spacing" textLength="107" x="509.5" y="194.5781">startMark: Mark</text><ellipse cx="500.5" cy="207.2754" fill="none" rx="3" ry="3" style="stroke:#038048;stroke-width:1.0;"/><text fill="#000000" font-family="sans-serif" font-size="14" lengthAdjust="spacing" textLength="102" x="509.5" y="211.0664">endMark: Mark</text><line style="stroke:#181818;stroke-width:1.0;" x1="490.5" x2="1286.5" y1="218.0195" y2="218.0195"/><line style="stroke:#181818;stroke-width:1.0;" x1="490.5" x2="1286.5" y1="220.0195" y2="220.0195"/><rect fill="#F24D5C" height="6" style="stroke:#C82930;stroke-width:1.0;" width="6" x="497.5" y="228.7637"/><text fill="#000000" font-family="sans-serif" font-size="14" lengthAdjust="spacing" textLength="272" x="509.5" y="235.5547">appendTupleNodeValueSequenceNode(</text><text fill="#6060BB" font-family="sans-serif" font-size="14" lengthAdjust="spacing" textLength="419" x="781.5" y="235.5547">mappingNode:dictpingNode, key:String, value:SequenceNode</text><text fill="#000000" font-family="sans-serif" font-size="14" lengthAdjust="spacing" textLength="9" x="1200.5" y="235.5547">):</text><text fill="#BB6060" font-family="sans-serif" font-size="14" lengthAdjust="spacing" textLength="56" x="1213.5" y="235.5547">boolean</text><rect fill="#F24D5C" height="6" style="stroke:#C82930;stroke-width:1.0;" width="6" x="497.5" y="245.252"/><text fill="#000000" font-family="sans-serif" font-size="14" lengthAdjust="spacing" textLength="211" x="509.5" y="252.043">appendTupleNodeValueString(</text><text fill="#6060BB" font-family="sans-serif" font-size="14" lengthAdjust="spacing" textLength="358" x="720.5" y="252.043">mappingNode:dictpingNode, key:String, value:String</text><text fill="#000000" font-family="sans-serif" font-size="14" lengthAdjust="spacing" textLength="9" x="1078.5" y="252.043">):</text><text fill="#BB6060" font-family="sans-serif" font-size="14" lengthAdjust="spacing" textLength="56" x="1091.5" y="252.043">boolean</text><rect fill="#F24D5C" height="6" style="stroke:#C82930;stroke-width:1.0;" width="6" x="497.5" y="261.7402"/><text fill="#000000" font-family="sans-serif" font-size="14" lengthAdjust="spacing" textLength="331" x="509.5" y="268.5313">appendTupleNodeValueStringToSequenceNode(</text><text fill="#6060BB" font-family="sans-serif" font-size="14" lengthAdjust="spacing" textLength="372" x="840.5" y="268.5313">sequenceNode:SequenceNode, key:String, value:String</text><text fill="#000000" font-family="sans-serif" font-size="14" lengthAdjust="spacing" textLength="9" x="1212.5" y="268.5313">):</text><text fill="#BB6060" font-family="sans-serif" font-size="14" lengthAdjust="spacing" textLength="56" x="1225.5" y="268.5313">boolean</text><line style="stroke:#181818;stroke-width:1.0;" x1="490.5" x2="1286.5" y1="275.4844" y2="275.4844"/><rect fill="#F24D5C" height="6" style="stroke:#C82930;stroke-width:1.0;" width="6" x="497.5" y="286.2285"/><text fill="#000000" font-family="sans-serif" font-size="14" lengthAdjust="spacing" textLength="123" x="509.5" y="293.0195">appendSequence(</text><text fill="#6060BB" font-family="sans-serif" font-size="14" lengthAdjust="spacing" textLength="423" x="632.5" y="293.0195">mappingNode:dictpingNode, list:list[String], nodeName:String</text><text fill="#000000" font-family="sans-serif" font-size="14" lengthAdjust="spacing" textLength="9" x="1055.5" y="293.0195">):</text><text fill="#BB6060" font-family="sans-serif" font-size="14" lengthAdjust="spacing" textLength="29" x="1068.5" y="293.0195">void</text><rect fill="none" height="6" style="stroke:#C82930;stroke-width:1.0;" width="6" x="497.5" y="302.7168"/><text fill="#909090" font-family="sans-serif" font-size="14" lengthAdjust="spacing" textLength="359" x="509.5" y="309.5078">appendSequence.subSequenceNode: SequenceNode</text><line style="stroke:#181818;stroke-width:1.0;" x1="490.5" x2="1286.5" y1="316.4609" y2="316.4609"/><ellipse cx="500.5" cy="330.2051" fill="#84BE84" rx="3" ry="3" style="stroke:#038048;stroke-width:1.0;"/><text fill="#000000" font-family="sans-serif" font-size="14" lengthAdjust="spacing" textLength="50" x="509.5" y="333.9961">Create(</text><text fill="#6060BB" font-family="sans-serif" font-size="14" lengthAdjust="spacing" textLength="601" x="559.5" y="333.9961">datastructure:preadapter.domain.Datastructure, toFile:String, logger:preadapter.Logger</text><text fill="#000000" font-family="sans-serif" font-size="14" lengthAdjust="spacing" textLength="9" x="1160.5" y="333.9961">):</text><text fill="#BB6060" font-family="sans-serif" font-size="14" lengthAdjust="spacing" textLength="29" x="1173.5" y="333.9961">void</text><rect fill="none" height="6" style="stroke:#C82930;stroke-width:1.0;" width="6" x="497.5" y="343.6934"/><text fill="#909090" font-family="sans-serif" font-size="14" lengthAdjust="spacing" textLength="123" x="509.5" y="350.4844">Create.yaml: Yaml</text><rect fill="none" height="6" style="stroke:#C82930;stroke-width:1.0;" width="6" x="497.5" y="360.1816"/><text fill="#909090" font-family="sans-serif" font-size="14" lengthAdjust="spacing" textLength="170" x="509.5" y="366.9727">Create.writer: PrintWriter</text><line style="stroke:#181818;stroke-width:1.0;" x1="490.5" x2="1286.5" y1="373.9258" y2="373.9258"/></g></a><g id="elem_FloatingNote"><path d="M6,131.0547 L6,378.7129 L433,378.7129 L433,141.0547 L423,131.0547 L6,131.0547 " fill="#FEFFDD" style="stroke:#181818;stroke-width:0.5;"/><path d="M423,131.0547 L423,141.0547 L433,141.0547 L423,131.0547 " fill="#FEFFDD" style="stroke:#181818;stroke-width:1.0;"/><text fill="#000000" font-family="sans-serif" font-size="13" lengthAdjust="spacing" textLength="120" x="12" y="148.623">Your are analyzing:</text><text fill="#000000" font-family="sans-serif" font-size="13" lengthAdjust="spacing" textLength="66" x="12" y="163.9336">PrintWriter</text><text fill="#000000" font-family="sans-serif" font-size="13" font-weight="bold" lengthAdjust="spacing" textLength="55" x="82" y="163.9336">detailed</text><text fill="#000000" font-family="sans-serif" font-size="13" lengthAdjust="spacing" textLength="23" x="141" y="163.9336">and</text><text fill="#000000" font-family="sans-serif" font-size="13" font-weight="bold" lengthAdjust="spacing" textLength="166" x="168" y="163.9336">grouped per namespace</text><text fill="#000000" font-family="sans-serif" font-size="13" lengthAdjust="spacing" textLength="4" x="12" y="179.2441">&#160;</text><text fill="#000000" font-family="sans-serif" font-size="13" lengthAdjust="spacing" textLength="229" x="12" y="209.8652">You can click either the namespaces</text><text fill="#000000" font-family="sans-serif" font-size="13" lengthAdjust="spacing" textLength="266" x="12" y="225.1758">or class names for filtering them and their</text><text fill="#000000" font-family="sans-serif" font-size="13" lengthAdjust="spacing" textLength="130" x="12" y="240.4863">direct dependencies.</text><text fill="#000000" font-family="sans-serif" font-size="13" lengthAdjust="spacing" textLength="4" x="12" y="255.7969">&#160;</text><line style="stroke:#181818;stroke-width:1.0;" x1="7" x2="203.5" y1="189.6416" y2="189.6416"/><line style="stroke:#181818;stroke-width:1.0;" x1="7" x2="203.5" y1="191.6416" y2="191.6416"/><text fill="#000000" font-family="sans-serif" font-size="13" lengthAdjust="spacing" textLength="32" x="203.5" y="194.0547">Filter</text><line style="stroke:#181818;stroke-width:1.0;" x1="235.5" x2="432" y1="189.6416" y2="189.6416"/><line style="stroke:#181818;stroke-width:1.0;" x1="235.5" x2="432" y1="191.6416" y2="191.6416"/><ellipse cx="17.5" cy="285.6602" fill="#000000" rx="2.5" ry="2.5" style="stroke:#000000;stroke-width:0.0;"/><text fill="#000000" font-family="sans-serif" font-size="13" lengthAdjust="spacing" textLength="66" x="24" y="290.418">PrintWriter</text><text fill="#000000" font-family="sans-serif" font-size="13" font-weight="bold" lengthAdjust="spacing" textLength="67" x="94" y="290.418">simplified</text><text fill="#000000" font-family="sans-serif" font-size="13" lengthAdjust="spacing" textLength="23" x="165" y="290.418">and</text><text fill="#000000" font-family="sans-serif" font-size="13" font-weight="bold" lengthAdjust="spacing" textLength="166" x="192" y="290.418">grouped per namespace</text><text fill="#000000" font-family="sans-serif" font-size="13" lengthAdjust="spacing" textLength="4" x="358" y="290.418">:</text><text fill="#000000" font-family="sans-serif" font-size="13" lengthAdjust="spacing" textLength="12" x="12" y="305.7285">&#160;&#160;&#160;</text><a href="PrintWriter-diagram-simplified-grouped-per-namespace.svg" target="_top" title="PrintWriter-diagram-simplified-grouped-per-namespace.svg" xlink:actuate="onRequest" xlink:href="PrintWriter-diagram-simplified-grouped-per-namespace.svg" xlink:show="new" xlink:title="PrintWriter-diagram-simplified-grouped-per-namespace.svg" xlink:type="simple"><text fill="#0000FF" font-family="sans-serif" font-size="13" lengthAdjust="spacing" text-decoration="underline" textLength="388" x="24" y="305.7285">PrintWriter-diagram-simplified-grouped-per-namespace.svg</text></a><ellipse cx="17.5" cy="316.2813" fill="#000000" rx="2.5" ry="2.5" style="stroke:#000000;stroke-width:0.0;"/><text fill="#000000" font-family="sans-serif" font-size="13" lengthAdjust="spacing" textLength="78" x="24" y="321.0391">Full diagram</text><text fill="#000000" font-family="sans-serif" font-size="13" font-weight="bold" lengthAdjust="spacing" textLength="55" x="106" y="321.0391">detailed</text><text fill="#000000" font-family="sans-serif" font-size="13" lengthAdjust="spacing" textLength="23" x="165" y="321.0391">and</text><text fill="#000000" font-family="sans-serif" font-size="13" font-weight="bold" lengthAdjust="spacing" textLength="166" x="192" y="321.0391">grouped per namespace</text><text fill="#000000" font-family="sans-serif" font-size="13" lengthAdjust="spacing" textLength="4" x="358" y="321.0391">:</text><text fill="#000000" font-family="sans-serif" font-size="13" lengthAdjust="spacing" textLength="12" x="12" y="336.3496">&#160;&#160;&#160;</text><a href="full-diagram-detailed-grouped-per-namespace.svg" target="_top" title="full-diagram-detailed-grouped-per-namespace.svg" xlink:actuate="onRequest" xlink:href="full-diagram-detailed-grouped-per-namespace.svg" xlink:show="new" xlink:title="full-diagram-detailed-grouped-per-namespace.svg" xlink:type="simple"><text fill="#0000FF" font-family="sans-serif" font-size="13" lengthAdjust="spacing" text-decoration="underline" textLength="330" x="24" y="336.3496">full-diagram-detailed-grouped-per-namespace.svg</text></a><ellipse cx="17.5" cy="346.9023" fill="#000000" rx="2.5" ry="2.5" style="stroke:#000000;stroke-width:0.0;"/><text fill="#000000" font-family="sans-serif" font-size="13" lengthAdjust="spacing" textLength="41" x="24" y="351.6602">Home:</text><text fill="#000000" font-family="sans-serif" font-size="13" lengthAdjust="spacing" textLength="12" x="12" y="366.9707">&#160;&#160;&#160;</text><a href="index.html" target="_top" title="index.html" xlink:actuate="onRequest" xlink:href="index.html" xlink:show="new" xlink:title="index.html" xlink:type="simple"><text fill="#0000FF" font-family="sans-serif" font-size="13" lengthAdjust="spacing" text-decoration="underline" textLength="68" x="24" y="366.9707">index.html</text></a><line style="stroke:#181818;stroke-width:1.0;" x1="7" x2="182.5" y1="270.1943" y2="270.1943"/><line style="stroke:#181818;stroke-width:1.0;" x1="7" x2="182.5" y1="272.1943" y2="272.1943"/><text fill="#000000" font-family="sans-serif" font-size="13" lengthAdjust="spacing" textLength="74" x="182.5" y="274.6074">Select other</text><line style="stroke:#181818;stroke-width:1.0;" x1="256.5" x2="432" y1="270.1943" y2="270.1943"/><line style="stroke:#181818;stroke-width:1.0;" x1="256.5" x2="432" y1="272.1943" y2="272.1943"/></g><!--class PrintWriter--><a href="PrintWriter-diagram-detailed-grouped-per-namespace.svg" target="_top" title="PrintWriter-diagram-detailed-grouped-per-namespace.svg" xlink:actuate="onRequest" xlink:href="PrintWriter-diagram-detailed-grouped-per-namespace.svg" xlink:show="new" xlink:title="PrintWriter-diagram-detailed-grouped-per-namespace.svg" xlink:type="simple"><g id="elem_PrintWriter"><rect codeLine="4" fill="#FFFF00" height="48" id="PrintWriter" rx="2.5" ry="2.5" style="stroke:#181818;stroke-width:0.5;" width="105" x="836" y="441.5547"/><ellipse cx="851" cy="457.5547" fill="#ADD1B2" rx="11" ry="11" style="stroke:#181818;stroke-width:1.0;"/><path d="M853.4731,463.6978 Q852.8921,463.9966 852.2529,464.146 Q851.6138,464.2954 850.9082,464.2954 Q848.4014,464.2954 847.0815,462.6436 Q845.7617,460.9917 845.7617,457.8706 Q845.7617,454.7412 847.0815,453.0894 Q848.4014,451.4375 850.9082,451.4375 Q851.6138,451.4375 852.2612,451.5869 Q852.9087,451.7363 853.4731,452.0352 L853.4731,454.7578 Q852.8423,454.1768 852.2488,453.907 Q851.6553,453.6372 851.0244,453.6372 Q849.6797,453.6372 848.9949,454.7039 Q848.3101,455.7705 848.3101,457.8706 Q848.3101,459.9624 848.9949,461.0291 Q849.6797,462.0957 851.0244,462.0957 Q851.6553,462.0957 852.2488,461.8259 Q852.8423,461.5562 853.4731,460.9751 Z " fill="#000000"/><text fill="#000000" font-family="sans-serif" font-size="14" lengthAdjust="spacing" textLength="73" x="865" y="462.8457">PrintWriter</text><line style="stroke:#181818;stroke-width:0.5;" x1="837" x2="940" y1="473.5547" y2="473.5547"/><line style="stroke:#181818;stroke-width:0.5;" x1="837" x2="940" y1="481.5547" y2="481.5547"/></g></a><!--link CreateYML to PrintWriter--><g id="link_CreateYML_PrintWriter"><path codeLine="39" d="M888.5,381.7547 C888.5,381.7547 888.5,435.0847 888.5,435.0847 " fill="none" id="CreateYML-to-PrintWriter" style="stroke:#909090;stroke-width:1.0;"/><polygon fill="#909090" points="888.5,440.0847,892.5,431.0847,888.5,435.0847,884.5,431.0847,888.5,440.0847" style="stroke:#909090;stroke-width:1.0;"/><text fill="#000000" font-family="sans-serif" font-size="13" lengthAdjust="spacing" textLength="29" x="858.5" y="404.993">uses</text></g><!--SRC=[lLRVRzem47xdhpZHXswqIT4UAYqgFBHLjOUMJQBQL06gtFW25ewTsGwCLllVTmu_aaoqXQaTe0ZRzttttTddYvqAbJ73Kf12eLja2DguYMuuuIJ2cHMF67rgTxyPeTmF8nmQQBKuEYOaybOBcE8qCJOwpv13HikAfMWp5cEhTNRYyTs6qWwXUQTp0ymWOPXSF0erZeRgtuY7QgWwdIiX2TRf31LHGymKn5B4Kq3X9cHFZn9ZOQYq8GDcxN8M4Xed1GL9yTPfuPJ-23DKN1YC7N3CK75KiK0RBjtsKVeLxPruvose1s55cacHYDV3eFW1O32eu0Cks9Zs8oXPWXKw87ImGOTsDXwDlFUhN4fOmVR8uTfvGl2DrpNuDPzVT8fh0a7v-HLEN2f7eoOm2rTICqSvxT6sDvOPhsPeUxoxU8Q31Kgfv_3K-DquX0kfhTywHl5d1cT2v_RUvW_t6zYz5DQLGKDFAuG7Z5bkqU_zwYnQOO5-YL32Jf27ZH91l8opRAcx7Emd-sahOIXKOfXr9ezTJcLHvVzhRLzti3hepnA65xJYyExc-YMtfTL-0We504V0ypGbWw-P4rhP22xpoZ2aSpBlkuN4bRLrpBWRPgOH-ETgbiglCjVf5DC1iCmNvcsUIUnfZj-PpB6FFtCgrMBYmrcYbODOIsqwpTFsQVlylDbD2LQSJ8uH5x5R3uvXYekex_nLS0mpJnPLsSvEF5ltOmGrslDpJzpiFcWjaQcLrKiA2mzleAqOlQsgM_rw_cp5efQWjn8P13MTQnVxPipNVUGVWwM8qJ4eMkZHGTrDramBNazSpUnpst-RtRhAa2wVQb8Ys7A6rY4UmRAwjeV6cIlhCAfKADSf4ogyhAuVWzFK376JVwd7OpHLs7KnypP1BtM72vRA2ExekJjcNbpwKRKVrD92r_g5JkcDXFhL_xqpOKvl3K2tfWFgxobI23g1Gj4xDfgIkyJMmwXrkcqf8GCuf3Q_qmVUpTQBz2t7e6J5zGxuonaMEzh9nEYqr1wHxPxcpsvoOvSE5mmEbiTm57HhRo8G0UsFXJy0]--></g></svg>