<?xml version="1.0" encoding="us-ascii" standalone="no"?><svg xmlns="http://www.w3.org/2000/svg" xmlns:xlink="http://www.w3.org/1999/xlink" contentStyleType="text/css" height="430px" preserveAspectRatio="none" style="width:796px;height:430px;background:#FFFFFF;" version="1.1" viewBox="0 0 796 430" width="796px" zoomAndPan="magnify"><defs/><g><text fill="#000000" font-family="sans-serif" font-size="20" font-weight="bold" lengthAdjust="spacing" textLength="307" x="31.75" y="29.3359">SingleMemberAnnotationExpr</text><text fill="#000000" font-family="sans-serif" font-size="20" font-weight="bold" lengthAdjust="spacing" textLength="104" x="345.75" y="29.3359">simplified</text><text fill="#000000" font-family="sans-serif" font-size="20" font-weight="bold" lengthAdjust="spacing" textLength="38" x="456.75" y="29.3359">and</text><text fill="#000000" font-family="sans-serif" font-size="20" font-weight="bold" lengthAdjust="spacing" textLength="249" x="501.75" y="29.3359">grouped per namespace</text><!--cluster preadapter--><g id="cluster_preadapter"><a href="preadapter-diagram-simplified-grouped-per-namespace.svg" target="_top" title="preadapter-diagram-simplified-grouped-per-namespace.svg" xlink:actuate="onRequest" xlink:href="preadapter-diagram-simplified-grouped-per-namespace.svg" xlink:show="new" xlink:title="preadapter-diagram-simplified-grouped-per-namespace.svg" xlink:type="simple"><path d="M558.5,72.5547 L636.5,72.5547 A3.75,3.75 0 0 1 639,75.0547 L646,95.043 L781.5,95.043 A2.5,2.5 0 0 1 784,97.543 L784,236.0547 A2.5,2.5 0 0 1 781.5,238.5547 L558.5,238.5547 A2.5,2.5 0 0 1 556,236.0547 L556,75.0547 A2.5,2.5 0 0 1 558.5,72.5547 " fill="none" style="stroke:#000000;stroke-width:1.5;"/><line style="stroke:#000000;stroke-width:1.5;" x1="556" x2="646" y1="95.043" y2="95.043"/><text fill="#000000" font-family="sans-serif" font-size="14" font-weight="bold" lengthAdjust="spacing" textLength="77" x="560" y="88.0898">preadapter</text></a></g><!--cluster domain--><g id="cluster_domain"><a href="preadapter.domain-diagram-simplified-grouped-per-namespace.svg" target="_top" title="preadapter.domain-diagram-simplified-grouped-per-namespace.svg" xlink:actuate="onRequest" xlink:href="preadapter.domain-diagram-simplified-grouped-per-namespace.svg" xlink:show="new" xlink:title="preadapter.domain-diagram-simplified-grouped-per-namespace.svg" xlink:type="simple"><path d="M582.5,115.5547 L637.5,115.5547 A3.75,3.75 0 0 1 640,118.0547 L647,138.043 L757.5,138.043 A2.5,2.5 0 0 1 760,140.543 L760,212.0547 A2.5,2.5 0 0 1 757.5,214.5547 L582.5,214.5547 A2.5,2.5 0 0 1 580,212.0547 L580,118.0547 A2.5,2.5 0 0 1 582.5,115.5547 " fill="none" style="stroke:#000000;stroke-width:1.5;"/><line style="stroke:#000000;stroke-width:1.5;" x1="580" x2="647" y1="138.043" y2="138.043"/><text fill="#000000" font-family="sans-serif" font-size="14" font-weight="bold" lengthAdjust="spacing" textLength="54" x="584" y="131.0898">domain</text></a></g><!--class ASTVisitorDebug--><a href="preadapter.domain.ASTVisitorDebug-diagram-simplified-grouped-per-namespace.svg" target="_top" title="preadapter.domain.ASTVisitorDebug-diagram-simplified-grouped-per-namespace.svg" xlink:actuate="onRequest" xlink:href="preadapter.domain.ASTVisitorDebug-diagram-simplified-grouped-per-namespace.svg" xlink:show="new" xlink:title="preadapter.domain.ASTVisitorDebug-diagram-simplified-grouped-per-namespace.svg" xlink:type="simple"><g id="elem_ASTVisitorDebug"><rect codeLine="8" fill="#F1F1F1" height="48" id="ASTVisitorDebug" rx="2.5" ry="2.5" style="stroke:#181818;stroke-width:0.5;" width="148" x="596" y="150.5547"/><ellipse cx="611" cy="166.5547" fill="#ADD1B2" rx="11" ry="11" style="stroke:#181818;stroke-width:1.0;"/><path d="M613.4731,172.6978 Q612.8921,172.9966 612.2529,173.146 Q611.6138,173.2954 610.9082,173.2954 Q608.4014,173.2954 607.0815,171.6436 Q605.7617,169.9917 605.7617,166.8706 Q605.7617,163.7412 607.0815,162.0894 Q608.4014,160.4375 610.9082,160.4375 Q611.6138,160.4375 612.2612,160.5869 Q612.9087,160.7363 613.4731,161.0352 L613.4731,163.7578 Q612.8423,163.1768 612.2488,162.907 Q611.6553,162.6372 611.0244,162.6372 Q609.6797,162.6372 608.9949,163.7039 Q608.3101,164.7705 608.3101,166.8706 Q608.3101,168.9624 608.9949,170.0291 Q609.6797,171.0957 611.0244,171.0957 Q611.6553,171.0957 612.2488,170.8259 Q612.8423,170.5562 613.4731,169.9751 Z " fill="#000000"/><text fill="#000000" font-family="sans-serif" font-size="14" lengthAdjust="spacing" textLength="116" x="625" y="171.8457">ASTVisitorDebug</text><line style="stroke:#181818;stroke-width:0.5;" x1="597" x2="743" y1="182.5547" y2="182.5547"/><line style="stroke:#181818;stroke-width:0.5;" x1="597" x2="743" y1="190.5547" y2="190.5547"/></g></a><g id="elem_FloatingNote"><path d="M6,50.5547 L6,298.2129 L540,298.2129 L540,60.5547 L530,50.5547 L6,50.5547 " fill="#FEFFDD" style="stroke:#181818;stroke-width:0.5;"/><path d="M530,50.5547 L530,60.5547 L540,60.5547 L530,50.5547 " fill="#FEFFDD" style="stroke:#181818;stroke-width:1.0;"/><text fill="#000000" font-family="sans-serif" font-size="13" lengthAdjust="spacing" textLength="120" x="12" y="68.123">Your are analyzing:</text><text fill="#000000" font-family="sans-serif" font-size="13" lengthAdjust="spacing" textLength="186" x="12" y="83.4336">SingleMemberAnnotationExpr</text><text fill="#000000" font-family="sans-serif" font-size="13" font-weight="bold" lengthAdjust="spacing" textLength="67" x="202" y="83.4336">simplified</text><text fill="#000000" font-family="sans-serif" font-size="13" lengthAdjust="spacing" textLength="23" x="273" y="83.4336">and</text><text fill="#000000" font-family="sans-serif" font-size="13" font-weight="bold" lengthAdjust="spacing" textLength="166" x="300" y="83.4336">grouped per namespace</text><text fill="#000000" font-family="sans-serif" font-size="13" lengthAdjust="spacing" textLength="4" x="12" y="98.7441">&#160;</text><text fill="#000000" font-family="sans-serif" font-size="13" lengthAdjust="spacing" textLength="229" x="12" y="129.3652">You can click either the namespaces</text><text fill="#000000" font-family="sans-serif" font-size="13" lengthAdjust="spacing" textLength="266" x="12" y="144.6758">or class names for filtering them and their</text><text fill="#000000" font-family="sans-serif" font-size="13" lengthAdjust="spacing" textLength="130" x="12" y="159.9863">direct dependencies.</text><text fill="#000000" font-family="sans-serif" font-size="13" lengthAdjust="spacing" textLength="4" x="12" y="175.2969">&#160;</text><line style="stroke:#181818;stroke-width:1.0;" x1="7" x2="257" y1="109.1416" y2="109.1416"/><line style="stroke:#181818;stroke-width:1.0;" x1="7" x2="257" y1="111.1416" y2="111.1416"/><text fill="#000000" font-family="sans-serif" font-size="13" lengthAdjust="spacing" textLength="32" x="257" y="113.5547">Filter</text><line style="stroke:#181818;stroke-width:1.0;" x1="289" x2="539" y1="109.1416" y2="109.1416"/><line style="stroke:#181818;stroke-width:1.0;" x1="289" x2="539" y1="111.1416" y2="111.1416"/><ellipse cx="17.5" cy="205.1602" fill="#000000" rx="2.5" ry="2.5" style="stroke:#000000;stroke-width:0.0;"/><text fill="#000000" font-family="sans-serif" font-size="13" lengthAdjust="spacing" textLength="186" x="24" y="209.918">SingleMemberAnnotationExpr</text><text fill="#000000" font-family="sans-serif" font-size="13" font-weight="bold" lengthAdjust="spacing" textLength="55" x="214" y="209.918">detailed</text><text fill="#000000" font-family="sans-serif" font-size="13" lengthAdjust="spacing" textLength="23" x="273" y="209.918">and</text><text fill="#000000" font-family="sans-serif" font-size="13" font-weight="bold" lengthAdjust="spacing" textLength="166" x="300" y="209.918">grouped per namespace</text><text fill="#000000" font-family="sans-serif" font-size="13" lengthAdjust="spacing" textLength="4" x="466" y="209.918">:</text><text fill="#000000" font-family="sans-serif" font-size="13" lengthAdjust="spacing" textLength="12" x="12" y="225.2285">&#160;&#160;&#160;</text><a href="SingleMemberAnnotationExpr-diagram-detailed-grouped-per-namespace.svg" target="_top" title="SingleMemberAnnotationExpr-diagram-detailed-grouped-per-namespace.svg" xlink:actuate="onRequest" xlink:href="SingleMemberAnnotationExpr-diagram-detailed-grouped-per-namespace.svg" xlink:show="new" xlink:title="SingleMemberAnnotationExpr-diagram-detailed-grouped-per-namespace.svg" xlink:type="simple"><text fill="#0000FF" font-family="sans-serif" font-size="13" lengthAdjust="spacing" text-decoration="underline" textLength="495" x="24" y="225.2285">SingleMemberAnnotationExpr-diagram-detailed-grouped-per-namespace.svg</text></a><ellipse cx="17.5" cy="235.7813" fill="#000000" rx="2.5" ry="2.5" style="stroke:#000000;stroke-width:0.0;"/><text fill="#000000" font-family="sans-serif" font-size="13" lengthAdjust="spacing" textLength="78" x="24" y="240.5391">Full diagram</text><text fill="#000000" font-family="sans-serif" font-size="13" font-weight="bold" lengthAdjust="spacing" textLength="67" x="106" y="240.5391">simplified</text><text fill="#000000" font-family="sans-serif" font-size="13" lengthAdjust="spacing" textLength="23" x="177" y="240.5391">and</text><text fill="#000000" font-family="sans-serif" font-size="13" font-weight="bold" lengthAdjust="spacing" textLength="166" x="204" y="240.5391">grouped per namespace</text><text fill="#000000" font-family="sans-serif" font-size="13" lengthAdjust="spacing" textLength="4" x="370" y="240.5391">:</text><text fill="#000000" font-family="sans-serif" font-size="13" lengthAdjust="spacing" textLength="12" x="12" y="255.8496">&#160;&#160;&#160;</text><a href="full-diagram-simplified-grouped-per-namespace.svg" target="_top" title="full-diagram-simplified-grouped-per-namespace.svg" xlink:actuate="onRequest" xlink:href="full-diagram-simplified-grouped-per-namespace.svg" xlink:show="new" xlink:title="full-diagram-simplified-grouped-per-namespace.svg" xlink:type="simple"><text fill="#0000FF" font-family="sans-serif" font-size="13" lengthAdjust="spacing" text-decoration="underline" textLength="343" x="24" y="255.8496">full-diagram-simplified-grouped-per-namespace.svg</text></a><ellipse cx="17.5" cy="266.4023" fill="#000000" rx="2.5" ry="2.5" style="stroke:#000000;stroke-width:0.0;"/><text fill="#000000" font-family="sans-serif" font-size="13" lengthAdjust="spacing" textLength="41" x="24" y="271.1602">Home:</text><text fill="#000000" font-family="sans-serif" font-size="13" lengthAdjust="spacing" textLength="12" x="12" y="286.4707">&#160;&#160;&#160;</text><a href="index.html" target="_top" title="index.html" xlink:actuate="onRequest" xlink:href="index.html" xlink:show="new" xlink:title="index.html" xlink:type="simple"><text fill="#0000FF" font-family="sans-serif" font-size="13" lengthAdjust="spacing" text-decoration="underline" textLength="68" x="24" y="286.4707">index.html</text></a><line style="stroke:#181818;stroke-width:1.0;" x1="7" x2="236" y1="189.6943" y2="189.6943"/><line style="stroke:#181818;stroke-width:1.0;" x1="7" x2="236" y1="191.6943" y2="191.6943"/><text fill="#000000" font-family="sans-serif" font-size="13" lengthAdjust="spacing" textLength="74" x="236" y="194.1074">Select other</text><line style="stroke:#181818;stroke-width:1.0;" x1="310" x2="539" y1="189.6943" y2="189.6943"/><line style="stroke:#181818;stroke-width:1.0;" x1="310" x2="539" y1="191.6943" y2="191.6943"/></g><!--class SingleMemberAnnotationExpr--><a href="SingleMemberAnnotationExpr-diagram-simplified-grouped-per-namespace.svg" target="_top" title="SingleMemberAnnotationExpr-diagram-simplified-grouped-per-namespace.svg" xlink:actuate="onRequest" xlink:href="SingleMemberAnnotationExpr-diagram-simplified-grouped-per-namespace.svg" xlink:show="new" xlink:title="SingleMemberAnnotationExpr-diagram-simplified-grouped-per-namespace.svg" xlink:type="simple"><g id="elem_SingleMemberAnnotationExpr"><rect codeLine="3" fill="#FFFF00" height="48" id="SingleMemberAnnotationExpr" rx="2.5" ry="2.5" style="stroke:#181818;stroke-width:0.5;" width="239" x="550.5" y="375.5547"/><ellipse cx="565.5" cy="391.5547" fill="#ADD1B2" rx="11" ry="11" style="stroke:#181818;stroke-width:1.0;"/><path d="M567.9731,397.6978 Q567.3921,397.9966 566.7529,398.146 Q566.1138,398.2954 565.4082,398.2954 Q562.9014,398.2954 561.5815,396.6436 Q560.2617,394.9917 560.2617,391.8706 Q560.2617,388.7412 561.5815,387.0894 Q562.9014,385.4375 565.4082,385.4375 Q566.1138,385.4375 566.7612,385.5869 Q567.4087,385.7363 567.9731,386.0352 L567.9731,388.7578 Q567.3423,388.1768 566.7488,387.907 Q566.1553,387.6372 565.5244,387.6372 Q564.1797,387.6372 563.4949,388.7039 Q562.8101,389.7705 562.8101,391.8706 Q562.8101,393.9624 563.4949,395.0291 Q564.1797,396.0957 565.5244,396.0957 Q566.1553,396.0957 566.7488,395.8259 Q567.3423,395.5562 567.9731,394.9751 Z " fill="#000000"/><text fill="#000000" font-family="sans-serif" font-size="14" lengthAdjust="spacing" textLength="207" x="579.5" y="396.8457">SingleMemberAnnotationExpr</text><line style="stroke:#181818;stroke-width:0.5;" x1="551.5" x2="788.5" y1="407.5547" y2="407.5547"/><line style="stroke:#181818;stroke-width:0.5;" x1="551.5" x2="788.5" y1="415.5547" y2="415.5547"/></g></a><!--link ASTVisitorDebug to SingleMemberAnnotationExpr--><g id="link_ASTVisitorDebug_SingleMemberAnnotationExpr"><path codeLine="23" d="M670,198.9947 C670,239.9847 670,324.5647 670,369.3147 " fill="none" id="ASTVisitorDebug-to-SingleMemberAnnotationExpr" style="stroke:#6060BB;stroke-width:1.0;stroke-dasharray:7.0,7.0;"/><polygon fill="#6060BB" points="670,374.0947,674,365.0947,670,369.0947,666,365.0947,670,374.0947" style="stroke:#6060BB;stroke-width:1.0;"/><text fill="#000000" font-family="sans-serif" font-size="13" lengthAdjust="spacing" textLength="29" x="671" y="342.123">uses</text></g><!--SRC=[jLHBQzj04BxhLmp98I2mQdh8mSI69AtffRcu58ebp5exaeVkG-ok4YUX_xqZMxP8ule1jJ56MizyZtbieA0GRZozuE1pVpGXKohyZdgExjOO6qGWQxukAmTnx4bNYWf26SSWZEIZqjcwGWaLEZ12ewz4Zd5yywa174KCW73nozOEX4FE4UhvXIa6gVbFJAb9pN0u9XNG3OUfOIx8XO5SKVuRaCA2u_cdo_6G6kiuG7Y_FeM2tuiL18jgelMAb1_8fKQImpo0n0gDH9CJ-cHDEq7L_6CRaeOyXhsk90P1wh0dhWu0JAV_1kj94gKJkhU1xBLGFORgRQ4I_rXcMQDhN2i5RT99zTreAHXWozgb7-BzPZLk88YhjqmMGQiikm3XOQmiEpBb0qz9jEx7dleTLO_ZbC7bCofbd-0r-XDTmRsolccyu1fL3X_9rdxcw_bicpPJv4DN5dYm1c6EkQWzDfFJZhOd3_mjo91Ve4oYBeDnXHGLZnWRwLvE5Vww4pAHLWioRv3RizC9e5sD3r39xUJ7J_8KhFk2yxhSHVS-vbJw5J_tvDxgYcyC2UUs2qzyHG0R3i3BhD7mEXUmqd36kUYmkzorWJS3kSiy1y0Lx-jH7pXRR2EocHA7QhM57d0PdCW3zwnmLdVQ1nnxOlY7jaQ7Xp6PNbxth_jtTraosdUDm02uEHx-0W00]--></g></svg>