<?xml version="1.0" encoding="us-ascii" standalone="no"?><svg xmlns="http://www.w3.org/2000/svg" xmlns:xlink="http://www.w3.org/1999/xlink" contentStyleType="text/css" height="883px" preserveAspectRatio="none" style="width:1643px;height:883px;background:#FFFFFF;" version="1.1" viewBox="0 0 1643 883" width="1643px" zoomAndPan="magnify"><defs/><g><text fill="#000000" font-family="sans-serif" font-size="20" font-weight="bold" lengthAdjust="spacing" textLength="179" x="529" y="29.3359">SubDataStructure</text><text fill="#000000" font-family="sans-serif" font-size="20" font-weight="bold" lengthAdjust="spacing" textLength="84" x="715" y="29.3359">detailed</text><text fill="#000000" font-family="sans-serif" font-size="20" font-weight="bold" lengthAdjust="spacing" textLength="38" x="806" y="29.3359">and</text><text fill="#000000" font-family="sans-serif" font-size="20" font-weight="bold" lengthAdjust="spacing" textLength="249" x="851" y="29.3359">grouped per namespace</text><!--cluster preadapter--><g id="cluster_preadapter"><a href="preadapter-diagram-detailed-grouped-per-namespace.svg" target="_top" title="preadapter-diagram-detailed-grouped-per-namespace.svg" xlink:actuate="onRequest" xlink:href="preadapter-diagram-detailed-grouped-per-namespace.svg" xlink:show="new" xlink:title="preadapter-diagram-detailed-grouped-per-namespace.svg" xlink:type="simple"><path d="M494.5,50.5547 L572.5,50.5547 A3.75,3.75 0 0 1 575,53.0547 L582,73.043 L1633.5,73.043 A2.5,2.5 0 0 1 1636,75.543 L1636,806.0547 A2.5,2.5 0 0 1 1633.5,808.5547 L494.5,808.5547 A2.5,2.5 0 0 1 492,806.0547 L492,53.0547 A2.5,2.5 0 0 1 494.5,50.5547 " fill="none" style="stroke:#000000;stroke-width:1.5;"/><line style="stroke:#000000;stroke-width:1.5;" x1="492" x2="582" y1="73.043" y2="73.043"/><text fill="#000000" font-family="sans-serif" font-size="14" font-weight="bold" lengthAdjust="spacing" textLength="77" x="496" y="66.0898">preadapter</text></a></g><!--cluster domain--><g id="cluster_domain"><a href="preadapter.domain-diagram-detailed-grouped-per-namespace.svg" target="_top" title="preadapter.domain-diagram-detailed-grouped-per-namespace.svg" xlink:actuate="onRequest" xlink:href="preadapter.domain-diagram-detailed-grouped-per-namespace.svg" xlink:show="new" xlink:title="preadapter.domain-diagram-detailed-grouped-per-namespace.svg" xlink:type="simple"><path d="M518.5,93.5547 L573.5,93.5547 A3.75,3.75 0 0 1 576,96.0547 L583,116.043 L1609.5,116.043 A2.5,2.5 0 0 1 1612,118.543 L1612,782.0547 A2.5,2.5 0 0 1 1609.5,784.5547 L518.5,784.5547 A2.5,2.5 0 0 1 516,782.0547 L516,96.0547 A2.5,2.5 0 0 1 518.5,93.5547 " fill="none" style="stroke:#000000;stroke-width:1.5;"/><line style="stroke:#000000;stroke-width:1.5;" x1="516" x2="583" y1="116.043" y2="116.043"/><text fill="#000000" font-family="sans-serif" font-size="14" font-weight="bold" lengthAdjust="spacing" textLength="54" x="520" y="109.0898">domain</text></a></g><!--class Datastructure--><a href="preadapter.domain.Datastructure-diagram-detailed-grouped-per-namespace.svg" target="_top" title="preadapter.domain.Datastructure-diagram-detailed-grouped-per-namespace.svg" xlink:actuate="onRequest" xlink:href="preadapter.domain.Datastructure-diagram-detailed-grouped-per-namespace.svg" xlink:show="new" xlink:title="preadapter.domain.Datastructure-diagram-detailed-grouped-per-namespace.svg" xlink:type="simple"><g id="elem_Datastructure"><rect codeLine="9" fill="#F1F1F1" height="640.1133" id="Datastructure" rx="2.5" ry="2.5" style="stroke:#181818;stroke-width:0.5;" width="1063" x="532.5" y="128.5547"/><ellipse cx="1013.25" cy="144.5547" fill="#ADD1B2" rx="11" ry="11" style="stroke:#181818;stroke-width:1.0;"/><path d="M1015.7231,150.6978 Q1015.1421,150.9966 1014.5029,151.146 Q1013.8638,151.2954 1013.1582,151.2954 Q1010.6514,151.2954 1009.3315,149.6436 Q1008.0117,147.9917 1008.0117,144.8706 Q1008.0117,141.7412 1009.3315,140.0894 Q1010.6514,138.4375 1013.1582,138.4375 Q1013.8638,138.4375 1014.5112,138.5869 Q1015.1587,138.7363 1015.7231,139.0352 L1015.7231,141.7578 Q1015.0923,141.1768 1014.4988,140.907 Q1013.9053,140.6372 1013.2744,140.6372 Q1011.9297,140.6372 1011.2449,141.7039 Q1010.5601,142.7705 1010.5601,144.8706 Q1010.5601,146.9624 1011.2449,148.0291 Q1011.9297,149.0957 1013.2744,149.0957 Q1013.9053,149.0957 1014.4988,148.8259 Q1015.0923,148.5562 1015.7231,147.9751 Z " fill="#000000"/><text fill="#000000" font-family="sans-serif" font-size="14" lengthAdjust="spacing" textLength="93" x="1033.75" y="149.8457">Datastructure</text><line style="stroke:#181818;stroke-width:0.5;" x1="533.5" x2="1594.5" y1="160.5547" y2="160.5547"/><ellipse cx="543.5" cy="174.2988" fill="none" rx="3" ry="3" style="stroke:#038048;stroke-width:1.0;"/><text fill="#000000" font-family="sans-serif" font-size="14" lengthAdjust="spacing" textLength="361" x="552.5" y="178.0898">class_to_datastructure: dict[String,SubDataStructure]</text><ellipse cx="543.5" cy="190.7871" fill="none" rx="3" ry="3" style="stroke:#038048;stroke-width:1.0;"/><text fill="#000000" font-family="sans-serif" font-size="14" lengthAdjust="spacing" textLength="442" x="552.5" y="194.5781">namespace_to_datastructures: dict[String,list[SubDataStructure]]</text><ellipse cx="543.5" cy="207.2754" fill="none" rx="3" ry="3" style="stroke:#038048;stroke-width:1.0;"/><text fill="#000000" font-family="sans-serif" font-size="14" lengthAdjust="spacing" textLength="368" x="552.5" y="211.0664">namespace_to_namespace_list: dict[String,list[String]]</text><ellipse cx="543.5" cy="223.7637" fill="none" rx="3" ry="3" style="stroke:#038048;stroke-width:1.0;"/><text fill="#000000" font-family="sans-serif" font-size="14" lengthAdjust="spacing" textLength="150" x="552.5" y="227.5547">skip_types: list[String]</text><ellipse cx="543.5" cy="240.252" fill="none" rx="3" ry="3" style="stroke:#038048;stroke-width:1.0;"/><text fill="#000000" font-family="sans-serif" font-size="14" lengthAdjust="spacing" textLength="181" x="552.5" y="244.043">logger: preadapter.Logger</text><line style="stroke:#181818;stroke-width:1.0;" x1="533.5" x2="1594.5" y1="250.9961" y2="250.9961"/><line style="stroke:#181818;stroke-width:1.0;" x1="533.5" x2="1594.5" y1="252.9961" y2="252.9961"/><ellipse cx="543.5" cy="264.7402" fill="#84BE84" rx="3" ry="3" style="stroke:#038048;stroke-width:1.0;"/><text fill="#000000" font-family="sans-serif" font-size="14" lengthAdjust="spacing" textLength="139" x="552.5" y="268.5313">ResolveClassNames(</text><text fill="#000000" font-family="sans-serif" font-size="14" lengthAdjust="spacing" textLength="9" x="691.5" y="268.5313">):</text><text fill="#BB6060" font-family="sans-serif" font-size="14" lengthAdjust="spacing" textLength="29" x="704.5" y="268.5313">void</text><rect fill="none" height="6" style="stroke:#C82930;stroke-width:1.0;" width="6" x="540.5" y="278.2285"/><text fill="#909090" font-family="sans-serif" font-size="14" lengthAdjust="spacing" textLength="293" x="552.5" y="285.0195">ResolveClassNames.variables: list[Variable]</text><rect fill="none" height="6" style="stroke:#C82930;stroke-width:1.0;" width="6" x="540.5" y="294.7168"/><text fill="#909090" font-family="sans-serif" font-size="14" lengthAdjust="spacing" textLength="256" x="552.5" y="301.5078">ResolveClassNames.variable: Variable</text><rect fill="none" height="6" style="stroke:#C82930;stroke-width:1.0;" width="6" x="540.5" y="311.2051"/><text fill="#909090" font-family="sans-serif" font-size="14" lengthAdjust="spacing" textLength="203" x="552.5" y="317.9961">ResolveClassNames.index: int</text><rect fill="none" height="6" style="stroke:#C82930;stroke-width:1.0;" width="6" x="540.5" y="327.6934"/><text fill="#909090" font-family="sans-serif" font-size="14" lengthAdjust="spacing" textLength="203" x="552.5" y="334.4844">ResolveClassNames.index: int</text><rect fill="none" height="6" style="stroke:#C82930;stroke-width:1.0;" width="6" x="540.5" y="344.1816"/><text fill="#909090" font-family="sans-serif" font-size="14" lengthAdjust="spacing" textLength="203" x="552.5" y="350.9727">ResolveClassNames.index: int</text><rect fill="none" height="6" style="stroke:#C82930;stroke-width:1.0;" width="6" x="540.5" y="360.6699"/><text fill="#909090" font-family="sans-serif" font-size="14" lengthAdjust="spacing" textLength="251" x="552.5" y="367.4609">ResolveClassNames.method: Method</text><rect fill="none" height="6" style="stroke:#C82930;stroke-width:1.0;" width="6" x="540.5" y="377.1582"/><text fill="#909090" font-family="sans-serif" font-size="14" lengthAdjust="spacing" textLength="385" x="552.5" y="383.9492">ResolveClassNames.subDataStructure: SubDataStructure</text><line style="stroke:#181818;stroke-width:1.0;" x1="533.5" x2="1594.5" y1="390.9023" y2="390.9023"/><rect fill="#F24D5C" height="6" style="stroke:#C82930;stroke-width:1.0;" width="6" x="540.5" y="401.6465"/><text fill="#000000" font-family="sans-serif" font-size="14" lengthAdjust="spacing" textLength="133" x="552.5" y="408.4375">CorrectClassScope(</text><text fill="#6060BB" font-family="sans-serif" font-size="14" lengthAdjust="spacing" textLength="590" x="685.5" y="408.4375">subDataStructure:SubDataStructure, classNameList:list[String], isAnymousCall:boolean</text><text fill="#000000" font-family="sans-serif" font-size="14" lengthAdjust="spacing" textLength="9" x="1275.5" y="408.4375">):</text><text fill="#BB6060" font-family="sans-serif" font-size="14" lengthAdjust="spacing" textLength="29" x="1288.5" y="408.4375">void</text><rect fill="none" height="6" style="stroke:#C82930;stroke-width:1.0;" width="6" x="540.5" y="418.1348"/><text fill="#909090" font-family="sans-serif" font-size="14" lengthAdjust="spacing" textLength="197" x="552.5" y="424.9258">CorrectClassScope.index: int</text><line style="stroke:#181818;stroke-width:1.0;" x1="533.5" x2="1594.5" y1="431.8789" y2="431.8789"/><ellipse cx="543.5" cy="445.623" fill="#84BE84" rx="3" ry="3" style="stroke:#038048;stroke-width:1.0;"/><text fill="#000000" font-family="sans-serif" font-size="14" lengthAdjust="spacing" textLength="199" x="552.5" y="449.4141">GetFQDNForUsedClassName(</text><text fill="#6060BB" font-family="sans-serif" font-size="14" lengthAdjust="spacing" textLength="784" x="751.5" y="449.4141">subDataStructure:SubDataStructure, classUsage:String, isAnonymousCall:boolean, mostProbableNamespace:String</text><text fill="#000000" font-family="sans-serif" font-size="14" lengthAdjust="spacing" textLength="9" x="1535.5" y="449.4141">):</text><text fill="#BB6060" font-family="sans-serif" font-size="14" lengthAdjust="spacing" textLength="41" x="1548.5" y="449.4141">String</text><rect fill="none" height="6" style="stroke:#C82930;stroke-width:1.0;" width="6" x="540.5" y="459.1113"/><text fill="#909090" font-family="sans-serif" font-size="14" lengthAdjust="spacing" textLength="319" x="552.5" y="465.9023">GetFQDNForUsedClassName.className: String</text><rect fill="none" height="6" style="stroke:#C82930;stroke-width:1.0;" width="6" x="540.5" y="475.5996"/><text fill="#909090" font-family="sans-serif" font-size="14" lengthAdjust="spacing" textLength="371" x="552.5" y="482.3906">GetFQDNForUsedClassName.classnameList: list[String]</text><rect fill="none" height="6" style="stroke:#C82930;stroke-width:1.0;" width="6" x="540.5" y="492.0879"/><text fill="#909090" font-family="sans-serif" font-size="14" lengthAdjust="spacing" textLength="352" x="552.5" y="498.8789">GetFQDNForUsedClassName.finalClassName: String</text><rect fill="none" height="6" style="stroke:#C82930;stroke-width:1.0;" width="6" x="540.5" y="508.5762"/><text fill="#909090" font-family="sans-serif" font-size="14" lengthAdjust="spacing" textLength="400" x="552.5" y="515.3672">GetFQDNForUsedClassName.fittingClassNames: list[String]</text><rect fill="none" height="6" style="stroke:#C82930;stroke-width:1.0;" width="6" x="540.5" y="525.0645"/><text fill="#909090" font-family="sans-serif" font-size="14" lengthAdjust="spacing" textLength="438" x="552.5" y="531.8555">GetFQDNForUsedClassName.classNameFromImports: list[String]</text><rect fill="none" height="6" style="stroke:#C82930;stroke-width:1.0;" width="6" x="540.5" y="541.5527"/><text fill="#909090" font-family="sans-serif" font-size="14" lengthAdjust="spacing" textLength="512" x="552.5" y="548.3438">GetFQDNForUsedClassName.classNameEndingInPackageImport: list[String]</text><rect fill="none" height="6" style="stroke:#C82930;stroke-width:1.0;" width="6" x="540.5" y="558.041"/><text fill="#909090" font-family="sans-serif" font-size="14" lengthAdjust="spacing" textLength="354" x="552.5" y="564.832">GetFQDNForUsedClassName.fqdnClassName: String</text><rect fill="none" height="6" style="stroke:#C82930;stroke-width:1.0;" width="6" x="540.5" y="574.5293"/><text fill="#909090" font-family="sans-serif" font-size="14" lengthAdjust="spacing" textLength="447" x="552.5" y="581.3203">GetFQDNForUsedClassName.fqdnFromPackageImport: list[String]</text><rect fill="none" height="6" style="stroke:#C82930;stroke-width:1.0;" width="6" x="540.5" y="591.0176"/><text fill="#909090" font-family="sans-serif" font-size="14" lengthAdjust="spacing" textLength="432" x="552.5" y="597.8086">GetFQDNForUsedClassName.bestFittingClassNames: list[String]</text><line style="stroke:#181818;stroke-width:1.0;" x1="533.5" x2="1594.5" y1="604.7617" y2="604.7617"/><ellipse cx="543.5" cy="618.5059" fill="#84BE84" rx="3" ry="3" style="stroke:#038048;stroke-width:1.0;"/><text fill="#000000" font-family="sans-serif" font-size="14" lengthAdjust="spacing" textLength="105" x="552.5" y="622.2969">get_skip_types(</text><text fill="#000000" font-family="sans-serif" font-size="14" lengthAdjust="spacing" textLength="9" x="657.5" y="622.2969">):</text><text fill="#BB6060" font-family="sans-serif" font-size="14" lengthAdjust="spacing" textLength="71" x="670.5" y="622.2969">list[String]</text><line style="stroke:#181818;stroke-width:1.0;" x1="533.5" x2="1594.5" y1="629.25" y2="629.25"/><ellipse cx="543.5" cy="642.9941" fill="#84BE84" rx="3" ry="3" style="stroke:#038048;stroke-width:1.0;"/><text fill="#000000" font-family="sans-serif" font-size="14" lengthAdjust="spacing" textLength="188" x="552.5" y="646.7852">append_sub_datastructure(</text><text fill="#6060BB" font-family="sans-serif" font-size="14" lengthAdjust="spacing" textLength="248" x="740.5" y="646.7852">sub_datastructure:SubDataStructure</text><text fill="#000000" font-family="sans-serif" font-size="14" lengthAdjust="spacing" textLength="9" x="988.5" y="646.7852">):</text><text fill="#BB6060" font-family="sans-serif" font-size="14" lengthAdjust="spacing" textLength="29" x="1001.5" y="646.7852">void</text><rect fill="none" height="6" style="stroke:#C82930;stroke-width:1.0;" width="6" x="540.5" y="656.4824"/><text fill="#909090" font-family="sans-serif" font-size="14" lengthAdjust="spacing" textLength="353" x="552.5" y="663.2734">append_sub_datastructure.fqdn_class_name: String</text><rect fill="none" height="6" style="stroke:#C82930;stroke-width:1.0;" width="6" x="540.5" y="672.9707"/><text fill="#909090" font-family="sans-serif" font-size="14" lengthAdjust="spacing" textLength="358" x="552.5" y="679.7617">append_sub_datastructure.namespace_name: String</text><line style="stroke:#181818;stroke-width:1.0;" x1="533.5" x2="1594.5" y1="686.7148" y2="686.7148"/><ellipse cx="543.5" cy="700.459" fill="#84BE84" rx="3" ry="3" style="stroke:#038048;stroke-width:1.0;"/><text fill="#000000" font-family="sans-serif" font-size="14" lengthAdjust="spacing" textLength="97" x="552.5" y="704.25">append_class(</text><text fill="#6060BB" font-family="sans-serif" font-size="14" lengthAdjust="spacing" textLength="712" x="649.5" y="704.25">filename:String, filemodule:String, usings:list[String], fqdn_class_name:String, nameSpaceList:list[String]</text><text fill="#000000" font-family="sans-serif" font-size="14" lengthAdjust="spacing" textLength="9" x="1361.5" y="704.25">):</text><text fill="#BB6060" font-family="sans-serif" font-size="14" lengthAdjust="spacing" textLength="120" x="1374.5" y="704.25">SubDataStructure</text><rect fill="none" height="6" style="stroke:#C82930;stroke-width:1.0;" width="6" x="540.5" y="713.9473"/><text fill="#909090" font-family="sans-serif" font-size="14" lengthAdjust="spacing" textLength="348" x="552.5" y="720.7383">append_class.sub_datastructure: SubDataStructure</text><line style="stroke:#181818;stroke-width:1.0;" x1="533.5" x2="1594.5" y1="727.6914" y2="727.6914"/><ellipse cx="543.5" cy="741.4355" fill="#84BE84" rx="3" ry="3" style="stroke:#038048;stroke-width:1.0;"/><text fill="#000000" font-family="sans-serif" font-size="14" lengthAdjust="spacing" textLength="132" x="552.5" y="745.2266">get_classname_list(</text><text fill="#000000" font-family="sans-serif" font-size="14" lengthAdjust="spacing" textLength="9" x="684.5" y="745.2266">):</text><text fill="#BB6060" font-family="sans-serif" font-size="14" lengthAdjust="spacing" textLength="71" x="697.5" y="745.2266">list[String]</text><ellipse cx="543.5" cy="757.9238" fill="#84BE84" rx="3" ry="3" style="stroke:#038048;stroke-width:1.0;"/><text fill="#000000" font-family="sans-serif" font-size="14" lengthAdjust="spacing" textLength="258" x="552.5" y="761.7148">get_datastructures_from_class_name(</text><text fill="#6060BB" font-family="sans-serif" font-size="14" lengthAdjust="spacing" textLength="123" x="810.5" y="761.7148">class_name:String</text><text fill="#000000" font-family="sans-serif" font-size="14" lengthAdjust="spacing" textLength="9" x="933.5" y="761.7148">):</text><text fill="#BB6060" font-family="sans-serif" font-size="14" lengthAdjust="spacing" textLength="120" x="946.5" y="761.7148">SubDataStructure</text></g></a><g id="elem_FloatingNote"><path d="M6,324.5547 L6,572.2129 L476,572.2129 L476,334.5547 L466,324.5547 L6,324.5547 " fill="#FEFFDD" style="stroke:#181818;stroke-width:0.5;"/><path d="M466,324.5547 L466,334.5547 L476,334.5547 L466,324.5547 " fill="#FEFFDD" style="stroke:#181818;stroke-width:1.0;"/><text fill="#000000" font-family="sans-serif" font-size="13" lengthAdjust="spacing" textLength="120" x="12" y="342.123">Your are analyzing:</text><text fill="#000000" font-family="sans-serif" font-size="13" lengthAdjust="spacing" textLength="109" x="12" y="357.4336">SubDataStructure</text><text fill="#000000" font-family="sans-serif" font-size="13" font-weight="bold" lengthAdjust="spacing" textLength="55" x="125" y="357.4336">detailed</text><text fill="#000000" font-family="sans-serif" font-size="13" lengthAdjust="spacing" textLength="23" x="184" y="357.4336">and</text><text fill="#000000" font-family="sans-serif" font-size="13" font-weight="bold" lengthAdjust="spacing" textLength="166" x="211" y="357.4336">grouped per namespace</text><text fill="#000000" font-family="sans-serif" font-size="13" lengthAdjust="spacing" textLength="4" x="12" y="372.7441">&#160;</text><text fill="#000000" font-family="sans-serif" font-size="13" lengthAdjust="spacing" textLength="229" x="12" y="403.3652">You can click either the namespaces</text><text fill="#000000" font-family="sans-serif" font-size="13" lengthAdjust="spacing" textLength="266" x="12" y="418.6758">or class names for filtering them and their</text><text fill="#000000" font-family="sans-serif" font-size="13" lengthAdjust="spacing" textLength="130" x="12" y="433.9863">direct dependencies.</text><text fill="#000000" font-family="sans-serif" font-size="13" lengthAdjust="spacing" textLength="4" x="12" y="449.2969">&#160;</text><line style="stroke:#181818;stroke-width:1.0;" x1="7" x2="225" y1="383.1416" y2="383.1416"/><line style="stroke:#181818;stroke-width:1.0;" x1="7" x2="225" y1="385.1416" y2="385.1416"/><text fill="#000000" font-family="sans-serif" font-size="13" lengthAdjust="spacing" textLength="32" x="225" y="387.5547">Filter</text><line style="stroke:#181818;stroke-width:1.0;" x1="257" x2="475" y1="383.1416" y2="383.1416"/><line style="stroke:#181818;stroke-width:1.0;" x1="257" x2="475" y1="385.1416" y2="385.1416"/><ellipse cx="17.5" cy="479.1602" fill="#000000" rx="2.5" ry="2.5" style="stroke:#000000;stroke-width:0.0;"/><text fill="#000000" font-family="sans-serif" font-size="13" lengthAdjust="spacing" textLength="109" x="24" y="483.918">SubDataStructure</text><text fill="#000000" font-family="sans-serif" font-size="13" font-weight="bold" lengthAdjust="spacing" textLength="67" x="137" y="483.918">simplified</text><text fill="#000000" font-family="sans-serif" font-size="13" lengthAdjust="spacing" textLength="23" x="208" y="483.918">and</text><text fill="#000000" font-family="sans-serif" font-size="13" font-weight="bold" lengthAdjust="spacing" textLength="166" x="235" y="483.918">grouped per namespace</text><text fill="#000000" font-family="sans-serif" font-size="13" lengthAdjust="spacing" textLength="4" x="401" y="483.918">:</text><text fill="#000000" font-family="sans-serif" font-size="13" lengthAdjust="spacing" textLength="12" x="12" y="499.2285">&#160;&#160;&#160;</text><a href="SubDataStructure-diagram-simplified-grouped-per-namespace.svg" target="_top" title="SubDataStructure-diagram-simplified-grouped-per-namespace.svg" xlink:actuate="onRequest" xlink:href="SubDataStructure-diagram-simplified-grouped-per-namespace.svg" xlink:show="new" xlink:title="SubDataStructure-diagram-simplified-grouped-per-namespace.svg" xlink:type="simple"><text fill="#0000FF" font-family="sans-serif" font-size="13" lengthAdjust="spacing" text-decoration="underline" textLength="431" x="24" y="499.2285">SubDataStructure-diagram-simplified-grouped-per-namespace.svg</text></a><ellipse cx="17.5" cy="509.7813" fill="#000000" rx="2.5" ry="2.5" style="stroke:#000000;stroke-width:0.0;"/><text fill="#000000" font-family="sans-serif" font-size="13" lengthAdjust="spacing" textLength="78" x="24" y="514.5391">Full diagram</text><text fill="#000000" font-family="sans-serif" font-size="13" font-weight="bold" lengthAdjust="spacing" textLength="55" x="106" y="514.5391">detailed</text><text fill="#000000" font-family="sans-serif" font-size="13" lengthAdjust="spacing" textLength="23" x="165" y="514.5391">and</text><text fill="#000000" font-family="sans-serif" font-size="13" font-weight="bold" lengthAdjust="spacing" textLength="166" x="192" y="514.5391">grouped per namespace</text><text fill="#000000" font-family="sans-serif" font-size="13" lengthAdjust="spacing" textLength="4" x="358" y="514.5391">:</text><text fill="#000000" font-family="sans-serif" font-size="13" lengthAdjust="spacing" textLength="12" x="12" y="529.8496">&#160;&#160;&#160;</text><a href="full-diagram-detailed-grouped-per-namespace.svg" target="_top" title="full-diagram-detailed-grouped-per-namespace.svg" xlink:actuate="onRequest" xlink:href="full-diagram-detailed-grouped-per-namespace.svg" xlink:show="new" xlink:title="full-diagram-detailed-grouped-per-namespace.svg" xlink:type="simple"><text fill="#0000FF" font-family="sans-serif" font-size="13" lengthAdjust="spacing" text-decoration="underline" textLength="330" x="24" y="529.8496">full-diagram-detailed-grouped-per-namespace.svg</text></a><ellipse cx="17.5" cy="540.4023" fill="#000000" rx="2.5" ry="2.5" style="stroke:#000000;stroke-width:0.0;"/><text fill="#000000" font-family="sans-serif" font-size="13" lengthAdjust="spacing" textLength="41" x="24" y="545.1602">Home:</text><text fill="#000000" font-family="sans-serif" font-size="13" lengthAdjust="spacing" textLength="12" x="12" y="560.4707">&#160;&#160;&#160;</text><a href="index.html" target="_top" title="index.html" xlink:actuate="onRequest" xlink:href="index.html" xlink:show="new" xlink:title="index.html" xlink:type="simple"><text fill="#0000FF" font-family="sans-serif" font-size="13" lengthAdjust="spacing" text-decoration="underline" textLength="68" x="24" y="560.4707">index.html</text></a><line style="stroke:#181818;stroke-width:1.0;" x1="7" x2="204" y1="463.6943" y2="463.6943"/><line style="stroke:#181818;stroke-width:1.0;" x1="7" x2="204" y1="465.6943" y2="465.6943"/><text fill="#000000" font-family="sans-serif" font-size="13" lengthAdjust="spacing" textLength="74" x="204" y="468.1074">Select other</text><line style="stroke:#181818;stroke-width:1.0;" x1="278" x2="475" y1="463.6943" y2="463.6943"/><line style="stroke:#181818;stroke-width:1.0;" x1="278" x2="475" y1="465.6943" y2="465.6943"/></g><!--class SubDataStructure--><a href="SubDataStructure-diagram-detailed-grouped-per-namespace.svg" target="_top" title="SubDataStructure-diagram-detailed-grouped-per-namespace.svg" xlink:actuate="onRequest" xlink:href="SubDataStructure-diagram-detailed-grouped-per-namespace.svg" xlink:show="new" xlink:title="SubDataStructure-diagram-detailed-grouped-per-namespace.svg" xlink:type="simple"><g id="elem_SubDataStructure"><rect codeLine="4" fill="#FFFF00" height="48" id="SubDataStructure" rx="2.5" ry="2.5" style="stroke:#181818;stroke-width:0.5;" width="152" x="988" y="828.5547"/><ellipse cx="1003" cy="844.5547" fill="#ADD1B2" rx="11" ry="11" style="stroke:#181818;stroke-width:1.0;"/><path d="M1005.4731,850.6978 Q1004.8921,850.9966 1004.2529,851.146 Q1003.6138,851.2954 1002.9082,851.2954 Q1000.4014,851.2954 999.0815,849.6436 Q997.7617,847.9917 997.7617,844.8706 Q997.7617,841.7412 999.0815,840.0894 Q1000.4014,838.4375 1002.9082,838.4375 Q1003.6138,838.4375 1004.2612,838.5869 Q1004.9087,838.7363 1005.4731,839.0352 L1005.4731,841.7578 Q1004.8423,841.1768 1004.2488,840.907 Q1003.6553,840.6372 1003.0244,840.6372 Q1001.6797,840.6372 1000.9949,841.7039 Q1000.3101,842.7705 1000.3101,844.8706 Q1000.3101,846.9624 1000.9949,848.0291 Q1001.6797,849.0957 1003.0244,849.0957 Q1003.6553,849.0957 1004.2488,848.8259 Q1004.8423,848.5562 1005.4731,847.9751 Z " fill="#000000"/><text fill="#000000" font-family="sans-serif" font-size="14" lengthAdjust="spacing" textLength="120" x="1017" y="849.8457">SubDataStructure</text><line style="stroke:#181818;stroke-width:0.5;" x1="989" x2="1139" y1="860.5547" y2="860.5547"/><line style="stroke:#181818;stroke-width:0.5;" x1="989" x2="1139" y1="868.5547" y2="868.5547"/></g></a><!--link Datastructure to SubDataStructure--><g id="link_Datastructure_SubDataStructure"><path codeLine="64" d="M1038.67,768.8447 C1038.67,768.8447 1038.67,822.3847 1038.67,822.3847 " fill="none" id="Datastructure-to-SubDataStructure" style="stroke:#909090;stroke-width:1.0;"/><polygon fill="#909090" points="1038.67,827.3847,1042.67,818.3847,1038.67,822.3847,1034.67,818.3847,1038.67,827.3847" style="stroke:#909090;stroke-width:1.0;"/><text fill="#000000" font-family="sans-serif" font-size="13" lengthAdjust="spacing" textLength="29" x="1008.67" y="792.183">uses</text></g><!--link Datastructure to SubDataStructure--><g id="link_Datastructure_SubDataStructure"><path codeLine="65" d="M1089.33,768.8447 C1089.33,768.8447 1089.33,822.3847 1089.33,822.3847 " fill="none" id="Datastructure-to-SubDataStructure-1" style="stroke:#6060BB;stroke-width:1.0;stroke-dasharray:7.0,7.0;"/><polygon fill="#6060BB" points="1089.33,827.3847,1093.33,818.3847,1089.33,822.3847,1085.33,818.3847,1089.33,827.3847" style="stroke:#6060BB;stroke-width:1.0;"/><text fill="#000000" font-family="sans-serif" font-size="13" lengthAdjust="spacing" textLength="29" x="1059.33" y="792.183">uses</text></g><!--SRC=[rLTHR-9647xdLup8mxLSx8lwS5AjWDHmfJtf3bsBhb8522tsG5PPxxgxQ-vof_xtpje6Osn22F3G929uFVFDx3UpipFcWSk4QHQ3u1BjOuAWjBrNBSkjGBWr_1i6FztqHkdy7RDiP7KQsbGZT3eHMiO5HfqEC1dHmbAhDC484jGWMOmcOI5sEhTl74Yl9PL5QF-jKWsC09Xaul4RbyjW8az0dyY9x7O7N5ZKtUv44Zw4J48eUFW0oEqzoTD7gMDW8fKc0MPClWeBUbva4EIFauupe_I5wucCkCRGGeG9oWXboD7ukTaH2lT6EIFEU0SQTc9ud0Y-u8VtGam0m7Yy2-95d2qfHbu9vHKG7a5u6mZVh9RJgVDZa0e1XTeHRAuzM93wnkfQ-P3DtrMCQm1EJ7trxsqifjCsC0C3ePWbTeUK1QsS-nfNJ-pyEJx0rICAeRx0zzQ_hLVG5yguS39Y8j6uuYerCvFEPnkrcU36bjk7eP88SmnPQj3bGv6aXXkWlmMNtDnZvBTA3S9b4KieSSZvyk4ujxyt0lgHYXcN5TnYxLXuA9Az1kGxiiqM_mSaZZESMGPudLkVMJMBji42oi_GZYdM5ANhtSXF2zqoMBlwfWhWObdBdsaZJ3K1cc2oxnjbyy2JcQkDP7BxVV5QgEKITR1DxuTigTNj5Y9_eb5YXNr7nD1P_-5seQI5K0cbk-stDszlxkxQlTitRhNtOm2LrtTtJg3TMoaU5I8PhbSL-_d6_RPxDMF-YcdEvcBZ_r_5y_Gaj03ME2-2oKf405pQ_w5wZ7H9HW5ypFw_2CBiv6fGAuXhMCyhaFjAkwie0nc5Ai7cDAeXxm9VvqVI-V71dO3jfBwcMlUBV8ofMlQfT0PpfGGoUPxKh6sW8Gx5Rb_3RsW7VxmR3fJ-R33QC7VQdZyRjgIN-M7Fjghgcxs6M1dxIQkvo-xXkbmKQWUeg0WzHSQU_VcRs516d0LBhkDSgLudeD9Lo4J_Z6ukk7NDGNawpkRgXio1Ll7xEA7kzWBWlrAJA9VlvISMFb1-vNREH_S_aJmhsuJdwBYCjtCqTl2yU6wE-XBjhBnbNtGvFedF4jUxPzrVfOVOMqjsMfKzbVd4QhZFgon0ixnhaiU5V2zasVCq8UuIbTbk9iVrnHd4keQwXLX5gIYNKjTucvrhPNTJQs7tC7AUrQwYGuLsptLvc9xC2xyUvaCtS9wecvgQjOzdIzRIGBNDdIteg6uHrsomHkoBoQFPgQ_YX6Rq22uxcC0N6i-17BT0WtICvALQGER11QUt4hlKpTslZ8rDMoS1U4NJyxD-u6AopaatpsaKD5ChQG2_Mir2In5poLBw7f3iaUAreBOEZOtU-2e_NrElLn_g8Q1oW0OEmlZZgpoPf_uJCFy1]--></g></svg>