<?xml version="1.0" encoding="us-ascii" standalone="no"?><svg xmlns="http://www.w3.org/2000/svg" xmlns:xlink="http://www.w3.org/1999/xlink" contentStyleType="text/css" height="430px" preserveAspectRatio="none" style="width:678px;height:430px;background:#FFFFFF;" version="1.1" viewBox="0 0 678 430" width="678px" zoomAndPan="magnify"><defs/><g><text fill="#000000" font-family="sans-serif" font-size="20" font-weight="bold" lengthAdjust="spacing" textLength="121" x="65.75" y="29.3359">SwitchEntry</text><text fill="#000000" font-family="sans-serif" font-size="20" font-weight="bold" lengthAdjust="spacing" textLength="104" x="193.75" y="29.3359">simplified</text><text fill="#000000" font-family="sans-serif" font-size="20" font-weight="bold" lengthAdjust="spacing" textLength="38" x="304.75" y="29.3359">and</text><text fill="#000000" font-family="sans-serif" font-size="20" font-weight="bold" lengthAdjust="spacing" textLength="249" x="349.75" y="29.3359">grouped per namespace</text><!--cluster preadapter--><g id="cluster_preadapter"><a href="preadapter-diagram-simplified-grouped-per-namespace.svg" target="_top" title="preadapter-diagram-simplified-grouped-per-namespace.svg" xlink:actuate="onRequest" xlink:href="preadapter-diagram-simplified-grouped-per-namespace.svg" xlink:show="new" xlink:title="preadapter-diagram-simplified-grouped-per-namespace.svg" xlink:type="simple"><path d="M446,72.5547 L524,72.5547 A3.75,3.75 0 0 1 526.5,75.0547 L533.5,95.043 L669,95.043 A2.5,2.5 0 0 1 671.5,97.543 L671.5,236.0547 A2.5,2.5 0 0 1 669,238.5547 L446,238.5547 A2.5,2.5 0 0 1 443.5,236.0547 L443.5,75.0547 A2.5,2.5 0 0 1 446,72.5547 " fill="none" style="stroke:#000000;stroke-width:1.5;"/><line style="stroke:#000000;stroke-width:1.5;" x1="443.5" x2="533.5" y1="95.043" y2="95.043"/><text fill="#000000" font-family="sans-serif" font-size="14" font-weight="bold" lengthAdjust="spacing" textLength="77" x="447.5" y="88.0898">preadapter</text></a></g><!--cluster domain--><g id="cluster_domain"><a href="preadapter.domain-diagram-simplified-grouped-per-namespace.svg" target="_top" title="preadapter.domain-diagram-simplified-grouped-per-namespace.svg" xlink:actuate="onRequest" xlink:href="preadapter.domain-diagram-simplified-grouped-per-namespace.svg" xlink:show="new" xlink:title="preadapter.domain-diagram-simplified-grouped-per-namespace.svg" xlink:type="simple"><path d="M470,115.5547 L525,115.5547 A3.75,3.75 0 0 1 527.5,118.0547 L534.5,138.043 L645,138.043 A2.5,2.5 0 0 1 647.5,140.543 L647.5,212.0547 A2.5,2.5 0 0 1 645,214.5547 L470,214.5547 A2.5,2.5 0 0 1 467.5,212.0547 L467.5,118.0547 A2.5,2.5 0 0 1 470,115.5547 " fill="none" style="stroke:#000000;stroke-width:1.5;"/><line style="stroke:#000000;stroke-width:1.5;" x1="467.5" x2="534.5" y1="138.043" y2="138.043"/><text fill="#000000" font-family="sans-serif" font-size="14" font-weight="bold" lengthAdjust="spacing" textLength="54" x="471.5" y="131.0898">domain</text></a></g><!--class ASTVisitorDebug--><a href="preadapter.domain.ASTVisitorDebug-diagram-simplified-grouped-per-namespace.svg" target="_top" title="preadapter.domain.ASTVisitorDebug-diagram-simplified-grouped-per-namespace.svg" xlink:actuate="onRequest" xlink:href="preadapter.domain.ASTVisitorDebug-diagram-simplified-grouped-per-namespace.svg" xlink:show="new" xlink:title="preadapter.domain.ASTVisitorDebug-diagram-simplified-grouped-per-namespace.svg" xlink:type="simple"><g id="elem_ASTVisitorDebug"><rect codeLine="8" fill="#F1F1F1" height="48" id="ASTVisitorDebug" rx="2.5" ry="2.5" style="stroke:#181818;stroke-width:0.5;" width="148" x="483.5" y="150.5547"/><ellipse cx="498.5" cy="166.5547" fill="#ADD1B2" rx="11" ry="11" style="stroke:#181818;stroke-width:1.0;"/><path d="M500.9731,172.6978 Q500.3921,172.9966 499.7529,173.146 Q499.1138,173.2954 498.4082,173.2954 Q495.9014,173.2954 494.5815,171.6436 Q493.2617,169.9917 493.2617,166.8706 Q493.2617,163.7412 494.5815,162.0894 Q495.9014,160.4375 498.4082,160.4375 Q499.1138,160.4375 499.7612,160.5869 Q500.4087,160.7363 500.9731,161.0352 L500.9731,163.7578 Q500.3423,163.1768 499.7488,162.907 Q499.1553,162.6372 498.5244,162.6372 Q497.1797,162.6372 496.4949,163.7039 Q495.8101,164.7705 495.8101,166.8706 Q495.8101,168.9624 496.4949,170.0291 Q497.1797,171.0957 498.5244,171.0957 Q499.1553,171.0957 499.7488,170.8259 Q500.3423,170.5562 500.9731,169.9751 Z " fill="#000000"/><text fill="#000000" font-family="sans-serif" font-size="14" lengthAdjust="spacing" textLength="116" x="512.5" y="171.8457">ASTVisitorDebug</text><line style="stroke:#181818;stroke-width:0.5;" x1="484.5" x2="630.5" y1="182.5547" y2="182.5547"/><line style="stroke:#181818;stroke-width:0.5;" x1="484.5" x2="630.5" y1="190.5547" y2="190.5547"/></g></a><g id="elem_FloatingNote"><path d="M6,50.5547 L6,298.2129 L427,298.2129 L427,60.5547 L417,50.5547 L6,50.5547 " fill="#FEFFDD" style="stroke:#181818;stroke-width:0.5;"/><path d="M417,50.5547 L417,60.5547 L427,60.5547 L417,50.5547 " fill="#FEFFDD" style="stroke:#181818;stroke-width:1.0;"/><text fill="#000000" font-family="sans-serif" font-size="13" lengthAdjust="spacing" textLength="120" x="12" y="68.123">Your are analyzing:</text><text fill="#000000" font-family="sans-serif" font-size="13" lengthAdjust="spacing" textLength="73" x="12" y="83.4336">SwitchEntry</text><text fill="#000000" font-family="sans-serif" font-size="13" font-weight="bold" lengthAdjust="spacing" textLength="67" x="89" y="83.4336">simplified</text><text fill="#000000" font-family="sans-serif" font-size="13" lengthAdjust="spacing" textLength="23" x="160" y="83.4336">and</text><text fill="#000000" font-family="sans-serif" font-size="13" font-weight="bold" lengthAdjust="spacing" textLength="166" x="187" y="83.4336">grouped per namespace</text><text fill="#000000" font-family="sans-serif" font-size="13" lengthAdjust="spacing" textLength="4" x="12" y="98.7441">&#160;</text><text fill="#000000" font-family="sans-serif" font-size="13" lengthAdjust="spacing" textLength="229" x="12" y="129.3652">You can click either the namespaces</text><text fill="#000000" font-family="sans-serif" font-size="13" lengthAdjust="spacing" textLength="266" x="12" y="144.6758">or class names for filtering them and their</text><text fill="#000000" font-family="sans-serif" font-size="13" lengthAdjust="spacing" textLength="130" x="12" y="159.9863">direct dependencies.</text><text fill="#000000" font-family="sans-serif" font-size="13" lengthAdjust="spacing" textLength="4" x="12" y="175.2969">&#160;</text><line style="stroke:#181818;stroke-width:1.0;" x1="7" x2="200.5" y1="109.1416" y2="109.1416"/><line style="stroke:#181818;stroke-width:1.0;" x1="7" x2="200.5" y1="111.1416" y2="111.1416"/><text fill="#000000" font-family="sans-serif" font-size="13" lengthAdjust="spacing" textLength="32" x="200.5" y="113.5547">Filter</text><line style="stroke:#181818;stroke-width:1.0;" x1="232.5" x2="426" y1="109.1416" y2="109.1416"/><line style="stroke:#181818;stroke-width:1.0;" x1="232.5" x2="426" y1="111.1416" y2="111.1416"/><ellipse cx="17.5" cy="205.1602" fill="#000000" rx="2.5" ry="2.5" style="stroke:#000000;stroke-width:0.0;"/><text fill="#000000" font-family="sans-serif" font-size="13" lengthAdjust="spacing" textLength="73" x="24" y="209.918">SwitchEntry</text><text fill="#000000" font-family="sans-serif" font-size="13" font-weight="bold" lengthAdjust="spacing" textLength="55" x="101" y="209.918">detailed</text><text fill="#000000" font-family="sans-serif" font-size="13" lengthAdjust="spacing" textLength="23" x="160" y="209.918">and</text><text fill="#000000" font-family="sans-serif" font-size="13" font-weight="bold" lengthAdjust="spacing" textLength="166" x="187" y="209.918">grouped per namespace</text><text fill="#000000" font-family="sans-serif" font-size="13" lengthAdjust="spacing" textLength="4" x="353" y="209.918">:</text><text fill="#000000" font-family="sans-serif" font-size="13" lengthAdjust="spacing" textLength="12" x="12" y="225.2285">&#160;&#160;&#160;</text><a href="SwitchEntry-diagram-detailed-grouped-per-namespace.svg" target="_top" title="SwitchEntry-diagram-detailed-grouped-per-namespace.svg" xlink:actuate="onRequest" xlink:href="SwitchEntry-diagram-detailed-grouped-per-namespace.svg" xlink:show="new" xlink:title="SwitchEntry-diagram-detailed-grouped-per-namespace.svg" xlink:type="simple"><text fill="#0000FF" font-family="sans-serif" font-size="13" lengthAdjust="spacing" text-decoration="underline" textLength="382" x="24" y="225.2285">SwitchEntry-diagram-detailed-grouped-per-namespace.svg</text></a><ellipse cx="17.5" cy="235.7813" fill="#000000" rx="2.5" ry="2.5" style="stroke:#000000;stroke-width:0.0;"/><text fill="#000000" font-family="sans-serif" font-size="13" lengthAdjust="spacing" textLength="78" x="24" y="240.5391">Full diagram</text><text fill="#000000" font-family="sans-serif" font-size="13" font-weight="bold" lengthAdjust="spacing" textLength="67" x="106" y="240.5391">simplified</text><text fill="#000000" font-family="sans-serif" font-size="13" lengthAdjust="spacing" textLength="23" x="177" y="240.5391">and</text><text fill="#000000" font-family="sans-serif" font-size="13" font-weight="bold" lengthAdjust="spacing" textLength="166" x="204" y="240.5391">grouped per namespace</text><text fill="#000000" font-family="sans-serif" font-size="13" lengthAdjust="spacing" textLength="4" x="370" y="240.5391">:</text><text fill="#000000" font-family="sans-serif" font-size="13" lengthAdjust="spacing" textLength="12" x="12" y="255.8496">&#160;&#160;&#160;</text><a href="full-diagram-simplified-grouped-per-namespace.svg" target="_top" title="full-diagram-simplified-grouped-per-namespace.svg" xlink:actuate="onRequest" xlink:href="full-diagram-simplified-grouped-per-namespace.svg" xlink:show="new" xlink:title="full-diagram-simplified-grouped-per-namespace.svg" xlink:type="simple"><text fill="#0000FF" font-family="sans-serif" font-size="13" lengthAdjust="spacing" text-decoration="underline" textLength="343" x="24" y="255.8496">full-diagram-simplified-grouped-per-namespace.svg</text></a><ellipse cx="17.5" cy="266.4023" fill="#000000" rx="2.5" ry="2.5" style="stroke:#000000;stroke-width:0.0;"/><text fill="#000000" font-family="sans-serif" font-size="13" lengthAdjust="spacing" textLength="41" x="24" y="271.1602">Home:</text><text fill="#000000" font-family="sans-serif" font-size="13" lengthAdjust="spacing" textLength="12" x="12" y="286.4707">&#160;&#160;&#160;</text><a href="index.html" target="_top" title="index.html" xlink:actuate="onRequest" xlink:href="index.html" xlink:show="new" xlink:title="index.html" xlink:type="simple"><text fill="#0000FF" font-family="sans-serif" font-size="13" lengthAdjust="spacing" text-decoration="underline" textLength="68" x="24" y="286.4707">index.html</text></a><line style="stroke:#181818;stroke-width:1.0;" x1="7" x2="179.5" y1="189.6943" y2="189.6943"/><line style="stroke:#181818;stroke-width:1.0;" x1="7" x2="179.5" y1="191.6943" y2="191.6943"/><text fill="#000000" font-family="sans-serif" font-size="13" lengthAdjust="spacing" textLength="74" x="179.5" y="194.1074">Select other</text><line style="stroke:#181818;stroke-width:1.0;" x1="253.5" x2="426" y1="189.6943" y2="189.6943"/><line style="stroke:#181818;stroke-width:1.0;" x1="253.5" x2="426" y1="191.6943" y2="191.6943"/></g><!--class SwitchEntry--><a href="SwitchEntry-diagram-simplified-grouped-per-namespace.svg" target="_top" title="SwitchEntry-diagram-simplified-grouped-per-namespace.svg" xlink:actuate="onRequest" xlink:href="SwitchEntry-diagram-simplified-grouped-per-namespace.svg" xlink:show="new" xlink:title="SwitchEntry-diagram-simplified-grouped-per-namespace.svg" xlink:type="simple"><g id="elem_SwitchEntry"><rect codeLine="3" fill="#FFFF00" height="48" id="SwitchEntry" rx="2.5" ry="2.5" style="stroke:#181818;stroke-width:0.5;" width="111" x="502" y="375.5547"/><ellipse cx="517" cy="391.5547" fill="#ADD1B2" rx="11" ry="11" style="stroke:#181818;stroke-width:1.0;"/><path d="M519.4731,397.6978 Q518.8921,397.9966 518.2529,398.146 Q517.6138,398.2954 516.9082,398.2954 Q514.4014,398.2954 513.0815,396.6436 Q511.7617,394.9917 511.7617,391.8706 Q511.7617,388.7412 513.0815,387.0894 Q514.4014,385.4375 516.9082,385.4375 Q517.6138,385.4375 518.2612,385.5869 Q518.9087,385.7363 519.4731,386.0352 L519.4731,388.7578 Q518.8423,388.1768 518.2488,387.907 Q517.6553,387.6372 517.0244,387.6372 Q515.6797,387.6372 514.9949,388.7039 Q514.3101,389.7705 514.3101,391.8706 Q514.3101,393.9624 514.9949,395.0291 Q515.6797,396.0957 517.0244,396.0957 Q517.6553,396.0957 518.2488,395.8259 Q518.8423,395.5562 519.4731,394.9751 Z " fill="#000000"/><text fill="#000000" font-family="sans-serif" font-size="14" lengthAdjust="spacing" textLength="79" x="531" y="396.8457">SwitchEntry</text><line style="stroke:#181818;stroke-width:0.5;" x1="503" x2="612" y1="407.5547" y2="407.5547"/><line style="stroke:#181818;stroke-width:0.5;" x1="503" x2="612" y1="415.5547" y2="415.5547"/></g></a><!--link ASTVisitorDebug to SwitchEntry--><g id="link_ASTVisitorDebug_SwitchEntry"><path codeLine="23" d="M557.5,198.9947 C557.5,239.9847 557.5,324.5647 557.5,369.3147 " fill="none" id="ASTVisitorDebug-to-SwitchEntry" style="stroke:#6060BB;stroke-width:1.0;stroke-dasharray:7.0,7.0;"/><polygon fill="#6060BB" points="557.5,374.0947,561.5,365.0947,557.5,369.0947,553.5,365.0947,557.5,374.0947" style="stroke:#6060BB;stroke-width:1.0;"/><text fill="#000000" font-family="sans-serif" font-size="13" lengthAdjust="spacing" textLength="29" x="558.5" y="342.123">uses</text></g><!--SRC=[jLHDQzj04BthLmp98I2GQdh8mSI69gdfAHUNGh64MMj7qf3LhjXT9N52_tj7jcp5ZS5HmS88xthUU_FcmvwyGhXnz8hZhwFf_9byLdxNtguX31rLjQASK8OX22tvgh2cgL52ZHQqgD3L8iCmlFdICam3RJp2nM_JM10M6IFK-fLqCKxq_r8dEj6JoOoKHpkP99h98HCQCaNP8o3vakFvrMCS9DfO3X3ERMyXvtE-eU1askXg8yfVo2PQaiNCWyGQjKIT4RfuApj7rVvYMf5MF8H36nAz87NQ1Fi7WCNY7JgI90ehgcZ74NNOYB7H7Xkxfo9DM-LPenHqe44Lt8ddJB1NxU6dT7-O2dSKnFLvYKjVgJIz0E5WfepmNDC7RdomhVZx2Xrt_3bjk5oZKkOPte8_mHNSAUFQvWckGctnYKpZbgvPBVUmfIBdU-FmO3J22ZFHE6oxtysZ8mVyoKcJAr76GOzWNY55pMF2cVU7eOc_7QMCfQa4wGFcxcwu07JZ_O4g_ZR_-OiSUMFlSTKKn-J-ZHaglz7ddjoPgkOrbt1kky13L08Rzi0BMQ7cbSnXayCPvwBdxh5R0mS3USmy1y0LR-Id7ZXRR9jaEoKM5M-fqGxmnLkHUUvPRatLvpxcs87X7zeQd1x6U75vFReUtTwcyVJWZmB6mDrmy1S0]--></g></svg>