<?xml version="1.0" encoding="us-ascii" standalone="no"?><svg xmlns="http://www.w3.org/2000/svg" xmlns:xlink="http://www.w3.org/1999/xlink" contentStyleType="text/css" height="413px" preserveAspectRatio="none" style="width:785px;height:413px;background:#FFFFFF;" version="1.1" viewBox="0 0 785 413" width="785px" zoomAndPan="magnify"><defs/><g><text fill="#000000" font-family="sans-serif" font-size="20" font-weight="bold" lengthAdjust="spacing" textLength="195" x="229.25" y="29.3359">VariableDeclarator</text><text fill="#000000" font-family="sans-serif" font-size="20" font-weight="bold" lengthAdjust="spacing" textLength="104" x="431.25" y="29.3359">simplified</text><text fill="#000000" font-family="sans-serif" font-size="20" font-weight="bold" lengthAdjust="spacing" textLength="7" x="535.25" y="29.3359">&#160;</text><!--cluster preadapter--><g id="cluster_preadapter"><path d="M414,72.5547 L492,72.5547 A3.75,3.75 0 0 1 494.5,75.0547 L501.5,95.043 L776,95.043 A2.5,2.5 0 0 1 778.5,97.543 L778.5,236.0547 A2.5,2.5 0 0 1 776,238.5547 L414,238.5547 A2.5,2.5 0 0 1 411.5,236.0547 L411.5,75.0547 A2.5,2.5 0 0 1 414,72.5547 " fill="none" style="stroke:#000000;stroke-width:1.5;"/><line style="stroke:#000000;stroke-width:1.5;" x1="411.5" x2="501.5" y1="95.043" y2="95.043"/><text fill="#000000" font-family="sans-serif" font-size="14" font-weight="bold" lengthAdjust="spacing" textLength="77" x="415.5" y="88.0898">preadapter</text></g><!--cluster domain--><g id="cluster_domain"><path d="M438,115.5547 L493,115.5547 A3.75,3.75 0 0 1 495.5,118.0547 L502.5,138.043 L752,138.043 A2.5,2.5 0 0 1 754.5,140.543 L754.5,212.0547 A2.5,2.5 0 0 1 752,214.5547 L438,214.5547 A2.5,2.5 0 0 1 435.5,212.0547 L435.5,118.0547 A2.5,2.5 0 0 1 438,115.5547 " fill="none" style="stroke:#000000;stroke-width:1.5;"/><line style="stroke:#000000;stroke-width:1.5;" x1="435.5" x2="502.5" y1="138.043" y2="138.043"/><text fill="#000000" font-family="sans-serif" font-size="14" font-weight="bold" lengthAdjust="spacing" textLength="54" x="439.5" y="131.0898">domain</text></g><!--class ASTVisitorDebug--><a href="preadapter.domain.ASTVisitorDebug-diagram-simplified.svg" target="_top" title="preadapter.domain.ASTVisitorDebug-diagram-simplified.svg" xlink:actuate="onRequest" xlink:href="preadapter.domain.ASTVisitorDebug-diagram-simplified.svg" xlink:show="new" xlink:title="preadapter.domain.ASTVisitorDebug-diagram-simplified.svg" xlink:type="simple"><g id="elem_ASTVisitorDebug"><rect codeLine="6" fill="#F1F1F1" height="48" id="ASTVisitorDebug" rx="2.5" ry="2.5" style="stroke:#181818;stroke-width:0.5;" width="148" x="590.5" y="150.5547"/><ellipse cx="605.5" cy="166.5547" fill="#ADD1B2" rx="11" ry="11" style="stroke:#181818;stroke-width:1.0;"/><path d="M607.9731,172.6978 Q607.3921,172.9966 606.7529,173.146 Q606.1138,173.2954 605.4082,173.2954 Q602.9014,173.2954 601.5815,171.6436 Q600.2617,169.9917 600.2617,166.8706 Q600.2617,163.7412 601.5815,162.0894 Q602.9014,160.4375 605.4082,160.4375 Q606.1138,160.4375 606.7612,160.5869 Q607.4087,160.7363 607.9731,161.0352 L607.9731,163.7578 Q607.3423,163.1768 606.7488,162.907 Q606.1553,162.6372 605.5244,162.6372 Q604.1797,162.6372 603.4949,163.7039 Q602.8101,164.7705 602.8101,166.8706 Q602.8101,168.9624 603.4949,170.0291 Q604.1797,171.0957 605.5244,171.0957 Q606.1553,171.0957 606.7488,170.8259 Q607.3423,170.5562 607.9731,169.9751 Z " fill="#000000"/><text fill="#000000" font-family="sans-serif" font-size="14" lengthAdjust="spacing" textLength="116" x="619.5" y="171.8457">ASTVisitorDebug</text><line style="stroke:#181818;stroke-width:0.5;" x1="591.5" x2="737.5" y1="182.5547" y2="182.5547"/><line style="stroke:#181818;stroke-width:0.5;" x1="591.5" x2="737.5" y1="190.5547" y2="190.5547"/></g></a><!--class ASTVisitor--><a href="preadapter.domain.ASTVisitor-diagram-simplified.svg" target="_top" title="preadapter.domain.ASTVisitor-diagram-simplified.svg" xlink:actuate="onRequest" xlink:href="preadapter.domain.ASTVisitor-diagram-simplified.svg" xlink:show="new" xlink:title="preadapter.domain.ASTVisitor-diagram-simplified.svg" xlink:type="simple"><g id="elem_ASTVisitor"><rect codeLine="8" fill="#F1F1F1" height="48" id="ASTVisitor" rx="2.5" ry="2.5" style="stroke:#181818;stroke-width:0.5;" width="103" x="452" y="150.5547"/><ellipse cx="467" cy="166.5547" fill="#ADD1B2" rx="11" ry="11" style="stroke:#181818;stroke-width:1.0;"/><path d="M469.4731,172.6978 Q468.8921,172.9966 468.2529,173.146 Q467.6138,173.2954 466.9082,173.2954 Q464.4014,173.2954 463.0815,171.6436 Q461.7617,169.9917 461.7617,166.8706 Q461.7617,163.7412 463.0815,162.0894 Q464.4014,160.4375 466.9082,160.4375 Q467.6138,160.4375 468.2612,160.5869 Q468.9087,160.7363 469.4731,161.0352 L469.4731,163.7578 Q468.8423,163.1768 468.2488,162.907 Q467.6553,162.6372 467.0244,162.6372 Q465.6797,162.6372 464.9949,163.7039 Q464.3101,164.7705 464.3101,166.8706 Q464.3101,168.9624 464.9949,170.0291 Q465.6797,171.0957 467.0244,171.0957 Q467.6553,171.0957 468.2488,170.8259 Q468.8423,170.5562 469.4731,169.9751 Z " fill="#000000"/><text fill="#000000" font-family="sans-serif" font-size="14" lengthAdjust="spacing" textLength="71" x="481" y="171.8457">ASTVisitor</text><line style="stroke:#181818;stroke-width:0.5;" x1="453" x2="554" y1="182.5547" y2="182.5547"/><line style="stroke:#181818;stroke-width:0.5;" x1="453" x2="554" y1="190.5547" y2="190.5547"/></g></a><g id="elem_FloatingNote"><path d="M6,50.5547 L6,298.2129 L395,298.2129 L395,60.5547 L385,50.5547 L6,50.5547 " fill="#FEFFDD" style="stroke:#181818;stroke-width:0.5;"/><path d="M385,50.5547 L385,60.5547 L395,60.5547 L385,50.5547 " fill="#FEFFDD" style="stroke:#181818;stroke-width:1.0;"/><text fill="#000000" font-family="sans-serif" font-size="13" lengthAdjust="spacing" textLength="120" x="12" y="68.123">Your are analyzing:</text><text fill="#000000" font-family="sans-serif" font-size="13" lengthAdjust="spacing" textLength="115" x="12" y="83.4336">VariableDeclarator</text><text fill="#000000" font-family="sans-serif" font-size="13" font-weight="bold" lengthAdjust="spacing" textLength="67" x="131" y="83.4336">simplified</text><text fill="#000000" font-family="sans-serif" font-size="13" lengthAdjust="spacing" textLength="4" x="198" y="83.4336">&#160;</text><text fill="#000000" font-family="sans-serif" font-size="13" lengthAdjust="spacing" textLength="4" x="12" y="98.7441">&#160;</text><text fill="#000000" font-family="sans-serif" font-size="13" lengthAdjust="spacing" textLength="229" x="12" y="129.3652">You can click either the namespaces</text><text fill="#000000" font-family="sans-serif" font-size="13" lengthAdjust="spacing" textLength="266" x="12" y="144.6758">or class names for filtering them and their</text><text fill="#000000" font-family="sans-serif" font-size="13" lengthAdjust="spacing" textLength="130" x="12" y="159.9863">direct dependencies.</text><text fill="#000000" font-family="sans-serif" font-size="13" lengthAdjust="spacing" textLength="4" x="12" y="175.2969">&#160;</text><line style="stroke:#181818;stroke-width:1.0;" x1="7" x2="184.5" y1="109.1416" y2="109.1416"/><line style="stroke:#181818;stroke-width:1.0;" x1="7" x2="184.5" y1="111.1416" y2="111.1416"/><text fill="#000000" font-family="sans-serif" font-size="13" lengthAdjust="spacing" textLength="32" x="184.5" y="113.5547">Filter</text><line style="stroke:#181818;stroke-width:1.0;" x1="216.5" x2="394" y1="109.1416" y2="109.1416"/><line style="stroke:#181818;stroke-width:1.0;" x1="216.5" x2="394" y1="111.1416" y2="111.1416"/><ellipse cx="17.5" cy="205.1602" fill="#000000" rx="2.5" ry="2.5" style="stroke:#000000;stroke-width:0.0;"/><text fill="#000000" font-family="sans-serif" font-size="13" lengthAdjust="spacing" textLength="115" x="24" y="209.918">VariableDeclarator</text><text fill="#000000" font-family="sans-serif" font-size="13" font-weight="bold" lengthAdjust="spacing" textLength="55" x="143" y="209.918">detailed</text><text fill="#000000" font-family="sans-serif" font-size="13" lengthAdjust="spacing" textLength="4" x="202" y="209.918">:</text><text fill="#000000" font-family="sans-serif" font-size="13" lengthAdjust="spacing" textLength="12" x="12" y="225.2285">&#160;&#160;&#160;</text><a href="VariableDeclarator-diagram-detailed.svg" target="_top" title="VariableDeclarator-diagram-detailed.svg" xlink:actuate="onRequest" xlink:href="VariableDeclarator-diagram-detailed.svg" xlink:show="new" xlink:title="VariableDeclarator-diagram-detailed.svg" xlink:type="simple"><text fill="#0000FF" font-family="sans-serif" font-size="13" lengthAdjust="spacing" text-decoration="underline" textLength="258" x="24" y="225.2285">VariableDeclarator-diagram-detailed.svg</text></a><ellipse cx="17.5" cy="235.7813" fill="#000000" rx="2.5" ry="2.5" style="stroke:#000000;stroke-width:0.0;"/><text fill="#000000" font-family="sans-serif" font-size="13" lengthAdjust="spacing" textLength="78" x="24" y="240.5391">Full diagram</text><text fill="#000000" font-family="sans-serif" font-size="13" font-weight="bold" lengthAdjust="spacing" textLength="67" x="106" y="240.5391">simplified</text><text fill="#000000" font-family="sans-serif" font-size="13" lengthAdjust="spacing" textLength="23" x="177" y="240.5391">and</text><text fill="#000000" font-family="sans-serif" font-size="13" font-weight="bold" lengthAdjust="spacing" textLength="166" x="204" y="240.5391">grouped per namespace</text><text fill="#000000" font-family="sans-serif" font-size="13" lengthAdjust="spacing" textLength="4" x="370" y="240.5391">:</text><text fill="#000000" font-family="sans-serif" font-size="13" lengthAdjust="spacing" textLength="12" x="12" y="255.8496">&#160;&#160;&#160;</text><a href="full-diagram-simplified-grouped-per-namespace.svg" target="_top" title="full-diagram-simplified-grouped-per-namespace.svg" xlink:actuate="onRequest" xlink:href="full-diagram-simplified-grouped-per-namespace.svg" xlink:show="new" xlink:title="full-diagram-simplified-grouped-per-namespace.svg" xlink:type="simple"><text fill="#0000FF" font-family="sans-serif" font-size="13" lengthAdjust="spacing" text-decoration="underline" textLength="343" x="24" y="255.8496">full-diagram-simplified-grouped-per-namespace.svg</text></a><ellipse cx="17.5" cy="266.4023" fill="#000000" rx="2.5" ry="2.5" style="stroke:#000000;stroke-width:0.0;"/><text fill="#000000" font-family="sans-serif" font-size="13" lengthAdjust="spacing" textLength="41" x="24" y="271.1602">Home:</text><text fill="#000000" font-family="sans-serif" font-size="13" lengthAdjust="spacing" textLength="12" x="12" y="286.4707">&#160;&#160;&#160;</text><a href="index.html" target="_top" title="index.html" xlink:actuate="onRequest" xlink:href="index.html" xlink:show="new" xlink:title="index.html" xlink:type="simple"><text fill="#0000FF" font-family="sans-serif" font-size="13" lengthAdjust="spacing" text-decoration="underline" textLength="68" x="24" y="286.4707">index.html</text></a><line style="stroke:#181818;stroke-width:1.0;" x1="7" x2="163.5" y1="189.6943" y2="189.6943"/><line style="stroke:#181818;stroke-width:1.0;" x1="7" x2="163.5" y1="191.6943" y2="191.6943"/><text fill="#000000" font-family="sans-serif" font-size="13" lengthAdjust="spacing" textLength="74" x="163.5" y="194.1074">Select other</text><line style="stroke:#181818;stroke-width:1.0;" x1="237.5" x2="394" y1="189.6943" y2="189.6943"/><line style="stroke:#181818;stroke-width:1.0;" x1="237.5" x2="394" y1="191.6943" y2="191.6943"/></g><!--class VariableDeclarator--><a href="VariableDeclarator-diagram-simplified.svg" target="_top" title="VariableDeclarator-diagram-simplified.svg" xlink:actuate="onRequest" xlink:href="VariableDeclarator-diagram-simplified.svg" xlink:show="new" xlink:title="VariableDeclarator-diagram-simplified.svg" xlink:type="simple"><g id="elem_VariableDeclarator"><rect codeLine="4" fill="#FFFF00" height="48" id="VariableDeclarator" rx="2.5" ry="2.5" style="stroke:#181818;stroke-width:0.5;" width="159" x="424" y="358.5547"/><ellipse cx="439" cy="374.5547" fill="#ADD1B2" rx="11" ry="11" style="stroke:#181818;stroke-width:1.0;"/><path d="M441.4731,380.6978 Q440.8921,380.9966 440.2529,381.146 Q439.6138,381.2954 438.9082,381.2954 Q436.4014,381.2954 435.0815,379.6436 Q433.7617,377.9917 433.7617,374.8706 Q433.7617,371.7412 435.0815,370.0894 Q436.4014,368.4375 438.9082,368.4375 Q439.6138,368.4375 440.2612,368.5869 Q440.9087,368.7363 441.4731,369.0352 L441.4731,371.7578 Q440.8423,371.1768 440.2488,370.907 Q439.6553,370.6372 439.0244,370.6372 Q437.6797,370.6372 436.9949,371.7039 Q436.3101,372.7705 436.3101,374.8706 Q436.3101,376.9624 436.9949,378.0291 Q437.6797,379.0957 439.0244,379.0957 Q439.6553,379.0957 440.2488,378.8259 Q440.8423,378.5562 441.4731,377.9751 Z " fill="#000000"/><text fill="#000000" font-family="sans-serif" font-size="14" lengthAdjust="spacing" textLength="127" x="453" y="379.8457">VariableDeclarator</text><line style="stroke:#181818;stroke-width:0.5;" x1="425" x2="582" y1="390.5547" y2="390.5547"/><line style="stroke:#181818;stroke-width:0.5;" x1="425" x2="582" y1="398.5547" y2="398.5547"/></g></a><!--link ASTVisitorDebug to VariableDeclarator--><g id="link_ASTVisitorDebug_VariableDeclarator"><path codeLine="17" d="M590.19,174.5547 C577.87,174.5547 569,174.5547 569,174.5547 C569,174.5547 569,352.2847 569,352.2847 " fill="none" id="ASTVisitorDebug-to-VariableDeclarator" style="stroke:#6060BB;stroke-width:1.0;stroke-dasharray:7.0,7.0;"/><polygon fill="#6060BB" points="569,357.2847,573,348.2847,569,352.2847,565,348.2847,569,357.2847" style="stroke:#6060BB;stroke-width:1.0;"/><text fill="#000000" font-family="sans-serif" font-size="13" lengthAdjust="spacing" textLength="29" x="539" y="249.393">uses</text></g><!--link ASTVisitor to VariableDeclarator--><g id="link_ASTVisitor_VariableDeclarator"><path codeLine="18" d="M486.33,198.8247 C486.33,198.8247 486.33,352.1247 486.33,352.1247 " fill="none" id="ASTVisitor-to-VariableDeclarator" style="stroke:#909090;stroke-width:1.0;"/><polygon fill="#909090" points="486.33,357.1247,490.33,348.1247,486.33,352.1247,482.33,348.1247,486.33,357.1247" style="stroke:#909090;stroke-width:1.0;"/><text fill="#000000" font-family="sans-serif" font-size="13" lengthAdjust="spacing" textLength="29" x="456.33" y="272.043">uses</text></g><!--link ASTVisitor to VariableDeclarator--><g id="link_ASTVisitor_VariableDeclarator"><path codeLine="19" d="M520.67,198.8247 C520.67,198.8247 520.67,352.1247 520.67,352.1247 " fill="none" id="ASTVisitor-to-VariableDeclarator-1" style="stroke:#6060BB;stroke-width:1.0;stroke-dasharray:7.0,7.0;"/><polygon fill="#6060BB" points="520.67,357.1247,524.67,348.1247,520.67,352.1247,516.67,348.1247,520.67,357.1247" style="stroke:#6060BB;stroke-width:1.0;"/><text fill="#000000" font-family="sans-serif" font-size="13" lengthAdjust="spacing" textLength="29" x="490.67" y="272.043">uses</text></g><!--SRC=[jLDDQzmm4BtxLmpPGq1WT-aXa2Mxq3GiFUMI4YXh7nHhx1qYIqAIqsnA_tj7-md9DjvGQeEnhJVlpPidXKSoJdhPWIQ3SUKGh8zBcqMA6k4gq0jEFezdzzAJVD1uWxLcUBGUX0ZKEKqDeH82hZubx2mpDYAS_R2z1-aHf95wzKAcdPHccAGqfPbEvwGZ-kcqD4m3jJHGQweV0IakqGC_mCWEWvCr1gvX7YOCOVCN6lvkrXGicz0TTw7I2_dIAF9OHr3eq2WqDM4eDh9tgDEAJI99NC3HXXL6INhTBdi2WCNYBIvN95iUQxv35-6fhQf4Ek-rXktoQ_-fJo5QRtk72XoRtHiLOgVMCC6U_r2URyjoBiltPGVTRxR37GMnzUTY6JjTLMSW0yorbP77TSlfPPjX7Z7_hjD39njD6ArGQ_iJVcM_CzWcv3nA9HrdKoZRIJB5bxllznI8cMxmeMzPOn3pTqdM0ZXDRK1eMEESaphfWl-6FOUlQvyUDQTdJG1yZbxMaJTFusrts3qJnduG_cOwsN1unM9qCRuONrzNnUpO1e89z86FwBjKa2z6b-DqL_a_i9pQony0]--></g></svg>