<?xml version="1.0" encoding="us-ascii" standalone="no"?><svg xmlns="http://www.w3.org/2000/svg" xmlns:xlink="http://www.w3.org/1999/xlink" contentStyleType="text/css" height="413px" preserveAspectRatio="none" style="width:633px;height:413px;background:#FFFFFF;" version="1.1" viewBox="0 0 633 413" width="633px" zoomAndPan="magnify"><defs/><g><text fill="#000000" font-family="sans-serif" font-size="20" font-weight="bold" lengthAdjust="spacing" textLength="86" x="60.5" y="29.3359">Variable</text><text fill="#000000" font-family="sans-serif" font-size="20" font-weight="bold" lengthAdjust="spacing" textLength="104" x="153.5" y="29.3359">simplified</text><text fill="#000000" font-family="sans-serif" font-size="20" font-weight="bold" lengthAdjust="spacing" textLength="38" x="264.5" y="29.3359">and</text><text fill="#000000" font-family="sans-serif" font-size="20" font-weight="bold" lengthAdjust="spacing" textLength="249" x="309.5" y="29.3359">grouped per namespace</text><!--cluster preadapter--><g id="cluster_preadapter"><a href="preadapter-diagram-simplified-grouped-per-namespace.svg" target="_top" title="preadapter-diagram-simplified-grouped-per-namespace.svg" xlink:actuate="onRequest" xlink:href="preadapter-diagram-simplified-grouped-per-namespace.svg" xlink:show="new" xlink:title="preadapter-diagram-simplified-grouped-per-namespace.svg" xlink:type="simple"><path d="M422.5,72.5547 L500.5,72.5547 A3.75,3.75 0 0 1 503,75.0547 L510,95.043 L623.5,95.043 A2.5,2.5 0 0 1 626,97.543 L626,236.0547 A2.5,2.5 0 0 1 623.5,238.5547 L422.5,238.5547 A2.5,2.5 0 0 1 420,236.0547 L420,75.0547 A2.5,2.5 0 0 1 422.5,72.5547 " fill="none" style="stroke:#000000;stroke-width:1.5;"/><line style="stroke:#000000;stroke-width:1.5;" x1="420" x2="510" y1="95.043" y2="95.043"/><text fill="#000000" font-family="sans-serif" font-size="14" font-weight="bold" lengthAdjust="spacing" textLength="77" x="424" y="88.0898">preadapter</text></a></g><!--cluster domain--><g id="cluster_domain"><a href="preadapter.domain-diagram-simplified-grouped-per-namespace.svg" target="_top" title="preadapter.domain-diagram-simplified-grouped-per-namespace.svg" xlink:actuate="onRequest" xlink:href="preadapter.domain-diagram-simplified-grouped-per-namespace.svg" xlink:show="new" xlink:title="preadapter.domain-diagram-simplified-grouped-per-namespace.svg" xlink:type="simple"><path d="M446.5,115.5547 L501.5,115.5547 A3.75,3.75 0 0 1 504,118.0547 L511,138.043 L599.5,138.043 A2.5,2.5 0 0 1 602,140.543 L602,212.0547 A2.5,2.5 0 0 1 599.5,214.5547 L446.5,214.5547 A2.5,2.5 0 0 1 444,212.0547 L444,118.0547 A2.5,2.5 0 0 1 446.5,115.5547 " fill="none" style="stroke:#000000;stroke-width:1.5;"/><line style="stroke:#000000;stroke-width:1.5;" x1="444" x2="511" y1="138.043" y2="138.043"/><text fill="#000000" font-family="sans-serif" font-size="14" font-weight="bold" lengthAdjust="spacing" textLength="54" x="448" y="131.0898">domain</text></a></g><!--class Datastructure--><a href="preadapter.domain.Datastructure-diagram-simplified-grouped-per-namespace.svg" target="_top" title="preadapter.domain.Datastructure-diagram-simplified-grouped-per-namespace.svg" xlink:actuate="onRequest" xlink:href="preadapter.domain.Datastructure-diagram-simplified-grouped-per-namespace.svg" xlink:show="new" xlink:title="preadapter.domain.Datastructure-diagram-simplified-grouped-per-namespace.svg" xlink:type="simple"><g id="elem_Datastructure"><rect codeLine="9" fill="#F1F1F1" height="48" id="Datastructure" rx="2.5" ry="2.5" style="stroke:#181818;stroke-width:0.5;" width="125" x="460.5" y="150.5547"/><ellipse cx="475.5" cy="166.5547" fill="#ADD1B2" rx="11" ry="11" style="stroke:#181818;stroke-width:1.0;"/><path d="M477.9731,172.6978 Q477.3921,172.9966 476.7529,173.146 Q476.1138,173.2954 475.4082,173.2954 Q472.9014,173.2954 471.5815,171.6436 Q470.2617,169.9917 470.2617,166.8706 Q470.2617,163.7412 471.5815,162.0894 Q472.9014,160.4375 475.4082,160.4375 Q476.1138,160.4375 476.7612,160.5869 Q477.4087,160.7363 477.9731,161.0352 L477.9731,163.7578 Q477.3423,163.1768 476.7488,162.907 Q476.1553,162.6372 475.5244,162.6372 Q474.1797,162.6372 473.4949,163.7039 Q472.8101,164.7705 472.8101,166.8706 Q472.8101,168.9624 473.4949,170.0291 Q474.1797,171.0957 475.5244,171.0957 Q476.1553,171.0957 476.7488,170.8259 Q477.3423,170.5562 477.9731,169.9751 Z " fill="#000000"/><text fill="#000000" font-family="sans-serif" font-size="14" lengthAdjust="spacing" textLength="93" x="489.5" y="171.8457">Datastructure</text><line style="stroke:#181818;stroke-width:0.5;" x1="461.5" x2="584.5" y1="182.5547" y2="182.5547"/><line style="stroke:#181818;stroke-width:0.5;" x1="461.5" x2="584.5" y1="190.5547" y2="190.5547"/></g></a><g id="elem_FloatingNote"><path d="M6,50.5547 L6,298.2129 L404,298.2129 L404,60.5547 L394,50.5547 L6,50.5547 " fill="#FEFFDD" style="stroke:#181818;stroke-width:0.5;"/><path d="M394,50.5547 L394,60.5547 L404,60.5547 L394,50.5547 " fill="#FEFFDD" style="stroke:#181818;stroke-width:1.0;"/><text fill="#000000" font-family="sans-serif" font-size="13" lengthAdjust="spacing" textLength="120" x="12" y="68.123">Your are analyzing:</text><text fill="#000000" font-family="sans-serif" font-size="13" lengthAdjust="spacing" textLength="50" x="12" y="83.4336">Variable</text><text fill="#000000" font-family="sans-serif" font-size="13" font-weight="bold" lengthAdjust="spacing" textLength="67" x="66" y="83.4336">simplified</text><text fill="#000000" font-family="sans-serif" font-size="13" lengthAdjust="spacing" textLength="23" x="137" y="83.4336">and</text><text fill="#000000" font-family="sans-serif" font-size="13" font-weight="bold" lengthAdjust="spacing" textLength="166" x="164" y="83.4336">grouped per namespace</text><text fill="#000000" font-family="sans-serif" font-size="13" lengthAdjust="spacing" textLength="4" x="12" y="98.7441">&#160;</text><text fill="#000000" font-family="sans-serif" font-size="13" lengthAdjust="spacing" textLength="229" x="12" y="129.3652">You can click either the namespaces</text><text fill="#000000" font-family="sans-serif" font-size="13" lengthAdjust="spacing" textLength="266" x="12" y="144.6758">or class names for filtering them and their</text><text fill="#000000" font-family="sans-serif" font-size="13" lengthAdjust="spacing" textLength="130" x="12" y="159.9863">direct dependencies.</text><text fill="#000000" font-family="sans-serif" font-size="13" lengthAdjust="spacing" textLength="4" x="12" y="175.2969">&#160;</text><line style="stroke:#181818;stroke-width:1.0;" x1="7" x2="189" y1="109.1416" y2="109.1416"/><line style="stroke:#181818;stroke-width:1.0;" x1="7" x2="189" y1="111.1416" y2="111.1416"/><text fill="#000000" font-family="sans-serif" font-size="13" lengthAdjust="spacing" textLength="32" x="189" y="113.5547">Filter</text><line style="stroke:#181818;stroke-width:1.0;" x1="221" x2="403" y1="109.1416" y2="109.1416"/><line style="stroke:#181818;stroke-width:1.0;" x1="221" x2="403" y1="111.1416" y2="111.1416"/><ellipse cx="17.5" cy="205.1602" fill="#000000" rx="2.5" ry="2.5" style="stroke:#000000;stroke-width:0.0;"/><text fill="#000000" font-family="sans-serif" font-size="13" lengthAdjust="spacing" textLength="50" x="24" y="209.918">Variable</text><text fill="#000000" font-family="sans-serif" font-size="13" font-weight="bold" lengthAdjust="spacing" textLength="55" x="78" y="209.918">detailed</text><text fill="#000000" font-family="sans-serif" font-size="13" lengthAdjust="spacing" textLength="23" x="137" y="209.918">and</text><text fill="#000000" font-family="sans-serif" font-size="13" font-weight="bold" lengthAdjust="spacing" textLength="166" x="164" y="209.918">grouped per namespace</text><text fill="#000000" font-family="sans-serif" font-size="13" lengthAdjust="spacing" textLength="4" x="330" y="209.918">:</text><text fill="#000000" font-family="sans-serif" font-size="13" lengthAdjust="spacing" textLength="12" x="12" y="225.2285">&#160;&#160;&#160;</text><a href="Variable-diagram-detailed-grouped-per-namespace.svg" target="_top" title="Variable-diagram-detailed-grouped-per-namespace.svg" xlink:actuate="onRequest" xlink:href="Variable-diagram-detailed-grouped-per-namespace.svg" xlink:show="new" xlink:title="Variable-diagram-detailed-grouped-per-namespace.svg" xlink:type="simple"><text fill="#0000FF" font-family="sans-serif" font-size="13" lengthAdjust="spacing" text-decoration="underline" textLength="359" x="24" y="225.2285">Variable-diagram-detailed-grouped-per-namespace.svg</text></a><ellipse cx="17.5" cy="235.7813" fill="#000000" rx="2.5" ry="2.5" style="stroke:#000000;stroke-width:0.0;"/><text fill="#000000" font-family="sans-serif" font-size="13" lengthAdjust="spacing" textLength="78" x="24" y="240.5391">Full diagram</text><text fill="#000000" font-family="sans-serif" font-size="13" font-weight="bold" lengthAdjust="spacing" textLength="67" x="106" y="240.5391">simplified</text><text fill="#000000" font-family="sans-serif" font-size="13" lengthAdjust="spacing" textLength="23" x="177" y="240.5391">and</text><text fill="#000000" font-family="sans-serif" font-size="13" font-weight="bold" lengthAdjust="spacing" textLength="166" x="204" y="240.5391">grouped per namespace</text><text fill="#000000" font-family="sans-serif" font-size="13" lengthAdjust="spacing" textLength="4" x="370" y="240.5391">:</text><text fill="#000000" font-family="sans-serif" font-size="13" lengthAdjust="spacing" textLength="12" x="12" y="255.8496">&#160;&#160;&#160;</text><a href="full-diagram-simplified-grouped-per-namespace.svg" target="_top" title="full-diagram-simplified-grouped-per-namespace.svg" xlink:actuate="onRequest" xlink:href="full-diagram-simplified-grouped-per-namespace.svg" xlink:show="new" xlink:title="full-diagram-simplified-grouped-per-namespace.svg" xlink:type="simple"><text fill="#0000FF" font-family="sans-serif" font-size="13" lengthAdjust="spacing" text-decoration="underline" textLength="343" x="24" y="255.8496">full-diagram-simplified-grouped-per-namespace.svg</text></a><ellipse cx="17.5" cy="266.4023" fill="#000000" rx="2.5" ry="2.5" style="stroke:#000000;stroke-width:0.0;"/><text fill="#000000" font-family="sans-serif" font-size="13" lengthAdjust="spacing" textLength="41" x="24" y="271.1602">Home:</text><text fill="#000000" font-family="sans-serif" font-size="13" lengthAdjust="spacing" textLength="12" x="12" y="286.4707">&#160;&#160;&#160;</text><a href="index.html" target="_top" title="index.html" xlink:actuate="onRequest" xlink:href="index.html" xlink:show="new" xlink:title="index.html" xlink:type="simple"><text fill="#0000FF" font-family="sans-serif" font-size="13" lengthAdjust="spacing" text-decoration="underline" textLength="68" x="24" y="286.4707">index.html</text></a><line style="stroke:#181818;stroke-width:1.0;" x1="7" x2="168" y1="189.6943" y2="189.6943"/><line style="stroke:#181818;stroke-width:1.0;" x1="7" x2="168" y1="191.6943" y2="191.6943"/><text fill="#000000" font-family="sans-serif" font-size="13" lengthAdjust="spacing" textLength="74" x="168" y="194.1074">Select other</text><line style="stroke:#181818;stroke-width:1.0;" x1="242" x2="403" y1="189.6943" y2="189.6943"/><line style="stroke:#181818;stroke-width:1.0;" x1="242" x2="403" y1="191.6943" y2="191.6943"/></g><!--class Variable--><a href="Variable-diagram-simplified-grouped-per-namespace.svg" target="_top" title="Variable-diagram-simplified-grouped-per-namespace.svg" xlink:actuate="onRequest" xlink:href="Variable-diagram-simplified-grouped-per-namespace.svg" xlink:show="new" xlink:title="Variable-diagram-simplified-grouped-per-namespace.svg" xlink:type="simple"><g id="elem_Variable"><rect codeLine="4" fill="#FFFF00" height="48" id="Variable" rx="2.5" ry="2.5" style="stroke:#181818;stroke-width:0.5;" width="88" x="479" y="358.5547"/><ellipse cx="494" cy="374.5547" fill="#ADD1B2" rx="11" ry="11" style="stroke:#181818;stroke-width:1.0;"/><path d="M496.4731,380.6978 Q495.8921,380.9966 495.2529,381.146 Q494.6138,381.2954 493.9082,381.2954 Q491.4014,381.2954 490.0815,379.6436 Q488.7617,377.9917 488.7617,374.8706 Q488.7617,371.7412 490.0815,370.0894 Q491.4014,368.4375 493.9082,368.4375 Q494.6138,368.4375 495.2612,368.5869 Q495.9087,368.7363 496.4731,369.0352 L496.4731,371.7578 Q495.8423,371.1768 495.2488,370.907 Q494.6553,370.6372 494.0244,370.6372 Q492.6797,370.6372 491.9949,371.7039 Q491.3101,372.7705 491.3101,374.8706 Q491.3101,376.9624 491.9949,378.0291 Q492.6797,379.0957 494.0244,379.0957 Q494.6553,379.0957 495.2488,378.8259 Q495.8423,378.5562 496.4731,377.9751 Z " fill="#000000"/><text fill="#000000" font-family="sans-serif" font-size="14" lengthAdjust="spacing" textLength="56" x="508" y="379.8457">Variable</text><line style="stroke:#181818;stroke-width:0.5;" x1="480" x2="566" y1="390.5547" y2="390.5547"/><line style="stroke:#181818;stroke-width:0.5;" x1="480" x2="566" y1="398.5547" y2="398.5547"/></g></a><!--link Datastructure to Variable--><g id="link_Datastructure_Variable"><path codeLine="24" d="M523,198.8247 C523,198.8247 523,352.1247 523,352.1247 " fill="none" id="Datastructure-to-Variable" style="stroke:#909090;stroke-width:1.0;"/><polygon fill="#909090" points="523,357.1247,527,348.1247,523,352.1247,519,348.1247,523,357.1247" style="stroke:#909090;stroke-width:1.0;"/><text fill="#000000" font-family="sans-serif" font-size="13" lengthAdjust="spacing" textLength="29" x="493" y="272.043">uses</text></g><!--SRC=[jLHDQzj04BthLmp98I2G6dghYNr9CJdb4YWKovYnTcGFMUsAtLKI9_I_TzQMhPeO71Li6IEjvxqtRpxadzaqwB06pOR2fY6mBgnj4ZXeWZlFxpJwVZlvXOvnAITfwhbkD5TCAaq1ZPAZbRDjGmeQSc2m9jzWIMbwzot29ucnWU3gjsqTe2F1eDwyircD2lDVl8Kfp7WyPHt8ZSU54MOeqK2fkNm6uh2MUFdfCHuAOvq4eFUxKwZakTfII2OnkjwAoWsxmYXsL0PGr91HP4ecd-zadqZ7VsmKYU8f_ED1KK3Mvns8Sm2OpVRGJ36kf0lPdY3hW9a0imCmzo-h-JngJbkjeGCDgjrUkHA2WseFFwVxO6lQKx1KvYrVXrhFvrU07gRQOf1gFag_arsj3xKvuVLhgd2z8QtjAtmaVv8RkDVMnuQX-6ySlR1j_SAtoyK1jj3iGsyP7gqXM5A9hQVOyMu0FNkGRyM6_PfKdlG8uKM5ZOo6fDq_34tyuoHbhcoDR8wOkxFX0j2Dz2Ug_2S6zC6rPMWTdH8xZXWglTMMVjpRMbuVCcQNjWglijOWPWF80jPaP0KhsEPmmPdekNlipi3HC9uoBm5m8tlufGzSB3Oc6IV4aPRTjCO3lGM7PP2ULSxMVUuZYHqO_gcjoRb1p6RNFsxZDSyc_Si1HY2DyF0N]--></g></svg>