<?xml version="1.0" encoding="us-ascii" standalone="no"?><svg xmlns="http://www.w3.org/2000/svg" xmlns:xlink="http://www.w3.org/1999/xlink" contentStyleType="text/css" height="430px" preserveAspectRatio="none" style="width:859px;height:430px;background:#FFFFFF;" version="1.1" viewBox="0 0 859 430" width="859px" zoomAndPan="magnify"><defs/><g><text fill="#000000" font-family="sans-serif" font-size="20" font-weight="bold" lengthAdjust="spacing" textLength="195" x="119.25" y="29.3359">VariableDeclarator</text><text fill="#000000" font-family="sans-serif" font-size="20" font-weight="bold" lengthAdjust="spacing" textLength="104" x="321.25" y="29.3359">simplified</text><text fill="#000000" font-family="sans-serif" font-size="20" font-weight="bold" lengthAdjust="spacing" textLength="38" x="432.25" y="29.3359">and</text><text fill="#000000" font-family="sans-serif" font-size="20" font-weight="bold" lengthAdjust="spacing" textLength="249" x="477.25" y="29.3359">grouped per namespace</text><!--cluster preadapter--><g id="cluster_preadapter"><a href="preadapter-diagram-simplified-grouped-per-namespace.svg" target="_top" title="preadapter-diagram-simplified-grouped-per-namespace.svg" xlink:actuate="onRequest" xlink:href="preadapter-diagram-simplified-grouped-per-namespace.svg" xlink:show="new" xlink:title="preadapter-diagram-simplified-grouped-per-namespace.svg" xlink:type="simple"><path d="M488,72.5547 L566,72.5547 A3.75,3.75 0 0 1 568.5,75.0547 L575.5,95.043 L850,95.043 A2.5,2.5 0 0 1 852.5,97.543 L852.5,236.0547 A2.5,2.5 0 0 1 850,238.5547 L488,238.5547 A2.5,2.5 0 0 1 485.5,236.0547 L485.5,75.0547 A2.5,2.5 0 0 1 488,72.5547 " fill="none" style="stroke:#000000;stroke-width:1.5;"/><line style="stroke:#000000;stroke-width:1.5;" x1="485.5" x2="575.5" y1="95.043" y2="95.043"/><text fill="#000000" font-family="sans-serif" font-size="14" font-weight="bold" lengthAdjust="spacing" textLength="77" x="489.5" y="88.0898">preadapter</text></a></g><!--cluster domain--><g id="cluster_domain"><a href="preadapter.domain-diagram-simplified-grouped-per-namespace.svg" target="_top" title="preadapter.domain-diagram-simplified-grouped-per-namespace.svg" xlink:actuate="onRequest" xlink:href="preadapter.domain-diagram-simplified-grouped-per-namespace.svg" xlink:show="new" xlink:title="preadapter.domain-diagram-simplified-grouped-per-namespace.svg" xlink:type="simple"><path d="M512,115.5547 L567,115.5547 A3.75,3.75 0 0 1 569.5,118.0547 L576.5,138.043 L826,138.043 A2.5,2.5 0 0 1 828.5,140.543 L828.5,212.0547 A2.5,2.5 0 0 1 826,214.5547 L512,214.5547 A2.5,2.5 0 0 1 509.5,212.0547 L509.5,118.0547 A2.5,2.5 0 0 1 512,115.5547 " fill="none" style="stroke:#000000;stroke-width:1.5;"/><line style="stroke:#000000;stroke-width:1.5;" x1="509.5" x2="576.5" y1="138.043" y2="138.043"/><text fill="#000000" font-family="sans-serif" font-size="14" font-weight="bold" lengthAdjust="spacing" textLength="54" x="513.5" y="131.0898">domain</text></a></g><!--class ASTVisitor--><a href="preadapter.domain.ASTVisitor-diagram-simplified-grouped-per-namespace.svg" target="_top" title="preadapter.domain.ASTVisitor-diagram-simplified-grouped-per-namespace.svg" xlink:actuate="onRequest" xlink:href="preadapter.domain.ASTVisitor-diagram-simplified-grouped-per-namespace.svg" xlink:show="new" xlink:title="preadapter.domain.ASTVisitor-diagram-simplified-grouped-per-namespace.svg" xlink:type="simple"><g id="elem_ASTVisitor"><rect codeLine="8" fill="#F1F1F1" height="48" id="ASTVisitor" rx="2.5" ry="2.5" style="stroke:#181818;stroke-width:0.5;" width="103" x="526" y="150.5547"/><ellipse cx="541" cy="166.5547" fill="#ADD1B2" rx="11" ry="11" style="stroke:#181818;stroke-width:1.0;"/><path d="M543.4731,172.6978 Q542.8921,172.9966 542.2529,173.146 Q541.6138,173.2954 540.9082,173.2954 Q538.4014,173.2954 537.0815,171.6436 Q535.7617,169.9917 535.7617,166.8706 Q535.7617,163.7412 537.0815,162.0894 Q538.4014,160.4375 540.9082,160.4375 Q541.6138,160.4375 542.2612,160.5869 Q542.9087,160.7363 543.4731,161.0352 L543.4731,163.7578 Q542.8423,163.1768 542.2488,162.907 Q541.6553,162.6372 541.0244,162.6372 Q539.6797,162.6372 538.9949,163.7039 Q538.3101,164.7705 538.3101,166.8706 Q538.3101,168.9624 538.9949,170.0291 Q539.6797,171.0957 541.0244,171.0957 Q541.6553,171.0957 542.2488,170.8259 Q542.8423,170.5562 543.4731,169.9751 Z " fill="#000000"/><text fill="#000000" font-family="sans-serif" font-size="14" lengthAdjust="spacing" textLength="71" x="555" y="171.8457">ASTVisitor</text><line style="stroke:#181818;stroke-width:0.5;" x1="527" x2="628" y1="182.5547" y2="182.5547"/><line style="stroke:#181818;stroke-width:0.5;" x1="527" x2="628" y1="190.5547" y2="190.5547"/></g></a><!--class ASTVisitorDebug--><a href="preadapter.domain.ASTVisitorDebug-diagram-simplified-grouped-per-namespace.svg" target="_top" title="preadapter.domain.ASTVisitorDebug-diagram-simplified-grouped-per-namespace.svg" xlink:actuate="onRequest" xlink:href="preadapter.domain.ASTVisitorDebug-diagram-simplified-grouped-per-namespace.svg" xlink:show="new" xlink:title="preadapter.domain.ASTVisitorDebug-diagram-simplified-grouped-per-namespace.svg" xlink:type="simple"><g id="elem_ASTVisitorDebug"><rect codeLine="10" fill="#F1F1F1" height="48" id="ASTVisitorDebug" rx="2.5" ry="2.5" style="stroke:#181818;stroke-width:0.5;" width="148" x="664.5" y="150.5547"/><ellipse cx="679.5" cy="166.5547" fill="#ADD1B2" rx="11" ry="11" style="stroke:#181818;stroke-width:1.0;"/><path d="M681.9731,172.6978 Q681.3921,172.9966 680.7529,173.146 Q680.1138,173.2954 679.4082,173.2954 Q676.9014,173.2954 675.5815,171.6436 Q674.2617,169.9917 674.2617,166.8706 Q674.2617,163.7412 675.5815,162.0894 Q676.9014,160.4375 679.4082,160.4375 Q680.1138,160.4375 680.7612,160.5869 Q681.4087,160.7363 681.9731,161.0352 L681.9731,163.7578 Q681.3423,163.1768 680.7488,162.907 Q680.1553,162.6372 679.5244,162.6372 Q678.1797,162.6372 677.4949,163.7039 Q676.8101,164.7705 676.8101,166.8706 Q676.8101,168.9624 677.4949,170.0291 Q678.1797,171.0957 679.5244,171.0957 Q680.1553,171.0957 680.7488,170.8259 Q681.3423,170.5562 681.9731,169.9751 Z " fill="#000000"/><text fill="#000000" font-family="sans-serif" font-size="14" lengthAdjust="spacing" textLength="116" x="693.5" y="171.8457">ASTVisitorDebug</text><line style="stroke:#181818;stroke-width:0.5;" x1="665.5" x2="811.5" y1="182.5547" y2="182.5547"/><line style="stroke:#181818;stroke-width:0.5;" x1="665.5" x2="811.5" y1="190.5547" y2="190.5547"/></g></a><g id="elem_FloatingNote"><path d="M6,50.5547 L6,298.2129 L469,298.2129 L469,60.5547 L459,50.5547 L6,50.5547 " fill="#FEFFDD" style="stroke:#181818;stroke-width:0.5;"/><path d="M459,50.5547 L459,60.5547 L469,60.5547 L459,50.5547 " fill="#FEFFDD" style="stroke:#181818;stroke-width:1.0;"/><text fill="#000000" font-family="sans-serif" font-size="13" lengthAdjust="spacing" textLength="120" x="12" y="68.123">Your are analyzing:</text><text fill="#000000" font-family="sans-serif" font-size="13" lengthAdjust="spacing" textLength="115" x="12" y="83.4336">VariableDeclarator</text><text fill="#000000" font-family="sans-serif" font-size="13" font-weight="bold" lengthAdjust="spacing" textLength="67" x="131" y="83.4336">simplified</text><text fill="#000000" font-family="sans-serif" font-size="13" lengthAdjust="spacing" textLength="23" x="202" y="83.4336">and</text><text fill="#000000" font-family="sans-serif" font-size="13" font-weight="bold" lengthAdjust="spacing" textLength="166" x="229" y="83.4336">grouped per namespace</text><text fill="#000000" font-family="sans-serif" font-size="13" lengthAdjust="spacing" textLength="4" x="12" y="98.7441">&#160;</text><text fill="#000000" font-family="sans-serif" font-size="13" lengthAdjust="spacing" textLength="229" x="12" y="129.3652">You can click either the namespaces</text><text fill="#000000" font-family="sans-serif" font-size="13" lengthAdjust="spacing" textLength="266" x="12" y="144.6758">or class names for filtering them and their</text><text fill="#000000" font-family="sans-serif" font-size="13" lengthAdjust="spacing" textLength="130" x="12" y="159.9863">direct dependencies.</text><text fill="#000000" font-family="sans-serif" font-size="13" lengthAdjust="spacing" textLength="4" x="12" y="175.2969">&#160;</text><line style="stroke:#181818;stroke-width:1.0;" x1="7" x2="221.5" y1="109.1416" y2="109.1416"/><line style="stroke:#181818;stroke-width:1.0;" x1="7" x2="221.5" y1="111.1416" y2="111.1416"/><text fill="#000000" font-family="sans-serif" font-size="13" lengthAdjust="spacing" textLength="32" x="221.5" y="113.5547">Filter</text><line style="stroke:#181818;stroke-width:1.0;" x1="253.5" x2="468" y1="109.1416" y2="109.1416"/><line style="stroke:#181818;stroke-width:1.0;" x1="253.5" x2="468" y1="111.1416" y2="111.1416"/><ellipse cx="17.5" cy="205.1602" fill="#000000" rx="2.5" ry="2.5" style="stroke:#000000;stroke-width:0.0;"/><text fill="#000000" font-family="sans-serif" font-size="13" lengthAdjust="spacing" textLength="115" x="24" y="209.918">VariableDeclarator</text><text fill="#000000" font-family="sans-serif" font-size="13" font-weight="bold" lengthAdjust="spacing" textLength="55" x="143" y="209.918">detailed</text><text fill="#000000" font-family="sans-serif" font-size="13" lengthAdjust="spacing" textLength="23" x="202" y="209.918">and</text><text fill="#000000" font-family="sans-serif" font-size="13" font-weight="bold" lengthAdjust="spacing" textLength="166" x="229" y="209.918">grouped per namespace</text><text fill="#000000" font-family="sans-serif" font-size="13" lengthAdjust="spacing" textLength="4" x="395" y="209.918">:</text><text fill="#000000" font-family="sans-serif" font-size="13" lengthAdjust="spacing" textLength="12" x="12" y="225.2285">&#160;&#160;&#160;</text><a href="VariableDeclarator-diagram-detailed-grouped-per-namespace.svg" target="_top" title="VariableDeclarator-diagram-detailed-grouped-per-namespace.svg" xlink:actuate="onRequest" xlink:href="VariableDeclarator-diagram-detailed-grouped-per-namespace.svg" xlink:show="new" xlink:title="VariableDeclarator-diagram-detailed-grouped-per-namespace.svg" xlink:type="simple"><text fill="#0000FF" font-family="sans-serif" font-size="13" lengthAdjust="spacing" text-decoration="underline" textLength="424" x="24" y="225.2285">VariableDeclarator-diagram-detailed-grouped-per-namespace.svg</text></a><ellipse cx="17.5" cy="235.7813" fill="#000000" rx="2.5" ry="2.5" style="stroke:#000000;stroke-width:0.0;"/><text fill="#000000" font-family="sans-serif" font-size="13" lengthAdjust="spacing" textLength="78" x="24" y="240.5391">Full diagram</text><text fill="#000000" font-family="sans-serif" font-size="13" font-weight="bold" lengthAdjust="spacing" textLength="67" x="106" y="240.5391">simplified</text><text fill="#000000" font-family="sans-serif" font-size="13" lengthAdjust="spacing" textLength="23" x="177" y="240.5391">and</text><text fill="#000000" font-family="sans-serif" font-size="13" font-weight="bold" lengthAdjust="spacing" textLength="166" x="204" y="240.5391">grouped per namespace</text><text fill="#000000" font-family="sans-serif" font-size="13" lengthAdjust="spacing" textLength="4" x="370" y="240.5391">:</text><text fill="#000000" font-family="sans-serif" font-size="13" lengthAdjust="spacing" textLength="12" x="12" y="255.8496">&#160;&#160;&#160;</text><a href="full-diagram-simplified-grouped-per-namespace.svg" target="_top" title="full-diagram-simplified-grouped-per-namespace.svg" xlink:actuate="onRequest" xlink:href="full-diagram-simplified-grouped-per-namespace.svg" xlink:show="new" xlink:title="full-diagram-simplified-grouped-per-namespace.svg" xlink:type="simple"><text fill="#0000FF" font-family="sans-serif" font-size="13" lengthAdjust="spacing" text-decoration="underline" textLength="343" x="24" y="255.8496">full-diagram-simplified-grouped-per-namespace.svg</text></a><ellipse cx="17.5" cy="266.4023" fill="#000000" rx="2.5" ry="2.5" style="stroke:#000000;stroke-width:0.0;"/><text fill="#000000" font-family="sans-serif" font-size="13" lengthAdjust="spacing" textLength="41" x="24" y="271.1602">Home:</text><text fill="#000000" font-family="sans-serif" font-size="13" lengthAdjust="spacing" textLength="12" x="12" y="286.4707">&#160;&#160;&#160;</text><a href="index.html" target="_top" title="index.html" xlink:actuate="onRequest" xlink:href="index.html" xlink:show="new" xlink:title="index.html" xlink:type="simple"><text fill="#0000FF" font-family="sans-serif" font-size="13" lengthAdjust="spacing" text-decoration="underline" textLength="68" x="24" y="286.4707">index.html</text></a><line style="stroke:#181818;stroke-width:1.0;" x1="7" x2="200.5" y1="189.6943" y2="189.6943"/><line style="stroke:#181818;stroke-width:1.0;" x1="7" x2="200.5" y1="191.6943" y2="191.6943"/><text fill="#000000" font-family="sans-serif" font-size="13" lengthAdjust="spacing" textLength="74" x="200.5" y="194.1074">Select other</text><line style="stroke:#181818;stroke-width:1.0;" x1="274.5" x2="468" y1="189.6943" y2="189.6943"/><line style="stroke:#181818;stroke-width:1.0;" x1="274.5" x2="468" y1="191.6943" y2="191.6943"/></g><!--class VariableDeclarator--><a href="VariableDeclarator-diagram-simplified-grouped-per-namespace.svg" target="_top" title="VariableDeclarator-diagram-simplified-grouped-per-namespace.svg" xlink:actuate="onRequest" xlink:href="VariableDeclarator-diagram-simplified-grouped-per-namespace.svg" xlink:show="new" xlink:title="VariableDeclarator-diagram-simplified-grouped-per-namespace.svg" xlink:type="simple"><g id="elem_VariableDeclarator"><rect codeLine="3" fill="#FFFF00" height="48" id="VariableDeclarator" rx="2.5" ry="2.5" style="stroke:#181818;stroke-width:0.5;" width="159" x="569" y="375.5547"/><ellipse cx="584" cy="391.5547" fill="#ADD1B2" rx="11" ry="11" style="stroke:#181818;stroke-width:1.0;"/><path d="M586.4731,397.6978 Q585.8921,397.9966 585.2529,398.146 Q584.6138,398.2954 583.9082,398.2954 Q581.4014,398.2954 580.0815,396.6436 Q578.7617,394.9917 578.7617,391.8706 Q578.7617,388.7412 580.0815,387.0894 Q581.4014,385.4375 583.9082,385.4375 Q584.6138,385.4375 585.2612,385.5869 Q585.9087,385.7363 586.4731,386.0352 L586.4731,388.7578 Q585.8423,388.1768 585.2488,387.907 Q584.6553,387.6372 584.0244,387.6372 Q582.6797,387.6372 581.9949,388.7039 Q581.3101,389.7705 581.3101,391.8706 Q581.3101,393.9624 581.9949,395.0291 Q582.6797,396.0957 584.0244,396.0957 Q584.6553,396.0957 585.2488,395.8259 Q585.8423,395.5562 586.4731,394.9751 Z " fill="#000000"/><text fill="#000000" font-family="sans-serif" font-size="14" lengthAdjust="spacing" textLength="127" x="598" y="396.8457">VariableDeclarator</text><line style="stroke:#181818;stroke-width:0.5;" x1="570" x2="727" y1="407.5547" y2="407.5547"/><line style="stroke:#181818;stroke-width:0.5;" x1="570" x2="727" y1="415.5547" y2="415.5547"/></g></a><!--link ASTVisitor to VariableDeclarator--><g id="link_ASTVisitor_VariableDeclarator"><path codeLine="25" d="M570.52,198.8247 C561.63,233.0847 550.15,298.1647 574.5,345.5547 C579.78,355.8247 588.07,364.5447 597.22,371.7647 " fill="none" id="ASTVisitor-to-VariableDeclarator" style="stroke:#909090;stroke-width:1.0;"/><polygon fill="#909090" points="600.77,375.1947,595.9848,366.5865,596.7752,372.1878,591.1738,372.9782,600.77,375.1947" style="stroke:#909090;stroke-width:1.0;"/><text fill="#000000" font-family="sans-serif" font-size="13" lengthAdjust="spacing" textLength="29" x="575.5" y="342.123">uses</text></g><!--link ASTVisitor to VariableDeclarator--><g id="link_ASTVisitor_VariableDeclarator"><path codeLine="26" d="M584.96,198.9947 C598.04,240.0747 625.05,324.9047 639.28,369.5847 " fill="none" id="ASTVisitor-to-VariableDeclarator-1" style="stroke:#6060BB;stroke-width:1.0;stroke-dasharray:7.0,7.0;"/><polygon fill="#6060BB" points="641.03,374.0947,642.1201,364.3063,639.5175,369.3289,634.4949,366.7263,641.03,374.0947" style="stroke:#6060BB;stroke-width:1.0;"/><text fill="#000000" font-family="sans-serif" font-size="13" lengthAdjust="spacing" textLength="29" x="631.5" y="342.123">uses</text></g><!--link ASTVisitorDebug to VariableDeclarator--><g id="link_ASTVisitorDebug_VariableDeclarator"><path codeLine="27" d="M729.04,198.9947 C712.46,240.0747 678.22,324.9047 660.19,369.5847 " fill="none" id="ASTVisitorDebug-to-VariableDeclarator" style="stroke:#6060BB;stroke-width:1.0;stroke-dasharray:7.0,7.0;"/><polygon fill="#6060BB" points="657.97,374.0947,665.0519,367.2503,659.8442,369.4592,657.6352,364.2515,657.97,374.0947" style="stroke:#6060BB;stroke-width:1.0;"/><text fill="#000000" font-family="sans-serif" font-size="13" lengthAdjust="spacing" textLength="29" x="675.5" y="342.123">uses</text></g><!--SRC=[jLHDQ-Cm4BtxLmpD8M2mD-oXiA49R5l2ddhfKbXY4nHhd0mhIqQI-qd_-uxY9AOavADBRMDiQUQzcJUZyUGLmfMZLnn-7umVX2KnLtYBXH9MU6CXZXrLjQAIKCOn22rvQM5DKwE46YreKQ6hHO5nVFKj08qZRJp2nH_JM10MsKUebrVIYs6c_vCXqvaUZIQaFDhHADFC0ONGK2Wg_WAINx8zlpeV1vbc4cPphbs5al_B5GJ75Aoh5Ib_aCsq98k51uarQecw87HfItkFAkoOG1B8OzYRZKGlI1tFXTK0WEbq5oIH91PMLCa6Abb390oHR25IzxZ8yn37f54AravdwRc9eMI0BMldVeptbwbm0q6irdEwz9NAymiG3YRA2CyAtt4tHAt-U_GwcFzfaK3l1PKoJ_0MlKTzk576XS8ArgIs-4YcSJFNp6TRjvaYvpiPuCveX3aMed4OEcFTieuSy5EI9hT4cKQT1-CAAMfk8KwW-patyBUzaAaqbI3z0NczTZu1h5j_1ohzUV_xWHorHJYqVIxfYlNz9EPRd3UB8_Ghcq_6qBynLSqpIC9N2mrFF7o04_R0Ow92pOEYX5KCNzYH7NRdsoRmuIZiIvuDeC-JuQGBlims11cwnABYQM6q0tpsLXIUQrPQKtMn3zdsJFETiaO7Zq4oxVqOX3jFnljc5Go1w-7WC4ewxLqEBWVNrtdwUPJsO9mAzGy0]--></g></svg>