<?xml version="1.0" encoding="us-ascii" standalone="no"?><svg xmlns="http://www.w3.org/2000/svg" xmlns:xlink="http://www.w3.org/1999/xlink" contentStyleType="text/css" height="487px" preserveAspectRatio="none" style="width:976px;height:487px;background:#FFFFFF;" version="1.1" viewBox="0 0 976 487" width="976px" zoomAndPan="magnify"><defs/><g><text fill="#000000" font-family="sans-serif" font-size="20" font-weight="bold" lengthAdjust="spacing" textLength="419" x="65.5" y="29.3359">VoidVisitorAdapter_BRQTO_Void_BRQTC</text><text fill="#000000" font-family="sans-serif" font-size="20" font-weight="bold" lengthAdjust="spacing" textLength="104" x="491.5" y="29.3359">simplified</text><text fill="#000000" font-family="sans-serif" font-size="20" font-weight="bold" lengthAdjust="spacing" textLength="38" x="602.5" y="29.3359">and</text><text fill="#000000" font-family="sans-serif" font-size="20" font-weight="bold" lengthAdjust="spacing" textLength="249" x="647.5" y="29.3359">grouped per namespace</text><!--cluster preadapter--><g id="cluster_preadapter"><a href="preadapter-diagram-simplified-grouped-per-namespace.svg" target="_top" title="preadapter-diagram-simplified-grouped-per-namespace.svg" xlink:actuate="onRequest" xlink:href="preadapter-diagram-simplified-grouped-per-namespace.svg" xlink:show="new" xlink:title="preadapter-diagram-simplified-grouped-per-namespace.svg" xlink:type="simple"><path d="M604.5,314.5547 L682.5,314.5547 A3.75,3.75 0 0 1 685,317.0547 L692,337.043 L966.5,337.043 A2.5,2.5 0 0 1 969,339.543 L969,478.0547 A2.5,2.5 0 0 1 966.5,480.5547 L604.5,480.5547 A2.5,2.5 0 0 1 602,478.0547 L602,317.0547 A2.5,2.5 0 0 1 604.5,314.5547 " fill="none" style="stroke:#000000;stroke-width:1.5;"/><line style="stroke:#000000;stroke-width:1.5;" x1="602" x2="692" y1="337.043" y2="337.043"/><text fill="#000000" font-family="sans-serif" font-size="14" font-weight="bold" lengthAdjust="spacing" textLength="77" x="606" y="330.0898">preadapter</text></a></g><!--cluster domain--><g id="cluster_domain"><a href="preadapter.domain-diagram-simplified-grouped-per-namespace.svg" target="_top" title="preadapter.domain-diagram-simplified-grouped-per-namespace.svg" xlink:actuate="onRequest" xlink:href="preadapter.domain-diagram-simplified-grouped-per-namespace.svg" xlink:show="new" xlink:title="preadapter.domain-diagram-simplified-grouped-per-namespace.svg" xlink:type="simple"><path d="M628.5,357.5547 L683.5,357.5547 A3.75,3.75 0 0 1 686,360.0547 L693,380.043 L942.5,380.043 A2.5,2.5 0 0 1 945,382.543 L945,454.0547 A2.5,2.5 0 0 1 942.5,456.5547 L628.5,456.5547 A2.5,2.5 0 0 1 626,454.0547 L626,360.0547 A2.5,2.5 0 0 1 628.5,357.5547 " fill="none" style="stroke:#000000;stroke-width:1.5;"/><line style="stroke:#000000;stroke-width:1.5;" x1="626" x2="693" y1="380.043" y2="380.043"/><text fill="#000000" font-family="sans-serif" font-size="14" font-weight="bold" lengthAdjust="spacing" textLength="54" x="630" y="373.0898">domain</text></a></g><!--class ASTVisitor--><a href="preadapter.domain.ASTVisitor-diagram-simplified-grouped-per-namespace.svg" target="_top" title="preadapter.domain.ASTVisitor-diagram-simplified-grouped-per-namespace.svg" xlink:actuate="onRequest" xlink:href="preadapter.domain.ASTVisitor-diagram-simplified-grouped-per-namespace.svg" xlink:show="new" xlink:title="preadapter.domain.ASTVisitor-diagram-simplified-grouped-per-namespace.svg" xlink:type="simple"><g id="elem_ASTVisitor"><rect codeLine="8" fill="#F1F1F1" height="48" id="ASTVisitor" rx="2.5" ry="2.5" style="stroke:#181818;stroke-width:0.5;" width="103" x="825.5" y="392.5547"/><ellipse cx="840.5" cy="408.5547" fill="#ADD1B2" rx="11" ry="11" style="stroke:#181818;stroke-width:1.0;"/><path d="M842.9731,414.6978 Q842.3921,414.9966 841.7529,415.146 Q841.1138,415.2954 840.4082,415.2954 Q837.9014,415.2954 836.5815,413.6436 Q835.2617,411.9917 835.2617,408.8706 Q835.2617,405.7412 836.5815,404.0894 Q837.9014,402.4375 840.4082,402.4375 Q841.1138,402.4375 841.7612,402.5869 Q842.4087,402.7363 842.9731,403.0352 L842.9731,405.7578 Q842.3423,405.1768 841.7488,404.907 Q841.1553,404.6372 840.5244,404.6372 Q839.1797,404.6372 838.4949,405.7039 Q837.8101,406.7705 837.8101,408.8706 Q837.8101,410.9624 838.4949,412.0291 Q839.1797,413.0957 840.5244,413.0957 Q841.1553,413.0957 841.7488,412.8259 Q842.3423,412.5562 842.9731,411.9751 Z " fill="#000000"/><text fill="#000000" font-family="sans-serif" font-size="14" lengthAdjust="spacing" textLength="71" x="854.5" y="413.8457">ASTVisitor</text><line style="stroke:#181818;stroke-width:0.5;" x1="826.5" x2="927.5" y1="424.5547" y2="424.5547"/><line style="stroke:#181818;stroke-width:0.5;" x1="826.5" x2="927.5" y1="432.5547" y2="432.5547"/></g></a><!--class ASTVisitorDebug--><a href="preadapter.domain.ASTVisitorDebug-diagram-simplified-grouped-per-namespace.svg" target="_top" title="preadapter.domain.ASTVisitorDebug-diagram-simplified-grouped-per-namespace.svg" xlink:actuate="onRequest" xlink:href="preadapter.domain.ASTVisitorDebug-diagram-simplified-grouped-per-namespace.svg" xlink:show="new" xlink:title="preadapter.domain.ASTVisitorDebug-diagram-simplified-grouped-per-namespace.svg" xlink:type="simple"><g id="elem_ASTVisitorDebug"><rect codeLine="10" fill="#F1F1F1" height="48" id="ASTVisitorDebug" rx="2.5" ry="2.5" style="stroke:#181818;stroke-width:0.5;" width="148" x="642" y="392.5547"/><ellipse cx="657" cy="408.5547" fill="#ADD1B2" rx="11" ry="11" style="stroke:#181818;stroke-width:1.0;"/><path d="M659.4731,414.6978 Q658.8921,414.9966 658.2529,415.146 Q657.6138,415.2954 656.9082,415.2954 Q654.4014,415.2954 653.0815,413.6436 Q651.7617,411.9917 651.7617,408.8706 Q651.7617,405.7412 653.0815,404.0894 Q654.4014,402.4375 656.9082,402.4375 Q657.6138,402.4375 658.2612,402.5869 Q658.9087,402.7363 659.4731,403.0352 L659.4731,405.7578 Q658.8423,405.1768 658.2488,404.907 Q657.6553,404.6372 657.0244,404.6372 Q655.6797,404.6372 654.9949,405.7039 Q654.3101,406.7705 654.3101,408.8706 Q654.3101,410.9624 654.9949,412.0291 Q655.6797,413.0957 657.0244,413.0957 Q657.6553,413.0957 658.2488,412.8259 Q658.8423,412.5562 659.4731,411.9751 Z " fill="#000000"/><text fill="#000000" font-family="sans-serif" font-size="14" lengthAdjust="spacing" textLength="116" x="671" y="413.8457">ASTVisitorDebug</text><line style="stroke:#181818;stroke-width:0.5;" x1="643" x2="789" y1="424.5547" y2="424.5547"/><line style="stroke:#181818;stroke-width:0.5;" x1="643" x2="789" y1="432.5547" y2="432.5547"/></g></a><g id="elem_FloatingNote"><path d="M6,50.5547 L6,298.2129 L606,298.2129 L606,60.5547 L596,50.5547 L6,50.5547 " fill="#FEFFDD" style="stroke:#181818;stroke-width:0.5;"/><path d="M596,50.5547 L596,60.5547 L606,60.5547 L596,50.5547 " fill="#FEFFDD" style="stroke:#181818;stroke-width:1.0;"/><text fill="#000000" font-family="sans-serif" font-size="13" lengthAdjust="spacing" textLength="120" x="12" y="68.123">Your are analyzing:</text><text fill="#000000" font-family="sans-serif" font-size="13" lengthAdjust="spacing" textLength="252" x="12" y="83.4336">VoidVisitorAdapter_BRQTO_Void_BRQTC</text><text fill="#000000" font-family="sans-serif" font-size="13" font-weight="bold" lengthAdjust="spacing" textLength="67" x="268" y="83.4336">simplified</text><text fill="#000000" font-family="sans-serif" font-size="13" lengthAdjust="spacing" textLength="23" x="339" y="83.4336">and</text><text fill="#000000" font-family="sans-serif" font-size="13" font-weight="bold" lengthAdjust="spacing" textLength="166" x="366" y="83.4336">grouped per namespace</text><text fill="#000000" font-family="sans-serif" font-size="13" lengthAdjust="spacing" textLength="4" x="12" y="98.7441">&#160;</text><text fill="#000000" font-family="sans-serif" font-size="13" lengthAdjust="spacing" textLength="229" x="12" y="129.3652">You can click either the namespaces</text><text fill="#000000" font-family="sans-serif" font-size="13" lengthAdjust="spacing" textLength="266" x="12" y="144.6758">or class names for filtering them and their</text><text fill="#000000" font-family="sans-serif" font-size="13" lengthAdjust="spacing" textLength="130" x="12" y="159.9863">direct dependencies.</text><text fill="#000000" font-family="sans-serif" font-size="13" lengthAdjust="spacing" textLength="4" x="12" y="175.2969">&#160;</text><line style="stroke:#181818;stroke-width:1.0;" x1="7" x2="290" y1="109.1416" y2="109.1416"/><line style="stroke:#181818;stroke-width:1.0;" x1="7" x2="290" y1="111.1416" y2="111.1416"/><text fill="#000000" font-family="sans-serif" font-size="13" lengthAdjust="spacing" textLength="32" x="290" y="113.5547">Filter</text><line style="stroke:#181818;stroke-width:1.0;" x1="322" x2="605" y1="109.1416" y2="109.1416"/><line style="stroke:#181818;stroke-width:1.0;" x1="322" x2="605" y1="111.1416" y2="111.1416"/><ellipse cx="17.5" cy="205.1602" fill="#000000" rx="2.5" ry="2.5" style="stroke:#000000;stroke-width:0.0;"/><text fill="#000000" font-family="sans-serif" font-size="13" lengthAdjust="spacing" textLength="252" x="24" y="209.918">VoidVisitorAdapter_BRQTO_Void_BRQTC</text><text fill="#000000" font-family="sans-serif" font-size="13" font-weight="bold" lengthAdjust="spacing" textLength="55" x="280" y="209.918">detailed</text><text fill="#000000" font-family="sans-serif" font-size="13" lengthAdjust="spacing" textLength="23" x="339" y="209.918">and</text><text fill="#000000" font-family="sans-serif" font-size="13" font-weight="bold" lengthAdjust="spacing" textLength="166" x="366" y="209.918">grouped per namespace</text><text fill="#000000" font-family="sans-serif" font-size="13" lengthAdjust="spacing" textLength="4" x="532" y="209.918">:</text><text fill="#000000" font-family="sans-serif" font-size="13" lengthAdjust="spacing" textLength="12" x="12" y="225.2285">&#160;&#160;&#160;</text><a href="VoidVisitorAdapter_BRQTO_Void_BRQTC-diagram-detailed-grouped-per-namespace.svg" target="_top" title="VoidVisitorAdapter_BRQTO_Void_BRQTC-diagram-detailed-grouped-per-namespace.svg" xlink:actuate="onRequest" xlink:href="VoidVisitorAdapter_BRQTO_Void_BRQTC-diagram-detailed-grouped-per-namespace.svg" xlink:show="new" xlink:title="VoidVisitorAdapter_BRQTO_Void_BRQTC-diagram-detailed-grouped-per-namespace.svg" xlink:type="simple"><text fill="#0000FF" font-family="sans-serif" font-size="13" lengthAdjust="spacing" text-decoration="underline" textLength="561" x="24" y="225.2285">VoidVisitorAdapter_BRQTO_Void_BRQTC-diagram-detailed-grouped-per-namespace.svg</text></a><ellipse cx="17.5" cy="235.7813" fill="#000000" rx="2.5" ry="2.5" style="stroke:#000000;stroke-width:0.0;"/><text fill="#000000" font-family="sans-serif" font-size="13" lengthAdjust="spacing" textLength="78" x="24" y="240.5391">Full diagram</text><text fill="#000000" font-family="sans-serif" font-size="13" font-weight="bold" lengthAdjust="spacing" textLength="67" x="106" y="240.5391">simplified</text><text fill="#000000" font-family="sans-serif" font-size="13" lengthAdjust="spacing" textLength="23" x="177" y="240.5391">and</text><text fill="#000000" font-family="sans-serif" font-size="13" font-weight="bold" lengthAdjust="spacing" textLength="166" x="204" y="240.5391">grouped per namespace</text><text fill="#000000" font-family="sans-serif" font-size="13" lengthAdjust="spacing" textLength="4" x="370" y="240.5391">:</text><text fill="#000000" font-family="sans-serif" font-size="13" lengthAdjust="spacing" textLength="12" x="12" y="255.8496">&#160;&#160;&#160;</text><a href="full-diagram-simplified-grouped-per-namespace.svg" target="_top" title="full-diagram-simplified-grouped-per-namespace.svg" xlink:actuate="onRequest" xlink:href="full-diagram-simplified-grouped-per-namespace.svg" xlink:show="new" xlink:title="full-diagram-simplified-grouped-per-namespace.svg" xlink:type="simple"><text fill="#0000FF" font-family="sans-serif" font-size="13" lengthAdjust="spacing" text-decoration="underline" textLength="343" x="24" y="255.8496">full-diagram-simplified-grouped-per-namespace.svg</text></a><ellipse cx="17.5" cy="266.4023" fill="#000000" rx="2.5" ry="2.5" style="stroke:#000000;stroke-width:0.0;"/><text fill="#000000" font-family="sans-serif" font-size="13" lengthAdjust="spacing" textLength="41" x="24" y="271.1602">Home:</text><text fill="#000000" font-family="sans-serif" font-size="13" lengthAdjust="spacing" textLength="12" x="12" y="286.4707">&#160;&#160;&#160;</text><a href="index.html" target="_top" title="index.html" xlink:actuate="onRequest" xlink:href="index.html" xlink:show="new" xlink:title="index.html" xlink:type="simple"><text fill="#0000FF" font-family="sans-serif" font-size="13" lengthAdjust="spacing" text-decoration="underline" textLength="68" x="24" y="286.4707">index.html</text></a><line style="stroke:#181818;stroke-width:1.0;" x1="7" x2="269" y1="189.6943" y2="189.6943"/><line style="stroke:#181818;stroke-width:1.0;" x1="7" x2="269" y1="191.6943" y2="191.6943"/><text fill="#000000" font-family="sans-serif" font-size="13" lengthAdjust="spacing" textLength="74" x="269" y="194.1074">Select other</text><line style="stroke:#181818;stroke-width:1.0;" x1="343" x2="605" y1="189.6943" y2="189.6943"/><line style="stroke:#181818;stroke-width:1.0;" x1="343" x2="605" y1="191.6943" y2="191.6943"/></g><!--class VoidVisitorAdapter_BRQTO_Void_BRQTC--><a href="VoidVisitorAdapter_BRQTO_Void_BRQTC-diagram-simplified-grouped-per-namespace.svg" target="_top" title="VoidVisitorAdapter_BRQTO_Void_BRQTC-diagram-simplified-grouped-per-namespace.svg" xlink:actuate="onRequest" xlink:href="VoidVisitorAdapter_BRQTO_Void_BRQTC-diagram-simplified-grouped-per-namespace.svg" xlink:show="new" xlink:title="VoidVisitorAdapter_BRQTO_Void_BRQTC-diagram-simplified-grouped-per-namespace.svg" xlink:type="simple"><g id="elem_VoidVisitorAdapter_BRQTO_Void_BRQTC"><rect codeLine="3" fill="#FFFF00" height="48" id="VoidVisitorAdapter_BRQTO_Void_BRQTC" rx="2.5" ry="2.5" style="stroke:#181818;stroke-width:0.5;" width="309" x="641.5" y="150.5547"/><ellipse cx="656.5" cy="166.5547" fill="#ADD1B2" rx="11" ry="11" style="stroke:#181818;stroke-width:1.0;"/><path d="M658.9731,172.6978 Q658.3921,172.9966 657.7529,173.146 Q657.1138,173.2954 656.4082,173.2954 Q653.9014,173.2954 652.5815,171.6436 Q651.2617,169.9917 651.2617,166.8706 Q651.2617,163.7412 652.5815,162.0894 Q653.9014,160.4375 656.4082,160.4375 Q657.1138,160.4375 657.7612,160.5869 Q658.4087,160.7363 658.9731,161.0352 L658.9731,163.7578 Q658.3423,163.1768 657.7488,162.907 Q657.1553,162.6372 656.5244,162.6372 Q655.1797,162.6372 654.4949,163.7039 Q653.8101,164.7705 653.8101,166.8706 Q653.8101,168.9624 654.4949,170.0291 Q655.1797,171.0957 656.5244,171.0957 Q657.1553,171.0957 657.7488,170.8259 Q658.3423,170.5562 658.9731,169.9751 Z " fill="#000000"/><text fill="#000000" font-family="sans-serif" font-size="14" lengthAdjust="spacing" textLength="277" x="670.5" y="171.8457">VoidVisitorAdapter_BRQTO_Void_BRQTC</text><line style="stroke:#181818;stroke-width:0.5;" x1="642.5" x2="949.5" y1="182.5547" y2="182.5547"/><line style="stroke:#181818;stroke-width:0.5;" x1="642.5" x2="949.5" y1="190.5547" y2="190.5547"/></g></a><!--reverse link VoidVisitorAdapter_BRQTO_Void_BRQTC to ASTVisitor--><g id="link_VoidVisitorAdapter_BRQTO_Void_BRQTC_ASTVisitor"><path codeLine="25" d="M810.54,218.6447 C827.71,269.5247 855.65,352.2947 869.17,392.3647 " fill="none" id="VoidVisitorAdapter_BRQTO_Void_BRQTC-backto-ASTVisitor" style="stroke:#FF0000;stroke-width:1.0;"/><polygon fill="none" points="803.68,221.1947,803.91,200.0047,816.94,216.7147,803.68,221.1947" style="stroke:#FF0000;stroke-width:1.0;"/></g><!--reverse link VoidVisitorAdapter_BRQTO_Void_BRQTC to ASTVisitorDebug--><g id="link_VoidVisitorAdapter_BRQTO_Void_BRQTC_ASTVisitorDebug"><path codeLine="26" d="M781.64,218.6447 C764.68,269.5247 737.09,352.2947 723.73,392.3647 " fill="none" id="VoidVisitorAdapter_BRQTO_Void_BRQTC-backto-ASTVisitorDebug" style="stroke:#FF0000;stroke-width:1.0;"/><polygon fill="none" points="775.22,216.7647,788.18,200.0047,788.5,221.1947,775.22,216.7647" style="stroke:#FF0000;stroke-width:1.0;"/></g><!--SRC=[jLHjQzim4FxkNt6q7m86UsCVGrBeCi8-TMmjXH6Re5Zdv9Wi6Kdkw_hVTtQSUALXiKTZZ96bk-TvxaNdoIk4YQCd77_wU75hIDwI8s_ifHIbHxly_EFxpRTbVT0iPn26ZefIKKuemn24bhorjgOgKKA95hGeq9KYmp2SVAYHBm9jFCBPJrDP41RPHwZ79zBhSQBVcpBHYPvEvwGOQJfDD9D29ZHaYh9VWEGtRC-VpiT1eerb0-7STXTo_iyR21PPMnSDAI_89bgInSo3n1ArH9qHkdXBUusgFZ4rIKqUGh_m97f1wdXmd2y0M2nwe4QInDgA8jfXHorcn9ZH7ZDsT-iqhPNEAwMWTHgKyPsed07sh9txCTwlfi0T174-7-ADBrIQde5mC5T6UAx15JTGiArGdumEor0_hN3-Y4gPUtWENe8Hp9HnTNC8pbffyOvCvPQkMYttRaj5pdU9WYkZ4LQOYSfXtLtjFN3aWD-SDBaDoZZeF1XNRCLpHDtFKE7F1o5ZQGf1-XLokpUS0DhhymOglho-QUjmYEcluw6a3UjBB-OlkAhMH-WRc__KC9gPekJ19k7KYOPx7c300NlWKLEWvc6JGwFXX1tPONU-sm1UNOL3mRC1Z7Xsz7hWPBQroBfBB2gU9qOxm0TlHUQvPharHQTzpBO3pT-KDUWpeoQ_eyKvzqmQ_RDttnEhwV4_]--></g></svg>