<?xml version="1.0" encoding="us-ascii" standalone="no"?><svg xmlns="http://www.w3.org/2000/svg" xmlns:xlink="http://www.w3.org/1999/xlink" contentStyleType="text/css" height="430px" preserveAspectRatio="none" style="width:668px;height:430px;background:#FFFFFF;" version="1.1" viewBox="0 0 668 430" width="668px" zoomAndPan="magnify"><defs/><g><text fill="#000000" font-family="sans-serif" font-size="20" font-weight="bold" lengthAdjust="spacing" textLength="103" x="69.75" y="29.3359">WhileStmt</text><text fill="#000000" font-family="sans-serif" font-size="20" font-weight="bold" lengthAdjust="spacing" textLength="104" x="179.75" y="29.3359">simplified</text><text fill="#000000" font-family="sans-serif" font-size="20" font-weight="bold" lengthAdjust="spacing" textLength="38" x="290.75" y="29.3359">and</text><text fill="#000000" font-family="sans-serif" font-size="20" font-weight="bold" lengthAdjust="spacing" textLength="249" x="335.75" y="29.3359">grouped per namespace</text><!--cluster preadapter--><g id="cluster_preadapter"><a href="preadapter-diagram-simplified-grouped-per-namespace.svg" target="_top" title="preadapter-diagram-simplified-grouped-per-namespace.svg" xlink:actuate="onRequest" xlink:href="preadapter-diagram-simplified-grouped-per-namespace.svg" xlink:show="new" xlink:title="preadapter-diagram-simplified-grouped-per-namespace.svg" xlink:type="simple"><path d="M436,72.5547 L514,72.5547 A3.75,3.75 0 0 1 516.5,75.0547 L523.5,95.043 L659,95.043 A2.5,2.5 0 0 1 661.5,97.543 L661.5,236.0547 A2.5,2.5 0 0 1 659,238.5547 L436,238.5547 A2.5,2.5 0 0 1 433.5,236.0547 L433.5,75.0547 A2.5,2.5 0 0 1 436,72.5547 " fill="none" style="stroke:#000000;stroke-width:1.5;"/><line style="stroke:#000000;stroke-width:1.5;" x1="433.5" x2="523.5" y1="95.043" y2="95.043"/><text fill="#000000" font-family="sans-serif" font-size="14" font-weight="bold" lengthAdjust="spacing" textLength="77" x="437.5" y="88.0898">preadapter</text></a></g><!--cluster domain--><g id="cluster_domain"><a href="preadapter.domain-diagram-simplified-grouped-per-namespace.svg" target="_top" title="preadapter.domain-diagram-simplified-grouped-per-namespace.svg" xlink:actuate="onRequest" xlink:href="preadapter.domain-diagram-simplified-grouped-per-namespace.svg" xlink:show="new" xlink:title="preadapter.domain-diagram-simplified-grouped-per-namespace.svg" xlink:type="simple"><path d="M460,115.5547 L515,115.5547 A3.75,3.75 0 0 1 517.5,118.0547 L524.5,138.043 L635,138.043 A2.5,2.5 0 0 1 637.5,140.543 L637.5,212.0547 A2.5,2.5 0 0 1 635,214.5547 L460,214.5547 A2.5,2.5 0 0 1 457.5,212.0547 L457.5,118.0547 A2.5,2.5 0 0 1 460,115.5547 " fill="none" style="stroke:#000000;stroke-width:1.5;"/><line style="stroke:#000000;stroke-width:1.5;" x1="457.5" x2="524.5" y1="138.043" y2="138.043"/><text fill="#000000" font-family="sans-serif" font-size="14" font-weight="bold" lengthAdjust="spacing" textLength="54" x="461.5" y="131.0898">domain</text></a></g><!--class ASTVisitorDebug--><a href="preadapter.domain.ASTVisitorDebug-diagram-simplified-grouped-per-namespace.svg" target="_top" title="preadapter.domain.ASTVisitorDebug-diagram-simplified-grouped-per-namespace.svg" xlink:actuate="onRequest" xlink:href="preadapter.domain.ASTVisitorDebug-diagram-simplified-grouped-per-namespace.svg" xlink:show="new" xlink:title="preadapter.domain.ASTVisitorDebug-diagram-simplified-grouped-per-namespace.svg" xlink:type="simple"><g id="elem_ASTVisitorDebug"><rect codeLine="8" fill="#F1F1F1" height="48" id="ASTVisitorDebug" rx="2.5" ry="2.5" style="stroke:#181818;stroke-width:0.5;" width="148" x="473.5" y="150.5547"/><ellipse cx="488.5" cy="166.5547" fill="#ADD1B2" rx="11" ry="11" style="stroke:#181818;stroke-width:1.0;"/><path d="M490.9731,172.6978 Q490.3921,172.9966 489.7529,173.146 Q489.1138,173.2954 488.4082,173.2954 Q485.9014,173.2954 484.5815,171.6436 Q483.2617,169.9917 483.2617,166.8706 Q483.2617,163.7412 484.5815,162.0894 Q485.9014,160.4375 488.4082,160.4375 Q489.1138,160.4375 489.7612,160.5869 Q490.4087,160.7363 490.9731,161.0352 L490.9731,163.7578 Q490.3423,163.1768 489.7488,162.907 Q489.1553,162.6372 488.5244,162.6372 Q487.1797,162.6372 486.4949,163.7039 Q485.8101,164.7705 485.8101,166.8706 Q485.8101,168.9624 486.4949,170.0291 Q487.1797,171.0957 488.5244,171.0957 Q489.1553,171.0957 489.7488,170.8259 Q490.3423,170.5562 490.9731,169.9751 Z " fill="#000000"/><text fill="#000000" font-family="sans-serif" font-size="14" lengthAdjust="spacing" textLength="116" x="502.5" y="171.8457">ASTVisitorDebug</text><line style="stroke:#181818;stroke-width:0.5;" x1="474.5" x2="620.5" y1="182.5547" y2="182.5547"/><line style="stroke:#181818;stroke-width:0.5;" x1="474.5" x2="620.5" y1="190.5547" y2="190.5547"/></g></a><g id="elem_FloatingNote"><path d="M6,50.5547 L6,298.2129 L417,298.2129 L417,60.5547 L407,50.5547 L6,50.5547 " fill="#FEFFDD" style="stroke:#181818;stroke-width:0.5;"/><path d="M407,50.5547 L407,60.5547 L417,60.5547 L407,50.5547 " fill="#FEFFDD" style="stroke:#181818;stroke-width:1.0;"/><text fill="#000000" font-family="sans-serif" font-size="13" lengthAdjust="spacing" textLength="120" x="12" y="68.123">Your are analyzing:</text><text fill="#000000" font-family="sans-serif" font-size="13" lengthAdjust="spacing" textLength="63" x="12" y="83.4336">WhileStmt</text><text fill="#000000" font-family="sans-serif" font-size="13" font-weight="bold" lengthAdjust="spacing" textLength="67" x="79" y="83.4336">simplified</text><text fill="#000000" font-family="sans-serif" font-size="13" lengthAdjust="spacing" textLength="23" x="150" y="83.4336">and</text><text fill="#000000" font-family="sans-serif" font-size="13" font-weight="bold" lengthAdjust="spacing" textLength="166" x="177" y="83.4336">grouped per namespace</text><text fill="#000000" font-family="sans-serif" font-size="13" lengthAdjust="spacing" textLength="4" x="12" y="98.7441">&#160;</text><text fill="#000000" font-family="sans-serif" font-size="13" lengthAdjust="spacing" textLength="229" x="12" y="129.3652">You can click either the namespaces</text><text fill="#000000" font-family="sans-serif" font-size="13" lengthAdjust="spacing" textLength="266" x="12" y="144.6758">or class names for filtering them and their</text><text fill="#000000" font-family="sans-serif" font-size="13" lengthAdjust="spacing" textLength="130" x="12" y="159.9863">direct dependencies.</text><text fill="#000000" font-family="sans-serif" font-size="13" lengthAdjust="spacing" textLength="4" x="12" y="175.2969">&#160;</text><line style="stroke:#181818;stroke-width:1.0;" x1="7" x2="195.5" y1="109.1416" y2="109.1416"/><line style="stroke:#181818;stroke-width:1.0;" x1="7" x2="195.5" y1="111.1416" y2="111.1416"/><text fill="#000000" font-family="sans-serif" font-size="13" lengthAdjust="spacing" textLength="32" x="195.5" y="113.5547">Filter</text><line style="stroke:#181818;stroke-width:1.0;" x1="227.5" x2="416" y1="109.1416" y2="109.1416"/><line style="stroke:#181818;stroke-width:1.0;" x1="227.5" x2="416" y1="111.1416" y2="111.1416"/><ellipse cx="17.5" cy="205.1602" fill="#000000" rx="2.5" ry="2.5" style="stroke:#000000;stroke-width:0.0;"/><text fill="#000000" font-family="sans-serif" font-size="13" lengthAdjust="spacing" textLength="63" x="24" y="209.918">WhileStmt</text><text fill="#000000" font-family="sans-serif" font-size="13" font-weight="bold" lengthAdjust="spacing" textLength="55" x="91" y="209.918">detailed</text><text fill="#000000" font-family="sans-serif" font-size="13" lengthAdjust="spacing" textLength="23" x="150" y="209.918">and</text><text fill="#000000" font-family="sans-serif" font-size="13" font-weight="bold" lengthAdjust="spacing" textLength="166" x="177" y="209.918">grouped per namespace</text><text fill="#000000" font-family="sans-serif" font-size="13" lengthAdjust="spacing" textLength="4" x="343" y="209.918">:</text><text fill="#000000" font-family="sans-serif" font-size="13" lengthAdjust="spacing" textLength="12" x="12" y="225.2285">&#160;&#160;&#160;</text><a href="WhileStmt-diagram-detailed-grouped-per-namespace.svg" target="_top" title="WhileStmt-diagram-detailed-grouped-per-namespace.svg" xlink:actuate="onRequest" xlink:href="WhileStmt-diagram-detailed-grouped-per-namespace.svg" xlink:show="new" xlink:title="WhileStmt-diagram-detailed-grouped-per-namespace.svg" xlink:type="simple"><text fill="#0000FF" font-family="sans-serif" font-size="13" lengthAdjust="spacing" text-decoration="underline" textLength="372" x="24" y="225.2285">WhileStmt-diagram-detailed-grouped-per-namespace.svg</text></a><ellipse cx="17.5" cy="235.7813" fill="#000000" rx="2.5" ry="2.5" style="stroke:#000000;stroke-width:0.0;"/><text fill="#000000" font-family="sans-serif" font-size="13" lengthAdjust="spacing" textLength="78" x="24" y="240.5391">Full diagram</text><text fill="#000000" font-family="sans-serif" font-size="13" font-weight="bold" lengthAdjust="spacing" textLength="67" x="106" y="240.5391">simplified</text><text fill="#000000" font-family="sans-serif" font-size="13" lengthAdjust="spacing" textLength="23" x="177" y="240.5391">and</text><text fill="#000000" font-family="sans-serif" font-size="13" font-weight="bold" lengthAdjust="spacing" textLength="166" x="204" y="240.5391">grouped per namespace</text><text fill="#000000" font-family="sans-serif" font-size="13" lengthAdjust="spacing" textLength="4" x="370" y="240.5391">:</text><text fill="#000000" font-family="sans-serif" font-size="13" lengthAdjust="spacing" textLength="12" x="12" y="255.8496">&#160;&#160;&#160;</text><a href="full-diagram-simplified-grouped-per-namespace.svg" target="_top" title="full-diagram-simplified-grouped-per-namespace.svg" xlink:actuate="onRequest" xlink:href="full-diagram-simplified-grouped-per-namespace.svg" xlink:show="new" xlink:title="full-diagram-simplified-grouped-per-namespace.svg" xlink:type="simple"><text fill="#0000FF" font-family="sans-serif" font-size="13" lengthAdjust="spacing" text-decoration="underline" textLength="343" x="24" y="255.8496">full-diagram-simplified-grouped-per-namespace.svg</text></a><ellipse cx="17.5" cy="266.4023" fill="#000000" rx="2.5" ry="2.5" style="stroke:#000000;stroke-width:0.0;"/><text fill="#000000" font-family="sans-serif" font-size="13" lengthAdjust="spacing" textLength="41" x="24" y="271.1602">Home:</text><text fill="#000000" font-family="sans-serif" font-size="13" lengthAdjust="spacing" textLength="12" x="12" y="286.4707">&#160;&#160;&#160;</text><a href="index.html" target="_top" title="index.html" xlink:actuate="onRequest" xlink:href="index.html" xlink:show="new" xlink:title="index.html" xlink:type="simple"><text fill="#0000FF" font-family="sans-serif" font-size="13" lengthAdjust="spacing" text-decoration="underline" textLength="68" x="24" y="286.4707">index.html</text></a><line style="stroke:#181818;stroke-width:1.0;" x1="7" x2="174.5" y1="189.6943" y2="189.6943"/><line style="stroke:#181818;stroke-width:1.0;" x1="7" x2="174.5" y1="191.6943" y2="191.6943"/><text fill="#000000" font-family="sans-serif" font-size="13" lengthAdjust="spacing" textLength="74" x="174.5" y="194.1074">Select other</text><line style="stroke:#181818;stroke-width:1.0;" x1="248.5" x2="416" y1="189.6943" y2="189.6943"/><line style="stroke:#181818;stroke-width:1.0;" x1="248.5" x2="416" y1="191.6943" y2="191.6943"/></g><!--class WhileStmt--><a href="WhileStmt-diagram-simplified-grouped-per-namespace.svg" target="_top" title="WhileStmt-diagram-simplified-grouped-per-namespace.svg" xlink:actuate="onRequest" xlink:href="WhileStmt-diagram-simplified-grouped-per-namespace.svg" xlink:show="new" xlink:title="WhileStmt-diagram-simplified-grouped-per-namespace.svg" xlink:type="simple"><g id="elem_WhileStmt"><rect codeLine="3" fill="#FFFF00" height="48" id="WhileStmt" rx="2.5" ry="2.5" style="stroke:#181818;stroke-width:0.5;" width="100" x="497.5" y="375.5547"/><ellipse cx="512.5" cy="391.5547" fill="#ADD1B2" rx="11" ry="11" style="stroke:#181818;stroke-width:1.0;"/><path d="M514.9731,397.6978 Q514.3921,397.9966 513.7529,398.146 Q513.1138,398.2954 512.4082,398.2954 Q509.9014,398.2954 508.5815,396.6436 Q507.2617,394.9917 507.2617,391.8706 Q507.2617,388.7412 508.5815,387.0894 Q509.9014,385.4375 512.4082,385.4375 Q513.1138,385.4375 513.7612,385.5869 Q514.4087,385.7363 514.9731,386.0352 L514.9731,388.7578 Q514.3423,388.1768 513.7488,387.907 Q513.1553,387.6372 512.5244,387.6372 Q511.1797,387.6372 510.4949,388.7039 Q509.8101,389.7705 509.8101,391.8706 Q509.8101,393.9624 510.4949,395.0291 Q511.1797,396.0957 512.5244,396.0957 Q513.1553,396.0957 513.7488,395.8259 Q514.3423,395.5562 514.9731,394.9751 Z " fill="#000000"/><text fill="#000000" font-family="sans-serif" font-size="14" lengthAdjust="spacing" textLength="68" x="526.5" y="396.8457">WhileStmt</text><line style="stroke:#181818;stroke-width:0.5;" x1="498.5" x2="596.5" y1="407.5547" y2="407.5547"/><line style="stroke:#181818;stroke-width:0.5;" x1="498.5" x2="596.5" y1="415.5547" y2="415.5547"/></g></a><!--link ASTVisitorDebug to WhileStmt--><g id="link_ASTVisitorDebug_WhileStmt"><path codeLine="23" d="M547.5,198.9947 C547.5,239.9847 547.5,324.5647 547.5,369.3147 " fill="none" id="ASTVisitorDebug-to-WhileStmt" style="stroke:#6060BB;stroke-width:1.0;stroke-dasharray:7.0,7.0;"/><polygon fill="#6060BB" points="547.5,374.0947,551.5,365.0947,547.5,369.0947,543.5,365.0947,547.5,374.0947" style="stroke:#6060BB;stroke-width:1.0;"/><text fill="#000000" font-family="sans-serif" font-size="13" lengthAdjust="spacing" textLength="29" x="548.5" y="342.123">uses</text></g><!--SRC=[jLHDQzj04BthLmp98I2GQdh8mSI69i7qb8jBIx64MMj7yf3z4BkhVDB_tf4jMqbZS5Im4SQxclVUlFbmeA0GhZozuFZhQFfhJGhdGGU8Oq-wLbGIoZW6OIHVLSusDKgeqO4H6dqj2epZgoyjVXeP6n3EVjl6WN386A6UNyXKuypy7t5cCZEPp4W5T9D9PfWQ2c6WK5JS0r9OSpn_zHWFcR6E0uJtsrie-LnkA3YLDbflHFa7kSn8SbW4a5YZaMWAGfzkPUUesZUs5Md5OtXhGc8GV3fgWRq3m6AnnoQIHEM4JdOCIOTC69diaQb_gFAyLPqrIa476bIzdNJ917lL7dvCzxlLkACWhirJkWvQvVaP20ypPKNWUjvnowDjjVlg77BxELquVqQbx2EyHd-Y2xXHrhTD4ro1sk43sSOlVRDQxc5BHJxqfk7E6eGL5gBns7Qzcq9F7lWfoP1VeqoZ7i6yGegQnuFpxWz34tyzI9bAgmMPTypTtN01wCRw0rNwRVxZ9taArjtYggaEoVqRCrH-eyyzkR6wvkMMS6gxyCZh3Mmu02-YHiEhMC8cXnFEHS_TOxS6tWta8VCS01UyZP_wmCbYsoJRAN6eU4EjyO1FmOaYSCzAPtMV-vXZ1uP_Q6jqV1ZJnVdbw79qVPsdqpT_4Z06xeM7lm00]--></g></svg>