<?xml version="1.0" encoding="us-ascii" standalone="no"?><svg xmlns="http://www.w3.org/2000/svg" xmlns:xlink="http://www.w3.org/1999/xlink" contentStyleType="text/css" height="430px" preserveAspectRatio="none" style="width:723px;height:430px;background:#FFFFFF;" version="1.1" viewBox="0 0 723 430" width="723px" zoomAndPan="magnify"><defs/><g><text fill="#000000" font-family="sans-serif" font-size="20" font-weight="bold" lengthAdjust="spacing" textLength="200" x="48.5" y="29.3359">ArrayCreationLevel</text><text fill="#000000" font-family="sans-serif" font-size="20" font-weight="bold" lengthAdjust="spacing" textLength="104" x="255.5" y="29.3359">simplified</text><text fill="#000000" font-family="sans-serif" font-size="20" font-weight="bold" lengthAdjust="spacing" textLength="38" x="366.5" y="29.3359">and</text><text fill="#000000" font-family="sans-serif" font-size="20" font-weight="bold" lengthAdjust="spacing" textLength="249" x="411.5" y="29.3359">grouped per namespace</text><!--cluster preadapter--><g id="cluster_preadapter"><a href="preadapter-diagram-simplified-grouped-per-namespace.svg" target="_top" title="preadapter-diagram-simplified-grouped-per-namespace.svg" xlink:actuate="onRequest" xlink:href="preadapter-diagram-simplified-grouped-per-namespace.svg" xlink:show="new" xlink:title="preadapter-diagram-simplified-grouped-per-namespace.svg" xlink:type="simple"><path d="M490.5,72.5547 L568.5,72.5547 A3.75,3.75 0 0 1 571,75.0547 L578,95.043 L713.5,95.043 A2.5,2.5 0 0 1 716,97.543 L716,236.0547 A2.5,2.5 0 0 1 713.5,238.5547 L490.5,238.5547 A2.5,2.5 0 0 1 488,236.0547 L488,75.0547 A2.5,2.5 0 0 1 490.5,72.5547 " fill="none" style="stroke:#000000;stroke-width:1.5;"/><line style="stroke:#000000;stroke-width:1.5;" x1="488" x2="578" y1="95.043" y2="95.043"/><text fill="#000000" font-family="sans-serif" font-size="14" font-weight="bold" lengthAdjust="spacing" textLength="77" x="492" y="88.0898">preadapter</text></a></g><!--cluster domain--><g id="cluster_domain"><a href="preadapter.domain-diagram-simplified-grouped-per-namespace.svg" target="_top" title="preadapter.domain-diagram-simplified-grouped-per-namespace.svg" xlink:actuate="onRequest" xlink:href="preadapter.domain-diagram-simplified-grouped-per-namespace.svg" xlink:show="new" xlink:title="preadapter.domain-diagram-simplified-grouped-per-namespace.svg" xlink:type="simple"><path d="M514.5,115.5547 L569.5,115.5547 A3.75,3.75 0 0 1 572,118.0547 L579,138.043 L689.5,138.043 A2.5,2.5 0 0 1 692,140.543 L692,212.0547 A2.5,2.5 0 0 1 689.5,214.5547 L514.5,214.5547 A2.5,2.5 0 0 1 512,212.0547 L512,118.0547 A2.5,2.5 0 0 1 514.5,115.5547 " fill="none" style="stroke:#000000;stroke-width:1.5;"/><line style="stroke:#000000;stroke-width:1.5;" x1="512" x2="579" y1="138.043" y2="138.043"/><text fill="#000000" font-family="sans-serif" font-size="14" font-weight="bold" lengthAdjust="spacing" textLength="54" x="516" y="131.0898">domain</text></a></g><!--class ASTVisitorDebug--><a href="preadapter.domain.ASTVisitorDebug-diagram-simplified-grouped-per-namespace.svg" target="_top" title="preadapter.domain.ASTVisitorDebug-diagram-simplified-grouped-per-namespace.svg" xlink:actuate="onRequest" xlink:href="preadapter.domain.ASTVisitorDebug-diagram-simplified-grouped-per-namespace.svg" xlink:show="new" xlink:title="preadapter.domain.ASTVisitorDebug-diagram-simplified-grouped-per-namespace.svg" xlink:type="simple"><g id="elem_ASTVisitorDebug"><rect codeLine="8" fill="#F1F1F1" height="48" id="ASTVisitorDebug" rx="2.5" ry="2.5" style="stroke:#181818;stroke-width:0.5;" width="148" x="528" y="150.5547"/><ellipse cx="543" cy="166.5547" fill="#ADD1B2" rx="11" ry="11" style="stroke:#181818;stroke-width:1.0;"/><path d="M545.4731,172.6978 Q544.8921,172.9966 544.2529,173.146 Q543.6138,173.2954 542.9082,173.2954 Q540.4014,173.2954 539.0815,171.6436 Q537.7617,169.9917 537.7617,166.8706 Q537.7617,163.7412 539.0815,162.0894 Q540.4014,160.4375 542.9082,160.4375 Q543.6138,160.4375 544.2612,160.5869 Q544.9087,160.7363 545.4731,161.0352 L545.4731,163.7578 Q544.8423,163.1768 544.2488,162.907 Q543.6553,162.6372 543.0244,162.6372 Q541.6797,162.6372 540.9949,163.7039 Q540.3101,164.7705 540.3101,166.8706 Q540.3101,168.9624 540.9949,170.0291 Q541.6797,171.0957 543.0244,171.0957 Q543.6553,171.0957 544.2488,170.8259 Q544.8423,170.5562 545.4731,169.9751 Z " fill="#000000"/><text fill="#000000" font-family="sans-serif" font-size="14" lengthAdjust="spacing" textLength="116" x="557" y="171.8457">ASTVisitorDebug</text><line style="stroke:#181818;stroke-width:0.5;" x1="529" x2="675" y1="182.5547" y2="182.5547"/><line style="stroke:#181818;stroke-width:0.5;" x1="529" x2="675" y1="190.5547" y2="190.5547"/></g></a><g id="elem_FloatingNote"><path d="M6,50.5547 L6,298.2129 L472,298.2129 L472,60.5547 L462,50.5547 L6,50.5547 " fill="#FEFFDD" style="stroke:#181818;stroke-width:0.5;"/><path d="M462,50.5547 L462,60.5547 L472,60.5547 L462,50.5547 " fill="#FEFFDD" style="stroke:#181818;stroke-width:1.0;"/><text fill="#000000" font-family="sans-serif" font-size="13" lengthAdjust="spacing" textLength="120" x="12" y="68.123">Your are analyzing:</text><text fill="#000000" font-family="sans-serif" font-size="13" lengthAdjust="spacing" textLength="118" x="12" y="83.4336">ArrayCreationLevel</text><text fill="#000000" font-family="sans-serif" font-size="13" font-weight="bold" lengthAdjust="spacing" textLength="67" x="134" y="83.4336">simplified</text><text fill="#000000" font-family="sans-serif" font-size="13" lengthAdjust="spacing" textLength="23" x="205" y="83.4336">and</text><text fill="#000000" font-family="sans-serif" font-size="13" font-weight="bold" lengthAdjust="spacing" textLength="166" x="232" y="83.4336">grouped per namespace</text><text fill="#000000" font-family="sans-serif" font-size="13" lengthAdjust="spacing" textLength="4" x="12" y="98.7441">&#160;</text><text fill="#000000" font-family="sans-serif" font-size="13" lengthAdjust="spacing" textLength="229" x="12" y="129.3652">You can click either the namespaces</text><text fill="#000000" font-family="sans-serif" font-size="13" lengthAdjust="spacing" textLength="266" x="12" y="144.6758">or class names for filtering them and their</text><text fill="#000000" font-family="sans-serif" font-size="13" lengthAdjust="spacing" textLength="130" x="12" y="159.9863">direct dependencies.</text><text fill="#000000" font-family="sans-serif" font-size="13" lengthAdjust="spacing" textLength="4" x="12" y="175.2969">&#160;</text><line style="stroke:#181818;stroke-width:1.0;" x1="7" x2="223" y1="109.1416" y2="109.1416"/><line style="stroke:#181818;stroke-width:1.0;" x1="7" x2="223" y1="111.1416" y2="111.1416"/><text fill="#000000" font-family="sans-serif" font-size="13" lengthAdjust="spacing" textLength="32" x="223" y="113.5547">Filter</text><line style="stroke:#181818;stroke-width:1.0;" x1="255" x2="471" y1="109.1416" y2="109.1416"/><line style="stroke:#181818;stroke-width:1.0;" x1="255" x2="471" y1="111.1416" y2="111.1416"/><ellipse cx="17.5" cy="205.1602" fill="#000000" rx="2.5" ry="2.5" style="stroke:#000000;stroke-width:0.0;"/><text fill="#000000" font-family="sans-serif" font-size="13" lengthAdjust="spacing" textLength="118" x="24" y="209.918">ArrayCreationLevel</text><text fill="#000000" font-family="sans-serif" font-size="13" font-weight="bold" lengthAdjust="spacing" textLength="55" x="146" y="209.918">detailed</text><text fill="#000000" font-family="sans-serif" font-size="13" lengthAdjust="spacing" textLength="23" x="205" y="209.918">and</text><text fill="#000000" font-family="sans-serif" font-size="13" font-weight="bold" lengthAdjust="spacing" textLength="166" x="232" y="209.918">grouped per namespace</text><text fill="#000000" font-family="sans-serif" font-size="13" lengthAdjust="spacing" textLength="4" x="398" y="209.918">:</text><text fill="#000000" font-family="sans-serif" font-size="13" lengthAdjust="spacing" textLength="12" x="12" y="225.2285">&#160;&#160;&#160;</text><a href="ArrayCreationLevel-diagram-detailed-grouped-per-namespace.svg" target="_top" title="ArrayCreationLevel-diagram-detailed-grouped-per-namespace.svg" xlink:actuate="onRequest" xlink:href="ArrayCreationLevel-diagram-detailed-grouped-per-namespace.svg" xlink:show="new" xlink:title="ArrayCreationLevel-diagram-detailed-grouped-per-namespace.svg" xlink:type="simple"><text fill="#0000FF" font-family="sans-serif" font-size="13" lengthAdjust="spacing" text-decoration="underline" textLength="427" x="24" y="225.2285">ArrayCreationLevel-diagram-detailed-grouped-per-namespace.svg</text></a><ellipse cx="17.5" cy="235.7813" fill="#000000" rx="2.5" ry="2.5" style="stroke:#000000;stroke-width:0.0;"/><text fill="#000000" font-family="sans-serif" font-size="13" lengthAdjust="spacing" textLength="78" x="24" y="240.5391">Full diagram</text><text fill="#000000" font-family="sans-serif" font-size="13" font-weight="bold" lengthAdjust="spacing" textLength="67" x="106" y="240.5391">simplified</text><text fill="#000000" font-family="sans-serif" font-size="13" lengthAdjust="spacing" textLength="23" x="177" y="240.5391">and</text><text fill="#000000" font-family="sans-serif" font-size="13" font-weight="bold" lengthAdjust="spacing" textLength="166" x="204" y="240.5391">grouped per namespace</text><text fill="#000000" font-family="sans-serif" font-size="13" lengthAdjust="spacing" textLength="4" x="370" y="240.5391">:</text><text fill="#000000" font-family="sans-serif" font-size="13" lengthAdjust="spacing" textLength="12" x="12" y="255.8496">&#160;&#160;&#160;</text><a href="full-diagram-simplified-grouped-per-namespace.svg" target="_top" title="full-diagram-simplified-grouped-per-namespace.svg" xlink:actuate="onRequest" xlink:href="full-diagram-simplified-grouped-per-namespace.svg" xlink:show="new" xlink:title="full-diagram-simplified-grouped-per-namespace.svg" xlink:type="simple"><text fill="#0000FF" font-family="sans-serif" font-size="13" lengthAdjust="spacing" text-decoration="underline" textLength="343" x="24" y="255.8496">full-diagram-simplified-grouped-per-namespace.svg</text></a><ellipse cx="17.5" cy="266.4023" fill="#000000" rx="2.5" ry="2.5" style="stroke:#000000;stroke-width:0.0;"/><text fill="#000000" font-family="sans-serif" font-size="13" lengthAdjust="spacing" textLength="41" x="24" y="271.1602">Home:</text><text fill="#000000" font-family="sans-serif" font-size="13" lengthAdjust="spacing" textLength="12" x="12" y="286.4707">&#160;&#160;&#160;</text><a href="index.html" target="_top" title="index.html" xlink:actuate="onRequest" xlink:href="index.html" xlink:show="new" xlink:title="index.html" xlink:type="simple"><text fill="#0000FF" font-family="sans-serif" font-size="13" lengthAdjust="spacing" text-decoration="underline" textLength="68" x="24" y="286.4707">index.html</text></a><line style="stroke:#181818;stroke-width:1.0;" x1="7" x2="202" y1="189.6943" y2="189.6943"/><line style="stroke:#181818;stroke-width:1.0;" x1="7" x2="202" y1="191.6943" y2="191.6943"/><text fill="#000000" font-family="sans-serif" font-size="13" lengthAdjust="spacing" textLength="74" x="202" y="194.1074">Select other</text><line style="stroke:#181818;stroke-width:1.0;" x1="276" x2="471" y1="189.6943" y2="189.6943"/><line style="stroke:#181818;stroke-width:1.0;" x1="276" x2="471" y1="191.6943" y2="191.6943"/></g><!--class ArrayCreationLevel--><a href="ArrayCreationLevel-diagram-simplified-grouped-per-namespace.svg" target="_top" title="ArrayCreationLevel-diagram-simplified-grouped-per-namespace.svg" xlink:actuate="onRequest" xlink:href="ArrayCreationLevel-diagram-simplified-grouped-per-namespace.svg" xlink:show="new" xlink:title="ArrayCreationLevel-diagram-simplified-grouped-per-namespace.svg" xlink:type="simple"><g id="elem_ArrayCreationLevel"><rect codeLine="3" fill="#FFFF00" height="48" id="ArrayCreationLevel" rx="2.5" ry="2.5" style="stroke:#181818;stroke-width:0.5;" width="162" x="521" y="375.5547"/><ellipse cx="536" cy="391.5547" fill="#ADD1B2" rx="11" ry="11" style="stroke:#181818;stroke-width:1.0;"/><path d="M538.4731,397.6978 Q537.8921,397.9966 537.2529,398.146 Q536.6138,398.2954 535.9082,398.2954 Q533.4014,398.2954 532.0815,396.6436 Q530.7617,394.9917 530.7617,391.8706 Q530.7617,388.7412 532.0815,387.0894 Q533.4014,385.4375 535.9082,385.4375 Q536.6138,385.4375 537.2612,385.5869 Q537.9087,385.7363 538.4731,386.0352 L538.4731,388.7578 Q537.8423,388.1768 537.2488,387.907 Q536.6553,387.6372 536.0244,387.6372 Q534.6797,387.6372 533.9949,388.7039 Q533.3101,389.7705 533.3101,391.8706 Q533.3101,393.9624 533.9949,395.0291 Q534.6797,396.0957 536.0244,396.0957 Q536.6553,396.0957 537.2488,395.8259 Q537.8423,395.5562 538.4731,394.9751 Z " fill="#000000"/><text fill="#000000" font-family="sans-serif" font-size="14" lengthAdjust="spacing" textLength="130" x="550" y="396.8457">ArrayCreationLevel</text><line style="stroke:#181818;stroke-width:0.5;" x1="522" x2="682" y1="407.5547" y2="407.5547"/><line style="stroke:#181818;stroke-width:0.5;" x1="522" x2="682" y1="415.5547" y2="415.5547"/></g></a><!--link ASTVisitorDebug to ArrayCreationLevel--><g id="link_ASTVisitorDebug_ArrayCreationLevel"><path codeLine="23" d="M602,198.9947 C602,239.9847 602,324.5647 602,369.3147 " fill="none" id="ASTVisitorDebug-to-ArrayCreationLevel" style="stroke:#6060BB;stroke-width:1.0;stroke-dasharray:7.0,7.0;"/><polygon fill="#6060BB" points="602,374.0947,606,365.0947,602,369.0947,598,365.0947,602,374.0947" style="stroke:#6060BB;stroke-width:1.0;"/><text fill="#000000" font-family="sans-serif" font-size="13" lengthAdjust="spacing" textLength="29" x="603" y="342.123">uses</text></g><!--SRC=[jLJ1Qjj04BthAuRa411ODJtaO693uc9wABca58ebp5exaeUkTiNkoeaJ-kyToR95Qb5750iXfDNCU_Dctgudhn3k7BtYvFDuTc-jsCqj2az6VyCjAWX3HqMfA2EKOGX2IrxAhQbAb52Y1IqATAL8CGplFjL0iq0RZt3rqrGMX4NE4MhtIZgVnFe_6M8Tw-bqGSgZdKvZpHoG2WsfelGN8FaDn_EZot4GQsCvG3YtNuMClxC6Wckgeuk6b5_8nbgInTI3n1ArH9qIkcXF-uIg_cDgafeyX5ur4hqWTLuBTmC0bijJa94aaLjHZ0vGenPYn12Z8qJajdcIr7KiAgMWJHhKpqCD6GCSMRlqSxnVJO472E9klKGRNwWakGBXOA4CIzBv8xiXsFU_fr__rF-nIk1wXqgPPtWBVWStC5V6rOCLt9FIufPCvLQkMg-EQIj5pdTjW4UZ4TQOYifXxOpMieuSy9sH9hT16GLT1kCAAKgs40leFeOM_jOB6KbJ2DBlaDkruGJGMly4Ahf_-lw377bZl-2wolle_euPIj_myqpcfYZv991mQRdmp4S0i60Fl5aBrBnTCsXgkA0lEkmkTo_WdI7xn7C0tF3-_D055ukjYwnTOb4rsz01ldWhKiypowmfkjed73im_6IimNapHilhs_7j-E4XYMPznmPCW8VYu0y0]--></g></svg>