<?xml version="1.0" encoding="us-ascii" standalone="no"?><svg xmlns="http://www.w3.org/2000/svg" xmlns:xlink="http://www.w3.org/1999/xlink" contentStyleType="text/css" height="430px" preserveAspectRatio="none" style="width:955px;height:430px;background:#FFFFFF;" version="1.1" viewBox="0 0 955 430" width="955px" zoomAndPan="magnify"><defs/><g><text fill="#000000" font-family="sans-serif" font-size="20" font-weight="bold" lengthAdjust="spacing" textLength="169" x="327.25" y="29.3359">CompilationUnit</text><text fill="#000000" font-family="sans-serif" font-size="20" font-weight="bold" lengthAdjust="spacing" textLength="104" x="503.25" y="29.3359">simplified</text><text fill="#000000" font-family="sans-serif" font-size="20" font-weight="bold" lengthAdjust="spacing" textLength="7" x="607.25" y="29.3359">&#160;</text><!--cluster preadapter--><g id="cluster_preadapter"><path d="M414,72.5547 L492,72.5547 A3.75,3.75 0 0 1 494.5,75.0547 L501.5,95.043 L946,95.043 A2.5,2.5 0 0 1 948.5,97.543 L948.5,236.0547 A2.5,2.5 0 0 1 946,238.5547 L414,238.5547 A2.5,2.5 0 0 1 411.5,236.0547 L411.5,75.0547 A2.5,2.5 0 0 1 414,72.5547 " fill="none" style="stroke:#000000;stroke-width:1.5;"/><line style="stroke:#000000;stroke-width:1.5;" x1="411.5" x2="501.5" y1="95.043" y2="95.043"/><text fill="#000000" font-family="sans-serif" font-size="14" font-weight="bold" lengthAdjust="spacing" textLength="77" x="415.5" y="88.0898">preadapter</text></g><!--cluster domain--><g id="cluster_domain"><path d="M438,115.5547 L493,115.5547 A3.75,3.75 0 0 1 495.5,118.0547 L502.5,138.043 L752,138.043 A2.5,2.5 0 0 1 754.5,140.543 L754.5,212.0547 A2.5,2.5 0 0 1 752,214.5547 L438,214.5547 A2.5,2.5 0 0 1 435.5,212.0547 L435.5,118.0547 A2.5,2.5 0 0 1 438,115.5547 " fill="none" style="stroke:#000000;stroke-width:1.5;"/><line style="stroke:#000000;stroke-width:1.5;" x1="435.5" x2="502.5" y1="138.043" y2="138.043"/><text fill="#000000" font-family="sans-serif" font-size="14" font-weight="bold" lengthAdjust="spacing" textLength="54" x="439.5" y="131.0898">domain</text></g><!--cluster service--><g id="cluster_service"><path d="M781,115.5547 L832,115.5547 A3.75,3.75 0 0 1 834.5,118.0547 L841.5,138.043 L922,138.043 A2.5,2.5 0 0 1 924.5,140.543 L924.5,212.0547 A2.5,2.5 0 0 1 922,214.5547 L781,214.5547 A2.5,2.5 0 0 1 778.5,212.0547 L778.5,118.0547 A2.5,2.5 0 0 1 781,115.5547 " fill="none" style="stroke:#000000;stroke-width:1.5;"/><line style="stroke:#000000;stroke-width:1.5;" x1="778.5" x2="841.5" y1="138.043" y2="138.043"/><text fill="#000000" font-family="sans-serif" font-size="14" font-weight="bold" lengthAdjust="spacing" textLength="50" x="782.5" y="131.0898">service</text></g><!--class ASTVisitor--><a href="preadapter.domain.ASTVisitor-diagram-simplified.svg" target="_top" title="preadapter.domain.ASTVisitor-diagram-simplified.svg" xlink:actuate="onRequest" xlink:href="preadapter.domain.ASTVisitor-diagram-simplified.svg" xlink:show="new" xlink:title="preadapter.domain.ASTVisitor-diagram-simplified.svg" xlink:type="simple"><g id="elem_ASTVisitor"><rect codeLine="5" fill="#F1F1F1" height="48" id="ASTVisitor" rx="2.5" ry="2.5" style="stroke:#181818;stroke-width:0.5;" width="103" x="452" y="150.5547"/><ellipse cx="467" cy="166.5547" fill="#ADD1B2" rx="11" ry="11" style="stroke:#181818;stroke-width:1.0;"/><path d="M469.4731,172.6978 Q468.8921,172.9966 468.2529,173.146 Q467.6138,173.2954 466.9082,173.2954 Q464.4014,173.2954 463.0815,171.6436 Q461.7617,169.9917 461.7617,166.8706 Q461.7617,163.7412 463.0815,162.0894 Q464.4014,160.4375 466.9082,160.4375 Q467.6138,160.4375 468.2612,160.5869 Q468.9087,160.7363 469.4731,161.0352 L469.4731,163.7578 Q468.8423,163.1768 468.2488,162.907 Q467.6553,162.6372 467.0244,162.6372 Q465.6797,162.6372 464.9949,163.7039 Q464.3101,164.7705 464.3101,166.8706 Q464.3101,168.9624 464.9949,170.0291 Q465.6797,171.0957 467.0244,171.0957 Q467.6553,171.0957 468.2488,170.8259 Q468.8423,170.5562 469.4731,169.9751 Z " fill="#000000"/><text fill="#000000" font-family="sans-serif" font-size="14" lengthAdjust="spacing" textLength="71" x="481" y="171.8457">ASTVisitor</text><line style="stroke:#181818;stroke-width:0.5;" x1="453" x2="554" y1="182.5547" y2="182.5547"/><line style="stroke:#181818;stroke-width:0.5;" x1="453" x2="554" y1="190.5547" y2="190.5547"/></g></a><!--class ASTVisitorDebug--><a href="preadapter.domain.ASTVisitorDebug-diagram-simplified.svg" target="_top" title="preadapter.domain.ASTVisitorDebug-diagram-simplified.svg" xlink:actuate="onRequest" xlink:href="preadapter.domain.ASTVisitorDebug-diagram-simplified.svg" xlink:show="new" xlink:title="preadapter.domain.ASTVisitorDebug-diagram-simplified.svg" xlink:type="simple"><g id="elem_ASTVisitorDebug"><rect codeLine="7" fill="#F1F1F1" height="48" id="ASTVisitorDebug" rx="2.5" ry="2.5" style="stroke:#181818;stroke-width:0.5;" width="148" x="590.5" y="150.5547"/><ellipse cx="605.5" cy="166.5547" fill="#ADD1B2" rx="11" ry="11" style="stroke:#181818;stroke-width:1.0;"/><path d="M607.9731,172.6978 Q607.3921,172.9966 606.7529,173.146 Q606.1138,173.2954 605.4082,173.2954 Q602.9014,173.2954 601.5815,171.6436 Q600.2617,169.9917 600.2617,166.8706 Q600.2617,163.7412 601.5815,162.0894 Q602.9014,160.4375 605.4082,160.4375 Q606.1138,160.4375 606.7612,160.5869 Q607.4087,160.7363 607.9731,161.0352 L607.9731,163.7578 Q607.3423,163.1768 606.7488,162.907 Q606.1553,162.6372 605.5244,162.6372 Q604.1797,162.6372 603.4949,163.7039 Q602.8101,164.7705 602.8101,166.8706 Q602.8101,168.9624 603.4949,170.0291 Q604.1797,171.0957 605.5244,171.0957 Q606.1553,171.0957 606.7488,170.8259 Q607.3423,170.5562 607.9731,169.9751 Z " fill="#000000"/><text fill="#000000" font-family="sans-serif" font-size="14" lengthAdjust="spacing" textLength="116" x="619.5" y="171.8457">ASTVisitorDebug</text><line style="stroke:#181818;stroke-width:0.5;" x1="591.5" x2="737.5" y1="182.5547" y2="182.5547"/><line style="stroke:#181818;stroke-width:0.5;" x1="591.5" x2="737.5" y1="190.5547" y2="190.5547"/></g></a><!--class AnalyzeAST--><a href="preadapter.service.AnalyzeAST-diagram-simplified.svg" target="_top" title="preadapter.service.AnalyzeAST-diagram-simplified.svg" xlink:actuate="onRequest" xlink:href="preadapter.service.AnalyzeAST-diagram-simplified.svg" xlink:show="new" xlink:title="preadapter.service.AnalyzeAST-diagram-simplified.svg" xlink:type="simple"><g id="elem_AnalyzeAST"><rect codeLine="9" fill="#F1F1F1" height="48" id="AnalyzeAST" rx="2.5" ry="2.5" style="stroke:#181818;stroke-width:0.5;" width="113" x="795" y="150.5547"/><ellipse cx="810" cy="166.5547" fill="#ADD1B2" rx="11" ry="11" style="stroke:#181818;stroke-width:1.0;"/><path d="M812.4731,172.6978 Q811.8921,172.9966 811.2529,173.146 Q810.6138,173.2954 809.9082,173.2954 Q807.4014,173.2954 806.0815,171.6436 Q804.7617,169.9917 804.7617,166.8706 Q804.7617,163.7412 806.0815,162.0894 Q807.4014,160.4375 809.9082,160.4375 Q810.6138,160.4375 811.2612,160.5869 Q811.9087,160.7363 812.4731,161.0352 L812.4731,163.7578 Q811.8423,163.1768 811.2488,162.907 Q810.6553,162.6372 810.0244,162.6372 Q808.6797,162.6372 807.9949,163.7039 Q807.3101,164.7705 807.3101,166.8706 Q807.3101,168.9624 807.9949,170.0291 Q808.6797,171.0957 810.0244,171.0957 Q810.6553,171.0957 811.2488,170.8259 Q811.8423,170.5562 812.4731,169.9751 Z " fill="#000000"/><text fill="#000000" font-family="sans-serif" font-size="14" lengthAdjust="spacing" textLength="81" x="824" y="171.8457">AnalyzeAST</text><line style="stroke:#181818;stroke-width:0.5;" x1="796" x2="907" y1="182.5547" y2="182.5547"/><line style="stroke:#181818;stroke-width:0.5;" x1="796" x2="907" y1="190.5547" y2="190.5547"/></g></a><g id="elem_FloatingNote"><path d="M6,50.5547 L6,298.2129 L395,298.2129 L395,60.5547 L385,50.5547 L6,50.5547 " fill="#FEFFDD" style="stroke:#181818;stroke-width:0.5;"/><path d="M385,50.5547 L385,60.5547 L395,60.5547 L385,50.5547 " fill="#FEFFDD" style="stroke:#181818;stroke-width:1.0;"/><text fill="#000000" font-family="sans-serif" font-size="13" lengthAdjust="spacing" textLength="120" x="12" y="68.123">Your are analyzing:</text><text fill="#000000" font-family="sans-serif" font-size="13" lengthAdjust="spacing" textLength="103" x="12" y="83.4336">CompilationUnit</text><text fill="#000000" font-family="sans-serif" font-size="13" font-weight="bold" lengthAdjust="spacing" textLength="67" x="119" y="83.4336">simplified</text><text fill="#000000" font-family="sans-serif" font-size="13" lengthAdjust="spacing" textLength="4" x="186" y="83.4336">&#160;</text><text fill="#000000" font-family="sans-serif" font-size="13" lengthAdjust="spacing" textLength="4" x="12" y="98.7441">&#160;</text><text fill="#000000" font-family="sans-serif" font-size="13" lengthAdjust="spacing" textLength="229" x="12" y="129.3652">You can click either the namespaces</text><text fill="#000000" font-family="sans-serif" font-size="13" lengthAdjust="spacing" textLength="266" x="12" y="144.6758">or class names for filtering them and their</text><text fill="#000000" font-family="sans-serif" font-size="13" lengthAdjust="spacing" textLength="130" x="12" y="159.9863">direct dependencies.</text><text fill="#000000" font-family="sans-serif" font-size="13" lengthAdjust="spacing" textLength="4" x="12" y="175.2969">&#160;</text><line style="stroke:#181818;stroke-width:1.0;" x1="7" x2="184.5" y1="109.1416" y2="109.1416"/><line style="stroke:#181818;stroke-width:1.0;" x1="7" x2="184.5" y1="111.1416" y2="111.1416"/><text fill="#000000" font-family="sans-serif" font-size="13" lengthAdjust="spacing" textLength="32" x="184.5" y="113.5547">Filter</text><line style="stroke:#181818;stroke-width:1.0;" x1="216.5" x2="394" y1="109.1416" y2="109.1416"/><line style="stroke:#181818;stroke-width:1.0;" x1="216.5" x2="394" y1="111.1416" y2="111.1416"/><ellipse cx="17.5" cy="205.1602" fill="#000000" rx="2.5" ry="2.5" style="stroke:#000000;stroke-width:0.0;"/><text fill="#000000" font-family="sans-serif" font-size="13" lengthAdjust="spacing" textLength="103" x="24" y="209.918">CompilationUnit</text><text fill="#000000" font-family="sans-serif" font-size="13" font-weight="bold" lengthAdjust="spacing" textLength="55" x="131" y="209.918">detailed</text><text fill="#000000" font-family="sans-serif" font-size="13" lengthAdjust="spacing" textLength="4" x="190" y="209.918">:</text><text fill="#000000" font-family="sans-serif" font-size="13" lengthAdjust="spacing" textLength="12" x="12" y="225.2285">&#160;&#160;&#160;</text><a href="CompilationUnit-diagram-detailed.svg" target="_top" title="CompilationUnit-diagram-detailed.svg" xlink:actuate="onRequest" xlink:href="CompilationUnit-diagram-detailed.svg" xlink:show="new" xlink:title="CompilationUnit-diagram-detailed.svg" xlink:type="simple"><text fill="#0000FF" font-family="sans-serif" font-size="13" lengthAdjust="spacing" text-decoration="underline" textLength="246" x="24" y="225.2285">CompilationUnit-diagram-detailed.svg</text></a><ellipse cx="17.5" cy="235.7813" fill="#000000" rx="2.5" ry="2.5" style="stroke:#000000;stroke-width:0.0;"/><text fill="#000000" font-family="sans-serif" font-size="13" lengthAdjust="spacing" textLength="78" x="24" y="240.5391">Full diagram</text><text fill="#000000" font-family="sans-serif" font-size="13" font-weight="bold" lengthAdjust="spacing" textLength="67" x="106" y="240.5391">simplified</text><text fill="#000000" font-family="sans-serif" font-size="13" lengthAdjust="spacing" textLength="23" x="177" y="240.5391">and</text><text fill="#000000" font-family="sans-serif" font-size="13" font-weight="bold" lengthAdjust="spacing" textLength="166" x="204" y="240.5391">grouped per namespace</text><text fill="#000000" font-family="sans-serif" font-size="13" lengthAdjust="spacing" textLength="4" x="370" y="240.5391">:</text><text fill="#000000" font-family="sans-serif" font-size="13" lengthAdjust="spacing" textLength="12" x="12" y="255.8496">&#160;&#160;&#160;</text><a href="full-diagram-simplified-grouped-per-namespace.svg" target="_top" title="full-diagram-simplified-grouped-per-namespace.svg" xlink:actuate="onRequest" xlink:href="full-diagram-simplified-grouped-per-namespace.svg" xlink:show="new" xlink:title="full-diagram-simplified-grouped-per-namespace.svg" xlink:type="simple"><text fill="#0000FF" font-family="sans-serif" font-size="13" lengthAdjust="spacing" text-decoration="underline" textLength="343" x="24" y="255.8496">full-diagram-simplified-grouped-per-namespace.svg</text></a><ellipse cx="17.5" cy="266.4023" fill="#000000" rx="2.5" ry="2.5" style="stroke:#000000;stroke-width:0.0;"/><text fill="#000000" font-family="sans-serif" font-size="13" lengthAdjust="spacing" textLength="41" x="24" y="271.1602">Home:</text><text fill="#000000" font-family="sans-serif" font-size="13" lengthAdjust="spacing" textLength="12" x="12" y="286.4707">&#160;&#160;&#160;</text><a href="index.html" target="_top" title="index.html" xlink:actuate="onRequest" xlink:href="index.html" xlink:show="new" xlink:title="index.html" xlink:type="simple"><text fill="#0000FF" font-family="sans-serif" font-size="13" lengthAdjust="spacing" text-decoration="underline" textLength="68" x="24" y="286.4707">index.html</text></a><line style="stroke:#181818;stroke-width:1.0;" x1="7" x2="163.5" y1="189.6943" y2="189.6943"/><line style="stroke:#181818;stroke-width:1.0;" x1="7" x2="163.5" y1="191.6943" y2="191.6943"/><text fill="#000000" font-family="sans-serif" font-size="13" lengthAdjust="spacing" textLength="74" x="163.5" y="194.1074">Select other</text><line style="stroke:#181818;stroke-width:1.0;" x1="237.5" x2="394" y1="189.6943" y2="189.6943"/><line style="stroke:#181818;stroke-width:1.0;" x1="237.5" x2="394" y1="191.6943" y2="191.6943"/></g><!--class CompilationUnit--><a href="CompilationUnit-diagram-simplified.svg" target="_top" title="CompilationUnit-diagram-simplified.svg" xlink:actuate="onRequest" xlink:href="CompilationUnit-diagram-simplified.svg" xlink:show="new" xlink:title="CompilationUnit-diagram-simplified.svg" xlink:type="simple"><g id="elem_CompilationUnit"><rect codeLine="3" fill="#FFFF00" height="48" id="CompilationUnit" rx="2.5" ry="2.5" style="stroke:#181818;stroke-width:0.5;" width="144" x="585.5" y="375.5547"/><ellipse cx="600.5" cy="391.5547" fill="#ADD1B2" rx="11" ry="11" style="stroke:#181818;stroke-width:1.0;"/><path d="M602.9731,397.6978 Q602.3921,397.9966 601.7529,398.146 Q601.1138,398.2954 600.4082,398.2954 Q597.9014,398.2954 596.5815,396.6436 Q595.2617,394.9917 595.2617,391.8706 Q595.2617,388.7412 596.5815,387.0894 Q597.9014,385.4375 600.4082,385.4375 Q601.1138,385.4375 601.7612,385.5869 Q602.4087,385.7363 602.9731,386.0352 L602.9731,388.7578 Q602.3423,388.1768 601.7488,387.907 Q601.1553,387.6372 600.5244,387.6372 Q599.1797,387.6372 598.4949,388.7039 Q597.8101,389.7705 597.8101,391.8706 Q597.8101,393.9624 598.4949,395.0291 Q599.1797,396.0957 600.5244,396.0957 Q601.1553,396.0957 601.7488,395.8259 Q602.3423,395.5562 602.9731,394.9751 Z " fill="#000000"/><text fill="#000000" font-family="sans-serif" font-size="14" lengthAdjust="spacing" textLength="112" x="614.5" y="396.8457">CompilationUnit</text><line style="stroke:#181818;stroke-width:0.5;" x1="586.5" x2="728.5" y1="407.5547" y2="407.5547"/><line style="stroke:#181818;stroke-width:0.5;" x1="586.5" x2="728.5" y1="415.5547" y2="415.5547"/></g></a><!--link ASTVisitor to CompilationUnit--><g id="link_ASTVisitor_CompilationUnit"><path codeLine="18" d="M508.92,199.0247 C517.99,234.1147 539.01,300.9147 576.5,345.5547 C585.01,355.6847 595.95,364.6047 607.02,372.0947 " fill="none" id="ASTVisitor-to-CompilationUnit" style="stroke:#909090;stroke-width:1.0;"/><polygon fill="#909090" points="610.76,375.2147,605.4574,366.9151,606.5888,372.4577,601.0462,373.5891,610.76,375.2147" style="stroke:#909090;stroke-width:1.0;"/><text fill="#000000" font-family="sans-serif" font-size="13" lengthAdjust="spacing" textLength="29" x="577.5" y="342.123">uses</text></g><!--link ASTVisitorDebug to CompilationUnit--><g id="link_ASTVisitorDebug_CompilationUnit"><path codeLine="19" d="M649.88,198.8747 C631.12,231.8347 602.87,293.8147 619.5,345.5547 C622.34,354.3947 627.26,363.0047 632.63,370.6347 " fill="none" id="ASTVisitorDebug-to-CompilationUnit" style="stroke:#6060BB;stroke-width:1.0;stroke-dasharray:7.0,7.0;"/><polygon fill="#6060BB" points="636.02,374.2447,633.8968,364.6274,633.0521,370.2208,627.4586,369.3761,636.02,374.2447" style="stroke:#6060BB;stroke-width:1.0;"/><text fill="#000000" font-family="sans-serif" font-size="13" lengthAdjust="spacing" textLength="29" x="620.5" y="342.123">uses</text></g><!--link ASTVisitorDebug to CompilationUnit--><g id="link_ASTVisitorDebug_CompilationUnit"><path codeLine="20" d="M663.76,198.9947 C662.48,239.9847 659.82,324.5647 658.42,369.3147 " fill="none" id="ASTVisitorDebug-to-CompilationUnit-1" style="stroke:#909090;stroke-width:1.0;"/><polygon fill="#909090" points="658.24,374.0947,662.5207,365.2248,658.3971,369.0972,654.5247,364.9735,658.24,374.0947" style="stroke:#909090;stroke-width:1.0;"/><text fill="#000000" font-family="sans-serif" font-size="13" lengthAdjust="spacing" textLength="29" x="660.5" y="342.123">uses</text></g><!--link AnalyzeAST to CompilationUnit--><g id="link_AnalyzeAST_CompilationUnit"><path codeLine="23" d="M834.3,198.7947 C815.42,223.9547 783.87,264.9947 754.5,298.5547 C732.19,324.0447 705.26,351.5647 685.45,371.2747 " fill="none" id="AnalyzeAST-to-CompilationUnit" style="stroke:#909090;stroke-width:1.0;"/><polygon fill="#909090" points="682.33,374.3647,691.5436,370.8849,685.8869,370.8506,685.9212,365.1939,682.33,374.3647" style="stroke:#909090;stroke-width:1.0;"/><text fill="#000000" font-family="sans-serif" font-size="13" lengthAdjust="spacing" textLength="29" x="726.5" y="342.123">uses</text></g><!--SRC=[jLDDQzj04BthLmpn8R0WnVGGg8aDIOhfgPUqXIBfiDMEbA6hNR6xIfEK_lVEIlwWDh7Tb5XW9CsRzzxiF0KA6k7AqpFEtaqNjxRjICj0rdmn5408JssdgIPKGi3LHGGk4cC3mjatspkG3a4QgP-UoJIpmXnXA4nXvlCbwO1kFYyCSq0b3LIQgX-05ExH0V-1aItwJbRekSSw1aZlnxTGytCzKB1cHBTiGSKRSeLHvB0AeB13ez1KX3uRPUzGnugD8b5SmBvRXK6I7hpoD02GvpkWL95id6pJDJJp3qrPHhfbhpMiohkJHuT2DCxs7IheUCpDY4AifMecsF1lszDLMyfjwQPjg_lHjhYc81xwCRiFhIxBCv0UbjgoTzDyugKbup7kZltoZ5iFenfCdb1h-nD-9RyJM6sbSoYLx7WVcRAj99DTttt-Ifu2BohF3vLV5c85WDCqFk3tlZaYD61Ue-RHFH0VzlKGScJ6lvNswyTLpZa99_tWpR3dS3jCwd3SkWTy34vMWSDPEzjkqpbZx3_2znQH78n8ca_UJ-DLfekzRC8CUiyVVN8y0La-kPnUJczkoko_U4xpy-eZMIKcEHooaqpy0G00]--></g></svg>