<?xml version="1.0" encoding="us-ascii" standalone="no"?><svg xmlns="http://www.w3.org/2000/svg" xmlns:xlink="http://www.w3.org/1999/xlink" contentStyleType="text/css" height="430px" preserveAspectRatio="none" style="width:1115px;height:430px;background:#FFFFFF;" version="1.1" viewBox="0 0 1115 430" width="1115px" zoomAndPan="magnify"><defs/><g><text fill="#000000" font-family="sans-serif" font-size="20" font-weight="bold" lengthAdjust="spacing" textLength="102" x="303.75" y="29.3359">EnumTest</text><text fill="#000000" font-family="sans-serif" font-size="20" font-weight="bold" lengthAdjust="spacing" textLength="84" x="412.75" y="29.3359">detailed</text><text fill="#000000" font-family="sans-serif" font-size="20" font-weight="bold" lengthAdjust="spacing" textLength="38" x="503.75" y="29.3359">and</text><text fill="#000000" font-family="sans-serif" font-size="20" font-weight="bold" lengthAdjust="spacing" textLength="249" x="548.75" y="29.3359">grouped per namespace</text><!--cluster Example--><g id="cluster_Example"><a href="Example-diagram-detailed-grouped-per-namespace.svg" target="_top" title="Example-diagram-detailed-grouped-per-namespace.svg" xlink:actuate="onRequest" xlink:href="Example-diagram-detailed-grouped-per-namespace.svg" xlink:show="new" xlink:title="Example-diagram-detailed-grouped-per-namespace.svg" xlink:type="simple"><path d="M451,62.0547 L512,62.0547 A3.75,3.75 0 0 1 514.5,64.5547 L521.5,84.543 L1106,84.543 A2.5,2.5 0 0 1 1108.5,87.043 L1108.5,265.5547 A2.5,2.5 0 0 1 1106,268.0547 L451,268.0547 A2.5,2.5 0 0 1 448.5,265.5547 L448.5,64.5547 A2.5,2.5 0 0 1 451,62.0547 " fill="none" style="stroke:#000000;stroke-width:1.5;"/><line style="stroke:#000000;stroke-width:1.5;" x1="448.5" x2="521.5" y1="84.543" y2="84.543"/><text fill="#000000" font-family="sans-serif" font-size="14" font-weight="bold" lengthAdjust="spacing" textLength="60" x="452.5" y="77.5898">Example</text></a></g><!--class ClassExample--><a href="Example.ClassExample-diagram-detailed-grouped-per-namespace.svg" target="_top" title="Example.ClassExample-diagram-detailed-grouped-per-namespace.svg" xlink:actuate="onRequest" xlink:href="Example.ClassExample-diagram-detailed-grouped-per-namespace.svg" xlink:show="new" xlink:title="Example.ClassExample-diagram-detailed-grouped-per-namespace.svg" xlink:type="simple"><g id="elem_ClassExample"><rect codeLine="7" fill="#F1F1F1" height="154.9297" id="ClassExample" rx="2.5" ry="2.5" style="stroke:#181818;stroke-width:0.5;" width="628" x="464.5" y="97.0547"/><ellipse cx="726.75" cy="113.0547" fill="#ADD1B2" rx="11" ry="11" style="stroke:#181818;stroke-width:1.0;"/><path d="M729.2231,119.1978 Q728.6421,119.4966 728.0029,119.646 Q727.3638,119.7954 726.6582,119.7954 Q724.1514,119.7954 722.8315,118.1436 Q721.5117,116.4917 721.5117,113.3706 Q721.5117,110.2412 722.8315,108.5894 Q724.1514,106.9375 726.6582,106.9375 Q727.3638,106.9375 728.0112,107.0869 Q728.6587,107.2363 729.2231,107.5352 L729.2231,110.2578 Q728.5923,109.6768 727.9988,109.407 Q727.4053,109.1372 726.7744,109.1372 Q725.4297,109.1372 724.7449,110.2039 Q724.0601,111.2705 724.0601,113.3706 Q724.0601,115.4624 724.7449,116.5291 Q725.4297,117.5957 726.7744,117.5957 Q727.4053,117.5957 727.9988,117.3259 Q728.5923,117.0562 729.2231,116.4751 Z " fill="#000000"/><text fill="#000000" font-family="sans-serif" font-size="14" lengthAdjust="spacing" textLength="95" x="747.25" y="118.3457">ClassExample</text><line style="stroke:#181818;stroke-width:0.5;" x1="465.5" x2="1091.5" y1="129.0547" y2="129.0547"/><ellipse cx="475.5" cy="142.7988" fill="none" rx="3" ry="3" style="stroke:#038048;stroke-width:1.0;"/><text fill="#000000" font-family="sans-serif" font-size="14" lengthAdjust="spacing" textLength="253" x="484.5" y="146.5898">memberVarUseless: Example.Useless</text><ellipse cx="475.5" cy="159.2871" fill="none" rx="3" ry="3" style="stroke:#038048;stroke-width:1.0;"/><text fill="#000000" font-family="sans-serif" font-size="14" lengthAdjust="spacing" textLength="224" x="484.5" y="163.0781">memberVarEnumTest: EnumTest</text><line style="stroke:#181818;stroke-width:1.0;" x1="465.5" x2="1091.5" y1="170.0313" y2="170.0313"/><line style="stroke:#181818;stroke-width:1.0;" x1="465.5" x2="1091.5" y1="172.0313" y2="172.0313"/><ellipse cx="475.5" cy="183.7754" fill="#84BE84" rx="3" ry="3" style="stroke:#038048;stroke-width:1.0;"/><text fill="#000000" font-family="sans-serif" font-size="14" lengthAdjust="spacing" textLength="64" x="484.5" y="187.5664">example(</text><text fill="#6060BB" font-family="sans-serif" font-size="14" lengthAdjust="spacing" textLength="362" x="548.5" y="187.5664">example:Example.Useless, example:Example.Useless</text><text fill="#000000" font-family="sans-serif" font-size="14" lengthAdjust="spacing" textLength="5" x="910.5" y="187.5664">)</text><rect fill="none" height="6" style="stroke:#C82930;stroke-width:1.0;" width="6" x="472.5" y="197.2637"/><text fill="#909090" font-family="sans-serif" font-size="14" lengthAdjust="spacing" textLength="369" x="484.5" y="204.0547">example.localVarBaseExample: Example.BaseExample</text><line style="stroke:#181818;stroke-width:1.0;" x1="465.5" x2="1091.5" y1="211.0078" y2="211.0078"/><ellipse cx="475.5" cy="224.752" fill="#84BE84" rx="3" ry="3" style="stroke:#038048;stroke-width:1.0;"/><text fill="#000000" font-family="sans-serif" font-size="14" lengthAdjust="spacing" textLength="86" x="484.5" y="228.543">getExample(</text><text fill="#000000" font-family="sans-serif" font-size="14" lengthAdjust="spacing" textLength="5" x="570.5" y="228.543">)</text><ellipse cx="475.5" cy="241.2402" fill="#84BE84" rx="3" ry="3" style="stroke:#038048;stroke-width:1.0;"/><text fill="#000000" font-family="sans-serif" font-size="14" lengthAdjust="spacing" textLength="121" x="484.5" y="245.0313">exampleAbstract(</text><text fill="#6060BB" font-family="sans-serif" font-size="14" lengthAdjust="spacing" textLength="476" x="605.5" y="245.0313">exampleAbstract:Example.Useless, exampleAbstract:Example.Useless</text><text fill="#000000" font-family="sans-serif" font-size="14" lengthAdjust="spacing" textLength="5" x="1081.5" y="245.0313">)</text></g></a><g id="elem_FloatingNote"><path d="M6,50.5547 L6,298.2129 L429,298.2129 L429,60.5547 L419,50.5547 L6,50.5547 " fill="#FEFFDD" style="stroke:#181818;stroke-width:0.5;"/><path d="M419,50.5547 L419,60.5547 L429,60.5547 L419,50.5547 " fill="#FEFFDD" style="stroke:#181818;stroke-width:1.0;"/><text fill="#000000" font-family="sans-serif" font-size="13" lengthAdjust="spacing" textLength="120" x="12" y="68.123">Your are analyzing:</text><text fill="#000000" font-family="sans-serif" font-size="13" lengthAdjust="spacing" textLength="62" x="12" y="83.4336">EnumTest</text><text fill="#000000" font-family="sans-serif" font-size="13" font-weight="bold" lengthAdjust="spacing" textLength="55" x="78" y="83.4336">detailed</text><text fill="#000000" font-family="sans-serif" font-size="13" lengthAdjust="spacing" textLength="23" x="137" y="83.4336">and</text><text fill="#000000" font-family="sans-serif" font-size="13" font-weight="bold" lengthAdjust="spacing" textLength="166" x="164" y="83.4336">grouped per namespace</text><text fill="#000000" font-family="sans-serif" font-size="13" lengthAdjust="spacing" textLength="4" x="12" y="98.7441">&#160;</text><text fill="#000000" font-family="sans-serif" font-size="13" lengthAdjust="spacing" textLength="229" x="12" y="129.3652">You can click either the namespaces</text><text fill="#000000" font-family="sans-serif" font-size="13" lengthAdjust="spacing" textLength="266" x="12" y="144.6758">or class names for filtering them and their</text><text fill="#000000" font-family="sans-serif" font-size="13" lengthAdjust="spacing" textLength="130" x="12" y="159.9863">direct dependencies.</text><text fill="#000000" font-family="sans-serif" font-size="13" lengthAdjust="spacing" textLength="4" x="12" y="175.2969">&#160;</text><line style="stroke:#181818;stroke-width:1.0;" x1="7" x2="201.5" y1="109.1416" y2="109.1416"/><line style="stroke:#181818;stroke-width:1.0;" x1="7" x2="201.5" y1="111.1416" y2="111.1416"/><text fill="#000000" font-family="sans-serif" font-size="13" lengthAdjust="spacing" textLength="32" x="201.5" y="113.5547">Filter</text><line style="stroke:#181818;stroke-width:1.0;" x1="233.5" x2="428" y1="109.1416" y2="109.1416"/><line style="stroke:#181818;stroke-width:1.0;" x1="233.5" x2="428" y1="111.1416" y2="111.1416"/><ellipse cx="17.5" cy="205.1602" fill="#000000" rx="2.5" ry="2.5" style="stroke:#000000;stroke-width:0.0;"/><text fill="#000000" font-family="sans-serif" font-size="13" lengthAdjust="spacing" textLength="62" x="24" y="209.918">EnumTest</text><text fill="#000000" font-family="sans-serif" font-size="13" font-weight="bold" lengthAdjust="spacing" textLength="67" x="90" y="209.918">simplified</text><text fill="#000000" font-family="sans-serif" font-size="13" lengthAdjust="spacing" textLength="23" x="161" y="209.918">and</text><text fill="#000000" font-family="sans-serif" font-size="13" font-weight="bold" lengthAdjust="spacing" textLength="166" x="188" y="209.918">grouped per namespace</text><text fill="#000000" font-family="sans-serif" font-size="13" lengthAdjust="spacing" textLength="4" x="354" y="209.918">:</text><text fill="#000000" font-family="sans-serif" font-size="13" lengthAdjust="spacing" textLength="12" x="12" y="225.2285">&#160;&#160;&#160;</text><a href="EnumTest-diagram-simplified-grouped-per-namespace.svg" target="_top" title="EnumTest-diagram-simplified-grouped-per-namespace.svg" xlink:actuate="onRequest" xlink:href="EnumTest-diagram-simplified-grouped-per-namespace.svg" xlink:show="new" xlink:title="EnumTest-diagram-simplified-grouped-per-namespace.svg" xlink:type="simple"><text fill="#0000FF" font-family="sans-serif" font-size="13" lengthAdjust="spacing" text-decoration="underline" textLength="384" x="24" y="225.2285">EnumTest-diagram-simplified-grouped-per-namespace.svg</text></a><ellipse cx="17.5" cy="235.7813" fill="#000000" rx="2.5" ry="2.5" style="stroke:#000000;stroke-width:0.0;"/><text fill="#000000" font-family="sans-serif" font-size="13" lengthAdjust="spacing" textLength="78" x="24" y="240.5391">Full diagram</text><text fill="#000000" font-family="sans-serif" font-size="13" font-weight="bold" lengthAdjust="spacing" textLength="55" x="106" y="240.5391">detailed</text><text fill="#000000" font-family="sans-serif" font-size="13" lengthAdjust="spacing" textLength="23" x="165" y="240.5391">and</text><text fill="#000000" font-family="sans-serif" font-size="13" font-weight="bold" lengthAdjust="spacing" textLength="166" x="192" y="240.5391">grouped per namespace</text><text fill="#000000" font-family="sans-serif" font-size="13" lengthAdjust="spacing" textLength="4" x="358" y="240.5391">:</text><text fill="#000000" font-family="sans-serif" font-size="13" lengthAdjust="spacing" textLength="12" x="12" y="255.8496">&#160;&#160;&#160;</text><a href="full-diagram-detailed-grouped-per-namespace.svg" target="_top" title="full-diagram-detailed-grouped-per-namespace.svg" xlink:actuate="onRequest" xlink:href="full-diagram-detailed-grouped-per-namespace.svg" xlink:show="new" xlink:title="full-diagram-detailed-grouped-per-namespace.svg" xlink:type="simple"><text fill="#0000FF" font-family="sans-serif" font-size="13" lengthAdjust="spacing" text-decoration="underline" textLength="330" x="24" y="255.8496">full-diagram-detailed-grouped-per-namespace.svg</text></a><ellipse cx="17.5" cy="266.4023" fill="#000000" rx="2.5" ry="2.5" style="stroke:#000000;stroke-width:0.0;"/><text fill="#000000" font-family="sans-serif" font-size="13" lengthAdjust="spacing" textLength="41" x="24" y="271.1602">Home:</text><text fill="#000000" font-family="sans-serif" font-size="13" lengthAdjust="spacing" textLength="12" x="12" y="286.4707">&#160;&#160;&#160;</text><a href="index.html" target="_top" title="index.html" xlink:actuate="onRequest" xlink:href="index.html" xlink:show="new" xlink:title="index.html" xlink:type="simple"><text fill="#0000FF" font-family="sans-serif" font-size="13" lengthAdjust="spacing" text-decoration="underline" textLength="68" x="24" y="286.4707">index.html</text></a><line style="stroke:#181818;stroke-width:1.0;" x1="7" x2="180.5" y1="189.6943" y2="189.6943"/><line style="stroke:#181818;stroke-width:1.0;" x1="7" x2="180.5" y1="191.6943" y2="191.6943"/><text fill="#000000" font-family="sans-serif" font-size="13" lengthAdjust="spacing" textLength="74" x="180.5" y="194.1074">Select other</text><line style="stroke:#181818;stroke-width:1.0;" x1="254.5" x2="428" y1="189.6943" y2="189.6943"/><line style="stroke:#181818;stroke-width:1.0;" x1="254.5" x2="428" y1="191.6943" y2="191.6943"/></g><!--class EnumTest--><a href="EnumTest-diagram-detailed-grouped-per-namespace.svg" target="_top" title="EnumTest-diagram-detailed-grouped-per-namespace.svg" xlink:actuate="onRequest" xlink:href="EnumTest-diagram-detailed-grouped-per-namespace.svg" xlink:show="new" xlink:title="EnumTest-diagram-detailed-grouped-per-namespace.svg" xlink:type="simple"><g id="elem_EnumTest"><rect codeLine="3" fill="#FFFF00" height="48" id="EnumTest" rx="2.5" ry="2.5" style="stroke:#181818;stroke-width:0.5;" width="100" x="728.5" y="375.5547"/><ellipse cx="743.5" cy="391.5547" fill="#ADD1B2" rx="11" ry="11" style="stroke:#181818;stroke-width:1.0;"/><path d="M745.9731,397.6978 Q745.3921,397.9966 744.7529,398.146 Q744.1138,398.2954 743.4082,398.2954 Q740.9014,398.2954 739.5815,396.6436 Q738.2617,394.9917 738.2617,391.8706 Q738.2617,388.7412 739.5815,387.0894 Q740.9014,385.4375 743.4082,385.4375 Q744.1138,385.4375 744.7612,385.5869 Q745.4087,385.7363 745.9731,386.0352 L745.9731,388.7578 Q745.3423,388.1768 744.7488,387.907 Q744.1553,387.6372 743.5244,387.6372 Q742.1797,387.6372 741.4949,388.7039 Q740.8101,389.7705 740.8101,391.8706 Q740.8101,393.9624 741.4949,395.0291 Q742.1797,396.0957 743.5244,396.0957 Q744.1553,396.0957 744.7488,395.8259 Q745.3423,395.5562 745.9731,394.9751 Z " fill="#000000"/><text fill="#000000" font-family="sans-serif" font-size="14" lengthAdjust="spacing" textLength="68" x="757.5" y="396.8457">EnumTest</text><line style="stroke:#181818;stroke-width:0.5;" x1="729.5" x2="827.5" y1="407.5547" y2="407.5547"/><line style="stroke:#181818;stroke-width:0.5;" x1="729.5" x2="827.5" y1="415.5547" y2="415.5547"/></g></a><!--link ClassExample to EnumTest--><g id="link_ClassExample_EnumTest"><path codeLine="28" d="M778.5,252.2947 C778.5,292.6947 778.5,339.8547 778.5,369.4647 " fill="none" id="ClassExample-to-EnumTest" style="stroke:#6060BB;stroke-width:1.0;stroke-dasharray:7.0,7.0;"/><polygon fill="#6060BB" points="778.5,374.1447,782.5,365.1447,778.5,369.1447,774.5,365.1447,778.5,374.1447" style="stroke:#6060BB;stroke-width:1.0;"/><text fill="#000000" font-family="sans-serif" font-size="13" lengthAdjust="spacing" textLength="29" x="779.5" y="342.123">uses</text></g><!--SRC=[jLJBRjim4BphAnRE8QrQAKOF0IfO1ch3Ha-vz04Kbc7GqiecIf42IUM9_dkMrijfuYGk6jim979dPcTtISkjG1WPVelHf-5u9glYEneBlf-XPLnWvll0P4OB6wsg4ZCeKODa1PgIfUZxepC77djIMOJ1BrLfO1e9myJDBPURA97_m9h8HCRnd0kBEeuJIRoGCWcfuEblG6wt54z_FSP08fMc06PClGevlUSx2ih3HHSxKNhWEf4PrvXQoB14cQ5CEPgmbls6mkqe9-B4VTXpO7XH2fxpbpsGSm1OB5fma76sqQm8UegWWGO43JfeQ2utowNJdLT2G0CxedgjSaxmJhK5lwJvLHNO4d2gp7MujOLOBWV03Co5OfQgUK7TzkfQTxLvmkbhDE7a1eLGLt3d_V5EOIgKSUrYvBpKUCbLPLQcMgyws4fmKkjUuK99X3Mch3Be-jqCd-46w9TpoSqMiz3h4RDhHXr0bt7zT5p2Twtp6XnEtTiZpWVBnmcG0i07AB1Oe_x9z0z34sbCr2as2m-Zskf7NKkyEDw5O0rxDygLj90geNGyE1-U3oUJmRZPZFxY_WW7DaPdZcNydfW3UC3uUUY-7MCeLCe49JPX1XkItiBUOiFe1S4ksmtQsNC9xoNGMVkoDbQpr3vhiGqwQFLGGAT80pfLHKaNN0R_RvpWYkupe6cnG785aW6LmziUXfxxaGzo2QTqkRpg0syMwp9qfqoZe2j7IKDTsdM7QfzhLVI9HnHxP7XhzSaZ72vEwibPXkF-UeC8gAO6xW40]--></g></svg>