<?xml version="1.0" encoding="us-ascii" standalone="no"?><svg xmlns="http://www.w3.org/2000/svg" xmlns:xlink="http://www.w3.org/1999/xlink" contentStyleType="text/css" height="537px" preserveAspectRatio="none" style="width:1218px;height:537px;background:#FFFFFF;" version="1.1" viewBox="0 0 1218 537" width="1218px" zoomAndPan="magnify"><defs/><g><text fill="#000000" font-family="sans-serif" font-size="20" font-weight="bold" lengthAdjust="spacing" textLength="496" x="148.25" y="29.3359">Example.ClassExample_DOT_InnerClassExample</text><text fill="#000000" font-family="sans-serif" font-size="20" font-weight="bold" lengthAdjust="spacing" textLength="104" x="651.25" y="29.3359">simplified</text><text fill="#000000" font-family="sans-serif" font-size="20" font-weight="bold" lengthAdjust="spacing" textLength="38" x="762.25" y="29.3359">and</text><text fill="#000000" font-family="sans-serif" font-size="20" font-weight="bold" lengthAdjust="spacing" textLength="249" x="807.25" y="29.3359">grouped per namespace</text><!--cluster Example--><g id="cluster_Example"><a href="Example-diagram-simplified-grouped-per-namespace.svg" target="_top" title="Example-diagram-simplified-grouped-per-namespace.svg" xlink:actuate="onRequest" xlink:href="Example-diagram-simplified-grouped-per-namespace.svg" xlink:show="new" xlink:title="Example-diagram-simplified-grouped-per-namespace.svg" xlink:type="simple"><path d="M678,115.5547 L739,115.5547 A3.75,3.75 0 0 1 741.5,118.0547 L748.5,138.043 L1209,138.043 A2.5,2.5 0 0 1 1211.5,140.543 L1211.5,528.0547 A2.5,2.5 0 0 1 1209,530.5547 L678,530.5547 A2.5,2.5 0 0 1 675.5,528.0547 L675.5,118.0547 A2.5,2.5 0 0 1 678,115.5547 " fill="none" style="stroke:#000000;stroke-width:1.5;"/><line style="stroke:#000000;stroke-width:1.5;" x1="675.5" x2="748.5" y1="138.043" y2="138.043"/><text fill="#000000" font-family="sans-serif" font-size="14" font-weight="bold" lengthAdjust="spacing" textLength="60" x="679.5" y="131.0898">Example</text></a></g><!--class ClassExample_DOT_InnerClassExample--><a href="Example.ClassExample_DOT_InnerClassExample-diagram-simplified-grouped-per-namespace.svg" target="_top" title="Example.ClassExample_DOT_InnerClassExample-diagram-simplified-grouped-per-namespace.svg" xlink:actuate="onRequest" xlink:href="Example.ClassExample_DOT_InnerClassExample-diagram-simplified-grouped-per-namespace.svg" xlink:show="new" xlink:title="Example.ClassExample_DOT_InnerClassExample-diagram-simplified-grouped-per-namespace.svg" xlink:type="simple"><g id="elem_ClassExample_DOT_InnerClassExample"><rect codeLine="4" fill="#FFFF00" height="48" id="ClassExample_DOT_InnerClassExample" rx="2.5" ry="2.5" style="stroke:#181818;stroke-width:0.5;" width="302" x="792.5" y="358.5547"/><ellipse cx="807.5" cy="374.5547" fill="#ADD1B2" rx="11" ry="11" style="stroke:#181818;stroke-width:1.0;"/><path d="M809.9731,380.6978 Q809.3921,380.9966 808.7529,381.146 Q808.1138,381.2954 807.4082,381.2954 Q804.9014,381.2954 803.5815,379.6436 Q802.2617,377.9917 802.2617,374.8706 Q802.2617,371.7412 803.5815,370.0894 Q804.9014,368.4375 807.4082,368.4375 Q808.1138,368.4375 808.7612,368.5869 Q809.4087,368.7363 809.9731,369.0352 L809.9731,371.7578 Q809.3423,371.1768 808.7488,370.907 Q808.1553,370.6372 807.5244,370.6372 Q806.1797,370.6372 805.4949,371.7039 Q804.8101,372.7705 804.8101,374.8706 Q804.8101,376.9624 805.4949,378.0291 Q806.1797,379.0957 807.5244,379.0957 Q808.1553,379.0957 808.7488,378.8259 Q809.3423,378.5562 809.9731,377.9751 Z " fill="#000000"/><text fill="#000000" font-family="sans-serif" font-size="14" lengthAdjust="spacing" textLength="270" x="821.5" y="379.8457">ClassExample_DOT_InnerClassExample</text><line style="stroke:#181818;stroke-width:0.5;" x1="793.5" x2="1093.5" y1="390.5547" y2="390.5547"/><line style="stroke:#181818;stroke-width:0.5;" x1="793.5" x2="1093.5" y1="398.5547" y2="398.5547"/></g></a><!--class ClassExample_DOT_InnerClassExample_DOT_classInMethodExample--><a href="Example.ClassExample_DOT_InnerClassExample_DOT_classInMethodExample-diagram-simplified-grouped-per-namespace.svg" target="_top" title="Example.ClassExample_DOT_InnerClassExample_DOT_classInMethodExample-diagram-simplified-grouped-per-namespace.svg" xlink:actuate="onRequest" xlink:href="Example.ClassExample_DOT_InnerClassExample_DOT_classInMethodExample-diagram-simplified-grouped-per-namespace.svg" xlink:show="new" xlink:title="Example.ClassExample_DOT_InnerClassExample_DOT_classInMethodExample-diagram-simplified-grouped-per-namespace.svg" xlink:type="simple"><g id="elem_ClassExample_DOT_InnerClassExample_DOT_classInMethodExample"><rect codeLine="6" fill="#F1F1F1" height="48" id="ClassExample_DOT_InnerClassExample_DOT_classInMethodExample" rx="2.5" ry="2.5" style="stroke:#181818;stroke-width:0.5;" width="503" x="692" y="466.5547"/><ellipse cx="707" cy="482.5547" fill="#ADD1B2" rx="11" ry="11" style="stroke:#181818;stroke-width:1.0;"/><path d="M709.4731,488.6978 Q708.8921,488.9966 708.2529,489.146 Q707.6138,489.2954 706.9082,489.2954 Q704.4014,489.2954 703.0815,487.6436 Q701.7617,485.9917 701.7617,482.8706 Q701.7617,479.7412 703.0815,478.0894 Q704.4014,476.4375 706.9082,476.4375 Q707.6138,476.4375 708.2612,476.5869 Q708.9087,476.7363 709.4731,477.0352 L709.4731,479.7578 Q708.8423,479.1768 708.2488,478.907 Q707.6553,478.6372 707.0244,478.6372 Q705.6797,478.6372 704.9949,479.7039 Q704.3101,480.7705 704.3101,482.8706 Q704.3101,484.9624 704.9949,486.0291 Q705.6797,487.0957 707.0244,487.0957 Q707.6553,487.0957 708.2488,486.8259 Q708.8423,486.5562 709.4731,485.9751 Z " fill="#000000"/><text fill="#000000" font-family="sans-serif" font-size="14" lengthAdjust="spacing" textLength="471" x="721" y="487.8457">ClassExample_DOT_InnerClassExample_DOT_classInMethodExample</text><line style="stroke:#181818;stroke-width:0.5;" x1="693" x2="1194" y1="498.5547" y2="498.5547"/><line style="stroke:#181818;stroke-width:0.5;" x1="693" x2="1194" y1="506.5547" y2="506.5547"/></g></a><!--class ClassExample--><a href="Example.ClassExample-diagram-simplified-grouped-per-namespace.svg" target="_top" title="Example.ClassExample-diagram-simplified-grouped-per-namespace.svg" xlink:actuate="onRequest" xlink:href="Example.ClassExample-diagram-simplified-grouped-per-namespace.svg" xlink:show="new" xlink:title="Example.ClassExample-diagram-simplified-grouped-per-namespace.svg" xlink:type="simple"><g id="elem_ClassExample"><rect codeLine="8" fill="#F1F1F1" height="48" id="ClassExample" rx="2.5" ry="2.5" style="stroke:#181818;stroke-width:0.5;" width="127" x="880" y="150.5547"/><ellipse cx="895" cy="166.5547" fill="#ADD1B2" rx="11" ry="11" style="stroke:#181818;stroke-width:1.0;"/><path d="M897.4731,172.6978 Q896.8921,172.9966 896.2529,173.146 Q895.6138,173.2954 894.9082,173.2954 Q892.4014,173.2954 891.0815,171.6436 Q889.7617,169.9917 889.7617,166.8706 Q889.7617,163.7412 891.0815,162.0894 Q892.4014,160.4375 894.9082,160.4375 Q895.6138,160.4375 896.2612,160.5869 Q896.9087,160.7363 897.4731,161.0352 L897.4731,163.7578 Q896.8423,163.1768 896.2488,162.907 Q895.6553,162.6372 895.0244,162.6372 Q893.6797,162.6372 892.9949,163.7039 Q892.3101,164.7705 892.3101,166.8706 Q892.3101,168.9624 892.9949,170.0291 Q893.6797,171.0957 895.0244,171.0957 Q895.6553,171.0957 896.2488,170.8259 Q896.8423,170.5562 897.4731,169.9751 Z " fill="#000000"/><text fill="#000000" font-family="sans-serif" font-size="14" lengthAdjust="spacing" textLength="95" x="909" y="171.8457">ClassExample</text><line style="stroke:#181818;stroke-width:0.5;" x1="881" x2="1006" y1="182.5547" y2="182.5547"/><line style="stroke:#181818;stroke-width:0.5;" x1="881" x2="1006" y1="190.5547" y2="190.5547"/></g></a><g id="elem_FloatingNote"><path d="M6,50.5547 L6,298.2129 L659,298.2129 L659,60.5547 L649,50.5547 L6,50.5547 " fill="#FEFFDD" style="stroke:#181818;stroke-width:0.5;"/><path d="M649,50.5547 L649,60.5547 L659,60.5547 L649,50.5547 " fill="#FEFFDD" style="stroke:#181818;stroke-width:1.0;"/><text fill="#000000" font-family="sans-serif" font-size="13" lengthAdjust="spacing" textLength="120" x="12" y="68.123">Your are analyzing:</text><text fill="#000000" font-family="sans-serif" font-size="13" lengthAdjust="spacing" textLength="305" x="12" y="83.4336">Example.ClassExample_DOT_InnerClassExample</text><text fill="#000000" font-family="sans-serif" font-size="13" font-weight="bold" lengthAdjust="spacing" textLength="67" x="321" y="83.4336">simplified</text><text fill="#000000" font-family="sans-serif" font-size="13" lengthAdjust="spacing" textLength="23" x="392" y="83.4336">and</text><text fill="#000000" font-family="sans-serif" font-size="13" font-weight="bold" lengthAdjust="spacing" textLength="166" x="419" y="83.4336">grouped per namespace</text><text fill="#000000" font-family="sans-serif" font-size="13" lengthAdjust="spacing" textLength="4" x="12" y="98.7441">&#160;</text><text fill="#000000" font-family="sans-serif" font-size="13" lengthAdjust="spacing" textLength="229" x="12" y="129.3652">You can click either the namespaces</text><text fill="#000000" font-family="sans-serif" font-size="13" lengthAdjust="spacing" textLength="266" x="12" y="144.6758">or class names for filtering them and their</text><text fill="#000000" font-family="sans-serif" font-size="13" lengthAdjust="spacing" textLength="130" x="12" y="159.9863">direct dependencies.</text><text fill="#000000" font-family="sans-serif" font-size="13" lengthAdjust="spacing" textLength="4" x="12" y="175.2969">&#160;</text><line style="stroke:#181818;stroke-width:1.0;" x1="7" x2="316.5" y1="109.1416" y2="109.1416"/><line style="stroke:#181818;stroke-width:1.0;" x1="7" x2="316.5" y1="111.1416" y2="111.1416"/><text fill="#000000" font-family="sans-serif" font-size="13" lengthAdjust="spacing" textLength="32" x="316.5" y="113.5547">Filter</text><line style="stroke:#181818;stroke-width:1.0;" x1="348.5" x2="658" y1="109.1416" y2="109.1416"/><line style="stroke:#181818;stroke-width:1.0;" x1="348.5" x2="658" y1="111.1416" y2="111.1416"/><ellipse cx="17.5" cy="205.1602" fill="#000000" rx="2.5" ry="2.5" style="stroke:#000000;stroke-width:0.0;"/><text fill="#000000" font-family="sans-serif" font-size="13" lengthAdjust="spacing" textLength="305" x="24" y="209.918">Example.ClassExample_DOT_InnerClassExample</text><text fill="#000000" font-family="sans-serif" font-size="13" font-weight="bold" lengthAdjust="spacing" textLength="55" x="333" y="209.918">detailed</text><text fill="#000000" font-family="sans-serif" font-size="13" lengthAdjust="spacing" textLength="23" x="392" y="209.918">and</text><text fill="#000000" font-family="sans-serif" font-size="13" font-weight="bold" lengthAdjust="spacing" textLength="166" x="419" y="209.918">grouped per namespace</text><text fill="#000000" font-family="sans-serif" font-size="13" lengthAdjust="spacing" textLength="4" x="585" y="209.918">:</text><text fill="#000000" font-family="sans-serif" font-size="13" lengthAdjust="spacing" textLength="12" x="12" y="225.2285">&#160;&#160;&#160;</text><a href="Example.ClassExample_DOT_InnerClassExample-diagram-detailed-grouped-per-namespace.svg" target="_top" title="Example.ClassExample_DOT_InnerClassExample-diagram-detailed-grouped-per-namespace.svg" xlink:actuate="onRequest" xlink:href="Example.ClassExample_DOT_InnerClassExample-diagram-detailed-grouped-per-namespace.svg" xlink:show="new" xlink:title="Example.ClassExample_DOT_InnerClassExample-diagram-detailed-grouped-per-namespace.svg" xlink:type="simple"><text fill="#0000FF" font-family="sans-serif" font-size="13" lengthAdjust="spacing" text-decoration="underline" textLength="614" x="24" y="225.2285">Example.ClassExample_DOT_InnerClassExample-diagram-detailed-grouped-per-namespace.svg</text></a><ellipse cx="17.5" cy="235.7813" fill="#000000" rx="2.5" ry="2.5" style="stroke:#000000;stroke-width:0.0;"/><text fill="#000000" font-family="sans-serif" font-size="13" lengthAdjust="spacing" textLength="78" x="24" y="240.5391">Full diagram</text><text fill="#000000" font-family="sans-serif" font-size="13" font-weight="bold" lengthAdjust="spacing" textLength="67" x="106" y="240.5391">simplified</text><text fill="#000000" font-family="sans-serif" font-size="13" lengthAdjust="spacing" textLength="23" x="177" y="240.5391">and</text><text fill="#000000" font-family="sans-serif" font-size="13" font-weight="bold" lengthAdjust="spacing" textLength="166" x="204" y="240.5391">grouped per namespace</text><text fill="#000000" font-family="sans-serif" font-size="13" lengthAdjust="spacing" textLength="4" x="370" y="240.5391">:</text><text fill="#000000" font-family="sans-serif" font-size="13" lengthAdjust="spacing" textLength="12" x="12" y="255.8496">&#160;&#160;&#160;</text><a href="full-diagram-simplified-grouped-per-namespace.svg" target="_top" title="full-diagram-simplified-grouped-per-namespace.svg" xlink:actuate="onRequest" xlink:href="full-diagram-simplified-grouped-per-namespace.svg" xlink:show="new" xlink:title="full-diagram-simplified-grouped-per-namespace.svg" xlink:type="simple"><text fill="#0000FF" font-family="sans-serif" font-size="13" lengthAdjust="spacing" text-decoration="underline" textLength="343" x="24" y="255.8496">full-diagram-simplified-grouped-per-namespace.svg</text></a><ellipse cx="17.5" cy="266.4023" fill="#000000" rx="2.5" ry="2.5" style="stroke:#000000;stroke-width:0.0;"/><text fill="#000000" font-family="sans-serif" font-size="13" lengthAdjust="spacing" textLength="41" x="24" y="271.1602">Home:</text><text fill="#000000" font-family="sans-serif" font-size="13" lengthAdjust="spacing" textLength="12" x="12" y="286.4707">&#160;&#160;&#160;</text><a href="index.html" target="_top" title="index.html" xlink:actuate="onRequest" xlink:href="index.html" xlink:show="new" xlink:title="index.html" xlink:type="simple"><text fill="#0000FF" font-family="sans-serif" font-size="13" lengthAdjust="spacing" text-decoration="underline" textLength="68" x="24" y="286.4707">index.html</text></a><line style="stroke:#181818;stroke-width:1.0;" x1="7" x2="295.5" y1="189.6943" y2="189.6943"/><line style="stroke:#181818;stroke-width:1.0;" x1="7" x2="295.5" y1="191.6943" y2="191.6943"/><text fill="#000000" font-family="sans-serif" font-size="13" lengthAdjust="spacing" textLength="74" x="295.5" y="194.1074">Select other</text><line style="stroke:#181818;stroke-width:1.0;" x1="369.5" x2="658" y1="189.6943" y2="189.6943"/><line style="stroke:#181818;stroke-width:1.0;" x1="369.5" x2="658" y1="191.6943" y2="191.6943"/></g><!--reverse link ClassExample_DOT_InnerClassExample to ClassExample_DOT_InnerClassExample_DOT_classInMethodExample--><g id="link_ClassExample_DOT_InnerClassExample_ClassExample_DOT_InnerClassExample_DOT_classInMethodExample"><path codeLine="19" d="M943.5,422.5147 C943.5,437.2347 943.5,453.5147 943.5,466.3447 " fill="none" id="ClassExample_DOT_InnerClassExample-backto-ClassExample_DOT_InnerClassExample_DOT_classInMethodExample" style="stroke:#10BBBB;stroke-width:1.0;"/><ellipse cx="943.5" cy="415.8147" fill="#FFFFFF" rx="8" ry="8" style="stroke:#10BBBB;stroke-width:1.0;"/><line style="stroke:#10BBBB;stroke-width:1.0;" x1="943.5" x2="943.5" y1="423.8147" y2="407.8147"/><line style="stroke:#10BBBB;stroke-width:1.0;" x1="935.5" x2="951.5" y1="415.8147" y2="415.8147"/></g><!--reverse link ClassExample to ClassExample_DOT_InnerClassExample--><g id="link_ClassExample_ClassExample_DOT_InnerClassExample"><path codeLine="20" d="M943.5,214.5147 C943.5,256.8447 943.5,323.1047 943.5,358.0947 " fill="none" id="ClassExample-backto-ClassExample_DOT_InnerClassExample" style="stroke:#10BBBB;stroke-width:1.0;"/><ellipse cx="943.5" cy="207.7847" fill="#FFFFFF" rx="8" ry="8" style="stroke:#10BBBB;stroke-width:1.0;"/><line style="stroke:#10BBBB;stroke-width:1.0;" x1="943.5" x2="943.5" y1="215.7847" y2="199.7847"/><line style="stroke:#10BBBB;stroke-width:1.0;" x1="935.5" x2="951.5" y1="207.7847" y2="207.7847"/></g><!--SRC=[jLJ1Rjim3BtdAuZsKC23lMx7eEbXQOFriEwmNOROC5IBJeZ9b279RTfX_puwYUC2NP4uQ0t3a6ZolKTAPA1W42uyFU7uy_dbzKfLjS5aQfJtsqr-zVrdViECxhaLeiYJBAWar544YhMO5iusDMgeqG6h2dsj2eoYYuyjmUM8RK0u-MKR1ygXn2Zp-4Iy6AVyJimffpoPpCW4T9D9oi8DXM8e31M_0IainLy-VOo7bAqJ1s7SMA6KVRc64AsjTxKcbGMvb3KvB09eh94rSa7eamtj3pJj7zkIjEGH3CfIOr1azkSerGE0-Vnmy5YJMZXLnHr5l8ME1JhUGIV-Vf5bhUvPOmniWmRLlzDM2i2EjG_Vn_lLLjX1a5HtbIn3PRBi19I7cR4go8dSogqQxOAx6lS56SWBVqQRmnzmM4SL_q0vfuzeZ7qGMNy72rjRrq4t_0t3qkfZ5B-ACZILFJcy8keebhEfhMePCXhUycR0WqmC46q1fBShPEdk4eGDfiRwTZeeQPJQuJtPnkU-kSjt6BaX2UlLt5f6kCD2DHxRyRATXvuyo5iIar-YJfvXlyX4yeGpQRw37dWttrPXUwOEZJIaPG-u2auLGQfVEblrmiVYssaVq5uVuldff_ClycJnczp-_v8VImF_0000]--></g></svg>