<?xml version="1.0" encoding="us-ascii" standalone="no"?><svg xmlns="http://www.w3.org/2000/svg" xmlns:xlink="http://www.w3.org/1999/xlink" contentStyleType="text/css" height="429px" preserveAspectRatio="none" style="width:1417px;height:429px;background:#FFFFFF;" version="1.1" viewBox="0 0 1417 429" width="1417px" zoomAndPan="magnify"><defs/><g><text fill="#000000" font-family="sans-serif" font-size="20" font-weight="bold" lengthAdjust="spacing" textLength="798" x="106.5" y="29.3359">Example.ClassExample_DOT_InnerClassExample_DOT_classInMethodExample</text><text fill="#000000" font-family="sans-serif" font-size="20" font-weight="bold" lengthAdjust="spacing" textLength="84" x="911.5" y="29.3359">detailed</text><text fill="#000000" font-family="sans-serif" font-size="20" font-weight="bold" lengthAdjust="spacing" textLength="38" x="1002.5" y="29.3359">and</text><text fill="#000000" font-family="sans-serif" font-size="20" font-weight="bold" lengthAdjust="spacing" textLength="249" x="1047.5" y="29.3359">grouped per namespace</text><!--cluster Example--><g id="cluster_Example"><a href="Example-diagram-detailed-grouped-per-namespace.svg" target="_top" title="Example-diagram-detailed-grouped-per-namespace.svg" xlink:actuate="onRequest" xlink:href="Example-diagram-detailed-grouped-per-namespace.svg" xlink:show="new" xlink:title="Example-diagram-detailed-grouped-per-namespace.svg" xlink:type="simple"><path d="M876.5,115.5547 L937.5,115.5547 A3.75,3.75 0 0 1 940,118.0547 L947,138.043 L1407.5,138.043 A2.5,2.5 0 0 1 1410,140.543 L1410,420.0547 A2.5,2.5 0 0 1 1407.5,422.5547 L876.5,422.5547 A2.5,2.5 0 0 1 874,420.0547 L874,118.0547 A2.5,2.5 0 0 1 876.5,115.5547 " fill="none" style="stroke:#000000;stroke-width:1.5;"/><line style="stroke:#000000;stroke-width:1.5;" x1="874" x2="947" y1="138.043" y2="138.043"/><text fill="#000000" font-family="sans-serif" font-size="14" font-weight="bold" lengthAdjust="spacing" textLength="60" x="878" y="131.0898">Example</text></a></g><!--class ClassExample_DOT_InnerClassExample_DOT_classInMethodExample--><a href="Example.ClassExample_DOT_InnerClassExample_DOT_classInMethodExample-diagram-detailed-grouped-per-namespace.svg" target="_top" title="Example.ClassExample_DOT_InnerClassExample_DOT_classInMethodExample-diagram-detailed-grouped-per-namespace.svg" xlink:actuate="onRequest" xlink:href="Example.ClassExample_DOT_InnerClassExample_DOT_classInMethodExample-diagram-detailed-grouped-per-namespace.svg" xlink:show="new" xlink:title="Example.ClassExample_DOT_InnerClassExample_DOT_classInMethodExample-diagram-detailed-grouped-per-namespace.svg" xlink:type="simple"><g id="elem_ClassExample_DOT_InnerClassExample_DOT_classInMethodExample"><rect codeLine="4" fill="#FFFF00" height="48" id="ClassExample_DOT_InnerClassExample_DOT_classInMethodExample" rx="2.5" ry="2.5" style="stroke:#181818;stroke-width:0.5;" width="503" x="890.5" y="358.5547"/><ellipse cx="905.5" cy="374.5547" fill="#ADD1B2" rx="11" ry="11" style="stroke:#181818;stroke-width:1.0;"/><path d="M907.9731,380.6978 Q907.3921,380.9966 906.7529,381.146 Q906.1138,381.2954 905.4082,381.2954 Q902.9014,381.2954 901.5815,379.6436 Q900.2617,377.9917 900.2617,374.8706 Q900.2617,371.7412 901.5815,370.0894 Q902.9014,368.4375 905.4082,368.4375 Q906.1138,368.4375 906.7612,368.5869 Q907.4087,368.7363 907.9731,369.0352 L907.9731,371.7578 Q907.3423,371.1768 906.7488,370.907 Q906.1553,370.6372 905.5244,370.6372 Q904.1797,370.6372 903.4949,371.7039 Q902.8101,372.7705 902.8101,374.8706 Q902.8101,376.9624 903.4949,378.0291 Q904.1797,379.0957 905.5244,379.0957 Q906.1553,379.0957 906.7488,378.8259 Q907.3423,378.5562 907.9731,377.9751 Z " fill="#000000"/><text fill="#000000" font-family="sans-serif" font-size="14" lengthAdjust="spacing" textLength="471" x="919.5" y="379.8457">ClassExample_DOT_InnerClassExample_DOT_classInMethodExample</text><line style="stroke:#181818;stroke-width:0.5;" x1="891.5" x2="1392.5" y1="390.5547" y2="390.5547"/><line style="stroke:#181818;stroke-width:0.5;" x1="891.5" x2="1392.5" y1="398.5547" y2="398.5547"/></g></a><!--class ClassExample_DOT_InnerClassExample--><a href="Example.ClassExample_DOT_InnerClassExample-diagram-detailed-grouped-per-namespace.svg" target="_top" title="Example.ClassExample_DOT_InnerClassExample-diagram-detailed-grouped-per-namespace.svg" xlink:actuate="onRequest" xlink:href="Example.ClassExample_DOT_InnerClassExample-diagram-detailed-grouped-per-namespace.svg" xlink:show="new" xlink:title="Example.ClassExample_DOT_InnerClassExample-diagram-detailed-grouped-per-namespace.svg" xlink:type="simple"><g id="elem_ClassExample_DOT_InnerClassExample"><rect codeLine="6" fill="#F1F1F1" height="48" id="ClassExample_DOT_InnerClassExample" rx="2.5" ry="2.5" style="stroke:#181818;stroke-width:0.5;" width="302" x="991" y="150.5547"/><ellipse cx="1006" cy="166.5547" fill="#ADD1B2" rx="11" ry="11" style="stroke:#181818;stroke-width:1.0;"/><path d="M1008.4731,172.6978 Q1007.8921,172.9966 1007.2529,173.146 Q1006.6138,173.2954 1005.9082,173.2954 Q1003.4014,173.2954 1002.0815,171.6436 Q1000.7617,169.9917 1000.7617,166.8706 Q1000.7617,163.7412 1002.0815,162.0894 Q1003.4014,160.4375 1005.9082,160.4375 Q1006.6138,160.4375 1007.2612,160.5869 Q1007.9087,160.7363 1008.4731,161.0352 L1008.4731,163.7578 Q1007.8423,163.1768 1007.2488,162.907 Q1006.6553,162.6372 1006.0244,162.6372 Q1004.6797,162.6372 1003.9949,163.7039 Q1003.3101,164.7705 1003.3101,166.8706 Q1003.3101,168.9624 1003.9949,170.0291 Q1004.6797,171.0957 1006.0244,171.0957 Q1006.6553,171.0957 1007.2488,170.8259 Q1007.8423,170.5562 1008.4731,169.9751 Z " fill="#000000"/><text fill="#000000" font-family="sans-serif" font-size="14" lengthAdjust="spacing" textLength="270" x="1020" y="171.8457">ClassExample_DOT_InnerClassExample</text><line style="stroke:#181818;stroke-width:0.5;" x1="992" x2="1292" y1="182.5547" y2="182.5547"/><line style="stroke:#181818;stroke-width:0.5;" x1="992" x2="1292" y1="190.5547" y2="190.5547"/></g></a><g id="elem_FloatingNote"><path d="M6,50.5547 L6,298.2129 L858,298.2129 L858,60.5547 L848,50.5547 L6,50.5547 " fill="#FEFFDD" style="stroke:#181818;stroke-width:0.5;"/><path d="M848,50.5547 L848,60.5547 L858,60.5547 L848,50.5547 " fill="#FEFFDD" style="stroke:#181818;stroke-width:1.0;"/><text fill="#000000" font-family="sans-serif" font-size="13" lengthAdjust="spacing" textLength="120" x="12" y="68.123">Your are analyzing:</text><text fill="#000000" font-family="sans-serif" font-size="13" lengthAdjust="spacing" textLength="491" x="12" y="83.4336">Example.ClassExample_DOT_InnerClassExample_DOT_classInMethodExample</text><text fill="#000000" font-family="sans-serif" font-size="13" font-weight="bold" lengthAdjust="spacing" textLength="55" x="507" y="83.4336">detailed</text><text fill="#000000" font-family="sans-serif" font-size="13" lengthAdjust="spacing" textLength="23" x="566" y="83.4336">and</text><text fill="#000000" font-family="sans-serif" font-size="13" font-weight="bold" lengthAdjust="spacing" textLength="166" x="593" y="83.4336">grouped per namespace</text><text fill="#000000" font-family="sans-serif" font-size="13" lengthAdjust="spacing" textLength="4" x="12" y="98.7441">&#160;</text><text fill="#000000" font-family="sans-serif" font-size="13" lengthAdjust="spacing" textLength="229" x="12" y="129.3652">You can click either the namespaces</text><text fill="#000000" font-family="sans-serif" font-size="13" lengthAdjust="spacing" textLength="266" x="12" y="144.6758">or class names for filtering them and their</text><text fill="#000000" font-family="sans-serif" font-size="13" lengthAdjust="spacing" textLength="130" x="12" y="159.9863">direct dependencies.</text><text fill="#000000" font-family="sans-serif" font-size="13" lengthAdjust="spacing" textLength="4" x="12" y="175.2969">&#160;</text><line style="stroke:#181818;stroke-width:1.0;" x1="7" x2="416" y1="109.1416" y2="109.1416"/><line style="stroke:#181818;stroke-width:1.0;" x1="7" x2="416" y1="111.1416" y2="111.1416"/><text fill="#000000" font-family="sans-serif" font-size="13" lengthAdjust="spacing" textLength="32" x="416" y="113.5547">Filter</text><line style="stroke:#181818;stroke-width:1.0;" x1="448" x2="857" y1="109.1416" y2="109.1416"/><line style="stroke:#181818;stroke-width:1.0;" x1="448" x2="857" y1="111.1416" y2="111.1416"/><ellipse cx="17.5" cy="205.1602" fill="#000000" rx="2.5" ry="2.5" style="stroke:#000000;stroke-width:0.0;"/><text fill="#000000" font-family="sans-serif" font-size="13" lengthAdjust="spacing" textLength="491" x="24" y="209.918">Example.ClassExample_DOT_InnerClassExample_DOT_classInMethodExample</text><text fill="#000000" font-family="sans-serif" font-size="13" font-weight="bold" lengthAdjust="spacing" textLength="67" x="519" y="209.918">simplified</text><text fill="#000000" font-family="sans-serif" font-size="13" lengthAdjust="spacing" textLength="23" x="590" y="209.918">and</text><text fill="#000000" font-family="sans-serif" font-size="13" font-weight="bold" lengthAdjust="spacing" textLength="166" x="617" y="209.918">grouped per namespace</text><text fill="#000000" font-family="sans-serif" font-size="13" lengthAdjust="spacing" textLength="4" x="783" y="209.918">:</text><text fill="#000000" font-family="sans-serif" font-size="13" lengthAdjust="spacing" textLength="12" x="12" y="225.2285">&#160;&#160;&#160;</text><a href="Example.ClassExample_DOT_InnerClassExample_DOT_classInMethodExample-diagram-simplified-grouped-per-namespace.svg" target="_top" title="Example.ClassExample_DOT_InnerClassExample_DOT_classInMethodExample-diagram-simplified-grouped-per-namespace.svg" xlink:actuate="onRequest" xlink:href="Example.ClassExample_DOT_InnerClassExample_DOT_classInMethodExample-diagram-simplified-grouped-per-namespace.svg" xlink:show="new" xlink:title="Example.ClassExample_DOT_InnerClassExample_DOT_classInMethodExample-diagram-simplified-grouped-per-namespace.svg" xlink:type="simple"><text fill="#0000FF" font-family="sans-serif" font-size="13" lengthAdjust="spacing" text-decoration="underline" textLength="813" x="24" y="225.2285">Example.ClassExample_DOT_InnerClassExample_DOT_classInMethodExample-diagram-simplified-grouped-per-namespace.svg</text></a><ellipse cx="17.5" cy="235.7813" fill="#000000" rx="2.5" ry="2.5" style="stroke:#000000;stroke-width:0.0;"/><text fill="#000000" font-family="sans-serif" font-size="13" lengthAdjust="spacing" textLength="78" x="24" y="240.5391">Full diagram</text><text fill="#000000" font-family="sans-serif" font-size="13" font-weight="bold" lengthAdjust="spacing" textLength="55" x="106" y="240.5391">detailed</text><text fill="#000000" font-family="sans-serif" font-size="13" lengthAdjust="spacing" textLength="23" x="165" y="240.5391">and</text><text fill="#000000" font-family="sans-serif" font-size="13" font-weight="bold" lengthAdjust="spacing" textLength="166" x="192" y="240.5391">grouped per namespace</text><text fill="#000000" font-family="sans-serif" font-size="13" lengthAdjust="spacing" textLength="4" x="358" y="240.5391">:</text><text fill="#000000" font-family="sans-serif" font-size="13" lengthAdjust="spacing" textLength="12" x="12" y="255.8496">&#160;&#160;&#160;</text><a href="full-diagram-detailed-grouped-per-namespace.svg" target="_top" title="full-diagram-detailed-grouped-per-namespace.svg" xlink:actuate="onRequest" xlink:href="full-diagram-detailed-grouped-per-namespace.svg" xlink:show="new" xlink:title="full-diagram-detailed-grouped-per-namespace.svg" xlink:type="simple"><text fill="#0000FF" font-family="sans-serif" font-size="13" lengthAdjust="spacing" text-decoration="underline" textLength="330" x="24" y="255.8496">full-diagram-detailed-grouped-per-namespace.svg</text></a><ellipse cx="17.5" cy="266.4023" fill="#000000" rx="2.5" ry="2.5" style="stroke:#000000;stroke-width:0.0;"/><text fill="#000000" font-family="sans-serif" font-size="13" lengthAdjust="spacing" textLength="41" x="24" y="271.1602">Home:</text><text fill="#000000" font-family="sans-serif" font-size="13" lengthAdjust="spacing" textLength="12" x="12" y="286.4707">&#160;&#160;&#160;</text><a href="index.html" target="_top" title="index.html" xlink:actuate="onRequest" xlink:href="index.html" xlink:show="new" xlink:title="index.html" xlink:type="simple"><text fill="#0000FF" font-family="sans-serif" font-size="13" lengthAdjust="spacing" text-decoration="underline" textLength="68" x="24" y="286.4707">index.html</text></a><line style="stroke:#181818;stroke-width:1.0;" x1="7" x2="395" y1="189.6943" y2="189.6943"/><line style="stroke:#181818;stroke-width:1.0;" x1="7" x2="395" y1="191.6943" y2="191.6943"/><text fill="#000000" font-family="sans-serif" font-size="13" lengthAdjust="spacing" textLength="74" x="395" y="194.1074">Select other</text><line style="stroke:#181818;stroke-width:1.0;" x1="469" x2="857" y1="189.6943" y2="189.6943"/><line style="stroke:#181818;stroke-width:1.0;" x1="469" x2="857" y1="191.6943" y2="191.6943"/></g><!--reverse link ClassExample_DOT_InnerClassExample to ClassExample_DOT_InnerClassExample_DOT_classInMethodExample--><g id="link_ClassExample_DOT_InnerClassExample_ClassExample_DOT_InnerClassExample_DOT_classInMethodExample"><path codeLine="17" d="M1142,214.5147 C1142,256.8447 1142,323.1047 1142,358.0947 " fill="none" id="ClassExample_DOT_InnerClassExample-backto-ClassExample_DOT_InnerClassExample_DOT_classInMethodExample" style="stroke:#10BBBB;stroke-width:1.0;"/><ellipse cx="1142" cy="207.7847" fill="#FFFFFF" rx="8" ry="8" style="stroke:#10BBBB;stroke-width:1.0;"/><line style="stroke:#10BBBB;stroke-width:1.0;" x1="1142" x2="1142" y1="215.7847" y2="199.7847"/><line style="stroke:#10BBBB;stroke-width:1.0;" x1="1134" x2="1150" y1="207.7847" y2="207.7847"/></g><!--SRC=[lLHDRzim3BtdLn3jeO07PzsEGTF3iWNhOTrXkmonOQWMdH2JAKEIsxJ3_lken8u7zD0Qy2OOXZv8llT4Ke62GRZoz8IBzvVNd_QgRWpELqPvtosAZr-_5pVCw9xjbd7ZXhzWs5dT7K2IQ0oA3Eea0SLQDhREjWrgQD01gnfzeqfCagkt4VTwnZOWdFsmhGFbK7oKUNmYtYuo_h-4CivukLoJ2UYMouo54fIAeJHK_WIai1Dx-Gq-7ZAs3WwunrseP5qTGeY4Q5qVG6L2BcDD3ii06XjaZLmI-laHzXkQU68ZI0HFO1hndcH25RqiN-uR03QR2N1JJMhhL9qEw6c7cWfgUaAT-_jjdaUrwzOOwDn6vAmdNOdx2RLtVWdpiwsn3q2IZ_ry5sgJvsUWFAoDLK5oU2lbEJivzraPxcaKAloQ7OjbYkHEcwfNqJz_H6FiWyZuFLh8ABxZQ1tuNAnitSWBec6wRC63T3q8hm3IdpMoT6W5WWKhOttiS2LbspYy9zlwmhTtnIb6OKZS1YwtbX7ki5Ijn_X4T4-T9m_oLSJaTwZdVyL-faDKmeKqmwi6_3FRo33ctg6H5h7i0VV1gJB8tLVErWFnXTZst4TKofjqS_xkyeECF9saLVu0]--></g></svg>