<?xml version="1.0" encoding="us-ascii" standalone="no"?><svg xmlns="http://www.w3.org/2000/svg" xmlns:xlink="http://www.w3.org/1999/xlink" contentStyleType="text/css" height="470px" preserveAspectRatio="none" style="width:640px;height:470px;background:#FFFFFF;" version="1.1" viewBox="0 0 640 470" width="640px" zoomAndPan="magnify"><defs/><g><text fill="#000000" font-family="sans-serif" font-size="20" font-weight="bold" lengthAdjust="spacing" textLength="357" x="75.75" y="29.3359">Example.SideExample.SideExample</text><text fill="#000000" font-family="sans-serif" font-size="20" font-weight="bold" lengthAdjust="spacing" textLength="104" x="439.75" y="29.3359">simplified</text><text fill="#000000" font-family="sans-serif" font-size="20" font-weight="bold" lengthAdjust="spacing" textLength="7" x="543.75" y="29.3359">&#160;</text><!--cluster Example--><g id="cluster_Example"><path d="M426,72.5547 L487,72.5547 A3.75,3.75 0 0 1 489.5,75.0547 L496.5,95.043 L631,95.043 A2.5,2.5 0 0 1 633.5,97.543 L633.5,461.0547 A2.5,2.5 0 0 1 631,463.5547 L426,463.5547 A2.5,2.5 0 0 1 423.5,461.0547 L423.5,75.0547 A2.5,2.5 0 0 1 426,72.5547 " fill="none" style="stroke:#000000;stroke-width:1.5;"/><line style="stroke:#000000;stroke-width:1.5;" x1="423.5" x2="496.5" y1="95.043" y2="95.043"/><text fill="#000000" font-family="sans-serif" font-size="14" font-weight="bold" lengthAdjust="spacing" textLength="60" x="427.5" y="88.0898">Example</text></g><!--cluster SideExample--><g id="cluster_SideExample"><path d="M450,115.5547 L541,115.5547 A3.75,3.75 0 0 1 543.5,118.0547 L550.5,138.043 L607,138.043 A2.5,2.5 0 0 1 609.5,140.543 L609.5,437.0547 A2.5,2.5 0 0 1 607,439.5547 L450,439.5547 A2.5,2.5 0 0 1 447.5,437.0547 L447.5,118.0547 A2.5,2.5 0 0 1 450,115.5547 " fill="none" style="stroke:#000000;stroke-width:1.5;"/><line style="stroke:#000000;stroke-width:1.5;" x1="447.5" x2="550.5" y1="138.043" y2="138.043"/><text fill="#000000" font-family="sans-serif" font-size="14" font-weight="bold" lengthAdjust="spacing" textLength="90" x="451.5" y="131.0898">SideExample</text></g><!--class SideExample--><a href="Example.SideExample.SideExample-diagram-simplified.svg" target="_top" title="Example.SideExample.SideExample-diagram-simplified.svg" xlink:actuate="onRequest" xlink:href="Example.SideExample.SideExample-diagram-simplified.svg" xlink:show="new" xlink:title="Example.SideExample.SideExample-diagram-simplified.svg" xlink:type="simple"><g id="elem_SideExample"><rect codeLine="3" fill="#FFFF00" height="48" id="SideExample" rx="2.5" ry="2.5" style="stroke:#181818;stroke-width:0.5;" width="120" x="468.5" y="150.5547"/><ellipse cx="483.5" cy="166.5547" fill="#ADD1B2" rx="11" ry="11" style="stroke:#181818;stroke-width:1.0;"/><path d="M485.9731,172.6978 Q485.3921,172.9966 484.7529,173.146 Q484.1138,173.2954 483.4082,173.2954 Q480.9014,173.2954 479.5815,171.6436 Q478.2617,169.9917 478.2617,166.8706 Q478.2617,163.7412 479.5815,162.0894 Q480.9014,160.4375 483.4082,160.4375 Q484.1138,160.4375 484.7612,160.5869 Q485.4087,160.7363 485.9731,161.0352 L485.9731,163.7578 Q485.3423,163.1768 484.7488,162.907 Q484.1553,162.6372 483.5244,162.6372 Q482.1797,162.6372 481.4949,163.7039 Q480.8101,164.7705 480.8101,166.8706 Q480.8101,168.9624 481.4949,170.0291 Q482.1797,171.0957 483.5244,171.0957 Q484.1553,171.0957 484.7488,170.8259 Q485.3423,170.5562 485.9731,169.9751 Z " fill="#000000"/><text fill="#000000" font-family="sans-serif" font-size="14" lengthAdjust="spacing" textLength="88" x="497.5" y="171.8457">SideExample</text><line style="stroke:#181818;stroke-width:0.5;" x1="469.5" x2="587.5" y1="182.5547" y2="182.5547"/><line style="stroke:#181818;stroke-width:0.5;" x1="469.5" x2="587.5" y1="190.5547" y2="190.5547"/></g></a><!--class SideTestEnum--><a href="Example.SideExample.SideTestEnum-diagram-simplified.svg" target="_top" title="Example.SideExample.SideTestEnum-diagram-simplified.svg" xlink:actuate="onRequest" xlink:href="Example.SideExample.SideTestEnum-diagram-simplified.svg" xlink:show="new" xlink:title="Example.SideExample.SideTestEnum-diagram-simplified.svg" xlink:type="simple"><g id="elem_SideTestEnum"><rect codeLine="5" fill="#F1F1F1" height="48" id="SideTestEnum" rx="2.5" ry="2.5" style="stroke:#181818;stroke-width:0.5;" width="129" x="464" y="375.5547"/><ellipse cx="479" cy="391.5547" fill="#ADD1B2" rx="11" ry="11" style="stroke:#181818;stroke-width:1.0;"/><path d="M481.4731,397.6978 Q480.8921,397.9966 480.2529,398.146 Q479.6138,398.2954 478.9082,398.2954 Q476.4014,398.2954 475.0815,396.6436 Q473.7617,394.9917 473.7617,391.8706 Q473.7617,388.7412 475.0815,387.0894 Q476.4014,385.4375 478.9082,385.4375 Q479.6138,385.4375 480.2612,385.5869 Q480.9087,385.7363 481.4731,386.0352 L481.4731,388.7578 Q480.8423,388.1768 480.2488,387.907 Q479.6553,387.6372 479.0244,387.6372 Q477.6797,387.6372 476.9949,388.7039 Q476.3101,389.7705 476.3101,391.8706 Q476.3101,393.9624 476.9949,395.0291 Q477.6797,396.0957 479.0244,396.0957 Q479.6553,396.0957 480.2488,395.8259 Q480.8423,395.5562 481.4731,394.9751 Z " fill="#000000"/><text fill="#000000" font-family="sans-serif" font-size="14" lengthAdjust="spacing" textLength="97" x="493" y="396.8457">SideTestEnum</text><line style="stroke:#181818;stroke-width:0.5;" x1="465" x2="592" y1="407.5547" y2="407.5547"/><line style="stroke:#181818;stroke-width:0.5;" x1="465" x2="592" y1="415.5547" y2="415.5547"/></g></a><g id="elem_FloatingNote"><path d="M6,50.5547 L6,298.2129 L407,298.2129 L407,60.5547 L397,50.5547 L6,50.5547 " fill="#FEFFDD" style="stroke:#181818;stroke-width:0.5;"/><path d="M397,50.5547 L397,60.5547 L407,60.5547 L397,50.5547 " fill="#FEFFDD" style="stroke:#181818;stroke-width:1.0;"/><text fill="#000000" font-family="sans-serif" font-size="13" lengthAdjust="spacing" textLength="120" x="12" y="68.123">Your are analyzing:</text><text fill="#000000" font-family="sans-serif" font-size="13" lengthAdjust="spacing" textLength="219" x="12" y="83.4336">Example.SideExample.SideExample</text><text fill="#000000" font-family="sans-serif" font-size="13" font-weight="bold" lengthAdjust="spacing" textLength="67" x="235" y="83.4336">simplified</text><text fill="#000000" font-family="sans-serif" font-size="13" lengthAdjust="spacing" textLength="4" x="302" y="83.4336">&#160;</text><text fill="#000000" font-family="sans-serif" font-size="13" lengthAdjust="spacing" textLength="4" x="12" y="98.7441">&#160;</text><text fill="#000000" font-family="sans-serif" font-size="13" lengthAdjust="spacing" textLength="229" x="12" y="129.3652">You can click either the namespaces</text><text fill="#000000" font-family="sans-serif" font-size="13" lengthAdjust="spacing" textLength="266" x="12" y="144.6758">or class names for filtering them and their</text><text fill="#000000" font-family="sans-serif" font-size="13" lengthAdjust="spacing" textLength="130" x="12" y="159.9863">direct dependencies.</text><text fill="#000000" font-family="sans-serif" font-size="13" lengthAdjust="spacing" textLength="4" x="12" y="175.2969">&#160;</text><line style="stroke:#181818;stroke-width:1.0;" x1="7" x2="190.5" y1="109.1416" y2="109.1416"/><line style="stroke:#181818;stroke-width:1.0;" x1="7" x2="190.5" y1="111.1416" y2="111.1416"/><text fill="#000000" font-family="sans-serif" font-size="13" lengthAdjust="spacing" textLength="32" x="190.5" y="113.5547">Filter</text><line style="stroke:#181818;stroke-width:1.0;" x1="222.5" x2="406" y1="109.1416" y2="109.1416"/><line style="stroke:#181818;stroke-width:1.0;" x1="222.5" x2="406" y1="111.1416" y2="111.1416"/><ellipse cx="17.5" cy="205.1602" fill="#000000" rx="2.5" ry="2.5" style="stroke:#000000;stroke-width:0.0;"/><text fill="#000000" font-family="sans-serif" font-size="13" lengthAdjust="spacing" textLength="219" x="24" y="209.918">Example.SideExample.SideExample</text><text fill="#000000" font-family="sans-serif" font-size="13" font-weight="bold" lengthAdjust="spacing" textLength="55" x="247" y="209.918">detailed</text><text fill="#000000" font-family="sans-serif" font-size="13" lengthAdjust="spacing" textLength="4" x="306" y="209.918">:</text><text fill="#000000" font-family="sans-serif" font-size="13" lengthAdjust="spacing" textLength="12" x="12" y="225.2285">&#160;&#160;&#160;</text><a href="Example.SideExample.SideExample-diagram-detailed.svg" target="_top" title="Example.SideExample.SideExample-diagram-detailed.svg" xlink:actuate="onRequest" xlink:href="Example.SideExample.SideExample-diagram-detailed.svg" xlink:show="new" xlink:title="Example.SideExample.SideExample-diagram-detailed.svg" xlink:type="simple"><text fill="#0000FF" font-family="sans-serif" font-size="13" lengthAdjust="spacing" text-decoration="underline" textLength="362" x="24" y="225.2285">Example.SideExample.SideExample-diagram-detailed.svg</text></a><ellipse cx="17.5" cy="235.7813" fill="#000000" rx="2.5" ry="2.5" style="stroke:#000000;stroke-width:0.0;"/><text fill="#000000" font-family="sans-serif" font-size="13" lengthAdjust="spacing" textLength="78" x="24" y="240.5391">Full diagram</text><text fill="#000000" font-family="sans-serif" font-size="13" font-weight="bold" lengthAdjust="spacing" textLength="67" x="106" y="240.5391">simplified</text><text fill="#000000" font-family="sans-serif" font-size="13" lengthAdjust="spacing" textLength="23" x="177" y="240.5391">and</text><text fill="#000000" font-family="sans-serif" font-size="13" font-weight="bold" lengthAdjust="spacing" textLength="166" x="204" y="240.5391">grouped per namespace</text><text fill="#000000" font-family="sans-serif" font-size="13" lengthAdjust="spacing" textLength="4" x="370" y="240.5391">:</text><text fill="#000000" font-family="sans-serif" font-size="13" lengthAdjust="spacing" textLength="12" x="12" y="255.8496">&#160;&#160;&#160;</text><a href="full-diagram-simplified-grouped-per-namespace.svg" target="_top" title="full-diagram-simplified-grouped-per-namespace.svg" xlink:actuate="onRequest" xlink:href="full-diagram-simplified-grouped-per-namespace.svg" xlink:show="new" xlink:title="full-diagram-simplified-grouped-per-namespace.svg" xlink:type="simple"><text fill="#0000FF" font-family="sans-serif" font-size="13" lengthAdjust="spacing" text-decoration="underline" textLength="343" x="24" y="255.8496">full-diagram-simplified-grouped-per-namespace.svg</text></a><ellipse cx="17.5" cy="266.4023" fill="#000000" rx="2.5" ry="2.5" style="stroke:#000000;stroke-width:0.0;"/><text fill="#000000" font-family="sans-serif" font-size="13" lengthAdjust="spacing" textLength="41" x="24" y="271.1602">Home:</text><text fill="#000000" font-family="sans-serif" font-size="13" lengthAdjust="spacing" textLength="12" x="12" y="286.4707">&#160;&#160;&#160;</text><a href="index.html" target="_top" title="index.html" xlink:actuate="onRequest" xlink:href="index.html" xlink:show="new" xlink:title="index.html" xlink:type="simple"><text fill="#0000FF" font-family="sans-serif" font-size="13" lengthAdjust="spacing" text-decoration="underline" textLength="68" x="24" y="286.4707">index.html</text></a><line style="stroke:#181818;stroke-width:1.0;" x1="7" x2="169.5" y1="189.6943" y2="189.6943"/><line style="stroke:#181818;stroke-width:1.0;" x1="7" x2="169.5" y1="191.6943" y2="191.6943"/><text fill="#000000" font-family="sans-serif" font-size="13" lengthAdjust="spacing" textLength="74" x="169.5" y="194.1074">Select other</text><line style="stroke:#181818;stroke-width:1.0;" x1="243.5" x2="406" y1="189.6943" y2="189.6943"/><line style="stroke:#181818;stroke-width:1.0;" x1="243.5" x2="406" y1="191.6943" y2="191.6943"/></g><!--link SideExample to SideTestEnum--><g id="link_SideExample_SideTestEnum"><path codeLine="12" d="M528.5,198.9947 C528.5,239.9847 528.5,324.5647 528.5,369.3147 " fill="none" id="SideExample-to-SideTestEnum" style="stroke:#6060BB;stroke-width:1.0;stroke-dasharray:7.0,7.0;"/><polygon fill="#6060BB" points="528.5,374.0947,532.5,365.0947,528.5,369.0947,524.5,365.0947,528.5,374.0947" style="stroke:#6060BB;stroke-width:1.0;"/><text fill="#000000" font-family="sans-serif" font-size="13" lengthAdjust="spacing" textLength="29" x="529.5" y="342.123">uses</text></g><!--SRC=[jLCzRy8m4Dtv5ISOa2mbHHqO8i901UhKXIuLoM35bs3LiIFRQO6g_xqN84IgQ4E7PeZEyRsFUwTuwHN2pCa3HlUJ-NB7oqfXk9O2hzJ0c9DKo5oYO0ncTmrmFj368mnVJ6s1MmIkkTeVf2wYHF-HCT69ZkELL1vj72UQE27Z6Z8birT0wRTeWLwWUOckuXawmXXB3TovqrV8wPmVASX3qrsI9T4KqYPQI8kP1u4LQe4wa-Z2a-mQLNDZ6f56d46_Uu6UItNqJjC2m6RJ0mg4v8NbPT12G_TMf6aZjwgLWlFrzsIQ2HWhhAah551H39S866kbSoAuy7Vmu0mB21PSO9tkeocnfP0KoYxS-bAbwH2uWvKot5EGJxJa0Po3xWlczXGwboS_CDgZKkOTFaZiirVm6PrVwhhyHR5j-LcorHfJmZSzy6-zOtWupcjHKUf6Ey2TjpppjFJSchBRUaIzLqOUzAqct8oca-baiKZ3UN-i447jw9_w0W00]--></g></svg>