<?xml version="1.0" encoding="us-ascii" standalone="no"?><svg xmlns="http://www.w3.org/2000/svg" xmlns:xlink="http://www.w3.org/1999/xlink" contentStyleType="text/css" height="429px" preserveAspectRatio="none" style="width:1295px;height:429px;background:#FFFFFF;" version="1.1" viewBox="0 0 1295 429" width="1295px" zoomAndPan="magnify"><defs/><g><text fill="#000000" font-family="sans-serif" font-size="20" font-weight="bold" lengthAdjust="spacing" textLength="395" x="247.25" y="29.3359">Example.BaseExample_DOT_EnumTest</text><text fill="#000000" font-family="sans-serif" font-size="20" font-weight="bold" lengthAdjust="spacing" textLength="84" x="649.25" y="29.3359">detailed</text><text fill="#000000" font-family="sans-serif" font-size="20" font-weight="bold" lengthAdjust="spacing" textLength="38" x="740.25" y="29.3359">and</text><text fill="#000000" font-family="sans-serif" font-size="20" font-weight="bold" lengthAdjust="spacing" textLength="249" x="785.25" y="29.3359">grouped per namespace</text><!--cluster Example--><g id="cluster_Example"><a href="Example-diagram-detailed-grouped-per-namespace.svg" target="_top" title="Example-diagram-detailed-grouped-per-namespace.svg" xlink:actuate="onRequest" xlink:href="Example-diagram-detailed-grouped-per-namespace.svg" xlink:show="new" xlink:title="Example-diagram-detailed-grouped-per-namespace.svg" xlink:type="simple"><path d="M631,99.0547 L692,99.0547 A3.75,3.75 0 0 1 694.5,101.5547 L701.5,121.543 L1286,121.543 A2.5,2.5 0 0 1 1288.5,124.043 L1288.5,420.0547 A2.5,2.5 0 0 1 1286,422.5547 L631,422.5547 A2.5,2.5 0 0 1 628.5,420.0547 L628.5,101.5547 A2.5,2.5 0 0 1 631,99.0547 " fill="none" style="stroke:#000000;stroke-width:1.5;"/><line style="stroke:#000000;stroke-width:1.5;" x1="628.5" x2="701.5" y1="121.543" y2="121.543"/><text fill="#000000" font-family="sans-serif" font-size="14" font-weight="bold" lengthAdjust="spacing" textLength="60" x="632.5" y="114.5898">Example</text></a></g><!--class BaseExample_DOT_EnumTest--><a href="Example.BaseExample_DOT_EnumTest-diagram-detailed-grouped-per-namespace.svg" target="_top" title="Example.BaseExample_DOT_EnumTest-diagram-detailed-grouped-per-namespace.svg" xlink:actuate="onRequest" xlink:href="Example.BaseExample_DOT_EnumTest-diagram-detailed-grouped-per-namespace.svg" xlink:show="new" xlink:title="Example.BaseExample_DOT_EnumTest-diagram-detailed-grouped-per-namespace.svg" xlink:type="simple"><g id="elem_BaseExample_DOT_EnumTest"><rect codeLine="4" fill="#FFFF00" height="48" id="BaseExample_DOT_EnumTest" rx="2.5" ry="2.5" style="stroke:#181818;stroke-width:0.5;" width="234" x="841.5" y="358.5547"/><ellipse cx="856.5" cy="374.5547" fill="#ADD1B2" rx="11" ry="11" style="stroke:#181818;stroke-width:1.0;"/><path d="M858.9731,380.6978 Q858.3921,380.9966 857.7529,381.146 Q857.1138,381.2954 856.4082,381.2954 Q853.9014,381.2954 852.5815,379.6436 Q851.2617,377.9917 851.2617,374.8706 Q851.2617,371.7412 852.5815,370.0894 Q853.9014,368.4375 856.4082,368.4375 Q857.1138,368.4375 857.7612,368.5869 Q858.4087,368.7363 858.9731,369.0352 L858.9731,371.7578 Q858.3423,371.1768 857.7488,370.907 Q857.1553,370.6372 856.5244,370.6372 Q855.1797,370.6372 854.4949,371.7039 Q853.8101,372.7705 853.8101,374.8706 Q853.8101,376.9624 854.4949,378.0291 Q855.1797,379.0957 856.5244,379.0957 Q857.1553,379.0957 857.7488,378.8259 Q858.3423,378.5562 858.9731,377.9751 Z " fill="#000000"/><text fill="#000000" font-family="sans-serif" font-size="14" lengthAdjust="spacing" textLength="202" x="870.5" y="379.8457">BaseExample_DOT_EnumTest</text><line style="stroke:#181818;stroke-width:0.5;" x1="842.5" x2="1074.5" y1="390.5547" y2="390.5547"/><line style="stroke:#181818;stroke-width:0.5;" x1="842.5" x2="1074.5" y1="398.5547" y2="398.5547"/></g></a><!--class BaseExample--><a href="Example.BaseExample-diagram-detailed-grouped-per-namespace.svg" target="_top" title="Example.BaseExample-diagram-detailed-grouped-per-namespace.svg" xlink:actuate="onRequest" xlink:href="Example.BaseExample-diagram-detailed-grouped-per-namespace.svg" xlink:show="new" xlink:title="Example.BaseExample-diagram-detailed-grouped-per-namespace.svg" xlink:type="simple"><g id="elem_BaseExample"><rect codeLine="6" fill="#F1F1F1" height="80.9766" id="BaseExample" rx="2.5" ry="2.5" style="stroke:#181818;stroke-width:0.5;" width="628" x="644.5" y="134.0547"/><ellipse cx="909.25" cy="150.0547" fill="#ADD1B2" rx="11" ry="11" style="stroke:#181818;stroke-width:1.0;"/><path d="M911.7231,156.1978 Q911.1421,156.4966 910.5029,156.646 Q909.8638,156.7954 909.1582,156.7954 Q906.6514,156.7954 905.3315,155.1436 Q904.0117,153.4917 904.0117,150.3706 Q904.0117,147.2412 905.3315,145.5894 Q906.6514,143.9375 909.1582,143.9375 Q909.8638,143.9375 910.5112,144.0869 Q911.1587,144.2363 911.7231,144.5352 L911.7231,147.2578 Q911.0923,146.6768 910.4988,146.407 Q909.9053,146.1372 909.2744,146.1372 Q907.9297,146.1372 907.2449,147.2039 Q906.5601,148.2705 906.5601,150.3706 Q906.5601,152.4624 907.2449,153.5291 Q907.9297,154.5957 909.2744,154.5957 Q909.9053,154.5957 910.4988,154.3259 Q911.0923,154.0562 911.7231,153.4751 Z " fill="#000000"/><text fill="#000000" font-family="sans-serif" font-size="14" lengthAdjust="spacing" textLength="90" x="929.75" y="155.3457">BaseExample</text><line style="stroke:#181818;stroke-width:0.5;" x1="645.5" x2="1271.5" y1="166.0547" y2="166.0547"/><line style="stroke:#181818;stroke-width:0.5;" x1="645.5" x2="1271.5" y1="174.0547" y2="174.0547"/><ellipse cx="655.5" cy="187.7988" fill="#84BE84" rx="3" ry="3" style="stroke:#038048;stroke-width:1.0;"/><text fill="#000000" font-family="sans-serif" font-size="14" lengthAdjust="spacing" textLength="121" x="664.5" y="191.5898">exampleAbstract(</text><text fill="#6060BB" font-family="sans-serif" font-size="14" lengthAdjust="spacing" textLength="476" x="785.5" y="191.5898">exampleAbstract:Example.Useless, exampleAbstract:Example.Useless</text><text fill="#000000" font-family="sans-serif" font-size="14" lengthAdjust="spacing" textLength="5" x="1261.5" y="191.5898">)</text><ellipse cx="655.5" cy="204.2871" fill="#84BE84" rx="3" ry="3" style="stroke:#038048;stroke-width:1.0;"/><text fill="#000000" font-family="sans-serif" font-size="14" lengthAdjust="spacing" textLength="101" x="664.5" y="208.0781">otherExample(</text><text fill="#000000" font-family="sans-serif" font-size="14" lengthAdjust="spacing" textLength="5" x="765.5" y="208.0781">)</text></g></a><g id="elem_FloatingNote"><path d="M6,50.5547 L6,298.2129 L609,298.2129 L609,60.5547 L599,50.5547 L6,50.5547 " fill="#FEFFDD" style="stroke:#181818;stroke-width:0.5;"/><path d="M599,50.5547 L599,60.5547 L609,60.5547 L599,50.5547 " fill="#FEFFDD" style="stroke:#181818;stroke-width:1.0;"/><text fill="#000000" font-family="sans-serif" font-size="13" lengthAdjust="spacing" textLength="120" x="12" y="68.123">Your are analyzing:</text><text fill="#000000" font-family="sans-serif" font-size="13" lengthAdjust="spacing" textLength="242" x="12" y="83.4336">Example.BaseExample_DOT_EnumTest</text><text fill="#000000" font-family="sans-serif" font-size="13" font-weight="bold" lengthAdjust="spacing" textLength="55" x="258" y="83.4336">detailed</text><text fill="#000000" font-family="sans-serif" font-size="13" lengthAdjust="spacing" textLength="23" x="317" y="83.4336">and</text><text fill="#000000" font-family="sans-serif" font-size="13" font-weight="bold" lengthAdjust="spacing" textLength="166" x="344" y="83.4336">grouped per namespace</text><text fill="#000000" font-family="sans-serif" font-size="13" lengthAdjust="spacing" textLength="4" x="12" y="98.7441">&#160;</text><text fill="#000000" font-family="sans-serif" font-size="13" lengthAdjust="spacing" textLength="229" x="12" y="129.3652">You can click either the namespaces</text><text fill="#000000" font-family="sans-serif" font-size="13" lengthAdjust="spacing" textLength="266" x="12" y="144.6758">or class names for filtering them and their</text><text fill="#000000" font-family="sans-serif" font-size="13" lengthAdjust="spacing" textLength="130" x="12" y="159.9863">direct dependencies.</text><text fill="#000000" font-family="sans-serif" font-size="13" lengthAdjust="spacing" textLength="4" x="12" y="175.2969">&#160;</text><line style="stroke:#181818;stroke-width:1.0;" x1="7" x2="291.5" y1="109.1416" y2="109.1416"/><line style="stroke:#181818;stroke-width:1.0;" x1="7" x2="291.5" y1="111.1416" y2="111.1416"/><text fill="#000000" font-family="sans-serif" font-size="13" lengthAdjust="spacing" textLength="32" x="291.5" y="113.5547">Filter</text><line style="stroke:#181818;stroke-width:1.0;" x1="323.5" x2="608" y1="109.1416" y2="109.1416"/><line style="stroke:#181818;stroke-width:1.0;" x1="323.5" x2="608" y1="111.1416" y2="111.1416"/><ellipse cx="17.5" cy="205.1602" fill="#000000" rx="2.5" ry="2.5" style="stroke:#000000;stroke-width:0.0;"/><text fill="#000000" font-family="sans-serif" font-size="13" lengthAdjust="spacing" textLength="242" x="24" y="209.918">Example.BaseExample_DOT_EnumTest</text><text fill="#000000" font-family="sans-serif" font-size="13" font-weight="bold" lengthAdjust="spacing" textLength="67" x="270" y="209.918">simplified</text><text fill="#000000" font-family="sans-serif" font-size="13" lengthAdjust="spacing" textLength="23" x="341" y="209.918">and</text><text fill="#000000" font-family="sans-serif" font-size="13" font-weight="bold" lengthAdjust="spacing" textLength="166" x="368" y="209.918">grouped per namespace</text><text fill="#000000" font-family="sans-serif" font-size="13" lengthAdjust="spacing" textLength="4" x="534" y="209.918">:</text><text fill="#000000" font-family="sans-serif" font-size="13" lengthAdjust="spacing" textLength="12" x="12" y="225.2285">&#160;&#160;&#160;</text><a href="Example.BaseExample_DOT_EnumTest-diagram-simplified-grouped-per-namespace.svg" target="_top" title="Example.BaseExample_DOT_EnumTest-diagram-simplified-grouped-per-namespace.svg" xlink:actuate="onRequest" xlink:href="Example.BaseExample_DOT_EnumTest-diagram-simplified-grouped-per-namespace.svg" xlink:show="new" xlink:title="Example.BaseExample_DOT_EnumTest-diagram-simplified-grouped-per-namespace.svg" xlink:type="simple"><text fill="#0000FF" font-family="sans-serif" font-size="13" lengthAdjust="spacing" text-decoration="underline" textLength="564" x="24" y="225.2285">Example.BaseExample_DOT_EnumTest-diagram-simplified-grouped-per-namespace.svg</text></a><ellipse cx="17.5" cy="235.7813" fill="#000000" rx="2.5" ry="2.5" style="stroke:#000000;stroke-width:0.0;"/><text fill="#000000" font-family="sans-serif" font-size="13" lengthAdjust="spacing" textLength="78" x="24" y="240.5391">Full diagram</text><text fill="#000000" font-family="sans-serif" font-size="13" font-weight="bold" lengthAdjust="spacing" textLength="55" x="106" y="240.5391">detailed</text><text fill="#000000" font-family="sans-serif" font-size="13" lengthAdjust="spacing" textLength="23" x="165" y="240.5391">and</text><text fill="#000000" font-family="sans-serif" font-size="13" font-weight="bold" lengthAdjust="spacing" textLength="166" x="192" y="240.5391">grouped per namespace</text><text fill="#000000" font-family="sans-serif" font-size="13" lengthAdjust="spacing" textLength="4" x="358" y="240.5391">:</text><text fill="#000000" font-family="sans-serif" font-size="13" lengthAdjust="spacing" textLength="12" x="12" y="255.8496">&#160;&#160;&#160;</text><a href="full-diagram-detailed-grouped-per-namespace.svg" target="_top" title="full-diagram-detailed-grouped-per-namespace.svg" xlink:actuate="onRequest" xlink:href="full-diagram-detailed-grouped-per-namespace.svg" xlink:show="new" xlink:title="full-diagram-detailed-grouped-per-namespace.svg" xlink:type="simple"><text fill="#0000FF" font-family="sans-serif" font-size="13" lengthAdjust="spacing" text-decoration="underline" textLength="330" x="24" y="255.8496">full-diagram-detailed-grouped-per-namespace.svg</text></a><ellipse cx="17.5" cy="266.4023" fill="#000000" rx="2.5" ry="2.5" style="stroke:#000000;stroke-width:0.0;"/><text fill="#000000" font-family="sans-serif" font-size="13" lengthAdjust="spacing" textLength="41" x="24" y="271.1602">Home:</text><text fill="#000000" font-family="sans-serif" font-size="13" lengthAdjust="spacing" textLength="12" x="12" y="286.4707">&#160;&#160;&#160;</text><a href="index.html" target="_top" title="index.html" xlink:actuate="onRequest" xlink:href="index.html" xlink:show="new" xlink:title="index.html" xlink:type="simple"><text fill="#0000FF" font-family="sans-serif" font-size="13" lengthAdjust="spacing" text-decoration="underline" textLength="68" x="24" y="286.4707">index.html</text></a><line style="stroke:#181818;stroke-width:1.0;" x1="7" x2="270.5" y1="189.6943" y2="189.6943"/><line style="stroke:#181818;stroke-width:1.0;" x1="7" x2="270.5" y1="191.6943" y2="191.6943"/><text fill="#000000" font-family="sans-serif" font-size="13" lengthAdjust="spacing" textLength="74" x="270.5" y="194.1074">Select other</text><line style="stroke:#181818;stroke-width:1.0;" x1="344.5" x2="608" y1="189.6943" y2="189.6943"/><line style="stroke:#181818;stroke-width:1.0;" x1="344.5" x2="608" y1="191.6943" y2="191.6943"/></g><!--reverse link BaseExample to BaseExample_DOT_EnumTest--><g id="link_BaseExample_BaseExample_DOT_EnumTest"><path codeLine="19" d="M958.5,231.0747 C958.5,272.7147 958.5,327.6247 958.5,358.2847 " fill="none" id="BaseExample-backto-BaseExample_DOT_EnumTest" style="stroke:#10BBBB;stroke-width:1.0;"/><ellipse cx="958.5" cy="224.2747" fill="#FFFFFF" rx="8" ry="8" style="stroke:#10BBBB;stroke-width:1.0;"/><line style="stroke:#10BBBB;stroke-width:1.0;" x1="958.5" x2="958.5" y1="232.2747" y2="216.2747"/><line style="stroke:#10BBBB;stroke-width:1.0;" x1="950.5" x2="966.5" y1="224.2747" y2="224.2747"/></g><!--SRC=[jLHDRvj04BtxLuoSGrfI7BU772pRKft6wYazD3rK1g4r3FQgooxQMV9LvRzt5XkeMbVOKeeGWcNclRTlPjP9fn2c99znyc4yltaKHQbmj124-_VaqvUxv4PNnHsIWo38q0cfC0i243hZXOqrLOaPb6X1YmAf52a6mVJIWyu7sZY4uNTJMH0MEKUefsUfDvD8lo9Rf2CzcosbScXdiqWp7wH2Gwfa-WDGkYt7ywFB8OYqiHmWY7QhaFDtNaEmFXzTrAJy8csaCsanTP1XYJf3dKgaqOxsAoh_ntWIJnx04JiZoQiob_rxOwS0OBNg0mqpAJPM56477UuXGuOCMyWHtM_YsEjSLah1Fkq4jnj5EQUth4ro7-TdKs038Dd9nz7M5IgEXo08bie8n-xVSjSCskJ6pyw4arZXvs1Nvjwod63oKSHdJwYKUM01B_-MS9ZrD29c0BW0tEL-N9Ep8dLlfhdH3bAZZ9qDhyPNuyLYEFyZQDAGVoFkOw9tq1CmlVIeyxSrOztq-u33T6tuo-3ysXGbdm8Pl5vfuO676zXR1wokG1PWSc0kk5Q6_20Bxl7Iuhqq5ILKhPCM8r6IqpejjqOZh34L5Q4_2VR75Ka2ldEf9Mqn6_s6_TS-U9TmpfDpr0N_BTOhzErcKV4y6KrSrBgOx7rkJT49dt1ie_rGSrw4gxFtNCZ58Wxx1-WN]--></g></svg>