<?xml version="1.0" encoding="us-ascii" standalone="no"?><svg xmlns="http://www.w3.org/2000/svg" xmlns:xlink="http://www.w3.org/1999/xlink" contentStyleType="text/css" height="430px" preserveAspectRatio="none" style="width:846px;height:430px;background:#FFFFFF;" version="1.1" viewBox="0 0 846 430" width="846px" zoomAndPan="magnify"><defs/><g><text fill="#000000" font-family="sans-serif" font-size="20" font-weight="bold" lengthAdjust="spacing" textLength="170" x="125" y="29.3359">FieldDeclaration</text><text fill="#000000" font-family="sans-serif" font-size="20" font-weight="bold" lengthAdjust="spacing" textLength="104" x="302" y="29.3359">simplified</text><text fill="#000000" font-family="sans-serif" font-size="20" font-weight="bold" lengthAdjust="spacing" textLength="38" x="413" y="29.3359">and</text><text fill="#000000" font-family="sans-serif" font-size="20" font-weight="bold" lengthAdjust="spacing" textLength="249" x="458" y="29.3359">grouped per namespace</text><!--cluster preadapter--><g id="cluster_preadapter"><a href="preadapter-diagram-simplified-grouped-per-namespace.svg" target="_top" title="preadapter-diagram-simplified-grouped-per-namespace.svg" xlink:actuate="onRequest" xlink:href="preadapter-diagram-simplified-grouped-per-namespace.svg" xlink:show="new" xlink:title="preadapter-diagram-simplified-grouped-per-namespace.svg" xlink:type="simple"><path d="M474.5,72.5547 L552.5,72.5547 A3.75,3.75 0 0 1 555,75.0547 L562,95.043 L836.5,95.043 A2.5,2.5 0 0 1 839,97.543 L839,236.0547 A2.5,2.5 0 0 1 836.5,238.5547 L474.5,238.5547 A2.5,2.5 0 0 1 472,236.0547 L472,75.0547 A2.5,2.5 0 0 1 474.5,72.5547 " fill="none" style="stroke:#000000;stroke-width:1.5;"/><line style="stroke:#000000;stroke-width:1.5;" x1="472" x2="562" y1="95.043" y2="95.043"/><text fill="#000000" font-family="sans-serif" font-size="14" font-weight="bold" lengthAdjust="spacing" textLength="77" x="476" y="88.0898">preadapter</text></a></g><!--cluster domain--><g id="cluster_domain"><a href="preadapter.domain-diagram-simplified-grouped-per-namespace.svg" target="_top" title="preadapter.domain-diagram-simplified-grouped-per-namespace.svg" xlink:actuate="onRequest" xlink:href="preadapter.domain-diagram-simplified-grouped-per-namespace.svg" xlink:show="new" xlink:title="preadapter.domain-diagram-simplified-grouped-per-namespace.svg" xlink:type="simple"><path d="M498.5,115.5547 L553.5,115.5547 A3.75,3.75 0 0 1 556,118.0547 L563,138.043 L812.5,138.043 A2.5,2.5 0 0 1 815,140.543 L815,212.0547 A2.5,2.5 0 0 1 812.5,214.5547 L498.5,214.5547 A2.5,2.5 0 0 1 496,212.0547 L496,118.0547 A2.5,2.5 0 0 1 498.5,115.5547 " fill="none" style="stroke:#000000;stroke-width:1.5;"/><line style="stroke:#000000;stroke-width:1.5;" x1="496" x2="563" y1="138.043" y2="138.043"/><text fill="#000000" font-family="sans-serif" font-size="14" font-weight="bold" lengthAdjust="spacing" textLength="54" x="500" y="131.0898">domain</text></a></g><!--class ASTVisitor--><a href="preadapter.domain.ASTVisitor-diagram-simplified-grouped-per-namespace.svg" target="_top" title="preadapter.domain.ASTVisitor-diagram-simplified-grouped-per-namespace.svg" xlink:actuate="onRequest" xlink:href="preadapter.domain.ASTVisitor-diagram-simplified-grouped-per-namespace.svg" xlink:show="new" xlink:title="preadapter.domain.ASTVisitor-diagram-simplified-grouped-per-namespace.svg" xlink:type="simple"><g id="elem_ASTVisitor"><rect codeLine="8" fill="#F1F1F1" height="48" id="ASTVisitor" rx="2.5" ry="2.5" style="stroke:#181818;stroke-width:0.5;" width="103" x="512.5" y="150.5547"/><ellipse cx="527.5" cy="166.5547" fill="#ADD1B2" rx="11" ry="11" style="stroke:#181818;stroke-width:1.0;"/><path d="M529.9731,172.6978 Q529.3921,172.9966 528.7529,173.146 Q528.1138,173.2954 527.4082,173.2954 Q524.9014,173.2954 523.5815,171.6436 Q522.2617,169.9917 522.2617,166.8706 Q522.2617,163.7412 523.5815,162.0894 Q524.9014,160.4375 527.4082,160.4375 Q528.1138,160.4375 528.7612,160.5869 Q529.4087,160.7363 529.9731,161.0352 L529.9731,163.7578 Q529.3423,163.1768 528.7488,162.907 Q528.1553,162.6372 527.5244,162.6372 Q526.1797,162.6372 525.4949,163.7039 Q524.8101,164.7705 524.8101,166.8706 Q524.8101,168.9624 525.4949,170.0291 Q526.1797,171.0957 527.5244,171.0957 Q528.1553,171.0957 528.7488,170.8259 Q529.3423,170.5562 529.9731,169.9751 Z " fill="#000000"/><text fill="#000000" font-family="sans-serif" font-size="14" lengthAdjust="spacing" textLength="71" x="541.5" y="171.8457">ASTVisitor</text><line style="stroke:#181818;stroke-width:0.5;" x1="513.5" x2="614.5" y1="182.5547" y2="182.5547"/><line style="stroke:#181818;stroke-width:0.5;" x1="513.5" x2="614.5" y1="190.5547" y2="190.5547"/></g></a><!--class ASTVisitorDebug--><a href="preadapter.domain.ASTVisitorDebug-diagram-simplified-grouped-per-namespace.svg" target="_top" title="preadapter.domain.ASTVisitorDebug-diagram-simplified-grouped-per-namespace.svg" xlink:actuate="onRequest" xlink:href="preadapter.domain.ASTVisitorDebug-diagram-simplified-grouped-per-namespace.svg" xlink:show="new" xlink:title="preadapter.domain.ASTVisitorDebug-diagram-simplified-grouped-per-namespace.svg" xlink:type="simple"><g id="elem_ASTVisitorDebug"><rect codeLine="10" fill="#F1F1F1" height="48" id="ASTVisitorDebug" rx="2.5" ry="2.5" style="stroke:#181818;stroke-width:0.5;" width="148" x="651" y="150.5547"/><ellipse cx="666" cy="166.5547" fill="#ADD1B2" rx="11" ry="11" style="stroke:#181818;stroke-width:1.0;"/><path d="M668.4731,172.6978 Q667.8921,172.9966 667.2529,173.146 Q666.6138,173.2954 665.9082,173.2954 Q663.4014,173.2954 662.0815,171.6436 Q660.7617,169.9917 660.7617,166.8706 Q660.7617,163.7412 662.0815,162.0894 Q663.4014,160.4375 665.9082,160.4375 Q666.6138,160.4375 667.2612,160.5869 Q667.9087,160.7363 668.4731,161.0352 L668.4731,163.7578 Q667.8423,163.1768 667.2488,162.907 Q666.6553,162.6372 666.0244,162.6372 Q664.6797,162.6372 663.9949,163.7039 Q663.3101,164.7705 663.3101,166.8706 Q663.3101,168.9624 663.9949,170.0291 Q664.6797,171.0957 666.0244,171.0957 Q666.6553,171.0957 667.2488,170.8259 Q667.8423,170.5562 668.4731,169.9751 Z " fill="#000000"/><text fill="#000000" font-family="sans-serif" font-size="14" lengthAdjust="spacing" textLength="116" x="680" y="171.8457">ASTVisitorDebug</text><line style="stroke:#181818;stroke-width:0.5;" x1="652" x2="798" y1="182.5547" y2="182.5547"/><line style="stroke:#181818;stroke-width:0.5;" x1="652" x2="798" y1="190.5547" y2="190.5547"/></g></a><g id="elem_FloatingNote"><path d="M6,50.5547 L6,298.2129 L456,298.2129 L456,60.5547 L446,50.5547 L6,50.5547 " fill="#FEFFDD" style="stroke:#181818;stroke-width:0.5;"/><path d="M446,50.5547 L446,60.5547 L456,60.5547 L446,50.5547 " fill="#FEFFDD" style="stroke:#181818;stroke-width:1.0;"/><text fill="#000000" font-family="sans-serif" font-size="13" lengthAdjust="spacing" textLength="120" x="12" y="68.123">Your are analyzing:</text><text fill="#000000" font-family="sans-serif" font-size="13" lengthAdjust="spacing" textLength="102" x="12" y="83.4336">FieldDeclaration</text><text fill="#000000" font-family="sans-serif" font-size="13" font-weight="bold" lengthAdjust="spacing" textLength="67" x="118" y="83.4336">simplified</text><text fill="#000000" font-family="sans-serif" font-size="13" lengthAdjust="spacing" textLength="23" x="189" y="83.4336">and</text><text fill="#000000" font-family="sans-serif" font-size="13" font-weight="bold" lengthAdjust="spacing" textLength="166" x="216" y="83.4336">grouped per namespace</text><text fill="#000000" font-family="sans-serif" font-size="13" lengthAdjust="spacing" textLength="4" x="12" y="98.7441">&#160;</text><text fill="#000000" font-family="sans-serif" font-size="13" lengthAdjust="spacing" textLength="229" x="12" y="129.3652">You can click either the namespaces</text><text fill="#000000" font-family="sans-serif" font-size="13" lengthAdjust="spacing" textLength="266" x="12" y="144.6758">or class names for filtering them and their</text><text fill="#000000" font-family="sans-serif" font-size="13" lengthAdjust="spacing" textLength="130" x="12" y="159.9863">direct dependencies.</text><text fill="#000000" font-family="sans-serif" font-size="13" lengthAdjust="spacing" textLength="4" x="12" y="175.2969">&#160;</text><line style="stroke:#181818;stroke-width:1.0;" x1="7" x2="215" y1="109.1416" y2="109.1416"/><line style="stroke:#181818;stroke-width:1.0;" x1="7" x2="215" y1="111.1416" y2="111.1416"/><text fill="#000000" font-family="sans-serif" font-size="13" lengthAdjust="spacing" textLength="32" x="215" y="113.5547">Filter</text><line style="stroke:#181818;stroke-width:1.0;" x1="247" x2="455" y1="109.1416" y2="109.1416"/><line style="stroke:#181818;stroke-width:1.0;" x1="247" x2="455" y1="111.1416" y2="111.1416"/><ellipse cx="17.5" cy="205.1602" fill="#000000" rx="2.5" ry="2.5" style="stroke:#000000;stroke-width:0.0;"/><text fill="#000000" font-family="sans-serif" font-size="13" lengthAdjust="spacing" textLength="102" x="24" y="209.918">FieldDeclaration</text><text fill="#000000" font-family="sans-serif" font-size="13" font-weight="bold" lengthAdjust="spacing" textLength="55" x="130" y="209.918">detailed</text><text fill="#000000" font-family="sans-serif" font-size="13" lengthAdjust="spacing" textLength="23" x="189" y="209.918">and</text><text fill="#000000" font-family="sans-serif" font-size="13" font-weight="bold" lengthAdjust="spacing" textLength="166" x="216" y="209.918">grouped per namespace</text><text fill="#000000" font-family="sans-serif" font-size="13" lengthAdjust="spacing" textLength="4" x="382" y="209.918">:</text><text fill="#000000" font-family="sans-serif" font-size="13" lengthAdjust="spacing" textLength="12" x="12" y="225.2285">&#160;&#160;&#160;</text><a href="FieldDeclaration-diagram-detailed-grouped-per-namespace.svg" target="_top" title="FieldDeclaration-diagram-detailed-grouped-per-namespace.svg" xlink:actuate="onRequest" xlink:href="FieldDeclaration-diagram-detailed-grouped-per-namespace.svg" xlink:show="new" xlink:title="FieldDeclaration-diagram-detailed-grouped-per-namespace.svg" xlink:type="simple"><text fill="#0000FF" font-family="sans-serif" font-size="13" lengthAdjust="spacing" text-decoration="underline" textLength="411" x="24" y="225.2285">FieldDeclaration-diagram-detailed-grouped-per-namespace.svg</text></a><ellipse cx="17.5" cy="235.7813" fill="#000000" rx="2.5" ry="2.5" style="stroke:#000000;stroke-width:0.0;"/><text fill="#000000" font-family="sans-serif" font-size="13" lengthAdjust="spacing" textLength="78" x="24" y="240.5391">Full diagram</text><text fill="#000000" font-family="sans-serif" font-size="13" font-weight="bold" lengthAdjust="spacing" textLength="67" x="106" y="240.5391">simplified</text><text fill="#000000" font-family="sans-serif" font-size="13" lengthAdjust="spacing" textLength="23" x="177" y="240.5391">and</text><text fill="#000000" font-family="sans-serif" font-size="13" font-weight="bold" lengthAdjust="spacing" textLength="166" x="204" y="240.5391">grouped per namespace</text><text fill="#000000" font-family="sans-serif" font-size="13" lengthAdjust="spacing" textLength="4" x="370" y="240.5391">:</text><text fill="#000000" font-family="sans-serif" font-size="13" lengthAdjust="spacing" textLength="12" x="12" y="255.8496">&#160;&#160;&#160;</text><a href="full-diagram-simplified-grouped-per-namespace.svg" target="_top" title="full-diagram-simplified-grouped-per-namespace.svg" xlink:actuate="onRequest" xlink:href="full-diagram-simplified-grouped-per-namespace.svg" xlink:show="new" xlink:title="full-diagram-simplified-grouped-per-namespace.svg" xlink:type="simple"><text fill="#0000FF" font-family="sans-serif" font-size="13" lengthAdjust="spacing" text-decoration="underline" textLength="343" x="24" y="255.8496">full-diagram-simplified-grouped-per-namespace.svg</text></a><ellipse cx="17.5" cy="266.4023" fill="#000000" rx="2.5" ry="2.5" style="stroke:#000000;stroke-width:0.0;"/><text fill="#000000" font-family="sans-serif" font-size="13" lengthAdjust="spacing" textLength="41" x="24" y="271.1602">Home:</text><text fill="#000000" font-family="sans-serif" font-size="13" lengthAdjust="spacing" textLength="12" x="12" y="286.4707">&#160;&#160;&#160;</text><a href="index.html" target="_top" title="index.html" xlink:actuate="onRequest" xlink:href="index.html" xlink:show="new" xlink:title="index.html" xlink:type="simple"><text fill="#0000FF" font-family="sans-serif" font-size="13" lengthAdjust="spacing" text-decoration="underline" textLength="68" x="24" y="286.4707">index.html</text></a><line style="stroke:#181818;stroke-width:1.0;" x1="7" x2="194" y1="189.6943" y2="189.6943"/><line style="stroke:#181818;stroke-width:1.0;" x1="7" x2="194" y1="191.6943" y2="191.6943"/><text fill="#000000" font-family="sans-serif" font-size="13" lengthAdjust="spacing" textLength="74" x="194" y="194.1074">Select other</text><line style="stroke:#181818;stroke-width:1.0;" x1="268" x2="455" y1="189.6943" y2="189.6943"/><line style="stroke:#181818;stroke-width:1.0;" x1="268" x2="455" y1="191.6943" y2="191.6943"/></g><!--class FieldDeclaration--><a href="FieldDeclaration-diagram-simplified-grouped-per-namespace.svg" target="_top" title="FieldDeclaration-diagram-simplified-grouped-per-namespace.svg" xlink:actuate="onRequest" xlink:href="FieldDeclaration-diagram-simplified-grouped-per-namespace.svg" xlink:show="new" xlink:title="FieldDeclaration-diagram-simplified-grouped-per-namespace.svg" xlink:type="simple"><g id="elem_FieldDeclaration"><rect codeLine="3" fill="#FFFF00" height="48" id="FieldDeclaration" rx="2.5" ry="2.5" style="stroke:#181818;stroke-width:0.5;" width="143" x="572.5" y="375.5547"/><ellipse cx="587.5" cy="391.5547" fill="#ADD1B2" rx="11" ry="11" style="stroke:#181818;stroke-width:1.0;"/><path d="M589.9731,397.6978 Q589.3921,397.9966 588.7529,398.146 Q588.1138,398.2954 587.4082,398.2954 Q584.9014,398.2954 583.5815,396.6436 Q582.2617,394.9917 582.2617,391.8706 Q582.2617,388.7412 583.5815,387.0894 Q584.9014,385.4375 587.4082,385.4375 Q588.1138,385.4375 588.7612,385.5869 Q589.4087,385.7363 589.9731,386.0352 L589.9731,388.7578 Q589.3423,388.1768 588.7488,387.907 Q588.1553,387.6372 587.5244,387.6372 Q586.1797,387.6372 585.4949,388.7039 Q584.8101,389.7705 584.8101,391.8706 Q584.8101,393.9624 585.4949,395.0291 Q586.1797,396.0957 587.5244,396.0957 Q588.1553,396.0957 588.7488,395.8259 Q589.3423,395.5562 589.9731,394.9751 Z " fill="#000000"/><text fill="#000000" font-family="sans-serif" font-size="14" lengthAdjust="spacing" textLength="111" x="601.5" y="396.8457">FieldDeclaration</text><line style="stroke:#181818;stroke-width:0.5;" x1="573.5" x2="714.5" y1="407.5547" y2="407.5547"/><line style="stroke:#181818;stroke-width:0.5;" x1="573.5" x2="714.5" y1="415.5547" y2="415.5547"/></g></a><!--link ASTVisitor to FieldDeclaration--><g id="link_ASTVisitor_FieldDeclaration"><path codeLine="25" d="M572.41,198.9947 C587.14,240.0747 617.58,324.9047 633.61,369.5847 " fill="none" id="ASTVisitor-to-FieldDeclaration" style="stroke:#6060BB;stroke-width:1.0;stroke-dasharray:7.0,7.0;"/><polygon fill="#6060BB" points="635.58,374.0947,636.3067,364.2727,633.892,369.3882,628.7764,366.9735,635.58,374.0947" style="stroke:#6060BB;stroke-width:1.0;"/><text fill="#000000" font-family="sans-serif" font-size="13" lengthAdjust="spacing" textLength="29" x="625" y="342.123">uses</text></g><!--link ASTVisitorDebug to FieldDeclaration--><g id="link_ASTVisitorDebug_FieldDeclaration"><path codeLine="26" d="M716.48,198.9947 C701.57,240.0747 670.75,324.9047 654.52,369.5847 " fill="none" id="ASTVisitorDebug-to-FieldDeclaration" style="stroke:#6060BB;stroke-width:1.0;stroke-dasharray:7.0,7.0;"/><polygon fill="#6060BB" points="652.52,374.0947,659.3427,366.9918,654.2207,369.3928,651.8197,364.2708,652.52,374.0947" style="stroke:#6060BB;stroke-width:1.0;"/><text fill="#000000" font-family="sans-serif" font-size="13" lengthAdjust="spacing" textLength="29" x="668" y="342.123">uses</text></g><!--SRC=[jLHDQ-Cm4BtxLmpj8M2m6_RGGsW2svQmfrwwB2nn28erTeRAaf7aVjB_lcF7YTjDQE9TOeonf9dttdneF7c5SENe5KVVXfCfePAtc2fXXIUZ8GmT5QMYZ5268GWjUIktfYfHGeaMj2ZGbIB5CBowg64cWJOUuUotgIm8Y-mZrCihwNoKwF_2JtIYn-CfAOzsF4uqCq0gDAIAqWT0yYksvq_duo3HnhA1S6wz2nclimQ25TNMHKFAFsGJBSbYwa5YYLgYJWbTlAQzHrMVc9ga9WzXJomIlI1rE1BE103CPdz3H994RaKHRO2Y5Y1YW6WB4Bl7V3vlD5HAGUlKAvSR1Ha3R5axzqEyFqo16mZYJ3t7Ar-e-VmCX8EfCXoDpk-u3u9rxdTozKNinwc0ynTKoZp1M_0U3E166LSNL70-IekFP2gtSDLoiNLRA7A-Im7S6Osmn5HK3kkEQ1lLaGD-CzBaLYZZeFDWN255oQt3yhj5N-5lUo5ZQGf1-XDokzUV0DgMtu6Alz___4MElB7xc3uSzoLjMD-FOhx5PPKVe6zi_b73uCOK9KyU2QTED3pnq04Es0EFXm8r3uWC6WqdxCWEk_DT1_3fAkmBdWrWm5FXg0TEPbkBhBl4echklWDyzbQadckMMLDqsaTiszDyfwp1bzSWdfrV3Y-7rzVpUB8xfs04N0q7mU66FWxe3m00]--></g></svg>