<?xml version="1.0" encoding="us-ascii" standalone="no"?><svg xmlns="http://www.w3.org/2000/svg" xmlns:xlink="http://www.w3.org/1999/xlink" contentStyleType="text/css" height="430px" preserveAspectRatio="none" style="width:768px;height:430px;background:#FFFFFF;" version="1.1" viewBox="0 0 768 430" width="768px" zoomAndPan="magnify"><defs/><g><text fill="#000000" font-family="sans-serif" font-size="20" font-weight="bold" lengthAdjust="spacing" textLength="293" x="24.5" y="29.3359">list_BRQTO_Variable_BRQTC</text><text fill="#000000" font-family="sans-serif" font-size="20" font-weight="bold" lengthAdjust="spacing" textLength="104" x="324.5" y="29.3359">simplified</text><text fill="#000000" font-family="sans-serif" font-size="20" font-weight="bold" lengthAdjust="spacing" textLength="38" x="435.5" y="29.3359">and</text><text fill="#000000" font-family="sans-serif" font-size="20" font-weight="bold" lengthAdjust="spacing" textLength="249" x="480.5" y="29.3359">grouped per namespace</text><!--cluster preadapter--><g id="cluster_preadapter"><a href="preadapter-diagram-simplified-grouped-per-namespace.svg" target="_top" title="preadapter-diagram-simplified-grouped-per-namespace.svg" xlink:actuate="onRequest" xlink:href="preadapter-diagram-simplified-grouped-per-namespace.svg" xlink:show="new" xlink:title="preadapter-diagram-simplified-grouped-per-namespace.svg" xlink:type="simple"><path d="M548.5,72.5547 L626.5,72.5547 A3.75,3.75 0 0 1 629,75.0547 L636,95.043 L749.5,95.043 A2.5,2.5 0 0 1 752,97.543 L752,236.0547 A2.5,2.5 0 0 1 749.5,238.5547 L548.5,238.5547 A2.5,2.5 0 0 1 546,236.0547 L546,75.0547 A2.5,2.5 0 0 1 548.5,72.5547 " fill="none" style="stroke:#000000;stroke-width:1.5;"/><line style="stroke:#000000;stroke-width:1.5;" x1="546" x2="636" y1="95.043" y2="95.043"/><text fill="#000000" font-family="sans-serif" font-size="14" font-weight="bold" lengthAdjust="spacing" textLength="77" x="550" y="88.0898">preadapter</text></a></g><!--cluster domain--><g id="cluster_domain"><a href="preadapter.domain-diagram-simplified-grouped-per-namespace.svg" target="_top" title="preadapter.domain-diagram-simplified-grouped-per-namespace.svg" xlink:actuate="onRequest" xlink:href="preadapter.domain-diagram-simplified-grouped-per-namespace.svg" xlink:show="new" xlink:title="preadapter.domain-diagram-simplified-grouped-per-namespace.svg" xlink:type="simple"><path d="M572.5,115.5547 L627.5,115.5547 A3.75,3.75 0 0 1 630,118.0547 L637,138.043 L725.5,138.043 A2.5,2.5 0 0 1 728,140.543 L728,212.0547 A2.5,2.5 0 0 1 725.5,214.5547 L572.5,214.5547 A2.5,2.5 0 0 1 570,212.0547 L570,118.0547 A2.5,2.5 0 0 1 572.5,115.5547 " fill="none" style="stroke:#000000;stroke-width:1.5;"/><line style="stroke:#000000;stroke-width:1.5;" x1="570" x2="637" y1="138.043" y2="138.043"/><text fill="#000000" font-family="sans-serif" font-size="14" font-weight="bold" lengthAdjust="spacing" textLength="54" x="574" y="131.0898">domain</text></a></g><!--class Datastructure--><a href="preadapter.domain.Datastructure-diagram-simplified-grouped-per-namespace.svg" target="_top" title="preadapter.domain.Datastructure-diagram-simplified-grouped-per-namespace.svg" xlink:actuate="onRequest" xlink:href="preadapter.domain.Datastructure-diagram-simplified-grouped-per-namespace.svg" xlink:show="new" xlink:title="preadapter.domain.Datastructure-diagram-simplified-grouped-per-namespace.svg" xlink:type="simple"><g id="elem_Datastructure"><rect codeLine="8" fill="#F1F1F1" height="48" id="Datastructure" rx="2.5" ry="2.5" style="stroke:#181818;stroke-width:0.5;" width="125" x="586.5" y="150.5547"/><ellipse cx="601.5" cy="166.5547" fill="#ADD1B2" rx="11" ry="11" style="stroke:#181818;stroke-width:1.0;"/><path d="M603.9731,172.6978 Q603.3921,172.9966 602.7529,173.146 Q602.1138,173.2954 601.4082,173.2954 Q598.9014,173.2954 597.5815,171.6436 Q596.2617,169.9917 596.2617,166.8706 Q596.2617,163.7412 597.5815,162.0894 Q598.9014,160.4375 601.4082,160.4375 Q602.1138,160.4375 602.7612,160.5869 Q603.4087,160.7363 603.9731,161.0352 L603.9731,163.7578 Q603.3423,163.1768 602.7488,162.907 Q602.1553,162.6372 601.5244,162.6372 Q600.1797,162.6372 599.4949,163.7039 Q598.8101,164.7705 598.8101,166.8706 Q598.8101,168.9624 599.4949,170.0291 Q600.1797,171.0957 601.5244,171.0957 Q602.1553,171.0957 602.7488,170.8259 Q603.3423,170.5562 603.9731,169.9751 Z " fill="#000000"/><text fill="#000000" font-family="sans-serif" font-size="14" lengthAdjust="spacing" textLength="93" x="615.5" y="171.8457">Datastructure</text><line style="stroke:#181818;stroke-width:0.5;" x1="587.5" x2="710.5" y1="182.5547" y2="182.5547"/><line style="stroke:#181818;stroke-width:0.5;" x1="587.5" x2="710.5" y1="190.5547" y2="190.5547"/></g></a><g id="elem_FloatingNote"><path d="M6,50.5547 L6,298.2129 L530,298.2129 L530,60.5547 L520,50.5547 L6,50.5547 " fill="#FEFFDD" style="stroke:#181818;stroke-width:0.5;"/><path d="M520,50.5547 L520,60.5547 L530,60.5547 L520,50.5547 " fill="#FEFFDD" style="stroke:#181818;stroke-width:1.0;"/><text fill="#000000" font-family="sans-serif" font-size="13" lengthAdjust="spacing" textLength="120" x="12" y="68.123">Your are analyzing:</text><text fill="#000000" font-family="sans-serif" font-size="13" lengthAdjust="spacing" textLength="176" x="12" y="83.4336">list_BRQTO_Variable_BRQTC</text><text fill="#000000" font-family="sans-serif" font-size="13" font-weight="bold" lengthAdjust="spacing" textLength="67" x="192" y="83.4336">simplified</text><text fill="#000000" font-family="sans-serif" font-size="13" lengthAdjust="spacing" textLength="23" x="263" y="83.4336">and</text><text fill="#000000" font-family="sans-serif" font-size="13" font-weight="bold" lengthAdjust="spacing" textLength="166" x="290" y="83.4336">grouped per namespace</text><text fill="#000000" font-family="sans-serif" font-size="13" lengthAdjust="spacing" textLength="4" x="12" y="98.7441">&#160;</text><text fill="#000000" font-family="sans-serif" font-size="13" lengthAdjust="spacing" textLength="229" x="12" y="129.3652">You can click either the namespaces</text><text fill="#000000" font-family="sans-serif" font-size="13" lengthAdjust="spacing" textLength="266" x="12" y="144.6758">or class names for filtering them and their</text><text fill="#000000" font-family="sans-serif" font-size="13" lengthAdjust="spacing" textLength="130" x="12" y="159.9863">direct dependencies.</text><text fill="#000000" font-family="sans-serif" font-size="13" lengthAdjust="spacing" textLength="4" x="12" y="175.2969">&#160;</text><line style="stroke:#181818;stroke-width:1.0;" x1="7" x2="252" y1="109.1416" y2="109.1416"/><line style="stroke:#181818;stroke-width:1.0;" x1="7" x2="252" y1="111.1416" y2="111.1416"/><text fill="#000000" font-family="sans-serif" font-size="13" lengthAdjust="spacing" textLength="32" x="252" y="113.5547">Filter</text><line style="stroke:#181818;stroke-width:1.0;" x1="284" x2="529" y1="109.1416" y2="109.1416"/><line style="stroke:#181818;stroke-width:1.0;" x1="284" x2="529" y1="111.1416" y2="111.1416"/><ellipse cx="17.5" cy="205.1602" fill="#000000" rx="2.5" ry="2.5" style="stroke:#000000;stroke-width:0.0;"/><text fill="#000000" font-family="sans-serif" font-size="13" lengthAdjust="spacing" textLength="176" x="24" y="209.918">list_BRQTO_Variable_BRQTC</text><text fill="#000000" font-family="sans-serif" font-size="13" font-weight="bold" lengthAdjust="spacing" textLength="55" x="204" y="209.918">detailed</text><text fill="#000000" font-family="sans-serif" font-size="13" lengthAdjust="spacing" textLength="23" x="263" y="209.918">and</text><text fill="#000000" font-family="sans-serif" font-size="13" font-weight="bold" lengthAdjust="spacing" textLength="166" x="290" y="209.918">grouped per namespace</text><text fill="#000000" font-family="sans-serif" font-size="13" lengthAdjust="spacing" textLength="4" x="456" y="209.918">:</text><text fill="#000000" font-family="sans-serif" font-size="13" lengthAdjust="spacing" textLength="12" x="12" y="225.2285">&#160;&#160;&#160;</text><a href="list_BRQTO_Variable_BRQTC-diagram-detailed-grouped-per-namespace.svg" target="_top" title="list_BRQTO_Variable_BRQTC-diagram-detailed-grouped-per-namespace.svg" xlink:actuate="onRequest" xlink:href="list_BRQTO_Variable_BRQTC-diagram-detailed-grouped-per-namespace.svg" xlink:show="new" xlink:title="list_BRQTO_Variable_BRQTC-diagram-detailed-grouped-per-namespace.svg" xlink:type="simple"><text fill="#0000FF" font-family="sans-serif" font-size="13" lengthAdjust="spacing" text-decoration="underline" textLength="485" x="24" y="225.2285">list_BRQTO_Variable_BRQTC-diagram-detailed-grouped-per-namespace.svg</text></a><ellipse cx="17.5" cy="235.7813" fill="#000000" rx="2.5" ry="2.5" style="stroke:#000000;stroke-width:0.0;"/><text fill="#000000" font-family="sans-serif" font-size="13" lengthAdjust="spacing" textLength="78" x="24" y="240.5391">Full diagram</text><text fill="#000000" font-family="sans-serif" font-size="13" font-weight="bold" lengthAdjust="spacing" textLength="67" x="106" y="240.5391">simplified</text><text fill="#000000" font-family="sans-serif" font-size="13" lengthAdjust="spacing" textLength="23" x="177" y="240.5391">and</text><text fill="#000000" font-family="sans-serif" font-size="13" font-weight="bold" lengthAdjust="spacing" textLength="166" x="204" y="240.5391">grouped per namespace</text><text fill="#000000" font-family="sans-serif" font-size="13" lengthAdjust="spacing" textLength="4" x="370" y="240.5391">:</text><text fill="#000000" font-family="sans-serif" font-size="13" lengthAdjust="spacing" textLength="12" x="12" y="255.8496">&#160;&#160;&#160;</text><a href="full-diagram-simplified-grouped-per-namespace.svg" target="_top" title="full-diagram-simplified-grouped-per-namespace.svg" xlink:actuate="onRequest" xlink:href="full-diagram-simplified-grouped-per-namespace.svg" xlink:show="new" xlink:title="full-diagram-simplified-grouped-per-namespace.svg" xlink:type="simple"><text fill="#0000FF" font-family="sans-serif" font-size="13" lengthAdjust="spacing" text-decoration="underline" textLength="343" x="24" y="255.8496">full-diagram-simplified-grouped-per-namespace.svg</text></a><ellipse cx="17.5" cy="266.4023" fill="#000000" rx="2.5" ry="2.5" style="stroke:#000000;stroke-width:0.0;"/><text fill="#000000" font-family="sans-serif" font-size="13" lengthAdjust="spacing" textLength="41" x="24" y="271.1602">Home:</text><text fill="#000000" font-family="sans-serif" font-size="13" lengthAdjust="spacing" textLength="12" x="12" y="286.4707">&#160;&#160;&#160;</text><a href="index.html" target="_top" title="index.html" xlink:actuate="onRequest" xlink:href="index.html" xlink:show="new" xlink:title="index.html" xlink:type="simple"><text fill="#0000FF" font-family="sans-serif" font-size="13" lengthAdjust="spacing" text-decoration="underline" textLength="68" x="24" y="286.4707">index.html</text></a><line style="stroke:#181818;stroke-width:1.0;" x1="7" x2="231" y1="189.6943" y2="189.6943"/><line style="stroke:#181818;stroke-width:1.0;" x1="7" x2="231" y1="191.6943" y2="191.6943"/><text fill="#000000" font-family="sans-serif" font-size="13" lengthAdjust="spacing" textLength="74" x="231" y="194.1074">Select other</text><line style="stroke:#181818;stroke-width:1.0;" x1="305" x2="529" y1="189.6943" y2="189.6943"/><line style="stroke:#181818;stroke-width:1.0;" x1="305" x2="529" y1="191.6943" y2="191.6943"/></g><!--class list_BRQTO_Variable_BRQTC--><a href="list_BRQTO_Variable_BRQTC-diagram-simplified-grouped-per-namespace.svg" target="_top" title="list_BRQTO_Variable_BRQTC-diagram-simplified-grouped-per-namespace.svg" xlink:actuate="onRequest" xlink:href="list_BRQTO_Variable_BRQTC-diagram-simplified-grouped-per-namespace.svg" xlink:show="new" xlink:title="list_BRQTO_Variable_BRQTC-diagram-simplified-grouped-per-namespace.svg" xlink:type="simple"><g id="elem_list_BRQTO_Variable_BRQTC"><rect codeLine="3" fill="#FFFF00" height="48" id="list_BRQTO_Variable_BRQTC" rx="2.5" ry="2.5" style="stroke:#181818;stroke-width:0.5;" width="224" x="537" y="375.5547"/><ellipse cx="552" cy="391.5547" fill="#ADD1B2" rx="11" ry="11" style="stroke:#181818;stroke-width:1.0;"/><path d="M554.4731,397.6978 Q553.8921,397.9966 553.2529,398.146 Q552.6138,398.2954 551.9082,398.2954 Q549.4014,398.2954 548.0815,396.6436 Q546.7617,394.9917 546.7617,391.8706 Q546.7617,388.7412 548.0815,387.0894 Q549.4014,385.4375 551.9082,385.4375 Q552.6138,385.4375 553.2612,385.5869 Q553.9087,385.7363 554.4731,386.0352 L554.4731,388.7578 Q553.8423,388.1768 553.2488,387.907 Q552.6553,387.6372 552.0244,387.6372 Q550.6797,387.6372 549.9949,388.7039 Q549.3101,389.7705 549.3101,391.8706 Q549.3101,393.9624 549.9949,395.0291 Q550.6797,396.0957 552.0244,396.0957 Q552.6553,396.0957 553.2488,395.8259 Q553.8423,395.5562 554.4731,394.9751 Z " fill="#000000"/><text fill="#000000" font-family="sans-serif" font-size="14" lengthAdjust="spacing" textLength="192" x="566" y="396.8457">list_BRQTO_Variable_BRQTC</text><line style="stroke:#181818;stroke-width:0.5;" x1="538" x2="760" y1="407.5547" y2="407.5547"/><line style="stroke:#181818;stroke-width:0.5;" x1="538" x2="760" y1="415.5547" y2="415.5547"/></g></a><!--link Datastructure to list_BRQTO_Variable_BRQTC--><g id="link_Datastructure_list_BRQTO_Variable_BRQTC"><path codeLine="23" d="M649,198.9947 C649,239.9847 649,324.5647 649,369.3147 " fill="none" id="Datastructure-to-list_BRQTO_Variable_BRQTC" style="stroke:#909090;stroke-width:1.0;"/><polygon fill="#909090" points="649,374.0947,653,365.0947,649,369.0947,645,365.0947,649,374.0947" style="stroke:#909090;stroke-width:1.0;"/><text fill="#000000" font-family="sans-serif" font-size="13" lengthAdjust="spacing" textLength="29" x="650" y="342.123">uses</text></g><!--SRC=[jLJRYjim47ttLmox3mi6kqlV6ZPvs9JGfoszK2Xn21Dhd0oL9IF9UwN_tb5k9cnsaq1Z6sF9PywPgm87JN3Z-Pbw7wy7cdsOtdx_zlFhz1SwnfccvN88QUgvRZHNJ2fD0OsIhRcpRKCA6d9Wi2RVO4bfUlCXyWqIOmF1nM_REa17OeFwwPdDl5UO_oDKcCBq-oFMWLo_NnYHWX8Db9hBFq0S5eANLsVZeJ3M2G2zN-r29UjgII6kHNIz59KFTeLHxAWCeAWXeyYKJ3vVoVuW7V_OA1B5KtWlA4K1MHyEIN830EFncroPOfmxhBCDOxPcoeGfspBb_du-cKIlHgtMi3OwARiRLoeXsAfsveTqlzYQDXGikNlC5w7Maya5e8UHjXWattVI8icg6czdxvXi7ESNN3wHrlO1NfA_oHKCjVMnw2WPQXpTistzrBUpwTPi6fMxfC2TDGGpAh7r5BjctTMUFSXJiM6_89KddONmei96salYw1QdElwobp9NjaOsEyphlTC5O3qMhwZopnZG1zUMePKvtYEsYpXLUgajzHZQkf63Gi6vGuK7EHf0WWqWGroJaJ6kOEd36NkYu-viLm7iDEE-u0K0LpAfHrrmDcnqCdQ88otJQuq7UWmEoo0rgvojEzzxWZqH_ggioQ56pCQNdwxZFSa6xnmVq0EfZ8T_]--></g></svg>