<?xml version="1.0" encoding="us-ascii" standalone="no"?><svg xmlns="http://www.w3.org/2000/svg" xmlns:xlink="http://www.w3.org/1999/xlink" contentStyleType="text/css" height="453px" preserveAspectRatio="none" style="width:942px;height:453px;background:#FFFFFF;" version="1.1" viewBox="0 0 942 453" width="942px" zoomAndPan="magnify"><defs/><g><text fill="#000000" font-family="sans-serif" font-size="20" font-weight="bold" lengthAdjust="spacing" textLength="45" x="392.75" y="29.3359">Path</text><text fill="#000000" font-family="sans-serif" font-size="20" font-weight="bold" lengthAdjust="spacing" textLength="84" x="444.75" y="29.3359">detailed</text><text fill="#000000" font-family="sans-serif" font-size="20" font-weight="bold" lengthAdjust="spacing" textLength="7" x="528.75" y="29.3359">&#160;</text><!--cluster preadapter--><g id="cluster_preadapter"><path d="M402,50.5547 L480,50.5547 A3.75,3.75 0 0 1 482.5,53.0547 L489.5,73.043 L933,73.043 A2.5,2.5 0 0 1 935.5,75.543 L935.5,304.0547 A2.5,2.5 0 0 1 933,306.5547 L402,306.5547 A2.5,2.5 0 0 1 399.5,304.0547 L399.5,53.0547 A2.5,2.5 0 0 1 402,50.5547 " fill="none" style="stroke:#000000;stroke-width:1.5;"/><line style="stroke:#000000;stroke-width:1.5;" x1="399.5" x2="489.5" y1="73.043" y2="73.043"/><text fill="#000000" font-family="sans-serif" font-size="14" font-weight="bold" lengthAdjust="spacing" textLength="77" x="403.5" y="66.0898">preadapter</text></g><!--cluster service--><g id="cluster_service"><path d="M426,93.5547 L477,93.5547 A3.75,3.75 0 0 1 479.5,96.0547 L486.5,116.043 L909,116.043 A2.5,2.5 0 0 1 911.5,118.543 L911.5,280.0547 A2.5,2.5 0 0 1 909,282.5547 L426,282.5547 A2.5,2.5 0 0 1 423.5,280.0547 L423.5,96.0547 A2.5,2.5 0 0 1 426,93.5547 " fill="none" style="stroke:#000000;stroke-width:1.5;"/><line style="stroke:#000000;stroke-width:1.5;" x1="423.5" x2="486.5" y1="116.043" y2="116.043"/><text fill="#000000" font-family="sans-serif" font-size="14" font-weight="bold" lengthAdjust="spacing" textLength="50" x="427.5" y="109.0898">service</text></g><!--class RecursiveFileProcessor--><a href="preadapter.service.RecursiveFileProcessor-diagram-detailed.svg" target="_top" title="preadapter.service.RecursiveFileProcessor-diagram-detailed.svg" xlink:actuate="onRequest" xlink:href="preadapter.service.RecursiveFileProcessor-diagram-detailed.svg" xlink:show="new" xlink:title="preadapter.service.RecursiveFileProcessor-diagram-detailed.svg" xlink:type="simple"><g id="elem_RecursiveFileProcessor"><rect codeLine="5" fill="#F1F1F1" height="138.4414" id="RecursiveFileProcessor" rx="2.5" ry="2.5" style="stroke:#181818;stroke-width:0.5;" width="455" x="440" y="128.5547"/><ellipse cx="585.25" cy="144.5547" fill="#ADD1B2" rx="11" ry="11" style="stroke:#181818;stroke-width:1.0;"/><path d="M587.7231,150.6978 Q587.1421,150.9966 586.5029,151.146 Q585.8638,151.2954 585.1582,151.2954 Q582.6514,151.2954 581.3315,149.6436 Q580.0117,147.9917 580.0117,144.8706 Q580.0117,141.7412 581.3315,140.0894 Q582.6514,138.4375 585.1582,138.4375 Q585.8638,138.4375 586.5112,138.5869 Q587.1587,138.7363 587.7231,139.0352 L587.7231,141.7578 Q587.0923,141.1768 586.4988,140.907 Q585.9053,140.6372 585.2744,140.6372 Q583.9297,140.6372 583.2449,141.7039 Q582.5601,142.7705 582.5601,144.8706 Q582.5601,146.9624 583.2449,148.0291 Q583.9297,149.0957 585.2744,149.0957 Q585.9053,149.0957 586.4988,148.8259 Q587.0923,148.5562 587.7231,147.9751 Z " fill="#000000"/><text fill="#000000" font-family="sans-serif" font-size="14" lengthAdjust="spacing" textLength="156" x="605.75" y="149.8457">RecursiveFileProcessor</text><line style="stroke:#181818;stroke-width:0.5;" x1="441" x2="894" y1="160.5547" y2="160.5547"/><ellipse cx="451" cy="174.2988" fill="#84BE84" rx="3" ry="3" style="stroke:#038048;stroke-width:1.0;"/><text fill="#000000" font-family="sans-serif" font-size="14" lengthAdjust="spacing" textLength="81" x="460" y="178.0898">SearchPath(</text><text fill="#000000" font-family="sans-serif" font-size="14" lengthAdjust="spacing" textLength="5" x="541" y="178.0898">)</text><rect fill="none" height="6" style="stroke:#C82930;stroke-width:1.0;" width="6" x="448" y="187.7871"/><text fill="#909090" font-family="sans-serif" font-size="14" lengthAdjust="spacing" textLength="309" x="460" y="194.5781">SearchPath.fileList: list_BRQTO_String_BRQTC</text><line style="stroke:#181818;stroke-width:1.0;" x1="441" x2="894" y1="201.5313" y2="201.5313"/><rect fill="#F24D5C" height="6" style="stroke:#C82930;stroke-width:1.0;" width="6" x="448" y="212.2754"/><text fill="#000000" font-family="sans-serif" font-size="14" lengthAdjust="spacing" textLength="119" x="460" y="219.0664">ProcessDirectory(</text><text fill="#6060BB" font-family="sans-serif" font-size="14" lengthAdjust="spacing" textLength="295" x="579" y="219.0664">ProcessDirectory:list_BRQTO_String_BRQTC</text><text fill="#000000" font-family="sans-serif" font-size="14" lengthAdjust="spacing" textLength="5" x="874" y="219.0664">)</text><rect fill="none" height="6" style="stroke:#C82930;stroke-width:1.0;" width="6" x="448" y="228.7637"/><text fill="#909090" font-family="sans-serif" font-size="14" lengthAdjust="spacing" textLength="429" x="460" y="235.5547">ProcessDirectory.stream: DirectoryStream_BRQTO_Path_BRQTC</text><rect fill="none" height="6" style="stroke:#C82930;stroke-width:1.0;" width="6" x="448" y="245.252"/><text fill="#909090" font-family="sans-serif" font-size="14" lengthAdjust="spacing" textLength="187" x="460" y="252.043">ProcessDirectory.path: Path</text><line style="stroke:#181818;stroke-width:1.0;" x1="441" x2="894" y1="258.9961" y2="258.9961"/></g></a><g id="elem_FloatingNote"><path d="M6,73.5547 L6,321.2129 L383,321.2129 L383,83.5547 L373,73.5547 L6,73.5547 " fill="#FEFFDD" style="stroke:#181818;stroke-width:0.5;"/><path d="M373,73.5547 L373,83.5547 L383,83.5547 L373,73.5547 " fill="#FEFFDD" style="stroke:#181818;stroke-width:1.0;"/><text fill="#000000" font-family="sans-serif" font-size="13" lengthAdjust="spacing" textLength="120" x="12" y="91.123">Your are analyzing:</text><text fill="#000000" font-family="sans-serif" font-size="13" lengthAdjust="spacing" textLength="27" x="12" y="106.4336">Path</text><text fill="#000000" font-family="sans-serif" font-size="13" font-weight="bold" lengthAdjust="spacing" textLength="55" x="43" y="106.4336">detailed</text><text fill="#000000" font-family="sans-serif" font-size="13" lengthAdjust="spacing" textLength="4" x="98" y="106.4336">&#160;</text><text fill="#000000" font-family="sans-serif" font-size="13" lengthAdjust="spacing" textLength="4" x="12" y="121.7441">&#160;</text><text fill="#000000" font-family="sans-serif" font-size="13" lengthAdjust="spacing" textLength="229" x="12" y="152.3652">You can click either the namespaces</text><text fill="#000000" font-family="sans-serif" font-size="13" lengthAdjust="spacing" textLength="266" x="12" y="167.6758">or class names for filtering them and their</text><text fill="#000000" font-family="sans-serif" font-size="13" lengthAdjust="spacing" textLength="130" x="12" y="182.9863">direct dependencies.</text><text fill="#000000" font-family="sans-serif" font-size="13" lengthAdjust="spacing" textLength="4" x="12" y="198.2969">&#160;</text><line style="stroke:#181818;stroke-width:1.0;" x1="7" x2="178.5" y1="132.1416" y2="132.1416"/><line style="stroke:#181818;stroke-width:1.0;" x1="7" x2="178.5" y1="134.1416" y2="134.1416"/><text fill="#000000" font-family="sans-serif" font-size="13" lengthAdjust="spacing" textLength="32" x="178.5" y="136.5547">Filter</text><line style="stroke:#181818;stroke-width:1.0;" x1="210.5" x2="382" y1="132.1416" y2="132.1416"/><line style="stroke:#181818;stroke-width:1.0;" x1="210.5" x2="382" y1="134.1416" y2="134.1416"/><ellipse cx="17.5" cy="228.1602" fill="#000000" rx="2.5" ry="2.5" style="stroke:#000000;stroke-width:0.0;"/><text fill="#000000" font-family="sans-serif" font-size="13" lengthAdjust="spacing" textLength="27" x="24" y="232.918">Path</text><text fill="#000000" font-family="sans-serif" font-size="13" font-weight="bold" lengthAdjust="spacing" textLength="67" x="55" y="232.918">simplified</text><text fill="#000000" font-family="sans-serif" font-size="13" lengthAdjust="spacing" textLength="4" x="126" y="232.918">:</text><text fill="#000000" font-family="sans-serif" font-size="13" lengthAdjust="spacing" textLength="12" x="12" y="248.2285">&#160;&#160;&#160;</text><a href="Path-diagram-simplified.svg" target="_top" title="Path-diagram-simplified.svg" xlink:actuate="onRequest" xlink:href="Path-diagram-simplified.svg" xlink:show="new" xlink:title="Path-diagram-simplified.svg" xlink:type="simple"><text fill="#0000FF" font-family="sans-serif" font-size="13" lengthAdjust="spacing" text-decoration="underline" textLength="183" x="24" y="248.2285">Path-diagram-simplified.svg</text></a><ellipse cx="17.5" cy="258.7813" fill="#000000" rx="2.5" ry="2.5" style="stroke:#000000;stroke-width:0.0;"/><text fill="#000000" font-family="sans-serif" font-size="13" lengthAdjust="spacing" textLength="78" x="24" y="263.5391">Full diagram</text><text fill="#000000" font-family="sans-serif" font-size="13" font-weight="bold" lengthAdjust="spacing" textLength="55" x="106" y="263.5391">detailed</text><text fill="#000000" font-family="sans-serif" font-size="13" lengthAdjust="spacing" textLength="23" x="165" y="263.5391">and</text><text fill="#000000" font-family="sans-serif" font-size="13" font-weight="bold" lengthAdjust="spacing" textLength="166" x="192" y="263.5391">grouped per namespace</text><text fill="#000000" font-family="sans-serif" font-size="13" lengthAdjust="spacing" textLength="4" x="358" y="263.5391">:</text><text fill="#000000" font-family="sans-serif" font-size="13" lengthAdjust="spacing" textLength="12" x="12" y="278.8496">&#160;&#160;&#160;</text><a href="full-diagram-detailed-grouped-per-namespace.svg" target="_top" title="full-diagram-detailed-grouped-per-namespace.svg" xlink:actuate="onRequest" xlink:href="full-diagram-detailed-grouped-per-namespace.svg" xlink:show="new" xlink:title="full-diagram-detailed-grouped-per-namespace.svg" xlink:type="simple"><text fill="#0000FF" font-family="sans-serif" font-size="13" lengthAdjust="spacing" text-decoration="underline" textLength="330" x="24" y="278.8496">full-diagram-detailed-grouped-per-namespace.svg</text></a><ellipse cx="17.5" cy="289.4023" fill="#000000" rx="2.5" ry="2.5" style="stroke:#000000;stroke-width:0.0;"/><text fill="#000000" font-family="sans-serif" font-size="13" lengthAdjust="spacing" textLength="41" x="24" y="294.1602">Home:</text><text fill="#000000" font-family="sans-serif" font-size="13" lengthAdjust="spacing" textLength="12" x="12" y="309.4707">&#160;&#160;&#160;</text><a href="index.html" target="_top" title="index.html" xlink:actuate="onRequest" xlink:href="index.html" xlink:show="new" xlink:title="index.html" xlink:type="simple"><text fill="#0000FF" font-family="sans-serif" font-size="13" lengthAdjust="spacing" text-decoration="underline" textLength="68" x="24" y="309.4707">index.html</text></a><line style="stroke:#181818;stroke-width:1.0;" x1="7" x2="157.5" y1="212.6943" y2="212.6943"/><line style="stroke:#181818;stroke-width:1.0;" x1="7" x2="157.5" y1="214.6943" y2="214.6943"/><text fill="#000000" font-family="sans-serif" font-size="13" lengthAdjust="spacing" textLength="74" x="157.5" y="217.1074">Select other</text><line style="stroke:#181818;stroke-width:1.0;" x1="231.5" x2="382" y1="212.6943" y2="212.6943"/><line style="stroke:#181818;stroke-width:1.0;" x1="231.5" x2="382" y1="214.6943" y2="214.6943"/></g><!--class Path--><a href="Path-diagram-detailed.svg" target="_top" title="Path-diagram-detailed.svg" xlink:actuate="onRequest" xlink:href="Path-diagram-detailed.svg" xlink:show="new" xlink:title="Path-diagram-detailed.svg" xlink:type="simple"><g id="elem_Path"><rect codeLine="3" fill="#FFFF00" height="48" id="Path" rx="2.5" ry="2.5" style="stroke:#181818;stroke-width:0.5;" width="62" x="636.5" y="398.5547"/><ellipse cx="651.5" cy="414.5547" fill="#ADD1B2" rx="11" ry="11" style="stroke:#181818;stroke-width:1.0;"/><path d="M653.9731,420.6978 Q653.3921,420.9966 652.7529,421.146 Q652.1138,421.2954 651.4082,421.2954 Q648.9014,421.2954 647.5815,419.6436 Q646.2617,417.9917 646.2617,414.8706 Q646.2617,411.7412 647.5815,410.0894 Q648.9014,408.4375 651.4082,408.4375 Q652.1138,408.4375 652.7612,408.5869 Q653.4087,408.7363 653.9731,409.0352 L653.9731,411.7578 Q653.3423,411.1768 652.7488,410.907 Q652.1553,410.6372 651.5244,410.6372 Q650.1797,410.6372 649.4949,411.7039 Q648.8101,412.7705 648.8101,414.8706 Q648.8101,416.9624 649.4949,418.0291 Q650.1797,419.0957 651.5244,419.0957 Q652.1553,419.0957 652.7488,418.8259 Q653.3423,418.5562 653.9731,417.9751 Z " fill="#000000"/><text fill="#000000" font-family="sans-serif" font-size="14" lengthAdjust="spacing" textLength="30" x="665.5" y="419.8457">Path</text><line style="stroke:#181818;stroke-width:0.5;" x1="637.5" x2="697.5" y1="430.5547" y2="430.5547"/><line style="stroke:#181818;stroke-width:0.5;" x1="637.5" x2="697.5" y1="438.5547" y2="438.5547"/></g></a><!--link RecursiveFileProcessor to Path--><g id="link_RecursiveFileProcessor_Path"><path codeLine="21" d="M667.5,266.9747 C667.5,309.0447 667.5,360.7747 667.5,392.4447 " fill="none" id="RecursiveFileProcessor-to-Path" style="stroke:#909090;stroke-width:1.0;"/><polygon fill="#909090" points="667.5,397.1147,671.5,388.1147,667.5,392.1147,663.5,388.1147,667.5,397.1147" style="stroke:#909090;stroke-width:1.0;"/><text fill="#000000" font-family="sans-serif" font-size="13" lengthAdjust="spacing" textLength="29" x="668.5" y="365.123">uses</text></g><!--SRC=[jLHTRvim57tdLrpHXsvCq6WFbOO23-aKxM7QkcOl4q6LPIw9DMCZssHDf_ttNWD9b7IhqeU1XC0-vznpFumJJY9ChNZ4zFqalsLk3L5KeMD2OXL5CBtoUtcWj4C8V-ZE03C8J36vVHHgbIxLSz9IBLMMpOLqQB9igOW6d2dWKl2VWCAjqG0zGB46RSiuMk9eGm1cxR0ADNtNlGI5yUY6ebR-HPYbgeH1xg325bM5YWkqoH1sWTBlQ1_41uzWD6X5qqfHYzuY-GQ0el1xSINOoh0cFY0IkrcLfIVFEobX11ndwTr4qShehiKAMaffdquKxVHhek_rT-Hu9CL4YlUaGynFki6TWA3q7fArQsHPXi0ipALcZahoXJeI30Nh4pp9PHThK8MBBKgfVy7lu4y0OvrRWwnYBLKuiMWsWYpS8U-C5Hkavk6jqTGPItqeYhEn_p90aIaVU0SBP8QllTStqreh1rnBRRBmUd8zcSt2V7hbL_EtFJo68yo7YR_3_A2Hq8ZWPs5T2fAUzxExRz-_tY-S7vh-usRK2-9uL1ojVkmdI9ljtssSejANvL-qUwgLM4VbR5BOhopwXL7UvtNi_JNQBR7JVYIECgUsNzAuddN1VyDUmaq_UWOb3R5M5l316SOTdQ3QwEPmX5B2lXB-V4Q3yqSyBYw6afPnFXmeIA6pz2Dw0W00]--></g></svg>