<?xml version="1.0" encoding="us-ascii" standalone="no"?><svg xmlns="http://www.w3.org/2000/svg" xmlns:xlink="http://www.w3.org/1999/xlink" contentStyleType="text/css" height="981px" preserveAspectRatio="none" style="width:1342px;height:981px;background:#FFFFFF;" version="1.1" viewBox="0 0 1342 981" width="1342px" zoomAndPan="magnify"><defs/><g><text fill="#000000" font-family="sans-serif" font-size="20" font-weight="bold" lengthAdjust="spacing" textLength="493" x="368.75" y="29.3359">preadapter.domain.ASTVisitor_DOT_ObjectType</text><text fill="#000000" font-family="sans-serif" font-size="20" font-weight="bold" lengthAdjust="spacing" textLength="84" x="868.75" y="29.3359">detailed</text><text fill="#000000" font-family="sans-serif" font-size="20" font-weight="bold" lengthAdjust="spacing" textLength="7" x="952.75" y="29.3359">&#160;</text><!--cluster preadapter--><g id="cluster_preadapter"><path d="M520,50.5547 L598,50.5547 A3.75,3.75 0 0 1 600.5,53.0547 L607.5,73.043 L1333,73.043 A2.5,2.5 0 0 1 1335.5,75.543 L1335.5,972.0547 A2.5,2.5 0 0 1 1333,974.5547 L520,974.5547 A2.5,2.5 0 0 1 517.5,972.0547 L517.5,53.0547 A2.5,2.5 0 0 1 520,50.5547 " fill="none" style="stroke:#000000;stroke-width:1.5;"/><line style="stroke:#000000;stroke-width:1.5;" x1="517.5" x2="607.5" y1="73.043" y2="73.043"/><text fill="#000000" font-family="sans-serif" font-size="14" font-weight="bold" lengthAdjust="spacing" textLength="77" x="521.5" y="66.0898">preadapter</text></g><!--cluster domain--><g id="cluster_domain"><path d="M544,93.5547 L599,93.5547 A3.75,3.75 0 0 1 601.5,96.0547 L608.5,116.043 L1309,116.043 A2.5,2.5 0 0 1 1311.5,118.543 L1311.5,948.0547 A2.5,2.5 0 0 1 1309,950.5547 L544,950.5547 A2.5,2.5 0 0 1 541.5,948.0547 L541.5,96.0547 A2.5,2.5 0 0 1 544,93.5547 " fill="none" style="stroke:#000000;stroke-width:1.5;"/><line style="stroke:#000000;stroke-width:1.5;" x1="541.5" x2="608.5" y1="116.043" y2="116.043"/><text fill="#000000" font-family="sans-serif" font-size="14" font-weight="bold" lengthAdjust="spacing" textLength="54" x="545.5" y="109.0898">domain</text></g><!--class ASTVisitor_DOT_ObjectType--><a href="preadapter.domain.ASTVisitor_DOT_ObjectType-diagram-detailed.svg" target="_top" title="preadapter.domain.ASTVisitor_DOT_ObjectType-diagram-detailed.svg" xlink:actuate="onRequest" xlink:href="preadapter.domain.ASTVisitor_DOT_ObjectType-diagram-detailed.svg" xlink:show="new" xlink:title="preadapter.domain.ASTVisitor_DOT_ObjectType-diagram-detailed.svg" xlink:type="simple"><g id="elem_ASTVisitor_DOT_ObjectType"><rect codeLine="3" fill="#FFFF00" height="48" id="ASTVisitor_DOT_ObjectType" rx="2.5" ry="2.5" style="stroke:#181818;stroke-width:0.5;" width="224" x="814.5" y="886.5547"/><ellipse cx="829.5" cy="902.5547" fill="#ADD1B2" rx="11" ry="11" style="stroke:#181818;stroke-width:1.0;"/><path d="M831.9731,908.6978 Q831.3921,908.9966 830.7529,909.146 Q830.1138,909.2954 829.4082,909.2954 Q826.9014,909.2954 825.5815,907.6436 Q824.2617,905.9917 824.2617,902.8706 Q824.2617,899.7412 825.5815,898.0894 Q826.9014,896.4375 829.4082,896.4375 Q830.1138,896.4375 830.7612,896.5869 Q831.4087,896.7363 831.9731,897.0352 L831.9731,899.7578 Q831.3423,899.1768 830.7488,898.907 Q830.1553,898.6372 829.5244,898.6372 Q828.1797,898.6372 827.4949,899.7039 Q826.8101,900.7705 826.8101,902.8706 Q826.8101,904.9624 827.4949,906.0291 Q828.1797,907.0957 829.5244,907.0957 Q830.1553,907.0957 830.7488,906.8259 Q831.3423,906.5562 831.9731,905.9751 Z " fill="#000000"/><text fill="#000000" font-family="sans-serif" font-size="14" lengthAdjust="spacing" textLength="192" x="843.5" y="907.8457">ASTVisitor_DOT_ObjectType</text><line style="stroke:#181818;stroke-width:0.5;" x1="815.5" x2="1037.5" y1="918.5547" y2="918.5547"/><line style="stroke:#181818;stroke-width:0.5;" x1="815.5" x2="1037.5" y1="926.5547" y2="926.5547"/></g></a><!--class ASTVisitor--><a href="preadapter.domain.ASTVisitor-diagram-detailed.svg" target="_top" title="preadapter.domain.ASTVisitor-diagram-detailed.svg" xlink:actuate="onRequest" xlink:href="preadapter.domain.ASTVisitor-diagram-detailed.svg" xlink:show="new" xlink:title="preadapter.domain.ASTVisitor-diagram-detailed.svg" xlink:type="simple"><g id="elem_ASTVisitor"><rect codeLine="5" fill="#F1F1F1" height="698.0664" id="ASTVisitor" rx="2.5" ry="2.5" style="stroke:#181818;stroke-width:0.5;" width="737" x="558" y="128.5547"/><ellipse cx="886.75" cy="144.5547" fill="#ADD1B2" rx="11" ry="11" style="stroke:#181818;stroke-width:1.0;"/><path d="M889.2231,150.6978 Q888.6421,150.9966 888.0029,151.146 Q887.3638,151.2954 886.6582,151.2954 Q884.1514,151.2954 882.8315,149.6436 Q881.5117,147.9917 881.5117,144.8706 Q881.5117,141.7412 882.8315,140.0894 Q884.1514,138.4375 886.6582,138.4375 Q887.3638,138.4375 888.0112,138.5869 Q888.6587,138.7363 889.2231,139.0352 L889.2231,141.7578 Q888.5923,141.1768 887.9988,140.907 Q887.4053,140.6372 886.7744,140.6372 Q885.4297,140.6372 884.7449,141.7039 Q884.0601,142.7705 884.0601,144.8706 Q884.0601,146.9624 884.7449,148.0291 Q885.4297,149.0957 886.7744,149.0957 Q887.4053,149.0957 887.9988,148.8259 Q888.5923,148.5562 889.2231,147.9751 Z " fill="#000000"/><text fill="#000000" font-family="sans-serif" font-size="14" lengthAdjust="spacing" textLength="71" x="907.25" y="149.8457">ASTVisitor</text><line style="stroke:#181818;stroke-width:0.5;" x1="559" x2="1294" y1="160.5547" y2="160.5547"/><ellipse cx="569" cy="174.2988" fill="none" rx="3" ry="3" style="stroke:#038048;stroke-width:1.0;"/><text fill="#000000" font-family="sans-serif" font-size="14" lengthAdjust="spacing" textLength="181" x="578" y="178.0898">logger: preadapter.Logger</text><ellipse cx="569" cy="190.7871" fill="none" rx="3" ry="3" style="stroke:#038048;stroke-width:1.0;"/><text fill="#000000" font-family="sans-serif" font-size="14" lengthAdjust="spacing" textLength="329" x="578" y="194.5781">datastructure: preadapter.domain.Datastructure</text><ellipse cx="569" cy="207.2754" fill="none" rx="3" ry="3" style="stroke:#038048;stroke-width:1.0;"/><text fill="#000000" font-family="sans-serif" font-size="14" lengthAdjust="spacing" textLength="193" x="578" y="211.0664">activeMethodList: list[String]</text><ellipse cx="569" cy="223.7637" fill="none" rx="3" ry="3" style="stroke:#038048;stroke-width:1.0;"/><text fill="#000000" font-family="sans-serif" font-size="14" lengthAdjust="spacing" textLength="215" x="578" y="227.5547">activeClassnameList: list[String]</text><ellipse cx="569" cy="240.252" fill="none" rx="3" ry="3" style="stroke:#038048;stroke-width:1.0;"/><text fill="#000000" font-family="sans-serif" font-size="14" lengthAdjust="spacing" textLength="179" x="578" y="244.043">namespaceList: list[String]</text><ellipse cx="569" cy="256.7402" fill="none" rx="3" ry="3" style="stroke:#038048;stroke-width:1.0;"/><text fill="#000000" font-family="sans-serif" font-size="14" lengthAdjust="spacing" textLength="134" x="578" y="260.5313">allUsing: list[String]</text><ellipse cx="569" cy="273.2285" fill="none" rx="3" ry="3" style="stroke:#038048;stroke-width:1.0;"/><text fill="#000000" font-family="sans-serif" font-size="14" lengthAdjust="spacing" textLength="193" x="578" y="277.0195">usingDict: dict[String,String]</text><ellipse cx="569" cy="289.7168" fill="none" rx="3" ry="3" style="stroke:#038048;stroke-width:1.0;"/><text fill="#000000" font-family="sans-serif" font-size="14" lengthAdjust="spacing" textLength="187" x="578" y="293.5078">deepness: HandleDeepness</text><ellipse cx="569" cy="306.2051" fill="none" rx="3" ry="3" style="stroke:#038048;stroke-width:1.0;"/><text fill="#000000" font-family="sans-serif" font-size="14" lengthAdjust="spacing" textLength="157" x="578" y="309.9961">ignoreType: list[String]</text><line style="stroke:#181818;stroke-width:1.0;" x1="559" x2="1294" y1="316.9492" y2="316.9492"/><line style="stroke:#181818;stroke-width:1.0;" x1="559" x2="1294" y1="318.9492" y2="318.9492"/><ellipse cx="569" cy="330.6934" fill="#84BE84" rx="3" ry="3" style="stroke:#038048;stroke-width:1.0;"/><text fill="#000000" font-family="sans-serif" font-size="14" lengthAdjust="spacing" textLength="92" x="578" y="334.4844">SimplifyType(</text><text fill="#000000" font-family="sans-serif" font-size="14" lengthAdjust="spacing" textLength="5" x="670" y="334.4844">)</text><ellipse cx="569" cy="347.1816" fill="#84BE84" rx="3" ry="3" style="stroke:#038048;stroke-width:1.0;"/><text fill="#000000" font-family="sans-serif" font-size="14" lengthAdjust="spacing" textLength="116" x="578" y="350.9727">cleanClassName(</text><text fill="#000000" font-family="sans-serif" font-size="14" lengthAdjust="spacing" textLength="5" x="694" y="350.9727">)</text><line style="stroke:#181818;stroke-width:1.0;" x1="559" x2="1294" y1="357.9258" y2="357.9258"/><ellipse cx="569" cy="371.6699" fill="#84BE84" rx="3" ry="3" style="stroke:#038048;stroke-width:1.0;"/><text fill="#000000" font-family="sans-serif" font-size="14" lengthAdjust="spacing" textLength="146" x="578" y="375.4609">CreateClassInterface(</text><text fill="#6060BB" font-family="sans-serif" font-size="14" lengthAdjust="spacing" textLength="336" x="724" y="375.4609">CreateClassInterface:ClassOrInterfaceDeclaration</text><text fill="#000000" font-family="sans-serif" font-size="14" lengthAdjust="spacing" textLength="5" x="1060" y="375.4609">)</text><rect fill="none" height="6" style="stroke:#C82930;stroke-width:1.0;" width="6" x="566" y="385.1582"/><text fill="#909090" font-family="sans-serif" font-size="14" lengthAdjust="spacing" textLength="711" x="578" y="391.9492">CreateClassInterface.parentSubDataStructure: preadapter.domain.Datastructure_DOT_SubDataStructure</text><rect fill="none" height="6" style="stroke:#C82930;stroke-width:1.0;" width="6" x="566" y="401.6465"/><text fill="#909090" font-family="sans-serif" font-size="14" lengthAdjust="spacing" textLength="665" x="578" y="408.4375">CreateClassInterface.subDataStructure: preadapter.domain.Datastructure_DOT_SubDataStructure</text><line style="stroke:#181818;stroke-width:1.0;" x1="559" x2="1294" y1="415.3906" y2="415.3906"/><ellipse cx="569" cy="429.1348" fill="#84BE84" rx="3" ry="3" style="stroke:#038048;stroke-width:1.0;"/><text fill="#000000" font-family="sans-serif" font-size="14" lengthAdjust="spacing" textLength="32" x="578" y="432.9258">visit(</text><text fill="#6060BB" font-family="sans-serif" font-size="14" lengthAdjust="spacing" textLength="231" x="610" y="432.9258">visit:MethodDeclaration, visit:Void</text><text fill="#000000" font-family="sans-serif" font-size="14" lengthAdjust="spacing" textLength="5" x="841" y="432.9258">)</text><rect fill="none" height="6" style="stroke:#C82930;stroke-width:1.0;" width="6" x="566" y="442.623"/><text fill="#909090" font-family="sans-serif" font-size="14" lengthAdjust="spacing" textLength="551" x="578" y="449.4141">visit.subDataStructure: preadapter.domain.Datastructure_DOT_SubDataStructure</text><rect fill="none" height="6" style="stroke:#C82930;stroke-width:1.0;" width="6" x="566" y="459.1113"/><text fill="#909090" font-family="sans-serif" font-size="14" lengthAdjust="spacing" textLength="700" x="578" y="465.9023">visit.argumentsTuple: list_BRQTO_tuple_BRQTO_String_COMMA_String_COMMA_String_BRQTC_BRQTC</text><rect fill="none" height="6" style="stroke:#C82930;stroke-width:1.0;" width="6" x="566" y="475.5996"/><text fill="#909090" font-family="sans-serif" font-size="14" lengthAdjust="spacing" textLength="251" x="578" y="482.3906">visit.argument: Optional_DOT_empty</text><rect fill="none" height="6" style="stroke:#C82930;stroke-width:1.0;" width="6" x="566" y="492.0879"/><text fill="#909090" font-family="sans-serif" font-size="14" lengthAdjust="spacing" textLength="551" x="578" y="498.8789">visit.subDataStructure: preadapter.domain.Datastructure_DOT_SubDataStructure</text><rect fill="none" height="6" style="stroke:#C82930;stroke-width:1.0;" width="6" x="566" y="508.5762"/><text fill="#909090" font-family="sans-serif" font-size="14" lengthAdjust="spacing" textLength="291" x="578" y="515.3672">visit.variableDeclarator: VariableDeclarator</text><rect fill="none" height="6" style="stroke:#C82930;stroke-width:1.0;" width="6" x="566" y="525.0645"/><text fill="#909090" font-family="sans-serif" font-size="14" lengthAdjust="spacing" textLength="551" x="578" y="531.8555">visit.subDataStructure: preadapter.domain.Datastructure_DOT_SubDataStructure</text><rect fill="none" height="6" style="stroke:#C82930;stroke-width:1.0;" width="6" x="566" y="541.5527"/><text fill="#909090" font-family="sans-serif" font-size="14" lengthAdjust="spacing" textLength="595" x="578" y="548.3438">visit.subDataStructureParent: preadapter.domain.Datastructure_DOT_SubDataStructure</text><rect fill="none" height="6" style="stroke:#C82930;stroke-width:1.0;" width="6" x="566" y="558.041"/><text fill="#909090" font-family="sans-serif" font-size="14" lengthAdjust="spacing" textLength="587" x="578" y="564.832">visit.subDataStructureChild: preadapter.domain.Datastructure_DOT_SubDataStructure</text><rect fill="none" height="6" style="stroke:#C82930;stroke-width:1.0;" width="6" x="566" y="574.5293"/><text fill="#909090" font-family="sans-serif" font-size="14" lengthAdjust="spacing" textLength="595" x="578" y="581.3203">visit.subDataStructureParent: preadapter.domain.Datastructure_DOT_SubDataStructure</text><rect fill="none" height="6" style="stroke:#C82930;stroke-width:1.0;" width="6" x="566" y="591.0176"/><text fill="#909090" font-family="sans-serif" font-size="14" lengthAdjust="spacing" textLength="420" x="578" y="597.8086">visit.variableName: n_DOT_getNameAsString_BRQTO__BRQTC</text><rect fill="none" height="6" style="stroke:#C82930;stroke-width:1.0;" width="6" x="566" y="607.5059"/><text fill="#909090" font-family="sans-serif" font-size="14" lengthAdjust="spacing" textLength="408" x="578" y="614.2969">visit.variableType: n_DOT_getTypeAsString_BRQTO__BRQTC</text><rect fill="none" height="6" style="stroke:#C82930;stroke-width:1.0;" width="6" x="566" y="623.9941"/><text fill="#909090" font-family="sans-serif" font-size="14" lengthAdjust="spacing" textLength="573" x="578" y="630.7852">visit.initializer: n_DOT_getInitializer_BRQTO__BRQTC_DOT_toString_BRQTO__BRQTC</text><rect fill="none" height="6" style="stroke:#C82930;stroke-width:1.0;" width="6" x="566" y="640.4824"/><text fill="#909090" font-family="sans-serif" font-size="14" lengthAdjust="spacing" textLength="417" x="578" y="647.2734">visit.method: preadapter.domain.Datastructure_DOT_Method</text><line style="stroke:#181818;stroke-width:1.0;" x1="559" x2="1294" y1="654.2266" y2="654.2266"/><ellipse cx="569" cy="667.9707" fill="#84BE84" rx="3" ry="3" style="stroke:#038048;stroke-width:1.0;"/><text fill="#000000" font-family="sans-serif" font-size="14" lengthAdjust="spacing" textLength="32" x="578" y="671.7617">visit(</text><text fill="#6060BB" font-family="sans-serif" font-size="14" lengthAdjust="spacing" textLength="292" x="610" y="671.7617">visit:ClassOrInterfaceDeclaration, visit:Void</text><text fill="#000000" font-family="sans-serif" font-size="14" lengthAdjust="spacing" textLength="5" x="902" y="671.7617">)</text><ellipse cx="569" cy="684.459" fill="#84BE84" rx="3" ry="3" style="stroke:#038048;stroke-width:1.0;"/><text fill="#000000" font-family="sans-serif" font-size="14" lengthAdjust="spacing" textLength="32" x="578" y="688.25">visit(</text><text fill="#6060BB" font-family="sans-serif" font-size="14" lengthAdjust="spacing" textLength="212" x="610" y="688.25">visit:FieldDeclaration, visit:Void</text><text fill="#000000" font-family="sans-serif" font-size="14" lengthAdjust="spacing" textLength="5" x="822" y="688.25">)</text><ellipse cx="569" cy="700.9473" fill="#84BE84" rx="3" ry="3" style="stroke:#038048;stroke-width:1.0;"/><text fill="#000000" font-family="sans-serif" font-size="14" lengthAdjust="spacing" textLength="32" x="578" y="704.7383">visit(</text><text fill="#6060BB" font-family="sans-serif" font-size="14" lengthAdjust="spacing" textLength="235" x="610" y="704.7383">visit:PackageDeclaration, visit:Void</text><text fill="#000000" font-family="sans-serif" font-size="14" lengthAdjust="spacing" textLength="5" x="845" y="704.7383">)</text><ellipse cx="569" cy="717.4355" fill="#84BE84" rx="3" ry="3" style="stroke:#038048;stroke-width:1.0;"/><text fill="#000000" font-family="sans-serif" font-size="14" lengthAdjust="spacing" textLength="32" x="578" y="721.2266">visit(</text><text fill="#6060BB" font-family="sans-serif" font-size="14" lengthAdjust="spacing" textLength="225" x="610" y="721.2266">visit:ImportDeclaration, visit:Void</text><text fill="#000000" font-family="sans-serif" font-size="14" lengthAdjust="spacing" textLength="5" x="835" y="721.2266">)</text><ellipse cx="569" cy="733.9238" fill="#84BE84" rx="3" ry="3" style="stroke:#038048;stroke-width:1.0;"/><text fill="#000000" font-family="sans-serif" font-size="14" lengthAdjust="spacing" textLength="32" x="578" y="737.7148">visit(</text><text fill="#6060BB" font-family="sans-serif" font-size="14" lengthAdjust="spacing" textLength="280" x="610" y="737.7148">visit:EnumConstantDeclaration, visit:Void</text><text fill="#000000" font-family="sans-serif" font-size="14" lengthAdjust="spacing" textLength="5" x="890" y="737.7148">)</text><ellipse cx="569" cy="750.4121" fill="#84BE84" rx="3" ry="3" style="stroke:#038048;stroke-width:1.0;"/><text fill="#000000" font-family="sans-serif" font-size="14" lengthAdjust="spacing" textLength="32" x="578" y="754.2031">visit(</text><text fill="#6060BB" font-family="sans-serif" font-size="14" lengthAdjust="spacing" textLength="218" x="610" y="754.2031">visit:EnumDeclaration, visit:Void</text><text fill="#000000" font-family="sans-serif" font-size="14" lengthAdjust="spacing" textLength="5" x="828" y="754.2031">)</text><ellipse cx="569" cy="766.9004" fill="#84BE84" rx="3" ry="3" style="stroke:#038048;stroke-width:1.0;"/><text fill="#000000" font-family="sans-serif" font-size="14" lengthAdjust="spacing" textLength="32" x="578" y="770.6914">visit(</text><text fill="#6060BB" font-family="sans-serif" font-size="14" lengthAdjust="spacing" textLength="228" x="610" y="770.6914">visit:VariableDeclarator, visit:Void</text><text fill="#000000" font-family="sans-serif" font-size="14" lengthAdjust="spacing" textLength="5" x="838" y="770.6914">)</text><line style="stroke:#181818;stroke-width:1.0;" x1="559" x2="1294" y1="777.6445" y2="777.6445"/><ellipse cx="569" cy="791.3887" fill="#84BE84" rx="3" ry="3" style="stroke:#038048;stroke-width:1.0;"/><text fill="#000000" font-family="sans-serif" font-size="14" lengthAdjust="spacing" textLength="39" x="578" y="795.1797">main(</text><text fill="#6060BB" font-family="sans-serif" font-size="14" lengthAdjust="spacing" textLength="195" x="617" y="795.1797">main:String_BRQTO__BRQTC</text><text fill="#000000" font-family="sans-serif" font-size="14" lengthAdjust="spacing" textLength="5" x="812" y="795.1797">)</text><rect fill="none" height="6" style="stroke:#C82930;stroke-width:1.0;" width="6" x="566" y="804.877"/><text fill="#909090" font-family="sans-serif" font-size="14" lengthAdjust="spacing" textLength="174" x="578" y="811.668">main.cu: CompilationUnit</text><line style="stroke:#181818;stroke-width:1.0;" x1="559" x2="1294" y1="818.6211" y2="818.6211"/></g></a><g id="elem_FloatingNote"><path d="M6,353.5547 L6,601.2129 L501,601.2129 L501,363.5547 L491,353.5547 L6,353.5547 " fill="#FEFFDD" style="stroke:#181818;stroke-width:0.5;"/><path d="M491,353.5547 L491,363.5547 L501,363.5547 L491,353.5547 " fill="#FEFFDD" style="stroke:#181818;stroke-width:1.0;"/><text fill="#000000" font-family="sans-serif" font-size="13" lengthAdjust="spacing" textLength="120" x="12" y="371.123">Your are analyzing:</text><text fill="#000000" font-family="sans-serif" font-size="13" lengthAdjust="spacing" textLength="300" x="12" y="386.4336">preadapter.domain.ASTVisitor_DOT_ObjectType</text><text fill="#000000" font-family="sans-serif" font-size="13" font-weight="bold" lengthAdjust="spacing" textLength="55" x="316" y="386.4336">detailed</text><text fill="#000000" font-family="sans-serif" font-size="13" lengthAdjust="spacing" textLength="4" x="371" y="386.4336">&#160;</text><text fill="#000000" font-family="sans-serif" font-size="13" lengthAdjust="spacing" textLength="4" x="12" y="401.7441">&#160;</text><text fill="#000000" font-family="sans-serif" font-size="13" lengthAdjust="spacing" textLength="229" x="12" y="432.3652">You can click either the namespaces</text><text fill="#000000" font-family="sans-serif" font-size="13" lengthAdjust="spacing" textLength="266" x="12" y="447.6758">or class names for filtering them and their</text><text fill="#000000" font-family="sans-serif" font-size="13" lengthAdjust="spacing" textLength="130" x="12" y="462.9863">direct dependencies.</text><text fill="#000000" font-family="sans-serif" font-size="13" lengthAdjust="spacing" textLength="4" x="12" y="478.2969">&#160;</text><line style="stroke:#181818;stroke-width:1.0;" x1="7" x2="237.5" y1="412.1416" y2="412.1416"/><line style="stroke:#181818;stroke-width:1.0;" x1="7" x2="237.5" y1="414.1416" y2="414.1416"/><text fill="#000000" font-family="sans-serif" font-size="13" lengthAdjust="spacing" textLength="32" x="237.5" y="416.5547">Filter</text><line style="stroke:#181818;stroke-width:1.0;" x1="269.5" x2="500" y1="412.1416" y2="412.1416"/><line style="stroke:#181818;stroke-width:1.0;" x1="269.5" x2="500" y1="414.1416" y2="414.1416"/><ellipse cx="17.5" cy="508.1602" fill="#000000" rx="2.5" ry="2.5" style="stroke:#000000;stroke-width:0.0;"/><text fill="#000000" font-family="sans-serif" font-size="13" lengthAdjust="spacing" textLength="300" x="24" y="512.918">preadapter.domain.ASTVisitor_DOT_ObjectType</text><text fill="#000000" font-family="sans-serif" font-size="13" font-weight="bold" lengthAdjust="spacing" textLength="67" x="328" y="512.918">simplified</text><text fill="#000000" font-family="sans-serif" font-size="13" lengthAdjust="spacing" textLength="4" x="399" y="512.918">:</text><text fill="#000000" font-family="sans-serif" font-size="13" lengthAdjust="spacing" textLength="12" x="12" y="528.2285">&#160;&#160;&#160;</text><a href="preadapter.domain.ASTVisitor_DOT_ObjectType-diagram-simplified.svg" target="_top" title="preadapter.domain.ASTVisitor_DOT_ObjectType-diagram-simplified.svg" xlink:actuate="onRequest" xlink:href="preadapter.domain.ASTVisitor_DOT_ObjectType-diagram-simplified.svg" xlink:show="new" xlink:title="preadapter.domain.ASTVisitor_DOT_ObjectType-diagram-simplified.svg" xlink:type="simple"><text fill="#0000FF" font-family="sans-serif" font-size="13" lengthAdjust="spacing" text-decoration="underline" textLength="456" x="24" y="528.2285">preadapter.domain.ASTVisitor_DOT_ObjectType-diagram-simplified.svg</text></a><ellipse cx="17.5" cy="538.7813" fill="#000000" rx="2.5" ry="2.5" style="stroke:#000000;stroke-width:0.0;"/><text fill="#000000" font-family="sans-serif" font-size="13" lengthAdjust="spacing" textLength="78" x="24" y="543.5391">Full diagram</text><text fill="#000000" font-family="sans-serif" font-size="13" font-weight="bold" lengthAdjust="spacing" textLength="55" x="106" y="543.5391">detailed</text><text fill="#000000" font-family="sans-serif" font-size="13" lengthAdjust="spacing" textLength="23" x="165" y="543.5391">and</text><text fill="#000000" font-family="sans-serif" font-size="13" font-weight="bold" lengthAdjust="spacing" textLength="166" x="192" y="543.5391">grouped per namespace</text><text fill="#000000" font-family="sans-serif" font-size="13" lengthAdjust="spacing" textLength="4" x="358" y="543.5391">:</text><text fill="#000000" font-family="sans-serif" font-size="13" lengthAdjust="spacing" textLength="12" x="12" y="558.8496">&#160;&#160;&#160;</text><a href="full-diagram-detailed-grouped-per-namespace.svg" target="_top" title="full-diagram-detailed-grouped-per-namespace.svg" xlink:actuate="onRequest" xlink:href="full-diagram-detailed-grouped-per-namespace.svg" xlink:show="new" xlink:title="full-diagram-detailed-grouped-per-namespace.svg" xlink:type="simple"><text fill="#0000FF" font-family="sans-serif" font-size="13" lengthAdjust="spacing" text-decoration="underline" textLength="330" x="24" y="558.8496">full-diagram-detailed-grouped-per-namespace.svg</text></a><ellipse cx="17.5" cy="569.4023" fill="#000000" rx="2.5" ry="2.5" style="stroke:#000000;stroke-width:0.0;"/><text fill="#000000" font-family="sans-serif" font-size="13" lengthAdjust="spacing" textLength="41" x="24" y="574.1602">Home:</text><text fill="#000000" font-family="sans-serif" font-size="13" lengthAdjust="spacing" textLength="12" x="12" y="589.4707">&#160;&#160;&#160;</text><a href="index.html" target="_top" title="index.html" xlink:actuate="onRequest" xlink:href="index.html" xlink:show="new" xlink:title="index.html" xlink:type="simple"><text fill="#0000FF" font-family="sans-serif" font-size="13" lengthAdjust="spacing" text-decoration="underline" textLength="68" x="24" y="589.4707">index.html</text></a><line style="stroke:#181818;stroke-width:1.0;" x1="7" x2="216.5" y1="492.6943" y2="492.6943"/><line style="stroke:#181818;stroke-width:1.0;" x1="7" x2="216.5" y1="494.6943" y2="494.6943"/><text fill="#000000" font-family="sans-serif" font-size="13" lengthAdjust="spacing" textLength="74" x="216.5" y="497.1074">Select other</text><line style="stroke:#181818;stroke-width:1.0;" x1="290.5" x2="500" y1="492.6943" y2="492.6943"/><line style="stroke:#181818;stroke-width:1.0;" x1="290.5" x2="500" y1="494.6943" y2="494.6943"/></g><!--reverse link ASTVisitor to ASTVisitor_DOT_ObjectType--><g id="link_ASTVisitor_ASTVisitor_DOT_ObjectType"><path codeLine="55" d="M926.5,842.8047 C926.5,860.1247 926.5,874.9447 926.5,886.1947 " fill="none" id="ASTVisitor-backto-ASTVisitor_DOT_ObjectType" style="stroke:#10BBBB;stroke-width:1.0;"/><ellipse cx="926.5" cy="835.9647" fill="#FFFFFF" rx="8" ry="8" style="stroke:#10BBBB;stroke-width:1.0;"/><line style="stroke:#10BBBB;stroke-width:1.0;" x1="926.5" x2="926.5" y1="843.9647" y2="827.9647"/><line style="stroke:#10BBBB;stroke-width:1.0;" x1="918.5" x2="934.5" y1="835.9647" y2="835.9647"/></g><!--SRC=[tLTHRzis47xFhpYa3ztKoitwK612722s5pH0KtUp6s283OCHpmfNYXH8AgixxB_lICcAdSY9tNh5C1iGHDxTTtSVxoZI2ISHZgtuWidhevF28EEiS6WwNETCgCxfQ7mfh73Qp0R3yMnu_GUcRhme4AA8esD28eyYE7xb8KuEb7O8Xx_hqW0p24mnkVWYL9PCr5TZJzH4TRjdGf9fjpjHX0ufKv1AaNu25Eu63T035ClH5Yn5IpRQa0Apjfg5EOtd0OAYyTev1SVzYp0JnOKXry2nGCLHfG9jft8xGkabsZlnpYFOBGyhyaAAkGYP40i0S7Mr0qJC1SiCo-Cxe8wzpQPJ7yfPAINK2kkS-ToYA3EwB913GGGrv4JHCemvcJVuI-EuDeh9A6wCxdo-rJak0GIHzRbput8vdHu2it0cDND4y7igWmEe5s0NmhwEcsNiLPJmR85IwZ_XBmhXxwt2UCBl9aV10y0Ba3hBq2IhFjw5gLhEcMFMcJ9rfS6a9PJ1ga9jn58dRl42tOtcxuHr2KXwNesSB-7fcbBVP-WNQwDUivARaQJyQ7shjWbBBnc8b4mvFMlfotKbZbWej3Q1jrH_4WVrk1QBZ9eI_SBTSz7jrXgZgiONNkU7uxbM3b8jjUaUlZbwSzJh7PuSl_Ap9p_M1gb4faBoxoc_9qpYkBRg4_skuknSqIBCYPPsspRD90o7ffaO81MOeRhNQYsy6DOmVpxo_tRCJa6xfNAZyjeNmcZhIWaDST-g3cBd6EnUlJTit_eUQgStY9AgmbTOV5dP99TQy6qO3Tfx3lz9TynaPKvhPiTb8UkAdlL- -tKyd3a_KxzNDJxh3oykJbi7NgrVFNVsdS2my8Gn6NB1l72BhK6-Cr-tp0XsBPjkqRHTNZwO-wz6Vz_TXz2ltzbf_qP8_dzCT5aRVXDFG0Mm39qVdjgLFXdETcoK9N3rqMc0_V3RW8KIJZ19PrwpWdj-Dxi66-HEVul3F6oIswr3jQ7klX4_yc7Rk2Ll0NicKF8zONrWwIUMxIkoyxpGnkq9x1TLvdsjh6Dgdv1xWdgurRQYDSNYIwiTpqkIpQNyw9Sw56nQ9j3NUI5aoEeZDSrQhTAH_JbTNhRwmR-c-nn2Eu31AamB-DaPEcxJVMfkT7vteav8zq5R7ZnwtNWHNptxYTZizQRnJlUZVm00]--></g></svg>