<?xml version="1.0" encoding="us-ascii" standalone="no"?><svg xmlns="http://www.w3.org/2000/svg" xmlns:xlink="http://www.w3.org/1999/xlink" contentStyleType="text/css" height="618px" preserveAspectRatio="none" style="width:3815px;height:618px;background:#FFFFFF;" version="1.1" viewBox="0 0 3815 618" width="3815px" zoomAndPan="magnify"><defs/><g><text fill="#000000" font-family="sans-serif" font-size="20" font-weight="bold" lengthAdjust="spacing" textLength="377" x="1653.25" y="29.3359">preadapter.infrastructure.CreateYML</text><text fill="#000000" font-family="sans-serif" font-size="20" font-weight="bold" lengthAdjust="spacing" textLength="104" x="2037.25" y="29.3359">simplified</text><text fill="#000000" font-family="sans-serif" font-size="20" font-weight="bold" lengthAdjust="spacing" textLength="7" x="2141.25" y="29.3359">&#160;</text><!--cluster DumperOptions--><g id="cluster_DumperOptions"><path d="M3680,361.5547 L3796,361.5547 A3.75,3.75 0 0 1 3798.5,364.0547 L3805.5,384.043 L3806,384.043 A2.5,2.5 0 0 1 3808.5,386.543 L3808.5,458.0547 A2.5,2.5 0 0 1 3806,460.5547 L3680,460.5547 A2.5,2.5 0 0 1 3677.5,458.0547 L3677.5,364.0547 A2.5,2.5 0 0 1 3680,361.5547 " fill="none" style="stroke:#000000;stroke-width:1.5;"/><line style="stroke:#000000;stroke-width:1.5;" x1="3677.5" x2="3805.5" y1="384.043" y2="384.043"/><text fill="#000000" font-family="sans-serif" font-size="14" font-weight="bold" lengthAdjust="spacing" textLength="115" x="3681.5" y="377.0898">DumperOptions</text></g><!--cluster preadapter--><g id="cluster_preadapter"><path d="M434,72.5547 L512,72.5547 A3.75,3.75 0 0 1 514.5,75.0547 L521.5,95.043 L890,95.043 A2.5,2.5 0 0 1 892.5,97.543 L892.5,609.0547 A2.5,2.5 0 0 1 890,611.5547 L434,611.5547 A2.5,2.5 0 0 1 431.5,609.0547 L431.5,75.0547 A2.5,2.5 0 0 1 434,72.5547 " fill="none" style="stroke:#000000;stroke-width:1.5;"/><line style="stroke:#000000;stroke-width:1.5;" x1="431.5" x2="521.5" y1="95.043" y2="95.043"/><text fill="#000000" font-family="sans-serif" font-size="14" font-weight="bold" lengthAdjust="spacing" textLength="77" x="435.5" y="88.0898">preadapter</text></g><!--cluster domain--><g id="cluster_domain"><path d="M549,361.5547 L604,361.5547 A3.75,3.75 0 0 1 606.5,364.0547 L613.5,384.043 L866,384.043 A2.5,2.5 0 0 1 868.5,386.543 L868.5,585.0547 A2.5,2.5 0 0 1 866,587.5547 L549,587.5547 A2.5,2.5 0 0 1 546.5,585.0547 L546.5,364.0547 A2.5,2.5 0 0 1 549,361.5547 " fill="none" style="stroke:#000000;stroke-width:1.5;"/><line style="stroke:#000000;stroke-width:1.5;" x1="546.5" x2="613.5" y1="384.043" y2="384.043"/><text fill="#000000" font-family="sans-serif" font-size="14" font-weight="bold" lengthAdjust="spacing" textLength="54" x="550.5" y="377.0898">domain</text></g><!--cluster infrastructure--><g id="cluster_infrastructure"><path d="M733,115.5547 L833,115.5547 A3.75,3.75 0 0 1 835.5,118.0547 L842.5,138.043 L866,138.043 A2.5,2.5 0 0 1 868.5,140.543 L868.5,212.0547 A2.5,2.5 0 0 1 866,214.5547 L733,214.5547 A2.5,2.5 0 0 1 730.5,212.0547 L730.5,118.0547 A2.5,2.5 0 0 1 733,115.5547 " fill="none" style="stroke:#000000;stroke-width:1.5;"/><line style="stroke:#000000;stroke-width:1.5;" x1="730.5" x2="842.5" y1="138.043" y2="138.043"/><text fill="#000000" font-family="sans-serif" font-size="14" font-weight="bold" lengthAdjust="spacing" textLength="99" x="734.5" y="131.0898">infrastructure</text></g><!--class FlowStyle--><a href="DumperOptions.FlowStyle-diagram-simplified.svg" target="_top" title="DumperOptions.FlowStyle-diagram-simplified.svg" xlink:actuate="onRequest" xlink:href="DumperOptions.FlowStyle-diagram-simplified.svg" xlink:show="new" xlink:title="DumperOptions.FlowStyle-diagram-simplified.svg" xlink:type="simple"><g id="elem_FlowStyle"><rect codeLine="3" fill="#F5FFFA" height="48" id="FlowStyle" rx="2.5" ry="2.5" style="stroke:#181818;stroke-width:0.5;" width="96" x="3694.5" y="396.5547"/><ellipse cx="3709.5" cy="412.5547" fill="#ADD1B2" rx="11" ry="11" style="stroke:#181818;stroke-width:1.0;"/><path d="M3711.9731,418.6978 Q3711.3921,418.9966 3710.7529,419.146 Q3710.1138,419.2954 3709.4082,419.2954 Q3706.9014,419.2954 3705.5815,417.6436 Q3704.2617,415.9917 3704.2617,412.8706 Q3704.2617,409.7412 3705.5815,408.0894 Q3706.9014,406.4375 3709.4082,406.4375 Q3710.1138,406.4375 3710.7612,406.5869 Q3711.4087,406.7363 3711.9731,407.0352 L3711.9731,409.7578 Q3711.3423,409.1768 3710.7488,408.907 Q3710.1553,408.6372 3709.5244,408.6372 Q3708.1797,408.6372 3707.4949,409.7039 Q3706.8101,410.7705 3706.8101,412.8706 Q3706.8101,414.9624 3707.4949,416.0291 Q3708.1797,417.0957 3709.5244,417.0957 Q3710.1553,417.0957 3710.7488,416.8259 Q3711.3423,416.5562 3711.9731,415.9751 Z " fill="#000000"/><text fill="#000000" font-family="sans-serif" font-size="14" lengthAdjust="spacing" textLength="64" x="3723.5" y="417.8457">FlowStyle</text><line style="stroke:#181818;stroke-width:0.5;" x1="3695.5" x2="3789.5" y1="428.5547" y2="428.5547"/><line style="stroke:#181818;stroke-width:0.5;" x1="3695.5" x2="3789.5" y1="436.5547" y2="436.5547"/></g></a><!--class Logger--><a href="preadapter.Logger-diagram-simplified.svg" target="_top" title="preadapter.Logger-diagram-simplified.svg" xlink:actuate="onRequest" xlink:href="preadapter.Logger-diagram-simplified.svg" xlink:show="new" xlink:title="preadapter.Logger-diagram-simplified.svg" xlink:type="simple"><g id="elem_Logger"><rect codeLine="21" fill="#F1F1F1" height="48" id="Logger" rx="2.5" ry="2.5" style="stroke:#181818;stroke-width:0.5;" width="80" x="447.5" y="523.5547"/><ellipse cx="462.5" cy="539.5547" fill="#ADD1B2" rx="11" ry="11" style="stroke:#181818;stroke-width:1.0;"/><path d="M464.9731,545.6978 Q464.3921,545.9966 463.7529,546.146 Q463.1138,546.2954 462.4082,546.2954 Q459.9014,546.2954 458.5815,544.6436 Q457.2617,542.9917 457.2617,539.8706 Q457.2617,536.7412 458.5815,535.0894 Q459.9014,533.4375 462.4082,533.4375 Q463.1138,533.4375 463.7612,533.5869 Q464.4087,533.7363 464.9731,534.0352 L464.9731,536.7578 Q464.3423,536.1768 463.7488,535.907 Q463.1553,535.6372 462.5244,535.6372 Q461.1797,535.6372 460.4949,536.7039 Q459.8101,537.7705 459.8101,539.8706 Q459.8101,541.9624 460.4949,543.0291 Q461.1797,544.0957 462.5244,544.0957 Q463.1553,544.0957 463.7488,543.8259 Q464.3423,543.5562 464.9731,542.9751 Z " fill="#000000"/><text fill="#000000" font-family="sans-serif" font-size="14" lengthAdjust="spacing" textLength="48" x="476.5" y="544.8457">Logger</text><line style="stroke:#181818;stroke-width:0.5;" x1="448.5" x2="526.5" y1="555.5547" y2="555.5547"/><line style="stroke:#181818;stroke-width:0.5;" x1="448.5" x2="526.5" y1="563.5547" y2="563.5547"/></g></a><!--class Datastructure--><a href="preadapter.domain.Datastructure-diagram-simplified.svg" target="_top" title="preadapter.domain.Datastructure-diagram-simplified.svg" xlink:actuate="onRequest" xlink:href="preadapter.domain.Datastructure-diagram-simplified.svg" xlink:show="new" xlink:title="preadapter.domain.Datastructure-diagram-simplified.svg" xlink:type="simple"><g id="elem_Datastructure"><rect codeLine="23" fill="#F1F1F1" height="48" id="Datastructure" rx="2.5" ry="2.5" style="stroke:#181818;stroke-width:0.5;" width="125" x="645" y="396.5547"/><ellipse cx="660" cy="412.5547" fill="#ADD1B2" rx="11" ry="11" style="stroke:#181818;stroke-width:1.0;"/><path d="M662.4731,418.6978 Q661.8921,418.9966 661.2529,419.146 Q660.6138,419.2954 659.9082,419.2954 Q657.4014,419.2954 656.0815,417.6436 Q654.7617,415.9917 654.7617,412.8706 Q654.7617,409.7412 656.0815,408.0894 Q657.4014,406.4375 659.9082,406.4375 Q660.6138,406.4375 661.2612,406.5869 Q661.9087,406.7363 662.4731,407.0352 L662.4731,409.7578 Q661.8423,409.1768 661.2488,408.907 Q660.6553,408.6372 660.0244,408.6372 Q658.6797,408.6372 657.9949,409.7039 Q657.3101,410.7705 657.3101,412.8706 Q657.3101,414.9624 657.9949,416.0291 Q658.6797,417.0957 660.0244,417.0957 Q660.6553,417.0957 661.2488,416.8259 Q661.8423,416.5562 662.4731,415.9751 Z " fill="#000000"/><text fill="#000000" font-family="sans-serif" font-size="14" lengthAdjust="spacing" textLength="93" x="674" y="417.8457">Datastructure</text><line style="stroke:#181818;stroke-width:0.5;" x1="646" x2="769" y1="428.5547" y2="428.5547"/><line style="stroke:#181818;stroke-width:0.5;" x1="646" x2="769" y1="436.5547" y2="436.5547"/></g></a><!--class Datastructure_DOT_SubDataStructure--><a href="preadapter.domain.Datastructure_DOT_SubDataStructure-diagram-simplified.svg" target="_top" title="preadapter.domain.Datastructure_DOT_SubDataStructure-diagram-simplified.svg" xlink:actuate="onRequest" xlink:href="preadapter.domain.Datastructure_DOT_SubDataStructure-diagram-simplified.svg" xlink:show="new" xlink:title="preadapter.domain.Datastructure_DOT_SubDataStructure-diagram-simplified.svg" xlink:type="simple"><g id="elem_Datastructure_DOT_SubDataStructure"><rect codeLine="25" fill="#F1F1F1" height="48" id="Datastructure_DOT_SubDataStructure" rx="2.5" ry="2.5" style="stroke:#181818;stroke-width:0.5;" width="289" x="563" y="523.5547"/><ellipse cx="578" cy="539.5547" fill="#ADD1B2" rx="11" ry="11" style="stroke:#181818;stroke-width:1.0;"/><path d="M580.4731,545.6978 Q579.8921,545.9966 579.2529,546.146 Q578.6138,546.2954 577.9082,546.2954 Q575.4014,546.2954 574.0815,544.6436 Q572.7617,542.9917 572.7617,539.8706 Q572.7617,536.7412 574.0815,535.0894 Q575.4014,533.4375 577.9082,533.4375 Q578.6138,533.4375 579.2612,533.5869 Q579.9087,533.7363 580.4731,534.0352 L580.4731,536.7578 Q579.8423,536.1768 579.2488,535.907 Q578.6553,535.6372 578.0244,535.6372 Q576.6797,535.6372 575.9949,536.7039 Q575.3101,537.7705 575.3101,539.8706 Q575.3101,541.9624 575.9949,543.0291 Q576.6797,544.0957 578.0244,544.0957 Q578.6553,544.0957 579.2488,543.8259 Q579.8423,543.5562 580.4731,542.9751 Z " fill="#000000"/><text fill="#000000" font-family="sans-serif" font-size="14" lengthAdjust="spacing" textLength="257" x="592" y="544.8457">Datastructure_DOT_SubDataStructure</text><line style="stroke:#181818;stroke-width:0.5;" x1="564" x2="851" y1="555.5547" y2="555.5547"/><line style="stroke:#181818;stroke-width:0.5;" x1="564" x2="851" y1="563.5547" y2="563.5547"/></g></a><!--class CreateYML--><a href="preadapter.infrastructure.CreateYML-diagram-simplified.svg" target="_top" title="preadapter.infrastructure.CreateYML-diagram-simplified.svg" xlink:actuate="onRequest" xlink:href="preadapter.infrastructure.CreateYML-diagram-simplified.svg" xlink:show="new" xlink:title="preadapter.infrastructure.CreateYML-diagram-simplified.svg" xlink:type="simple"><g id="elem_CreateYML"><rect codeLine="27" fill="#FFFF00" height="48" id="CreateYML" rx="2.5" ry="2.5" style="stroke:#181818;stroke-width:0.5;" width="105" x="747" y="150.5547"/><ellipse cx="762" cy="166.5547" fill="#ADD1B2" rx="11" ry="11" style="stroke:#181818;stroke-width:1.0;"/><path d="M764.4731,172.6978 Q763.8921,172.9966 763.2529,173.146 Q762.6138,173.2954 761.9082,173.2954 Q759.4014,173.2954 758.0815,171.6436 Q756.7617,169.9917 756.7617,166.8706 Q756.7617,163.7412 758.0815,162.0894 Q759.4014,160.4375 761.9082,160.4375 Q762.6138,160.4375 763.2612,160.5869 Q763.9087,160.7363 764.4731,161.0352 L764.4731,163.7578 Q763.8423,163.1768 763.2488,162.907 Q762.6553,162.6372 762.0244,162.6372 Q760.6797,162.6372 759.9949,163.7039 Q759.3101,164.7705 759.3101,166.8706 Q759.3101,168.9624 759.9949,170.0291 Q760.6797,171.0957 762.0244,171.0957 Q762.6553,171.0957 763.2488,170.8259 Q763.8423,170.5562 764.4731,169.9751 Z " fill="#000000"/><text fill="#000000" font-family="sans-serif" font-size="14" lengthAdjust="spacing" textLength="73" x="776" y="171.8457">CreateYML</text><line style="stroke:#181818;stroke-width:0.5;" x1="748" x2="851" y1="182.5547" y2="182.5547"/><line style="stroke:#181818;stroke-width:0.5;" x1="748" x2="851" y1="190.5547" y2="190.5547"/></g></a><g id="elem_FloatingNote"><path d="M6,50.5547 L6,298.2129 L415,298.2129 L415,60.5547 L405,50.5547 L6,50.5547 " fill="#FEFFDD" style="stroke:#181818;stroke-width:0.5;"/><path d="M405,50.5547 L405,60.5547 L415,60.5547 L405,50.5547 " fill="#FEFFDD" style="stroke:#181818;stroke-width:1.0;"/><text fill="#000000" font-family="sans-serif" font-size="13" lengthAdjust="spacing" textLength="120" x="12" y="68.123">Your are analyzing:</text><text fill="#000000" font-family="sans-serif" font-size="13" lengthAdjust="spacing" textLength="227" x="12" y="83.4336">preadapter.infrastructure.CreateYML</text><text fill="#000000" font-family="sans-serif" font-size="13" font-weight="bold" lengthAdjust="spacing" textLength="67" x="243" y="83.4336">simplified</text><text fill="#000000" font-family="sans-serif" font-size="13" lengthAdjust="spacing" textLength="4" x="310" y="83.4336">&#160;</text><text fill="#000000" font-family="sans-serif" font-size="13" lengthAdjust="spacing" textLength="4" x="12" y="98.7441">&#160;</text><text fill="#000000" font-family="sans-serif" font-size="13" lengthAdjust="spacing" textLength="229" x="12" y="129.3652">You can click either the namespaces</text><text fill="#000000" font-family="sans-serif" font-size="13" lengthAdjust="spacing" textLength="266" x="12" y="144.6758">or class names for filtering them and their</text><text fill="#000000" font-family="sans-serif" font-size="13" lengthAdjust="spacing" textLength="130" x="12" y="159.9863">direct dependencies.</text><text fill="#000000" font-family="sans-serif" font-size="13" lengthAdjust="spacing" textLength="4" x="12" y="175.2969">&#160;</text><line style="stroke:#181818;stroke-width:1.0;" x1="7" x2="194.5" y1="109.1416" y2="109.1416"/><line style="stroke:#181818;stroke-width:1.0;" x1="7" x2="194.5" y1="111.1416" y2="111.1416"/><text fill="#000000" font-family="sans-serif" font-size="13" lengthAdjust="spacing" textLength="32" x="194.5" y="113.5547">Filter</text><line style="stroke:#181818;stroke-width:1.0;" x1="226.5" x2="414" y1="109.1416" y2="109.1416"/><line style="stroke:#181818;stroke-width:1.0;" x1="226.5" x2="414" y1="111.1416" y2="111.1416"/><ellipse cx="17.5" cy="205.1602" fill="#000000" rx="2.5" ry="2.5" style="stroke:#000000;stroke-width:0.0;"/><text fill="#000000" font-family="sans-serif" font-size="13" lengthAdjust="spacing" textLength="227" x="24" y="209.918">preadapter.infrastructure.CreateYML</text><text fill="#000000" font-family="sans-serif" font-size="13" font-weight="bold" lengthAdjust="spacing" textLength="55" x="255" y="209.918">detailed</text><text fill="#000000" font-family="sans-serif" font-size="13" lengthAdjust="spacing" textLength="4" x="314" y="209.918">:</text><text fill="#000000" font-family="sans-serif" font-size="13" lengthAdjust="spacing" textLength="12" x="12" y="225.2285">&#160;&#160;&#160;</text><a href="preadapter.infrastructure.CreateYML-diagram-detailed.svg" target="_top" title="preadapter.infrastructure.CreateYML-diagram-detailed.svg" xlink:actuate="onRequest" xlink:href="preadapter.infrastructure.CreateYML-diagram-detailed.svg" xlink:show="new" xlink:title="preadapter.infrastructure.CreateYML-diagram-detailed.svg" xlink:type="simple"><text fill="#0000FF" font-family="sans-serif" font-size="13" lengthAdjust="spacing" text-decoration="underline" textLength="370" x="24" y="225.2285">preadapter.infrastructure.CreateYML-diagram-detailed.svg</text></a><ellipse cx="17.5" cy="235.7813" fill="#000000" rx="2.5" ry="2.5" style="stroke:#000000;stroke-width:0.0;"/><text fill="#000000" font-family="sans-serif" font-size="13" lengthAdjust="spacing" textLength="78" x="24" y="240.5391">Full diagram</text><text fill="#000000" font-family="sans-serif" font-size="13" font-weight="bold" lengthAdjust="spacing" textLength="67" x="106" y="240.5391">simplified</text><text fill="#000000" font-family="sans-serif" font-size="13" lengthAdjust="spacing" textLength="23" x="177" y="240.5391">and</text><text fill="#000000" font-family="sans-serif" font-size="13" font-weight="bold" lengthAdjust="spacing" textLength="166" x="204" y="240.5391">grouped per namespace</text><text fill="#000000" font-family="sans-serif" font-size="13" lengthAdjust="spacing" textLength="4" x="370" y="240.5391">:</text><text fill="#000000" font-family="sans-serif" font-size="13" lengthAdjust="spacing" textLength="12" x="12" y="255.8496">&#160;&#160;&#160;</text><a href="full-diagram-simplified-grouped-per-namespace.svg" target="_top" title="full-diagram-simplified-grouped-per-namespace.svg" xlink:actuate="onRequest" xlink:href="full-diagram-simplified-grouped-per-namespace.svg" xlink:show="new" xlink:title="full-diagram-simplified-grouped-per-namespace.svg" xlink:type="simple"><text fill="#0000FF" font-family="sans-serif" font-size="13" lengthAdjust="spacing" text-decoration="underline" textLength="343" x="24" y="255.8496">full-diagram-simplified-grouped-per-namespace.svg</text></a><ellipse cx="17.5" cy="266.4023" fill="#000000" rx="2.5" ry="2.5" style="stroke:#000000;stroke-width:0.0;"/><text fill="#000000" font-family="sans-serif" font-size="13" lengthAdjust="spacing" textLength="41" x="24" y="271.1602">Home:</text><text fill="#000000" font-family="sans-serif" font-size="13" lengthAdjust="spacing" textLength="12" x="12" y="286.4707">&#160;&#160;&#160;</text><a href="index.html" target="_top" title="index.html" xlink:actuate="onRequest" xlink:href="index.html" xlink:show="new" xlink:title="index.html" xlink:type="simple"><text fill="#0000FF" font-family="sans-serif" font-size="13" lengthAdjust="spacing" text-decoration="underline" textLength="68" x="24" y="286.4707">index.html</text></a><line style="stroke:#181818;stroke-width:1.0;" x1="7" x2="173.5" y1="189.6943" y2="189.6943"/><line style="stroke:#181818;stroke-width:1.0;" x1="7" x2="173.5" y1="191.6943" y2="191.6943"/><text fill="#000000" font-family="sans-serif" font-size="13" lengthAdjust="spacing" textLength="74" x="173.5" y="194.1074">Select other</text><line style="stroke:#181818;stroke-width:1.0;" x1="247.5" x2="414" y1="189.6943" y2="189.6943"/><line style="stroke:#181818;stroke-width:1.0;" x1="247.5" x2="414" y1="191.6943" y2="191.6943"/></g><!--class Mark--><a href="Mark-diagram-simplified.svg" target="_top" title="Mark-diagram-simplified.svg" xlink:actuate="onRequest" xlink:href="Mark-diagram-simplified.svg" xlink:show="new" xlink:title="Mark-diagram-simplified.svg" xlink:type="simple"><g id="elem_Mark"><rect codeLine="5" fill="#F5FFFA" height="48" id="Mark" rx="2.5" ry="2.5" style="stroke:#181818;stroke-width:0.5;" width="66" x="1319.5" y="396.5547"/><ellipse cx="1334.5" cy="412.5547" fill="#ADD1B2" rx="11" ry="11" style="stroke:#181818;stroke-width:1.0;"/><path d="M1336.9731,418.6978 Q1336.3921,418.9966 1335.7529,419.146 Q1335.1138,419.2954 1334.4082,419.2954 Q1331.9014,419.2954 1330.5815,417.6436 Q1329.2617,415.9917 1329.2617,412.8706 Q1329.2617,409.7412 1330.5815,408.0894 Q1331.9014,406.4375 1334.4082,406.4375 Q1335.1138,406.4375 1335.7612,406.5869 Q1336.4087,406.7363 1336.9731,407.0352 L1336.9731,409.7578 Q1336.3423,409.1768 1335.7488,408.907 Q1335.1553,408.6372 1334.5244,408.6372 Q1333.1797,408.6372 1332.4949,409.7039 Q1331.8101,410.7705 1331.8101,412.8706 Q1331.8101,414.9624 1332.4949,416.0291 Q1333.1797,417.0957 1334.5244,417.0957 Q1335.1553,417.0957 1335.7488,416.8259 Q1336.3423,416.5562 1336.9731,415.9751 Z " fill="#000000"/><text fill="#000000" font-family="sans-serif" font-size="14" lengthAdjust="spacing" textLength="34" x="1348.5" y="417.8457">Mark</text><line style="stroke:#181818;stroke-width:0.5;" x1="1320.5" x2="1384.5" y1="428.5547" y2="428.5547"/><line style="stroke:#181818;stroke-width:0.5;" x1="1320.5" x2="1384.5" y1="436.5547" y2="436.5547"/></g></a><!--class dictpingNode--><a href="dictpingNode-diagram-simplified.svg" target="_top" title="dictpingNode-diagram-simplified.svg" xlink:actuate="onRequest" xlink:href="dictpingNode-diagram-simplified.svg" xlink:show="new" xlink:title="dictpingNode-diagram-simplified.svg" xlink:type="simple"><g id="elem_dictpingNode"><rect codeLine="7" fill="#F5FFFA" height="48" id="dictpingNode" rx="2.5" ry="2.5" style="stroke:#181818;stroke-width:0.5;" width="124" x="1420.5" y="396.5547"/><ellipse cx="1435.5" cy="412.5547" fill="#ADD1B2" rx="11" ry="11" style="stroke:#181818;stroke-width:1.0;"/><path d="M1437.9731,418.6978 Q1437.3921,418.9966 1436.7529,419.146 Q1436.1138,419.2954 1435.4082,419.2954 Q1432.9014,419.2954 1431.5815,417.6436 Q1430.2617,415.9917 1430.2617,412.8706 Q1430.2617,409.7412 1431.5815,408.0894 Q1432.9014,406.4375 1435.4082,406.4375 Q1436.1138,406.4375 1436.7612,406.5869 Q1437.4087,406.7363 1437.9731,407.0352 L1437.9731,409.7578 Q1437.3423,409.1768 1436.7488,408.907 Q1436.1553,408.6372 1435.5244,408.6372 Q1434.1797,408.6372 1433.4949,409.7039 Q1432.8101,410.7705 1432.8101,412.8706 Q1432.8101,414.9624 1433.4949,416.0291 Q1434.1797,417.0957 1435.5244,417.0957 Q1436.1553,417.0957 1436.7488,416.8259 Q1437.3423,416.5562 1437.9731,415.9751 Z " fill="#000000"/><text fill="#000000" font-family="sans-serif" font-size="14" lengthAdjust="spacing" textLength="92" x="1449.5" y="417.8457">dictpingNode</text><line style="stroke:#181818;stroke-width:0.5;" x1="1421.5" x2="1543.5" y1="428.5547" y2="428.5547"/><line style="stroke:#181818;stroke-width:0.5;" x1="1421.5" x2="1543.5" y1="436.5547" y2="436.5547"/></g></a><!--class SequenceNode--><a href="SequenceNode-diagram-simplified.svg" target="_top" title="SequenceNode-diagram-simplified.svg" xlink:actuate="onRequest" xlink:href="SequenceNode-diagram-simplified.svg" xlink:show="new" xlink:title="SequenceNode-diagram-simplified.svg" xlink:type="simple"><g id="elem_SequenceNode"><rect codeLine="9" fill="#F5FFFA" height="48" id="SequenceNode" rx="2.5" ry="2.5" style="stroke:#181818;stroke-width:0.5;" width="134" x="1009.5" y="396.5547"/><ellipse cx="1024.5" cy="412.5547" fill="#ADD1B2" rx="11" ry="11" style="stroke:#181818;stroke-width:1.0;"/><path d="M1026.9731,418.6978 Q1026.3921,418.9966 1025.7529,419.146 Q1025.1138,419.2954 1024.4082,419.2954 Q1021.9014,419.2954 1020.5815,417.6436 Q1019.2617,415.9917 1019.2617,412.8706 Q1019.2617,409.7412 1020.5815,408.0894 Q1021.9014,406.4375 1024.4082,406.4375 Q1025.1138,406.4375 1025.7612,406.5869 Q1026.4087,406.7363 1026.9731,407.0352 L1026.9731,409.7578 Q1026.3423,409.1768 1025.7488,408.907 Q1025.1553,408.6372 1024.5244,408.6372 Q1023.1797,408.6372 1022.4949,409.7039 Q1021.8101,410.7705 1021.8101,412.8706 Q1021.8101,414.9624 1022.4949,416.0291 Q1023.1797,417.0957 1024.5244,417.0957 Q1025.1553,417.0957 1025.7488,416.8259 Q1026.3423,416.5562 1026.9731,415.9751 Z " fill="#000000"/><text fill="#000000" font-family="sans-serif" font-size="14" lengthAdjust="spacing" textLength="102" x="1038.5" y="417.8457">SequenceNode</text><line style="stroke:#181818;stroke-width:0.5;" x1="1010.5" x2="1142.5" y1="428.5547" y2="428.5547"/><line style="stroke:#181818;stroke-width:0.5;" x1="1010.5" x2="1142.5" y1="436.5547" y2="436.5547"/></g></a><!--class dictpingNode_BRQTO_Tag_DOT_MAP_COMMA__SPC_Arraylist_BRQTO__BRQTC_BRQTO__BRQTC_COMMA__SPC_dummperOptions_BRQTC--><a href="dictpingNode_BRQTO_Tag_DOT_MAP_COMMA__SPC_Arraylist_BRQTO__BRQTC_BRQTO__BRQTC_COMMA__SPC_dummperOptions_BRQTC-diagram-simplified.svg" target="_top" title="dictpingNode_BRQTO_Tag_DOT_MAP_COMMA__SPC_Arraylist_BRQTO__BRQTC_BRQTO__BRQTC_COMMA__SPC_dummperOptions_BRQTC-diagram-simplified.svg" xlink:actuate="onRequest" xlink:href="dictpingNode_BRQTO_Tag_DOT_MAP_COMMA__SPC_Arraylist_BRQTO__BRQTC_BRQTO__BRQTC_COMMA__SPC_dummperOptions_BRQTC-diagram-simplified.svg" xlink:show="new" xlink:title="dictpingNode_BRQTO_Tag_DOT_MAP_COMMA__SPC_Arraylist_BRQTO__BRQTC_BRQTO__BRQTC_COMMA__SPC_dummperOptions_BRQTC-diagram-simplified.svg" xlink:type="simple"><g id="elem_dictpingNode_BRQTO_Tag_DOT_MAP_COMMA__SPC_Arraylist_BRQTO__BRQTC_BRQTO__BRQTC_COMMA__SPC_dummperOptions_BRQTC"><rect codeLine="11" fill="#F5FFFA" height="48" id="dictpingNode_BRQTO_Tag_DOT_MAP_COMMA__SPC_Arraylist_BRQTO__BRQTC_BRQTO__BRQTC_COMMA__SPC_dummperOptions_BRQTC" rx="2.5" ry="2.5" style="stroke:#181818;stroke-width:0.5;" width="968" x="1579.5" y="396.5547"/><ellipse cx="1594.5" cy="412.5547" fill="#ADD1B2" rx="11" ry="11" style="stroke:#181818;stroke-width:1.0;"/><path d="M1596.9731,418.6978 Q1596.3921,418.9966 1595.7529,419.146 Q1595.1138,419.2954 1594.4082,419.2954 Q1591.9014,419.2954 1590.5815,417.6436 Q1589.2617,415.9917 1589.2617,412.8706 Q1589.2617,409.7412 1590.5815,408.0894 Q1591.9014,406.4375 1594.4082,406.4375 Q1595.1138,406.4375 1595.7612,406.5869 Q1596.4087,406.7363 1596.9731,407.0352 L1596.9731,409.7578 Q1596.3423,409.1768 1595.7488,408.907 Q1595.1553,408.6372 1594.5244,408.6372 Q1593.1797,408.6372 1592.4949,409.7039 Q1591.8101,410.7705 1591.8101,412.8706 Q1591.8101,414.9624 1592.4949,416.0291 Q1593.1797,417.0957 1594.5244,417.0957 Q1595.1553,417.0957 1595.7488,416.8259 Q1596.3423,416.5562 1596.9731,415.9751 Z " fill="#000000"/><text fill="#000000" font-family="sans-serif" font-size="14" lengthAdjust="spacing" textLength="936" x="1608.5" y="417.8457">dictpingNode_BRQTO_Tag_DOT_MAP_COMMA__SPC_Arraylist_BRQTO__BRQTC_BRQTO__BRQTC_COMMA__SPC_dummperOptions_BRQTC</text><line style="stroke:#181818;stroke-width:0.5;" x1="1580.5" x2="2546.5" y1="428.5547" y2="428.5547"/><line style="stroke:#181818;stroke-width:0.5;" x1="1580.5" x2="2546.5" y1="436.5547" y2="436.5547"/></g></a><!--class list_BRQTO_String_BRQTC--><a href="list_BRQTO_String_BRQTC-diagram-simplified.svg" target="_top" title="list_BRQTO_String_BRQTC-diagram-simplified.svg" xlink:actuate="onRequest" xlink:href="list_BRQTO_String_BRQTC-diagram-simplified.svg" xlink:show="new" xlink:title="list_BRQTO_String_BRQTC-diagram-simplified.svg" xlink:type="simple"><g id="elem_list_BRQTO_String_BRQTC"><rect codeLine="13" fill="#F5FFFA" height="48" id="list_BRQTO_String_BRQTC" rx="2.5" ry="2.5" style="stroke:#181818;stroke-width:0.5;" width="209" x="909" y="523.5547"/><ellipse cx="924" cy="539.5547" fill="#ADD1B2" rx="11" ry="11" style="stroke:#181818;stroke-width:1.0;"/><path d="M926.4731,545.6978 Q925.8921,545.9966 925.2529,546.146 Q924.6138,546.2954 923.9082,546.2954 Q921.4014,546.2954 920.0815,544.6436 Q918.7617,542.9917 918.7617,539.8706 Q918.7617,536.7412 920.0815,535.0894 Q921.4014,533.4375 923.9082,533.4375 Q924.6138,533.4375 925.2612,533.5869 Q925.9087,533.7363 926.4731,534.0352 L926.4731,536.7578 Q925.8423,536.1768 925.2488,535.907 Q924.6553,535.6372 924.0244,535.6372 Q922.6797,535.6372 921.9949,536.7039 Q921.3101,537.7705 921.3101,539.8706 Q921.3101,541.9624 921.9949,543.0291 Q922.6797,544.0957 924.0244,544.0957 Q924.6553,544.0957 925.2488,543.8259 Q925.8423,543.5562 926.4731,542.9751 Z " fill="#000000"/><text fill="#000000" font-family="sans-serif" font-size="14" lengthAdjust="spacing" textLength="177" x="938" y="544.8457">list_BRQTO_String_BRQTC</text><line style="stroke:#181818;stroke-width:0.5;" x1="910" x2="1117" y1="555.5547" y2="555.5547"/><line style="stroke:#181818;stroke-width:0.5;" x1="910" x2="1117" y1="563.5547" y2="563.5547"/></g></a><!--class SequenceNode_BRQTO_Tag_DOT_SEQ_COMMA__SPC_Arraylist_BRQTO__BRQTC_BRQTO__BRQTC_COMMA__SPC_dummperOptions_BRQTC--><a href="SequenceNode_BRQTO_Tag_DOT_SEQ_COMMA__SPC_Arraylist_BRQTO__BRQTC_BRQTO__BRQTC_COMMA__SPC_dummperOptions_BRQTC-diagram-simplified.svg" target="_top" title="SequenceNode_BRQTO_Tag_DOT_SEQ_COMMA__SPC_Arraylist_BRQTO__BRQTC_BRQTO__BRQTC_COMMA__SPC_dummperOptions_BRQTC-diagram-simplified.svg" xlink:actuate="onRequest" xlink:href="SequenceNode_BRQTO_Tag_DOT_SEQ_COMMA__SPC_Arraylist_BRQTO__BRQTC_BRQTO__BRQTC_COMMA__SPC_dummperOptions_BRQTC-diagram-simplified.svg" xlink:show="new" xlink:title="SequenceNode_BRQTO_Tag_DOT_SEQ_COMMA__SPC_Arraylist_BRQTO__BRQTC_BRQTO__BRQTC_COMMA__SPC_dummperOptions_BRQTC-diagram-simplified.svg" xlink:type="simple"><g id="elem_SequenceNode_BRQTO_Tag_DOT_SEQ_COMMA__SPC_Arraylist_BRQTO__BRQTC_BRQTO__BRQTC_COMMA__SPC_dummperOptions_BRQTC"><rect codeLine="15" fill="#F5FFFA" height="48" id="SequenceNode_BRQTO_Tag_DOT_SEQ_COMMA__SPC_Arraylist_BRQTO__BRQTC_BRQTO__BRQTC_COMMA__SPC_dummperOptions_BRQTC" rx="2.5" ry="2.5" style="stroke:#181818;stroke-width:0.5;" width="975" x="2684" y="396.5547"/><ellipse cx="2699" cy="412.5547" fill="#ADD1B2" rx="11" ry="11" style="stroke:#181818;stroke-width:1.0;"/><path d="M2701.4731,418.6978 Q2700.8921,418.9966 2700.2529,419.146 Q2699.6138,419.2954 2698.9082,419.2954 Q2696.4014,419.2954 2695.0815,417.6436 Q2693.7617,415.9917 2693.7617,412.8706 Q2693.7617,409.7412 2695.0815,408.0894 Q2696.4014,406.4375 2698.9082,406.4375 Q2699.6138,406.4375 2700.2612,406.5869 Q2700.9087,406.7363 2701.4731,407.0352 L2701.4731,409.7578 Q2700.8423,409.1768 2700.2488,408.907 Q2699.6553,408.6372 2699.0244,408.6372 Q2697.6797,408.6372 2696.9949,409.7039 Q2696.3101,410.7705 2696.3101,412.8706 Q2696.3101,414.9624 2696.9949,416.0291 Q2697.6797,417.0957 2699.0244,417.0957 Q2699.6553,417.0957 2700.2488,416.8259 Q2700.8423,416.5562 2701.4731,415.9751 Z " fill="#000000"/><text fill="#000000" font-family="sans-serif" font-size="14" lengthAdjust="spacing" textLength="943" x="2713" y="417.8457">SequenceNode_BRQTO_Tag_DOT_SEQ_COMMA__SPC_Arraylist_BRQTO__BRQTC_BRQTO__BRQTC_COMMA__SPC_dummperOptions_BRQTC</text><line style="stroke:#181818;stroke-width:0.5;" x1="2685" x2="3658" y1="428.5547" y2="428.5547"/><line style="stroke:#181818;stroke-width:0.5;" x1="2685" x2="3658" y1="436.5547" y2="436.5547"/></g></a><!--class Yaml--><a href="Yaml-diagram-simplified.svg" target="_top" title="Yaml-diagram-simplified.svg" xlink:actuate="onRequest" xlink:href="Yaml-diagram-simplified.svg" xlink:show="new" xlink:title="Yaml-diagram-simplified.svg" xlink:type="simple"><g id="elem_Yaml"><rect codeLine="17" fill="#F5FFFA" height="48" id="Yaml" rx="2.5" ry="2.5" style="stroke:#181818;stroke-width:0.5;" width="66" x="908.5" y="396.5547"/><ellipse cx="923.5" cy="412.5547" fill="#ADD1B2" rx="11" ry="11" style="stroke:#181818;stroke-width:1.0;"/><path d="M925.9731,418.6978 Q925.3921,418.9966 924.7529,419.146 Q924.1138,419.2954 923.4082,419.2954 Q920.9014,419.2954 919.5815,417.6436 Q918.2617,415.9917 918.2617,412.8706 Q918.2617,409.7412 919.5815,408.0894 Q920.9014,406.4375 923.4082,406.4375 Q924.1138,406.4375 924.7612,406.5869 Q925.4087,406.7363 925.9731,407.0352 L925.9731,409.7578 Q925.3423,409.1768 924.7488,408.907 Q924.1553,408.6372 923.5244,408.6372 Q922.1797,408.6372 921.4949,409.7039 Q920.8101,410.7705 920.8101,412.8706 Q920.8101,414.9624 921.4949,416.0291 Q922.1797,417.0957 923.5244,417.0957 Q924.1553,417.0957 924.7488,416.8259 Q925.3423,416.5562 925.9731,415.9751 Z " fill="#000000"/><text fill="#000000" font-family="sans-serif" font-size="14" lengthAdjust="spacing" textLength="34" x="937.5" y="417.8457">Yaml</text><line style="stroke:#181818;stroke-width:0.5;" x1="909.5" x2="973.5" y1="428.5547" y2="428.5547"/><line style="stroke:#181818;stroke-width:0.5;" x1="909.5" x2="973.5" y1="436.5547" y2="436.5547"/></g></a><!--class PrintWriter--><a href="PrintWriter-diagram-simplified.svg" target="_top" title="PrintWriter-diagram-simplified.svg" xlink:actuate="onRequest" xlink:href="PrintWriter-diagram-simplified.svg" xlink:show="new" xlink:title="PrintWriter-diagram-simplified.svg" xlink:type="simple"><g id="elem_PrintWriter"><rect codeLine="19" fill="#F5FFFA" height="48" id="PrintWriter" rx="2.5" ry="2.5" style="stroke:#181818;stroke-width:0.5;" width="105" x="1179" y="396.5547"/><ellipse cx="1194" cy="412.5547" fill="#ADD1B2" rx="11" ry="11" style="stroke:#181818;stroke-width:1.0;"/><path d="M1196.4731,418.6978 Q1195.8921,418.9966 1195.2529,419.146 Q1194.6138,419.2954 1193.9082,419.2954 Q1191.4014,419.2954 1190.0815,417.6436 Q1188.7617,415.9917 1188.7617,412.8706 Q1188.7617,409.7412 1190.0815,408.0894 Q1191.4014,406.4375 1193.9082,406.4375 Q1194.6138,406.4375 1195.2612,406.5869 Q1195.9087,406.7363 1196.4731,407.0352 L1196.4731,409.7578 Q1195.8423,409.1768 1195.2488,408.907 Q1194.6553,408.6372 1194.0244,408.6372 Q1192.6797,408.6372 1191.9949,409.7039 Q1191.3101,410.7705 1191.3101,412.8706 Q1191.3101,414.9624 1191.9949,416.0291 Q1192.6797,417.0957 1194.0244,417.0957 Q1194.6553,417.0957 1195.2488,416.8259 Q1195.8423,416.5562 1196.4731,415.9751 Z " fill="#000000"/><text fill="#000000" font-family="sans-serif" font-size="14" lengthAdjust="spacing" textLength="73" x="1208" y="417.8457">PrintWriter</text><line style="stroke:#181818;stroke-width:0.5;" x1="1180" x2="1283" y1="428.5547" y2="428.5547"/><line style="stroke:#181818;stroke-width:0.5;" x1="1180" x2="1283" y1="436.5547" y2="436.5547"/></g></a><!--reverse link Datastructure to Datastructure_DOT_SubDataStructure--><g id="link_Datastructure_Datastructure_DOT_SubDataStructure"><path codeLine="38" d="M707.5,460.5947 C707.5,481.2347 707.5,505.8647 707.5,523.4647 " fill="none" id="Datastructure-backto-Datastructure_DOT_SubDataStructure" style="stroke:#10BBBB;stroke-width:1.0;"/><ellipse cx="707.5" cy="453.7747" fill="#FFFFFF" rx="8" ry="8" style="stroke:#10BBBB;stroke-width:1.0;"/><line style="stroke:#10BBBB;stroke-width:1.0;" x1="707.5" x2="707.5" y1="461.7747" y2="445.7747"/><line style="stroke:#10BBBB;stroke-width:1.0;" x1="699.5" x2="715.5" y1="453.7747" y2="453.7747"/></g><!--link Datastructure to Logger--><g id="link_Datastructure_Logger"><path codeLine="39" d="M676.59,445.0147 C665.73,452.8647 653.3,461.4247 641.5,468.5547 C606.23,489.8847 564.4,510.8047 533.25,525.6047 " fill="none" id="Datastructure-to-Logger" style="stroke:#6060BB;stroke-width:1.0;stroke-dasharray:7.0,7.0;"/><polygon fill="#6060BB" points="528.95,528.1147,538.7958,527.8688,533.4669,525.9706,535.3652,520.6417,528.95,528.1147" style="stroke:#6060BB;stroke-width:1.0;"/><text fill="#000000" font-family="sans-serif" font-size="13" lengthAdjust="spacing" textLength="29" x="625.5" y="490.123">uses</text></g><!--link Datastructure to list_BRQTO_String_BRQTC--><g id="link_Datastructure_list_BRQTO_String_BRQTC"><path codeLine="40" d="M749.5,444.9847 C764.44,452.9147 781.52,461.5347 797.5,468.5547 C842.39,488.2747 894,507.0447 935.51,521.2347 " fill="none" id="Datastructure-to-list_BRQTO_String_BRQTC" style="stroke:#6060BB;stroke-width:1.0;stroke-dasharray:7.0,7.0;"/><polygon fill="#6060BB" points="940.04,523.1147,932.8088,516.4281,935.3067,521.5036,930.2311,524.0015,940.04,523.1147" style="stroke:#6060BB;stroke-width:1.0;"/><text fill="#000000" font-family="sans-serif" font-size="13" lengthAdjust="spacing" textLength="29" x="856.5" y="490.123">uses</text></g><!--link Datastructure to list_BRQTO_String_BRQTC--><g id="link_Datastructure_list_BRQTO_String_BRQTC"><path codeLine="41" d="M744.19,444.9647 C759.99,453.8947 779.04,463.2147 797.5,468.5547 C839.05,480.5847 853.27,463.4847 894.5,476.5547 C924.79,486.1547 955.62,504.5847 978.31,520.1247 " fill="none" id="Datastructure-to-list_BRQTO_String_BRQTC-1" style="stroke:#909090;stroke-width:1.0;"/><polygon fill="#909090" points="982.02,523.3947,976.8895,514.9877,977.9065,520.5524,972.3418,521.5693,982.02,523.3947" style="stroke:#909090;stroke-width:1.0;"/><text fill="#000000" font-family="sans-serif" font-size="13" lengthAdjust="spacing" textLength="29" x="933.5" y="490.123">uses</text></g><!--link CreateYML to FlowStyle--><g id="link_CreateYML_FlowStyle"><path codeLine="44" d="M852.49,176.5847 C1222.2,184.0447 3409.34,233.0947 3676.5,353.5547 C3694.97,361.8847 3711.15,377.8247 3722.86,391.9547 " fill="none" id="CreateYML-to-FlowStyle" style="stroke:#6060BB;stroke-width:1.0;stroke-dasharray:7.0,7.0;"/><polygon fill="#6060BB" points="3726.35,395.2747,3723.8002,385.7616,3723.2057,391.3871,3717.5801,390.7926,3726.35,395.2747" style="stroke:#6060BB;stroke-width:1.0;"/><text fill="#000000" font-family="sans-serif" font-size="13" lengthAdjust="spacing" textLength="29" x="3631.5" y="342.123">uses</text></g><!--link CreateYML to Mark--><g id="link_CreateYML_Mark"><path codeLine="45" d="M852.49,184.1147 C949.42,201.8647 1158.46,249.9547 1301.5,353.5547 C1315.39,363.6147 1327.35,378.4947 1336.18,391.5847 " fill="none" id="CreateYML-to-Mark" style="stroke:#6060BB;stroke-width:1.0;stroke-dasharray:7.0,7.0;"/><polygon fill="#6060BB" points="1339.3,395.3147,1337.7128,385.5946,1336.5595,391.1326,1331.0215,389.9793,1339.3,395.3147" style="stroke:#6060BB;stroke-width:1.0;"/><text fill="#000000" font-family="sans-serif" font-size="13" lengthAdjust="spacing" textLength="29" x="1290.5" y="342.123">uses</text></g><!--link CreateYML to dictpingNode--><g id="link_CreateYML_dictpingNode"><path codeLine="46" d="M852.27,190.0547 C947.67,216.4447 1155.05,274.5847 1328.5,328.5547 C1362.05,338.9947 1372.82,336.4347 1403.5,353.5547 C1422.17,363.9747 1440.64,379.0647 1455.02,392.1847 " fill="none" id="CreateYML-to-dictpingNode" style="stroke:#6060BB;stroke-width:1.0;stroke-dasharray:7.0,7.0;"/><polygon fill="#6060BB" points="1458.35,395.1947,1454.4645,386.1447,1454.6815,391.7974,1449.0288,392.0143,1458.35,395.1947" style="stroke:#6060BB;stroke-width:1.0;"/><text fill="#000000" font-family="sans-serif" font-size="13" lengthAdjust="spacing" textLength="29" x="1387.5" y="342.123">uses</text></g><!--link CreateYML to SequenceNode--><g id="link_CreateYML_SequenceNode"><path codeLine="47" d="M852.4,198.1847 C905.46,223.2247 986.42,268.1747 1037.5,328.5547 C1052.82,346.6647 1062.96,371.7047 1069.05,390.9247 " fill="none" id="CreateYML-to-SequenceNode" style="stroke:#6060BB;stroke-width:1.0;stroke-dasharray:7.0,7.0;"/><polygon fill="#6060BB" points="1070.66,395.1847,1071.8651,385.4098,1069.2036,390.4015,1064.212,387.74,1070.66,395.1847" style="stroke:#6060BB;stroke-width:1.0;"/><text fill="#000000" font-family="sans-serif" font-size="13" lengthAdjust="spacing" textLength="29" x="1048.5" y="342.123">uses</text></g><!--link CreateYML to SequenceNode--><g id="link_CreateYML_SequenceNode"><path codeLine="50" d="M826.06,198.9547 C877.56,244.3147 990.73,344.0047 1045.54,392.2847 " fill="none" id="CreateYML-to-SequenceNode-1" style="stroke:#909090;stroke-width:1.0;"/><polygon fill="#909090" points="1049.02,395.2347,1044.9338,386.2735,1045.2767,391.92,1039.6302,392.2629,1049.02,395.2347" style="stroke:#909090;stroke-width:1.0;"/><text fill="#000000" font-family="sans-serif" font-size="13" lengthAdjust="spacing" textLength="29" x="987.5" y="342.123">uses</text></g><!--link CreateYML to dictpingNode_BRQTO_Tag_DOT_MAP_COMMA__SPC_Arraylist_BRQTO__BRQTC_BRQTO__BRQTC_COMMA__SPC_dummperOptions_BRQTC--><g id="link_CreateYML_dictpingNode_BRQTO_Tag_DOT_MAP_COMMA__SPC_Arraylist_BRQTO__BRQTC_BRQTO__BRQTC_COMMA__SPC_dummperOptions_BRQTC"><path codeLine="48" d="M852.2,185.7247 C1037.82,221.5547 1664.64,342.5547 1936.24,394.9847 " fill="none" id="CreateYML-to-dictpingNode_BRQTO_Tag_DOT_MAP_COMMA__SPC_Arraylist_BRQTO__BRQTC_BRQTO__BRQTC_COMMA__SPC_dummperOptions_BRQTC" style="stroke:#909090;stroke-width:1.0;"/><polygon fill="#909090" points="1940.8,396.0647,1932.7149,390.4405,1935.8896,395.1226,1931.2075,398.2972,1940.8,396.0647" style="stroke:#909090;stroke-width:1.0;"/><text fill="#000000" font-family="sans-serif" font-size="13" lengthAdjust="spacing" textLength="29" x="1655.5" y="342.123">uses</text></g><!--link CreateYML to list_BRQTO_String_BRQTC--><g id="link_CreateYML_list_BRQTO_String_BRQTC"><path codeLine="49" d="M852.17,176.7547 C1133.17,183.6947 2447.43,222.9847 2565.5,353.5547 C2599.78,391.4647 2600.72,431.5147 2565.5,468.5547 C2515.92,520.6947 1470.96,540.1047 1124.21,545.1247 " fill="none" id="CreateYML-to-list_BRQTO_String_BRQTC" style="stroke:#6060BB;stroke-width:1.0;stroke-dasharray:7.0,7.0;"/><polygon fill="#6060BB" points="1119.41,545.2047,1128.4662,549.0757,1124.4095,545.1333,1128.3519,541.0765,1119.41,545.2047" style="stroke:#6060BB;stroke-width:1.0;"/><text fill="#000000" font-family="sans-serif" font-size="13" lengthAdjust="spacing" textLength="29" x="2592.5" y="425.623">uses</text></g><!--link CreateYML to Datastructure--><g id="link_CreateYML_Datastructure"><path codeLine="51" d="M790.68,198.9547 C773.75,243.8547 736.74,342.0047 718.34,390.8147 " fill="none" id="CreateYML-to-Datastructure" style="stroke:#6060BB;stroke-width:1.0;stroke-dasharray:7.0,7.0;"/><polygon fill="#6060BB" points="716.29,395.2347,723.1954,388.2122,718.0456,390.553,715.7048,385.4032,716.29,395.2347" style="stroke:#6060BB;stroke-width:1.0;"/><text fill="#000000" font-family="sans-serif" font-size="13" lengthAdjust="spacing" textLength="29" x="740.5" y="342.123">uses</text></g><!--link CreateYML to Logger--><g id="link_CreateYML_Logger"><path codeLine="52" d="M746.63,192.9547 C680.83,217.5747 570.46,269.2147 515.5,353.5547 C482.64,403.9747 481.92,477.4347 484.54,517.6247 " fill="none" id="CreateYML-to-Logger" style="stroke:#6060BB;stroke-width:1.0;stroke-dasharray:7.0,7.0;"/><polygon fill="#6060BB" points="484.95,522.3047,488.2723,513.0331,484.5796,517.3184,480.2943,513.6257,484.95,522.3047" style="stroke:#6060BB;stroke-width:1.0;"/><text fill="#000000" font-family="sans-serif" font-size="13" lengthAdjust="spacing" textLength="29" x="516.5" y="425.623">uses</text></g><!--link CreateYML to SequenceNode_BRQTO_Tag_DOT_SEQ_COMMA__SPC_Arraylist_BRQTO__BRQTC_BRQTO__BRQTC_COMMA__SPC_dummperOptions_BRQTC--><g id="link_CreateYML_SequenceNode_BRQTO_Tag_DOT_SEQ_COMMA__SPC_Arraylist_BRQTO__BRQTC_BRQTO__BRQTC_COMMA__SPC_dummperOptions_BRQTC"><path codeLine="53" d="M852.49,178.2447 C1072.78,189.7747 1937.66,238.6247 2643.5,328.5547 C2782.53,346.2647 2940.82,374.6547 3047.53,395.0147 " fill="none" id="CreateYML-to-SequenceNode_BRQTO_Tag_DOT_SEQ_COMMA__SPC_Arraylist_BRQTO__BRQTC_BRQTO__BRQTC_COMMA__SPC_dummperOptions_BRQTC" style="stroke:#909090;stroke-width:1.0;"/><polygon fill="#909090" points="3052.21,396.1047,3044.1092,390.5032,3047.2969,395.1763,3042.6238,398.3641,3052.21,396.1047" style="stroke:#909090;stroke-width:1.0;"/><text fill="#000000" font-family="sans-serif" font-size="13" lengthAdjust="spacing" textLength="29" x="2760.5" y="342.123">uses</text></g><!--link CreateYML to Datastructure_DOT_SubDataStructure--><g id="link_CreateYML_Datastructure_DOT_SubDataStructure"><path codeLine="54" d="M804.12,198.9047 C813.13,250.3047 828.76,376.0247 787.5,468.5547 C778.55,488.6347 761.84,506.2247 746,519.5947 " fill="none" id="CreateYML-to-Datastructure_DOT_SubDataStructure" style="stroke:#909090;stroke-width:1.0;"/><polygon fill="#909090" points="742.56,523.2447,752.0523,520.6184,746.4221,520.0692,746.9714,514.439,742.56,523.2447" style="stroke:#909090;stroke-width:1.0;"/><text fill="#000000" font-family="sans-serif" font-size="13" lengthAdjust="spacing" textLength="29" x="813.5" y="425.623">uses</text></g><!--link CreateYML to Yaml--><g id="link_CreateYML_Yaml"><path codeLine="55" d="M813.12,198.9547 C839.3,243.9447 896.6,342.4047 924.95,391.1047 " fill="none" id="CreateYML-to-Yaml" style="stroke:#909090;stroke-width:1.0;"/><polygon fill="#909090" points="927.93,395.2347,926.8543,385.4447,925.4124,390.9148,919.9424,389.4729,927.93,395.2347" style="stroke:#909090;stroke-width:1.0;"/><text fill="#000000" font-family="sans-serif" font-size="13" lengthAdjust="spacing" textLength="29" x="896.5" y="342.123">uses</text></g><!--link CreateYML to PrintWriter--><g id="link_CreateYML_PrintWriter"><path codeLine="56" d="M852.24,195.6347 C925.21,224.6947 1059.5,282.7947 1161.5,353.5547 C1177.53,364.6747 1193.5,379.3847 1206.13,392.0947 " fill="none" id="CreateYML-to-PrintWriter" style="stroke:#909090;stroke-width:1.0;"/><polygon fill="#909090" points="1209.29,395.3247,1205.8287,386.1041,1205.7831,391.7608,1200.1264,391.7151,1209.29,395.3247" style="stroke:#909090;stroke-width:1.0;"/><text fill="#000000" font-family="sans-serif" font-size="13" lengthAdjust="spacing" textLength="29" x="1144.5" y="342.123">uses</text></g><!--SRC=[lLRRJjj047tFLupW0ScLtRGFI8q84eIYFf06QgGA9PQrjITcnNhjhjSj0VNVE-lSR4Z0DfT4YhFUEUVCPI-ZkHO81nc_mzxdxc6ga8KirQWSBgUAPLhbWSuLEWEQqNWrF0FBodYS2Zxb65eM77mquCEEJ3J2pbMIAs0AWKacPdTSHhs9RC4waHFPxvzoGQ1-VoA95m8c8H0yk07a-XeLq0z85cEMiW0pmYIA35YMpT_2bCRJWeByCDOnkHMQFrnDPCWL1Xf2J566A0EEcJENTL6OcSI8674BwaKGecPS5FvJr00m7jS0sY5daMAnlOGxsP_8yupiQIu4BAOVPiX4ObcHIl8KGqWf7QjKMDPIVae4A_urt5x0R8BPAzXQzriIuvA2Kt9kdMiT2y_R0PR1gKYOfeH-fu9tvka-oMDY6gMQ9p9poE2lgsUqhiRZBJCRV9ghm-wGIsro4yDzvz-2VyZK3P6PHqDao0ET5iw6nftoi26JYxzpMYMuO2eFN-2JV_pZudBaNxB8FnbT-iEZStym6WwFVDyz7_X7Ih6Pu9bUc1MFGNLGCW_pk9Jj-Vo3eDzShs4kIcAkDjjqvVMMcHTKxK7ixjUBry_rk-erpCKLYmMvQ1uDaUUKV_rJSJh6YA0qQiXJEWtFaYWgs1wzsyvPC04yuWgJc77fd32zFb-hp9iidjG1gAqqBsx-oxnqwyjlXBNnQUk5rEpsULp16GewhvV2UtJRrFh0czdkmQ08Ng5WnJO0lDMA1PekmAbAulKDs2FRXkRhNBK6BkhSUMvfVh37kv-wn_Jnx7Qhwra9Pxoxtzqd3SyvtB3je0TvHXrICvvjXtLjDehxIzTyFRi6M-ioLDTwfyvUgSIvhPtP56SzngA1QG-lT37jQIejJ2EQIk7Ujtzf7swJvLelylO9tBOVDswJLs5-OgSt3_RjMwVsVhOwGDlB5LrKUtYvbLgo_0S0]--></g></svg>