<?xml version="1.0" encoding="us-ascii" standalone="no"?><svg xmlns="http://www.w3.org/2000/svg" xmlns:xlink="http://www.w3.org/1999/xlink" contentStyleType="text/css" height="1221px" preserveAspectRatio="none" style="width:1907px;height:1221px;background:#FFFFFF;" version="1.1" viewBox="0 0 1907 1221" width="1907px" zoomAndPan="magnify"><defs/><g><text fill="#000000" font-family="sans-serif" font-size="20" font-weight="bold" lengthAdjust="spacing" textLength="320" x="737.75" y="29.3359">preadapter.service.AnalyzeAST</text><text fill="#000000" font-family="sans-serif" font-size="20" font-weight="bold" lengthAdjust="spacing" textLength="84" x="1064.75" y="29.3359">detailed</text><text fill="#000000" font-family="sans-serif" font-size="20" font-weight="bold" lengthAdjust="spacing" textLength="7" x="1148.75" y="29.3359">&#160;</text><!--cluster preadapter--><g id="cluster_preadapter"><path d="M412,50.5547 L490,50.5547 A3.75,3.75 0 0 1 492.5,53.0547 L499.5,73.043 L1298,73.043 A2.5,2.5 0 0 1 1300.5,75.543 L1300.5,1212.0547 A2.5,2.5 0 0 1 1298,1214.5547 L412,1214.5547 A2.5,2.5 0 0 1 409.5,1212.0547 L409.5,53.0547 A2.5,2.5 0 0 1 412,50.5547 " fill="none" style="stroke:#000000;stroke-width:1.5;"/><line style="stroke:#000000;stroke-width:1.5;" x1="409.5" x2="499.5" y1="73.043" y2="73.043"/><text fill="#000000" font-family="sans-serif" font-size="14" font-weight="bold" lengthAdjust="spacing" textLength="77" x="413.5" y="66.0898">preadapter</text></g><!--cluster domain--><g id="cluster_domain"><path d="M513,380.5547 L568,380.5547 A3.75,3.75 0 0 1 570.5,383.0547 L577.5,403.043 L1274,403.043 A2.5,2.5 0 0 1 1276.5,405.543 L1276.5,863.0547 A2.5,2.5 0 0 1 1274,865.5547 L513,865.5547 A2.5,2.5 0 0 1 510.5,863.0547 L510.5,383.0547 A2.5,2.5 0 0 1 513,380.5547 " fill="none" style="stroke:#000000;stroke-width:1.5;"/><line style="stroke:#000000;stroke-width:1.5;" x1="510.5" x2="577.5" y1="403.043" y2="403.043"/><text fill="#000000" font-family="sans-serif" font-size="14" font-weight="bold" lengthAdjust="spacing" textLength="54" x="514.5" y="396.0898">domain</text></g><!--cluster service--><g id="cluster_service"><path d="M603,93.5547 L654,93.5547 A3.75,3.75 0 0 1 656.5,96.0547 L663.5,116.043 L1274,116.043 A2.5,2.5 0 0 1 1276.5,118.543 L1276.5,272.0547 A2.5,2.5 0 0 1 1274,274.5547 L603,274.5547 A2.5,2.5 0 0 1 600.5,272.0547 L600.5,96.0547 A2.5,2.5 0 0 1 603,93.5547 " fill="none" style="stroke:#000000;stroke-width:1.5;"/><line style="stroke:#000000;stroke-width:1.5;" x1="600.5" x2="663.5" y1="116.043" y2="116.043"/><text fill="#000000" font-family="sans-serif" font-size="14" font-weight="bold" lengthAdjust="spacing" textLength="50" x="604.5" y="109.0898">service</text></g><!--class Logger--><a href="preadapter.Logger-diagram-detailed.svg" target="_top" title="preadapter.Logger-diagram-detailed.svg" xlink:actuate="onRequest" xlink:href="preadapter.Logger-diagram-detailed.svg" xlink:show="new" xlink:title="preadapter.Logger-diagram-detailed.svg" xlink:type="simple"><g id="elem_Logger"><rect codeLine="9" fill="#F1F1F1" height="270.3477" id="Logger" rx="2.5" ry="2.5" style="stroke:#181818;stroke-width:0.5;" width="289" x="552" y="928.5547"/><ellipse cx="668.25" cy="944.5547" fill="#ADD1B2" rx="11" ry="11" style="stroke:#181818;stroke-width:1.0;"/><path d="M670.7231,950.6978 Q670.1421,950.9966 669.5029,951.146 Q668.8638,951.2954 668.1582,951.2954 Q665.6514,951.2954 664.3315,949.6436 Q663.0117,947.9917 663.0117,944.8706 Q663.0117,941.7412 664.3315,940.0894 Q665.6514,938.4375 668.1582,938.4375 Q668.8638,938.4375 669.5112,938.5869 Q670.1587,938.7363 670.7231,939.0352 L670.7231,941.7578 Q670.0923,941.1768 669.4988,940.907 Q668.9053,940.6372 668.2744,940.6372 Q666.9297,940.6372 666.2449,941.7039 Q665.5601,942.7705 665.5601,944.8706 Q665.5601,946.9624 666.2449,948.0291 Q666.9297,949.0957 668.2744,949.0957 Q668.9053,949.0957 669.4988,948.8259 Q670.0923,948.5562 670.7231,947.9751 Z " fill="#000000"/><text fill="#000000" font-family="sans-serif" font-size="14" lengthAdjust="spacing" textLength="48" x="688.75" y="949.8457">Logger</text><line style="stroke:#181818;stroke-width:0.5;" x1="553" x2="840" y1="960.5547" y2="960.5547"/><ellipse cx="563" cy="974.2988" fill="none" rx="3" ry="3" style="stroke:#038048;stroke-width:1.0;"/><text fill="#000000" font-family="sans-serif" font-size="14" lengthAdjust="spacing" textLength="263" x="572" y="978.0898">loggingType: preadapter.LoggingType</text><line style="stroke:#181818;stroke-width:1.0;" x1="553" x2="840" y1="985.043" y2="985.043"/><line style="stroke:#181818;stroke-width:1.0;" x1="553" x2="840" y1="987.043" y2="987.043"/><rect fill="#F24D5C" height="6" style="stroke:#C82930;stroke-width:1.0;" width="6" x="560" y="995.7871"/><text fill="#000000" font-family="sans-serif" font-size="14" lengthAdjust="spacing" textLength="27" x="572" y="1002.5781">log(</text><text fill="#000000" font-family="sans-serif" font-size="14" lengthAdjust="spacing" textLength="5" x="599" y="1002.5781">)</text><rect fill="none" height="6" style="stroke:#C82930;stroke-width:1.0;" width="6" x="560" y="1012.2754"/><text fill="#909090" font-family="sans-serif" font-size="14" lengthAdjust="spacing" textLength="230" x="572" y="1019.0664">log.result: String_BRQTO__BRQTC</text><line style="stroke:#181818;stroke-width:1.0;" x1="553" x2="840" y1="1026.0195" y2="1026.0195"/><ellipse cx="563" cy="1039.7637" fill="#84BE84" rx="3" ry="3" style="stroke:#038048;stroke-width:1.0;"/><text fill="#000000" font-family="sans-serif" font-size="14" lengthAdjust="spacing" textLength="62" x="572" y="1043.5547">logError(</text><text fill="#000000" font-family="sans-serif" font-size="14" lengthAdjust="spacing" textLength="5" x="634" y="1043.5547">)</text><ellipse cx="563" cy="1056.252" fill="#84BE84" rx="3" ry="3" style="stroke:#038048;stroke-width:1.0;"/><text fill="#000000" font-family="sans-serif" font-size="14" lengthAdjust="spacing" textLength="62" x="572" y="1060.043">logError(</text><text fill="#000000" font-family="sans-serif" font-size="14" lengthAdjust="spacing" textLength="5" x="634" y="1060.043">)</text><ellipse cx="563" cy="1072.7402" fill="#84BE84" rx="3" ry="3" style="stroke:#038048;stroke-width:1.0;"/><text fill="#000000" font-family="sans-serif" font-size="14" lengthAdjust="spacing" textLength="84" x="572" y="1076.5313">logWarning(</text><text fill="#000000" font-family="sans-serif" font-size="14" lengthAdjust="spacing" textLength="5" x="656" y="1076.5313">)</text><ellipse cx="563" cy="1089.2285" fill="#84BE84" rx="3" ry="3" style="stroke:#038048;stroke-width:1.0;"/><text fill="#000000" font-family="sans-serif" font-size="14" lengthAdjust="spacing" textLength="84" x="572" y="1093.0195">logWarning(</text><text fill="#000000" font-family="sans-serif" font-size="14" lengthAdjust="spacing" textLength="5" x="656" y="1093.0195">)</text><ellipse cx="563" cy="1105.7168" fill="#84BE84" rx="3" ry="3" style="stroke:#038048;stroke-width:1.0;"/><text fill="#000000" font-family="sans-serif" font-size="14" lengthAdjust="spacing" textLength="54" x="572" y="1109.5078">logInfo(</text><text fill="#000000" font-family="sans-serif" font-size="14" lengthAdjust="spacing" textLength="5" x="626" y="1109.5078">)</text><ellipse cx="563" cy="1122.2051" fill="#84BE84" rx="3" ry="3" style="stroke:#038048;stroke-width:1.0;"/><text fill="#000000" font-family="sans-serif" font-size="14" lengthAdjust="spacing" textLength="54" x="572" y="1125.9961">logInfo(</text><text fill="#000000" font-family="sans-serif" font-size="14" lengthAdjust="spacing" textLength="5" x="626" y="1125.9961">)</text><ellipse cx="563" cy="1138.6934" fill="#84BE84" rx="3" ry="3" style="stroke:#038048;stroke-width:1.0;"/><text fill="#000000" font-family="sans-serif" font-size="14" lengthAdjust="spacing" textLength="72" x="572" y="1142.4844">logDebug(</text><text fill="#000000" font-family="sans-serif" font-size="14" lengthAdjust="spacing" textLength="5" x="644" y="1142.4844">)</text><ellipse cx="563" cy="1155.1816" fill="#84BE84" rx="3" ry="3" style="stroke:#038048;stroke-width:1.0;"/><text fill="#000000" font-family="sans-serif" font-size="14" lengthAdjust="spacing" textLength="72" x="572" y="1158.9727">logDebug(</text><text fill="#000000" font-family="sans-serif" font-size="14" lengthAdjust="spacing" textLength="5" x="644" y="1158.9727">)</text><ellipse cx="563" cy="1171.6699" fill="#84BE84" rx="3" ry="3" style="stroke:#038048;stroke-width:1.0;"/><text fill="#000000" font-family="sans-serif" font-size="14" lengthAdjust="spacing" textLength="65" x="572" y="1175.4609">logTrace(</text><text fill="#000000" font-family="sans-serif" font-size="14" lengthAdjust="spacing" textLength="5" x="637" y="1175.4609">)</text><ellipse cx="563" cy="1188.1582" fill="#84BE84" rx="3" ry="3" style="stroke:#038048;stroke-width:1.0;"/><text fill="#000000" font-family="sans-serif" font-size="14" lengthAdjust="spacing" textLength="65" x="572" y="1191.9492">logTrace(</text><text fill="#000000" font-family="sans-serif" font-size="14" lengthAdjust="spacing" textLength="5" x="637" y="1191.9492">)</text></g></a><!--class Datastructure--><a href="preadapter.domain.Datastructure-diagram-detailed.svg" target="_top" title="preadapter.domain.Datastructure-diagram-detailed.svg" xlink:actuate="onRequest" xlink:href="preadapter.domain.Datastructure-diagram-detailed.svg" xlink:show="new" xlink:title="preadapter.domain.Datastructure-diagram-detailed.svg" xlink:type="simple"><g id="elem_Datastructure"><rect codeLine="26" fill="#F1F1F1" height="434.2539" id="Datastructure" rx="2.5" ry="2.5" style="stroke:#181818;stroke-width:0.5;" width="733" x="527" y="415.5547"/><ellipse cx="842.75" cy="431.5547" fill="#ADD1B2" rx="11" ry="11" style="stroke:#181818;stroke-width:1.0;"/><path d="M845.2231,437.6978 Q844.6421,437.9966 844.0029,438.146 Q843.3638,438.2954 842.6582,438.2954 Q840.1514,438.2954 838.8315,436.6436 Q837.5117,434.9917 837.5117,431.8706 Q837.5117,428.7412 838.8315,427.0894 Q840.1514,425.4375 842.6582,425.4375 Q843.3638,425.4375 844.0112,425.5869 Q844.6587,425.7363 845.2231,426.0352 L845.2231,428.7578 Q844.5923,428.1768 843.9988,427.907 Q843.4053,427.6372 842.7744,427.6372 Q841.4297,427.6372 840.7449,428.7039 Q840.0601,429.7705 840.0601,431.8706 Q840.0601,433.9624 840.7449,435.0291 Q841.4297,436.0957 842.7744,436.0957 Q843.4053,436.0957 843.9988,435.8259 Q844.5923,435.5562 845.2231,434.9751 Z " fill="#000000"/><text fill="#000000" font-family="sans-serif" font-size="14" lengthAdjust="spacing" textLength="93" x="863.25" y="436.8457">Datastructure</text><line style="stroke:#181818;stroke-width:0.5;" x1="528" x2="1259" y1="447.5547" y2="447.5547"/><ellipse cx="538" cy="461.2988" fill="none" rx="3" ry="3" style="stroke:#038048;stroke-width:1.0;"/><text fill="#000000" font-family="sans-serif" font-size="14" lengthAdjust="spacing" textLength="361" x="547" y="465.0898">class_to_datastructure: dict[String,SubDataStructure]</text><ellipse cx="538" cy="477.7871" fill="none" rx="3" ry="3" style="stroke:#038048;stroke-width:1.0;"/><text fill="#000000" font-family="sans-serif" font-size="14" lengthAdjust="spacing" textLength="442" x="547" y="481.5781">namespace_to_datastructures: dict[String,list[SubDataStructure]]</text><ellipse cx="538" cy="494.2754" fill="none" rx="3" ry="3" style="stroke:#038048;stroke-width:1.0;"/><text fill="#000000" font-family="sans-serif" font-size="14" lengthAdjust="spacing" textLength="368" x="547" y="498.0664">namespace_to_namespace_list: dict[String,list[String]]</text><ellipse cx="538" cy="510.7637" fill="none" rx="3" ry="3" style="stroke:#038048;stroke-width:1.0;"/><text fill="#000000" font-family="sans-serif" font-size="14" lengthAdjust="spacing" textLength="150" x="547" y="514.5547">skip_types: list[String]</text><ellipse cx="538" cy="527.252" fill="none" rx="3" ry="3" style="stroke:#038048;stroke-width:1.0;"/><text fill="#000000" font-family="sans-serif" font-size="14" lengthAdjust="spacing" textLength="181" x="547" y="531.043">logger: preadapter.Logger</text><line style="stroke:#181818;stroke-width:1.0;" x1="528" x2="1259" y1="537.9961" y2="537.9961"/><line style="stroke:#181818;stroke-width:1.0;" x1="528" x2="1259" y1="539.9961" y2="539.9961"/><ellipse cx="538" cy="551.7402" fill="#84BE84" rx="3" ry="3" style="stroke:#038048;stroke-width:1.0;"/><text fill="#000000" font-family="sans-serif" font-size="14" lengthAdjust="spacing" textLength="139" x="547" y="555.5313">ResolveClassNames(</text><text fill="#000000" font-family="sans-serif" font-size="14" lengthAdjust="spacing" textLength="5" x="686" y="555.5313">)</text><rect fill="none" height="6" style="stroke:#C82930;stroke-width:1.0;" width="6" x="535" y="565.2285"/><text fill="#909090" font-family="sans-serif" font-size="14" lengthAdjust="spacing" textLength="399" x="547" y="572.0195">ResolveClassNames.variables: list_BRQTO_Variable_BRQTC</text><rect fill="none" height="6" style="stroke:#C82930;stroke-width:1.0;" width="6" x="535" y="581.7168"/><text fill="#909090" font-family="sans-serif" font-size="14" lengthAdjust="spacing" textLength="256" x="547" y="588.5078">ResolveClassNames.variable: Variable</text><rect fill="none" height="6" style="stroke:#C82930;stroke-width:1.0;" width="6" x="535" y="598.2051"/><text fill="#909090" font-family="sans-serif" font-size="14" lengthAdjust="spacing" textLength="251" x="547" y="604.9961">ResolveClassNames.method: Method</text><rect fill="none" height="6" style="stroke:#C82930;stroke-width:1.0;" width="6" x="535" y="614.6934"/><text fill="#909090" font-family="sans-serif" font-size="14" lengthAdjust="spacing" textLength="385" x="547" y="621.4844">ResolveClassNames.subDataStructure: SubDataStructure</text><line style="stroke:#181818;stroke-width:1.0;" x1="528" x2="1259" y1="628.4375" y2="628.4375"/><rect fill="#F24D5C" height="6" style="stroke:#C82930;stroke-width:1.0;" width="6" x="535" y="639.1816"/><text fill="#000000" font-family="sans-serif" font-size="14" lengthAdjust="spacing" textLength="133" x="547" y="645.9727">CorrectClassScope(</text><text fill="#6060BB" font-family="sans-serif" font-size="14" lengthAdjust="spacing" textLength="569" x="680" y="645.9727">CorrectClassScope:SubDataStructure, CorrectClassScope:list_BRQTO_String_BRQTC</text><text fill="#000000" font-family="sans-serif" font-size="14" lengthAdjust="spacing" textLength="5" x="1249" y="645.9727">)</text><line style="stroke:#181818;stroke-width:1.0;" x1="528" x2="1259" y1="652.9258" y2="652.9258"/><ellipse cx="538" cy="666.6699" fill="#84BE84" rx="3" ry="3" style="stroke:#038048;stroke-width:1.0;"/><text fill="#000000" font-family="sans-serif" font-size="14" lengthAdjust="spacing" textLength="199" x="547" y="670.4609">GetFQDNForUsedClassName(</text><text fill="#6060BB" font-family="sans-serif" font-size="14" lengthAdjust="spacing" textLength="318" x="746" y="670.4609">GetFQDNForUsedClassName:SubDataStructure</text><text fill="#000000" font-family="sans-serif" font-size="14" lengthAdjust="spacing" textLength="5" x="1064" y="670.4609">)</text><rect fill="none" height="6" style="stroke:#C82930;stroke-width:1.0;" width="6" x="535" y="680.1582"/><text fill="#909090" font-family="sans-serif" font-size="14" lengthAdjust="spacing" textLength="477" x="547" y="686.9492">GetFQDNForUsedClassName.classnameList: list_BRQTO_String_BRQTC</text><rect fill="none" height="6" style="stroke:#C82930;stroke-width:1.0;" width="6" x="535" y="696.6465"/><text fill="#909090" font-family="sans-serif" font-size="14" lengthAdjust="spacing" textLength="486" x="547" y="703.4375">GetFQDNForUsedClassName.fittingClassNames: String_BRQTO__BRQTC</text><rect fill="none" height="6" style="stroke:#C82930;stroke-width:1.0;" width="6" x="535" y="713.1348"/><text fill="#909090" font-family="sans-serif" font-size="14" lengthAdjust="spacing" textLength="518" x="547" y="719.9258">GetFQDNForUsedClassName.bestFittingClassNames: String_BRQTO__BRQTC</text><line style="stroke:#181818;stroke-width:1.0;" x1="528" x2="1259" y1="726.8789" y2="726.8789"/><ellipse cx="538" cy="740.623" fill="#84BE84" rx="3" ry="3" style="stroke:#038048;stroke-width:1.0;"/><text fill="#000000" font-family="sans-serif" font-size="14" lengthAdjust="spacing" textLength="105" x="547" y="744.4141">get_skip_types(</text><text fill="#000000" font-family="sans-serif" font-size="14" lengthAdjust="spacing" textLength="5" x="652" y="744.4141">)</text><ellipse cx="538" cy="757.1113" fill="#84BE84" rx="3" ry="3" style="stroke:#038048;stroke-width:1.0;"/><text fill="#000000" font-family="sans-serif" font-size="14" lengthAdjust="spacing" textLength="188" x="547" y="760.9023">append_sub_datastructure(</text><text fill="#6060BB" font-family="sans-serif" font-size="14" lengthAdjust="spacing" textLength="307" x="735" y="760.9023">append_sub_datastructure:SubDataStructure</text><text fill="#000000" font-family="sans-serif" font-size="14" lengthAdjust="spacing" textLength="5" x="1042" y="760.9023">)</text><line style="stroke:#181818;stroke-width:1.0;" x1="528" x2="1259" y1="767.8555" y2="767.8555"/><ellipse cx="538" cy="781.5996" fill="#84BE84" rx="3" ry="3" style="stroke:#038048;stroke-width:1.0;"/><text fill="#000000" font-family="sans-serif" font-size="14" lengthAdjust="spacing" textLength="97" x="547" y="785.3906">append_class(</text><text fill="#6060BB" font-family="sans-serif" font-size="14" lengthAdjust="spacing" textLength="554" x="644" y="785.3906">append_class:list_BRQTO_String_BRQTC, append_class:list_BRQTO_String_BRQTC</text><text fill="#000000" font-family="sans-serif" font-size="14" lengthAdjust="spacing" textLength="5" x="1198" y="785.3906">)</text><rect fill="none" height="6" style="stroke:#C82930;stroke-width:1.0;" width="6" x="535" y="795.0879"/><text fill="#909090" font-family="sans-serif" font-size="14" lengthAdjust="spacing" textLength="348" x="547" y="801.8789">append_class.sub_datastructure: SubDataStructure</text><line style="stroke:#181818;stroke-width:1.0;" x1="528" x2="1259" y1="808.832" y2="808.832"/><ellipse cx="538" cy="822.5762" fill="#84BE84" rx="3" ry="3" style="stroke:#038048;stroke-width:1.0;"/><text fill="#000000" font-family="sans-serif" font-size="14" lengthAdjust="spacing" textLength="132" x="547" y="826.3672">get_classname_list(</text><text fill="#000000" font-family="sans-serif" font-size="14" lengthAdjust="spacing" textLength="5" x="679" y="826.3672">)</text><ellipse cx="538" cy="839.0645" fill="#84BE84" rx="3" ry="3" style="stroke:#038048;stroke-width:1.0;"/><text fill="#000000" font-family="sans-serif" font-size="14" lengthAdjust="spacing" textLength="258" x="547" y="842.8555">get_datastructures_from_class_name(</text><text fill="#000000" font-family="sans-serif" font-size="14" lengthAdjust="spacing" textLength="5" x="805" y="842.8555">)</text></g></a><!--class AnalyzeAST--><a href="preadapter.service.AnalyzeAST-diagram-detailed.svg" target="_top" title="preadapter.service.AnalyzeAST-diagram-detailed.svg" xlink:actuate="onRequest" xlink:href="preadapter.service.AnalyzeAST-diagram-detailed.svg" xlink:show="new" xlink:title="preadapter.service.AnalyzeAST-diagram-detailed.svg" xlink:type="simple"><g id="elem_AnalyzeAST"><rect codeLine="55" fill="#FFFF00" height="130.4414" id="AnalyzeAST" rx="2.5" ry="2.5" style="stroke:#181818;stroke-width:0.5;" width="643" x="617" y="128.5547"/><ellipse cx="893.75" cy="144.5547" fill="#ADD1B2" rx="11" ry="11" style="stroke:#181818;stroke-width:1.0;"/><path d="M896.2231,150.6978 Q895.6421,150.9966 895.0029,151.146 Q894.3638,151.2954 893.6582,151.2954 Q891.1514,151.2954 889.8315,149.6436 Q888.5117,147.9917 888.5117,144.8706 Q888.5117,141.7412 889.8315,140.0894 Q891.1514,138.4375 893.6582,138.4375 Q894.3638,138.4375 895.0112,138.5869 Q895.6587,138.7363 896.2231,139.0352 L896.2231,141.7578 Q895.5923,141.1768 894.9988,140.907 Q894.4053,140.6372 893.7744,140.6372 Q892.4297,140.6372 891.7449,141.7039 Q891.0601,142.7705 891.0601,144.8706 Q891.0601,146.9624 891.7449,148.0291 Q892.4297,149.0957 893.7744,149.0957 Q894.4053,149.0957 894.9988,148.8259 Q895.5923,148.5562 896.2231,147.9751 Z " fill="#000000"/><text fill="#000000" font-family="sans-serif" font-size="14" lengthAdjust="spacing" textLength="81" x="914.25" y="149.8457">AnalyzeAST</text><line style="stroke:#181818;stroke-width:0.5;" x1="618" x2="1259" y1="160.5547" y2="160.5547"/><ellipse cx="628" cy="174.2988" fill="#84BE84" rx="3" ry="3" style="stroke:#038048;stroke-width:1.0;"/><text fill="#000000" font-family="sans-serif" font-size="14" lengthAdjust="spacing" textLength="211" x="637" y="178.0898">SearchRecurseCSharpToYAML(</text><text fill="#6060BB" font-family="sans-serif" font-size="14" lengthAdjust="spacing" textLength="338" x="848" y="178.0898">SearchRecurseCSharpToYAML:preadapter.Logger</text><text fill="#000000" font-family="sans-serif" font-size="14" lengthAdjust="spacing" textLength="5" x="1186" y="178.0898">)</text><rect fill="none" height="6" style="stroke:#C82930;stroke-width:1.0;" width="6" x="625" y="187.7871"/><text fill="#909090" font-family="sans-serif" font-size="14" lengthAdjust="spacing" textLength="539" x="637" y="194.5781">SearchRecurseCSharpToYAML.datastructure: preadapter.domain.Datastructure</text><rect fill="none" height="6" style="stroke:#C82930;stroke-width:1.0;" width="6" x="625" y="204.2754"/><text fill="#909090" font-family="sans-serif" font-size="14" lengthAdjust="spacing" textLength="617" x="637" y="211.0664">SearchRecurseCSharpToYAML.recurseFileProcess: RecursiveFileProcessor_BRQTO__BRQTC</text><rect fill="none" height="6" style="stroke:#C82930;stroke-width:1.0;" width="6" x="625" y="220.7637"/><text fill="#909090" font-family="sans-serif" font-size="14" lengthAdjust="spacing" textLength="476" x="637" y="227.5547">SearchRecurseCSharpToYAML.listFilePaths: list_BRQTO_String_BRQTC</text><rect fill="none" height="6" style="stroke:#C82930;stroke-width:1.0;" width="6" x="625" y="237.252"/><text fill="#909090" font-family="sans-serif" font-size="14" lengthAdjust="spacing" textLength="346" x="637" y="244.043">SearchRecurseCSharpToYAML.cu: CompilationUnit</text><line style="stroke:#181818;stroke-width:1.0;" x1="618" x2="1259" y1="250.9961" y2="250.9961"/></g></a><g id="elem_FloatingNote"><path d="M6,69.5547 L6,317.2129 L393,317.2129 L393,79.5547 L383,69.5547 L6,69.5547 " fill="#FEFFDD" style="stroke:#181818;stroke-width:0.5;"/><path d="M383,69.5547 L383,79.5547 L393,79.5547 L383,69.5547 " fill="#FEFFDD" style="stroke:#181818;stroke-width:1.0;"/><text fill="#000000" font-family="sans-serif" font-size="13" lengthAdjust="spacing" textLength="120" x="12" y="87.123">Your are analyzing:</text><text fill="#000000" font-family="sans-serif" font-size="13" lengthAdjust="spacing" textLength="192" x="12" y="102.4336">preadapter.service.AnalyzeAST</text><text fill="#000000" font-family="sans-serif" font-size="13" font-weight="bold" lengthAdjust="spacing" textLength="55" x="208" y="102.4336">detailed</text><text fill="#000000" font-family="sans-serif" font-size="13" lengthAdjust="spacing" textLength="4" x="263" y="102.4336">&#160;</text><text fill="#000000" font-family="sans-serif" font-size="13" lengthAdjust="spacing" textLength="4" x="12" y="117.7441">&#160;</text><text fill="#000000" font-family="sans-serif" font-size="13" lengthAdjust="spacing" textLength="229" x="12" y="148.3652">You can click either the namespaces</text><text fill="#000000" font-family="sans-serif" font-size="13" lengthAdjust="spacing" textLength="266" x="12" y="163.6758">or class names for filtering them and their</text><text fill="#000000" font-family="sans-serif" font-size="13" lengthAdjust="spacing" textLength="130" x="12" y="178.9863">direct dependencies.</text><text fill="#000000" font-family="sans-serif" font-size="13" lengthAdjust="spacing" textLength="4" x="12" y="194.2969">&#160;</text><line style="stroke:#181818;stroke-width:1.0;" x1="7" x2="183.5" y1="128.1416" y2="128.1416"/><line style="stroke:#181818;stroke-width:1.0;" x1="7" x2="183.5" y1="130.1416" y2="130.1416"/><text fill="#000000" font-family="sans-serif" font-size="13" lengthAdjust="spacing" textLength="32" x="183.5" y="132.5547">Filter</text><line style="stroke:#181818;stroke-width:1.0;" x1="215.5" x2="392" y1="128.1416" y2="128.1416"/><line style="stroke:#181818;stroke-width:1.0;" x1="215.5" x2="392" y1="130.1416" y2="130.1416"/><ellipse cx="17.5" cy="224.1602" fill="#000000" rx="2.5" ry="2.5" style="stroke:#000000;stroke-width:0.0;"/><text fill="#000000" font-family="sans-serif" font-size="13" lengthAdjust="spacing" textLength="192" x="24" y="228.918">preadapter.service.AnalyzeAST</text><text fill="#000000" font-family="sans-serif" font-size="13" font-weight="bold" lengthAdjust="spacing" textLength="67" x="220" y="228.918">simplified</text><text fill="#000000" font-family="sans-serif" font-size="13" lengthAdjust="spacing" textLength="4" x="291" y="228.918">:</text><text fill="#000000" font-family="sans-serif" font-size="13" lengthAdjust="spacing" textLength="12" x="12" y="244.2285">&#160;&#160;&#160;</text><a href="preadapter.service.AnalyzeAST-diagram-simplified.svg" target="_top" title="preadapter.service.AnalyzeAST-diagram-simplified.svg" xlink:actuate="onRequest" xlink:href="preadapter.service.AnalyzeAST-diagram-simplified.svg" xlink:show="new" xlink:title="preadapter.service.AnalyzeAST-diagram-simplified.svg" xlink:type="simple"><text fill="#0000FF" font-family="sans-serif" font-size="13" lengthAdjust="spacing" text-decoration="underline" textLength="348" x="24" y="244.2285">preadapter.service.AnalyzeAST-diagram-simplified.svg</text></a><ellipse cx="17.5" cy="254.7813" fill="#000000" rx="2.5" ry="2.5" style="stroke:#000000;stroke-width:0.0;"/><text fill="#000000" font-family="sans-serif" font-size="13" lengthAdjust="spacing" textLength="78" x="24" y="259.5391">Full diagram</text><text fill="#000000" font-family="sans-serif" font-size="13" font-weight="bold" lengthAdjust="spacing" textLength="55" x="106" y="259.5391">detailed</text><text fill="#000000" font-family="sans-serif" font-size="13" lengthAdjust="spacing" textLength="23" x="165" y="259.5391">and</text><text fill="#000000" font-family="sans-serif" font-size="13" font-weight="bold" lengthAdjust="spacing" textLength="166" x="192" y="259.5391">grouped per namespace</text><text fill="#000000" font-family="sans-serif" font-size="13" lengthAdjust="spacing" textLength="4" x="358" y="259.5391">:</text><text fill="#000000" font-family="sans-serif" font-size="13" lengthAdjust="spacing" textLength="12" x="12" y="274.8496">&#160;&#160;&#160;</text><a href="full-diagram-detailed-grouped-per-namespace.svg" target="_top" title="full-diagram-detailed-grouped-per-namespace.svg" xlink:actuate="onRequest" xlink:href="full-diagram-detailed-grouped-per-namespace.svg" xlink:show="new" xlink:title="full-diagram-detailed-grouped-per-namespace.svg" xlink:type="simple"><text fill="#0000FF" font-family="sans-serif" font-size="13" lengthAdjust="spacing" text-decoration="underline" textLength="330" x="24" y="274.8496">full-diagram-detailed-grouped-per-namespace.svg</text></a><ellipse cx="17.5" cy="285.4023" fill="#000000" rx="2.5" ry="2.5" style="stroke:#000000;stroke-width:0.0;"/><text fill="#000000" font-family="sans-serif" font-size="13" lengthAdjust="spacing" textLength="41" x="24" y="290.1602">Home:</text><text fill="#000000" font-family="sans-serif" font-size="13" lengthAdjust="spacing" textLength="12" x="12" y="305.4707">&#160;&#160;&#160;</text><a href="index.html" target="_top" title="index.html" xlink:actuate="onRequest" xlink:href="index.html" xlink:show="new" xlink:title="index.html" xlink:type="simple"><text fill="#0000FF" font-family="sans-serif" font-size="13" lengthAdjust="spacing" text-decoration="underline" textLength="68" x="24" y="305.4707">index.html</text></a><line style="stroke:#181818;stroke-width:1.0;" x1="7" x2="162.5" y1="208.6943" y2="208.6943"/><line style="stroke:#181818;stroke-width:1.0;" x1="7" x2="162.5" y1="210.6943" y2="210.6943"/><text fill="#000000" font-family="sans-serif" font-size="13" lengthAdjust="spacing" textLength="74" x="162.5" y="213.1074">Select other</text><line style="stroke:#181818;stroke-width:1.0;" x1="236.5" x2="392" y1="208.6943" y2="208.6943"/><line style="stroke:#181818;stroke-width:1.0;" x1="236.5" x2="392" y1="210.6943" y2="210.6943"/></g><!--class RecursiveFileProcessor_BRQTO__BRQTC--><a href="RecursiveFileProcessor_BRQTO__BRQTC-diagram-detailed.svg" target="_top" title="RecursiveFileProcessor_BRQTO__BRQTC-diagram-detailed.svg" xlink:actuate="onRequest" xlink:href="RecursiveFileProcessor_BRQTO__BRQTC-diagram-detailed.svg" xlink:show="new" xlink:title="RecursiveFileProcessor_BRQTO__BRQTC-diagram-detailed.svg" xlink:type="simple"><g id="elem_RecursiveFileProcessor_BRQTO__BRQTC"><rect codeLine="3" fill="#F5FFFA" height="48" id="RecursiveFileProcessor_BRQTO__BRQTC" rx="2.5" ry="2.5" style="stroke:#181818;stroke-width:0.5;" width="304" x="1316.5" y="608.5547"/><ellipse cx="1331.5" cy="624.5547" fill="#ADD1B2" rx="11" ry="11" style="stroke:#181818;stroke-width:1.0;"/><path d="M1333.9731,630.6978 Q1333.3921,630.9966 1332.7529,631.146 Q1332.1138,631.2954 1331.4082,631.2954 Q1328.9014,631.2954 1327.5815,629.6436 Q1326.2617,627.9917 1326.2617,624.8706 Q1326.2617,621.7412 1327.5815,620.0894 Q1328.9014,618.4375 1331.4082,618.4375 Q1332.1138,618.4375 1332.7612,618.5869 Q1333.4087,618.7363 1333.9731,619.0352 L1333.9731,621.7578 Q1333.3423,621.1768 1332.7488,620.907 Q1332.1553,620.6372 1331.5244,620.6372 Q1330.1797,620.6372 1329.4949,621.7039 Q1328.8101,622.7705 1328.8101,624.8706 Q1328.8101,626.9624 1329.4949,628.0291 Q1330.1797,629.0957 1331.5244,629.0957 Q1332.1553,629.0957 1332.7488,628.8259 Q1333.3423,628.5562 1333.9731,627.9751 Z " fill="#000000"/><text fill="#000000" font-family="sans-serif" font-size="14" lengthAdjust="spacing" textLength="272" x="1345.5" y="629.8457">RecursiveFileProcessor_BRQTO__BRQTC</text><line style="stroke:#181818;stroke-width:0.5;" x1="1317.5" x2="1619.5" y1="640.5547" y2="640.5547"/><line style="stroke:#181818;stroke-width:0.5;" x1="1317.5" x2="1619.5" y1="648.5547" y2="648.5547"/></g></a><!--class list_BRQTO_String_BRQTC--><a href="list_BRQTO_String_BRQTC-diagram-detailed.svg" target="_top" title="list_BRQTO_String_BRQTC-diagram-detailed.svg" xlink:actuate="onRequest" xlink:href="list_BRQTO_String_BRQTC-diagram-detailed.svg" xlink:show="new" xlink:title="list_BRQTO_String_BRQTC-diagram-detailed.svg" xlink:type="simple"><g id="elem_list_BRQTO_String_BRQTC"><rect codeLine="5" fill="#F5FFFA" height="48" id="list_BRQTO_String_BRQTC" rx="2.5" ry="2.5" style="stroke:#181818;stroke-width:0.5;" width="209" x="1317" y="1039.5547"/><ellipse cx="1332" cy="1055.5547" fill="#ADD1B2" rx="11" ry="11" style="stroke:#181818;stroke-width:1.0;"/><path d="M1334.4731,1061.6978 Q1333.8921,1061.9966 1333.2529,1062.146 Q1332.6138,1062.2954 1331.9082,1062.2954 Q1329.4014,1062.2954 1328.0815,1060.6436 Q1326.7617,1058.9917 1326.7617,1055.8706 Q1326.7617,1052.7412 1328.0815,1051.0894 Q1329.4014,1049.4375 1331.9082,1049.4375 Q1332.6138,1049.4375 1333.2612,1049.5869 Q1333.9087,1049.7363 1334.4731,1050.0352 L1334.4731,1052.7578 Q1333.8423,1052.1768 1333.2488,1051.907 Q1332.6553,1051.6372 1332.0244,1051.6372 Q1330.6797,1051.6372 1329.9949,1052.7039 Q1329.3101,1053.7705 1329.3101,1055.8706 Q1329.3101,1057.9624 1329.9949,1059.0291 Q1330.6797,1060.0957 1332.0244,1060.0957 Q1332.6553,1060.0957 1333.2488,1059.8259 Q1333.8423,1059.5562 1334.4731,1058.9751 Z " fill="#000000"/><text fill="#000000" font-family="sans-serif" font-size="14" lengthAdjust="spacing" textLength="177" x="1346" y="1060.8457">list_BRQTO_String_BRQTC</text><line style="stroke:#181818;stroke-width:0.5;" x1="1318" x2="1525" y1="1071.5547" y2="1071.5547"/><line style="stroke:#181818;stroke-width:0.5;" x1="1318" x2="1525" y1="1079.5547" y2="1079.5547"/></g></a><!--class CompilationUnit--><a href="CompilationUnit-diagram-detailed.svg" target="_top" title="CompilationUnit-diagram-detailed.svg" xlink:actuate="onRequest" xlink:href="CompilationUnit-diagram-detailed.svg" xlink:show="new" xlink:title="CompilationUnit-diagram-detailed.svg" xlink:type="simple"><g id="elem_CompilationUnit"><rect codeLine="7" fill="#F5FFFA" height="48" id="CompilationUnit" rx="2.5" ry="2.5" style="stroke:#181818;stroke-width:0.5;" width="144" x="1756.5" y="608.5547"/><ellipse cx="1771.5" cy="624.5547" fill="#ADD1B2" rx="11" ry="11" style="stroke:#181818;stroke-width:1.0;"/><path d="M1773.9731,630.6978 Q1773.3921,630.9966 1772.7529,631.146 Q1772.1138,631.2954 1771.4082,631.2954 Q1768.9014,631.2954 1767.5815,629.6436 Q1766.2617,627.9917 1766.2617,624.8706 Q1766.2617,621.7412 1767.5815,620.0894 Q1768.9014,618.4375 1771.4082,618.4375 Q1772.1138,618.4375 1772.7612,618.5869 Q1773.4087,618.7363 1773.9731,619.0352 L1773.9731,621.7578 Q1773.3423,621.1768 1772.7488,620.907 Q1772.1553,620.6372 1771.5244,620.6372 Q1770.1797,620.6372 1769.4949,621.7039 Q1768.8101,622.7705 1768.8101,624.8706 Q1768.8101,626.9624 1769.4949,628.0291 Q1770.1797,629.0957 1771.5244,629.0957 Q1772.1553,629.0957 1772.7488,628.8259 Q1773.3423,628.5562 1773.9731,627.9751 Z " fill="#000000"/><text fill="#000000" font-family="sans-serif" font-size="14" lengthAdjust="spacing" textLength="112" x="1785.5" y="629.8457">CompilationUnit</text><line style="stroke:#181818;stroke-width:0.5;" x1="1757.5" x2="1899.5" y1="640.5547" y2="640.5547"/><line style="stroke:#181818;stroke-width:0.5;" x1="1757.5" x2="1899.5" y1="648.5547" y2="648.5547"/></g></a><!--link Datastructure to Logger--><g id="link_Datastructure_Logger"><path codeLine="72" d="M794.13,849.9447 C782.75,874.7247 771.39,899.4647 760.65,922.8547 " fill="none" id="Datastructure-to-Logger" style="stroke:#6060BB;stroke-width:1.0;stroke-dasharray:7.0,7.0;"/><polygon fill="#6060BB" points="758.22,927.1447,765.6104,920.6345,760.3062,922.6007,758.34,917.2966,758.22,927.1447" style="stroke:#6060BB;stroke-width:1.0;"/><text fill="#000000" font-family="sans-serif" font-size="13" lengthAdjust="spacing" textLength="29" x="777.5" y="895.123">uses</text></g><!--link Datastructure to list_BRQTO_String_BRQTC--><g id="link_Datastructure_list_BRQTO_String_BRQTC"><path codeLine="73" d="M1158.8,849.8847 C1183.53,867.1147 1208.65,883.6047 1233.5,898.5547 C1261.46,915.3747 1274.11,909.3647 1300.5,928.5547 C1342.01,958.7347 1379.92,1005.1247 1401.86,1034.6447 " fill="none" id="Datastructure-to-list_BRQTO_String_BRQTC" style="stroke:#6060BB;stroke-width:1.0;stroke-dasharray:7.0,7.0;"/><polygon fill="#6060BB" points="1405.24,1038.2347,1403.1389,1028.6126,1402.2813,1034.204,1396.6899,1033.3464,1405.24,1038.2347" style="stroke:#6060BB;stroke-width:1.0;"/><text fill="#000000" font-family="sans-serif" font-size="13" lengthAdjust="spacing" textLength="29" x="1234.5" y="895.123">uses</text></g><!--link Datastructure to list_BRQTO_String_BRQTC--><g id="link_Datastructure_list_BRQTO_String_BRQTC"><path codeLine="74" d="M1231.31,850.0447 C1244.09,860.4047 1256.54,870.9247 1268.5,881.5547 C1322.73,929.7547 1374.84,997.4347 1402.02,1034.8847 " fill="none" id="Datastructure-to-list_BRQTO_String_BRQTC-1" style="stroke:#909090;stroke-width:1.0;"/><polygon fill="#909090" points="1405.21,1038.2947,1403.1696,1028.6595,1402.2768,1034.2454,1396.6909,1033.3526,1405.21,1038.2947" style="stroke:#909090;stroke-width:1.0;"/><text fill="#000000" font-family="sans-serif" font-size="13" lengthAdjust="spacing" textLength="29" x="1283.5" y="895.123">uses</text></g><!--link AnalyzeAST to Logger--><g id="link_AnalyzeAST_Logger"><path codeLine="77" d="M623.05,259.0047 C566.5,284.9847 514.51,321.4247 479.5,372.5547 C353.69,556.2747 387.26,670.8947 479.5,873.5547 C494.98,907.5747 519.95,937.8547 547.54,963.6747 " fill="none" id="AnalyzeAST-to-Logger" style="stroke:#6060BB;stroke-width:1.0;stroke-dasharray:7.0,7.0;"/><polygon fill="#6060BB" points="550.63,966.4547,546.7445,957.4047,546.9615,963.0574,541.3088,963.2743,550.63,966.4547" style="stroke:#6060BB;stroke-width:1.0;"/><text fill="#000000" font-family="sans-serif" font-size="13" lengthAdjust="spacing" textLength="29" x="480.5" y="637.623">uses</text></g><!--link AnalyzeAST to Datastructure--><g id="link_AnalyzeAST_Datastructure"><path codeLine="78" d="M931.86,259.0347 C927.69,299.5447 922.04,354.4347 916.35,409.6147 " fill="none" id="AnalyzeAST-to-Datastructure" style="stroke:#909090;stroke-width:1.0;"/><polygon fill="#909090" points="915.77,414.3047,920.6749,405.7641,916.2845,409.3312,912.7173,404.9409,915.77,414.3047" style="stroke:#909090;stroke-width:1.0;"/><text fill="#000000" font-family="sans-serif" font-size="13" lengthAdjust="spacing" textLength="29" x="923.5" y="361.123">uses</text></g><!--link AnalyzeAST to RecursiveFileProcessor_BRQTO__BRQTC--><g id="link_AnalyzeAST_RecursiveFileProcessor_BRQTO__BRQTC"><path codeLine="79" d="M1095.25,258.9347 C1155.69,288.2347 1223.01,326.6847 1276.5,372.5547 C1357.43,441.9447 1424.21,551.4447 1453.1,602.9647 " fill="none" id="AnalyzeAST-to-RecursiveFileProcessor_BRQTO__BRQTC" style="stroke:#909090;stroke-width:1.0;"/><polygon fill="#909090" points="1455.94,607.0647,1455.0658,597.2547,1453.5118,602.6939,1448.0726,601.1398,1455.94,607.0647" style="stroke:#909090;stroke-width:1.0;"/><text fill="#000000" font-family="sans-serif" font-size="13" lengthAdjust="spacing" textLength="29" x="1261.5" y="361.123">uses</text></g><!--link AnalyzeAST to list_BRQTO_String_BRQTC--><g id="link_AnalyzeAST_list_BRQTO_String_BRQTC"><path codeLine="80" d="M1260.14,237.5647 C1420.35,266.2747 1590.1,310.3147 1638.5,372.5547 C1706.84,460.4447 1684.62,772.2247 1638.5,873.5547 C1604.42,948.4447 1524.38,1005.1947 1471.62,1036.1547 " fill="none" id="AnalyzeAST-to-list_BRQTO_String_BRQTC" style="stroke:#909090;stroke-width:1.0;"/><polygon fill="#909090" points="1467.6,1039.0647,1477.3941,1038.0273,1471.9297,1036.564,1473.393,1031.0997,1467.6,1039.0647" style="stroke:#909090;stroke-width:1.0;"/><text fill="#000000" font-family="sans-serif" font-size="13" lengthAdjust="spacing" textLength="29" x="1682.5" y="637.623">uses</text></g><!--link AnalyzeAST to CompilationUnit--><g id="link_AnalyzeAST_CompilationUnit"><path codeLine="81" d="M1260.4,229.4647 C1440.94,254.4547 1644.09,293.3347 1716.5,347.5547 C1799.76,409.9047 1821.19,543.5747 1826.65,602.5647 " fill="none" id="AnalyzeAST-to-CompilationUnit" style="stroke:#909090;stroke-width:1.0;"/><polygon fill="#909090" points="1827.16,607.3647,1830.348,598.0461,1826.7176,602.3843,1822.3794,598.7539,1827.16,607.3647" style="stroke:#909090;stroke-width:1.0;"/><text fill="#000000" font-family="sans-serif" font-size="13" lengthAdjust="spacing" textLength="29" x="1735.5" y="361.123">uses</text></g><!--SRC=[jLXjRzis4FxkNq4a7xevaHhiGu49iO74cRS1IRR6xeR2DWn6Ejj4AL8WARVfqF- -eoJBbYNPifewW5-evvuxtXkFCSnm8DUQVGNlbwj-f806D3AWN0rgpNnmRmJbBr_XPZGctMu0XZ8EGRTBhjzQeNv7I0FaxAEC5Q4A24tWJ2ozgJY1RIgcejSRCexWNcyga8_uL12VC_yJ0MPMe0Y-4K53q17rGQECL0YWMgUhP86_5ma5whVe4Cq9x1UcfY9W2dn30eX0121y1jfDrOw0soVIAh7Ak-IOvPg54MSBbjYEEoM4J2O7XPo0qQMYeRCLTVLwEPjPTSEOSv81YdwnzdUxIoNZ208IeHDo1tIx6yKB5C_vDy9E9kIWa9CBRNN-8KFO431qo1TtPK8-cvqHgicGIshGYOyOt4xguYVmOwNP6Z18yBUI604jrVpswVtuhtdoCK2c1gYIfQbDvFo12JD07uRalywtJ2jdscJI8sF3cckgUN8I-q264UEuKoa-26QGTM_b9BQT-D_BvH9ZLSY9TAsE4Na8kI0SGRYNyKi4tZvXjjxfzH3gMEXFrmif3F4bbwftzkxgtTNjxLd_-grTxV-Se0g8Nw_itraVHLq5EkR68plEsqGe8-WupiQctvIIwgYsKw7_KYLGzmy0_oaMyhMHT_0SBryTEbPObQy7_ORWKZO6CgHCk7VKK6rKx9iO6tKXDwiG1pFLcfJecHiv3tR5F6nalfcaQNKvYfyjwMZpT9R9vWsf9A-B1BRC9oMMIfhj3ojKHPDypuNr9nRD3LOKgjnzdZtcIRrwvR9E2z12da1BleQ1TSIZrNuqaBKbMQ9orrGn-imtrcKL-a-sMgpKLiGUsP2reWd1h6JWaOVainM5teihTgEzbK8hiim3gUmndf2CV1dL54G9vkqpNvQfl9ep9OzVPiK5-HtCyFtTur2g3ng2V4VLjjI0lPgz7aoJ6YutgKLR0FT9wX_UI1i52sRiGB0Dti6JeuM2Pz1cU9AIF1fBCFDjCJUemGj28pi5pZ41YzsdMhWENH_2tBPCD8dFGV84KPU1bwG9gaa2xVAuvGqTAy3KsNcs9PssaSEjMB7FpnTAXYbLqhgFqbIURHNZUTD9V7-cUm7EvUVyU1i1LVug7MXXC5fH5Otbnvk7-sf3Q-5UwG1f4gTQEdSlO4TEyGOLMQzAfMixixpNv1xmNJfjHYNKrApqztIoUXL-xEsF_eKqnqHxWxUkHY_omx1lID87YOBKJ4tWYy4HqE15q9RETlZn47iYV9irhGMpTEiS6pJToNbQ8pEtNt578Xw9DLxUJ-EfknSsPdCcvscYp9m6RArzbBMVpk6ErS955Io5BHtRVnlE9ly2QCDxIZ2FSUrVwJSS_mC0]--></g></svg>