<?xml version="1.0" encoding="us-ascii" standalone="no"?><svg xmlns="http://www.w3.org/2000/svg" xmlns:xlink="http://www.w3.org/1999/xlink" contentStyleType="text/css" height="430px" preserveAspectRatio="none" style="width:672px;height:430px;background:#FFFFFF;" version="1.1" viewBox="0 0 672 430" width="672px" zoomAndPan="magnify"><defs/><g><text fill="#000000" font-family="sans-serif" font-size="20" font-weight="bold" lengthAdjust="spacing" textLength="112" x="67.25" y="29.3359">UnionType</text><text fill="#000000" font-family="sans-serif" font-size="20" font-weight="bold" lengthAdjust="spacing" textLength="104" x="186.25" y="29.3359">simplified</text><text fill="#000000" font-family="sans-serif" font-size="20" font-weight="bold" lengthAdjust="spacing" textLength="38" x="297.25" y="29.3359">and</text><text fill="#000000" font-family="sans-serif" font-size="20" font-weight="bold" lengthAdjust="spacing" textLength="249" x="342.25" y="29.3359">grouped per namespace</text><!--cluster preadapter--><g id="cluster_preadapter"><a href="preadapter-diagram-simplified-grouped-per-namespace.svg" target="_top" title="preadapter-diagram-simplified-grouped-per-namespace.svg" xlink:actuate="onRequest" xlink:href="preadapter-diagram-simplified-grouped-per-namespace.svg" xlink:show="new" xlink:title="preadapter-diagram-simplified-grouped-per-namespace.svg" xlink:type="simple"><path d="M440,72.5547 L518,72.5547 A3.75,3.75 0 0 1 520.5,75.0547 L527.5,95.043 L663,95.043 A2.5,2.5 0 0 1 665.5,97.543 L665.5,236.0547 A2.5,2.5 0 0 1 663,238.5547 L440,238.5547 A2.5,2.5 0 0 1 437.5,236.0547 L437.5,75.0547 A2.5,2.5 0 0 1 440,72.5547 " fill="none" style="stroke:#000000;stroke-width:1.5;"/><line style="stroke:#000000;stroke-width:1.5;" x1="437.5" x2="527.5" y1="95.043" y2="95.043"/><text fill="#000000" font-family="sans-serif" font-size="14" font-weight="bold" lengthAdjust="spacing" textLength="77" x="441.5" y="88.0898">preadapter</text></a></g><!--cluster domain--><g id="cluster_domain"><a href="preadapter.domain-diagram-simplified-grouped-per-namespace.svg" target="_top" title="preadapter.domain-diagram-simplified-grouped-per-namespace.svg" xlink:actuate="onRequest" xlink:href="preadapter.domain-diagram-simplified-grouped-per-namespace.svg" xlink:show="new" xlink:title="preadapter.domain-diagram-simplified-grouped-per-namespace.svg" xlink:type="simple"><path d="M464,115.5547 L519,115.5547 A3.75,3.75 0 0 1 521.5,118.0547 L528.5,138.043 L639,138.043 A2.5,2.5 0 0 1 641.5,140.543 L641.5,212.0547 A2.5,2.5 0 0 1 639,214.5547 L464,214.5547 A2.5,2.5 0 0 1 461.5,212.0547 L461.5,118.0547 A2.5,2.5 0 0 1 464,115.5547 " fill="none" style="stroke:#000000;stroke-width:1.5;"/><line style="stroke:#000000;stroke-width:1.5;" x1="461.5" x2="528.5" y1="138.043" y2="138.043"/><text fill="#000000" font-family="sans-serif" font-size="14" font-weight="bold" lengthAdjust="spacing" textLength="54" x="465.5" y="131.0898">domain</text></a></g><!--class ASTVisitorDebug--><a href="preadapter.domain.ASTVisitorDebug-diagram-simplified-grouped-per-namespace.svg" target="_top" title="preadapter.domain.ASTVisitorDebug-diagram-simplified-grouped-per-namespace.svg" xlink:actuate="onRequest" xlink:href="preadapter.domain.ASTVisitorDebug-diagram-simplified-grouped-per-namespace.svg" xlink:show="new" xlink:title="preadapter.domain.ASTVisitorDebug-diagram-simplified-grouped-per-namespace.svg" xlink:type="simple"><g id="elem_ASTVisitorDebug"><rect codeLine="8" fill="#F1F1F1" height="48" id="ASTVisitorDebug" rx="2.5" ry="2.5" style="stroke:#181818;stroke-width:0.5;" width="148" x="477.5" y="150.5547"/><ellipse cx="492.5" cy="166.5547" fill="#ADD1B2" rx="11" ry="11" style="stroke:#181818;stroke-width:1.0;"/><path d="M494.9731,172.6978 Q494.3921,172.9966 493.7529,173.146 Q493.1138,173.2954 492.4082,173.2954 Q489.9014,173.2954 488.5815,171.6436 Q487.2617,169.9917 487.2617,166.8706 Q487.2617,163.7412 488.5815,162.0894 Q489.9014,160.4375 492.4082,160.4375 Q493.1138,160.4375 493.7612,160.5869 Q494.4087,160.7363 494.9731,161.0352 L494.9731,163.7578 Q494.3423,163.1768 493.7488,162.907 Q493.1553,162.6372 492.5244,162.6372 Q491.1797,162.6372 490.4949,163.7039 Q489.8101,164.7705 489.8101,166.8706 Q489.8101,168.9624 490.4949,170.0291 Q491.1797,171.0957 492.5244,171.0957 Q493.1553,171.0957 493.7488,170.8259 Q494.3423,170.5562 494.9731,169.9751 Z " fill="#000000"/><text fill="#000000" font-family="sans-serif" font-size="14" lengthAdjust="spacing" textLength="116" x="506.5" y="171.8457">ASTVisitorDebug</text><line style="stroke:#181818;stroke-width:0.5;" x1="478.5" x2="624.5" y1="182.5547" y2="182.5547"/><line style="stroke:#181818;stroke-width:0.5;" x1="478.5" x2="624.5" y1="190.5547" y2="190.5547"/></g></a><g id="elem_FloatingNote"><path d="M6,50.5547 L6,298.2129 L421,298.2129 L421,60.5547 L411,50.5547 L6,50.5547 " fill="#FEFFDD" style="stroke:#181818;stroke-width:0.5;"/><path d="M411,50.5547 L411,60.5547 L421,60.5547 L411,50.5547 " fill="#FEFFDD" style="stroke:#181818;stroke-width:1.0;"/><text fill="#000000" font-family="sans-serif" font-size="13" lengthAdjust="spacing" textLength="120" x="12" y="68.123">Your are analyzing:</text><text fill="#000000" font-family="sans-serif" font-size="13" lengthAdjust="spacing" textLength="67" x="12" y="83.4336">UnionType</text><text fill="#000000" font-family="sans-serif" font-size="13" font-weight="bold" lengthAdjust="spacing" textLength="67" x="83" y="83.4336">simplified</text><text fill="#000000" font-family="sans-serif" font-size="13" lengthAdjust="spacing" textLength="23" x="154" y="83.4336">and</text><text fill="#000000" font-family="sans-serif" font-size="13" font-weight="bold" lengthAdjust="spacing" textLength="166" x="181" y="83.4336">grouped per namespace</text><text fill="#000000" font-family="sans-serif" font-size="13" lengthAdjust="spacing" textLength="4" x="12" y="98.7441">&#160;</text><text fill="#000000" font-family="sans-serif" font-size="13" lengthAdjust="spacing" textLength="229" x="12" y="129.3652">You can click either the namespaces</text><text fill="#000000" font-family="sans-serif" font-size="13" lengthAdjust="spacing" textLength="266" x="12" y="144.6758">or class names for filtering them and their</text><text fill="#000000" font-family="sans-serif" font-size="13" lengthAdjust="spacing" textLength="130" x="12" y="159.9863">direct dependencies.</text><text fill="#000000" font-family="sans-serif" font-size="13" lengthAdjust="spacing" textLength="4" x="12" y="175.2969">&#160;</text><line style="stroke:#181818;stroke-width:1.0;" x1="7" x2="197.5" y1="109.1416" y2="109.1416"/><line style="stroke:#181818;stroke-width:1.0;" x1="7" x2="197.5" y1="111.1416" y2="111.1416"/><text fill="#000000" font-family="sans-serif" font-size="13" lengthAdjust="spacing" textLength="32" x="197.5" y="113.5547">Filter</text><line style="stroke:#181818;stroke-width:1.0;" x1="229.5" x2="420" y1="109.1416" y2="109.1416"/><line style="stroke:#181818;stroke-width:1.0;" x1="229.5" x2="420" y1="111.1416" y2="111.1416"/><ellipse cx="17.5" cy="205.1602" fill="#000000" rx="2.5" ry="2.5" style="stroke:#000000;stroke-width:0.0;"/><text fill="#000000" font-family="sans-serif" font-size="13" lengthAdjust="spacing" textLength="67" x="24" y="209.918">UnionType</text><text fill="#000000" font-family="sans-serif" font-size="13" font-weight="bold" lengthAdjust="spacing" textLength="55" x="95" y="209.918">detailed</text><text fill="#000000" font-family="sans-serif" font-size="13" lengthAdjust="spacing" textLength="23" x="154" y="209.918">and</text><text fill="#000000" font-family="sans-serif" font-size="13" font-weight="bold" lengthAdjust="spacing" textLength="166" x="181" y="209.918">grouped per namespace</text><text fill="#000000" font-family="sans-serif" font-size="13" lengthAdjust="spacing" textLength="4" x="347" y="209.918">:</text><text fill="#000000" font-family="sans-serif" font-size="13" lengthAdjust="spacing" textLength="12" x="12" y="225.2285">&#160;&#160;&#160;</text><a href="UnionType-diagram-detailed-grouped-per-namespace.svg" target="_top" title="UnionType-diagram-detailed-grouped-per-namespace.svg" xlink:actuate="onRequest" xlink:href="UnionType-diagram-detailed-grouped-per-namespace.svg" xlink:show="new" xlink:title="UnionType-diagram-detailed-grouped-per-namespace.svg" xlink:type="simple"><text fill="#0000FF" font-family="sans-serif" font-size="13" lengthAdjust="spacing" text-decoration="underline" textLength="376" x="24" y="225.2285">UnionType-diagram-detailed-grouped-per-namespace.svg</text></a><ellipse cx="17.5" cy="235.7813" fill="#000000" rx="2.5" ry="2.5" style="stroke:#000000;stroke-width:0.0;"/><text fill="#000000" font-family="sans-serif" font-size="13" lengthAdjust="spacing" textLength="78" x="24" y="240.5391">Full diagram</text><text fill="#000000" font-family="sans-serif" font-size="13" font-weight="bold" lengthAdjust="spacing" textLength="67" x="106" y="240.5391">simplified</text><text fill="#000000" font-family="sans-serif" font-size="13" lengthAdjust="spacing" textLength="23" x="177" y="240.5391">and</text><text fill="#000000" font-family="sans-serif" font-size="13" font-weight="bold" lengthAdjust="spacing" textLength="166" x="204" y="240.5391">grouped per namespace</text><text fill="#000000" font-family="sans-serif" font-size="13" lengthAdjust="spacing" textLength="4" x="370" y="240.5391">:</text><text fill="#000000" font-family="sans-serif" font-size="13" lengthAdjust="spacing" textLength="12" x="12" y="255.8496">&#160;&#160;&#160;</text><a href="full-diagram-simplified-grouped-per-namespace.svg" target="_top" title="full-diagram-simplified-grouped-per-namespace.svg" xlink:actuate="onRequest" xlink:href="full-diagram-simplified-grouped-per-namespace.svg" xlink:show="new" xlink:title="full-diagram-simplified-grouped-per-namespace.svg" xlink:type="simple"><text fill="#0000FF" font-family="sans-serif" font-size="13" lengthAdjust="spacing" text-decoration="underline" textLength="343" x="24" y="255.8496">full-diagram-simplified-grouped-per-namespace.svg</text></a><ellipse cx="17.5" cy="266.4023" fill="#000000" rx="2.5" ry="2.5" style="stroke:#000000;stroke-width:0.0;"/><text fill="#000000" font-family="sans-serif" font-size="13" lengthAdjust="spacing" textLength="41" x="24" y="271.1602">Home:</text><text fill="#000000" font-family="sans-serif" font-size="13" lengthAdjust="spacing" textLength="12" x="12" y="286.4707">&#160;&#160;&#160;</text><a href="index.html" target="_top" title="index.html" xlink:actuate="onRequest" xlink:href="index.html" xlink:show="new" xlink:title="index.html" xlink:type="simple"><text fill="#0000FF" font-family="sans-serif" font-size="13" lengthAdjust="spacing" text-decoration="underline" textLength="68" x="24" y="286.4707">index.html</text></a><line style="stroke:#181818;stroke-width:1.0;" x1="7" x2="176.5" y1="189.6943" y2="189.6943"/><line style="stroke:#181818;stroke-width:1.0;" x1="7" x2="176.5" y1="191.6943" y2="191.6943"/><text fill="#000000" font-family="sans-serif" font-size="13" lengthAdjust="spacing" textLength="74" x="176.5" y="194.1074">Select other</text><line style="stroke:#181818;stroke-width:1.0;" x1="250.5" x2="420" y1="189.6943" y2="189.6943"/><line style="stroke:#181818;stroke-width:1.0;" x1="250.5" x2="420" y1="191.6943" y2="191.6943"/></g><!--class UnionType--><a href="UnionType-diagram-simplified-grouped-per-namespace.svg" target="_top" title="UnionType-diagram-simplified-grouped-per-namespace.svg" xlink:actuate="onRequest" xlink:href="UnionType-diagram-simplified-grouped-per-namespace.svg" xlink:show="new" xlink:title="UnionType-diagram-simplified-grouped-per-namespace.svg" xlink:type="simple"><g id="elem_UnionType"><rect codeLine="3" fill="#FFFF00" height="48" id="UnionType" rx="2.5" ry="2.5" style="stroke:#181818;stroke-width:0.5;" width="106" x="498.5" y="375.5547"/><ellipse cx="513.5" cy="391.5547" fill="#ADD1B2" rx="11" ry="11" style="stroke:#181818;stroke-width:1.0;"/><path d="M515.9731,397.6978 Q515.3921,397.9966 514.7529,398.146 Q514.1138,398.2954 513.4082,398.2954 Q510.9014,398.2954 509.5815,396.6436 Q508.2617,394.9917 508.2617,391.8706 Q508.2617,388.7412 509.5815,387.0894 Q510.9014,385.4375 513.4082,385.4375 Q514.1138,385.4375 514.7612,385.5869 Q515.4087,385.7363 515.9731,386.0352 L515.9731,388.7578 Q515.3423,388.1768 514.7488,387.907 Q514.1553,387.6372 513.5244,387.6372 Q512.1797,387.6372 511.4949,388.7039 Q510.8101,389.7705 510.8101,391.8706 Q510.8101,393.9624 511.4949,395.0291 Q512.1797,396.0957 513.5244,396.0957 Q514.1553,396.0957 514.7488,395.8259 Q515.3423,395.5562 515.9731,394.9751 Z " fill="#000000"/><text fill="#000000" font-family="sans-serif" font-size="14" lengthAdjust="spacing" textLength="74" x="527.5" y="396.8457">UnionType</text><line style="stroke:#181818;stroke-width:0.5;" x1="499.5" x2="603.5" y1="407.5547" y2="407.5547"/><line style="stroke:#181818;stroke-width:0.5;" x1="499.5" x2="603.5" y1="415.5547" y2="415.5547"/></g></a><!--link ASTVisitorDebug to UnionType--><g id="link_ASTVisitorDebug_UnionType"><path codeLine="23" d="M551.5,198.9947 C551.5,239.9847 551.5,324.5647 551.5,369.3147 " fill="none" id="ASTVisitorDebug-to-UnionType" style="stroke:#6060BB;stroke-width:1.0;stroke-dasharray:7.0,7.0;"/><polygon fill="#6060BB" points="551.5,374.0947,555.5,365.0947,551.5,369.0947,547.5,365.0947,551.5,374.0947" style="stroke:#6060BB;stroke-width:1.0;"/><text fill="#000000" font-family="sans-serif" font-size="13" lengthAdjust="spacing" textLength="29" x="552.5" y="342.123">uses</text></g><!--SRC=[jLHDQzj04BthLmp98I2GQdh8mSI69iNqb4lIGh64MMj7yj3LhjXT9N52_tjdRTdAXy5HmS88xthUU_FcmvwyGhXoz8pZhwFfJqr6twyRX3XsL3UAIa8Pno2qvAlAchP12GrQqA96ruW2u_ZgIy1F8sqymjblqreG5XaZrFgPT3NEzFyHPphJaycCb4SxcMIQgQ4G6Wf5nHz0yYkEvrUFSP1fOpb0EBUzXPBFvOQ2KmdHzKQKlv3Dj2IBXGU93Mg9kY1qwLRs3bNunGIH81x3QnCIlI1rt09x1u3vV8zD98dAYZhPCIGTCc5aiaUcxg7Ayw0wQvM23ZIeUZlfaWdsgZtycEuFK-EEWhWsJ-dArohFpq0uc2aZFDVpbbiURQlTL-UGsy_fmlaQbJAFy1BzZIxWHXaNcYQu0et51pAjMxXskTZ35egSxqt3hT48Ion4wp1qlPj2HmxuKv8cjqAPHZs2UOKK3Oy7vzqVXYR-Sf0obQOMfDymTtV31Q0RwmzKwRUx-r_ao1lx7PTjTKZkVSnG-Oq-z-J6r0qljuHJsuL7NczWmnvu4MlKl8ebR78uuLpqt3rsQ-3DG1uopm5mmTlugGTE5XkI35DYKV666kq0dxmLXUUUbTRKVUvZZXqO_g6jqV5XJEVdbwFBqVLrdavV_Kd06BWN3lu1]--></g></svg>