<?xml version="1.0" encoding="us-ascii" standalone="no"?><svg xmlns="http://www.w3.org/2000/svg" xmlns:xlink="http://www.w3.org/1999/xlink" contentStyleType="text/css" height="684px" preserveAspectRatio="none" style="width:1280px;height:684px;background:#FFFFFF;" version="1.1" viewBox="0 0 1280 684" width="1280px" zoomAndPan="magnify"><defs/><g><text fill="#000000" font-family="sans-serif" font-size="20" font-weight="bold" lengthAdjust="spacing" textLength="35" x="566.75" y="29.3359">Car</text><text fill="#000000" font-family="sans-serif" font-size="20" font-weight="bold" lengthAdjust="spacing" textLength="84" x="608.75" y="29.3359">detailed</text><text fill="#000000" font-family="sans-serif" font-size="20" font-weight="bold" lengthAdjust="spacing" textLength="7" x="692.75" y="29.3359">&#160;</text><!--cluster Examples--><g id="cluster_Examples"><path d="M402,50.5547 L471,50.5547 A3.75,3.75 0 0 1 473.5,53.0547 L480.5,73.043 L1271,73.043 A2.5,2.5 0 0 1 1273.5,75.543 L1273.5,611.0547 A2.5,2.5 0 0 1 1271,613.5547 L402,613.5547 A2.5,2.5 0 0 1 399.5,611.0547 L399.5,53.0547 A2.5,2.5 0 0 1 402,50.5547 " fill="none" style="stroke:#000000;stroke-width:1.5;"/><line style="stroke:#000000;stroke-width:1.5;" x1="399.5" x2="480.5" y1="73.043" y2="73.043"/><text fill="#000000" font-family="sans-serif" font-size="14" font-weight="bold" lengthAdjust="spacing" textLength="68" x="403.5" y="66.0898">Examples</text></g><!--cluster BadDesign--><g id="cluster_BadDesign"><path d="M426,93.5547 L503,93.5547 A3.75,3.75 0 0 1 505.5,96.0547 L512.5,116.043 L1247,116.043 A2.5,2.5 0 0 1 1249.5,118.543 L1249.5,587.0547 A2.5,2.5 0 0 1 1247,589.5547 L426,589.5547 A2.5,2.5 0 0 1 423.5,587.0547 L423.5,96.0547 A2.5,2.5 0 0 1 426,93.5547 " fill="none" style="stroke:#000000;stroke-width:1.5;"/><line style="stroke:#000000;stroke-width:1.5;" x1="423.5" x2="512.5" y1="116.043" y2="116.043"/><text fill="#000000" font-family="sans-serif" font-size="14" font-weight="bold" lengthAdjust="spacing" textLength="76" x="427.5" y="109.0898">BadDesign</text></g><!--cluster CarExample--><g id="cluster_CarExample"><path d="M450,136.5547 L535,136.5547 A3.75,3.75 0 0 1 537.5,139.0547 L544.5,159.043 L1223,159.043 A2.5,2.5 0 0 1 1225.5,161.543 L1225.5,563.0547 A2.5,2.5 0 0 1 1223,565.5547 L450,565.5547 A2.5,2.5 0 0 1 447.5,563.0547 L447.5,139.0547 A2.5,2.5 0 0 1 450,136.5547 " fill="none" style="stroke:#000000;stroke-width:1.5;"/><line style="stroke:#000000;stroke-width:1.5;" x1="447.5" x2="544.5" y1="159.043" y2="159.043"/><text fill="#000000" font-family="sans-serif" font-size="14" font-weight="bold" lengthAdjust="spacing" textLength="84" x="451.5" y="152.0898">CarExample</text></g><!--class DB--><a href="Examples.BadDesign.CarExample.DB-diagram-detailed.svg" target="_top" title="Examples.BadDesign.CarExample.DB-diagram-detailed.svg" xlink:actuate="onRequest" xlink:href="Examples.BadDesign.CarExample.DB-diagram-detailed.svg" xlink:show="new" xlink:title="Examples.BadDesign.CarExample.DB-diagram-detailed.svg" xlink:type="simple"><g id="elem_DB"><rect codeLine="6" fill="#F1F1F1" height="377.7656" id="DB" rx="2.5" ry="2.5" style="stroke:#181818;stroke-width:0.5;" width="745" x="464" y="171.5547"/><ellipse cx="823.25" cy="187.5547" fill="#A9DCDF" rx="11" ry="11" style="stroke:#181818;stroke-width:1.0;"/><path d="M823.1133,182.9028 L821.9595,187.9746 L824.2754,187.9746 Z M821.6191,180.6616 L824.6157,180.6616 L827.9609,193.0547 L825.5122,193.0547 L824.7485,189.9917 L821.4697,189.9917 L820.7227,193.0547 L818.2739,193.0547 Z " fill="#000000"/><text fill="#000000" font-family="sans-serif" font-size="14" font-style="italic" lengthAdjust="spacing" textLength="18" x="843.75" y="192.8457">DB</text><line style="stroke:#181818;stroke-width:0.5;" x1="465" x2="1208" y1="203.5547" y2="203.5547"/><line style="stroke:#181818;stroke-width:0.5;" x1="465" x2="1208" y1="211.5547" y2="211.5547"/><ellipse cx="475" cy="225.2988" fill="#84BE84" rx="3" ry="3" style="stroke:#038048;stroke-width:1.0;"/><text fill="#000000" font-family="sans-serif" font-size="14" lengthAdjust="spacing" textLength="27" x="484" y="229.0898">get(</text><text fill="#000000" font-family="sans-serif" font-size="14" lengthAdjust="spacing" textLength="5" x="511" y="229.0898">)</text><ellipse cx="475" cy="241.7871" fill="#84BE84" rx="3" ry="3" style="stroke:#038048;stroke-width:1.0;"/><text fill="#000000" font-family="sans-serif" font-size="14" lengthAdjust="spacing" textLength="101" x="484" y="245.5781">getCarsWhere(</text><text fill="#000000" font-family="sans-serif" font-size="14" lengthAdjust="spacing" textLength="5" x="585" y="245.5781">)</text><ellipse cx="475" cy="258.2754" fill="#84BE84" rx="3" ry="3" style="stroke:#038048;stroke-width:1.0;"/><text fill="#000000" font-family="sans-serif" font-size="14" lengthAdjust="spacing" textLength="25" x="484" y="262.0664">set(</text><text fill="#000000" font-family="sans-serif" font-size="14" lengthAdjust="spacing" textLength="5" x="509" y="262.0664">)</text><ellipse cx="475" cy="274.7637" fill="#84BE84" rx="3" ry="3" style="stroke:#038048;stroke-width:1.0;"/><text fill="#000000" font-family="sans-serif" font-size="14" lengthAdjust="spacing" textLength="53" x="484" y="278.5547">update(</text><text fill="#000000" font-family="sans-serif" font-size="14" lengthAdjust="spacing" textLength="5" x="537" y="278.5547">)</text><ellipse cx="475" cy="291.252" fill="#84BE84" rx="3" ry="3" style="stroke:#038048;stroke-width:1.0;"/><text fill="#000000" font-family="sans-serif" font-size="14" lengthAdjust="spacing" textLength="101" x="484" y="295.043">getUserWhere(</text><text fill="#000000" font-family="sans-serif" font-size="14" lengthAdjust="spacing" textLength="5" x="585" y="295.043">)</text><ellipse cx="475" cy="307.7402" fill="#84BE84" rx="3" ry="3" style="stroke:#038048;stroke-width:1.0;"/><text fill="#000000" font-family="sans-serif" font-size="14" lengthAdjust="spacing" textLength="137" x="484" y="311.5313">getCustomerWhere(</text><text fill="#000000" font-family="sans-serif" font-size="14" lengthAdjust="spacing" textLength="5" x="621" y="311.5313">)</text><ellipse cx="475" cy="324.2285" fill="#84BE84" rx="3" ry="3" style="stroke:#038048;stroke-width:1.0;"/><text fill="#000000" font-family="sans-serif" font-size="14" lengthAdjust="spacing" textLength="170" x="484" y="328.0195">getWarehouseCarWhere(</text><text fill="#000000" font-family="sans-serif" font-size="14" lengthAdjust="spacing" textLength="5" x="654" y="328.0195">)</text><ellipse cx="475" cy="340.7168" fill="#84BE84" rx="3" ry="3" style="stroke:#038048;stroke-width:1.0;"/><text fill="#000000" font-family="sans-serif" font-size="14" lengthAdjust="spacing" textLength="118" x="484" y="344.5078">getInvoiceWhere(</text><text fill="#000000" font-family="sans-serif" font-size="14" lengthAdjust="spacing" textLength="5" x="602" y="344.5078">)</text><ellipse cx="475" cy="357.2051" fill="#84BE84" rx="3" ry="3" style="stroke:#038048;stroke-width:1.0;"/><text fill="#000000" font-family="sans-serif" font-size="14" lengthAdjust="spacing" textLength="148" x="484" y="360.9961">getComplaintsWhere(</text><text fill="#000000" font-family="sans-serif" font-size="14" lengthAdjust="spacing" textLength="5" x="632" y="360.9961">)</text><ellipse cx="475" cy="373.6934" fill="#84BE84" rx="3" ry="3" style="stroke:#038048;stroke-width:1.0;"/><text fill="#000000" font-family="sans-serif" font-size="14" lengthAdjust="spacing" textLength="167" x="484" y="377.4844">getFirstCustomerWhere(</text><text fill="#000000" font-family="sans-serif" font-size="14" lengthAdjust="spacing" textLength="5" x="651" y="377.4844">)</text><ellipse cx="475" cy="390.1816" fill="#84BE84" rx="3" ry="3" style="stroke:#038048;stroke-width:1.0;"/><text fill="#000000" font-family="sans-serif" font-size="14" lengthAdjust="spacing" textLength="194" x="484" y="393.9727">getUserFromWarehouseCar(</text><text fill="#6060BB" font-family="sans-serif" font-size="14" lengthAdjust="spacing" textLength="421" x="678" y="393.9727">item:Examples.BadDesign.CarExample.WarehouseEntities.Car</text><text fill="#000000" font-family="sans-serif" font-size="14" lengthAdjust="spacing" textLength="5" x="1099" y="393.9727">)</text><ellipse cx="475" cy="406.6699" fill="#84BE84" rx="3" ry="3" style="stroke:#038048;stroke-width:1.0;"/><text fill="#000000" font-family="sans-serif" font-size="14" lengthAdjust="spacing" textLength="201" x="484" y="410.4609">getCustomerFromComplaint(</text><text fill="#6060BB" font-family="sans-serif" font-size="14" lengthAdjust="spacing" textLength="513" x="685" y="410.4609">complaint:Examples.BadDesign.CarExample.WarehouseEntities.Complaints</text><text fill="#000000" font-family="sans-serif" font-size="14" lengthAdjust="spacing" textLength="5" x="1198" y="410.4609">)</text><ellipse cx="475" cy="423.1582" fill="#84BE84" rx="3" ry="3" style="stroke:#038048;stroke-width:1.0;"/><text fill="#000000" font-family="sans-serif" font-size="14" lengthAdjust="spacing" textLength="194" x="484" y="426.9492">getWarehouseCarFromUser(</text><text fill="#6060BB" font-family="sans-serif" font-size="14" lengthAdjust="spacing" textLength="421" x="678" y="426.9492">user:Examples.BadDesign.CarExample.WarehouseEntities.Car</text><text fill="#000000" font-family="sans-serif" font-size="14" lengthAdjust="spacing" textLength="5" x="1099" y="426.9492">)</text><ellipse cx="475" cy="439.6465" fill="#84BE84" rx="3" ry="3" style="stroke:#038048;stroke-width:1.0;"/><text fill="#000000" font-family="sans-serif" font-size="14" lengthAdjust="spacing" textLength="178" x="484" y="443.4375">getInvoiceFromCustomer(</text><text fill="#6060BB" font-family="sans-serif" font-size="14" lengthAdjust="spacing" textLength="441" x="662" y="443.4375">c:Examples.BadDesign.CarExample.WarehouseEntities.Customer</text><text fill="#000000" font-family="sans-serif" font-size="14" lengthAdjust="spacing" textLength="5" x="1103" y="443.4375">)</text><ellipse cx="475" cy="456.1348" fill="#84BE84" rx="3" ry="3" style="stroke:#038048;stroke-width:1.0;"/><text fill="#000000" font-family="sans-serif" font-size="14" lengthAdjust="spacing" textLength="241" x="484" y="459.9258">getComplaintsFromWarehouseCar(</text><text fill="#6060BB" font-family="sans-serif" font-size="14" lengthAdjust="spacing" textLength="421" x="725" y="459.9258">item:Examples.BadDesign.CarExample.WarehouseEntities.Car</text><text fill="#000000" font-family="sans-serif" font-size="14" lengthAdjust="spacing" textLength="5" x="1146" y="459.9258">)</text><ellipse cx="475" cy="472.623" fill="#84BE84" rx="3" ry="3" style="stroke:#038048;stroke-width:1.0;"/><text fill="#000000" font-family="sans-serif" font-size="14" lengthAdjust="spacing" textLength="128" x="484" y="476.4141">getCarFromDriver(</text><text fill="#6060BB" font-family="sans-serif" font-size="14" lengthAdjust="spacing" textLength="349" x="612" y="476.4141">d:Examples.BadDesign.CarExample.CarParts.Driver</text><text fill="#000000" font-family="sans-serif" font-size="14" lengthAdjust="spacing" textLength="5" x="961" y="476.4141">)</text><ellipse cx="475" cy="489.1113" fill="#84BE84" rx="3" ry="3" style="stroke:#038048;stroke-width:1.0;"/><text fill="#000000" font-family="sans-serif" font-size="14" lengthAdjust="spacing" textLength="128" x="484" y="492.9023">getDriverFromCar(</text><text fill="#6060BB" font-family="sans-serif" font-size="14" lengthAdjust="spacing" textLength="35" x="612" y="492.9023">c:Car</text><text fill="#000000" font-family="sans-serif" font-size="14" lengthAdjust="spacing" textLength="5" x="647" y="492.9023">)</text><ellipse cx="475" cy="505.5996" fill="#84BE84" rx="3" ry="3" style="stroke:#038048;stroke-width:1.0;"/><text fill="#000000" font-family="sans-serif" font-size="14" lengthAdjust="spacing" textLength="135" x="484" y="509.3906">getWheelsFromCar(</text><text fill="#6060BB" font-family="sans-serif" font-size="14" lengthAdjust="spacing" textLength="35" x="619" y="509.3906">c:Car</text><text fill="#000000" font-family="sans-serif" font-size="14" lengthAdjust="spacing" textLength="5" x="654" y="509.3906">)</text><ellipse cx="475" cy="522.0879" fill="#84BE84" rx="3" ry="3" style="stroke:#038048;stroke-width:1.0;"/><text fill="#000000" font-family="sans-serif" font-size="14" lengthAdjust="spacing" textLength="128" x="484" y="525.8789">getDoorsFromCar(</text><text fill="#6060BB" font-family="sans-serif" font-size="14" lengthAdjust="spacing" textLength="35" x="612" y="525.8789">c:Car</text><text fill="#000000" font-family="sans-serif" font-size="14" lengthAdjust="spacing" textLength="5" x="647" y="525.8789">)</text><ellipse cx="475" cy="538.5762" fill="#84BE84" rx="3" ry="3" style="stroke:#038048;stroke-width:1.0;"/><text fill="#000000" font-family="sans-serif" font-size="14" lengthAdjust="spacing" textLength="123" x="484" y="542.3672">getSeatsFromCar(</text><text fill="#6060BB" font-family="sans-serif" font-size="14" lengthAdjust="spacing" textLength="35" x="607" y="542.3672">c:Car</text><text fill="#000000" font-family="sans-serif" font-size="14" lengthAdjust="spacing" textLength="5" x="642" y="542.3672">)</text></g></a><g id="elem_FloatingNote"><path d="M6,236.5547 L6,484.2129 L383,484.2129 L383,246.5547 L373,236.5547 L6,236.5547 " fill="#FEFFDD" style="stroke:#181818;stroke-width:0.5;"/><path d="M373,236.5547 L373,246.5547 L383,246.5547 L373,236.5547 " fill="#FEFFDD" style="stroke:#181818;stroke-width:1.0;"/><text fill="#000000" font-family="sans-serif" font-size="13" lengthAdjust="spacing" textLength="120" x="12" y="254.123">Your are analyzing:</text><text fill="#000000" font-family="sans-serif" font-size="13" lengthAdjust="spacing" textLength="21" x="12" y="269.4336">Car</text><text fill="#000000" font-family="sans-serif" font-size="13" font-weight="bold" lengthAdjust="spacing" textLength="55" x="37" y="269.4336">detailed</text><text fill="#000000" font-family="sans-serif" font-size="13" lengthAdjust="spacing" textLength="4" x="92" y="269.4336">&#160;</text><text fill="#000000" font-family="sans-serif" font-size="13" lengthAdjust="spacing" textLength="4" x="12" y="284.7441">&#160;</text><text fill="#000000" font-family="sans-serif" font-size="13" lengthAdjust="spacing" textLength="229" x="12" y="315.3652">You can click either the namespaces</text><text fill="#000000" font-family="sans-serif" font-size="13" lengthAdjust="spacing" textLength="266" x="12" y="330.6758">or class names for filtering them and their</text><text fill="#000000" font-family="sans-serif" font-size="13" lengthAdjust="spacing" textLength="130" x="12" y="345.9863">direct dependencies.</text><text fill="#000000" font-family="sans-serif" font-size="13" lengthAdjust="spacing" textLength="4" x="12" y="361.2969">&#160;</text><line style="stroke:#181818;stroke-width:1.0;" x1="7" x2="178.5" y1="295.1416" y2="295.1416"/><line style="stroke:#181818;stroke-width:1.0;" x1="7" x2="178.5" y1="297.1416" y2="297.1416"/><text fill="#000000" font-family="sans-serif" font-size="13" lengthAdjust="spacing" textLength="32" x="178.5" y="299.5547">Filter</text><line style="stroke:#181818;stroke-width:1.0;" x1="210.5" x2="382" y1="295.1416" y2="295.1416"/><line style="stroke:#181818;stroke-width:1.0;" x1="210.5" x2="382" y1="297.1416" y2="297.1416"/><ellipse cx="17.5" cy="391.1602" fill="#000000" rx="2.5" ry="2.5" style="stroke:#000000;stroke-width:0.0;"/><text fill="#000000" font-family="sans-serif" font-size="13" lengthAdjust="spacing" textLength="21" x="24" y="395.918">Car</text><text fill="#000000" font-family="sans-serif" font-size="13" font-weight="bold" lengthAdjust="spacing" textLength="67" x="49" y="395.918">simplified</text><text fill="#000000" font-family="sans-serif" font-size="13" lengthAdjust="spacing" textLength="4" x="120" y="395.918">:</text><text fill="#000000" font-family="sans-serif" font-size="13" lengthAdjust="spacing" textLength="12" x="12" y="411.2285">&#160;&#160;&#160;</text><a href="Car-diagram-simplified.svg" target="_top" title="Car-diagram-simplified.svg" xlink:actuate="onRequest" xlink:href="Car-diagram-simplified.svg" xlink:show="new" xlink:title="Car-diagram-simplified.svg" xlink:type="simple"><text fill="#0000FF" font-family="sans-serif" font-size="13" lengthAdjust="spacing" text-decoration="underline" textLength="177" x="24" y="411.2285">Car-diagram-simplified.svg</text></a><ellipse cx="17.5" cy="421.7813" fill="#000000" rx="2.5" ry="2.5" style="stroke:#000000;stroke-width:0.0;"/><text fill="#000000" font-family="sans-serif" font-size="13" lengthAdjust="spacing" textLength="78" x="24" y="426.5391">Full diagram</text><text fill="#000000" font-family="sans-serif" font-size="13" font-weight="bold" lengthAdjust="spacing" textLength="55" x="106" y="426.5391">detailed</text><text fill="#000000" font-family="sans-serif" font-size="13" lengthAdjust="spacing" textLength="23" x="165" y="426.5391">and</text><text fill="#000000" font-family="sans-serif" font-size="13" font-weight="bold" lengthAdjust="spacing" textLength="166" x="192" y="426.5391">grouped per namespace</text><text fill="#000000" font-family="sans-serif" font-size="13" lengthAdjust="spacing" textLength="4" x="358" y="426.5391">:</text><text fill="#000000" font-family="sans-serif" font-size="13" lengthAdjust="spacing" textLength="12" x="12" y="441.8496">&#160;&#160;&#160;</text><a href="full-diagram-detailed-grouped-per-namespace.svg" target="_top" title="full-diagram-detailed-grouped-per-namespace.svg" xlink:actuate="onRequest" xlink:href="full-diagram-detailed-grouped-per-namespace.svg" xlink:show="new" xlink:title="full-diagram-detailed-grouped-per-namespace.svg" xlink:type="simple"><text fill="#0000FF" font-family="sans-serif" font-size="13" lengthAdjust="spacing" text-decoration="underline" textLength="330" x="24" y="441.8496">full-diagram-detailed-grouped-per-namespace.svg</text></a><ellipse cx="17.5" cy="452.4023" fill="#000000" rx="2.5" ry="2.5" style="stroke:#000000;stroke-width:0.0;"/><text fill="#000000" font-family="sans-serif" font-size="13" lengthAdjust="spacing" textLength="41" x="24" y="457.1602">Home:</text><text fill="#000000" font-family="sans-serif" font-size="13" lengthAdjust="spacing" textLength="12" x="12" y="472.4707">&#160;&#160;&#160;</text><a href="index.html" target="_top" title="index.html" xlink:actuate="onRequest" xlink:href="index.html" xlink:show="new" xlink:title="index.html" xlink:type="simple"><text fill="#0000FF" font-family="sans-serif" font-size="13" lengthAdjust="spacing" text-decoration="underline" textLength="68" x="24" y="472.4707">index.html</text></a><line style="stroke:#181818;stroke-width:1.0;" x1="7" x2="157.5" y1="375.6943" y2="375.6943"/><line style="stroke:#181818;stroke-width:1.0;" x1="7" x2="157.5" y1="377.6943" y2="377.6943"/><text fill="#000000" font-family="sans-serif" font-size="13" lengthAdjust="spacing" textLength="74" x="157.5" y="380.1074">Select other</text><line style="stroke:#181818;stroke-width:1.0;" x1="231.5" x2="382" y1="375.6943" y2="375.6943"/><line style="stroke:#181818;stroke-width:1.0;" x1="231.5" x2="382" y1="377.6943" y2="377.6943"/></g><!--class Car--><a href="Car-diagram-detailed.svg" target="_top" title="Car-diagram-detailed.svg" xlink:actuate="onRequest" xlink:href="Car-diagram-detailed.svg" xlink:show="new" xlink:title="Car-diagram-detailed.svg" xlink:type="simple"><g id="elem_Car"><rect codeLine="4" fill="#FFFF00" height="48" id="Car" rx="2.5" ry="2.5" style="stroke:#181818;stroke-width:0.5;" width="56" x="808.5" y="629.5547"/><ellipse cx="823.5" cy="645.5547" fill="#ADD1B2" rx="11" ry="11" style="stroke:#181818;stroke-width:1.0;"/><path d="M825.9731,651.6978 Q825.3921,651.9966 824.7529,652.146 Q824.1138,652.2954 823.4082,652.2954 Q820.9014,652.2954 819.5815,650.6436 Q818.2617,648.9917 818.2617,645.8706 Q818.2617,642.7412 819.5815,641.0894 Q820.9014,639.4375 823.4082,639.4375 Q824.1138,639.4375 824.7612,639.5869 Q825.4087,639.7363 825.9731,640.0352 L825.9731,642.7578 Q825.3423,642.1768 824.7488,641.907 Q824.1553,641.6372 823.5244,641.6372 Q822.1797,641.6372 821.4949,642.7039 Q820.8101,643.7705 820.8101,645.8706 Q820.8101,647.9624 821.4949,649.0291 Q822.1797,650.0957 823.5244,650.0957 Q824.1553,650.0957 824.7488,649.8259 Q825.3423,649.5562 825.9731,648.9751 Z " fill="#000000"/><text fill="#000000" font-family="sans-serif" font-size="14" lengthAdjust="spacing" textLength="24" x="837.5" y="650.8457">Car</text><line style="stroke:#181818;stroke-width:0.5;" x1="809.5" x2="863.5" y1="661.5547" y2="661.5547"/><line style="stroke:#181818;stroke-width:0.5;" x1="809.5" x2="863.5" y1="669.5547" y2="669.5547"/></g></a><!--link DB to Car--><g id="link_DB_Car"><path codeLine="35" d="M836.5,549.8447 C836.5,549.8447 836.5,623.2247 836.5,623.2247 " fill="none" id="DB-to-Car" style="stroke:#6060BB;stroke-width:1.0;stroke-dasharray:7.0,7.0;"/><polygon fill="#6060BB" points="836.5,628.2247,840.5,619.2247,836.5,623.2247,832.5,619.2247,836.5,628.2247" style="stroke:#6060BB;stroke-width:1.0;"/><text fill="#000000" font-family="sans-serif" font-size="13" lengthAdjust="spacing" textLength="29" x="806.5" y="583.103">uses</text></g><!--SRC=[nLLDRzf04BtxLup88Qqh7DH33WWu48BQIrKfgg88E6ozOxFAUjVQNLD8rV_UMTkOHENBg5LzGCOpxxrvCskFVHOgPuPb88L2jyaHj75B7JZX9CB0YXViV-oDxfY1CEJec938mn06Dpuq2fHs29qdNHXW1e4f9ZSlGgNzkVe3CrTpDHnEXNHeXiEv8XJ4J44iHVmCADmI3T0FA9QXpLcCbZ3QK0ApjdeA2VrFIWfIyTaPYN9_8ynSSM4mTi0nHyLHnG9jLCa-eFGHxKMyU0XLVLPakHI9A2kagW5WDgDGbmkMKcEwkuJ8hjB5maEdXPHG9xprw6i9mzJe8aSEEHbgp8JXbZuXUCE_1NThK9T0tGQqq_oaCzmI23AtZfOkauj51vY5gTJCKKE-q3Y2gbtUtbidMwMA4wusAAN-0J-3Nm6n0ljkdM7Kemf_lsPadFetPdo2LgGg8hBwQJGP4_cfb4FA90dbzG5ITEy6YLQaggKsmyvjxxOt7dT6Wnl_TFJ-TIQHsqUQ7vu9iMUJ5pbd3i-lv9j5qwOINtnX7OsmBUoHNgkbBYoI-PRGpsgbHOnjwzGqFIQKios1Ks7ifIvzFwT6Pw_TxaSBXrd_-C5hIEuLVSRy9u22nqRYbHlR-sNZRRYzTjFFK-FrPVX6xA-0SipVCbwVZD9ttOC3jjihrdp7ZzP_c7NLtuaHgqDc-GajkltAZBDHHR9FfOgKVMK7MtgWGdfbKDhBi1EjpONG1sIkBPGMnZMjkRCk-6Uvrt1NRYg3afQVLXPmNMumshm96TgjtZxbjam_UXI2ayincbrLxLj4et8LGn_eb5hu3G00]--></g></svg>