<?xml version="1.0" encoding="us-ascii" standalone="no"?><svg xmlns="http://www.w3.org/2000/svg" xmlns:xlink="http://www.w3.org/1999/xlink" contentStyleType="text/css" height="453px" preserveAspectRatio="none" style="width:904px;height:453px;background:#FFFFFF;" version="1.1" viewBox="0 0 904 453" width="904px" zoomAndPan="magnify"><defs/><g><text fill="#000000" font-family="sans-serif" font-size="20" font-weight="bold" lengthAdjust="spacing" textLength="464" x="10" y="29.3359">DotNetPreAdapter.Domain.IParameterSymbol</text><text fill="#000000" font-family="sans-serif" font-size="20" font-weight="bold" lengthAdjust="spacing" textLength="104" x="481" y="29.3359">simplified</text><text fill="#000000" font-family="sans-serif" font-size="20" font-weight="bold" lengthAdjust="spacing" textLength="38" x="592" y="29.3359">and</text><text fill="#000000" font-family="sans-serif" font-size="20" font-weight="bold" lengthAdjust="spacing" textLength="249" x="637" y="29.3359">grouped per namespace</text><!--cluster DotNetPreAdapter--><g id="cluster_DotNetPreAdapter"><a href="DotNetPreAdapter-diagram-simplified-grouped-per-namespace.svg" target="_top" title="DotNetPreAdapter-diagram-simplified-grouped-per-namespace.svg" xlink:actuate="onRequest" xlink:href="DotNetPreAdapter-diagram-simplified-grouped-per-namespace.svg" xlink:show="new" xlink:title="DotNetPreAdapter-diagram-simplified-grouped-per-namespace.svg" xlink:type="simple"><path d="M662,72.5547 L793,72.5547 A3.75,3.75 0 0 1 795.5,75.0547 L802.5,95.043 L893,95.043 A2.5,2.5 0 0 1 895.5,97.543 L895.5,444.0547 A2.5,2.5 0 0 1 893,446.5547 L662,446.5547 A2.5,2.5 0 0 1 659.5,444.0547 L659.5,75.0547 A2.5,2.5 0 0 1 662,72.5547 " fill="none" style="stroke:#000000;stroke-width:1.5;"/><line style="stroke:#000000;stroke-width:1.5;" x1="659.5" x2="802.5" y1="95.043" y2="95.043"/><text fill="#000000" font-family="sans-serif" font-size="14" font-weight="bold" lengthAdjust="spacing" textLength="130" x="663.5" y="88.0898">DotNetPreAdapter</text></a></g><!--cluster Domain--><g id="cluster_Domain"><a href="DotNetPreAdapter.Domain-diagram-simplified-grouped-per-namespace.svg" target="_top" title="DotNetPreAdapter.Domain-diagram-simplified-grouped-per-namespace.svg" xlink:actuate="onRequest" xlink:href="DotNetPreAdapter.Domain-diagram-simplified-grouped-per-namespace.svg" xlink:show="new" xlink:title="DotNetPreAdapter.Domain-diagram-simplified-grouped-per-namespace.svg" xlink:type="simple"><path d="M686,115.5547 L743,115.5547 A3.75,3.75 0 0 1 745.5,118.0547 L752.5,138.043 L869,138.043 A2.5,2.5 0 0 1 871.5,140.543 L871.5,420.0547 A2.5,2.5 0 0 1 869,422.5547 L686,422.5547 A2.5,2.5 0 0 1 683.5,420.0547 L683.5,118.0547 A2.5,2.5 0 0 1 686,115.5547 " fill="none" style="stroke:#000000;stroke-width:1.5;"/><line style="stroke:#000000;stroke-width:1.5;" x1="683.5" x2="752.5" y1="138.043" y2="138.043"/><text fill="#000000" font-family="sans-serif" font-size="14" font-weight="bold" lengthAdjust="spacing" textLength="56" x="687.5" y="131.0898">Domain</text></a></g><!--class IParameterSymbol--><a href="DotNetPreAdapter.Domain.IParameterSymbol-diagram-simplified-grouped-per-namespace.svg" target="_top" title="DotNetPreAdapter.Domain.IParameterSymbol-diagram-simplified-grouped-per-namespace.svg" xlink:actuate="onRequest" xlink:href="DotNetPreAdapter.Domain.IParameterSymbol-diagram-simplified-grouped-per-namespace.svg" xlink:show="new" xlink:title="DotNetPreAdapter.Domain.IParameterSymbol-diagram-simplified-grouped-per-namespace.svg" xlink:type="simple"><g id="elem_IParameterSymbol"><rect codeLine="4" fill="#FFFF00" height="48" id="IParameterSymbol" rx="2.5" ry="2.5" style="stroke:#181818;stroke-width:0.5;" width="156" x="699.5" y="358.5547"/><ellipse cx="714.5" cy="374.5547" fill="#ADD1B2" rx="11" ry="11" style="stroke:#181818;stroke-width:1.0;"/><path d="M716.9731,380.6978 Q716.3921,380.9966 715.7529,381.146 Q715.1138,381.2954 714.4082,381.2954 Q711.9014,381.2954 710.5815,379.6436 Q709.2617,377.9917 709.2617,374.8706 Q709.2617,371.7412 710.5815,370.0894 Q711.9014,368.4375 714.4082,368.4375 Q715.1138,368.4375 715.7612,368.5869 Q716.4087,368.7363 716.9731,369.0352 L716.9731,371.7578 Q716.3423,371.1768 715.7488,370.907 Q715.1553,370.6372 714.5244,370.6372 Q713.1797,370.6372 712.4949,371.7039 Q711.8101,372.7705 711.8101,374.8706 Q711.8101,376.9624 712.4949,378.0291 Q713.1797,379.0957 714.5244,379.0957 Q715.1553,379.0957 715.7488,378.8259 Q716.3423,378.5562 716.9731,377.9751 Z " fill="#000000"/><text fill="#000000" font-family="sans-serif" font-size="14" lengthAdjust="spacing" textLength="124" x="728.5" y="379.8457">IParameterSymbol</text><line style="stroke:#181818;stroke-width:0.5;" x1="700.5" x2="854.5" y1="390.5547" y2="390.5547"/><line style="stroke:#181818;stroke-width:0.5;" x1="700.5" x2="854.5" y1="398.5547" y2="398.5547"/></g></a><!--class ASTVisitor--><a href="DotNetPreAdapter.Domain.ASTVisitor-diagram-simplified-grouped-per-namespace.svg" target="_top" title="DotNetPreAdapter.Domain.ASTVisitor-diagram-simplified-grouped-per-namespace.svg" xlink:actuate="onRequest" xlink:href="DotNetPreAdapter.Domain.ASTVisitor-diagram-simplified-grouped-per-namespace.svg" xlink:show="new" xlink:title="DotNetPreAdapter.Domain.ASTVisitor-diagram-simplified-grouped-per-namespace.svg" xlink:type="simple"><g id="elem_ASTVisitor"><rect codeLine="9" fill="#F1F1F1" height="48" id="ASTVisitor" rx="2.5" ry="2.5" style="stroke:#181818;stroke-width:0.5;" width="103" x="726" y="150.5547"/><ellipse cx="741" cy="166.5547" fill="#A9DCDF" rx="11" ry="11" style="stroke:#181818;stroke-width:1.0;"/><path d="M740.8633,161.9028 L739.7095,166.9746 L742.0254,166.9746 Z M739.3691,159.6616 L742.3657,159.6616 L745.7109,172.0547 L743.2622,172.0547 L742.4985,168.9917 L739.2197,168.9917 L738.4727,172.0547 L736.0239,172.0547 Z " fill="#000000"/><text fill="#000000" font-family="sans-serif" font-size="14" font-style="italic" lengthAdjust="spacing" textLength="71" x="755" y="171.8457">ASTVisitor</text><line style="stroke:#181818;stroke-width:0.5;" x1="727" x2="828" y1="182.5547" y2="182.5547"/><line style="stroke:#181818;stroke-width:0.5;" x1="727" x2="828" y1="190.5547" y2="190.5547"/></g></a><g id="elem_FloatingNote"><path d="M13.5,50.5547 L13.5,298.2129 L643.5,298.2129 L643.5,60.5547 L633.5,50.5547 L13.5,50.5547 " fill="#FEFFDD" style="stroke:#181818;stroke-width:0.5;"/><path d="M633.5,50.5547 L633.5,60.5547 L643.5,60.5547 L633.5,50.5547 " fill="#FEFFDD" style="stroke:#181818;stroke-width:1.0;"/><text fill="#000000" font-family="sans-serif" font-size="13" lengthAdjust="spacing" textLength="120" x="19.5" y="68.123">Your are analyzing:</text><text fill="#000000" font-family="sans-serif" font-size="13" lengthAdjust="spacing" textLength="282" x="19.5" y="83.4336">DotNetPreAdapter.Domain.IParameterSymbol</text><text fill="#000000" font-family="sans-serif" font-size="13" font-weight="bold" lengthAdjust="spacing" textLength="67" x="305.5" y="83.4336">simplified</text><text fill="#000000" font-family="sans-serif" font-size="13" lengthAdjust="spacing" textLength="23" x="376.5" y="83.4336">and</text><text fill="#000000" font-family="sans-serif" font-size="13" font-weight="bold" lengthAdjust="spacing" textLength="166" x="403.5" y="83.4336">grouped per namespace</text><text fill="#000000" font-family="sans-serif" font-size="13" lengthAdjust="spacing" textLength="4" x="19.5" y="98.7441">&#160;</text><text fill="#000000" font-family="sans-serif" font-size="13" lengthAdjust="spacing" textLength="229" x="19.5" y="129.3652">You can click either the namespaces</text><text fill="#000000" font-family="sans-serif" font-size="13" lengthAdjust="spacing" textLength="266" x="19.5" y="144.6758">or class names for filtering them and their</text><text fill="#000000" font-family="sans-serif" font-size="13" lengthAdjust="spacing" textLength="130" x="19.5" y="159.9863">direct dependencies.</text><text fill="#000000" font-family="sans-serif" font-size="13" lengthAdjust="spacing" textLength="4" x="19.5" y="175.2969">&#160;</text><line style="stroke:#181818;stroke-width:1.0;" x1="14.5" x2="312.5" y1="109.1416" y2="109.1416"/><line style="stroke:#181818;stroke-width:1.0;" x1="14.5" x2="312.5" y1="111.1416" y2="111.1416"/><text fill="#000000" font-family="sans-serif" font-size="13" lengthAdjust="spacing" textLength="32" x="312.5" y="113.5547">Filter</text><line style="stroke:#181818;stroke-width:1.0;" x1="344.5" x2="642.5" y1="109.1416" y2="109.1416"/><line style="stroke:#181818;stroke-width:1.0;" x1="344.5" x2="642.5" y1="111.1416" y2="111.1416"/><ellipse cx="25" cy="205.1602" fill="#000000" rx="2.5" ry="2.5" style="stroke:#000000;stroke-width:0.0;"/><text fill="#000000" font-family="sans-serif" font-size="13" lengthAdjust="spacing" textLength="282" x="31.5" y="209.918">DotNetPreAdapter.Domain.IParameterSymbol</text><text fill="#000000" font-family="sans-serif" font-size="13" font-weight="bold" lengthAdjust="spacing" textLength="55" x="317.5" y="209.918">detailed</text><text fill="#000000" font-family="sans-serif" font-size="13" lengthAdjust="spacing" textLength="23" x="376.5" y="209.918">and</text><text fill="#000000" font-family="sans-serif" font-size="13" font-weight="bold" lengthAdjust="spacing" textLength="166" x="403.5" y="209.918">grouped per namespace</text><text fill="#000000" font-family="sans-serif" font-size="13" lengthAdjust="spacing" textLength="4" x="569.5" y="209.918">:</text><text fill="#000000" font-family="sans-serif" font-size="13" lengthAdjust="spacing" textLength="12" x="19.5" y="225.2285">&#160;&#160;&#160;</text><a href="DotNetPreAdapter.Domain.IParameterSymbol-diagram-detailed-grouped-per-namespace.svg" target="_top" title="DotNetPreAdapter.Domain.IParameterSymbol-diagram-detailed-grouped-per-namespace.svg" xlink:actuate="onRequest" xlink:href="DotNetPreAdapter.Domain.IParameterSymbol-diagram-detailed-grouped-per-namespace.svg" xlink:show="new" xlink:title="DotNetPreAdapter.Domain.IParameterSymbol-diagram-detailed-grouped-per-namespace.svg" xlink:type="simple"><text fill="#0000FF" font-family="sans-serif" font-size="13" lengthAdjust="spacing" text-decoration="underline" textLength="591" x="31.5" y="225.2285">DotNetPreAdapter.Domain.IParameterSymbol-diagram-detailed-grouped-per-namespace.svg</text></a><ellipse cx="25" cy="235.7813" fill="#000000" rx="2.5" ry="2.5" style="stroke:#000000;stroke-width:0.0;"/><text fill="#000000" font-family="sans-serif" font-size="13" lengthAdjust="spacing" textLength="78" x="31.5" y="240.5391">Full diagram</text><text fill="#000000" font-family="sans-serif" font-size="13" font-weight="bold" lengthAdjust="spacing" textLength="67" x="113.5" y="240.5391">simplified</text><text fill="#000000" font-family="sans-serif" font-size="13" lengthAdjust="spacing" textLength="23" x="184.5" y="240.5391">and</text><text fill="#000000" font-family="sans-serif" font-size="13" font-weight="bold" lengthAdjust="spacing" textLength="166" x="211.5" y="240.5391">grouped per namespace</text><text fill="#000000" font-family="sans-serif" font-size="13" lengthAdjust="spacing" textLength="4" x="377.5" y="240.5391">:</text><text fill="#000000" font-family="sans-serif" font-size="13" lengthAdjust="spacing" textLength="12" x="19.5" y="255.8496">&#160;&#160;&#160;</text><a href="full-diagram-simplified-grouped-per-namespace.svg" target="_top" title="full-diagram-simplified-grouped-per-namespace.svg" xlink:actuate="onRequest" xlink:href="full-diagram-simplified-grouped-per-namespace.svg" xlink:show="new" xlink:title="full-diagram-simplified-grouped-per-namespace.svg" xlink:type="simple"><text fill="#0000FF" font-family="sans-serif" font-size="13" lengthAdjust="spacing" text-decoration="underline" textLength="343" x="31.5" y="255.8496">full-diagram-simplified-grouped-per-namespace.svg</text></a><ellipse cx="25" cy="266.4023" fill="#000000" rx="2.5" ry="2.5" style="stroke:#000000;stroke-width:0.0;"/><text fill="#000000" font-family="sans-serif" font-size="13" lengthAdjust="spacing" textLength="41" x="31.5" y="271.1602">Home:</text><text fill="#000000" font-family="sans-serif" font-size="13" lengthAdjust="spacing" textLength="12" x="19.5" y="286.4707">&#160;&#160;&#160;</text><a href="index.html" target="_top" title="index.html" xlink:actuate="onRequest" xlink:href="index.html" xlink:show="new" xlink:title="index.html" xlink:type="simple"><text fill="#0000FF" font-family="sans-serif" font-size="13" lengthAdjust="spacing" text-decoration="underline" textLength="68" x="31.5" y="286.4707">index.html</text></a><line style="stroke:#181818;stroke-width:1.0;" x1="14.5" x2="291.5" y1="189.6943" y2="189.6943"/><line style="stroke:#181818;stroke-width:1.0;" x1="14.5" x2="291.5" y1="191.6943" y2="191.6943"/><text fill="#000000" font-family="sans-serif" font-size="13" lengthAdjust="spacing" textLength="74" x="291.5" y="194.1074">Select other</text><line style="stroke:#181818;stroke-width:1.0;" x1="365.5" x2="642.5" y1="189.6943" y2="189.6943"/><line style="stroke:#181818;stroke-width:1.0;" x1="365.5" x2="642.5" y1="191.6943" y2="191.6943"/></g><!--link ASTVisitor to IParameterSymbol--><g id="link_ASTVisitor_IParameterSymbol"><path codeLine="24" d="M777.5,198.8247 C777.5,198.8247 777.5,352.1247 777.5,352.1247 " fill="none" id="ASTVisitor-to-IParameterSymbol" style="stroke:#909090;stroke-width:1.0;"/><polygon fill="#909090" points="777.5,357.1247,781.5,348.1247,777.5,352.1247,773.5,348.1247,777.5,357.1247" style="stroke:#909090;stroke-width:1.0;"/><text fill="#000000" font-family="sans-serif" font-size="13" lengthAdjust="spacing" textLength="29" x="747.5" y="272.043">uses</text></g><!--SRC=[lLHTQzj047pNhrYIXu10QkXRJMm82QPzCG6NGh6DEKihUydfJjoUaZYX_xrx_b9RQaSgk9OnrcbtPdTsjFn8fb9EbQ39e5zN2DRvbOqyUOrmm_IAlO_NWtlhH-WV7DxcglBeqdjRAZBfbuUGZ78oNfSBgo6EcSfAKq6Onp4eaylHqjcwmXmgT60ad2kLOHpVV0ZmWyXOZt3ntTOEb4F9KNhzIcRPcvgpy4xDrFJxGzAItkzFZJ13fWnach97GF8hYPUV9eTXQgoJ0CMyFOL2xeiDX5GQeiiDgVmXDpKvESmyv5YXoT5aX9nkQSUemnCRI09v31rwpD4hqkztACe1m6JI5Zh9IItb9DaJ93lWH82J0t3AJylPBDGyhBM6NL8dxVUL5G9mO6tIt-FzR4lSGv0e-vAkVAbdimjG34DjbPTfZCHFqNPMhRNz1wtQLGsNQzJQFiDRz2EwWZjjEHX6YNwLmoUoDS-vNimFQNDDx1l9O6GDmW8pLJC6n-rU42O6-HPaY5UOfr6JyMSdVsckQnDl9-1tGXsNi3iPW5gmTqfUbDDpl1r__KPCtheJ4so2kbQoAKN6TcTBsPBYvl-f0ZpB9W9ftuFiZ1ADR8q2DlMSqKODzg-zXWP-y-zn8IGChcG1jFh0sM93gS4v3hKi1MiOy6NZA9bYuMpPTD2Js8xXHqOSjR1fChdyT1skMJ9elvwW1p8tXfy0]--></g></svg>