<?xml version="1.0" encoding="us-ascii" standalone="no"?><svg xmlns="http://www.w3.org/2000/svg" xmlns:xlink="http://www.w3.org/1999/xlink" contentStyleType="text/css" height="445px" preserveAspectRatio="none" style="width:552px;height:445px;background:#FFFFFF;" version="1.1" viewBox="0 0 552 445" width="552px" zoomAndPan="magnify"><defs/><g><text fill="#000000" font-family="sans-serif" font-size="20" font-weight="bold" lengthAdjust="spacing" textLength="274" x="83.25" y="29.3359">DotNetPreAdapter.IMyTest</text><text fill="#000000" font-family="sans-serif" font-size="20" font-weight="bold" lengthAdjust="spacing" textLength="84" x="364.25" y="29.3359">detailed</text><text fill="#000000" font-family="sans-serif" font-size="20" font-weight="bold" lengthAdjust="spacing" textLength="7" x="448.25" y="29.3359">&#160;</text><!--cluster DotNetPreAdapter--><g id="cluster_DotNetPreAdapter"><path d="M402,107.5547 L533,107.5547 A3.75,3.75 0 0 1 535.5,110.0547 L542.5,130.043 L543,130.043 A2.5,2.5 0 0 1 545.5,132.543 L545.5,436.0547 A2.5,2.5 0 0 1 543,438.5547 L402,438.5547 A2.5,2.5 0 0 1 399.5,436.0547 L399.5,110.0547 A2.5,2.5 0 0 1 402,107.5547 " fill="none" style="stroke:#000000;stroke-width:1.5;"/><line style="stroke:#000000;stroke-width:1.5;" x1="399.5" x2="542.5" y1="130.043" y2="130.043"/><text fill="#000000" font-family="sans-serif" font-size="14" font-weight="bold" lengthAdjust="spacing" textLength="130" x="403.5" y="123.0898">DotNetPreAdapter</text></g><!--class IMyTest--><a href="DotNetPreAdapter.IMyTest-diagram-detailed.svg" target="_top" title="DotNetPreAdapter.IMyTest-diagram-detailed.svg" xlink:actuate="onRequest" xlink:href="DotNetPreAdapter.IMyTest-diagram-detailed.svg" xlink:show="new" xlink:title="DotNetPreAdapter.IMyTest-diagram-detailed.svg" xlink:type="simple"><g id="elem_IMyTest"><rect codeLine="4" fill="#FFFF00" height="64.4883" id="IMyTest" rx="2.5" ry="2.5" style="stroke:#181818;stroke-width:0.5;" width="87" x="429" y="142.5547"/><ellipse cx="445.35" cy="158.5547" fill="#B4A7E5" rx="11" ry="11" style="stroke:#181818;stroke-width:1.0;"/><path d="M441.7777,154.8198 L441.7777,152.6616 L449.1571,152.6616 L449.1571,154.8198 L446.6918,154.8198 L446.6918,162.8965 L449.1571,162.8965 L449.1571,165.0547 L441.7777,165.0547 L441.7777,162.8965 L444.2431,162.8965 L444.2431,154.8198 Z " fill="#000000"/><text fill="#000000" font-family="sans-serif" font-size="14" font-style="italic" lengthAdjust="spacing" textLength="52" x="459.65" y="163.8457">IMyTest</text><line style="stroke:#181818;stroke-width:0.5;" x1="430" x2="515" y1="174.5547" y2="174.5547"/><line style="stroke:#181818;stroke-width:0.5;" x1="430" x2="515" y1="182.5547" y2="182.5547"/><ellipse cx="440" cy="196.2988" fill="#84BE84" rx="3" ry="3" style="stroke:#038048;stroke-width:1.0;"/><text fill="#000000" font-family="sans-serif" font-size="14" lengthAdjust="spacing" textLength="56" x="449" y="200.0898">unused(</text><text fill="#000000" font-family="sans-serif" font-size="14" lengthAdjust="spacing" textLength="5" x="505" y="200.0898">)</text></g></a><!--class InnerClass--><a href="DotNetPreAdapter.InnerClass-diagram-detailed.svg" target="_top" title="DotNetPreAdapter.InnerClass-diagram-detailed.svg" xlink:actuate="onRequest" xlink:href="DotNetPreAdapter.InnerClass-diagram-detailed.svg" xlink:show="new" xlink:title="DotNetPreAdapter.InnerClass-diagram-detailed.svg" xlink:type="simple"><g id="elem_InnerClass"><rect codeLine="7" fill="#F1F1F1" height="64.4883" id="InnerClass" rx="2.5" ry="2.5" style="stroke:#181818;stroke-width:0.5;" width="104" x="420.5" y="358.5547"/><ellipse cx="435.5" cy="374.5547" fill="#A9DCDF" rx="11" ry="11" style="stroke:#181818;stroke-width:1.0;"/><path d="M435.3633,369.9028 L434.2095,374.9746 L436.5254,374.9746 Z M433.8691,367.6616 L436.8657,367.6616 L440.2109,380.0547 L437.7622,380.0547 L436.9985,376.9917 L433.7197,376.9917 L432.9727,380.0547 L430.5239,380.0547 Z " fill="#000000"/><text fill="#000000" font-family="sans-serif" font-size="14" font-style="italic" lengthAdjust="spacing" textLength="72" x="449.5" y="379.8457">InnerClass</text><line style="stroke:#181818;stroke-width:0.5;" x1="421.5" x2="523.5" y1="390.5547" y2="390.5547"/><line style="stroke:#181818;stroke-width:0.5;" x1="421.5" x2="523.5" y1="398.5547" y2="398.5547"/><ellipse cx="431.5" cy="412.2988" fill="#84BE84" rx="3" ry="3" style="stroke:#038048;stroke-width:1.0;"/><text fill="#000000" font-family="sans-serif" font-size="14" lengthAdjust="spacing" textLength="56" x="440.5" y="416.0898">unused(</text><text fill="#000000" font-family="sans-serif" font-size="14" lengthAdjust="spacing" textLength="5" x="496.5" y="416.0898">)</text></g></a><g id="elem_FloatingNote"><path d="M6,50.5547 L6,298.2129 L383,298.2129 L383,60.5547 L373,50.5547 L6,50.5547 " fill="#FEFFDD" style="stroke:#181818;stroke-width:0.5;"/><path d="M373,50.5547 L373,60.5547 L383,60.5547 L373,50.5547 " fill="#FEFFDD" style="stroke:#181818;stroke-width:1.0;"/><text fill="#000000" font-family="sans-serif" font-size="13" lengthAdjust="spacing" textLength="120" x="12" y="68.123">Your are analyzing:</text><text fill="#000000" font-family="sans-serif" font-size="13" lengthAdjust="spacing" textLength="166" x="12" y="83.4336">DotNetPreAdapter.IMyTest</text><text fill="#000000" font-family="sans-serif" font-size="13" font-weight="bold" lengthAdjust="spacing" textLength="55" x="182" y="83.4336">detailed</text><text fill="#000000" font-family="sans-serif" font-size="13" lengthAdjust="spacing" textLength="4" x="237" y="83.4336">&#160;</text><text fill="#000000" font-family="sans-serif" font-size="13" lengthAdjust="spacing" textLength="4" x="12" y="98.7441">&#160;</text><text fill="#000000" font-family="sans-serif" font-size="13" lengthAdjust="spacing" textLength="229" x="12" y="129.3652">You can click either the namespaces</text><text fill="#000000" font-family="sans-serif" font-size="13" lengthAdjust="spacing" textLength="266" x="12" y="144.6758">or class names for filtering them and their</text><text fill="#000000" font-family="sans-serif" font-size="13" lengthAdjust="spacing" textLength="130" x="12" y="159.9863">direct dependencies.</text><text fill="#000000" font-family="sans-serif" font-size="13" lengthAdjust="spacing" textLength="4" x="12" y="175.2969">&#160;</text><line style="stroke:#181818;stroke-width:1.0;" x1="7" x2="178.5" y1="109.1416" y2="109.1416"/><line style="stroke:#181818;stroke-width:1.0;" x1="7" x2="178.5" y1="111.1416" y2="111.1416"/><text fill="#000000" font-family="sans-serif" font-size="13" lengthAdjust="spacing" textLength="32" x="178.5" y="113.5547">Filter</text><line style="stroke:#181818;stroke-width:1.0;" x1="210.5" x2="382" y1="109.1416" y2="109.1416"/><line style="stroke:#181818;stroke-width:1.0;" x1="210.5" x2="382" y1="111.1416" y2="111.1416"/><ellipse cx="17.5" cy="205.1602" fill="#000000" rx="2.5" ry="2.5" style="stroke:#000000;stroke-width:0.0;"/><text fill="#000000" font-family="sans-serif" font-size="13" lengthAdjust="spacing" textLength="166" x="24" y="209.918">DotNetPreAdapter.IMyTest</text><text fill="#000000" font-family="sans-serif" font-size="13" font-weight="bold" lengthAdjust="spacing" textLength="67" x="194" y="209.918">simplified</text><text fill="#000000" font-family="sans-serif" font-size="13" lengthAdjust="spacing" textLength="4" x="265" y="209.918">:</text><text fill="#000000" font-family="sans-serif" font-size="13" lengthAdjust="spacing" textLength="12" x="12" y="225.2285">&#160;&#160;&#160;</text><a href="DotNetPreAdapter.IMyTest-diagram-simplified.svg" target="_top" title="DotNetPreAdapter.IMyTest-diagram-simplified.svg" xlink:actuate="onRequest" xlink:href="DotNetPreAdapter.IMyTest-diagram-simplified.svg" xlink:show="new" xlink:title="DotNetPreAdapter.IMyTest-diagram-simplified.svg" xlink:type="simple"><text fill="#0000FF" font-family="sans-serif" font-size="13" lengthAdjust="spacing" text-decoration="underline" textLength="322" x="24" y="225.2285">DotNetPreAdapter.IMyTest-diagram-simplified.svg</text></a><ellipse cx="17.5" cy="235.7813" fill="#000000" rx="2.5" ry="2.5" style="stroke:#000000;stroke-width:0.0;"/><text fill="#000000" font-family="sans-serif" font-size="13" lengthAdjust="spacing" textLength="78" x="24" y="240.5391">Full diagram</text><text fill="#000000" font-family="sans-serif" font-size="13" font-weight="bold" lengthAdjust="spacing" textLength="55" x="106" y="240.5391">detailed</text><text fill="#000000" font-family="sans-serif" font-size="13" lengthAdjust="spacing" textLength="23" x="165" y="240.5391">and</text><text fill="#000000" font-family="sans-serif" font-size="13" font-weight="bold" lengthAdjust="spacing" textLength="166" x="192" y="240.5391">grouped per namespace</text><text fill="#000000" font-family="sans-serif" font-size="13" lengthAdjust="spacing" textLength="4" x="358" y="240.5391">:</text><text fill="#000000" font-family="sans-serif" font-size="13" lengthAdjust="spacing" textLength="12" x="12" y="255.8496">&#160;&#160;&#160;</text><a href="full-diagram-detailed-grouped-per-namespace.svg" target="_top" title="full-diagram-detailed-grouped-per-namespace.svg" xlink:actuate="onRequest" xlink:href="full-diagram-detailed-grouped-per-namespace.svg" xlink:show="new" xlink:title="full-diagram-detailed-grouped-per-namespace.svg" xlink:type="simple"><text fill="#0000FF" font-family="sans-serif" font-size="13" lengthAdjust="spacing" text-decoration="underline" textLength="330" x="24" y="255.8496">full-diagram-detailed-grouped-per-namespace.svg</text></a><ellipse cx="17.5" cy="266.4023" fill="#000000" rx="2.5" ry="2.5" style="stroke:#000000;stroke-width:0.0;"/><text fill="#000000" font-family="sans-serif" font-size="13" lengthAdjust="spacing" textLength="41" x="24" y="271.1602">Home:</text><text fill="#000000" font-family="sans-serif" font-size="13" lengthAdjust="spacing" textLength="12" x="12" y="286.4707">&#160;&#160;&#160;</text><a href="index.html" target="_top" title="index.html" xlink:actuate="onRequest" xlink:href="index.html" xlink:show="new" xlink:title="index.html" xlink:type="simple"><text fill="#0000FF" font-family="sans-serif" font-size="13" lengthAdjust="spacing" text-decoration="underline" textLength="68" x="24" y="286.4707">index.html</text></a><line style="stroke:#181818;stroke-width:1.0;" x1="7" x2="157.5" y1="189.6943" y2="189.6943"/><line style="stroke:#181818;stroke-width:1.0;" x1="7" x2="157.5" y1="191.6943" y2="191.6943"/><text fill="#000000" font-family="sans-serif" font-size="13" lengthAdjust="spacing" textLength="74" x="157.5" y="194.1074">Select other</text><line style="stroke:#181818;stroke-width:1.0;" x1="231.5" x2="382" y1="189.6943" y2="189.6943"/><line style="stroke:#181818;stroke-width:1.0;" x1="231.5" x2="382" y1="191.6943" y2="191.6943"/></g><!--reverse link IMyTest to InnerClass--><g id="link_IMyTest_InnerClass"><path codeLine="15" d="M472.5,227.8947 C472.5,227.8947 472.5,358.3447 472.5,358.3447 " fill="none" id="IMyTest-backto-InnerClass" style="stroke:#FF0000;stroke-width:1.0;"/><polygon fill="none" points="465.5,227.8947,472.5,207.8947,479.5,227.8947,465.5,227.8947" style="stroke:#FF0000;stroke-width:1.0;"/></g><!--SRC=[jLB1RjD04BtxAqRfeR38QSIXXyYEHAcYza2519Sgzc7h7IUZhcUjtJKq1VwTSTmaAf0gFU23PU-yD-_DcmttnAtskW5BZ77T8ZWVLow952r25kWHf-ydiqiNRp1-zlZ1w3QY7rz_Md_5444fWr6JHQCKP6SzVfQmYmYZMzTvq1v1ixRhH-BbjE3Z6XLSS9xFoGeYpmkMLb1fXifITGz8SOKUv0Mi6mojhZ08nta1w126KwZblzwq4EaUtOWJqt-GBzYGnog2mHRP85U4OJp8Va7RLrmlqeihUC5qeAQrLDF6jim708l58NngI2ybx7JF6eTloxBiHUQTjV04U9v6xrgffNTTYmPQ6Nqtjb9RpLhek_vRSlf4IeMKxaXxpIlNuBO1IGmFurLiR5cEG0UOMwUZH7SZsqo8POvQo8V3E6BkhQ_10PoiqLht7Nua0E-WuowWUPFLZYDKpZgVZyudvvEBYz4iE-jFPs-JNuc-2z5hMT2mwxyrcT5_tDJ-vMXNFMJgTMxWL5Ppr0F_3NiAmxWUhIpCSG1ys4GajwNshjbVbwbW_umaERZGx6UwEF5eolIbb7y3]--></g></svg>