<?xml version="1.0" encoding="us-ascii" standalone="no"?><svg xmlns="http://www.w3.org/2000/svg" xmlns:xlink="http://www.w3.org/1999/xlink" contentStyleType="text/css" height="453px" preserveAspectRatio="none" style="width:867px;height:453px;background:#FFFFFF;" version="1.1" viewBox="0 0 867 453" width="867px" zoomAndPan="magnify"><defs/><g><text fill="#000000" font-family="sans-serif" font-size="20" font-weight="bold" lengthAdjust="spacing" textLength="427" x="10" y="29.3359">DotNetPreAdapter.Service.SemanticModel</text><text fill="#000000" font-family="sans-serif" font-size="20" font-weight="bold" lengthAdjust="spacing" textLength="104" x="444" y="29.3359">simplified</text><text fill="#000000" font-family="sans-serif" font-size="20" font-weight="bold" lengthAdjust="spacing" textLength="38" x="555" y="29.3359">and</text><text fill="#000000" font-family="sans-serif" font-size="20" font-weight="bold" lengthAdjust="spacing" textLength="249" x="600" y="29.3359">grouped per namespace</text><!--cluster DotNetPreAdapter--><g id="cluster_DotNetPreAdapter"><a href="DotNetPreAdapter-diagram-simplified-grouped-per-namespace.svg" target="_top" title="DotNetPreAdapter-diagram-simplified-grouped-per-namespace.svg" xlink:actuate="onRequest" xlink:href="DotNetPreAdapter-diagram-simplified-grouped-per-namespace.svg" xlink:show="new" xlink:title="DotNetPreAdapter-diagram-simplified-grouped-per-namespace.svg" xlink:type="simple"><path d="M642.5,72.5547 L773.5,72.5547 A3.75,3.75 0 0 1 776,75.0547 L783,95.043 L853.5,95.043 A2.5,2.5 0 0 1 856,97.543 L856,444.0547 A2.5,2.5 0 0 1 853.5,446.5547 L642.5,446.5547 A2.5,2.5 0 0 1 640,444.0547 L640,75.0547 A2.5,2.5 0 0 1 642.5,72.5547 " fill="none" style="stroke:#000000;stroke-width:1.5;"/><line style="stroke:#000000;stroke-width:1.5;" x1="640" x2="783" y1="95.043" y2="95.043"/><text fill="#000000" font-family="sans-serif" font-size="14" font-weight="bold" lengthAdjust="spacing" textLength="130" x="644" y="88.0898">DotNetPreAdapter</text></a></g><!--cluster Service--><g id="cluster_Service"><a href="DotNetPreAdapter.Service-diagram-simplified-grouped-per-namespace.svg" target="_top" title="DotNetPreAdapter.Service-diagram-simplified-grouped-per-namespace.svg" xlink:actuate="onRequest" xlink:href="DotNetPreAdapter.Service-diagram-simplified-grouped-per-namespace.svg" xlink:show="new" xlink:title="DotNetPreAdapter.Service-diagram-simplified-grouped-per-namespace.svg" xlink:type="simple"><path d="M666.5,115.5547 L717.5,115.5547 A3.75,3.75 0 0 1 720,118.0547 L727,138.043 L829.5,138.043 A2.5,2.5 0 0 1 832,140.543 L832,420.0547 A2.5,2.5 0 0 1 829.5,422.5547 L666.5,422.5547 A2.5,2.5 0 0 1 664,420.0547 L664,118.0547 A2.5,2.5 0 0 1 666.5,115.5547 " fill="none" style="stroke:#000000;stroke-width:1.5;"/><line style="stroke:#000000;stroke-width:1.5;" x1="664" x2="727" y1="138.043" y2="138.043"/><text fill="#000000" font-family="sans-serif" font-size="14" font-weight="bold" lengthAdjust="spacing" textLength="50" x="668" y="131.0898">Service</text></a></g><!--class SemanticModel--><a href="DotNetPreAdapter.Service.SemanticModel-diagram-simplified-grouped-per-namespace.svg" target="_top" title="DotNetPreAdapter.Service.SemanticModel-diagram-simplified-grouped-per-namespace.svg" xlink:actuate="onRequest" xlink:href="DotNetPreAdapter.Service.SemanticModel-diagram-simplified-grouped-per-namespace.svg" xlink:show="new" xlink:title="DotNetPreAdapter.Service.SemanticModel-diagram-simplified-grouped-per-namespace.svg" xlink:type="simple"><g id="elem_SemanticModel"><rect codeLine="4" fill="#FFFF00" height="48" id="SemanticModel" rx="2.5" ry="2.5" style="stroke:#181818;stroke-width:0.5;" width="136" x="680" y="358.5547"/><ellipse cx="695" cy="374.5547" fill="#ADD1B2" rx="11" ry="11" style="stroke:#181818;stroke-width:1.0;"/><path d="M697.4731,380.6978 Q696.8921,380.9966 696.2529,381.146 Q695.6138,381.2954 694.9082,381.2954 Q692.4014,381.2954 691.0815,379.6436 Q689.7617,377.9917 689.7617,374.8706 Q689.7617,371.7412 691.0815,370.0894 Q692.4014,368.4375 694.9082,368.4375 Q695.6138,368.4375 696.2612,368.5869 Q696.9087,368.7363 697.4731,369.0352 L697.4731,371.7578 Q696.8423,371.1768 696.2488,370.907 Q695.6553,370.6372 695.0244,370.6372 Q693.6797,370.6372 692.9949,371.7039 Q692.3101,372.7705 692.3101,374.8706 Q692.3101,376.9624 692.9949,378.0291 Q693.6797,379.0957 695.0244,379.0957 Q695.6553,379.0957 696.2488,378.8259 Q696.8423,378.5562 697.4731,377.9751 Z " fill="#000000"/><text fill="#000000" font-family="sans-serif" font-size="14" lengthAdjust="spacing" textLength="104" x="709" y="379.8457">SemanticModel</text><line style="stroke:#181818;stroke-width:0.5;" x1="681" x2="815" y1="390.5547" y2="390.5547"/><line style="stroke:#181818;stroke-width:0.5;" x1="681" x2="815" y1="398.5547" y2="398.5547"/></g></a><!--class AnalyzeAST--><a href="DotNetPreAdapter.Service.AnalyzeAST-diagram-simplified-grouped-per-namespace.svg" target="_top" title="DotNetPreAdapter.Service.AnalyzeAST-diagram-simplified-grouped-per-namespace.svg" xlink:actuate="onRequest" xlink:href="DotNetPreAdapter.Service.AnalyzeAST-diagram-simplified-grouped-per-namespace.svg" xlink:show="new" xlink:title="DotNetPreAdapter.Service.AnalyzeAST-diagram-simplified-grouped-per-namespace.svg" xlink:type="simple"><g id="elem_AnalyzeAST"><rect codeLine="9" fill="#F1F1F1" height="48" id="AnalyzeAST" rx="2.5" ry="2.5" style="stroke:#181818;stroke-width:0.5;" width="113" x="691.5" y="150.5547"/><ellipse cx="706.5" cy="166.5547" fill="#A9DCDF" rx="11" ry="11" style="stroke:#181818;stroke-width:1.0;"/><path d="M706.3633,161.9028 L705.2095,166.9746 L707.5254,166.9746 Z M704.8691,159.6616 L707.8657,159.6616 L711.2109,172.0547 L708.7622,172.0547 L707.9985,168.9917 L704.7197,168.9917 L703.9727,172.0547 L701.5239,172.0547 Z " fill="#000000"/><text fill="#000000" font-family="sans-serif" font-size="14" font-style="italic" lengthAdjust="spacing" textLength="81" x="720.5" y="171.8457">AnalyzeAST</text><line style="stroke:#181818;stroke-width:0.5;" x1="692.5" x2="803.5" y1="182.5547" y2="182.5547"/><line style="stroke:#181818;stroke-width:0.5;" x1="692.5" x2="803.5" y1="190.5547" y2="190.5547"/></g></a><g id="elem_FloatingNote"><path d="M16,50.5547 L16,298.2129 L624,298.2129 L624,60.5547 L614,50.5547 L16,50.5547 " fill="#FEFFDD" style="stroke:#181818;stroke-width:0.5;"/><path d="M614,50.5547 L614,60.5547 L624,60.5547 L614,50.5547 " fill="#FEFFDD" style="stroke:#181818;stroke-width:1.0;"/><text fill="#000000" font-family="sans-serif" font-size="13" lengthAdjust="spacing" textLength="120" x="22" y="68.123">Your are analyzing:</text><text fill="#000000" font-family="sans-serif" font-size="13" lengthAdjust="spacing" textLength="260" x="22" y="83.4336">DotNetPreAdapter.Service.SemanticModel</text><text fill="#000000" font-family="sans-serif" font-size="13" font-weight="bold" lengthAdjust="spacing" textLength="67" x="286" y="83.4336">simplified</text><text fill="#000000" font-family="sans-serif" font-size="13" lengthAdjust="spacing" textLength="23" x="357" y="83.4336">and</text><text fill="#000000" font-family="sans-serif" font-size="13" font-weight="bold" lengthAdjust="spacing" textLength="166" x="384" y="83.4336">grouped per namespace</text><text fill="#000000" font-family="sans-serif" font-size="13" lengthAdjust="spacing" textLength="4" x="22" y="98.7441">&#160;</text><text fill="#000000" font-family="sans-serif" font-size="13" lengthAdjust="spacing" textLength="229" x="22" y="129.3652">You can click either the namespaces</text><text fill="#000000" font-family="sans-serif" font-size="13" lengthAdjust="spacing" textLength="266" x="22" y="144.6758">or class names for filtering them and their</text><text fill="#000000" font-family="sans-serif" font-size="13" lengthAdjust="spacing" textLength="130" x="22" y="159.9863">direct dependencies.</text><text fill="#000000" font-family="sans-serif" font-size="13" lengthAdjust="spacing" textLength="4" x="22" y="175.2969">&#160;</text><line style="stroke:#181818;stroke-width:1.0;" x1="17" x2="304" y1="109.1416" y2="109.1416"/><line style="stroke:#181818;stroke-width:1.0;" x1="17" x2="304" y1="111.1416" y2="111.1416"/><text fill="#000000" font-family="sans-serif" font-size="13" lengthAdjust="spacing" textLength="32" x="304" y="113.5547">Filter</text><line style="stroke:#181818;stroke-width:1.0;" x1="336" x2="623" y1="109.1416" y2="109.1416"/><line style="stroke:#181818;stroke-width:1.0;" x1="336" x2="623" y1="111.1416" y2="111.1416"/><ellipse cx="27.5" cy="205.1602" fill="#000000" rx="2.5" ry="2.5" style="stroke:#000000;stroke-width:0.0;"/><text fill="#000000" font-family="sans-serif" font-size="13" lengthAdjust="spacing" textLength="260" x="34" y="209.918">DotNetPreAdapter.Service.SemanticModel</text><text fill="#000000" font-family="sans-serif" font-size="13" font-weight="bold" lengthAdjust="spacing" textLength="55" x="298" y="209.918">detailed</text><text fill="#000000" font-family="sans-serif" font-size="13" lengthAdjust="spacing" textLength="23" x="357" y="209.918">and</text><text fill="#000000" font-family="sans-serif" font-size="13" font-weight="bold" lengthAdjust="spacing" textLength="166" x="384" y="209.918">grouped per namespace</text><text fill="#000000" font-family="sans-serif" font-size="13" lengthAdjust="spacing" textLength="4" x="550" y="209.918">:</text><text fill="#000000" font-family="sans-serif" font-size="13" lengthAdjust="spacing" textLength="12" x="22" y="225.2285">&#160;&#160;&#160;</text><a href="DotNetPreAdapter.Service.SemanticModel-diagram-detailed-grouped-per-namespace.svg" target="_top" title="DotNetPreAdapter.Service.SemanticModel-diagram-detailed-grouped-per-namespace.svg" xlink:actuate="onRequest" xlink:href="DotNetPreAdapter.Service.SemanticModel-diagram-detailed-grouped-per-namespace.svg" xlink:show="new" xlink:title="DotNetPreAdapter.Service.SemanticModel-diagram-detailed-grouped-per-namespace.svg" xlink:type="simple"><text fill="#0000FF" font-family="sans-serif" font-size="13" lengthAdjust="spacing" text-decoration="underline" textLength="569" x="34" y="225.2285">DotNetPreAdapter.Service.SemanticModel-diagram-detailed-grouped-per-namespace.svg</text></a><ellipse cx="27.5" cy="235.7813" fill="#000000" rx="2.5" ry="2.5" style="stroke:#000000;stroke-width:0.0;"/><text fill="#000000" font-family="sans-serif" font-size="13" lengthAdjust="spacing" textLength="78" x="34" y="240.5391">Full diagram</text><text fill="#000000" font-family="sans-serif" font-size="13" font-weight="bold" lengthAdjust="spacing" textLength="67" x="116" y="240.5391">simplified</text><text fill="#000000" font-family="sans-serif" font-size="13" lengthAdjust="spacing" textLength="23" x="187" y="240.5391">and</text><text fill="#000000" font-family="sans-serif" font-size="13" font-weight="bold" lengthAdjust="spacing" textLength="166" x="214" y="240.5391">grouped per namespace</text><text fill="#000000" font-family="sans-serif" font-size="13" lengthAdjust="spacing" textLength="4" x="380" y="240.5391">:</text><text fill="#000000" font-family="sans-serif" font-size="13" lengthAdjust="spacing" textLength="12" x="22" y="255.8496">&#160;&#160;&#160;</text><a href="full-diagram-simplified-grouped-per-namespace.svg" target="_top" title="full-diagram-simplified-grouped-per-namespace.svg" xlink:actuate="onRequest" xlink:href="full-diagram-simplified-grouped-per-namespace.svg" xlink:show="new" xlink:title="full-diagram-simplified-grouped-per-namespace.svg" xlink:type="simple"><text fill="#0000FF" font-family="sans-serif" font-size="13" lengthAdjust="spacing" text-decoration="underline" textLength="343" x="34" y="255.8496">full-diagram-simplified-grouped-per-namespace.svg</text></a><ellipse cx="27.5" cy="266.4023" fill="#000000" rx="2.5" ry="2.5" style="stroke:#000000;stroke-width:0.0;"/><text fill="#000000" font-family="sans-serif" font-size="13" lengthAdjust="spacing" textLength="41" x="34" y="271.1602">Home:</text><text fill="#000000" font-family="sans-serif" font-size="13" lengthAdjust="spacing" textLength="12" x="22" y="286.4707">&#160;&#160;&#160;</text><a href="index.html" target="_top" title="index.html" xlink:actuate="onRequest" xlink:href="index.html" xlink:show="new" xlink:title="index.html" xlink:type="simple"><text fill="#0000FF" font-family="sans-serif" font-size="13" lengthAdjust="spacing" text-decoration="underline" textLength="68" x="34" y="286.4707">index.html</text></a><line style="stroke:#181818;stroke-width:1.0;" x1="17" x2="283" y1="189.6943" y2="189.6943"/><line style="stroke:#181818;stroke-width:1.0;" x1="17" x2="283" y1="191.6943" y2="191.6943"/><text fill="#000000" font-family="sans-serif" font-size="13" lengthAdjust="spacing" textLength="74" x="283" y="194.1074">Select other</text><line style="stroke:#181818;stroke-width:1.0;" x1="357" x2="623" y1="189.6943" y2="189.6943"/><line style="stroke:#181818;stroke-width:1.0;" x1="357" x2="623" y1="191.6943" y2="191.6943"/></g><!--link AnalyzeAST to SemanticModel--><g id="link_AnalyzeAST_SemanticModel"><path codeLine="24" d="M748,198.8247 C748,198.8247 748,352.1247 748,352.1247 " fill="none" id="AnalyzeAST-to-SemanticModel" style="stroke:#909090;stroke-width:1.0;"/><polygon fill="#909090" points="748,357.1247,752,348.1247,748,352.1247,744,348.1247,748,357.1247" style="stroke:#909090;stroke-width:1.0;"/><text fill="#000000" font-family="sans-serif" font-size="13" lengthAdjust="spacing" textLength="29" x="718" y="272.043">uses</text></g><!--SRC=[lLHDQzj04BthLmp98I2G6dghYGqcnVHIKt0lnJ9chHtPGrQxOdVbn0dzxvsLFqHAOqi7LnQoBSsycNdlQTmJwKfOKO8YZNvN8HZhDoRov1N2WwDN77o-7tqrVeh-XyMn59L7cyxGRYb7_Yw5zfH_Dn8LnB6Zib9K4Ceu1g4btrfRKrSeeK8BMfJeAf5Z73zy2k2ZI1kFSFFBr1Q4HSuHQlTAUZt8z1MgPZhJm-645CCDXvdckf0B3RcY_0cG_8RZ-TBcECYqiHmWdDlVXOB_5mq4zncYowOe_o2RQKaMSmyIAzGITKxeqdtP6Qhmn8GYeNWCdIUKw0Mfo_CnQm0mdtS3JYI9DQkV7E6J0sp2iCa9DdNRzM8H-ftKIi4XgHVlnxuA1ZXLRTClrVrcIZn24BFwacvygHQB6n0E9ie8pqfCsKdHNgUElFRcgLl7SBj3fSmpl4M_epjuLCO5emZchhAu9LExfQjNorFQKf7pBLqmDHfXXRce7GQd7LuBHmxuB4YJsw1CepRZxpd-CLhV8TxEm1zfEiDW_t80OkMy5VoAN51nt2m97Cz-dfEmZUhRIzCCI_TeIjwExER_omGyynu2fi03RumIDU-C0fgEhcYc5hlDFKpmpiOVSy5XSCSxeDC1LuiDhGRxM5Iy5unsW2-DhLZ8mfgodM30iJt3Fn8vwcBMP7xxvJvy5icewuw20R1m3lu0]--></g></svg>