<?xml version="1.0" encoding="us-ascii" standalone="no"?><svg xmlns="http://www.w3.org/2000/svg" xmlns:xlink="http://www.w3.org/1999/xlink" contentStyleType="text/css" height="792px" preserveAspectRatio="none" style="width:1390px;height:792px;background:#FFFFFF;" version="1.1" viewBox="0 0 1390 792" width="1390px" zoomAndPan="magnify"><defs/><g><text fill="#000000" font-family="sans-serif" font-size="20" font-weight="bold" lengthAdjust="spacing" textLength="266" x="496" y="29.3359">DotNetPreAdapter.Service</text><text fill="#000000" font-family="sans-serif" font-size="20" font-weight="bold" lengthAdjust="spacing" textLength="104" x="769" y="29.3359">simplified</text><text fill="#000000" font-family="sans-serif" font-size="20" font-weight="bold" lengthAdjust="spacing" textLength="7" x="873" y="29.3359">&#160;</text><!--cluster DotNetPreAdapter--><g id="cluster_DotNetPreAdapter"><path d="M414,115.5547 L545,115.5547 A3.75,3.75 0 0 1 547.5,118.0547 L554.5,138.043 L959,138.043 A2.5,2.5 0 0 1 961.5,140.543 L961.5,783.0547 A2.5,2.5 0 0 1 959,785.5547 L414,785.5547 A2.5,2.5 0 0 1 411.5,783.0547 L411.5,118.0547 A2.5,2.5 0 0 1 414,115.5547 " fill="none" style="stroke:#000000;stroke-width:1.5;"/><line style="stroke:#000000;stroke-width:1.5;" x1="411.5" x2="554.5" y1="138.043" y2="138.043"/><text fill="#000000" font-family="sans-serif" font-size="14" font-weight="bold" lengthAdjust="spacing" textLength="130" x="415.5" y="131.0898">DotNetPreAdapter</text></g><!--cluster Domain--><g id="cluster_Domain"><path d="M732,431.5547 L789,431.5547 A3.75,3.75 0 0 1 791.5,434.0547 L798.5,454.043 L885,454.043 A2.5,2.5 0 0 1 887.5,456.543 L887.5,636.0547 A2.5,2.5 0 0 1 885,638.5547 L732,638.5547 A2.5,2.5 0 0 1 729.5,636.0547 L729.5,434.0547 A2.5,2.5 0 0 1 732,431.5547 " fill="none" style="stroke:#000000;stroke-width:1.5;"/><line style="stroke:#000000;stroke-width:1.5;" x1="729.5" x2="798.5" y1="454.043" y2="454.043"/><text fill="#000000" font-family="sans-serif" font-size="14" font-weight="bold" lengthAdjust="spacing" textLength="56" x="733.5" y="447.0898">Domain</text></g><!--cluster Service--><g id="cluster_Service"><path d="M488,323.5547 L539,323.5547 A3.75,3.75 0 0 1 541.5,326.0547 L548.5,346.043 L703,346.043 A2.5,2.5 0 0 1 705.5,348.543 L705.5,528.0547 A2.5,2.5 0 0 1 703,530.5547 L488,530.5547 A2.5,2.5 0 0 1 485.5,528.0547 L485.5,326.0547 A2.5,2.5 0 0 1 488,323.5547 " fill="none" style="stroke:#000000;stroke-width:1.5;"/><line style="stroke:#000000;stroke-width:1.5;" x1="485.5" x2="548.5" y1="346.043" y2="346.043"/><text fill="#000000" font-family="sans-serif" font-size="14" font-weight="bold" lengthAdjust="spacing" textLength="50" x="489.5" y="339.0898">Service</text></g><!--cluster Utils--><g id="cluster_Utils"><path d="M791,662.5547 L826,662.5547 A3.75,3.75 0 0 1 828.5,665.0547 L835.5,685.043 L898,685.043 A2.5,2.5 0 0 1 900.5,687.543 L900.5,759.0547 A2.5,2.5 0 0 1 898,761.5547 L791,761.5547 A2.5,2.5 0 0 1 788.5,759.0547 L788.5,665.0547 A2.5,2.5 0 0 1 791,662.5547 " fill="none" style="stroke:#000000;stroke-width:1.5;"/><line style="stroke:#000000;stroke-width:1.5;" x1="788.5" x2="835.5" y1="685.043" y2="685.043"/><text fill="#000000" font-family="sans-serif" font-size="14" font-weight="bold" lengthAdjust="spacing" textLength="34" x="792.5" y="678.0898">Utils</text></g><!--class Program--><a href="DotNetPreAdapter.Program-diagram-simplified.svg" target="_top" title="DotNetPreAdapter.Program-diagram-simplified.svg" xlink:actuate="onRequest" xlink:href="DotNetPreAdapter.Program-diagram-simplified.svg" xlink:show="new" xlink:title="DotNetPreAdapter.Program-diagram-simplified.svg" xlink:type="simple"><g id="elem_Program"><rect codeLine="10" fill="#F1F1F1" height="48" id="Program" rx="2.5" ry="2.5" style="stroke:#181818;stroke-width:0.5;" width="91" x="720" y="150.5547"/><ellipse cx="735" cy="166.5547" fill="#A9DCDF" rx="11" ry="11" style="stroke:#181818;stroke-width:1.0;"/><path d="M734.8633,161.9028 L733.7095,166.9746 L736.0254,166.9746 Z M733.3691,159.6616 L736.3657,159.6616 L739.7109,172.0547 L737.2622,172.0547 L736.4985,168.9917 L733.2197,168.9917 L732.4727,172.0547 L730.0239,172.0547 Z " fill="#000000"/><text fill="#000000" font-family="sans-serif" font-size="14" font-style="italic" lengthAdjust="spacing" textLength="59" x="749" y="171.8457">Program</text><line style="stroke:#181818;stroke-width:0.5;" x1="721" x2="810" y1="182.5547" y2="182.5547"/><line style="stroke:#181818;stroke-width:0.5;" x1="721" x2="810" y1="190.5547" y2="190.5547"/></g></a><!--class Datastructure--><a href="DotNetPreAdapter.Domain.Datastructure-diagram-simplified.svg" target="_top" title="DotNetPreAdapter.Domain.Datastructure-diagram-simplified.svg" xlink:actuate="onRequest" xlink:href="DotNetPreAdapter.Domain.Datastructure-diagram-simplified.svg" xlink:show="new" xlink:title="DotNetPreAdapter.Domain.Datastructure-diagram-simplified.svg" xlink:type="simple"><g id="elem_Datastructure"><rect codeLine="12" fill="#F1F1F1" height="48" id="Datastructure" rx="2.5" ry="2.5" style="stroke:#181818;stroke-width:0.5;" width="125" x="746" y="574.5547"/><ellipse cx="761" cy="590.5547" fill="#A9DCDF" rx="11" ry="11" style="stroke:#181818;stroke-width:1.0;"/><path d="M760.8633,585.9028 L759.7095,590.9746 L762.0254,590.9746 Z M759.3691,583.6616 L762.3657,583.6616 L765.7109,596.0547 L763.2622,596.0547 L762.4985,592.9917 L759.2197,592.9917 L758.4727,596.0547 L756.0239,596.0547 Z " fill="#000000"/><text fill="#000000" font-family="sans-serif" font-size="14" font-style="italic" lengthAdjust="spacing" textLength="93" x="775" y="595.8457">Datastructure</text><line style="stroke:#181818;stroke-width:0.5;" x1="747" x2="870" y1="606.5547" y2="606.5547"/><line style="stroke:#181818;stroke-width:0.5;" x1="747" x2="870" y1="614.5547" y2="614.5547"/></g></a><!--class ASTVisitor--><a href="DotNetPreAdapter.Domain.ASTVisitor-diagram-simplified.svg" target="_top" title="DotNetPreAdapter.Domain.ASTVisitor-diagram-simplified.svg" xlink:actuate="onRequest" xlink:href="DotNetPreAdapter.Domain.ASTVisitor-diagram-simplified.svg" xlink:show="new" xlink:title="DotNetPreAdapter.Domain.ASTVisitor-diagram-simplified.svg" xlink:type="simple"><g id="elem_ASTVisitor"><rect codeLine="14" fill="#F1F1F1" height="48" id="ASTVisitor" rx="2.5" ry="2.5" style="stroke:#181818;stroke-width:0.5;" width="103" x="762" y="466.5547"/><ellipse cx="777" cy="482.5547" fill="#A9DCDF" rx="11" ry="11" style="stroke:#181818;stroke-width:1.0;"/><path d="M776.8633,477.9028 L775.7095,482.9746 L778.0254,482.9746 Z M775.3691,475.6616 L778.3657,475.6616 L781.7109,488.0547 L779.2622,488.0547 L778.4985,484.9917 L775.2197,484.9917 L774.4727,488.0547 L772.0239,488.0547 Z " fill="#000000"/><text fill="#000000" font-family="sans-serif" font-size="14" font-style="italic" lengthAdjust="spacing" textLength="71" x="791" y="487.8457">ASTVisitor</text><line style="stroke:#181818;stroke-width:0.5;" x1="763" x2="864" y1="498.5547" y2="498.5547"/><line style="stroke:#181818;stroke-width:0.5;" x1="763" x2="864" y1="506.5547" y2="506.5547"/></g></a><!--class AnalyzeAST--><a href="DotNetPreAdapter.Service.AnalyzeAST-diagram-simplified.svg" target="_top" title="DotNetPreAdapter.Service.AnalyzeAST-diagram-simplified.svg" xlink:actuate="onRequest" xlink:href="DotNetPreAdapter.Service.AnalyzeAST-diagram-simplified.svg" xlink:show="new" xlink:title="DotNetPreAdapter.Service.AnalyzeAST-diagram-simplified.svg" xlink:type="simple"><g id="elem_AnalyzeAST"><rect codeLine="16" fill="#FFFF00" height="48" id="AnalyzeAST" rx="2.5" ry="2.5" style="stroke:#181818;stroke-width:0.5;" width="113" x="576" y="358.5547"/><ellipse cx="591" cy="374.5547" fill="#A9DCDF" rx="11" ry="11" style="stroke:#181818;stroke-width:1.0;"/><path d="M590.8633,369.9028 L589.7095,374.9746 L592.0254,374.9746 Z M589.3691,367.6616 L592.3657,367.6616 L595.7109,380.0547 L593.2622,380.0547 L592.4985,376.9917 L589.2197,376.9917 L588.4727,380.0547 L586.0239,380.0547 Z " fill="#000000"/><text fill="#000000" font-family="sans-serif" font-size="14" font-style="italic" lengthAdjust="spacing" textLength="81" x="605" y="379.8457">AnalyzeAST</text><line style="stroke:#181818;stroke-width:0.5;" x1="577" x2="688" y1="390.5547" y2="390.5547"/><line style="stroke:#181818;stroke-width:0.5;" x1="577" x2="688" y1="398.5547" y2="398.5547"/></g></a><!--class RecursiveFileProcessor--><a href="DotNetPreAdapter.Service.RecursiveFileProcessor-diagram-simplified.svg" target="_top" title="DotNetPreAdapter.Service.RecursiveFileProcessor-diagram-simplified.svg" xlink:actuate="onRequest" xlink:href="DotNetPreAdapter.Service.RecursiveFileProcessor-diagram-simplified.svg" xlink:show="new" xlink:title="DotNetPreAdapter.Service.RecursiveFileProcessor-diagram-simplified.svg" xlink:type="simple"><g id="elem_RecursiveFileProcessor"><rect codeLine="18" fill="#FFFF00" height="48" id="RecursiveFileProcessor" rx="2.5" ry="2.5" style="stroke:#181818;stroke-width:0.5;" width="188" x="501.5" y="466.5547"/><ellipse cx="516.5" cy="482.5547" fill="#A9DCDF" rx="11" ry="11" style="stroke:#181818;stroke-width:1.0;"/><path d="M516.3633,477.9028 L515.2095,482.9746 L517.5254,482.9746 Z M514.8691,475.6616 L517.8657,475.6616 L521.2109,488.0547 L518.7622,488.0547 L517.9985,484.9917 L514.7197,484.9917 L513.9727,488.0547 L511.5239,488.0547 Z " fill="#000000"/><text fill="#000000" font-family="sans-serif" font-size="14" font-style="italic" lengthAdjust="spacing" textLength="156" x="530.5" y="487.8457">RecursiveFileProcessor</text><line style="stroke:#181818;stroke-width:0.5;" x1="502.5" x2="688.5" y1="498.5547" y2="498.5547"/><line style="stroke:#181818;stroke-width:0.5;" x1="502.5" x2="688.5" y1="506.5547" y2="506.5547"/></g></a><!--class Logger--><a href="DotNetPreAdapter.Utils.Logger-diagram-simplified.svg" target="_top" title="DotNetPreAdapter.Utils.Logger-diagram-simplified.svg" xlink:actuate="onRequest" xlink:href="DotNetPreAdapter.Utils.Logger-diagram-simplified.svg" xlink:show="new" xlink:title="DotNetPreAdapter.Utils.Logger-diagram-simplified.svg" xlink:type="simple"><g id="elem_Logger"><rect codeLine="20" fill="#F1F1F1" height="48" id="Logger" rx="2.5" ry="2.5" style="stroke:#181818;stroke-width:0.5;" width="80" x="804.5" y="697.5547"/><ellipse cx="819.5" cy="713.5547" fill="#A9DCDF" rx="11" ry="11" style="stroke:#181818;stroke-width:1.0;"/><path d="M819.3633,708.9028 L818.2095,713.9746 L820.5254,713.9746 Z M817.8691,706.6616 L820.8657,706.6616 L824.2109,719.0547 L821.7622,719.0547 L820.9985,715.9917 L817.7197,715.9917 L816.9727,719.0547 L814.5239,719.0547 Z " fill="#000000"/><text fill="#000000" font-family="sans-serif" font-size="14" font-style="italic" lengthAdjust="spacing" textLength="48" x="833.5" y="718.8457">Logger</text><line style="stroke:#181818;stroke-width:0.5;" x1="805.5" x2="883.5" y1="729.5547" y2="729.5547"/><line style="stroke:#181818;stroke-width:0.5;" x1="805.5" x2="883.5" y1="737.5547" y2="737.5547"/></g></a><g id="elem_FloatingNote"><path d="M6,50.5547 L6,298.2129 L395,298.2129 L395,60.5547 L385,50.5547 L6,50.5547 " fill="#FEFFDD" style="stroke:#181818;stroke-width:0.5;"/><path d="M385,50.5547 L385,60.5547 L395,60.5547 L385,50.5547 " fill="#FEFFDD" style="stroke:#181818;stroke-width:1.0;"/><text fill="#000000" font-family="sans-serif" font-size="13" lengthAdjust="spacing" textLength="120" x="12" y="68.123">Your are analyzing:</text><text fill="#000000" font-family="sans-serif" font-size="13" lengthAdjust="spacing" textLength="161" x="12" y="83.4336">DotNetPreAdapter.Service</text><text fill="#000000" font-family="sans-serif" font-size="13" font-weight="bold" lengthAdjust="spacing" textLength="67" x="177" y="83.4336">simplified</text><text fill="#000000" font-family="sans-serif" font-size="13" lengthAdjust="spacing" textLength="4" x="244" y="83.4336">&#160;</text><text fill="#000000" font-family="sans-serif" font-size="13" lengthAdjust="spacing" textLength="4" x="12" y="98.7441">&#160;</text><text fill="#000000" font-family="sans-serif" font-size="13" lengthAdjust="spacing" textLength="229" x="12" y="129.3652">You can click either the namespaces</text><text fill="#000000" font-family="sans-serif" font-size="13" lengthAdjust="spacing" textLength="266" x="12" y="144.6758">or class names for filtering them and their</text><text fill="#000000" font-family="sans-serif" font-size="13" lengthAdjust="spacing" textLength="130" x="12" y="159.9863">direct dependencies.</text><text fill="#000000" font-family="sans-serif" font-size="13" lengthAdjust="spacing" textLength="4" x="12" y="175.2969">&#160;</text><line style="stroke:#181818;stroke-width:1.0;" x1="7" x2="184.5" y1="109.1416" y2="109.1416"/><line style="stroke:#181818;stroke-width:1.0;" x1="7" x2="184.5" y1="111.1416" y2="111.1416"/><text fill="#000000" font-family="sans-serif" font-size="13" lengthAdjust="spacing" textLength="32" x="184.5" y="113.5547">Filter</text><line style="stroke:#181818;stroke-width:1.0;" x1="216.5" x2="394" y1="109.1416" y2="109.1416"/><line style="stroke:#181818;stroke-width:1.0;" x1="216.5" x2="394" y1="111.1416" y2="111.1416"/><ellipse cx="17.5" cy="205.1602" fill="#000000" rx="2.5" ry="2.5" style="stroke:#000000;stroke-width:0.0;"/><text fill="#000000" font-family="sans-serif" font-size="13" lengthAdjust="spacing" textLength="161" x="24" y="209.918">DotNetPreAdapter.Service</text><text fill="#000000" font-family="sans-serif" font-size="13" font-weight="bold" lengthAdjust="spacing" textLength="55" x="189" y="209.918">detailed</text><text fill="#000000" font-family="sans-serif" font-size="13" lengthAdjust="spacing" textLength="4" x="248" y="209.918">:</text><text fill="#000000" font-family="sans-serif" font-size="13" lengthAdjust="spacing" textLength="12" x="12" y="225.2285">&#160;&#160;&#160;</text><a href="DotNetPreAdapter.Service-diagram-detailed.svg" target="_top" title="DotNetPreAdapter.Service-diagram-detailed.svg" xlink:actuate="onRequest" xlink:href="DotNetPreAdapter.Service-diagram-detailed.svg" xlink:show="new" xlink:title="DotNetPreAdapter.Service-diagram-detailed.svg" xlink:type="simple"><text fill="#0000FF" font-family="sans-serif" font-size="13" lengthAdjust="spacing" text-decoration="underline" textLength="304" x="24" y="225.2285">DotNetPreAdapter.Service-diagram-detailed.svg</text></a><ellipse cx="17.5" cy="235.7813" fill="#000000" rx="2.5" ry="2.5" style="stroke:#000000;stroke-width:0.0;"/><text fill="#000000" font-family="sans-serif" font-size="13" lengthAdjust="spacing" textLength="78" x="24" y="240.5391">Full diagram</text><text fill="#000000" font-family="sans-serif" font-size="13" font-weight="bold" lengthAdjust="spacing" textLength="67" x="106" y="240.5391">simplified</text><text fill="#000000" font-family="sans-serif" font-size="13" lengthAdjust="spacing" textLength="23" x="177" y="240.5391">and</text><text fill="#000000" font-family="sans-serif" font-size="13" font-weight="bold" lengthAdjust="spacing" textLength="166" x="204" y="240.5391">grouped per namespace</text><text fill="#000000" font-family="sans-serif" font-size="13" lengthAdjust="spacing" textLength="4" x="370" y="240.5391">:</text><text fill="#000000" font-family="sans-serif" font-size="13" lengthAdjust="spacing" textLength="12" x="12" y="255.8496">&#160;&#160;&#160;</text><a href="full-diagram-simplified-grouped-per-namespace.svg" target="_top" title="full-diagram-simplified-grouped-per-namespace.svg" xlink:actuate="onRequest" xlink:href="full-diagram-simplified-grouped-per-namespace.svg" xlink:show="new" xlink:title="full-diagram-simplified-grouped-per-namespace.svg" xlink:type="simple"><text fill="#0000FF" font-family="sans-serif" font-size="13" lengthAdjust="spacing" text-decoration="underline" textLength="343" x="24" y="255.8496">full-diagram-simplified-grouped-per-namespace.svg</text></a><ellipse cx="17.5" cy="266.4023" fill="#000000" rx="2.5" ry="2.5" style="stroke:#000000;stroke-width:0.0;"/><text fill="#000000" font-family="sans-serif" font-size="13" lengthAdjust="spacing" textLength="41" x="24" y="271.1602">Home:</text><text fill="#000000" font-family="sans-serif" font-size="13" lengthAdjust="spacing" textLength="12" x="12" y="286.4707">&#160;&#160;&#160;</text><a href="index.html" target="_top" title="index.html" xlink:actuate="onRequest" xlink:href="index.html" xlink:show="new" xlink:title="index.html" xlink:type="simple"><text fill="#0000FF" font-family="sans-serif" font-size="13" lengthAdjust="spacing" text-decoration="underline" textLength="68" x="24" y="286.4707">index.html</text></a><line style="stroke:#181818;stroke-width:1.0;" x1="7" x2="163.5" y1="189.6943" y2="189.6943"/><line style="stroke:#181818;stroke-width:1.0;" x1="7" x2="163.5" y1="191.6943" y2="191.6943"/><text fill="#000000" font-family="sans-serif" font-size="13" lengthAdjust="spacing" textLength="74" x="163.5" y="194.1074">Select other</text><line style="stroke:#181818;stroke-width:1.0;" x1="237.5" x2="394" y1="189.6943" y2="189.6943"/><line style="stroke:#181818;stroke-width:1.0;" x1="237.5" x2="394" y1="191.6943" y2="191.6943"/></g><!--class SyntaxTree--><a href="SyntaxTree-diagram-simplified.svg" target="_top" title="SyntaxTree-diagram-simplified.svg" xlink:actuate="onRequest" xlink:href="SyntaxTree-diagram-simplified.svg" xlink:show="new" xlink:title="SyntaxTree-diagram-simplified.svg" xlink:type="simple"><g id="elem_SyntaxTree"><rect codeLine="4" fill="#F5FFFA" height="48" id="SyntaxTree" rx="2.5" ry="2.5" style="stroke:#181818;stroke-width:0.5;" width="109" x="1274" y="466.5547"/><ellipse cx="1289" cy="482.5547" fill="#ADD1B2" rx="11" ry="11" style="stroke:#181818;stroke-width:1.0;"/><path d="M1291.4731,488.6978 Q1290.8921,488.9966 1290.2529,489.146 Q1289.6138,489.2954 1288.9082,489.2954 Q1286.4014,489.2954 1285.0815,487.6436 Q1283.7617,485.9917 1283.7617,482.8706 Q1283.7617,479.7412 1285.0815,478.0894 Q1286.4014,476.4375 1288.9082,476.4375 Q1289.6138,476.4375 1290.2612,476.5869 Q1290.9087,476.7363 1291.4731,477.0352 L1291.4731,479.7578 Q1290.8423,479.1768 1290.2488,478.907 Q1289.6553,478.6372 1289.0244,478.6372 Q1287.6797,478.6372 1286.9949,479.7039 Q1286.3101,480.7705 1286.3101,482.8706 Q1286.3101,484.9624 1286.9949,486.0291 Q1287.6797,487.0957 1289.0244,487.0957 Q1289.6553,487.0957 1290.2488,486.8259 Q1290.8423,486.5562 1291.4731,485.9751 Z " fill="#000000"/><text fill="#000000" font-family="sans-serif" font-size="14" lengthAdjust="spacing" textLength="77" x="1303" y="487.8457">SyntaxTree</text><line style="stroke:#181818;stroke-width:0.5;" x1="1275" x2="1382" y1="498.5547" y2="498.5547"/><line style="stroke:#181818;stroke-width:0.5;" x1="1275" x2="1382" y1="506.5547" y2="506.5547"/></g></a><!--class CompilationUnitSyntax--><a href="CompilationUnitSyntax-diagram-simplified.svg" target="_top" title="CompilationUnitSyntax-diagram-simplified.svg" xlink:actuate="onRequest" xlink:href="CompilationUnitSyntax-diagram-simplified.svg" xlink:show="new" xlink:title="CompilationUnitSyntax-diagram-simplified.svg" xlink:type="simple"><g id="elem_CompilationUnitSyntax"><rect codeLine="6" fill="#F5FFFA" height="48" id="CompilationUnitSyntax" rx="2.5" ry="2.5" style="stroke:#181818;stroke-width:0.5;" width="190" x="977.5" y="466.5547"/><ellipse cx="992.5" cy="482.5547" fill="#ADD1B2" rx="11" ry="11" style="stroke:#181818;stroke-width:1.0;"/><path d="M994.9731,488.6978 Q994.3921,488.9966 993.7529,489.146 Q993.1138,489.2954 992.4082,489.2954 Q989.9014,489.2954 988.5815,487.6436 Q987.2617,485.9917 987.2617,482.8706 Q987.2617,479.7412 988.5815,478.0894 Q989.9014,476.4375 992.4082,476.4375 Q993.1138,476.4375 993.7612,476.5869 Q994.4087,476.7363 994.9731,477.0352 L994.9731,479.7578 Q994.3423,479.1768 993.7488,478.907 Q993.1553,478.6372 992.5244,478.6372 Q991.1797,478.6372 990.4949,479.7039 Q989.8101,480.7705 989.8101,482.8706 Q989.8101,484.9624 990.4949,486.0291 Q991.1797,487.0957 992.5244,487.0957 Q993.1553,487.0957 993.7488,486.8259 Q994.3423,486.5562 994.9731,485.9751 Z " fill="#000000"/><text fill="#000000" font-family="sans-serif" font-size="14" lengthAdjust="spacing" textLength="158" x="1006.5" y="487.8457">CompilationUnitSyntax</text><line style="stroke:#181818;stroke-width:0.5;" x1="978.5" x2="1166.5" y1="498.5547" y2="498.5547"/><line style="stroke:#181818;stroke-width:0.5;" x1="978.5" x2="1166.5" y1="506.5547" y2="506.5547"/></g></a><!--class SemanticModel--><a href="SemanticModel-diagram-simplified.svg" target="_top" title="SemanticModel-diagram-simplified.svg" xlink:actuate="onRequest" xlink:href="SemanticModel-diagram-simplified.svg" xlink:show="new" xlink:title="SemanticModel-diagram-simplified.svg" xlink:type="simple"><g id="elem_SemanticModel"><rect codeLine="8" fill="#F5FFFA" height="48" id="SemanticModel" rx="2.5" ry="2.5" style="stroke:#181818;stroke-width:0.5;" width="136" x="1066.5" y="574.5547"/><ellipse cx="1081.5" cy="590.5547" fill="#ADD1B2" rx="11" ry="11" style="stroke:#181818;stroke-width:1.0;"/><path d="M1083.9731,596.6978 Q1083.3921,596.9966 1082.7529,597.146 Q1082.1138,597.2954 1081.4082,597.2954 Q1078.9014,597.2954 1077.5815,595.6436 Q1076.2617,593.9917 1076.2617,590.8706 Q1076.2617,587.7412 1077.5815,586.0894 Q1078.9014,584.4375 1081.4082,584.4375 Q1082.1138,584.4375 1082.7612,584.5869 Q1083.4087,584.7363 1083.9731,585.0352 L1083.9731,587.7578 Q1083.3423,587.1768 1082.7488,586.907 Q1082.1553,586.6372 1081.5244,586.6372 Q1080.1797,586.6372 1079.4949,587.7039 Q1078.8101,588.7705 1078.8101,590.8706 Q1078.8101,592.9624 1079.4949,594.0291 Q1080.1797,595.0957 1081.5244,595.0957 Q1082.1553,595.0957 1082.7488,594.8259 Q1083.3423,594.5562 1083.9731,593.9751 Z " fill="#000000"/><text fill="#000000" font-family="sans-serif" font-size="14" lengthAdjust="spacing" textLength="104" x="1095.5" y="595.8457">SemanticModel</text><line style="stroke:#181818;stroke-width:0.5;" x1="1067.5" x2="1201.5" y1="606.5547" y2="606.5547"/><line style="stroke:#181818;stroke-width:0.5;" x1="1067.5" x2="1201.5" y1="614.5547" y2="614.5547"/></g></a><!--link Program to Logger--><g id="link_Program_Logger"><path codeLine="29" d="M811.38,174.5547 C842.91,174.5547 879.1,174.5547 879.1,174.5547 C879.1,174.5547 879.1,691.3447 879.1,691.3447 " fill="none" id="Program-to-Logger" style="stroke:#909090;stroke-width:1.0;"/><polygon fill="#909090" points="879.1,696.3447,883.1,687.3447,879.1,691.3447,875.1,687.3447,879.1,696.3447" style="stroke:#909090;stroke-width:1.0;"/><text fill="#000000" font-family="sans-serif" font-size="13" lengthAdjust="spacing" textLength="29" x="849.1" y="395.653">uses</text></g><!--link Program to AnalyzeAST--><g id="link_Program_AnalyzeAST"><path codeLine="30" d="M733,199.0047 C733,250.3247 733,364.5547 733,364.5547 C733,364.5547 695.21,364.5547 695.21,364.5547 " fill="none" id="Program-to-AnalyzeAST" style="stroke:#909090;stroke-width:1.0;"/><polygon fill="#909090" points="690.21,364.5547,699.21,368.5547,695.21,364.5547,699.21,360.5547,690.21,364.5547" style="stroke:#909090;stroke-width:1.0;"/><text fill="#000000" font-family="sans-serif" font-size="13" lengthAdjust="spacing" textLength="29" x="703" y="297.243">uses</text></g><!--reverse link Datastructure to Logger--><g id="link_Datastructure_Logger"><path codeLine="33" d="M837.75,636.8547 C837.75,636.8547 837.75,697.3047 837.75,697.3047 " fill="none" id="Datastructure-backto-Logger" style="stroke:#10BB10;stroke-width:1.0;"/><polygon fill="#10BB10" points="837.75,623.8547,833.75,629.8547,837.75,635.8547,841.75,629.8547,837.75,623.8547" style="stroke:#10BB10;stroke-width:1.0;"/></g><!--reverse link ASTVisitor to Datastructure--><g id="link_ASTVisitor_Datastructure"><path codeLine="34" d="M813.5,528.7947 C813.5,528.7947 813.5,574.3947 813.5,574.3947 " fill="none" id="ASTVisitor-backto-Datastructure" style="stroke:#10BB10;stroke-width:1.0;"/><polygon fill="#10BB10" points="813.5,515.7947,809.5,521.7947,813.5,527.7947,817.5,521.7947,813.5,515.7947" style="stroke:#10BB10;stroke-width:1.0;"/></g><!--reverse link ASTVisitor to SemanticModel--><g id="link_ASTVisitor_SemanticModel"><path codeLine="35" d="M879.27,482.5547 C879.27,482.5547 881.8,482.5547 881.8,482.5547 C881.8,482.5547 881.8,598.5547 881.8,598.5547 C881.8,598.5547 991.28,598.5547 1066.12,598.5547 " fill="none" id="ASTVisitor-backto-SemanticModel" style="stroke:#10BB10;stroke-width:1.0;"/><polygon fill="#10BB10" points="866.27,482.5547,872.27,486.5547,878.27,482.5547,872.27,478.5547,866.27,482.5547" style="stroke:#10BB10;stroke-width:1.0;"/></g><!--reverse link ASTVisitor to Logger--><g id="link_ASTVisitor_Logger"><path codeLine="36" d="M872.86,498.5547 C872.86,498.5547 873.7,498.5547 873.7,498.5547 C873.7,498.5547 873.7,639.4647 873.7,697.2647 " fill="none" id="ASTVisitor-backto-Logger" style="stroke:#10BB10;stroke-width:1.0;"/><polygon fill="#10BB10" points="866.33,498.5547,872.33,502.5547,878.33,498.5547,872.33,494.5547,866.33,498.5547" style="stroke:#10BB10;stroke-width:1.0;"/></g><!--link AnalyzeAST to Logger--><g id="link_AnalyzeAST_Logger"><path codeLine="39" d="M689.38,388.5547 C761.45,388.5547 876.4,388.5547 876.4,388.5547 C876.4,388.5547 876.4,691.0647 876.4,691.0647 " fill="none" id="AnalyzeAST-to-Logger" style="stroke:#6060BB;stroke-width:1.0;stroke-dasharray:7.0,7.0;"/><polygon fill="#6060BB" points="876.4,696.0647,880.4,687.0647,876.4,691.0647,872.4,687.0647,876.4,696.0647" style="stroke:#6060BB;stroke-width:1.0;"/><text fill="#000000" font-family="sans-serif" font-size="13" lengthAdjust="spacing" textLength="29" x="846.4" y="442.863">uses</text></g><!--link AnalyzeAST to Datastructure--><g id="link_AnalyzeAST_Datastructure"><path codeLine="40" d="M689.34,400.5547 C720.96,400.5547 754,400.5547 754,400.5547 C754,400.5547 754,568.2747 754,568.2747 " fill="none" id="AnalyzeAST-to-Datastructure" style="stroke:#909090;stroke-width:1.0;"/><polygon fill="#909090" points="754,573.2747,758,564.2747,754,568.2747,750,564.2747,754,573.2747" style="stroke:#909090;stroke-width:1.0;"/><text fill="#000000" font-family="sans-serif" font-size="13" lengthAdjust="spacing" textLength="29" x="724" y="448.653">uses</text></g><!--link AnalyzeAST to RecursiveFileProcessor--><g id="link_AnalyzeAST_RecursiveFileProcessor"><path codeLine="41" d="M632.5,406.7947 C632.5,406.7947 632.5,460.3947 632.5,460.3947 " fill="none" id="AnalyzeAST-to-RecursiveFileProcessor" style="stroke:#909090;stroke-width:1.0;"/><polygon fill="#909090" points="632.5,465.3947,636.5,456.3947,632.5,460.3947,628.5,456.3947,632.5,465.3947" style="stroke:#909090;stroke-width:1.0;"/><text fill="#000000" font-family="sans-serif" font-size="13" lengthAdjust="spacing" textLength="29" x="602.5" y="430.163">uses</text></g><!--link AnalyzeAST to SyntaxTree--><g id="link_AnalyzeAST_SyntaxTree"><path codeLine="42" d="M689.46,370.5547 C855.68,370.5547 1328.5,370.5547 1328.5,370.5547 C1328.5,370.5547 1328.5,460.2747 1328.5,460.2747 " fill="none" id="AnalyzeAST-to-SyntaxTree" style="stroke:#909090;stroke-width:1.0;"/><polygon fill="#909090" points="1328.5,465.2747,1332.5,456.2747,1328.5,460.2747,1324.5,456.2747,1328.5,465.2747" style="stroke:#909090;stroke-width:1.0;"/><text fill="#000000" font-family="sans-serif" font-size="13" lengthAdjust="spacing" textLength="29" x="1023.84" y="367.123">uses</text></g><!--link AnalyzeAST to CompilationUnitSyntax--><g id="link_AnalyzeAST_CompilationUnitSyntax"><path codeLine="43" d="M689.12,382.5547 C807.96,382.5547 1072.5,382.5547 1072.5,382.5547 C1072.5,382.5547 1072.5,460.3147 1072.5,460.3147 " fill="none" id="AnalyzeAST-to-CompilationUnitSyntax" style="stroke:#909090;stroke-width:1.0;"/><polygon fill="#909090" points="1072.5,465.3147,1076.5,456.3147,1072.5,460.3147,1068.5,456.3147,1072.5,465.3147" style="stroke:#909090;stroke-width:1.0;"/><text fill="#000000" font-family="sans-serif" font-size="13" lengthAdjust="spacing" textLength="29" x="889.69" y="379.123">uses</text></g><!--link AnalyzeAST to SemanticModel--><g id="link_AnalyzeAST_SemanticModel"><path codeLine="44" d="M689.29,376.5547 C830.28,376.5547 1185,376.5547 1185,376.5547 C1185,376.5547 1185,568.3747 1185,568.3747 " fill="none" id="AnalyzeAST-to-SemanticModel" style="stroke:#909090;stroke-width:1.0;"/><polygon fill="#909090" points="1185,573.3747,1189,564.3747,1185,568.3747,1181,564.3747,1185,573.3747" style="stroke:#909090;stroke-width:1.0;"/><text fill="#000000" font-family="sans-serif" font-size="13" lengthAdjust="spacing" textLength="29" x="1003.05" y="390.123">uses</text></g><!--link AnalyzeAST to ASTVisitor--><g id="link_AnalyzeAST_ASTVisitor"><path codeLine="45" d="M689.41,394.5547 C733.28,394.5547 786.5,394.5547 786.5,394.5547 C786.5,394.5547 786.5,460.0847 786.5,460.0847 " fill="none" id="AnalyzeAST-to-ASTVisitor" style="stroke:#909090;stroke-width:1.0;"/><polygon fill="#909090" points="786.5,465.0847,790.5,456.0847,786.5,460.0847,782.5,456.0847,786.5,465.0847" style="stroke:#909090;stroke-width:1.0;"/><text fill="#000000" font-family="sans-serif" font-size="13" lengthAdjust="spacing" textLength="29" x="740.72" y="391.123">uses</text></g><!--SRC=[jLRRJjj047ttLup80v8bkw4FI8q8KW2XFXI46gXK9NdOsfCmOhrhxQufeUg_Cxxa0dMSQnCfYhqpvvovslQ9L2gCI42IGZTD4RHnZzfpv2J2cQLNx7nkdrzfTulkpc0l5gb34_RHF5E4uFkMabJIc33sVJZxb7kSUqexXAEVEZCW389GGavVIKqwGxKfr50DLRTxJP9jkjsXOZ28X898KlG4IEuH3V0FA96WJKM4bdsqOGDXRNaNndmzBY2OFBTEM4kS_o4pL34PZ1p4cAAAKKM4DYnf-oZp4vsJvEG-DCYEqGcIXMYE3m06WrNMGKnYmkaEPZwXVPwCHZd1TIObLCSVSv5hzls9qLcACQGS-3netvznZXbWZhzm3ogtWDs2kTk2zwjES0P1d8QNyD4bSZGw0c7XMchXE7MtN4-lJ6n_gfnukJU8xB2ug64kEQ1rGyfT6kIm_dX_AvHBdQGa6Lkh1qMkn670sljROlSn4SfHTADZbBd8vUkDiSGlwupW9YX1_wdedT55gMgANHsjfYe80DPHNEb4a0glX1Dic4KkCrZ7LsVNI0wm1NslV_-3B3aUfTNS2wC345V34lQAjO6CtJ1IIrODjPsYbFhtrWg-OvGPIy_8UmYvhBnaR7qUcZqEf-p1aRJXDpsPOAsEvVFrfJZcjRBH1_wRxJ5S5f4QBCVU0huK6U1DDpOwMQow3jjkQVunFTxACGu6hI_j_3iApjTa7JgGMNwux0fMqzvpoFt2gwRHssoJ-2ppf7rnSS8oruJiRR0Sck5g5MmD-twrxw_gVP1x9h-ggxT9mSD1wxHzohf6uUxjLeFRt7crHJWW_fgrkJlJqal7xY3rxnnxY7hNZ8Slqr8N7se_58tr1W00]--></g></svg>