<?xml version="1.0" encoding="us-ascii" standalone="no"?><svg xmlns="http://www.w3.org/2000/svg" xmlns:xlink="http://www.w3.org/1999/xlink" contentStyleType="text/css" height="453px" preserveAspectRatio="none" style="width:972px;height:453px;background:#FFFFFF;" version="1.1" viewBox="0 0 972 453" width="972px" zoomAndPan="magnify"><defs/><g><text fill="#000000" font-family="sans-serif" font-size="20" font-weight="bold" lengthAdjust="spacing" textLength="522" x="12.25" y="29.3359">DotNetPreAdapter.Domain.EnumDeclarationSyntax</text><text fill="#000000" font-family="sans-serif" font-size="20" font-weight="bold" lengthAdjust="spacing" textLength="104" x="541.25" y="29.3359">simplified</text><text fill="#000000" font-family="sans-serif" font-size="20" font-weight="bold" lengthAdjust="spacing" textLength="38" x="652.25" y="29.3359">and</text><text fill="#000000" font-family="sans-serif" font-size="20" font-weight="bold" lengthAdjust="spacing" textLength="249" x="697.25" y="29.3359">grouped per namespace</text><!--cluster DotNetPreAdapter--><g id="cluster_DotNetPreAdapter"><a href="DotNetPreAdapter-diagram-simplified-grouped-per-namespace.svg" target="_top" title="DotNetPreAdapter-diagram-simplified-grouped-per-namespace.svg" xlink:actuate="onRequest" xlink:href="DotNetPreAdapter-diagram-simplified-grouped-per-namespace.svg" xlink:show="new" xlink:title="DotNetPreAdapter-diagram-simplified-grouped-per-namespace.svg" xlink:type="simple"><path d="M692,72.5547 L823,72.5547 A3.75,3.75 0 0 1 825.5,75.0547 L832.5,95.043 L963,95.043 A2.5,2.5 0 0 1 965.5,97.543 L965.5,444.0547 A2.5,2.5 0 0 1 963,446.5547 L692,446.5547 A2.5,2.5 0 0 1 689.5,444.0547 L689.5,75.0547 A2.5,2.5 0 0 1 692,72.5547 " fill="none" style="stroke:#000000;stroke-width:1.5;"/><line style="stroke:#000000;stroke-width:1.5;" x1="689.5" x2="832.5" y1="95.043" y2="95.043"/><text fill="#000000" font-family="sans-serif" font-size="14" font-weight="bold" lengthAdjust="spacing" textLength="130" x="693.5" y="88.0898">DotNetPreAdapter</text></a></g><!--cluster Domain--><g id="cluster_Domain"><a href="DotNetPreAdapter.Domain-diagram-simplified-grouped-per-namespace.svg" target="_top" title="DotNetPreAdapter.Domain-diagram-simplified-grouped-per-namespace.svg" xlink:actuate="onRequest" xlink:href="DotNetPreAdapter.Domain-diagram-simplified-grouped-per-namespace.svg" xlink:show="new" xlink:title="DotNetPreAdapter.Domain-diagram-simplified-grouped-per-namespace.svg" xlink:type="simple"><path d="M716,115.5547 L773,115.5547 A3.75,3.75 0 0 1 775.5,118.0547 L782.5,138.043 L939,138.043 A2.5,2.5 0 0 1 941.5,140.543 L941.5,420.0547 A2.5,2.5 0 0 1 939,422.5547 L716,422.5547 A2.5,2.5 0 0 1 713.5,420.0547 L713.5,118.0547 A2.5,2.5 0 0 1 716,115.5547 " fill="none" style="stroke:#000000;stroke-width:1.5;"/><line style="stroke:#000000;stroke-width:1.5;" x1="713.5" x2="782.5" y1="138.043" y2="138.043"/><text fill="#000000" font-family="sans-serif" font-size="14" font-weight="bold" lengthAdjust="spacing" textLength="56" x="717.5" y="131.0898">Domain</text></a></g><!--class EnumDeclarationSyntax--><a href="DotNetPreAdapter.Domain.EnumDeclarationSyntax-diagram-simplified-grouped-per-namespace.svg" target="_top" title="DotNetPreAdapter.Domain.EnumDeclarationSyntax-diagram-simplified-grouped-per-namespace.svg" xlink:actuate="onRequest" xlink:href="DotNetPreAdapter.Domain.EnumDeclarationSyntax-diagram-simplified-grouped-per-namespace.svg" xlink:show="new" xlink:title="DotNetPreAdapter.Domain.EnumDeclarationSyntax-diagram-simplified-grouped-per-namespace.svg" xlink:type="simple"><g id="elem_EnumDeclarationSyntax"><rect codeLine="4" fill="#FFFF00" height="48" id="EnumDeclarationSyntax" rx="2.5" ry="2.5" style="stroke:#181818;stroke-width:0.5;" width="195" x="730" y="358.5547"/><ellipse cx="745" cy="374.5547" fill="#ADD1B2" rx="11" ry="11" style="stroke:#181818;stroke-width:1.0;"/><path d="M747.4731,380.6978 Q746.8921,380.9966 746.2529,381.146 Q745.6138,381.2954 744.9082,381.2954 Q742.4014,381.2954 741.0815,379.6436 Q739.7617,377.9917 739.7617,374.8706 Q739.7617,371.7412 741.0815,370.0894 Q742.4014,368.4375 744.9082,368.4375 Q745.6138,368.4375 746.2612,368.5869 Q746.9087,368.7363 747.4731,369.0352 L747.4731,371.7578 Q746.8423,371.1768 746.2488,370.907 Q745.6553,370.6372 745.0244,370.6372 Q743.6797,370.6372 742.9949,371.7039 Q742.3101,372.7705 742.3101,374.8706 Q742.3101,376.9624 742.9949,378.0291 Q743.6797,379.0957 745.0244,379.0957 Q745.6553,379.0957 746.2488,378.8259 Q746.8423,378.5562 747.4731,377.9751 Z " fill="#000000"/><text fill="#000000" font-family="sans-serif" font-size="14" lengthAdjust="spacing" textLength="163" x="759" y="379.8457">EnumDeclarationSyntax</text><line style="stroke:#181818;stroke-width:0.5;" x1="731" x2="924" y1="390.5547" y2="390.5547"/><line style="stroke:#181818;stroke-width:0.5;" x1="731" x2="924" y1="398.5547" y2="398.5547"/></g></a><!--class ASTVisitor--><a href="DotNetPreAdapter.Domain.ASTVisitor-diagram-simplified-grouped-per-namespace.svg" target="_top" title="DotNetPreAdapter.Domain.ASTVisitor-diagram-simplified-grouped-per-namespace.svg" xlink:actuate="onRequest" xlink:href="DotNetPreAdapter.Domain.ASTVisitor-diagram-simplified-grouped-per-namespace.svg" xlink:show="new" xlink:title="DotNetPreAdapter.Domain.ASTVisitor-diagram-simplified-grouped-per-namespace.svg" xlink:type="simple"><g id="elem_ASTVisitor"><rect codeLine="9" fill="#F1F1F1" height="48" id="ASTVisitor" rx="2.5" ry="2.5" style="stroke:#181818;stroke-width:0.5;" width="103" x="776" y="150.5547"/><ellipse cx="791" cy="166.5547" fill="#A9DCDF" rx="11" ry="11" style="stroke:#181818;stroke-width:1.0;"/><path d="M790.8633,161.9028 L789.7095,166.9746 L792.0254,166.9746 Z M789.3691,159.6616 L792.3657,159.6616 L795.7109,172.0547 L793.2622,172.0547 L792.4985,168.9917 L789.2197,168.9917 L788.4727,172.0547 L786.0239,172.0547 Z " fill="#000000"/><text fill="#000000" font-family="sans-serif" font-size="14" font-style="italic" lengthAdjust="spacing" textLength="71" x="805" y="171.8457">ASTVisitor</text><line style="stroke:#181818;stroke-width:0.5;" x1="777" x2="878" y1="182.5547" y2="182.5547"/><line style="stroke:#181818;stroke-width:0.5;" x1="777" x2="878" y1="190.5547" y2="190.5547"/></g></a><g id="elem_FloatingNote"><path d="M6,50.5547 L6,298.2129 L673,298.2129 L673,60.5547 L663,50.5547 L6,50.5547 " fill="#FEFFDD" style="stroke:#181818;stroke-width:0.5;"/><path d="M663,50.5547 L663,60.5547 L673,60.5547 L663,50.5547 " fill="#FEFFDD" style="stroke:#181818;stroke-width:1.0;"/><text fill="#000000" font-family="sans-serif" font-size="13" lengthAdjust="spacing" textLength="120" x="12" y="68.123">Your are analyzing:</text><text fill="#000000" font-family="sans-serif" font-size="13" lengthAdjust="spacing" textLength="319" x="12" y="83.4336">DotNetPreAdapter.Domain.EnumDeclarationSyntax</text><text fill="#000000" font-family="sans-serif" font-size="13" font-weight="bold" lengthAdjust="spacing" textLength="67" x="335" y="83.4336">simplified</text><text fill="#000000" font-family="sans-serif" font-size="13" lengthAdjust="spacing" textLength="23" x="406" y="83.4336">and</text><text fill="#000000" font-family="sans-serif" font-size="13" font-weight="bold" lengthAdjust="spacing" textLength="166" x="433" y="83.4336">grouped per namespace</text><text fill="#000000" font-family="sans-serif" font-size="13" lengthAdjust="spacing" textLength="4" x="12" y="98.7441">&#160;</text><text fill="#000000" font-family="sans-serif" font-size="13" lengthAdjust="spacing" textLength="229" x="12" y="129.3652">You can click either the namespaces</text><text fill="#000000" font-family="sans-serif" font-size="13" lengthAdjust="spacing" textLength="266" x="12" y="144.6758">or class names for filtering them and their</text><text fill="#000000" font-family="sans-serif" font-size="13" lengthAdjust="spacing" textLength="130" x="12" y="159.9863">direct dependencies.</text><text fill="#000000" font-family="sans-serif" font-size="13" lengthAdjust="spacing" textLength="4" x="12" y="175.2969">&#160;</text><line style="stroke:#181818;stroke-width:1.0;" x1="7" x2="323.5" y1="109.1416" y2="109.1416"/><line style="stroke:#181818;stroke-width:1.0;" x1="7" x2="323.5" y1="111.1416" y2="111.1416"/><text fill="#000000" font-family="sans-serif" font-size="13" lengthAdjust="spacing" textLength="32" x="323.5" y="113.5547">Filter</text><line style="stroke:#181818;stroke-width:1.0;" x1="355.5" x2="672" y1="109.1416" y2="109.1416"/><line style="stroke:#181818;stroke-width:1.0;" x1="355.5" x2="672" y1="111.1416" y2="111.1416"/><ellipse cx="17.5" cy="205.1602" fill="#000000" rx="2.5" ry="2.5" style="stroke:#000000;stroke-width:0.0;"/><text fill="#000000" font-family="sans-serif" font-size="13" lengthAdjust="spacing" textLength="319" x="24" y="209.918">DotNetPreAdapter.Domain.EnumDeclarationSyntax</text><text fill="#000000" font-family="sans-serif" font-size="13" font-weight="bold" lengthAdjust="spacing" textLength="55" x="347" y="209.918">detailed</text><text fill="#000000" font-family="sans-serif" font-size="13" lengthAdjust="spacing" textLength="23" x="406" y="209.918">and</text><text fill="#000000" font-family="sans-serif" font-size="13" font-weight="bold" lengthAdjust="spacing" textLength="166" x="433" y="209.918">grouped per namespace</text><text fill="#000000" font-family="sans-serif" font-size="13" lengthAdjust="spacing" textLength="4" x="599" y="209.918">:</text><text fill="#000000" font-family="sans-serif" font-size="13" lengthAdjust="spacing" textLength="12" x="12" y="225.2285">&#160;&#160;&#160;</text><a href="DotNetPreAdapter.Domain.EnumDeclarationSyntax-diagram-detailed-grouped-per-namespace.svg" target="_top" title="DotNetPreAdapter.Domain.EnumDeclarationSyntax-diagram-detailed-grouped-per-namespace.svg" xlink:actuate="onRequest" xlink:href="DotNetPreAdapter.Domain.EnumDeclarationSyntax-diagram-detailed-grouped-per-namespace.svg" xlink:show="new" xlink:title="DotNetPreAdapter.Domain.EnumDeclarationSyntax-diagram-detailed-grouped-per-namespace.svg" xlink:type="simple"><text fill="#0000FF" font-family="sans-serif" font-size="13" lengthAdjust="spacing" text-decoration="underline" textLength="628" x="24" y="225.2285">DotNetPreAdapter.Domain.EnumDeclarationSyntax-diagram-detailed-grouped-per-namespace.svg</text></a><ellipse cx="17.5" cy="235.7813" fill="#000000" rx="2.5" ry="2.5" style="stroke:#000000;stroke-width:0.0;"/><text fill="#000000" font-family="sans-serif" font-size="13" lengthAdjust="spacing" textLength="78" x="24" y="240.5391">Full diagram</text><text fill="#000000" font-family="sans-serif" font-size="13" font-weight="bold" lengthAdjust="spacing" textLength="67" x="106" y="240.5391">simplified</text><text fill="#000000" font-family="sans-serif" font-size="13" lengthAdjust="spacing" textLength="23" x="177" y="240.5391">and</text><text fill="#000000" font-family="sans-serif" font-size="13" font-weight="bold" lengthAdjust="spacing" textLength="166" x="204" y="240.5391">grouped per namespace</text><text fill="#000000" font-family="sans-serif" font-size="13" lengthAdjust="spacing" textLength="4" x="370" y="240.5391">:</text><text fill="#000000" font-family="sans-serif" font-size="13" lengthAdjust="spacing" textLength="12" x="12" y="255.8496">&#160;&#160;&#160;</text><a href="full-diagram-simplified-grouped-per-namespace.svg" target="_top" title="full-diagram-simplified-grouped-per-namespace.svg" xlink:actuate="onRequest" xlink:href="full-diagram-simplified-grouped-per-namespace.svg" xlink:show="new" xlink:title="full-diagram-simplified-grouped-per-namespace.svg" xlink:type="simple"><text fill="#0000FF" font-family="sans-serif" font-size="13" lengthAdjust="spacing" text-decoration="underline" textLength="343" x="24" y="255.8496">full-diagram-simplified-grouped-per-namespace.svg</text></a><ellipse cx="17.5" cy="266.4023" fill="#000000" rx="2.5" ry="2.5" style="stroke:#000000;stroke-width:0.0;"/><text fill="#000000" font-family="sans-serif" font-size="13" lengthAdjust="spacing" textLength="41" x="24" y="271.1602">Home:</text><text fill="#000000" font-family="sans-serif" font-size="13" lengthAdjust="spacing" textLength="12" x="12" y="286.4707">&#160;&#160;&#160;</text><a href="index.html" target="_top" title="index.html" xlink:actuate="onRequest" xlink:href="index.html" xlink:show="new" xlink:title="index.html" xlink:type="simple"><text fill="#0000FF" font-family="sans-serif" font-size="13" lengthAdjust="spacing" text-decoration="underline" textLength="68" x="24" y="286.4707">index.html</text></a><line style="stroke:#181818;stroke-width:1.0;" x1="7" x2="302.5" y1="189.6943" y2="189.6943"/><line style="stroke:#181818;stroke-width:1.0;" x1="7" x2="302.5" y1="191.6943" y2="191.6943"/><text fill="#000000" font-family="sans-serif" font-size="13" lengthAdjust="spacing" textLength="74" x="302.5" y="194.1074">Select other</text><line style="stroke:#181818;stroke-width:1.0;" x1="376.5" x2="672" y1="189.6943" y2="189.6943"/><line style="stroke:#181818;stroke-width:1.0;" x1="376.5" x2="672" y1="191.6943" y2="191.6943"/></g><!--link ASTVisitor to EnumDeclarationSyntax--><g id="link_ASTVisitor_EnumDeclarationSyntax"><path codeLine="24" d="M827.5,198.8247 C827.5,198.8247 827.5,352.1247 827.5,352.1247 " fill="none" id="ASTVisitor-to-EnumDeclarationSyntax" style="stroke:#6060BB;stroke-width:1.0;stroke-dasharray:7.0,7.0;"/><polygon fill="#6060BB" points="827.5,357.1247,831.5,348.1247,827.5,352.1247,823.5,348.1247,827.5,357.1247" style="stroke:#6060BB;stroke-width:1.0;"/><text fill="#000000" font-family="sans-serif" font-size="13" lengthAdjust="spacing" textLength="29" x="797.5" y="272.043">uses</text></g><!--SRC=[lLHDQzj04BthLmp98I2mQdh8mSI69AxfoHHS2iKoPYsDx26hMR6xIko4_lUEv0-rfNQiWYk4iAMPzsRUl1ttH5megtBGnEWt1OAnVcK2JruZt3bwnTx7xc1e_1Zz5ultgIeyscXeSaKSVU8o7sAY1SAJuSc6lLf363hA2qqPOHg6e3YLLqjhoW9JAD02gnnTeH8CmxiF5SSWOECHhhwRqeAoA3bARrw9bxsOBqSUSypz_eYqeFRxCGiz98eXqPGy0P9VIRmycXm7CHih0SgvxLl8v7zMGqYvLNHUayeFiZ6dP37na6A1d28dX2xQqavGLrzCHLAHXz2sqHIz8lr-cw8X04odhV0xAQcbEAEpP-diq3k2tZcWH-vvEPjLrOzAhM6Nr6eA-_8o0JYmDkdlyNusEUuXI3HUHokVwzdi2fI3aJRI4o_7OgzWExLsAl-hQkVL3zSRrDgym5lm8xY1HsrSPI8bIXOMdycKRkxAnVoGDjVaV2CUZ0qZB31HfSFAXRkJuyY1t1ankHMcKT1a_DdENpfisyJR2VYTMiTrR4y6e1REMoM7v_H4xoTVlv4ZR-o9CJP1RIkfIv6nFPfSTgZu-d-g02-odK3Qzo1x94UMJP91NSy5RTHW_zfhrS1l_ZqkX8J1ZQo2iowuM6nLQkKSYxe-l0vmNJjAffXPapSTz2IsPVYH4GTds3IQNjzsRxiF3xDeq79HGGzaU0v-0W00]--></g></svg>