<?xml version="1.0" encoding="us-ascii" standalone="no"?><svg xmlns="http://www.w3.org/2000/svg" xmlns:xlink="http://www.w3.org/1999/xlink" contentStyleType="text/css" height="453px" preserveAspectRatio="none" style="width:1003px;height:453px;background:#FFFFFF;" version="1.1" viewBox="0 0 1003 453" width="1003px" zoomAndPan="magnify"><defs/><g><text fill="#000000" font-family="sans-serif" font-size="20" font-weight="bold" lengthAdjust="spacing" textLength="551" x="13" y="29.3359">DotNetPreAdapter.Domain.VariableDeclarationSyntax</text><text fill="#000000" font-family="sans-serif" font-size="20" font-weight="bold" lengthAdjust="spacing" textLength="104" x="571" y="29.3359">simplified</text><text fill="#000000" font-family="sans-serif" font-size="20" font-weight="bold" lengthAdjust="spacing" textLength="38" x="682" y="29.3359">and</text><text fill="#000000" font-family="sans-serif" font-size="20" font-weight="bold" lengthAdjust="spacing" textLength="249" x="727" y="29.3359">grouped per namespace</text><!--cluster DotNetPreAdapter--><g id="cluster_DotNetPreAdapter"><a href="DotNetPreAdapter-diagram-simplified-grouped-per-namespace.svg" target="_top" title="DotNetPreAdapter-diagram-simplified-grouped-per-namespace.svg" xlink:actuate="onRequest" xlink:href="DotNetPreAdapter-diagram-simplified-grouped-per-namespace.svg" xlink:show="new" xlink:title="DotNetPreAdapter-diagram-simplified-grouped-per-namespace.svg" xlink:type="simple"><path d="M706.5,72.5547 L837.5,72.5547 A3.75,3.75 0 0 1 840,75.0547 L847,95.043 L993.5,95.043 A2.5,2.5 0 0 1 996,97.543 L996,444.0547 A2.5,2.5 0 0 1 993.5,446.5547 L706.5,446.5547 A2.5,2.5 0 0 1 704,444.0547 L704,75.0547 A2.5,2.5 0 0 1 706.5,72.5547 " fill="none" style="stroke:#000000;stroke-width:1.5;"/><line style="stroke:#000000;stroke-width:1.5;" x1="704" x2="847" y1="95.043" y2="95.043"/><text fill="#000000" font-family="sans-serif" font-size="14" font-weight="bold" lengthAdjust="spacing" textLength="130" x="708" y="88.0898">DotNetPreAdapter</text></a></g><!--cluster Domain--><g id="cluster_Domain"><a href="DotNetPreAdapter.Domain-diagram-simplified-grouped-per-namespace.svg" target="_top" title="DotNetPreAdapter.Domain-diagram-simplified-grouped-per-namespace.svg" xlink:actuate="onRequest" xlink:href="DotNetPreAdapter.Domain-diagram-simplified-grouped-per-namespace.svg" xlink:show="new" xlink:title="DotNetPreAdapter.Domain-diagram-simplified-grouped-per-namespace.svg" xlink:type="simple"><path d="M730.5,115.5547 L787.5,115.5547 A3.75,3.75 0 0 1 790,118.0547 L797,138.043 L969.5,138.043 A2.5,2.5 0 0 1 972,140.543 L972,420.0547 A2.5,2.5 0 0 1 969.5,422.5547 L730.5,422.5547 A2.5,2.5 0 0 1 728,420.0547 L728,118.0547 A2.5,2.5 0 0 1 730.5,115.5547 " fill="none" style="stroke:#000000;stroke-width:1.5;"/><line style="stroke:#000000;stroke-width:1.5;" x1="728" x2="797" y1="138.043" y2="138.043"/><text fill="#000000" font-family="sans-serif" font-size="14" font-weight="bold" lengthAdjust="spacing" textLength="56" x="732" y="131.0898">Domain</text></a></g><!--class VariableDeclarationSyntax--><a href="DotNetPreAdapter.Domain.VariableDeclarationSyntax-diagram-simplified-grouped-per-namespace.svg" target="_top" title="DotNetPreAdapter.Domain.VariableDeclarationSyntax-diagram-simplified-grouped-per-namespace.svg" xlink:actuate="onRequest" xlink:href="DotNetPreAdapter.Domain.VariableDeclarationSyntax-diagram-simplified-grouped-per-namespace.svg" xlink:show="new" xlink:title="DotNetPreAdapter.Domain.VariableDeclarationSyntax-diagram-simplified-grouped-per-namespace.svg" xlink:type="simple"><g id="elem_VariableDeclarationSyntax"><rect codeLine="4" fill="#FFFF00" height="48" id="VariableDeclarationSyntax" rx="2.5" ry="2.5" style="stroke:#181818;stroke-width:0.5;" width="212" x="744" y="358.5547"/><ellipse cx="759" cy="374.5547" fill="#ADD1B2" rx="11" ry="11" style="stroke:#181818;stroke-width:1.0;"/><path d="M761.4731,380.6978 Q760.8921,380.9966 760.2529,381.146 Q759.6138,381.2954 758.9082,381.2954 Q756.4014,381.2954 755.0815,379.6436 Q753.7617,377.9917 753.7617,374.8706 Q753.7617,371.7412 755.0815,370.0894 Q756.4014,368.4375 758.9082,368.4375 Q759.6138,368.4375 760.2612,368.5869 Q760.9087,368.7363 761.4731,369.0352 L761.4731,371.7578 Q760.8423,371.1768 760.2488,370.907 Q759.6553,370.6372 759.0244,370.6372 Q757.6797,370.6372 756.9949,371.7039 Q756.3101,372.7705 756.3101,374.8706 Q756.3101,376.9624 756.9949,378.0291 Q757.6797,379.0957 759.0244,379.0957 Q759.6553,379.0957 760.2488,378.8259 Q760.8423,378.5562 761.4731,377.9751 Z " fill="#000000"/><text fill="#000000" font-family="sans-serif" font-size="14" lengthAdjust="spacing" textLength="180" x="773" y="379.8457">VariableDeclarationSyntax</text><line style="stroke:#181818;stroke-width:0.5;" x1="745" x2="955" y1="390.5547" y2="390.5547"/><line style="stroke:#181818;stroke-width:0.5;" x1="745" x2="955" y1="398.5547" y2="398.5547"/></g></a><!--class ASTVisitor--><a href="DotNetPreAdapter.Domain.ASTVisitor-diagram-simplified-grouped-per-namespace.svg" target="_top" title="DotNetPreAdapter.Domain.ASTVisitor-diagram-simplified-grouped-per-namespace.svg" xlink:actuate="onRequest" xlink:href="DotNetPreAdapter.Domain.ASTVisitor-diagram-simplified-grouped-per-namespace.svg" xlink:show="new" xlink:title="DotNetPreAdapter.Domain.ASTVisitor-diagram-simplified-grouped-per-namespace.svg" xlink:type="simple"><g id="elem_ASTVisitor"><rect codeLine="9" fill="#F1F1F1" height="48" id="ASTVisitor" rx="2.5" ry="2.5" style="stroke:#181818;stroke-width:0.5;" width="103" x="798.5" y="150.5547"/><ellipse cx="813.5" cy="166.5547" fill="#A9DCDF" rx="11" ry="11" style="stroke:#181818;stroke-width:1.0;"/><path d="M813.3633,161.9028 L812.2095,166.9746 L814.5254,166.9746 Z M811.8691,159.6616 L814.8657,159.6616 L818.2109,172.0547 L815.7622,172.0547 L814.9985,168.9917 L811.7197,168.9917 L810.9727,172.0547 L808.5239,172.0547 Z " fill="#000000"/><text fill="#000000" font-family="sans-serif" font-size="14" font-style="italic" lengthAdjust="spacing" textLength="71" x="827.5" y="171.8457">ASTVisitor</text><line style="stroke:#181818;stroke-width:0.5;" x1="799.5" x2="900.5" y1="182.5547" y2="182.5547"/><line style="stroke:#181818;stroke-width:0.5;" x1="799.5" x2="900.5" y1="190.5547" y2="190.5547"/></g></a><g id="elem_FloatingNote"><path d="M6,50.5547 L6,298.2129 L688,298.2129 L688,60.5547 L678,50.5547 L6,50.5547 " fill="#FEFFDD" style="stroke:#181818;stroke-width:0.5;"/><path d="M678,50.5547 L678,60.5547 L688,60.5547 L678,50.5547 " fill="#FEFFDD" style="stroke:#181818;stroke-width:1.0;"/><text fill="#000000" font-family="sans-serif" font-size="13" lengthAdjust="spacing" textLength="120" x="12" y="68.123">Your are analyzing:</text><text fill="#000000" font-family="sans-serif" font-size="13" lengthAdjust="spacing" textLength="334" x="12" y="83.4336">DotNetPreAdapter.Domain.VariableDeclarationSyntax</text><text fill="#000000" font-family="sans-serif" font-size="13" font-weight="bold" lengthAdjust="spacing" textLength="67" x="350" y="83.4336">simplified</text><text fill="#000000" font-family="sans-serif" font-size="13" lengthAdjust="spacing" textLength="23" x="421" y="83.4336">and</text><text fill="#000000" font-family="sans-serif" font-size="13" font-weight="bold" lengthAdjust="spacing" textLength="166" x="448" y="83.4336">grouped per namespace</text><text fill="#000000" font-family="sans-serif" font-size="13" lengthAdjust="spacing" textLength="4" x="12" y="98.7441">&#160;</text><text fill="#000000" font-family="sans-serif" font-size="13" lengthAdjust="spacing" textLength="229" x="12" y="129.3652">You can click either the namespaces</text><text fill="#000000" font-family="sans-serif" font-size="13" lengthAdjust="spacing" textLength="266" x="12" y="144.6758">or class names for filtering them and their</text><text fill="#000000" font-family="sans-serif" font-size="13" lengthAdjust="spacing" textLength="130" x="12" y="159.9863">direct dependencies.</text><text fill="#000000" font-family="sans-serif" font-size="13" lengthAdjust="spacing" textLength="4" x="12" y="175.2969">&#160;</text><line style="stroke:#181818;stroke-width:1.0;" x1="7" x2="331" y1="109.1416" y2="109.1416"/><line style="stroke:#181818;stroke-width:1.0;" x1="7" x2="331" y1="111.1416" y2="111.1416"/><text fill="#000000" font-family="sans-serif" font-size="13" lengthAdjust="spacing" textLength="32" x="331" y="113.5547">Filter</text><line style="stroke:#181818;stroke-width:1.0;" x1="363" x2="687" y1="109.1416" y2="109.1416"/><line style="stroke:#181818;stroke-width:1.0;" x1="363" x2="687" y1="111.1416" y2="111.1416"/><ellipse cx="17.5" cy="205.1602" fill="#000000" rx="2.5" ry="2.5" style="stroke:#000000;stroke-width:0.0;"/><text fill="#000000" font-family="sans-serif" font-size="13" lengthAdjust="spacing" textLength="334" x="24" y="209.918">DotNetPreAdapter.Domain.VariableDeclarationSyntax</text><text fill="#000000" font-family="sans-serif" font-size="13" font-weight="bold" lengthAdjust="spacing" textLength="55" x="362" y="209.918">detailed</text><text fill="#000000" font-family="sans-serif" font-size="13" lengthAdjust="spacing" textLength="23" x="421" y="209.918">and</text><text fill="#000000" font-family="sans-serif" font-size="13" font-weight="bold" lengthAdjust="spacing" textLength="166" x="448" y="209.918">grouped per namespace</text><text fill="#000000" font-family="sans-serif" font-size="13" lengthAdjust="spacing" textLength="4" x="614" y="209.918">:</text><text fill="#000000" font-family="sans-serif" font-size="13" lengthAdjust="spacing" textLength="12" x="12" y="225.2285">&#160;&#160;&#160;</text><a href="DotNetPreAdapter.Domain.VariableDeclarationSyntax-diagram-detailed-grouped-per-namespace.svg" target="_top" title="DotNetPreAdapter.Domain.VariableDeclarationSyntax-diagram-detailed-grouped-per-namespace.svg" xlink:actuate="onRequest" xlink:href="DotNetPreAdapter.Domain.VariableDeclarationSyntax-diagram-detailed-grouped-per-namespace.svg" xlink:show="new" xlink:title="DotNetPreAdapter.Domain.VariableDeclarationSyntax-diagram-detailed-grouped-per-namespace.svg" xlink:type="simple"><text fill="#0000FF" font-family="sans-serif" font-size="13" lengthAdjust="spacing" text-decoration="underline" textLength="643" x="24" y="225.2285">DotNetPreAdapter.Domain.VariableDeclarationSyntax-diagram-detailed-grouped-per-namespace.svg</text></a><ellipse cx="17.5" cy="235.7813" fill="#000000" rx="2.5" ry="2.5" style="stroke:#000000;stroke-width:0.0;"/><text fill="#000000" font-family="sans-serif" font-size="13" lengthAdjust="spacing" textLength="78" x="24" y="240.5391">Full diagram</text><text fill="#000000" font-family="sans-serif" font-size="13" font-weight="bold" lengthAdjust="spacing" textLength="67" x="106" y="240.5391">simplified</text><text fill="#000000" font-family="sans-serif" font-size="13" lengthAdjust="spacing" textLength="23" x="177" y="240.5391">and</text><text fill="#000000" font-family="sans-serif" font-size="13" font-weight="bold" lengthAdjust="spacing" textLength="166" x="204" y="240.5391">grouped per namespace</text><text fill="#000000" font-family="sans-serif" font-size="13" lengthAdjust="spacing" textLength="4" x="370" y="240.5391">:</text><text fill="#000000" font-family="sans-serif" font-size="13" lengthAdjust="spacing" textLength="12" x="12" y="255.8496">&#160;&#160;&#160;</text><a href="full-diagram-simplified-grouped-per-namespace.svg" target="_top" title="full-diagram-simplified-grouped-per-namespace.svg" xlink:actuate="onRequest" xlink:href="full-diagram-simplified-grouped-per-namespace.svg" xlink:show="new" xlink:title="full-diagram-simplified-grouped-per-namespace.svg" xlink:type="simple"><text fill="#0000FF" font-family="sans-serif" font-size="13" lengthAdjust="spacing" text-decoration="underline" textLength="343" x="24" y="255.8496">full-diagram-simplified-grouped-per-namespace.svg</text></a><ellipse cx="17.5" cy="266.4023" fill="#000000" rx="2.5" ry="2.5" style="stroke:#000000;stroke-width:0.0;"/><text fill="#000000" font-family="sans-serif" font-size="13" lengthAdjust="spacing" textLength="41" x="24" y="271.1602">Home:</text><text fill="#000000" font-family="sans-serif" font-size="13" lengthAdjust="spacing" textLength="12" x="12" y="286.4707">&#160;&#160;&#160;</text><a href="index.html" target="_top" title="index.html" xlink:actuate="onRequest" xlink:href="index.html" xlink:show="new" xlink:title="index.html" xlink:type="simple"><text fill="#0000FF" font-family="sans-serif" font-size="13" lengthAdjust="spacing" text-decoration="underline" textLength="68" x="24" y="286.4707">index.html</text></a><line style="stroke:#181818;stroke-width:1.0;" x1="7" x2="310" y1="189.6943" y2="189.6943"/><line style="stroke:#181818;stroke-width:1.0;" x1="7" x2="310" y1="191.6943" y2="191.6943"/><text fill="#000000" font-family="sans-serif" font-size="13" lengthAdjust="spacing" textLength="74" x="310" y="194.1074">Select other</text><line style="stroke:#181818;stroke-width:1.0;" x1="384" x2="687" y1="189.6943" y2="189.6943"/><line style="stroke:#181818;stroke-width:1.0;" x1="384" x2="687" y1="191.6943" y2="191.6943"/></g><!--link ASTVisitor to VariableDeclarationSyntax--><g id="link_ASTVisitor_VariableDeclarationSyntax"><path codeLine="24" d="M850,198.8247 C850,198.8247 850,352.1247 850,352.1247 " fill="none" id="ASTVisitor-to-VariableDeclarationSyntax" style="stroke:#6060BB;stroke-width:1.0;stroke-dasharray:7.0,7.0;"/><polygon fill="#6060BB" points="850,357.1247,854,348.1247,850,352.1247,846,348.1247,850,357.1247" style="stroke:#6060BB;stroke-width:1.0;"/><text fill="#000000" font-family="sans-serif" font-size="13" lengthAdjust="spacing" textLength="29" x="820" y="272.043">uses</text></g><!--SRC=[lLHHQ-9047xFhnZQXqB0dDn37wGARKNkIGuy2eSHMPE93jtCXjrDgottts-IghaxJcjwU244JMRcc- -RRySz4XVAgXmqCVfDWM2iNvd0azS8DuvUiFUvEnWQFqR_rU9jgWgFDXgQN1573ygIMcWSOgAbZ2V3amrxjOOmT9GNcZB2D0n1SIglbjQK1QPGe0LMERf29HY6Dvygd470nYDSV3Ub1MLHSfJUl10lUp6Vju6OO-xtHwIbShyVixG0YM98D2MFWEHN4Y-F9iT1pCPAW7BkxIrayZ-hIqZBLNHUWyeFiZ6dP37na6A1d28dX2vwWvsWhhwO2gG23-4ZP5FqYlJxL4LB09XEMsDqKb9BSKfdXzJP8dG4eRD7YDpJSZQhM8nAhM6Rr6eQknOpAR17RTBVm_rYSjoL8D5w7QryhcUp2r0EHje89rwEnMh1s_JQg_qlwft60outgBLvXjVWHt05zzguobHA52qiFf4ftToLY_a-RQx9-KP461j6M62YIeULAxUdoP43kJDYSYjCew39-9FINrYs9V5wfFnMiSDQjWS3K0ldhPB3T7oojvDl3-J86tjab4rGsqxgLcHizoQNtIh-_fygmBDiAn3w7cIlvCYoMJAe-pcZZPhQltAj2FpctyD2I1XSoKeuwOApnLQjLiwngEl3wm3NjQDaYfarUSEW9x4jmm-CE3Z1fj7qyhfxtRsxcqM33omiw84CqC5F]--></g></svg>