<?xml version="1.0" encoding="us-ascii" standalone="no"?><svg xmlns="http://www.w3.org/2000/svg" xmlns:xlink="http://www.w3.org/1999/xlink" contentStyleType="text/css" height="453px" preserveAspectRatio="none" style="width:686px;height:453px;background:#FFFFFF;" version="1.1" viewBox="0 0 686 453" width="686px" zoomAndPan="magnify"><defs/><g><text fill="#000000" font-family="sans-serif" font-size="20" font-weight="bold" lengthAdjust="spacing" textLength="463" x="45.75" y="29.3359">DotNetPreAdapter.Infrastructure.YamlStream</text><text fill="#000000" font-family="sans-serif" font-size="20" font-weight="bold" lengthAdjust="spacing" textLength="104" x="515.75" y="29.3359">simplified</text><text fill="#000000" font-family="sans-serif" font-size="20" font-weight="bold" lengthAdjust="spacing" textLength="7" x="619.75" y="29.3359">&#160;</text><!--cluster DotNetPreAdapter--><g id="cluster_DotNetPreAdapter"><path d="M488,72.5547 L619,72.5547 A3.75,3.75 0 0 1 621.5,75.0547 L628.5,95.043 L677,95.043 A2.5,2.5 0 0 1 679.5,97.543 L679.5,444.0547 A2.5,2.5 0 0 1 677,446.5547 L488,446.5547 A2.5,2.5 0 0 1 485.5,444.0547 L485.5,75.0547 A2.5,2.5 0 0 1 488,72.5547 " fill="none" style="stroke:#000000;stroke-width:1.5;"/><line style="stroke:#000000;stroke-width:1.5;" x1="485.5" x2="628.5" y1="95.043" y2="95.043"/><text fill="#000000" font-family="sans-serif" font-size="14" font-weight="bold" lengthAdjust="spacing" textLength="130" x="489.5" y="88.0898">DotNetPreAdapter</text></g><!--cluster Infrastructure--><g id="cluster_Infrastructure"><path d="M512,115.5547 L612,115.5547 A3.75,3.75 0 0 1 614.5,118.0547 L621.5,138.043 L653,138.043 A2.5,2.5 0 0 1 655.5,140.543 L655.5,420.0547 A2.5,2.5 0 0 1 653,422.5547 L512,422.5547 A2.5,2.5 0 0 1 509.5,420.0547 L509.5,118.0547 A2.5,2.5 0 0 1 512,115.5547 " fill="none" style="stroke:#000000;stroke-width:1.5;"/><line style="stroke:#000000;stroke-width:1.5;" x1="509.5" x2="621.5" y1="138.043" y2="138.043"/><text fill="#000000" font-family="sans-serif" font-size="14" font-weight="bold" lengthAdjust="spacing" textLength="99" x="513.5" y="131.0898">Infrastructure</text></g><!--class YamlStream--><a href="DotNetPreAdapter.Infrastructure.YamlStream-diagram-simplified.svg" target="_top" title="DotNetPreAdapter.Infrastructure.YamlStream-diagram-simplified.svg" xlink:actuate="onRequest" xlink:href="DotNetPreAdapter.Infrastructure.YamlStream-diagram-simplified.svg" xlink:show="new" xlink:title="DotNetPreAdapter.Infrastructure.YamlStream-diagram-simplified.svg" xlink:type="simple"><g id="elem_YamlStream"><rect codeLine="4" fill="#FFFF00" height="48" id="YamlStream" rx="2.5" ry="2.5" style="stroke:#181818;stroke-width:0.5;" width="114" x="525.5" y="358.5547"/><ellipse cx="540.5" cy="374.5547" fill="#ADD1B2" rx="11" ry="11" style="stroke:#181818;stroke-width:1.0;"/><path d="M542.9731,380.6978 Q542.3921,380.9966 541.7529,381.146 Q541.1138,381.2954 540.4082,381.2954 Q537.9014,381.2954 536.5815,379.6436 Q535.2617,377.9917 535.2617,374.8706 Q535.2617,371.7412 536.5815,370.0894 Q537.9014,368.4375 540.4082,368.4375 Q541.1138,368.4375 541.7612,368.5869 Q542.4087,368.7363 542.9731,369.0352 L542.9731,371.7578 Q542.3423,371.1768 541.7488,370.907 Q541.1553,370.6372 540.5244,370.6372 Q539.1797,370.6372 538.4949,371.7039 Q537.8101,372.7705 537.8101,374.8706 Q537.8101,376.9624 538.4949,378.0291 Q539.1797,379.0957 540.5244,379.0957 Q541.1553,379.0957 541.7488,378.8259 Q542.3423,378.5562 542.9731,377.9751 Z " fill="#000000"/><text fill="#000000" font-family="sans-serif" font-size="14" lengthAdjust="spacing" textLength="82" x="554.5" y="379.8457">YamlStream</text><line style="stroke:#181818;stroke-width:0.5;" x1="526.5" x2="638.5" y1="390.5547" y2="390.5547"/><line style="stroke:#181818;stroke-width:0.5;" x1="526.5" x2="638.5" y1="398.5547" y2="398.5547"/></g></a><!--class CreateYml--><a href="DotNetPreAdapter.Infrastructure.CreateYml-diagram-simplified.svg" target="_top" title="DotNetPreAdapter.Infrastructure.CreateYml-diagram-simplified.svg" xlink:actuate="onRequest" xlink:href="DotNetPreAdapter.Infrastructure.CreateYml-diagram-simplified.svg" xlink:show="new" xlink:title="DotNetPreAdapter.Infrastructure.CreateYml-diagram-simplified.svg" xlink:type="simple"><g id="elem_CreateYml"><rect codeLine="6" fill="#F1F1F1" height="48" id="CreateYml" rx="2.5" ry="2.5" style="stroke:#181818;stroke-width:0.5;" width="103" x="531" y="150.5547"/><ellipse cx="546" cy="166.5547" fill="#A9DCDF" rx="11" ry="11" style="stroke:#181818;stroke-width:1.0;"/><path d="M545.8633,161.9028 L544.7095,166.9746 L547.0254,166.9746 Z M544.3691,159.6616 L547.3657,159.6616 L550.7109,172.0547 L548.2622,172.0547 L547.4985,168.9917 L544.2197,168.9917 L543.4727,172.0547 L541.0239,172.0547 Z " fill="#000000"/><text fill="#000000" font-family="sans-serif" font-size="14" font-style="italic" lengthAdjust="spacing" textLength="71" x="560" y="171.8457">CreateYml</text><line style="stroke:#181818;stroke-width:0.5;" x1="532" x2="633" y1="182.5547" y2="182.5547"/><line style="stroke:#181818;stroke-width:0.5;" x1="532" x2="633" y1="190.5547" y2="190.5547"/></g></a><g id="elem_FloatingNote"><path d="M6,50.5547 L6,298.2129 L469,298.2129 L469,60.5547 L459,50.5547 L6,50.5547 " fill="#FEFFDD" style="stroke:#181818;stroke-width:0.5;"/><path d="M459,50.5547 L459,60.5547 L469,60.5547 L459,50.5547 " fill="#FEFFDD" style="stroke:#181818;stroke-width:1.0;"/><text fill="#000000" font-family="sans-serif" font-size="13" lengthAdjust="spacing" textLength="120" x="12" y="68.123">Your are analyzing:</text><text fill="#000000" font-family="sans-serif" font-size="13" lengthAdjust="spacing" textLength="281" x="12" y="83.4336">DotNetPreAdapter.Infrastructure.YamlStream</text><text fill="#000000" font-family="sans-serif" font-size="13" font-weight="bold" lengthAdjust="spacing" textLength="67" x="297" y="83.4336">simplified</text><text fill="#000000" font-family="sans-serif" font-size="13" lengthAdjust="spacing" textLength="4" x="364" y="83.4336">&#160;</text><text fill="#000000" font-family="sans-serif" font-size="13" lengthAdjust="spacing" textLength="4" x="12" y="98.7441">&#160;</text><text fill="#000000" font-family="sans-serif" font-size="13" lengthAdjust="spacing" textLength="229" x="12" y="129.3652">You can click either the namespaces</text><text fill="#000000" font-family="sans-serif" font-size="13" lengthAdjust="spacing" textLength="266" x="12" y="144.6758">or class names for filtering them and their</text><text fill="#000000" font-family="sans-serif" font-size="13" lengthAdjust="spacing" textLength="130" x="12" y="159.9863">direct dependencies.</text><text fill="#000000" font-family="sans-serif" font-size="13" lengthAdjust="spacing" textLength="4" x="12" y="175.2969">&#160;</text><line style="stroke:#181818;stroke-width:1.0;" x1="7" x2="221.5" y1="109.1416" y2="109.1416"/><line style="stroke:#181818;stroke-width:1.0;" x1="7" x2="221.5" y1="111.1416" y2="111.1416"/><text fill="#000000" font-family="sans-serif" font-size="13" lengthAdjust="spacing" textLength="32" x="221.5" y="113.5547">Filter</text><line style="stroke:#181818;stroke-width:1.0;" x1="253.5" x2="468" y1="109.1416" y2="109.1416"/><line style="stroke:#181818;stroke-width:1.0;" x1="253.5" x2="468" y1="111.1416" y2="111.1416"/><ellipse cx="17.5" cy="205.1602" fill="#000000" rx="2.5" ry="2.5" style="stroke:#000000;stroke-width:0.0;"/><text fill="#000000" font-family="sans-serif" font-size="13" lengthAdjust="spacing" textLength="281" x="24" y="209.918">DotNetPreAdapter.Infrastructure.YamlStream</text><text fill="#000000" font-family="sans-serif" font-size="13" font-weight="bold" lengthAdjust="spacing" textLength="55" x="309" y="209.918">detailed</text><text fill="#000000" font-family="sans-serif" font-size="13" lengthAdjust="spacing" textLength="4" x="368" y="209.918">:</text><text fill="#000000" font-family="sans-serif" font-size="13" lengthAdjust="spacing" textLength="12" x="12" y="225.2285">&#160;&#160;&#160;</text><a href="DotNetPreAdapter.Infrastructure.YamlStream-diagram-detailed.svg" target="_top" title="DotNetPreAdapter.Infrastructure.YamlStream-diagram-detailed.svg" xlink:actuate="onRequest" xlink:href="DotNetPreAdapter.Infrastructure.YamlStream-diagram-detailed.svg" xlink:show="new" xlink:title="DotNetPreAdapter.Infrastructure.YamlStream-diagram-detailed.svg" xlink:type="simple"><text fill="#0000FF" font-family="sans-serif" font-size="13" lengthAdjust="spacing" text-decoration="underline" textLength="424" x="24" y="225.2285">DotNetPreAdapter.Infrastructure.YamlStream-diagram-detailed.svg</text></a><ellipse cx="17.5" cy="235.7813" fill="#000000" rx="2.5" ry="2.5" style="stroke:#000000;stroke-width:0.0;"/><text fill="#000000" font-family="sans-serif" font-size="13" lengthAdjust="spacing" textLength="78" x="24" y="240.5391">Full diagram</text><text fill="#000000" font-family="sans-serif" font-size="13" font-weight="bold" lengthAdjust="spacing" textLength="67" x="106" y="240.5391">simplified</text><text fill="#000000" font-family="sans-serif" font-size="13" lengthAdjust="spacing" textLength="23" x="177" y="240.5391">and</text><text fill="#000000" font-family="sans-serif" font-size="13" font-weight="bold" lengthAdjust="spacing" textLength="166" x="204" y="240.5391">grouped per namespace</text><text fill="#000000" font-family="sans-serif" font-size="13" lengthAdjust="spacing" textLength="4" x="370" y="240.5391">:</text><text fill="#000000" font-family="sans-serif" font-size="13" lengthAdjust="spacing" textLength="12" x="12" y="255.8496">&#160;&#160;&#160;</text><a href="full-diagram-simplified-grouped-per-namespace.svg" target="_top" title="full-diagram-simplified-grouped-per-namespace.svg" xlink:actuate="onRequest" xlink:href="full-diagram-simplified-grouped-per-namespace.svg" xlink:show="new" xlink:title="full-diagram-simplified-grouped-per-namespace.svg" xlink:type="simple"><text fill="#0000FF" font-family="sans-serif" font-size="13" lengthAdjust="spacing" text-decoration="underline" textLength="343" x="24" y="255.8496">full-diagram-simplified-grouped-per-namespace.svg</text></a><ellipse cx="17.5" cy="266.4023" fill="#000000" rx="2.5" ry="2.5" style="stroke:#000000;stroke-width:0.0;"/><text fill="#000000" font-family="sans-serif" font-size="13" lengthAdjust="spacing" textLength="41" x="24" y="271.1602">Home:</text><text fill="#000000" font-family="sans-serif" font-size="13" lengthAdjust="spacing" textLength="12" x="12" y="286.4707">&#160;&#160;&#160;</text><a href="index.html" target="_top" title="index.html" xlink:actuate="onRequest" xlink:href="index.html" xlink:show="new" xlink:title="index.html" xlink:type="simple"><text fill="#0000FF" font-family="sans-serif" font-size="13" lengthAdjust="spacing" text-decoration="underline" textLength="68" x="24" y="286.4707">index.html</text></a><line style="stroke:#181818;stroke-width:1.0;" x1="7" x2="200.5" y1="189.6943" y2="189.6943"/><line style="stroke:#181818;stroke-width:1.0;" x1="7" x2="200.5" y1="191.6943" y2="191.6943"/><text fill="#000000" font-family="sans-serif" font-size="13" lengthAdjust="spacing" textLength="74" x="200.5" y="194.1074">Select other</text><line style="stroke:#181818;stroke-width:1.0;" x1="274.5" x2="468" y1="189.6943" y2="189.6943"/><line style="stroke:#181818;stroke-width:1.0;" x1="274.5" x2="468" y1="191.6943" y2="191.6943"/></g><!--link CreateYml to YamlStream--><g id="link_CreateYml_YamlStream"><path codeLine="15" d="M582.5,198.8247 C582.5,198.8247 582.5,352.1247 582.5,352.1247 " fill="none" id="CreateYml-to-YamlStream" style="stroke:#909090;stroke-width:1.0;"/><polygon fill="#909090" points="582.5,357.1247,586.5,348.1247,582.5,352.1247,578.5,348.1247,582.5,357.1247" style="stroke:#909090;stroke-width:1.0;"/><text fill="#000000" font-family="sans-serif" font-size="13" lengthAdjust="spacing" textLength="29" x="552.5" y="272.043">uses</text></g><!--SRC=[jLDDQzj04BthLmp98R0W9VHM4nj2WaaleP2JiNIOQaVsalqGiwisJkb_xwpjs108bGsLG5_xtfktRqRnnVWU6HrOuobjUeB0QHsAP98bk8tcZIPVRcOF8JrH-ivqfx5FnDKttp76n4ER1gPgWSu-9oOHKYeQrrlJ6T9AmUrrrfWLFYI2YqKO6909qAFTl1c_cjJ-VF7QrtuwdHihhEcqzY8FBNfehMbVW4nQ4uDSmAEZs6DBKJY11O0nxhv29-_TLaBiPBGJTpe_6AwzDanj0aqzUKs-DHIhNTbdidabv2Avk8AJDg8feR7RRKW60B1SZkUNsk2AytslKiMVgwR99kQ3jR1V_fXNtfTIAmv3Jnfw2USGZ5BlBZeHEEWVwUMULWgjFD2ETH-3etS98r6zLklaRDDS04QOsu19udsIAIXsuPyGrbd979tlFCBbXgmDl-1tyQS0m1_2HkdVE3VtefreuUm8CmVivrx4183Ok99sZ3hWls6lu7wR09EL5WKVWLwtoSY4T1pSSKGcWZqH_e-eYl6nbylBhpVvRChPARC34nYY_EL_0G00]--></g></svg>