<?xml version="1.0" encoding="us-ascii" standalone="no"?><svg xmlns="http://www.w3.org/2000/svg" xmlns:xlink="http://www.w3.org/1999/xlink" contentStyleType="text/css" height="865px" preserveAspectRatio="none" style="width:1315px;height:865px;background:#FFFFFF;" version="1.1" viewBox="0 0 1315 865" width="1315px" zoomAndPan="magnify"><defs/><g><text fill="#000000" font-family="sans-serif" font-size="20" font-weight="bold" lengthAdjust="spacing" textLength="433" x="385" y="29.3359">DotNetPreAdapter.Domain.SemanticModel</text><text fill="#000000" font-family="sans-serif" font-size="20" font-weight="bold" lengthAdjust="spacing" textLength="84" x="825" y="29.3359">detailed</text><text fill="#000000" font-family="sans-serif" font-size="20" font-weight="bold" lengthAdjust="spacing" textLength="7" x="909" y="29.3359">&#160;</text><!--cluster DotNetPreAdapter--><g id="cluster_DotNetPreAdapter"><path d="M484.5,50.5547 L615.5,50.5547 A3.75,3.75 0 0 1 618,53.0547 L625,73.043 L1305.5,73.043 A2.5,2.5 0 0 1 1308,75.543 L1308,856.0547 A2.5,2.5 0 0 1 1305.5,858.5547 L484.5,858.5547 A2.5,2.5 0 0 1 482,856.0547 L482,53.0547 A2.5,2.5 0 0 1 484.5,50.5547 " fill="none" style="stroke:#000000;stroke-width:1.5;"/><line style="stroke:#000000;stroke-width:1.5;" x1="482" x2="625" y1="73.043" y2="73.043"/><text fill="#000000" font-family="sans-serif" font-size="14" font-weight="bold" lengthAdjust="spacing" textLength="130" x="486" y="66.0898">DotNetPreAdapter</text></g><!--cluster Domain--><g id="cluster_Domain"><path d="M508.5,93.5547 L565.5,93.5547 A3.75,3.75 0 0 1 568,96.0547 L575,116.043 L1281.5,116.043 A2.5,2.5 0 0 1 1284,118.543 L1284,832.0547 A2.5,2.5 0 0 1 1281.5,834.5547 L508.5,834.5547 A2.5,2.5 0 0 1 506,832.0547 L506,96.0547 A2.5,2.5 0 0 1 508.5,93.5547 " fill="none" style="stroke:#000000;stroke-width:1.5;"/><line style="stroke:#000000;stroke-width:1.5;" x1="506" x2="575" y1="116.043" y2="116.043"/><text fill="#000000" font-family="sans-serif" font-size="14" font-weight="bold" lengthAdjust="spacing" textLength="56" x="510" y="109.0898">Domain</text></g><!--class SemanticModel--><a href="DotNetPreAdapter.Domain.SemanticModel-diagram-detailed.svg" target="_top" title="DotNetPreAdapter.Domain.SemanticModel-diagram-detailed.svg" xlink:actuate="onRequest" xlink:href="DotNetPreAdapter.Domain.SemanticModel-diagram-detailed.svg" xlink:show="new" xlink:title="DotNetPreAdapter.Domain.SemanticModel-diagram-detailed.svg" xlink:type="simple"><g id="elem_SemanticModel"><rect codeLine="4" fill="#FFFF00" height="48" id="SemanticModel" rx="2.5" ry="2.5" style="stroke:#181818;stroke-width:0.5;" width="136" x="827" y="770.5547"/><ellipse cx="842" cy="786.5547" fill="#ADD1B2" rx="11" ry="11" style="stroke:#181818;stroke-width:1.0;"/><path d="M844.4731,792.6978 Q843.8921,792.9966 843.2529,793.146 Q842.6138,793.2954 841.9082,793.2954 Q839.4014,793.2954 838.0815,791.6436 Q836.7617,789.9917 836.7617,786.8706 Q836.7617,783.7412 838.0815,782.0894 Q839.4014,780.4375 841.9082,780.4375 Q842.6138,780.4375 843.2612,780.5869 Q843.9087,780.7363 844.4731,781.0352 L844.4731,783.7578 Q843.8423,783.1768 843.2488,782.907 Q842.6553,782.6372 842.0244,782.6372 Q840.6797,782.6372 839.9949,783.7039 Q839.3101,784.7705 839.3101,786.8706 Q839.3101,788.9624 839.9949,790.0291 Q840.6797,791.0957 842.0244,791.0957 Q842.6553,791.0957 843.2488,790.8259 Q843.8423,790.5562 844.4731,789.9751 Z " fill="#000000"/><text fill="#000000" font-family="sans-serif" font-size="14" lengthAdjust="spacing" textLength="104" x="856" y="791.8457">SemanticModel</text><line style="stroke:#181818;stroke-width:0.5;" x1="828" x2="962" y1="802.5547" y2="802.5547"/><line style="stroke:#181818;stroke-width:0.5;" x1="828" x2="962" y1="810.5547" y2="810.5547"/></g></a><!--class ASTVisitor--><a href="DotNetPreAdapter.Domain.ASTVisitor-diagram-detailed.svg" target="_top" title="DotNetPreAdapter.Domain.ASTVisitor-diagram-detailed.svg" xlink:actuate="onRequest" xlink:href="DotNetPreAdapter.Domain.ASTVisitor-diagram-detailed.svg" xlink:show="new" xlink:title="DotNetPreAdapter.Domain.ASTVisitor-diagram-detailed.svg" xlink:type="simple"><g id="elem_ASTVisitor"><rect codeLine="6" fill="#F1F1F1" height="582.1602" id="ASTVisitor" rx="2.5" ry="2.5" style="stroke:#181818;stroke-width:0.5;" width="746" x="522" y="128.5547"/><ellipse cx="855.25" cy="144.5547" fill="#A9DCDF" rx="11" ry="11" style="stroke:#181818;stroke-width:1.0;"/><path d="M855.1133,139.9028 L853.9595,144.9746 L856.2754,144.9746 Z M853.6191,137.6616 L856.6157,137.6616 L859.9609,150.0547 L857.5122,150.0547 L856.7485,146.9917 L853.4697,146.9917 L852.7227,150.0547 L850.2739,150.0547 Z " fill="#000000"/><text fill="#000000" font-family="sans-serif" font-size="14" font-style="italic" lengthAdjust="spacing" textLength="71" x="875.75" y="149.8457">ASTVisitor</text><line style="stroke:#181818;stroke-width:0.5;" x1="523" x2="1267" y1="160.5547" y2="160.5547"/><ellipse cx="533" cy="174.2988" fill="none" rx="3" ry="3" style="stroke:#038048;stroke-width:1.0;"/><text fill="#000000" font-family="sans-serif" font-size="14" lengthAdjust="spacing" textLength="378" x="542" y="178.0898">datastructure: DotNetPreAdapter.Domain.Datastructure</text><ellipse cx="533" cy="190.7871" fill="none" rx="3" ry="3" style="stroke:#038048;stroke-width:1.0;"/><text fill="#000000" font-family="sans-serif" font-size="14" lengthAdjust="spacing" textLength="340" x="542" y="194.5781">model: DotNetPreAdapter.Domain.SemanticModel</text><ellipse cx="533" cy="207.2754" fill="none" rx="3" ry="3" style="stroke:#038048;stroke-width:1.0;"/><text fill="#000000" font-family="sans-serif" font-size="14" lengthAdjust="spacing" textLength="380" x="542" y="211.0664">usingDict: DotNetPreAdapter.Domain.dict[string, string]</text><ellipse cx="533" cy="223.7637" fill="none" rx="3" ry="3" style="stroke:#038048;stroke-width:1.0;"/><text fill="#000000" font-family="sans-serif" font-size="14" lengthAdjust="spacing" textLength="263" x="542" y="227.5547">logger: DotNetPreAdapter.Utils.Logger</text><line style="stroke:#181818;stroke-width:1.0;" x1="523" x2="1267" y1="234.5078" y2="234.5078"/><line style="stroke:#181818;stroke-width:1.0;" x1="523" x2="1267" y1="236.5078" y2="236.5078"/><ellipse cx="533" cy="248.252" fill="#84BE84" rx="3" ry="3" style="stroke:#038048;stroke-width:1.0;"/><text fill="#000000" font-family="sans-serif" font-size="14" lengthAdjust="spacing" textLength="92" x="542" y="252.043">SimplifyType(</text><text fill="#000000" font-family="sans-serif" font-size="14" lengthAdjust="spacing" textLength="5" x="634" y="252.043">)</text><line style="stroke:#181818;stroke-width:1.0;" x1="523" x2="1267" y1="258.9961" y2="258.9961"/><ellipse cx="533" cy="272.7402" fill="#84BE84" rx="3" ry="3" style="stroke:#038048;stroke-width:1.0;"/><text fill="#000000" font-family="sans-serif" font-size="14" lengthAdjust="spacing" textLength="87" x="542" y="276.5313">SyntaxNode(</text><text fill="#6060BB" font-family="sans-serif" font-size="14" lengthAdjust="spacing" textLength="306" x="629" y="276.5313">node:DotNetPreAdapter.Domain.SyntaxNode</text><text fill="#000000" font-family="sans-serif" font-size="14" lengthAdjust="spacing" textLength="5" x="935" y="276.5313">)</text><rect fill="none" height="6" style="stroke:#C82930;stroke-width:1.0;" width="6" x="530" y="286.2285"/><text fill="#909090" font-family="sans-serif" font-size="14" lengthAdjust="spacing" textLength="467" x="542" y="293.0195">SyntaxNode.convertedType: DotNetPreAdapter.Domain.ITypeSymbol</text><line style="stroke:#181818;stroke-width:1.0;" x1="523" x2="1267" y1="299.9727" y2="299.9727"/><ellipse cx="533" cy="313.7168" fill="#84BE84" rx="3" ry="3" style="stroke:#038048;stroke-width:1.0;"/><text fill="#000000" font-family="sans-serif" font-size="14" lengthAdjust="spacing" textLength="156" x="542" y="317.5078">GetCurrentClassName(</text><text fill="#000000" font-family="sans-serif" font-size="14" lengthAdjust="spacing" textLength="5" x="698" y="317.5078">)</text><line style="stroke:#181818;stroke-width:1.0;" x1="523" x2="1267" y1="324.4609" y2="324.4609"/><ellipse cx="533" cy="338.2051" fill="#84BE84" rx="3" ry="3" style="stroke:#038048;stroke-width:1.0;"/><text fill="#000000" font-family="sans-serif" font-size="14" lengthAdjust="spacing" textLength="146" x="542" y="341.9961">CreateClassInterface(</text><text fill="#6060BB" font-family="sans-serif" font-size="14" lengthAdjust="spacing" textLength="233" x="688" y="341.9961">node:DotNetPreAdapter.Domain.T</text><text fill="#000000" font-family="sans-serif" font-size="14" lengthAdjust="spacing" textLength="5" x="921" y="341.9961">)</text><rect fill="none" height="6" style="stroke:#C82930;stroke-width:1.0;" width="6" x="530" y="351.6934"/><text fill="#909090" font-family="sans-serif" font-size="14" lengthAdjust="spacing" textLength="720" x="542" y="358.4844">CreateClassInterface.parentSubDataStructure: DotNetPreAdapter.Domain.Datastructure.SubDataStructure</text><rect fill="none" height="6" style="stroke:#C82930;stroke-width:1.0;" width="6" x="530" y="368.1816"/><text fill="#909090" font-family="sans-serif" font-size="14" lengthAdjust="spacing" textLength="674" x="542" y="374.9727">CreateClassInterface.subDataStructure: DotNetPreAdapter.Domain.Datastructure.SubDataStructure</text><rect fill="none" height="6" style="stroke:#C82930;stroke-width:1.0;" width="6" x="530" y="384.6699"/><text fill="#909090" font-family="sans-serif" font-size="14" lengthAdjust="spacing" textLength="483" x="542" y="391.4609">CreateClassInterface.tmpBase: DotNetPreAdapter.Domain.ITypeSymbol</text><line style="stroke:#181818;stroke-width:1.0;" x1="523" x2="1267" y1="398.4141" y2="398.4141"/><ellipse cx="533" cy="412.1582" fill="#84BE84" rx="3" ry="3" style="stroke:#038048;stroke-width:1.0;"/><text fill="#000000" font-family="sans-serif" font-size="14" lengthAdjust="spacing" textLength="135" x="542" y="415.9492">getCurrentContext(</text><text fill="#000000" font-family="sans-serif" font-size="14" lengthAdjust="spacing" textLength="5" x="677" y="415.9492">)</text><ellipse cx="533" cy="428.6465" fill="#84BE84" rx="3" ry="3" style="stroke:#038048;stroke-width:1.0;"/><text fill="#000000" font-family="sans-serif" font-size="14" lengthAdjust="spacing" textLength="179" x="542" y="432.4375">ArgumentsTupleToString(</text><text fill="#6060BB" font-family="sans-serif" font-size="14" lengthAdjust="spacing" textLength="520" x="721" y="432.4375">arguments_tuple:DotNetPreAdapter.Domain.list[Tuple[string, string, string]]</text><text fill="#000000" font-family="sans-serif" font-size="14" lengthAdjust="spacing" textLength="5" x="1241" y="432.4375">)</text><ellipse cx="533" cy="445.1348" fill="#84BE84" rx="3" ry="3" style="stroke:#038048;stroke-width:1.0;"/><text fill="#000000" font-family="sans-serif" font-size="14" lengthAdjust="spacing" textLength="107" x="542" y="448.9258">cleanForRegEx(</text><text fill="#000000" font-family="sans-serif" font-size="14" lengthAdjust="spacing" textLength="5" x="649" y="448.9258">)</text><ellipse cx="533" cy="461.623" fill="#84BE84" rx="3" ry="3" style="stroke:#038048;stroke-width:1.0;"/><text fill="#000000" font-family="sans-serif" font-size="14" lengthAdjust="spacing" textLength="190" x="542" y="465.4141">VisitNamespaceDeclaration(</text><text fill="#6060BB" font-family="sans-serif" font-size="14" lengthAdjust="spacing" textLength="426" x="732" y="465.4141">node:DotNetPreAdapter.Domain.NamespaceDeclarationSyntax</text><text fill="#000000" font-family="sans-serif" font-size="14" lengthAdjust="spacing" textLength="5" x="1158" y="465.4141">)</text><ellipse cx="533" cy="478.1113" fill="#84BE84" rx="3" ry="3" style="stroke:#038048;stroke-width:1.0;"/><text fill="#000000" font-family="sans-serif" font-size="14" lengthAdjust="spacing" textLength="132" x="542" y="481.9023">VisitUsingDirective(</text><text fill="#6060BB" font-family="sans-serif" font-size="14" lengthAdjust="spacing" textLength="368" x="674" y="481.9023">node:DotNetPreAdapter.Domain.UsingDirectiveSyntax</text><text fill="#000000" font-family="sans-serif" font-size="14" lengthAdjust="spacing" textLength="5" x="1042" y="481.9023">)</text><ellipse cx="533" cy="494.5996" fill="#84BE84" rx="3" ry="3" style="stroke:#038048;stroke-width:1.0;"/><text fill="#000000" font-family="sans-serif" font-size="14" lengthAdjust="spacing" textLength="151" x="542" y="498.3906">VisitEnumDeclaration(</text><text fill="#6060BB" font-family="sans-serif" font-size="14" lengthAdjust="spacing" textLength="387" x="693" y="498.3906">node:DotNetPreAdapter.Domain.EnumDeclarationSyntax</text><text fill="#000000" font-family="sans-serif" font-size="14" lengthAdjust="spacing" textLength="5" x="1080" y="498.3906">)</text><ellipse cx="533" cy="511.0879" fill="#84BE84" rx="3" ry="3" style="stroke:#038048;stroke-width:1.0;"/><text fill="#000000" font-family="sans-serif" font-size="14" lengthAdjust="spacing" textLength="172" x="542" y="514.8789">VisitInterfaceDeclaration(</text><text fill="#6060BB" font-family="sans-serif" font-size="14" lengthAdjust="spacing" textLength="408" x="714" y="514.8789">node:DotNetPreAdapter.Domain.InterfaceDeclarationSyntax</text><text fill="#000000" font-family="sans-serif" font-size="14" lengthAdjust="spacing" textLength="5" x="1122" y="514.8789">)</text><ellipse cx="533" cy="527.5762" fill="#84BE84" rx="3" ry="3" style="stroke:#038048;stroke-width:1.0;"/><text fill="#000000" font-family="sans-serif" font-size="14" lengthAdjust="spacing" textLength="148" x="542" y="531.3672">VisitClassDeclaration(</text><text fill="#6060BB" font-family="sans-serif" font-size="14" lengthAdjust="spacing" textLength="384" x="690" y="531.3672">node:DotNetPreAdapter.Domain.ClassDeclarationSyntax</text><text fill="#000000" font-family="sans-serif" font-size="14" lengthAdjust="spacing" textLength="5" x="1074" y="531.3672">)</text><line style="stroke:#181818;stroke-width:1.0;" x1="523" x2="1267" y1="538.3203" y2="538.3203"/><ellipse cx="533" cy="552.0645" fill="#84BE84" rx="3" ry="3" style="stroke:#038048;stroke-width:1.0;"/><text fill="#000000" font-family="sans-serif" font-size="14" lengthAdjust="spacing" textLength="164" x="542" y="555.8555">VisitMethodDeclaration(</text><text fill="#6060BB" font-family="sans-serif" font-size="14" lengthAdjust="spacing" textLength="400" x="706" y="555.8555">node:DotNetPreAdapter.Domain.MethodDeclarationSyntax</text><text fill="#000000" font-family="sans-serif" font-size="14" lengthAdjust="spacing" textLength="5" x="1106" y="555.8555">)</text><rect fill="none" height="6" style="stroke:#C82930;stroke-width:1.0;" width="6" x="530" y="565.5527"/><text fill="#909090" font-family="sans-serif" font-size="14" lengthAdjust="spacing" textLength="687" x="542" y="572.3438">VisitMethodDeclaration.arguments_tuple: DotNetPreAdapter.Domain.list[Tuple[string, string, string]]</text><rect fill="none" height="6" style="stroke:#C82930;stroke-width:1.0;" width="6" x="530" y="582.041"/><text fill="#909090" font-family="sans-serif" font-size="14" lengthAdjust="spacing" textLength="601" x="542" y="588.832">VisitMethodDeclaration.parameterSymbol: DotNetPreAdapter.Domain.IParameterSymbol</text><rect fill="none" height="6" style="stroke:#C82930;stroke-width:1.0;" width="6" x="530" y="598.5293"/><text fill="#909090" font-family="sans-serif" font-size="14" lengthAdjust="spacing" textLength="692" x="542" y="605.3203">VisitMethodDeclaration.subDataStructure: DotNetPreAdapter.Domain.Datastructure.SubDataStructure</text><line style="stroke:#181818;stroke-width:1.0;" x1="523" x2="1267" y1="612.2734" y2="612.2734"/><ellipse cx="533" cy="626.0176" fill="#84BE84" rx="3" ry="3" style="stroke:#038048;stroke-width:1.0;"/><text fill="#000000" font-family="sans-serif" font-size="14" lengthAdjust="spacing" textLength="168" x="542" y="629.8086">VisitVariableDeclaration(</text><text fill="#6060BB" font-family="sans-serif" font-size="14" lengthAdjust="spacing" textLength="404" x="710" y="629.8086">node:DotNetPreAdapter.Domain.VariableDeclarationSyntax</text><text fill="#000000" font-family="sans-serif" font-size="14" lengthAdjust="spacing" textLength="5" x="1114" y="629.8086">)</text><rect fill="none" height="6" style="stroke:#C82930;stroke-width:1.0;" width="6" x="530" y="639.5059"/><text fill="#909090" font-family="sans-serif" font-size="14" lengthAdjust="spacing" textLength="696" x="542" y="646.2969">VisitVariableDeclaration.subDataStructure: DotNetPreAdapter.Domain.Datastructure.SubDataStructure</text><rect fill="none" height="6" style="stroke:#C82930;stroke-width:1.0;" width="6" x="530" y="655.9941"/><text fill="#909090" font-family="sans-serif" font-size="14" lengthAdjust="spacing" textLength="505" x="542" y="662.7852">VisitVariableDeclaration.aliasInfo: DotNetPreAdapter.Domain.IAliasSymbol</text><rect fill="none" height="6" style="stroke:#C82930;stroke-width:1.0;" width="6" x="530" y="672.4824"/><text fill="#909090" font-family="sans-serif" font-size="14" lengthAdjust="spacing" textLength="476" x="542" y="679.2734">VisitVariableDeclaration.type: DotNetPreAdapter.Domain.ITypeSymbol</text><rect fill="none" height="6" style="stroke:#C82930;stroke-width:1.0;" width="6" x="530" y="688.9707"/><text fill="#909090" font-family="sans-serif" font-size="14" lengthAdjust="spacing" textLength="562" x="542" y="695.7617">VisitVariableDeclaration.method: DotNetPreAdapter.Domain.Datastructure.Method</text><line style="stroke:#181818;stroke-width:1.0;" x1="523" x2="1267" y1="702.7148" y2="702.7148"/></g></a><g id="elem_FloatingNote"><path d="M6,295.5547 L6,543.2129 L466,543.2129 L466,305.5547 L456,295.5547 L6,295.5547 " fill="#FEFFDD" style="stroke:#181818;stroke-width:0.5;"/><path d="M456,295.5547 L456,305.5547 L466,305.5547 L456,295.5547 " fill="#FEFFDD" style="stroke:#181818;stroke-width:1.0;"/><text fill="#000000" font-family="sans-serif" font-size="13" lengthAdjust="spacing" textLength="120" x="12" y="313.123">Your are analyzing:</text><text fill="#000000" font-family="sans-serif" font-size="13" lengthAdjust="spacing" textLength="265" x="12" y="328.4336">DotNetPreAdapter.Domain.SemanticModel</text><text fill="#000000" font-family="sans-serif" font-size="13" font-weight="bold" lengthAdjust="spacing" textLength="55" x="281" y="328.4336">detailed</text><text fill="#000000" font-family="sans-serif" font-size="13" lengthAdjust="spacing" textLength="4" x="336" y="328.4336">&#160;</text><text fill="#000000" font-family="sans-serif" font-size="13" lengthAdjust="spacing" textLength="4" x="12" y="343.7441">&#160;</text><text fill="#000000" font-family="sans-serif" font-size="13" lengthAdjust="spacing" textLength="229" x="12" y="374.3652">You can click either the namespaces</text><text fill="#000000" font-family="sans-serif" font-size="13" lengthAdjust="spacing" textLength="266" x="12" y="389.6758">or class names for filtering them and their</text><text fill="#000000" font-family="sans-serif" font-size="13" lengthAdjust="spacing" textLength="130" x="12" y="404.9863">direct dependencies.</text><text fill="#000000" font-family="sans-serif" font-size="13" lengthAdjust="spacing" textLength="4" x="12" y="420.2969">&#160;</text><line style="stroke:#181818;stroke-width:1.0;" x1="7" x2="220" y1="354.1416" y2="354.1416"/><line style="stroke:#181818;stroke-width:1.0;" x1="7" x2="220" y1="356.1416" y2="356.1416"/><text fill="#000000" font-family="sans-serif" font-size="13" lengthAdjust="spacing" textLength="32" x="220" y="358.5547">Filter</text><line style="stroke:#181818;stroke-width:1.0;" x1="252" x2="465" y1="354.1416" y2="354.1416"/><line style="stroke:#181818;stroke-width:1.0;" x1="252" x2="465" y1="356.1416" y2="356.1416"/><ellipse cx="17.5" cy="450.1602" fill="#000000" rx="2.5" ry="2.5" style="stroke:#000000;stroke-width:0.0;"/><text fill="#000000" font-family="sans-serif" font-size="13" lengthAdjust="spacing" textLength="265" x="24" y="454.918">DotNetPreAdapter.Domain.SemanticModel</text><text fill="#000000" font-family="sans-serif" font-size="13" font-weight="bold" lengthAdjust="spacing" textLength="67" x="293" y="454.918">simplified</text><text fill="#000000" font-family="sans-serif" font-size="13" lengthAdjust="spacing" textLength="4" x="364" y="454.918">:</text><text fill="#000000" font-family="sans-serif" font-size="13" lengthAdjust="spacing" textLength="12" x="12" y="470.2285">&#160;&#160;&#160;</text><a href="DotNetPreAdapter.Domain.SemanticModel-diagram-simplified.svg" target="_top" title="DotNetPreAdapter.Domain.SemanticModel-diagram-simplified.svg" xlink:actuate="onRequest" xlink:href="DotNetPreAdapter.Domain.SemanticModel-diagram-simplified.svg" xlink:show="new" xlink:title="DotNetPreAdapter.Domain.SemanticModel-diagram-simplified.svg" xlink:type="simple"><text fill="#0000FF" font-family="sans-serif" font-size="13" lengthAdjust="spacing" text-decoration="underline" textLength="421" x="24" y="470.2285">DotNetPreAdapter.Domain.SemanticModel-diagram-simplified.svg</text></a><ellipse cx="17.5" cy="480.7813" fill="#000000" rx="2.5" ry="2.5" style="stroke:#000000;stroke-width:0.0;"/><text fill="#000000" font-family="sans-serif" font-size="13" lengthAdjust="spacing" textLength="78" x="24" y="485.5391">Full diagram</text><text fill="#000000" font-family="sans-serif" font-size="13" font-weight="bold" lengthAdjust="spacing" textLength="55" x="106" y="485.5391">detailed</text><text fill="#000000" font-family="sans-serif" font-size="13" lengthAdjust="spacing" textLength="23" x="165" y="485.5391">and</text><text fill="#000000" font-family="sans-serif" font-size="13" font-weight="bold" lengthAdjust="spacing" textLength="166" x="192" y="485.5391">grouped per namespace</text><text fill="#000000" font-family="sans-serif" font-size="13" lengthAdjust="spacing" textLength="4" x="358" y="485.5391">:</text><text fill="#000000" font-family="sans-serif" font-size="13" lengthAdjust="spacing" textLength="12" x="12" y="500.8496">&#160;&#160;&#160;</text><a href="full-diagram-detailed-grouped-per-namespace.svg" target="_top" title="full-diagram-detailed-grouped-per-namespace.svg" xlink:actuate="onRequest" xlink:href="full-diagram-detailed-grouped-per-namespace.svg" xlink:show="new" xlink:title="full-diagram-detailed-grouped-per-namespace.svg" xlink:type="simple"><text fill="#0000FF" font-family="sans-serif" font-size="13" lengthAdjust="spacing" text-decoration="underline" textLength="330" x="24" y="500.8496">full-diagram-detailed-grouped-per-namespace.svg</text></a><ellipse cx="17.5" cy="511.4023" fill="#000000" rx="2.5" ry="2.5" style="stroke:#000000;stroke-width:0.0;"/><text fill="#000000" font-family="sans-serif" font-size="13" lengthAdjust="spacing" textLength="41" x="24" y="516.1602">Home:</text><text fill="#000000" font-family="sans-serif" font-size="13" lengthAdjust="spacing" textLength="12" x="12" y="531.4707">&#160;&#160;&#160;</text><a href="index.html" target="_top" title="index.html" xlink:actuate="onRequest" xlink:href="index.html" xlink:show="new" xlink:title="index.html" xlink:type="simple"><text fill="#0000FF" font-family="sans-serif" font-size="13" lengthAdjust="spacing" text-decoration="underline" textLength="68" x="24" y="531.4707">index.html</text></a><line style="stroke:#181818;stroke-width:1.0;" x1="7" x2="199" y1="434.6943" y2="434.6943"/><line style="stroke:#181818;stroke-width:1.0;" x1="7" x2="199" y1="436.6943" y2="436.6943"/><text fill="#000000" font-family="sans-serif" font-size="13" lengthAdjust="spacing" textLength="74" x="199" y="439.1074">Select other</text><line style="stroke:#181818;stroke-width:1.0;" x1="273" x2="465" y1="434.6943" y2="434.6943"/><line style="stroke:#181818;stroke-width:1.0;" x1="273" x2="465" y1="436.6943" y2="436.6943"/></g><!--link ASTVisitor to SemanticModel--><g id="link_ASTVisitor_SemanticModel"><path codeLine="52" d="M895,710.8647 C895,710.8647 895,764.2547 895,764.2547 " fill="none" id="ASTVisitor-to-SemanticModel" style="stroke:#6060BB;stroke-width:1.0;stroke-dasharray:7.0,7.0;"/><polygon fill="#6060BB" points="895,769.2547,899,760.2547,895,764.2547,891,760.2547,895,769.2547" style="stroke:#6060BB;stroke-width:1.0;"/><text fill="#000000" font-family="sans-serif" font-size="13" lengthAdjust="spacing" textLength="29" x="865" y="734.123">uses</text></g><!--SRC=[nLTRRzem57xdLnpHXsxPIAizL1egIBIKRTAAga4hJO0cDpcaLXqxifskTDf_tt72PR2a2x1BA_M2p_TzvvxOt7EPCCrY45oYdIK8IjixLRFS2eHJmv-m-UQutLMsZ_PAOoTaYKNjTrNCkFG763DfUN2fGXJWUI5QnWM6dWUdHmxShabb4UgVLQg1QGGccPWzSHarnt87rh4SorQhnmMPjrfZIRmGC0c1uC4z8BTtg85-W6GnceG5Q0YZD1amO_9FOKh_JpCAyiDPn-HMwFxWUYn3hZ6m46A2CaGPS3H-BZj0uKwK4t7Y7bIDmF0u4NpAinWeSW0OZIg16o5d4HMeiQBmpKCqcJZvNYe4p0tMy-JYyRn8gpJ1419AoZ8XdhTmO4hm9Vy2t9Y36WHgB44hpVSgnWK1fmGz-dSs5fD97PY1db3CKbBxLFHQdl9gATes6mjlSx_WO8P2gA_mhVQz1i1kZTMCAlMy1vt1y8ORRgaRokLNHcNQ94h9W5SGCij8E0righ5PAjlzsMmEZLrmpMgvcaDIGtdkyi2Mmq8w7P4K6Rw6_FTaZXOgYb0NGAyj5yR_c1tNMgsv-I1lljcGDiIBqwcIb5ibb6xLJuvFZi_EwktJ8_Tf-sMjqLXWPjAonpwvN8oGTD8iZNW9NX8xrWQiKRqzTj_rzihQ3vHyG6qnTAwMf-Q3EnxCubibvW8hnz-XFK-rHcdFNV_qQGQgndokaLdCO1yaoKrfT7Q8VbWbw28jdvOv-Jr8RrsN3RPiHdyJjqZDjbwO_wnlu-ICcHtB7wtAJmVuQ7zJ_1pLqL4Q4yOCqqJWK0soSIk6ieNj5-kCIzj0S6D76T_652-dURBXHI2GoPxIdp2wUApaTxRS-eirtqLQcPfMk98xj6qHJJwQHQBN-G9p3rl-iCkKh1EK2rt8DDuli0s6Sgbb2-wdLqHJBfer_tw2cnGROilPoFGkaTuGm_q4V-4e2Azauejzy3U72lQVgXsyo5wcaTJovVBC1hfQjznTyayls_LYtp3DsQtOiw4BMBOiU073ltpCbFh016Vqv9cgPqhTSJRRbRb8ocxxHhEBI9prLzLCvjsurZdq0dv8LuzAN_3NR0yXMscWKMHn6Q07kRiJq6regbMykWuroNPByvBSr2fSDFpHGJum4xzTyMe4JNhNfrlh3m00]--></g></svg>