<?xml version="1.0" encoding="us-ascii" standalone="no"?><svg xmlns="http://www.w3.org/2000/svg" xmlns:xlink="http://www.w3.org/1999/xlink" contentStyleType="text/css" height="429px" preserveAspectRatio="none" style="width:570px;height:429px;background:#FFFFFF;" version="1.1" viewBox="0 0 570 429" width="570px" zoomAndPan="magnify"><defs/><g><text fill="#000000" font-family="sans-serif" font-size="20" font-weight="bold" lengthAdjust="spacing" textLength="324" x="57.25" y="29.3359">DotNetPreAdapter.UnusedClass</text><text fill="#000000" font-family="sans-serif" font-size="20" font-weight="bold" lengthAdjust="spacing" textLength="104" x="388.25" y="29.3359">simplified</text><text fill="#000000" font-family="sans-serif" font-size="20" font-weight="bold" lengthAdjust="spacing" textLength="7" x="492.25" y="29.3359">&#160;</text><!--cluster DotNetPreAdapter--><g id="cluster_DotNetPreAdapter"><path d="M414,115.5547 L545,115.5547 A3.75,3.75 0 0 1 547.5,118.0547 L554.5,138.043 L561,138.043 A2.5,2.5 0 0 1 563.5,140.543 L563.5,420.0547 A2.5,2.5 0 0 1 561,422.5547 L414,422.5547 A2.5,2.5 0 0 1 411.5,420.0547 L411.5,118.0547 A2.5,2.5 0 0 1 414,115.5547 " fill="none" style="stroke:#000000;stroke-width:1.5;"/><line style="stroke:#000000;stroke-width:1.5;" x1="411.5" x2="554.5" y1="138.043" y2="138.043"/><text fill="#000000" font-family="sans-serif" font-size="14" font-weight="bold" lengthAdjust="spacing" textLength="130" x="415.5" y="131.0898">DotNetPreAdapter</text></g><!--class UnusedClass--><a href="DotNetPreAdapter.UnusedClass-diagram-simplified.svg" target="_top" title="DotNetPreAdapter.UnusedClass-diagram-simplified.svg" xlink:actuate="onRequest" xlink:href="DotNetPreAdapter.UnusedClass-diagram-simplified.svg" xlink:show="new" xlink:title="DotNetPreAdapter.UnusedClass-diagram-simplified.svg" xlink:type="simple"><g id="elem_UnusedClass"><rect codeLine="4" fill="#FFFF00" height="48" id="UnusedClass" rx="2.5" ry="2.5" style="stroke:#181818;stroke-width:0.5;" width="120" x="427.5" y="358.5547"/><ellipse cx="442.5" cy="374.5547" fill="#A9DCDF" rx="11" ry="11" style="stroke:#181818;stroke-width:1.0;"/><path d="M442.3633,369.9028 L441.2095,374.9746 L443.5254,374.9746 Z M440.8691,367.6616 L443.8657,367.6616 L447.2109,380.0547 L444.7622,380.0547 L443.9985,376.9917 L440.7197,376.9917 L439.9727,380.0547 L437.5239,380.0547 Z " fill="#000000"/><text fill="#000000" font-family="sans-serif" font-size="14" font-style="italic" lengthAdjust="spacing" textLength="88" x="456.5" y="379.8457">UnusedClass</text><line style="stroke:#181818;stroke-width:0.5;" x1="428.5" x2="546.5" y1="390.5547" y2="390.5547"/><line style="stroke:#181818;stroke-width:0.5;" x1="428.5" x2="546.5" y1="398.5547" y2="398.5547"/></g></a><!--class Program--><a href="DotNetPreAdapter.Program-diagram-simplified.svg" target="_top" title="DotNetPreAdapter.Program-diagram-simplified.svg" xlink:actuate="onRequest" xlink:href="DotNetPreAdapter.Program-diagram-simplified.svg" xlink:show="new" xlink:title="DotNetPreAdapter.Program-diagram-simplified.svg" xlink:type="simple"><g id="elem_Program"><rect codeLine="6" fill="#F1F1F1" height="48" id="Program" rx="2.5" ry="2.5" style="stroke:#181818;stroke-width:0.5;" width="91" x="442" y="150.5547"/><ellipse cx="457" cy="166.5547" fill="#A9DCDF" rx="11" ry="11" style="stroke:#181818;stroke-width:1.0;"/><path d="M456.8633,161.9028 L455.7095,166.9746 L458.0254,166.9746 Z M455.3691,159.6616 L458.3657,159.6616 L461.7109,172.0547 L459.2622,172.0547 L458.4985,168.9917 L455.2197,168.9917 L454.4727,172.0547 L452.0239,172.0547 Z " fill="#000000"/><text fill="#000000" font-family="sans-serif" font-size="14" font-style="italic" lengthAdjust="spacing" textLength="59" x="471" y="171.8457">Program</text><line style="stroke:#181818;stroke-width:0.5;" x1="443" x2="532" y1="182.5547" y2="182.5547"/><line style="stroke:#181818;stroke-width:0.5;" x1="443" x2="532" y1="190.5547" y2="190.5547"/></g></a><g id="elem_FloatingNote"><path d="M6,50.5547 L6,298.2129 L395,298.2129 L395,60.5547 L385,50.5547 L6,50.5547 " fill="#FEFFDD" style="stroke:#181818;stroke-width:0.5;"/><path d="M385,50.5547 L385,60.5547 L395,60.5547 L385,50.5547 " fill="#FEFFDD" style="stroke:#181818;stroke-width:1.0;"/><text fill="#000000" font-family="sans-serif" font-size="13" lengthAdjust="spacing" textLength="120" x="12" y="68.123">Your are analyzing:</text><text fill="#000000" font-family="sans-serif" font-size="13" lengthAdjust="spacing" textLength="198" x="12" y="83.4336">DotNetPreAdapter.UnusedClass</text><text fill="#000000" font-family="sans-serif" font-size="13" font-weight="bold" lengthAdjust="spacing" textLength="67" x="214" y="83.4336">simplified</text><text fill="#000000" font-family="sans-serif" font-size="13" lengthAdjust="spacing" textLength="4" x="281" y="83.4336">&#160;</text><text fill="#000000" font-family="sans-serif" font-size="13" lengthAdjust="spacing" textLength="4" x="12" y="98.7441">&#160;</text><text fill="#000000" font-family="sans-serif" font-size="13" lengthAdjust="spacing" textLength="229" x="12" y="129.3652">You can click either the namespaces</text><text fill="#000000" font-family="sans-serif" font-size="13" lengthAdjust="spacing" textLength="266" x="12" y="144.6758">or class names for filtering them and their</text><text fill="#000000" font-family="sans-serif" font-size="13" lengthAdjust="spacing" textLength="130" x="12" y="159.9863">direct dependencies.</text><text fill="#000000" font-family="sans-serif" font-size="13" lengthAdjust="spacing" textLength="4" x="12" y="175.2969">&#160;</text><line style="stroke:#181818;stroke-width:1.0;" x1="7" x2="184.5" y1="109.1416" y2="109.1416"/><line style="stroke:#181818;stroke-width:1.0;" x1="7" x2="184.5" y1="111.1416" y2="111.1416"/><text fill="#000000" font-family="sans-serif" font-size="13" lengthAdjust="spacing" textLength="32" x="184.5" y="113.5547">Filter</text><line style="stroke:#181818;stroke-width:1.0;" x1="216.5" x2="394" y1="109.1416" y2="109.1416"/><line style="stroke:#181818;stroke-width:1.0;" x1="216.5" x2="394" y1="111.1416" y2="111.1416"/><ellipse cx="17.5" cy="205.1602" fill="#000000" rx="2.5" ry="2.5" style="stroke:#000000;stroke-width:0.0;"/><text fill="#000000" font-family="sans-serif" font-size="13" lengthAdjust="spacing" textLength="198" x="24" y="209.918">DotNetPreAdapter.UnusedClass</text><text fill="#000000" font-family="sans-serif" font-size="13" font-weight="bold" lengthAdjust="spacing" textLength="55" x="226" y="209.918">detailed</text><text fill="#000000" font-family="sans-serif" font-size="13" lengthAdjust="spacing" textLength="4" x="285" y="209.918">:</text><text fill="#000000" font-family="sans-serif" font-size="13" lengthAdjust="spacing" textLength="12" x="12" y="225.2285">&#160;&#160;&#160;</text><a href="DotNetPreAdapter.UnusedClass-diagram-detailed.svg" target="_top" title="DotNetPreAdapter.UnusedClass-diagram-detailed.svg" xlink:actuate="onRequest" xlink:href="DotNetPreAdapter.UnusedClass-diagram-detailed.svg" xlink:show="new" xlink:title="DotNetPreAdapter.UnusedClass-diagram-detailed.svg" xlink:type="simple"><text fill="#0000FF" font-family="sans-serif" font-size="13" lengthAdjust="spacing" text-decoration="underline" textLength="341" x="24" y="225.2285">DotNetPreAdapter.UnusedClass-diagram-detailed.svg</text></a><ellipse cx="17.5" cy="235.7813" fill="#000000" rx="2.5" ry="2.5" style="stroke:#000000;stroke-width:0.0;"/><text fill="#000000" font-family="sans-serif" font-size="13" lengthAdjust="spacing" textLength="78" x="24" y="240.5391">Full diagram</text><text fill="#000000" font-family="sans-serif" font-size="13" font-weight="bold" lengthAdjust="spacing" textLength="67" x="106" y="240.5391">simplified</text><text fill="#000000" font-family="sans-serif" font-size="13" lengthAdjust="spacing" textLength="23" x="177" y="240.5391">and</text><text fill="#000000" font-family="sans-serif" font-size="13" font-weight="bold" lengthAdjust="spacing" textLength="166" x="204" y="240.5391">grouped per namespace</text><text fill="#000000" font-family="sans-serif" font-size="13" lengthAdjust="spacing" textLength="4" x="370" y="240.5391">:</text><text fill="#000000" font-family="sans-serif" font-size="13" lengthAdjust="spacing" textLength="12" x="12" y="255.8496">&#160;&#160;&#160;</text><a href="full-diagram-simplified-grouped-per-namespace.svg" target="_top" title="full-diagram-simplified-grouped-per-namespace.svg" xlink:actuate="onRequest" xlink:href="full-diagram-simplified-grouped-per-namespace.svg" xlink:show="new" xlink:title="full-diagram-simplified-grouped-per-namespace.svg" xlink:type="simple"><text fill="#0000FF" font-family="sans-serif" font-size="13" lengthAdjust="spacing" text-decoration="underline" textLength="343" x="24" y="255.8496">full-diagram-simplified-grouped-per-namespace.svg</text></a><ellipse cx="17.5" cy="266.4023" fill="#000000" rx="2.5" ry="2.5" style="stroke:#000000;stroke-width:0.0;"/><text fill="#000000" font-family="sans-serif" font-size="13" lengthAdjust="spacing" textLength="41" x="24" y="271.1602">Home:</text><text fill="#000000" font-family="sans-serif" font-size="13" lengthAdjust="spacing" textLength="12" x="12" y="286.4707">&#160;&#160;&#160;</text><a href="index.html" target="_top" title="index.html" xlink:actuate="onRequest" xlink:href="index.html" xlink:show="new" xlink:title="index.html" xlink:type="simple"><text fill="#0000FF" font-family="sans-serif" font-size="13" lengthAdjust="spacing" text-decoration="underline" textLength="68" x="24" y="286.4707">index.html</text></a><line style="stroke:#181818;stroke-width:1.0;" x1="7" x2="163.5" y1="189.6943" y2="189.6943"/><line style="stroke:#181818;stroke-width:1.0;" x1="7" x2="163.5" y1="191.6943" y2="191.6943"/><text fill="#000000" font-family="sans-serif" font-size="13" lengthAdjust="spacing" textLength="74" x="163.5" y="194.1074">Select other</text><line style="stroke:#181818;stroke-width:1.0;" x1="237.5" x2="394" y1="189.6943" y2="189.6943"/><line style="stroke:#181818;stroke-width:1.0;" x1="237.5" x2="394" y1="191.6943" y2="191.6943"/></g><!--link Program to UnusedClass--><g id="link_Program_UnusedClass"><path codeLine="13" d="M487.5,198.8247 C487.5,198.8247 487.5,352.1247 487.5,352.1247 " fill="none" id="Program-to-UnusedClass" style="stroke:#909090;stroke-width:1.0;"/><polygon fill="#909090" points="487.5,357.1247,491.5,348.1247,487.5,352.1247,483.5,348.1247,487.5,357.1247" style="stroke:#909090;stroke-width:1.0;"/><text fill="#000000" font-family="sans-serif" font-size="13" lengthAdjust="spacing" textLength="29" x="457.5" y="272.043">uses</text></g><!--SRC=[jP51IyD048Nl-HM3FGWBgSMRnHP4APv440_IvB1c9-tWPZViRjGg_dTdaxQ1Obizc418ilFUc_d6lv2ffPCLQ38OLZM2TM5faq118rnw-i3n-MXwOyCTXdk7LqhM0TtmqJGUrRMMteCGdgfQKqceX83BiwYQ9iO6X9CdspYG3a4QgLSVP1RZpFp5BZEPcKncfBbkCiaC6q8X3HIQYXT02ajqm0ymia9Vom8zQwpZWkZM_eMIlylMWXk8rHNte-8BkSmeSbW4K5YZKMWAGZ_iOXzGnnCRGsAuW2EjAmoITDiupma0y_aXHQf8BXX_kj4D_UiYpsFGhD4QriUxJ6BlGYoSRMfKK3E0xV12R79BDjZwz_9qBKjPbcvbVUwjhN1ZGOpZVRWCbSxp4v0UPjhAm0ZlUBU9VFR1ISRJaJv8vfSO-ZQxXc2mGgtj6tmcNqVpxfrjOVsGjJxQdzC6m2bJ_TK5_rPx2XqmXvf9M-C1tzkfUT6birM_wJ7NxWwQx8MIpWSNetZdwVJmgc0C_E7X6m00]--></g></svg>