<?xml version="1.0" encoding="us-ascii" standalone="no"?><svg xmlns="http://www.w3.org/2000/svg" xmlns:xlink="http://www.w3.org/1999/xlink" contentStyleType="text/css" height="684px" preserveAspectRatio="none" style="width:651px;height:684px;background:#FFFFFF;" version="1.1" viewBox="0 0 651 684" width="651px" zoomAndPan="magnify"><defs/><g><text fill="#000000" font-family="sans-serif" font-size="20" font-weight="bold" lengthAdjust="spacing" textLength="378" x="70.75" y="29.3359">DotNetPreAdapter.UnusedASTVisitor</text><text fill="#000000" font-family="sans-serif" font-size="20" font-weight="bold" lengthAdjust="spacing" textLength="104" x="455.75" y="29.3359">simplified</text><text fill="#000000" font-family="sans-serif" font-size="20" font-weight="bold" lengthAdjust="spacing" textLength="7" x="559.75" y="29.3359">&#160;</text><!--cluster DotNetPreAdapter--><g id="cluster_DotNetPreAdapter"><path d="M428,323.5547 L559,323.5547 A3.75,3.75 0 0 1 561.5,326.0547 L568.5,346.043 L642,346.043 A2.5,2.5 0 0 1 644.5,348.543 L644.5,675.0547 A2.5,2.5 0 0 1 642,677.5547 L428,677.5547 A2.5,2.5 0 0 1 425.5,675.0547 L425.5,326.0547 A2.5,2.5 0 0 1 428,323.5547 " fill="none" style="stroke:#000000;stroke-width:1.5;"/><line style="stroke:#000000;stroke-width:1.5;" x1="425.5" x2="568.5" y1="346.043" y2="346.043"/><text fill="#000000" font-family="sans-serif" font-size="14" font-weight="bold" lengthAdjust="spacing" textLength="130" x="429.5" y="339.0898">DotNetPreAdapter</text></g><!--cluster Domain--><g id="cluster_Domain"><path d="M452,431.5547 L509,431.5547 A3.75,3.75 0 0 1 511.5,434.0547 L518.5,454.043 L605,454.043 A2.5,2.5 0 0 1 607.5,456.543 L607.5,528.0547 A2.5,2.5 0 0 1 605,530.5547 L452,530.5547 A2.5,2.5 0 0 1 449.5,528.0547 L449.5,434.0547 A2.5,2.5 0 0 1 452,431.5547 " fill="none" style="stroke:#000000;stroke-width:1.5;"/><line style="stroke:#000000;stroke-width:1.5;" x1="449.5" x2="518.5" y1="454.043" y2="454.043"/><text fill="#000000" font-family="sans-serif" font-size="14" font-weight="bold" lengthAdjust="spacing" textLength="56" x="453.5" y="447.0898">Domain</text></g><!--cluster Utils--><g id="cluster_Utils"><path d="M493,554.5547 L528,554.5547 A3.75,3.75 0 0 1 530.5,557.0547 L537.5,577.043 L600,577.043 A2.5,2.5 0 0 1 602.5,579.543 L602.5,651.0547 A2.5,2.5 0 0 1 600,653.5547 L493,653.5547 A2.5,2.5 0 0 1 490.5,651.0547 L490.5,557.0547 A2.5,2.5 0 0 1 493,554.5547 " fill="none" style="stroke:#000000;stroke-width:1.5;"/><line style="stroke:#000000;stroke-width:1.5;" x1="490.5" x2="537.5" y1="577.043" y2="577.043"/><text fill="#000000" font-family="sans-serif" font-size="14" font-weight="bold" lengthAdjust="spacing" textLength="34" x="494.5" y="570.0898">Utils</text></g><!--class UnusedASTVisitor--><a href="DotNetPreAdapter.UnusedASTVisitor-diagram-simplified.svg" target="_top" title="DotNetPreAdapter.UnusedASTVisitor-diagram-simplified.svg" xlink:actuate="onRequest" xlink:href="DotNetPreAdapter.UnusedASTVisitor-diagram-simplified.svg" xlink:show="new" xlink:title="DotNetPreAdapter.UnusedASTVisitor-diagram-simplified.svg" xlink:type="simple"><g id="elem_UnusedASTVisitor"><rect codeLine="6" fill="#FFFF00" height="48" id="UnusedASTVisitor" rx="2.5" ry="2.5" style="stroke:#181818;stroke-width:0.5;" width="155" x="462" y="358.5547"/><ellipse cx="477" cy="374.5547" fill="#A9DCDF" rx="11" ry="11" style="stroke:#181818;stroke-width:1.0;"/><path d="M476.8633,369.9028 L475.7095,374.9746 L478.0254,374.9746 Z M475.3691,367.6616 L478.3657,367.6616 L481.7109,380.0547 L479.2622,380.0547 L478.4985,376.9917 L475.2197,376.9917 L474.4727,380.0547 L472.0239,380.0547 Z " fill="#000000"/><text fill="#000000" font-family="sans-serif" font-size="14" font-style="italic" lengthAdjust="spacing" textLength="123" x="491" y="379.8457">UnusedASTVisitor</text><line style="stroke:#181818;stroke-width:0.5;" x1="463" x2="616" y1="390.5547" y2="390.5547"/><line style="stroke:#181818;stroke-width:0.5;" x1="463" x2="616" y1="398.5547" y2="398.5547"/></g></a><!--class Datastructure--><a href="DotNetPreAdapter.Domain.Datastructure-diagram-simplified.svg" target="_top" title="DotNetPreAdapter.Domain.Datastructure-diagram-simplified.svg" xlink:actuate="onRequest" xlink:href="DotNetPreAdapter.Domain.Datastructure-diagram-simplified.svg" xlink:show="new" xlink:title="DotNetPreAdapter.Domain.Datastructure-diagram-simplified.svg" xlink:type="simple"><g id="elem_Datastructure"><rect codeLine="8" fill="#F1F1F1" height="48" id="Datastructure" rx="2.5" ry="2.5" style="stroke:#181818;stroke-width:0.5;" width="125" x="466" y="466.5547"/><ellipse cx="481" cy="482.5547" fill="#A9DCDF" rx="11" ry="11" style="stroke:#181818;stroke-width:1.0;"/><path d="M480.8633,477.9028 L479.7095,482.9746 L482.0254,482.9746 Z M479.3691,475.6616 L482.3657,475.6616 L485.7109,488.0547 L483.2622,488.0547 L482.4985,484.9917 L479.2197,484.9917 L478.4727,488.0547 L476.0239,488.0547 Z " fill="#000000"/><text fill="#000000" font-family="sans-serif" font-size="14" font-style="italic" lengthAdjust="spacing" textLength="93" x="495" y="487.8457">Datastructure</text><line style="stroke:#181818;stroke-width:0.5;" x1="467" x2="590" y1="498.5547" y2="498.5547"/><line style="stroke:#181818;stroke-width:0.5;" x1="467" x2="590" y1="506.5547" y2="506.5547"/></g></a><!--class Logger--><a href="DotNetPreAdapter.Utils.Logger-diagram-simplified.svg" target="_top" title="DotNetPreAdapter.Utils.Logger-diagram-simplified.svg" xlink:actuate="onRequest" xlink:href="DotNetPreAdapter.Utils.Logger-diagram-simplified.svg" xlink:show="new" xlink:title="DotNetPreAdapter.Utils.Logger-diagram-simplified.svg" xlink:type="simple"><g id="elem_Logger"><rect codeLine="10" fill="#F1F1F1" height="48" id="Logger" rx="2.5" ry="2.5" style="stroke:#181818;stroke-width:0.5;" width="80" x="506.5" y="589.5547"/><ellipse cx="521.5" cy="605.5547" fill="#A9DCDF" rx="11" ry="11" style="stroke:#181818;stroke-width:1.0;"/><path d="M521.3633,600.9028 L520.2095,605.9746 L522.5254,605.9746 Z M519.8691,598.6616 L522.8657,598.6616 L526.2109,611.0547 L523.7622,611.0547 L522.9985,607.9917 L519.7197,607.9917 L518.9727,611.0547 L516.5239,611.0547 Z " fill="#000000"/><text fill="#000000" font-family="sans-serif" font-size="14" font-style="italic" lengthAdjust="spacing" textLength="48" x="535.5" y="610.8457">Logger</text><line style="stroke:#181818;stroke-width:0.5;" x1="507.5" x2="585.5" y1="621.5547" y2="621.5547"/><line style="stroke:#181818;stroke-width:0.5;" x1="507.5" x2="585.5" y1="629.5547" y2="629.5547"/></g></a><g id="elem_FloatingNote"><path d="M6,50.5547 L6,298.2129 L417,298.2129 L417,60.5547 L407,50.5547 L6,50.5547 " fill="#FEFFDD" style="stroke:#181818;stroke-width:0.5;"/><path d="M407,50.5547 L407,60.5547 L417,60.5547 L407,50.5547 " fill="#FEFFDD" style="stroke:#181818;stroke-width:1.0;"/><text fill="#000000" font-family="sans-serif" font-size="13" lengthAdjust="spacing" textLength="120" x="12" y="68.123">Your are analyzing:</text><text fill="#000000" font-family="sans-serif" font-size="13" lengthAdjust="spacing" textLength="229" x="12" y="83.4336">DotNetPreAdapter.UnusedASTVisitor</text><text fill="#000000" font-family="sans-serif" font-size="13" font-weight="bold" lengthAdjust="spacing" textLength="67" x="245" y="83.4336">simplified</text><text fill="#000000" font-family="sans-serif" font-size="13" lengthAdjust="spacing" textLength="4" x="312" y="83.4336">&#160;</text><text fill="#000000" font-family="sans-serif" font-size="13" lengthAdjust="spacing" textLength="4" x="12" y="98.7441">&#160;</text><text fill="#000000" font-family="sans-serif" font-size="13" lengthAdjust="spacing" textLength="229" x="12" y="129.3652">You can click either the namespaces</text><text fill="#000000" font-family="sans-serif" font-size="13" lengthAdjust="spacing" textLength="266" x="12" y="144.6758">or class names for filtering them and their</text><text fill="#000000" font-family="sans-serif" font-size="13" lengthAdjust="spacing" textLength="130" x="12" y="159.9863">direct dependencies.</text><text fill="#000000" font-family="sans-serif" font-size="13" lengthAdjust="spacing" textLength="4" x="12" y="175.2969">&#160;</text><line style="stroke:#181818;stroke-width:1.0;" x1="7" x2="195.5" y1="109.1416" y2="109.1416"/><line style="stroke:#181818;stroke-width:1.0;" x1="7" x2="195.5" y1="111.1416" y2="111.1416"/><text fill="#000000" font-family="sans-serif" font-size="13" lengthAdjust="spacing" textLength="32" x="195.5" y="113.5547">Filter</text><line style="stroke:#181818;stroke-width:1.0;" x1="227.5" x2="416" y1="109.1416" y2="109.1416"/><line style="stroke:#181818;stroke-width:1.0;" x1="227.5" x2="416" y1="111.1416" y2="111.1416"/><ellipse cx="17.5" cy="205.1602" fill="#000000" rx="2.5" ry="2.5" style="stroke:#000000;stroke-width:0.0;"/><text fill="#000000" font-family="sans-serif" font-size="13" lengthAdjust="spacing" textLength="229" x="24" y="209.918">DotNetPreAdapter.UnusedASTVisitor</text><text fill="#000000" font-family="sans-serif" font-size="13" font-weight="bold" lengthAdjust="spacing" textLength="55" x="257" y="209.918">detailed</text><text fill="#000000" font-family="sans-serif" font-size="13" lengthAdjust="spacing" textLength="4" x="316" y="209.918">:</text><text fill="#000000" font-family="sans-serif" font-size="13" lengthAdjust="spacing" textLength="12" x="12" y="225.2285">&#160;&#160;&#160;</text><a href="DotNetPreAdapter.UnusedASTVisitor-diagram-detailed.svg" target="_top" title="DotNetPreAdapter.UnusedASTVisitor-diagram-detailed.svg" xlink:actuate="onRequest" xlink:href="DotNetPreAdapter.UnusedASTVisitor-diagram-detailed.svg" xlink:show="new" xlink:title="DotNetPreAdapter.UnusedASTVisitor-diagram-detailed.svg" xlink:type="simple"><text fill="#0000FF" font-family="sans-serif" font-size="13" lengthAdjust="spacing" text-decoration="underline" textLength="372" x="24" y="225.2285">DotNetPreAdapter.UnusedASTVisitor-diagram-detailed.svg</text></a><ellipse cx="17.5" cy="235.7813" fill="#000000" rx="2.5" ry="2.5" style="stroke:#000000;stroke-width:0.0;"/><text fill="#000000" font-family="sans-serif" font-size="13" lengthAdjust="spacing" textLength="78" x="24" y="240.5391">Full diagram</text><text fill="#000000" font-family="sans-serif" font-size="13" font-weight="bold" lengthAdjust="spacing" textLength="67" x="106" y="240.5391">simplified</text><text fill="#000000" font-family="sans-serif" font-size="13" lengthAdjust="spacing" textLength="23" x="177" y="240.5391">and</text><text fill="#000000" font-family="sans-serif" font-size="13" font-weight="bold" lengthAdjust="spacing" textLength="166" x="204" y="240.5391">grouped per namespace</text><text fill="#000000" font-family="sans-serif" font-size="13" lengthAdjust="spacing" textLength="4" x="370" y="240.5391">:</text><text fill="#000000" font-family="sans-serif" font-size="13" lengthAdjust="spacing" textLength="12" x="12" y="255.8496">&#160;&#160;&#160;</text><a href="full-diagram-simplified-grouped-per-namespace.svg" target="_top" title="full-diagram-simplified-grouped-per-namespace.svg" xlink:actuate="onRequest" xlink:href="full-diagram-simplified-grouped-per-namespace.svg" xlink:show="new" xlink:title="full-diagram-simplified-grouped-per-namespace.svg" xlink:type="simple"><text fill="#0000FF" font-family="sans-serif" font-size="13" lengthAdjust="spacing" text-decoration="underline" textLength="343" x="24" y="255.8496">full-diagram-simplified-grouped-per-namespace.svg</text></a><ellipse cx="17.5" cy="266.4023" fill="#000000" rx="2.5" ry="2.5" style="stroke:#000000;stroke-width:0.0;"/><text fill="#000000" font-family="sans-serif" font-size="13" lengthAdjust="spacing" textLength="41" x="24" y="271.1602">Home:</text><text fill="#000000" font-family="sans-serif" font-size="13" lengthAdjust="spacing" textLength="12" x="12" y="286.4707">&#160;&#160;&#160;</text><a href="index.html" target="_top" title="index.html" xlink:actuate="onRequest" xlink:href="index.html" xlink:show="new" xlink:title="index.html" xlink:type="simple"><text fill="#0000FF" font-family="sans-serif" font-size="13" lengthAdjust="spacing" text-decoration="underline" textLength="68" x="24" y="286.4707">index.html</text></a><line style="stroke:#181818;stroke-width:1.0;" x1="7" x2="174.5" y1="189.6943" y2="189.6943"/><line style="stroke:#181818;stroke-width:1.0;" x1="7" x2="174.5" y1="191.6943" y2="191.6943"/><text fill="#000000" font-family="sans-serif" font-size="13" lengthAdjust="spacing" textLength="74" x="174.5" y="194.1074">Select other</text><line style="stroke:#181818;stroke-width:1.0;" x1="248.5" x2="416" y1="189.6943" y2="189.6943"/><line style="stroke:#181818;stroke-width:1.0;" x1="248.5" x2="416" y1="191.6943" y2="191.6943"/></g><!--class CSharpSyntaxWalker--><a href="CSharpSyntaxWalker-diagram-simplified.svg" target="_top" title="CSharpSyntaxWalker-diagram-simplified.svg" xlink:actuate="onRequest" xlink:href="CSharpSyntaxWalker-diagram-simplified.svg" xlink:show="new" xlink:title="CSharpSyntaxWalker-diagram-simplified.svg" xlink:type="simple"><g id="elem_CSharpSyntaxWalker"><rect codeLine="4" fill="#F5FFFA" height="48" id="CSharpSyntaxWalker" rx="2.5" ry="2.5" style="stroke:#181818;stroke-width:0.5;" width="174" x="452.5" y="150.5547"/><ellipse cx="467.5" cy="166.5547" fill="#ADD1B2" rx="11" ry="11" style="stroke:#181818;stroke-width:1.0;"/><path d="M469.9731,172.6978 Q469.3921,172.9966 468.7529,173.146 Q468.1138,173.2954 467.4082,173.2954 Q464.9014,173.2954 463.5815,171.6436 Q462.2617,169.9917 462.2617,166.8706 Q462.2617,163.7412 463.5815,162.0894 Q464.9014,160.4375 467.4082,160.4375 Q468.1138,160.4375 468.7612,160.5869 Q469.4087,160.7363 469.9731,161.0352 L469.9731,163.7578 Q469.3423,163.1768 468.7488,162.907 Q468.1553,162.6372 467.5244,162.6372 Q466.1797,162.6372 465.4949,163.7039 Q464.8101,164.7705 464.8101,166.8706 Q464.8101,168.9624 465.4949,170.0291 Q466.1797,171.0957 467.5244,171.0957 Q468.1553,171.0957 468.7488,170.8259 Q469.3423,170.5562 469.9731,169.9751 Z " fill="#000000"/><text fill="#000000" font-family="sans-serif" font-size="14" lengthAdjust="spacing" textLength="142" x="481.5" y="171.8457">CSharpSyntaxWalker</text><line style="stroke:#181818;stroke-width:0.5;" x1="453.5" x2="625.5" y1="182.5547" y2="182.5547"/><line style="stroke:#181818;stroke-width:0.5;" x1="453.5" x2="625.5" y1="190.5547" y2="190.5547"/></g></a><!--reverse link CSharpSyntaxWalker to UnusedASTVisitor--><g id="link_CSharpSyntaxWalker_UnusedASTVisitor"><path codeLine="19" d="M539.5,219.8247 C539.5,219.8247 539.5,358.1247 539.5,358.1247 " fill="none" id="CSharpSyntaxWalker-backto-UnusedASTVisitor" style="stroke:#FF0000;stroke-width:1.0;"/><polygon fill="none" points="532.5,219.8247,539.5,199.8247,546.5,219.8247,532.5,219.8247" style="stroke:#FF0000;stroke-width:1.0;"/></g><!--link UnusedASTVisitor to Logger--><g id="link_UnusedASTVisitor_Logger"><path codeLine="20" d="M604,406.8347 C604,466.1447 604,613.5547 604,613.5547 C604,613.5547 592.75,613.5547 592.75,613.5547 " fill="none" id="UnusedASTVisitor-to-Logger" style="stroke:#6060BB;stroke-width:1.0;stroke-dasharray:7.0,7.0;"/><polygon fill="#6060BB" points="587.75,613.5547,596.75,617.5547,592.75,613.5547,596.75,609.5547,587.75,613.5547" style="stroke:#6060BB;stroke-width:1.0;"/><text fill="#000000" font-family="sans-serif" font-size="13" lengthAdjust="spacing" textLength="29" x="574" y="529.393">uses</text></g><!--link UnusedASTVisitor to Datastructure--><g id="link_UnusedASTVisitor_Datastructure"><path codeLine="21" d="M528.5,406.7947 C528.5,406.7947 528.5,460.3947 528.5,460.3947 " fill="none" id="UnusedASTVisitor-to-Datastructure" style="stroke:#6060BB;stroke-width:1.0;stroke-dasharray:7.0,7.0;"/><polygon fill="#6060BB" points="528.5,465.3947,532.5,456.3947,528.5,460.3947,524.5,456.3947,528.5,465.3947" style="stroke:#6060BB;stroke-width:1.0;"/><text fill="#000000" font-family="sans-serif" font-size="13" lengthAdjust="spacing" textLength="29" x="498.5" y="430.163">uses</text></g><!--link Datastructure to Logger--><g id="link_Datastructure_Logger"><path codeLine="24" d="M546.5,514.8547 C546.5,514.8547 546.5,583.3047 546.5,583.3047 " fill="none" id="Datastructure-to-Logger" style="stroke:#6060BB;stroke-width:1.0;stroke-dasharray:7.0,7.0;"/><polygon fill="#6060BB" points="546.5,588.3047,550.5,579.3047,546.5,583.3047,542.5,579.3047,546.5,588.3047" style="stroke:#6060BB;stroke-width:1.0;"/><text fill="#000000" font-family="sans-serif" font-size="13" lengthAdjust="spacing" textLength="29" x="516.5" y="545.653">uses</text></g><!--SRC=[jL9DQzj04BthLmpn8I2GQdh8mTY6nCRqq8Q2cvOWwp3LZkN5grsnkshjjFtl7SbV9L6HtL0TZAoTzp5ldrjBNQB50fJKvBSbWR5-PG8llI8OElb4WxVzyTJuU_8VBTqAB3tP-45NZiJj_DDdwQGt5iBGoQ9KSYb9X24CtzJGSQ2D9xXwD9K5j0IeKMsVfCu72tqnvq8lz6Wqaug7HwE5PbR8K4EcPBO6adv55lW7D1RaIip8COPvCeNExRx2alyl6mfsKKyNR4hKBz8kj92MCW-2IjA2T2R9nJlPEQdwnDGYjNW8v_WNv56gnZrl3019qWcBXCIShoGwW6FtBK_JMd9MAGNxu-Vfr5k4OMvDLPA0agCunX261_4b4npvJ_1e3uiO5XrX9zrtfg03XUHWDl7A5ofDhm0Tp9H1ps7UyrK7kwWdynNQShxL7ZTVKAtPJ9Ay_DZYPAS9lGzI-uabNlD7y2l0hyvRvFXtzDt9NnBpI_4jAMM-Dye0NTfJKw3KyHGzyc2L-OfxtgBVDlTt3omES8xyWvVAnUzDdbFxsd-STyjTSuNEUk2_pLx3fDdKak9Q6Us0Daq2tEgbDSMfrWEUlN3yUJn1IrE7FwEaPqcaKNVHWkugnadlfd_JlxjBut77zS406EpWrQojdJoolowoFNbmdkY_RFzAVmtfRm00]--></g></svg>