<?xml version="1.0" encoding="us-ascii" standalone="no"?><svg xmlns="http://www.w3.org/2000/svg" xmlns:xlink="http://www.w3.org/1999/xlink" contentStyleType="text/css" height="453px" preserveAspectRatio="none" style="width:826px;height:453px;background:#FFFFFF;" version="1.1" viewBox="0 0 826 453" width="826px" zoomAndPan="magnify"><defs/><g><text fill="#000000" font-family="sans-serif" font-size="20" font-weight="bold" lengthAdjust="spacing" textLength="386" x="10" y="29.3359">DotNetPreAdapter.Service.SyntaxTree</text><text fill="#000000" font-family="sans-serif" font-size="20" font-weight="bold" lengthAdjust="spacing" textLength="104" x="403" y="29.3359">simplified</text><text fill="#000000" font-family="sans-serif" font-size="20" font-weight="bold" lengthAdjust="spacing" textLength="38" x="514" y="29.3359">and</text><text fill="#000000" font-family="sans-serif" font-size="20" font-weight="bold" lengthAdjust="spacing" textLength="249" x="559" y="29.3359">grouped per namespace</text><!--cluster DotNetPreAdapter--><g id="cluster_DotNetPreAdapter"><a href="DotNetPreAdapter-diagram-simplified-grouped-per-namespace.svg" target="_top" title="DotNetPreAdapter-diagram-simplified-grouped-per-namespace.svg" xlink:actuate="onRequest" xlink:href="DotNetPreAdapter-diagram-simplified-grouped-per-namespace.svg" xlink:show="new" xlink:title="DotNetPreAdapter-diagram-simplified-grouped-per-namespace.svg" xlink:type="simple"><path d="M620,72.5547 L751,72.5547 A3.75,3.75 0 0 1 753.5,75.0547 L760.5,95.043 L809,95.043 A2.5,2.5 0 0 1 811.5,97.543 L811.5,444.0547 A2.5,2.5 0 0 1 809,446.5547 L620,446.5547 A2.5,2.5 0 0 1 617.5,444.0547 L617.5,75.0547 A2.5,2.5 0 0 1 620,72.5547 " fill="none" style="stroke:#000000;stroke-width:1.5;"/><line style="stroke:#000000;stroke-width:1.5;" x1="617.5" x2="760.5" y1="95.043" y2="95.043"/><text fill="#000000" font-family="sans-serif" font-size="14" font-weight="bold" lengthAdjust="spacing" textLength="130" x="621.5" y="88.0898">DotNetPreAdapter</text></a></g><!--cluster Service--><g id="cluster_Service"><a href="DotNetPreAdapter.Service-diagram-simplified-grouped-per-namespace.svg" target="_top" title="DotNetPreAdapter.Service-diagram-simplified-grouped-per-namespace.svg" xlink:actuate="onRequest" xlink:href="DotNetPreAdapter.Service-diagram-simplified-grouped-per-namespace.svg" xlink:show="new" xlink:title="DotNetPreAdapter.Service-diagram-simplified-grouped-per-namespace.svg" xlink:type="simple"><path d="M644,115.5547 L695,115.5547 A3.75,3.75 0 0 1 697.5,118.0547 L704.5,138.043 L785,138.043 A2.5,2.5 0 0 1 787.5,140.543 L787.5,420.0547 A2.5,2.5 0 0 1 785,422.5547 L644,422.5547 A2.5,2.5 0 0 1 641.5,420.0547 L641.5,118.0547 A2.5,2.5 0 0 1 644,115.5547 " fill="none" style="stroke:#000000;stroke-width:1.5;"/><line style="stroke:#000000;stroke-width:1.5;" x1="641.5" x2="704.5" y1="138.043" y2="138.043"/><text fill="#000000" font-family="sans-serif" font-size="14" font-weight="bold" lengthAdjust="spacing" textLength="50" x="645.5" y="131.0898">Service</text></a></g><!--class SyntaxTree--><a href="DotNetPreAdapter.Service.SyntaxTree-diagram-simplified-grouped-per-namespace.svg" target="_top" title="DotNetPreAdapter.Service.SyntaxTree-diagram-simplified-grouped-per-namespace.svg" xlink:actuate="onRequest" xlink:href="DotNetPreAdapter.Service.SyntaxTree-diagram-simplified-grouped-per-namespace.svg" xlink:show="new" xlink:title="DotNetPreAdapter.Service.SyntaxTree-diagram-simplified-grouped-per-namespace.svg" xlink:type="simple"><g id="elem_SyntaxTree"><rect codeLine="4" fill="#FFFF00" height="48" id="SyntaxTree" rx="2.5" ry="2.5" style="stroke:#181818;stroke-width:0.5;" width="109" x="660" y="358.5547"/><ellipse cx="675" cy="374.5547" fill="#ADD1B2" rx="11" ry="11" style="stroke:#181818;stroke-width:1.0;"/><path d="M677.4731,380.6978 Q676.8921,380.9966 676.2529,381.146 Q675.6138,381.2954 674.9082,381.2954 Q672.4014,381.2954 671.0815,379.6436 Q669.7617,377.9917 669.7617,374.8706 Q669.7617,371.7412 671.0815,370.0894 Q672.4014,368.4375 674.9082,368.4375 Q675.6138,368.4375 676.2612,368.5869 Q676.9087,368.7363 677.4731,369.0352 L677.4731,371.7578 Q676.8423,371.1768 676.2488,370.907 Q675.6553,370.6372 675.0244,370.6372 Q673.6797,370.6372 672.9949,371.7039 Q672.3101,372.7705 672.3101,374.8706 Q672.3101,376.9624 672.9949,378.0291 Q673.6797,379.0957 675.0244,379.0957 Q675.6553,379.0957 676.2488,378.8259 Q676.8423,378.5562 677.4731,377.9751 Z " fill="#000000"/><text fill="#000000" font-family="sans-serif" font-size="14" lengthAdjust="spacing" textLength="77" x="689" y="379.8457">SyntaxTree</text><line style="stroke:#181818;stroke-width:0.5;" x1="661" x2="768" y1="390.5547" y2="390.5547"/><line style="stroke:#181818;stroke-width:0.5;" x1="661" x2="768" y1="398.5547" y2="398.5547"/></g></a><!--class AnalyzeAST--><a href="DotNetPreAdapter.Service.AnalyzeAST-diagram-simplified-grouped-per-namespace.svg" target="_top" title="DotNetPreAdapter.Service.AnalyzeAST-diagram-simplified-grouped-per-namespace.svg" xlink:actuate="onRequest" xlink:href="DotNetPreAdapter.Service.AnalyzeAST-diagram-simplified-grouped-per-namespace.svg" xlink:show="new" xlink:title="DotNetPreAdapter.Service.AnalyzeAST-diagram-simplified-grouped-per-namespace.svg" xlink:type="simple"><g id="elem_AnalyzeAST"><rect codeLine="9" fill="#F1F1F1" height="48" id="AnalyzeAST" rx="2.5" ry="2.5" style="stroke:#181818;stroke-width:0.5;" width="113" x="658" y="150.5547"/><ellipse cx="673" cy="166.5547" fill="#A9DCDF" rx="11" ry="11" style="stroke:#181818;stroke-width:1.0;"/><path d="M672.8633,161.9028 L671.7095,166.9746 L674.0254,166.9746 Z M671.3691,159.6616 L674.3657,159.6616 L677.7109,172.0547 L675.2622,172.0547 L674.4985,168.9917 L671.2197,168.9917 L670.4727,172.0547 L668.0239,172.0547 Z " fill="#000000"/><text fill="#000000" font-family="sans-serif" font-size="14" font-style="italic" lengthAdjust="spacing" textLength="81" x="687" y="171.8457">AnalyzeAST</text><line style="stroke:#181818;stroke-width:0.5;" x1="659" x2="770" y1="182.5547" y2="182.5547"/><line style="stroke:#181818;stroke-width:0.5;" x1="659" x2="770" y1="190.5547" y2="190.5547"/></g></a><g id="elem_FloatingNote"><path d="M19.5,50.5547 L19.5,298.2129 L601.5,298.2129 L601.5,60.5547 L591.5,50.5547 L19.5,50.5547 " fill="#FEFFDD" style="stroke:#181818;stroke-width:0.5;"/><path d="M591.5,50.5547 L591.5,60.5547 L601.5,60.5547 L591.5,50.5547 " fill="#FEFFDD" style="stroke:#181818;stroke-width:1.0;"/><text fill="#000000" font-family="sans-serif" font-size="13" lengthAdjust="spacing" textLength="120" x="25.5" y="68.123">Your are analyzing:</text><text fill="#000000" font-family="sans-serif" font-size="13" lengthAdjust="spacing" textLength="234" x="25.5" y="83.4336">DotNetPreAdapter.Service.SyntaxTree</text><text fill="#000000" font-family="sans-serif" font-size="13" font-weight="bold" lengthAdjust="spacing" textLength="67" x="263.5" y="83.4336">simplified</text><text fill="#000000" font-family="sans-serif" font-size="13" lengthAdjust="spacing" textLength="23" x="334.5" y="83.4336">and</text><text fill="#000000" font-family="sans-serif" font-size="13" font-weight="bold" lengthAdjust="spacing" textLength="166" x="361.5" y="83.4336">grouped per namespace</text><text fill="#000000" font-family="sans-serif" font-size="13" lengthAdjust="spacing" textLength="4" x="25.5" y="98.7441">&#160;</text><text fill="#000000" font-family="sans-serif" font-size="13" lengthAdjust="spacing" textLength="229" x="25.5" y="129.3652">You can click either the namespaces</text><text fill="#000000" font-family="sans-serif" font-size="13" lengthAdjust="spacing" textLength="266" x="25.5" y="144.6758">or class names for filtering them and their</text><text fill="#000000" font-family="sans-serif" font-size="13" lengthAdjust="spacing" textLength="130" x="25.5" y="159.9863">direct dependencies.</text><text fill="#000000" font-family="sans-serif" font-size="13" lengthAdjust="spacing" textLength="4" x="25.5" y="175.2969">&#160;</text><line style="stroke:#181818;stroke-width:1.0;" x1="20.5" x2="294.5" y1="109.1416" y2="109.1416"/><line style="stroke:#181818;stroke-width:1.0;" x1="20.5" x2="294.5" y1="111.1416" y2="111.1416"/><text fill="#000000" font-family="sans-serif" font-size="13" lengthAdjust="spacing" textLength="32" x="294.5" y="113.5547">Filter</text><line style="stroke:#181818;stroke-width:1.0;" x1="326.5" x2="600.5" y1="109.1416" y2="109.1416"/><line style="stroke:#181818;stroke-width:1.0;" x1="326.5" x2="600.5" y1="111.1416" y2="111.1416"/><ellipse cx="31" cy="205.1602" fill="#000000" rx="2.5" ry="2.5" style="stroke:#000000;stroke-width:0.0;"/><text fill="#000000" font-family="sans-serif" font-size="13" lengthAdjust="spacing" textLength="234" x="37.5" y="209.918">DotNetPreAdapter.Service.SyntaxTree</text><text fill="#000000" font-family="sans-serif" font-size="13" font-weight="bold" lengthAdjust="spacing" textLength="55" x="275.5" y="209.918">detailed</text><text fill="#000000" font-family="sans-serif" font-size="13" lengthAdjust="spacing" textLength="23" x="334.5" y="209.918">and</text><text fill="#000000" font-family="sans-serif" font-size="13" font-weight="bold" lengthAdjust="spacing" textLength="166" x="361.5" y="209.918">grouped per namespace</text><text fill="#000000" font-family="sans-serif" font-size="13" lengthAdjust="spacing" textLength="4" x="527.5" y="209.918">:</text><text fill="#000000" font-family="sans-serif" font-size="13" lengthAdjust="spacing" textLength="12" x="25.5" y="225.2285">&#160;&#160;&#160;</text><a href="DotNetPreAdapter.Service.SyntaxTree-diagram-detailed-grouped-per-namespace.svg" target="_top" title="DotNetPreAdapter.Service.SyntaxTree-diagram-detailed-grouped-per-namespace.svg" xlink:actuate="onRequest" xlink:href="DotNetPreAdapter.Service.SyntaxTree-diagram-detailed-grouped-per-namespace.svg" xlink:show="new" xlink:title="DotNetPreAdapter.Service.SyntaxTree-diagram-detailed-grouped-per-namespace.svg" xlink:type="simple"><text fill="#0000FF" font-family="sans-serif" font-size="13" lengthAdjust="spacing" text-decoration="underline" textLength="543" x="37.5" y="225.2285">DotNetPreAdapter.Service.SyntaxTree-diagram-detailed-grouped-per-namespace.svg</text></a><ellipse cx="31" cy="235.7813" fill="#000000" rx="2.5" ry="2.5" style="stroke:#000000;stroke-width:0.0;"/><text fill="#000000" font-family="sans-serif" font-size="13" lengthAdjust="spacing" textLength="78" x="37.5" y="240.5391">Full diagram</text><text fill="#000000" font-family="sans-serif" font-size="13" font-weight="bold" lengthAdjust="spacing" textLength="67" x="119.5" y="240.5391">simplified</text><text fill="#000000" font-family="sans-serif" font-size="13" lengthAdjust="spacing" textLength="23" x="190.5" y="240.5391">and</text><text fill="#000000" font-family="sans-serif" font-size="13" font-weight="bold" lengthAdjust="spacing" textLength="166" x="217.5" y="240.5391">grouped per namespace</text><text fill="#000000" font-family="sans-serif" font-size="13" lengthAdjust="spacing" textLength="4" x="383.5" y="240.5391">:</text><text fill="#000000" font-family="sans-serif" font-size="13" lengthAdjust="spacing" textLength="12" x="25.5" y="255.8496">&#160;&#160;&#160;</text><a href="full-diagram-simplified-grouped-per-namespace.svg" target="_top" title="full-diagram-simplified-grouped-per-namespace.svg" xlink:actuate="onRequest" xlink:href="full-diagram-simplified-grouped-per-namespace.svg" xlink:show="new" xlink:title="full-diagram-simplified-grouped-per-namespace.svg" xlink:type="simple"><text fill="#0000FF" font-family="sans-serif" font-size="13" lengthAdjust="spacing" text-decoration="underline" textLength="343" x="37.5" y="255.8496">full-diagram-simplified-grouped-per-namespace.svg</text></a><ellipse cx="31" cy="266.4023" fill="#000000" rx="2.5" ry="2.5" style="stroke:#000000;stroke-width:0.0;"/><text fill="#000000" font-family="sans-serif" font-size="13" lengthAdjust="spacing" textLength="41" x="37.5" y="271.1602">Home:</text><text fill="#000000" font-family="sans-serif" font-size="13" lengthAdjust="spacing" textLength="12" x="25.5" y="286.4707">&#160;&#160;&#160;</text><a href="index.html" target="_top" title="index.html" xlink:actuate="onRequest" xlink:href="index.html" xlink:show="new" xlink:title="index.html" xlink:type="simple"><text fill="#0000FF" font-family="sans-serif" font-size="13" lengthAdjust="spacing" text-decoration="underline" textLength="68" x="37.5" y="286.4707">index.html</text></a><line style="stroke:#181818;stroke-width:1.0;" x1="20.5" x2="273.5" y1="189.6943" y2="189.6943"/><line style="stroke:#181818;stroke-width:1.0;" x1="20.5" x2="273.5" y1="191.6943" y2="191.6943"/><text fill="#000000" font-family="sans-serif" font-size="13" lengthAdjust="spacing" textLength="74" x="273.5" y="194.1074">Select other</text><line style="stroke:#181818;stroke-width:1.0;" x1="347.5" x2="600.5" y1="189.6943" y2="189.6943"/><line style="stroke:#181818;stroke-width:1.0;" x1="347.5" x2="600.5" y1="191.6943" y2="191.6943"/></g><!--link AnalyzeAST to SyntaxTree--><g id="link_AnalyzeAST_SyntaxTree"><path codeLine="24" d="M714.5,198.8247 C714.5,198.8247 714.5,352.1247 714.5,352.1247 " fill="none" id="AnalyzeAST-to-SyntaxTree" style="stroke:#909090;stroke-width:1.0;"/><polygon fill="#909090" points="714.5,357.1247,718.5,348.1247,714.5,352.1247,710.5,348.1247,714.5,357.1247" style="stroke:#909090;stroke-width:1.0;"/><text fill="#000000" font-family="sans-serif" font-size="13" lengthAdjust="spacing" textLength="29" x="684.5" y="272.043">uses</text></g><!--SRC=[lLHDQzj04BthLmp98I2G6dghYGqcnVHa2iwbMCQijIDxo6fNxAuSEw7_lRFoXsXfR0cQMiPOqioRcVVUZdicNGahIb2aqUyh16FznaIUl49uSFIAWy_tew_6Jz5_jpYMel9eqndQBUMOplRQYzsJHOGuTbHMYWf26SSWjEH7Qslg2YLKQ46B4bqbSepZXqy1UHHfun5kVfZQWh38EKBjNqcl1vd-roKpdUdXS4AAiOR3J7DHo8M6N57-34X-m_7yq-OuoBIn722SEpo5Wk-B1eAR3D5bKvJ_aCsq98kv1uaLQeaw9tJfeUmCLNXZGf5GF8PkuqdqWjJruPWl09ZFEw0caiIQ5KzEsCaHCs7Cv8oPkkrwiGYTJcgbu9ZKY_5JKmK3dAkswTVgVZCbdY28-Tob6r-gnU86X8E9CiAp1bCsK7HGg0kZ_HZgrYlSxb4fym9lqS_e3XwLSS4SWbchB6x9r6xfwjNodBPKv7nB54oDHbXXBcg7mLt7S-380NyBqkGsADEepVXpYB_CrNU8jmlm9uukqDU_781OEMy57uih-esRhO3ZsTCb_TgelhqqpR1qZwRaNSW-_hzCm0ll7c0AFF2MA57pdYYWwUW3pTHYjxd72NwpyVjSS1ZSyUdlz84FYmsj1ljOLBmHZ7Q0kyPMB6HXJTbECE3Odk7lYHnrCMiol_ro7wv5CkgqdM00h9g3Nm00]--></g></svg>