<?xml version="1.0" encoding="us-ascii" standalone="no"?><svg xmlns="http://www.w3.org/2000/svg" xmlns:xlink="http://www.w3.org/1999/xlink" contentStyleType="text/css" height="792px" preserveAspectRatio="none" style="width:1420px;height:792px;background:#FFFFFF;" version="1.1" viewBox="0 0 1420 792" width="1420px" zoomAndPan="magnify"><defs/><g><text fill="#000000" font-family="sans-serif" font-size="20" font-weight="bold" lengthAdjust="spacing" textLength="394" x="447.25" y="29.3359">DotNetPreAdapter.Service.AnalyzeAST</text><text fill="#000000" font-family="sans-serif" font-size="20" font-weight="bold" lengthAdjust="spacing" textLength="104" x="848.25" y="29.3359">simplified</text><text fill="#000000" font-family="sans-serif" font-size="20" font-weight="bold" lengthAdjust="spacing" textLength="7" x="952.25" y="29.3359">&#160;</text><!--cluster DotNetPreAdapter--><g id="cluster_DotNetPreAdapter"><path d="M444.5,115.5547 L575.5,115.5547 A3.75,3.75 0 0 1 578,118.0547 L585,138.043 L989.5,138.043 A2.5,2.5 0 0 1 992,140.543 L992,783.0547 A2.5,2.5 0 0 1 989.5,785.5547 L444.5,785.5547 A2.5,2.5 0 0 1 442,783.0547 L442,118.0547 A2.5,2.5 0 0 1 444.5,115.5547 " fill="none" style="stroke:#000000;stroke-width:1.5;"/><line style="stroke:#000000;stroke-width:1.5;" x1="442" x2="585" y1="138.043" y2="138.043"/><text fill="#000000" font-family="sans-serif" font-size="14" font-weight="bold" lengthAdjust="spacing" textLength="130" x="446" y="131.0898">DotNetPreAdapter</text></g><!--cluster Domain--><g id="cluster_Domain"><path d="M762.5,431.5547 L819.5,431.5547 A3.75,3.75 0 0 1 822,434.0547 L829,454.043 L915.5,454.043 A2.5,2.5 0 0 1 918,456.543 L918,636.0547 A2.5,2.5 0 0 1 915.5,638.5547 L762.5,638.5547 A2.5,2.5 0 0 1 760,636.0547 L760,434.0547 A2.5,2.5 0 0 1 762.5,431.5547 " fill="none" style="stroke:#000000;stroke-width:1.5;"/><line style="stroke:#000000;stroke-width:1.5;" x1="760" x2="829" y1="454.043" y2="454.043"/><text fill="#000000" font-family="sans-serif" font-size="14" font-weight="bold" lengthAdjust="spacing" textLength="56" x="764" y="447.0898">Domain</text></g><!--cluster Service--><g id="cluster_Service"><path d="M518.5,323.5547 L569.5,323.5547 A3.75,3.75 0 0 1 572,326.0547 L579,346.043 L733.5,346.043 A2.5,2.5 0 0 1 736,348.543 L736,528.0547 A2.5,2.5 0 0 1 733.5,530.5547 L518.5,530.5547 A2.5,2.5 0 0 1 516,528.0547 L516,326.0547 A2.5,2.5 0 0 1 518.5,323.5547 " fill="none" style="stroke:#000000;stroke-width:1.5;"/><line style="stroke:#000000;stroke-width:1.5;" x1="516" x2="579" y1="346.043" y2="346.043"/><text fill="#000000" font-family="sans-serif" font-size="14" font-weight="bold" lengthAdjust="spacing" textLength="50" x="520" y="339.0898">Service</text></g><!--cluster Utils--><g id="cluster_Utils"><path d="M821.5,662.5547 L856.5,662.5547 A3.75,3.75 0 0 1 859,665.0547 L866,685.043 L928.5,685.043 A2.5,2.5 0 0 1 931,687.543 L931,759.0547 A2.5,2.5 0 0 1 928.5,761.5547 L821.5,761.5547 A2.5,2.5 0 0 1 819,759.0547 L819,665.0547 A2.5,2.5 0 0 1 821.5,662.5547 " fill="none" style="stroke:#000000;stroke-width:1.5;"/><line style="stroke:#000000;stroke-width:1.5;" x1="819" x2="866" y1="685.043" y2="685.043"/><text fill="#000000" font-family="sans-serif" font-size="14" font-weight="bold" lengthAdjust="spacing" textLength="34" x="823" y="678.0898">Utils</text></g><!--class Program--><a href="DotNetPreAdapter.Program-diagram-simplified.svg" target="_top" title="DotNetPreAdapter.Program-diagram-simplified.svg" xlink:actuate="onRequest" xlink:href="DotNetPreAdapter.Program-diagram-simplified.svg" xlink:show="new" xlink:title="DotNetPreAdapter.Program-diagram-simplified.svg" xlink:type="simple"><g id="elem_Program"><rect codeLine="10" fill="#F1F1F1" height="48" id="Program" rx="2.5" ry="2.5" style="stroke:#181818;stroke-width:0.5;" width="91" x="750.5" y="150.5547"/><ellipse cx="765.5" cy="166.5547" fill="#A9DCDF" rx="11" ry="11" style="stroke:#181818;stroke-width:1.0;"/><path d="M765.3633,161.9028 L764.2095,166.9746 L766.5254,166.9746 Z M763.8691,159.6616 L766.8657,159.6616 L770.2109,172.0547 L767.7622,172.0547 L766.9985,168.9917 L763.7197,168.9917 L762.9727,172.0547 L760.5239,172.0547 Z " fill="#000000"/><text fill="#000000" font-family="sans-serif" font-size="14" font-style="italic" lengthAdjust="spacing" textLength="59" x="779.5" y="171.8457">Program</text><line style="stroke:#181818;stroke-width:0.5;" x1="751.5" x2="840.5" y1="182.5547" y2="182.5547"/><line style="stroke:#181818;stroke-width:0.5;" x1="751.5" x2="840.5" y1="190.5547" y2="190.5547"/></g></a><!--class Datastructure--><a href="DotNetPreAdapter.Domain.Datastructure-diagram-simplified.svg" target="_top" title="DotNetPreAdapter.Domain.Datastructure-diagram-simplified.svg" xlink:actuate="onRequest" xlink:href="DotNetPreAdapter.Domain.Datastructure-diagram-simplified.svg" xlink:show="new" xlink:title="DotNetPreAdapter.Domain.Datastructure-diagram-simplified.svg" xlink:type="simple"><g id="elem_Datastructure"><rect codeLine="12" fill="#F1F1F1" height="48" id="Datastructure" rx="2.5" ry="2.5" style="stroke:#181818;stroke-width:0.5;" width="125" x="776.5" y="574.5547"/><ellipse cx="791.5" cy="590.5547" fill="#A9DCDF" rx="11" ry="11" style="stroke:#181818;stroke-width:1.0;"/><path d="M791.3633,585.9028 L790.2095,590.9746 L792.5254,590.9746 Z M789.8691,583.6616 L792.8657,583.6616 L796.2109,596.0547 L793.7622,596.0547 L792.9985,592.9917 L789.7197,592.9917 L788.9727,596.0547 L786.5239,596.0547 Z " fill="#000000"/><text fill="#000000" font-family="sans-serif" font-size="14" font-style="italic" lengthAdjust="spacing" textLength="93" x="805.5" y="595.8457">Datastructure</text><line style="stroke:#181818;stroke-width:0.5;" x1="777.5" x2="900.5" y1="606.5547" y2="606.5547"/><line style="stroke:#181818;stroke-width:0.5;" x1="777.5" x2="900.5" y1="614.5547" y2="614.5547"/></g></a><!--class ASTVisitor--><a href="DotNetPreAdapter.Domain.ASTVisitor-diagram-simplified.svg" target="_top" title="DotNetPreAdapter.Domain.ASTVisitor-diagram-simplified.svg" xlink:actuate="onRequest" xlink:href="DotNetPreAdapter.Domain.ASTVisitor-diagram-simplified.svg" xlink:show="new" xlink:title="DotNetPreAdapter.Domain.ASTVisitor-diagram-simplified.svg" xlink:type="simple"><g id="elem_ASTVisitor"><rect codeLine="14" fill="#F1F1F1" height="48" id="ASTVisitor" rx="2.5" ry="2.5" style="stroke:#181818;stroke-width:0.5;" width="103" x="792.5" y="466.5547"/><ellipse cx="807.5" cy="482.5547" fill="#A9DCDF" rx="11" ry="11" style="stroke:#181818;stroke-width:1.0;"/><path d="M807.3633,477.9028 L806.2095,482.9746 L808.5254,482.9746 Z M805.8691,475.6616 L808.8657,475.6616 L812.2109,488.0547 L809.7622,488.0547 L808.9985,484.9917 L805.7197,484.9917 L804.9727,488.0547 L802.5239,488.0547 Z " fill="#000000"/><text fill="#000000" font-family="sans-serif" font-size="14" font-style="italic" lengthAdjust="spacing" textLength="71" x="821.5" y="487.8457">ASTVisitor</text><line style="stroke:#181818;stroke-width:0.5;" x1="793.5" x2="894.5" y1="498.5547" y2="498.5547"/><line style="stroke:#181818;stroke-width:0.5;" x1="793.5" x2="894.5" y1="506.5547" y2="506.5547"/></g></a><!--class AnalyzeAST--><a href="DotNetPreAdapter.Service.AnalyzeAST-diagram-simplified.svg" target="_top" title="DotNetPreAdapter.Service.AnalyzeAST-diagram-simplified.svg" xlink:actuate="onRequest" xlink:href="DotNetPreAdapter.Service.AnalyzeAST-diagram-simplified.svg" xlink:show="new" xlink:title="DotNetPreAdapter.Service.AnalyzeAST-diagram-simplified.svg" xlink:type="simple"><g id="elem_AnalyzeAST"><rect codeLine="16" fill="#FFFF00" height="48" id="AnalyzeAST" rx="2.5" ry="2.5" style="stroke:#181818;stroke-width:0.5;" width="113" x="606.5" y="358.5547"/><ellipse cx="621.5" cy="374.5547" fill="#A9DCDF" rx="11" ry="11" style="stroke:#181818;stroke-width:1.0;"/><path d="M621.3633,369.9028 L620.2095,374.9746 L622.5254,374.9746 Z M619.8691,367.6616 L622.8657,367.6616 L626.2109,380.0547 L623.7622,380.0547 L622.9985,376.9917 L619.7197,376.9917 L618.9727,380.0547 L616.5239,380.0547 Z " fill="#000000"/><text fill="#000000" font-family="sans-serif" font-size="14" font-style="italic" lengthAdjust="spacing" textLength="81" x="635.5" y="379.8457">AnalyzeAST</text><line style="stroke:#181818;stroke-width:0.5;" x1="607.5" x2="718.5" y1="390.5547" y2="390.5547"/><line style="stroke:#181818;stroke-width:0.5;" x1="607.5" x2="718.5" y1="398.5547" y2="398.5547"/></g></a><!--class RecursiveFileProcessor--><a href="DotNetPreAdapter.Service.RecursiveFileProcessor-diagram-simplified.svg" target="_top" title="DotNetPreAdapter.Service.RecursiveFileProcessor-diagram-simplified.svg" xlink:actuate="onRequest" xlink:href="DotNetPreAdapter.Service.RecursiveFileProcessor-diagram-simplified.svg" xlink:show="new" xlink:title="DotNetPreAdapter.Service.RecursiveFileProcessor-diagram-simplified.svg" xlink:type="simple"><g id="elem_RecursiveFileProcessor"><rect codeLine="18" fill="#F1F1F1" height="48" id="RecursiveFileProcessor" rx="2.5" ry="2.5" style="stroke:#181818;stroke-width:0.5;" width="188" x="532" y="466.5547"/><ellipse cx="547" cy="482.5547" fill="#A9DCDF" rx="11" ry="11" style="stroke:#181818;stroke-width:1.0;"/><path d="M546.8633,477.9028 L545.7095,482.9746 L548.0254,482.9746 Z M545.3691,475.6616 L548.3657,475.6616 L551.7109,488.0547 L549.2622,488.0547 L548.4985,484.9917 L545.2197,484.9917 L544.4727,488.0547 L542.0239,488.0547 Z " fill="#000000"/><text fill="#000000" font-family="sans-serif" font-size="14" font-style="italic" lengthAdjust="spacing" textLength="156" x="561" y="487.8457">RecursiveFileProcessor</text><line style="stroke:#181818;stroke-width:0.5;" x1="533" x2="719" y1="498.5547" y2="498.5547"/><line style="stroke:#181818;stroke-width:0.5;" x1="533" x2="719" y1="506.5547" y2="506.5547"/></g></a><!--class Logger--><a href="DotNetPreAdapter.Utils.Logger-diagram-simplified.svg" target="_top" title="DotNetPreAdapter.Utils.Logger-diagram-simplified.svg" xlink:actuate="onRequest" xlink:href="DotNetPreAdapter.Utils.Logger-diagram-simplified.svg" xlink:show="new" xlink:title="DotNetPreAdapter.Utils.Logger-diagram-simplified.svg" xlink:type="simple"><g id="elem_Logger"><rect codeLine="20" fill="#F1F1F1" height="48" id="Logger" rx="2.5" ry="2.5" style="stroke:#181818;stroke-width:0.5;" width="80" x="835" y="697.5547"/><ellipse cx="850" cy="713.5547" fill="#A9DCDF" rx="11" ry="11" style="stroke:#181818;stroke-width:1.0;"/><path d="M849.8633,708.9028 L848.7095,713.9746 L851.0254,713.9746 Z M848.3691,706.6616 L851.3657,706.6616 L854.7109,719.0547 L852.2622,719.0547 L851.4985,715.9917 L848.2197,715.9917 L847.4727,719.0547 L845.0239,719.0547 Z " fill="#000000"/><text fill="#000000" font-family="sans-serif" font-size="14" font-style="italic" lengthAdjust="spacing" textLength="48" x="864" y="718.8457">Logger</text><line style="stroke:#181818;stroke-width:0.5;" x1="836" x2="914" y1="729.5547" y2="729.5547"/><line style="stroke:#181818;stroke-width:0.5;" x1="836" x2="914" y1="737.5547" y2="737.5547"/></g></a><g id="elem_FloatingNote"><path d="M6,50.5547 L6,298.2129 L426,298.2129 L426,60.5547 L416,50.5547 L6,50.5547 " fill="#FEFFDD" style="stroke:#181818;stroke-width:0.5;"/><path d="M416,50.5547 L416,60.5547 L426,60.5547 L416,50.5547 " fill="#FEFFDD" style="stroke:#181818;stroke-width:1.0;"/><text fill="#000000" font-family="sans-serif" font-size="13" lengthAdjust="spacing" textLength="120" x="12" y="68.123">Your are analyzing:</text><text fill="#000000" font-family="sans-serif" font-size="13" lengthAdjust="spacing" textLength="238" x="12" y="83.4336">DotNetPreAdapter.Service.AnalyzeAST</text><text fill="#000000" font-family="sans-serif" font-size="13" font-weight="bold" lengthAdjust="spacing" textLength="67" x="254" y="83.4336">simplified</text><text fill="#000000" font-family="sans-serif" font-size="13" lengthAdjust="spacing" textLength="4" x="321" y="83.4336">&#160;</text><text fill="#000000" font-family="sans-serif" font-size="13" lengthAdjust="spacing" textLength="4" x="12" y="98.7441">&#160;</text><text fill="#000000" font-family="sans-serif" font-size="13" lengthAdjust="spacing" textLength="229" x="12" y="129.3652">You can click either the namespaces</text><text fill="#000000" font-family="sans-serif" font-size="13" lengthAdjust="spacing" textLength="266" x="12" y="144.6758">or class names for filtering them and their</text><text fill="#000000" font-family="sans-serif" font-size="13" lengthAdjust="spacing" textLength="130" x="12" y="159.9863">direct dependencies.</text><text fill="#000000" font-family="sans-serif" font-size="13" lengthAdjust="spacing" textLength="4" x="12" y="175.2969">&#160;</text><line style="stroke:#181818;stroke-width:1.0;" x1="7" x2="200" y1="109.1416" y2="109.1416"/><line style="stroke:#181818;stroke-width:1.0;" x1="7" x2="200" y1="111.1416" y2="111.1416"/><text fill="#000000" font-family="sans-serif" font-size="13" lengthAdjust="spacing" textLength="32" x="200" y="113.5547">Filter</text><line style="stroke:#181818;stroke-width:1.0;" x1="232" x2="425" y1="109.1416" y2="109.1416"/><line style="stroke:#181818;stroke-width:1.0;" x1="232" x2="425" y1="111.1416" y2="111.1416"/><ellipse cx="17.5" cy="205.1602" fill="#000000" rx="2.5" ry="2.5" style="stroke:#000000;stroke-width:0.0;"/><text fill="#000000" font-family="sans-serif" font-size="13" lengthAdjust="spacing" textLength="238" x="24" y="209.918">DotNetPreAdapter.Service.AnalyzeAST</text><text fill="#000000" font-family="sans-serif" font-size="13" font-weight="bold" lengthAdjust="spacing" textLength="55" x="266" y="209.918">detailed</text><text fill="#000000" font-family="sans-serif" font-size="13" lengthAdjust="spacing" textLength="4" x="325" y="209.918">:</text><text fill="#000000" font-family="sans-serif" font-size="13" lengthAdjust="spacing" textLength="12" x="12" y="225.2285">&#160;&#160;&#160;</text><a href="DotNetPreAdapter.Service.AnalyzeAST-diagram-detailed.svg" target="_top" title="DotNetPreAdapter.Service.AnalyzeAST-diagram-detailed.svg" xlink:actuate="onRequest" xlink:href="DotNetPreAdapter.Service.AnalyzeAST-diagram-detailed.svg" xlink:show="new" xlink:title="DotNetPreAdapter.Service.AnalyzeAST-diagram-detailed.svg" xlink:type="simple"><text fill="#0000FF" font-family="sans-serif" font-size="13" lengthAdjust="spacing" text-decoration="underline" textLength="381" x="24" y="225.2285">DotNetPreAdapter.Service.AnalyzeAST-diagram-detailed.svg</text></a><ellipse cx="17.5" cy="235.7813" fill="#000000" rx="2.5" ry="2.5" style="stroke:#000000;stroke-width:0.0;"/><text fill="#000000" font-family="sans-serif" font-size="13" lengthAdjust="spacing" textLength="78" x="24" y="240.5391">Full diagram</text><text fill="#000000" font-family="sans-serif" font-size="13" font-weight="bold" lengthAdjust="spacing" textLength="67" x="106" y="240.5391">simplified</text><text fill="#000000" font-family="sans-serif" font-size="13" lengthAdjust="spacing" textLength="23" x="177" y="240.5391">and</text><text fill="#000000" font-family="sans-serif" font-size="13" font-weight="bold" lengthAdjust="spacing" textLength="166" x="204" y="240.5391">grouped per namespace</text><text fill="#000000" font-family="sans-serif" font-size="13" lengthAdjust="spacing" textLength="4" x="370" y="240.5391">:</text><text fill="#000000" font-family="sans-serif" font-size="13" lengthAdjust="spacing" textLength="12" x="12" y="255.8496">&#160;&#160;&#160;</text><a href="full-diagram-simplified-grouped-per-namespace.svg" target="_top" title="full-diagram-simplified-grouped-per-namespace.svg" xlink:actuate="onRequest" xlink:href="full-diagram-simplified-grouped-per-namespace.svg" xlink:show="new" xlink:title="full-diagram-simplified-grouped-per-namespace.svg" xlink:type="simple"><text fill="#0000FF" font-family="sans-serif" font-size="13" lengthAdjust="spacing" text-decoration="underline" textLength="343" x="24" y="255.8496">full-diagram-simplified-grouped-per-namespace.svg</text></a><ellipse cx="17.5" cy="266.4023" fill="#000000" rx="2.5" ry="2.5" style="stroke:#000000;stroke-width:0.0;"/><text fill="#000000" font-family="sans-serif" font-size="13" lengthAdjust="spacing" textLength="41" x="24" y="271.1602">Home:</text><text fill="#000000" font-family="sans-serif" font-size="13" lengthAdjust="spacing" textLength="12" x="12" y="286.4707">&#160;&#160;&#160;</text><a href="index.html" target="_top" title="index.html" xlink:actuate="onRequest" xlink:href="index.html" xlink:show="new" xlink:title="index.html" xlink:type="simple"><text fill="#0000FF" font-family="sans-serif" font-size="13" lengthAdjust="spacing" text-decoration="underline" textLength="68" x="24" y="286.4707">index.html</text></a><line style="stroke:#181818;stroke-width:1.0;" x1="7" x2="179" y1="189.6943" y2="189.6943"/><line style="stroke:#181818;stroke-width:1.0;" x1="7" x2="179" y1="191.6943" y2="191.6943"/><text fill="#000000" font-family="sans-serif" font-size="13" lengthAdjust="spacing" textLength="74" x="179" y="194.1074">Select other</text><line style="stroke:#181818;stroke-width:1.0;" x1="253" x2="425" y1="189.6943" y2="189.6943"/><line style="stroke:#181818;stroke-width:1.0;" x1="253" x2="425" y1="191.6943" y2="191.6943"/></g><!--class SyntaxTree--><a href="SyntaxTree-diagram-simplified.svg" target="_top" title="SyntaxTree-diagram-simplified.svg" xlink:actuate="onRequest" xlink:href="SyntaxTree-diagram-simplified.svg" xlink:show="new" xlink:title="SyntaxTree-diagram-simplified.svg" xlink:type="simple"><g id="elem_SyntaxTree"><rect codeLine="4" fill="#F5FFFA" height="48" id="SyntaxTree" rx="2.5" ry="2.5" style="stroke:#181818;stroke-width:0.5;" width="109" x="1304.5" y="466.5547"/><ellipse cx="1319.5" cy="482.5547" fill="#ADD1B2" rx="11" ry="11" style="stroke:#181818;stroke-width:1.0;"/><path d="M1321.9731,488.6978 Q1321.3921,488.9966 1320.7529,489.146 Q1320.1138,489.2954 1319.4082,489.2954 Q1316.9014,489.2954 1315.5815,487.6436 Q1314.2617,485.9917 1314.2617,482.8706 Q1314.2617,479.7412 1315.5815,478.0894 Q1316.9014,476.4375 1319.4082,476.4375 Q1320.1138,476.4375 1320.7612,476.5869 Q1321.4087,476.7363 1321.9731,477.0352 L1321.9731,479.7578 Q1321.3423,479.1768 1320.7488,478.907 Q1320.1553,478.6372 1319.5244,478.6372 Q1318.1797,478.6372 1317.4949,479.7039 Q1316.8101,480.7705 1316.8101,482.8706 Q1316.8101,484.9624 1317.4949,486.0291 Q1318.1797,487.0957 1319.5244,487.0957 Q1320.1553,487.0957 1320.7488,486.8259 Q1321.3423,486.5562 1321.9731,485.9751 Z " fill="#000000"/><text fill="#000000" font-family="sans-serif" font-size="14" lengthAdjust="spacing" textLength="77" x="1333.5" y="487.8457">SyntaxTree</text><line style="stroke:#181818;stroke-width:0.5;" x1="1305.5" x2="1412.5" y1="498.5547" y2="498.5547"/><line style="stroke:#181818;stroke-width:0.5;" x1="1305.5" x2="1412.5" y1="506.5547" y2="506.5547"/></g></a><!--class CompilationUnitSyntax--><a href="CompilationUnitSyntax-diagram-simplified.svg" target="_top" title="CompilationUnitSyntax-diagram-simplified.svg" xlink:actuate="onRequest" xlink:href="CompilationUnitSyntax-diagram-simplified.svg" xlink:show="new" xlink:title="CompilationUnitSyntax-diagram-simplified.svg" xlink:type="simple"><g id="elem_CompilationUnitSyntax"><rect codeLine="6" fill="#F5FFFA" height="48" id="CompilationUnitSyntax" rx="2.5" ry="2.5" style="stroke:#181818;stroke-width:0.5;" width="190" x="1008" y="466.5547"/><ellipse cx="1023" cy="482.5547" fill="#ADD1B2" rx="11" ry="11" style="stroke:#181818;stroke-width:1.0;"/><path d="M1025.4731,488.6978 Q1024.8921,488.9966 1024.2529,489.146 Q1023.6138,489.2954 1022.9082,489.2954 Q1020.4014,489.2954 1019.0815,487.6436 Q1017.7617,485.9917 1017.7617,482.8706 Q1017.7617,479.7412 1019.0815,478.0894 Q1020.4014,476.4375 1022.9082,476.4375 Q1023.6138,476.4375 1024.2612,476.5869 Q1024.9087,476.7363 1025.4731,477.0352 L1025.4731,479.7578 Q1024.8423,479.1768 1024.2488,478.907 Q1023.6553,478.6372 1023.0244,478.6372 Q1021.6797,478.6372 1020.9949,479.7039 Q1020.3101,480.7705 1020.3101,482.8706 Q1020.3101,484.9624 1020.9949,486.0291 Q1021.6797,487.0957 1023.0244,487.0957 Q1023.6553,487.0957 1024.2488,486.8259 Q1024.8423,486.5562 1025.4731,485.9751 Z " fill="#000000"/><text fill="#000000" font-family="sans-serif" font-size="14" lengthAdjust="spacing" textLength="158" x="1037" y="487.8457">CompilationUnitSyntax</text><line style="stroke:#181818;stroke-width:0.5;" x1="1009" x2="1197" y1="498.5547" y2="498.5547"/><line style="stroke:#181818;stroke-width:0.5;" x1="1009" x2="1197" y1="506.5547" y2="506.5547"/></g></a><!--class SemanticModel--><a href="SemanticModel-diagram-simplified.svg" target="_top" title="SemanticModel-diagram-simplified.svg" xlink:actuate="onRequest" xlink:href="SemanticModel-diagram-simplified.svg" xlink:show="new" xlink:title="SemanticModel-diagram-simplified.svg" xlink:type="simple"><g id="elem_SemanticModel"><rect codeLine="8" fill="#F5FFFA" height="48" id="SemanticModel" rx="2.5" ry="2.5" style="stroke:#181818;stroke-width:0.5;" width="136" x="1097" y="574.5547"/><ellipse cx="1112" cy="590.5547" fill="#ADD1B2" rx="11" ry="11" style="stroke:#181818;stroke-width:1.0;"/><path d="M1114.4731,596.6978 Q1113.8921,596.9966 1113.2529,597.146 Q1112.6138,597.2954 1111.9082,597.2954 Q1109.4014,597.2954 1108.0815,595.6436 Q1106.7617,593.9917 1106.7617,590.8706 Q1106.7617,587.7412 1108.0815,586.0894 Q1109.4014,584.4375 1111.9082,584.4375 Q1112.6138,584.4375 1113.2612,584.5869 Q1113.9087,584.7363 1114.4731,585.0352 L1114.4731,587.7578 Q1113.8423,587.1768 1113.2488,586.907 Q1112.6553,586.6372 1112.0244,586.6372 Q1110.6797,586.6372 1109.9949,587.7039 Q1109.3101,588.7705 1109.3101,590.8706 Q1109.3101,592.9624 1109.9949,594.0291 Q1110.6797,595.0957 1112.0244,595.0957 Q1112.6553,595.0957 1113.2488,594.8259 Q1113.8423,594.5562 1114.4731,593.9751 Z " fill="#000000"/><text fill="#000000" font-family="sans-serif" font-size="14" lengthAdjust="spacing" textLength="104" x="1126" y="595.8457">SemanticModel</text><line style="stroke:#181818;stroke-width:0.5;" x1="1098" x2="1232" y1="606.5547" y2="606.5547"/><line style="stroke:#181818;stroke-width:0.5;" x1="1098" x2="1232" y1="614.5547" y2="614.5547"/></g></a><!--link Program to Logger--><g id="link_Program_Logger"><path codeLine="29" d="M841.88,174.5547 C873.41,174.5547 909.6,174.5547 909.6,174.5547 C909.6,174.5547 909.6,691.3447 909.6,691.3447 " fill="none" id="Program-to-Logger" style="stroke:#909090;stroke-width:1.0;"/><polygon fill="#909090" points="909.6,696.3447,913.6,687.3447,909.6,691.3447,905.6,687.3447,909.6,696.3447" style="stroke:#909090;stroke-width:1.0;"/><text fill="#000000" font-family="sans-serif" font-size="13" lengthAdjust="spacing" textLength="29" x="879.6" y="395.653">uses</text></g><!--link Program to AnalyzeAST--><g id="link_Program_AnalyzeAST"><path codeLine="30" d="M763.5,199.0047 C763.5,250.3247 763.5,364.5547 763.5,364.5547 C763.5,364.5547 725.71,364.5547 725.71,364.5547 " fill="none" id="Program-to-AnalyzeAST" style="stroke:#909090;stroke-width:1.0;"/><polygon fill="#909090" points="720.71,364.5547,729.71,368.5547,725.71,364.5547,729.71,360.5547,720.71,364.5547" style="stroke:#909090;stroke-width:1.0;"/><text fill="#000000" font-family="sans-serif" font-size="13" lengthAdjust="spacing" textLength="29" x="733.5" y="297.243">uses</text></g><!--reverse link Datastructure to Logger--><g id="link_Datastructure_Logger"><path codeLine="33" d="M868.25,636.8547 C868.25,636.8547 868.25,697.3047 868.25,697.3047 " fill="none" id="Datastructure-backto-Logger" style="stroke:#10BB10;stroke-width:1.0;"/><polygon fill="#10BB10" points="868.25,623.8547,864.25,629.8547,868.25,635.8547,872.25,629.8547,868.25,623.8547" style="stroke:#10BB10;stroke-width:1.0;"/></g><!--reverse link ASTVisitor to Datastructure--><g id="link_ASTVisitor_Datastructure"><path codeLine="34" d="M844,528.7947 C844,528.7947 844,574.3947 844,574.3947 " fill="none" id="ASTVisitor-backto-Datastructure" style="stroke:#10BB10;stroke-width:1.0;"/><polygon fill="#10BB10" points="844,515.7947,840,521.7947,844,527.7947,848,521.7947,844,515.7947" style="stroke:#10BB10;stroke-width:1.0;"/></g><!--reverse link ASTVisitor to SemanticModel--><g id="link_ASTVisitor_SemanticModel"><path codeLine="35" d="M909.77,482.5547 C909.77,482.5547 912.3,482.5547 912.3,482.5547 C912.3,482.5547 912.3,598.5547 912.3,598.5547 C912.3,598.5547 1021.78,598.5547 1096.62,598.5547 " fill="none" id="ASTVisitor-backto-SemanticModel" style="stroke:#10BB10;stroke-width:1.0;"/><polygon fill="#10BB10" points="896.77,482.5547,902.77,486.5547,908.77,482.5547,902.77,478.5547,896.77,482.5547" style="stroke:#10BB10;stroke-width:1.0;"/></g><!--reverse link ASTVisitor to Logger--><g id="link_ASTVisitor_Logger"><path codeLine="36" d="M903.36,498.5547 C903.36,498.5547 904.2,498.5547 904.2,498.5547 C904.2,498.5547 904.2,639.4647 904.2,697.2647 " fill="none" id="ASTVisitor-backto-Logger" style="stroke:#10BB10;stroke-width:1.0;"/><polygon fill="#10BB10" points="896.83,498.5547,902.83,502.5547,908.83,498.5547,902.83,494.5547,896.83,498.5547" style="stroke:#10BB10;stroke-width:1.0;"/></g><!--link AnalyzeAST to Logger--><g id="link_AnalyzeAST_Logger"><path codeLine="39" d="M719.88,388.5547 C791.95,388.5547 906.9,388.5547 906.9,388.5547 C906.9,388.5547 906.9,691.0647 906.9,691.0647 " fill="none" id="AnalyzeAST-to-Logger" style="stroke:#6060BB;stroke-width:1.0;stroke-dasharray:7.0,7.0;"/><polygon fill="#6060BB" points="906.9,696.0647,910.9,687.0647,906.9,691.0647,902.9,687.0647,906.9,696.0647" style="stroke:#6060BB;stroke-width:1.0;"/><text fill="#000000" font-family="sans-serif" font-size="13" lengthAdjust="spacing" textLength="29" x="876.9" y="442.863">uses</text></g><!--link AnalyzeAST to Datastructure--><g id="link_AnalyzeAST_Datastructure"><path codeLine="40" d="M719.84,400.5547 C751.46,400.5547 784.5,400.5547 784.5,400.5547 C784.5,400.5547 784.5,568.2747 784.5,568.2747 " fill="none" id="AnalyzeAST-to-Datastructure" style="stroke:#909090;stroke-width:1.0;"/><polygon fill="#909090" points="784.5,573.2747,788.5,564.2747,784.5,568.2747,780.5,564.2747,784.5,573.2747" style="stroke:#909090;stroke-width:1.0;"/><text fill="#000000" font-family="sans-serif" font-size="13" lengthAdjust="spacing" textLength="29" x="754.5" y="448.653">uses</text></g><!--link AnalyzeAST to RecursiveFileProcessor--><g id="link_AnalyzeAST_RecursiveFileProcessor"><path codeLine="41" d="M663,406.7947 C663,406.7947 663,460.3947 663,460.3947 " fill="none" id="AnalyzeAST-to-RecursiveFileProcessor" style="stroke:#909090;stroke-width:1.0;"/><polygon fill="#909090" points="663,465.3947,667,456.3947,663,460.3947,659,456.3947,663,465.3947" style="stroke:#909090;stroke-width:1.0;"/><text fill="#000000" font-family="sans-serif" font-size="13" lengthAdjust="spacing" textLength="29" x="633" y="430.163">uses</text></g><!--link AnalyzeAST to SyntaxTree--><g id="link_AnalyzeAST_SyntaxTree"><path codeLine="42" d="M719.96,370.5547 C886.18,370.5547 1359,370.5547 1359,370.5547 C1359,370.5547 1359,460.2747 1359,460.2747 " fill="none" id="AnalyzeAST-to-SyntaxTree" style="stroke:#909090;stroke-width:1.0;"/><polygon fill="#909090" points="1359,465.2747,1363,456.2747,1359,460.2747,1355,456.2747,1359,465.2747" style="stroke:#909090;stroke-width:1.0;"/><text fill="#000000" font-family="sans-serif" font-size="13" lengthAdjust="spacing" textLength="29" x="1054.34" y="367.123">uses</text></g><!--link AnalyzeAST to CompilationUnitSyntax--><g id="link_AnalyzeAST_CompilationUnitSyntax"><path codeLine="43" d="M719.62,382.5547 C838.46,382.5547 1103,382.5547 1103,382.5547 C1103,382.5547 1103,460.3147 1103,460.3147 " fill="none" id="AnalyzeAST-to-CompilationUnitSyntax" style="stroke:#909090;stroke-width:1.0;"/><polygon fill="#909090" points="1103,465.3147,1107,456.3147,1103,460.3147,1099,456.3147,1103,465.3147" style="stroke:#909090;stroke-width:1.0;"/><text fill="#000000" font-family="sans-serif" font-size="13" lengthAdjust="spacing" textLength="29" x="920.19" y="379.123">uses</text></g><!--link AnalyzeAST to SemanticModel--><g id="link_AnalyzeAST_SemanticModel"><path codeLine="44" d="M719.79,376.5547 C860.78,376.5547 1215.5,376.5547 1215.5,376.5547 C1215.5,376.5547 1215.5,568.3747 1215.5,568.3747 " fill="none" id="AnalyzeAST-to-SemanticModel" style="stroke:#909090;stroke-width:1.0;"/><polygon fill="#909090" points="1215.5,573.3747,1219.5,564.3747,1215.5,568.3747,1211.5,564.3747,1215.5,573.3747" style="stroke:#909090;stroke-width:1.0;"/><text fill="#000000" font-family="sans-serif" font-size="13" lengthAdjust="spacing" textLength="29" x="1033.55" y="390.123">uses</text></g><!--link AnalyzeAST to ASTVisitor--><g id="link_AnalyzeAST_ASTVisitor"><path codeLine="45" d="M719.91,394.5547 C763.78,394.5547 817,394.5547 817,394.5547 C817,394.5547 817,460.0847 817,460.0847 " fill="none" id="AnalyzeAST-to-ASTVisitor" style="stroke:#909090;stroke-width:1.0;"/><polygon fill="#909090" points="817,465.0847,821,456.0847,817,460.0847,813,456.0847,817,465.0847" style="stroke:#909090;stroke-width:1.0;"/><text fill="#000000" font-family="sans-serif" font-size="13" lengthAdjust="spacing" textLength="29" x="771.22" y="391.123">uses</text></g><!--SRC=[jLPDJzj04BtxLupWW6J9RkW1gH512a6eXu9G0vMg98UjFGaZrhlMxfeIglxtZksG15WIvwE95CNUcVTctdpOze5KBep8G992DyqHj77tEd3a9CAffMTiVswTNMXtZUx6O3SLkKCJzz4yKe9nLmavVSPk_nR2q5AMIneJfc48fvzAvxD0QOTmy5CN1eH149K3gKbxgBP07QgXwdGkIR9vfpDKZ0k9K918IXu0oTsZ0Vu19JAqkKZGieysR22ihU_2cA_75GJ7KLfd75PQ_Y4pL2aPJ1oacADAKIM4Dgvf-oZB4rsIbEGXDCiWHIT8Ll5prW0m63HmZ58I4ovDzE8UsyV9Q5JINXPImkpuhK9b9c4uCRh8COMSvPXB4OOlz6C6cECltAEPMyHkqTnjmVjLP_W2GIpEKtplCZaQ7O2mS2crS2peDHSygENkJvKJJxS6aHqM5nxccWCEhqYvda5Ewq_mTuRIqrbEah6rkbFaQXm6zDxV4BkFcL2EaYkTeYo3NBvkZ2L-MMS4jqOD-gwuDqPNfVBKVNRqCLL50B2Eua9dWbHy8PnWmo9nXK4Vdyzk9Jd01lJSjZ_8akC1-vXxORG7Oi_0RJPTxsixHIdrxuqZ-8v9OImz8cydvBBowh5-7LPxx46KEqVInj_qP8BU09RFrzCTyJvfz87_Pdi4lIfJW_MyMy2dIW5USMEZiyMEQxFjXkPlvGa-dDzeSFYbLNv7qTaQrQ4DXULdpRPWdhwUG-wMtcmCWsOh9EGmZrldvySSvfgKWmPROJMSDuADOL_lzDsZUftaZkBFwXeqANWyE3nfdN1SetZxTlFWhkuyRn7sYBzcNsxFjFIsiJs8_sLZXw1UDUF-oxJKnVlQ3rLZ_GC0]--></g></svg>