<?xml version="1.0" encoding="us-ascii" standalone="no"?><svg xmlns="http://www.w3.org/2000/svg" xmlns:xlink="http://www.w3.org/1999/xlink" contentStyleType="text/css" height="522px" preserveAspectRatio="none" style="width:823px;height:522px;background:#FFFFFF;" version="1.1" viewBox="0 0 823 522" width="823px" zoomAndPan="magnify"><defs/><g><text fill="#000000" font-family="sans-serif" font-size="20" font-weight="bold" lengthAdjust="spacing" textLength="491" x="100.25" y="29.3359">Examples.BadDesign.CarExample.CarParts.Seats</text><text fill="#000000" font-family="sans-serif" font-size="20" font-weight="bold" lengthAdjust="spacing" textLength="104" x="598.25" y="29.3359">simplified</text><text fill="#000000" font-family="sans-serif" font-size="20" font-weight="bold" lengthAdjust="spacing" textLength="7" x="702.25" y="29.3359">&#160;</text><!--cluster Examples--><g id="cluster_Examples"><path d="M508,50.5547 L577,50.5547 A3.75,3.75 0 0 1 579.5,53.0547 L586.5,73.043 L814,73.043 A2.5,2.5 0 0 1 816.5,75.543 L816.5,513.0547 A2.5,2.5 0 0 1 814,515.5547 L508,515.5547 A2.5,2.5 0 0 1 505.5,513.0547 L505.5,53.0547 A2.5,2.5 0 0 1 508,50.5547 " fill="none" style="stroke:#000000;stroke-width:1.5;"/><line style="stroke:#000000;stroke-width:1.5;" x1="505.5" x2="586.5" y1="73.043" y2="73.043"/><text fill="#000000" font-family="sans-serif" font-size="14" font-weight="bold" lengthAdjust="spacing" textLength="68" x="509.5" y="66.0898">Examples</text></g><!--cluster BadDesign--><g id="cluster_BadDesign"><path d="M532,93.5547 L609,93.5547 A3.75,3.75 0 0 1 611.5,96.0547 L618.5,116.043 L790,116.043 A2.5,2.5 0 0 1 792.5,118.543 L792.5,489.0547 A2.5,2.5 0 0 1 790,491.5547 L532,491.5547 A2.5,2.5 0 0 1 529.5,489.0547 L529.5,96.0547 A2.5,2.5 0 0 1 532,93.5547 " fill="none" style="stroke:#000000;stroke-width:1.5;"/><line style="stroke:#000000;stroke-width:1.5;" x1="529.5" x2="618.5" y1="116.043" y2="116.043"/><text fill="#000000" font-family="sans-serif" font-size="14" font-weight="bold" lengthAdjust="spacing" textLength="76" x="533.5" y="109.0898">BadDesign</text></g><!--cluster CarExample--><g id="cluster_CarExample"><path d="M556,136.5547 L641,136.5547 A3.75,3.75 0 0 1 643.5,139.0547 L650.5,159.043 L766,159.043 A2.5,2.5 0 0 1 768.5,161.543 L768.5,465.0547 A2.5,2.5 0 0 1 766,467.5547 L556,467.5547 A2.5,2.5 0 0 1 553.5,465.0547 L553.5,139.0547 A2.5,2.5 0 0 1 556,136.5547 " fill="none" style="stroke:#000000;stroke-width:1.5;"/><line style="stroke:#000000;stroke-width:1.5;" x1="553.5" x2="650.5" y1="159.043" y2="159.043"/><text fill="#000000" font-family="sans-serif" font-size="14" font-weight="bold" lengthAdjust="spacing" textLength="84" x="557.5" y="152.0898">CarExample</text></g><!--cluster CarParts--><g id="cluster_CarParts"><path d="M647,344.5547 L709,344.5547 A3.75,3.75 0 0 1 711.5,347.0547 L718.5,367.043 L742,367.043 A2.5,2.5 0 0 1 744.5,369.543 L744.5,441.0547 A2.5,2.5 0 0 1 742,443.5547 L647,443.5547 A2.5,2.5 0 0 1 644.5,441.0547 L644.5,347.0547 A2.5,2.5 0 0 1 647,344.5547 " fill="none" style="stroke:#000000;stroke-width:1.5;"/><line style="stroke:#000000;stroke-width:1.5;" x1="644.5" x2="718.5" y1="367.043" y2="367.043"/><text fill="#000000" font-family="sans-serif" font-size="14" font-weight="bold" lengthAdjust="spacing" textLength="61" x="648.5" y="360.0898">CarParts</text></g><!--class DB--><a href="Examples.BadDesign.CarExample.DB-diagram-simplified.svg" target="_top" title="Examples.BadDesign.CarExample.DB-diagram-simplified.svg" xlink:actuate="onRequest" xlink:href="Examples.BadDesign.CarExample.DB-diagram-simplified.svg" xlink:show="new" xlink:title="Examples.BadDesign.CarExample.DB-diagram-simplified.svg" xlink:type="simple"><g id="elem_DB"><rect codeLine="4" fill="#F1F1F1" height="48" id="DB" rx="2.5" ry="2.5" style="stroke:#181818;stroke-width:0.5;" width="50" x="572.5" y="171.5547"/><ellipse cx="587.5" cy="187.5547" fill="#A9DCDF" rx="11" ry="11" style="stroke:#181818;stroke-width:1.0;"/><path d="M587.3633,182.9028 L586.2095,187.9746 L588.5254,187.9746 Z M585.8691,180.6616 L588.8657,180.6616 L592.2109,193.0547 L589.7622,193.0547 L588.9985,189.9917 L585.7197,189.9917 L584.9727,193.0547 L582.5239,193.0547 Z " fill="#000000"/><text fill="#000000" font-family="sans-serif" font-size="14" font-style="italic" lengthAdjust="spacing" textLength="18" x="601.5" y="192.8457">DB</text><line style="stroke:#181818;stroke-width:0.5;" x1="573.5" x2="621.5" y1="203.5547" y2="203.5547"/><line style="stroke:#181818;stroke-width:0.5;" x1="573.5" x2="621.5" y1="211.5547" y2="211.5547"/></g></a><!--class Car--><a href="Examples.BadDesign.CarExample.Car-diagram-simplified.svg" target="_top" title="Examples.BadDesign.CarExample.Car-diagram-simplified.svg" xlink:actuate="onRequest" xlink:href="Examples.BadDesign.CarExample.Car-diagram-simplified.svg" xlink:show="new" xlink:title="Examples.BadDesign.CarExample.Car-diagram-simplified.svg" xlink:type="simple"><g id="elem_Car"><rect codeLine="6" fill="#F1F1F1" height="48" id="Car" rx="2.5" ry="2.5" style="stroke:#181818;stroke-width:0.5;" width="56" x="569.5" y="379.5547"/><ellipse cx="584.5" cy="395.5547" fill="#A9DCDF" rx="11" ry="11" style="stroke:#181818;stroke-width:1.0;"/><path d="M584.3633,390.9028 L583.2095,395.9746 L585.5254,395.9746 Z M582.8691,388.6616 L585.8657,388.6616 L589.2109,401.0547 L586.7622,401.0547 L585.9985,397.9917 L582.7197,397.9917 L581.9727,401.0547 L579.5239,401.0547 Z " fill="#000000"/><text fill="#000000" font-family="sans-serif" font-size="14" font-style="italic" lengthAdjust="spacing" textLength="24" x="598.5" y="400.8457">Car</text><line style="stroke:#181818;stroke-width:0.5;" x1="570.5" x2="624.5" y1="411.5547" y2="411.5547"/><line style="stroke:#181818;stroke-width:0.5;" x1="570.5" x2="624.5" y1="419.5547" y2="419.5547"/></g></a><!--class Seats--><a href="Examples.BadDesign.CarExample.CarParts.Seats-diagram-simplified.svg" target="_top" title="Examples.BadDesign.CarExample.CarParts.Seats-diagram-simplified.svg" xlink:actuate="onRequest" xlink:href="Examples.BadDesign.CarExample.CarParts.Seats-diagram-simplified.svg" xlink:show="new" xlink:title="Examples.BadDesign.CarExample.CarParts.Seats-diagram-simplified.svg" xlink:type="simple"><g id="elem_Seats"><rect codeLine="8" fill="#FFFF00" height="48" id="Seats" rx="2.5" ry="2.5" style="stroke:#181818;stroke-width:0.5;" width="68" x="660.5" y="379.5547"/><ellipse cx="675.5" cy="395.5547" fill="#A9DCDF" rx="11" ry="11" style="stroke:#181818;stroke-width:1.0;"/><path d="M675.3633,390.9028 L674.2095,395.9746 L676.5254,395.9746 Z M673.8691,388.6616 L676.8657,388.6616 L680.2109,401.0547 L677.7622,401.0547 L676.9985,397.9917 L673.7197,397.9917 L672.9727,401.0547 L670.5239,401.0547 Z " fill="#000000"/><text fill="#000000" font-family="sans-serif" font-size="14" font-style="italic" lengthAdjust="spacing" textLength="36" x="689.5" y="400.8457">Seats</text><line style="stroke:#181818;stroke-width:0.5;" x1="661.5" x2="727.5" y1="411.5547" y2="411.5547"/><line style="stroke:#181818;stroke-width:0.5;" x1="661.5" x2="727.5" y1="419.5547" y2="419.5547"/></g></a><g id="elem_FloatingNote"><path d="M6,71.5547 L6,319.2129 L489,319.2129 L489,81.5547 L479,71.5547 L6,71.5547 " fill="#FEFFDD" style="stroke:#181818;stroke-width:0.5;"/><path d="M479,71.5547 L479,81.5547 L489,81.5547 L479,71.5547 " fill="#FEFFDD" style="stroke:#181818;stroke-width:1.0;"/><text fill="#000000" font-family="sans-serif" font-size="13" lengthAdjust="spacing" textLength="120" x="12" y="89.123">Your are analyzing:</text><text fill="#000000" font-family="sans-serif" font-size="13" lengthAdjust="spacing" textLength="301" x="12" y="104.4336">Examples.BadDesign.CarExample.CarParts.Seats</text><text fill="#000000" font-family="sans-serif" font-size="13" font-weight="bold" lengthAdjust="spacing" textLength="67" x="317" y="104.4336">simplified</text><text fill="#000000" font-family="sans-serif" font-size="13" lengthAdjust="spacing" textLength="4" x="384" y="104.4336">&#160;</text><text fill="#000000" font-family="sans-serif" font-size="13" lengthAdjust="spacing" textLength="4" x="12" y="119.7441">&#160;</text><text fill="#000000" font-family="sans-serif" font-size="13" lengthAdjust="spacing" textLength="229" x="12" y="150.3652">You can click either the namespaces</text><text fill="#000000" font-family="sans-serif" font-size="13" lengthAdjust="spacing" textLength="266" x="12" y="165.6758">or class names for filtering them and their</text><text fill="#000000" font-family="sans-serif" font-size="13" lengthAdjust="spacing" textLength="130" x="12" y="180.9863">direct dependencies.</text><text fill="#000000" font-family="sans-serif" font-size="13" lengthAdjust="spacing" textLength="4" x="12" y="196.2969">&#160;</text><line style="stroke:#181818;stroke-width:1.0;" x1="7" x2="231.5" y1="130.1416" y2="130.1416"/><line style="stroke:#181818;stroke-width:1.0;" x1="7" x2="231.5" y1="132.1416" y2="132.1416"/><text fill="#000000" font-family="sans-serif" font-size="13" lengthAdjust="spacing" textLength="32" x="231.5" y="134.5547">Filter</text><line style="stroke:#181818;stroke-width:1.0;" x1="263.5" x2="488" y1="130.1416" y2="130.1416"/><line style="stroke:#181818;stroke-width:1.0;" x1="263.5" x2="488" y1="132.1416" y2="132.1416"/><ellipse cx="17.5" cy="226.1602" fill="#000000" rx="2.5" ry="2.5" style="stroke:#000000;stroke-width:0.0;"/><text fill="#000000" font-family="sans-serif" font-size="13" lengthAdjust="spacing" textLength="301" x="24" y="230.918">Examples.BadDesign.CarExample.CarParts.Seats</text><text fill="#000000" font-family="sans-serif" font-size="13" font-weight="bold" lengthAdjust="spacing" textLength="55" x="329" y="230.918">detailed</text><text fill="#000000" font-family="sans-serif" font-size="13" lengthAdjust="spacing" textLength="4" x="388" y="230.918">:</text><text fill="#000000" font-family="sans-serif" font-size="13" lengthAdjust="spacing" textLength="12" x="12" y="246.2285">&#160;&#160;&#160;</text><a href="Examples.BadDesign.CarExample.CarParts.Seats-diagram-detailed.svg" target="_top" title="Examples.BadDesign.CarExample.CarParts.Seats-diagram-detailed.svg" xlink:actuate="onRequest" xlink:href="Examples.BadDesign.CarExample.CarParts.Seats-diagram-detailed.svg" xlink:show="new" xlink:title="Examples.BadDesign.CarExample.CarParts.Seats-diagram-detailed.svg" xlink:type="simple"><text fill="#0000FF" font-family="sans-serif" font-size="13" lengthAdjust="spacing" text-decoration="underline" textLength="444" x="24" y="246.2285">Examples.BadDesign.CarExample.CarParts.Seats-diagram-detailed.svg</text></a><ellipse cx="17.5" cy="256.7813" fill="#000000" rx="2.5" ry="2.5" style="stroke:#000000;stroke-width:0.0;"/><text fill="#000000" font-family="sans-serif" font-size="13" lengthAdjust="spacing" textLength="78" x="24" y="261.5391">Full diagram</text><text fill="#000000" font-family="sans-serif" font-size="13" font-weight="bold" lengthAdjust="spacing" textLength="67" x="106" y="261.5391">simplified</text><text fill="#000000" font-family="sans-serif" font-size="13" lengthAdjust="spacing" textLength="23" x="177" y="261.5391">and</text><text fill="#000000" font-family="sans-serif" font-size="13" font-weight="bold" lengthAdjust="spacing" textLength="166" x="204" y="261.5391">grouped per namespace</text><text fill="#000000" font-family="sans-serif" font-size="13" lengthAdjust="spacing" textLength="4" x="370" y="261.5391">:</text><text fill="#000000" font-family="sans-serif" font-size="13" lengthAdjust="spacing" textLength="12" x="12" y="276.8496">&#160;&#160;&#160;</text><a href="full-diagram-simplified-grouped-per-namespace.svg" target="_top" title="full-diagram-simplified-grouped-per-namespace.svg" xlink:actuate="onRequest" xlink:href="full-diagram-simplified-grouped-per-namespace.svg" xlink:show="new" xlink:title="full-diagram-simplified-grouped-per-namespace.svg" xlink:type="simple"><text fill="#0000FF" font-family="sans-serif" font-size="13" lengthAdjust="spacing" text-decoration="underline" textLength="343" x="24" y="276.8496">full-diagram-simplified-grouped-per-namespace.svg</text></a><ellipse cx="17.5" cy="287.4023" fill="#000000" rx="2.5" ry="2.5" style="stroke:#000000;stroke-width:0.0;"/><text fill="#000000" font-family="sans-serif" font-size="13" lengthAdjust="spacing" textLength="41" x="24" y="292.1602">Home:</text><text fill="#000000" font-family="sans-serif" font-size="13" lengthAdjust="spacing" textLength="12" x="12" y="307.4707">&#160;&#160;&#160;</text><a href="index.html" target="_top" title="index.html" xlink:actuate="onRequest" xlink:href="index.html" xlink:show="new" xlink:title="index.html" xlink:type="simple"><text fill="#0000FF" font-family="sans-serif" font-size="13" lengthAdjust="spacing" text-decoration="underline" textLength="68" x="24" y="307.4707">index.html</text></a><line style="stroke:#181818;stroke-width:1.0;" x1="7" x2="210.5" y1="210.6943" y2="210.6943"/><line style="stroke:#181818;stroke-width:1.0;" x1="7" x2="210.5" y1="212.6943" y2="212.6943"/><text fill="#000000" font-family="sans-serif" font-size="13" lengthAdjust="spacing" textLength="74" x="210.5" y="215.1074">Select other</text><line style="stroke:#181818;stroke-width:1.0;" x1="284.5" x2="488" y1="210.6943" y2="210.6943"/><line style="stroke:#181818;stroke-width:1.0;" x1="284.5" x2="488" y1="212.6943" y2="212.6943"/></g><!--link DB to Car--><g id="link_DB_Car"><path codeLine="15" d="M589.17,219.8247 C589.17,219.8247 589.17,373.1247 589.17,373.1247 " fill="none" id="DB-to-Car" style="stroke:#6060BB;stroke-width:1.0;stroke-dasharray:7.0,7.0;"/><polygon fill="#6060BB" points="589.17,378.1247,593.17,369.1247,589.17,373.1247,585.17,369.1247,589.17,378.1247" style="stroke:#6060BB;stroke-width:1.0;"/><text fill="#000000" font-family="sans-serif" font-size="13" lengthAdjust="spacing" textLength="29" x="559.17" y="293.043">uses</text></g><!--reverse link Car to DB--><g id="link_Car_DB"><path codeLine="17" d="M605.83,365.2847 C605.83,365.2847 605.83,219.9847 605.83,219.9847 " fill="none" id="Car-backto-DB" style="stroke:#10BB10;stroke-width:1.0;"/><polygon fill="#10BB10" points="605.83,378.2847,609.83,372.2847,605.83,366.2847,601.83,372.2847,605.83,378.2847" style="stroke:#10BB10;stroke-width:1.0;"/></g><!--link DB to Seats--><g id="link_DB_Seats"><path codeLine="16" d="M622.9,187.5547 C654.92,187.5547 705.83,187.5547 705.83,187.5547 C705.83,187.5547 705.83,373.1947 705.83,373.1947 " fill="none" id="DB-to-Seats" style="stroke:#6060BB;stroke-width:1.0;stroke-dasharray:7.0,7.0;"/><polygon fill="#6060BB" points="705.83,378.1947,709.83,369.1947,705.83,373.1947,701.83,369.1947,705.83,378.1947" style="stroke:#6060BB;stroke-width:1.0;"/><text fill="#000000" font-family="sans-serif" font-size="13" lengthAdjust="spacing" textLength="29" x="675.83" y="235.473">uses</text></g><!--reverse link Seats to DB--><g id="link_Seats_DB"><path codeLine="21" d="M683.17,365.4347 C683.17,365.4347 683.17,203.5547 683.17,203.5547 C683.17,203.5547 648.01,203.5547 622.74,203.5547 " fill="none" id="Seats-backto-DB" style="stroke:#10BB10;stroke-width:1.0;"/><polygon fill="#10BB10" points="683.17,378.4347,687.17,372.4347,683.17,366.4347,679.17,372.4347,683.17,378.4347" style="stroke:#10BB10;stroke-width:1.0;"/></g><!--link Car to Seats--><g id="link_Car_Seats"><path codeLine="18" d="M625.82,403.5547 C625.82,403.5547 654.13,403.5547 654.13,403.5547 " fill="none" id="Car-to-Seats" style="stroke:#909090;stroke-width:1.0;"/><polygon fill="#909090" points="659.13,403.5547,650.13,399.5547,654.13,403.5547,650.13,407.5547,659.13,403.5547" style="stroke:#909090;stroke-width:1.0;"/><text fill="#000000" font-family="sans-serif" font-size="13" lengthAdjust="spacing" textLength="29" x="633.22" y="417.123">uses</text></g><!--SRC=[jLHDQzj04BthLmpn8R0WHUaXK1FxeBYcfrB8gTWwJAIHl6IrAtRNhPtI_zvP-Ikq9PRIn0ApMisyz_RDazoZr2rQR419JNxR4XZhLoRoqYk2MoUVQFmXdNxQODCgSac6vOoSh7LoXtQ_6vPVqNgNt1Dw1q8uoVkoabGA0RTN0MKQQUC9BhwPjGMq1AXHRP-ahiTB_J_mIxtKaybSAazsCbbg9e02DHHA5ez0qg_80l-1nePSYmKvxZ6M2z2vtIvKV5zr42meL3UihmmBQPUwb9OA3oMrf4lIXMIbEzfxKk692II1NC30evJaKQhk8Em302mMGn3YKcBDuuiFE8dxNkTv439VAmNxntzw5iucH6tDkgKIMZReQ8uG1nqL0npnJ-tnlYtcjlZOTkBzR1ewG4YsQvEiVAFo_0BGmLmPz6pn5yv2n2M03yvRP0jtqtZvxBFih3spx1-IT-80VdQKluOJyxBFO7fI3oT_dfbN1kGlIQCjAML-x9LrsYuv5Br-y6wrbt3NMM99SL2CTa2RpYhEQMLDSmhgc6jVT28w6wPaCRf9Rz8iovDfZmJ06DQEFnPl3VnykZqvWXmHBqRNp76Tvl7v5wS78EDzJCELnwzL_ORZEt94mpwfWrpv3G00]--></g></svg>