<?xml version="1.0" encoding="us-ascii" standalone="no"?><svg xmlns="http://www.w3.org/2000/svg" xmlns:xlink="http://www.w3.org/1999/xlink" contentStyleType="text/css" height="649px" preserveAspectRatio="none" style="width:767px;height:649px;background:#FFFFFF;" version="1.1" viewBox="0 0 767 649" width="767px" zoomAndPan="magnify"><defs/><g><text fill="#000000" font-family="sans-serif" font-size="20" font-weight="bold" lengthAdjust="spacing" textLength="499" x="68" y="29.3359">Examples.BadDesign.CarExample.CarParts.Doors</text><text fill="#000000" font-family="sans-serif" font-size="20" font-weight="bold" lengthAdjust="spacing" textLength="104" x="574" y="29.3359">simplified</text><text fill="#000000" font-family="sans-serif" font-size="20" font-weight="bold" lengthAdjust="spacing" textLength="7" x="678" y="29.3359">&#160;</text><!--cluster Examples--><g id="cluster_Examples"><path d="M512.5,50.5547 L581.5,50.5547 A3.75,3.75 0 0 1 584,53.0547 L591,73.043 L757.5,73.043 A2.5,2.5 0 0 1 760,75.543 L760,640.0547 A2.5,2.5 0 0 1 757.5,642.5547 L512.5,642.5547 A2.5,2.5 0 0 1 510,640.0547 L510,53.0547 A2.5,2.5 0 0 1 512.5,50.5547 " fill="none" style="stroke:#000000;stroke-width:1.5;"/><line style="stroke:#000000;stroke-width:1.5;" x1="510" x2="591" y1="73.043" y2="73.043"/><text fill="#000000" font-family="sans-serif" font-size="14" font-weight="bold" lengthAdjust="spacing" textLength="68" x="514" y="66.0898">Examples</text></g><!--cluster BadDesign--><g id="cluster_BadDesign"><path d="M536.5,93.5547 L613.5,93.5547 A3.75,3.75 0 0 1 616,96.0547 L623,116.043 L733.5,116.043 A2.5,2.5 0 0 1 736,118.543 L736,616.0547 A2.5,2.5 0 0 1 733.5,618.5547 L536.5,618.5547 A2.5,2.5 0 0 1 534,616.0547 L534,96.0547 A2.5,2.5 0 0 1 536.5,93.5547 " fill="none" style="stroke:#000000;stroke-width:1.5;"/><line style="stroke:#000000;stroke-width:1.5;" x1="534" x2="623" y1="116.043" y2="116.043"/><text fill="#000000" font-family="sans-serif" font-size="14" font-weight="bold" lengthAdjust="spacing" textLength="76" x="538" y="109.0898">BadDesign</text></g><!--cluster CarExample--><g id="cluster_CarExample"><path d="M560.5,136.5547 L645.5,136.5547 A3.75,3.75 0 0 1 648,139.0547 L655,159.043 L709.5,159.043 A2.5,2.5 0 0 1 712,161.543 L712,592.0547 A2.5,2.5 0 0 1 709.5,594.5547 L560.5,594.5547 A2.5,2.5 0 0 1 558,592.0547 L558,139.0547 A2.5,2.5 0 0 1 560.5,136.5547 " fill="none" style="stroke:#000000;stroke-width:1.5;"/><line style="stroke:#000000;stroke-width:1.5;" x1="558" x2="655" y1="159.043" y2="159.043"/><text fill="#000000" font-family="sans-serif" font-size="14" font-weight="bold" lengthAdjust="spacing" textLength="84" x="562" y="152.0898">CarExample</text></g><!--cluster CarParts--><g id="cluster_CarParts"><path d="M584.5,179.5547 L646.5,179.5547 A3.75,3.75 0 0 1 649,182.0547 L656,202.043 L685.5,202.043 A2.5,2.5 0 0 1 688,204.543 L688,276.0547 A2.5,2.5 0 0 1 685.5,278.5547 L584.5,278.5547 A2.5,2.5 0 0 1 582,276.0547 L582,182.0547 A2.5,2.5 0 0 1 584.5,179.5547 " fill="none" style="stroke:#000000;stroke-width:1.5;"/><line style="stroke:#000000;stroke-width:1.5;" x1="582" x2="656" y1="202.043" y2="202.043"/><text fill="#000000" font-family="sans-serif" font-size="14" font-weight="bold" lengthAdjust="spacing" textLength="61" x="586" y="195.0898">CarParts</text></g><!--class DB--><a href="Examples.BadDesign.CarExample.DB-diagram-simplified.svg" target="_top" title="Examples.BadDesign.CarExample.DB-diagram-simplified.svg" xlink:actuate="onRequest" xlink:href="Examples.BadDesign.CarExample.DB-diagram-simplified.svg" xlink:show="new" xlink:title="Examples.BadDesign.CarExample.DB-diagram-simplified.svg" xlink:type="simple"><g id="elem_DB"><rect codeLine="4" fill="#F1F1F1" height="48" id="DB" rx="2.5" ry="2.5" style="stroke:#181818;stroke-width:0.5;" width="50" x="627" y="422.5547"/><ellipse cx="642" cy="438.5547" fill="#A9DCDF" rx="11" ry="11" style="stroke:#181818;stroke-width:1.0;"/><path d="M641.8633,433.9028 L640.7095,438.9746 L643.0254,438.9746 Z M640.3691,431.6616 L643.3657,431.6616 L646.7109,444.0547 L644.2622,444.0547 L643.4985,440.9917 L640.2197,440.9917 L639.4727,444.0547 L637.0239,444.0547 Z " fill="#000000"/><text fill="#000000" font-family="sans-serif" font-size="14" font-style="italic" lengthAdjust="spacing" textLength="18" x="656" y="443.8457">DB</text><line style="stroke:#181818;stroke-width:0.5;" x1="628" x2="676" y1="454.5547" y2="454.5547"/><line style="stroke:#181818;stroke-width:0.5;" x1="628" x2="676" y1="462.5547" y2="462.5547"/></g></a><!--class Car--><a href="Examples.BadDesign.CarExample.Car-diagram-simplified.svg" target="_top" title="Examples.BadDesign.CarExample.Car-diagram-simplified.svg" xlink:actuate="onRequest" xlink:href="Examples.BadDesign.CarExample.Car-diagram-simplified.svg" xlink:show="new" xlink:title="Examples.BadDesign.CarExample.Car-diagram-simplified.svg" xlink:type="simple"><g id="elem_Car"><rect codeLine="6" fill="#F1F1F1" height="48" id="Car" rx="2.5" ry="2.5" style="stroke:#181818;stroke-width:0.5;" width="56" x="624" y="530.5547"/><ellipse cx="639" cy="546.5547" fill="#A9DCDF" rx="11" ry="11" style="stroke:#181818;stroke-width:1.0;"/><path d="M638.8633,541.9028 L637.7095,546.9746 L640.0254,546.9746 Z M637.3691,539.6616 L640.3657,539.6616 L643.7109,552.0547 L641.2622,552.0547 L640.4985,548.9917 L637.2197,548.9917 L636.4727,552.0547 L634.0239,552.0547 Z " fill="#000000"/><text fill="#000000" font-family="sans-serif" font-size="14" font-style="italic" lengthAdjust="spacing" textLength="24" x="653" y="551.8457">Car</text><line style="stroke:#181818;stroke-width:0.5;" x1="625" x2="679" y1="562.5547" y2="562.5547"/><line style="stroke:#181818;stroke-width:0.5;" x1="625" x2="679" y1="570.5547" y2="570.5547"/></g></a><!--class Doors--><a href="Examples.BadDesign.CarExample.CarParts.Doors-diagram-simplified.svg" target="_top" title="Examples.BadDesign.CarExample.CarParts.Doors-diagram-simplified.svg" xlink:actuate="onRequest" xlink:href="Examples.BadDesign.CarExample.CarParts.Doors-diagram-simplified.svg" xlink:show="new" xlink:title="Examples.BadDesign.CarExample.CarParts.Doors-diagram-simplified.svg" xlink:type="simple"><g id="elem_Doors"><rect codeLine="8" fill="#FFFF00" height="48" id="Doors" rx="2.5" ry="2.5" style="stroke:#181818;stroke-width:0.5;" width="73" x="598.5" y="214.5547"/><ellipse cx="613.5" cy="230.5547" fill="#A9DCDF" rx="11" ry="11" style="stroke:#181818;stroke-width:1.0;"/><path d="M613.3633,225.9028 L612.2095,230.9746 L614.5254,230.9746 Z M611.8691,223.6616 L614.8657,223.6616 L618.2109,236.0547 L615.7622,236.0547 L614.9985,232.9917 L611.7197,232.9917 L610.9727,236.0547 L608.5239,236.0547 Z " fill="#000000"/><text fill="#000000" font-family="sans-serif" font-size="14" font-style="italic" lengthAdjust="spacing" textLength="41" x="627.5" y="235.8457">Doors</text><line style="stroke:#181818;stroke-width:0.5;" x1="599.5" x2="670.5" y1="246.5547" y2="246.5547"/><line style="stroke:#181818;stroke-width:0.5;" x1="599.5" x2="670.5" y1="254.5547" y2="254.5547"/></g></a><g id="elem_FloatingNote"><path d="M6,114.5547 L6,362.2129 L494,362.2129 L494,124.5547 L484,114.5547 L6,114.5547 " fill="#FEFFDD" style="stroke:#181818;stroke-width:0.5;"/><path d="M484,114.5547 L484,124.5547 L494,124.5547 L484,114.5547 " fill="#FEFFDD" style="stroke:#181818;stroke-width:1.0;"/><text fill="#000000" font-family="sans-serif" font-size="13" lengthAdjust="spacing" textLength="120" x="12" y="132.123">Your are analyzing:</text><text fill="#000000" font-family="sans-serif" font-size="13" lengthAdjust="spacing" textLength="306" x="12" y="147.4336">Examples.BadDesign.CarExample.CarParts.Doors</text><text fill="#000000" font-family="sans-serif" font-size="13" font-weight="bold" lengthAdjust="spacing" textLength="67" x="322" y="147.4336">simplified</text><text fill="#000000" font-family="sans-serif" font-size="13" lengthAdjust="spacing" textLength="4" x="389" y="147.4336">&#160;</text><text fill="#000000" font-family="sans-serif" font-size="13" lengthAdjust="spacing" textLength="4" x="12" y="162.7441">&#160;</text><text fill="#000000" font-family="sans-serif" font-size="13" lengthAdjust="spacing" textLength="229" x="12" y="193.3652">You can click either the namespaces</text><text fill="#000000" font-family="sans-serif" font-size="13" lengthAdjust="spacing" textLength="266" x="12" y="208.6758">or class names for filtering them and their</text><text fill="#000000" font-family="sans-serif" font-size="13" lengthAdjust="spacing" textLength="130" x="12" y="223.9863">direct dependencies.</text><text fill="#000000" font-family="sans-serif" font-size="13" lengthAdjust="spacing" textLength="4" x="12" y="239.2969">&#160;</text><line style="stroke:#181818;stroke-width:1.0;" x1="7" x2="234" y1="173.1416" y2="173.1416"/><line style="stroke:#181818;stroke-width:1.0;" x1="7" x2="234" y1="175.1416" y2="175.1416"/><text fill="#000000" font-family="sans-serif" font-size="13" lengthAdjust="spacing" textLength="32" x="234" y="177.5547">Filter</text><line style="stroke:#181818;stroke-width:1.0;" x1="266" x2="493" y1="173.1416" y2="173.1416"/><line style="stroke:#181818;stroke-width:1.0;" x1="266" x2="493" y1="175.1416" y2="175.1416"/><ellipse cx="17.5" cy="269.1602" fill="#000000" rx="2.5" ry="2.5" style="stroke:#000000;stroke-width:0.0;"/><text fill="#000000" font-family="sans-serif" font-size="13" lengthAdjust="spacing" textLength="306" x="24" y="273.918">Examples.BadDesign.CarExample.CarParts.Doors</text><text fill="#000000" font-family="sans-serif" font-size="13" font-weight="bold" lengthAdjust="spacing" textLength="55" x="334" y="273.918">detailed</text><text fill="#000000" font-family="sans-serif" font-size="13" lengthAdjust="spacing" textLength="4" x="393" y="273.918">:</text><text fill="#000000" font-family="sans-serif" font-size="13" lengthAdjust="spacing" textLength="12" x="12" y="289.2285">&#160;&#160;&#160;</text><a href="Examples.BadDesign.CarExample.CarParts.Doors-diagram-detailed.svg" target="_top" title="Examples.BadDesign.CarExample.CarParts.Doors-diagram-detailed.svg" xlink:actuate="onRequest" xlink:href="Examples.BadDesign.CarExample.CarParts.Doors-diagram-detailed.svg" xlink:show="new" xlink:title="Examples.BadDesign.CarExample.CarParts.Doors-diagram-detailed.svg" xlink:type="simple"><text fill="#0000FF" font-family="sans-serif" font-size="13" lengthAdjust="spacing" text-decoration="underline" textLength="449" x="24" y="289.2285">Examples.BadDesign.CarExample.CarParts.Doors-diagram-detailed.svg</text></a><ellipse cx="17.5" cy="299.7813" fill="#000000" rx="2.5" ry="2.5" style="stroke:#000000;stroke-width:0.0;"/><text fill="#000000" font-family="sans-serif" font-size="13" lengthAdjust="spacing" textLength="78" x="24" y="304.5391">Full diagram</text><text fill="#000000" font-family="sans-serif" font-size="13" font-weight="bold" lengthAdjust="spacing" textLength="67" x="106" y="304.5391">simplified</text><text fill="#000000" font-family="sans-serif" font-size="13" lengthAdjust="spacing" textLength="23" x="177" y="304.5391">and</text><text fill="#000000" font-family="sans-serif" font-size="13" font-weight="bold" lengthAdjust="spacing" textLength="166" x="204" y="304.5391">grouped per namespace</text><text fill="#000000" font-family="sans-serif" font-size="13" lengthAdjust="spacing" textLength="4" x="370" y="304.5391">:</text><text fill="#000000" font-family="sans-serif" font-size="13" lengthAdjust="spacing" textLength="12" x="12" y="319.8496">&#160;&#160;&#160;</text><a href="full-diagram-simplified-grouped-per-namespace.svg" target="_top" title="full-diagram-simplified-grouped-per-namespace.svg" xlink:actuate="onRequest" xlink:href="full-diagram-simplified-grouped-per-namespace.svg" xlink:show="new" xlink:title="full-diagram-simplified-grouped-per-namespace.svg" xlink:type="simple"><text fill="#0000FF" font-family="sans-serif" font-size="13" lengthAdjust="spacing" text-decoration="underline" textLength="343" x="24" y="319.8496">full-diagram-simplified-grouped-per-namespace.svg</text></a><ellipse cx="17.5" cy="330.4023" fill="#000000" rx="2.5" ry="2.5" style="stroke:#000000;stroke-width:0.0;"/><text fill="#000000" font-family="sans-serif" font-size="13" lengthAdjust="spacing" textLength="41" x="24" y="335.1602">Home:</text><text fill="#000000" font-family="sans-serif" font-size="13" lengthAdjust="spacing" textLength="12" x="12" y="350.4707">&#160;&#160;&#160;</text><a href="index.html" target="_top" title="index.html" xlink:actuate="onRequest" xlink:href="index.html" xlink:show="new" xlink:title="index.html" xlink:type="simple"><text fill="#0000FF" font-family="sans-serif" font-size="13" lengthAdjust="spacing" text-decoration="underline" textLength="68" x="24" y="350.4707">index.html</text></a><line style="stroke:#181818;stroke-width:1.0;" x1="7" x2="213" y1="253.6943" y2="253.6943"/><line style="stroke:#181818;stroke-width:1.0;" x1="7" x2="213" y1="255.6943" y2="255.6943"/><text fill="#000000" font-family="sans-serif" font-size="13" lengthAdjust="spacing" textLength="74" x="213" y="258.1074">Select other</text><line style="stroke:#181818;stroke-width:1.0;" x1="287" x2="493" y1="253.6943" y2="253.6943"/><line style="stroke:#181818;stroke-width:1.0;" x1="287" x2="493" y1="255.6943" y2="255.6943"/></g><!--link DB to Car--><g id="link_DB_Car"><path codeLine="15" d="M643.67,470.7947 C643.67,470.7947 643.67,524.3947 643.67,524.3947 " fill="none" id="DB-to-Car" style="stroke:#6060BB;stroke-width:1.0;stroke-dasharray:7.0,7.0;"/><polygon fill="#6060BB" points="643.67,529.3947,647.67,520.3947,643.67,524.3947,639.67,520.3947,643.67,529.3947" style="stroke:#6060BB;stroke-width:1.0;"/><text fill="#000000" font-family="sans-serif" font-size="13" lengthAdjust="spacing" textLength="29" x="613.67" y="494.163">uses</text></g><!--reverse link Car to DB--><g id="link_Car_DB"><path codeLine="16" d="M660.33,516.3147 C660.33,516.3147 660.33,470.7147 660.33,470.7147 " fill="none" id="Car-backto-DB" style="stroke:#10BB10;stroke-width:1.0;"/><polygon fill="#10BB10" points="660.33,529.3147,664.33,523.3147,660.33,517.3147,656.33,523.3147,660.33,529.3147" style="stroke:#10BB10;stroke-width:1.0;"/></g><!--link Car to Doors--><g id="link_Car_Doors"><path codeLine="17" d="M623.7,554.5547 C616.74,554.5547 611.25,554.5547 611.25,554.5547 C611.25,554.5547 611.25,268.8247 611.25,268.8247 " fill="none" id="Car-to-Doors" style="stroke:#6060BB;stroke-width:1.0;stroke-dasharray:7.0,7.0;"/><polygon fill="#6060BB" points="611.25,263.8247,607.25,272.8247,611.25,268.8247,615.25,272.8247,611.25,263.8247" style="stroke:#6060BB;stroke-width:1.0;"/><text fill="#000000" font-family="sans-serif" font-size="13" lengthAdjust="spacing" textLength="29" x="581.25" y="414.483">uses</text></g><!--reverse link Doors to DB--><g id="link_Doors_DB"><path codeLine="20" d="M649.25,276.8247 C649.25,276.8247 649.25,422.1247 649.25,422.1247 " fill="none" id="Doors-backto-DB" style="stroke:#10BB10;stroke-width:1.0;"/><polygon fill="#10BB10" points="649.25,263.8247,645.25,269.8247,649.25,275.8247,653.25,269.8247,649.25,263.8247" style="stroke:#10BB10;stroke-width:1.0;"/></g><!--SRC=[jLInRjim4Dtr5OTu2410gjCXWn5xK5oZKr6WKs5fk8WdcGX52YJTsYdwxpt9jXoqHImrgGQ1ekxUU_VuGF-eJ8CEQz3AKDWt1DQ5ZOs22fhWpgidchsVBZxii6uq-IH5kIIlAfFSeplkjilFw89FbjOw3q9unVkgL2I5WBjtBSeYCZOGN7srMmVe2D2WtZyfKyqoynhup6HcFbyf7SZDvvbX0YZGGA5LyGYameOSy0iCrkGRBCXpZtLSWDuVTg7axxA3O45jTStwPBjGBZDIEIe2I6h8I3A5OgK7sY-asp-s9Md91OmSHL90fRj1s0S0MA_78CHIOSN75vzm4l-jolDMo6ghDHn__-vPEviGbRFRXYGqR51lZX0d7IK3zFZdzlZO5dDRtBUTUJ_QcauGYktQ9PjGwpo_0lImqXO3M_o9in1n2U233mxPmiDfl3pxChreppBzY-I3E80V7UNFySIy778m0wd7ap_Fp3y6v0z9aprfRRyVbNNQhZaKWnxuRxNNSDzPuaXpKApnGBlEAivfwMnz3kgCQrzq8heOfcGzkPtUJjCqJnO34W0ps7g-BABBfI9UJsuO-6QQnvT3FG1mdDJdUUbLlw6rFKSqxheRvSel]--></g></svg>