<?xml version="1.0" encoding="us-ascii" standalone="no"?><svg xmlns="http://www.w3.org/2000/svg" xmlns:xlink="http://www.w3.org/1999/xlink" contentStyleType="text/css" height="369px" preserveAspectRatio="none" style="width:1056px;height:369px;background:#FFFFFF;" version="1.1" viewBox="0 0 1056 369" width="1056px" zoomAndPan="magnify"><defs/><g><text fill="#000000" font-family="sans-serif" font-size="20" font-weight="bold" lengthAdjust="spacing" textLength="616" x="10" y="29.3359">Examples.BadDesign.CarExample.WarehouseEntities.Invoice</text><text fill="#000000" font-family="sans-serif" font-size="20" font-weight="bold" lengthAdjust="spacing" textLength="104" x="633" y="29.3359">simplified</text><text fill="#000000" font-family="sans-serif" font-size="20" font-weight="bold" lengthAdjust="spacing" textLength="38" x="744" y="29.3359">and</text><text fill="#000000" font-family="sans-serif" font-size="20" font-weight="bold" lengthAdjust="spacing" textLength="249" x="789" y="29.3359">grouped per namespace</text><!--cluster Examples--><g id="cluster_Examples"><a href="Examples-diagram-simplified-grouped-per-namespace.svg" target="_top" title="Examples-diagram-simplified-grouped-per-namespace.svg" xlink:actuate="onRequest" xlink:href="Examples-diagram-simplified-grouped-per-namespace.svg" xlink:show="new" xlink:title="Examples-diagram-simplified-grouped-per-namespace.svg" xlink:type="simple"><path d="M756.5,50.5547 L825.5,50.5547 A3.75,3.75 0 0 1 828,53.0547 L835,73.043 L1044.5,73.043 A2.5,2.5 0 0 1 1047,75.543 L1047,348.0547 A2.5,2.5 0 0 1 1044.5,350.5547 L756.5,350.5547 A2.5,2.5 0 0 1 754,348.0547 L754,53.0547 A2.5,2.5 0 0 1 756.5,50.5547 " fill="none" style="stroke:#000000;stroke-width:1.5;"/><line style="stroke:#000000;stroke-width:1.5;" x1="754" x2="835" y1="73.043" y2="73.043"/><text fill="#000000" font-family="sans-serif" font-size="14" font-weight="bold" lengthAdjust="spacing" textLength="68" x="758" y="66.0898">Examples</text></a></g><!--cluster BadDesign--><g id="cluster_BadDesign"><a href="Examples.BadDesign-diagram-simplified-grouped-per-namespace.svg" target="_top" title="Examples.BadDesign-diagram-simplified-grouped-per-namespace.svg" xlink:actuate="onRequest" xlink:href="Examples.BadDesign-diagram-simplified-grouped-per-namespace.svg" xlink:show="new" xlink:title="Examples.BadDesign-diagram-simplified-grouped-per-namespace.svg" xlink:type="simple"><path d="M780.5,93.5547 L857.5,93.5547 A3.75,3.75 0 0 1 860,96.0547 L867,116.043 L1020.5,116.043 A2.5,2.5 0 0 1 1023,118.543 L1023,324.0547 A2.5,2.5 0 0 1 1020.5,326.5547 L780.5,326.5547 A2.5,2.5 0 0 1 778,324.0547 L778,96.0547 A2.5,2.5 0 0 1 780.5,93.5547 " fill="none" style="stroke:#000000;stroke-width:1.5;"/><line style="stroke:#000000;stroke-width:1.5;" x1="778" x2="867" y1="116.043" y2="116.043"/><text fill="#000000" font-family="sans-serif" font-size="14" font-weight="bold" lengthAdjust="spacing" textLength="76" x="782" y="109.0898">BadDesign</text></a></g><!--cluster CarExample--><g id="cluster_CarExample"><a href="Examples.BadDesign.CarExample-diagram-simplified-grouped-per-namespace.svg" target="_top" title="Examples.BadDesign.CarExample-diagram-simplified-grouped-per-namespace.svg" xlink:actuate="onRequest" xlink:href="Examples.BadDesign.CarExample-diagram-simplified-grouped-per-namespace.svg" xlink:show="new" xlink:title="Examples.BadDesign.CarExample-diagram-simplified-grouped-per-namespace.svg" xlink:type="simple"><path d="M804.5,136.5547 L889.5,136.5547 A3.75,3.75 0 0 1 892,139.0547 L899,159.043 L996.5,159.043 A2.5,2.5 0 0 1 999,161.543 L999,300.0547 A2.5,2.5 0 0 1 996.5,302.5547 L804.5,302.5547 A2.5,2.5 0 0 1 802,300.0547 L802,139.0547 A2.5,2.5 0 0 1 804.5,136.5547 " fill="none" style="stroke:#000000;stroke-width:1.5;"/><line style="stroke:#000000;stroke-width:1.5;" x1="802" x2="899" y1="159.043" y2="159.043"/><text fill="#000000" font-family="sans-serif" font-size="14" font-weight="bold" lengthAdjust="spacing" textLength="84" x="806" y="152.0898">CarExample</text></a></g><!--cluster WarehouseEntities--><g id="cluster_WarehouseEntities"><a href="Examples.BadDesign.CarExample.WarehouseEntities-diagram-simplified-grouped-per-namespace.svg" target="_top" title="Examples.BadDesign.CarExample.WarehouseEntities-diagram-simplified-grouped-per-namespace.svg" xlink:actuate="onRequest" xlink:href="Examples.BadDesign.CarExample.WarehouseEntities-diagram-simplified-grouped-per-namespace.svg" xlink:show="new" xlink:title="Examples.BadDesign.CarExample.WarehouseEntities-diagram-simplified-grouped-per-namespace.svg" xlink:type="simple"><path d="M828.5,179.5547 L962.5,179.5547 A3.75,3.75 0 0 1 965,182.0547 L972,202.043 L972.5,202.043 A2.5,2.5 0 0 1 975,204.543 L975,276.0547 A2.5,2.5 0 0 1 972.5,278.5547 L828.5,278.5547 A2.5,2.5 0 0 1 826,276.0547 L826,182.0547 A2.5,2.5 0 0 1 828.5,179.5547 " fill="none" style="stroke:#000000;stroke-width:1.5;"/><line style="stroke:#000000;stroke-width:1.5;" x1="826" x2="972" y1="202.043" y2="202.043"/><text fill="#000000" font-family="sans-serif" font-size="14" font-weight="bold" lengthAdjust="spacing" textLength="133" x="830" y="195.0898">WarehouseEntities</text></a></g><!--class Invoice--><a href="Examples.BadDesign.CarExample.WarehouseEntities.Invoice-diagram-simplified-grouped-per-namespace.svg" target="_top" title="Examples.BadDesign.CarExample.WarehouseEntities.Invoice-diagram-simplified-grouped-per-namespace.svg" xlink:actuate="onRequest" xlink:href="Examples.BadDesign.CarExample.WarehouseEntities.Invoice-diagram-simplified-grouped-per-namespace.svg" xlink:show="new" xlink:title="Examples.BadDesign.CarExample.WarehouseEntities.Invoice-diagram-simplified-grouped-per-namespace.svg" xlink:type="simple"><g id="elem_Invoice"><rect codeLine="8" fill="#FFFF00" height="48" id="Invoice" rx="2.5" ry="2.5" style="stroke:#181818;stroke-width:0.5;" width="80" x="860" y="214.5547"/><ellipse cx="875" cy="230.5547" fill="#A9DCDF" rx="11" ry="11" style="stroke:#181818;stroke-width:1.0;"/><path d="M874.8633,225.9028 L873.7095,230.9746 L876.0254,230.9746 Z M873.3691,223.6616 L876.3657,223.6616 L879.7109,236.0547 L877.2622,236.0547 L876.4985,232.9917 L873.2197,232.9917 L872.4727,236.0547 L870.0239,236.0547 Z " fill="#000000"/><text fill="#000000" font-family="sans-serif" font-size="14" font-style="italic" lengthAdjust="spacing" textLength="48" x="889" y="235.8457">Invoice</text><line style="stroke:#181818;stroke-width:0.5;" x1="861" x2="939" y1="246.5547" y2="246.5547"/><line style="stroke:#181818;stroke-width:0.5;" x1="861" x2="939" y1="254.5547" y2="254.5547"/></g></a><g id="elem_FloatingNote"><path d="M14,114.5547 L14,362.2129 L738,362.2129 L738,124.5547 L728,114.5547 L14,114.5547 " fill="#FEFFDD" style="stroke:#181818;stroke-width:0.5;"/><path d="M728,114.5547 L728,124.5547 L738,124.5547 L728,114.5547 " fill="#FEFFDD" style="stroke:#181818;stroke-width:1.0;"/><text fill="#000000" font-family="sans-serif" font-size="13" lengthAdjust="spacing" textLength="120" x="20" y="132.123">Your are analyzing:</text><text fill="#000000" font-family="sans-serif" font-size="13" lengthAdjust="spacing" textLength="376" x="20" y="147.4336">Examples.BadDesign.CarExample.WarehouseEntities.Invoice</text><text fill="#000000" font-family="sans-serif" font-size="13" font-weight="bold" lengthAdjust="spacing" textLength="67" x="400" y="147.4336">simplified</text><text fill="#000000" font-family="sans-serif" font-size="13" lengthAdjust="spacing" textLength="23" x="471" y="147.4336">and</text><text fill="#000000" font-family="sans-serif" font-size="13" font-weight="bold" lengthAdjust="spacing" textLength="166" x="498" y="147.4336">grouped per namespace</text><text fill="#000000" font-family="sans-serif" font-size="13" lengthAdjust="spacing" textLength="4" x="20" y="162.7441">&#160;</text><text fill="#000000" font-family="sans-serif" font-size="13" lengthAdjust="spacing" textLength="229" x="20" y="193.3652">You can click either the namespaces</text><text fill="#000000" font-family="sans-serif" font-size="13" lengthAdjust="spacing" textLength="266" x="20" y="208.6758">or class names for filtering them and their</text><text fill="#000000" font-family="sans-serif" font-size="13" lengthAdjust="spacing" textLength="130" x="20" y="223.9863">direct dependencies.</text><text fill="#000000" font-family="sans-serif" font-size="13" lengthAdjust="spacing" textLength="4" x="20" y="239.2969">&#160;</text><line style="stroke:#181818;stroke-width:1.0;" x1="15" x2="360" y1="173.1416" y2="173.1416"/><line style="stroke:#181818;stroke-width:1.0;" x1="15" x2="360" y1="175.1416" y2="175.1416"/><text fill="#000000" font-family="sans-serif" font-size="13" lengthAdjust="spacing" textLength="32" x="360" y="177.5547">Filter</text><line style="stroke:#181818;stroke-width:1.0;" x1="392" x2="737" y1="173.1416" y2="173.1416"/><line style="stroke:#181818;stroke-width:1.0;" x1="392" x2="737" y1="175.1416" y2="175.1416"/><ellipse cx="25.5" cy="269.1602" fill="#000000" rx="2.5" ry="2.5" style="stroke:#000000;stroke-width:0.0;"/><text fill="#000000" font-family="sans-serif" font-size="13" lengthAdjust="spacing" textLength="376" x="32" y="273.918">Examples.BadDesign.CarExample.WarehouseEntities.Invoice</text><text fill="#000000" font-family="sans-serif" font-size="13" font-weight="bold" lengthAdjust="spacing" textLength="55" x="412" y="273.918">detailed</text><text fill="#000000" font-family="sans-serif" font-size="13" lengthAdjust="spacing" textLength="23" x="471" y="273.918">and</text><text fill="#000000" font-family="sans-serif" font-size="13" font-weight="bold" lengthAdjust="spacing" textLength="166" x="498" y="273.918">grouped per namespace</text><text fill="#000000" font-family="sans-serif" font-size="13" lengthAdjust="spacing" textLength="4" x="664" y="273.918">:</text><text fill="#000000" font-family="sans-serif" font-size="13" lengthAdjust="spacing" textLength="12" x="20" y="289.2285">&#160;&#160;&#160;</text><a href="Examples.BadDesign.CarExample.WarehouseEntities.Invoice-diagram-detailed-grouped-per-namespace.svg" target="_top" title="Examples.BadDesign.CarExample.WarehouseEntities.Invoice-diagram-detailed-grouped-per-namespace.svg" xlink:actuate="onRequest" xlink:href="Examples.BadDesign.CarExample.WarehouseEntities.Invoice-diagram-detailed-grouped-per-namespace.svg" xlink:show="new" xlink:title="Examples.BadDesign.CarExample.WarehouseEntities.Invoice-diagram-detailed-grouped-per-namespace.svg" xlink:type="simple"><text fill="#0000FF" font-family="sans-serif" font-size="13" lengthAdjust="spacing" text-decoration="underline" textLength="685" x="32" y="289.2285">Examples.BadDesign.CarExample.WarehouseEntities.Invoice-diagram-detailed-grouped-per-namespace.svg</text></a><ellipse cx="25.5" cy="299.7813" fill="#000000" rx="2.5" ry="2.5" style="stroke:#000000;stroke-width:0.0;"/><text fill="#000000" font-family="sans-serif" font-size="13" lengthAdjust="spacing" textLength="78" x="32" y="304.5391">Full diagram</text><text fill="#000000" font-family="sans-serif" font-size="13" font-weight="bold" lengthAdjust="spacing" textLength="67" x="114" y="304.5391">simplified</text><text fill="#000000" font-family="sans-serif" font-size="13" lengthAdjust="spacing" textLength="23" x="185" y="304.5391">and</text><text fill="#000000" font-family="sans-serif" font-size="13" font-weight="bold" lengthAdjust="spacing" textLength="166" x="212" y="304.5391">grouped per namespace</text><text fill="#000000" font-family="sans-serif" font-size="13" lengthAdjust="spacing" textLength="4" x="378" y="304.5391">:</text><text fill="#000000" font-family="sans-serif" font-size="13" lengthAdjust="spacing" textLength="12" x="20" y="319.8496">&#160;&#160;&#160;</text><a href="full-diagram-simplified-grouped-per-namespace.svg" target="_top" title="full-diagram-simplified-grouped-per-namespace.svg" xlink:actuate="onRequest" xlink:href="full-diagram-simplified-grouped-per-namespace.svg" xlink:show="new" xlink:title="full-diagram-simplified-grouped-per-namespace.svg" xlink:type="simple"><text fill="#0000FF" font-family="sans-serif" font-size="13" lengthAdjust="spacing" text-decoration="underline" textLength="343" x="32" y="319.8496">full-diagram-simplified-grouped-per-namespace.svg</text></a><ellipse cx="25.5" cy="330.4023" fill="#000000" rx="2.5" ry="2.5" style="stroke:#000000;stroke-width:0.0;"/><text fill="#000000" font-family="sans-serif" font-size="13" lengthAdjust="spacing" textLength="41" x="32" y="335.1602">Home:</text><text fill="#000000" font-family="sans-serif" font-size="13" lengthAdjust="spacing" textLength="12" x="20" y="350.4707">&#160;&#160;&#160;</text><a href="index.html" target="_top" title="index.html" xlink:actuate="onRequest" xlink:href="index.html" xlink:show="new" xlink:title="index.html" xlink:type="simple"><text fill="#0000FF" font-family="sans-serif" font-size="13" lengthAdjust="spacing" text-decoration="underline" textLength="68" x="32" y="350.4707">index.html</text></a><line style="stroke:#181818;stroke-width:1.0;" x1="15" x2="339" y1="253.6943" y2="253.6943"/><line style="stroke:#181818;stroke-width:1.0;" x1="15" x2="339" y1="255.6943" y2="255.6943"/><text fill="#000000" font-family="sans-serif" font-size="13" lengthAdjust="spacing" textLength="74" x="339" y="258.1074">Select other</text><line style="stroke:#181818;stroke-width:1.0;" x1="413" x2="737" y1="253.6943" y2="253.6943"/><line style="stroke:#181818;stroke-width:1.0;" x1="413" x2="737" y1="255.6943" y2="255.6943"/></g><!--SRC=[pLLDRzim3BtxLn3TeO01UyEEGTD3imRRfPSTXg4E0iMc7Q8oPKXocdJeVn-L3pj0KwJ9rc66OTWIoVVuHDBkWRXHLjMWYT6l6WHZ_Tn4dhn6k7BqX8FFdwvlbwfkDBhqHXLVq575wKZPxMhwGrcSczRXBOiVYTatNXZA4UBOaPXGILZ4CIWkPAcofcsmW0OjiAhHDIh7EBxw6D2k8pOUuUAdQIr8NF5HUlL4N0qo_XSqCivuE1oJzcY7muo52EIA8TUKFm2IdukzF7eV1naRAmRAkSqgbF9ThaC8yM1Thq7bXMp61LdCFHJO81V8UQ2wWVsEEkoO01B0OpW_vGAz8dqyOT4L0ExlpqHA2bALL52omqksE8dW91rEwXRLP18o6hTQmzRff9FP4IqbG8VQkn_3_Mfgt8KWqNsPpdsj9vCBK0x6sYWlPtKdnHTrpftwU_ASY0o_3eJh9Jwe-z-5s3l5OwVyRi0lo-VqWZkT7AmlDNFUAkcgJOEUsr1_tY1lvFrXXLgRnux_StGvChLCQUc8_rbkU9JP2AAn1vbYDRBCiHAw762aZGlJK4dxDnON96XJrywcNQIf9d7kSxmpZ333N0cjC4wtFmD73kGkYSdDiKZtOlU-B_A9dW_QzHAyOj2fzSh-JbRPXaiPNc-wuDri0yLGvXQr33J33d2vBd-fdjAQkcS-4DiJQ-8t]--></g></svg>