<?xml version="1.0" encoding="us-ascii" standalone="no"?><svg xmlns="http://www.w3.org/2000/svg" xmlns:xlink="http://www.w3.org/1999/xlink" contentStyleType="text/css" height="820px" preserveAspectRatio="none" style="width:1642px;height:820px;background:#FFFFFF;" version="1.1" viewBox="0 0 1642 820" width="1642px" zoomAndPan="magnify"><defs/><g><text fill="#000000" font-family="sans-serif" font-size="20" font-weight="bold" lengthAdjust="spacing" textLength="237" x="636.75" y="29.3359">Examples.BetterDesign</text><text fill="#000000" font-family="sans-serif" font-size="20" font-weight="bold" lengthAdjust="spacing" textLength="104" x="880.75" y="29.3359">simplified</text><text fill="#000000" font-family="sans-serif" font-size="20" font-weight="bold" lengthAdjust="spacing" textLength="7" x="984.75" y="29.3359">&#160;</text><!--cluster Examples--><g id="cluster_Examples"><path d="M414,50.5547 L483,50.5547 A3.75,3.75 0 0 1 485.5,53.0547 L492.5,73.043 L1633,73.043 A2.5,2.5 0 0 1 1635.5,75.543 L1635.5,811.0547 A2.5,2.5 0 0 1 1633,813.5547 L414,813.5547 A2.5,2.5 0 0 1 411.5,811.0547 L411.5,53.0547 A2.5,2.5 0 0 1 414,50.5547 " fill="none" style="stroke:#000000;stroke-width:1.5;"/><line style="stroke:#000000;stroke-width:1.5;" x1="411.5" x2="492.5" y1="73.043" y2="73.043"/><text fill="#000000" font-family="sans-serif" font-size="14" font-weight="bold" lengthAdjust="spacing" textLength="68" x="415.5" y="66.0898">Examples</text></g><!--cluster BetterDesign--><g id="cluster_BetterDesign"><path d="M438,93.5547 L532,93.5547 A3.75,3.75 0 0 1 534.5,96.0547 L541.5,116.043 L1609,116.043 A2.5,2.5 0 0 1 1611.5,118.543 L1611.5,787.0547 A2.5,2.5 0 0 1 1609,789.5547 L438,789.5547 A2.5,2.5 0 0 1 435.5,787.0547 L435.5,96.0547 A2.5,2.5 0 0 1 438,93.5547 " fill="none" style="stroke:#000000;stroke-width:1.5;"/><line style="stroke:#000000;stroke-width:1.5;" x1="435.5" x2="541.5" y1="116.043" y2="116.043"/><text fill="#000000" font-family="sans-serif" font-size="14" font-weight="bold" lengthAdjust="spacing" textLength="93" x="439.5" y="109.0898">BetterDesign</text></g><!--cluster Repository--><g id="cluster_Repository"><path d="M550,136.5547 L629,136.5547 A3.75,3.75 0 0 1 631.5,139.0547 L638.5,159.043 L1585,159.043 A2.5,2.5 0 0 1 1587.5,161.543 L1587.5,763.0547 A2.5,2.5 0 0 1 1585,765.5547 L550,765.5547 A2.5,2.5 0 0 1 547.5,763.0547 L547.5,139.0547 A2.5,2.5 0 0 1 550,136.5547 " fill="none" style="stroke:#000000;stroke-width:1.5;"/><line style="stroke:#000000;stroke-width:1.5;" x1="547.5" x2="638.5" y1="159.043" y2="159.043"/><text fill="#000000" font-family="sans-serif" font-size="14" font-weight="bold" lengthAdjust="spacing" textLength="78" x="551.5" y="152.0898">Repository</text></g><!--cluster CarExample--><g id="cluster_CarExample"><path d="M574,179.5547 L659,179.5547 A3.75,3.75 0 0 1 661.5,182.0547 L668.5,202.043 L1561,202.043 A2.5,2.5 0 0 1 1563.5,204.543 L1563.5,739.0547 A2.5,2.5 0 0 1 1561,741.5547 L574,741.5547 A2.5,2.5 0 0 1 571.5,739.0547 L571.5,182.0547 A2.5,2.5 0 0 1 574,179.5547 " fill="none" style="stroke:#000000;stroke-width:1.5;"/><line style="stroke:#000000;stroke-width:1.5;" x1="571.5" x2="668.5" y1="202.043" y2="202.043"/><text fill="#000000" font-family="sans-serif" font-size="14" font-weight="bold" lengthAdjust="spacing" textLength="84" x="575.5" y="195.0898">CarExample</text></g><!--cluster CarParts--><g id="cluster_CarParts"><path d="M1109,618.5547 L1171,618.5547 A3.75,3.75 0 0 1 1173.5,621.0547 L1180.5,641.043 L1537,641.043 A2.5,2.5 0 0 1 1539.5,643.543 L1539.5,715.0547 A2.5,2.5 0 0 1 1537,717.5547 L1109,717.5547 A2.5,2.5 0 0 1 1106.5,715.0547 L1106.5,621.0547 A2.5,2.5 0 0 1 1109,618.5547 " fill="none" style="stroke:#000000;stroke-width:1.5;"/><line style="stroke:#000000;stroke-width:1.5;" x1="1106.5" x2="1180.5" y1="641.043" y2="641.043"/><text fill="#000000" font-family="sans-serif" font-size="14" font-weight="bold" lengthAdjust="spacing" textLength="61" x="1110.5" y="634.0898">CarParts</text></g><!--cluster WarehouseEntities--><g id="cluster_WarehouseEntities"><path d="M598,495.5547 L732,495.5547 A3.75,3.75 0 0 1 734.5,498.0547 L741.5,518.043 L1174,518.043 A2.5,2.5 0 0 1 1176.5,520.543 L1176.5,592.0547 A2.5,2.5 0 0 1 1174,594.5547 L598,594.5547 A2.5,2.5 0 0 1 595.5,592.0547 L595.5,498.0547 A2.5,2.5 0 0 1 598,495.5547 " fill="none" style="stroke:#000000;stroke-width:1.5;"/><line style="stroke:#000000;stroke-width:1.5;" x1="595.5" x2="741.5" y1="518.043" y2="518.043"/><text fill="#000000" font-family="sans-serif" font-size="14" font-weight="bold" lengthAdjust="spacing" textLength="133" x="599.5" y="511.0898">WarehouseEntities</text></g><!--class Service--><a href="Examples.BetterDesign.Service-diagram-simplified.svg" target="_top" title="Examples.BetterDesign.Service-diagram-simplified.svg" xlink:actuate="onRequest" xlink:href="Examples.BetterDesign.Service-diagram-simplified.svg" xlink:show="new" xlink:title="Examples.BetterDesign.Service-diagram-simplified.svg" xlink:type="simple"><g id="elem_Service"><rect codeLine="4" fill="#FFFF00" height="48" id="Service" rx="2.5" ry="2.5" style="stroke:#181818;stroke-width:0.5;" width="80" x="451.5" y="422.5547"/><ellipse cx="466.5" cy="438.5547" fill="#A9DCDF" rx="11" ry="11" style="stroke:#181818;stroke-width:1.0;"/><path d="M466.3633,433.9028 L465.2095,438.9746 L467.5254,438.9746 Z M464.8691,431.6616 L467.8657,431.6616 L471.2109,444.0547 L468.7622,444.0547 L467.9985,440.9917 L464.7197,440.9917 L463.9727,444.0547 L461.5239,444.0547 Z " fill="#000000"/><text fill="#000000" font-family="sans-serif" font-size="14" font-style="italic" lengthAdjust="spacing" textLength="48" x="480.5" y="443.8457">Service</text><line style="stroke:#181818;stroke-width:0.5;" x1="452.5" x2="530.5" y1="454.5547" y2="454.5547"/><line style="stroke:#181818;stroke-width:0.5;" x1="452.5" x2="530.5" y1="462.5547" y2="462.5547"/></g></a><!--class Car--><a href="Examples.BetterDesign.Repository.CarExample.Car-diagram-simplified.svg" target="_top" title="Examples.BetterDesign.Repository.CarExample.Car-diagram-simplified.svg" xlink:actuate="onRequest" xlink:href="Examples.BetterDesign.Repository.CarExample.Car-diagram-simplified.svg" xlink:show="new" xlink:title="Examples.BetterDesign.Repository.CarExample.Car-diagram-simplified.svg" xlink:type="simple"><g id="elem_Car"><rect codeLine="6" fill="#FFFF00" height="48" id="Car" rx="2.5" ry="2.5" style="stroke:#181818;stroke-width:0.5;" width="56" x="1269.5" y="530.5547"/><ellipse cx="1284.5" cy="546.5547" fill="#A9DCDF" rx="11" ry="11" style="stroke:#181818;stroke-width:1.0;"/><path d="M1284.3633,541.9028 L1283.2095,546.9746 L1285.5254,546.9746 Z M1282.8691,539.6616 L1285.8657,539.6616 L1289.2109,552.0547 L1286.7622,552.0547 L1285.9985,548.9917 L1282.7197,548.9917 L1281.9727,552.0547 L1279.5239,552.0547 Z " fill="#000000"/><text fill="#000000" font-family="sans-serif" font-size="14" font-style="italic" lengthAdjust="spacing" textLength="24" x="1298.5" y="551.8457">Car</text><line style="stroke:#181818;stroke-width:0.5;" x1="1270.5" x2="1324.5" y1="562.5547" y2="562.5547"/><line style="stroke:#181818;stroke-width:0.5;" x1="1270.5" x2="1324.5" y1="570.5547" y2="570.5547"/></g></a><!--class DBCar--><a href="Examples.BetterDesign.Repository.CarExample.DBCar-diagram-simplified.svg" target="_top" title="Examples.BetterDesign.Repository.CarExample.DBCar-diagram-simplified.svg" xlink:actuate="onRequest" xlink:href="Examples.BetterDesign.Repository.CarExample.DBCar-diagram-simplified.svg" xlink:show="new" xlink:title="Examples.BetterDesign.Repository.CarExample.DBCar-diagram-simplified.svg" xlink:type="simple"><g id="elem_DBCar"><rect codeLine="8" fill="#FFFF00" height="48" id="DBCar" rx="2.5" ry="2.5" style="stroke:#181818;stroke-width:0.5;" width="74" x="1354.5" y="422.5547"/><ellipse cx="1369.5" cy="438.5547" fill="#A9DCDF" rx="11" ry="11" style="stroke:#181818;stroke-width:1.0;"/><path d="M1369.3633,433.9028 L1368.2095,438.9746 L1370.5254,438.9746 Z M1367.8691,431.6616 L1370.8657,431.6616 L1374.2109,444.0547 L1371.7622,444.0547 L1370.9985,440.9917 L1367.7197,440.9917 L1366.9727,444.0547 L1364.5239,444.0547 Z " fill="#000000"/><text fill="#000000" font-family="sans-serif" font-size="14" font-style="italic" lengthAdjust="spacing" textLength="42" x="1383.5" y="443.8457">DBCar</text><line style="stroke:#181818;stroke-width:0.5;" x1="1355.5" x2="1427.5" y1="454.5547" y2="454.5547"/><line style="stroke:#181818;stroke-width:0.5;" x1="1355.5" x2="1427.5" y1="462.5547" y2="462.5547"/></g></a><!--class DBWarehouse--><a href="Examples.BetterDesign.Repository.CarExample.DBWarehouse-diagram-simplified.svg" target="_top" title="Examples.BetterDesign.Repository.CarExample.DBWarehouse-diagram-simplified.svg" xlink:actuate="onRequest" xlink:href="Examples.BetterDesign.Repository.CarExample.DBWarehouse-diagram-simplified.svg" xlink:show="new" xlink:title="Examples.BetterDesign.Repository.CarExample.DBWarehouse-diagram-simplified.svg" xlink:type="simple"><g id="elem_DBWarehouse"><rect codeLine="10" fill="#FFFF00" height="48" id="DBWarehouse" rx="2.5" ry="2.5" style="stroke:#181818;stroke-width:0.5;" width="126" x="927.5" y="422.5547"/><ellipse cx="942.5" cy="438.5547" fill="#A9DCDF" rx="11" ry="11" style="stroke:#181818;stroke-width:1.0;"/><path d="M942.3633,433.9028 L941.2095,438.9746 L943.5254,438.9746 Z M940.8691,431.6616 L943.8657,431.6616 L947.2109,444.0547 L944.7622,444.0547 L943.9985,440.9917 L940.7197,440.9917 L939.9727,444.0547 L937.5239,444.0547 Z " fill="#000000"/><text fill="#000000" font-family="sans-serif" font-size="14" font-style="italic" lengthAdjust="spacing" textLength="94" x="956.5" y="443.8457">DBWarehouse</text><line style="stroke:#181818;stroke-width:0.5;" x1="928.5" x2="1052.5" y1="454.5547" y2="454.5547"/><line style="stroke:#181818;stroke-width:0.5;" x1="928.5" x2="1052.5" y1="462.5547" y2="462.5547"/></g></a><!--class Vehicle--><a href="Examples.BetterDesign.Repository.CarExample.Vehicle-diagram-simplified.svg" target="_top" title="Examples.BetterDesign.Repository.CarExample.Vehicle-diagram-simplified.svg" xlink:actuate="onRequest" xlink:href="Examples.BetterDesign.Repository.CarExample.Vehicle-diagram-simplified.svg" xlink:show="new" xlink:title="Examples.BetterDesign.Repository.CarExample.Vehicle-diagram-simplified.svg" xlink:type="simple"><g id="elem_Vehicle"><rect codeLine="12" fill="#FFFF00" height="48" id="Vehicle" rx="2.5" ry="2.5" style="stroke:#181818;stroke-width:0.5;" width="81" x="1307" y="214.5547"/><ellipse cx="1322" cy="230.5547" fill="#A9DCDF" rx="11" ry="11" style="stroke:#181818;stroke-width:1.0;"/><path d="M1321.8633,225.9028 L1320.7095,230.9746 L1323.0254,230.9746 Z M1320.3691,223.6616 L1323.3657,223.6616 L1326.7109,236.0547 L1324.2622,236.0547 L1323.4985,232.9917 L1320.2197,232.9917 L1319.4727,236.0547 L1317.0239,236.0547 Z " fill="#000000"/><text fill="#000000" font-family="sans-serif" font-size="14" font-style="italic" lengthAdjust="spacing" textLength="49" x="1336" y="235.8457">Vehicle</text><line style="stroke:#181818;stroke-width:0.5;" x1="1308" x2="1387" y1="246.5547" y2="246.5547"/><line style="stroke:#181818;stroke-width:0.5;" x1="1308" x2="1387" y1="254.5547" y2="254.5547"/></g></a><!--class Driver--><a href="Examples.BetterDesign.Repository.CarExample.CarParts.Driver-diagram-simplified.svg" target="_top" title="Examples.BetterDesign.Repository.CarExample.CarParts.Driver-diagram-simplified.svg" xlink:actuate="onRequest" xlink:href="Examples.BetterDesign.Repository.CarExample.CarParts.Driver-diagram-simplified.svg" xlink:show="new" xlink:title="Examples.BetterDesign.Repository.CarExample.CarParts.Driver-diagram-simplified.svg" xlink:type="simple"><g id="elem_Driver"><rect codeLine="14" fill="#FFFF00" height="48" id="Driver" rx="2.5" ry="2.5" style="stroke:#181818;stroke-width:0.5;" width="73" x="1450" y="653.5547"/><ellipse cx="1465" cy="669.5547" fill="#A9DCDF" rx="11" ry="11" style="stroke:#181818;stroke-width:1.0;"/><path d="M1464.8633,664.9028 L1463.7095,669.9746 L1466.0254,669.9746 Z M1463.3691,662.6616 L1466.3657,662.6616 L1469.7109,675.0547 L1467.2622,675.0547 L1466.4985,671.9917 L1463.2197,671.9917 L1462.4727,675.0547 L1460.0239,675.0547 Z " fill="#000000"/><text fill="#000000" font-family="sans-serif" font-size="14" font-style="italic" lengthAdjust="spacing" textLength="41" x="1479" y="674.8457">Driver</text><line style="stroke:#181818;stroke-width:0.5;" x1="1451" x2="1522" y1="685.5547" y2="685.5547"/><line style="stroke:#181818;stroke-width:0.5;" x1="1451" x2="1522" y1="693.5547" y2="693.5547"/></g></a><!--class Seats--><a href="Examples.BetterDesign.Repository.CarExample.CarParts.Seats-diagram-simplified.svg" target="_top" title="Examples.BetterDesign.Repository.CarExample.CarParts.Seats-diagram-simplified.svg" xlink:actuate="onRequest" xlink:href="Examples.BetterDesign.Repository.CarExample.CarParts.Seats-diagram-simplified.svg" xlink:show="new" xlink:title="Examples.BetterDesign.Repository.CarExample.CarParts.Seats-diagram-simplified.svg" xlink:type="simple"><g id="elem_Seats"><rect codeLine="16" fill="#FFFF00" height="48" id="Seats" rx="2.5" ry="2.5" style="stroke:#181818;stroke-width:0.5;" width="68" x="1122.5" y="653.5547"/><ellipse cx="1137.5" cy="669.5547" fill="#A9DCDF" rx="11" ry="11" style="stroke:#181818;stroke-width:1.0;"/><path d="M1137.3633,664.9028 L1136.2095,669.9746 L1138.5254,669.9746 Z M1135.8691,662.6616 L1138.8657,662.6616 L1142.2109,675.0547 L1139.7622,675.0547 L1138.9985,671.9917 L1135.7197,671.9917 L1134.9727,675.0547 L1132.5239,675.0547 Z " fill="#000000"/><text fill="#000000" font-family="sans-serif" font-size="14" font-style="italic" lengthAdjust="spacing" textLength="36" x="1151.5" y="674.8457">Seats</text><line style="stroke:#181818;stroke-width:0.5;" x1="1123.5" x2="1189.5" y1="685.5547" y2="685.5547"/><line style="stroke:#181818;stroke-width:0.5;" x1="1123.5" x2="1189.5" y1="693.5547" y2="693.5547"/></g></a><!--class Doors--><a href="Examples.BetterDesign.Repository.CarExample.CarParts.Doors-diagram-simplified.svg" target="_top" title="Examples.BetterDesign.Repository.CarExample.CarParts.Doors-diagram-simplified.svg" xlink:actuate="onRequest" xlink:href="Examples.BetterDesign.Repository.CarExample.CarParts.Doors-diagram-simplified.svg" xlink:show="new" xlink:title="Examples.BetterDesign.Repository.CarExample.CarParts.Doors-diagram-simplified.svg" xlink:type="simple"><g id="elem_Doors"><rect codeLine="18" fill="#FFFF00" height="48" id="Doors" rx="2.5" ry="2.5" style="stroke:#181818;stroke-width:0.5;" width="73" x="1226" y="653.5547"/><ellipse cx="1241" cy="669.5547" fill="#A9DCDF" rx="11" ry="11" style="stroke:#181818;stroke-width:1.0;"/><path d="M1240.8633,664.9028 L1239.7095,669.9746 L1242.0254,669.9746 Z M1239.3691,662.6616 L1242.3657,662.6616 L1245.7109,675.0547 L1243.2622,675.0547 L1242.4985,671.9917 L1239.2197,671.9917 L1238.4727,675.0547 L1236.0239,675.0547 Z " fill="#000000"/><text fill="#000000" font-family="sans-serif" font-size="14" font-style="italic" lengthAdjust="spacing" textLength="41" x="1255" y="674.8457">Doors</text><line style="stroke:#181818;stroke-width:0.5;" x1="1227" x2="1298" y1="685.5547" y2="685.5547"/><line style="stroke:#181818;stroke-width:0.5;" x1="1227" x2="1298" y1="693.5547" y2="693.5547"/></g></a><!--class Wheels--><a href="Examples.BetterDesign.Repository.CarExample.CarParts.Wheels-diagram-simplified.svg" target="_top" title="Examples.BetterDesign.Repository.CarExample.CarParts.Wheels-diagram-simplified.svg" xlink:actuate="onRequest" xlink:href="Examples.BetterDesign.Repository.CarExample.CarParts.Wheels-diagram-simplified.svg" xlink:show="new" xlink:title="Examples.BetterDesign.Repository.CarExample.CarParts.Wheels-diagram-simplified.svg" xlink:type="simple"><g id="elem_Wheels"><rect codeLine="20" fill="#FFFF00" height="48" id="Wheels" rx="2.5" ry="2.5" style="stroke:#181818;stroke-width:0.5;" width="80" x="1334.5" y="653.5547"/><ellipse cx="1349.5" cy="669.5547" fill="#A9DCDF" rx="11" ry="11" style="stroke:#181818;stroke-width:1.0;"/><path d="M1349.3633,664.9028 L1348.2095,669.9746 L1350.5254,669.9746 Z M1347.8691,662.6616 L1350.8657,662.6616 L1354.2109,675.0547 L1351.7622,675.0547 L1350.9985,671.9917 L1347.7197,671.9917 L1346.9727,675.0547 L1344.5239,675.0547 Z " fill="#000000"/><text fill="#000000" font-family="sans-serif" font-size="14" font-style="italic" lengthAdjust="spacing" textLength="48" x="1363.5" y="674.8457">Wheels</text><line style="stroke:#181818;stroke-width:0.5;" x1="1335.5" x2="1413.5" y1="685.5547" y2="685.5547"/><line style="stroke:#181818;stroke-width:0.5;" x1="1335.5" x2="1413.5" y1="693.5547" y2="693.5547"/></g></a><!--class Car--><a href="Examples.BetterDesign.Repository.CarExample.WarehouseEntities.Car-diagram-simplified.svg" target="_top" title="Examples.BetterDesign.Repository.CarExample.WarehouseEntities.Car-diagram-simplified.svg" xlink:actuate="onRequest" xlink:href="Examples.BetterDesign.Repository.CarExample.WarehouseEntities.Car-diagram-simplified.svg" xlink:show="new" xlink:title="Examples.BetterDesign.Repository.CarExample.WarehouseEntities.Car-diagram-simplified.svg" xlink:type="simple"><g id="elem_Car"><rect codeLine="22" fill="#FFFF00" height="48" id="Car" rx="2.5" ry="2.5" style="stroke:#181818;stroke-width:0.5;" width="56" x="611.5" y="530.5547"/><ellipse cx="626.5" cy="546.5547" fill="#A9DCDF" rx="11" ry="11" style="stroke:#181818;stroke-width:1.0;"/><path d="M626.3633,541.9028 L625.2095,546.9746 L627.5254,546.9746 Z M624.8691,539.6616 L627.8657,539.6616 L631.2109,552.0547 L628.7622,552.0547 L627.9985,548.9917 L624.7197,548.9917 L623.9727,552.0547 L621.5239,552.0547 Z " fill="#000000"/><text fill="#000000" font-family="sans-serif" font-size="14" font-style="italic" lengthAdjust="spacing" textLength="24" x="640.5" y="551.8457">Car</text><line style="stroke:#181818;stroke-width:0.5;" x1="612.5" x2="666.5" y1="562.5547" y2="562.5547"/><line style="stroke:#181818;stroke-width:0.5;" x1="612.5" x2="666.5" y1="570.5547" y2="570.5547"/></g></a><!--class Customer--><a href="Examples.BetterDesign.Repository.CarExample.WarehouseEntities.Customer-diagram-simplified.svg" target="_top" title="Examples.BetterDesign.Repository.CarExample.WarehouseEntities.Customer-diagram-simplified.svg" xlink:actuate="onRequest" xlink:href="Examples.BetterDesign.Repository.CarExample.WarehouseEntities.Customer-diagram-simplified.svg" xlink:show="new" xlink:title="Examples.BetterDesign.Repository.CarExample.WarehouseEntities.Customer-diagram-simplified.svg" xlink:type="simple"><g id="elem_Customer"><rect codeLine="24" fill="#FFFF00" height="48" id="Customer" rx="2.5" ry="2.5" style="stroke:#181818;stroke-width:0.5;" width="99" x="703" y="530.5547"/><ellipse cx="718" cy="546.5547" fill="#A9DCDF" rx="11" ry="11" style="stroke:#181818;stroke-width:1.0;"/><path d="M717.8633,541.9028 L716.7095,546.9746 L719.0254,546.9746 Z M716.3691,539.6616 L719.3657,539.6616 L722.7109,552.0547 L720.2622,552.0547 L719.4985,548.9917 L716.2197,548.9917 L715.4727,552.0547 L713.0239,552.0547 Z " fill="#000000"/><text fill="#000000" font-family="sans-serif" font-size="14" font-style="italic" lengthAdjust="spacing" textLength="67" x="732" y="551.8457">Customer</text><line style="stroke:#181818;stroke-width:0.5;" x1="704" x2="801" y1="562.5547" y2="562.5547"/><line style="stroke:#181818;stroke-width:0.5;" x1="704" x2="801" y1="570.5547" y2="570.5547"/></g></a><!--class Invoice--><a href="Examples.BetterDesign.Repository.CarExample.WarehouseEntities.Invoice-diagram-simplified.svg" target="_top" title="Examples.BetterDesign.Repository.CarExample.WarehouseEntities.Invoice-diagram-simplified.svg" xlink:actuate="onRequest" xlink:href="Examples.BetterDesign.Repository.CarExample.WarehouseEntities.Invoice-diagram-simplified.svg" xlink:show="new" xlink:title="Examples.BetterDesign.Repository.CarExample.WarehouseEntities.Invoice-diagram-simplified.svg" xlink:type="simple"><g id="elem_Invoice"><rect codeLine="26" fill="#FFFF00" height="48" id="Invoice" rx="2.5" ry="2.5" style="stroke:#181818;stroke-width:0.5;" width="80" x="1080.5" y="530.5547"/><ellipse cx="1095.5" cy="546.5547" fill="#A9DCDF" rx="11" ry="11" style="stroke:#181818;stroke-width:1.0;"/><path d="M1095.3633,541.9028 L1094.2095,546.9746 L1096.5254,546.9746 Z M1093.8691,539.6616 L1096.8657,539.6616 L1100.2109,552.0547 L1097.7622,552.0547 L1096.9985,548.9917 L1093.7197,548.9917 L1092.9727,552.0547 L1090.5239,552.0547 Z " fill="#000000"/><text fill="#000000" font-family="sans-serif" font-size="14" font-style="italic" lengthAdjust="spacing" textLength="48" x="1109.5" y="551.8457">Invoice</text><line style="stroke:#181818;stroke-width:0.5;" x1="1081.5" x2="1159.5" y1="562.5547" y2="562.5547"/><line style="stroke:#181818;stroke-width:0.5;" x1="1081.5" x2="1159.5" y1="570.5547" y2="570.5547"/></g></a><!--class Complaints--><a href="Examples.BetterDesign.Repository.CarExample.WarehouseEntities.Complaints-diagram-simplified.svg" target="_top" title="Examples.BetterDesign.Repository.CarExample.WarehouseEntities.Complaints-diagram-simplified.svg" xlink:actuate="onRequest" xlink:href="Examples.BetterDesign.Repository.CarExample.WarehouseEntities.Complaints-diagram-simplified.svg" xlink:show="new" xlink:title="Examples.BetterDesign.Repository.CarExample.WarehouseEntities.Complaints-diagram-simplified.svg" xlink:type="simple"><g id="elem_Complaints"><rect codeLine="28" fill="#FFFF00" height="48" id="Complaints" rx="2.5" ry="2.5" style="stroke:#181818;stroke-width:0.5;" width="110" x="935.5" y="530.5547"/><ellipse cx="950.5" cy="546.5547" fill="#A9DCDF" rx="11" ry="11" style="stroke:#181818;stroke-width:1.0;"/><path d="M950.3633,541.9028 L949.2095,546.9746 L951.5254,546.9746 Z M948.8691,539.6616 L951.8657,539.6616 L955.2109,552.0547 L952.7622,552.0547 L951.9985,548.9917 L948.7197,548.9917 L947.9727,552.0547 L945.5239,552.0547 Z " fill="#000000"/><text fill="#000000" font-family="sans-serif" font-size="14" font-style="italic" lengthAdjust="spacing" textLength="78" x="964.5" y="551.8457">Complaints</text><line style="stroke:#181818;stroke-width:0.5;" x1="936.5" x2="1044.5" y1="562.5547" y2="562.5547"/><line style="stroke:#181818;stroke-width:0.5;" x1="936.5" x2="1044.5" y1="570.5547" y2="570.5547"/></g></a><!--class User--><a href="Examples.BetterDesign.Repository.CarExample.WarehouseEntities.User-diagram-simplified.svg" target="_top" title="Examples.BetterDesign.Repository.CarExample.WarehouseEntities.User-diagram-simplified.svg" xlink:actuate="onRequest" xlink:href="Examples.BetterDesign.Repository.CarExample.WarehouseEntities.User-diagram-simplified.svg" xlink:show="new" xlink:title="Examples.BetterDesign.Repository.CarExample.WarehouseEntities.User-diagram-simplified.svg" xlink:type="simple"><g id="elem_User"><rect codeLine="30" fill="#FFFF00" height="48" id="User" rx="2.5" ry="2.5" style="stroke:#181818;stroke-width:0.5;" width="63" x="837" y="530.5547"/><ellipse cx="852" cy="546.5547" fill="#A9DCDF" rx="11" ry="11" style="stroke:#181818;stroke-width:1.0;"/><path d="M851.8633,541.9028 L850.7095,546.9746 L853.0254,546.9746 Z M850.3691,539.6616 L853.3657,539.6616 L856.7109,552.0547 L854.2622,552.0547 L853.4985,548.9917 L850.2197,548.9917 L849.4727,552.0547 L847.0239,552.0547 Z " fill="#000000"/><text fill="#000000" font-family="sans-serif" font-size="14" font-style="italic" lengthAdjust="spacing" textLength="31" x="866" y="551.8457">User</text><line style="stroke:#181818;stroke-width:0.5;" x1="838" x2="899" y1="562.5547" y2="562.5547"/><line style="stroke:#181818;stroke-width:0.5;" x1="838" x2="899" y1="570.5547" y2="570.5547"/></g></a><g id="elem_FloatingNote"><path d="M6,114.5547 L6,362.2129 L395,362.2129 L395,124.5547 L385,114.5547 L6,114.5547 " fill="#FEFFDD" style="stroke:#181818;stroke-width:0.5;"/><path d="M385,114.5547 L385,124.5547 L395,124.5547 L385,114.5547 " fill="#FEFFDD" style="stroke:#181818;stroke-width:1.0;"/><text fill="#000000" font-family="sans-serif" font-size="13" lengthAdjust="spacing" textLength="120" x="12" y="132.123">Your are analyzing:</text><text fill="#000000" font-family="sans-serif" font-size="13" lengthAdjust="spacing" textLength="144" x="12" y="147.4336">Examples.BetterDesign</text><text fill="#000000" font-family="sans-serif" font-size="13" font-weight="bold" lengthAdjust="spacing" textLength="67" x="160" y="147.4336">simplified</text><text fill="#000000" font-family="sans-serif" font-size="13" lengthAdjust="spacing" textLength="4" x="227" y="147.4336">&#160;</text><text fill="#000000" font-family="sans-serif" font-size="13" lengthAdjust="spacing" textLength="4" x="12" y="162.7441">&#160;</text><text fill="#000000" font-family="sans-serif" font-size="13" lengthAdjust="spacing" textLength="229" x="12" y="193.3652">You can click either the namespaces</text><text fill="#000000" font-family="sans-serif" font-size="13" lengthAdjust="spacing" textLength="266" x="12" y="208.6758">or class names for filtering them and their</text><text fill="#000000" font-family="sans-serif" font-size="13" lengthAdjust="spacing" textLength="130" x="12" y="223.9863">direct dependencies.</text><text fill="#000000" font-family="sans-serif" font-size="13" lengthAdjust="spacing" textLength="4" x="12" y="239.2969">&#160;</text><line style="stroke:#181818;stroke-width:1.0;" x1="7" x2="184.5" y1="173.1416" y2="173.1416"/><line style="stroke:#181818;stroke-width:1.0;" x1="7" x2="184.5" y1="175.1416" y2="175.1416"/><text fill="#000000" font-family="sans-serif" font-size="13" lengthAdjust="spacing" textLength="32" x="184.5" y="177.5547">Filter</text><line style="stroke:#181818;stroke-width:1.0;" x1="216.5" x2="394" y1="173.1416" y2="173.1416"/><line style="stroke:#181818;stroke-width:1.0;" x1="216.5" x2="394" y1="175.1416" y2="175.1416"/><ellipse cx="17.5" cy="269.1602" fill="#000000" rx="2.5" ry="2.5" style="stroke:#000000;stroke-width:0.0;"/><text fill="#000000" font-family="sans-serif" font-size="13" lengthAdjust="spacing" textLength="144" x="24" y="273.918">Examples.BetterDesign</text><text fill="#000000" font-family="sans-serif" font-size="13" font-weight="bold" lengthAdjust="spacing" textLength="55" x="172" y="273.918">detailed</text><text fill="#000000" font-family="sans-serif" font-size="13" lengthAdjust="spacing" textLength="4" x="231" y="273.918">:</text><text fill="#000000" font-family="sans-serif" font-size="13" lengthAdjust="spacing" textLength="12" x="12" y="289.2285">&#160;&#160;&#160;</text><a href="Examples.BetterDesign-diagram-detailed.svg" target="_top" title="Examples.BetterDesign-diagram-detailed.svg" xlink:actuate="onRequest" xlink:href="Examples.BetterDesign-diagram-detailed.svg" xlink:show="new" xlink:title="Examples.BetterDesign-diagram-detailed.svg" xlink:type="simple"><text fill="#0000FF" font-family="sans-serif" font-size="13" lengthAdjust="spacing" text-decoration="underline" textLength="287" x="24" y="289.2285">Examples.BetterDesign-diagram-detailed.svg</text></a><ellipse cx="17.5" cy="299.7813" fill="#000000" rx="2.5" ry="2.5" style="stroke:#000000;stroke-width:0.0;"/><text fill="#000000" font-family="sans-serif" font-size="13" lengthAdjust="spacing" textLength="78" x="24" y="304.5391">Full diagram</text><text fill="#000000" font-family="sans-serif" font-size="13" font-weight="bold" lengthAdjust="spacing" textLength="67" x="106" y="304.5391">simplified</text><text fill="#000000" font-family="sans-serif" font-size="13" lengthAdjust="spacing" textLength="23" x="177" y="304.5391">and</text><text fill="#000000" font-family="sans-serif" font-size="13" font-weight="bold" lengthAdjust="spacing" textLength="166" x="204" y="304.5391">grouped per namespace</text><text fill="#000000" font-family="sans-serif" font-size="13" lengthAdjust="spacing" textLength="4" x="370" y="304.5391">:</text><text fill="#000000" font-family="sans-serif" font-size="13" lengthAdjust="spacing" textLength="12" x="12" y="319.8496">&#160;&#160;&#160;</text><a href="full-diagram-simplified-grouped-per-namespace.svg" target="_top" title="full-diagram-simplified-grouped-per-namespace.svg" xlink:actuate="onRequest" xlink:href="full-diagram-simplified-grouped-per-namespace.svg" xlink:show="new" xlink:title="full-diagram-simplified-grouped-per-namespace.svg" xlink:type="simple"><text fill="#0000FF" font-family="sans-serif" font-size="13" lengthAdjust="spacing" text-decoration="underline" textLength="343" x="24" y="319.8496">full-diagram-simplified-grouped-per-namespace.svg</text></a><ellipse cx="17.5" cy="330.4023" fill="#000000" rx="2.5" ry="2.5" style="stroke:#000000;stroke-width:0.0;"/><text fill="#000000" font-family="sans-serif" font-size="13" lengthAdjust="spacing" textLength="41" x="24" y="335.1602">Home:</text><text fill="#000000" font-family="sans-serif" font-size="13" lengthAdjust="spacing" textLength="12" x="12" y="350.4707">&#160;&#160;&#160;</text><a href="index.html" target="_top" title="index.html" xlink:actuate="onRequest" xlink:href="index.html" xlink:show="new" xlink:title="index.html" xlink:type="simple"><text fill="#0000FF" font-family="sans-serif" font-size="13" lengthAdjust="spacing" text-decoration="underline" textLength="68" x="24" y="350.4707">index.html</text></a><line style="stroke:#181818;stroke-width:1.0;" x1="7" x2="163.5" y1="253.6943" y2="253.6943"/><line style="stroke:#181818;stroke-width:1.0;" x1="7" x2="163.5" y1="255.6943" y2="255.6943"/><text fill="#000000" font-family="sans-serif" font-size="13" lengthAdjust="spacing" textLength="74" x="163.5" y="258.1074">Select other</text><line style="stroke:#181818;stroke-width:1.0;" x1="237.5" x2="394" y1="253.6943" y2="253.6943"/><line style="stroke:#181818;stroke-width:1.0;" x1="237.5" x2="394" y1="255.6943" y2="255.6943"/></g><!--link Service to Car--><g id="link_Service_Car"><path codeLine="37" d="M531.94,454.5547 C575.76,454.5547 639.5,454.5547 639.5,454.5547 C639.5,454.5547 639.5,524.0947 639.5,524.0947 " fill="none" id="Service-to-Car" style="stroke:#6060BB;stroke-width:1.0;stroke-dasharray:7.0,7.0;"/><polygon fill="#6060BB" points="639.5,529.0947,643.5,520.0947,639.5,524.0947,635.5,520.0947,639.5,529.0947" style="stroke:#6060BB;stroke-width:1.0;"/><text fill="#000000" font-family="sans-serif" font-size="13" lengthAdjust="spacing" textLength="29" x="590.49" y="451.123">uses</text></g><!--link Service to Car--><g id="link_Service_Car"><path codeLine="38" d="M491.5,471.0247 C491.5,485.3147 491.5,500.5547 491.5,500.5547 C491.5,500.5547 1282,500.5547 1282,500.5547 C1282,500.5547 1282,524.0847 1282,524.0847 " fill="none" id="Service-to-Car-1" style="stroke:#6060BB;stroke-width:1.0;stroke-dasharray:7.0,7.0;"/><polygon fill="#6060BB" points="1282,529.0847,1286,520.0847,1282,524.0847,1278,520.0847,1282,529.0847" style="stroke:#6060BB;stroke-width:1.0;"/><text fill="#000000" font-family="sans-serif" font-size="13" lengthAdjust="spacing" textLength="29" x="853.75" y="497.123">uses</text></g><!--reverse link Vehicle to Car--><g id="link_Vehicle_Car"><path codeLine="41" d="M1313.17,283.8247 C1313.17,283.8247 1313.17,530.2047 1313.17,530.2047 " fill="none" id="Vehicle-backto-Car" style="stroke:#FF0000;stroke-width:1.0;"/><polygon fill="none" points="1306.17,283.8247,1313.17,263.8247,1320.17,283.8247,1306.17,283.8247" style="stroke:#FF0000;stroke-width:1.0;"/></g><!--reverse link Car to Wheels--><g id="link_Car_Wheels"><path codeLine="42" d="M1339.92,562.5547 C1339.92,562.5547 1344.5,562.5547 1344.5,562.5547 C1344.5,562.5547 1344.5,619.4047 1344.5,653.1647 " fill="none" id="Car-backto-Wheels" style="stroke:#10BB10;stroke-width:1.0;"/><polygon fill="#10BB10" points="1326.92,562.5547,1332.92,566.5547,1338.92,562.5547,1332.92,558.5547,1326.92,562.5547" style="stroke:#10BB10;stroke-width:1.0;"/></g><!--reverse link Car to Seats--><g id="link_Car_Seats"><path codeLine="43" d="M1255.2,554.5547 C1255.2,554.5547 1183,554.5547 1183,554.5547 C1183,554.5547 1183,617.4047 1183,653.2547 " fill="none" id="Car-backto-Seats" style="stroke:#10BB10;stroke-width:1.0;"/><polygon fill="#10BB10" points="1268.2,554.5547,1262.2,550.5547,1256.2,554.5547,1262.2,558.5547,1268.2,554.5547" style="stroke:#10BB10;stroke-width:1.0;"/></g><!--reverse link Car to Driver--><g id="link_Car_Driver"><path codeLine="44" d="M1339.8,546.5547 C1339.8,546.5547 1486.5,546.5547 1486.5,546.5547 C1486.5,546.5547 1486.5,615.3347 1486.5,653.2247 " fill="none" id="Car-backto-Driver" style="stroke:#10BB10;stroke-width:1.0;"/><polygon fill="#10BB10" points="1326.8,546.5547,1332.8,550.5547,1338.8,546.5547,1332.8,542.5547,1326.8,546.5547" style="stroke:#10BB10;stroke-width:1.0;"/></g><!--reverse link Car to Doors--><g id="link_Car_Doors"><path codeLine="45" d="M1289.17,592.8547 C1289.17,592.8547 1289.17,653.3047 1289.17,653.3047 " fill="none" id="Car-backto-Doors" style="stroke:#10BB10;stroke-width:1.0;"/><polygon fill="#10BB10" points="1289.17,579.8547,1285.17,585.8547,1289.17,591.8547,1293.17,585.8547,1289.17,579.8547" style="stroke:#10BB10;stroke-width:1.0;"/></g><!--link Car to Doors--><g id="link_Car_Doors"><path codeLine="46" d="M1279.33,578.8547 C1279.33,578.8547 1279.33,647.3047 1279.33,647.3047 " fill="none" id="Car-to-Doors" style="stroke:#6060BB;stroke-width:1.0;stroke-dasharray:7.0,7.0;"/><polygon fill="#6060BB" points="1279.33,652.3047,1283.33,643.3047,1279.33,647.3047,1275.33,643.3047,1279.33,652.3047" style="stroke:#6060BB;stroke-width:1.0;"/><text fill="#000000" font-family="sans-serif" font-size="13" lengthAdjust="spacing" textLength="29" x="1249.33" y="609.653">uses</text></g><!--link DBCar to Driver--><g id="link_DBCar_Driver"><path codeLine="47" d="M1423.83,470.8447 C1423.83,528.6447 1423.83,669.5547 1423.83,669.5547 C1423.83,669.5547 1443.68,669.5547 1443.68,669.5547 " fill="none" id="DBCar-to-Driver" style="stroke:#6060BB;stroke-width:1.0;stroke-dasharray:7.0,7.0;"/><polygon fill="#6060BB" points="1448.68,669.5547,1439.68,665.5547,1443.68,669.5547,1439.68,673.5547,1448.68,669.5547" style="stroke:#6060BB;stroke-width:1.0;"/><text fill="#000000" font-family="sans-serif" font-size="13" lengthAdjust="spacing" textLength="29" x="1393.83" y="576.693">uses</text></g><!--reverse link Driver to DBCar--><g id="link_Driver_DBCar"><path codeLine="60" d="M1435.68,685.5547 C1435.68,685.5547 1419.17,685.5547 1419.17,685.5547 C1419.17,685.5547 1419.17,531.5447 1419.17,470.7847 " fill="none" id="Driver-backto-DBCar" style="stroke:#10BB10;stroke-width:1.0;"/><polygon fill="#10BB10" points="1448.68,685.5547,1442.68,681.5547,1436.68,685.5547,1442.68,689.5547,1448.68,685.5547" style="stroke:#10BB10;stroke-width:1.0;"/></g><!--link DBCar to Car--><g id="link_DBCar_Car"><path codeLine="48" d="M1354.15,464.5547 C1336.54,464.5547 1319.33,464.5547 1319.33,464.5547 C1319.33,464.5547 1319.33,524.4347 1319.33,524.4347 " fill="none" id="DBCar-to-Car" style="stroke:#6060BB;stroke-width:1.0;stroke-dasharray:7.0,7.0;"/><polygon fill="#6060BB" points="1319.33,529.4347,1323.33,520.4347,1319.33,524.4347,1315.33,520.4347,1319.33,529.4347" style="stroke:#6060BB;stroke-width:1.0;"/><text fill="#000000" font-family="sans-serif" font-size="13" lengthAdjust="spacing" textLength="29" x="1289.33" y="473.653">uses</text></g><!--link DBCar to Seats--><g id="link_DBCar_Seats"><path codeLine="49" d="M1354.09,429.5547 C1290.47,429.5547 1168,429.5547 1168,429.5547 C1168,429.5547 1168,647.3247 1168,647.3247 " fill="none" id="DBCar-to-Seats" style="stroke:#6060BB;stroke-width:1.0;stroke-dasharray:7.0,7.0;"/><polygon fill="#6060BB" points="1168,652.3247,1172,643.3247,1168,647.3247,1164,643.3247,1168,652.3247" style="stroke:#6060BB;stroke-width:1.0;"/><text fill="#000000" font-family="sans-serif" font-size="13" lengthAdjust="spacing" textLength="29" x="1138" y="441.963">uses</text></g><!--reverse link Seats to DBCar--><g id="link_Seats_DBCar"><path codeLine="61" d="M1175.5,639.1247 C1175.5,639.1247 1175.5,436.5547 1175.5,436.5547 C1175.5,436.5547 1292.61,436.5547 1354.37,436.5547 " fill="none" id="Seats-backto-DBCar" style="stroke:#10BB10;stroke-width:1.0;"/><polygon fill="#10BB10" points="1175.5,652.1247,1179.5,646.1247,1175.5,640.1247,1171.5,646.1247,1175.5,652.1247" style="stroke:#10BB10;stroke-width:1.0;"/></g><!--link DBCar to Doors--><g id="link_DBCar_Doors"><path codeLine="50" d="M1354.17,450.5547 C1309.46,450.5547 1240.5,450.5547 1240.5,450.5547 C1240.5,450.5547 1240.5,647.2647 1240.5,647.2647 " fill="none" id="DBCar-to-Doors" style="stroke:#6060BB;stroke-width:1.0;stroke-dasharray:7.0,7.0;"/><polygon fill="#6060BB" points="1240.5,652.2647,1244.5,643.2647,1240.5,647.2647,1236.5,643.2647,1240.5,652.2647" style="stroke:#6060BB;stroke-width:1.0;"/><text fill="#000000" font-family="sans-serif" font-size="13" lengthAdjust="spacing" textLength="29" x="1210.5" y="488.643">uses</text></g><!--reverse link Doors to DBCar--><g id="link_Doors_DBCar"><path codeLine="62" d="M1255,639.1747 C1255,639.1747 1255,457.5547 1255,457.5547 C1255,457.5547 1313.79,457.5547 1354.2,457.5547 " fill="none" id="Doors-backto-DBCar" style="stroke:#10BB10;stroke-width:1.0;"/><polygon fill="#10BB10" points="1255,652.1747,1259,646.1747,1255,640.1747,1251,646.1747,1255,652.1747" style="stroke:#10BB10;stroke-width:1.0;"/></g><!--link DBCar to Wheels--><g id="link_DBCar_Wheels"><path codeLine="51" d="M1394.5,470.8347 C1394.5,470.8347 1394.5,647.2447 1394.5,647.2447 " fill="none" id="DBCar-to-Wheels" style="stroke:#6060BB;stroke-width:1.0;stroke-dasharray:7.0,7.0;"/><polygon fill="#6060BB" points="1394.5,652.2447,1398.5,643.2447,1394.5,647.2447,1390.5,643.2447,1394.5,652.2447" style="stroke:#6060BB;stroke-width:1.0;"/><text fill="#000000" font-family="sans-serif" font-size="13" lengthAdjust="spacing" textLength="29" x="1364.5" y="555.613">uses</text></g><!--reverse link Wheels to DBCar--><g id="link_Wheels_DBCar"><path codeLine="63" d="M1374.5,639.2747 C1374.5,639.2747 1374.5,470.8647 1374.5,470.8647 " fill="none" id="Wheels-backto-DBCar" style="stroke:#10BB10;stroke-width:1.0;"/><polygon fill="#10BB10" points="1374.5,652.2747,1378.5,646.2747,1374.5,640.2747,1370.5,646.2747,1374.5,652.2747" style="stroke:#10BB10;stroke-width:1.0;"/></g><!--link DBWarehouse to Customer--><g id="link_DBWarehouse_Customer"><path codeLine="52" d="M927.03,438.5547 C856.53,438.5547 752.5,438.5547 752.5,438.5547 C752.5,438.5547 752.5,524.2347 752.5,524.2347 " fill="none" id="DBWarehouse-to-Customer" style="stroke:#6060BB;stroke-width:1.0;stroke-dasharray:7.0,7.0;"/><polygon fill="#6060BB" points="752.5,529.2347,756.5,520.2347,752.5,524.2347,748.5,520.2347,752.5,529.2347" style="stroke:#6060BB;stroke-width:1.0;"/><text fill="#000000" font-family="sans-serif" font-size="13" lengthAdjust="spacing" textLength="29" x="766.93" y="435.123">uses</text></g><!--link DBWarehouse to Invoice--><g id="link_DBWarehouse_Invoice"><path codeLine="53" d="M1049.5,470.7947 C1049.5,502.6347 1049.5,554.5547 1049.5,554.5547 C1049.5,554.5547 1074.02,554.5547 1074.02,554.5547 " fill="none" id="DBWarehouse-to-Invoice" style="stroke:#6060BB;stroke-width:1.0;stroke-dasharray:7.0,7.0;"/><polygon fill="#6060BB" points="1079.02,554.5547,1070.02,550.5547,1074.02,554.5547,1070.02,558.5547,1079.02,554.5547" style="stroke:#6060BB;stroke-width:1.0;"/><text fill="#000000" font-family="sans-serif" font-size="13" lengthAdjust="spacing" textLength="29" x="1019.5" y="521.503">uses</text></g><!--link DBWarehouse to Car--><g id="link_DBWarehouse_Car"><path codeLine="54" d="M1053.86,443.5547 C1142.95,443.5547 1294.5,443.5547 1294.5,443.5547 C1294.5,443.5547 1294.5,524.1947 1294.5,524.1947 " fill="none" id="DBWarehouse-to-Car" style="stroke:#6060BB;stroke-width:1.0;stroke-dasharray:7.0,7.0;"/><polygon fill="#6060BB" points="1294.5,529.1947,1298.5,520.1947,1294.5,524.1947,1290.5,520.1947,1294.5,529.1947" style="stroke:#6060BB;stroke-width:1.0;"/><text fill="#000000" font-family="sans-serif" font-size="13" lengthAdjust="spacing" textLength="29" x="1184.5" y="440.123">uses</text></g><!--link DBWarehouse to Complaints--><g id="link_DBWarehouse_Complaints"><path codeLine="55" d="M990.5,470.7947 C990.5,470.7947 990.5,524.3947 990.5,524.3947 " fill="none" id="DBWarehouse-to-Complaints" style="stroke:#6060BB;stroke-width:1.0;stroke-dasharray:7.0,7.0;"/><polygon fill="#6060BB" points="990.5,529.3947,994.5,520.3947,990.5,524.3947,986.5,520.3947,990.5,529.3947" style="stroke:#6060BB;stroke-width:1.0;"/><text fill="#000000" font-family="sans-serif" font-size="13" lengthAdjust="spacing" textLength="29" x="960.5" y="494.163">uses</text></g><!--link DBWarehouse to User--><g id="link_DBWarehouse_User"><path codeLine="56" d="M931.5,470.7947 C931.5,502.6347 931.5,554.5547 931.5,554.5547 C931.5,554.5547 906.37,554.5547 906.37,554.5547 " fill="none" id="DBWarehouse-to-User" style="stroke:#6060BB;stroke-width:1.0;stroke-dasharray:7.0,7.0;"/><polygon fill="#6060BB" points="901.37,554.5547,910.37,558.5547,906.37,554.5547,910.37,550.5547,901.37,554.5547" style="stroke:#6060BB;stroke-width:1.0;"/><text fill="#000000" font-family="sans-serif" font-size="13" lengthAdjust="spacing" textLength="29" x="901.5" y="538.803">uses</text></g><!--reverse link Vehicle to DBCar--><g id="link_Vehicle_DBCar"><path codeLine="57" d="M1371.25,276.8247 C1371.25,276.8247 1371.25,422.1247 1371.25,422.1247 " fill="none" id="Vehicle-backto-DBCar" style="stroke:#10BB10;stroke-width:1.0;"/><polygon fill="#10BB10" points="1371.25,263.8247,1367.25,269.8247,1371.25,275.8247,1375.25,269.8247,1371.25,263.8247" style="stroke:#10BB10;stroke-width:1.0;"/></g><!--SRC=[pLTDRzf04BtxLuoIGoHBTaaFEQ2G0o5HUwcgHcqK0OUjFS0gwrrhTw4XRVzxnr-Gj42nCR4jWOntPjwRySximpno6JFD8X1Sebt624hRcN8ijmBXql1dxBxlNDqyiIWMQFm-MejwW8PF9RYkuVIOJpY6hWkNxnBpAqSgYt3oeEOQc4PWaedbCvVJxaZk5MSaHxBNk-M2B7gzaQH84309WU318o2tCzH0No1PX2Pc0HhoKPeCc37PKvZGxqaQWf0JwuY8XCaDroCPSes1XH1Zb27AW1Eb3FOEHRAY4f04t8Ljd4EqZ8kKCMK60CFXHbClv6nA9VOA1zyifkDn4lfsBWJaotzN8M7hkbEjvZ6645FAgtHTjm2SK81L_BMxbxjvvEQjtDQu7rI4HGXE1NZoPpOIu_49C0EtGZ5BHVj4hz41OD-DrOnAabLtOuh-7Ue53t1R2Ohr3LGpKd2wH27K3_X9YB_farnx8N_1M1bkbLxwrqpdDidjLYvRFVPZbrmrC1pqotDCVTwOvJsry4pD3PRckl9yKyRVSCO3KPPjxbMUwQ6xz3FJrlW3pHTOOSU-zDwVUztixv1PKvLywjmSzu5IkZBtrBavxlSpH56PVERzvknNK-56aiP8pjtoSt1ZZ3PaCZUMJjOQqia3jI2dZtAXTfti9UEquIqfMc1SbfvPkqAr8A-lfeQTbmGfcSiPoTIzBZYQxHbSfmNKA4YwAca0dzB2adAUQ1MjfNENR3TMoDajRFtXwKNdejFlZ_sh6kOTT84U6JWMwYkC6ggp6SQf8imkVtd3KutXs2kRaLEs0YuXdLFrpZlbmLuTiGqWPwAg0U1SYpQ1d6gnqi27DCbBuF_qvAw_SJLGoAhU48TcSy-sUhFbRtu7vAEc8eVrt_GwJwf2pxQ9L258c-DqGCCSvpMj1MsRQALwj1AXGYfKFbAodZoUy5brhNF8i3yqlGE6RIFGsP1j13eVhktTKF-qpny0]--></g></svg>