<?xml version="1.0" encoding="us-ascii" standalone="no"?><svg xmlns="http://www.w3.org/2000/svg" xmlns:xlink="http://www.w3.org/1999/xlink" contentStyleType="text/css" height="522px" preserveAspectRatio="none" style="width:1429px;height:522px;background:#FFFFFF;" version="1.1" viewBox="0 0 1429 522" width="1429px" zoomAndPan="magnify"><defs/><g><text fill="#000000" font-family="sans-serif" font-size="20" font-weight="bold" lengthAdjust="spacing" textLength="536" x="233.75" y="29.3359">Examples.BadDesign.CarExample.WarehouseEntities</text><text fill="#000000" font-family="sans-serif" font-size="20" font-weight="bold" lengthAdjust="spacing" textLength="104" x="776.75" y="29.3359">simplified</text><text fill="#000000" font-family="sans-serif" font-size="20" font-weight="bold" lengthAdjust="spacing" textLength="38" x="887.75" y="29.3359">and</text><text fill="#000000" font-family="sans-serif" font-size="20" font-weight="bold" lengthAdjust="spacing" textLength="249" x="932.75" y="29.3359">grouped per namespace</text><!--cluster Examples--><g id="cluster_Examples"><a href="Examples-diagram-simplified-grouped-per-namespace.svg" target="_top" title="Examples-diagram-simplified-grouped-per-namespace.svg" xlink:actuate="onRequest" xlink:href="Examples-diagram-simplified-grouped-per-namespace.svg" xlink:show="new" xlink:title="Examples-diagram-simplified-grouped-per-namespace.svg" xlink:type="simple"><path d="M700,50.5547 L769,50.5547 A3.75,3.75 0 0 1 771.5,53.0547 L778.5,73.043 L1420,73.043 A2.5,2.5 0 0 1 1422.5,75.543 L1422.5,513.0547 A2.5,2.5 0 0 1 1420,515.5547 L700,515.5547 A2.5,2.5 0 0 1 697.5,513.0547 L697.5,53.0547 A2.5,2.5 0 0 1 700,50.5547 " fill="none" style="stroke:#000000;stroke-width:1.5;"/><line style="stroke:#000000;stroke-width:1.5;" x1="697.5" x2="778.5" y1="73.043" y2="73.043"/><text fill="#000000" font-family="sans-serif" font-size="14" font-weight="bold" lengthAdjust="spacing" textLength="68" x="701.5" y="66.0898">Examples</text></a></g><!--cluster BadDesign--><g id="cluster_BadDesign"><a href="Examples.BadDesign-diagram-simplified-grouped-per-namespace.svg" target="_top" title="Examples.BadDesign-diagram-simplified-grouped-per-namespace.svg" xlink:actuate="onRequest" xlink:href="Examples.BadDesign-diagram-simplified-grouped-per-namespace.svg" xlink:show="new" xlink:title="Examples.BadDesign-diagram-simplified-grouped-per-namespace.svg" xlink:type="simple"><path d="M724,93.5547 L801,93.5547 A3.75,3.75 0 0 1 803.5,96.0547 L810.5,116.043 L1396,116.043 A2.5,2.5 0 0 1 1398.5,118.543 L1398.5,489.0547 A2.5,2.5 0 0 1 1396,491.5547 L724,491.5547 A2.5,2.5 0 0 1 721.5,489.0547 L721.5,96.0547 A2.5,2.5 0 0 1 724,93.5547 " fill="none" style="stroke:#000000;stroke-width:1.5;"/><line style="stroke:#000000;stroke-width:1.5;" x1="721.5" x2="810.5" y1="116.043" y2="116.043"/><text fill="#000000" font-family="sans-serif" font-size="14" font-weight="bold" lengthAdjust="spacing" textLength="76" x="725.5" y="109.0898">BadDesign</text></a></g><!--cluster CarExample--><g id="cluster_CarExample"><a href="Examples.BadDesign.CarExample-diagram-simplified-grouped-per-namespace.svg" target="_top" title="Examples.BadDesign.CarExample-diagram-simplified-grouped-per-namespace.svg" xlink:actuate="onRequest" xlink:href="Examples.BadDesign.CarExample-diagram-simplified-grouped-per-namespace.svg" xlink:show="new" xlink:title="Examples.BadDesign.CarExample-diagram-simplified-grouped-per-namespace.svg" xlink:type="simple"><path d="M748,136.5547 L833,136.5547 A3.75,3.75 0 0 1 835.5,139.0547 L842.5,159.043 L1372,159.043 A2.5,2.5 0 0 1 1374.5,161.543 L1374.5,465.0547 A2.5,2.5 0 0 1 1372,467.5547 L748,467.5547 A2.5,2.5 0 0 1 745.5,465.0547 L745.5,139.0547 A2.5,2.5 0 0 1 748,136.5547 " fill="none" style="stroke:#000000;stroke-width:1.5;"/><line style="stroke:#000000;stroke-width:1.5;" x1="745.5" x2="842.5" y1="159.043" y2="159.043"/><text fill="#000000" font-family="sans-serif" font-size="14" font-weight="bold" lengthAdjust="spacing" textLength="84" x="749.5" y="152.0898">CarExample</text></a></g><!--cluster WarehouseEntities--><g id="cluster_WarehouseEntities"><a href="Examples.BadDesign.CarExample.WarehouseEntities-diagram-simplified-grouped-per-namespace.svg" target="_top" title="Examples.BadDesign.CarExample.WarehouseEntities-diagram-simplified-grouped-per-namespace.svg" xlink:actuate="onRequest" xlink:href="Examples.BadDesign.CarExample.WarehouseEntities-diagram-simplified-grouped-per-namespace.svg" xlink:show="new" xlink:title="Examples.BadDesign.CarExample.WarehouseEntities-diagram-simplified-grouped-per-namespace.svg" xlink:type="simple"><path d="M772,344.5547 L906,344.5547 A3.75,3.75 0 0 1 908.5,347.0547 L915.5,367.043 L1348,367.043 A2.5,2.5 0 0 1 1350.5,369.543 L1350.5,441.0547 A2.5,2.5 0 0 1 1348,443.5547 L772,443.5547 A2.5,2.5 0 0 1 769.5,441.0547 L769.5,347.0547 A2.5,2.5 0 0 1 772,344.5547 " fill="none" style="stroke:#000000;stroke-width:1.5;"/><line style="stroke:#000000;stroke-width:1.5;" x1="769.5" x2="915.5" y1="367.043" y2="367.043"/><text fill="#000000" font-family="sans-serif" font-size="14" font-weight="bold" lengthAdjust="spacing" textLength="133" x="773.5" y="360.0898">WarehouseEntities</text></a></g><!--class DB--><a href="Examples.BadDesign.CarExample.DB-diagram-simplified-grouped-per-namespace.svg" target="_top" title="Examples.BadDesign.CarExample.DB-diagram-simplified-grouped-per-namespace.svg" xlink:actuate="onRequest" xlink:href="Examples.BadDesign.CarExample.DB-diagram-simplified-grouped-per-namespace.svg" xlink:show="new" xlink:title="Examples.BadDesign.CarExample.DB-diagram-simplified-grouped-per-namespace.svg" xlink:type="simple"><g id="elem_DB"><rect codeLine="7" fill="#F1F1F1" height="48" id="DB" rx="2.5" ry="2.5" style="stroke:#181818;stroke-width:0.5;" width="50" x="1021.5" y="171.5547"/><ellipse cx="1036.5" cy="187.5547" fill="#A9DCDF" rx="11" ry="11" style="stroke:#181818;stroke-width:1.0;"/><path d="M1036.3633,182.9028 L1035.2095,187.9746 L1037.5254,187.9746 Z M1034.8691,180.6616 L1037.8657,180.6616 L1041.2109,193.0547 L1038.7622,193.0547 L1037.9985,189.9917 L1034.7197,189.9917 L1033.9727,193.0547 L1031.5239,193.0547 Z " fill="#000000"/><text fill="#000000" font-family="sans-serif" font-size="14" font-style="italic" lengthAdjust="spacing" textLength="18" x="1050.5" y="192.8457">DB</text><line style="stroke:#181818;stroke-width:0.5;" x1="1022.5" x2="1070.5" y1="203.5547" y2="203.5547"/><line style="stroke:#181818;stroke-width:0.5;" x1="1022.5" x2="1070.5" y1="211.5547" y2="211.5547"/></g></a><!--class User--><a href="Examples.BadDesign.CarExample.WarehouseEntities.User-diagram-simplified-grouped-per-namespace.svg" target="_top" title="Examples.BadDesign.CarExample.WarehouseEntities.User-diagram-simplified-grouped-per-namespace.svg" xlink:actuate="onRequest" xlink:href="Examples.BadDesign.CarExample.WarehouseEntities.User-diagram-simplified-grouped-per-namespace.svg" xlink:show="new" xlink:title="Examples.BadDesign.CarExample.WarehouseEntities.User-diagram-simplified-grouped-per-namespace.svg" xlink:type="simple"><g id="elem_User"><rect codeLine="21" fill="#FFFF00" height="48" id="User" rx="2.5" ry="2.5" style="stroke:#181818;stroke-width:0.5;" width="63" x="1271" y="379.5547"/><ellipse cx="1286" cy="395.5547" fill="#A9DCDF" rx="11" ry="11" style="stroke:#181818;stroke-width:1.0;"/><path d="M1285.8633,390.9028 L1284.7095,395.9746 L1287.0254,395.9746 Z M1284.3691,388.6616 L1287.3657,388.6616 L1290.7109,401.0547 L1288.2622,401.0547 L1287.4985,397.9917 L1284.2197,397.9917 L1283.4727,401.0547 L1281.0239,401.0547 Z " fill="#000000"/><text fill="#000000" font-family="sans-serif" font-size="14" font-style="italic" lengthAdjust="spacing" textLength="31" x="1300" y="400.8457">User</text><line style="stroke:#181818;stroke-width:0.5;" x1="1272" x2="1333" y1="411.5547" y2="411.5547"/><line style="stroke:#181818;stroke-width:0.5;" x1="1272" x2="1333" y1="419.5547" y2="419.5547"/></g></a><!--class Customer--><a href="Examples.BadDesign.CarExample.WarehouseEntities.Customer-diagram-simplified-grouped-per-namespace.svg" target="_top" title="Examples.BadDesign.CarExample.WarehouseEntities.Customer-diagram-simplified-grouped-per-namespace.svg" xlink:actuate="onRequest" xlink:href="Examples.BadDesign.CarExample.WarehouseEntities.Customer-diagram-simplified-grouped-per-namespace.svg" xlink:show="new" xlink:title="Examples.BadDesign.CarExample.WarehouseEntities.Customer-diagram-simplified-grouped-per-namespace.svg" xlink:type="simple"><g id="elem_Customer"><rect codeLine="23" fill="#FFFF00" height="48" id="Customer" rx="2.5" ry="2.5" style="stroke:#181818;stroke-width:0.5;" width="99" x="1137" y="379.5547"/><ellipse cx="1152" cy="395.5547" fill="#A9DCDF" rx="11" ry="11" style="stroke:#181818;stroke-width:1.0;"/><path d="M1151.8633,390.9028 L1150.7095,395.9746 L1153.0254,395.9746 Z M1150.3691,388.6616 L1153.3657,388.6616 L1156.7109,401.0547 L1154.2622,401.0547 L1153.4985,397.9917 L1150.2197,397.9917 L1149.4727,401.0547 L1147.0239,401.0547 Z " fill="#000000"/><text fill="#000000" font-family="sans-serif" font-size="14" font-style="italic" lengthAdjust="spacing" textLength="67" x="1166" y="400.8457">Customer</text><line style="stroke:#181818;stroke-width:0.5;" x1="1138" x2="1235" y1="411.5547" y2="411.5547"/><line style="stroke:#181818;stroke-width:0.5;" x1="1138" x2="1235" y1="419.5547" y2="419.5547"/></g></a><!--class Complaints--><a href="Examples.BadDesign.CarExample.WarehouseEntities.Complaints-diagram-simplified-grouped-per-namespace.svg" target="_top" title="Examples.BadDesign.CarExample.WarehouseEntities.Complaints-diagram-simplified-grouped-per-namespace.svg" xlink:actuate="onRequest" xlink:href="Examples.BadDesign.CarExample.WarehouseEntities.Complaints-diagram-simplified-grouped-per-namespace.svg" xlink:show="new" xlink:title="Examples.BadDesign.CarExample.WarehouseEntities.Complaints-diagram-simplified-grouped-per-namespace.svg" xlink:type="simple"><g id="elem_Complaints"><rect codeLine="25" fill="#FFFF00" height="48" id="Complaints" rx="2.5" ry="2.5" style="stroke:#181818;stroke-width:0.5;" width="110" x="991.5" y="379.5547"/><ellipse cx="1006.5" cy="395.5547" fill="#A9DCDF" rx="11" ry="11" style="stroke:#181818;stroke-width:1.0;"/><path d="M1006.3633,390.9028 L1005.2095,395.9746 L1007.5254,395.9746 Z M1004.8691,388.6616 L1007.8657,388.6616 L1011.2109,401.0547 L1008.7622,401.0547 L1007.9985,397.9917 L1004.7197,397.9917 L1003.9727,401.0547 L1001.5239,401.0547 Z " fill="#000000"/><text fill="#000000" font-family="sans-serif" font-size="14" font-style="italic" lengthAdjust="spacing" textLength="78" x="1020.5" y="400.8457">Complaints</text><line style="stroke:#181818;stroke-width:0.5;" x1="992.5" x2="1100.5" y1="411.5547" y2="411.5547"/><line style="stroke:#181818;stroke-width:0.5;" x1="992.5" x2="1100.5" y1="419.5547" y2="419.5547"/></g></a><!--class Invoice--><a href="Examples.BadDesign.CarExample.WarehouseEntities.Invoice-diagram-simplified-grouped-per-namespace.svg" target="_top" title="Examples.BadDesign.CarExample.WarehouseEntities.Invoice-diagram-simplified-grouped-per-namespace.svg" xlink:actuate="onRequest" xlink:href="Examples.BadDesign.CarExample.WarehouseEntities.Invoice-diagram-simplified-grouped-per-namespace.svg" xlink:show="new" xlink:title="Examples.BadDesign.CarExample.WarehouseEntities.Invoice-diagram-simplified-grouped-per-namespace.svg" xlink:type="simple"><g id="elem_Invoice"><rect codeLine="27" fill="#FFFF00" height="48" id="Invoice" rx="2.5" ry="2.5" style="stroke:#181818;stroke-width:0.5;" width="80" x="876.5" y="379.5547"/><ellipse cx="891.5" cy="395.5547" fill="#A9DCDF" rx="11" ry="11" style="stroke:#181818;stroke-width:1.0;"/><path d="M891.3633,390.9028 L890.2095,395.9746 L892.5254,395.9746 Z M889.8691,388.6616 L892.8657,388.6616 L896.2109,401.0547 L893.7622,401.0547 L892.9985,397.9917 L889.7197,397.9917 L888.9727,401.0547 L886.5239,401.0547 Z " fill="#000000"/><text fill="#000000" font-family="sans-serif" font-size="14" font-style="italic" lengthAdjust="spacing" textLength="48" x="905.5" y="400.8457">Invoice</text><line style="stroke:#181818;stroke-width:0.5;" x1="877.5" x2="955.5" y1="411.5547" y2="411.5547"/><line style="stroke:#181818;stroke-width:0.5;" x1="877.5" x2="955.5" y1="419.5547" y2="419.5547"/></g></a><!--class Car--><a href="Examples.BadDesign.CarExample.WarehouseEntities.Car-diagram-simplified-grouped-per-namespace.svg" target="_top" title="Examples.BadDesign.CarExample.WarehouseEntities.Car-diagram-simplified-grouped-per-namespace.svg" xlink:actuate="onRequest" xlink:href="Examples.BadDesign.CarExample.WarehouseEntities.Car-diagram-simplified-grouped-per-namespace.svg" xlink:show="new" xlink:title="Examples.BadDesign.CarExample.WarehouseEntities.Car-diagram-simplified-grouped-per-namespace.svg" xlink:type="simple"><g id="elem_Car"><rect codeLine="29" fill="#FFFF00" height="48" id="Car" rx="2.5" ry="2.5" style="stroke:#181818;stroke-width:0.5;" width="56" x="785.5" y="379.5547"/><ellipse cx="800.5" cy="395.5547" fill="#A9DCDF" rx="11" ry="11" style="stroke:#181818;stroke-width:1.0;"/><path d="M800.3633,390.9028 L799.2095,395.9746 L801.5254,395.9746 Z M798.8691,388.6616 L801.8657,388.6616 L805.2109,401.0547 L802.7622,401.0547 L801.9985,397.9917 L798.7197,397.9917 L797.9727,401.0547 L795.5239,401.0547 Z " fill="#000000"/><text fill="#000000" font-family="sans-serif" font-size="14" font-style="italic" lengthAdjust="spacing" textLength="24" x="814.5" y="400.8457">Car</text><line style="stroke:#181818;stroke-width:0.5;" x1="786.5" x2="840.5" y1="411.5547" y2="411.5547"/><line style="stroke:#181818;stroke-width:0.5;" x1="786.5" x2="840.5" y1="419.5547" y2="419.5547"/></g></a><g id="elem_FloatingNote"><path d="M6,71.5547 L6,319.2129 L681,319.2129 L681,81.5547 L671,71.5547 L6,71.5547 " fill="#FEFFDD" style="stroke:#181818;stroke-width:0.5;"/><path d="M671,71.5547 L671,81.5547 L681,81.5547 L671,71.5547 " fill="#FEFFDD" style="stroke:#181818;stroke-width:1.0;"/><text fill="#000000" font-family="sans-serif" font-size="13" lengthAdjust="spacing" textLength="120" x="12" y="89.123">Your are analyzing:</text><text fill="#000000" font-family="sans-serif" font-size="13" lengthAdjust="spacing" textLength="327" x="12" y="104.4336">Examples.BadDesign.CarExample.WarehouseEntities</text><text fill="#000000" font-family="sans-serif" font-size="13" font-weight="bold" lengthAdjust="spacing" textLength="67" x="343" y="104.4336">simplified</text><text fill="#000000" font-family="sans-serif" font-size="13" lengthAdjust="spacing" textLength="23" x="414" y="104.4336">and</text><text fill="#000000" font-family="sans-serif" font-size="13" font-weight="bold" lengthAdjust="spacing" textLength="166" x="441" y="104.4336">grouped per namespace</text><text fill="#000000" font-family="sans-serif" font-size="13" lengthAdjust="spacing" textLength="4" x="12" y="119.7441">&#160;</text><text fill="#000000" font-family="sans-serif" font-size="13" lengthAdjust="spacing" textLength="229" x="12" y="150.3652">You can click either the namespaces</text><text fill="#000000" font-family="sans-serif" font-size="13" lengthAdjust="spacing" textLength="266" x="12" y="165.6758">or class names for filtering them and their</text><text fill="#000000" font-family="sans-serif" font-size="13" lengthAdjust="spacing" textLength="130" x="12" y="180.9863">direct dependencies.</text><text fill="#000000" font-family="sans-serif" font-size="13" lengthAdjust="spacing" textLength="4" x="12" y="196.2969">&#160;</text><line style="stroke:#181818;stroke-width:1.0;" x1="7" x2="327.5" y1="130.1416" y2="130.1416"/><line style="stroke:#181818;stroke-width:1.0;" x1="7" x2="327.5" y1="132.1416" y2="132.1416"/><text fill="#000000" font-family="sans-serif" font-size="13" lengthAdjust="spacing" textLength="32" x="327.5" y="134.5547">Filter</text><line style="stroke:#181818;stroke-width:1.0;" x1="359.5" x2="680" y1="130.1416" y2="130.1416"/><line style="stroke:#181818;stroke-width:1.0;" x1="359.5" x2="680" y1="132.1416" y2="132.1416"/><ellipse cx="17.5" cy="226.1602" fill="#000000" rx="2.5" ry="2.5" style="stroke:#000000;stroke-width:0.0;"/><text fill="#000000" font-family="sans-serif" font-size="13" lengthAdjust="spacing" textLength="327" x="24" y="230.918">Examples.BadDesign.CarExample.WarehouseEntities</text><text fill="#000000" font-family="sans-serif" font-size="13" font-weight="bold" lengthAdjust="spacing" textLength="55" x="355" y="230.918">detailed</text><text fill="#000000" font-family="sans-serif" font-size="13" lengthAdjust="spacing" textLength="23" x="414" y="230.918">and</text><text fill="#000000" font-family="sans-serif" font-size="13" font-weight="bold" lengthAdjust="spacing" textLength="166" x="441" y="230.918">grouped per namespace</text><text fill="#000000" font-family="sans-serif" font-size="13" lengthAdjust="spacing" textLength="4" x="607" y="230.918">:</text><text fill="#000000" font-family="sans-serif" font-size="13" lengthAdjust="spacing" textLength="12" x="12" y="246.2285">&#160;&#160;&#160;</text><a href="Examples.BadDesign.CarExample.WarehouseEntities-diagram-detailed-grouped-per-namespace.svg" target="_top" title="Examples.BadDesign.CarExample.WarehouseEntities-diagram-detailed-grouped-per-namespace.svg" xlink:actuate="onRequest" xlink:href="Examples.BadDesign.CarExample.WarehouseEntities-diagram-detailed-grouped-per-namespace.svg" xlink:show="new" xlink:title="Examples.BadDesign.CarExample.WarehouseEntities-diagram-detailed-grouped-per-namespace.svg" xlink:type="simple"><text fill="#0000FF" font-family="sans-serif" font-size="13" lengthAdjust="spacing" text-decoration="underline" textLength="636" x="24" y="246.2285">Examples.BadDesign.CarExample.WarehouseEntities-diagram-detailed-grouped-per-namespace.svg</text></a><ellipse cx="17.5" cy="256.7813" fill="#000000" rx="2.5" ry="2.5" style="stroke:#000000;stroke-width:0.0;"/><text fill="#000000" font-family="sans-serif" font-size="13" lengthAdjust="spacing" textLength="78" x="24" y="261.5391">Full diagram</text><text fill="#000000" font-family="sans-serif" font-size="13" font-weight="bold" lengthAdjust="spacing" textLength="67" x="106" y="261.5391">simplified</text><text fill="#000000" font-family="sans-serif" font-size="13" lengthAdjust="spacing" textLength="23" x="177" y="261.5391">and</text><text fill="#000000" font-family="sans-serif" font-size="13" font-weight="bold" lengthAdjust="spacing" textLength="166" x="204" y="261.5391">grouped per namespace</text><text fill="#000000" font-family="sans-serif" font-size="13" lengthAdjust="spacing" textLength="4" x="370" y="261.5391">:</text><text fill="#000000" font-family="sans-serif" font-size="13" lengthAdjust="spacing" textLength="12" x="12" y="276.8496">&#160;&#160;&#160;</text><a href="full-diagram-simplified-grouped-per-namespace.svg" target="_top" title="full-diagram-simplified-grouped-per-namespace.svg" xlink:actuate="onRequest" xlink:href="full-diagram-simplified-grouped-per-namespace.svg" xlink:show="new" xlink:title="full-diagram-simplified-grouped-per-namespace.svg" xlink:type="simple"><text fill="#0000FF" font-family="sans-serif" font-size="13" lengthAdjust="spacing" text-decoration="underline" textLength="343" x="24" y="276.8496">full-diagram-simplified-grouped-per-namespace.svg</text></a><ellipse cx="17.5" cy="287.4023" fill="#000000" rx="2.5" ry="2.5" style="stroke:#000000;stroke-width:0.0;"/><text fill="#000000" font-family="sans-serif" font-size="13" lengthAdjust="spacing" textLength="41" x="24" y="292.1602">Home:</text><text fill="#000000" font-family="sans-serif" font-size="13" lengthAdjust="spacing" textLength="12" x="12" y="307.4707">&#160;&#160;&#160;</text><a href="index.html" target="_top" title="index.html" xlink:actuate="onRequest" xlink:href="index.html" xlink:show="new" xlink:title="index.html" xlink:type="simple"><text fill="#0000FF" font-family="sans-serif" font-size="13" lengthAdjust="spacing" text-decoration="underline" textLength="68" x="24" y="307.4707">index.html</text></a><line style="stroke:#181818;stroke-width:1.0;" x1="7" x2="306.5" y1="210.6943" y2="210.6943"/><line style="stroke:#181818;stroke-width:1.0;" x1="7" x2="306.5" y1="212.6943" y2="212.6943"/><text fill="#000000" font-family="sans-serif" font-size="13" lengthAdjust="spacing" textLength="74" x="306.5" y="215.1074">Select other</text><line style="stroke:#181818;stroke-width:1.0;" x1="380.5" x2="680" y1="210.6943" y2="210.6943"/><line style="stroke:#181818;stroke-width:1.0;" x1="380.5" x2="680" y1="212.6943" y2="212.6943"/></g><!--link DB to Car--><g id="link_DB_Car"><path codeLine="46" d="M1021.12,195.5547 C960.73,195.5547 813.5,195.5547 813.5,195.5547 C813.5,195.5547 813.5,373.2847 813.5,373.2847 " fill="none" id="DB-to-Car" style="stroke:#6060BB;stroke-width:1.0;stroke-dasharray:7.0,7.0;"/><polygon fill="#6060BB" points="813.5,378.2847,817.5,369.2847,813.5,373.2847,809.5,369.2847,813.5,378.2847" style="stroke:#6060BB;stroke-width:1.0;"/><text fill="#000000" font-family="sans-serif" font-size="13" lengthAdjust="spacing" textLength="29" x="798.44" y="192.123">uses</text></g><!--link DB to Complaints--><g id="link_DB_Complaints"><path codeLine="47" d="M1046.5,219.8247 C1046.5,219.8247 1046.5,373.1247 1046.5,373.1247 " fill="none" id="DB-to-Complaints" style="stroke:#6060BB;stroke-width:1.0;stroke-dasharray:7.0,7.0;"/><polygon fill="#6060BB" points="1046.5,378.1247,1050.5,369.1247,1046.5,373.1247,1042.5,369.1247,1046.5,378.1247" style="stroke:#6060BB;stroke-width:1.0;"/><text fill="#000000" font-family="sans-serif" font-size="13" lengthAdjust="spacing" textLength="29" x="1016.5" y="293.043">uses</text></g><!--link DB to Customer--><g id="link_DB_Customer"><path codeLine="48" d="M1071.85,195.5547 C1112.2,195.5547 1186.5,195.5547 1186.5,195.5547 C1186.5,195.5547 1186.5,373.2847 1186.5,373.2847 " fill="none" id="DB-to-Customer" style="stroke:#6060BB;stroke-width:1.0;stroke-dasharray:7.0,7.0;"/><polygon fill="#6060BB" points="1186.5,378.2847,1190.5,369.2847,1186.5,373.2847,1182.5,369.2847,1186.5,378.2847" style="stroke:#6060BB;stroke-width:1.0;"/><text fill="#000000" font-family="sans-serif" font-size="13" lengthAdjust="spacing" textLength="29" x="1156.5" y="223.663">uses</text></g><!--SRC=[xLR1Rjf04Btp5QFa4CaIBkeX1nGu047j9PUggYf0QB77CCfwrzfT2AJYtpi6OoC18KPGE1GXP7PtvhsPVJDZ-qeg4KR484cXMoG8shY9hZXo4k79qZlMlzQQptCH9nAjtn9X1osDbTyM9blrVmc34psr-ApOZj22vrdYBOe8Gyy3eK9U6XizJJ2410qe4QDDH82Uz_GbHMbMb7O8Tx_rr03xOniX5- -anlM-kYHyN_LLez4bwT0q6dt5120G2W99mIiWkGcVvv_2na9VQSC7XBNhLOZuVxHomOJJq_4Ab1_8z5L81WC78IQeGbG1K_JNi3zGfZiw1Kd1FIWVQeXEa3mUAESH07gzaWZLaCIO5LBTu5Gp_rNsNytz-tOs7WpI2BfJAI4pAdKJ6u8HEyXH2_DZkDzqZ1iNn7cU-nCNoy7W3eI5hjJ2yTsyiCWgkN6UxQsqb4I6FtlS5QdTc-_pGcpTth7RBG_CsGGniiu8bkbQyH_hfzCwAh5EgooFZCYoyj3MCVShriwrCW9lt1604-60QpT6nTKRGSOEsbBRj0C8Be74u8ouaePsEXhcVeQIsBHW_w8LmWW3mIMNjf2iyLcomD-85Da9XlwMxyAs2AEot7iWZ_Z0_YOrlFs_9iuDlATPdzvyInLioPBTGVL_MkxCfSckpCeolb-WbFejPxuyJmJjgNKy3qw9OcDwAv5mnvE2bBEdn98RtqWqtzLCKu0dX99PtigjY9Ea9SwWgj8py2gDwF2SlCQat8ddm40yvqI51txL_TG7BdOsfPZAsw3arr-jBE1y9NjMJsHqN32lyzaFDL4v-jxdz-uVQu-rLclWDqygAAW3BrcuD5JHKVyLucOQvNXdl9XTlBy0]--></g></svg>