<?xml version="1.0" encoding="us-ascii" standalone="no"?><svg xmlns="http://www.w3.org/2000/svg" xmlns:xlink="http://www.w3.org/1999/xlink" contentStyleType="text/css" height="606px" preserveAspectRatio="none" style="width:1769px;height:606px;background:#FFFFFF;" version="1.1" viewBox="0 0 1769 606" width="1769px" zoomAndPan="magnify"><defs/><g><text fill="#000000" font-family="sans-serif" font-size="20" font-weight="bold" lengthAdjust="spacing" textLength="213" x="565" y="29.3359">Examples.BadDesign</text><text fill="#000000" font-family="sans-serif" font-size="20" font-weight="bold" lengthAdjust="spacing" textLength="104" x="785" y="29.3359">simplified</text><text fill="#000000" font-family="sans-serif" font-size="20" font-weight="bold" lengthAdjust="spacing" textLength="38" x="896" y="29.3359">and</text><text fill="#000000" font-family="sans-serif" font-size="20" font-weight="bold" lengthAdjust="spacing" textLength="249" x="941" y="29.3359">grouped per namespace</text><!--cluster Examples--><g id="cluster_Examples"><a href="Examples-diagram-simplified-grouped-per-namespace.svg" target="_top" title="Examples-diagram-simplified-grouped-per-namespace.svg" xlink:actuate="onRequest" xlink:href="Examples-diagram-simplified-grouped-per-namespace.svg" xlink:show="new" xlink:title="Examples-diagram-simplified-grouped-per-namespace.svg" xlink:type="simple"><path d="M502.5,50.5547 L571.5,50.5547 A3.75,3.75 0 0 1 574,53.0547 L581,73.043 L1759.5,73.043 A2.5,2.5 0 0 1 1762,75.543 L1762,597.0547 A2.5,2.5 0 0 1 1759.5,599.5547 L502.5,599.5547 A2.5,2.5 0 0 1 500,597.0547 L500,53.0547 A2.5,2.5 0 0 1 502.5,50.5547 " fill="none" style="stroke:#000000;stroke-width:1.5;"/><line style="stroke:#000000;stroke-width:1.5;" x1="500" x2="581" y1="73.043" y2="73.043"/><text fill="#000000" font-family="sans-serif" font-size="14" font-weight="bold" lengthAdjust="spacing" textLength="68" x="504" y="66.0898">Examples</text></a></g><!--cluster BadDesign--><g id="cluster_BadDesign"><a href="Examples.BadDesign-diagram-simplified-grouped-per-namespace.svg" target="_top" title="Examples.BadDesign-diagram-simplified-grouped-per-namespace.svg" xlink:actuate="onRequest" xlink:href="Examples.BadDesign-diagram-simplified-grouped-per-namespace.svg" xlink:show="new" xlink:title="Examples.BadDesign-diagram-simplified-grouped-per-namespace.svg" xlink:type="simple"><path d="M526.5,93.5547 L603.5,93.5547 A3.75,3.75 0 0 1 606,96.0547 L613,116.043 L1735.5,116.043 A2.5,2.5 0 0 1 1738,118.543 L1738,573.0547 A2.5,2.5 0 0 1 1735.5,575.5547 L526.5,575.5547 A2.5,2.5 0 0 1 524,573.0547 L524,96.0547 A2.5,2.5 0 0 1 526.5,93.5547 " fill="none" style="stroke:#000000;stroke-width:1.5;"/><line style="stroke:#000000;stroke-width:1.5;" x1="524" x2="613" y1="116.043" y2="116.043"/><text fill="#000000" font-family="sans-serif" font-size="14" font-weight="bold" lengthAdjust="spacing" textLength="76" x="528" y="109.0898">BadDesign</text></a></g><!--cluster CarExample--><g id="cluster_CarExample"><a href="Examples.BadDesign.CarExample-diagram-simplified-grouped-per-namespace.svg" target="_top" title="Examples.BadDesign.CarExample-diagram-simplified-grouped-per-namespace.svg" xlink:actuate="onRequest" xlink:href="Examples.BadDesign.CarExample-diagram-simplified-grouped-per-namespace.svg" xlink:show="new" xlink:title="Examples.BadDesign.CarExample-diagram-simplified-grouped-per-namespace.svg" xlink:type="simple"><path d="M550.5,136.5547 L635.5,136.5547 A3.75,3.75 0 0 1 638,139.0547 L645,159.043 L1711.5,159.043 A2.5,2.5 0 0 1 1714,161.543 L1714,549.0547 A2.5,2.5 0 0 1 1711.5,551.5547 L550.5,551.5547 A2.5,2.5 0 0 1 548,549.0547 L548,139.0547 A2.5,2.5 0 0 1 550.5,136.5547 " fill="none" style="stroke:#000000;stroke-width:1.5;"/><line style="stroke:#000000;stroke-width:1.5;" x1="548" x2="645" y1="159.043" y2="159.043"/><text fill="#000000" font-family="sans-serif" font-size="14" font-weight="bold" lengthAdjust="spacing" textLength="84" x="552" y="152.0898">CarExample</text></a></g><!--cluster CarParts--><g id="cluster_CarParts"><a href="Examples.BadDesign.CarExample.CarParts-diagram-simplified-grouped-per-namespace.svg" target="_top" title="Examples.BadDesign.CarExample.CarParts-diagram-simplified-grouped-per-namespace.svg" xlink:actuate="onRequest" xlink:href="Examples.BadDesign.CarExample.CarParts-diagram-simplified-grouped-per-namespace.svg" xlink:show="new" xlink:title="Examples.BadDesign.CarExample.CarParts-diagram-simplified-grouped-per-namespace.svg" xlink:type="simple"><path d="M641.5,344.5547 L703.5,344.5547 A3.75,3.75 0 0 1 706,347.0547 L713,367.043 L1069.5,367.043 A2.5,2.5 0 0 1 1072,369.543 L1072,441.0547 A2.5,2.5 0 0 1 1069.5,443.5547 L641.5,443.5547 A2.5,2.5 0 0 1 639,441.0547 L639,347.0547 A2.5,2.5 0 0 1 641.5,344.5547 " fill="none" style="stroke:#000000;stroke-width:1.5;"/><line style="stroke:#000000;stroke-width:1.5;" x1="639" x2="713" y1="367.043" y2="367.043"/><text fill="#000000" font-family="sans-serif" font-size="14" font-weight="bold" lengthAdjust="spacing" textLength="61" x="643" y="360.0898">CarParts</text></a></g><!--cluster WarehouseEntities--><g id="cluster_WarehouseEntities"><a href="Examples.BadDesign.CarExample.WarehouseEntities-diagram-simplified-grouped-per-namespace.svg" target="_top" title="Examples.BadDesign.CarExample.WarehouseEntities-diagram-simplified-grouped-per-namespace.svg" xlink:actuate="onRequest" xlink:href="Examples.BadDesign.CarExample.WarehouseEntities-diagram-simplified-grouped-per-namespace.svg" xlink:show="new" xlink:title="Examples.BadDesign.CarExample.WarehouseEntities-diagram-simplified-grouped-per-namespace.svg" xlink:type="simple"><path d="M1098.5,344.5547 L1232.5,344.5547 A3.75,3.75 0 0 1 1235,347.0547 L1242,367.043 L1674.5,367.043 A2.5,2.5 0 0 1 1677,369.543 L1677,441.0547 A2.5,2.5 0 0 1 1674.5,443.5547 L1098.5,443.5547 A2.5,2.5 0 0 1 1096,441.0547 L1096,347.0547 A2.5,2.5 0 0 1 1098.5,344.5547 " fill="none" style="stroke:#000000;stroke-width:1.5;"/><line style="stroke:#000000;stroke-width:1.5;" x1="1096" x2="1242" y1="367.043" y2="367.043"/><text fill="#000000" font-family="sans-serif" font-size="14" font-weight="bold" lengthAdjust="spacing" textLength="133" x="1100" y="360.0898">WarehouseEntities</text></a></g><!--class DB--><a href="Examples.BadDesign.CarExample.DB-diagram-simplified-grouped-per-namespace.svg" target="_top" title="Examples.BadDesign.CarExample.DB-diagram-simplified-grouped-per-namespace.svg" xlink:actuate="onRequest" xlink:href="Examples.BadDesign.CarExample.DB-diagram-simplified-grouped-per-namespace.svg" xlink:show="new" xlink:title="Examples.BadDesign.CarExample.DB-diagram-simplified-grouped-per-namespace.svg" xlink:type="simple"><g id="elem_DB"><rect codeLine="7" fill="#FFFF00" height="48" id="DB" rx="2.5" ry="2.5" style="stroke:#181818;stroke-width:0.5;" width="50" x="938" y="171.5547"/><ellipse cx="953" cy="187.5547" fill="#A9DCDF" rx="11" ry="11" style="stroke:#181818;stroke-width:1.0;"/><path d="M952.8633,182.9028 L951.7095,187.9746 L954.0254,187.9746 Z M951.3691,180.6616 L954.3657,180.6616 L957.7109,193.0547 L955.2622,193.0547 L954.4985,189.9917 L951.2197,189.9917 L950.4727,193.0547 L948.0239,193.0547 Z " fill="#000000"/><text fill="#000000" font-family="sans-serif" font-size="14" font-style="italic" lengthAdjust="spacing" textLength="18" x="967" y="192.8457">DB</text><line style="stroke:#181818;stroke-width:0.5;" x1="939" x2="987" y1="203.5547" y2="203.5547"/><line style="stroke:#181818;stroke-width:0.5;" x1="939" x2="987" y1="211.5547" y2="211.5547"/></g></a><!--class Car--><a href="Examples.BadDesign.CarExample.Car-diagram-simplified-grouped-per-namespace.svg" target="_top" title="Examples.BadDesign.CarExample.Car-diagram-simplified-grouped-per-namespace.svg" xlink:actuate="onRequest" xlink:href="Examples.BadDesign.CarExample.Car-diagram-simplified-grouped-per-namespace.svg" xlink:show="new" xlink:title="Examples.BadDesign.CarExample.Car-diagram-simplified-grouped-per-namespace.svg" xlink:type="simple"><g id="elem_Car"><rect codeLine="9" fill="#FFFF00" height="48" id="Car" rx="2.5" ry="2.5" style="stroke:#181818;stroke-width:0.5;" width="56" x="564" y="379.5547"/><ellipse cx="579" cy="395.5547" fill="#A9DCDF" rx="11" ry="11" style="stroke:#181818;stroke-width:1.0;"/><path d="M578.8633,390.9028 L577.7095,395.9746 L580.0254,395.9746 Z M577.3691,388.6616 L580.3657,388.6616 L583.7109,401.0547 L581.2622,401.0547 L580.4985,397.9917 L577.2197,397.9917 L576.4727,401.0547 L574.0239,401.0547 Z " fill="#000000"/><text fill="#000000" font-family="sans-serif" font-size="14" font-style="italic" lengthAdjust="spacing" textLength="24" x="593" y="400.8457">Car</text><line style="stroke:#181818;stroke-width:0.5;" x1="565" x2="619" y1="411.5547" y2="411.5547"/><line style="stroke:#181818;stroke-width:0.5;" x1="565" x2="619" y1="419.5547" y2="419.5547"/></g></a><!--class Vehicle--><a href="Examples.BadDesign.CarExample.Vehicle-diagram-simplified-grouped-per-namespace.svg" target="_top" title="Examples.BadDesign.CarExample.Vehicle-diagram-simplified-grouped-per-namespace.svg" xlink:actuate="onRequest" xlink:href="Examples.BadDesign.CarExample.Vehicle-diagram-simplified-grouped-per-namespace.svg" xlink:show="new" xlink:title="Examples.BadDesign.CarExample.Vehicle-diagram-simplified-grouped-per-namespace.svg" xlink:type="simple"><g id="elem_Vehicle"><rect codeLine="11" fill="#FFFF00" height="48" id="Vehicle" rx="2.5" ry="2.5" style="stroke:#181818;stroke-width:0.5;" width="81" x="1090.5" y="487.5547"/><ellipse cx="1105.5" cy="503.5547" fill="#A9DCDF" rx="11" ry="11" style="stroke:#181818;stroke-width:1.0;"/><path d="M1105.3633,498.9028 L1104.2095,503.9746 L1106.5254,503.9746 Z M1103.8691,496.6616 L1106.8657,496.6616 L1110.2109,509.0547 L1107.7622,509.0547 L1106.9985,505.9917 L1103.7197,505.9917 L1102.9727,509.0547 L1100.5239,509.0547 Z " fill="#000000"/><text fill="#000000" font-family="sans-serif" font-size="14" font-style="italic" lengthAdjust="spacing" textLength="49" x="1119.5" y="508.8457">Vehicle</text><line style="stroke:#181818;stroke-width:0.5;" x1="1091.5" x2="1170.5" y1="519.5547" y2="519.5547"/><line style="stroke:#181818;stroke-width:0.5;" x1="1091.5" x2="1170.5" y1="527.5547" y2="527.5547"/></g></a><!--class Driver--><a href="Examples.BadDesign.CarExample.CarParts.Driver-diagram-simplified-grouped-per-namespace.svg" target="_top" title="Examples.BadDesign.CarExample.CarParts.Driver-diagram-simplified-grouped-per-namespace.svg" xlink:actuate="onRequest" xlink:href="Examples.BadDesign.CarExample.CarParts.Driver-diagram-simplified-grouped-per-namespace.svg" xlink:show="new" xlink:title="Examples.BadDesign.CarExample.CarParts.Driver-diagram-simplified-grouped-per-namespace.svg" xlink:type="simple"><g id="elem_Driver"><rect codeLine="25" fill="#FFFF00" height="48" id="Driver" rx="2.5" ry="2.5" style="stroke:#181818;stroke-width:0.5;" width="73" x="982.5" y="379.5547"/><ellipse cx="997.5" cy="395.5547" fill="#A9DCDF" rx="11" ry="11" style="stroke:#181818;stroke-width:1.0;"/><path d="M997.3633,390.9028 L996.2095,395.9746 L998.5254,395.9746 Z M995.8691,388.6616 L998.8657,388.6616 L1002.2109,401.0547 L999.7622,401.0547 L998.9985,397.9917 L995.7197,397.9917 L994.9727,401.0547 L992.5239,401.0547 Z " fill="#000000"/><text fill="#000000" font-family="sans-serif" font-size="14" font-style="italic" lengthAdjust="spacing" textLength="41" x="1011.5" y="400.8457">Driver</text><line style="stroke:#181818;stroke-width:0.5;" x1="983.5" x2="1054.5" y1="411.5547" y2="411.5547"/><line style="stroke:#181818;stroke-width:0.5;" x1="983.5" x2="1054.5" y1="419.5547" y2="419.5547"/></g></a><!--class Wheels--><a href="Examples.BadDesign.CarExample.CarParts.Wheels-diagram-simplified-grouped-per-namespace.svg" target="_top" title="Examples.BadDesign.CarExample.CarParts.Wheels-diagram-simplified-grouped-per-namespace.svg" xlink:actuate="onRequest" xlink:href="Examples.BadDesign.CarExample.CarParts.Wheels-diagram-simplified-grouped-per-namespace.svg" xlink:show="new" xlink:title="Examples.BadDesign.CarExample.CarParts.Wheels-diagram-simplified-grouped-per-namespace.svg" xlink:type="simple"><g id="elem_Wheels"><rect codeLine="27" fill="#FFFF00" height="48" id="Wheels" rx="2.5" ry="2.5" style="stroke:#181818;stroke-width:0.5;" width="80" x="867" y="379.5547"/><ellipse cx="882" cy="395.5547" fill="#A9DCDF" rx="11" ry="11" style="stroke:#181818;stroke-width:1.0;"/><path d="M881.8633,390.9028 L880.7095,395.9746 L883.0254,395.9746 Z M880.3691,388.6616 L883.3657,388.6616 L886.7109,401.0547 L884.2622,401.0547 L883.4985,397.9917 L880.2197,397.9917 L879.4727,401.0547 L877.0239,401.0547 Z " fill="#000000"/><text fill="#000000" font-family="sans-serif" font-size="14" font-style="italic" lengthAdjust="spacing" textLength="48" x="896" y="400.8457">Wheels</text><line style="stroke:#181818;stroke-width:0.5;" x1="868" x2="946" y1="411.5547" y2="411.5547"/><line style="stroke:#181818;stroke-width:0.5;" x1="868" x2="946" y1="419.5547" y2="419.5547"/></g></a><!--class Doors--><a href="Examples.BadDesign.CarExample.CarParts.Doors-diagram-simplified-grouped-per-namespace.svg" target="_top" title="Examples.BadDesign.CarExample.CarParts.Doors-diagram-simplified-grouped-per-namespace.svg" xlink:actuate="onRequest" xlink:href="Examples.BadDesign.CarExample.CarParts.Doors-diagram-simplified-grouped-per-namespace.svg" xlink:show="new" xlink:title="Examples.BadDesign.CarExample.CarParts.Doors-diagram-simplified-grouped-per-namespace.svg" xlink:type="simple"><g id="elem_Doors"><rect codeLine="29" fill="#FFFF00" height="48" id="Doors" rx="2.5" ry="2.5" style="stroke:#181818;stroke-width:0.5;" width="73" x="758.5" y="379.5547"/><ellipse cx="773.5" cy="395.5547" fill="#A9DCDF" rx="11" ry="11" style="stroke:#181818;stroke-width:1.0;"/><path d="M773.3633,390.9028 L772.2095,395.9746 L774.5254,395.9746 Z M771.8691,388.6616 L774.8657,388.6616 L778.2109,401.0547 L775.7622,401.0547 L774.9985,397.9917 L771.7197,397.9917 L770.9727,401.0547 L768.5239,401.0547 Z " fill="#000000"/><text fill="#000000" font-family="sans-serif" font-size="14" font-style="italic" lengthAdjust="spacing" textLength="41" x="787.5" y="400.8457">Doors</text><line style="stroke:#181818;stroke-width:0.5;" x1="759.5" x2="830.5" y1="411.5547" y2="411.5547"/><line style="stroke:#181818;stroke-width:0.5;" x1="759.5" x2="830.5" y1="419.5547" y2="419.5547"/></g></a><!--class Seats--><a href="Examples.BadDesign.CarExample.CarParts.Seats-diagram-simplified-grouped-per-namespace.svg" target="_top" title="Examples.BadDesign.CarExample.CarParts.Seats-diagram-simplified-grouped-per-namespace.svg" xlink:actuate="onRequest" xlink:href="Examples.BadDesign.CarExample.CarParts.Seats-diagram-simplified-grouped-per-namespace.svg" xlink:show="new" xlink:title="Examples.BadDesign.CarExample.CarParts.Seats-diagram-simplified-grouped-per-namespace.svg" xlink:type="simple"><g id="elem_Seats"><rect codeLine="31" fill="#FFFF00" height="48" id="Seats" rx="2.5" ry="2.5" style="stroke:#181818;stroke-width:0.5;" width="68" x="655" y="379.5547"/><ellipse cx="670" cy="395.5547" fill="#A9DCDF" rx="11" ry="11" style="stroke:#181818;stroke-width:1.0;"/><path d="M669.8633,390.9028 L668.7095,395.9746 L671.0254,395.9746 Z M668.3691,388.6616 L671.3657,388.6616 L674.7109,401.0547 L672.2622,401.0547 L671.4985,397.9917 L668.2197,397.9917 L667.4727,401.0547 L665.0239,401.0547 Z " fill="#000000"/><text fill="#000000" font-family="sans-serif" font-size="14" font-style="italic" lengthAdjust="spacing" textLength="36" x="684" y="400.8457">Seats</text><line style="stroke:#181818;stroke-width:0.5;" x1="656" x2="722" y1="411.5547" y2="411.5547"/><line style="stroke:#181818;stroke-width:0.5;" x1="656" x2="722" y1="419.5547" y2="419.5547"/></g></a><!--class User--><a href="Examples.BadDesign.CarExample.WarehouseEntities.User-diagram-simplified-grouped-per-namespace.svg" target="_top" title="Examples.BadDesign.CarExample.WarehouseEntities.User-diagram-simplified-grouped-per-namespace.svg" xlink:actuate="onRequest" xlink:href="Examples.BadDesign.CarExample.WarehouseEntities.User-diagram-simplified-grouped-per-namespace.svg" xlink:show="new" xlink:title="Examples.BadDesign.CarExample.WarehouseEntities.User-diagram-simplified-grouped-per-namespace.svg" xlink:type="simple"><g id="elem_User"><rect codeLine="47" fill="#FFFF00" height="48" id="User" rx="2.5" ry="2.5" style="stroke:#181818;stroke-width:0.5;" width="63" x="1597.5" y="379.5547"/><ellipse cx="1612.5" cy="395.5547" fill="#A9DCDF" rx="11" ry="11" style="stroke:#181818;stroke-width:1.0;"/><path d="M1612.3633,390.9028 L1611.2095,395.9746 L1613.5254,395.9746 Z M1610.8691,388.6616 L1613.8657,388.6616 L1617.2109,401.0547 L1614.7622,401.0547 L1613.9985,397.9917 L1610.7197,397.9917 L1609.9727,401.0547 L1607.5239,401.0547 Z " fill="#000000"/><text fill="#000000" font-family="sans-serif" font-size="14" font-style="italic" lengthAdjust="spacing" textLength="31" x="1626.5" y="400.8457">User</text><line style="stroke:#181818;stroke-width:0.5;" x1="1598.5" x2="1659.5" y1="411.5547" y2="411.5547"/><line style="stroke:#181818;stroke-width:0.5;" x1="1598.5" x2="1659.5" y1="419.5547" y2="419.5547"/></g></a><!--class Customer--><a href="Examples.BadDesign.CarExample.WarehouseEntities.Customer-diagram-simplified-grouped-per-namespace.svg" target="_top" title="Examples.BadDesign.CarExample.WarehouseEntities.Customer-diagram-simplified-grouped-per-namespace.svg" xlink:actuate="onRequest" xlink:href="Examples.BadDesign.CarExample.WarehouseEntities.Customer-diagram-simplified-grouped-per-namespace.svg" xlink:show="new" xlink:title="Examples.BadDesign.CarExample.WarehouseEntities.Customer-diagram-simplified-grouped-per-namespace.svg" xlink:type="simple"><g id="elem_Customer"><rect codeLine="49" fill="#FFFF00" height="48" id="Customer" rx="2.5" ry="2.5" style="stroke:#181818;stroke-width:0.5;" width="99" x="1463.5" y="379.5547"/><ellipse cx="1478.5" cy="395.5547" fill="#A9DCDF" rx="11" ry="11" style="stroke:#181818;stroke-width:1.0;"/><path d="M1478.3633,390.9028 L1477.2095,395.9746 L1479.5254,395.9746 Z M1476.8691,388.6616 L1479.8657,388.6616 L1483.2109,401.0547 L1480.7622,401.0547 L1479.9985,397.9917 L1476.7197,397.9917 L1475.9727,401.0547 L1473.5239,401.0547 Z " fill="#000000"/><text fill="#000000" font-family="sans-serif" font-size="14" font-style="italic" lengthAdjust="spacing" textLength="67" x="1492.5" y="400.8457">Customer</text><line style="stroke:#181818;stroke-width:0.5;" x1="1464.5" x2="1561.5" y1="411.5547" y2="411.5547"/><line style="stroke:#181818;stroke-width:0.5;" x1="1464.5" x2="1561.5" y1="419.5547" y2="419.5547"/></g></a><!--class Car--><a href="Examples.BadDesign.CarExample.WarehouseEntities.Car-diagram-simplified-grouped-per-namespace.svg" target="_top" title="Examples.BadDesign.CarExample.WarehouseEntities.Car-diagram-simplified-grouped-per-namespace.svg" xlink:actuate="onRequest" xlink:href="Examples.BadDesign.CarExample.WarehouseEntities.Car-diagram-simplified-grouped-per-namespace.svg" xlink:show="new" xlink:title="Examples.BadDesign.CarExample.WarehouseEntities.Car-diagram-simplified-grouped-per-namespace.svg" xlink:type="simple"><g id="elem_Car"><rect codeLine="51" fill="#FFFF00" height="48" id="Car" rx="2.5" ry="2.5" style="stroke:#181818;stroke-width:0.5;" width="56" x="1372" y="379.5547"/><ellipse cx="1387" cy="395.5547" fill="#A9DCDF" rx="11" ry="11" style="stroke:#181818;stroke-width:1.0;"/><path d="M1386.8633,390.9028 L1385.7095,395.9746 L1388.0254,395.9746 Z M1385.3691,388.6616 L1388.3657,388.6616 L1391.7109,401.0547 L1389.2622,401.0547 L1388.4985,397.9917 L1385.2197,397.9917 L1384.4727,401.0547 L1382.0239,401.0547 Z " fill="#000000"/><text fill="#000000" font-family="sans-serif" font-size="14" font-style="italic" lengthAdjust="spacing" textLength="24" x="1401" y="400.8457">Car</text><line style="stroke:#181818;stroke-width:0.5;" x1="1373" x2="1427" y1="411.5547" y2="411.5547"/><line style="stroke:#181818;stroke-width:0.5;" x1="1373" x2="1427" y1="419.5547" y2="419.5547"/></g></a><!--class Invoice--><a href="Examples.BadDesign.CarExample.WarehouseEntities.Invoice-diagram-simplified-grouped-per-namespace.svg" target="_top" title="Examples.BadDesign.CarExample.WarehouseEntities.Invoice-diagram-simplified-grouped-per-namespace.svg" xlink:actuate="onRequest" xlink:href="Examples.BadDesign.CarExample.WarehouseEntities.Invoice-diagram-simplified-grouped-per-namespace.svg" xlink:show="new" xlink:title="Examples.BadDesign.CarExample.WarehouseEntities.Invoice-diagram-simplified-grouped-per-namespace.svg" xlink:type="simple"><g id="elem_Invoice"><rect codeLine="53" fill="#FFFF00" height="48" id="Invoice" rx="2.5" ry="2.5" style="stroke:#181818;stroke-width:0.5;" width="80" x="1257" y="379.5547"/><ellipse cx="1272" cy="395.5547" fill="#A9DCDF" rx="11" ry="11" style="stroke:#181818;stroke-width:1.0;"/><path d="M1271.8633,390.9028 L1270.7095,395.9746 L1273.0254,395.9746 Z M1270.3691,388.6616 L1273.3657,388.6616 L1276.7109,401.0547 L1274.2622,401.0547 L1273.4985,397.9917 L1270.2197,397.9917 L1269.4727,401.0547 L1267.0239,401.0547 Z " fill="#000000"/><text fill="#000000" font-family="sans-serif" font-size="14" font-style="italic" lengthAdjust="spacing" textLength="48" x="1286" y="400.8457">Invoice</text><line style="stroke:#181818;stroke-width:0.5;" x1="1258" x2="1336" y1="411.5547" y2="411.5547"/><line style="stroke:#181818;stroke-width:0.5;" x1="1258" x2="1336" y1="419.5547" y2="419.5547"/></g></a><!--class Complaints--><a href="Examples.BadDesign.CarExample.WarehouseEntities.Complaints-diagram-simplified-grouped-per-namespace.svg" target="_top" title="Examples.BadDesign.CarExample.WarehouseEntities.Complaints-diagram-simplified-grouped-per-namespace.svg" xlink:actuate="onRequest" xlink:href="Examples.BadDesign.CarExample.WarehouseEntities.Complaints-diagram-simplified-grouped-per-namespace.svg" xlink:show="new" xlink:title="Examples.BadDesign.CarExample.WarehouseEntities.Complaints-diagram-simplified-grouped-per-namespace.svg" xlink:type="simple"><g id="elem_Complaints"><rect codeLine="55" fill="#FFFF00" height="48" id="Complaints" rx="2.5" ry="2.5" style="stroke:#181818;stroke-width:0.5;" width="110" x="1112" y="379.5547"/><ellipse cx="1127" cy="395.5547" fill="#A9DCDF" rx="11" ry="11" style="stroke:#181818;stroke-width:1.0;"/><path d="M1126.8633,390.9028 L1125.7095,395.9746 L1128.0254,395.9746 Z M1125.3691,388.6616 L1128.3657,388.6616 L1131.7109,401.0547 L1129.2622,401.0547 L1128.4985,397.9917 L1125.2197,397.9917 L1124.4727,401.0547 L1122.0239,401.0547 Z " fill="#000000"/><text fill="#000000" font-family="sans-serif" font-size="14" font-style="italic" lengthAdjust="spacing" textLength="78" x="1141" y="400.8457">Complaints</text><line style="stroke:#181818;stroke-width:0.5;" x1="1113" x2="1221" y1="411.5547" y2="411.5547"/><line style="stroke:#181818;stroke-width:0.5;" x1="1113" x2="1221" y1="419.5547" y2="419.5547"/></g></a><g id="elem_FloatingNote"><path d="M6,71.5547 L6,319.2129 L484,319.2129 L484,81.5547 L474,71.5547 L6,71.5547 " fill="#FEFFDD" style="stroke:#181818;stroke-width:0.5;"/><path d="M474,71.5547 L474,81.5547 L484,81.5547 L474,71.5547 " fill="#FEFFDD" style="stroke:#181818;stroke-width:1.0;"/><text fill="#000000" font-family="sans-serif" font-size="13" lengthAdjust="spacing" textLength="120" x="12" y="89.123">Your are analyzing:</text><text fill="#000000" font-family="sans-serif" font-size="13" lengthAdjust="spacing" textLength="130" x="12" y="104.4336">Examples.BadDesign</text><text fill="#000000" font-family="sans-serif" font-size="13" font-weight="bold" lengthAdjust="spacing" textLength="67" x="146" y="104.4336">simplified</text><text fill="#000000" font-family="sans-serif" font-size="13" lengthAdjust="spacing" textLength="23" x="217" y="104.4336">and</text><text fill="#000000" font-family="sans-serif" font-size="13" font-weight="bold" lengthAdjust="spacing" textLength="166" x="244" y="104.4336">grouped per namespace</text><text fill="#000000" font-family="sans-serif" font-size="13" lengthAdjust="spacing" textLength="4" x="12" y="119.7441">&#160;</text><text fill="#000000" font-family="sans-serif" font-size="13" lengthAdjust="spacing" textLength="229" x="12" y="150.3652">You can click either the namespaces</text><text fill="#000000" font-family="sans-serif" font-size="13" lengthAdjust="spacing" textLength="266" x="12" y="165.6758">or class names for filtering them and their</text><text fill="#000000" font-family="sans-serif" font-size="13" lengthAdjust="spacing" textLength="130" x="12" y="180.9863">direct dependencies.</text><text fill="#000000" font-family="sans-serif" font-size="13" lengthAdjust="spacing" textLength="4" x="12" y="196.2969">&#160;</text><line style="stroke:#181818;stroke-width:1.0;" x1="7" x2="229" y1="130.1416" y2="130.1416"/><line style="stroke:#181818;stroke-width:1.0;" x1="7" x2="229" y1="132.1416" y2="132.1416"/><text fill="#000000" font-family="sans-serif" font-size="13" lengthAdjust="spacing" textLength="32" x="229" y="134.5547">Filter</text><line style="stroke:#181818;stroke-width:1.0;" x1="261" x2="483" y1="130.1416" y2="130.1416"/><line style="stroke:#181818;stroke-width:1.0;" x1="261" x2="483" y1="132.1416" y2="132.1416"/><ellipse cx="17.5" cy="226.1602" fill="#000000" rx="2.5" ry="2.5" style="stroke:#000000;stroke-width:0.0;"/><text fill="#000000" font-family="sans-serif" font-size="13" lengthAdjust="spacing" textLength="130" x="24" y="230.918">Examples.BadDesign</text><text fill="#000000" font-family="sans-serif" font-size="13" font-weight="bold" lengthAdjust="spacing" textLength="55" x="158" y="230.918">detailed</text><text fill="#000000" font-family="sans-serif" font-size="13" lengthAdjust="spacing" textLength="23" x="217" y="230.918">and</text><text fill="#000000" font-family="sans-serif" font-size="13" font-weight="bold" lengthAdjust="spacing" textLength="166" x="244" y="230.918">grouped per namespace</text><text fill="#000000" font-family="sans-serif" font-size="13" lengthAdjust="spacing" textLength="4" x="410" y="230.918">:</text><text fill="#000000" font-family="sans-serif" font-size="13" lengthAdjust="spacing" textLength="12" x="12" y="246.2285">&#160;&#160;&#160;</text><a href="Examples.BadDesign-diagram-detailed-grouped-per-namespace.svg" target="_top" title="Examples.BadDesign-diagram-detailed-grouped-per-namespace.svg" xlink:actuate="onRequest" xlink:href="Examples.BadDesign-diagram-detailed-grouped-per-namespace.svg" xlink:show="new" xlink:title="Examples.BadDesign-diagram-detailed-grouped-per-namespace.svg" xlink:type="simple"><text fill="#0000FF" font-family="sans-serif" font-size="13" lengthAdjust="spacing" text-decoration="underline" textLength="439" x="24" y="246.2285">Examples.BadDesign-diagram-detailed-grouped-per-namespace.svg</text></a><ellipse cx="17.5" cy="256.7813" fill="#000000" rx="2.5" ry="2.5" style="stroke:#000000;stroke-width:0.0;"/><text fill="#000000" font-family="sans-serif" font-size="13" lengthAdjust="spacing" textLength="78" x="24" y="261.5391">Full diagram</text><text fill="#000000" font-family="sans-serif" font-size="13" font-weight="bold" lengthAdjust="spacing" textLength="67" x="106" y="261.5391">simplified</text><text fill="#000000" font-family="sans-serif" font-size="13" lengthAdjust="spacing" textLength="23" x="177" y="261.5391">and</text><text fill="#000000" font-family="sans-serif" font-size="13" font-weight="bold" lengthAdjust="spacing" textLength="166" x="204" y="261.5391">grouped per namespace</text><text fill="#000000" font-family="sans-serif" font-size="13" lengthAdjust="spacing" textLength="4" x="370" y="261.5391">:</text><text fill="#000000" font-family="sans-serif" font-size="13" lengthAdjust="spacing" textLength="12" x="12" y="276.8496">&#160;&#160;&#160;</text><a href="full-diagram-simplified-grouped-per-namespace.svg" target="_top" title="full-diagram-simplified-grouped-per-namespace.svg" xlink:actuate="onRequest" xlink:href="full-diagram-simplified-grouped-per-namespace.svg" xlink:show="new" xlink:title="full-diagram-simplified-grouped-per-namespace.svg" xlink:type="simple"><text fill="#0000FF" font-family="sans-serif" font-size="13" lengthAdjust="spacing" text-decoration="underline" textLength="343" x="24" y="276.8496">full-diagram-simplified-grouped-per-namespace.svg</text></a><ellipse cx="17.5" cy="287.4023" fill="#000000" rx="2.5" ry="2.5" style="stroke:#000000;stroke-width:0.0;"/><text fill="#000000" font-family="sans-serif" font-size="13" lengthAdjust="spacing" textLength="41" x="24" y="292.1602">Home:</text><text fill="#000000" font-family="sans-serif" font-size="13" lengthAdjust="spacing" textLength="12" x="12" y="307.4707">&#160;&#160;&#160;</text><a href="index.html" target="_top" title="index.html" xlink:actuate="onRequest" xlink:href="index.html" xlink:show="new" xlink:title="index.html" xlink:type="simple"><text fill="#0000FF" font-family="sans-serif" font-size="13" lengthAdjust="spacing" text-decoration="underline" textLength="68" x="24" y="307.4707">index.html</text></a><line style="stroke:#181818;stroke-width:1.0;" x1="7" x2="208" y1="210.6943" y2="210.6943"/><line style="stroke:#181818;stroke-width:1.0;" x1="7" x2="208" y1="212.6943" y2="212.6943"/><text fill="#000000" font-family="sans-serif" font-size="13" lengthAdjust="spacing" textLength="74" x="208" y="215.1074">Select other</text><line style="stroke:#181818;stroke-width:1.0;" x1="282" x2="483" y1="210.6943" y2="210.6943"/><line style="stroke:#181818;stroke-width:1.0;" x1="282" x2="483" y1="212.6943" y2="212.6943"/></g><!--link DB to User--><g id="link_DB_User"><path codeLine="72" d="M988.29,178.5547 C1109.95,178.5547 1629,178.5547 1629,178.5547 C1629,178.5547 1629,373.4747 1629,373.4747 " fill="none" id="DB-to-User" style="stroke:#6060BB;stroke-width:1.0;stroke-dasharray:7.0,7.0;"/><polygon fill="#6060BB" points="1629,378.4747,1633,369.4747,1629,373.4747,1625,369.4747,1629,378.4747" style="stroke:#6060BB;stroke-width:1.0;"/><text fill="#000000" font-family="sans-serif" font-size="13" lengthAdjust="spacing" textLength="29" x="1376.11" y="175.123">uses</text></g><!--link DB to Customer--><g id="link_DB_Customer"><path codeLine="73" d="M988.42,185.5547 C1096.59,185.5547 1513,185.5547 1513,185.5547 C1513,185.5547 1513,373.3947 1513,373.3947 " fill="none" id="DB-to-Customer" style="stroke:#6060BB;stroke-width:1.0;stroke-dasharray:7.0,7.0;"/><polygon fill="#6060BB" points="1513,378.3947,1517,369.3947,1513,373.3947,1509,369.3947,1513,378.3947" style="stroke:#6060BB;stroke-width:1.0;"/><text fill="#000000" font-family="sans-serif" font-size="13" lengthAdjust="spacing" textLength="29" x="1314.63" y="182.123">uses</text></g><!--link DB to Car--><g id="link_DB_Car"><path codeLine="74" d="M988.38,192.5547 C1081.65,192.5547 1400,192.5547 1400,192.5547 C1400,192.5547 1400,373.3547 1400,373.3547 " fill="none" id="DB-to-Car" style="stroke:#6060BB;stroke-width:1.0;stroke-dasharray:7.0,7.0;"/><polygon fill="#6060BB" points="1400,378.3547,1404,369.3547,1400,373.3547,1396,369.3547,1400,378.3547" style="stroke:#6060BB;stroke-width:1.0;"/><text fill="#000000" font-family="sans-serif" font-size="13" lengthAdjust="spacing" textLength="29" x="1254.59" y="189.123">uses</text></g><!--link DB to Invoice--><g id="link_DB_Invoice"><path codeLine="75" d="M988.38,199.5547 C1066.32,199.5547 1297,199.5547 1297,199.5547 C1297,199.5547 1297,373.3547 1297,373.3547 " fill="none" id="DB-to-Invoice" style="stroke:#6060BB;stroke-width:1.0;stroke-dasharray:7.0,7.0;"/><polygon fill="#6060BB" points="1297,378.3547,1301,369.3547,1297,373.3547,1293,369.3547,1297,378.3547" style="stroke:#6060BB;stroke-width:1.0;"/><text fill="#000000" font-family="sans-serif" font-size="13" lengthAdjust="spacing" textLength="29" x="1199.59" y="196.123">uses</text></g><!--link DB to Complaints--><g id="link_DB_Complaints"><path codeLine="76" d="M988.42,206.5547 C1043.11,206.5547 1167,206.5547 1167,206.5547 C1167,206.5547 1167,373.3947 1167,373.3947 " fill="none" id="DB-to-Complaints" style="stroke:#6060BB;stroke-width:1.0;stroke-dasharray:7.0,7.0;"/><polygon fill="#6060BB" points="1167,378.3947,1171,369.3947,1167,373.3947,1163,369.3947,1167,378.3947" style="stroke:#6060BB;stroke-width:1.0;"/><text fill="#000000" font-family="sans-serif" font-size="13" lengthAdjust="spacing" textLength="29" x="1131.13" y="203.123">uses</text></g><!--link DB to Car--><g id="link_DB_Car"><path codeLine="77" d="M937.79,185.5547 C854.29,185.5547 592,185.5547 592,185.5547 C592,185.5547 592,373.3947 592,373.3947 " fill="none" id="DB-to-Car-1" style="stroke:#6060BB;stroke-width:1.0;stroke-dasharray:7.0,7.0;"/><polygon fill="#6060BB" points="592,378.3947,596,369.3947,592,373.3947,588,369.3947,592,378.3947" style="stroke:#6060BB;stroke-width:1.0;"/><text fill="#000000" font-family="sans-serif" font-size="13" lengthAdjust="spacing" textLength="29" x="640.98" y="182.123">uses</text></g><!--reverse link Car to DB--><g id="link_Car_DB"><path codeLine="85" d="M578,365.4747 C578,365.4747 578,178.5547 578,178.5547 C578,178.5547 852.09,178.5547 937.74,178.5547 " fill="none" id="Car-backto-DB" style="stroke:#10BB10;stroke-width:1.0;"/><polygon fill="#10BB10" points="578,378.4747,582,372.4747,578,366.4747,574,372.4747,578,378.4747" style="stroke:#10BB10;stroke-width:1.0;"/></g><!--link DB to Driver--><g id="link_DB_Driver"><path codeLine="78" d="M970.67,219.6747 C970.67,272.8747 970.67,395.5547 970.67,395.5547 C970.67,395.5547 976.37,395.5547 976.37,395.5547 " fill="none" id="DB-to-Driver" style="stroke:#6060BB;stroke-width:1.0;stroke-dasharray:7.0,7.0;"/><polygon fill="#6060BB" points="981.37,395.5547,972.37,391.5547,976.37,395.5547,972.37,399.5547,981.37,395.5547" style="stroke:#6060BB;stroke-width:1.0;"/><text fill="#000000" font-family="sans-serif" font-size="13" lengthAdjust="spacing" textLength="29" x="940.67" y="324.033">uses</text></g><!--reverse link Driver to DB--><g id="link_Driver_DB"><path codeLine="91" d="M968.27,411.5547 C968.27,411.5547 958.83,411.5547 958.83,411.5547 C958.83,411.5547 958.83,276.4047 958.83,219.9147 " fill="none" id="Driver-backto-DB" style="stroke:#10BB10;stroke-width:1.0;"/><polygon fill="#10BB10" points="981.27,411.5547,975.27,407.5547,969.27,411.5547,975.27,415.5547,981.27,411.5547" style="stroke:#10BB10;stroke-width:1.0;"/></g><!--link DB to Wheels--><g id="link_DB_Wheels"><path codeLine="79" d="M944,219.8247 C944,219.8247 944,373.1247 944,373.1247 " fill="none" id="DB-to-Wheels" style="stroke:#6060BB;stroke-width:1.0;stroke-dasharray:7.0,7.0;"/><polygon fill="#6060BB" points="944,378.1247,948,369.1247,944,373.1247,940,369.1247,944,378.1247" style="stroke:#6060BB;stroke-width:1.0;"/><text fill="#000000" font-family="sans-serif" font-size="13" lengthAdjust="spacing" textLength="29" x="914" y="293.043">uses</text></g><!--reverse link Wheels to DB--><g id="link_Wheels_DB"><path codeLine="92" d="M941,365.2847 C941,365.2847 941,219.9847 941,219.9847 " fill="none" id="Wheels-backto-DB" style="stroke:#10BB10;stroke-width:1.0;"/><polygon fill="#10BB10" points="941,378.2847,945,372.2847,941,366.2847,937,372.2847,941,378.2847" style="stroke:#10BB10;stroke-width:1.0;"/></g><!--link DB to Doors--><g id="link_DB_Doors"><path codeLine="80" d="M937.62,213.5547 C893.46,213.5547 807.17,213.5547 807.17,213.5547 C807.17,213.5547 807.17,373.1047 807.17,373.1047 " fill="none" id="DB-to-Doors" style="stroke:#6060BB;stroke-width:1.0;stroke-dasharray:7.0,7.0;"/><polygon fill="#6060BB" points="807.17,378.1047,811.17,369.1047,807.17,373.1047,803.17,369.1047,807.17,378.1047" style="stroke:#6060BB;stroke-width:1.0;"/><text fill="#000000" font-family="sans-serif" font-size="13" lengthAdjust="spacing" textLength="29" x="777.17" y="224.673">uses</text></g><!--reverse link Doors to DB--><g id="link_Doors_DB"><path codeLine="93" d="M782.83,365.3947 C782.83,365.3947 782.83,206.5547 782.83,206.5547 C782.83,206.5547 887.91,206.5547 937.57,206.5547 " fill="none" id="Doors-backto-DB" style="stroke:#10BB10;stroke-width:1.0;"/><polygon fill="#10BB10" points="782.83,378.3947,786.83,372.3947,782.83,366.3947,778.83,372.3947,782.83,378.3947" style="stroke:#10BB10;stroke-width:1.0;"/></g><!--link DB to Seats--><g id="link_DB_Seats"><path codeLine="81" d="M937.68,192.5547 C867.85,192.5547 677.67,192.5547 677.67,192.5547 C677.67,192.5547 677.67,373.3547 677.67,373.3547 " fill="none" id="DB-to-Seats" style="stroke:#6060BB;stroke-width:1.0;stroke-dasharray:7.0,7.0;"/><polygon fill="#6060BB" points="677.67,378.3547,681.67,369.3547,677.67,373.3547,673.67,369.3547,677.67,378.3547" style="stroke:#6060BB;stroke-width:1.0;"/><text fill="#000000" font-family="sans-serif" font-size="13" lengthAdjust="spacing" textLength="29" x="687.27" y="189.123">uses</text></g><!--reverse link Seats to DB--><g id="link_Seats_DB"><path codeLine="94" d="M700.33,365.3547 C700.33,365.3547 700.33,199.5547 700.33,199.5547 C700.33,199.5547 872.07,199.5547 937.81,199.5547 " fill="none" id="Seats-backto-DB" style="stroke:#10BB10;stroke-width:1.0;"/><polygon fill="#10BB10" points="700.33,378.3547,704.33,372.3547,700.33,366.3547,696.33,372.3547,700.33,378.3547" style="stroke:#10BB10;stroke-width:1.0;"/></g><!--reverse link Driver to Car--><g id="link_Driver_Car"><path codeLine="82" d="M1019,448.7547 C1019,448.7547 1019,467.5547 1019,467.5547 C1019,467.5547 592,467.5547 592,467.5547 C592,467.5547 592,445.8747 592,427.7547 " fill="none" id="Driver-backto-Car" style="stroke:#FF0000;stroke-width:1.0;"/><polygon fill="none" points="1012,448.7547,1019,428.7547,1026,448.7547,1012,448.7547" style="stroke:#FF0000;stroke-width:1.0;"/></g><!--reverse link Car to Wheels--><g id="link_Car_Wheels"><path codeLine="83" d="M606,365.0847 C606,365.0847 606,349.5547 606,349.5547 C606,349.5547 902.5,349.5547 902.5,349.5547 C902.5,349.5547 902.5,364.7947 902.5,379.0847 " fill="none" id="Car-backto-Wheels" style="stroke:#10BB10;stroke-width:1.0;"/><polygon fill="#10BB10" points="606,378.0847,610,372.0847,606,366.0847,602,372.0847,606,378.0847" style="stroke:#10BB10;stroke-width:1.0;"/></g><!--reverse link Car to Vehicle--><g id="link_Car_Vehicle"><path codeLine="84" d="M578,441.7947 C578,441.7947 578,511.5547 578,511.5547 C578,511.5547 962.63,511.5547 1090.34,511.5547 " fill="none" id="Car-backto-Vehicle" style="stroke:#10BB10;stroke-width:1.0;"/><polygon fill="#10BB10" points="578,428.7947,574,434.7947,578,440.7947,582,434.7947,578,428.7947" style="stroke:#10BB10;stroke-width:1.0;"/></g><!--link Car to Doors--><g id="link_Car_Doors"><path codeLine="86" d="M606,427.8747 C606,438.0447 606,447.5547 606,447.5547 C606,447.5547 795,447.5547 795,447.5547 C795,447.5547 795,433.8747 795,433.8747 " fill="none" id="Car-to-Doors" style="stroke:#6060BB;stroke-width:1.0;stroke-dasharray:7.0,7.0;"/><polygon fill="#6060BB" points="795,428.8747,791,437.8747,795,433.8747,799,437.8747,795,428.8747" style="stroke:#6060BB;stroke-width:1.0;"/><text fill="#000000" font-family="sans-serif" font-size="13" lengthAdjust="spacing" textLength="29" x="667.5" y="444.123">uses</text></g><!--link Car to Seats--><g id="link_Car_Seats"><path codeLine="87" d="M620.32,403.5547 C620.32,403.5547 648.63,403.5547 648.63,403.5547 " fill="none" id="Car-to-Seats" style="stroke:#909090;stroke-width:1.0;"/><polygon fill="#909090" points="653.63,403.5547,644.63,399.5547,648.63,403.5547,644.63,407.5547,653.63,403.5547" style="stroke:#909090;stroke-width:1.0;"/><text fill="#000000" font-family="sans-serif" font-size="13" lengthAdjust="spacing" textLength="29" x="627.72" y="417.123">uses</text></g><!--reverse link Vehicle to DB--><g id="link_Vehicle_DB"><path codeLine="88" d="M1101.25,473.1647 C1101.25,473.1647 1101.25,213.5547 1101.25,213.5547 C1101.25,213.5547 1028.27,213.5547 988.36,213.5547 " fill="none" id="Vehicle-backto-DB" style="stroke:#10BB10;stroke-width:1.0;"/><polygon fill="#10BB10" points="1101.25,486.1647,1105.25,480.1647,1101.25,474.1647,1097.25,480.1647,1101.25,486.1647" style="stroke:#10BB10;stroke-width:1.0;"/></g><!--SRC=[xLZVJ-9047xdhvZeWqaJUdWF9cV41q1pzs8kCNVc0iIixG0RjxjaTy4VT_xlDorjGK7R0gKyg8RKTcQ-Rtxqcopcdiinqom0mINQfp62qdQaQfPRWN1c-3EUVcsSNpooO2pGk2tcTz3meGJ7CPpkyG57tt60IPzk3RMQZD67CMgGB40pPXuwpjcNCD1vJIgBSF17JJGmZUJ3nDCpbyFJdjmGeITxijcyvCAYRZPxaZ30On8ymRrxG6v7P4yVSny3FQaq6J1ZPdTXGFyFeX34ARGE8b2wuBedVQxHi-3Z6AMFqkD4TWPxZI9yeaAG4Do1bTduQ1aNsRbGDG2WsrqEKlSv6rAtwaceUXoYJY7gQGZNJ8VzViZZSY84n4w5wfbm652057NkdeNxNGMOXE1KhKTtP0FHxny0Ct0f5BDKuIkQXbhgdDPi8VE2oF1tHRY55dnOqgr0k6scuxihqHQU5mUcQWAxCrOp6hRPt7w8u7PQMIJ8f2YFmoSKGZt4V5wAiwBBJ5fqkNDUlt74lUo-9NQRyZjggu2abrwzgWOA7aWMWIfZWGGiG4aIDe2O7RI5Cg4CCbAGiSOfLnDpQoPtjscSMy79TSx-Iac4E_JOn62eex706sw0_WPSSZD2trs8FVUTfr5xMMcGPlpEywGqzFXJKhOD75x-PDgQF2zkPBYUkXLNaWZCxMW-HPsRN6o_sHkSQCowd6z6Y29_GMFxQZbtbD85A4VcrJA-HbPWQcVccpCkhEqxUC7UL_kAz3vAunqr_rm7UxqERcYsHpGVU27feCWnUsoNF7Qo89PGtLycnvvOxLQ9a2rJQK-CfTFLEbaahlkI2Lih2ROl_7_8gU8Uhf53xBalVQ1b9HYNrgpJZjIvYhLPXH3jro9TocS76nMEmCdt0wNPXXJ3OTSecELA6i37w2MWwHbe5SoPdvBjXpDHo_mMnUqUdZHE6grMtprVR-N0AT0z0oLZfSjXLtXiPr29skugixaebe9OMkNU7ehB1ObFiILd4XqxoyMO7HHpOhojyTc_UlUGzbQ_dWsN7HeSYdPCz8yRUGA-QiHseoTVYMutAdKeHy3I1oK48TBV6k5llrxEf2GLB5YUBMwtb7Z1cTvsGr-DQJd1P-ql9_QiwnMsSMb5_GS0]--></g></svg>