<?xml version="1.0" encoding="us-ascii" standalone="no"?><svg xmlns="http://www.w3.org/2000/svg" xmlns:xlink="http://www.w3.org/1999/xlink" contentStyleType="text/css" height="589px" preserveAspectRatio="none" style="width:1508px;height:589px;background:#FFFFFF;" version="1.1" viewBox="0 0 1508 589" width="1508px" zoomAndPan="magnify"><defs/><g><text fill="#000000" font-family="sans-serif" font-size="20" font-weight="bold" lengthAdjust="spacing" textLength="628" x="227" y="29.3359">Examples.BetterDesign.Repository.CarExample.DBWarehouse</text><text fill="#000000" font-family="sans-serif" font-size="20" font-weight="bold" lengthAdjust="spacing" textLength="104" x="862" y="29.3359">simplified</text><text fill="#000000" font-family="sans-serif" font-size="20" font-weight="bold" lengthAdjust="spacing" textLength="38" x="973" y="29.3359">and</text><text fill="#000000" font-family="sans-serif" font-size="20" font-weight="bold" lengthAdjust="spacing" textLength="249" x="1018" y="29.3359">grouped per namespace</text><!--cluster Examples--><g id="cluster_Examples"><a href="Examples-diagram-simplified-grouped-per-namespace.svg" target="_top" title="Examples-diagram-simplified-grouped-per-namespace.svg" xlink:actuate="onRequest" xlink:href="Examples-diagram-simplified-grouped-per-namespace.svg" xlink:show="new" xlink:title="Examples-diagram-simplified-grouped-per-namespace.svg" xlink:type="simple"><path d="M754.5,50.5547 L823.5,50.5547 A3.75,3.75 0 0 1 826,53.0547 L833,73.043 L1498.5,73.043 A2.5,2.5 0 0 1 1501,75.543 L1501,580.0547 A2.5,2.5 0 0 1 1498.5,582.5547 L754.5,582.5547 A2.5,2.5 0 0 1 752,580.0547 L752,53.0547 A2.5,2.5 0 0 1 754.5,50.5547 " fill="none" style="stroke:#000000;stroke-width:1.5;"/><line style="stroke:#000000;stroke-width:1.5;" x1="752" x2="833" y1="73.043" y2="73.043"/><text fill="#000000" font-family="sans-serif" font-size="14" font-weight="bold" lengthAdjust="spacing" textLength="68" x="756" y="66.0898">Examples</text></a></g><!--cluster BetterDesign--><g id="cluster_BetterDesign"><a href="Examples.BetterDesign-diagram-simplified-grouped-per-namespace.svg" target="_top" title="Examples.BetterDesign-diagram-simplified-grouped-per-namespace.svg" xlink:actuate="onRequest" xlink:href="Examples.BetterDesign-diagram-simplified-grouped-per-namespace.svg" xlink:show="new" xlink:title="Examples.BetterDesign-diagram-simplified-grouped-per-namespace.svg" xlink:type="simple"><path d="M778.5,93.5547 L872.5,93.5547 A3.75,3.75 0 0 1 875,96.0547 L882,116.043 L1474.5,116.043 A2.5,2.5 0 0 1 1477,118.543 L1477,556.0547 A2.5,2.5 0 0 1 1474.5,558.5547 L778.5,558.5547 A2.5,2.5 0 0 1 776,556.0547 L776,96.0547 A2.5,2.5 0 0 1 778.5,93.5547 " fill="none" style="stroke:#000000;stroke-width:1.5;"/><line style="stroke:#000000;stroke-width:1.5;" x1="776" x2="882" y1="116.043" y2="116.043"/><text fill="#000000" font-family="sans-serif" font-size="14" font-weight="bold" lengthAdjust="spacing" textLength="93" x="780" y="109.0898">BetterDesign</text></a></g><!--cluster Repository--><g id="cluster_Repository"><a href="Examples.BetterDesign.Repository-diagram-simplified-grouped-per-namespace.svg" target="_top" title="Examples.BetterDesign.Repository-diagram-simplified-grouped-per-namespace.svg" xlink:actuate="onRequest" xlink:href="Examples.BetterDesign.Repository-diagram-simplified-grouped-per-namespace.svg" xlink:show="new" xlink:title="Examples.BetterDesign.Repository-diagram-simplified-grouped-per-namespace.svg" xlink:type="simple"><path d="M802.5,136.5547 L881.5,136.5547 A3.75,3.75 0 0 1 884,139.0547 L891,159.043 L1450.5,159.043 A2.5,2.5 0 0 1 1453,161.543 L1453,532.0547 A2.5,2.5 0 0 1 1450.5,534.5547 L802.5,534.5547 A2.5,2.5 0 0 1 800,532.0547 L800,139.0547 A2.5,2.5 0 0 1 802.5,136.5547 " fill="none" style="stroke:#000000;stroke-width:1.5;"/><line style="stroke:#000000;stroke-width:1.5;" x1="800" x2="891" y1="159.043" y2="159.043"/><text fill="#000000" font-family="sans-serif" font-size="14" font-weight="bold" lengthAdjust="spacing" textLength="78" x="804" y="152.0898">Repository</text></a></g><!--cluster CarExample--><g id="cluster_CarExample"><a href="Examples.BetterDesign.Repository.CarExample-diagram-simplified-grouped-per-namespace.svg" target="_top" title="Examples.BetterDesign.Repository.CarExample-diagram-simplified-grouped-per-namespace.svg" xlink:actuate="onRequest" xlink:href="Examples.BetterDesign.Repository.CarExample-diagram-simplified-grouped-per-namespace.svg" xlink:show="new" xlink:title="Examples.BetterDesign.Repository.CarExample-diagram-simplified-grouped-per-namespace.svg" xlink:type="simple"><path d="M826.5,179.5547 L911.5,179.5547 A3.75,3.75 0 0 1 914,182.0547 L921,202.043 L1426.5,202.043 A2.5,2.5 0 0 1 1429,204.543 L1429,508.0547 A2.5,2.5 0 0 1 1426.5,510.5547 L826.5,510.5547 A2.5,2.5 0 0 1 824,508.0547 L824,182.0547 A2.5,2.5 0 0 1 826.5,179.5547 " fill="none" style="stroke:#000000;stroke-width:1.5;"/><line style="stroke:#000000;stroke-width:1.5;" x1="824" x2="921" y1="202.043" y2="202.043"/><text fill="#000000" font-family="sans-serif" font-size="14" font-weight="bold" lengthAdjust="spacing" textLength="84" x="828" y="195.0898">CarExample</text></a></g><!--cluster WarehouseEntities--><g id="cluster_WarehouseEntities"><a href="Examples.BetterDesign.Repository.CarExample.WarehouseEntities-diagram-simplified-grouped-per-namespace.svg" target="_top" title="Examples.BetterDesign.Repository.CarExample.WarehouseEntities-diagram-simplified-grouped-per-namespace.svg" xlink:actuate="onRequest" xlink:href="Examples.BetterDesign.Repository.CarExample.WarehouseEntities-diagram-simplified-grouped-per-namespace.svg" xlink:show="new" xlink:title="Examples.BetterDesign.Repository.CarExample.WarehouseEntities-diagram-simplified-grouped-per-namespace.svg" xlink:type="simple"><path d="M917.5,387.5547 L1051.5,387.5547 A3.75,3.75 0 0 1 1054,390.0547 L1061,410.043 L1402.5,410.043 A2.5,2.5 0 0 1 1405,412.543 L1405,484.0547 A2.5,2.5 0 0 1 1402.5,486.5547 L917.5,486.5547 A2.5,2.5 0 0 1 915,484.0547 L915,390.0547 A2.5,2.5 0 0 1 917.5,387.5547 " fill="none" style="stroke:#000000;stroke-width:1.5;"/><line style="stroke:#000000;stroke-width:1.5;" x1="915" x2="1061" y1="410.043" y2="410.043"/><text fill="#000000" font-family="sans-serif" font-size="14" font-weight="bold" lengthAdjust="spacing" textLength="133" x="919" y="403.0898">WarehouseEntities</text></a></g><!--class DBWarehouse--><a href="Examples.BetterDesign.Repository.CarExample.DBWarehouse-diagram-simplified-grouped-per-namespace.svg" target="_top" title="Examples.BetterDesign.Repository.CarExample.DBWarehouse-diagram-simplified-grouped-per-namespace.svg" xlink:actuate="onRequest" xlink:href="Examples.BetterDesign.Repository.CarExample.DBWarehouse-diagram-simplified-grouped-per-namespace.svg" xlink:show="new" xlink:title="Examples.BetterDesign.Repository.CarExample.DBWarehouse-diagram-simplified-grouped-per-namespace.svg" xlink:type="simple"><g id="elem_DBWarehouse"><rect codeLine="8" fill="#FFFF00" height="48" id="DBWarehouse" rx="2.5" ry="2.5" style="stroke:#181818;stroke-width:0.5;" width="126" x="1016" y="214.5547"/><ellipse cx="1031" cy="230.5547" fill="#A9DCDF" rx="11" ry="11" style="stroke:#181818;stroke-width:1.0;"/><path d="M1030.8633,225.9028 L1029.7095,230.9746 L1032.0254,230.9746 Z M1029.3691,223.6616 L1032.3657,223.6616 L1035.7109,236.0547 L1033.2622,236.0547 L1032.4985,232.9917 L1029.2197,232.9917 L1028.4727,236.0547 L1026.0239,236.0547 Z " fill="#000000"/><text fill="#000000" font-family="sans-serif" font-size="14" font-style="italic" lengthAdjust="spacing" textLength="94" x="1045" y="235.8457">DBWarehouse</text><line style="stroke:#181818;stroke-width:0.5;" x1="1017" x2="1141" y1="246.5547" y2="246.5547"/><line style="stroke:#181818;stroke-width:0.5;" x1="1017" x2="1141" y1="254.5547" y2="254.5547"/></g></a><!--class Car--><a href="Examples.BetterDesign.Repository.CarExample.Car-diagram-simplified-grouped-per-namespace.svg" target="_top" title="Examples.BetterDesign.Repository.CarExample.Car-diagram-simplified-grouped-per-namespace.svg" xlink:actuate="onRequest" xlink:href="Examples.BetterDesign.Repository.CarExample.Car-diagram-simplified-grouped-per-namespace.svg" xlink:show="new" xlink:title="Examples.BetterDesign.Repository.CarExample.Car-diagram-simplified-grouped-per-namespace.svg" xlink:type="simple"><g id="elem_Car"><rect codeLine="10" fill="#F1F1F1" height="48" id="Car" rx="2.5" ry="2.5" style="stroke:#181818;stroke-width:0.5;" width="56" x="840" y="422.5547"/><ellipse cx="855" cy="438.5547" fill="#A9DCDF" rx="11" ry="11" style="stroke:#181818;stroke-width:1.0;"/><path d="M854.8633,433.9028 L853.7095,438.9746 L856.0254,438.9746 Z M853.3691,431.6616 L856.3657,431.6616 L859.7109,444.0547 L857.2622,444.0547 L856.4985,440.9917 L853.2197,440.9917 L852.4727,444.0547 L850.0239,444.0547 Z " fill="#000000"/><text fill="#000000" font-family="sans-serif" font-size="14" font-style="italic" lengthAdjust="spacing" textLength="24" x="869" y="443.8457">Car</text><line style="stroke:#181818;stroke-width:0.5;" x1="841" x2="895" y1="454.5547" y2="454.5547"/><line style="stroke:#181818;stroke-width:0.5;" x1="841" x2="895" y1="462.5547" y2="462.5547"/></g></a><!--class Invoice--><a href="Examples.BetterDesign.Repository.CarExample.WarehouseEntities.Invoice-diagram-simplified-grouped-per-namespace.svg" target="_top" title="Examples.BetterDesign.Repository.CarExample.WarehouseEntities.Invoice-diagram-simplified-grouped-per-namespace.svg" xlink:actuate="onRequest" xlink:href="Examples.BetterDesign.Repository.CarExample.WarehouseEntities.Invoice-diagram-simplified-grouped-per-namespace.svg" xlink:show="new" xlink:title="Examples.BetterDesign.Repository.CarExample.WarehouseEntities.Invoice-diagram-simplified-grouped-per-namespace.svg" xlink:type="simple"><g id="elem_Invoice"><rect codeLine="27" fill="#F1F1F1" height="48" id="Invoice" rx="2.5" ry="2.5" style="stroke:#181818;stroke-width:0.5;" width="80" x="1309" y="422.5547"/><ellipse cx="1324" cy="438.5547" fill="#A9DCDF" rx="11" ry="11" style="stroke:#181818;stroke-width:1.0;"/><path d="M1323.8633,433.9028 L1322.7095,438.9746 L1325.0254,438.9746 Z M1322.3691,431.6616 L1325.3657,431.6616 L1328.7109,444.0547 L1326.2622,444.0547 L1325.4985,440.9917 L1322.2197,440.9917 L1321.4727,444.0547 L1319.0239,444.0547 Z " fill="#000000"/><text fill="#000000" font-family="sans-serif" font-size="14" font-style="italic" lengthAdjust="spacing" textLength="48" x="1338" y="443.8457">Invoice</text><line style="stroke:#181818;stroke-width:0.5;" x1="1310" x2="1388" y1="454.5547" y2="454.5547"/><line style="stroke:#181818;stroke-width:0.5;" x1="1310" x2="1388" y1="462.5547" y2="462.5547"/></g></a><!--class Complaints--><a href="Examples.BetterDesign.Repository.CarExample.WarehouseEntities.Complaints-diagram-simplified-grouped-per-namespace.svg" target="_top" title="Examples.BetterDesign.Repository.CarExample.WarehouseEntities.Complaints-diagram-simplified-grouped-per-namespace.svg" xlink:actuate="onRequest" xlink:href="Examples.BetterDesign.Repository.CarExample.WarehouseEntities.Complaints-diagram-simplified-grouped-per-namespace.svg" xlink:show="new" xlink:title="Examples.BetterDesign.Repository.CarExample.WarehouseEntities.Complaints-diagram-simplified-grouped-per-namespace.svg" xlink:type="simple"><g id="elem_Complaints"><rect codeLine="29" fill="#F1F1F1" height="48" id="Complaints" rx="2.5" ry="2.5" style="stroke:#181818;stroke-width:0.5;" width="110" x="1164" y="422.5547"/><ellipse cx="1179" cy="438.5547" fill="#A9DCDF" rx="11" ry="11" style="stroke:#181818;stroke-width:1.0;"/><path d="M1178.8633,433.9028 L1177.7095,438.9746 L1180.0254,438.9746 Z M1177.3691,431.6616 L1180.3657,431.6616 L1183.7109,444.0547 L1181.2622,444.0547 L1180.4985,440.9917 L1177.2197,440.9917 L1176.4727,444.0547 L1174.0239,444.0547 Z " fill="#000000"/><text fill="#000000" font-family="sans-serif" font-size="14" font-style="italic" lengthAdjust="spacing" textLength="78" x="1193" y="443.8457">Complaints</text><line style="stroke:#181818;stroke-width:0.5;" x1="1165" x2="1273" y1="454.5547" y2="454.5547"/><line style="stroke:#181818;stroke-width:0.5;" x1="1165" x2="1273" y1="462.5547" y2="462.5547"/></g></a><!--class Customer--><a href="Examples.BetterDesign.Repository.CarExample.WarehouseEntities.Customer-diagram-simplified-grouped-per-namespace.svg" target="_top" title="Examples.BetterDesign.Repository.CarExample.WarehouseEntities.Customer-diagram-simplified-grouped-per-namespace.svg" xlink:actuate="onRequest" xlink:href="Examples.BetterDesign.Repository.CarExample.WarehouseEntities.Customer-diagram-simplified-grouped-per-namespace.svg" xlink:show="new" xlink:title="Examples.BetterDesign.Repository.CarExample.WarehouseEntities.Customer-diagram-simplified-grouped-per-namespace.svg" xlink:type="simple"><g id="elem_Customer"><rect codeLine="31" fill="#F1F1F1" height="48" id="Customer" rx="2.5" ry="2.5" style="stroke:#181818;stroke-width:0.5;" width="99" x="1029.5" y="422.5547"/><ellipse cx="1044.5" cy="438.5547" fill="#A9DCDF" rx="11" ry="11" style="stroke:#181818;stroke-width:1.0;"/><path d="M1044.3633,433.9028 L1043.2095,438.9746 L1045.5254,438.9746 Z M1042.8691,431.6616 L1045.8657,431.6616 L1049.2109,444.0547 L1046.7622,444.0547 L1045.9985,440.9917 L1042.7197,440.9917 L1041.9727,444.0547 L1039.5239,444.0547 Z " fill="#000000"/><text fill="#000000" font-family="sans-serif" font-size="14" font-style="italic" lengthAdjust="spacing" textLength="67" x="1058.5" y="443.8457">Customer</text><line style="stroke:#181818;stroke-width:0.5;" x1="1030.5" x2="1127.5" y1="454.5547" y2="454.5547"/><line style="stroke:#181818;stroke-width:0.5;" x1="1030.5" x2="1127.5" y1="462.5547" y2="462.5547"/></g></a><!--class User--><a href="Examples.BetterDesign.Repository.CarExample.WarehouseEntities.User-diagram-simplified-grouped-per-namespace.svg" target="_top" title="Examples.BetterDesign.Repository.CarExample.WarehouseEntities.User-diagram-simplified-grouped-per-namespace.svg" xlink:actuate="onRequest" xlink:href="Examples.BetterDesign.Repository.CarExample.WarehouseEntities.User-diagram-simplified-grouped-per-namespace.svg" xlink:show="new" xlink:title="Examples.BetterDesign.Repository.CarExample.WarehouseEntities.User-diagram-simplified-grouped-per-namespace.svg" xlink:type="simple"><g id="elem_User"><rect codeLine="33" fill="#F1F1F1" height="48" id="User" rx="2.5" ry="2.5" style="stroke:#181818;stroke-width:0.5;" width="63" x="931.5" y="422.5547"/><ellipse cx="946.5" cy="438.5547" fill="#A9DCDF" rx="11" ry="11" style="stroke:#181818;stroke-width:1.0;"/><path d="M946.3633,433.9028 L945.2095,438.9746 L947.5254,438.9746 Z M944.8691,431.6616 L947.8657,431.6616 L951.2109,444.0547 L948.7622,444.0547 L947.9985,440.9917 L944.7197,440.9917 L943.9727,444.0547 L941.5239,444.0547 Z " fill="#000000"/><text fill="#000000" font-family="sans-serif" font-size="14" font-style="italic" lengthAdjust="spacing" textLength="31" x="960.5" y="443.8457">User</text><line style="stroke:#181818;stroke-width:0.5;" x1="932.5" x2="993.5" y1="454.5547" y2="454.5547"/><line style="stroke:#181818;stroke-width:0.5;" x1="932.5" x2="993.5" y1="462.5547" y2="462.5547"/></g></a><g id="elem_FloatingNote"><path d="M6,114.5547 L6,362.2129 L736,362.2129 L736,124.5547 L726,114.5547 L6,114.5547 " fill="#FEFFDD" style="stroke:#181818;stroke-width:0.5;"/><path d="M726,114.5547 L726,124.5547 L736,124.5547 L726,114.5547 " fill="#FEFFDD" style="stroke:#181818;stroke-width:1.0;"/><text fill="#000000" font-family="sans-serif" font-size="13" lengthAdjust="spacing" textLength="120" x="12" y="132.123">Your are analyzing:</text><text fill="#000000" font-family="sans-serif" font-size="13" lengthAdjust="spacing" textLength="382" x="12" y="147.4336">Examples.BetterDesign.Repository.CarExample.DBWarehouse</text><text fill="#000000" font-family="sans-serif" font-size="13" font-weight="bold" lengthAdjust="spacing" textLength="67" x="398" y="147.4336">simplified</text><text fill="#000000" font-family="sans-serif" font-size="13" lengthAdjust="spacing" textLength="23" x="469" y="147.4336">and</text><text fill="#000000" font-family="sans-serif" font-size="13" font-weight="bold" lengthAdjust="spacing" textLength="166" x="496" y="147.4336">grouped per namespace</text><text fill="#000000" font-family="sans-serif" font-size="13" lengthAdjust="spacing" textLength="4" x="12" y="162.7441">&#160;</text><text fill="#000000" font-family="sans-serif" font-size="13" lengthAdjust="spacing" textLength="229" x="12" y="193.3652">You can click either the namespaces</text><text fill="#000000" font-family="sans-serif" font-size="13" lengthAdjust="spacing" textLength="266" x="12" y="208.6758">or class names for filtering them and their</text><text fill="#000000" font-family="sans-serif" font-size="13" lengthAdjust="spacing" textLength="130" x="12" y="223.9863">direct dependencies.</text><text fill="#000000" font-family="sans-serif" font-size="13" lengthAdjust="spacing" textLength="4" x="12" y="239.2969">&#160;</text><line style="stroke:#181818;stroke-width:1.0;" x1="7" x2="355" y1="173.1416" y2="173.1416"/><line style="stroke:#181818;stroke-width:1.0;" x1="7" x2="355" y1="175.1416" y2="175.1416"/><text fill="#000000" font-family="sans-serif" font-size="13" lengthAdjust="spacing" textLength="32" x="355" y="177.5547">Filter</text><line style="stroke:#181818;stroke-width:1.0;" x1="387" x2="735" y1="173.1416" y2="173.1416"/><line style="stroke:#181818;stroke-width:1.0;" x1="387" x2="735" y1="175.1416" y2="175.1416"/><ellipse cx="17.5" cy="269.1602" fill="#000000" rx="2.5" ry="2.5" style="stroke:#000000;stroke-width:0.0;"/><text fill="#000000" font-family="sans-serif" font-size="13" lengthAdjust="spacing" textLength="382" x="24" y="273.918">Examples.BetterDesign.Repository.CarExample.DBWarehouse</text><text fill="#000000" font-family="sans-serif" font-size="13" font-weight="bold" lengthAdjust="spacing" textLength="55" x="410" y="273.918">detailed</text><text fill="#000000" font-family="sans-serif" font-size="13" lengthAdjust="spacing" textLength="23" x="469" y="273.918">and</text><text fill="#000000" font-family="sans-serif" font-size="13" font-weight="bold" lengthAdjust="spacing" textLength="166" x="496" y="273.918">grouped per namespace</text><text fill="#000000" font-family="sans-serif" font-size="13" lengthAdjust="spacing" textLength="4" x="662" y="273.918">:</text><text fill="#000000" font-family="sans-serif" font-size="13" lengthAdjust="spacing" textLength="12" x="12" y="289.2285">&#160;&#160;&#160;</text><a href="Examples.BetterDesign.Repository.CarExample.DBWarehouse-diagram-detailed-grouped-per-namespace.svg" target="_top" title="Examples.BetterDesign.Repository.CarExample.DBWarehouse-diagram-detailed-grouped-per-namespace.svg" xlink:actuate="onRequest" xlink:href="Examples.BetterDesign.Repository.CarExample.DBWarehouse-diagram-detailed-grouped-per-namespace.svg" xlink:show="new" xlink:title="Examples.BetterDesign.Repository.CarExample.DBWarehouse-diagram-detailed-grouped-per-namespace.svg" xlink:type="simple"><text fill="#0000FF" font-family="sans-serif" font-size="13" lengthAdjust="spacing" text-decoration="underline" textLength="691" x="24" y="289.2285">Examples.BetterDesign.Repository.CarExample.DBWarehouse-diagram-detailed-grouped-per-namespace.svg</text></a><ellipse cx="17.5" cy="299.7813" fill="#000000" rx="2.5" ry="2.5" style="stroke:#000000;stroke-width:0.0;"/><text fill="#000000" font-family="sans-serif" font-size="13" lengthAdjust="spacing" textLength="78" x="24" y="304.5391">Full diagram</text><text fill="#000000" font-family="sans-serif" font-size="13" font-weight="bold" lengthAdjust="spacing" textLength="67" x="106" y="304.5391">simplified</text><text fill="#000000" font-family="sans-serif" font-size="13" lengthAdjust="spacing" textLength="23" x="177" y="304.5391">and</text><text fill="#000000" font-family="sans-serif" font-size="13" font-weight="bold" lengthAdjust="spacing" textLength="166" x="204" y="304.5391">grouped per namespace</text><text fill="#000000" font-family="sans-serif" font-size="13" lengthAdjust="spacing" textLength="4" x="370" y="304.5391">:</text><text fill="#000000" font-family="sans-serif" font-size="13" lengthAdjust="spacing" textLength="12" x="12" y="319.8496">&#160;&#160;&#160;</text><a href="full-diagram-simplified-grouped-per-namespace.svg" target="_top" title="full-diagram-simplified-grouped-per-namespace.svg" xlink:actuate="onRequest" xlink:href="full-diagram-simplified-grouped-per-namespace.svg" xlink:show="new" xlink:title="full-diagram-simplified-grouped-per-namespace.svg" xlink:type="simple"><text fill="#0000FF" font-family="sans-serif" font-size="13" lengthAdjust="spacing" text-decoration="underline" textLength="343" x="24" y="319.8496">full-diagram-simplified-grouped-per-namespace.svg</text></a><ellipse cx="17.5" cy="330.4023" fill="#000000" rx="2.5" ry="2.5" style="stroke:#000000;stroke-width:0.0;"/><text fill="#000000" font-family="sans-serif" font-size="13" lengthAdjust="spacing" textLength="41" x="24" y="335.1602">Home:</text><text fill="#000000" font-family="sans-serif" font-size="13" lengthAdjust="spacing" textLength="12" x="12" y="350.4707">&#160;&#160;&#160;</text><a href="index.html" target="_top" title="index.html" xlink:actuate="onRequest" xlink:href="index.html" xlink:show="new" xlink:title="index.html" xlink:type="simple"><text fill="#0000FF" font-family="sans-serif" font-size="13" lengthAdjust="spacing" text-decoration="underline" textLength="68" x="24" y="350.4707">index.html</text></a><line style="stroke:#181818;stroke-width:1.0;" x1="7" x2="334" y1="253.6943" y2="253.6943"/><line style="stroke:#181818;stroke-width:1.0;" x1="7" x2="334" y1="255.6943" y2="255.6943"/><text fill="#000000" font-family="sans-serif" font-size="13" lengthAdjust="spacing" textLength="74" x="334" y="258.1074">Select other</text><line style="stroke:#181818;stroke-width:1.0;" x1="408" x2="735" y1="253.6943" y2="253.6943"/><line style="stroke:#181818;stroke-width:1.0;" x1="408" x2="735" y1="255.6943" y2="255.6943"/></g><!--link DBWarehouse to Invoice--><g id="link_DBWarehouse_Invoice"><path codeLine="52" d="M1142.3,238.5547 C1222.11,238.5547 1349,238.5547 1349,238.5547 C1349,238.5547 1349,416.2847 1349,416.2847 " fill="none" id="DBWarehouse-to-Invoice" style="stroke:#6060BB;stroke-width:1.0;stroke-dasharray:7.0,7.0;"/><polygon fill="#6060BB" points="1349,421.2847,1353,412.2847,1349,416.2847,1345,412.2847,1349,421.2847" style="stroke:#6060BB;stroke-width:1.0;"/><text fill="#000000" font-family="sans-serif" font-size="13" lengthAdjust="spacing" textLength="29" x="1304.52" y="235.123">uses</text></g><!--link DBWarehouse to Complaints--><g id="link_DBWarehouse_Complaints"><path codeLine="53" d="M1135.25,262.8247 C1135.25,317.6947 1135.25,446.5547 1135.25,446.5547 C1135.25,446.5547 1157.6,446.5547 1157.6,446.5547 " fill="none" id="DBWarehouse-to-Complaints" style="stroke:#6060BB;stroke-width:1.0;stroke-dasharray:7.0,7.0;"/><polygon fill="#6060BB" points="1162.6,446.5547,1153.6,442.5547,1157.6,446.5547,1153.6,450.5547,1162.6,446.5547" style="stroke:#6060BB;stroke-width:1.0;"/><text fill="#000000" font-family="sans-serif" font-size="13" lengthAdjust="spacing" textLength="29" x="1105.25" y="362.433">uses</text></g><!--link DBWarehouse to Customer--><g id="link_DBWarehouse_Customer"><path codeLine="54" d="M1079,262.8247 C1079,262.8247 1079,416.1247 1079,416.1247 " fill="none" id="DBWarehouse-to-Customer" style="stroke:#6060BB;stroke-width:1.0;stroke-dasharray:7.0,7.0;"/><polygon fill="#6060BB" points="1079,421.1247,1083,412.1247,1079,416.1247,1075,412.1247,1079,421.1247" style="stroke:#6060BB;stroke-width:1.0;"/><text fill="#000000" font-family="sans-serif" font-size="13" lengthAdjust="spacing" textLength="29" x="1049" y="336.043">uses</text></g><!--link DBWarehouse to Car--><g id="link_DBWarehouse_Car"><path codeLine="55" d="M1015.69,238.5547 C953.54,238.5547 868,238.5547 868,238.5547 C868,238.5547 868,416.2847 868,416.2847 " fill="none" id="DBWarehouse-to-Car" style="stroke:#6060BB;stroke-width:1.0;stroke-dasharray:7.0,7.0;"/><polygon fill="#6060BB" points="868,421.2847,872,412.2847,868,416.2847,864,412.2847,868,421.2847" style="stroke:#6060BB;stroke-width:1.0;"/><text fill="#000000" font-family="sans-serif" font-size="13" lengthAdjust="spacing" textLength="29" x="838" y="250.143">uses</text></g><!--link DBWarehouse to User--><g id="link_DBWarehouse_User"><path codeLine="56" d="M1022.75,262.8247 C1022.75,317.6947 1022.75,446.5547 1022.75,446.5547 C1022.75,446.5547 1000.97,446.5547 1000.97,446.5547 " fill="none" id="DBWarehouse-to-User" style="stroke:#6060BB;stroke-width:1.0;stroke-dasharray:7.0,7.0;"/><polygon fill="#6060BB" points="995.97,446.5547,1004.97,450.5547,1000.97,446.5547,1004.97,442.5547,995.97,446.5547" style="stroke:#6060BB;stroke-width:1.0;"/><text fill="#000000" font-family="sans-serif" font-size="13" lengthAdjust="spacing" textLength="29" x="992.75" y="362.143">uses</text></g><!--SRC=[xLTDJzj04BtdLupWW6GfBkg1GqGu18ZQ2uTMLLN54LhiSJ9YlMljRe1GyTyxpeTj12cndO1LDOeYPpqxxytip1lRtf9AXH49I5BevYc2DcwgEuwSH3Yrz8YzpyTdbmyYIILQVu3EeRb0InFbVyDKMtBQpFrpOLOs_iNWfp0urJEBu7cMU95YmiZpGAY8boP6prAC84K3IYHeKn6Yvvr-oj3EEaexX8DVUcQ0_V0U8UUFf2QzGBq7ZK05gjyVacI0VZzGJ0H2eI2K5Du2afkoFVyKUom4IXis4DOkLo7c__721HFFh9C5A5-G2LH41aC74QQe8bGXSKHBsEyeipiw0yd0FQWVSeHEa7mxOCuh08n6DP6w4Oa9Lr1tZTTTuNGPfvlZ-FPkCXvd4GrdKi9gKwMJMHEDsK6EMcn_2_UBJd3jWZZl3_xK9N8yFW1XOIYrS7nMLrnydNnpdlrIUYeYm-zNt3rByQRKxnoeT9PR7FS-uKkbLAtmgfE2nKVSM6S4TzQoIUisLVCcsPBtuHobrFSv_wVcSV1bHVvyMPLtYV3HkKvuj70Rjx4ku9w573Y93bXo4rGikZ7atE5SCWXBjs2jIWtU4P_YjPtTNEUUhYNnvYAsAwqGRZ0KMQ6mzgycboKB_8r9aPrYv9Ty5tkBG3fFhneKGMymAATeWyawdNpxly3zEm9NYvIVAzEbuaSzUbO0jVRNLUP6clQ2XVzLtMaAiMaqQp-rzQ-Gx1q7cAcg5AHSunChkMfXc3Fh-7dDD0zovQXz8VwmEmWlSz8ej8PZkWL2yhTH_X73_4L46-RnUmzzEE9Ngwq-i3VRZ6BMEGOblsvfPG4V5Xt5zHSRdHJCUsnReOuwTH_f_T7XoV79yM0mzizsD7kW1xnieGsSIkEYLRJMylvnfBBteJQbP34ESa9xQvINo7y0]--></g></svg>