<?xml version="1.0" encoding="us-ascii" standalone="no"?><svg xmlns="http://www.w3.org/2000/svg" xmlns:xlink="http://www.w3.org/1999/xlink" contentStyleType="text/css" height="606px" preserveAspectRatio="none" style="width:1151px;height:606px;background:#FFFFFF;" version="1.1" viewBox="0 0 1151 606" width="1151px" zoomAndPan="magnify"><defs/><g><text fill="#000000" font-family="sans-serif" font-size="20" font-weight="bold" lengthAdjust="spacing" textLength="380" x="319.75" y="29.3359">Examples.BadDesign.CarExample.Car</text><text fill="#000000" font-family="sans-serif" font-size="20" font-weight="bold" lengthAdjust="spacing" textLength="104" x="706.75" y="29.3359">simplified</text><text fill="#000000" font-family="sans-serif" font-size="20" font-weight="bold" lengthAdjust="spacing" textLength="7" x="810.75" y="29.3359">&#160;</text><!--cluster Examples--><g id="cluster_Examples"><path d="M440,50.5547 L509,50.5547 A3.75,3.75 0 0 1 511.5,53.0547 L518.5,73.043 L1142,73.043 A2.5,2.5 0 0 1 1144.5,75.543 L1144.5,597.0547 A2.5,2.5 0 0 1 1142,599.5547 L440,599.5547 A2.5,2.5 0 0 1 437.5,597.0547 L437.5,53.0547 A2.5,2.5 0 0 1 440,50.5547 " fill="none" style="stroke:#000000;stroke-width:1.5;"/><line style="stroke:#000000;stroke-width:1.5;" x1="437.5" x2="518.5" y1="73.043" y2="73.043"/><text fill="#000000" font-family="sans-serif" font-size="14" font-weight="bold" lengthAdjust="spacing" textLength="68" x="441.5" y="66.0898">Examples</text></g><!--cluster BadDesign--><g id="cluster_BadDesign"><path d="M464,93.5547 L541,93.5547 A3.75,3.75 0 0 1 543.5,96.0547 L550.5,116.043 L1118,116.043 A2.5,2.5 0 0 1 1120.5,118.543 L1120.5,573.0547 A2.5,2.5 0 0 1 1118,575.5547 L464,575.5547 A2.5,2.5 0 0 1 461.5,573.0547 L461.5,96.0547 A2.5,2.5 0 0 1 464,93.5547 " fill="none" style="stroke:#000000;stroke-width:1.5;"/><line style="stroke:#000000;stroke-width:1.5;" x1="461.5" x2="550.5" y1="116.043" y2="116.043"/><text fill="#000000" font-family="sans-serif" font-size="14" font-weight="bold" lengthAdjust="spacing" textLength="76" x="465.5" y="109.0898">BadDesign</text></g><!--cluster CarExample--><g id="cluster_CarExample"><path d="M488,136.5547 L573,136.5547 A3.75,3.75 0 0 1 575.5,139.0547 L582.5,159.043 L1094,159.043 A2.5,2.5 0 0 1 1096.5,161.543 L1096.5,549.0547 A2.5,2.5 0 0 1 1094,551.5547 L488,551.5547 A2.5,2.5 0 0 1 485.5,549.0547 L485.5,139.0547 A2.5,2.5 0 0 1 488,136.5547 " fill="none" style="stroke:#000000;stroke-width:1.5;"/><line style="stroke:#000000;stroke-width:1.5;" x1="485.5" x2="582.5" y1="159.043" y2="159.043"/><text fill="#000000" font-family="sans-serif" font-size="14" font-weight="bold" lengthAdjust="spacing" textLength="84" x="489.5" y="152.0898">CarExample</text></g><!--cluster CarParts--><g id="cluster_CarParts"><path d="M642,344.5547 L704,344.5547 A3.75,3.75 0 0 1 706.5,347.0547 L713.5,367.043 L1070,367.043 A2.5,2.5 0 0 1 1072.5,369.543 L1072.5,441.0547 A2.5,2.5 0 0 1 1070,443.5547 L642,443.5547 A2.5,2.5 0 0 1 639.5,441.0547 L639.5,347.0547 A2.5,2.5 0 0 1 642,344.5547 " fill="none" style="stroke:#000000;stroke-width:1.5;"/><line style="stroke:#000000;stroke-width:1.5;" x1="639.5" x2="713.5" y1="367.043" y2="367.043"/><text fill="#000000" font-family="sans-serif" font-size="14" font-weight="bold" lengthAdjust="spacing" textLength="61" x="643.5" y="360.0898">CarParts</text></g><!--class Car--><a href="Examples.BadDesign.CarExample.Car-diagram-simplified.svg" target="_top" title="Examples.BadDesign.CarExample.Car-diagram-simplified.svg" xlink:actuate="onRequest" xlink:href="Examples.BadDesign.CarExample.Car-diagram-simplified.svg" xlink:show="new" xlink:title="Examples.BadDesign.CarExample.Car-diagram-simplified.svg" xlink:type="simple"><g id="elem_Car"><rect codeLine="4" fill="#FFFF00" height="48" id="Car" rx="2.5" ry="2.5" style="stroke:#181818;stroke-width:0.5;" width="56" x="661.5" y="171.5547"/><ellipse cx="676.5" cy="187.5547" fill="#A9DCDF" rx="11" ry="11" style="stroke:#181818;stroke-width:1.0;"/><path d="M676.3633,182.9028 L675.2095,187.9746 L677.5254,187.9746 Z M674.8691,180.6616 L677.8657,180.6616 L681.2109,193.0547 L678.7622,193.0547 L677.9985,189.9917 L674.7197,189.9917 L673.9727,193.0547 L671.5239,193.0547 Z " fill="#000000"/><text fill="#000000" font-family="sans-serif" font-size="14" font-style="italic" lengthAdjust="spacing" textLength="24" x="690.5" y="192.8457">Car</text><line style="stroke:#181818;stroke-width:0.5;" x1="662.5" x2="716.5" y1="203.5547" y2="203.5547"/><line style="stroke:#181818;stroke-width:0.5;" x1="662.5" x2="716.5" y1="211.5547" y2="211.5547"/></g></a><!--class Vehicle--><a href="Examples.BadDesign.CarExample.Vehicle-diagram-simplified.svg" target="_top" title="Examples.BadDesign.CarExample.Vehicle-diagram-simplified.svg" xlink:actuate="onRequest" xlink:href="Examples.BadDesign.CarExample.Vehicle-diagram-simplified.svg" xlink:show="new" xlink:title="Examples.BadDesign.CarExample.Vehicle-diagram-simplified.svg" xlink:type="simple"><g id="elem_Vehicle"><rect codeLine="6" fill="#F1F1F1" height="48" id="Vehicle" rx="2.5" ry="2.5" style="stroke:#181818;stroke-width:0.5;" width="81" x="502" y="379.5547"/><ellipse cx="517" cy="395.5547" fill="#A9DCDF" rx="11" ry="11" style="stroke:#181818;stroke-width:1.0;"/><path d="M516.8633,390.9028 L515.7095,395.9746 L518.0254,395.9746 Z M515.3691,388.6616 L518.3657,388.6616 L521.7109,401.0547 L519.2622,401.0547 L518.4985,397.9917 L515.2197,397.9917 L514.4727,401.0547 L512.0239,401.0547 Z " fill="#000000"/><text fill="#000000" font-family="sans-serif" font-size="14" font-style="italic" lengthAdjust="spacing" textLength="49" x="531" y="400.8457">Vehicle</text><line style="stroke:#181818;stroke-width:0.5;" x1="503" x2="582" y1="411.5547" y2="411.5547"/><line style="stroke:#181818;stroke-width:0.5;" x1="503" x2="582" y1="419.5547" y2="419.5547"/></g></a><!--class DB--><a href="Examples.BadDesign.CarExample.DB-diagram-simplified.svg" target="_top" title="Examples.BadDesign.CarExample.DB-diagram-simplified.svg" xlink:actuate="onRequest" xlink:href="Examples.BadDesign.CarExample.DB-diagram-simplified.svg" xlink:show="new" xlink:title="Examples.BadDesign.CarExample.DB-diagram-simplified.svg" xlink:type="simple"><g id="elem_DB"><rect codeLine="8" fill="#F1F1F1" height="48" id="DB" rx="2.5" ry="2.5" style="stroke:#181818;stroke-width:0.5;" width="50" x="717.5" y="487.5547"/><ellipse cx="732.5" cy="503.5547" fill="#A9DCDF" rx="11" ry="11" style="stroke:#181818;stroke-width:1.0;"/><path d="M732.3633,498.9028 L731.2095,503.9746 L733.5254,503.9746 Z M730.8691,496.6616 L733.8657,496.6616 L737.2109,509.0547 L734.7622,509.0547 L733.9985,505.9917 L730.7197,505.9917 L729.9727,509.0547 L727.5239,509.0547 Z " fill="#000000"/><text fill="#000000" font-family="sans-serif" font-size="14" font-style="italic" lengthAdjust="spacing" textLength="18" x="746.5" y="508.8457">DB</text><line style="stroke:#181818;stroke-width:0.5;" x1="718.5" x2="766.5" y1="519.5547" y2="519.5547"/><line style="stroke:#181818;stroke-width:0.5;" x1="718.5" x2="766.5" y1="527.5547" y2="527.5547"/></g></a><!--class Driver--><a href="Examples.BadDesign.CarExample.CarParts.Driver-diagram-simplified.svg" target="_top" title="Examples.BadDesign.CarExample.CarParts.Driver-diagram-simplified.svg" xlink:actuate="onRequest" xlink:href="Examples.BadDesign.CarExample.CarParts.Driver-diagram-simplified.svg" xlink:show="new" xlink:title="Examples.BadDesign.CarExample.CarParts.Driver-diagram-simplified.svg" xlink:type="simple"><g id="elem_Driver"><rect codeLine="10" fill="#F1F1F1" height="48" id="Driver" rx="2.5" ry="2.5" style="stroke:#181818;stroke-width:0.5;" width="73" x="983" y="379.5547"/><ellipse cx="998" cy="395.5547" fill="#A9DCDF" rx="11" ry="11" style="stroke:#181818;stroke-width:1.0;"/><path d="M997.8633,390.9028 L996.7095,395.9746 L999.0254,395.9746 Z M996.3691,388.6616 L999.3657,388.6616 L1002.7109,401.0547 L1000.2622,401.0547 L999.4985,397.9917 L996.2197,397.9917 L995.4727,401.0547 L993.0239,401.0547 Z " fill="#000000"/><text fill="#000000" font-family="sans-serif" font-size="14" font-style="italic" lengthAdjust="spacing" textLength="41" x="1012" y="400.8457">Driver</text><line style="stroke:#181818;stroke-width:0.5;" x1="984" x2="1055" y1="411.5547" y2="411.5547"/><line style="stroke:#181818;stroke-width:0.5;" x1="984" x2="1055" y1="419.5547" y2="419.5547"/></g></a><!--class Wheels--><a href="Examples.BadDesign.CarExample.CarParts.Wheels-diagram-simplified.svg" target="_top" title="Examples.BadDesign.CarExample.CarParts.Wheels-diagram-simplified.svg" xlink:actuate="onRequest" xlink:href="Examples.BadDesign.CarExample.CarParts.Wheels-diagram-simplified.svg" xlink:show="new" xlink:title="Examples.BadDesign.CarExample.CarParts.Wheels-diagram-simplified.svg" xlink:type="simple"><g id="elem_Wheels"><rect codeLine="12" fill="#F1F1F1" height="48" id="Wheels" rx="2.5" ry="2.5" style="stroke:#181818;stroke-width:0.5;" width="80" x="867.5" y="379.5547"/><ellipse cx="882.5" cy="395.5547" fill="#A9DCDF" rx="11" ry="11" style="stroke:#181818;stroke-width:1.0;"/><path d="M882.3633,390.9028 L881.2095,395.9746 L883.5254,395.9746 Z M880.8691,388.6616 L883.8657,388.6616 L887.2109,401.0547 L884.7622,401.0547 L883.9985,397.9917 L880.7197,397.9917 L879.9727,401.0547 L877.5239,401.0547 Z " fill="#000000"/><text fill="#000000" font-family="sans-serif" font-size="14" font-style="italic" lengthAdjust="spacing" textLength="48" x="896.5" y="400.8457">Wheels</text><line style="stroke:#181818;stroke-width:0.5;" x1="868.5" x2="946.5" y1="411.5547" y2="411.5547"/><line style="stroke:#181818;stroke-width:0.5;" x1="868.5" x2="946.5" y1="419.5547" y2="419.5547"/></g></a><!--class Doors--><a href="Examples.BadDesign.CarExample.CarParts.Doors-diagram-simplified.svg" target="_top" title="Examples.BadDesign.CarExample.CarParts.Doors-diagram-simplified.svg" xlink:actuate="onRequest" xlink:href="Examples.BadDesign.CarExample.CarParts.Doors-diagram-simplified.svg" xlink:show="new" xlink:title="Examples.BadDesign.CarExample.CarParts.Doors-diagram-simplified.svg" xlink:type="simple"><g id="elem_Doors"><rect codeLine="14" fill="#F1F1F1" height="48" id="Doors" rx="2.5" ry="2.5" style="stroke:#181818;stroke-width:0.5;" width="73" x="759" y="379.5547"/><ellipse cx="774" cy="395.5547" fill="#A9DCDF" rx="11" ry="11" style="stroke:#181818;stroke-width:1.0;"/><path d="M773.8633,390.9028 L772.7095,395.9746 L775.0254,395.9746 Z M772.3691,388.6616 L775.3657,388.6616 L778.7109,401.0547 L776.2622,401.0547 L775.4985,397.9917 L772.2197,397.9917 L771.4727,401.0547 L769.0239,401.0547 Z " fill="#000000"/><text fill="#000000" font-family="sans-serif" font-size="14" font-style="italic" lengthAdjust="spacing" textLength="41" x="788" y="400.8457">Doors</text><line style="stroke:#181818;stroke-width:0.5;" x1="760" x2="831" y1="411.5547" y2="411.5547"/><line style="stroke:#181818;stroke-width:0.5;" x1="760" x2="831" y1="419.5547" y2="419.5547"/></g></a><!--class Seats--><a href="Examples.BadDesign.CarExample.CarParts.Seats-diagram-simplified.svg" target="_top" title="Examples.BadDesign.CarExample.CarParts.Seats-diagram-simplified.svg" xlink:actuate="onRequest" xlink:href="Examples.BadDesign.CarExample.CarParts.Seats-diagram-simplified.svg" xlink:show="new" xlink:title="Examples.BadDesign.CarExample.CarParts.Seats-diagram-simplified.svg" xlink:type="simple"><g id="elem_Seats"><rect codeLine="16" fill="#F1F1F1" height="48" id="Seats" rx="2.5" ry="2.5" style="stroke:#181818;stroke-width:0.5;" width="68" x="655.5" y="379.5547"/><ellipse cx="670.5" cy="395.5547" fill="#A9DCDF" rx="11" ry="11" style="stroke:#181818;stroke-width:1.0;"/><path d="M670.3633,390.9028 L669.2095,395.9746 L671.5254,395.9746 Z M668.8691,388.6616 L671.8657,388.6616 L675.2109,401.0547 L672.7622,401.0547 L671.9985,397.9917 L668.7197,397.9917 L667.9727,401.0547 L665.5239,401.0547 Z " fill="#000000"/><text fill="#000000" font-family="sans-serif" font-size="14" font-style="italic" lengthAdjust="spacing" textLength="36" x="684.5" y="400.8457">Seats</text><line style="stroke:#181818;stroke-width:0.5;" x1="656.5" x2="722.5" y1="411.5547" y2="411.5547"/><line style="stroke:#181818;stroke-width:0.5;" x1="656.5" x2="722.5" y1="419.5547" y2="419.5547"/></g></a><g id="elem_FloatingNote"><path d="M6,71.5547 L6,319.2129 L421,319.2129 L421,81.5547 L411,71.5547 L6,71.5547 " fill="#FEFFDD" style="stroke:#181818;stroke-width:0.5;"/><path d="M411,71.5547 L411,81.5547 L421,81.5547 L411,71.5547 " fill="#FEFFDD" style="stroke:#181818;stroke-width:1.0;"/><text fill="#000000" font-family="sans-serif" font-size="13" lengthAdjust="spacing" textLength="120" x="12" y="89.123">Your are analyzing:</text><text fill="#000000" font-family="sans-serif" font-size="13" lengthAdjust="spacing" textLength="233" x="12" y="104.4336">Examples.BadDesign.CarExample.Car</text><text fill="#000000" font-family="sans-serif" font-size="13" font-weight="bold" lengthAdjust="spacing" textLength="67" x="249" y="104.4336">simplified</text><text fill="#000000" font-family="sans-serif" font-size="13" lengthAdjust="spacing" textLength="4" x="316" y="104.4336">&#160;</text><text fill="#000000" font-family="sans-serif" font-size="13" lengthAdjust="spacing" textLength="4" x="12" y="119.7441">&#160;</text><text fill="#000000" font-family="sans-serif" font-size="13" lengthAdjust="spacing" textLength="229" x="12" y="150.3652">You can click either the namespaces</text><text fill="#000000" font-family="sans-serif" font-size="13" lengthAdjust="spacing" textLength="266" x="12" y="165.6758">or class names for filtering them and their</text><text fill="#000000" font-family="sans-serif" font-size="13" lengthAdjust="spacing" textLength="130" x="12" y="180.9863">direct dependencies.</text><text fill="#000000" font-family="sans-serif" font-size="13" lengthAdjust="spacing" textLength="4" x="12" y="196.2969">&#160;</text><line style="stroke:#181818;stroke-width:1.0;" x1="7" x2="197.5" y1="130.1416" y2="130.1416"/><line style="stroke:#181818;stroke-width:1.0;" x1="7" x2="197.5" y1="132.1416" y2="132.1416"/><text fill="#000000" font-family="sans-serif" font-size="13" lengthAdjust="spacing" textLength="32" x="197.5" y="134.5547">Filter</text><line style="stroke:#181818;stroke-width:1.0;" x1="229.5" x2="420" y1="130.1416" y2="130.1416"/><line style="stroke:#181818;stroke-width:1.0;" x1="229.5" x2="420" y1="132.1416" y2="132.1416"/><ellipse cx="17.5" cy="226.1602" fill="#000000" rx="2.5" ry="2.5" style="stroke:#000000;stroke-width:0.0;"/><text fill="#000000" font-family="sans-serif" font-size="13" lengthAdjust="spacing" textLength="233" x="24" y="230.918">Examples.BadDesign.CarExample.Car</text><text fill="#000000" font-family="sans-serif" font-size="13" font-weight="bold" lengthAdjust="spacing" textLength="55" x="261" y="230.918">detailed</text><text fill="#000000" font-family="sans-serif" font-size="13" lengthAdjust="spacing" textLength="4" x="320" y="230.918">:</text><text fill="#000000" font-family="sans-serif" font-size="13" lengthAdjust="spacing" textLength="12" x="12" y="246.2285">&#160;&#160;&#160;</text><a href="Examples.BadDesign.CarExample.Car-diagram-detailed.svg" target="_top" title="Examples.BadDesign.CarExample.Car-diagram-detailed.svg" xlink:actuate="onRequest" xlink:href="Examples.BadDesign.CarExample.Car-diagram-detailed.svg" xlink:show="new" xlink:title="Examples.BadDesign.CarExample.Car-diagram-detailed.svg" xlink:type="simple"><text fill="#0000FF" font-family="sans-serif" font-size="13" lengthAdjust="spacing" text-decoration="underline" textLength="376" x="24" y="246.2285">Examples.BadDesign.CarExample.Car-diagram-detailed.svg</text></a><ellipse cx="17.5" cy="256.7813" fill="#000000" rx="2.5" ry="2.5" style="stroke:#000000;stroke-width:0.0;"/><text fill="#000000" font-family="sans-serif" font-size="13" lengthAdjust="spacing" textLength="78" x="24" y="261.5391">Full diagram</text><text fill="#000000" font-family="sans-serif" font-size="13" font-weight="bold" lengthAdjust="spacing" textLength="67" x="106" y="261.5391">simplified</text><text fill="#000000" font-family="sans-serif" font-size="13" lengthAdjust="spacing" textLength="23" x="177" y="261.5391">and</text><text fill="#000000" font-family="sans-serif" font-size="13" font-weight="bold" lengthAdjust="spacing" textLength="166" x="204" y="261.5391">grouped per namespace</text><text fill="#000000" font-family="sans-serif" font-size="13" lengthAdjust="spacing" textLength="4" x="370" y="261.5391">:</text><text fill="#000000" font-family="sans-serif" font-size="13" lengthAdjust="spacing" textLength="12" x="12" y="276.8496">&#160;&#160;&#160;</text><a href="full-diagram-simplified-grouped-per-namespace.svg" target="_top" title="full-diagram-simplified-grouped-per-namespace.svg" xlink:actuate="onRequest" xlink:href="full-diagram-simplified-grouped-per-namespace.svg" xlink:show="new" xlink:title="full-diagram-simplified-grouped-per-namespace.svg" xlink:type="simple"><text fill="#0000FF" font-family="sans-serif" font-size="13" lengthAdjust="spacing" text-decoration="underline" textLength="343" x="24" y="276.8496">full-diagram-simplified-grouped-per-namespace.svg</text></a><ellipse cx="17.5" cy="287.4023" fill="#000000" rx="2.5" ry="2.5" style="stroke:#000000;stroke-width:0.0;"/><text fill="#000000" font-family="sans-serif" font-size="13" lengthAdjust="spacing" textLength="41" x="24" y="292.1602">Home:</text><text fill="#000000" font-family="sans-serif" font-size="13" lengthAdjust="spacing" textLength="12" x="12" y="307.4707">&#160;&#160;&#160;</text><a href="index.html" target="_top" title="index.html" xlink:actuate="onRequest" xlink:href="index.html" xlink:show="new" xlink:title="index.html" xlink:type="simple"><text fill="#0000FF" font-family="sans-serif" font-size="13" lengthAdjust="spacing" text-decoration="underline" textLength="68" x="24" y="307.4707">index.html</text></a><line style="stroke:#181818;stroke-width:1.0;" x1="7" x2="176.5" y1="210.6943" y2="210.6943"/><line style="stroke:#181818;stroke-width:1.0;" x1="7" x2="176.5" y1="212.6943" y2="212.6943"/><text fill="#000000" font-family="sans-serif" font-size="13" lengthAdjust="spacing" textLength="74" x="176.5" y="215.1074">Select other</text><line style="stroke:#181818;stroke-width:1.0;" x1="250.5" x2="420" y1="210.6943" y2="210.6943"/><line style="stroke:#181818;stroke-width:1.0;" x1="250.5" x2="420" y1="212.6943" y2="212.6943"/></g><!--reverse link Driver to Car--><g id="link_Driver_Car"><path codeLine="23" d="M1019.5,358.1547 C1019.5,358.1547 1019.5,179.5547 1019.5,179.5547 C1019.5,179.5547 797.97,179.5547 717.92,179.5547 " fill="none" id="Driver-backto-Car" style="stroke:#FF0000;stroke-width:1.0;"/><polygon fill="none" points="1026.5,358.1547,1019.5,378.1547,1012.5,358.1547,1026.5,358.1547" style="stroke:#FF0000;stroke-width:1.0;"/></g><!--reverse link Car to Wheels--><g id="link_Car_Wheels"><path codeLine="24" d="M732,187.5547 C732,187.5547 907.5,187.5547 907.5,187.5547 C907.5,187.5547 907.5,322.7047 907.5,379.1947 " fill="none" id="Car-backto-Wheels" style="stroke:#10BB10;stroke-width:1.0;"/><polygon fill="#10BB10" points="719,187.5547,725,191.5547,731,187.5547,725,183.5547,719,187.5547" style="stroke:#10BB10;stroke-width:1.0;"/></g><!--reverse link Car to Vehicle--><g id="link_Car_Vehicle"><path codeLine="25" d="M647.16,195.5547 C647.16,195.5547 542.5,195.5547 542.5,195.5547 C542.5,195.5547 542.5,324.4147 542.5,379.2847 " fill="none" id="Car-backto-Vehicle" style="stroke:#10BB10;stroke-width:1.0;"/><polygon fill="#10BB10" points="660.16,195.5547,654.16,191.5547,648.16,195.5547,654.16,199.5547,660.16,195.5547" style="stroke:#10BB10;stroke-width:1.0;"/></g><!--reverse link Car to DB--><g id="link_Car_DB"><path codeLine="26" d="M731.8,211.5547 C731.8,211.5547 741.25,211.5547 741.25,211.5547 C741.25,211.5547 741.25,415.8347 741.25,487.2547 " fill="none" id="Car-backto-DB" style="stroke:#10BB10;stroke-width:1.0;"/><polygon fill="#10BB10" points="718.8,211.5547,724.8,215.5547,730.8,211.5547,724.8,207.5547,718.8,211.5547" style="stroke:#10BB10;stroke-width:1.0;"/></g><!--link DB to Car--><g id="link_DB_Car"><path codeLine="31" d="M750.12,487.1247 C750.12,414.2847 750.12,203.5547 750.12,203.5547 C750.12,203.5547 723.68,203.5547 723.68,203.5547 " fill="none" id="DB-to-Car" style="stroke:#6060BB;stroke-width:1.0;stroke-dasharray:7.0,7.0;"/><polygon fill="#6060BB" points="718.68,203.5547,727.68,207.5547,723.68,203.5547,727.68,199.5547,718.68,203.5547" style="stroke:#6060BB;stroke-width:1.0;"/><text fill="#000000" font-family="sans-serif" font-size="13" lengthAdjust="spacing" textLength="29" x="720.12" y="328.693">uses</text></g><!--link Car to Doors--><g id="link_Car_Doors"><path codeLine="27" d="M717.91,195.5547 C749.3,195.5547 795.5,195.5547 795.5,195.5547 C795.5,195.5547 795.5,373.2847 795.5,373.2847 " fill="none" id="Car-to-Doors" style="stroke:#6060BB;stroke-width:1.0;stroke-dasharray:7.0,7.0;"/><polygon fill="#6060BB" points="795.5,378.2847,799.5,369.2847,795.5,373.2847,791.5,369.2847,795.5,378.2847" style="stroke:#6060BB;stroke-width:1.0;"/><text fill="#000000" font-family="sans-serif" font-size="13" lengthAdjust="spacing" textLength="29" x="765.5" y="242.193">uses</text></g><!--link Car to Seats--><g id="link_Car_Seats"><path codeLine="28" d="M689.5,219.8247 C689.5,219.8247 689.5,373.1247 689.5,373.1247 " fill="none" id="Car-to-Seats" style="stroke:#909090;stroke-width:1.0;"/><polygon fill="#909090" points="689.5,378.1247,693.5,369.1247,689.5,373.1247,685.5,369.1247,689.5,378.1247" style="stroke:#909090;stroke-width:1.0;"/><text fill="#000000" font-family="sans-serif" font-size="13" lengthAdjust="spacing" textLength="29" x="659.5" y="293.043">uses</text></g><!--reverse link Vehicle to DB--><g id="link_Vehicle_DB"><path codeLine="29" d="M542.5,441.7947 C542.5,441.7947 542.5,511.5547 542.5,511.5547 C542.5,511.5547 663.35,511.5547 717.17,511.5547 " fill="none" id="Vehicle-backto-DB" style="stroke:#10BB10;stroke-width:1.0;"/><polygon fill="#10BB10" points="542.5,428.7947,538.5,434.7947,542.5,440.7947,546.5,434.7947,542.5,428.7947" style="stroke:#10BB10;stroke-width:1.0;"/></g><!--link DB to Driver--><g id="link_DB_Driver"><path codeLine="30" d="M767.89,511.5547 C834.18,511.5547 1007.33,511.5547 1007.33,511.5547 C1007.33,511.5547 1007.33,433.7947 1007.33,433.7947 " fill="none" id="DB-to-Driver" style="stroke:#6060BB;stroke-width:1.0;stroke-dasharray:7.0,7.0;"/><polygon fill="#6060BB" points="1007.33,428.7947,1003.33,437.7947,1007.33,433.7947,1011.33,437.7947,1007.33,428.7947" style="stroke:#6060BB;stroke-width:1.0;"/><text fill="#000000" font-family="sans-serif" font-size="13" lengthAdjust="spacing" textLength="29" x="896.49" y="508.123">uses</text></g><!--reverse link Driver to DB--><g id="link_Driver_DB"><path codeLine="34" d="M1031.67,441.8347 C1031.67,441.8347 1031.67,523.5547 1031.67,523.5547 C1031.67,523.5547 838.47,523.5547 767.91,523.5547 " fill="none" id="Driver-backto-DB" style="stroke:#10BB10;stroke-width:1.0;"/><polygon fill="#10BB10" points="1031.67,428.8347,1027.67,434.8347,1031.67,440.8347,1035.67,434.8347,1031.67,428.8347" style="stroke:#10BB10;stroke-width:1.0;"/></g><!--reverse link Wheels to DB--><g id="link_Wheels_DB"><path codeLine="35" d="M907.5,442.0247 C907.5,442.0247 907.5,499.5547 907.5,499.5547 C907.5,499.5547 814.2,499.5547 767.92,499.5547 " fill="none" id="Wheels-backto-DB" style="stroke:#10BB10;stroke-width:1.0;"/><polygon fill="#10BB10" points="907.5,429.0247,903.5,435.0247,907.5,441.0247,911.5,435.0247,907.5,429.0247" style="stroke:#10BB10;stroke-width:1.0;"/></g><!--reverse link Doors to DB--><g id="link_Doors_DB"><path codeLine="36" d="M763.25,441.7947 C763.25,441.7947 763.25,487.3947 763.25,487.3947 " fill="none" id="Doors-backto-DB" style="stroke:#10BB10;stroke-width:1.0;"/><polygon fill="#10BB10" points="763.25,428.7947,759.25,434.7947,763.25,440.7947,767.25,434.7947,763.25,428.7947" style="stroke:#10BB10;stroke-width:1.0;"/></g><!--reverse link Seats to DB--><g id="link_Seats_DB"><path codeLine="37" d="M731.51,403.5547 C731.51,403.5547 732.38,403.5547 732.38,403.5547 C732.38,403.5547 732.38,455.4747 732.38,487.3147 " fill="none" id="Seats-backto-DB" style="stroke:#10BB10;stroke-width:1.0;"/><polygon fill="#10BB10" points="724.7,403.5547,730.7,407.5547,736.7,403.5547,730.7,399.5547,724.7,403.5547" style="stroke:#10BB10;stroke-width:1.0;"/></g><!--SRC=[jLLDYzim4BtxLmoRmuB1hhU7XOOaXwmRUYg5XPOI-w3QaqIiB1b9sIRRzhztR2VnRg6rj4qSCFvuyzxpasPY7hYicMOL22xHxci4fUr61PPRWJ0n_0d7RvFP-nshQe4cdhCoHSFNChvZ-l2qkOGmD9nk-8fZ6OOmUTEKpWAfBCBLLxNLm3G2aqpidxXSZpFfpPd9J4wd2ouiwkaqayGA1PDG25uy07AxGGrq0iagD3Khq52DqWHWndHFOKNtgvQ2N3JeYaoLpGNNcIovni92YJNA4cN1oLudUu-YUQCQaKOy11V_9Lh6HUkUlXW0bil1igZaR4rB4XsBO_EuplD6Sh4L0Wwl_qod-OemN6krhR64cg8unH26H_4L4Ppu-_BeK1PHMNGgwtK_g0gF59o2sSKRMuaylm9cO24KinJcHrhgW230lXch6ONLvJwSaqyelUdE7epsA8Jw3ZzQxL_-3ZxZXXUqsOTS771_T_9w2-byK3sTEmhxv_-9QMlYLFD7T5gBv_X1K_zhwyi6KHXtMnt-uhPIfRI7gnP-SLFtoAo7gHRkPkgQHelJ0HV3NiDTcuL6GUD6IGEuQpEYQRVIgkh7tPYm_umWy6k9oSzeET9Ovj7mGWGE_mh4TfFCvpU92-6BBZWl-t7mdPULPfa3ORmStIQtn9Z7Cx-UWp5i3JfbGQRV9SqlZsP-FUGeSapmhF4GubNfT9lLqRctI4zynaOykVVio7DlnnTDTXdoRlDUXhlRitxSlm40]--></g></svg>