<?xml version="1.0" encoding="us-ascii" standalone="no"?><svg xmlns="http://www.w3.org/2000/svg" xmlns:xlink="http://www.w3.org/1999/xlink" contentStyleType="text/css" height="522px" preserveAspectRatio="none" style="width:1263px;height:522px;background:#FFFFFF;" version="1.1" viewBox="0 0 1263 522" width="1263px" zoomAndPan="magnify"><defs/><g><text fill="#000000" font-family="sans-serif" font-size="20" font-weight="bold" lengthAdjust="spacing" textLength="536" x="297.75" y="29.3359">Examples.BadDesign.CarExample.WarehouseEntities</text><text fill="#000000" font-family="sans-serif" font-size="20" font-weight="bold" lengthAdjust="spacing" textLength="104" x="840.75" y="29.3359">simplified</text><text fill="#000000" font-family="sans-serif" font-size="20" font-weight="bold" lengthAdjust="spacing" textLength="7" x="944.75" y="29.3359">&#160;</text><!--cluster Examples--><g id="cluster_Examples"><path d="M534,50.5547 L603,50.5547 A3.75,3.75 0 0 1 605.5,53.0547 L612.5,73.043 L1254,73.043 A2.5,2.5 0 0 1 1256.5,75.543 L1256.5,513.0547 A2.5,2.5 0 0 1 1254,515.5547 L534,515.5547 A2.5,2.5 0 0 1 531.5,513.0547 L531.5,53.0547 A2.5,2.5 0 0 1 534,50.5547 " fill="none" style="stroke:#000000;stroke-width:1.5;"/><line style="stroke:#000000;stroke-width:1.5;" x1="531.5" x2="612.5" y1="73.043" y2="73.043"/><text fill="#000000" font-family="sans-serif" font-size="14" font-weight="bold" lengthAdjust="spacing" textLength="68" x="535.5" y="66.0898">Examples</text></g><!--cluster BadDesign--><g id="cluster_BadDesign"><path d="M558,93.5547 L635,93.5547 A3.75,3.75 0 0 1 637.5,96.0547 L644.5,116.043 L1230,116.043 A2.5,2.5 0 0 1 1232.5,118.543 L1232.5,489.0547 A2.5,2.5 0 0 1 1230,491.5547 L558,491.5547 A2.5,2.5 0 0 1 555.5,489.0547 L555.5,96.0547 A2.5,2.5 0 0 1 558,93.5547 " fill="none" style="stroke:#000000;stroke-width:1.5;"/><line style="stroke:#000000;stroke-width:1.5;" x1="555.5" x2="644.5" y1="116.043" y2="116.043"/><text fill="#000000" font-family="sans-serif" font-size="14" font-weight="bold" lengthAdjust="spacing" textLength="76" x="559.5" y="109.0898">BadDesign</text></g><!--cluster CarExample--><g id="cluster_CarExample"><path d="M582,136.5547 L667,136.5547 A3.75,3.75 0 0 1 669.5,139.0547 L676.5,159.043 L1206,159.043 A2.5,2.5 0 0 1 1208.5,161.543 L1208.5,465.0547 A2.5,2.5 0 0 1 1206,467.5547 L582,467.5547 A2.5,2.5 0 0 1 579.5,465.0547 L579.5,139.0547 A2.5,2.5 0 0 1 582,136.5547 " fill="none" style="stroke:#000000;stroke-width:1.5;"/><line style="stroke:#000000;stroke-width:1.5;" x1="579.5" x2="676.5" y1="159.043" y2="159.043"/><text fill="#000000" font-family="sans-serif" font-size="14" font-weight="bold" lengthAdjust="spacing" textLength="84" x="583.5" y="152.0898">CarExample</text></g><!--cluster WarehouseEntities--><g id="cluster_WarehouseEntities"><path d="M606,344.5547 L740,344.5547 A3.75,3.75 0 0 1 742.5,347.0547 L749.5,367.043 L1182,367.043 A2.5,2.5 0 0 1 1184.5,369.543 L1184.5,441.0547 A2.5,2.5 0 0 1 1182,443.5547 L606,443.5547 A2.5,2.5 0 0 1 603.5,441.0547 L603.5,347.0547 A2.5,2.5 0 0 1 606,344.5547 " fill="none" style="stroke:#000000;stroke-width:1.5;"/><line style="stroke:#000000;stroke-width:1.5;" x1="603.5" x2="749.5" y1="367.043" y2="367.043"/><text fill="#000000" font-family="sans-serif" font-size="14" font-weight="bold" lengthAdjust="spacing" textLength="133" x="607.5" y="360.0898">WarehouseEntities</text></g><!--class DB--><a href="Examples.BadDesign.CarExample.DB-diagram-simplified.svg" target="_top" title="Examples.BadDesign.CarExample.DB-diagram-simplified.svg" xlink:actuate="onRequest" xlink:href="Examples.BadDesign.CarExample.DB-diagram-simplified.svg" xlink:show="new" xlink:title="Examples.BadDesign.CarExample.DB-diagram-simplified.svg" xlink:type="simple"><g id="elem_DB"><rect codeLine="4" fill="#F1F1F1" height="48" id="DB" rx="2.5" ry="2.5" style="stroke:#181818;stroke-width:0.5;" width="50" x="855.5" y="171.5547"/><ellipse cx="870.5" cy="187.5547" fill="#A9DCDF" rx="11" ry="11" style="stroke:#181818;stroke-width:1.0;"/><path d="M870.3633,182.9028 L869.2095,187.9746 L871.5254,187.9746 Z M868.8691,180.6616 L871.8657,180.6616 L875.2109,193.0547 L872.7622,193.0547 L871.9985,189.9917 L868.7197,189.9917 L867.9727,193.0547 L865.5239,193.0547 Z " fill="#000000"/><text fill="#000000" font-family="sans-serif" font-size="14" font-style="italic" lengthAdjust="spacing" textLength="18" x="884.5" y="192.8457">DB</text><line style="stroke:#181818;stroke-width:0.5;" x1="856.5" x2="904.5" y1="203.5547" y2="203.5547"/><line style="stroke:#181818;stroke-width:0.5;" x1="856.5" x2="904.5" y1="211.5547" y2="211.5547"/></g></a><!--class User--><a href="Examples.BadDesign.CarExample.WarehouseEntities.User-diagram-simplified.svg" target="_top" title="Examples.BadDesign.CarExample.WarehouseEntities.User-diagram-simplified.svg" xlink:actuate="onRequest" xlink:href="Examples.BadDesign.CarExample.WarehouseEntities.User-diagram-simplified.svg" xlink:show="new" xlink:title="Examples.BadDesign.CarExample.WarehouseEntities.User-diagram-simplified.svg" xlink:type="simple"><g id="elem_User"><rect codeLine="6" fill="#FFFF00" height="48" id="User" rx="2.5" ry="2.5" style="stroke:#181818;stroke-width:0.5;" width="63" x="1105" y="379.5547"/><ellipse cx="1120" cy="395.5547" fill="#A9DCDF" rx="11" ry="11" style="stroke:#181818;stroke-width:1.0;"/><path d="M1119.8633,390.9028 L1118.7095,395.9746 L1121.0254,395.9746 Z M1118.3691,388.6616 L1121.3657,388.6616 L1124.7109,401.0547 L1122.2622,401.0547 L1121.4985,397.9917 L1118.2197,397.9917 L1117.4727,401.0547 L1115.0239,401.0547 Z " fill="#000000"/><text fill="#000000" font-family="sans-serif" font-size="14" font-style="italic" lengthAdjust="spacing" textLength="31" x="1134" y="400.8457">User</text><line style="stroke:#181818;stroke-width:0.5;" x1="1106" x2="1167" y1="411.5547" y2="411.5547"/><line style="stroke:#181818;stroke-width:0.5;" x1="1106" x2="1167" y1="419.5547" y2="419.5547"/></g></a><!--class Customer--><a href="Examples.BadDesign.CarExample.WarehouseEntities.Customer-diagram-simplified.svg" target="_top" title="Examples.BadDesign.CarExample.WarehouseEntities.Customer-diagram-simplified.svg" xlink:actuate="onRequest" xlink:href="Examples.BadDesign.CarExample.WarehouseEntities.Customer-diagram-simplified.svg" xlink:show="new" xlink:title="Examples.BadDesign.CarExample.WarehouseEntities.Customer-diagram-simplified.svg" xlink:type="simple"><g id="elem_Customer"><rect codeLine="8" fill="#FFFF00" height="48" id="Customer" rx="2.5" ry="2.5" style="stroke:#181818;stroke-width:0.5;" width="99" x="971" y="379.5547"/><ellipse cx="986" cy="395.5547" fill="#A9DCDF" rx="11" ry="11" style="stroke:#181818;stroke-width:1.0;"/><path d="M985.8633,390.9028 L984.7095,395.9746 L987.0254,395.9746 Z M984.3691,388.6616 L987.3657,388.6616 L990.7109,401.0547 L988.2622,401.0547 L987.4985,397.9917 L984.2197,397.9917 L983.4727,401.0547 L981.0239,401.0547 Z " fill="#000000"/><text fill="#000000" font-family="sans-serif" font-size="14" font-style="italic" lengthAdjust="spacing" textLength="67" x="1000" y="400.8457">Customer</text><line style="stroke:#181818;stroke-width:0.5;" x1="972" x2="1069" y1="411.5547" y2="411.5547"/><line style="stroke:#181818;stroke-width:0.5;" x1="972" x2="1069" y1="419.5547" y2="419.5547"/></g></a><!--class Complaints--><a href="Examples.BadDesign.CarExample.WarehouseEntities.Complaints-diagram-simplified.svg" target="_top" title="Examples.BadDesign.CarExample.WarehouseEntities.Complaints-diagram-simplified.svg" xlink:actuate="onRequest" xlink:href="Examples.BadDesign.CarExample.WarehouseEntities.Complaints-diagram-simplified.svg" xlink:show="new" xlink:title="Examples.BadDesign.CarExample.WarehouseEntities.Complaints-diagram-simplified.svg" xlink:type="simple"><g id="elem_Complaints"><rect codeLine="10" fill="#FFFF00" height="48" id="Complaints" rx="2.5" ry="2.5" style="stroke:#181818;stroke-width:0.5;" width="110" x="825.5" y="379.5547"/><ellipse cx="840.5" cy="395.5547" fill="#A9DCDF" rx="11" ry="11" style="stroke:#181818;stroke-width:1.0;"/><path d="M840.3633,390.9028 L839.2095,395.9746 L841.5254,395.9746 Z M838.8691,388.6616 L841.8657,388.6616 L845.2109,401.0547 L842.7622,401.0547 L841.9985,397.9917 L838.7197,397.9917 L837.9727,401.0547 L835.5239,401.0547 Z " fill="#000000"/><text fill="#000000" font-family="sans-serif" font-size="14" font-style="italic" lengthAdjust="spacing" textLength="78" x="854.5" y="400.8457">Complaints</text><line style="stroke:#181818;stroke-width:0.5;" x1="826.5" x2="934.5" y1="411.5547" y2="411.5547"/><line style="stroke:#181818;stroke-width:0.5;" x1="826.5" x2="934.5" y1="419.5547" y2="419.5547"/></g></a><!--class Invoice--><a href="Examples.BadDesign.CarExample.WarehouseEntities.Invoice-diagram-simplified.svg" target="_top" title="Examples.BadDesign.CarExample.WarehouseEntities.Invoice-diagram-simplified.svg" xlink:actuate="onRequest" xlink:href="Examples.BadDesign.CarExample.WarehouseEntities.Invoice-diagram-simplified.svg" xlink:show="new" xlink:title="Examples.BadDesign.CarExample.WarehouseEntities.Invoice-diagram-simplified.svg" xlink:type="simple"><g id="elem_Invoice"><rect codeLine="12" fill="#FFFF00" height="48" id="Invoice" rx="2.5" ry="2.5" style="stroke:#181818;stroke-width:0.5;" width="80" x="710.5" y="379.5547"/><ellipse cx="725.5" cy="395.5547" fill="#A9DCDF" rx="11" ry="11" style="stroke:#181818;stroke-width:1.0;"/><path d="M725.3633,390.9028 L724.2095,395.9746 L726.5254,395.9746 Z M723.8691,388.6616 L726.8657,388.6616 L730.2109,401.0547 L727.7622,401.0547 L726.9985,397.9917 L723.7197,397.9917 L722.9727,401.0547 L720.5239,401.0547 Z " fill="#000000"/><text fill="#000000" font-family="sans-serif" font-size="14" font-style="italic" lengthAdjust="spacing" textLength="48" x="739.5" y="400.8457">Invoice</text><line style="stroke:#181818;stroke-width:0.5;" x1="711.5" x2="789.5" y1="411.5547" y2="411.5547"/><line style="stroke:#181818;stroke-width:0.5;" x1="711.5" x2="789.5" y1="419.5547" y2="419.5547"/></g></a><!--class Car--><a href="Examples.BadDesign.CarExample.WarehouseEntities.Car-diagram-simplified.svg" target="_top" title="Examples.BadDesign.CarExample.WarehouseEntities.Car-diagram-simplified.svg" xlink:actuate="onRequest" xlink:href="Examples.BadDesign.CarExample.WarehouseEntities.Car-diagram-simplified.svg" xlink:show="new" xlink:title="Examples.BadDesign.CarExample.WarehouseEntities.Car-diagram-simplified.svg" xlink:type="simple"><g id="elem_Car"><rect codeLine="14" fill="#FFFF00" height="48" id="Car" rx="2.5" ry="2.5" style="stroke:#181818;stroke-width:0.5;" width="56" x="619.5" y="379.5547"/><ellipse cx="634.5" cy="395.5547" fill="#A9DCDF" rx="11" ry="11" style="stroke:#181818;stroke-width:1.0;"/><path d="M634.3633,390.9028 L633.2095,395.9746 L635.5254,395.9746 Z M632.8691,388.6616 L635.8657,388.6616 L639.2109,401.0547 L636.7622,401.0547 L635.9985,397.9917 L632.7197,397.9917 L631.9727,401.0547 L629.5239,401.0547 Z " fill="#000000"/><text fill="#000000" font-family="sans-serif" font-size="14" font-style="italic" lengthAdjust="spacing" textLength="24" x="648.5" y="400.8457">Car</text><line style="stroke:#181818;stroke-width:0.5;" x1="620.5" x2="674.5" y1="411.5547" y2="411.5547"/><line style="stroke:#181818;stroke-width:0.5;" x1="620.5" x2="674.5" y1="419.5547" y2="419.5547"/></g></a><g id="elem_FloatingNote"><path d="M6,71.5547 L6,319.2129 L515,319.2129 L515,81.5547 L505,71.5547 L6,71.5547 " fill="#FEFFDD" style="stroke:#181818;stroke-width:0.5;"/><path d="M505,71.5547 L505,81.5547 L515,81.5547 L505,71.5547 " fill="#FEFFDD" style="stroke:#181818;stroke-width:1.0;"/><text fill="#000000" font-family="sans-serif" font-size="13" lengthAdjust="spacing" textLength="120" x="12" y="89.123">Your are analyzing:</text><text fill="#000000" font-family="sans-serif" font-size="13" lengthAdjust="spacing" textLength="327" x="12" y="104.4336">Examples.BadDesign.CarExample.WarehouseEntities</text><text fill="#000000" font-family="sans-serif" font-size="13" font-weight="bold" lengthAdjust="spacing" textLength="67" x="343" y="104.4336">simplified</text><text fill="#000000" font-family="sans-serif" font-size="13" lengthAdjust="spacing" textLength="4" x="410" y="104.4336">&#160;</text><text fill="#000000" font-family="sans-serif" font-size="13" lengthAdjust="spacing" textLength="4" x="12" y="119.7441">&#160;</text><text fill="#000000" font-family="sans-serif" font-size="13" lengthAdjust="spacing" textLength="229" x="12" y="150.3652">You can click either the namespaces</text><text fill="#000000" font-family="sans-serif" font-size="13" lengthAdjust="spacing" textLength="266" x="12" y="165.6758">or class names for filtering them and their</text><text fill="#000000" font-family="sans-serif" font-size="13" lengthAdjust="spacing" textLength="130" x="12" y="180.9863">direct dependencies.</text><text fill="#000000" font-family="sans-serif" font-size="13" lengthAdjust="spacing" textLength="4" x="12" y="196.2969">&#160;</text><line style="stroke:#181818;stroke-width:1.0;" x1="7" x2="244.5" y1="130.1416" y2="130.1416"/><line style="stroke:#181818;stroke-width:1.0;" x1="7" x2="244.5" y1="132.1416" y2="132.1416"/><text fill="#000000" font-family="sans-serif" font-size="13" lengthAdjust="spacing" textLength="32" x="244.5" y="134.5547">Filter</text><line style="stroke:#181818;stroke-width:1.0;" x1="276.5" x2="514" y1="130.1416" y2="130.1416"/><line style="stroke:#181818;stroke-width:1.0;" x1="276.5" x2="514" y1="132.1416" y2="132.1416"/><ellipse cx="17.5" cy="226.1602" fill="#000000" rx="2.5" ry="2.5" style="stroke:#000000;stroke-width:0.0;"/><text fill="#000000" font-family="sans-serif" font-size="13" lengthAdjust="spacing" textLength="327" x="24" y="230.918">Examples.BadDesign.CarExample.WarehouseEntities</text><text fill="#000000" font-family="sans-serif" font-size="13" font-weight="bold" lengthAdjust="spacing" textLength="55" x="355" y="230.918">detailed</text><text fill="#000000" font-family="sans-serif" font-size="13" lengthAdjust="spacing" textLength="4" x="414" y="230.918">:</text><text fill="#000000" font-family="sans-serif" font-size="13" lengthAdjust="spacing" textLength="12" x="12" y="246.2285">&#160;&#160;&#160;</text><a href="Examples.BadDesign.CarExample.WarehouseEntities-diagram-detailed.svg" target="_top" title="Examples.BadDesign.CarExample.WarehouseEntities-diagram-detailed.svg" xlink:actuate="onRequest" xlink:href="Examples.BadDesign.CarExample.WarehouseEntities-diagram-detailed.svg" xlink:show="new" xlink:title="Examples.BadDesign.CarExample.WarehouseEntities-diagram-detailed.svg" xlink:type="simple"><text fill="#0000FF" font-family="sans-serif" font-size="13" lengthAdjust="spacing" text-decoration="underline" textLength="470" x="24" y="246.2285">Examples.BadDesign.CarExample.WarehouseEntities-diagram-detailed.svg</text></a><ellipse cx="17.5" cy="256.7813" fill="#000000" rx="2.5" ry="2.5" style="stroke:#000000;stroke-width:0.0;"/><text fill="#000000" font-family="sans-serif" font-size="13" lengthAdjust="spacing" textLength="78" x="24" y="261.5391">Full diagram</text><text fill="#000000" font-family="sans-serif" font-size="13" font-weight="bold" lengthAdjust="spacing" textLength="67" x="106" y="261.5391">simplified</text><text fill="#000000" font-family="sans-serif" font-size="13" lengthAdjust="spacing" textLength="23" x="177" y="261.5391">and</text><text fill="#000000" font-family="sans-serif" font-size="13" font-weight="bold" lengthAdjust="spacing" textLength="166" x="204" y="261.5391">grouped per namespace</text><text fill="#000000" font-family="sans-serif" font-size="13" lengthAdjust="spacing" textLength="4" x="370" y="261.5391">:</text><text fill="#000000" font-family="sans-serif" font-size="13" lengthAdjust="spacing" textLength="12" x="12" y="276.8496">&#160;&#160;&#160;</text><a href="full-diagram-simplified-grouped-per-namespace.svg" target="_top" title="full-diagram-simplified-grouped-per-namespace.svg" xlink:actuate="onRequest" xlink:href="full-diagram-simplified-grouped-per-namespace.svg" xlink:show="new" xlink:title="full-diagram-simplified-grouped-per-namespace.svg" xlink:type="simple"><text fill="#0000FF" font-family="sans-serif" font-size="13" lengthAdjust="spacing" text-decoration="underline" textLength="343" x="24" y="276.8496">full-diagram-simplified-grouped-per-namespace.svg</text></a><ellipse cx="17.5" cy="287.4023" fill="#000000" rx="2.5" ry="2.5" style="stroke:#000000;stroke-width:0.0;"/><text fill="#000000" font-family="sans-serif" font-size="13" lengthAdjust="spacing" textLength="41" x="24" y="292.1602">Home:</text><text fill="#000000" font-family="sans-serif" font-size="13" lengthAdjust="spacing" textLength="12" x="12" y="307.4707">&#160;&#160;&#160;</text><a href="index.html" target="_top" title="index.html" xlink:actuate="onRequest" xlink:href="index.html" xlink:show="new" xlink:title="index.html" xlink:type="simple"><text fill="#0000FF" font-family="sans-serif" font-size="13" lengthAdjust="spacing" text-decoration="underline" textLength="68" x="24" y="307.4707">index.html</text></a><line style="stroke:#181818;stroke-width:1.0;" x1="7" x2="223.5" y1="210.6943" y2="210.6943"/><line style="stroke:#181818;stroke-width:1.0;" x1="7" x2="223.5" y1="212.6943" y2="212.6943"/><text fill="#000000" font-family="sans-serif" font-size="13" lengthAdjust="spacing" textLength="74" x="223.5" y="215.1074">Select other</text><line style="stroke:#181818;stroke-width:1.0;" x1="297.5" x2="514" y1="210.6943" y2="210.6943"/><line style="stroke:#181818;stroke-width:1.0;" x1="297.5" x2="514" y1="212.6943" y2="212.6943"/></g><!--link DB to User--><g id="link_DB_User"><path codeLine="21" d="M905.98,187.5547 C970.73,187.5547 1136.5,187.5547 1136.5,187.5547 C1136.5,187.5547 1136.5,373.1947 1136.5,373.1947 " fill="none" id="DB-to-User" style="stroke:#6060BB;stroke-width:1.0;stroke-dasharray:7.0,7.0;"/><polygon fill="#6060BB" points="1136.5,378.1947,1140.5,369.1947,1136.5,373.1947,1132.5,369.1947,1136.5,378.1947" style="stroke:#6060BB;stroke-width:1.0;"/><text fill="#000000" font-family="sans-serif" font-size="13" lengthAdjust="spacing" textLength="29" x="1084.06" y="184.123">uses</text></g><!--link DB to Customer--><g id="link_DB_Customer"><path codeLine="22" d="M905.85,203.5547 C946.2,203.5547 1020.5,203.5547 1020.5,203.5547 C1020.5,203.5547 1020.5,373.4347 1020.5,373.4347 " fill="none" id="DB-to-Customer" style="stroke:#6060BB;stroke-width:1.0;stroke-dasharray:7.0,7.0;"/><polygon fill="#6060BB" points="1020.5,378.4347,1024.5,369.4347,1020.5,373.4347,1016.5,369.4347,1020.5,378.4347" style="stroke:#6060BB;stroke-width:1.0;"/><text fill="#000000" font-family="sans-serif" font-size="13" lengthAdjust="spacing" textLength="29" x="990.5" y="227.733">uses</text></g><!--link DB to Car--><g id="link_DB_Car"><path codeLine="23" d="M855.12,187.5547 C794.73,187.5547 647.5,187.5547 647.5,187.5547 C647.5,187.5547 647.5,373.1947 647.5,373.1947 " fill="none" id="DB-to-Car" style="stroke:#6060BB;stroke-width:1.0;stroke-dasharray:7.0,7.0;"/><polygon fill="#6060BB" points="647.5,378.1947,651.5,369.1947,647.5,373.1947,643.5,369.1947,647.5,378.1947" style="stroke:#6060BB;stroke-width:1.0;"/><text fill="#000000" font-family="sans-serif" font-size="13" lengthAdjust="spacing" textLength="29" x="628.49" y="184.123">uses</text></g><!--link DB to Invoice--><g id="link_DB_Invoice"><path codeLine="24" d="M855.13,203.5547 C817.29,203.5547 750.5,203.5547 750.5,203.5547 C750.5,203.5547 750.5,373.4347 750.5,373.4347 " fill="none" id="DB-to-Invoice" style="stroke:#6060BB;stroke-width:1.0;stroke-dasharray:7.0,7.0;"/><polygon fill="#6060BB" points="750.5,378.4347,754.5,369.4347,750.5,373.4347,746.5,369.4347,750.5,378.4347" style="stroke:#6060BB;stroke-width:1.0;"/><text fill="#000000" font-family="sans-serif" font-size="13" lengthAdjust="spacing" textLength="29" x="720.5" y="232.743">uses</text></g><!--link DB to Complaints--><g id="link_DB_Complaints"><path codeLine="25" d="M880.5,219.8247 C880.5,219.8247 880.5,373.1247 880.5,373.1247 " fill="none" id="DB-to-Complaints" style="stroke:#6060BB;stroke-width:1.0;stroke-dasharray:7.0,7.0;"/><polygon fill="#6060BB" points="880.5,378.1247,884.5,369.1247,880.5,373.1247,876.5,369.1247,880.5,378.1247" style="stroke:#6060BB;stroke-width:1.0;"/><text fill="#000000" font-family="sans-serif" font-size="13" lengthAdjust="spacing" textLength="29" x="850.5" y="293.043">uses</text></g><!--SRC=[lLJ1Rfj04BtxAqR98H8IrEeX1ols0JjMU-cbgghAS9Z2W5TPTj7kajgf-kyTC60fQPD24pYiO6VUl3Tlbx5tGfLei00f5BbZIQ2Ds-kP4quIt5ZnG8ltyzNj0OjIaWr2J3TaHQw2DPfsD_YAXlQwidIh62V8WkTPmI6H2Kez3sxUrOLMCwKTmSKtNHbW2A12UNmGAbz4wZyP8XMfvN8hf2EpN4QAEI111OaKoHsGS7iom0ieBCYMc729I6d32MZjQHSo_iwQ4gofpYvOObg_21EfL1XA7AHKaaf99QmYED5-9bb7T4rIatiml9kK70hPzC9k0C1kDx28dmhC-IZzhbHWx_CuhkLiAocX3JzshkxGytAZgv9IADcctYBFwwHaNA2lVuRxBSndcD_3phmVT45T2S6c7OAzAsGSNm1Qs4gDZet-n9TYnYc0twqpo4QUpkJvzZVXYmvjmZz8Fea3-DbG_chMWTHFd0- -MBPjy84riBzBl3oIbFf7g_JLjAuhw_XOnkZjeDDhrXn0ePmTexe7JwxxexhN8g4Heblaz4xZg8k1m-x45K-SVthWpNAlODqOP4Zo5DBA0XqQutW8PaONvocuuDnd3PczEAc2tUNr_7eUXd6m6ZTSO06yP-6DkVhXC1KVJaRL_OjJTNOUMJtZAzwvfuo_0G00]--></g></svg>