<?xml version="1.0" encoding="us-ascii" standalone="no"?><svg xmlns="http://www.w3.org/2000/svg" xmlns:xlink="http://www.w3.org/1999/xlink" contentStyleType="text/css" height="649px" preserveAspectRatio="none" style="width:939px;height:649px;background:#FFFFFF;" version="1.1" viewBox="0 0 939 649" width="939px" zoomAndPan="magnify"><defs/><g><text fill="#000000" font-family="sans-serif" font-size="20" font-weight="bold" lengthAdjust="spacing" textLength="499" x="10" y="29.3359">Examples.BadDesign.CarExample.CarParts.Doors</text><text fill="#000000" font-family="sans-serif" font-size="20" font-weight="bold" lengthAdjust="spacing" textLength="104" x="516" y="29.3359">simplified</text><text fill="#000000" font-family="sans-serif" font-size="20" font-weight="bold" lengthAdjust="spacing" textLength="38" x="627" y="29.3359">and</text><text fill="#000000" font-family="sans-serif" font-size="20" font-weight="bold" lengthAdjust="spacing" textLength="249" x="672" y="29.3359">grouped per namespace</text><!--cluster Examples--><g id="cluster_Examples"><a href="Examples-diagram-simplified-grouped-per-namespace.svg" target="_top" title="Examples-diagram-simplified-grouped-per-namespace.svg" xlink:actuate="onRequest" xlink:href="Examples-diagram-simplified-grouped-per-namespace.svg" xlink:show="new" xlink:title="Examples-diagram-simplified-grouped-per-namespace.svg" xlink:type="simple"><path d="M684.5,50.5547 L753.5,50.5547 A3.75,3.75 0 0 1 756,53.0547 L763,73.043 L929.5,73.043 A2.5,2.5 0 0 1 932,75.543 L932,640.0547 A2.5,2.5 0 0 1 929.5,642.5547 L684.5,642.5547 A2.5,2.5 0 0 1 682,640.0547 L682,53.0547 A2.5,2.5 0 0 1 684.5,50.5547 " fill="none" style="stroke:#000000;stroke-width:1.5;"/><line style="stroke:#000000;stroke-width:1.5;" x1="682" x2="763" y1="73.043" y2="73.043"/><text fill="#000000" font-family="sans-serif" font-size="14" font-weight="bold" lengthAdjust="spacing" textLength="68" x="686" y="66.0898">Examples</text></a></g><!--cluster BadDesign--><g id="cluster_BadDesign"><a href="Examples.BadDesign-diagram-simplified-grouped-per-namespace.svg" target="_top" title="Examples.BadDesign-diagram-simplified-grouped-per-namespace.svg" xlink:actuate="onRequest" xlink:href="Examples.BadDesign-diagram-simplified-grouped-per-namespace.svg" xlink:show="new" xlink:title="Examples.BadDesign-diagram-simplified-grouped-per-namespace.svg" xlink:type="simple"><path d="M708.5,93.5547 L785.5,93.5547 A3.75,3.75 0 0 1 788,96.0547 L795,116.043 L905.5,116.043 A2.5,2.5 0 0 1 908,118.543 L908,616.0547 A2.5,2.5 0 0 1 905.5,618.5547 L708.5,618.5547 A2.5,2.5 0 0 1 706,616.0547 L706,96.0547 A2.5,2.5 0 0 1 708.5,93.5547 " fill="none" style="stroke:#000000;stroke-width:1.5;"/><line style="stroke:#000000;stroke-width:1.5;" x1="706" x2="795" y1="116.043" y2="116.043"/><text fill="#000000" font-family="sans-serif" font-size="14" font-weight="bold" lengthAdjust="spacing" textLength="76" x="710" y="109.0898">BadDesign</text></a></g><!--cluster CarExample--><g id="cluster_CarExample"><a href="Examples.BadDesign.CarExample-diagram-simplified-grouped-per-namespace.svg" target="_top" title="Examples.BadDesign.CarExample-diagram-simplified-grouped-per-namespace.svg" xlink:actuate="onRequest" xlink:href="Examples.BadDesign.CarExample-diagram-simplified-grouped-per-namespace.svg" xlink:show="new" xlink:title="Examples.BadDesign.CarExample-diagram-simplified-grouped-per-namespace.svg" xlink:type="simple"><path d="M732.5,136.5547 L817.5,136.5547 A3.75,3.75 0 0 1 820,139.0547 L827,159.043 L881.5,159.043 A2.5,2.5 0 0 1 884,161.543 L884,592.0547 A2.5,2.5 0 0 1 881.5,594.5547 L732.5,594.5547 A2.5,2.5 0 0 1 730,592.0547 L730,139.0547 A2.5,2.5 0 0 1 732.5,136.5547 " fill="none" style="stroke:#000000;stroke-width:1.5;"/><line style="stroke:#000000;stroke-width:1.5;" x1="730" x2="827" y1="159.043" y2="159.043"/><text fill="#000000" font-family="sans-serif" font-size="14" font-weight="bold" lengthAdjust="spacing" textLength="84" x="734" y="152.0898">CarExample</text></a></g><!--cluster CarParts--><g id="cluster_CarParts"><a href="Examples.BadDesign.CarExample.CarParts-diagram-simplified-grouped-per-namespace.svg" target="_top" title="Examples.BadDesign.CarExample.CarParts-diagram-simplified-grouped-per-namespace.svg" xlink:actuate="onRequest" xlink:href="Examples.BadDesign.CarExample.CarParts-diagram-simplified-grouped-per-namespace.svg" xlink:show="new" xlink:title="Examples.BadDesign.CarExample.CarParts-diagram-simplified-grouped-per-namespace.svg" xlink:type="simple"><path d="M756.5,179.5547 L818.5,179.5547 A3.75,3.75 0 0 1 821,182.0547 L828,202.043 L857.5,202.043 A2.5,2.5 0 0 1 860,204.543 L860,276.0547 A2.5,2.5 0 0 1 857.5,278.5547 L756.5,278.5547 A2.5,2.5 0 0 1 754,276.0547 L754,182.0547 A2.5,2.5 0 0 1 756.5,179.5547 " fill="none" style="stroke:#000000;stroke-width:1.5;"/><line style="stroke:#000000;stroke-width:1.5;" x1="754" x2="828" y1="202.043" y2="202.043"/><text fill="#000000" font-family="sans-serif" font-size="14" font-weight="bold" lengthAdjust="spacing" textLength="61" x="758" y="195.0898">CarParts</text></a></g><!--class DB--><a href="Examples.BadDesign.CarExample.DB-diagram-simplified-grouped-per-namespace.svg" target="_top" title="Examples.BadDesign.CarExample.DB-diagram-simplified-grouped-per-namespace.svg" xlink:actuate="onRequest" xlink:href="Examples.BadDesign.CarExample.DB-diagram-simplified-grouped-per-namespace.svg" xlink:show="new" xlink:title="Examples.BadDesign.CarExample.DB-diagram-simplified-grouped-per-namespace.svg" xlink:type="simple"><g id="elem_DB"><rect codeLine="7" fill="#F1F1F1" height="48" id="DB" rx="2.5" ry="2.5" style="stroke:#181818;stroke-width:0.5;" width="50" x="799" y="422.5547"/><ellipse cx="814" cy="438.5547" fill="#A9DCDF" rx="11" ry="11" style="stroke:#181818;stroke-width:1.0;"/><path d="M813.8633,433.9028 L812.7095,438.9746 L815.0254,438.9746 Z M812.3691,431.6616 L815.3657,431.6616 L818.7109,444.0547 L816.2622,444.0547 L815.4985,440.9917 L812.2197,440.9917 L811.4727,444.0547 L809.0239,444.0547 Z " fill="#000000"/><text fill="#000000" font-family="sans-serif" font-size="14" font-style="italic" lengthAdjust="spacing" textLength="18" x="828" y="443.8457">DB</text><line style="stroke:#181818;stroke-width:0.5;" x1="800" x2="848" y1="454.5547" y2="454.5547"/><line style="stroke:#181818;stroke-width:0.5;" x1="800" x2="848" y1="462.5547" y2="462.5547"/></g></a><!--class Car--><a href="Examples.BadDesign.CarExample.Car-diagram-simplified-grouped-per-namespace.svg" target="_top" title="Examples.BadDesign.CarExample.Car-diagram-simplified-grouped-per-namespace.svg" xlink:actuate="onRequest" xlink:href="Examples.BadDesign.CarExample.Car-diagram-simplified-grouped-per-namespace.svg" xlink:show="new" xlink:title="Examples.BadDesign.CarExample.Car-diagram-simplified-grouped-per-namespace.svg" xlink:type="simple"><g id="elem_Car"><rect codeLine="9" fill="#F1F1F1" height="48" id="Car" rx="2.5" ry="2.5" style="stroke:#181818;stroke-width:0.5;" width="56" x="796" y="530.5547"/><ellipse cx="811" cy="546.5547" fill="#A9DCDF" rx="11" ry="11" style="stroke:#181818;stroke-width:1.0;"/><path d="M810.8633,541.9028 L809.7095,546.9746 L812.0254,546.9746 Z M809.3691,539.6616 L812.3657,539.6616 L815.7109,552.0547 L813.2622,552.0547 L812.4985,548.9917 L809.2197,548.9917 L808.4727,552.0547 L806.0239,552.0547 Z " fill="#000000"/><text fill="#000000" font-family="sans-serif" font-size="14" font-style="italic" lengthAdjust="spacing" textLength="24" x="825" y="551.8457">Car</text><line style="stroke:#181818;stroke-width:0.5;" x1="797" x2="851" y1="562.5547" y2="562.5547"/><line style="stroke:#181818;stroke-width:0.5;" x1="797" x2="851" y1="570.5547" y2="570.5547"/></g></a><!--class Doors--><a href="Examples.BadDesign.CarExample.CarParts.Doors-diagram-simplified-grouped-per-namespace.svg" target="_top" title="Examples.BadDesign.CarExample.CarParts.Doors-diagram-simplified-grouped-per-namespace.svg" xlink:actuate="onRequest" xlink:href="Examples.BadDesign.CarExample.CarParts.Doors-diagram-simplified-grouped-per-namespace.svg" xlink:show="new" xlink:title="Examples.BadDesign.CarExample.CarParts.Doors-diagram-simplified-grouped-per-namespace.svg" xlink:type="simple"><g id="elem_Doors"><rect codeLine="23" fill="#FFFF00" height="48" id="Doors" rx="2.5" ry="2.5" style="stroke:#181818;stroke-width:0.5;" width="73" x="770.5" y="214.5547"/><ellipse cx="785.5" cy="230.5547" fill="#A9DCDF" rx="11" ry="11" style="stroke:#181818;stroke-width:1.0;"/><path d="M785.3633,225.9028 L784.2095,230.9746 L786.5254,230.9746 Z M783.8691,223.6616 L786.8657,223.6616 L790.2109,236.0547 L787.7622,236.0547 L786.9985,232.9917 L783.7197,232.9917 L782.9727,236.0547 L780.5239,236.0547 Z " fill="#000000"/><text fill="#000000" font-family="sans-serif" font-size="14" font-style="italic" lengthAdjust="spacing" textLength="41" x="799.5" y="235.8457">Doors</text><line style="stroke:#181818;stroke-width:0.5;" x1="771.5" x2="842.5" y1="246.5547" y2="246.5547"/><line style="stroke:#181818;stroke-width:0.5;" x1="771.5" x2="842.5" y1="254.5547" y2="254.5547"/></g></a><g id="elem_FloatingNote"><path d="M12,114.5547 L12,362.2129 L666,362.2129 L666,124.5547 L656,114.5547 L12,114.5547 " fill="#FEFFDD" style="stroke:#181818;stroke-width:0.5;"/><path d="M656,114.5547 L656,124.5547 L666,124.5547 L656,114.5547 " fill="#FEFFDD" style="stroke:#181818;stroke-width:1.0;"/><text fill="#000000" font-family="sans-serif" font-size="13" lengthAdjust="spacing" textLength="120" x="18" y="132.123">Your are analyzing:</text><text fill="#000000" font-family="sans-serif" font-size="13" lengthAdjust="spacing" textLength="306" x="18" y="147.4336">Examples.BadDesign.CarExample.CarParts.Doors</text><text fill="#000000" font-family="sans-serif" font-size="13" font-weight="bold" lengthAdjust="spacing" textLength="67" x="328" y="147.4336">simplified</text><text fill="#000000" font-family="sans-serif" font-size="13" lengthAdjust="spacing" textLength="23" x="399" y="147.4336">and</text><text fill="#000000" font-family="sans-serif" font-size="13" font-weight="bold" lengthAdjust="spacing" textLength="166" x="426" y="147.4336">grouped per namespace</text><text fill="#000000" font-family="sans-serif" font-size="13" lengthAdjust="spacing" textLength="4" x="18" y="162.7441">&#160;</text><text fill="#000000" font-family="sans-serif" font-size="13" lengthAdjust="spacing" textLength="229" x="18" y="193.3652">You can click either the namespaces</text><text fill="#000000" font-family="sans-serif" font-size="13" lengthAdjust="spacing" textLength="266" x="18" y="208.6758">or class names for filtering them and their</text><text fill="#000000" font-family="sans-serif" font-size="13" lengthAdjust="spacing" textLength="130" x="18" y="223.9863">direct dependencies.</text><text fill="#000000" font-family="sans-serif" font-size="13" lengthAdjust="spacing" textLength="4" x="18" y="239.2969">&#160;</text><line style="stroke:#181818;stroke-width:1.0;" x1="13" x2="323" y1="173.1416" y2="173.1416"/><line style="stroke:#181818;stroke-width:1.0;" x1="13" x2="323" y1="175.1416" y2="175.1416"/><text fill="#000000" font-family="sans-serif" font-size="13" lengthAdjust="spacing" textLength="32" x="323" y="177.5547">Filter</text><line style="stroke:#181818;stroke-width:1.0;" x1="355" x2="665" y1="173.1416" y2="173.1416"/><line style="stroke:#181818;stroke-width:1.0;" x1="355" x2="665" y1="175.1416" y2="175.1416"/><ellipse cx="23.5" cy="269.1602" fill="#000000" rx="2.5" ry="2.5" style="stroke:#000000;stroke-width:0.0;"/><text fill="#000000" font-family="sans-serif" font-size="13" lengthAdjust="spacing" textLength="306" x="30" y="273.918">Examples.BadDesign.CarExample.CarParts.Doors</text><text fill="#000000" font-family="sans-serif" font-size="13" font-weight="bold" lengthAdjust="spacing" textLength="55" x="340" y="273.918">detailed</text><text fill="#000000" font-family="sans-serif" font-size="13" lengthAdjust="spacing" textLength="23" x="399" y="273.918">and</text><text fill="#000000" font-family="sans-serif" font-size="13" font-weight="bold" lengthAdjust="spacing" textLength="166" x="426" y="273.918">grouped per namespace</text><text fill="#000000" font-family="sans-serif" font-size="13" lengthAdjust="spacing" textLength="4" x="592" y="273.918">:</text><text fill="#000000" font-family="sans-serif" font-size="13" lengthAdjust="spacing" textLength="12" x="18" y="289.2285">&#160;&#160;&#160;</text><a href="Examples.BadDesign.CarExample.CarParts.Doors-diagram-detailed-grouped-per-namespace.svg" target="_top" title="Examples.BadDesign.CarExample.CarParts.Doors-diagram-detailed-grouped-per-namespace.svg" xlink:actuate="onRequest" xlink:href="Examples.BadDesign.CarExample.CarParts.Doors-diagram-detailed-grouped-per-namespace.svg" xlink:show="new" xlink:title="Examples.BadDesign.CarExample.CarParts.Doors-diagram-detailed-grouped-per-namespace.svg" xlink:type="simple"><text fill="#0000FF" font-family="sans-serif" font-size="13" lengthAdjust="spacing" text-decoration="underline" textLength="615" x="30" y="289.2285">Examples.BadDesign.CarExample.CarParts.Doors-diagram-detailed-grouped-per-namespace.svg</text></a><ellipse cx="23.5" cy="299.7813" fill="#000000" rx="2.5" ry="2.5" style="stroke:#000000;stroke-width:0.0;"/><text fill="#000000" font-family="sans-serif" font-size="13" lengthAdjust="spacing" textLength="78" x="30" y="304.5391">Full diagram</text><text fill="#000000" font-family="sans-serif" font-size="13" font-weight="bold" lengthAdjust="spacing" textLength="67" x="112" y="304.5391">simplified</text><text fill="#000000" font-family="sans-serif" font-size="13" lengthAdjust="spacing" textLength="23" x="183" y="304.5391">and</text><text fill="#000000" font-family="sans-serif" font-size="13" font-weight="bold" lengthAdjust="spacing" textLength="166" x="210" y="304.5391">grouped per namespace</text><text fill="#000000" font-family="sans-serif" font-size="13" lengthAdjust="spacing" textLength="4" x="376" y="304.5391">:</text><text fill="#000000" font-family="sans-serif" font-size="13" lengthAdjust="spacing" textLength="12" x="18" y="319.8496">&#160;&#160;&#160;</text><a href="full-diagram-simplified-grouped-per-namespace.svg" target="_top" title="full-diagram-simplified-grouped-per-namespace.svg" xlink:actuate="onRequest" xlink:href="full-diagram-simplified-grouped-per-namespace.svg" xlink:show="new" xlink:title="full-diagram-simplified-grouped-per-namespace.svg" xlink:type="simple"><text fill="#0000FF" font-family="sans-serif" font-size="13" lengthAdjust="spacing" text-decoration="underline" textLength="343" x="30" y="319.8496">full-diagram-simplified-grouped-per-namespace.svg</text></a><ellipse cx="23.5" cy="330.4023" fill="#000000" rx="2.5" ry="2.5" style="stroke:#000000;stroke-width:0.0;"/><text fill="#000000" font-family="sans-serif" font-size="13" lengthAdjust="spacing" textLength="41" x="30" y="335.1602">Home:</text><text fill="#000000" font-family="sans-serif" font-size="13" lengthAdjust="spacing" textLength="12" x="18" y="350.4707">&#160;&#160;&#160;</text><a href="index.html" target="_top" title="index.html" xlink:actuate="onRequest" xlink:href="index.html" xlink:show="new" xlink:title="index.html" xlink:type="simple"><text fill="#0000FF" font-family="sans-serif" font-size="13" lengthAdjust="spacing" text-decoration="underline" textLength="68" x="30" y="350.4707">index.html</text></a><line style="stroke:#181818;stroke-width:1.0;" x1="13" x2="302" y1="253.6943" y2="253.6943"/><line style="stroke:#181818;stroke-width:1.0;" x1="13" x2="302" y1="255.6943" y2="255.6943"/><text fill="#000000" font-family="sans-serif" font-size="13" lengthAdjust="spacing" textLength="74" x="302" y="258.1074">Select other</text><line style="stroke:#181818;stroke-width:1.0;" x1="376" x2="665" y1="253.6943" y2="253.6943"/><line style="stroke:#181818;stroke-width:1.0;" x1="376" x2="665" y1="255.6943" y2="255.6943"/></g><!--link DB to Car--><g id="link_DB_Car"><path codeLine="40" d="M815.67,470.7947 C815.67,470.7947 815.67,524.3947 815.67,524.3947 " fill="none" id="DB-to-Car" style="stroke:#6060BB;stroke-width:1.0;stroke-dasharray:7.0,7.0;"/><polygon fill="#6060BB" points="815.67,529.3947,819.67,520.3947,815.67,524.3947,811.67,520.3947,815.67,529.3947" style="stroke:#6060BB;stroke-width:1.0;"/><text fill="#000000" font-family="sans-serif" font-size="13" lengthAdjust="spacing" textLength="29" x="785.67" y="494.163">uses</text></g><!--reverse link Car to DB--><g id="link_Car_DB"><path codeLine="41" d="M832.33,516.3147 C832.33,516.3147 832.33,470.7147 832.33,470.7147 " fill="none" id="Car-backto-DB" style="stroke:#10BB10;stroke-width:1.0;"/><polygon fill="#10BB10" points="832.33,529.3147,836.33,523.3147,832.33,517.3147,828.33,523.3147,832.33,529.3147" style="stroke:#10BB10;stroke-width:1.0;"/></g><!--link Car to Doors--><g id="link_Car_Doors"><path codeLine="42" d="M795.7,554.5547 C788.74,554.5547 783.25,554.5547 783.25,554.5547 C783.25,554.5547 783.25,268.8247 783.25,268.8247 " fill="none" id="Car-to-Doors" style="stroke:#6060BB;stroke-width:1.0;stroke-dasharray:7.0,7.0;"/><polygon fill="#6060BB" points="783.25,263.8247,779.25,272.8247,783.25,268.8247,787.25,272.8247,783.25,263.8247" style="stroke:#6060BB;stroke-width:1.0;"/><text fill="#000000" font-family="sans-serif" font-size="13" lengthAdjust="spacing" textLength="29" x="753.25" y="414.483">uses</text></g><!--reverse link Doors to DB--><g id="link_Doors_DB"><path codeLine="45" d="M821.25,276.8247 C821.25,276.8247 821.25,422.1247 821.25,422.1247 " fill="none" id="Doors-backto-DB" style="stroke:#10BB10;stroke-width:1.0;"/><polygon fill="#10BB10" points="821.25,263.8247,817.25,269.8247,821.25,275.8247,825.25,269.8247,821.25,263.8247" style="stroke:#10BB10;stroke-width:1.0;"/></g><!--SRC=[xLPDR-8m4BtdLupAeLAaPEaUUa250x1eJzLAUrgH29ba0bOTExAT5hhgVzy9X8G3D0cYxMKHGiQUcVTcF1ysJrncJBCK19Tejnc2qdQj7CkjG7Wm_1K7t_kZ7nkMPWADFsRn50rVIN_2TBbRB7ynROq_LKeRS5t3QPyd76FN1IPZsbffbMSOGuOQ94lHP2n2rttuLa2C7AaimiqVbMjW6ac7YUqhbwj183yCEv2170vdN5ZKms4W2HqY9Y4IF7e2v7PDylHJwnW8fD8am8pPxq92_vET2M9RIASxK5fm7SYOQumin9YXZ556dDpOm_v6KPoe0gG0Tw6Zdp5QnaMpbnH109ZFkvZtOivMb1NU0SGhZNjatAkC- -Pv5OO5zrak19HAdUxWm2uX0nLghTw4-rEbU331AS8RVsrJ4OOtm0pCX6AMRkMHSikfbAiu7yMa8pByFM6kZkl9O5yNukZgcgwsEp154zZIMCqeGVUv_dxoJCUD-JKTT-LH4ddhJeUMRVBzOaAt4vLIqwHa_gehWXTgJa2Xi41j94L9ZII1aXrCX395Cs9Kavd6Pwvoip3vSb7PMGXEgZNxHoKHbXYnt63HpSe6RBW1-YPSShF6s3-oNUlMRZXl9mKgZy-S7q93n_-BzDh0LMDlFG4kwnVTI_HucbqudLeox6rH2FLICRsWWZyXZETh-ekgUkV6cPgzPj73BJqFMdtWmsGBYaNMQXJqP53I06vssKmfacYLrim79Fjk1ZYDizAVz-xxz_tnEFH7BKOP380kq83JBEfwyzuT6RxhXrxpp6vXi1lLuvAkM5ynj1M6q-sjt2ag_m00]--></g></svg>