<?xml version="1.0" encoding="us-ascii" standalone="no"?><svg xmlns="http://www.w3.org/2000/svg" xmlns:xlink="http://www.w3.org/1999/xlink" contentStyleType="text/css" height="606px" preserveAspectRatio="none" style="width:1702px;height:606px;background:#FFFFFF;" version="1.1" viewBox="0 0 1702 606" width="1702px" zoomAndPan="magnify"><defs/><g><text fill="#000000" font-family="sans-serif" font-size="20" font-weight="bold" lengthAdjust="spacing" textLength="374" x="598.25" y="29.3359">Examples.BadDesign.CarExample.DB</text><text fill="#000000" font-family="sans-serif" font-size="20" font-weight="bold" lengthAdjust="spacing" textLength="104" x="979.25" y="29.3359">simplified</text><text fill="#000000" font-family="sans-serif" font-size="20" font-weight="bold" lengthAdjust="spacing" textLength="7" x="1083.25" y="29.3359">&#160;</text><!--cluster Examples--><g id="cluster_Examples"><path d="M436,50.5547 L505,50.5547 A3.75,3.75 0 0 1 507.5,53.0547 L514.5,73.043 L1693,73.043 A2.5,2.5 0 0 1 1695.5,75.543 L1695.5,597.0547 A2.5,2.5 0 0 1 1693,599.5547 L436,599.5547 A2.5,2.5 0 0 1 433.5,597.0547 L433.5,53.0547 A2.5,2.5 0 0 1 436,50.5547 " fill="none" style="stroke:#000000;stroke-width:1.5;"/><line style="stroke:#000000;stroke-width:1.5;" x1="433.5" x2="514.5" y1="73.043" y2="73.043"/><text fill="#000000" font-family="sans-serif" font-size="14" font-weight="bold" lengthAdjust="spacing" textLength="68" x="437.5" y="66.0898">Examples</text></g><!--cluster BadDesign--><g id="cluster_BadDesign"><path d="M460,93.5547 L537,93.5547 A3.75,3.75 0 0 1 539.5,96.0547 L546.5,116.043 L1669,116.043 A2.5,2.5 0 0 1 1671.5,118.543 L1671.5,573.0547 A2.5,2.5 0 0 1 1669,575.5547 L460,575.5547 A2.5,2.5 0 0 1 457.5,573.0547 L457.5,96.0547 A2.5,2.5 0 0 1 460,93.5547 " fill="none" style="stroke:#000000;stroke-width:1.5;"/><line style="stroke:#000000;stroke-width:1.5;" x1="457.5" x2="546.5" y1="116.043" y2="116.043"/><text fill="#000000" font-family="sans-serif" font-size="14" font-weight="bold" lengthAdjust="spacing" textLength="76" x="461.5" y="109.0898">BadDesign</text></g><!--cluster CarExample--><g id="cluster_CarExample"><path d="M484,136.5547 L569,136.5547 A3.75,3.75 0 0 1 571.5,139.0547 L578.5,159.043 L1645,159.043 A2.5,2.5 0 0 1 1647.5,161.543 L1647.5,549.0547 A2.5,2.5 0 0 1 1645,551.5547 L484,551.5547 A2.5,2.5 0 0 1 481.5,549.0547 L481.5,139.0547 A2.5,2.5 0 0 1 484,136.5547 " fill="none" style="stroke:#000000;stroke-width:1.5;"/><line style="stroke:#000000;stroke-width:1.5;" x1="481.5" x2="578.5" y1="159.043" y2="159.043"/><text fill="#000000" font-family="sans-serif" font-size="14" font-weight="bold" lengthAdjust="spacing" textLength="84" x="485.5" y="152.0898">CarExample</text></g><!--cluster CarParts--><g id="cluster_CarParts"><path d="M575,344.5547 L637,344.5547 A3.75,3.75 0 0 1 639.5,347.0547 L646.5,367.043 L1003,367.043 A2.5,2.5 0 0 1 1005.5,369.543 L1005.5,441.0547 A2.5,2.5 0 0 1 1003,443.5547 L575,443.5547 A2.5,2.5 0 0 1 572.5,441.0547 L572.5,347.0547 A2.5,2.5 0 0 1 575,344.5547 " fill="none" style="stroke:#000000;stroke-width:1.5;"/><line style="stroke:#000000;stroke-width:1.5;" x1="572.5" x2="646.5" y1="367.043" y2="367.043"/><text fill="#000000" font-family="sans-serif" font-size="14" font-weight="bold" lengthAdjust="spacing" textLength="61" x="576.5" y="360.0898">CarParts</text></g><!--cluster WarehouseEntities--><g id="cluster_WarehouseEntities"><path d="M1032,344.5547 L1166,344.5547 A3.75,3.75 0 0 1 1168.5,347.0547 L1175.5,367.043 L1608,367.043 A2.5,2.5 0 0 1 1610.5,369.543 L1610.5,441.0547 A2.5,2.5 0 0 1 1608,443.5547 L1032,443.5547 A2.5,2.5 0 0 1 1029.5,441.0547 L1029.5,347.0547 A2.5,2.5 0 0 1 1032,344.5547 " fill="none" style="stroke:#000000;stroke-width:1.5;"/><line style="stroke:#000000;stroke-width:1.5;" x1="1029.5" x2="1175.5" y1="367.043" y2="367.043"/><text fill="#000000" font-family="sans-serif" font-size="14" font-weight="bold" lengthAdjust="spacing" textLength="133" x="1033.5" y="360.0898">WarehouseEntities</text></g><!--class DB--><a href="Examples.BadDesign.CarExample.DB-diagram-simplified.svg" target="_top" title="Examples.BadDesign.CarExample.DB-diagram-simplified.svg" xlink:actuate="onRequest" xlink:href="Examples.BadDesign.CarExample.DB-diagram-simplified.svg" xlink:show="new" xlink:title="Examples.BadDesign.CarExample.DB-diagram-simplified.svg" xlink:type="simple"><g id="elem_DB"><rect codeLine="4" fill="#FFFF00" height="48" id="DB" rx="2.5" ry="2.5" style="stroke:#181818;stroke-width:0.5;" width="50" x="871.5" y="171.5547"/><ellipse cx="886.5" cy="187.5547" fill="#A9DCDF" rx="11" ry="11" style="stroke:#181818;stroke-width:1.0;"/><path d="M886.3633,182.9028 L885.2095,187.9746 L887.5254,187.9746 Z M884.8691,180.6616 L887.8657,180.6616 L891.2109,193.0547 L888.7622,193.0547 L887.9985,189.9917 L884.7197,189.9917 L883.9727,193.0547 L881.5239,193.0547 Z " fill="#000000"/><text fill="#000000" font-family="sans-serif" font-size="14" font-style="italic" lengthAdjust="spacing" textLength="18" x="900.5" y="192.8457">DB</text><line style="stroke:#181818;stroke-width:0.5;" x1="872.5" x2="920.5" y1="203.5547" y2="203.5547"/><line style="stroke:#181818;stroke-width:0.5;" x1="872.5" x2="920.5" y1="211.5547" y2="211.5547"/></g></a><!--class Car--><a href="Examples.BadDesign.CarExample.Car-diagram-simplified.svg" target="_top" title="Examples.BadDesign.CarExample.Car-diagram-simplified.svg" xlink:actuate="onRequest" xlink:href="Examples.BadDesign.CarExample.Car-diagram-simplified.svg" xlink:show="new" xlink:title="Examples.BadDesign.CarExample.Car-diagram-simplified.svg" xlink:type="simple"><g id="elem_Car"><rect codeLine="6" fill="#F1F1F1" height="48" id="Car" rx="2.5" ry="2.5" style="stroke:#181818;stroke-width:0.5;" width="56" x="497.5" y="379.5547"/><ellipse cx="512.5" cy="395.5547" fill="#A9DCDF" rx="11" ry="11" style="stroke:#181818;stroke-width:1.0;"/><path d="M512.3633,390.9028 L511.2095,395.9746 L513.5254,395.9746 Z M510.8691,388.6616 L513.8657,388.6616 L517.2109,401.0547 L514.7622,401.0547 L513.9985,397.9917 L510.7197,397.9917 L509.9727,401.0547 L507.5239,401.0547 Z " fill="#000000"/><text fill="#000000" font-family="sans-serif" font-size="14" font-style="italic" lengthAdjust="spacing" textLength="24" x="526.5" y="400.8457">Car</text><line style="stroke:#181818;stroke-width:0.5;" x1="498.5" x2="552.5" y1="411.5547" y2="411.5547"/><line style="stroke:#181818;stroke-width:0.5;" x1="498.5" x2="552.5" y1="419.5547" y2="419.5547"/></g></a><!--class Vehicle--><a href="Examples.BadDesign.CarExample.Vehicle-diagram-simplified.svg" target="_top" title="Examples.BadDesign.CarExample.Vehicle-diagram-simplified.svg" xlink:actuate="onRequest" xlink:href="Examples.BadDesign.CarExample.Vehicle-diagram-simplified.svg" xlink:show="new" xlink:title="Examples.BadDesign.CarExample.Vehicle-diagram-simplified.svg" xlink:type="simple"><g id="elem_Vehicle"><rect codeLine="8" fill="#F1F1F1" height="48" id="Vehicle" rx="2.5" ry="2.5" style="stroke:#181818;stroke-width:0.5;" width="81" x="1024" y="487.5547"/><ellipse cx="1039" cy="503.5547" fill="#A9DCDF" rx="11" ry="11" style="stroke:#181818;stroke-width:1.0;"/><path d="M1038.8633,498.9028 L1037.7095,503.9746 L1040.0254,503.9746 Z M1037.3691,496.6616 L1040.3657,496.6616 L1043.7109,509.0547 L1041.2622,509.0547 L1040.4985,505.9917 L1037.2197,505.9917 L1036.4727,509.0547 L1034.0239,509.0547 Z " fill="#000000"/><text fill="#000000" font-family="sans-serif" font-size="14" font-style="italic" lengthAdjust="spacing" textLength="49" x="1053" y="508.8457">Vehicle</text><line style="stroke:#181818;stroke-width:0.5;" x1="1025" x2="1104" y1="519.5547" y2="519.5547"/><line style="stroke:#181818;stroke-width:0.5;" x1="1025" x2="1104" y1="527.5547" y2="527.5547"/></g></a><!--class Driver--><a href="Examples.BadDesign.CarExample.CarParts.Driver-diagram-simplified.svg" target="_top" title="Examples.BadDesign.CarExample.CarParts.Driver-diagram-simplified.svg" xlink:actuate="onRequest" xlink:href="Examples.BadDesign.CarExample.CarParts.Driver-diagram-simplified.svg" xlink:show="new" xlink:title="Examples.BadDesign.CarExample.CarParts.Driver-diagram-simplified.svg" xlink:type="simple"><g id="elem_Driver"><rect codeLine="10" fill="#F1F1F1" height="48" id="Driver" rx="2.5" ry="2.5" style="stroke:#181818;stroke-width:0.5;" width="73" x="916" y="379.5547"/><ellipse cx="931" cy="395.5547" fill="#A9DCDF" rx="11" ry="11" style="stroke:#181818;stroke-width:1.0;"/><path d="M930.8633,390.9028 L929.7095,395.9746 L932.0254,395.9746 Z M929.3691,388.6616 L932.3657,388.6616 L935.7109,401.0547 L933.2622,401.0547 L932.4985,397.9917 L929.2197,397.9917 L928.4727,401.0547 L926.0239,401.0547 Z " fill="#000000"/><text fill="#000000" font-family="sans-serif" font-size="14" font-style="italic" lengthAdjust="spacing" textLength="41" x="945" y="400.8457">Driver</text><line style="stroke:#181818;stroke-width:0.5;" x1="917" x2="988" y1="411.5547" y2="411.5547"/><line style="stroke:#181818;stroke-width:0.5;" x1="917" x2="988" y1="419.5547" y2="419.5547"/></g></a><!--class Wheels--><a href="Examples.BadDesign.CarExample.CarParts.Wheels-diagram-simplified.svg" target="_top" title="Examples.BadDesign.CarExample.CarParts.Wheels-diagram-simplified.svg" xlink:actuate="onRequest" xlink:href="Examples.BadDesign.CarExample.CarParts.Wheels-diagram-simplified.svg" xlink:show="new" xlink:title="Examples.BadDesign.CarExample.CarParts.Wheels-diagram-simplified.svg" xlink:type="simple"><g id="elem_Wheels"><rect codeLine="12" fill="#F1F1F1" height="48" id="Wheels" rx="2.5" ry="2.5" style="stroke:#181818;stroke-width:0.5;" width="80" x="800.5" y="379.5547"/><ellipse cx="815.5" cy="395.5547" fill="#A9DCDF" rx="11" ry="11" style="stroke:#181818;stroke-width:1.0;"/><path d="M815.3633,390.9028 L814.2095,395.9746 L816.5254,395.9746 Z M813.8691,388.6616 L816.8657,388.6616 L820.2109,401.0547 L817.7622,401.0547 L816.9985,397.9917 L813.7197,397.9917 L812.9727,401.0547 L810.5239,401.0547 Z " fill="#000000"/><text fill="#000000" font-family="sans-serif" font-size="14" font-style="italic" lengthAdjust="spacing" textLength="48" x="829.5" y="400.8457">Wheels</text><line style="stroke:#181818;stroke-width:0.5;" x1="801.5" x2="879.5" y1="411.5547" y2="411.5547"/><line style="stroke:#181818;stroke-width:0.5;" x1="801.5" x2="879.5" y1="419.5547" y2="419.5547"/></g></a><!--class Doors--><a href="Examples.BadDesign.CarExample.CarParts.Doors-diagram-simplified.svg" target="_top" title="Examples.BadDesign.CarExample.CarParts.Doors-diagram-simplified.svg" xlink:actuate="onRequest" xlink:href="Examples.BadDesign.CarExample.CarParts.Doors-diagram-simplified.svg" xlink:show="new" xlink:title="Examples.BadDesign.CarExample.CarParts.Doors-diagram-simplified.svg" xlink:type="simple"><g id="elem_Doors"><rect codeLine="14" fill="#F1F1F1" height="48" id="Doors" rx="2.5" ry="2.5" style="stroke:#181818;stroke-width:0.5;" width="73" x="692" y="379.5547"/><ellipse cx="707" cy="395.5547" fill="#A9DCDF" rx="11" ry="11" style="stroke:#181818;stroke-width:1.0;"/><path d="M706.8633,390.9028 L705.7095,395.9746 L708.0254,395.9746 Z M705.3691,388.6616 L708.3657,388.6616 L711.7109,401.0547 L709.2622,401.0547 L708.4985,397.9917 L705.2197,397.9917 L704.4727,401.0547 L702.0239,401.0547 Z " fill="#000000"/><text fill="#000000" font-family="sans-serif" font-size="14" font-style="italic" lengthAdjust="spacing" textLength="41" x="721" y="400.8457">Doors</text><line style="stroke:#181818;stroke-width:0.5;" x1="693" x2="764" y1="411.5547" y2="411.5547"/><line style="stroke:#181818;stroke-width:0.5;" x1="693" x2="764" y1="419.5547" y2="419.5547"/></g></a><!--class Seats--><a href="Examples.BadDesign.CarExample.CarParts.Seats-diagram-simplified.svg" target="_top" title="Examples.BadDesign.CarExample.CarParts.Seats-diagram-simplified.svg" xlink:actuate="onRequest" xlink:href="Examples.BadDesign.CarExample.CarParts.Seats-diagram-simplified.svg" xlink:show="new" xlink:title="Examples.BadDesign.CarExample.CarParts.Seats-diagram-simplified.svg" xlink:type="simple"><g id="elem_Seats"><rect codeLine="16" fill="#F1F1F1" height="48" id="Seats" rx="2.5" ry="2.5" style="stroke:#181818;stroke-width:0.5;" width="68" x="588.5" y="379.5547"/><ellipse cx="603.5" cy="395.5547" fill="#A9DCDF" rx="11" ry="11" style="stroke:#181818;stroke-width:1.0;"/><path d="M603.3633,390.9028 L602.2095,395.9746 L604.5254,395.9746 Z M601.8691,388.6616 L604.8657,388.6616 L608.2109,401.0547 L605.7622,401.0547 L604.9985,397.9917 L601.7197,397.9917 L600.9727,401.0547 L598.5239,401.0547 Z " fill="#000000"/><text fill="#000000" font-family="sans-serif" font-size="14" font-style="italic" lengthAdjust="spacing" textLength="36" x="617.5" y="400.8457">Seats</text><line style="stroke:#181818;stroke-width:0.5;" x1="589.5" x2="655.5" y1="411.5547" y2="411.5547"/><line style="stroke:#181818;stroke-width:0.5;" x1="589.5" x2="655.5" y1="419.5547" y2="419.5547"/></g></a><!--class User--><a href="Examples.BadDesign.CarExample.WarehouseEntities.User-diagram-simplified.svg" target="_top" title="Examples.BadDesign.CarExample.WarehouseEntities.User-diagram-simplified.svg" xlink:actuate="onRequest" xlink:href="Examples.BadDesign.CarExample.WarehouseEntities.User-diagram-simplified.svg" xlink:show="new" xlink:title="Examples.BadDesign.CarExample.WarehouseEntities.User-diagram-simplified.svg" xlink:type="simple"><g id="elem_User"><rect codeLine="18" fill="#F1F1F1" height="48" id="User" rx="2.5" ry="2.5" style="stroke:#181818;stroke-width:0.5;" width="63" x="1531" y="379.5547"/><ellipse cx="1546" cy="395.5547" fill="#A9DCDF" rx="11" ry="11" style="stroke:#181818;stroke-width:1.0;"/><path d="M1545.8633,390.9028 L1544.7095,395.9746 L1547.0254,395.9746 Z M1544.3691,388.6616 L1547.3657,388.6616 L1550.7109,401.0547 L1548.2622,401.0547 L1547.4985,397.9917 L1544.2197,397.9917 L1543.4727,401.0547 L1541.0239,401.0547 Z " fill="#000000"/><text fill="#000000" font-family="sans-serif" font-size="14" font-style="italic" lengthAdjust="spacing" textLength="31" x="1560" y="400.8457">User</text><line style="stroke:#181818;stroke-width:0.5;" x1="1532" x2="1593" y1="411.5547" y2="411.5547"/><line style="stroke:#181818;stroke-width:0.5;" x1="1532" x2="1593" y1="419.5547" y2="419.5547"/></g></a><!--class Customer--><a href="Examples.BadDesign.CarExample.WarehouseEntities.Customer-diagram-simplified.svg" target="_top" title="Examples.BadDesign.CarExample.WarehouseEntities.Customer-diagram-simplified.svg" xlink:actuate="onRequest" xlink:href="Examples.BadDesign.CarExample.WarehouseEntities.Customer-diagram-simplified.svg" xlink:show="new" xlink:title="Examples.BadDesign.CarExample.WarehouseEntities.Customer-diagram-simplified.svg" xlink:type="simple"><g id="elem_Customer"><rect codeLine="20" fill="#F1F1F1" height="48" id="Customer" rx="2.5" ry="2.5" style="stroke:#181818;stroke-width:0.5;" width="99" x="1397" y="379.5547"/><ellipse cx="1412" cy="395.5547" fill="#A9DCDF" rx="11" ry="11" style="stroke:#181818;stroke-width:1.0;"/><path d="M1411.8633,390.9028 L1410.7095,395.9746 L1413.0254,395.9746 Z M1410.3691,388.6616 L1413.3657,388.6616 L1416.7109,401.0547 L1414.2622,401.0547 L1413.4985,397.9917 L1410.2197,397.9917 L1409.4727,401.0547 L1407.0239,401.0547 Z " fill="#000000"/><text fill="#000000" font-family="sans-serif" font-size="14" font-style="italic" lengthAdjust="spacing" textLength="67" x="1426" y="400.8457">Customer</text><line style="stroke:#181818;stroke-width:0.5;" x1="1398" x2="1495" y1="411.5547" y2="411.5547"/><line style="stroke:#181818;stroke-width:0.5;" x1="1398" x2="1495" y1="419.5547" y2="419.5547"/></g></a><!--class Car--><a href="Examples.BadDesign.CarExample.WarehouseEntities.Car-diagram-simplified.svg" target="_top" title="Examples.BadDesign.CarExample.WarehouseEntities.Car-diagram-simplified.svg" xlink:actuate="onRequest" xlink:href="Examples.BadDesign.CarExample.WarehouseEntities.Car-diagram-simplified.svg" xlink:show="new" xlink:title="Examples.BadDesign.CarExample.WarehouseEntities.Car-diagram-simplified.svg" xlink:type="simple"><g id="elem_Car"><rect codeLine="22" fill="#F1F1F1" height="48" id="Car" rx="2.5" ry="2.5" style="stroke:#181818;stroke-width:0.5;" width="56" x="1305.5" y="379.5547"/><ellipse cx="1320.5" cy="395.5547" fill="#A9DCDF" rx="11" ry="11" style="stroke:#181818;stroke-width:1.0;"/><path d="M1320.3633,390.9028 L1319.2095,395.9746 L1321.5254,395.9746 Z M1318.8691,388.6616 L1321.8657,388.6616 L1325.2109,401.0547 L1322.7622,401.0547 L1321.9985,397.9917 L1318.7197,397.9917 L1317.9727,401.0547 L1315.5239,401.0547 Z " fill="#000000"/><text fill="#000000" font-family="sans-serif" font-size="14" font-style="italic" lengthAdjust="spacing" textLength="24" x="1334.5" y="400.8457">Car</text><line style="stroke:#181818;stroke-width:0.5;" x1="1306.5" x2="1360.5" y1="411.5547" y2="411.5547"/><line style="stroke:#181818;stroke-width:0.5;" x1="1306.5" x2="1360.5" y1="419.5547" y2="419.5547"/></g></a><!--class Invoice--><a href="Examples.BadDesign.CarExample.WarehouseEntities.Invoice-diagram-simplified.svg" target="_top" title="Examples.BadDesign.CarExample.WarehouseEntities.Invoice-diagram-simplified.svg" xlink:actuate="onRequest" xlink:href="Examples.BadDesign.CarExample.WarehouseEntities.Invoice-diagram-simplified.svg" xlink:show="new" xlink:title="Examples.BadDesign.CarExample.WarehouseEntities.Invoice-diagram-simplified.svg" xlink:type="simple"><g id="elem_Invoice"><rect codeLine="24" fill="#F1F1F1" height="48" id="Invoice" rx="2.5" ry="2.5" style="stroke:#181818;stroke-width:0.5;" width="80" x="1190.5" y="379.5547"/><ellipse cx="1205.5" cy="395.5547" fill="#A9DCDF" rx="11" ry="11" style="stroke:#181818;stroke-width:1.0;"/><path d="M1205.3633,390.9028 L1204.2095,395.9746 L1206.5254,395.9746 Z M1203.8691,388.6616 L1206.8657,388.6616 L1210.2109,401.0547 L1207.7622,401.0547 L1206.9985,397.9917 L1203.7197,397.9917 L1202.9727,401.0547 L1200.5239,401.0547 Z " fill="#000000"/><text fill="#000000" font-family="sans-serif" font-size="14" font-style="italic" lengthAdjust="spacing" textLength="48" x="1219.5" y="400.8457">Invoice</text><line style="stroke:#181818;stroke-width:0.5;" x1="1191.5" x2="1269.5" y1="411.5547" y2="411.5547"/><line style="stroke:#181818;stroke-width:0.5;" x1="1191.5" x2="1269.5" y1="419.5547" y2="419.5547"/></g></a><!--class Complaints--><a href="Examples.BadDesign.CarExample.WarehouseEntities.Complaints-diagram-simplified.svg" target="_top" title="Examples.BadDesign.CarExample.WarehouseEntities.Complaints-diagram-simplified.svg" xlink:actuate="onRequest" xlink:href="Examples.BadDesign.CarExample.WarehouseEntities.Complaints-diagram-simplified.svg" xlink:show="new" xlink:title="Examples.BadDesign.CarExample.WarehouseEntities.Complaints-diagram-simplified.svg" xlink:type="simple"><g id="elem_Complaints"><rect codeLine="26" fill="#F1F1F1" height="48" id="Complaints" rx="2.5" ry="2.5" style="stroke:#181818;stroke-width:0.5;" width="110" x="1045.5" y="379.5547"/><ellipse cx="1060.5" cy="395.5547" fill="#A9DCDF" rx="11" ry="11" style="stroke:#181818;stroke-width:1.0;"/><path d="M1060.3633,390.9028 L1059.2095,395.9746 L1061.5254,395.9746 Z M1058.8691,388.6616 L1061.8657,388.6616 L1065.2109,401.0547 L1062.7622,401.0547 L1061.9985,397.9917 L1058.7197,397.9917 L1057.9727,401.0547 L1055.5239,401.0547 Z " fill="#000000"/><text fill="#000000" font-family="sans-serif" font-size="14" font-style="italic" lengthAdjust="spacing" textLength="78" x="1074.5" y="400.8457">Complaints</text><line style="stroke:#181818;stroke-width:0.5;" x1="1046.5" x2="1154.5" y1="411.5547" y2="411.5547"/><line style="stroke:#181818;stroke-width:0.5;" x1="1046.5" x2="1154.5" y1="419.5547" y2="419.5547"/></g></a><g id="elem_FloatingNote"><path d="M6,71.5547 L6,319.2129 L417,319.2129 L417,81.5547 L407,71.5547 L6,71.5547 " fill="#FEFFDD" style="stroke:#181818;stroke-width:0.5;"/><path d="M407,71.5547 L407,81.5547 L417,81.5547 L407,71.5547 " fill="#FEFFDD" style="stroke:#181818;stroke-width:1.0;"/><text fill="#000000" font-family="sans-serif" font-size="13" lengthAdjust="spacing" textLength="120" x="12" y="89.123">Your are analyzing:</text><text fill="#000000" font-family="sans-serif" font-size="13" lengthAdjust="spacing" textLength="229" x="12" y="104.4336">Examples.BadDesign.CarExample.DB</text><text fill="#000000" font-family="sans-serif" font-size="13" font-weight="bold" lengthAdjust="spacing" textLength="67" x="245" y="104.4336">simplified</text><text fill="#000000" font-family="sans-serif" font-size="13" lengthAdjust="spacing" textLength="4" x="312" y="104.4336">&#160;</text><text fill="#000000" font-family="sans-serif" font-size="13" lengthAdjust="spacing" textLength="4" x="12" y="119.7441">&#160;</text><text fill="#000000" font-family="sans-serif" font-size="13" lengthAdjust="spacing" textLength="229" x="12" y="150.3652">You can click either the namespaces</text><text fill="#000000" font-family="sans-serif" font-size="13" lengthAdjust="spacing" textLength="266" x="12" y="165.6758">or class names for filtering them and their</text><text fill="#000000" font-family="sans-serif" font-size="13" lengthAdjust="spacing" textLength="130" x="12" y="180.9863">direct dependencies.</text><text fill="#000000" font-family="sans-serif" font-size="13" lengthAdjust="spacing" textLength="4" x="12" y="196.2969">&#160;</text><line style="stroke:#181818;stroke-width:1.0;" x1="7" x2="195.5" y1="130.1416" y2="130.1416"/><line style="stroke:#181818;stroke-width:1.0;" x1="7" x2="195.5" y1="132.1416" y2="132.1416"/><text fill="#000000" font-family="sans-serif" font-size="13" lengthAdjust="spacing" textLength="32" x="195.5" y="134.5547">Filter</text><line style="stroke:#181818;stroke-width:1.0;" x1="227.5" x2="416" y1="130.1416" y2="130.1416"/><line style="stroke:#181818;stroke-width:1.0;" x1="227.5" x2="416" y1="132.1416" y2="132.1416"/><ellipse cx="17.5" cy="226.1602" fill="#000000" rx="2.5" ry="2.5" style="stroke:#000000;stroke-width:0.0;"/><text fill="#000000" font-family="sans-serif" font-size="13" lengthAdjust="spacing" textLength="229" x="24" y="230.918">Examples.BadDesign.CarExample.DB</text><text fill="#000000" font-family="sans-serif" font-size="13" font-weight="bold" lengthAdjust="spacing" textLength="55" x="257" y="230.918">detailed</text><text fill="#000000" font-family="sans-serif" font-size="13" lengthAdjust="spacing" textLength="4" x="316" y="230.918">:</text><text fill="#000000" font-family="sans-serif" font-size="13" lengthAdjust="spacing" textLength="12" x="12" y="246.2285">&#160;&#160;&#160;</text><a href="Examples.BadDesign.CarExample.DB-diagram-detailed.svg" target="_top" title="Examples.BadDesign.CarExample.DB-diagram-detailed.svg" xlink:actuate="onRequest" xlink:href="Examples.BadDesign.CarExample.DB-diagram-detailed.svg" xlink:show="new" xlink:title="Examples.BadDesign.CarExample.DB-diagram-detailed.svg" xlink:type="simple"><text fill="#0000FF" font-family="sans-serif" font-size="13" lengthAdjust="spacing" text-decoration="underline" textLength="372" x="24" y="246.2285">Examples.BadDesign.CarExample.DB-diagram-detailed.svg</text></a><ellipse cx="17.5" cy="256.7813" fill="#000000" rx="2.5" ry="2.5" style="stroke:#000000;stroke-width:0.0;"/><text fill="#000000" font-family="sans-serif" font-size="13" lengthAdjust="spacing" textLength="78" x="24" y="261.5391">Full diagram</text><text fill="#000000" font-family="sans-serif" font-size="13" font-weight="bold" lengthAdjust="spacing" textLength="67" x="106" y="261.5391">simplified</text><text fill="#000000" font-family="sans-serif" font-size="13" lengthAdjust="spacing" textLength="23" x="177" y="261.5391">and</text><text fill="#000000" font-family="sans-serif" font-size="13" font-weight="bold" lengthAdjust="spacing" textLength="166" x="204" y="261.5391">grouped per namespace</text><text fill="#000000" font-family="sans-serif" font-size="13" lengthAdjust="spacing" textLength="4" x="370" y="261.5391">:</text><text fill="#000000" font-family="sans-serif" font-size="13" lengthAdjust="spacing" textLength="12" x="12" y="276.8496">&#160;&#160;&#160;</text><a href="full-diagram-simplified-grouped-per-namespace.svg" target="_top" title="full-diagram-simplified-grouped-per-namespace.svg" xlink:actuate="onRequest" xlink:href="full-diagram-simplified-grouped-per-namespace.svg" xlink:show="new" xlink:title="full-diagram-simplified-grouped-per-namespace.svg" xlink:type="simple"><text fill="#0000FF" font-family="sans-serif" font-size="13" lengthAdjust="spacing" text-decoration="underline" textLength="343" x="24" y="276.8496">full-diagram-simplified-grouped-per-namespace.svg</text></a><ellipse cx="17.5" cy="287.4023" fill="#000000" rx="2.5" ry="2.5" style="stroke:#000000;stroke-width:0.0;"/><text fill="#000000" font-family="sans-serif" font-size="13" lengthAdjust="spacing" textLength="41" x="24" y="292.1602">Home:</text><text fill="#000000" font-family="sans-serif" font-size="13" lengthAdjust="spacing" textLength="12" x="12" y="307.4707">&#160;&#160;&#160;</text><a href="index.html" target="_top" title="index.html" xlink:actuate="onRequest" xlink:href="index.html" xlink:show="new" xlink:title="index.html" xlink:type="simple"><text fill="#0000FF" font-family="sans-serif" font-size="13" lengthAdjust="spacing" text-decoration="underline" textLength="68" x="24" y="307.4707">index.html</text></a><line style="stroke:#181818;stroke-width:1.0;" x1="7" x2="174.5" y1="210.6943" y2="210.6943"/><line style="stroke:#181818;stroke-width:1.0;" x1="7" x2="174.5" y1="212.6943" y2="212.6943"/><text fill="#000000" font-family="sans-serif" font-size="13" lengthAdjust="spacing" textLength="74" x="174.5" y="215.1074">Select other</text><line style="stroke:#181818;stroke-width:1.0;" x1="248.5" x2="416" y1="210.6943" y2="210.6943"/><line style="stroke:#181818;stroke-width:1.0;" x1="248.5" x2="416" y1="212.6943" y2="212.6943"/></g><!--link DB to User--><g id="link_DB_User"><path codeLine="33" d="M921.79,178.5547 C1043.45,178.5547 1562.5,178.5547 1562.5,178.5547 C1562.5,178.5547 1562.5,373.4747 1562.5,373.4747 " fill="none" id="DB-to-User" style="stroke:#6060BB;stroke-width:1.0;stroke-dasharray:7.0,7.0;"/><polygon fill="#6060BB" points="1562.5,378.4747,1566.5,369.4747,1562.5,373.4747,1558.5,369.4747,1562.5,378.4747" style="stroke:#6060BB;stroke-width:1.0;"/><text fill="#000000" font-family="sans-serif" font-size="13" lengthAdjust="spacing" textLength="29" x="1309.61" y="175.123">uses</text></g><!--link DB to Customer--><g id="link_DB_Customer"><path codeLine="34" d="M921.92,185.5547 C1030.09,185.5547 1446.5,185.5547 1446.5,185.5547 C1446.5,185.5547 1446.5,373.3947 1446.5,373.3947 " fill="none" id="DB-to-Customer" style="stroke:#6060BB;stroke-width:1.0;stroke-dasharray:7.0,7.0;"/><polygon fill="#6060BB" points="1446.5,378.3947,1450.5,369.3947,1446.5,373.3947,1442.5,369.3947,1446.5,378.3947" style="stroke:#6060BB;stroke-width:1.0;"/><text fill="#000000" font-family="sans-serif" font-size="13" lengthAdjust="spacing" textLength="29" x="1248.13" y="182.123">uses</text></g><!--link DB to Car--><g id="link_DB_Car"><path codeLine="35" d="M921.88,192.5547 C1015.15,192.5547 1333.5,192.5547 1333.5,192.5547 C1333.5,192.5547 1333.5,373.3547 1333.5,373.3547 " fill="none" id="DB-to-Car" style="stroke:#6060BB;stroke-width:1.0;stroke-dasharray:7.0,7.0;"/><polygon fill="#6060BB" points="1333.5,378.3547,1337.5,369.3547,1333.5,373.3547,1329.5,369.3547,1333.5,378.3547" style="stroke:#6060BB;stroke-width:1.0;"/><text fill="#000000" font-family="sans-serif" font-size="13" lengthAdjust="spacing" textLength="29" x="1188.09" y="189.123">uses</text></g><!--link DB to Invoice--><g id="link_DB_Invoice"><path codeLine="36" d="M921.88,199.5547 C999.82,199.5547 1230.5,199.5547 1230.5,199.5547 C1230.5,199.5547 1230.5,373.3547 1230.5,373.3547 " fill="none" id="DB-to-Invoice" style="stroke:#6060BB;stroke-width:1.0;stroke-dasharray:7.0,7.0;"/><polygon fill="#6060BB" points="1230.5,378.3547,1234.5,369.3547,1230.5,373.3547,1226.5,369.3547,1230.5,378.3547" style="stroke:#6060BB;stroke-width:1.0;"/><text fill="#000000" font-family="sans-serif" font-size="13" lengthAdjust="spacing" textLength="29" x="1133.09" y="196.123">uses</text></g><!--link DB to Complaints--><g id="link_DB_Complaints"><path codeLine="37" d="M921.92,206.5547 C976.61,206.5547 1100.5,206.5547 1100.5,206.5547 C1100.5,206.5547 1100.5,373.3947 1100.5,373.3947 " fill="none" id="DB-to-Complaints" style="stroke:#6060BB;stroke-width:1.0;stroke-dasharray:7.0,7.0;"/><polygon fill="#6060BB" points="1100.5,378.3947,1104.5,369.3947,1100.5,373.3947,1096.5,369.3947,1100.5,378.3947" style="stroke:#6060BB;stroke-width:1.0;"/><text fill="#000000" font-family="sans-serif" font-size="13" lengthAdjust="spacing" textLength="29" x="1064.63" y="203.123">uses</text></g><!--link DB to Car--><g id="link_DB_Car"><path codeLine="38" d="M871.29,185.5547 C787.79,185.5547 525.5,185.5547 525.5,185.5547 C525.5,185.5547 525.5,373.3947 525.5,373.3947 " fill="none" id="DB-to-Car-1" style="stroke:#6060BB;stroke-width:1.0;stroke-dasharray:7.0,7.0;"/><polygon fill="#6060BB" points="525.5,378.3947,529.5,369.3947,525.5,373.3947,521.5,369.3947,525.5,378.3947" style="stroke:#6060BB;stroke-width:1.0;"/><text fill="#000000" font-family="sans-serif" font-size="13" lengthAdjust="spacing" textLength="29" x="574.48" y="182.123">uses</text></g><!--reverse link Car to DB--><g id="link_Car_DB"><path codeLine="46" d="M511.5,365.4747 C511.5,365.4747 511.5,178.5547 511.5,178.5547 C511.5,178.5547 785.59,178.5547 871.24,178.5547 " fill="none" id="Car-backto-DB" style="stroke:#10BB10;stroke-width:1.0;"/><polygon fill="#10BB10" points="511.5,378.4747,515.5,372.4747,511.5,366.4747,507.5,372.4747,511.5,378.4747" style="stroke:#10BB10;stroke-width:1.0;"/></g><!--link DB to Driver--><g id="link_DB_Driver"><path codeLine="39" d="M904.17,219.6747 C904.17,272.8747 904.17,395.5547 904.17,395.5547 C904.17,395.5547 909.87,395.5547 909.87,395.5547 " fill="none" id="DB-to-Driver" style="stroke:#6060BB;stroke-width:1.0;stroke-dasharray:7.0,7.0;"/><polygon fill="#6060BB" points="914.87,395.5547,905.87,391.5547,909.87,395.5547,905.87,399.5547,914.87,395.5547" style="stroke:#6060BB;stroke-width:1.0;"/><text fill="#000000" font-family="sans-serif" font-size="13" lengthAdjust="spacing" textLength="29" x="874.17" y="324.033">uses</text></g><!--reverse link Driver to DB--><g id="link_Driver_DB"><path codeLine="52" d="M901.77,411.5547 C901.77,411.5547 892.33,411.5547 892.33,411.5547 C892.33,411.5547 892.33,276.4047 892.33,219.9147 " fill="none" id="Driver-backto-DB" style="stroke:#10BB10;stroke-width:1.0;"/><polygon fill="#10BB10" points="914.77,411.5547,908.77,407.5547,902.77,411.5547,908.77,415.5547,914.77,411.5547" style="stroke:#10BB10;stroke-width:1.0;"/></g><!--link DB to Wheels--><g id="link_DB_Wheels"><path codeLine="40" d="M877.5,219.8247 C877.5,219.8247 877.5,373.1247 877.5,373.1247 " fill="none" id="DB-to-Wheels" style="stroke:#6060BB;stroke-width:1.0;stroke-dasharray:7.0,7.0;"/><polygon fill="#6060BB" points="877.5,378.1247,881.5,369.1247,877.5,373.1247,873.5,369.1247,877.5,378.1247" style="stroke:#6060BB;stroke-width:1.0;"/><text fill="#000000" font-family="sans-serif" font-size="13" lengthAdjust="spacing" textLength="29" x="847.5" y="293.043">uses</text></g><!--reverse link Wheels to DB--><g id="link_Wheels_DB"><path codeLine="53" d="M874.5,365.2847 C874.5,365.2847 874.5,219.9847 874.5,219.9847 " fill="none" id="Wheels-backto-DB" style="stroke:#10BB10;stroke-width:1.0;"/><polygon fill="#10BB10" points="874.5,378.2847,878.5,372.2847,874.5,366.2847,870.5,372.2847,874.5,378.2847" style="stroke:#10BB10;stroke-width:1.0;"/></g><!--link DB to Doors--><g id="link_DB_Doors"><path codeLine="41" d="M871.12,213.5547 C826.96,213.5547 740.67,213.5547 740.67,213.5547 C740.67,213.5547 740.67,373.1047 740.67,373.1047 " fill="none" id="DB-to-Doors" style="stroke:#6060BB;stroke-width:1.0;stroke-dasharray:7.0,7.0;"/><polygon fill="#6060BB" points="740.67,378.1047,744.67,369.1047,740.67,373.1047,736.67,369.1047,740.67,378.1047" style="stroke:#6060BB;stroke-width:1.0;"/><text fill="#000000" font-family="sans-serif" font-size="13" lengthAdjust="spacing" textLength="29" x="710.67" y="224.673">uses</text></g><!--reverse link Doors to DB--><g id="link_Doors_DB"><path codeLine="54" d="M716.33,365.3947 C716.33,365.3947 716.33,206.5547 716.33,206.5547 C716.33,206.5547 821.41,206.5547 871.07,206.5547 " fill="none" id="Doors-backto-DB" style="stroke:#10BB10;stroke-width:1.0;"/><polygon fill="#10BB10" points="716.33,378.3947,720.33,372.3947,716.33,366.3947,712.33,372.3947,716.33,378.3947" style="stroke:#10BB10;stroke-width:1.0;"/></g><!--link DB to Seats--><g id="link_DB_Seats"><path codeLine="42" d="M871.18,192.5547 C801.35,192.5547 611.17,192.5547 611.17,192.5547 C611.17,192.5547 611.17,373.3547 611.17,373.3547 " fill="none" id="DB-to-Seats" style="stroke:#6060BB;stroke-width:1.0;stroke-dasharray:7.0,7.0;"/><polygon fill="#6060BB" points="611.17,378.3547,615.17,369.3547,611.17,373.3547,607.17,369.3547,611.17,378.3547" style="stroke:#6060BB;stroke-width:1.0;"/><text fill="#000000" font-family="sans-serif" font-size="13" lengthAdjust="spacing" textLength="29" x="620.77" y="189.123">uses</text></g><!--reverse link Seats to DB--><g id="link_Seats_DB"><path codeLine="55" d="M633.83,365.3547 C633.83,365.3547 633.83,199.5547 633.83,199.5547 C633.83,199.5547 805.57,199.5547 871.31,199.5547 " fill="none" id="Seats-backto-DB" style="stroke:#10BB10;stroke-width:1.0;"/><polygon fill="#10BB10" points="633.83,378.3547,637.83,372.3547,633.83,366.3547,629.83,372.3547,633.83,378.3547" style="stroke:#10BB10;stroke-width:1.0;"/></g><!--reverse link Driver to Car--><g id="link_Driver_Car"><path codeLine="43" d="M952.5,448.7547 C952.5,448.7547 952.5,467.5547 952.5,467.5547 C952.5,467.5547 525.5,467.5547 525.5,467.5547 C525.5,467.5547 525.5,445.8747 525.5,427.7547 " fill="none" id="Driver-backto-Car" style="stroke:#FF0000;stroke-width:1.0;"/><polygon fill="none" points="945.5,448.7547,952.5,428.7547,959.5,448.7547,945.5,448.7547" style="stroke:#FF0000;stroke-width:1.0;"/></g><!--reverse link Car to Wheels--><g id="link_Car_Wheels"><path codeLine="44" d="M539.5,365.0847 C539.5,365.0847 539.5,349.5547 539.5,349.5547 C539.5,349.5547 836,349.5547 836,349.5547 C836,349.5547 836,364.7947 836,379.0847 " fill="none" id="Car-backto-Wheels" style="stroke:#10BB10;stroke-width:1.0;"/><polygon fill="#10BB10" points="539.5,378.0847,543.5,372.0847,539.5,366.0847,535.5,372.0847,539.5,378.0847" style="stroke:#10BB10;stroke-width:1.0;"/></g><!--reverse link Car to Vehicle--><g id="link_Car_Vehicle"><path codeLine="45" d="M511.5,441.7947 C511.5,441.7947 511.5,511.5547 511.5,511.5547 C511.5,511.5547 896.13,511.5547 1023.84,511.5547 " fill="none" id="Car-backto-Vehicle" style="stroke:#10BB10;stroke-width:1.0;"/><polygon fill="#10BB10" points="511.5,428.7947,507.5,434.7947,511.5,440.7947,515.5,434.7947,511.5,428.7947" style="stroke:#10BB10;stroke-width:1.0;"/></g><!--link Car to Doors--><g id="link_Car_Doors"><path codeLine="47" d="M539.5,427.8747 C539.5,438.0447 539.5,447.5547 539.5,447.5547 C539.5,447.5547 728.5,447.5547 728.5,447.5547 C728.5,447.5547 728.5,433.8747 728.5,433.8747 " fill="none" id="Car-to-Doors" style="stroke:#6060BB;stroke-width:1.0;stroke-dasharray:7.0,7.0;"/><polygon fill="#6060BB" points="728.5,428.8747,724.5,437.8747,728.5,433.8747,732.5,437.8747,728.5,428.8747" style="stroke:#6060BB;stroke-width:1.0;"/><text fill="#000000" font-family="sans-serif" font-size="13" lengthAdjust="spacing" textLength="29" x="601" y="444.123">uses</text></g><!--link Car to Seats--><g id="link_Car_Seats"><path codeLine="48" d="M553.82,403.5547 C553.82,403.5547 582.13,403.5547 582.13,403.5547 " fill="none" id="Car-to-Seats" style="stroke:#909090;stroke-width:1.0;"/><polygon fill="#909090" points="587.13,403.5547,578.13,399.5547,582.13,403.5547,578.13,407.5547,587.13,403.5547" style="stroke:#909090;stroke-width:1.0;"/><text fill="#000000" font-family="sans-serif" font-size="13" lengthAdjust="spacing" textLength="29" x="561.22" y="417.123">uses</text></g><!--reverse link Vehicle to DB--><g id="link_Vehicle_DB"><path codeLine="49" d="M1034.75,473.1647 C1034.75,473.1647 1034.75,213.5547 1034.75,213.5547 C1034.75,213.5547 961.77,213.5547 921.86,213.5547 " fill="none" id="Vehicle-backto-DB" style="stroke:#10BB10;stroke-width:1.0;"/><polygon fill="#10BB10" points="1034.75,486.1647,1038.75,480.1647,1034.75,474.1647,1030.75,480.1647,1034.75,486.1647" style="stroke:#10BB10;stroke-width:1.0;"/></g><!--SRC=[nLPDRzf04BtpAqRX4CcINT93f2BW00IrbwfIr4OL-B2r1rXblMljBZH9s__UiOsXeMriKzO52Itsp7jlt-p7c7ikKwPP0e9Bj8yfWj9shJgMMu4mCFm9-wzxevi7bgG2JJ1cyHGDNybWmlJkQJ0TW-SPJcE-v1Xx7WnUPPcZZbGMuUApscXW6e599XwVk5pr5x8fv48kv70uuyAY7WuNaa0XOX8YmQDxG6xNg85-GB84JSeYD9IZD0KmOugdiAJ_ono2H6JH2McAim7N2nbpZP6565EKCSg8axg2zXP5zaPb91cv1pNansWP5xbucYy0pETLMNxCsOhAuPUvWTckmZ0Zd6s4WDthOs-oENZUIgjDYZ6aPCJU1CyhkPS4iCS_fFkxD9_I_7tQWVUjIh24u6JBGx2sYGZ32s06Pa8nIrQ-fpftA0JO5sCr8wiArojTQc39GN8X3hgFA8Jw2jzovX_D-MbOAO26VrTmElKdNFE8TbWL_IwkfeJcy__0j3N1LFCjrlBYr_XAKVygwswDA4nzMKMySrbJfNG3LNcuSr6to6m3KNcuAr5tTDQlrSRWZQHx93j5FveQo-lFQUs9d6oCfSFk5A5bQejYsKawMOiItycjuX6U87ENsQARYbumBcjiePUIwmc-fBkwrWUSnLx29FT9ew3xMqa3-93xH-t3Kglaq3_qAVP5GpgLTtmmxrxthdlZSHYCJZive0_qp81Zhlq1q1OVQusgt8jjpUomdvmmEdFkk2LoIx9hS1pF96zNt78KtKTDZcEF1z_zULTZ7FhLTDNGu17Q5Sc_wjK1V5Q8ywANFVvvKQb2DG2TBvICX4I_wMNVq7UpKae76zfpnjjjBxpXcZvtGPyjKpVWHVdTO1TL_uzb_EsA-Wa0]--></g></svg>