<?xml version="1.0" encoding="us-ascii" standalone="no"?><svg xmlns="http://www.w3.org/2000/svg" xmlns:xlink="http://www.w3.org/1999/xlink" contentStyleType="text/css" height="589px" preserveAspectRatio="none" style="width:1013px;height:589px;background:#FFFFFF;" version="1.1" viewBox="0 0 1013 589" width="1013px" zoomAndPan="magnify"><defs/><g><text fill="#000000" font-family="sans-serif" font-size="20" font-weight="bold" lengthAdjust="spacing" textLength="757" x="62.25" y="29.3359">Examples.BetterDesign.Repository.CarExample.WarehouseEntities.Invoice</text><text fill="#000000" font-family="sans-serif" font-size="20" font-weight="bold" lengthAdjust="spacing" textLength="104" x="826.25" y="29.3359">simplified</text><text fill="#000000" font-family="sans-serif" font-size="20" font-weight="bold" lengthAdjust="spacing" textLength="7" x="930.25" y="29.3359">&#160;</text><!--cluster Examples--><g id="cluster_Examples"><path d="M668,50.5547 L737,50.5547 A3.75,3.75 0 0 1 739.5,53.0547 L746.5,73.043 L1004,73.043 A2.5,2.5 0 0 1 1006.5,75.543 L1006.5,580.0547 A2.5,2.5 0 0 1 1004,582.5547 L668,582.5547 A2.5,2.5 0 0 1 665.5,580.0547 L665.5,53.0547 A2.5,2.5 0 0 1 668,50.5547 " fill="none" style="stroke:#000000;stroke-width:1.5;"/><line style="stroke:#000000;stroke-width:1.5;" x1="665.5" x2="746.5" y1="73.043" y2="73.043"/><text fill="#000000" font-family="sans-serif" font-size="14" font-weight="bold" lengthAdjust="spacing" textLength="68" x="669.5" y="66.0898">Examples</text></g><!--cluster BetterDesign--><g id="cluster_BetterDesign"><path d="M692,93.5547 L786,93.5547 A3.75,3.75 0 0 1 788.5,96.0547 L795.5,116.043 L980,116.043 A2.5,2.5 0 0 1 982.5,118.543 L982.5,556.0547 A2.5,2.5 0 0 1 980,558.5547 L692,558.5547 A2.5,2.5 0 0 1 689.5,556.0547 L689.5,96.0547 A2.5,2.5 0 0 1 692,93.5547 " fill="none" style="stroke:#000000;stroke-width:1.5;"/><line style="stroke:#000000;stroke-width:1.5;" x1="689.5" x2="795.5" y1="116.043" y2="116.043"/><text fill="#000000" font-family="sans-serif" font-size="14" font-weight="bold" lengthAdjust="spacing" textLength="93" x="693.5" y="109.0898">BetterDesign</text></g><!--cluster Repository--><g id="cluster_Repository"><path d="M716,136.5547 L795,136.5547 A3.75,3.75 0 0 1 797.5,139.0547 L804.5,159.043 L956,159.043 A2.5,2.5 0 0 1 958.5,161.543 L958.5,532.0547 A2.5,2.5 0 0 1 956,534.5547 L716,534.5547 A2.5,2.5 0 0 1 713.5,532.0547 L713.5,139.0547 A2.5,2.5 0 0 1 716,136.5547 " fill="none" style="stroke:#000000;stroke-width:1.5;"/><line style="stroke:#000000;stroke-width:1.5;" x1="713.5" x2="804.5" y1="159.043" y2="159.043"/><text fill="#000000" font-family="sans-serif" font-size="14" font-weight="bold" lengthAdjust="spacing" textLength="78" x="717.5" y="152.0898">Repository</text></g><!--cluster CarExample--><g id="cluster_CarExample"><path d="M740,179.5547 L825,179.5547 A3.75,3.75 0 0 1 827.5,182.0547 L834.5,202.043 L932,202.043 A2.5,2.5 0 0 1 934.5,204.543 L934.5,508.0547 A2.5,2.5 0 0 1 932,510.5547 L740,510.5547 A2.5,2.5 0 0 1 737.5,508.0547 L737.5,182.0547 A2.5,2.5 0 0 1 740,179.5547 " fill="none" style="stroke:#000000;stroke-width:1.5;"/><line style="stroke:#000000;stroke-width:1.5;" x1="737.5" x2="834.5" y1="202.043" y2="202.043"/><text fill="#000000" font-family="sans-serif" font-size="14" font-weight="bold" lengthAdjust="spacing" textLength="84" x="741.5" y="195.0898">CarExample</text></g><!--cluster WarehouseEntities--><g id="cluster_WarehouseEntities"><path d="M764,387.5547 L898,387.5547 A3.75,3.75 0 0 1 900.5,390.0547 L907.5,410.043 L908,410.043 A2.5,2.5 0 0 1 910.5,412.543 L910.5,484.0547 A2.5,2.5 0 0 1 908,486.5547 L764,486.5547 A2.5,2.5 0 0 1 761.5,484.0547 L761.5,390.0547 A2.5,2.5 0 0 1 764,387.5547 " fill="none" style="stroke:#000000;stroke-width:1.5;"/><line style="stroke:#000000;stroke-width:1.5;" x1="761.5" x2="907.5" y1="410.043" y2="410.043"/><text fill="#000000" font-family="sans-serif" font-size="14" font-weight="bold" lengthAdjust="spacing" textLength="133" x="765.5" y="403.0898">WarehouseEntities</text></g><!--class DBWarehouse--><a href="Examples.BetterDesign.Repository.CarExample.DBWarehouse-diagram-simplified.svg" target="_top" title="Examples.BetterDesign.Repository.CarExample.DBWarehouse-diagram-simplified.svg" xlink:actuate="onRequest" xlink:href="Examples.BetterDesign.Repository.CarExample.DBWarehouse-diagram-simplified.svg" xlink:show="new" xlink:title="Examples.BetterDesign.Repository.CarExample.DBWarehouse-diagram-simplified.svg" xlink:type="simple"><g id="elem_DBWarehouse"><rect codeLine="4" fill="#F1F1F1" height="48" id="DBWarehouse" rx="2.5" ry="2.5" style="stroke:#181818;stroke-width:0.5;" width="126" x="772.5" y="214.5547"/><ellipse cx="787.5" cy="230.5547" fill="#A9DCDF" rx="11" ry="11" style="stroke:#181818;stroke-width:1.0;"/><path d="M787.3633,225.9028 L786.2095,230.9746 L788.5254,230.9746 Z M785.8691,223.6616 L788.8657,223.6616 L792.2109,236.0547 L789.7622,236.0547 L788.9985,232.9917 L785.7197,232.9917 L784.9727,236.0547 L782.5239,236.0547 Z " fill="#000000"/><text fill="#000000" font-family="sans-serif" font-size="14" font-style="italic" lengthAdjust="spacing" textLength="94" x="801.5" y="235.8457">DBWarehouse</text><line style="stroke:#181818;stroke-width:0.5;" x1="773.5" x2="897.5" y1="246.5547" y2="246.5547"/><line style="stroke:#181818;stroke-width:0.5;" x1="773.5" x2="897.5" y1="254.5547" y2="254.5547"/></g></a><!--class Invoice--><a href="Examples.BetterDesign.Repository.CarExample.WarehouseEntities.Invoice-diagram-simplified.svg" target="_top" title="Examples.BetterDesign.Repository.CarExample.WarehouseEntities.Invoice-diagram-simplified.svg" xlink:actuate="onRequest" xlink:href="Examples.BetterDesign.Repository.CarExample.WarehouseEntities.Invoice-diagram-simplified.svg" xlink:show="new" xlink:title="Examples.BetterDesign.Repository.CarExample.WarehouseEntities.Invoice-diagram-simplified.svg" xlink:type="simple"><g id="elem_Invoice"><rect codeLine="6" fill="#FFFF00" height="48" id="Invoice" rx="2.5" ry="2.5" style="stroke:#181818;stroke-width:0.5;" width="80" x="795.5" y="422.5547"/><ellipse cx="810.5" cy="438.5547" fill="#A9DCDF" rx="11" ry="11" style="stroke:#181818;stroke-width:1.0;"/><path d="M810.3633,433.9028 L809.2095,438.9746 L811.5254,438.9746 Z M808.8691,431.6616 L811.8657,431.6616 L815.2109,444.0547 L812.7622,444.0547 L811.9985,440.9917 L808.7197,440.9917 L807.9727,444.0547 L805.5239,444.0547 Z " fill="#000000"/><text fill="#000000" font-family="sans-serif" font-size="14" font-style="italic" lengthAdjust="spacing" textLength="48" x="824.5" y="443.8457">Invoice</text><line style="stroke:#181818;stroke-width:0.5;" x1="796.5" x2="874.5" y1="454.5547" y2="454.5547"/><line style="stroke:#181818;stroke-width:0.5;" x1="796.5" x2="874.5" y1="462.5547" y2="462.5547"/></g></a><g id="elem_FloatingNote"><path d="M6,114.5547 L6,362.2129 L649,362.2129 L649,124.5547 L639,114.5547 L6,114.5547 " fill="#FEFFDD" style="stroke:#181818;stroke-width:0.5;"/><path d="M639,114.5547 L639,124.5547 L649,124.5547 L639,114.5547 " fill="#FEFFDD" style="stroke:#181818;stroke-width:1.0;"/><text fill="#000000" font-family="sans-serif" font-size="13" lengthAdjust="spacing" textLength="120" x="12" y="132.123">Your are analyzing:</text><text fill="#000000" font-family="sans-serif" font-size="13" lengthAdjust="spacing" textLength="461" x="12" y="147.4336">Examples.BetterDesign.Repository.CarExample.WarehouseEntities.Invoice</text><text fill="#000000" font-family="sans-serif" font-size="13" font-weight="bold" lengthAdjust="spacing" textLength="67" x="477" y="147.4336">simplified</text><text fill="#000000" font-family="sans-serif" font-size="13" lengthAdjust="spacing" textLength="4" x="544" y="147.4336">&#160;</text><text fill="#000000" font-family="sans-serif" font-size="13" lengthAdjust="spacing" textLength="4" x="12" y="162.7441">&#160;</text><text fill="#000000" font-family="sans-serif" font-size="13" lengthAdjust="spacing" textLength="229" x="12" y="193.3652">You can click either the namespaces</text><text fill="#000000" font-family="sans-serif" font-size="13" lengthAdjust="spacing" textLength="266" x="12" y="208.6758">or class names for filtering them and their</text><text fill="#000000" font-family="sans-serif" font-size="13" lengthAdjust="spacing" textLength="130" x="12" y="223.9863">direct dependencies.</text><text fill="#000000" font-family="sans-serif" font-size="13" lengthAdjust="spacing" textLength="4" x="12" y="239.2969">&#160;</text><line style="stroke:#181818;stroke-width:1.0;" x1="7" x2="311.5" y1="173.1416" y2="173.1416"/><line style="stroke:#181818;stroke-width:1.0;" x1="7" x2="311.5" y1="175.1416" y2="175.1416"/><text fill="#000000" font-family="sans-serif" font-size="13" lengthAdjust="spacing" textLength="32" x="311.5" y="177.5547">Filter</text><line style="stroke:#181818;stroke-width:1.0;" x1="343.5" x2="648" y1="173.1416" y2="173.1416"/><line style="stroke:#181818;stroke-width:1.0;" x1="343.5" x2="648" y1="175.1416" y2="175.1416"/><ellipse cx="17.5" cy="269.1602" fill="#000000" rx="2.5" ry="2.5" style="stroke:#000000;stroke-width:0.0;"/><text fill="#000000" font-family="sans-serif" font-size="13" lengthAdjust="spacing" textLength="461" x="24" y="273.918">Examples.BetterDesign.Repository.CarExample.WarehouseEntities.Invoice</text><text fill="#000000" font-family="sans-serif" font-size="13" font-weight="bold" lengthAdjust="spacing" textLength="55" x="489" y="273.918">detailed</text><text fill="#000000" font-family="sans-serif" font-size="13" lengthAdjust="spacing" textLength="4" x="548" y="273.918">:</text><text fill="#000000" font-family="sans-serif" font-size="13" lengthAdjust="spacing" textLength="12" x="12" y="289.2285">&#160;&#160;&#160;</text><a href="Examples.BetterDesign.Repository.CarExample.WarehouseEntities.Invoice-diagram-detailed.svg" target="_top" title="Examples.BetterDesign.Repository.CarExample.WarehouseEntities.Invoice-diagram-detailed.svg" xlink:actuate="onRequest" xlink:href="Examples.BetterDesign.Repository.CarExample.WarehouseEntities.Invoice-diagram-detailed.svg" xlink:show="new" xlink:title="Examples.BetterDesign.Repository.CarExample.WarehouseEntities.Invoice-diagram-detailed.svg" xlink:type="simple"><text fill="#0000FF" font-family="sans-serif" font-size="13" lengthAdjust="spacing" text-decoration="underline" textLength="604" x="24" y="289.2285">Examples.BetterDesign.Repository.CarExample.WarehouseEntities.Invoice-diagram-detailed.svg</text></a><ellipse cx="17.5" cy="299.7813" fill="#000000" rx="2.5" ry="2.5" style="stroke:#000000;stroke-width:0.0;"/><text fill="#000000" font-family="sans-serif" font-size="13" lengthAdjust="spacing" textLength="78" x="24" y="304.5391">Full diagram</text><text fill="#000000" font-family="sans-serif" font-size="13" font-weight="bold" lengthAdjust="spacing" textLength="67" x="106" y="304.5391">simplified</text><text fill="#000000" font-family="sans-serif" font-size="13" lengthAdjust="spacing" textLength="23" x="177" y="304.5391">and</text><text fill="#000000" font-family="sans-serif" font-size="13" font-weight="bold" lengthAdjust="spacing" textLength="166" x="204" y="304.5391">grouped per namespace</text><text fill="#000000" font-family="sans-serif" font-size="13" lengthAdjust="spacing" textLength="4" x="370" y="304.5391">:</text><text fill="#000000" font-family="sans-serif" font-size="13" lengthAdjust="spacing" textLength="12" x="12" y="319.8496">&#160;&#160;&#160;</text><a href="full-diagram-simplified-grouped-per-namespace.svg" target="_top" title="full-diagram-simplified-grouped-per-namespace.svg" xlink:actuate="onRequest" xlink:href="full-diagram-simplified-grouped-per-namespace.svg" xlink:show="new" xlink:title="full-diagram-simplified-grouped-per-namespace.svg" xlink:type="simple"><text fill="#0000FF" font-family="sans-serif" font-size="13" lengthAdjust="spacing" text-decoration="underline" textLength="343" x="24" y="319.8496">full-diagram-simplified-grouped-per-namespace.svg</text></a><ellipse cx="17.5" cy="330.4023" fill="#000000" rx="2.5" ry="2.5" style="stroke:#000000;stroke-width:0.0;"/><text fill="#000000" font-family="sans-serif" font-size="13" lengthAdjust="spacing" textLength="41" x="24" y="335.1602">Home:</text><text fill="#000000" font-family="sans-serif" font-size="13" lengthAdjust="spacing" textLength="12" x="12" y="350.4707">&#160;&#160;&#160;</text><a href="index.html" target="_top" title="index.html" xlink:actuate="onRequest" xlink:href="index.html" xlink:show="new" xlink:title="index.html" xlink:type="simple"><text fill="#0000FF" font-family="sans-serif" font-size="13" lengthAdjust="spacing" text-decoration="underline" textLength="68" x="24" y="350.4707">index.html</text></a><line style="stroke:#181818;stroke-width:1.0;" x1="7" x2="290.5" y1="253.6943" y2="253.6943"/><line style="stroke:#181818;stroke-width:1.0;" x1="7" x2="290.5" y1="255.6943" y2="255.6943"/><text fill="#000000" font-family="sans-serif" font-size="13" lengthAdjust="spacing" textLength="74" x="290.5" y="258.1074">Select other</text><line style="stroke:#181818;stroke-width:1.0;" x1="364.5" x2="648" y1="253.6943" y2="253.6943"/><line style="stroke:#181818;stroke-width:1.0;" x1="364.5" x2="648" y1="255.6943" y2="255.6943"/></g><!--link DBWarehouse to Invoice--><g id="link_DBWarehouse_Invoice"><path codeLine="13" d="M835.5,262.8247 C835.5,262.8247 835.5,416.1247 835.5,416.1247 " fill="none" id="DBWarehouse-to-Invoice" style="stroke:#6060BB;stroke-width:1.0;stroke-dasharray:7.0,7.0;"/><polygon fill="#6060BB" points="835.5,421.1247,839.5,412.1247,835.5,416.1247,831.5,412.1247,835.5,421.1247" style="stroke:#6060BB;stroke-width:1.0;"/><text fill="#000000" font-family="sans-serif" font-size="13" lengthAdjust="spacing" textLength="29" x="805.5" y="336.043">uses</text></g><!--SRC=[jL8zRzim4DtzAmx94820LAD31YFsu2H6ktHeXwAmDB3IIJw4EWeadTef-jzxb6KvQ5eWJcqE-Y3llNVt-Fm3SQkTRi0GOzYs2DQ5bHq52WRXnjCJJjwFP_SRtRG6VJh74D3TeQUQqy_OMa_1kcrwgrrVatxL3bTsxV6UXOK4z94VBHK8IdcI4ge8IwNWvbsadutO1eIBRtRjGA2WMPlj4t4zoVWikXbdF9qko0ZZT9gnA4EX6Gf3nGCWXHKwa0UmRj2tka0l6EkaG7k_suLA_gkEGZgDrOqqNiOFSXcNvB08K6ABN28NiPkTx1SqySH6aIYku5GpbXWqcMv2SGu0bikJK2SbwLeYakm5KlzOvtbiVR4s1lhZFrsERYXLExjkiOHMB1tiL6hVO2K40_y1dlImH63903leVh0DxYb83Dwagz2OFBy0xM5Xh0voAPyaLYFeblxkWzDY- -u6Zx7bRZuOSwIXpv1_6N4t3C3FliLV_Vk_clrtF4wTXHU3N6xH6FjZcAURw4eIyAe5PwkzWjlEHeT6Kc7P0suwUoMKbRFD8PKJgJt2fD5RKvGkBw_7r-FvF4zd9xfTc81i-pDE-rByDm00]--></g></svg>