<?xml version="1.0" encoding="us-ascii" standalone="no"?><svg xmlns="http://www.w3.org/2000/svg" xmlns:xlink="http://www.w3.org/1999/xlink" contentStyleType="text/css" height="975px" preserveAspectRatio="none" style="width:2682px;height:975px;background:#FFFFFF;" version="1.1" viewBox="0 0 2682 975" width="2682px" zoomAndPan="magnify"><defs/><g><text fill="#000000" font-family="sans-serif" font-size="20" font-weight="bold" lengthAdjust="spacing" textLength="340" x="1115.25" y="29.3359">Examples.BadDesign.CarExample</text><text fill="#000000" font-family="sans-serif" font-size="20" font-weight="bold" lengthAdjust="spacing" textLength="84" x="1462.25" y="29.3359">detailed</text><text fill="#000000" font-family="sans-serif" font-size="20" font-weight="bold" lengthAdjust="spacing" textLength="7" x="1546.25" y="29.3359">&#160;</text><!--cluster Examples--><g id="cluster_Examples"><path d="M428,50.5547 L497,50.5547 A3.75,3.75 0 0 1 499.5,53.0547 L506.5,73.043 L2673,73.043 A2.5,2.5 0 0 1 2675.5,75.543 L2675.5,966.0547 A2.5,2.5 0 0 1 2673,968.5547 L428,968.5547 A2.5,2.5 0 0 1 425.5,966.0547 L425.5,53.0547 A2.5,2.5 0 0 1 428,50.5547 " fill="none" style="stroke:#000000;stroke-width:1.5;"/><line style="stroke:#000000;stroke-width:1.5;" x1="425.5" x2="506.5" y1="73.043" y2="73.043"/><text fill="#000000" font-family="sans-serif" font-size="14" font-weight="bold" lengthAdjust="spacing" textLength="68" x="429.5" y="66.0898">Examples</text></g><!--cluster BadDesign--><g id="cluster_BadDesign"><path d="M452,93.5547 L529,93.5547 A3.75,3.75 0 0 1 531.5,96.0547 L538.5,116.043 L2649,116.043 A2.5,2.5 0 0 1 2651.5,118.543 L2651.5,942.0547 A2.5,2.5 0 0 1 2649,944.5547 L452,944.5547 A2.5,2.5 0 0 1 449.5,942.0547 L449.5,96.0547 A2.5,2.5 0 0 1 452,93.5547 " fill="none" style="stroke:#000000;stroke-width:1.5;"/><line style="stroke:#000000;stroke-width:1.5;" x1="449.5" x2="538.5" y1="116.043" y2="116.043"/><text fill="#000000" font-family="sans-serif" font-size="14" font-weight="bold" lengthAdjust="spacing" textLength="76" x="453.5" y="109.0898">BadDesign</text></g><!--cluster CarExample--><g id="cluster_CarExample"><path d="M476,136.5547 L561,136.5547 A3.75,3.75 0 0 1 563.5,139.0547 L570.5,159.043 L2625,159.043 A2.5,2.5 0 0 1 2627.5,161.543 L2627.5,918.0547 A2.5,2.5 0 0 1 2625,920.5547 L476,920.5547 A2.5,2.5 0 0 1 473.5,918.0547 L473.5,139.0547 A2.5,2.5 0 0 1 476,136.5547 " fill="none" style="stroke:#000000;stroke-width:1.5;"/><line style="stroke:#000000;stroke-width:1.5;" x1="473.5" x2="570.5" y1="159.043" y2="159.043"/><text fill="#000000" font-family="sans-serif" font-size="14" font-weight="bold" lengthAdjust="spacing" textLength="84" x="477.5" y="152.0898">CarExample</text></g><!--cluster CarParts--><g id="cluster_CarParts"><path d="M1256,285.0547 L1318,285.0547 A3.75,3.75 0 0 1 1320.5,287.5547 L1327.5,307.543 L2601,307.543 A2.5,2.5 0 0 1 2603.5,310.043 L2603.5,414.5547 A2.5,2.5 0 0 1 2601,417.0547 L1256,417.0547 A2.5,2.5 0 0 1 1253.5,414.5547 L1253.5,287.5547 A2.5,2.5 0 0 1 1256,285.0547 " fill="none" style="stroke:#000000;stroke-width:1.5;"/><line style="stroke:#000000;stroke-width:1.5;" x1="1253.5" x2="1327.5" y1="307.543" y2="307.543"/><text fill="#000000" font-family="sans-serif" font-size="14" font-weight="bold" lengthAdjust="spacing" textLength="61" x="1257.5" y="300.5898">CarParts</text></g><!--cluster WarehouseEntities--><g id="cluster_WarehouseEntities"><path d="M500,619.5547 L634,619.5547 A3.75,3.75 0 0 1 636.5,622.0547 L643.5,642.043 L1076,642.043 A2.5,2.5 0 0 1 1078.5,644.543 L1078.5,716.0547 A2.5,2.5 0 0 1 1076,718.5547 L500,718.5547 A2.5,2.5 0 0 1 497.5,716.0547 L497.5,622.0547 A2.5,2.5 0 0 1 500,619.5547 " fill="none" style="stroke:#000000;stroke-width:1.5;"/><line style="stroke:#000000;stroke-width:1.5;" x1="497.5" x2="643.5" y1="642.043" y2="642.043"/><text fill="#000000" font-family="sans-serif" font-size="14" font-weight="bold" lengthAdjust="spacing" textLength="133" x="501.5" y="635.0898">WarehouseEntities</text></g><!--class DB--><a href="Examples.BadDesign.CarExample.DB-diagram-detailed.svg" target="_top" title="Examples.BadDesign.CarExample.DB-diagram-detailed.svg" xlink:actuate="onRequest" xlink:href="Examples.BadDesign.CarExample.DB-diagram-detailed.svg" xlink:show="new" xlink:title="Examples.BadDesign.CarExample.DB-diagram-detailed.svg" xlink:type="simple"><g id="elem_DB"><rect codeLine="4" fill="#FFFF00" height="377.7656" id="DB" rx="2.5" ry="2.5" style="stroke:#181818;stroke-width:0.5;" width="745" x="490" y="171.5547"/><ellipse cx="849.25" cy="187.5547" fill="#A9DCDF" rx="11" ry="11" style="stroke:#181818;stroke-width:1.0;"/><path d="M849.1133,182.9028 L847.9595,187.9746 L850.2754,187.9746 Z M847.6191,180.6616 L850.6157,180.6616 L853.9609,193.0547 L851.5122,193.0547 L850.7485,189.9917 L847.4697,189.9917 L846.7227,193.0547 L844.2739,193.0547 Z " fill="#000000"/><text fill="#000000" font-family="sans-serif" font-size="14" font-style="italic" lengthAdjust="spacing" textLength="18" x="869.75" y="192.8457">DB</text><line style="stroke:#181818;stroke-width:0.5;" x1="491" x2="1234" y1="203.5547" y2="203.5547"/><line style="stroke:#181818;stroke-width:0.5;" x1="491" x2="1234" y1="211.5547" y2="211.5547"/><rect fill="#F24D5C" height="6" style="stroke:#C82930;stroke-width:1.0;" width="6" x="498" y="222.2988"/><text fill="#000000" font-family="sans-serif" font-size="14" lengthAdjust="spacing" textLength="27" x="510" y="229.0898">get(</text><text fill="#000000" font-family="sans-serif" font-size="14" lengthAdjust="spacing" textLength="5" x="537" y="229.0898">)</text><rect fill="#F24D5C" height="6" style="stroke:#C82930;stroke-width:1.0;" width="6" x="498" y="238.7871"/><text fill="#000000" font-family="sans-serif" font-size="14" lengthAdjust="spacing" textLength="101" x="510" y="245.5781">getCarsWhere(</text><text fill="#000000" font-family="sans-serif" font-size="14" lengthAdjust="spacing" textLength="5" x="611" y="245.5781">)</text><rect fill="#F24D5C" height="6" style="stroke:#C82930;stroke-width:1.0;" width="6" x="498" y="255.2754"/><text fill="#000000" font-family="sans-serif" font-size="14" lengthAdjust="spacing" textLength="25" x="510" y="262.0664">set(</text><text fill="#000000" font-family="sans-serif" font-size="14" lengthAdjust="spacing" textLength="5" x="535" y="262.0664">)</text><rect fill="#F24D5C" height="6" style="stroke:#C82930;stroke-width:1.0;" width="6" x="498" y="271.7637"/><text fill="#000000" font-family="sans-serif" font-size="14" lengthAdjust="spacing" textLength="53" x="510" y="278.5547">update(</text><text fill="#000000" font-family="sans-serif" font-size="14" lengthAdjust="spacing" textLength="5" x="563" y="278.5547">)</text><rect fill="#F24D5C" height="6" style="stroke:#C82930;stroke-width:1.0;" width="6" x="498" y="288.252"/><text fill="#000000" font-family="sans-serif" font-size="14" lengthAdjust="spacing" textLength="101" x="510" y="295.043">getUserWhere(</text><text fill="#000000" font-family="sans-serif" font-size="14" lengthAdjust="spacing" textLength="5" x="611" y="295.043">)</text><rect fill="#F24D5C" height="6" style="stroke:#C82930;stroke-width:1.0;" width="6" x="498" y="304.7402"/><text fill="#000000" font-family="sans-serif" font-size="14" lengthAdjust="spacing" textLength="137" x="510" y="311.5313">getCustomerWhere(</text><text fill="#000000" font-family="sans-serif" font-size="14" lengthAdjust="spacing" textLength="5" x="647" y="311.5313">)</text><rect fill="#F24D5C" height="6" style="stroke:#C82930;stroke-width:1.0;" width="6" x="498" y="321.2285"/><text fill="#000000" font-family="sans-serif" font-size="14" lengthAdjust="spacing" textLength="170" x="510" y="328.0195">getWarehouseCarWhere(</text><text fill="#000000" font-family="sans-serif" font-size="14" lengthAdjust="spacing" textLength="5" x="680" y="328.0195">)</text><rect fill="#F24D5C" height="6" style="stroke:#C82930;stroke-width:1.0;" width="6" x="498" y="337.7168"/><text fill="#000000" font-family="sans-serif" font-size="14" lengthAdjust="spacing" textLength="118" x="510" y="344.5078">getInvoiceWhere(</text><text fill="#000000" font-family="sans-serif" font-size="14" lengthAdjust="spacing" textLength="5" x="628" y="344.5078">)</text><rect fill="#F24D5C" height="6" style="stroke:#C82930;stroke-width:1.0;" width="6" x="498" y="354.2051"/><text fill="#000000" font-family="sans-serif" font-size="14" lengthAdjust="spacing" textLength="148" x="510" y="360.9961">getComplaintsWhere(</text><text fill="#000000" font-family="sans-serif" font-size="14" lengthAdjust="spacing" textLength="5" x="658" y="360.9961">)</text><rect fill="#F24D5C" height="6" style="stroke:#C82930;stroke-width:1.0;" width="6" x="498" y="370.6934"/><text fill="#000000" font-family="sans-serif" font-size="14" lengthAdjust="spacing" textLength="167" x="510" y="377.4844">getFirstCustomerWhere(</text><text fill="#000000" font-family="sans-serif" font-size="14" lengthAdjust="spacing" textLength="5" x="677" y="377.4844">)</text><rect fill="#F24D5C" height="6" style="stroke:#C82930;stroke-width:1.0;" width="6" x="498" y="387.1816"/><text fill="#000000" font-family="sans-serif" font-size="14" lengthAdjust="spacing" textLength="194" x="510" y="393.9727">getUserFromWarehouseCar(</text><text fill="#6060BB" font-family="sans-serif" font-size="14" lengthAdjust="spacing" textLength="421" x="704" y="393.9727">item:Examples.BadDesign.CarExample.WarehouseEntities.Car</text><text fill="#000000" font-family="sans-serif" font-size="14" lengthAdjust="spacing" textLength="5" x="1125" y="393.9727">)</text><rect fill="#F24D5C" height="6" style="stroke:#C82930;stroke-width:1.0;" width="6" x="498" y="403.6699"/><text fill="#000000" font-family="sans-serif" font-size="14" lengthAdjust="spacing" textLength="201" x="510" y="410.4609">getCustomerFromComplaint(</text><text fill="#6060BB" font-family="sans-serif" font-size="14" lengthAdjust="spacing" textLength="513" x="711" y="410.4609">complaint:Examples.BadDesign.CarExample.WarehouseEntities.Complaints</text><text fill="#000000" font-family="sans-serif" font-size="14" lengthAdjust="spacing" textLength="5" x="1224" y="410.4609">)</text><rect fill="#F24D5C" height="6" style="stroke:#C82930;stroke-width:1.0;" width="6" x="498" y="420.1582"/><text fill="#000000" font-family="sans-serif" font-size="14" lengthAdjust="spacing" textLength="194" x="510" y="426.9492">getWarehouseCarFromUser(</text><text fill="#6060BB" font-family="sans-serif" font-size="14" lengthAdjust="spacing" textLength="421" x="704" y="426.9492">user:Examples.BadDesign.CarExample.WarehouseEntities.Car</text><text fill="#000000" font-family="sans-serif" font-size="14" lengthAdjust="spacing" textLength="5" x="1125" y="426.9492">)</text><rect fill="#F24D5C" height="6" style="stroke:#C82930;stroke-width:1.0;" width="6" x="498" y="436.6465"/><text fill="#000000" font-family="sans-serif" font-size="14" lengthAdjust="spacing" textLength="178" x="510" y="443.4375">getInvoiceFromCustomer(</text><text fill="#6060BB" font-family="sans-serif" font-size="14" lengthAdjust="spacing" textLength="441" x="688" y="443.4375">c:Examples.BadDesign.CarExample.WarehouseEntities.Customer</text><text fill="#000000" font-family="sans-serif" font-size="14" lengthAdjust="spacing" textLength="5" x="1129" y="443.4375">)</text><rect fill="#F24D5C" height="6" style="stroke:#C82930;stroke-width:1.0;" width="6" x="498" y="453.1348"/><text fill="#000000" font-family="sans-serif" font-size="14" lengthAdjust="spacing" textLength="241" x="510" y="459.9258">getComplaintsFromWarehouseCar(</text><text fill="#6060BB" font-family="sans-serif" font-size="14" lengthAdjust="spacing" textLength="421" x="751" y="459.9258">item:Examples.BadDesign.CarExample.WarehouseEntities.Car</text><text fill="#000000" font-family="sans-serif" font-size="14" lengthAdjust="spacing" textLength="5" x="1172" y="459.9258">)</text><rect fill="#F24D5C" height="6" style="stroke:#C82930;stroke-width:1.0;" width="6" x="498" y="469.623"/><text fill="#000000" font-family="sans-serif" font-size="14" lengthAdjust="spacing" textLength="128" x="510" y="476.4141">getCarFromDriver(</text><text fill="#6060BB" font-family="sans-serif" font-size="14" lengthAdjust="spacing" textLength="349" x="638" y="476.4141">d:Examples.BadDesign.CarExample.CarParts.Driver</text><text fill="#000000" font-family="sans-serif" font-size="14" lengthAdjust="spacing" textLength="5" x="987" y="476.4141">)</text><rect fill="#F24D5C" height="6" style="stroke:#C82930;stroke-width:1.0;" width="6" x="498" y="486.1113"/><text fill="#000000" font-family="sans-serif" font-size="14" lengthAdjust="spacing" textLength="128" x="510" y="492.9023">getDriverFromCar(</text><text fill="#6060BB" font-family="sans-serif" font-size="14" lengthAdjust="spacing" textLength="268" x="638" y="492.9023">c:Examples.BadDesign.CarExample.Car</text><text fill="#000000" font-family="sans-serif" font-size="14" lengthAdjust="spacing" textLength="5" x="906" y="492.9023">)</text><rect fill="#F24D5C" height="6" style="stroke:#C82930;stroke-width:1.0;" width="6" x="498" y="502.5996"/><text fill="#000000" font-family="sans-serif" font-size="14" lengthAdjust="spacing" textLength="135" x="510" y="509.3906">getWheelsFromCar(</text><text fill="#6060BB" font-family="sans-serif" font-size="14" lengthAdjust="spacing" textLength="268" x="645" y="509.3906">c:Examples.BadDesign.CarExample.Car</text><text fill="#000000" font-family="sans-serif" font-size="14" lengthAdjust="spacing" textLength="5" x="913" y="509.3906">)</text><rect fill="#F24D5C" height="6" style="stroke:#C82930;stroke-width:1.0;" width="6" x="498" y="519.0879"/><text fill="#000000" font-family="sans-serif" font-size="14" lengthAdjust="spacing" textLength="128" x="510" y="525.8789">getDoorsFromCar(</text><text fill="#6060BB" font-family="sans-serif" font-size="14" lengthAdjust="spacing" textLength="268" x="638" y="525.8789">c:Examples.BadDesign.CarExample.Car</text><text fill="#000000" font-family="sans-serif" font-size="14" lengthAdjust="spacing" textLength="5" x="906" y="525.8789">)</text><rect fill="#F24D5C" height="6" style="stroke:#C82930;stroke-width:1.0;" width="6" x="498" y="535.5762"/><text fill="#000000" font-family="sans-serif" font-size="14" lengthAdjust="spacing" textLength="123" x="510" y="542.3672">getSeatsFromCar(</text><text fill="#6060BB" font-family="sans-serif" font-size="14" lengthAdjust="spacing" textLength="268" x="633" y="542.3672">c:Examples.BadDesign.CarExample.Car</text><text fill="#000000" font-family="sans-serif" font-size="14" lengthAdjust="spacing" textLength="5" x="901" y="542.3672">)</text></g></a><!--class Car--><a href="Examples.BadDesign.CarExample.Car-diagram-detailed.svg" target="_top" title="Examples.BadDesign.CarExample.Car-diagram-detailed.svg" xlink:actuate="onRequest" xlink:href="Examples.BadDesign.CarExample.Car-diagram-detailed.svg" xlink:show="new" xlink:title="Examples.BadDesign.CarExample.Car-diagram-detailed.svg" xlink:type="simple"><g id="elem_Car"><rect codeLine="26" fill="#FFFF00" height="138.4414" id="Car" rx="2.5" ry="2.5" style="stroke:#181818;stroke-width:0.5;" width="482" x="1180.5" y="609.5547"/><ellipse cx="1405.25" cy="625.5547" fill="#A9DCDF" rx="11" ry="11" style="stroke:#181818;stroke-width:1.0;"/><path d="M1405.1133,620.9028 L1403.9595,625.9746 L1406.2754,625.9746 Z M1403.6191,618.6616 L1406.6157,618.6616 L1409.9609,631.0547 L1407.5122,631.0547 L1406.7485,627.9917 L1403.4697,627.9917 L1402.7227,631.0547 L1400.2739,631.0547 Z " fill="#000000"/><text fill="#000000" font-family="sans-serif" font-size="14" font-style="italic" lengthAdjust="spacing" textLength="24" x="1425.75" y="630.8457">Car</text><line style="stroke:#181818;stroke-width:0.5;" x1="1181.5" x2="1661.5" y1="641.5547" y2="641.5547"/><ellipse cx="1191.5" cy="655.2988" fill="none" rx="3" ry="3" style="stroke:#038048;stroke-width:1.0;"/><text fill="#000000" font-family="sans-serif" font-size="14" lengthAdjust="spacing" textLength="398" x="1200.5" y="659.0898">wheels: Examples.BadDesign.CarExample.CarParts.Wheels</text><ellipse cx="1191.5" cy="671.7871" fill="none" rx="3" ry="3" style="stroke:#038048;stroke-width:1.0;"/><text fill="#000000" font-family="sans-serif" font-size="14" lengthAdjust="spacing" textLength="337" x="1200.5" y="675.5781">vehicle: Examples.BadDesign.CarExample.Vehicle</text><ellipse cx="1191.5" cy="688.2754" fill="none" rx="3" ry="3" style="stroke:#038048;stroke-width:1.0;"/><text fill="#000000" font-family="sans-serif" font-size="14" lengthAdjust="spacing" textLength="277" x="1200.5" y="692.0664">db: Examples.BadDesign.CarExample.DB</text><line style="stroke:#181818;stroke-width:1.0;" x1="1181.5" x2="1661.5" y1="699.0195" y2="699.0195"/><line style="stroke:#181818;stroke-width:1.0;" x1="1181.5" x2="1661.5" y1="701.0195" y2="701.0195"/><rect fill="#F24D5C" height="6" style="stroke:#C82930;stroke-width:1.0;" width="6" x="1188.5" y="709.7637"/><text fill="#000000" font-family="sans-serif" font-size="14" lengthAdjust="spacing" textLength="71" x="1200.5" y="716.5547">createCar(</text><text fill="#6060BB" font-family="sans-serif" font-size="14" lengthAdjust="spacing" textLength="380" x="1271.5" y="716.5547">doors:Examples.BadDesign.CarExample.CarParts.Doors</text><text fill="#000000" font-family="sans-serif" font-size="14" lengthAdjust="spacing" textLength="5" x="1651.5" y="716.5547">)</text><rect fill="none" height="6" style="stroke:#C82930;stroke-width:1.0;" width="6" x="1188.5" y="726.252"/><text fill="#909090" font-family="sans-serif" font-size="14" lengthAdjust="spacing" textLength="444" x="1200.5" y="733.043">createCar.seats: Examples.BadDesign.CarExample.CarParts.Seats</text><line style="stroke:#181818;stroke-width:1.0;" x1="1181.5" x2="1661.5" y1="739.9961" y2="739.9961"/></g></a><!--class Vehicle--><a href="Examples.BadDesign.CarExample.Vehicle-diagram-detailed.svg" target="_top" title="Examples.BadDesign.CarExample.Vehicle-diagram-detailed.svg" xlink:actuate="onRequest" xlink:href="Examples.BadDesign.CarExample.Vehicle-diagram-detailed.svg" xlink:show="new" xlink:title="Examples.BadDesign.CarExample.Vehicle-diagram-detailed.svg" xlink:type="simple"><g id="elem_Vehicle"><rect codeLine="35" fill="#FFFF00" height="97.4648" id="Vehicle" rx="2.5" ry="2.5" style="stroke:#181818;stroke-width:0.5;" width="303" x="1120" y="807.5547"/><ellipse cx="1242.75" cy="823.5547" fill="#A9DCDF" rx="11" ry="11" style="stroke:#181818;stroke-width:1.0;"/><path d="M1242.6133,818.9028 L1241.4595,823.9746 L1243.7754,823.9746 Z M1241.1191,816.6616 L1244.1157,816.6616 L1247.4609,829.0547 L1245.0122,829.0547 L1244.2485,825.9917 L1240.9697,825.9917 L1240.2227,829.0547 L1237.7739,829.0547 Z " fill="#000000"/><text fill="#000000" font-family="sans-serif" font-size="14" font-style="italic" lengthAdjust="spacing" textLength="49" x="1263.25" y="828.8457">Vehicle</text><line style="stroke:#181818;stroke-width:0.5;" x1="1121" x2="1422" y1="839.5547" y2="839.5547"/><ellipse cx="1131" cy="853.2988" fill="none" rx="3" ry="3" style="stroke:#038048;stroke-width:1.0;"/><text fill="#000000" font-family="sans-serif" font-size="14" lengthAdjust="spacing" textLength="277" x="1140" y="857.0898">db: Examples.BadDesign.CarExample.DB</text><line style="stroke:#181818;stroke-width:1.0;" x1="1121" x2="1422" y1="864.043" y2="864.043"/><line style="stroke:#181818;stroke-width:1.0;" x1="1121" x2="1422" y1="866.043" y2="866.043"/><rect fill="#F24D5C" height="6" style="stroke:#C82930;stroke-width:1.0;" width="6" x="1128" y="874.7871"/><text fill="#000000" font-family="sans-serif" font-size="14" lengthAdjust="spacing" textLength="67" x="1140" y="881.5781">setSpeed(</text><text fill="#000000" font-family="sans-serif" font-size="14" lengthAdjust="spacing" textLength="5" x="1207" y="881.5781">)</text><rect fill="#F24D5C" height="6" style="stroke:#C82930;stroke-width:1.0;" width="6" x="1128" y="891.2754"/><text fill="#000000" font-family="sans-serif" font-size="14" lengthAdjust="spacing" textLength="69" x="1140" y="898.0664">getSpeed(</text><text fill="#000000" font-family="sans-serif" font-size="14" lengthAdjust="spacing" textLength="5" x="1209" y="898.0664">)</text></g></a><!--class Driver--><a href="Examples.BadDesign.CarExample.CarParts.Driver-diagram-detailed.svg" target="_top" title="Examples.BadDesign.CarExample.CarParts.Driver-diagram-detailed.svg" xlink:actuate="onRequest" xlink:href="Examples.BadDesign.CarExample.CarParts.Driver-diagram-detailed.svg" xlink:show="new" xlink:title="Examples.BadDesign.CarExample.CarParts.Driver-diagram-detailed.svg" xlink:type="simple"><g id="elem_Driver"><rect codeLine="41" fill="#FFFF00" height="80.9766" id="Driver" rx="2.5" ry="2.5" style="stroke:#181818;stroke-width:0.5;" width="303" x="2284" y="320.0547"/><ellipse cx="2410.75" cy="336.0547" fill="#A9DCDF" rx="11" ry="11" style="stroke:#181818;stroke-width:1.0;"/><path d="M2410.6133,331.4028 L2409.4595,336.4746 L2411.7754,336.4746 Z M2409.1191,329.1616 L2412.1157,329.1616 L2415.4609,341.5547 L2413.0122,341.5547 L2412.2485,338.4917 L2408.9697,338.4917 L2408.2227,341.5547 L2405.7739,341.5547 Z " fill="#000000"/><text fill="#000000" font-family="sans-serif" font-size="14" font-style="italic" lengthAdjust="spacing" textLength="41" x="2431.25" y="341.3457">Driver</text><line style="stroke:#181818;stroke-width:0.5;" x1="2285" x2="2586" y1="352.0547" y2="352.0547"/><ellipse cx="2295" cy="365.7988" fill="none" rx="3" ry="3" style="stroke:#038048;stroke-width:1.0;"/><text fill="#000000" font-family="sans-serif" font-size="14" lengthAdjust="spacing" textLength="277" x="2304" y="369.5898">db: Examples.BadDesign.CarExample.DB</text><line style="stroke:#181818;stroke-width:1.0;" x1="2285" x2="2586" y1="376.543" y2="376.543"/><line style="stroke:#181818;stroke-width:1.0;" x1="2285" x2="2586" y1="378.543" y2="378.543"/><rect fill="#F24D5C" height="6" style="stroke:#C82930;stroke-width:1.0;" width="6" x="2292" y="387.2871"/><text fill="#000000" font-family="sans-serif" font-size="14" lengthAdjust="spacing" textLength="74" x="2304" y="394.0781">getWeight(</text><text fill="#000000" font-family="sans-serif" font-size="14" lengthAdjust="spacing" textLength="5" x="2378" y="394.0781">)</text></g></a><!--class Wheels--><a href="Examples.BadDesign.CarExample.CarParts.Wheels-diagram-detailed.svg" target="_top" title="Examples.BadDesign.CarExample.CarParts.Wheels-diagram-detailed.svg" xlink:actuate="onRequest" xlink:href="Examples.BadDesign.CarExample.CarParts.Wheels-diagram-detailed.svg" xlink:show="new" xlink:title="Examples.BadDesign.CarExample.CarParts.Wheels-diagram-detailed.svg" xlink:type="simple"><g id="elem_Wheels"><rect codeLine="46" fill="#FFFF00" height="80.9766" id="Wheels" rx="2.5" ry="2.5" style="stroke:#181818;stroke-width:0.5;" width="303" x="1946" y="320.0547"/><ellipse cx="2069.25" cy="336.0547" fill="#A9DCDF" rx="11" ry="11" style="stroke:#181818;stroke-width:1.0;"/><path d="M2069.1133,331.4028 L2067.9595,336.4746 L2070.2754,336.4746 Z M2067.6191,329.1616 L2070.6157,329.1616 L2073.9609,341.5547 L2071.5122,341.5547 L2070.7485,338.4917 L2067.4697,338.4917 L2066.7227,341.5547 L2064.2739,341.5547 Z " fill="#000000"/><text fill="#000000" font-family="sans-serif" font-size="14" font-style="italic" lengthAdjust="spacing" textLength="48" x="2089.75" y="341.3457">Wheels</text><line style="stroke:#181818;stroke-width:0.5;" x1="1947" x2="2248" y1="352.0547" y2="352.0547"/><ellipse cx="1957" cy="365.7988" fill="none" rx="3" ry="3" style="stroke:#038048;stroke-width:1.0;"/><text fill="#000000" font-family="sans-serif" font-size="14" lengthAdjust="spacing" textLength="277" x="1966" y="369.5898">db: Examples.BadDesign.CarExample.DB</text><line style="stroke:#181818;stroke-width:1.0;" x1="1947" x2="2248" y1="376.543" y2="376.543"/><line style="stroke:#181818;stroke-width:1.0;" x1="1947" x2="2248" y1="378.543" y2="378.543"/><rect fill="#F24D5C" height="6" style="stroke:#C82930;stroke-width:1.0;" width="6" x="1954" y="387.2871"/><text fill="#000000" font-family="sans-serif" font-size="14" lengthAdjust="spacing" textLength="74" x="1966" y="394.0781">getWeight(</text><text fill="#000000" font-family="sans-serif" font-size="14" lengthAdjust="spacing" textLength="5" x="2040" y="394.0781">)</text></g></a><!--class Doors--><a href="Examples.BadDesign.CarExample.CarParts.Doors-diagram-detailed.svg" target="_top" title="Examples.BadDesign.CarExample.CarParts.Doors-diagram-detailed.svg" xlink:actuate="onRequest" xlink:href="Examples.BadDesign.CarExample.CarParts.Doors-diagram-detailed.svg" xlink:show="new" xlink:title="Examples.BadDesign.CarExample.CarParts.Doors-diagram-detailed.svg" xlink:type="simple"><g id="elem_Doors"><rect codeLine="51" fill="#FFFF00" height="80.9766" id="Doors" rx="2.5" ry="2.5" style="stroke:#181818;stroke-width:0.5;" width="303" x="1608" y="320.0547"/><ellipse cx="1734.75" cy="336.0547" fill="#A9DCDF" rx="11" ry="11" style="stroke:#181818;stroke-width:1.0;"/><path d="M1734.6133,331.4028 L1733.4595,336.4746 L1735.7754,336.4746 Z M1733.1191,329.1616 L1736.1157,329.1616 L1739.4609,341.5547 L1737.0122,341.5547 L1736.2485,338.4917 L1732.9697,338.4917 L1732.2227,341.5547 L1729.7739,341.5547 Z " fill="#000000"/><text fill="#000000" font-family="sans-serif" font-size="14" font-style="italic" lengthAdjust="spacing" textLength="41" x="1755.25" y="341.3457">Doors</text><line style="stroke:#181818;stroke-width:0.5;" x1="1609" x2="1910" y1="352.0547" y2="352.0547"/><ellipse cx="1619" cy="365.7988" fill="none" rx="3" ry="3" style="stroke:#038048;stroke-width:1.0;"/><text fill="#000000" font-family="sans-serif" font-size="14" lengthAdjust="spacing" textLength="277" x="1628" y="369.5898">db: Examples.BadDesign.CarExample.DB</text><line style="stroke:#181818;stroke-width:1.0;" x1="1609" x2="1910" y1="376.543" y2="376.543"/><line style="stroke:#181818;stroke-width:1.0;" x1="1609" x2="1910" y1="378.543" y2="378.543"/><rect fill="#F24D5C" height="6" style="stroke:#C82930;stroke-width:1.0;" width="6" x="1616" y="387.2871"/><text fill="#000000" font-family="sans-serif" font-size="14" lengthAdjust="spacing" textLength="74" x="1628" y="394.0781">getWeight(</text><text fill="#000000" font-family="sans-serif" font-size="14" lengthAdjust="spacing" textLength="5" x="1702" y="394.0781">)</text></g></a><!--class Seats--><a href="Examples.BadDesign.CarExample.CarParts.Seats-diagram-detailed.svg" target="_top" title="Examples.BadDesign.CarExample.CarParts.Seats-diagram-detailed.svg" xlink:actuate="onRequest" xlink:href="Examples.BadDesign.CarExample.CarParts.Seats-diagram-detailed.svg" xlink:show="new" xlink:title="Examples.BadDesign.CarExample.CarParts.Seats-diagram-detailed.svg" xlink:type="simple"><g id="elem_Seats"><rect codeLine="56" fill="#FFFF00" height="80.9766" id="Seats" rx="2.5" ry="2.5" style="stroke:#181818;stroke-width:0.5;" width="303" x="1270" y="320.0547"/><ellipse cx="1399.25" cy="336.0547" fill="#A9DCDF" rx="11" ry="11" style="stroke:#181818;stroke-width:1.0;"/><path d="M1399.1133,331.4028 L1397.9595,336.4746 L1400.2754,336.4746 Z M1397.6191,329.1616 L1400.6157,329.1616 L1403.9609,341.5547 L1401.5122,341.5547 L1400.7485,338.4917 L1397.4697,338.4917 L1396.7227,341.5547 L1394.2739,341.5547 Z " fill="#000000"/><text fill="#000000" font-family="sans-serif" font-size="14" font-style="italic" lengthAdjust="spacing" textLength="36" x="1419.75" y="341.3457">Seats</text><line style="stroke:#181818;stroke-width:0.5;" x1="1271" x2="1572" y1="352.0547" y2="352.0547"/><ellipse cx="1281" cy="365.7988" fill="none" rx="3" ry="3" style="stroke:#038048;stroke-width:1.0;"/><text fill="#000000" font-family="sans-serif" font-size="14" lengthAdjust="spacing" textLength="277" x="1290" y="369.5898">db: Examples.BadDesign.CarExample.DB</text><line style="stroke:#181818;stroke-width:1.0;" x1="1271" x2="1572" y1="376.543" y2="376.543"/><line style="stroke:#181818;stroke-width:1.0;" x1="1271" x2="1572" y1="378.543" y2="378.543"/><rect fill="#F24D5C" height="6" style="stroke:#C82930;stroke-width:1.0;" width="6" x="1278" y="387.2871"/><text fill="#000000" font-family="sans-serif" font-size="14" lengthAdjust="spacing" textLength="74" x="1290" y="394.0781">getWeight(</text><text fill="#000000" font-family="sans-serif" font-size="14" lengthAdjust="spacing" textLength="5" x="1364" y="394.0781">)</text></g></a><!--class Car--><a href="Examples.BadDesign.CarExample.WarehouseEntities.Car-diagram-detailed.svg" target="_top" title="Examples.BadDesign.CarExample.WarehouseEntities.Car-diagram-detailed.svg" xlink:actuate="onRequest" xlink:href="Examples.BadDesign.CarExample.WarehouseEntities.Car-diagram-detailed.svg" xlink:show="new" xlink:title="Examples.BadDesign.CarExample.WarehouseEntities.Car-diagram-detailed.svg" xlink:type="simple"><g id="elem_Car"><rect codeLine="61" fill="#FFFF00" height="48" id="Car" rx="2.5" ry="2.5" style="stroke:#181818;stroke-width:0.5;" width="56" x="1006.5" y="654.5547"/><ellipse cx="1021.5" cy="670.5547" fill="#A9DCDF" rx="11" ry="11" style="stroke:#181818;stroke-width:1.0;"/><path d="M1021.3633,665.9028 L1020.2095,670.9746 L1022.5254,670.9746 Z M1019.8691,663.6616 L1022.8657,663.6616 L1026.2109,676.0547 L1023.7622,676.0547 L1022.9985,672.9917 L1019.7197,672.9917 L1018.9727,676.0547 L1016.5239,676.0547 Z " fill="#000000"/><text fill="#000000" font-family="sans-serif" font-size="14" font-style="italic" lengthAdjust="spacing" textLength="24" x="1035.5" y="675.8457">Car</text><line style="stroke:#181818;stroke-width:0.5;" x1="1007.5" x2="1061.5" y1="686.5547" y2="686.5547"/><line style="stroke:#181818;stroke-width:0.5;" x1="1007.5" x2="1061.5" y1="694.5547" y2="694.5547"/></g></a><!--class Complaints--><a href="Examples.BadDesign.CarExample.WarehouseEntities.Complaints-diagram-detailed.svg" target="_top" title="Examples.BadDesign.CarExample.WarehouseEntities.Complaints-diagram-detailed.svg" xlink:actuate="onRequest" xlink:href="Examples.BadDesign.CarExample.WarehouseEntities.Complaints-diagram-detailed.svg" xlink:show="new" xlink:title="Examples.BadDesign.CarExample.WarehouseEntities.Complaints-diagram-detailed.svg" xlink:type="simple"><g id="elem_Complaints"><rect codeLine="63" fill="#FFFF00" height="48" id="Complaints" rx="2.5" ry="2.5" style="stroke:#181818;stroke-width:0.5;" width="110" x="861.5" y="654.5547"/><ellipse cx="876.5" cy="670.5547" fill="#A9DCDF" rx="11" ry="11" style="stroke:#181818;stroke-width:1.0;"/><path d="M876.3633,665.9028 L875.2095,670.9746 L877.5254,670.9746 Z M874.8691,663.6616 L877.8657,663.6616 L881.2109,676.0547 L878.7622,676.0547 L877.9985,672.9917 L874.7197,672.9917 L873.9727,676.0547 L871.5239,676.0547 Z " fill="#000000"/><text fill="#000000" font-family="sans-serif" font-size="14" font-style="italic" lengthAdjust="spacing" textLength="78" x="890.5" y="675.8457">Complaints</text><line style="stroke:#181818;stroke-width:0.5;" x1="862.5" x2="970.5" y1="686.5547" y2="686.5547"/><line style="stroke:#181818;stroke-width:0.5;" x1="862.5" x2="970.5" y1="694.5547" y2="694.5547"/></g></a><!--class Customer--><a href="Examples.BadDesign.CarExample.WarehouseEntities.Customer-diagram-detailed.svg" target="_top" title="Examples.BadDesign.CarExample.WarehouseEntities.Customer-diagram-detailed.svg" xlink:actuate="onRequest" xlink:href="Examples.BadDesign.CarExample.WarehouseEntities.Customer-diagram-detailed.svg" xlink:show="new" xlink:title="Examples.BadDesign.CarExample.WarehouseEntities.Customer-diagram-detailed.svg" xlink:type="simple"><g id="elem_Customer"><rect codeLine="65" fill="#FFFF00" height="48" id="Customer" rx="2.5" ry="2.5" style="stroke:#181818;stroke-width:0.5;" width="99" x="727" y="654.5547"/><ellipse cx="742" cy="670.5547" fill="#A9DCDF" rx="11" ry="11" style="stroke:#181818;stroke-width:1.0;"/><path d="M741.8633,665.9028 L740.7095,670.9746 L743.0254,670.9746 Z M740.3691,663.6616 L743.3657,663.6616 L746.7109,676.0547 L744.2622,676.0547 L743.4985,672.9917 L740.2197,672.9917 L739.4727,676.0547 L737.0239,676.0547 Z " fill="#000000"/><text fill="#000000" font-family="sans-serif" font-size="14" font-style="italic" lengthAdjust="spacing" textLength="67" x="756" y="675.8457">Customer</text><line style="stroke:#181818;stroke-width:0.5;" x1="728" x2="825" y1="686.5547" y2="686.5547"/><line style="stroke:#181818;stroke-width:0.5;" x1="728" x2="825" y1="694.5547" y2="694.5547"/></g></a><!--class User--><a href="Examples.BadDesign.CarExample.WarehouseEntities.User-diagram-detailed.svg" target="_top" title="Examples.BadDesign.CarExample.WarehouseEntities.User-diagram-detailed.svg" xlink:actuate="onRequest" xlink:href="Examples.BadDesign.CarExample.WarehouseEntities.User-diagram-detailed.svg" xlink:show="new" xlink:title="Examples.BadDesign.CarExample.WarehouseEntities.User-diagram-detailed.svg" xlink:type="simple"><g id="elem_User"><rect codeLine="67" fill="#FFFF00" height="48" id="User" rx="2.5" ry="2.5" style="stroke:#181818;stroke-width:0.5;" width="63" x="629" y="654.5547"/><ellipse cx="644" cy="670.5547" fill="#A9DCDF" rx="11" ry="11" style="stroke:#181818;stroke-width:1.0;"/><path d="M643.8633,665.9028 L642.7095,670.9746 L645.0254,670.9746 Z M642.3691,663.6616 L645.3657,663.6616 L648.7109,676.0547 L646.2622,676.0547 L645.4985,672.9917 L642.2197,672.9917 L641.4727,676.0547 L639.0239,676.0547 Z " fill="#000000"/><text fill="#000000" font-family="sans-serif" font-size="14" font-style="italic" lengthAdjust="spacing" textLength="31" x="658" y="675.8457">User</text><line style="stroke:#181818;stroke-width:0.5;" x1="630" x2="691" y1="686.5547" y2="686.5547"/><line style="stroke:#181818;stroke-width:0.5;" x1="630" x2="691" y1="694.5547" y2="694.5547"/></g></a><!--class Invoice--><a href="Examples.BadDesign.CarExample.WarehouseEntities.Invoice-diagram-detailed.svg" target="_top" title="Examples.BadDesign.CarExample.WarehouseEntities.Invoice-diagram-detailed.svg" xlink:actuate="onRequest" xlink:href="Examples.BadDesign.CarExample.WarehouseEntities.Invoice-diagram-detailed.svg" xlink:show="new" xlink:title="Examples.BadDesign.CarExample.WarehouseEntities.Invoice-diagram-detailed.svg" xlink:type="simple"><g id="elem_Invoice"><rect codeLine="69" fill="#FFFF00" height="48" id="Invoice" rx="2.5" ry="2.5" style="stroke:#181818;stroke-width:0.5;" width="80" x="513.5" y="654.5547"/><ellipse cx="528.5" cy="670.5547" fill="#A9DCDF" rx="11" ry="11" style="stroke:#181818;stroke-width:1.0;"/><path d="M528.3633,665.9028 L527.2095,670.9746 L529.5254,670.9746 Z M526.8691,663.6616 L529.8657,663.6616 L533.2109,676.0547 L530.7622,676.0547 L529.9985,672.9917 L526.7197,672.9917 L525.9727,676.0547 L523.5239,676.0547 Z " fill="#000000"/><text fill="#000000" font-family="sans-serif" font-size="14" font-style="italic" lengthAdjust="spacing" textLength="48" x="542.5" y="675.8457">Invoice</text><line style="stroke:#181818;stroke-width:0.5;" x1="514.5" x2="592.5" y1="686.5547" y2="686.5547"/><line style="stroke:#181818;stroke-width:0.5;" x1="514.5" x2="592.5" y1="694.5547" y2="694.5547"/></g></a><g id="elem_FloatingNote"><path d="M6,236.5547 L6,484.2129 L409,484.2129 L409,246.5547 L399,236.5547 L6,236.5547 " fill="#FEFFDD" style="stroke:#181818;stroke-width:0.5;"/><path d="M399,236.5547 L399,246.5547 L409,246.5547 L399,236.5547 " fill="#FEFFDD" style="stroke:#181818;stroke-width:1.0;"/><text fill="#000000" font-family="sans-serif" font-size="13" lengthAdjust="spacing" textLength="120" x="12" y="254.123">Your are analyzing:</text><text fill="#000000" font-family="sans-serif" font-size="13" lengthAdjust="spacing" textLength="208" x="12" y="269.4336">Examples.BadDesign.CarExample</text><text fill="#000000" font-family="sans-serif" font-size="13" font-weight="bold" lengthAdjust="spacing" textLength="55" x="224" y="269.4336">detailed</text><text fill="#000000" font-family="sans-serif" font-size="13" lengthAdjust="spacing" textLength="4" x="279" y="269.4336">&#160;</text><text fill="#000000" font-family="sans-serif" font-size="13" lengthAdjust="spacing" textLength="4" x="12" y="284.7441">&#160;</text><text fill="#000000" font-family="sans-serif" font-size="13" lengthAdjust="spacing" textLength="229" x="12" y="315.3652">You can click either the namespaces</text><text fill="#000000" font-family="sans-serif" font-size="13" lengthAdjust="spacing" textLength="266" x="12" y="330.6758">or class names for filtering them and their</text><text fill="#000000" font-family="sans-serif" font-size="13" lengthAdjust="spacing" textLength="130" x="12" y="345.9863">direct dependencies.</text><text fill="#000000" font-family="sans-serif" font-size="13" lengthAdjust="spacing" textLength="4" x="12" y="361.2969">&#160;</text><line style="stroke:#181818;stroke-width:1.0;" x1="7" x2="191.5" y1="295.1416" y2="295.1416"/><line style="stroke:#181818;stroke-width:1.0;" x1="7" x2="191.5" y1="297.1416" y2="297.1416"/><text fill="#000000" font-family="sans-serif" font-size="13" lengthAdjust="spacing" textLength="32" x="191.5" y="299.5547">Filter</text><line style="stroke:#181818;stroke-width:1.0;" x1="223.5" x2="408" y1="295.1416" y2="295.1416"/><line style="stroke:#181818;stroke-width:1.0;" x1="223.5" x2="408" y1="297.1416" y2="297.1416"/><ellipse cx="17.5" cy="391.1602" fill="#000000" rx="2.5" ry="2.5" style="stroke:#000000;stroke-width:0.0;"/><text fill="#000000" font-family="sans-serif" font-size="13" lengthAdjust="spacing" textLength="208" x="24" y="395.918">Examples.BadDesign.CarExample</text><text fill="#000000" font-family="sans-serif" font-size="13" font-weight="bold" lengthAdjust="spacing" textLength="67" x="236" y="395.918">simplified</text><text fill="#000000" font-family="sans-serif" font-size="13" lengthAdjust="spacing" textLength="4" x="307" y="395.918">:</text><text fill="#000000" font-family="sans-serif" font-size="13" lengthAdjust="spacing" textLength="12" x="12" y="411.2285">&#160;&#160;&#160;</text><a href="Examples.BadDesign.CarExample-diagram-simplified.svg" target="_top" title="Examples.BadDesign.CarExample-diagram-simplified.svg" xlink:actuate="onRequest" xlink:href="Examples.BadDesign.CarExample-diagram-simplified.svg" xlink:show="new" xlink:title="Examples.BadDesign.CarExample-diagram-simplified.svg" xlink:type="simple"><text fill="#0000FF" font-family="sans-serif" font-size="13" lengthAdjust="spacing" text-decoration="underline" textLength="364" x="24" y="411.2285">Examples.BadDesign.CarExample-diagram-simplified.svg</text></a><ellipse cx="17.5" cy="421.7813" fill="#000000" rx="2.5" ry="2.5" style="stroke:#000000;stroke-width:0.0;"/><text fill="#000000" font-family="sans-serif" font-size="13" lengthAdjust="spacing" textLength="78" x="24" y="426.5391">Full diagram</text><text fill="#000000" font-family="sans-serif" font-size="13" font-weight="bold" lengthAdjust="spacing" textLength="55" x="106" y="426.5391">detailed</text><text fill="#000000" font-family="sans-serif" font-size="13" lengthAdjust="spacing" textLength="23" x="165" y="426.5391">and</text><text fill="#000000" font-family="sans-serif" font-size="13" font-weight="bold" lengthAdjust="spacing" textLength="166" x="192" y="426.5391">grouped per namespace</text><text fill="#000000" font-family="sans-serif" font-size="13" lengthAdjust="spacing" textLength="4" x="358" y="426.5391">:</text><text fill="#000000" font-family="sans-serif" font-size="13" lengthAdjust="spacing" textLength="12" x="12" y="441.8496">&#160;&#160;&#160;</text><a href="full-diagram-detailed-grouped-per-namespace.svg" target="_top" title="full-diagram-detailed-grouped-per-namespace.svg" xlink:actuate="onRequest" xlink:href="full-diagram-detailed-grouped-per-namespace.svg" xlink:show="new" xlink:title="full-diagram-detailed-grouped-per-namespace.svg" xlink:type="simple"><text fill="#0000FF" font-family="sans-serif" font-size="13" lengthAdjust="spacing" text-decoration="underline" textLength="330" x="24" y="441.8496">full-diagram-detailed-grouped-per-namespace.svg</text></a><ellipse cx="17.5" cy="452.4023" fill="#000000" rx="2.5" ry="2.5" style="stroke:#000000;stroke-width:0.0;"/><text fill="#000000" font-family="sans-serif" font-size="13" lengthAdjust="spacing" textLength="41" x="24" y="457.1602">Home:</text><text fill="#000000" font-family="sans-serif" font-size="13" lengthAdjust="spacing" textLength="12" x="12" y="472.4707">&#160;&#160;&#160;</text><a href="index.html" target="_top" title="index.html" xlink:actuate="onRequest" xlink:href="index.html" xlink:show="new" xlink:title="index.html" xlink:type="simple"><text fill="#0000FF" font-family="sans-serif" font-size="13" lengthAdjust="spacing" text-decoration="underline" textLength="68" x="24" y="472.4707">index.html</text></a><line style="stroke:#181818;stroke-width:1.0;" x1="7" x2="170.5" y1="375.6943" y2="375.6943"/><line style="stroke:#181818;stroke-width:1.0;" x1="7" x2="170.5" y1="377.6943" y2="377.6943"/><text fill="#000000" font-family="sans-serif" font-size="13" lengthAdjust="spacing" textLength="74" x="170.5" y="380.1074">Select other</text><line style="stroke:#181818;stroke-width:1.0;" x1="244.5" x2="408" y1="375.6943" y2="375.6943"/><line style="stroke:#181818;stroke-width:1.0;" x1="244.5" x2="408" y1="377.6943" y2="377.6943"/></g><!--link DB to Car--><g id="link_DB_Car"><path codeLine="76" d="M1034.5,549.6747 C1034.5,549.6747 1034.5,648.4247 1034.5,648.4247 " fill="none" id="DB-to-Car" style="stroke:#6060BB;stroke-width:1.0;stroke-dasharray:7.0,7.0;"/><polygon fill="#6060BB" points="1034.5,653.4247,1038.5,644.4247,1034.5,648.4247,1030.5,644.4247,1034.5,653.4247" style="stroke:#6060BB;stroke-width:1.0;"/><text fill="#000000" font-family="sans-serif" font-size="13" lengthAdjust="spacing" textLength="29" x="1004.5" y="595.613">uses</text></g><!--link DB to Complaints--><g id="link_DB_Complaints"><path codeLine="77" d="M916.5,549.6747 C916.5,549.6747 916.5,648.4247 916.5,648.4247 " fill="none" id="DB-to-Complaints" style="stroke:#6060BB;stroke-width:1.0;stroke-dasharray:7.0,7.0;"/><polygon fill="#6060BB" points="916.5,653.4247,920.5,644.4247,916.5,648.4247,912.5,644.4247,916.5,653.4247" style="stroke:#6060BB;stroke-width:1.0;"/><text fill="#000000" font-family="sans-serif" font-size="13" lengthAdjust="spacing" textLength="29" x="886.5" y="595.613">uses</text></g><!--link DB to Customer--><g id="link_DB_Customer"><path codeLine="78" d="M776.5,549.6747 C776.5,549.6747 776.5,648.4247 776.5,648.4247 " fill="none" id="DB-to-Customer" style="stroke:#6060BB;stroke-width:1.0;stroke-dasharray:7.0,7.0;"/><polygon fill="#6060BB" points="776.5,653.4247,780.5,644.4247,776.5,648.4247,772.5,644.4247,776.5,653.4247" style="stroke:#6060BB;stroke-width:1.0;"/><text fill="#000000" font-family="sans-serif" font-size="13" lengthAdjust="spacing" textLength="29" x="746.5" y="595.613">uses</text></g><!--link DB to Driver--><g id="link_DB_Driver"><path codeLine="79" d="M1235.49,520.5547 C1678.95,520.5547 2359.75,520.5547 2359.75,520.5547 C2359.75,520.5547 2359.75,407.3447 2359.75,407.3447 " fill="none" id="DB-to-Driver" style="stroke:#6060BB;stroke-width:1.0;stroke-dasharray:7.0,7.0;"/><polygon fill="#6060BB" points="2359.75,402.3447,2355.75,411.3447,2359.75,407.3447,2363.75,411.3447,2359.75,402.3447" style="stroke:#6060BB;stroke-width:1.0;"/><text fill="#000000" font-family="sans-serif" font-size="13" lengthAdjust="spacing" textLength="29" x="1824.23" y="517.123">uses</text></g><!--reverse link Driver to DB--><g id="link_Driver_DB"><path codeLine="90" d="M2435.5,415.3347 C2435.5,415.3347 2435.5,490.5547 2435.5,490.5547 C2435.5,490.5547 1700.44,490.5547 1235.28,490.5547 " fill="none" id="Driver-backto-DB" style="stroke:#10BB10;stroke-width:1.0;"/><polygon fill="#10BB10" points="2435.5,402.3347,2431.5,408.3347,2435.5,414.3347,2439.5,408.3347,2435.5,402.3347" style="stroke:#10BB10;stroke-width:1.0;"/></g><!--link DB to Car--><g id="link_DB_Car"><path codeLine="80" d="M1216.83,549.6747 C1216.83,549.6747 1216.83,603.1347 1216.83,603.1347 " fill="none" id="DB-to-Car-1" style="stroke:#6060BB;stroke-width:1.0;stroke-dasharray:7.0,7.0;"/><polygon fill="#6060BB" points="1216.83,608.1347,1220.83,599.1347,1216.83,603.1347,1212.83,599.1347,1216.83,608.1347" style="stroke:#6060BB;stroke-width:1.0;"/><text fill="#000000" font-family="sans-serif" font-size="13" lengthAdjust="spacing" textLength="29" x="1186.83" y="572.973">uses</text></g><!--reverse link Car to DB--><g id="link_Car_DB"><path codeLine="84" d="M1198.67,595.1647 C1198.67,595.1647 1198.67,549.8747 1198.67,549.8747 " fill="none" id="Car-backto-DB" style="stroke:#10BB10;stroke-width:1.0;"/><polygon fill="#10BB10" points="1198.67,608.1647,1202.67,602.1647,1198.67,596.1647,1194.67,602.1647,1198.67,608.1647" style="stroke:#10BB10;stroke-width:1.0;"/></g><!--reverse link Driver to Car--><g id="link_Driver_Car"><path codeLine="81" d="M2511.25,422.3447 C2511.25,422.3447 2511.25,701.5547 2511.25,701.5547 C2511.25,701.5547 1983.66,701.5547 1662.67,701.5547 " fill="none" id="Driver-backto-Car" style="stroke:#FF0000;stroke-width:1.0;"/><polygon fill="none" points="2504.25,422.3447,2511.25,402.3447,2518.25,422.3447,2504.25,422.3447" style="stroke:#FF0000;stroke-width:1.0;"/></g><!--reverse link Car to Wheels--><g id="link_Car_Wheels"><path codeLine="82" d="M1676.91,655.5547 C1676.91,655.5547 2148,655.5547 2148,655.5547 C2148,655.5547 2148,482.1947 2148,401.2647 " fill="none" id="Car-backto-Wheels" style="stroke:#10BB10;stroke-width:1.0;"/><polygon fill="#10BB10" points="1663.91,655.5547,1669.91,659.5547,1675.91,655.5547,1669.91,651.5547,1663.91,655.5547" style="stroke:#10BB10;stroke-width:1.0;"/></g><!--reverse link Car to Vehicle--><g id="link_Car_Vehicle"><path codeLine="83" d="M1301.75,761.9447 C1301.75,761.9447 1301.75,807.2947 1301.75,807.2947 " fill="none" id="Car-backto-Vehicle" style="stroke:#10BB10;stroke-width:1.0;"/><polygon fill="#10BB10" points="1301.75,748.9447,1297.75,754.9447,1301.75,760.9447,1305.75,754.9447,1301.75,748.9447" style="stroke:#10BB10;stroke-width:1.0;"/></g><!--link Car to Doors--><g id="link_Car_Doors"><path codeLine="85" d="M1644.33,609.1647 C1644.33,609.1647 1644.33,407.1647 1644.33,407.1647 " fill="none" id="Car-to-Doors" style="stroke:#6060BB;stroke-width:1.0;stroke-dasharray:7.0,7.0;"/><polygon fill="#6060BB" points="1644.33,402.1647,1640.33,411.1647,1644.33,407.1647,1648.33,411.1647,1644.33,402.1647" style="stroke:#6060BB;stroke-width:1.0;"/><text fill="#000000" font-family="sans-serif" font-size="13" lengthAdjust="spacing" textLength="29" x="1614.33" y="504.733">uses</text></g><!--link Car to Seats--><g id="link_Car_Seats"><path codeLine="86" d="M1421.5,609.1647 C1421.5,609.1647 1421.5,407.1647 1421.5,407.1647 " fill="none" id="Car-to-Seats" style="stroke:#909090;stroke-width:1.0;"/><polygon fill="#909090" points="1421.5,402.1647,1417.5,411.1647,1421.5,407.1647,1425.5,411.1647,1421.5,402.1647" style="stroke:#909090;stroke-width:1.0;"/><text fill="#000000" font-family="sans-serif" font-size="13" lengthAdjust="spacing" textLength="29" x="1391.5" y="504.733">uses</text></g><!--reverse link Vehicle to DB--><g id="link_Vehicle_DB"><path codeLine="87" d="M1150.25,793.1847 C1150.25,793.1847 1150.25,550.0247 1150.25,550.0247 " fill="none" id="Vehicle-backto-DB" style="stroke:#10BB10;stroke-width:1.0;"/><polygon fill="#10BB10" points="1150.25,806.1847,1154.25,800.1847,1150.25,794.1847,1146.25,800.1847,1150.25,806.1847" style="stroke:#10BB10;stroke-width:1.0;"/></g><!--reverse link Wheels to DB--><g id="link_Wheels_DB"><path codeLine="91" d="M2047,415.5147 C2047,415.5147 2047,460.5547 2047,460.5547 C2047,460.5547 1582.5,460.5547 1235.25,460.5547 " fill="none" id="Wheels-backto-DB" style="stroke:#10BB10;stroke-width:1.0;"/><polygon fill="#10BB10" points="2047,402.5147,2043,408.5147,2047,414.5147,2051,408.5147,2047,402.5147" style="stroke:#10BB10;stroke-width:1.0;"/></g><!--reverse link Doors to DB--><g id="link_Doors_DB"><path codeLine="92" d="M1626.17,415.4447 C1626.17,415.4447 1626.17,431.5547 1626.17,431.5547 C1626.17,431.5547 1429.24,431.5547 1235.38,431.5547 " fill="none" id="Doors-backto-DB" style="stroke:#10BB10;stroke-width:1.0;"/><polygon fill="#10BB10" points="1626.17,402.4447,1622.17,408.4447,1626.17,414.4447,1630.17,408.4447,1626.17,402.4447" style="stroke:#10BB10;stroke-width:1.0;"/></g><!--reverse link Seats to DB--><g id="link_Seats_DB"><path codeLine="93" d="M1255.86,360.5547 C1255.86,360.5547 1235.45,360.5547 1235.45,360.5547 " fill="none" id="Seats-backto-DB" style="stroke:#10BB10;stroke-width:1.0;"/><polygon fill="#10BB10" points="1268.86,360.5547,1262.86,356.5547,1256.86,360.5547,1262.86,364.5547,1268.86,360.5547" style="stroke:#10BB10;stroke-width:1.0;"/></g><!--SRC=[tLZRRjD047tFLupQ1y389l20H9JaePG8NX1I1HLgyh3OasJ5PjVQtPIMoxypwrjlQRnhaY98fSYrP-QSEMTlZldAPSuqMu7W4krbZg2qNQgUvLOW30t_ZeCN_V6R2xRA1PhaY6N7QFX29g-Phkv256Le6HUOHH4CdxcaSKygYt3mMQqrC8t091ENtxbS3AOoeDfKJkLeDE72eXwDffBgGSeaf8AdNm6vNQ86-WB9LcXobgAX7AKfW1bJteKv_JylIX2-YruHdSnTS3sL6TUOMiWmHvcXJ3aHAs5FKBWdoe4uy0ZQc1jE5tpE2-xKAG2SdMrDYZFE5cH0V9MQcFF5RERW9ciXe0gugOlZ7qKBhTOvPf2J28q0KLG3poczgLydnrLIJ4bnatI5-LQji2x0IP2BP6bNOZOx06PW8XIp9E9xChT78S2-6AiPYLJglRNLvFYeJGqAkKEuf0Q7boY4-WO_2bo061Pe7m_dIXAu4agF3bxsN_QFZWx6msVkxlZ9zKZ2CAVa8tgc6E_YwpnZ5lsPV3IeGvWuycjZoPRGj5EQU4krDaZD1wQ-a-UAfnZAKv69Z4jh0XCdN9kkNJez9rgjhdUxEPjRN0ssZx-co1j9Iw1R2kZXDaiSSjFsPjYqVXoEtUZPPg-ZuOJOp81YzAuQhqP6qNUbmJrjXoDMzROFhR_WTQdliURdzpMRjM3HvGUchKdA8fjGoYU5hgoZfFVmfmc5mkoZyh5IUY-5Jv3PtHR-5RvVqMNhXaMNlZlMK_XM6340px5I-jPad-EIfmBRqZ-LOKrQzcNGkY_tHgD6_LIJzlTFhCnPxZtQNV0TVs_KVTLtV-Hd3PiOvxstICL8gI1wSTpLwqgrLh-hE7_FG-MdWyT9ZfZvRu2-uR-gfD0vS7tXyfaFr-DzTGfNgbxRa2-MVaUrF-k_d8p-_PVn_q__nLGEiD-5_p_T5wkCV_T5-3_V_SO3Kgi86xDyjTWLp-Qqs8Lka_pGhAlpRnVELUe3CtQl71tOkhG7PbgzjdGWMsK6y7q4aTy7zXRx25uNCcaKp78b3U158HzcCATZzTNFHGEAtIf9h_L7dUJii5nsPicuqv820w1R1lODTRKgF1HYFQFtWdVxRBOl4D_2j_aCVyPdXngpMToEqLuQ8ghsd3W_x_iKl75gsstr-brXjrN95e-2dOP7SNJpDn68TFbQDel7OISaJv1QmK1vThYgDSG3n_Ik3RqnJFTJlBH_FxLBr_-YZNVMtDy0]--></g></svg>