<?xml version="1.0" encoding="us-ascii" standalone="no"?><svg xmlns="http://www.w3.org/2000/svg" xmlns:xlink="http://www.w3.org/1999/xlink" contentStyleType="text/css" height="752px" preserveAspectRatio="none" style="width:1490px;height:752px;background:#FFFFFF;" version="1.1" viewBox="0 0 1490 752" width="1490px" zoomAndPan="magnify"><defs/><g><text fill="#000000" font-family="sans-serif" font-size="20" font-weight="bold" lengthAdjust="spacing" textLength="640" x="369.25" y="29.3359">Examples.BadDesign.CarExample.WarehouseEntities.Customer</text><text fill="#000000" font-family="sans-serif" font-size="20" font-weight="bold" lengthAdjust="spacing" textLength="84" x="1016.25" y="29.3359">detailed</text><text fill="#000000" font-family="sans-serif" font-size="20" font-weight="bold" lengthAdjust="spacing" textLength="7" x="1100.25" y="29.3359">&#160;</text><!--cluster Examples--><g id="cluster_Examples"><path d="M612,50.5547 L681,50.5547 A3.75,3.75 0 0 1 683.5,53.0547 L690.5,73.043 L1481,73.043 A2.5,2.5 0 0 1 1483.5,75.543 L1483.5,743.0547 A2.5,2.5 0 0 1 1481,745.5547 L612,745.5547 A2.5,2.5 0 0 1 609.5,743.0547 L609.5,53.0547 A2.5,2.5 0 0 1 612,50.5547 " fill="none" style="stroke:#000000;stroke-width:1.5;"/><line style="stroke:#000000;stroke-width:1.5;" x1="609.5" x2="690.5" y1="73.043" y2="73.043"/><text fill="#000000" font-family="sans-serif" font-size="14" font-weight="bold" lengthAdjust="spacing" textLength="68" x="613.5" y="66.0898">Examples</text></g><!--cluster BadDesign--><g id="cluster_BadDesign"><path d="M636,93.5547 L713,93.5547 A3.75,3.75 0 0 1 715.5,96.0547 L722.5,116.043 L1457,116.043 A2.5,2.5 0 0 1 1459.5,118.543 L1459.5,719.0547 A2.5,2.5 0 0 1 1457,721.5547 L636,721.5547 A2.5,2.5 0 0 1 633.5,719.0547 L633.5,96.0547 A2.5,2.5 0 0 1 636,93.5547 " fill="none" style="stroke:#000000;stroke-width:1.5;"/><line style="stroke:#000000;stroke-width:1.5;" x1="633.5" x2="722.5" y1="116.043" y2="116.043"/><text fill="#000000" font-family="sans-serif" font-size="14" font-weight="bold" lengthAdjust="spacing" textLength="76" x="637.5" y="109.0898">BadDesign</text></g><!--cluster CarExample--><g id="cluster_CarExample"><path d="M660,136.5547 L745,136.5547 A3.75,3.75 0 0 1 747.5,139.0547 L754.5,159.043 L1433,159.043 A2.5,2.5 0 0 1 1435.5,161.543 L1435.5,695.0547 A2.5,2.5 0 0 1 1433,697.5547 L660,697.5547 A2.5,2.5 0 0 1 657.5,695.0547 L657.5,139.0547 A2.5,2.5 0 0 1 660,136.5547 " fill="none" style="stroke:#000000;stroke-width:1.5;"/><line style="stroke:#000000;stroke-width:1.5;" x1="657.5" x2="754.5" y1="159.043" y2="159.043"/><text fill="#000000" font-family="sans-serif" font-size="14" font-weight="bold" lengthAdjust="spacing" textLength="84" x="661.5" y="152.0898">CarExample</text></g><!--cluster WarehouseEntities--><g id="cluster_WarehouseEntities"><path d="M975,574.5547 L1109,574.5547 A3.75,3.75 0 0 1 1111.5,577.0547 L1118.5,597.043 L1119,597.043 A2.5,2.5 0 0 1 1121.5,599.543 L1121.5,671.0547 A2.5,2.5 0 0 1 1119,673.5547 L975,673.5547 A2.5,2.5 0 0 1 972.5,671.0547 L972.5,577.0547 A2.5,2.5 0 0 1 975,574.5547 " fill="none" style="stroke:#000000;stroke-width:1.5;"/><line style="stroke:#000000;stroke-width:1.5;" x1="972.5" x2="1118.5" y1="597.043" y2="597.043"/><text fill="#000000" font-family="sans-serif" font-size="14" font-weight="bold" lengthAdjust="spacing" textLength="133" x="976.5" y="590.0898">WarehouseEntities</text></g><!--class DB--><a href="Examples.BadDesign.CarExample.DB-diagram-detailed.svg" target="_top" title="Examples.BadDesign.CarExample.DB-diagram-detailed.svg" xlink:actuate="onRequest" xlink:href="Examples.BadDesign.CarExample.DB-diagram-detailed.svg" xlink:show="new" xlink:title="Examples.BadDesign.CarExample.DB-diagram-detailed.svg" xlink:type="simple"><g id="elem_DB"><rect codeLine="4" fill="#F1F1F1" height="377.7656" id="DB" rx="2.5" ry="2.5" style="stroke:#181818;stroke-width:0.5;" width="745" x="674" y="171.5547"/><ellipse cx="1033.25" cy="187.5547" fill="#A9DCDF" rx="11" ry="11" style="stroke:#181818;stroke-width:1.0;"/><path d="M1033.1133,182.9028 L1031.9595,187.9746 L1034.2754,187.9746 Z M1031.6191,180.6616 L1034.6157,180.6616 L1037.9609,193.0547 L1035.5122,193.0547 L1034.7485,189.9917 L1031.4697,189.9917 L1030.7227,193.0547 L1028.2739,193.0547 Z " fill="#000000"/><text fill="#000000" font-family="sans-serif" font-size="14" font-style="italic" lengthAdjust="spacing" textLength="18" x="1053.75" y="192.8457">DB</text><line style="stroke:#181818;stroke-width:0.5;" x1="675" x2="1418" y1="203.5547" y2="203.5547"/><line style="stroke:#181818;stroke-width:0.5;" x1="675" x2="1418" y1="211.5547" y2="211.5547"/><rect fill="#F24D5C" height="6" style="stroke:#C82930;stroke-width:1.0;" width="6" x="682" y="222.2988"/><text fill="#000000" font-family="sans-serif" font-size="14" lengthAdjust="spacing" textLength="27" x="694" y="229.0898">get(</text><text fill="#000000" font-family="sans-serif" font-size="14" lengthAdjust="spacing" textLength="5" x="721" y="229.0898">)</text><rect fill="#F24D5C" height="6" style="stroke:#C82930;stroke-width:1.0;" width="6" x="682" y="238.7871"/><text fill="#000000" font-family="sans-serif" font-size="14" lengthAdjust="spacing" textLength="101" x="694" y="245.5781">getCarsWhere(</text><text fill="#000000" font-family="sans-serif" font-size="14" lengthAdjust="spacing" textLength="5" x="795" y="245.5781">)</text><rect fill="#F24D5C" height="6" style="stroke:#C82930;stroke-width:1.0;" width="6" x="682" y="255.2754"/><text fill="#000000" font-family="sans-serif" font-size="14" lengthAdjust="spacing" textLength="25" x="694" y="262.0664">set(</text><text fill="#000000" font-family="sans-serif" font-size="14" lengthAdjust="spacing" textLength="5" x="719" y="262.0664">)</text><rect fill="#F24D5C" height="6" style="stroke:#C82930;stroke-width:1.0;" width="6" x="682" y="271.7637"/><text fill="#000000" font-family="sans-serif" font-size="14" lengthAdjust="spacing" textLength="53" x="694" y="278.5547">update(</text><text fill="#000000" font-family="sans-serif" font-size="14" lengthAdjust="spacing" textLength="5" x="747" y="278.5547">)</text><rect fill="#F24D5C" height="6" style="stroke:#C82930;stroke-width:1.0;" width="6" x="682" y="288.252"/><text fill="#000000" font-family="sans-serif" font-size="14" lengthAdjust="spacing" textLength="101" x="694" y="295.043">getUserWhere(</text><text fill="#000000" font-family="sans-serif" font-size="14" lengthAdjust="spacing" textLength="5" x="795" y="295.043">)</text><rect fill="#F24D5C" height="6" style="stroke:#C82930;stroke-width:1.0;" width="6" x="682" y="304.7402"/><text fill="#000000" font-family="sans-serif" font-size="14" lengthAdjust="spacing" textLength="137" x="694" y="311.5313">getCustomerWhere(</text><text fill="#000000" font-family="sans-serif" font-size="14" lengthAdjust="spacing" textLength="5" x="831" y="311.5313">)</text><rect fill="#F24D5C" height="6" style="stroke:#C82930;stroke-width:1.0;" width="6" x="682" y="321.2285"/><text fill="#000000" font-family="sans-serif" font-size="14" lengthAdjust="spacing" textLength="170" x="694" y="328.0195">getWarehouseCarWhere(</text><text fill="#000000" font-family="sans-serif" font-size="14" lengthAdjust="spacing" textLength="5" x="864" y="328.0195">)</text><rect fill="#F24D5C" height="6" style="stroke:#C82930;stroke-width:1.0;" width="6" x="682" y="337.7168"/><text fill="#000000" font-family="sans-serif" font-size="14" lengthAdjust="spacing" textLength="118" x="694" y="344.5078">getInvoiceWhere(</text><text fill="#000000" font-family="sans-serif" font-size="14" lengthAdjust="spacing" textLength="5" x="812" y="344.5078">)</text><rect fill="#F24D5C" height="6" style="stroke:#C82930;stroke-width:1.0;" width="6" x="682" y="354.2051"/><text fill="#000000" font-family="sans-serif" font-size="14" lengthAdjust="spacing" textLength="148" x="694" y="360.9961">getComplaintsWhere(</text><text fill="#000000" font-family="sans-serif" font-size="14" lengthAdjust="spacing" textLength="5" x="842" y="360.9961">)</text><rect fill="#F24D5C" height="6" style="stroke:#C82930;stroke-width:1.0;" width="6" x="682" y="370.6934"/><text fill="#000000" font-family="sans-serif" font-size="14" lengthAdjust="spacing" textLength="167" x="694" y="377.4844">getFirstCustomerWhere(</text><text fill="#000000" font-family="sans-serif" font-size="14" lengthAdjust="spacing" textLength="5" x="861" y="377.4844">)</text><rect fill="#F24D5C" height="6" style="stroke:#C82930;stroke-width:1.0;" width="6" x="682" y="387.1816"/><text fill="#000000" font-family="sans-serif" font-size="14" lengthAdjust="spacing" textLength="194" x="694" y="393.9727">getUserFromWarehouseCar(</text><text fill="#6060BB" font-family="sans-serif" font-size="14" lengthAdjust="spacing" textLength="421" x="888" y="393.9727">item:Examples.BadDesign.CarExample.WarehouseEntities.Car</text><text fill="#000000" font-family="sans-serif" font-size="14" lengthAdjust="spacing" textLength="5" x="1309" y="393.9727">)</text><rect fill="#F24D5C" height="6" style="stroke:#C82930;stroke-width:1.0;" width="6" x="682" y="403.6699"/><text fill="#000000" font-family="sans-serif" font-size="14" lengthAdjust="spacing" textLength="201" x="694" y="410.4609">getCustomerFromComplaint(</text><text fill="#6060BB" font-family="sans-serif" font-size="14" lengthAdjust="spacing" textLength="513" x="895" y="410.4609">complaint:Examples.BadDesign.CarExample.WarehouseEntities.Complaints</text><text fill="#000000" font-family="sans-serif" font-size="14" lengthAdjust="spacing" textLength="5" x="1408" y="410.4609">)</text><rect fill="#F24D5C" height="6" style="stroke:#C82930;stroke-width:1.0;" width="6" x="682" y="420.1582"/><text fill="#000000" font-family="sans-serif" font-size="14" lengthAdjust="spacing" textLength="194" x="694" y="426.9492">getWarehouseCarFromUser(</text><text fill="#6060BB" font-family="sans-serif" font-size="14" lengthAdjust="spacing" textLength="421" x="888" y="426.9492">user:Examples.BadDesign.CarExample.WarehouseEntities.Car</text><text fill="#000000" font-family="sans-serif" font-size="14" lengthAdjust="spacing" textLength="5" x="1309" y="426.9492">)</text><rect fill="#F24D5C" height="6" style="stroke:#C82930;stroke-width:1.0;" width="6" x="682" y="436.6465"/><text fill="#000000" font-family="sans-serif" font-size="14" lengthAdjust="spacing" textLength="178" x="694" y="443.4375">getInvoiceFromCustomer(</text><text fill="#6060BB" font-family="sans-serif" font-size="14" lengthAdjust="spacing" textLength="441" x="872" y="443.4375">c:Examples.BadDesign.CarExample.WarehouseEntities.Customer</text><text fill="#000000" font-family="sans-serif" font-size="14" lengthAdjust="spacing" textLength="5" x="1313" y="443.4375">)</text><rect fill="#F24D5C" height="6" style="stroke:#C82930;stroke-width:1.0;" width="6" x="682" y="453.1348"/><text fill="#000000" font-family="sans-serif" font-size="14" lengthAdjust="spacing" textLength="241" x="694" y="459.9258">getComplaintsFromWarehouseCar(</text><text fill="#6060BB" font-family="sans-serif" font-size="14" lengthAdjust="spacing" textLength="421" x="935" y="459.9258">item:Examples.BadDesign.CarExample.WarehouseEntities.Car</text><text fill="#000000" font-family="sans-serif" font-size="14" lengthAdjust="spacing" textLength="5" x="1356" y="459.9258">)</text><rect fill="#F24D5C" height="6" style="stroke:#C82930;stroke-width:1.0;" width="6" x="682" y="469.623"/><text fill="#000000" font-family="sans-serif" font-size="14" lengthAdjust="spacing" textLength="128" x="694" y="476.4141">getCarFromDriver(</text><text fill="#6060BB" font-family="sans-serif" font-size="14" lengthAdjust="spacing" textLength="349" x="822" y="476.4141">d:Examples.BadDesign.CarExample.CarParts.Driver</text><text fill="#000000" font-family="sans-serif" font-size="14" lengthAdjust="spacing" textLength="5" x="1171" y="476.4141">)</text><rect fill="#F24D5C" height="6" style="stroke:#C82930;stroke-width:1.0;" width="6" x="682" y="486.1113"/><text fill="#000000" font-family="sans-serif" font-size="14" lengthAdjust="spacing" textLength="128" x="694" y="492.9023">getDriverFromCar(</text><text fill="#6060BB" font-family="sans-serif" font-size="14" lengthAdjust="spacing" textLength="268" x="822" y="492.9023">c:Examples.BadDesign.CarExample.Car</text><text fill="#000000" font-family="sans-serif" font-size="14" lengthAdjust="spacing" textLength="5" x="1090" y="492.9023">)</text><rect fill="#F24D5C" height="6" style="stroke:#C82930;stroke-width:1.0;" width="6" x="682" y="502.5996"/><text fill="#000000" font-family="sans-serif" font-size="14" lengthAdjust="spacing" textLength="135" x="694" y="509.3906">getWheelsFromCar(</text><text fill="#6060BB" font-family="sans-serif" font-size="14" lengthAdjust="spacing" textLength="268" x="829" y="509.3906">c:Examples.BadDesign.CarExample.Car</text><text fill="#000000" font-family="sans-serif" font-size="14" lengthAdjust="spacing" textLength="5" x="1097" y="509.3906">)</text><rect fill="#F24D5C" height="6" style="stroke:#C82930;stroke-width:1.0;" width="6" x="682" y="519.0879"/><text fill="#000000" font-family="sans-serif" font-size="14" lengthAdjust="spacing" textLength="128" x="694" y="525.8789">getDoorsFromCar(</text><text fill="#6060BB" font-family="sans-serif" font-size="14" lengthAdjust="spacing" textLength="268" x="822" y="525.8789">c:Examples.BadDesign.CarExample.Car</text><text fill="#000000" font-family="sans-serif" font-size="14" lengthAdjust="spacing" textLength="5" x="1090" y="525.8789">)</text><rect fill="#F24D5C" height="6" style="stroke:#C82930;stroke-width:1.0;" width="6" x="682" y="535.5762"/><text fill="#000000" font-family="sans-serif" font-size="14" lengthAdjust="spacing" textLength="123" x="694" y="542.3672">getSeatsFromCar(</text><text fill="#6060BB" font-family="sans-serif" font-size="14" lengthAdjust="spacing" textLength="268" x="817" y="542.3672">c:Examples.BadDesign.CarExample.Car</text><text fill="#000000" font-family="sans-serif" font-size="14" lengthAdjust="spacing" textLength="5" x="1085" y="542.3672">)</text></g></a><!--class Customer--><a href="Examples.BadDesign.CarExample.WarehouseEntities.Customer-diagram-detailed.svg" target="_top" title="Examples.BadDesign.CarExample.WarehouseEntities.Customer-diagram-detailed.svg" xlink:actuate="onRequest" xlink:href="Examples.BadDesign.CarExample.WarehouseEntities.Customer-diagram-detailed.svg" xlink:show="new" xlink:title="Examples.BadDesign.CarExample.WarehouseEntities.Customer-diagram-detailed.svg" xlink:type="simple"><g id="elem_Customer"><rect codeLine="26" fill="#FFFF00" height="48" id="Customer" rx="2.5" ry="2.5" style="stroke:#181818;stroke-width:0.5;" width="99" x="997" y="609.5547"/><ellipse cx="1012" cy="625.5547" fill="#A9DCDF" rx="11" ry="11" style="stroke:#181818;stroke-width:1.0;"/><path d="M1011.8633,620.9028 L1010.7095,625.9746 L1013.0254,625.9746 Z M1010.3691,618.6616 L1013.3657,618.6616 L1016.7109,631.0547 L1014.2622,631.0547 L1013.4985,627.9917 L1010.2197,627.9917 L1009.4727,631.0547 L1007.0239,631.0547 Z " fill="#000000"/><text fill="#000000" font-family="sans-serif" font-size="14" font-style="italic" lengthAdjust="spacing" textLength="67" x="1026" y="630.8457">Customer</text><line style="stroke:#181818;stroke-width:0.5;" x1="998" x2="1095" y1="641.5547" y2="641.5547"/><line style="stroke:#181818;stroke-width:0.5;" x1="998" x2="1095" y1="649.5547" y2="649.5547"/></g></a><g id="elem_FloatingNote"><path d="M6,236.5547 L6,484.2129 L593,484.2129 L593,246.5547 L583,236.5547 L6,236.5547 " fill="#FEFFDD" style="stroke:#181818;stroke-width:0.5;"/><path d="M583,236.5547 L583,246.5547 L593,246.5547 L583,236.5547 " fill="#FEFFDD" style="stroke:#181818;stroke-width:1.0;"/><text fill="#000000" font-family="sans-serif" font-size="13" lengthAdjust="spacing" textLength="120" x="12" y="254.123">Your are analyzing:</text><text fill="#000000" font-family="sans-serif" font-size="13" lengthAdjust="spacing" textLength="392" x="12" y="269.4336">Examples.BadDesign.CarExample.WarehouseEntities.Customer</text><text fill="#000000" font-family="sans-serif" font-size="13" font-weight="bold" lengthAdjust="spacing" textLength="55" x="408" y="269.4336">detailed</text><text fill="#000000" font-family="sans-serif" font-size="13" lengthAdjust="spacing" textLength="4" x="463" y="269.4336">&#160;</text><text fill="#000000" font-family="sans-serif" font-size="13" lengthAdjust="spacing" textLength="4" x="12" y="284.7441">&#160;</text><text fill="#000000" font-family="sans-serif" font-size="13" lengthAdjust="spacing" textLength="229" x="12" y="315.3652">You can click either the namespaces</text><text fill="#000000" font-family="sans-serif" font-size="13" lengthAdjust="spacing" textLength="266" x="12" y="330.6758">or class names for filtering them and their</text><text fill="#000000" font-family="sans-serif" font-size="13" lengthAdjust="spacing" textLength="130" x="12" y="345.9863">direct dependencies.</text><text fill="#000000" font-family="sans-serif" font-size="13" lengthAdjust="spacing" textLength="4" x="12" y="361.2969">&#160;</text><line style="stroke:#181818;stroke-width:1.0;" x1="7" x2="283.5" y1="295.1416" y2="295.1416"/><line style="stroke:#181818;stroke-width:1.0;" x1="7" x2="283.5" y1="297.1416" y2="297.1416"/><text fill="#000000" font-family="sans-serif" font-size="13" lengthAdjust="spacing" textLength="32" x="283.5" y="299.5547">Filter</text><line style="stroke:#181818;stroke-width:1.0;" x1="315.5" x2="592" y1="295.1416" y2="295.1416"/><line style="stroke:#181818;stroke-width:1.0;" x1="315.5" x2="592" y1="297.1416" y2="297.1416"/><ellipse cx="17.5" cy="391.1602" fill="#000000" rx="2.5" ry="2.5" style="stroke:#000000;stroke-width:0.0;"/><text fill="#000000" font-family="sans-serif" font-size="13" lengthAdjust="spacing" textLength="392" x="24" y="395.918">Examples.BadDesign.CarExample.WarehouseEntities.Customer</text><text fill="#000000" font-family="sans-serif" font-size="13" font-weight="bold" lengthAdjust="spacing" textLength="67" x="420" y="395.918">simplified</text><text fill="#000000" font-family="sans-serif" font-size="13" lengthAdjust="spacing" textLength="4" x="491" y="395.918">:</text><text fill="#000000" font-family="sans-serif" font-size="13" lengthAdjust="spacing" textLength="12" x="12" y="411.2285">&#160;&#160;&#160;</text><a href="Examples.BadDesign.CarExample.WarehouseEntities.Customer-diagram-simplified.svg" target="_top" title="Examples.BadDesign.CarExample.WarehouseEntities.Customer-diagram-simplified.svg" xlink:actuate="onRequest" xlink:href="Examples.BadDesign.CarExample.WarehouseEntities.Customer-diagram-simplified.svg" xlink:show="new" xlink:title="Examples.BadDesign.CarExample.WarehouseEntities.Customer-diagram-simplified.svg" xlink:type="simple"><text fill="#0000FF" font-family="sans-serif" font-size="13" lengthAdjust="spacing" text-decoration="underline" textLength="548" x="24" y="411.2285">Examples.BadDesign.CarExample.WarehouseEntities.Customer-diagram-simplified.svg</text></a><ellipse cx="17.5" cy="421.7813" fill="#000000" rx="2.5" ry="2.5" style="stroke:#000000;stroke-width:0.0;"/><text fill="#000000" font-family="sans-serif" font-size="13" lengthAdjust="spacing" textLength="78" x="24" y="426.5391">Full diagram</text><text fill="#000000" font-family="sans-serif" font-size="13" font-weight="bold" lengthAdjust="spacing" textLength="55" x="106" y="426.5391">detailed</text><text fill="#000000" font-family="sans-serif" font-size="13" lengthAdjust="spacing" textLength="23" x="165" y="426.5391">and</text><text fill="#000000" font-family="sans-serif" font-size="13" font-weight="bold" lengthAdjust="spacing" textLength="166" x="192" y="426.5391">grouped per namespace</text><text fill="#000000" font-family="sans-serif" font-size="13" lengthAdjust="spacing" textLength="4" x="358" y="426.5391">:</text><text fill="#000000" font-family="sans-serif" font-size="13" lengthAdjust="spacing" textLength="12" x="12" y="441.8496">&#160;&#160;&#160;</text><a href="full-diagram-detailed-grouped-per-namespace.svg" target="_top" title="full-diagram-detailed-grouped-per-namespace.svg" xlink:actuate="onRequest" xlink:href="full-diagram-detailed-grouped-per-namespace.svg" xlink:show="new" xlink:title="full-diagram-detailed-grouped-per-namespace.svg" xlink:type="simple"><text fill="#0000FF" font-family="sans-serif" font-size="13" lengthAdjust="spacing" text-decoration="underline" textLength="330" x="24" y="441.8496">full-diagram-detailed-grouped-per-namespace.svg</text></a><ellipse cx="17.5" cy="452.4023" fill="#000000" rx="2.5" ry="2.5" style="stroke:#000000;stroke-width:0.0;"/><text fill="#000000" font-family="sans-serif" font-size="13" lengthAdjust="spacing" textLength="41" x="24" y="457.1602">Home:</text><text fill="#000000" font-family="sans-serif" font-size="13" lengthAdjust="spacing" textLength="12" x="12" y="472.4707">&#160;&#160;&#160;</text><a href="index.html" target="_top" title="index.html" xlink:actuate="onRequest" xlink:href="index.html" xlink:show="new" xlink:title="index.html" xlink:type="simple"><text fill="#0000FF" font-family="sans-serif" font-size="13" lengthAdjust="spacing" text-decoration="underline" textLength="68" x="24" y="472.4707">index.html</text></a><line style="stroke:#181818;stroke-width:1.0;" x1="7" x2="262.5" y1="375.6943" y2="375.6943"/><line style="stroke:#181818;stroke-width:1.0;" x1="7" x2="262.5" y1="377.6943" y2="377.6943"/><text fill="#000000" font-family="sans-serif" font-size="13" lengthAdjust="spacing" textLength="74" x="262.5" y="380.1074">Select other</text><line style="stroke:#181818;stroke-width:1.0;" x1="336.5" x2="592" y1="375.6943" y2="375.6943"/><line style="stroke:#181818;stroke-width:1.0;" x1="336.5" x2="592" y1="377.6943" y2="377.6943"/></g><!--link DB to Customer--><g id="link_DB_Customer"><path codeLine="33" d="M1046.5,549.7947 C1046.5,549.7947 1046.5,603.2047 1046.5,603.2047 " fill="none" id="DB-to-Customer" style="stroke:#6060BB;stroke-width:1.0;stroke-dasharray:7.0,7.0;"/><polygon fill="#6060BB" points="1046.5,608.2047,1050.5,599.2047,1046.5,603.2047,1042.5,599.2047,1046.5,608.2047" style="stroke:#6060BB;stroke-width:1.0;"/><text fill="#000000" font-family="sans-serif" font-size="13" lengthAdjust="spacing" textLength="29" x="1016.5" y="573.063">uses</text></g><!--SRC=[nLPDZzem4BtpAqRiOTj8oQ8Uze200x2elLILLjMg0WvkCWdMEdPaEnIswd_lE0bXs-Kh55GEADZpvhrvup0sprncJBCK19Ternc2qdQXMfPRWT0p_0Mx7pg3XnLBCu4c6B9eZ8OdCXWnNQq6JqpZGkK67oJXE8MDScDLYXeyBqBBkC38yw1tv_8DMb9PXFOtbMiW9339nFg5owGxavSXcicPxFSdN5ZK_VvC4XM4J48eUFWCoEs24FG5agLeCXQY8OpI5C2CALSXfjznaOAakUYKb4RkWUkPZBZ6q4A46Se8PUZ4bBIFADoESYIEt8D_ACfmYk4nByeYVm1WEZqtdnznbb2p_MtMm2oJ-To9dEH2G1NmfvkkQizBjCepZ20ZNRLjdhVH51Eyphy1-nN89v1VWxQS7qdL9W4d6rV1mgPYFcy3Cp0HYbco_ZETbXQ50Fjkh6PaRTcbmowCXqUD6W_V22wb0Vmi205yID2-wyLA4giIIlVRzvtxpd3O7lJktEhW_Uj8IcwUgEru8iISd3pF8cRnT2LV3UecIfpuwfGqXDN7ZOfl2Fqabug7s5IdekunBgrf29nmRSwjqlavqIfzNUrkDBUOTXk_eKmVQebZhilUJHjkjfjprtuUQw-JuOpOhO1YzAKAhqv6KNVbmPwok-V-6Hu-Ml-XrwM_OysN-ugDZd3HunUchGdA9BjOoft2LtQcfNlqqmk5mbmZyrWfVPN4ZyZiPHF_gj8t6bK7BW0NcFL_ZRQRDGgXVjGJZXJVqdG_wGDNYxs5KM6KHa4pNqa3k2eCf0j7J0tQtZYw57lGazRHUq4mlIdxEmy6vxS6ka3hvgBQt_Bz1W00]--></g></svg>