<?xml version="1.0" encoding="us-ascii" standalone="no"?><svg xmlns="http://www.w3.org/2000/svg" xmlns:xlink="http://www.w3.org/1999/xlink" contentStyleType="text/css" height="1051px" preserveAspectRatio="none" style="width:1392px;height:1051px;background:#FFFFFF;" version="1.1" viewBox="0 0 1392 1051" width="1392px" zoomAndPan="magnify"><defs/><g><text fill="#000000" font-family="sans-serif" font-size="20" font-weight="bold" lengthAdjust="spacing" textLength="421" x="429.5" y="29.3359">Examples.BadDesign.CarExample.Vehicle</text><text fill="#000000" font-family="sans-serif" font-size="20" font-weight="bold" lengthAdjust="spacing" textLength="84" x="857.5" y="29.3359">detailed</text><text fill="#000000" font-family="sans-serif" font-size="20" font-weight="bold" lengthAdjust="spacing" textLength="7" x="941.5" y="29.3359">&#160;</text><!--cluster Examples--><g id="cluster_Examples"><path d="M476.5,50.5547 L545.5,50.5547 A3.75,3.75 0 0 1 548,53.0547 L555,73.043 L1382.5,73.043 A2.5,2.5 0 0 1 1385,75.543 L1385,1041.5547 A2.5,2.5 0 0 1 1382.5,1044.0547 L476.5,1044.0547 A2.5,2.5 0 0 1 474,1041.5547 L474,53.0547 A2.5,2.5 0 0 1 476.5,50.5547 " fill="none" style="stroke:#000000;stroke-width:1.5;"/><line style="stroke:#000000;stroke-width:1.5;" x1="474" x2="555" y1="73.043" y2="73.043"/><text fill="#000000" font-family="sans-serif" font-size="14" font-weight="bold" lengthAdjust="spacing" textLength="68" x="478" y="66.0898">Examples</text></g><!--cluster BadDesign--><g id="cluster_BadDesign"><path d="M500.5,93.5547 L577.5,93.5547 A3.75,3.75 0 0 1 580,96.0547 L587,116.043 L1358.5,116.043 A2.5,2.5 0 0 1 1361,118.543 L1361,1017.5547 A2.5,2.5 0 0 1 1358.5,1020.0547 L500.5,1020.0547 A2.5,2.5 0 0 1 498,1017.5547 L498,96.0547 A2.5,2.5 0 0 1 500.5,93.5547 " fill="none" style="stroke:#000000;stroke-width:1.5;"/><line style="stroke:#000000;stroke-width:1.5;" x1="498" x2="587" y1="116.043" y2="116.043"/><text fill="#000000" font-family="sans-serif" font-size="14" font-weight="bold" lengthAdjust="spacing" textLength="76" x="502" y="109.0898">BadDesign</text></g><!--cluster CarExample--><g id="cluster_CarExample"><path d="M524.5,136.5547 L609.5,136.5547 A3.75,3.75 0 0 1 612,139.0547 L619,159.043 L1334.5,159.043 A2.5,2.5 0 0 1 1337,161.543 L1337,993.5547 A2.5,2.5 0 0 1 1334.5,996.0547 L524.5,996.0547 A2.5,2.5 0 0 1 522,993.5547 L522,139.0547 A2.5,2.5 0 0 1 524.5,136.5547 " fill="none" style="stroke:#000000;stroke-width:1.5;"/><line style="stroke:#000000;stroke-width:1.5;" x1="522" x2="619" y1="159.043" y2="159.043"/><text fill="#000000" font-family="sans-serif" font-size="14" font-weight="bold" lengthAdjust="spacing" textLength="84" x="526" y="152.0898">CarExample</text></g><!--class Vehicle--><a href="Examples.BadDesign.CarExample.Vehicle-diagram-detailed.svg" target="_top" title="Examples.BadDesign.CarExample.Vehicle-diagram-detailed.svg" xlink:actuate="onRequest" xlink:href="Examples.BadDesign.CarExample.Vehicle-diagram-detailed.svg" xlink:show="new" xlink:title="Examples.BadDesign.CarExample.Vehicle-diagram-detailed.svg" xlink:type="simple"><g id="elem_Vehicle"><rect codeLine="4" fill="#FFFF00" height="97.4648" id="Vehicle" rx="2.5" ry="2.5" style="stroke:#181818;stroke-width:0.5;" width="303" x="888.5" y="171.5547"/><ellipse cx="1011.25" cy="187.5547" fill="#A9DCDF" rx="11" ry="11" style="stroke:#181818;stroke-width:1.0;"/><path d="M1011.1133,182.9028 L1009.9595,187.9746 L1012.2754,187.9746 Z M1009.6191,180.6616 L1012.6157,180.6616 L1015.9609,193.0547 L1013.5122,193.0547 L1012.7485,189.9917 L1009.4697,189.9917 L1008.7227,193.0547 L1006.2739,193.0547 Z " fill="#000000"/><text fill="#000000" font-family="sans-serif" font-size="14" font-style="italic" lengthAdjust="spacing" textLength="49" x="1031.75" y="192.8457">Vehicle</text><line style="stroke:#181818;stroke-width:0.5;" x1="889.5" x2="1190.5" y1="203.5547" y2="203.5547"/><ellipse cx="899.5" cy="217.2988" fill="none" rx="3" ry="3" style="stroke:#038048;stroke-width:1.0;"/><text fill="#000000" font-family="sans-serif" font-size="14" lengthAdjust="spacing" textLength="277" x="908.5" y="221.0898">db: Examples.BadDesign.CarExample.DB</text><line style="stroke:#181818;stroke-width:1.0;" x1="889.5" x2="1190.5" y1="228.043" y2="228.043"/><line style="stroke:#181818;stroke-width:1.0;" x1="889.5" x2="1190.5" y1="230.043" y2="230.043"/><rect fill="#F24D5C" height="6" style="stroke:#C82930;stroke-width:1.0;" width="6" x="896.5" y="238.7871"/><text fill="#000000" font-family="sans-serif" font-size="14" lengthAdjust="spacing" textLength="67" x="908.5" y="245.5781">setSpeed(</text><text fill="#000000" font-family="sans-serif" font-size="14" lengthAdjust="spacing" textLength="5" x="975.5" y="245.5781">)</text><rect fill="#F24D5C" height="6" style="stroke:#C82930;stroke-width:1.0;" width="6" x="896.5" y="255.2754"/><text fill="#000000" font-family="sans-serif" font-size="14" lengthAdjust="spacing" textLength="69" x="908.5" y="262.0664">getSpeed(</text><text fill="#000000" font-family="sans-serif" font-size="14" lengthAdjust="spacing" textLength="5" x="977.5" y="262.0664">)</text></g></a><!--class DB--><a href="Examples.BadDesign.CarExample.DB-diagram-detailed.svg" target="_top" title="Examples.BadDesign.CarExample.DB-diagram-detailed.svg" xlink:actuate="onRequest" xlink:href="Examples.BadDesign.CarExample.DB-diagram-detailed.svg" xlink:show="new" xlink:title="Examples.BadDesign.CarExample.DB-diagram-detailed.svg" xlink:type="simple"><g id="elem_DB"><rect codeLine="10" fill="#F1F1F1" height="377.7656" id="DB" rx="2.5" ry="2.5" style="stroke:#181818;stroke-width:0.5;" width="745" x="538.5" y="404.0547"/><ellipse cx="897.75" cy="420.0547" fill="#A9DCDF" rx="11" ry="11" style="stroke:#181818;stroke-width:1.0;"/><path d="M897.6133,415.4028 L896.4595,420.4746 L898.7754,420.4746 Z M896.1191,413.1616 L899.1157,413.1616 L902.4609,425.5547 L900.0122,425.5547 L899.2485,422.4917 L895.9697,422.4917 L895.2227,425.5547 L892.7739,425.5547 Z " fill="#000000"/><text fill="#000000" font-family="sans-serif" font-size="14" font-style="italic" lengthAdjust="spacing" textLength="18" x="918.25" y="425.3457">DB</text><line style="stroke:#181818;stroke-width:0.5;" x1="539.5" x2="1282.5" y1="436.0547" y2="436.0547"/><line style="stroke:#181818;stroke-width:0.5;" x1="539.5" x2="1282.5" y1="444.0547" y2="444.0547"/><rect fill="#F24D5C" height="6" style="stroke:#C82930;stroke-width:1.0;" width="6" x="546.5" y="454.7988"/><text fill="#000000" font-family="sans-serif" font-size="14" lengthAdjust="spacing" textLength="27" x="558.5" y="461.5898">get(</text><text fill="#000000" font-family="sans-serif" font-size="14" lengthAdjust="spacing" textLength="5" x="585.5" y="461.5898">)</text><rect fill="#F24D5C" height="6" style="stroke:#C82930;stroke-width:1.0;" width="6" x="546.5" y="471.2871"/><text fill="#000000" font-family="sans-serif" font-size="14" lengthAdjust="spacing" textLength="101" x="558.5" y="478.0781">getCarsWhere(</text><text fill="#000000" font-family="sans-serif" font-size="14" lengthAdjust="spacing" textLength="5" x="659.5" y="478.0781">)</text><rect fill="#F24D5C" height="6" style="stroke:#C82930;stroke-width:1.0;" width="6" x="546.5" y="487.7754"/><text fill="#000000" font-family="sans-serif" font-size="14" lengthAdjust="spacing" textLength="25" x="558.5" y="494.5664">set(</text><text fill="#000000" font-family="sans-serif" font-size="14" lengthAdjust="spacing" textLength="5" x="583.5" y="494.5664">)</text><rect fill="#F24D5C" height="6" style="stroke:#C82930;stroke-width:1.0;" width="6" x="546.5" y="504.2637"/><text fill="#000000" font-family="sans-serif" font-size="14" lengthAdjust="spacing" textLength="53" x="558.5" y="511.0547">update(</text><text fill="#000000" font-family="sans-serif" font-size="14" lengthAdjust="spacing" textLength="5" x="611.5" y="511.0547">)</text><rect fill="#F24D5C" height="6" style="stroke:#C82930;stroke-width:1.0;" width="6" x="546.5" y="520.752"/><text fill="#000000" font-family="sans-serif" font-size="14" lengthAdjust="spacing" textLength="101" x="558.5" y="527.543">getUserWhere(</text><text fill="#000000" font-family="sans-serif" font-size="14" lengthAdjust="spacing" textLength="5" x="659.5" y="527.543">)</text><rect fill="#F24D5C" height="6" style="stroke:#C82930;stroke-width:1.0;" width="6" x="546.5" y="537.2402"/><text fill="#000000" font-family="sans-serif" font-size="14" lengthAdjust="spacing" textLength="137" x="558.5" y="544.0313">getCustomerWhere(</text><text fill="#000000" font-family="sans-serif" font-size="14" lengthAdjust="spacing" textLength="5" x="695.5" y="544.0313">)</text><rect fill="#F24D5C" height="6" style="stroke:#C82930;stroke-width:1.0;" width="6" x="546.5" y="553.7285"/><text fill="#000000" font-family="sans-serif" font-size="14" lengthAdjust="spacing" textLength="170" x="558.5" y="560.5195">getWarehouseCarWhere(</text><text fill="#000000" font-family="sans-serif" font-size="14" lengthAdjust="spacing" textLength="5" x="728.5" y="560.5195">)</text><rect fill="#F24D5C" height="6" style="stroke:#C82930;stroke-width:1.0;" width="6" x="546.5" y="570.2168"/><text fill="#000000" font-family="sans-serif" font-size="14" lengthAdjust="spacing" textLength="118" x="558.5" y="577.0078">getInvoiceWhere(</text><text fill="#000000" font-family="sans-serif" font-size="14" lengthAdjust="spacing" textLength="5" x="676.5" y="577.0078">)</text><rect fill="#F24D5C" height="6" style="stroke:#C82930;stroke-width:1.0;" width="6" x="546.5" y="586.7051"/><text fill="#000000" font-family="sans-serif" font-size="14" lengthAdjust="spacing" textLength="148" x="558.5" y="593.4961">getComplaintsWhere(</text><text fill="#000000" font-family="sans-serif" font-size="14" lengthAdjust="spacing" textLength="5" x="706.5" y="593.4961">)</text><rect fill="#F24D5C" height="6" style="stroke:#C82930;stroke-width:1.0;" width="6" x="546.5" y="603.1934"/><text fill="#000000" font-family="sans-serif" font-size="14" lengthAdjust="spacing" textLength="167" x="558.5" y="609.9844">getFirstCustomerWhere(</text><text fill="#000000" font-family="sans-serif" font-size="14" lengthAdjust="spacing" textLength="5" x="725.5" y="609.9844">)</text><rect fill="#F24D5C" height="6" style="stroke:#C82930;stroke-width:1.0;" width="6" x="546.5" y="619.6816"/><text fill="#000000" font-family="sans-serif" font-size="14" lengthAdjust="spacing" textLength="194" x="558.5" y="626.4727">getUserFromWarehouseCar(</text><text fill="#6060BB" font-family="sans-serif" font-size="14" lengthAdjust="spacing" textLength="421" x="752.5" y="626.4727">item:Examples.BadDesign.CarExample.WarehouseEntities.Car</text><text fill="#000000" font-family="sans-serif" font-size="14" lengthAdjust="spacing" textLength="5" x="1173.5" y="626.4727">)</text><rect fill="#F24D5C" height="6" style="stroke:#C82930;stroke-width:1.0;" width="6" x="546.5" y="636.1699"/><text fill="#000000" font-family="sans-serif" font-size="14" lengthAdjust="spacing" textLength="201" x="558.5" y="642.9609">getCustomerFromComplaint(</text><text fill="#6060BB" font-family="sans-serif" font-size="14" lengthAdjust="spacing" textLength="513" x="759.5" y="642.9609">complaint:Examples.BadDesign.CarExample.WarehouseEntities.Complaints</text><text fill="#000000" font-family="sans-serif" font-size="14" lengthAdjust="spacing" textLength="5" x="1272.5" y="642.9609">)</text><rect fill="#F24D5C" height="6" style="stroke:#C82930;stroke-width:1.0;" width="6" x="546.5" y="652.6582"/><text fill="#000000" font-family="sans-serif" font-size="14" lengthAdjust="spacing" textLength="194" x="558.5" y="659.4492">getWarehouseCarFromUser(</text><text fill="#6060BB" font-family="sans-serif" font-size="14" lengthAdjust="spacing" textLength="421" x="752.5" y="659.4492">user:Examples.BadDesign.CarExample.WarehouseEntities.Car</text><text fill="#000000" font-family="sans-serif" font-size="14" lengthAdjust="spacing" textLength="5" x="1173.5" y="659.4492">)</text><rect fill="#F24D5C" height="6" style="stroke:#C82930;stroke-width:1.0;" width="6" x="546.5" y="669.1465"/><text fill="#000000" font-family="sans-serif" font-size="14" lengthAdjust="spacing" textLength="178" x="558.5" y="675.9375">getInvoiceFromCustomer(</text><text fill="#6060BB" font-family="sans-serif" font-size="14" lengthAdjust="spacing" textLength="441" x="736.5" y="675.9375">c:Examples.BadDesign.CarExample.WarehouseEntities.Customer</text><text fill="#000000" font-family="sans-serif" font-size="14" lengthAdjust="spacing" textLength="5" x="1177.5" y="675.9375">)</text><rect fill="#F24D5C" height="6" style="stroke:#C82930;stroke-width:1.0;" width="6" x="546.5" y="685.6348"/><text fill="#000000" font-family="sans-serif" font-size="14" lengthAdjust="spacing" textLength="241" x="558.5" y="692.4258">getComplaintsFromWarehouseCar(</text><text fill="#6060BB" font-family="sans-serif" font-size="14" lengthAdjust="spacing" textLength="421" x="799.5" y="692.4258">item:Examples.BadDesign.CarExample.WarehouseEntities.Car</text><text fill="#000000" font-family="sans-serif" font-size="14" lengthAdjust="spacing" textLength="5" x="1220.5" y="692.4258">)</text><rect fill="#F24D5C" height="6" style="stroke:#C82930;stroke-width:1.0;" width="6" x="546.5" y="702.123"/><text fill="#000000" font-family="sans-serif" font-size="14" lengthAdjust="spacing" textLength="128" x="558.5" y="708.9141">getCarFromDriver(</text><text fill="#6060BB" font-family="sans-serif" font-size="14" lengthAdjust="spacing" textLength="349" x="686.5" y="708.9141">d:Examples.BadDesign.CarExample.CarParts.Driver</text><text fill="#000000" font-family="sans-serif" font-size="14" lengthAdjust="spacing" textLength="5" x="1035.5" y="708.9141">)</text><rect fill="#F24D5C" height="6" style="stroke:#C82930;stroke-width:1.0;" width="6" x="546.5" y="718.6113"/><text fill="#000000" font-family="sans-serif" font-size="14" lengthAdjust="spacing" textLength="128" x="558.5" y="725.4023">getDriverFromCar(</text><text fill="#6060BB" font-family="sans-serif" font-size="14" lengthAdjust="spacing" textLength="268" x="686.5" y="725.4023">c:Examples.BadDesign.CarExample.Car</text><text fill="#000000" font-family="sans-serif" font-size="14" lengthAdjust="spacing" textLength="5" x="954.5" y="725.4023">)</text><rect fill="#F24D5C" height="6" style="stroke:#C82930;stroke-width:1.0;" width="6" x="546.5" y="735.0996"/><text fill="#000000" font-family="sans-serif" font-size="14" lengthAdjust="spacing" textLength="135" x="558.5" y="741.8906">getWheelsFromCar(</text><text fill="#6060BB" font-family="sans-serif" font-size="14" lengthAdjust="spacing" textLength="268" x="693.5" y="741.8906">c:Examples.BadDesign.CarExample.Car</text><text fill="#000000" font-family="sans-serif" font-size="14" lengthAdjust="spacing" textLength="5" x="961.5" y="741.8906">)</text><rect fill="#F24D5C" height="6" style="stroke:#C82930;stroke-width:1.0;" width="6" x="546.5" y="751.5879"/><text fill="#000000" font-family="sans-serif" font-size="14" lengthAdjust="spacing" textLength="128" x="558.5" y="758.3789">getDoorsFromCar(</text><text fill="#6060BB" font-family="sans-serif" font-size="14" lengthAdjust="spacing" textLength="268" x="686.5" y="758.3789">c:Examples.BadDesign.CarExample.Car</text><text fill="#000000" font-family="sans-serif" font-size="14" lengthAdjust="spacing" textLength="5" x="954.5" y="758.3789">)</text><rect fill="#F24D5C" height="6" style="stroke:#C82930;stroke-width:1.0;" width="6" x="546.5" y="768.0762"/><text fill="#000000" font-family="sans-serif" font-size="14" lengthAdjust="spacing" textLength="123" x="558.5" y="774.8672">getSeatsFromCar(</text><text fill="#6060BB" font-family="sans-serif" font-size="14" lengthAdjust="spacing" textLength="268" x="681.5" y="774.8672">c:Examples.BadDesign.CarExample.Car</text><text fill="#000000" font-family="sans-serif" font-size="14" lengthAdjust="spacing" textLength="5" x="949.5" y="774.8672">)</text></g></a><!--class Car--><a href="Examples.BadDesign.CarExample.Car-diagram-detailed.svg" target="_top" title="Examples.BadDesign.CarExample.Car-diagram-detailed.svg" xlink:actuate="onRequest" xlink:href="Examples.BadDesign.CarExample.Car-diagram-detailed.svg" xlink:show="new" xlink:title="Examples.BadDesign.CarExample.Car-diagram-detailed.svg" xlink:type="simple"><g id="elem_Car"><rect codeLine="32" fill="#F1F1F1" height="138.4414" id="Car" rx="2.5" ry="2.5" style="stroke:#181818;stroke-width:0.5;" width="482" x="670" y="842.0547"/><ellipse cx="894.75" cy="858.0547" fill="#A9DCDF" rx="11" ry="11" style="stroke:#181818;stroke-width:1.0;"/><path d="M894.6133,853.4028 L893.4595,858.4746 L895.7754,858.4746 Z M893.1191,851.1616 L896.1157,851.1616 L899.4609,863.5547 L897.0122,863.5547 L896.2485,860.4917 L892.9697,860.4917 L892.2227,863.5547 L889.7739,863.5547 Z " fill="#000000"/><text fill="#000000" font-family="sans-serif" font-size="14" font-style="italic" lengthAdjust="spacing" textLength="24" x="915.25" y="863.3457">Car</text><line style="stroke:#181818;stroke-width:0.5;" x1="671" x2="1151" y1="874.0547" y2="874.0547"/><ellipse cx="681" cy="887.7988" fill="none" rx="3" ry="3" style="stroke:#038048;stroke-width:1.0;"/><text fill="#000000" font-family="sans-serif" font-size="14" lengthAdjust="spacing" textLength="398" x="690" y="891.5898">wheels: Examples.BadDesign.CarExample.CarParts.Wheels</text><ellipse cx="681" cy="904.2871" fill="none" rx="3" ry="3" style="stroke:#038048;stroke-width:1.0;"/><text fill="#000000" font-family="sans-serif" font-size="14" lengthAdjust="spacing" textLength="337" x="690" y="908.0781">vehicle: Examples.BadDesign.CarExample.Vehicle</text><ellipse cx="681" cy="920.7754" fill="none" rx="3" ry="3" style="stroke:#038048;stroke-width:1.0;"/><text fill="#000000" font-family="sans-serif" font-size="14" lengthAdjust="spacing" textLength="277" x="690" y="924.5664">db: Examples.BadDesign.CarExample.DB</text><line style="stroke:#181818;stroke-width:1.0;" x1="671" x2="1151" y1="931.5195" y2="931.5195"/><line style="stroke:#181818;stroke-width:1.0;" x1="671" x2="1151" y1="933.5195" y2="933.5195"/><rect fill="#F24D5C" height="6" style="stroke:#C82930;stroke-width:1.0;" width="6" x="678" y="942.2637"/><text fill="#000000" font-family="sans-serif" font-size="14" lengthAdjust="spacing" textLength="71" x="690" y="949.0547">createCar(</text><text fill="#6060BB" font-family="sans-serif" font-size="14" lengthAdjust="spacing" textLength="380" x="761" y="949.0547">doors:Examples.BadDesign.CarExample.CarParts.Doors</text><text fill="#000000" font-family="sans-serif" font-size="14" lengthAdjust="spacing" textLength="5" x="1141" y="949.0547">)</text><rect fill="none" height="6" style="stroke:#C82930;stroke-width:1.0;" width="6" x="678" y="958.752"/><text fill="#909090" font-family="sans-serif" font-size="14" lengthAdjust="spacing" textLength="444" x="690" y="965.543">createCar.seats: Examples.BadDesign.CarExample.CarParts.Seats</text><line style="stroke:#181818;stroke-width:1.0;" x1="671" x2="1151" y1="972.4961" y2="972.4961"/></g></a><g id="elem_FloatingNote"><path d="M6,96.0547 L6,343.7129 L458,343.7129 L458,106.0547 L448,96.0547 L6,96.0547 " fill="#FEFFDD" style="stroke:#181818;stroke-width:0.5;"/><path d="M448,96.0547 L448,106.0547 L458,106.0547 L448,96.0547 " fill="#FEFFDD" style="stroke:#181818;stroke-width:1.0;"/><text fill="#000000" font-family="sans-serif" font-size="13" lengthAdjust="spacing" textLength="120" x="12" y="113.623">Your are analyzing:</text><text fill="#000000" font-family="sans-serif" font-size="13" lengthAdjust="spacing" textLength="257" x="12" y="128.9336">Examples.BadDesign.CarExample.Vehicle</text><text fill="#000000" font-family="sans-serif" font-size="13" font-weight="bold" lengthAdjust="spacing" textLength="55" x="273" y="128.9336">detailed</text><text fill="#000000" font-family="sans-serif" font-size="13" lengthAdjust="spacing" textLength="4" x="328" y="128.9336">&#160;</text><text fill="#000000" font-family="sans-serif" font-size="13" lengthAdjust="spacing" textLength="4" x="12" y="144.2441">&#160;</text><text fill="#000000" font-family="sans-serif" font-size="13" lengthAdjust="spacing" textLength="229" x="12" y="174.8652">You can click either the namespaces</text><text fill="#000000" font-family="sans-serif" font-size="13" lengthAdjust="spacing" textLength="266" x="12" y="190.1758">or class names for filtering them and their</text><text fill="#000000" font-family="sans-serif" font-size="13" lengthAdjust="spacing" textLength="130" x="12" y="205.4863">direct dependencies.</text><text fill="#000000" font-family="sans-serif" font-size="13" lengthAdjust="spacing" textLength="4" x="12" y="220.7969">&#160;</text><line style="stroke:#181818;stroke-width:1.0;" x1="7" x2="216" y1="154.6416" y2="154.6416"/><line style="stroke:#181818;stroke-width:1.0;" x1="7" x2="216" y1="156.6416" y2="156.6416"/><text fill="#000000" font-family="sans-serif" font-size="13" lengthAdjust="spacing" textLength="32" x="216" y="159.0547">Filter</text><line style="stroke:#181818;stroke-width:1.0;" x1="248" x2="457" y1="154.6416" y2="154.6416"/><line style="stroke:#181818;stroke-width:1.0;" x1="248" x2="457" y1="156.6416" y2="156.6416"/><ellipse cx="17.5" cy="250.6602" fill="#000000" rx="2.5" ry="2.5" style="stroke:#000000;stroke-width:0.0;"/><text fill="#000000" font-family="sans-serif" font-size="13" lengthAdjust="spacing" textLength="257" x="24" y="255.418">Examples.BadDesign.CarExample.Vehicle</text><text fill="#000000" font-family="sans-serif" font-size="13" font-weight="bold" lengthAdjust="spacing" textLength="67" x="285" y="255.418">simplified</text><text fill="#000000" font-family="sans-serif" font-size="13" lengthAdjust="spacing" textLength="4" x="356" y="255.418">:</text><text fill="#000000" font-family="sans-serif" font-size="13" lengthAdjust="spacing" textLength="12" x="12" y="270.7285">&#160;&#160;&#160;</text><a href="Examples.BadDesign.CarExample.Vehicle-diagram-simplified.svg" target="_top" title="Examples.BadDesign.CarExample.Vehicle-diagram-simplified.svg" xlink:actuate="onRequest" xlink:href="Examples.BadDesign.CarExample.Vehicle-diagram-simplified.svg" xlink:show="new" xlink:title="Examples.BadDesign.CarExample.Vehicle-diagram-simplified.svg" xlink:type="simple"><text fill="#0000FF" font-family="sans-serif" font-size="13" lengthAdjust="spacing" text-decoration="underline" textLength="413" x="24" y="270.7285">Examples.BadDesign.CarExample.Vehicle-diagram-simplified.svg</text></a><ellipse cx="17.5" cy="281.2813" fill="#000000" rx="2.5" ry="2.5" style="stroke:#000000;stroke-width:0.0;"/><text fill="#000000" font-family="sans-serif" font-size="13" lengthAdjust="spacing" textLength="78" x="24" y="286.0391">Full diagram</text><text fill="#000000" font-family="sans-serif" font-size="13" font-weight="bold" lengthAdjust="spacing" textLength="55" x="106" y="286.0391">detailed</text><text fill="#000000" font-family="sans-serif" font-size="13" lengthAdjust="spacing" textLength="23" x="165" y="286.0391">and</text><text fill="#000000" font-family="sans-serif" font-size="13" font-weight="bold" lengthAdjust="spacing" textLength="166" x="192" y="286.0391">grouped per namespace</text><text fill="#000000" font-family="sans-serif" font-size="13" lengthAdjust="spacing" textLength="4" x="358" y="286.0391">:</text><text fill="#000000" font-family="sans-serif" font-size="13" lengthAdjust="spacing" textLength="12" x="12" y="301.3496">&#160;&#160;&#160;</text><a href="full-diagram-detailed-grouped-per-namespace.svg" target="_top" title="full-diagram-detailed-grouped-per-namespace.svg" xlink:actuate="onRequest" xlink:href="full-diagram-detailed-grouped-per-namespace.svg" xlink:show="new" xlink:title="full-diagram-detailed-grouped-per-namespace.svg" xlink:type="simple"><text fill="#0000FF" font-family="sans-serif" font-size="13" lengthAdjust="spacing" text-decoration="underline" textLength="330" x="24" y="301.3496">full-diagram-detailed-grouped-per-namespace.svg</text></a><ellipse cx="17.5" cy="311.9023" fill="#000000" rx="2.5" ry="2.5" style="stroke:#000000;stroke-width:0.0;"/><text fill="#000000" font-family="sans-serif" font-size="13" lengthAdjust="spacing" textLength="41" x="24" y="316.6602">Home:</text><text fill="#000000" font-family="sans-serif" font-size="13" lengthAdjust="spacing" textLength="12" x="12" y="331.9707">&#160;&#160;&#160;</text><a href="index.html" target="_top" title="index.html" xlink:actuate="onRequest" xlink:href="index.html" xlink:show="new" xlink:title="index.html" xlink:type="simple"><text fill="#0000FF" font-family="sans-serif" font-size="13" lengthAdjust="spacing" text-decoration="underline" textLength="68" x="24" y="331.9707">index.html</text></a><line style="stroke:#181818;stroke-width:1.0;" x1="7" x2="195" y1="235.1943" y2="235.1943"/><line style="stroke:#181818;stroke-width:1.0;" x1="7" x2="195" y1="237.1943" y2="237.1943"/><text fill="#000000" font-family="sans-serif" font-size="13" lengthAdjust="spacing" textLength="74" x="195" y="239.6074">Select other</text><line style="stroke:#181818;stroke-width:1.0;" x1="269" x2="457" y1="235.1943" y2="235.1943"/><line style="stroke:#181818;stroke-width:1.0;" x1="269" x2="457" y1="237.1943" y2="237.1943"/></g><!--reverse link Vehicle to DB--><g id="link_Vehicle_DB"><path codeLine="46" d="M1040,282.8147 C1040,282.8147 1040,403.5847 1040,403.5847 " fill="none" id="Vehicle-backto-DB" style="stroke:#10BB10;stroke-width:1.0;"/><polygon fill="#10BB10" points="1040,269.8147,1036,275.8147,1040,281.8147,1044,275.8147,1040,269.8147" style="stroke:#10BB10;stroke-width:1.0;"/></g><!--link DB to Car--><g id="link_DB_Car"><path codeLine="47" d="M830.67,782.1747 C830.67,782.1747 830.67,835.6347 830.67,835.6347 " fill="none" id="DB-to-Car" style="stroke:#6060BB;stroke-width:1.0;stroke-dasharray:7.0,7.0;"/><polygon fill="#6060BB" points="830.67,840.6347,834.67,831.6347,830.67,835.6347,826.67,831.6347,830.67,840.6347" style="stroke:#6060BB;stroke-width:1.0;"/><text fill="#000000" font-family="sans-serif" font-size="13" lengthAdjust="spacing" textLength="29" x="800.67" y="805.473">uses</text></g><!--reverse link Car to DB--><g id="link_Car_DB"><path codeLine="49" d="M991.33,827.6647 C991.33,827.6647 991.33,782.3747 991.33,782.3747 " fill="none" id="Car-backto-DB" style="stroke:#10BB10;stroke-width:1.0;"/><polygon fill="#10BB10" points="991.33,840.6647,995.33,834.6647,991.33,828.6647,987.33,834.6647,991.33,840.6647" style="stroke:#10BB10;stroke-width:1.0;"/></g><!--reverse link Car to Vehicle--><g id="link_Car_Vehicle"><path codeLine="48" d="M1166.48,911.0547 C1166.48,911.0547 1301.5,911.0547 1301.5,911.0547 C1301.5,911.0547 1301.5,220.0547 1301.5,220.0547 C1301.5,220.0547 1249.42,220.0547 1191.74,220.0547 " fill="none" id="Car-backto-Vehicle" style="stroke:#10BB10;stroke-width:1.0;"/><polygon fill="#10BB10" points="1153.48,911.0547,1159.48,915.0547,1165.48,911.0547,1159.48,907.0547,1153.48,911.0547" style="stroke:#10BB10;stroke-width:1.0;"/></g><!--SRC=[nLRVRzem47xdhpZHXswfaj8zL5f4UA0KRI_Jf6gh9k31JGwmwjYHRMYxQV_xpldLLGEIe5O32Hdxxhlllhl4P-wvp9XcAGWkqJvb24hRjUfPRWN2qF2V67uOZAuVMPe9DC6O9HCqV2M3AwRBtU0xhdbCvfwNe6LSOE9vC3ntpgEUL1QX_qDjD32Dm2GJJp-vN8LpUGJgNCvb54sviAYZQ2u95s8c8HOylWVaTeqQw0SaIz5aB4P3FagJ0JEcs8Kb_L_c4CJ3MQT4At4BhkSouHfZ2mbcA1EKCIU2HTWR5Ev4kI0kk0TjCp2SDlYIvpbGvW0mcxLozXFELbGW_naYCDlLOk72JpT2G6dmKYUNZ-UjjDfac416ejI2U5v5O4dkDNxbx9TEFZdvjTDpp4ygnGg0aq2FmTgcOh7e0pCm5OfP4lKB5Rr79i3kZDMCH2lqRwTNLsagwWL9E7b28TG3_CeP09n1SXSsX9wCUr5KsljWqDvaYCcxuL99ugw4qb7_Sd0v68_xe-6vsnszhyrNxSr_TrTbCcuKP3BUfqKjGiwoVJu4RcwfpR6bYsaDliaIPh4zasy6THScZlp6MEhIhcwtz7vQgur1IhwZwsUvLJp6hZmLLOznQKr7nodNvjWidPvJhTA_iztjpIscuU76gq6k9TqOxar9XuTAuYBNQUyE6rV7tMFNUZQLrz5mGkncG3RwjH8lEoFFkzHWJzhT8vPuXrlhFzIwq7UY-NPViab3B5f-PTgQe03P5QKuoNLbHqgwXpyzK2ZCMo1FbD9l0do3pBuky14N5IqRRofQDbvLP_2GLo24barI5ApstXRZGTXksZXwI8WrYRx_YKfShLktkJF-fx0lS3yEt9SAMOKDZ2jwQv7o5Yb3z7o_Al8fZOcjFl1cjgTmbNUNHa73ev86y37lEffSbzJJpwDhIBO7q-sr7CZzsSa5LUbYiF2RfwzUeqKmEodAlWX6BHuI285UewO9s9bsO5ebzxgebDqV]--></g></svg>