<?xml version="1.0" encoding="us-ascii" standalone="no"?><svg xmlns="http://www.w3.org/2000/svg" xmlns:xlink="http://www.w3.org/1999/xlink" contentStyleType="text/css" height="688px" preserveAspectRatio="none" style="width:1574px;height:688px;background:#FFFFFF;" version="1.1" viewBox="0 0 1574 688" width="1574px" zoomAndPan="magnify"><defs/><g><text fill="#000000" font-family="sans-serif" font-size="20" font-weight="bold" lengthAdjust="spacing" textLength="729" x="366.75" y="29.3359">Examples.BetterDesign.Repository.CarExample.WarehouseEntities.User</text><text fill="#000000" font-family="sans-serif" font-size="20" font-weight="bold" lengthAdjust="spacing" textLength="84" x="1102.75" y="29.3359">detailed</text><text fill="#000000" font-family="sans-serif" font-size="20" font-weight="bold" lengthAdjust="spacing" textLength="7" x="1186.75" y="29.3359">&#160;</text><!--cluster Examples--><g id="cluster_Examples"><path d="M664,50.5547 L733,50.5547 A3.75,3.75 0 0 1 735.5,53.0547 L742.5,73.043 L1565,73.043 A2.5,2.5 0 0 1 1567.5,75.543 L1567.5,679.0547 A2.5,2.5 0 0 1 1565,681.5547 L664,681.5547 A2.5,2.5 0 0 1 661.5,679.0547 L661.5,53.0547 A2.5,2.5 0 0 1 664,50.5547 " fill="none" style="stroke:#000000;stroke-width:1.5;"/><line style="stroke:#000000;stroke-width:1.5;" x1="661.5" x2="742.5" y1="73.043" y2="73.043"/><text fill="#000000" font-family="sans-serif" font-size="14" font-weight="bold" lengthAdjust="spacing" textLength="68" x="665.5" y="66.0898">Examples</text></g><!--cluster BetterDesign--><g id="cluster_BetterDesign"><path d="M688,93.5547 L782,93.5547 A3.75,3.75 0 0 1 784.5,96.0547 L791.5,116.043 L1541,116.043 A2.5,2.5 0 0 1 1543.5,118.543 L1543.5,655.0547 A2.5,2.5 0 0 1 1541,657.5547 L688,657.5547 A2.5,2.5 0 0 1 685.5,655.0547 L685.5,96.0547 A2.5,2.5 0 0 1 688,93.5547 " fill="none" style="stroke:#000000;stroke-width:1.5;"/><line style="stroke:#000000;stroke-width:1.5;" x1="685.5" x2="791.5" y1="116.043" y2="116.043"/><text fill="#000000" font-family="sans-serif" font-size="14" font-weight="bold" lengthAdjust="spacing" textLength="93" x="689.5" y="109.0898">BetterDesign</text></g><!--cluster Repository--><g id="cluster_Repository"><path d="M712,136.5547 L791,136.5547 A3.75,3.75 0 0 1 793.5,139.0547 L800.5,159.043 L1517,159.043 A2.5,2.5 0 0 1 1519.5,161.543 L1519.5,631.0547 A2.5,2.5 0 0 1 1517,633.5547 L712,633.5547 A2.5,2.5 0 0 1 709.5,631.0547 L709.5,139.0547 A2.5,2.5 0 0 1 712,136.5547 " fill="none" style="stroke:#000000;stroke-width:1.5;"/><line style="stroke:#000000;stroke-width:1.5;" x1="709.5" x2="800.5" y1="159.043" y2="159.043"/><text fill="#000000" font-family="sans-serif" font-size="14" font-weight="bold" lengthAdjust="spacing" textLength="78" x="713.5" y="152.0898">Repository</text></g><!--cluster CarExample--><g id="cluster_CarExample"><path d="M736,179.5547 L821,179.5547 A3.75,3.75 0 0 1 823.5,182.0547 L830.5,202.043 L1493,202.043 A2.5,2.5 0 0 1 1495.5,204.543 L1495.5,607.0547 A2.5,2.5 0 0 1 1493,609.5547 L736,609.5547 A2.5,2.5 0 0 1 733.5,607.0547 L733.5,182.0547 A2.5,2.5 0 0 1 736,179.5547 " fill="none" style="stroke:#000000;stroke-width:1.5;"/><line style="stroke:#000000;stroke-width:1.5;" x1="733.5" x2="830.5" y1="202.043" y2="202.043"/><text fill="#000000" font-family="sans-serif" font-size="14" font-weight="bold" lengthAdjust="spacing" textLength="84" x="737.5" y="195.0898">CarExample</text></g><!--cluster WarehouseEntities--><g id="cluster_WarehouseEntities"><path d="M1043,486.5547 L1177,486.5547 A3.75,3.75 0 0 1 1179.5,489.0547 L1186.5,509.043 L1187,509.043 A2.5,2.5 0 0 1 1189.5,511.543 L1189.5,583.0547 A2.5,2.5 0 0 1 1187,585.5547 L1043,585.5547 A2.5,2.5 0 0 1 1040.5,583.0547 L1040.5,489.0547 A2.5,2.5 0 0 1 1043,486.5547 " fill="none" style="stroke:#000000;stroke-width:1.5;"/><line style="stroke:#000000;stroke-width:1.5;" x1="1040.5" x2="1186.5" y1="509.043" y2="509.043"/><text fill="#000000" font-family="sans-serif" font-size="14" font-weight="bold" lengthAdjust="spacing" textLength="133" x="1044.5" y="502.0898">WarehouseEntities</text></g><!--class DBWarehouse--><a href="Examples.BetterDesign.Repository.CarExample.DBWarehouse-diagram-detailed.svg" target="_top" title="Examples.BetterDesign.Repository.CarExample.DBWarehouse-diagram-detailed.svg" xlink:actuate="onRequest" xlink:href="Examples.BetterDesign.Repository.CarExample.DBWarehouse-diagram-detailed.svg" xlink:show="new" xlink:title="Examples.BetterDesign.Repository.CarExample.DBWarehouse-diagram-detailed.svg" xlink:type="simple"><g id="elem_DBWarehouse"><rect codeLine="4" fill="#F1F1F1" height="245.8594" id="DBWarehouse" rx="2.5" ry="2.5" style="stroke:#181818;stroke-width:0.5;" width="730" x="749.5" y="214.5547"/><ellipse cx="1063.25" cy="230.5547" fill="#A9DCDF" rx="11" ry="11" style="stroke:#181818;stroke-width:1.0;"/><path d="M1063.1133,225.9028 L1061.9595,230.9746 L1064.2754,230.9746 Z M1061.6191,223.6616 L1064.6157,223.6616 L1067.9609,236.0547 L1065.5122,236.0547 L1064.7485,232.9917 L1061.4697,232.9917 L1060.7227,236.0547 L1058.2739,236.0547 Z " fill="#000000"/><text fill="#000000" font-family="sans-serif" font-size="14" font-style="italic" lengthAdjust="spacing" textLength="94" x="1083.75" y="235.8457">DBWarehouse</text><line style="stroke:#181818;stroke-width:0.5;" x1="750.5" x2="1478.5" y1="246.5547" y2="246.5547"/><line style="stroke:#181818;stroke-width:0.5;" x1="750.5" x2="1478.5" y1="254.5547" y2="254.5547"/><rect fill="#F24D5C" height="6" style="stroke:#C82930;stroke-width:1.0;" width="6" x="757.5" y="265.2988"/><text fill="#000000" font-family="sans-serif" font-size="14" lengthAdjust="spacing" textLength="94" x="769.5" y="272.0898">getCustomer(</text><text fill="#6060BB" font-family="sans-serif" font-size="14" lengthAdjust="spacing" textLength="511" x="863.5" y="272.0898">i:Examples.BetterDesign.Repository.CarExample.WarehouseEntities.Invoice</text><text fill="#000000" font-family="sans-serif" font-size="14" lengthAdjust="spacing" textLength="5" x="1374.5" y="272.0898">)</text><rect fill="#F24D5C" height="6" style="stroke:#C82930;stroke-width:1.0;" width="6" x="757.5" y="281.7871"/><text fill="#000000" font-family="sans-serif" font-size="14" lengthAdjust="spacing" textLength="51" x="769.5" y="288.5781">getCar(</text><text fill="#6060BB" font-family="sans-serif" font-size="14" lengthAdjust="spacing" textLength="544" x="820.5" y="288.5781">c:Examples.BetterDesign.Repository.CarExample.WarehouseEntities.Complaints</text><text fill="#000000" font-family="sans-serif" font-size="14" lengthAdjust="spacing" textLength="5" x="1364.5" y="288.5781">)</text><rect fill="#F24D5C" height="6" style="stroke:#C82930;stroke-width:1.0;" width="6" x="757.5" y="298.2754"/><text fill="#000000" font-family="sans-serif" font-size="14" lengthAdjust="spacing" textLength="75" x="769.5" y="305.0664">getInvoice(</text><text fill="#6060BB" font-family="sans-serif" font-size="14" lengthAdjust="spacing" textLength="533" x="844.5" y="305.0664">c:Examples.BetterDesign.Repository.CarExample.WarehouseEntities.Customer</text><text fill="#000000" font-family="sans-serif" font-size="14" lengthAdjust="spacing" textLength="5" x="1377.5" y="305.0664">)</text><rect fill="#F24D5C" height="6" style="stroke:#C82930;stroke-width:1.0;" width="6" x="757.5" y="314.7637"/><text fill="#000000" font-family="sans-serif" font-size="14" lengthAdjust="spacing" textLength="105" x="769.5" y="321.5547">getComplaints(</text><text fill="#6060BB" font-family="sans-serif" font-size="14" lengthAdjust="spacing" textLength="533" x="874.5" y="321.5547">c:Examples.BetterDesign.Repository.CarExample.WarehouseEntities.Customer</text><text fill="#000000" font-family="sans-serif" font-size="14" lengthAdjust="spacing" textLength="5" x="1407.5" y="321.5547">)</text><rect fill="#F24D5C" height="6" style="stroke:#C82930;stroke-width:1.0;" width="6" x="757.5" y="331.252"/><text fill="#000000" font-family="sans-serif" font-size="14" lengthAdjust="spacing" textLength="58" x="769.5" y="338.043">getUser(</text><text fill="#6060BB" font-family="sans-serif" font-size="14" lengthAdjust="spacing" textLength="374" x="827.5" y="338.043">car:Examples.BetterDesign.Repository.CarExample.Car</text><text fill="#000000" font-family="sans-serif" font-size="14" lengthAdjust="spacing" textLength="5" x="1201.5" y="338.043">)</text><rect fill="#F24D5C" height="6" style="stroke:#C82930;stroke-width:1.0;" width="6" x="757.5" y="347.7402"/><text fill="#000000" font-family="sans-serif" font-size="14" lengthAdjust="spacing" textLength="94" x="769.5" y="354.5313">getCustomer(</text><text fill="#6060BB" font-family="sans-serif" font-size="14" lengthAdjust="spacing" textLength="605" x="863.5" y="354.5313">complaint:Examples.BetterDesign.Repository.CarExample.WarehouseEntities.Complaints</text><text fill="#000000" font-family="sans-serif" font-size="14" lengthAdjust="spacing" textLength="5" x="1468.5" y="354.5313">)</text><rect fill="#F24D5C" height="6" style="stroke:#C82930;stroke-width:1.0;" width="6" x="757.5" y="364.2285"/><text fill="#000000" font-family="sans-serif" font-size="14" lengthAdjust="spacing" textLength="51" x="769.5" y="371.0195">getCar(</text><text fill="#6060BB" font-family="sans-serif" font-size="14" lengthAdjust="spacing" textLength="520" x="820.5" y="371.0195">user:Examples.BetterDesign.Repository.CarExample.WarehouseEntities.User</text><text fill="#000000" font-family="sans-serif" font-size="14" lengthAdjust="spacing" textLength="5" x="1340.5" y="371.0195">)</text><rect fill="#F24D5C" height="6" style="stroke:#C82930;stroke-width:1.0;" width="6" x="757.5" y="380.7168"/><text fill="#000000" font-family="sans-serif" font-size="14" lengthAdjust="spacing" textLength="105" x="769.5" y="387.5078">getComplaints(</text><text fill="#6060BB" font-family="sans-serif" font-size="14" lengthAdjust="spacing" textLength="374" x="874.5" y="387.5078">car:Examples.BetterDesign.Repository.CarExample.Car</text><text fill="#000000" font-family="sans-serif" font-size="14" lengthAdjust="spacing" textLength="5" x="1248.5" y="387.5078">)</text><rect fill="#F24D5C" height="6" style="stroke:#C82930;stroke-width:1.0;" width="6" x="757.5" y="397.2051"/><text fill="#000000" font-family="sans-serif" font-size="14" lengthAdjust="spacing" textLength="88" x="769.5" y="403.9961">getFirstUser(</text><text fill="#000000" font-family="sans-serif" font-size="14" lengthAdjust="spacing" textLength="5" x="857.5" y="403.9961">)</text><rect fill="#F24D5C" height="6" style="stroke:#C82930;stroke-width:1.0;" width="6" x="757.5" y="413.6934"/><text fill="#000000" font-family="sans-serif" font-size="14" lengthAdjust="spacing" textLength="81" x="769.5" y="420.4844">getFirstCar(</text><text fill="#000000" font-family="sans-serif" font-size="14" lengthAdjust="spacing" textLength="5" x="850.5" y="420.4844">)</text><rect fill="#F24D5C" height="6" style="stroke:#C82930;stroke-width:1.0;" width="6" x="757.5" y="430.1816"/><text fill="#000000" font-family="sans-serif" font-size="14" lengthAdjust="spacing" textLength="105" x="769.5" y="436.9727">getFirstInvoice(</text><text fill="#000000" font-family="sans-serif" font-size="14" lengthAdjust="spacing" textLength="5" x="874.5" y="436.9727">)</text><rect fill="#F24D5C" height="6" style="stroke:#C82930;stroke-width:1.0;" width="6" x="757.5" y="446.6699"/><text fill="#000000" font-family="sans-serif" font-size="14" lengthAdjust="spacing" textLength="135" x="769.5" y="453.4609">getFirstComplaints(</text><text fill="#000000" font-family="sans-serif" font-size="14" lengthAdjust="spacing" textLength="5" x="904.5" y="453.4609">)</text></g></a><!--class User--><a href="Examples.BetterDesign.Repository.CarExample.WarehouseEntities.User-diagram-detailed.svg" target="_top" title="Examples.BetterDesign.Repository.CarExample.WarehouseEntities.User-diagram-detailed.svg" xlink:actuate="onRequest" xlink:href="Examples.BetterDesign.Repository.CarExample.WarehouseEntities.User-diagram-detailed.svg" xlink:show="new" xlink:title="Examples.BetterDesign.Repository.CarExample.WarehouseEntities.User-diagram-detailed.svg" xlink:type="simple"><g id="elem_User"><rect codeLine="18" fill="#FFFF00" height="48" id="User" rx="2.5" ry="2.5" style="stroke:#181818;stroke-width:0.5;" width="63" x="1083" y="521.5547"/><ellipse cx="1098" cy="537.5547" fill="#A9DCDF" rx="11" ry="11" style="stroke:#181818;stroke-width:1.0;"/><path d="M1097.8633,532.9028 L1096.7095,537.9746 L1099.0254,537.9746 Z M1096.3691,530.6616 L1099.3657,530.6616 L1102.7109,543.0547 L1100.2622,543.0547 L1099.4985,539.9917 L1096.2197,539.9917 L1095.4727,543.0547 L1093.0239,543.0547 Z " fill="#000000"/><text fill="#000000" font-family="sans-serif" font-size="14" font-style="italic" lengthAdjust="spacing" textLength="31" x="1112" y="542.8457">User</text><line style="stroke:#181818;stroke-width:0.5;" x1="1084" x2="1145" y1="553.5547" y2="553.5547"/><line style="stroke:#181818;stroke-width:0.5;" x1="1084" x2="1145" y1="561.5547" y2="561.5547"/></g></a><g id="elem_FloatingNote"><path d="M6,213.5547 L6,461.2129 L645,461.2129 L645,223.5547 L635,213.5547 L6,213.5547 " fill="#FEFFDD" style="stroke:#181818;stroke-width:0.5;"/><path d="M635,213.5547 L635,223.5547 L645,223.5547 L635,213.5547 " fill="#FEFFDD" style="stroke:#181818;stroke-width:1.0;"/><text fill="#000000" font-family="sans-serif" font-size="13" lengthAdjust="spacing" textLength="120" x="12" y="231.123">Your are analyzing:</text><text fill="#000000" font-family="sans-serif" font-size="13" lengthAdjust="spacing" textLength="444" x="12" y="246.4336">Examples.BetterDesign.Repository.CarExample.WarehouseEntities.User</text><text fill="#000000" font-family="sans-serif" font-size="13" font-weight="bold" lengthAdjust="spacing" textLength="55" x="460" y="246.4336">detailed</text><text fill="#000000" font-family="sans-serif" font-size="13" lengthAdjust="spacing" textLength="4" x="515" y="246.4336">&#160;</text><text fill="#000000" font-family="sans-serif" font-size="13" lengthAdjust="spacing" textLength="4" x="12" y="261.7441">&#160;</text><text fill="#000000" font-family="sans-serif" font-size="13" lengthAdjust="spacing" textLength="229" x="12" y="292.3652">You can click either the namespaces</text><text fill="#000000" font-family="sans-serif" font-size="13" lengthAdjust="spacing" textLength="266" x="12" y="307.6758">or class names for filtering them and their</text><text fill="#000000" font-family="sans-serif" font-size="13" lengthAdjust="spacing" textLength="130" x="12" y="322.9863">direct dependencies.</text><text fill="#000000" font-family="sans-serif" font-size="13" lengthAdjust="spacing" textLength="4" x="12" y="338.2969">&#160;</text><line style="stroke:#181818;stroke-width:1.0;" x1="7" x2="309.5" y1="272.1416" y2="272.1416"/><line style="stroke:#181818;stroke-width:1.0;" x1="7" x2="309.5" y1="274.1416" y2="274.1416"/><text fill="#000000" font-family="sans-serif" font-size="13" lengthAdjust="spacing" textLength="32" x="309.5" y="276.5547">Filter</text><line style="stroke:#181818;stroke-width:1.0;" x1="341.5" x2="644" y1="272.1416" y2="272.1416"/><line style="stroke:#181818;stroke-width:1.0;" x1="341.5" x2="644" y1="274.1416" y2="274.1416"/><ellipse cx="17.5" cy="368.1602" fill="#000000" rx="2.5" ry="2.5" style="stroke:#000000;stroke-width:0.0;"/><text fill="#000000" font-family="sans-serif" font-size="13" lengthAdjust="spacing" textLength="444" x="24" y="372.918">Examples.BetterDesign.Repository.CarExample.WarehouseEntities.User</text><text fill="#000000" font-family="sans-serif" font-size="13" font-weight="bold" lengthAdjust="spacing" textLength="67" x="472" y="372.918">simplified</text><text fill="#000000" font-family="sans-serif" font-size="13" lengthAdjust="spacing" textLength="4" x="543" y="372.918">:</text><text fill="#000000" font-family="sans-serif" font-size="13" lengthAdjust="spacing" textLength="12" x="12" y="388.2285">&#160;&#160;&#160;</text><a href="Examples.BetterDesign.Repository.CarExample.WarehouseEntities.User-diagram-simplified.svg" target="_top" title="Examples.BetterDesign.Repository.CarExample.WarehouseEntities.User-diagram-simplified.svg" xlink:actuate="onRequest" xlink:href="Examples.BetterDesign.Repository.CarExample.WarehouseEntities.User-diagram-simplified.svg" xlink:show="new" xlink:title="Examples.BetterDesign.Repository.CarExample.WarehouseEntities.User-diagram-simplified.svg" xlink:type="simple"><text fill="#0000FF" font-family="sans-serif" font-size="13" lengthAdjust="spacing" text-decoration="underline" textLength="600" x="24" y="388.2285">Examples.BetterDesign.Repository.CarExample.WarehouseEntities.User-diagram-simplified.svg</text></a><ellipse cx="17.5" cy="398.7813" fill="#000000" rx="2.5" ry="2.5" style="stroke:#000000;stroke-width:0.0;"/><text fill="#000000" font-family="sans-serif" font-size="13" lengthAdjust="spacing" textLength="78" x="24" y="403.5391">Full diagram</text><text fill="#000000" font-family="sans-serif" font-size="13" font-weight="bold" lengthAdjust="spacing" textLength="55" x="106" y="403.5391">detailed</text><text fill="#000000" font-family="sans-serif" font-size="13" lengthAdjust="spacing" textLength="23" x="165" y="403.5391">and</text><text fill="#000000" font-family="sans-serif" font-size="13" font-weight="bold" lengthAdjust="spacing" textLength="166" x="192" y="403.5391">grouped per namespace</text><text fill="#000000" font-family="sans-serif" font-size="13" lengthAdjust="spacing" textLength="4" x="358" y="403.5391">:</text><text fill="#000000" font-family="sans-serif" font-size="13" lengthAdjust="spacing" textLength="12" x="12" y="418.8496">&#160;&#160;&#160;</text><a href="full-diagram-detailed-grouped-per-namespace.svg" target="_top" title="full-diagram-detailed-grouped-per-namespace.svg" xlink:actuate="onRequest" xlink:href="full-diagram-detailed-grouped-per-namespace.svg" xlink:show="new" xlink:title="full-diagram-detailed-grouped-per-namespace.svg" xlink:type="simple"><text fill="#0000FF" font-family="sans-serif" font-size="13" lengthAdjust="spacing" text-decoration="underline" textLength="330" x="24" y="418.8496">full-diagram-detailed-grouped-per-namespace.svg</text></a><ellipse cx="17.5" cy="429.4023" fill="#000000" rx="2.5" ry="2.5" style="stroke:#000000;stroke-width:0.0;"/><text fill="#000000" font-family="sans-serif" font-size="13" lengthAdjust="spacing" textLength="41" x="24" y="434.1602">Home:</text><text fill="#000000" font-family="sans-serif" font-size="13" lengthAdjust="spacing" textLength="12" x="12" y="449.4707">&#160;&#160;&#160;</text><a href="index.html" target="_top" title="index.html" xlink:actuate="onRequest" xlink:href="index.html" xlink:show="new" xlink:title="index.html" xlink:type="simple"><text fill="#0000FF" font-family="sans-serif" font-size="13" lengthAdjust="spacing" text-decoration="underline" textLength="68" x="24" y="449.4707">index.html</text></a><line style="stroke:#181818;stroke-width:1.0;" x1="7" x2="288.5" y1="352.6943" y2="352.6943"/><line style="stroke:#181818;stroke-width:1.0;" x1="7" x2="288.5" y1="354.6943" y2="354.6943"/><text fill="#000000" font-family="sans-serif" font-size="13" lengthAdjust="spacing" textLength="74" x="288.5" y="357.1074">Select other</text><line style="stroke:#181818;stroke-width:1.0;" x1="362.5" x2="644" y1="352.6943" y2="352.6943"/><line style="stroke:#181818;stroke-width:1.0;" x1="362.5" x2="644" y1="354.6943" y2="354.6943"/></g><!--link DBWarehouse to User--><g id="link_DBWarehouse_User"><path codeLine="25" d="M1114.5,460.9547 C1114.5,460.9547 1114.5,515.1347 1114.5,515.1347 " fill="none" id="DBWarehouse-to-User" style="stroke:#6060BB;stroke-width:1.0;stroke-dasharray:7.0,7.0;"/><polygon fill="#6060BB" points="1114.5,520.1347,1118.5,511.1347,1114.5,515.1347,1110.5,511.1347,1114.5,520.1347" style="stroke:#6060BB;stroke-width:1.0;"/><text fill="#000000" font-family="sans-serif" font-size="13" lengthAdjust="spacing" textLength="29" x="1084.5" y="484.613">uses</text></g><!--SRC=[nLN1Rjf04Btp5IDoI6l93keX1miuG8BQIm-jgge23bjxR4PPxrgxInfIzTyx2yOaf7PB0DK7o_REUs_cpNh7tf4gXH45I5BeLYM2DcwXEuwSHEXRUiJuNMzu-o2AKgADHkWScXkqbAle4vRQajDc5Os5gMAYhyBWGYyjtYfc8GPziMWW259qWYIcGG3zAyyyx2Zj4BhVzD80eq0e8LUFfF9ufaujELCpDHXCI3BPO31JB0g9K918Iku0oIqOmJTGea1RYWGjOxJX067jvYja_9wjAJX97rrmpgb_83DJAHbC7AHOeafH9JwHZUndb7v5Un4l7i19ohF4wvJHka3s302cq-EPmvH4pfiYtF57zZwVpttYawMKK0KyTzWx4GIvqSiIKoWvmzhA8DXcbp6yvj-2mmeKCYYiGJlDzxh0BG6njG_HmXLoFk-2i32HMZXknqVUInrON-AxTKQmuPlU7UB8pQZsv40ldo1V5BWf1U1dbI1023cwyT8wBisywMTQSRPQQZFeNlUkUwDHTqZnSQtyeEur9TY_ykJ3jtlIea4rEL9rh7b1a7Bspy9LLcSIhmnjgBbExN-e-p-hGLUOWvJviQ70rlsKRCi_SuSRjnQJcFZuu-cLpJsLoHCojgMPBQ16OremhRzBczPVxDY3_gefZZWx6-RKIKVItebwiK8fzOyd1ojNSibZw9ykE5li9OpNzXcKF9oqie0FQrjvCcP65xlH67Fi0VvqNZlCekd5flVpQ7YAha8C_CsUiTINohy1]--></g></svg>