<?xml version="1.0" encoding="us-ascii" standalone="no"?><svg xmlns="http://www.w3.org/2000/svg" xmlns:xlink="http://www.w3.org/1999/xlink" contentStyleType="text/css" height="697px" preserveAspectRatio="none" style="width:1351px;height:697px;background:#FFFFFF;" version="1.1" viewBox="0 0 1351 697" width="1351px" zoomAndPan="magnify"><defs/><g><text fill="#000000" font-family="sans-serif" font-size="20" font-weight="bold" lengthAdjust="spacing" textLength="573" x="176.25" y="29.3359">Examples.BetterDesign.Repository.CarExample.CarParts</text><text fill="#000000" font-family="sans-serif" font-size="20" font-weight="bold" lengthAdjust="spacing" textLength="104" x="756.25" y="29.3359">simplified</text><text fill="#000000" font-family="sans-serif" font-size="20" font-weight="bold" lengthAdjust="spacing" textLength="38" x="867.25" y="29.3359">and</text><text fill="#000000" font-family="sans-serif" font-size="20" font-weight="bold" lengthAdjust="spacing" textLength="249" x="912.25" y="29.3359">grouped per namespace</text><!--cluster Examples--><g id="cluster_Examples"><a href="Examples-diagram-simplified-grouped-per-namespace.svg" target="_top" title="Examples-diagram-simplified-grouped-per-namespace.svg" xlink:actuate="onRequest" xlink:href="Examples-diagram-simplified-grouped-per-namespace.svg" xlink:show="new" xlink:title="Examples-diagram-simplified-grouped-per-namespace.svg" xlink:type="simple"><path d="M722,50.5547 L791,50.5547 A3.75,3.75 0 0 1 793.5,53.0547 L800.5,73.043 L1342,73.043 A2.5,2.5 0 0 1 1344.5,75.543 L1344.5,688.0547 A2.5,2.5 0 0 1 1342,690.5547 L722,690.5547 A2.5,2.5 0 0 1 719.5,688.0547 L719.5,53.0547 A2.5,2.5 0 0 1 722,50.5547 " fill="none" style="stroke:#000000;stroke-width:1.5;"/><line style="stroke:#000000;stroke-width:1.5;" x1="719.5" x2="800.5" y1="73.043" y2="73.043"/><text fill="#000000" font-family="sans-serif" font-size="14" font-weight="bold" lengthAdjust="spacing" textLength="68" x="723.5" y="66.0898">Examples</text></a></g><!--cluster BetterDesign--><g id="cluster_BetterDesign"><a href="Examples.BetterDesign-diagram-simplified-grouped-per-namespace.svg" target="_top" title="Examples.BetterDesign-diagram-simplified-grouped-per-namespace.svg" xlink:actuate="onRequest" xlink:href="Examples.BetterDesign-diagram-simplified-grouped-per-namespace.svg" xlink:show="new" xlink:title="Examples.BetterDesign-diagram-simplified-grouped-per-namespace.svg" xlink:type="simple"><path d="M746,93.5547 L840,93.5547 A3.75,3.75 0 0 1 842.5,96.0547 L849.5,116.043 L1318,116.043 A2.5,2.5 0 0 1 1320.5,118.543 L1320.5,664.0547 A2.5,2.5 0 0 1 1318,666.5547 L746,666.5547 A2.5,2.5 0 0 1 743.5,664.0547 L743.5,96.0547 A2.5,2.5 0 0 1 746,93.5547 " fill="none" style="stroke:#000000;stroke-width:1.5;"/><line style="stroke:#000000;stroke-width:1.5;" x1="743.5" x2="849.5" y1="116.043" y2="116.043"/><text fill="#000000" font-family="sans-serif" font-size="14" font-weight="bold" lengthAdjust="spacing" textLength="93" x="747.5" y="109.0898">BetterDesign</text></a></g><!--cluster Repository--><g id="cluster_Repository"><a href="Examples.BetterDesign.Repository-diagram-simplified-grouped-per-namespace.svg" target="_top" title="Examples.BetterDesign.Repository-diagram-simplified-grouped-per-namespace.svg" xlink:actuate="onRequest" xlink:href="Examples.BetterDesign.Repository-diagram-simplified-grouped-per-namespace.svg" xlink:show="new" xlink:title="Examples.BetterDesign.Repository-diagram-simplified-grouped-per-namespace.svg" xlink:type="simple"><path d="M770,136.5547 L849,136.5547 A3.75,3.75 0 0 1 851.5,139.0547 L858.5,159.043 L1294,159.043 A2.5,2.5 0 0 1 1296.5,161.543 L1296.5,640.0547 A2.5,2.5 0 0 1 1294,642.5547 L770,642.5547 A2.5,2.5 0 0 1 767.5,640.0547 L767.5,139.0547 A2.5,2.5 0 0 1 770,136.5547 " fill="none" style="stroke:#000000;stroke-width:1.5;"/><line style="stroke:#000000;stroke-width:1.5;" x1="767.5" x2="858.5" y1="159.043" y2="159.043"/><text fill="#000000" font-family="sans-serif" font-size="14" font-weight="bold" lengthAdjust="spacing" textLength="78" x="771.5" y="152.0898">Repository</text></a></g><!--cluster CarExample--><g id="cluster_CarExample"><a href="Examples.BetterDesign.Repository.CarExample-diagram-simplified-grouped-per-namespace.svg" target="_top" title="Examples.BetterDesign.Repository.CarExample-diagram-simplified-grouped-per-namespace.svg" xlink:actuate="onRequest" xlink:href="Examples.BetterDesign.Repository.CarExample-diagram-simplified-grouped-per-namespace.svg" xlink:show="new" xlink:title="Examples.BetterDesign.Repository.CarExample-diagram-simplified-grouped-per-namespace.svg" xlink:type="simple"><path d="M794,179.5547 L879,179.5547 A3.75,3.75 0 0 1 881.5,182.0547 L888.5,202.043 L1270,202.043 A2.5,2.5 0 0 1 1272.5,204.543 L1272.5,616.0547 A2.5,2.5 0 0 1 1270,618.5547 L794,618.5547 A2.5,2.5 0 0 1 791.5,616.0547 L791.5,182.0547 A2.5,2.5 0 0 1 794,179.5547 " fill="none" style="stroke:#000000;stroke-width:1.5;"/><line style="stroke:#000000;stroke-width:1.5;" x1="791.5" x2="888.5" y1="202.043" y2="202.043"/><text fill="#000000" font-family="sans-serif" font-size="14" font-weight="bold" lengthAdjust="spacing" textLength="84" x="795.5" y="195.0898">CarExample</text></a></g><!--cluster CarParts--><g id="cluster_CarParts"><a href="Examples.BetterDesign.Repository.CarExample.CarParts-diagram-simplified-grouped-per-namespace.svg" target="_top" title="Examples.BetterDesign.Repository.CarExample.CarParts-diagram-simplified-grouped-per-namespace.svg" xlink:actuate="onRequest" xlink:href="Examples.BetterDesign.Repository.CarExample.CarParts-diagram-simplified-grouped-per-namespace.svg" xlink:show="new" xlink:title="Examples.BetterDesign.Repository.CarExample.CarParts-diagram-simplified-grouped-per-namespace.svg" xlink:type="simple"><path d="M818,495.5547 L880,495.5547 A3.75,3.75 0 0 1 882.5,498.0547 L889.5,518.043 L1246,518.043 A2.5,2.5 0 0 1 1248.5,520.543 L1248.5,592.0547 A2.5,2.5 0 0 1 1246,594.5547 L818,594.5547 A2.5,2.5 0 0 1 815.5,592.0547 L815.5,498.0547 A2.5,2.5 0 0 1 818,495.5547 " fill="none" style="stroke:#000000;stroke-width:1.5;"/><line style="stroke:#000000;stroke-width:1.5;" x1="815.5" x2="889.5" y1="518.043" y2="518.043"/><text fill="#000000" font-family="sans-serif" font-size="14" font-weight="bold" lengthAdjust="spacing" textLength="61" x="819.5" y="511.0898">CarParts</text></a></g><!--class DBCar--><a href="Examples.BetterDesign.Repository.CarExample.DBCar-diagram-simplified-grouped-per-namespace.svg" target="_top" title="Examples.BetterDesign.Repository.CarExample.DBCar-diagram-simplified-grouped-per-namespace.svg" xlink:actuate="onRequest" xlink:href="Examples.BetterDesign.Repository.CarExample.DBCar-diagram-simplified-grouped-per-namespace.svg" xlink:show="new" xlink:title="Examples.BetterDesign.Repository.CarExample.DBCar-diagram-simplified-grouped-per-namespace.svg" xlink:type="simple"><g id="elem_DBCar"><rect codeLine="8" fill="#F1F1F1" height="48" id="DBCar" rx="2.5" ry="2.5" style="stroke:#181818;stroke-width:0.5;" width="74" x="964.5" y="214.5547"/><ellipse cx="979.5" cy="230.5547" fill="#A9DCDF" rx="11" ry="11" style="stroke:#181818;stroke-width:1.0;"/><path d="M979.3633,225.9028 L978.2095,230.9746 L980.5254,230.9746 Z M977.8691,223.6616 L980.8657,223.6616 L984.2109,236.0547 L981.7622,236.0547 L980.9985,232.9917 L977.7197,232.9917 L976.9727,236.0547 L974.5239,236.0547 Z " fill="#000000"/><text fill="#000000" font-family="sans-serif" font-size="14" font-style="italic" lengthAdjust="spacing" textLength="42" x="993.5" y="235.8457">DBCar</text><line style="stroke:#181818;stroke-width:0.5;" x1="965.5" x2="1037.5" y1="246.5547" y2="246.5547"/><line style="stroke:#181818;stroke-width:0.5;" x1="965.5" x2="1037.5" y1="254.5547" y2="254.5547"/></g></a><!--class Car--><a href="Examples.BetterDesign.Repository.CarExample.Car-diagram-simplified-grouped-per-namespace.svg" target="_top" title="Examples.BetterDesign.Repository.CarExample.Car-diagram-simplified-grouped-per-namespace.svg" xlink:actuate="onRequest" xlink:href="Examples.BetterDesign.Repository.CarExample.Car-diagram-simplified-grouped-per-namespace.svg" xlink:show="new" xlink:title="Examples.BetterDesign.Repository.CarExample.Car-diagram-simplified-grouped-per-namespace.svg" xlink:type="simple"><g id="elem_Car"><rect codeLine="10" fill="#F1F1F1" height="48" id="Car" rx="2.5" ry="2.5" style="stroke:#181818;stroke-width:0.5;" width="56" x="1056.5" y="422.5547"/><ellipse cx="1071.5" cy="438.5547" fill="#A9DCDF" rx="11" ry="11" style="stroke:#181818;stroke-width:1.0;"/><path d="M1071.3633,433.9028 L1070.2095,438.9746 L1072.5254,438.9746 Z M1069.8691,431.6616 L1072.8657,431.6616 L1076.2109,444.0547 L1073.7622,444.0547 L1072.9985,440.9917 L1069.7197,440.9917 L1068.9727,444.0547 L1066.5239,444.0547 Z " fill="#000000"/><text fill="#000000" font-family="sans-serif" font-size="14" font-style="italic" lengthAdjust="spacing" textLength="24" x="1085.5" y="443.8457">Car</text><line style="stroke:#181818;stroke-width:0.5;" x1="1057.5" x2="1111.5" y1="454.5547" y2="454.5547"/><line style="stroke:#181818;stroke-width:0.5;" x1="1057.5" x2="1111.5" y1="462.5547" y2="462.5547"/></g></a><!--class Seats--><a href="Examples.BetterDesign.Repository.CarExample.CarParts.Seats-diagram-simplified-grouped-per-namespace.svg" target="_top" title="Examples.BetterDesign.Repository.CarExample.CarParts.Seats-diagram-simplified-grouped-per-namespace.svg" xlink:actuate="onRequest" xlink:href="Examples.BetterDesign.Repository.CarExample.CarParts.Seats-diagram-simplified-grouped-per-namespace.svg" xlink:show="new" xlink:title="Examples.BetterDesign.Repository.CarExample.CarParts.Seats-diagram-simplified-grouped-per-namespace.svg" xlink:type="simple"><g id="elem_Seats"><rect codeLine="27" fill="#FFFF00" height="48" id="Seats" rx="2.5" ry="2.5" style="stroke:#181818;stroke-width:0.5;" width="68" x="831.5" y="530.5547"/><ellipse cx="846.5" cy="546.5547" fill="#A9DCDF" rx="11" ry="11" style="stroke:#181818;stroke-width:1.0;"/><path d="M846.3633,541.9028 L845.2095,546.9746 L847.5254,546.9746 Z M844.8691,539.6616 L847.8657,539.6616 L851.2109,552.0547 L848.7622,552.0547 L847.9985,548.9917 L844.7197,548.9917 L843.9727,552.0547 L841.5239,552.0547 Z " fill="#000000"/><text fill="#000000" font-family="sans-serif" font-size="14" font-style="italic" lengthAdjust="spacing" textLength="36" x="860.5" y="551.8457">Seats</text><line style="stroke:#181818;stroke-width:0.5;" x1="832.5" x2="898.5" y1="562.5547" y2="562.5547"/><line style="stroke:#181818;stroke-width:0.5;" x1="832.5" x2="898.5" y1="570.5547" y2="570.5547"/></g></a><!--class Wheels--><a href="Examples.BetterDesign.Repository.CarExample.CarParts.Wheels-diagram-simplified-grouped-per-namespace.svg" target="_top" title="Examples.BetterDesign.Repository.CarExample.CarParts.Wheels-diagram-simplified-grouped-per-namespace.svg" xlink:actuate="onRequest" xlink:href="Examples.BetterDesign.Repository.CarExample.CarParts.Wheels-diagram-simplified-grouped-per-namespace.svg" xlink:show="new" xlink:title="Examples.BetterDesign.Repository.CarExample.CarParts.Wheels-diagram-simplified-grouped-per-namespace.svg" xlink:type="simple"><g id="elem_Wheels"><rect codeLine="29" fill="#FFFF00" height="48" id="Wheels" rx="2.5" ry="2.5" style="stroke:#181818;stroke-width:0.5;" width="80" x="1043.5" y="530.5547"/><ellipse cx="1058.5" cy="546.5547" fill="#A9DCDF" rx="11" ry="11" style="stroke:#181818;stroke-width:1.0;"/><path d="M1058.3633,541.9028 L1057.2095,546.9746 L1059.5254,546.9746 Z M1056.8691,539.6616 L1059.8657,539.6616 L1063.2109,552.0547 L1060.7622,552.0547 L1059.9985,548.9917 L1056.7197,548.9917 L1055.9727,552.0547 L1053.5239,552.0547 Z " fill="#000000"/><text fill="#000000" font-family="sans-serif" font-size="14" font-style="italic" lengthAdjust="spacing" textLength="48" x="1072.5" y="551.8457">Wheels</text><line style="stroke:#181818;stroke-width:0.5;" x1="1044.5" x2="1122.5" y1="562.5547" y2="562.5547"/><line style="stroke:#181818;stroke-width:0.5;" x1="1044.5" x2="1122.5" y1="570.5547" y2="570.5547"/></g></a><!--class Driver--><a href="Examples.BetterDesign.Repository.CarExample.CarParts.Driver-diagram-simplified-grouped-per-namespace.svg" target="_top" title="Examples.BetterDesign.Repository.CarExample.CarParts.Driver-diagram-simplified-grouped-per-namespace.svg" xlink:actuate="onRequest" xlink:href="Examples.BetterDesign.Repository.CarExample.CarParts.Driver-diagram-simplified-grouped-per-namespace.svg" xlink:show="new" xlink:title="Examples.BetterDesign.Repository.CarExample.CarParts.Driver-diagram-simplified-grouped-per-namespace.svg" xlink:type="simple"><g id="elem_Driver"><rect codeLine="31" fill="#FFFF00" height="48" id="Driver" rx="2.5" ry="2.5" style="stroke:#181818;stroke-width:0.5;" width="73" x="935" y="530.5547"/><ellipse cx="950" cy="546.5547" fill="#A9DCDF" rx="11" ry="11" style="stroke:#181818;stroke-width:1.0;"/><path d="M949.8633,541.9028 L948.7095,546.9746 L951.0254,546.9746 Z M948.3691,539.6616 L951.3657,539.6616 L954.7109,552.0547 L952.2622,552.0547 L951.4985,548.9917 L948.2197,548.9917 L947.4727,552.0547 L945.0239,552.0547 Z " fill="#000000"/><text fill="#000000" font-family="sans-serif" font-size="14" font-style="italic" lengthAdjust="spacing" textLength="41" x="964" y="551.8457">Driver</text><line style="stroke:#181818;stroke-width:0.5;" x1="936" x2="1007" y1="562.5547" y2="562.5547"/><line style="stroke:#181818;stroke-width:0.5;" x1="936" x2="1007" y1="570.5547" y2="570.5547"/></g></a><!--class Doors--><a href="Examples.BetterDesign.Repository.CarExample.CarParts.Doors-diagram-simplified-grouped-per-namespace.svg" target="_top" title="Examples.BetterDesign.Repository.CarExample.CarParts.Doors-diagram-simplified-grouped-per-namespace.svg" xlink:actuate="onRequest" xlink:href="Examples.BetterDesign.Repository.CarExample.CarParts.Doors-diagram-simplified-grouped-per-namespace.svg" xlink:show="new" xlink:title="Examples.BetterDesign.Repository.CarExample.CarParts.Doors-diagram-simplified-grouped-per-namespace.svg" xlink:type="simple"><g id="elem_Doors"><rect codeLine="33" fill="#FFFF00" height="48" id="Doors" rx="2.5" ry="2.5" style="stroke:#181818;stroke-width:0.5;" width="73" x="1159" y="530.5547"/><ellipse cx="1174" cy="546.5547" fill="#A9DCDF" rx="11" ry="11" style="stroke:#181818;stroke-width:1.0;"/><path d="M1173.8633,541.9028 L1172.7095,546.9746 L1175.0254,546.9746 Z M1172.3691,539.6616 L1175.3657,539.6616 L1178.7109,552.0547 L1176.2622,552.0547 L1175.4985,548.9917 L1172.2197,548.9917 L1171.4727,552.0547 L1169.0239,552.0547 Z " fill="#000000"/><text fill="#000000" font-family="sans-serif" font-size="14" font-style="italic" lengthAdjust="spacing" textLength="41" x="1188" y="551.8457">Doors</text><line style="stroke:#181818;stroke-width:0.5;" x1="1160" x2="1231" y1="562.5547" y2="562.5547"/><line style="stroke:#181818;stroke-width:0.5;" x1="1160" x2="1231" y1="570.5547" y2="570.5547"/></g></a><g id="elem_FloatingNote"><path d="M6,114.5547 L6,362.2129 L703,362.2129 L703,124.5547 L693,114.5547 L6,114.5547 " fill="#FEFFDD" style="stroke:#181818;stroke-width:0.5;"/><path d="M693,114.5547 L693,124.5547 L703,124.5547 L693,114.5547 " fill="#FEFFDD" style="stroke:#181818;stroke-width:1.0;"/><text fill="#000000" font-family="sans-serif" font-size="13" lengthAdjust="spacing" textLength="120" x="12" y="132.123">Your are analyzing:</text><text fill="#000000" font-family="sans-serif" font-size="13" lengthAdjust="spacing" textLength="349" x="12" y="147.4336">Examples.BetterDesign.Repository.CarExample.CarParts</text><text fill="#000000" font-family="sans-serif" font-size="13" font-weight="bold" lengthAdjust="spacing" textLength="67" x="365" y="147.4336">simplified</text><text fill="#000000" font-family="sans-serif" font-size="13" lengthAdjust="spacing" textLength="23" x="436" y="147.4336">and</text><text fill="#000000" font-family="sans-serif" font-size="13" font-weight="bold" lengthAdjust="spacing" textLength="166" x="463" y="147.4336">grouped per namespace</text><text fill="#000000" font-family="sans-serif" font-size="13" lengthAdjust="spacing" textLength="4" x="12" y="162.7441">&#160;</text><text fill="#000000" font-family="sans-serif" font-size="13" lengthAdjust="spacing" textLength="229" x="12" y="193.3652">You can click either the namespaces</text><text fill="#000000" font-family="sans-serif" font-size="13" lengthAdjust="spacing" textLength="266" x="12" y="208.6758">or class names for filtering them and their</text><text fill="#000000" font-family="sans-serif" font-size="13" lengthAdjust="spacing" textLength="130" x="12" y="223.9863">direct dependencies.</text><text fill="#000000" font-family="sans-serif" font-size="13" lengthAdjust="spacing" textLength="4" x="12" y="239.2969">&#160;</text><line style="stroke:#181818;stroke-width:1.0;" x1="7" x2="338.5" y1="173.1416" y2="173.1416"/><line style="stroke:#181818;stroke-width:1.0;" x1="7" x2="338.5" y1="175.1416" y2="175.1416"/><text fill="#000000" font-family="sans-serif" font-size="13" lengthAdjust="spacing" textLength="32" x="338.5" y="177.5547">Filter</text><line style="stroke:#181818;stroke-width:1.0;" x1="370.5" x2="702" y1="173.1416" y2="173.1416"/><line style="stroke:#181818;stroke-width:1.0;" x1="370.5" x2="702" y1="175.1416" y2="175.1416"/><ellipse cx="17.5" cy="269.1602" fill="#000000" rx="2.5" ry="2.5" style="stroke:#000000;stroke-width:0.0;"/><text fill="#000000" font-family="sans-serif" font-size="13" lengthAdjust="spacing" textLength="349" x="24" y="273.918">Examples.BetterDesign.Repository.CarExample.CarParts</text><text fill="#000000" font-family="sans-serif" font-size="13" font-weight="bold" lengthAdjust="spacing" textLength="55" x="377" y="273.918">detailed</text><text fill="#000000" font-family="sans-serif" font-size="13" lengthAdjust="spacing" textLength="23" x="436" y="273.918">and</text><text fill="#000000" font-family="sans-serif" font-size="13" font-weight="bold" lengthAdjust="spacing" textLength="166" x="463" y="273.918">grouped per namespace</text><text fill="#000000" font-family="sans-serif" font-size="13" lengthAdjust="spacing" textLength="4" x="629" y="273.918">:</text><text fill="#000000" font-family="sans-serif" font-size="13" lengthAdjust="spacing" textLength="12" x="12" y="289.2285">&#160;&#160;&#160;</text><a href="Examples.BetterDesign.Repository.CarExample.CarParts-diagram-detailed-grouped-per-namespace.svg" target="_top" title="Examples.BetterDesign.Repository.CarExample.CarParts-diagram-detailed-grouped-per-namespace.svg" xlink:actuate="onRequest" xlink:href="Examples.BetterDesign.Repository.CarExample.CarParts-diagram-detailed-grouped-per-namespace.svg" xlink:show="new" xlink:title="Examples.BetterDesign.Repository.CarExample.CarParts-diagram-detailed-grouped-per-namespace.svg" xlink:type="simple"><text fill="#0000FF" font-family="sans-serif" font-size="13" lengthAdjust="spacing" text-decoration="underline" textLength="658" x="24" y="289.2285">Examples.BetterDesign.Repository.CarExample.CarParts-diagram-detailed-grouped-per-namespace.svg</text></a><ellipse cx="17.5" cy="299.7813" fill="#000000" rx="2.5" ry="2.5" style="stroke:#000000;stroke-width:0.0;"/><text fill="#000000" font-family="sans-serif" font-size="13" lengthAdjust="spacing" textLength="78" x="24" y="304.5391">Full diagram</text><text fill="#000000" font-family="sans-serif" font-size="13" font-weight="bold" lengthAdjust="spacing" textLength="67" x="106" y="304.5391">simplified</text><text fill="#000000" font-family="sans-serif" font-size="13" lengthAdjust="spacing" textLength="23" x="177" y="304.5391">and</text><text fill="#000000" font-family="sans-serif" font-size="13" font-weight="bold" lengthAdjust="spacing" textLength="166" x="204" y="304.5391">grouped per namespace</text><text fill="#000000" font-family="sans-serif" font-size="13" lengthAdjust="spacing" textLength="4" x="370" y="304.5391">:</text><text fill="#000000" font-family="sans-serif" font-size="13" lengthAdjust="spacing" textLength="12" x="12" y="319.8496">&#160;&#160;&#160;</text><a href="full-diagram-simplified-grouped-per-namespace.svg" target="_top" title="full-diagram-simplified-grouped-per-namespace.svg" xlink:actuate="onRequest" xlink:href="full-diagram-simplified-grouped-per-namespace.svg" xlink:show="new" xlink:title="full-diagram-simplified-grouped-per-namespace.svg" xlink:type="simple"><text fill="#0000FF" font-family="sans-serif" font-size="13" lengthAdjust="spacing" text-decoration="underline" textLength="343" x="24" y="319.8496">full-diagram-simplified-grouped-per-namespace.svg</text></a><ellipse cx="17.5" cy="330.4023" fill="#000000" rx="2.5" ry="2.5" style="stroke:#000000;stroke-width:0.0;"/><text fill="#000000" font-family="sans-serif" font-size="13" lengthAdjust="spacing" textLength="41" x="24" y="335.1602">Home:</text><text fill="#000000" font-family="sans-serif" font-size="13" lengthAdjust="spacing" textLength="12" x="12" y="350.4707">&#160;&#160;&#160;</text><a href="index.html" target="_top" title="index.html" xlink:actuate="onRequest" xlink:href="index.html" xlink:show="new" xlink:title="index.html" xlink:type="simple"><text fill="#0000FF" font-family="sans-serif" font-size="13" lengthAdjust="spacing" text-decoration="underline" textLength="68" x="24" y="350.4707">index.html</text></a><line style="stroke:#181818;stroke-width:1.0;" x1="7" x2="317.5" y1="253.6943" y2="253.6943"/><line style="stroke:#181818;stroke-width:1.0;" x1="7" x2="317.5" y1="255.6943" y2="255.6943"/><text fill="#000000" font-family="sans-serif" font-size="13" lengthAdjust="spacing" textLength="74" x="317.5" y="258.1074">Select other</text><line style="stroke:#181818;stroke-width:1.0;" x1="391.5" x2="702" y1="253.6943" y2="253.6943"/><line style="stroke:#181818;stroke-width:1.0;" x1="391.5" x2="702" y1="255.6943" y2="255.6943"/></g><!--link DBCar to Driver--><g id="link_DBCar_Driver"><path codeLine="52" d="M975.38,262.8247 C975.38,262.8247 975.38,524.2047 975.38,524.2047 " fill="none" id="DBCar-to-Driver" style="stroke:#6060BB;stroke-width:1.0;stroke-dasharray:7.0,7.0;"/><polygon fill="#6060BB" points="975.38,529.2047,979.38,520.2047,975.38,524.2047,971.38,520.2047,975.38,529.2047" style="stroke:#6060BB;stroke-width:1.0;"/><text fill="#000000" font-family="sans-serif" font-size="13" lengthAdjust="spacing" textLength="29" x="945.38" y="390.083">uses</text></g><!--reverse link Driver to DBCar--><g id="link_Driver_DBCar"><path codeLine="65" d="M986.25,516.2847 C986.25,516.2847 986.25,262.9047 986.25,262.9047 " fill="none" id="Driver-backto-DBCar" style="stroke:#10BB10;stroke-width:1.0;"/><polygon fill="#10BB10" points="986.25,529.2847,990.25,523.2847,986.25,517.2847,982.25,523.2847,986.25,529.2847" style="stroke:#10BB10;stroke-width:1.0;"/></g><!--link DBCar to Car--><g id="link_DBCar_Car"><path codeLine="53" d="M1023.25,262.9847 C1023.25,315.5247 1023.25,434.5547 1023.25,434.5547 C1023.25,434.5547 1050.03,434.5547 1050.03,434.5547 " fill="none" id="DBCar-to-Car" style="stroke:#6060BB;stroke-width:1.0;stroke-dasharray:7.0,7.0;"/><polygon fill="#6060BB" points="1055.03,434.5547,1046.03,430.5547,1050.03,434.5547,1046.03,438.5547,1055.03,434.5547" style="stroke:#6060BB;stroke-width:1.0;"/><text fill="#000000" font-family="sans-serif" font-size="13" lengthAdjust="spacing" textLength="29" x="993.25" y="358.723">uses</text></g><!--link DBCar to Seats--><g id="link_DBCar_Seats"><path codeLine="54" d="M964.34,246.5547 C924.07,246.5547 865.5,246.5547 865.5,246.5547 C865.5,246.5547 865.5,524.1247 865.5,524.1247 " fill="none" id="DBCar-to-Seats" style="stroke:#6060BB;stroke-width:1.0;stroke-dasharray:7.0,7.0;"/><polygon fill="#6060BB" points="865.5,529.1247,869.5,520.1247,865.5,524.1247,861.5,520.1247,865.5,529.1247" style="stroke:#6060BB;stroke-width:1.0;"/><text fill="#000000" font-family="sans-serif" font-size="13" lengthAdjust="spacing" textLength="29" x="835.5" y="332.493">uses</text></g><!--reverse link Seats to DBCar--><g id="link_Seats_DBCar"><path codeLine="63" d="M848.5,516.2047 C848.5,516.2047 848.5,230.5547 848.5,230.5547 C848.5,230.5547 918.78,230.5547 964.07,230.5547 " fill="none" id="Seats-backto-DBCar" style="stroke:#10BB10;stroke-width:1.0;"/><polygon fill="#10BB10" points="848.5,529.2047,852.5,523.2047,848.5,517.2047,844.5,523.2047,848.5,529.2047" style="stroke:#10BB10;stroke-width:1.0;"/></g><!--link DBCar to Doors--><g id="link_DBCar_Doors"><path codeLine="55" d="M1038.61,226.5547 C1100.34,226.5547 1217.4,226.5547 1217.4,226.5547 C1217.4,226.5547 1217.4,524.1647 1217.4,524.1647 " fill="none" id="DBCar-to-Doors" style="stroke:#6060BB;stroke-width:1.0;stroke-dasharray:7.0,7.0;"/><polygon fill="#6060BB" points="1217.4,529.1647,1221.4,520.1647,1217.4,524.1647,1213.4,520.1647,1217.4,529.1647" style="stroke:#6060BB;stroke-width:1.0;"/><text fill="#000000" font-family="sans-serif" font-size="13" lengthAdjust="spacing" textLength="29" x="1187.4" y="282.533">uses</text></g><!--reverse link Doors to DBCar--><g id="link_Doors_DBCar"><path codeLine="66" d="M1202.8,516.2847 C1202.8,516.2847 1202.8,238.5547 1202.8,238.5547 C1202.8,238.5547 1097.11,238.5547 1038.89,238.5547 " fill="none" id="Doors-backto-DBCar" style="stroke:#10BB10;stroke-width:1.0;"/><polygon fill="#10BB10" points="1202.8,529.2847,1206.8,523.2847,1202.8,517.2847,1198.8,523.2847,1202.8,529.2847" style="stroke:#10BB10;stroke-width:1.0;"/></g><!--reverse link Car to Wheels--><g id="link_Car_Wheels"><path codeLine="56" d="M1084.5,484.7947 C1084.5,484.7947 1084.5,530.3947 1084.5,530.3947 " fill="none" id="Car-backto-Wheels" style="stroke:#10BB10;stroke-width:1.0;"/><polygon fill="#10BB10" points="1084.5,471.7947,1080.5,477.7947,1084.5,483.7947,1088.5,477.7947,1084.5,471.7947" style="stroke:#10BB10;stroke-width:1.0;"/></g><!--reverse link Car to Seats--><g id="link_Car_Seats"><path codeLine="57" d="M1042.41,446.5547 C1042.41,446.5547 882.5,446.5547 882.5,446.5547 C882.5,446.5547 882.5,498.4747 882.5,530.3147 " fill="none" id="Car-backto-Seats" style="stroke:#10BB10;stroke-width:1.0;"/><polygon fill="#10BB10" points="1055.41,446.5547,1049.41,442.5547,1043.41,446.5547,1049.41,450.5547,1055.41,446.5547" style="stroke:#10BB10;stroke-width:1.0;"/></g><!--reverse link Car to Driver--><g id="link_Car_Driver"><path codeLine="58" d="M1042.37,458.5547 C1042.37,458.5547 997.12,458.5547 997.12,458.5547 C997.12,458.5547 997.12,501.6347 997.12,530.0847 " fill="none" id="Car-backto-Driver" style="stroke:#10BB10;stroke-width:1.0;"/><polygon fill="#10BB10" points="1055.37,458.5547,1049.37,454.5547,1043.37,458.5547,1049.37,462.5547,1055.37,458.5547" style="stroke:#10BB10;stroke-width:1.0;"/></g><!--reverse link Car to Doors--><g id="link_Car_Doors"><path codeLine="59" d="M1126.69,454.5547 C1126.69,454.5547 1173.6,454.5547 1173.6,454.5547 C1173.6,454.5547 1173.6,500.4847 1173.6,530.0947 " fill="none" id="Car-backto-Doors" style="stroke:#10BB10;stroke-width:1.0;"/><polygon fill="#10BB10" points="1113.69,454.5547,1119.69,458.5547,1125.69,454.5547,1119.69,450.5547,1113.69,454.5547" style="stroke:#10BB10;stroke-width:1.0;"/></g><!--link Car to Doors--><g id="link_Car_Doors"><path codeLine="60" d="M1112.84,438.5547 C1143.54,438.5547 1188.2,438.5547 1188.2,438.5547 C1188.2,438.5547 1188.2,524.2347 1188.2,524.2347 " fill="none" id="Car-to-Doors" style="stroke:#6060BB;stroke-width:1.0;stroke-dasharray:7.0,7.0;"/><polygon fill="#6060BB" points="1188.2,529.2347,1192.2,520.2347,1188.2,524.2347,1184.2,520.2347,1188.2,529.2347" style="stroke:#6060BB;stroke-width:1.0;"/><text fill="#000000" font-family="sans-serif" font-size="13" lengthAdjust="spacing" textLength="29" x="1158.2" y="440.283">uses</text></g><!--reverse link Wheels to DBCar--><g id="link_Wheels_DBCar"><path codeLine="64" d="M1050,516.1947 C1050,516.1947 1050,250.5547 1050,250.5547 C1050,250.5547 1045.26,250.5547 1038.75,250.5547 " fill="none" id="Wheels-backto-DBCar" style="stroke:#10BB10;stroke-width:1.0;"/><polygon fill="#10BB10" points="1050,529.1947,1054,523.1947,1050,517.1947,1046,523.1947,1050,529.1947" style="stroke:#10BB10;stroke-width:1.0;"/></g><!--SRC=[xLTDJzj04BtxLupWW6J9RkY1GqGu18fwGbKvL5KIeSKU9olMkzRk1WWL_xrZEx5TYHJMJZ2gQaMHFsRslJSx7xQvup9ZcgKWk4IxoX2KjWlbMMu5mgdXJpZyF3ZxyiZIJA09nsWjwWiqV2x3xvWfmwtIg_2SwRLDVlgDQMl0zmsdEppX6Fi-C1dJhRbMomnZo523P2cQZ4Ne-wUVSgWpJogBSF1JBJKmZUJ3nEg9o_bmAlVEOIgdSZIwv89M7uscabX0n2H4WaTtWDmko9x-QXy3Kwaq6J1ZohkGq7LIB46iS-kq0AKJhgSovXeZ2p5cA6EK4ISv9UmrYlo9oa5oS1zQwetHCYvULqiH1O39f0rC47Csfwm9Dc316YGWaA022StzV3RBjLmkXO2razEUR5Wcj425Mhk_XljLfRXPWbF47yE5JSLiTW3CmALGpD8kNL7EUPLp5VT6R1oHuTSBo_qHtsrntpbGOoFViDVxX6_aaLlMkPE2uc2tncf6DLMMfqkUNupfmh4s2XzNhXNPv-watIbt8tnqhbAQ7LIp7p49u87wDL0GBL1dJL5IRqsWuWxdWa2eGpDgJ9d6UwwMviOiRs-gbMu49-TQsvMI2BSOiQN1lCMlfvFX1kYNSCdD0kEmiNRjMmlndbyqg4LlCMY6Q8l99fpq-7yt-tUwMIjIzHj1nmdls7IxTh02FBn6rffvwUpA_t25GgY7XexddIhwiK0KhIMLtXzDquNczwZRQYgzFvmcfNJhRIgSTw6eusXzz-B_sx3jQTmMGhOColUUnd147pXlEc1ljZd5l2eq2lheKT80FXRLGacMQ9NMp8Tawv0rdlkBTJWvF1cS3CRZMNZMgVN042Wx3BmpXxvmcyEnLmfbbsn58IVW1vF3Oy8_7io2JkEq1-Go-Zq0hrE-3-HYjvs1TvvcUsjX5QBN8ILQnxaiIgzB7VI2lKx8Vh2BpEW8_Hi0]--></g></svg>