<?xml version="1.0" encoding="us-ascii" standalone="no"?><svg xmlns="http://www.w3.org/2000/svg" xmlns:xlink="http://www.w3.org/1999/xlink" contentStyleType="text/css" height="541px" preserveAspectRatio="none" style="width:994px;height:541px;background:#FFFFFF;" version="1.1" viewBox="0 0 994 541" width="994px" zoomAndPan="magnify"><defs/><g><text fill="#000000" font-family="sans-serif" font-size="20" font-weight="bold" lengthAdjust="spacing" textLength="502" x="33" y="29.3359">Examples.BadDesign.CarExample.CarParts.Driver</text><text fill="#000000" font-family="sans-serif" font-size="20" font-weight="bold" lengthAdjust="spacing" textLength="104" x="542" y="29.3359">simplified</text><text fill="#000000" font-family="sans-serif" font-size="20" font-weight="bold" lengthAdjust="spacing" textLength="38" x="653" y="29.3359">and</text><text fill="#000000" font-family="sans-serif" font-size="20" font-weight="bold" lengthAdjust="spacing" textLength="249" x="698" y="29.3359">grouped per namespace</text><!--cluster Examples--><g id="cluster_Examples"><a href="Examples-diagram-simplified-grouped-per-namespace.svg" target="_top" title="Examples-diagram-simplified-grouped-per-namespace.svg" xlink:actuate="onRequest" xlink:href="Examples-diagram-simplified-grouped-per-namespace.svg" xlink:show="new" xlink:title="Examples-diagram-simplified-grouped-per-namespace.svg" xlink:type="simple"><path d="M678.5,50.5547 L747.5,50.5547 A3.75,3.75 0 0 1 750,53.0547 L757,73.043 L984.5,73.043 A2.5,2.5 0 0 1 987,75.543 L987,532.0547 A2.5,2.5 0 0 1 984.5,534.5547 L678.5,534.5547 A2.5,2.5 0 0 1 676,532.0547 L676,53.0547 A2.5,2.5 0 0 1 678.5,50.5547 " fill="none" style="stroke:#000000;stroke-width:1.5;"/><line style="stroke:#000000;stroke-width:1.5;" x1="676" x2="757" y1="73.043" y2="73.043"/><text fill="#000000" font-family="sans-serif" font-size="14" font-weight="bold" lengthAdjust="spacing" textLength="68" x="680" y="66.0898">Examples</text></a></g><!--cluster BadDesign--><g id="cluster_BadDesign"><a href="Examples.BadDesign-diagram-simplified-grouped-per-namespace.svg" target="_top" title="Examples.BadDesign-diagram-simplified-grouped-per-namespace.svg" xlink:actuate="onRequest" xlink:href="Examples.BadDesign-diagram-simplified-grouped-per-namespace.svg" xlink:show="new" xlink:title="Examples.BadDesign-diagram-simplified-grouped-per-namespace.svg" xlink:type="simple"><path d="M702.5,93.5547 L779.5,93.5547 A3.75,3.75 0 0 1 782,96.0547 L789,116.043 L960.5,116.043 A2.5,2.5 0 0 1 963,118.543 L963,508.0547 A2.5,2.5 0 0 1 960.5,510.5547 L702.5,510.5547 A2.5,2.5 0 0 1 700,508.0547 L700,96.0547 A2.5,2.5 0 0 1 702.5,93.5547 " fill="none" style="stroke:#000000;stroke-width:1.5;"/><line style="stroke:#000000;stroke-width:1.5;" x1="700" x2="789" y1="116.043" y2="116.043"/><text fill="#000000" font-family="sans-serif" font-size="14" font-weight="bold" lengthAdjust="spacing" textLength="76" x="704" y="109.0898">BadDesign</text></a></g><!--cluster CarExample--><g id="cluster_CarExample"><a href="Examples.BadDesign.CarExample-diagram-simplified-grouped-per-namespace.svg" target="_top" title="Examples.BadDesign.CarExample-diagram-simplified-grouped-per-namespace.svg" xlink:actuate="onRequest" xlink:href="Examples.BadDesign.CarExample-diagram-simplified-grouped-per-namespace.svg" xlink:show="new" xlink:title="Examples.BadDesign.CarExample-diagram-simplified-grouped-per-namespace.svg" xlink:type="simple"><path d="M726.5,136.5547 L811.5,136.5547 A3.75,3.75 0 0 1 814,139.0547 L821,159.043 L936.5,159.043 A2.5,2.5 0 0 1 939,161.543 L939,484.0547 A2.5,2.5 0 0 1 936.5,486.5547 L726.5,486.5547 A2.5,2.5 0 0 1 724,484.0547 L724,139.0547 A2.5,2.5 0 0 1 726.5,136.5547 " fill="none" style="stroke:#000000;stroke-width:1.5;"/><line style="stroke:#000000;stroke-width:1.5;" x1="724" x2="821" y1="159.043" y2="159.043"/><text fill="#000000" font-family="sans-serif" font-size="14" font-weight="bold" lengthAdjust="spacing" textLength="84" x="728" y="152.0898">CarExample</text></a></g><!--cluster CarParts--><g id="cluster_CarParts"><a href="Examples.BadDesign.CarExample.CarParts-diagram-simplified-grouped-per-namespace.svg" target="_top" title="Examples.BadDesign.CarExample.CarParts-diagram-simplified-grouped-per-namespace.svg" xlink:actuate="onRequest" xlink:href="Examples.BadDesign.CarExample.CarParts-diagram-simplified-grouped-per-namespace.svg" xlink:show="new" xlink:title="Examples.BadDesign.CarExample.CarParts-diagram-simplified-grouped-per-namespace.svg" xlink:type="simple"><path d="M811.5,179.5547 L873.5,179.5547 A3.75,3.75 0 0 1 876,182.0547 L883,202.043 L912.5,202.043 A2.5,2.5 0 0 1 915,204.543 L915,276.0547 A2.5,2.5 0 0 1 912.5,278.5547 L811.5,278.5547 A2.5,2.5 0 0 1 809,276.0547 L809,182.0547 A2.5,2.5 0 0 1 811.5,179.5547 " fill="none" style="stroke:#000000;stroke-width:1.5;"/><line style="stroke:#000000;stroke-width:1.5;" x1="809" x2="883" y1="202.043" y2="202.043"/><text fill="#000000" font-family="sans-serif" font-size="14" font-weight="bold" lengthAdjust="spacing" textLength="61" x="813" y="195.0898">CarParts</text></a></g><!--class DB--><a href="Examples.BadDesign.CarExample.DB-diagram-simplified-grouped-per-namespace.svg" target="_top" title="Examples.BadDesign.CarExample.DB-diagram-simplified-grouped-per-namespace.svg" xlink:actuate="onRequest" xlink:href="Examples.BadDesign.CarExample.DB-diagram-simplified-grouped-per-namespace.svg" xlink:show="new" xlink:title="Examples.BadDesign.CarExample.DB-diagram-simplified-grouped-per-namespace.svg" xlink:type="simple"><g id="elem_DB"><rect codeLine="7" fill="#F1F1F1" height="48" id="DB" rx="2.5" ry="2.5" style="stroke:#181818;stroke-width:0.5;" width="50" x="740" y="214.5547"/><ellipse cx="755" cy="230.5547" fill="#A9DCDF" rx="11" ry="11" style="stroke:#181818;stroke-width:1.0;"/><path d="M754.8633,225.9028 L753.7095,230.9746 L756.0254,230.9746 Z M753.3691,223.6616 L756.3657,223.6616 L759.7109,236.0547 L757.2622,236.0547 L756.4985,232.9917 L753.2197,232.9917 L752.4727,236.0547 L750.0239,236.0547 Z " fill="#000000"/><text fill="#000000" font-family="sans-serif" font-size="14" font-style="italic" lengthAdjust="spacing" textLength="18" x="769" y="235.8457">DB</text><line style="stroke:#181818;stroke-width:0.5;" x1="741" x2="789" y1="246.5547" y2="246.5547"/><line style="stroke:#181818;stroke-width:0.5;" x1="741" x2="789" y1="254.5547" y2="254.5547"/></g></a><!--class Car--><a href="Examples.BadDesign.CarExample.Car-diagram-simplified-grouped-per-namespace.svg" target="_top" title="Examples.BadDesign.CarExample.Car-diagram-simplified-grouped-per-namespace.svg" xlink:actuate="onRequest" xlink:href="Examples.BadDesign.CarExample.Car-diagram-simplified-grouped-per-namespace.svg" xlink:show="new" xlink:title="Examples.BadDesign.CarExample.Car-diagram-simplified-grouped-per-namespace.svg" xlink:type="simple"><g id="elem_Car"><rect codeLine="9" fill="#F1F1F1" height="48" id="Car" rx="2.5" ry="2.5" style="stroke:#181818;stroke-width:0.5;" width="56" x="740" y="422.5547"/><ellipse cx="755" cy="438.5547" fill="#A9DCDF" rx="11" ry="11" style="stroke:#181818;stroke-width:1.0;"/><path d="M754.8633,433.9028 L753.7095,438.9746 L756.0254,438.9746 Z M753.3691,431.6616 L756.3657,431.6616 L759.7109,444.0547 L757.2622,444.0547 L756.4985,440.9917 L753.2197,440.9917 L752.4727,444.0547 L750.0239,444.0547 Z " fill="#000000"/><text fill="#000000" font-family="sans-serif" font-size="14" font-style="italic" lengthAdjust="spacing" textLength="24" x="769" y="443.8457">Car</text><line style="stroke:#181818;stroke-width:0.5;" x1="741" x2="795" y1="454.5547" y2="454.5547"/><line style="stroke:#181818;stroke-width:0.5;" x1="741" x2="795" y1="462.5547" y2="462.5547"/></g></a><!--class Driver--><a href="Examples.BadDesign.CarExample.CarParts.Driver-diagram-simplified-grouped-per-namespace.svg" target="_top" title="Examples.BadDesign.CarExample.CarParts.Driver-diagram-simplified-grouped-per-namespace.svg" xlink:actuate="onRequest" xlink:href="Examples.BadDesign.CarExample.CarParts.Driver-diagram-simplified-grouped-per-namespace.svg" xlink:show="new" xlink:title="Examples.BadDesign.CarExample.CarParts.Driver-diagram-simplified-grouped-per-namespace.svg" xlink:type="simple"><g id="elem_Driver"><rect codeLine="23" fill="#FFFF00" height="48" id="Driver" rx="2.5" ry="2.5" style="stroke:#181818;stroke-width:0.5;" width="73" x="825.5" y="214.5547"/><ellipse cx="840.5" cy="230.5547" fill="#A9DCDF" rx="11" ry="11" style="stroke:#181818;stroke-width:1.0;"/><path d="M840.3633,225.9028 L839.2095,230.9746 L841.5254,230.9746 Z M838.8691,223.6616 L841.8657,223.6616 L845.2109,236.0547 L842.7622,236.0547 L841.9985,232.9917 L838.7197,232.9917 L837.9727,236.0547 L835.5239,236.0547 Z " fill="#000000"/><text fill="#000000" font-family="sans-serif" font-size="14" font-style="italic" lengthAdjust="spacing" textLength="41" x="854.5" y="235.8457">Driver</text><line style="stroke:#181818;stroke-width:0.5;" x1="826.5" x2="897.5" y1="246.5547" y2="246.5547"/><line style="stroke:#181818;stroke-width:0.5;" x1="826.5" x2="897.5" y1="254.5547" y2="254.5547"/></g></a><g id="elem_FloatingNote"><path d="M6,114.5547 L6,362.2129 L660,362.2129 L660,124.5547 L650,114.5547 L6,114.5547 " fill="#FEFFDD" style="stroke:#181818;stroke-width:0.5;"/><path d="M650,114.5547 L650,124.5547 L660,124.5547 L650,114.5547 " fill="#FEFFDD" style="stroke:#181818;stroke-width:1.0;"/><text fill="#000000" font-family="sans-serif" font-size="13" lengthAdjust="spacing" textLength="120" x="12" y="132.123">Your are analyzing:</text><text fill="#000000" font-family="sans-serif" font-size="13" lengthAdjust="spacing" textLength="306" x="12" y="147.4336">Examples.BadDesign.CarExample.CarParts.Driver</text><text fill="#000000" font-family="sans-serif" font-size="13" font-weight="bold" lengthAdjust="spacing" textLength="67" x="322" y="147.4336">simplified</text><text fill="#000000" font-family="sans-serif" font-size="13" lengthAdjust="spacing" textLength="23" x="393" y="147.4336">and</text><text fill="#000000" font-family="sans-serif" font-size="13" font-weight="bold" lengthAdjust="spacing" textLength="166" x="420" y="147.4336">grouped per namespace</text><text fill="#000000" font-family="sans-serif" font-size="13" lengthAdjust="spacing" textLength="4" x="12" y="162.7441">&#160;</text><text fill="#000000" font-family="sans-serif" font-size="13" lengthAdjust="spacing" textLength="229" x="12" y="193.3652">You can click either the namespaces</text><text fill="#000000" font-family="sans-serif" font-size="13" lengthAdjust="spacing" textLength="266" x="12" y="208.6758">or class names for filtering them and their</text><text fill="#000000" font-family="sans-serif" font-size="13" lengthAdjust="spacing" textLength="130" x="12" y="223.9863">direct dependencies.</text><text fill="#000000" font-family="sans-serif" font-size="13" lengthAdjust="spacing" textLength="4" x="12" y="239.2969">&#160;</text><line style="stroke:#181818;stroke-width:1.0;" x1="7" x2="317" y1="173.1416" y2="173.1416"/><line style="stroke:#181818;stroke-width:1.0;" x1="7" x2="317" y1="175.1416" y2="175.1416"/><text fill="#000000" font-family="sans-serif" font-size="13" lengthAdjust="spacing" textLength="32" x="317" y="177.5547">Filter</text><line style="stroke:#181818;stroke-width:1.0;" x1="349" x2="659" y1="173.1416" y2="173.1416"/><line style="stroke:#181818;stroke-width:1.0;" x1="349" x2="659" y1="175.1416" y2="175.1416"/><ellipse cx="17.5" cy="269.1602" fill="#000000" rx="2.5" ry="2.5" style="stroke:#000000;stroke-width:0.0;"/><text fill="#000000" font-family="sans-serif" font-size="13" lengthAdjust="spacing" textLength="306" x="24" y="273.918">Examples.BadDesign.CarExample.CarParts.Driver</text><text fill="#000000" font-family="sans-serif" font-size="13" font-weight="bold" lengthAdjust="spacing" textLength="55" x="334" y="273.918">detailed</text><text fill="#000000" font-family="sans-serif" font-size="13" lengthAdjust="spacing" textLength="23" x="393" y="273.918">and</text><text fill="#000000" font-family="sans-serif" font-size="13" font-weight="bold" lengthAdjust="spacing" textLength="166" x="420" y="273.918">grouped per namespace</text><text fill="#000000" font-family="sans-serif" font-size="13" lengthAdjust="spacing" textLength="4" x="586" y="273.918">:</text><text fill="#000000" font-family="sans-serif" font-size="13" lengthAdjust="spacing" textLength="12" x="12" y="289.2285">&#160;&#160;&#160;</text><a href="Examples.BadDesign.CarExample.CarParts.Driver-diagram-detailed-grouped-per-namespace.svg" target="_top" title="Examples.BadDesign.CarExample.CarParts.Driver-diagram-detailed-grouped-per-namespace.svg" xlink:actuate="onRequest" xlink:href="Examples.BadDesign.CarExample.CarParts.Driver-diagram-detailed-grouped-per-namespace.svg" xlink:show="new" xlink:title="Examples.BadDesign.CarExample.CarParts.Driver-diagram-detailed-grouped-per-namespace.svg" xlink:type="simple"><text fill="#0000FF" font-family="sans-serif" font-size="13" lengthAdjust="spacing" text-decoration="underline" textLength="615" x="24" y="289.2285">Examples.BadDesign.CarExample.CarParts.Driver-diagram-detailed-grouped-per-namespace.svg</text></a><ellipse cx="17.5" cy="299.7813" fill="#000000" rx="2.5" ry="2.5" style="stroke:#000000;stroke-width:0.0;"/><text fill="#000000" font-family="sans-serif" font-size="13" lengthAdjust="spacing" textLength="78" x="24" y="304.5391">Full diagram</text><text fill="#000000" font-family="sans-serif" font-size="13" font-weight="bold" lengthAdjust="spacing" textLength="67" x="106" y="304.5391">simplified</text><text fill="#000000" font-family="sans-serif" font-size="13" lengthAdjust="spacing" textLength="23" x="177" y="304.5391">and</text><text fill="#000000" font-family="sans-serif" font-size="13" font-weight="bold" lengthAdjust="spacing" textLength="166" x="204" y="304.5391">grouped per namespace</text><text fill="#000000" font-family="sans-serif" font-size="13" lengthAdjust="spacing" textLength="4" x="370" y="304.5391">:</text><text fill="#000000" font-family="sans-serif" font-size="13" lengthAdjust="spacing" textLength="12" x="12" y="319.8496">&#160;&#160;&#160;</text><a href="full-diagram-simplified-grouped-per-namespace.svg" target="_top" title="full-diagram-simplified-grouped-per-namespace.svg" xlink:actuate="onRequest" xlink:href="full-diagram-simplified-grouped-per-namespace.svg" xlink:show="new" xlink:title="full-diagram-simplified-grouped-per-namespace.svg" xlink:type="simple"><text fill="#0000FF" font-family="sans-serif" font-size="13" lengthAdjust="spacing" text-decoration="underline" textLength="343" x="24" y="319.8496">full-diagram-simplified-grouped-per-namespace.svg</text></a><ellipse cx="17.5" cy="330.4023" fill="#000000" rx="2.5" ry="2.5" style="stroke:#000000;stroke-width:0.0;"/><text fill="#000000" font-family="sans-serif" font-size="13" lengthAdjust="spacing" textLength="41" x="24" y="335.1602">Home:</text><text fill="#000000" font-family="sans-serif" font-size="13" lengthAdjust="spacing" textLength="12" x="12" y="350.4707">&#160;&#160;&#160;</text><a href="index.html" target="_top" title="index.html" xlink:actuate="onRequest" xlink:href="index.html" xlink:show="new" xlink:title="index.html" xlink:type="simple"><text fill="#0000FF" font-family="sans-serif" font-size="13" lengthAdjust="spacing" text-decoration="underline" textLength="68" x="24" y="350.4707">index.html</text></a><line style="stroke:#181818;stroke-width:1.0;" x1="7" x2="296" y1="253.6943" y2="253.6943"/><line style="stroke:#181818;stroke-width:1.0;" x1="7" x2="296" y1="255.6943" y2="255.6943"/><text fill="#000000" font-family="sans-serif" font-size="13" lengthAdjust="spacing" textLength="74" x="296" y="258.1074">Select other</text><line style="stroke:#181818;stroke-width:1.0;" x1="370" x2="659" y1="253.6943" y2="253.6943"/><line style="stroke:#181818;stroke-width:1.0;" x1="370" x2="659" y1="255.6943" y2="255.6943"/></g><!--link DB to Car--><g id="link_DB_Car"><path codeLine="40" d="M756.67,262.8247 C756.67,262.8247 756.67,416.1247 756.67,416.1247 " fill="none" id="DB-to-Car" style="stroke:#6060BB;stroke-width:1.0;stroke-dasharray:7.0,7.0;"/><polygon fill="#6060BB" points="756.67,421.1247,760.67,412.1247,756.67,416.1247,752.67,412.1247,756.67,421.1247" style="stroke:#6060BB;stroke-width:1.0;"/><text fill="#000000" font-family="sans-serif" font-size="13" lengthAdjust="spacing" textLength="29" x="726.67" y="336.043">uses</text></g><!--reverse link Car to DB--><g id="link_Car_DB"><path codeLine="43" d="M773.33,408.2847 C773.33,408.2847 773.33,262.9847 773.33,262.9847 " fill="none" id="Car-backto-DB" style="stroke:#10BB10;stroke-width:1.0;"/><polygon fill="#10BB10" points="773.33,421.2847,777.33,415.2847,773.33,409.2847,769.33,415.2847,773.33,421.2847" style="stroke:#10BB10;stroke-width:1.0;"/></g><!--link DB to Driver--><g id="link_DB_Driver"><path codeLine="41" d="M790.49,230.5547 C790.49,230.5547 819.01,230.5547 819.01,230.5547 " fill="none" id="DB-to-Driver" style="stroke:#6060BB;stroke-width:1.0;stroke-dasharray:7.0,7.0;"/><polygon fill="#6060BB" points="824.01,230.5547,815.01,226.5547,819.01,230.5547,815.01,234.5547,824.01,230.5547" style="stroke:#6060BB;stroke-width:1.0;"/><text fill="#000000" font-family="sans-serif" font-size="13" lengthAdjust="spacing" textLength="29" x="790.25" y="244.123">uses</text></g><!--reverse link Driver to DB--><g id="link_Driver_DB"><path codeLine="46" d="M811.05,246.5547 C811.05,246.5547 790.41,246.5547 790.41,246.5547 " fill="none" id="Driver-backto-DB" style="stroke:#10BB10;stroke-width:1.0;"/><polygon fill="#10BB10" points="824.05,246.5547,818.05,242.5547,812.05,246.5547,818.05,250.5547,824.05,246.5547" style="stroke:#10BB10;stroke-width:1.0;"/></g><!--reverse link Driver to Car--><g id="link_Driver_Car"><path codeLine="42" d="M862,283.8247 C862,283.8247 862,446.5547 862,446.5547 C862,446.5547 824.12,446.5547 796.46,446.5547 " fill="none" id="Driver-backto-Car" style="stroke:#FF0000;stroke-width:1.0;"/><polygon fill="none" points="855,283.8247,862,263.8247,869,283.8247,855,283.8247" style="stroke:#FF0000;stroke-width:1.0;"/></g><!--SRC=[xLR1Rjf04Btp5QDmY6J9BkaX1mGSWAAUeaezLHYXnHx3AkjTQtTD86t-lMCmDeaWjX5fBaK8BTwPzzxCpipQF7APCCrY45oYtIO8IjkLQbbk1KBFy6ViVkqClcrOd0Wqtf25OpHyARqHq_dJRFc3QMkyiUPhrE0uXjC6ZpY6ZWDCXlHegLMQO0W96KWMeqbOW8xJ-v9n35fIMOIRNohLm3II3nFRPowNNLz-7BalVTdlJxYmgFjzNn8z14n287Zm2CZjYkpff_Gnu4kboO0PityA4VsFTX0aDxEETwIquDgN8TSOM0WnGHcY33Z5iQVzYIBRKHb9Hkv0qq13j8oBwZ0fXm0mdJR2TqFEbbGPxe75pT5TGdSBTC-ibxDPfdwI2W6vKwDJECYB2A1WBTshUB-h60yGd7AyyLOs5hFP3J034w6OfNDveF9g5Sv5fe-Iqf0PVf-0AnDxCjlNfJWwkwgpRKvCsGIsC5OpAj5zjRzVFUDXPO6DXqrrv49UcikXPPs2lrZGxKZ5D3Yfc3_hYE29nXDGAYpG88bHqYY985S78w5CDeuOzMIYSSrLQkOcNSmBdBdWv5ggVr0IOO41ImrcyooVmOORe6_49JSh3BqZxDAt3AFrSjAWYFZC_Y4rjFs_IQzDN4pssbV0PVEYUOk-kiyklPzgQcnlKGZrL6Yze8V_GIBFT_KdzVKkZ3DTUyssXrjwGQZrWG-ppIHcTQjHq4k3aWPmiwjdAf58gxXKtYNRTokWLNbRUjFsVUU-CnpEl46DomowG0TeuDh0hrgm9ibRjzuVTzgcFfgvrNpLqE0GsXtfl-jK0bAurpor8hA62MYc-2y0]--></g></svg>