<?xml version="1.0" encoding="us-ascii" standalone="no"?><svg xmlns="http://www.w3.org/2000/svg" xmlns:xlink="http://www.w3.org/1999/xlink" contentStyleType="text/css" height="820px" preserveAspectRatio="none" style="width:1708px;height:820px;background:#FFFFFF;" version="1.1" viewBox="0 0 1708 820" width="1708px" zoomAndPan="magnify"><defs/><g><text fill="#000000" font-family="sans-serif" font-size="20" font-weight="bold" lengthAdjust="spacing" textLength="237" x="522.5" y="29.3359">Examples.BetterDesign</text><text fill="#000000" font-family="sans-serif" font-size="20" font-weight="bold" lengthAdjust="spacing" textLength="104" x="766.5" y="29.3359">simplified</text><text fill="#000000" font-family="sans-serif" font-size="20" font-weight="bold" lengthAdjust="spacing" textLength="38" x="877.5" y="29.3359">and</text><text fill="#000000" font-family="sans-serif" font-size="20" font-weight="bold" lengthAdjust="spacing" textLength="249" x="922.5" y="29.3359">grouped per namespace</text><!--cluster Examples--><g id="cluster_Examples"><a href="Examples-diagram-simplified-grouped-per-namespace.svg" target="_top" title="Examples-diagram-simplified-grouped-per-namespace.svg" xlink:actuate="onRequest" xlink:href="Examples-diagram-simplified-grouped-per-namespace.svg" xlink:show="new" xlink:title="Examples-diagram-simplified-grouped-per-namespace.svg" xlink:type="simple"><path d="M516.5,50.5547 L585.5,50.5547 A3.75,3.75 0 0 1 588,53.0547 L595,73.043 L1698.5,73.043 A2.5,2.5 0 0 1 1701,75.543 L1701,811.0547 A2.5,2.5 0 0 1 1698.5,813.5547 L516.5,813.5547 A2.5,2.5 0 0 1 514,811.0547 L514,53.0547 A2.5,2.5 0 0 1 516.5,50.5547 " fill="none" style="stroke:#000000;stroke-width:1.5;"/><line style="stroke:#000000;stroke-width:1.5;" x1="514" x2="595" y1="73.043" y2="73.043"/><text fill="#000000" font-family="sans-serif" font-size="14" font-weight="bold" lengthAdjust="spacing" textLength="68" x="518" y="66.0898">Examples</text></a></g><!--cluster BetterDesign--><g id="cluster_BetterDesign"><a href="Examples.BetterDesign-diagram-simplified-grouped-per-namespace.svg" target="_top" title="Examples.BetterDesign-diagram-simplified-grouped-per-namespace.svg" xlink:actuate="onRequest" xlink:href="Examples.BetterDesign-diagram-simplified-grouped-per-namespace.svg" xlink:show="new" xlink:title="Examples.BetterDesign-diagram-simplified-grouped-per-namespace.svg" xlink:type="simple"><path d="M540.5,93.5547 L634.5,93.5547 A3.75,3.75 0 0 1 637,96.0547 L644,116.043 L1674.5,116.043 A2.5,2.5 0 0 1 1677,118.543 L1677,787.0547 A2.5,2.5 0 0 1 1674.5,789.5547 L540.5,789.5547 A2.5,2.5 0 0 1 538,787.0547 L538,96.0547 A2.5,2.5 0 0 1 540.5,93.5547 " fill="none" style="stroke:#000000;stroke-width:1.5;"/><line style="stroke:#000000;stroke-width:1.5;" x1="538" x2="644" y1="116.043" y2="116.043"/><text fill="#000000" font-family="sans-serif" font-size="14" font-weight="bold" lengthAdjust="spacing" textLength="93" x="542" y="109.0898">BetterDesign</text></a></g><!--cluster Repository--><g id="cluster_Repository"><a href="Examples.BetterDesign.Repository-diagram-simplified-grouped-per-namespace.svg" target="_top" title="Examples.BetterDesign.Repository-diagram-simplified-grouped-per-namespace.svg" xlink:actuate="onRequest" xlink:href="Examples.BetterDesign.Repository-diagram-simplified-grouped-per-namespace.svg" xlink:show="new" xlink:title="Examples.BetterDesign.Repository-diagram-simplified-grouped-per-namespace.svg" xlink:type="simple"><path d="M652.5,136.5547 L731.5,136.5547 A3.75,3.75 0 0 1 734,139.0547 L741,159.043 L1650.5,159.043 A2.5,2.5 0 0 1 1653,161.543 L1653,763.0547 A2.5,2.5 0 0 1 1650.5,765.5547 L652.5,765.5547 A2.5,2.5 0 0 1 650,763.0547 L650,139.0547 A2.5,2.5 0 0 1 652.5,136.5547 " fill="none" style="stroke:#000000;stroke-width:1.5;"/><line style="stroke:#000000;stroke-width:1.5;" x1="650" x2="741" y1="159.043" y2="159.043"/><text fill="#000000" font-family="sans-serif" font-size="14" font-weight="bold" lengthAdjust="spacing" textLength="78" x="654" y="152.0898">Repository</text></a></g><!--cluster CarExample--><g id="cluster_CarExample"><a href="Examples.BetterDesign.Repository.CarExample-diagram-simplified-grouped-per-namespace.svg" target="_top" title="Examples.BetterDesign.Repository.CarExample-diagram-simplified-grouped-per-namespace.svg" xlink:actuate="onRequest" xlink:href="Examples.BetterDesign.Repository.CarExample-diagram-simplified-grouped-per-namespace.svg" xlink:show="new" xlink:title="Examples.BetterDesign.Repository.CarExample-diagram-simplified-grouped-per-namespace.svg" xlink:type="simple"><path d="M676.5,179.5547 L761.5,179.5547 A3.75,3.75 0 0 1 764,182.0547 L771,202.043 L1626.5,202.043 A2.5,2.5 0 0 1 1629,204.543 L1629,739.0547 A2.5,2.5 0 0 1 1626.5,741.5547 L676.5,741.5547 A2.5,2.5 0 0 1 674,739.0547 L674,182.0547 A2.5,2.5 0 0 1 676.5,179.5547 " fill="none" style="stroke:#000000;stroke-width:1.5;"/><line style="stroke:#000000;stroke-width:1.5;" x1="674" x2="771" y1="202.043" y2="202.043"/><text fill="#000000" font-family="sans-serif" font-size="14" font-weight="bold" lengthAdjust="spacing" textLength="84" x="678" y="195.0898">CarExample</text></a></g><!--cluster CarParts--><g id="cluster_CarParts"><a href="Examples.BetterDesign.Repository.CarExample.CarParts-diagram-simplified-grouped-per-namespace.svg" target="_top" title="Examples.BetterDesign.Repository.CarExample.CarParts-diagram-simplified-grouped-per-namespace.svg" xlink:actuate="onRequest" xlink:href="Examples.BetterDesign.Repository.CarExample.CarParts-diagram-simplified-grouped-per-namespace.svg" xlink:show="new" xlink:title="Examples.BetterDesign.Repository.CarExample.CarParts-diagram-simplified-grouped-per-namespace.svg" xlink:type="simple"><path d="M1175.5,618.5547 L1237.5,618.5547 A3.75,3.75 0 0 1 1240,621.0547 L1247,641.043 L1602.5,641.043 A2.5,2.5 0 0 1 1605,643.543 L1605,715.0547 A2.5,2.5 0 0 1 1602.5,717.5547 L1175.5,717.5547 A2.5,2.5 0 0 1 1173,715.0547 L1173,621.0547 A2.5,2.5 0 0 1 1175.5,618.5547 " fill="none" style="stroke:#000000;stroke-width:1.5;"/><line style="stroke:#000000;stroke-width:1.5;" x1="1173" x2="1247" y1="641.043" y2="641.043"/><text fill="#000000" font-family="sans-serif" font-size="14" font-weight="bold" lengthAdjust="spacing" textLength="61" x="1177" y="634.0898">CarParts</text></a></g><!--cluster WarehouseEntities--><g id="cluster_WarehouseEntities"><a href="Examples.BetterDesign.Repository.CarExample.WarehouseEntities-diagram-simplified-grouped-per-namespace.svg" target="_top" title="Examples.BetterDesign.Repository.CarExample.WarehouseEntities-diagram-simplified-grouped-per-namespace.svg" xlink:actuate="onRequest" xlink:href="Examples.BetterDesign.Repository.CarExample.WarehouseEntities-diagram-simplified-grouped-per-namespace.svg" xlink:show="new" xlink:title="Examples.BetterDesign.Repository.CarExample.WarehouseEntities-diagram-simplified-grouped-per-namespace.svg" xlink:type="simple"><path d="M700.5,495.5547 L834.5,495.5547 A3.75,3.75 0 0 1 837,498.0547 L844,518.043 L1276.5,518.043 A2.5,2.5 0 0 1 1279,520.543 L1279,592.0547 A2.5,2.5 0 0 1 1276.5,594.5547 L700.5,594.5547 A2.5,2.5 0 0 1 698,592.0547 L698,498.0547 A2.5,2.5 0 0 1 700.5,495.5547 " fill="none" style="stroke:#000000;stroke-width:1.5;"/><line style="stroke:#000000;stroke-width:1.5;" x1="698" x2="844" y1="518.043" y2="518.043"/><text fill="#000000" font-family="sans-serif" font-size="14" font-weight="bold" lengthAdjust="spacing" textLength="133" x="702" y="511.0898">WarehouseEntities</text></a></g><!--class Service--><a href="Examples.BetterDesign.Service-diagram-simplified-grouped-per-namespace.svg" target="_top" title="Examples.BetterDesign.Service-diagram-simplified-grouped-per-namespace.svg" xlink:actuate="onRequest" xlink:href="Examples.BetterDesign.Service-diagram-simplified-grouped-per-namespace.svg" xlink:show="new" xlink:title="Examples.BetterDesign.Service-diagram-simplified-grouped-per-namespace.svg" xlink:type="simple"><g id="elem_Service"><rect codeLine="6" fill="#FFFF00" height="48" id="Service" rx="2.5" ry="2.5" style="stroke:#181818;stroke-width:0.5;" width="80" x="554" y="422.5547"/><ellipse cx="569" cy="438.5547" fill="#A9DCDF" rx="11" ry="11" style="stroke:#181818;stroke-width:1.0;"/><path d="M568.8633,433.9028 L567.7095,438.9746 L570.0254,438.9746 Z M567.3691,431.6616 L570.3657,431.6616 L573.7109,444.0547 L571.2622,444.0547 L570.4985,440.9917 L567.2197,440.9917 L566.4727,444.0547 L564.0239,444.0547 Z " fill="#000000"/><text fill="#000000" font-family="sans-serif" font-size="14" font-style="italic" lengthAdjust="spacing" textLength="48" x="583" y="443.8457">Service</text><line style="stroke:#181818;stroke-width:0.5;" x1="555" x2="633" y1="454.5547" y2="454.5547"/><line style="stroke:#181818;stroke-width:0.5;" x1="555" x2="633" y1="462.5547" y2="462.5547"/></g></a><!--class Car--><a href="Examples.BetterDesign.Repository.CarExample.Car-diagram-simplified-grouped-per-namespace.svg" target="_top" title="Examples.BetterDesign.Repository.CarExample.Car-diagram-simplified-grouped-per-namespace.svg" xlink:actuate="onRequest" xlink:href="Examples.BetterDesign.Repository.CarExample.Car-diagram-simplified-grouped-per-namespace.svg" xlink:show="new" xlink:title="Examples.BetterDesign.Repository.CarExample.Car-diagram-simplified-grouped-per-namespace.svg" xlink:type="simple"><g id="elem_Car"><rect codeLine="18" fill="#FFFF00" height="48" id="Car" rx="2.5" ry="2.5" style="stroke:#181818;stroke-width:0.5;" width="56" x="1335" y="530.5547"/><ellipse cx="1350" cy="546.5547" fill="#A9DCDF" rx="11" ry="11" style="stroke:#181818;stroke-width:1.0;"/><path d="M1349.8633,541.9028 L1348.7095,546.9746 L1351.0254,546.9746 Z M1348.3691,539.6616 L1351.3657,539.6616 L1354.7109,552.0547 L1352.2622,552.0547 L1351.4985,548.9917 L1348.2197,548.9917 L1347.4727,552.0547 L1345.0239,552.0547 Z " fill="#000000"/><text fill="#000000" font-family="sans-serif" font-size="14" font-style="italic" lengthAdjust="spacing" textLength="24" x="1364" y="551.8457">Car</text><line style="stroke:#181818;stroke-width:0.5;" x1="1336" x2="1390" y1="562.5547" y2="562.5547"/><line style="stroke:#181818;stroke-width:0.5;" x1="1336" x2="1390" y1="570.5547" y2="570.5547"/></g></a><!--class DBCar--><a href="Examples.BetterDesign.Repository.CarExample.DBCar-diagram-simplified-grouped-per-namespace.svg" target="_top" title="Examples.BetterDesign.Repository.CarExample.DBCar-diagram-simplified-grouped-per-namespace.svg" xlink:actuate="onRequest" xlink:href="Examples.BetterDesign.Repository.CarExample.DBCar-diagram-simplified-grouped-per-namespace.svg" xlink:show="new" xlink:title="Examples.BetterDesign.Repository.CarExample.DBCar-diagram-simplified-grouped-per-namespace.svg" xlink:type="simple"><g id="elem_DBCar"><rect codeLine="20" fill="#FFFF00" height="48" id="DBCar" rx="2.5" ry="2.5" style="stroke:#181818;stroke-width:0.5;" width="74" x="1427" y="422.5547"/><ellipse cx="1442" cy="438.5547" fill="#A9DCDF" rx="11" ry="11" style="stroke:#181818;stroke-width:1.0;"/><path d="M1441.8633,433.9028 L1440.7095,438.9746 L1443.0254,438.9746 Z M1440.3691,431.6616 L1443.3657,431.6616 L1446.7109,444.0547 L1444.2622,444.0547 L1443.4985,440.9917 L1440.2197,440.9917 L1439.4727,444.0547 L1437.0239,444.0547 Z " fill="#000000"/><text fill="#000000" font-family="sans-serif" font-size="14" font-style="italic" lengthAdjust="spacing" textLength="42" x="1456" y="443.8457">DBCar</text><line style="stroke:#181818;stroke-width:0.5;" x1="1428" x2="1500" y1="454.5547" y2="454.5547"/><line style="stroke:#181818;stroke-width:0.5;" x1="1428" x2="1500" y1="462.5547" y2="462.5547"/></g></a><!--class DBWarehouse--><a href="Examples.BetterDesign.Repository.CarExample.DBWarehouse-diagram-simplified-grouped-per-namespace.svg" target="_top" title="Examples.BetterDesign.Repository.CarExample.DBWarehouse-diagram-simplified-grouped-per-namespace.svg" xlink:actuate="onRequest" xlink:href="Examples.BetterDesign.Repository.CarExample.DBWarehouse-diagram-simplified-grouped-per-namespace.svg" xlink:show="new" xlink:title="Examples.BetterDesign.Repository.CarExample.DBWarehouse-diagram-simplified-grouped-per-namespace.svg" xlink:type="simple"><g id="elem_DBWarehouse"><rect codeLine="22" fill="#FFFF00" height="48" id="DBWarehouse" rx="2.5" ry="2.5" style="stroke:#181818;stroke-width:0.5;" width="126" x="1030" y="422.5547"/><ellipse cx="1045" cy="438.5547" fill="#A9DCDF" rx="11" ry="11" style="stroke:#181818;stroke-width:1.0;"/><path d="M1044.8633,433.9028 L1043.7095,438.9746 L1046.0254,438.9746 Z M1043.3691,431.6616 L1046.3657,431.6616 L1049.7109,444.0547 L1047.2622,444.0547 L1046.4985,440.9917 L1043.2197,440.9917 L1042.4727,444.0547 L1040.0239,444.0547 Z " fill="#000000"/><text fill="#000000" font-family="sans-serif" font-size="14" font-style="italic" lengthAdjust="spacing" textLength="94" x="1059" y="443.8457">DBWarehouse</text><line style="stroke:#181818;stroke-width:0.5;" x1="1031" x2="1155" y1="454.5547" y2="454.5547"/><line style="stroke:#181818;stroke-width:0.5;" x1="1031" x2="1155" y1="462.5547" y2="462.5547"/></g></a><!--class Vehicle--><a href="Examples.BetterDesign.Repository.CarExample.Vehicle-diagram-simplified-grouped-per-namespace.svg" target="_top" title="Examples.BetterDesign.Repository.CarExample.Vehicle-diagram-simplified-grouped-per-namespace.svg" xlink:actuate="onRequest" xlink:href="Examples.BetterDesign.Repository.CarExample.Vehicle-diagram-simplified-grouped-per-namespace.svg" xlink:show="new" xlink:title="Examples.BetterDesign.Repository.CarExample.Vehicle-diagram-simplified-grouped-per-namespace.svg" xlink:type="simple"><g id="elem_Vehicle"><rect codeLine="24" fill="#FFFF00" height="48" id="Vehicle" rx="2.5" ry="2.5" style="stroke:#181818;stroke-width:0.5;" width="81" x="1379.5" y="214.5547"/><ellipse cx="1394.5" cy="230.5547" fill="#A9DCDF" rx="11" ry="11" style="stroke:#181818;stroke-width:1.0;"/><path d="M1394.3633,225.9028 L1393.2095,230.9746 L1395.5254,230.9746 Z M1392.8691,223.6616 L1395.8657,223.6616 L1399.2109,236.0547 L1396.7622,236.0547 L1395.9985,232.9917 L1392.7197,232.9917 L1391.9727,236.0547 L1389.5239,236.0547 Z " fill="#000000"/><text fill="#000000" font-family="sans-serif" font-size="14" font-style="italic" lengthAdjust="spacing" textLength="49" x="1408.5" y="235.8457">Vehicle</text><line style="stroke:#181818;stroke-width:0.5;" x1="1380.5" x2="1459.5" y1="246.5547" y2="246.5547"/><line style="stroke:#181818;stroke-width:0.5;" x1="1380.5" x2="1459.5" y1="254.5547" y2="254.5547"/></g></a><!--class Driver--><a href="Examples.BetterDesign.Repository.CarExample.CarParts.Driver-diagram-simplified-grouped-per-namespace.svg" target="_top" title="Examples.BetterDesign.Repository.CarExample.CarParts.Driver-diagram-simplified-grouped-per-namespace.svg" xlink:actuate="onRequest" xlink:href="Examples.BetterDesign.Repository.CarExample.CarParts.Driver-diagram-simplified-grouped-per-namespace.svg" xlink:show="new" xlink:title="Examples.BetterDesign.Repository.CarExample.CarParts.Driver-diagram-simplified-grouped-per-namespace.svg" xlink:type="simple"><g id="elem_Driver"><rect codeLine="41" fill="#FFFF00" height="48" id="Driver" rx="2.5" ry="2.5" style="stroke:#181818;stroke-width:0.5;" width="73" x="1412.5" y="653.5547"/><ellipse cx="1427.5" cy="669.5547" fill="#A9DCDF" rx="11" ry="11" style="stroke:#181818;stroke-width:1.0;"/><path d="M1427.3633,664.9028 L1426.2095,669.9746 L1428.5254,669.9746 Z M1425.8691,662.6616 L1428.8657,662.6616 L1432.2109,675.0547 L1429.7622,675.0547 L1428.9985,671.9917 L1425.7197,671.9917 L1424.9727,675.0547 L1422.5239,675.0547 Z " fill="#000000"/><text fill="#000000" font-family="sans-serif" font-size="14" font-style="italic" lengthAdjust="spacing" textLength="41" x="1441.5" y="674.8457">Driver</text><line style="stroke:#181818;stroke-width:0.5;" x1="1413.5" x2="1484.5" y1="685.5547" y2="685.5547"/><line style="stroke:#181818;stroke-width:0.5;" x1="1413.5" x2="1484.5" y1="693.5547" y2="693.5547"/></g></a><!--class Seats--><a href="Examples.BetterDesign.Repository.CarExample.CarParts.Seats-diagram-simplified-grouped-per-namespace.svg" target="_top" title="Examples.BetterDesign.Repository.CarExample.CarParts.Seats-diagram-simplified-grouped-per-namespace.svg" xlink:actuate="onRequest" xlink:href="Examples.BetterDesign.Repository.CarExample.CarParts.Seats-diagram-simplified-grouped-per-namespace.svg" xlink:show="new" xlink:title="Examples.BetterDesign.Repository.CarExample.CarParts.Seats-diagram-simplified-grouped-per-namespace.svg" xlink:type="simple"><g id="elem_Seats"><rect codeLine="43" fill="#FFFF00" height="48" id="Seats" rx="2.5" ry="2.5" style="stroke:#181818;stroke-width:0.5;" width="68" x="1521" y="653.5547"/><ellipse cx="1536" cy="669.5547" fill="#A9DCDF" rx="11" ry="11" style="stroke:#181818;stroke-width:1.0;"/><path d="M1535.8633,664.9028 L1534.7095,669.9746 L1537.0254,669.9746 Z M1534.3691,662.6616 L1537.3657,662.6616 L1540.7109,675.0547 L1538.2622,675.0547 L1537.4985,671.9917 L1534.2197,671.9917 L1533.4727,675.0547 L1531.0239,675.0547 Z " fill="#000000"/><text fill="#000000" font-family="sans-serif" font-size="14" font-style="italic" lengthAdjust="spacing" textLength="36" x="1550" y="674.8457">Seats</text><line style="stroke:#181818;stroke-width:0.5;" x1="1522" x2="1588" y1="685.5547" y2="685.5547"/><line style="stroke:#181818;stroke-width:0.5;" x1="1522" x2="1588" y1="693.5547" y2="693.5547"/></g></a><!--class Doors--><a href="Examples.BetterDesign.Repository.CarExample.CarParts.Doors-diagram-simplified-grouped-per-namespace.svg" target="_top" title="Examples.BetterDesign.Repository.CarExample.CarParts.Doors-diagram-simplified-grouped-per-namespace.svg" xlink:actuate="onRequest" xlink:href="Examples.BetterDesign.Repository.CarExample.CarParts.Doors-diagram-simplified-grouped-per-namespace.svg" xlink:show="new" xlink:title="Examples.BetterDesign.Repository.CarExample.CarParts.Doors-diagram-simplified-grouped-per-namespace.svg" xlink:type="simple"><g id="elem_Doors"><rect codeLine="45" fill="#FFFF00" height="48" id="Doors" rx="2.5" ry="2.5" style="stroke:#181818;stroke-width:0.5;" width="73" x="1304.5" y="653.5547"/><ellipse cx="1319.5" cy="669.5547" fill="#A9DCDF" rx="11" ry="11" style="stroke:#181818;stroke-width:1.0;"/><path d="M1319.3633,664.9028 L1318.2095,669.9746 L1320.5254,669.9746 Z M1317.8691,662.6616 L1320.8657,662.6616 L1324.2109,675.0547 L1321.7622,675.0547 L1320.9985,671.9917 L1317.7197,671.9917 L1316.9727,675.0547 L1314.5239,675.0547 Z " fill="#000000"/><text fill="#000000" font-family="sans-serif" font-size="14" font-style="italic" lengthAdjust="spacing" textLength="41" x="1333.5" y="674.8457">Doors</text><line style="stroke:#181818;stroke-width:0.5;" x1="1305.5" x2="1376.5" y1="685.5547" y2="685.5547"/><line style="stroke:#181818;stroke-width:0.5;" x1="1305.5" x2="1376.5" y1="693.5547" y2="693.5547"/></g></a><!--class Wheels--><a href="Examples.BetterDesign.Repository.CarExample.CarParts.Wheels-diagram-simplified-grouped-per-namespace.svg" target="_top" title="Examples.BetterDesign.Repository.CarExample.CarParts.Wheels-diagram-simplified-grouped-per-namespace.svg" xlink:actuate="onRequest" xlink:href="Examples.BetterDesign.Repository.CarExample.CarParts.Wheels-diagram-simplified-grouped-per-namespace.svg" xlink:show="new" xlink:title="Examples.BetterDesign.Repository.CarExample.CarParts.Wheels-diagram-simplified-grouped-per-namespace.svg" xlink:type="simple"><g id="elem_Wheels"><rect codeLine="47" fill="#FFFF00" height="48" id="Wheels" rx="2.5" ry="2.5" style="stroke:#181818;stroke-width:0.5;" width="80" x="1189" y="653.5547"/><ellipse cx="1204" cy="669.5547" fill="#A9DCDF" rx="11" ry="11" style="stroke:#181818;stroke-width:1.0;"/><path d="M1203.8633,664.9028 L1202.7095,669.9746 L1205.0254,669.9746 Z M1202.3691,662.6616 L1205.3657,662.6616 L1208.7109,675.0547 L1206.2622,675.0547 L1205.4985,671.9917 L1202.2197,671.9917 L1201.4727,675.0547 L1199.0239,675.0547 Z " fill="#000000"/><text fill="#000000" font-family="sans-serif" font-size="14" font-style="italic" lengthAdjust="spacing" textLength="48" x="1218" y="674.8457">Wheels</text><line style="stroke:#181818;stroke-width:0.5;" x1="1190" x2="1268" y1="685.5547" y2="685.5547"/><line style="stroke:#181818;stroke-width:0.5;" x1="1190" x2="1268" y1="693.5547" y2="693.5547"/></g></a><!--class Car--><a href="Examples.BetterDesign.Repository.CarExample.WarehouseEntities.Car-diagram-simplified-grouped-per-namespace.svg" target="_top" title="Examples.BetterDesign.Repository.CarExample.WarehouseEntities.Car-diagram-simplified-grouped-per-namespace.svg" xlink:actuate="onRequest" xlink:href="Examples.BetterDesign.Repository.CarExample.WarehouseEntities.Car-diagram-simplified-grouped-per-namespace.svg" xlink:show="new" xlink:title="Examples.BetterDesign.Repository.CarExample.WarehouseEntities.Car-diagram-simplified-grouped-per-namespace.svg" xlink:type="simple"><g id="elem_Car"><rect codeLine="66" fill="#FFFF00" height="48" id="Car" rx="2.5" ry="2.5" style="stroke:#181818;stroke-width:0.5;" width="56" x="714" y="530.5547"/><ellipse cx="729" cy="546.5547" fill="#A9DCDF" rx="11" ry="11" style="stroke:#181818;stroke-width:1.0;"/><path d="M728.8633,541.9028 L727.7095,546.9746 L730.0254,546.9746 Z M727.3691,539.6616 L730.3657,539.6616 L733.7109,552.0547 L731.2622,552.0547 L730.4985,548.9917 L727.2197,548.9917 L726.4727,552.0547 L724.0239,552.0547 Z " fill="#000000"/><text fill="#000000" font-family="sans-serif" font-size="14" font-style="italic" lengthAdjust="spacing" textLength="24" x="743" y="551.8457">Car</text><line style="stroke:#181818;stroke-width:0.5;" x1="715" x2="769" y1="562.5547" y2="562.5547"/><line style="stroke:#181818;stroke-width:0.5;" x1="715" x2="769" y1="570.5547" y2="570.5547"/></g></a><!--class Invoice--><a href="Examples.BetterDesign.Repository.CarExample.WarehouseEntities.Invoice-diagram-simplified-grouped-per-namespace.svg" target="_top" title="Examples.BetterDesign.Repository.CarExample.WarehouseEntities.Invoice-diagram-simplified-grouped-per-namespace.svg" xlink:actuate="onRequest" xlink:href="Examples.BetterDesign.Repository.CarExample.WarehouseEntities.Invoice-diagram-simplified-grouped-per-namespace.svg" xlink:show="new" xlink:title="Examples.BetterDesign.Repository.CarExample.WarehouseEntities.Invoice-diagram-simplified-grouped-per-namespace.svg" xlink:type="simple"><g id="elem_Invoice"><rect codeLine="68" fill="#FFFF00" height="48" id="Invoice" rx="2.5" ry="2.5" style="stroke:#181818;stroke-width:0.5;" width="80" x="1183" y="530.5547"/><ellipse cx="1198" cy="546.5547" fill="#A9DCDF" rx="11" ry="11" style="stroke:#181818;stroke-width:1.0;"/><path d="M1197.8633,541.9028 L1196.7095,546.9746 L1199.0254,546.9746 Z M1196.3691,539.6616 L1199.3657,539.6616 L1202.7109,552.0547 L1200.2622,552.0547 L1199.4985,548.9917 L1196.2197,548.9917 L1195.4727,552.0547 L1193.0239,552.0547 Z " fill="#000000"/><text fill="#000000" font-family="sans-serif" font-size="14" font-style="italic" lengthAdjust="spacing" textLength="48" x="1212" y="551.8457">Invoice</text><line style="stroke:#181818;stroke-width:0.5;" x1="1184" x2="1262" y1="562.5547" y2="562.5547"/><line style="stroke:#181818;stroke-width:0.5;" x1="1184" x2="1262" y1="570.5547" y2="570.5547"/></g></a><!--class Complaints--><a href="Examples.BetterDesign.Repository.CarExample.WarehouseEntities.Complaints-diagram-simplified-grouped-per-namespace.svg" target="_top" title="Examples.BetterDesign.Repository.CarExample.WarehouseEntities.Complaints-diagram-simplified-grouped-per-namespace.svg" xlink:actuate="onRequest" xlink:href="Examples.BetterDesign.Repository.CarExample.WarehouseEntities.Complaints-diagram-simplified-grouped-per-namespace.svg" xlink:show="new" xlink:title="Examples.BetterDesign.Repository.CarExample.WarehouseEntities.Complaints-diagram-simplified-grouped-per-namespace.svg" xlink:type="simple"><g id="elem_Complaints"><rect codeLine="70" fill="#FFFF00" height="48" id="Complaints" rx="2.5" ry="2.5" style="stroke:#181818;stroke-width:0.5;" width="110" x="1038" y="530.5547"/><ellipse cx="1053" cy="546.5547" fill="#A9DCDF" rx="11" ry="11" style="stroke:#181818;stroke-width:1.0;"/><path d="M1052.8633,541.9028 L1051.7095,546.9746 L1054.0254,546.9746 Z M1051.3691,539.6616 L1054.3657,539.6616 L1057.7109,552.0547 L1055.2622,552.0547 L1054.4985,548.9917 L1051.2197,548.9917 L1050.4727,552.0547 L1048.0239,552.0547 Z " fill="#000000"/><text fill="#000000" font-family="sans-serif" font-size="14" font-style="italic" lengthAdjust="spacing" textLength="78" x="1067" y="551.8457">Complaints</text><line style="stroke:#181818;stroke-width:0.5;" x1="1039" x2="1147" y1="562.5547" y2="562.5547"/><line style="stroke:#181818;stroke-width:0.5;" x1="1039" x2="1147" y1="570.5547" y2="570.5547"/></g></a><!--class Customer--><a href="Examples.BetterDesign.Repository.CarExample.WarehouseEntities.Customer-diagram-simplified-grouped-per-namespace.svg" target="_top" title="Examples.BetterDesign.Repository.CarExample.WarehouseEntities.Customer-diagram-simplified-grouped-per-namespace.svg" xlink:actuate="onRequest" xlink:href="Examples.BetterDesign.Repository.CarExample.WarehouseEntities.Customer-diagram-simplified-grouped-per-namespace.svg" xlink:show="new" xlink:title="Examples.BetterDesign.Repository.CarExample.WarehouseEntities.Customer-diagram-simplified-grouped-per-namespace.svg" xlink:type="simple"><g id="elem_Customer"><rect codeLine="72" fill="#FFFF00" height="48" id="Customer" rx="2.5" ry="2.5" style="stroke:#181818;stroke-width:0.5;" width="99" x="903.5" y="530.5547"/><ellipse cx="918.5" cy="546.5547" fill="#A9DCDF" rx="11" ry="11" style="stroke:#181818;stroke-width:1.0;"/><path d="M918.3633,541.9028 L917.2095,546.9746 L919.5254,546.9746 Z M916.8691,539.6616 L919.8657,539.6616 L923.2109,552.0547 L920.7622,552.0547 L919.9985,548.9917 L916.7197,548.9917 L915.9727,552.0547 L913.5239,552.0547 Z " fill="#000000"/><text fill="#000000" font-family="sans-serif" font-size="14" font-style="italic" lengthAdjust="spacing" textLength="67" x="932.5" y="551.8457">Customer</text><line style="stroke:#181818;stroke-width:0.5;" x1="904.5" x2="1001.5" y1="562.5547" y2="562.5547"/><line style="stroke:#181818;stroke-width:0.5;" x1="904.5" x2="1001.5" y1="570.5547" y2="570.5547"/></g></a><!--class User--><a href="Examples.BetterDesign.Repository.CarExample.WarehouseEntities.User-diagram-simplified-grouped-per-namespace.svg" target="_top" title="Examples.BetterDesign.Repository.CarExample.WarehouseEntities.User-diagram-simplified-grouped-per-namespace.svg" xlink:actuate="onRequest" xlink:href="Examples.BetterDesign.Repository.CarExample.WarehouseEntities.User-diagram-simplified-grouped-per-namespace.svg" xlink:show="new" xlink:title="Examples.BetterDesign.Repository.CarExample.WarehouseEntities.User-diagram-simplified-grouped-per-namespace.svg" xlink:type="simple"><g id="elem_User"><rect codeLine="74" fill="#FFFF00" height="48" id="User" rx="2.5" ry="2.5" style="stroke:#181818;stroke-width:0.5;" width="63" x="805.5" y="530.5547"/><ellipse cx="820.5" cy="546.5547" fill="#A9DCDF" rx="11" ry="11" style="stroke:#181818;stroke-width:1.0;"/><path d="M820.3633,541.9028 L819.2095,546.9746 L821.5254,546.9746 Z M818.8691,539.6616 L821.8657,539.6616 L825.2109,552.0547 L822.7622,552.0547 L821.9985,548.9917 L818.7197,548.9917 L817.9727,552.0547 L815.5239,552.0547 Z " fill="#000000"/><text fill="#000000" font-family="sans-serif" font-size="14" font-style="italic" lengthAdjust="spacing" textLength="31" x="834.5" y="551.8457">User</text><line style="stroke:#181818;stroke-width:0.5;" x1="806.5" x2="867.5" y1="562.5547" y2="562.5547"/><line style="stroke:#181818;stroke-width:0.5;" x1="806.5" x2="867.5" y1="570.5547" y2="570.5547"/></g></a><g id="elem_FloatingNote"><path d="M6,114.5547 L6,362.2129 L498,362.2129 L498,124.5547 L488,114.5547 L6,114.5547 " fill="#FEFFDD" style="stroke:#181818;stroke-width:0.5;"/><path d="M488,114.5547 L488,124.5547 L498,124.5547 L488,114.5547 " fill="#FEFFDD" style="stroke:#181818;stroke-width:1.0;"/><text fill="#000000" font-family="sans-serif" font-size="13" lengthAdjust="spacing" textLength="120" x="12" y="132.123">Your are analyzing:</text><text fill="#000000" font-family="sans-serif" font-size="13" lengthAdjust="spacing" textLength="144" x="12" y="147.4336">Examples.BetterDesign</text><text fill="#000000" font-family="sans-serif" font-size="13" font-weight="bold" lengthAdjust="spacing" textLength="67" x="160" y="147.4336">simplified</text><text fill="#000000" font-family="sans-serif" font-size="13" lengthAdjust="spacing" textLength="23" x="231" y="147.4336">and</text><text fill="#000000" font-family="sans-serif" font-size="13" font-weight="bold" lengthAdjust="spacing" textLength="166" x="258" y="147.4336">grouped per namespace</text><text fill="#000000" font-family="sans-serif" font-size="13" lengthAdjust="spacing" textLength="4" x="12" y="162.7441">&#160;</text><text fill="#000000" font-family="sans-serif" font-size="13" lengthAdjust="spacing" textLength="229" x="12" y="193.3652">You can click either the namespaces</text><text fill="#000000" font-family="sans-serif" font-size="13" lengthAdjust="spacing" textLength="266" x="12" y="208.6758">or class names for filtering them and their</text><text fill="#000000" font-family="sans-serif" font-size="13" lengthAdjust="spacing" textLength="130" x="12" y="223.9863">direct dependencies.</text><text fill="#000000" font-family="sans-serif" font-size="13" lengthAdjust="spacing" textLength="4" x="12" y="239.2969">&#160;</text><line style="stroke:#181818;stroke-width:1.0;" x1="7" x2="236" y1="173.1416" y2="173.1416"/><line style="stroke:#181818;stroke-width:1.0;" x1="7" x2="236" y1="175.1416" y2="175.1416"/><text fill="#000000" font-family="sans-serif" font-size="13" lengthAdjust="spacing" textLength="32" x="236" y="177.5547">Filter</text><line style="stroke:#181818;stroke-width:1.0;" x1="268" x2="497" y1="173.1416" y2="173.1416"/><line style="stroke:#181818;stroke-width:1.0;" x1="268" x2="497" y1="175.1416" y2="175.1416"/><ellipse cx="17.5" cy="269.1602" fill="#000000" rx="2.5" ry="2.5" style="stroke:#000000;stroke-width:0.0;"/><text fill="#000000" font-family="sans-serif" font-size="13" lengthAdjust="spacing" textLength="144" x="24" y="273.918">Examples.BetterDesign</text><text fill="#000000" font-family="sans-serif" font-size="13" font-weight="bold" lengthAdjust="spacing" textLength="55" x="172" y="273.918">detailed</text><text fill="#000000" font-family="sans-serif" font-size="13" lengthAdjust="spacing" textLength="23" x="231" y="273.918">and</text><text fill="#000000" font-family="sans-serif" font-size="13" font-weight="bold" lengthAdjust="spacing" textLength="166" x="258" y="273.918">grouped per namespace</text><text fill="#000000" font-family="sans-serif" font-size="13" lengthAdjust="spacing" textLength="4" x="424" y="273.918">:</text><text fill="#000000" font-family="sans-serif" font-size="13" lengthAdjust="spacing" textLength="12" x="12" y="289.2285">&#160;&#160;&#160;</text><a href="Examples.BetterDesign-diagram-detailed-grouped-per-namespace.svg" target="_top" title="Examples.BetterDesign-diagram-detailed-grouped-per-namespace.svg" xlink:actuate="onRequest" xlink:href="Examples.BetterDesign-diagram-detailed-grouped-per-namespace.svg" xlink:show="new" xlink:title="Examples.BetterDesign-diagram-detailed-grouped-per-namespace.svg" xlink:type="simple"><text fill="#0000FF" font-family="sans-serif" font-size="13" lengthAdjust="spacing" text-decoration="underline" textLength="453" x="24" y="289.2285">Examples.BetterDesign-diagram-detailed-grouped-per-namespace.svg</text></a><ellipse cx="17.5" cy="299.7813" fill="#000000" rx="2.5" ry="2.5" style="stroke:#000000;stroke-width:0.0;"/><text fill="#000000" font-family="sans-serif" font-size="13" lengthAdjust="spacing" textLength="78" x="24" y="304.5391">Full diagram</text><text fill="#000000" font-family="sans-serif" font-size="13" font-weight="bold" lengthAdjust="spacing" textLength="67" x="106" y="304.5391">simplified</text><text fill="#000000" font-family="sans-serif" font-size="13" lengthAdjust="spacing" textLength="23" x="177" y="304.5391">and</text><text fill="#000000" font-family="sans-serif" font-size="13" font-weight="bold" lengthAdjust="spacing" textLength="166" x="204" y="304.5391">grouped per namespace</text><text fill="#000000" font-family="sans-serif" font-size="13" lengthAdjust="spacing" textLength="4" x="370" y="304.5391">:</text><text fill="#000000" font-family="sans-serif" font-size="13" lengthAdjust="spacing" textLength="12" x="12" y="319.8496">&#160;&#160;&#160;</text><a href="full-diagram-simplified-grouped-per-namespace.svg" target="_top" title="full-diagram-simplified-grouped-per-namespace.svg" xlink:actuate="onRequest" xlink:href="full-diagram-simplified-grouped-per-namespace.svg" xlink:show="new" xlink:title="full-diagram-simplified-grouped-per-namespace.svg" xlink:type="simple"><text fill="#0000FF" font-family="sans-serif" font-size="13" lengthAdjust="spacing" text-decoration="underline" textLength="343" x="24" y="319.8496">full-diagram-simplified-grouped-per-namespace.svg</text></a><ellipse cx="17.5" cy="330.4023" fill="#000000" rx="2.5" ry="2.5" style="stroke:#000000;stroke-width:0.0;"/><text fill="#000000" font-family="sans-serif" font-size="13" lengthAdjust="spacing" textLength="41" x="24" y="335.1602">Home:</text><text fill="#000000" font-family="sans-serif" font-size="13" lengthAdjust="spacing" textLength="12" x="12" y="350.4707">&#160;&#160;&#160;</text><a href="index.html" target="_top" title="index.html" xlink:actuate="onRequest" xlink:href="index.html" xlink:show="new" xlink:title="index.html" xlink:type="simple"><text fill="#0000FF" font-family="sans-serif" font-size="13" lengthAdjust="spacing" text-decoration="underline" textLength="68" x="24" y="350.4707">index.html</text></a><line style="stroke:#181818;stroke-width:1.0;" x1="7" x2="215" y1="253.6943" y2="253.6943"/><line style="stroke:#181818;stroke-width:1.0;" x1="7" x2="215" y1="255.6943" y2="255.6943"/><text fill="#000000" font-family="sans-serif" font-size="13" lengthAdjust="spacing" textLength="74" x="215" y="258.1074">Select other</text><line style="stroke:#181818;stroke-width:1.0;" x1="289" x2="497" y1="253.6943" y2="253.6943"/><line style="stroke:#181818;stroke-width:1.0;" x1="289" x2="497" y1="255.6943" y2="255.6943"/></g><!--link Service to Car--><g id="link_Service_Car"><path codeLine="93" d="M594,471.0247 C594,485.3147 594,500.5547 594,500.5547 C594,500.5547 1349.83,500.5547 1349.83,500.5547 C1349.83,500.5547 1349.83,524.0847 1349.83,524.0847 " fill="none" id="Service-to-Car" style="stroke:#6060BB;stroke-width:1.0;stroke-dasharray:7.0,7.0;"/><polygon fill="#6060BB" points="1349.83,529.0847,1353.83,520.0847,1349.83,524.0847,1345.83,520.0847,1349.83,529.0847" style="stroke:#6060BB;stroke-width:1.0;"/><text fill="#000000" font-family="sans-serif" font-size="13" lengthAdjust="spacing" textLength="29" x="938.92" y="497.123">uses</text></g><!--link Service to Car--><g id="link_Service_Car"><path codeLine="94" d="M634.44,454.5547 C678.26,454.5547 742,454.5547 742,454.5547 C742,454.5547 742,524.0947 742,524.0947 " fill="none" id="Service-to-Car-1" style="stroke:#6060BB;stroke-width:1.0;stroke-dasharray:7.0,7.0;"/><polygon fill="#6060BB" points="742,529.0947,746,520.0947,742,524.0947,738,520.0947,742,529.0947" style="stroke:#6060BB;stroke-width:1.0;"/><text fill="#000000" font-family="sans-serif" font-size="13" lengthAdjust="spacing" textLength="29" x="692.99" y="451.123">uses</text></g><!--reverse link Vehicle to Car--><g id="link_Vehicle_Car"><path codeLine="97" d="M1383.33,283.8247 C1383.33,283.8247 1383.33,530.2047 1383.33,530.2047 " fill="none" id="Vehicle-backto-Car" style="stroke:#FF0000;stroke-width:1.0;"/><polygon fill="none" points="1376.33,283.8247,1383.33,263.8247,1390.33,283.8247,1376.33,283.8247" style="stroke:#FF0000;stroke-width:1.0;"/></g><!--reverse link Car to Wheels--><g id="link_Car_Wheels"><path codeLine="98" d="M1320.8,554.5547 C1320.8,554.5547 1292.67,554.5547 1292.67,554.5547 C1292.67,554.5547 1292.67,685.5547 1292.67,685.5547 C1292.67,685.5547 1281.96,685.5547 1269.32,685.5547 " fill="none" id="Car-backto-Wheels" style="stroke:#10BB10;stroke-width:1.0;"/><polygon fill="#10BB10" points="1333.8,554.5547,1327.8,550.5547,1321.8,554.5547,1327.8,558.5547,1333.8,554.5547" style="stroke:#10BB10;stroke-width:1.0;"/></g><!--reverse link Car to Seats--><g id="link_Car_Seats"><path codeLine="99" d="M1405.33,554.5547 C1405.33,554.5547 1555,554.5547 1555,554.5547 C1555,554.5547 1555,617.4047 1555,653.2547 " fill="none" id="Car-backto-Seats" style="stroke:#10BB10;stroke-width:1.0;"/><polygon fill="#10BB10" points="1392.33,554.5547,1398.33,558.5547,1404.33,554.5547,1398.33,550.5547,1392.33,554.5547" style="stroke:#10BB10;stroke-width:1.0;"/></g><!--reverse link Car to Driver--><g id="link_Car_Driver"><path codeLine="100" d="M1384.25,592.8547 C1384.25,592.8547 1384.25,677.5547 1384.25,677.5547 C1384.25,677.5547 1397.54,677.5547 1412.09,677.5547 " fill="none" id="Car-backto-Driver" style="stroke:#10BB10;stroke-width:1.0;"/><polygon fill="#10BB10" points="1384.25,579.8547,1380.25,585.8547,1384.25,591.8547,1388.25,585.8547,1384.25,579.8547" style="stroke:#10BB10;stroke-width:1.0;"/></g><!--reverse link Car to Doors--><g id="link_Car_Doors"><path codeLine="101" d="M1363.33,592.8547 C1363.33,592.8547 1363.33,653.3047 1363.33,653.3047 " fill="none" id="Car-backto-Doors" style="stroke:#10BB10;stroke-width:1.0;"/><polygon fill="#10BB10" points="1363.33,579.8547,1359.33,585.8547,1363.33,591.8547,1367.33,585.8547,1363.33,579.8547" style="stroke:#10BB10;stroke-width:1.0;"/></g><!--link Car to Doors--><g id="link_Car_Doors"><path codeLine="102" d="M1349.17,578.8547 C1349.17,578.8547 1349.17,647.3047 1349.17,647.3047 " fill="none" id="Car-to-Doors" style="stroke:#6060BB;stroke-width:1.0;stroke-dasharray:7.0,7.0;"/><polygon fill="#6060BB" points="1349.17,652.3047,1353.17,643.3047,1349.17,647.3047,1345.17,643.3047,1349.17,652.3047" style="stroke:#6060BB;stroke-width:1.0;"/><text fill="#000000" font-family="sans-serif" font-size="13" lengthAdjust="spacing" textLength="29" x="1319.17" y="609.653">uses</text></g><!--link DBCar to Driver--><g id="link_DBCar_Driver"><path codeLine="103" d="M1446.5,470.8347 C1446.5,470.8347 1446.5,647.2447 1446.5,647.2447 " fill="none" id="DBCar-to-Driver" style="stroke:#6060BB;stroke-width:1.0;stroke-dasharray:7.0,7.0;"/><polygon fill="#6060BB" points="1446.5,652.2447,1450.5,643.2447,1446.5,647.2447,1442.5,643.2447,1446.5,652.2447" style="stroke:#6060BB;stroke-width:1.0;"/><text fill="#000000" font-family="sans-serif" font-size="13" lengthAdjust="spacing" textLength="29" x="1416.5" y="555.613">uses</text></g><!--reverse link Driver to DBCar--><g id="link_Driver_DBCar"><path codeLine="115" d="M1466,639.2747 C1466,639.2747 1466,470.8647 1466,470.8647 " fill="none" id="Driver-backto-DBCar" style="stroke:#10BB10;stroke-width:1.0;"/><polygon fill="#10BB10" points="1466,652.2747,1470,646.2747,1466,640.2747,1462,646.2747,1466,652.2747" style="stroke:#10BB10;stroke-width:1.0;"/></g><!--link DBCar to Car--><g id="link_DBCar_Car"><path codeLine="104" d="M1426.93,462.5547 C1407.29,462.5547 1387.17,462.5547 1387.17,462.5547 C1387.17,462.5547 1387.17,524.3847 1387.17,524.3847 " fill="none" id="DBCar-to-Car" style="stroke:#6060BB;stroke-width:1.0;stroke-dasharray:7.0,7.0;"/><polygon fill="#6060BB" points="1387.17,529.3847,1391.17,520.3847,1387.17,524.3847,1383.17,520.3847,1387.17,529.3847" style="stroke:#6060BB;stroke-width:1.0;"/><text fill="#000000" font-family="sans-serif" font-size="13" lengthAdjust="spacing" textLength="29" x="1357.17" y="470.153">uses</text></g><!--link DBCar to Seats--><g id="link_DBCar_Seats"><path codeLine="105" d="M1490.67,470.7847 C1490.67,531.5447 1490.67,685.5547 1490.67,685.5547 C1490.67,685.5547 1514.57,685.5547 1514.57,685.5547 " fill="none" id="DBCar-to-Seats" style="stroke:#6060BB;stroke-width:1.0;stroke-dasharray:7.0,7.0;"/><polygon fill="#6060BB" points="1519.57,685.5547,1510.57,681.5547,1514.57,685.5547,1510.57,689.5547,1519.57,685.5547" style="stroke:#6060BB;stroke-width:1.0;"/><text fill="#000000" font-family="sans-serif" font-size="13" lengthAdjust="spacing" textLength="29" x="1460.67" y="586.693">uses</text></g><!--reverse link Seats to DBCar--><g id="link_Seats_DBCar"><path codeLine="116" d="M1506.58,669.5547 C1506.58,669.5547 1495.83,669.5547 1495.83,669.5547 C1495.83,669.5547 1495.83,528.6447 1495.83,470.8447 " fill="none" id="Seats-backto-DBCar" style="stroke:#10BB10;stroke-width:1.0;"/><polygon fill="#10BB10" points="1519.58,669.5547,1513.58,665.5547,1507.58,669.5547,1513.58,673.5547,1519.58,669.5547" style="stroke:#10BB10;stroke-width:1.0;"/></g><!--link DBCar to Doors--><g id="link_DBCar_Doors"><path codeLine="106" d="M1426.7,446.5547 C1382.47,446.5547 1314.67,446.5547 1314.67,446.5547 C1314.67,446.5547 1314.67,647.2747 1314.67,647.2747 " fill="none" id="DBCar-to-Doors" style="stroke:#6060BB;stroke-width:1.0;stroke-dasharray:7.0,7.0;"/><polygon fill="#6060BB" points="1314.67,652.2747,1318.67,643.2747,1314.67,647.2747,1310.67,643.2747,1314.67,652.2747" style="stroke:#6060BB;stroke-width:1.0;"/><text fill="#000000" font-family="sans-serif" font-size="13" lengthAdjust="spacing" textLength="29" x="1284.67" y="487.463">uses</text></g><!--reverse link Doors to DBCar--><g id="link_Doors_DBCar"><path codeLine="117" d="M1324.83,639.2647 C1324.83,639.2647 1324.83,454.5547 1324.83,454.5547 C1324.83,454.5547 1385.48,454.5547 1426.71,454.5547 " fill="none" id="Doors-backto-DBCar" style="stroke:#10BB10;stroke-width:1.0;"/><polygon fill="#10BB10" points="1324.83,652.2647,1328.83,646.2647,1324.83,640.2647,1320.83,646.2647,1324.83,652.2647" style="stroke:#10BB10;stroke-width:1.0;"/></g><!--link DBWarehouse to Invoice--><g id="link_DBWarehouse_Invoice"><path codeLine="107" d="M1152,470.7947 C1152,502.6347 1152,554.5547 1152,554.5547 C1152,554.5547 1176.52,554.5547 1176.52,554.5547 " fill="none" id="DBWarehouse-to-Invoice" style="stroke:#6060BB;stroke-width:1.0;stroke-dasharray:7.0,7.0;"/><polygon fill="#6060BB" points="1181.52,554.5547,1172.52,550.5547,1176.52,554.5547,1172.52,558.5547,1181.52,554.5547" style="stroke:#6060BB;stroke-width:1.0;"/><text fill="#000000" font-family="sans-serif" font-size="13" lengthAdjust="spacing" textLength="29" x="1122" y="521.503">uses</text></g><!--link DBWarehouse to Complaints--><g id="link_DBWarehouse_Complaints"><path codeLine="108" d="M1093,470.7947 C1093,470.7947 1093,524.3947 1093,524.3947 " fill="none" id="DBWarehouse-to-Complaints" style="stroke:#6060BB;stroke-width:1.0;stroke-dasharray:7.0,7.0;"/><polygon fill="#6060BB" points="1093,529.3947,1097,520.3947,1093,524.3947,1089,520.3947,1093,529.3947" style="stroke:#6060BB;stroke-width:1.0;"/><text fill="#000000" font-family="sans-serif" font-size="13" lengthAdjust="spacing" textLength="29" x="1063" y="494.163">uses</text></g><!--link DBWarehouse to Customer--><g id="link_DBWarehouse_Customer"><path codeLine="109" d="M1034,470.7947 C1034,502.6347 1034,554.5547 1034,554.5547 C1034,554.5547 1008.91,554.5547 1008.91,554.5547 " fill="none" id="DBWarehouse-to-Customer" style="stroke:#6060BB;stroke-width:1.0;stroke-dasharray:7.0,7.0;"/><polygon fill="#6060BB" points="1003.91,554.5547,1012.91,558.5547,1008.91,554.5547,1012.91,550.5547,1003.91,554.5547" style="stroke:#6060BB;stroke-width:1.0;"/><text fill="#000000" font-family="sans-serif" font-size="13" lengthAdjust="spacing" textLength="29" x="1004" y="538.783">uses</text></g><!--link DBWarehouse to Car--><g id="link_DBWarehouse_Car"><path codeLine="110" d="M1156.35,438.5547 C1236.63,438.5547 1364.67,438.5547 1364.67,438.5547 C1364.67,438.5547 1364.67,524.2347 1364.67,524.2347 " fill="none" id="DBWarehouse-to-Car" style="stroke:#6060BB;stroke-width:1.0;stroke-dasharray:7.0,7.0;"/><polygon fill="#6060BB" points="1364.67,529.2347,1368.67,520.2347,1364.67,524.2347,1360.67,520.2347,1364.67,529.2347" style="stroke:#6060BB;stroke-width:1.0;"/><text fill="#000000" font-family="sans-serif" font-size="13" lengthAdjust="spacing" textLength="29" x="1273.35" y="435.123">uses</text></g><!--link DBWarehouse to User--><g id="link_DBWarehouse_User"><path codeLine="111" d="M1029.72,438.5547 C953.91,438.5547 837,438.5547 837,438.5547 C837,438.5547 837,524.2347 837,524.2347 " fill="none" id="DBWarehouse-to-User" style="stroke:#6060BB;stroke-width:1.0;stroke-dasharray:7.0,7.0;"/><polygon fill="#6060BB" points="837,529.2347,841,520.2347,837,524.2347,833,520.2347,837,529.2347" style="stroke:#6060BB;stroke-width:1.0;"/><text fill="#000000" font-family="sans-serif" font-size="13" lengthAdjust="spacing" textLength="29" x="860.52" y="435.123">uses</text></g><!--reverse link Vehicle to DBCar--><g id="link_Vehicle_DBCar"><path codeLine="112" d="M1443.75,276.8247 C1443.75,276.8247 1443.75,422.1247 1443.75,422.1247 " fill="none" id="Vehicle-backto-DBCar" style="stroke:#10BB10;stroke-width:1.0;"/><polygon fill="#10BB10" points="1443.75,263.8247,1439.75,269.8247,1443.75,275.8247,1447.75,269.8247,1443.75,263.8247" style="stroke:#10BB10;stroke-width:1.0;"/></g><!--reverse link Wheels to DBCar--><g id="link_Wheels_DBCar"><path codeLine="118" d="M1279.68,669.5547 C1279.68,669.5547 1280.83,669.5547 1280.83,669.5547 C1280.83,669.5547 1280.83,430.5547 1280.83,430.5547 C1280.83,430.5547 1373.41,430.5547 1426.93,430.5547 " fill="none" id="Wheels-backto-DBCar" style="stroke:#10BB10;stroke-width:1.0;"/><polygon fill="#10BB10" points="1270.33,669.5547,1276.33,673.5547,1282.33,669.5547,1276.33,665.5547,1270.33,669.5547" style="stroke:#10BB10;stroke-width:1.0;"/></g><!--SRC=[xLbHJzim47xFhpZ1mwH8pTWUze201s1eUvcceGrDj4AckRRM73kotGxO-Eyx9qtIgIbjafPa6XL2QUgxx_lETxxOCJ-uZ9bc4GWkqTx724hRYV8ijmBXoF07F7nxSFB-ZaMnG1ESehMepz7miGJVDvnkyn77qFU1oP1kZRMQnXX2Z1eaYz34R8Y-V_JQ-JhnfB88Uz_LL0FJI3PCt3zmEJxio-OWVTcNnySNN93vyN5V4WmCcOIXuCCVWDnEQ3pzAsmCzANID80Pazw54NqV9Iw8bXiT9Q1qmNLVXbpZq4A8CSeGvP0JtnJs4eNxHJaG1-x3Aa4XMiR5UZaK4m2ulYxrqmiv6zFCzJ9llRcN7ddfvLu2CniF1exDnLG8c1jLYcf6OqGESjJ2V1tk1nLXve9JpEw2YOt4OB07pC25KCnId3zHMdYvSHwv1V4LaU5NYRk_9s9TO3S60c2tncf6ivycKgdVu1BrZ1ER5RZPxrNnz-zH2FKpuV7elJfJ4LKqpU9poOUVL5T0kYrG1KGegGP6a721Cw6Cgo96gHThd74rDJTcUdkJUxaHd0mBhf-KHBZ58PiQT6KuNo8CDq1_8owvcM0OBFWkR1TbU8-bGpB9zFE_ccrhW88l69Dgg_JzoamhXkmIFZXZUZvc0oOBe-jKeFjiL8MbYEwo6aTtsQHI8QcGnhpFJwipJsmwmVsA5gg9SfLULK5ksG4Ttt32XrLpFBDgpd_Z5R-LqbpL7Q2L3b48MT4V2j4h1hpqcF-rnzGYvIu_CsrDzUwIcDLjXKsROG8Ud6i-GrsJ-jowwG9NBD7RqNI9hFPifCPTKtIkbAwjA37kcgAh2QAeBIcrteQcXgtrsOl_gMRRKhjDXAneb2_T-AKRFsytphSDxwNbbcFLobooRwK_Bx6eiNqjzT6HFh3CxQESgQUEpYhwwQnErsy4uzAQvjEPk-gksgcnAi8jfExSKMULVZLRKEcSTE6fflr5j6lFEKkAElB00w_0t-m3EnlhABe2qYYOvKeQmBkai2Z_Hbf51VD36bkQHzxJxrE2w_rt1-yEJay7mKdbGryu19et0xl2AE_LEUeMebCExDKvmJpwtRlUfuLXqAiQHwzgt7r2UaFnV7DG7UolJM8BoEaHGWl0y_EODf2JCuRAm4rASn5uJPK-zMva2nJIgBV4eLtjQQgt6_uc6L2yOThY2fxjHhh4QM7dq2bQsID-UwGQrD1EGfBi1MeHojfqxUKyBSdTFNJaHUirMMYRockmqBK2dIvmhK3Fdw6wcr1BvVC7]--></g></svg>