<?xml version="1.0" encoding="us-ascii" standalone="no"?><svg xmlns="http://www.w3.org/2000/svg" xmlns:xlink="http://www.w3.org/1999/xlink" contentStyleType="text/css" height="721px" preserveAspectRatio="none" style="width:2010px;height:721px;background:#FFFFFF;" version="1.1" viewBox="0 0 2010 721" width="2010px" zoomAndPan="magnify"><defs/><g><text fill="#000000" font-family="sans-serif" font-size="20" font-weight="bold" lengthAdjust="spacing" textLength="643" x="480.5" y="29.3359">Examples.BetterDesign.Repository.CarExample.CarParts.Driver</text><text fill="#000000" font-family="sans-serif" font-size="20" font-weight="bold" lengthAdjust="spacing" textLength="84" x="1130.5" y="29.3359">detailed</text><text fill="#000000" font-family="sans-serif" font-size="20" font-weight="bold" lengthAdjust="spacing" textLength="38" x="1221.5" y="29.3359">and</text><text fill="#000000" font-family="sans-serif" font-size="20" font-weight="bold" lengthAdjust="spacing" textLength="249" x="1266.5" y="29.3359">grouped per namespace</text><!--cluster Examples--><g id="cluster_Examples"><a href="Examples-diagram-detailed-grouped-per-namespace.svg" target="_top" title="Examples-diagram-detailed-grouped-per-namespace.svg" xlink:actuate="onRequest" xlink:href="Examples-diagram-detailed-grouped-per-namespace.svg" xlink:show="new" xlink:title="Examples-diagram-detailed-grouped-per-namespace.svg" xlink:type="simple"><path d="M776.5,50.5547 L845.5,50.5547 A3.75,3.75 0 0 1 848,53.0547 L855,73.043 L2000.5,73.043 A2.5,2.5 0 0 1 2003,75.543 L2003,712.0547 A2.5,2.5 0 0 1 2000.5,714.5547 L776.5,714.5547 A2.5,2.5 0 0 1 774,712.0547 L774,53.0547 A2.5,2.5 0 0 1 776.5,50.5547 " fill="none" style="stroke:#000000;stroke-width:1.5;"/><line style="stroke:#000000;stroke-width:1.5;" x1="774" x2="855" y1="73.043" y2="73.043"/><text fill="#000000" font-family="sans-serif" font-size="14" font-weight="bold" lengthAdjust="spacing" textLength="68" x="778" y="66.0898">Examples</text></a></g><!--cluster BetterDesign--><g id="cluster_BetterDesign"><a href="Examples.BetterDesign-diagram-detailed-grouped-per-namespace.svg" target="_top" title="Examples.BetterDesign-diagram-detailed-grouped-per-namespace.svg" xlink:actuate="onRequest" xlink:href="Examples.BetterDesign-diagram-detailed-grouped-per-namespace.svg" xlink:show="new" xlink:title="Examples.BetterDesign-diagram-detailed-grouped-per-namespace.svg" xlink:type="simple"><path d="M800.5,93.5547 L894.5,93.5547 A3.75,3.75 0 0 1 897,96.0547 L904,116.043 L1976.5,116.043 A2.5,2.5 0 0 1 1979,118.543 L1979,688.0547 A2.5,2.5 0 0 1 1976.5,690.5547 L800.5,690.5547 A2.5,2.5 0 0 1 798,688.0547 L798,96.0547 A2.5,2.5 0 0 1 800.5,93.5547 " fill="none" style="stroke:#000000;stroke-width:1.5;"/><line style="stroke:#000000;stroke-width:1.5;" x1="798" x2="904" y1="116.043" y2="116.043"/><text fill="#000000" font-family="sans-serif" font-size="14" font-weight="bold" lengthAdjust="spacing" textLength="93" x="802" y="109.0898">BetterDesign</text></a></g><!--cluster Repository--><g id="cluster_Repository"><a href="Examples.BetterDesign.Repository-diagram-detailed-grouped-per-namespace.svg" target="_top" title="Examples.BetterDesign.Repository-diagram-detailed-grouped-per-namespace.svg" xlink:actuate="onRequest" xlink:href="Examples.BetterDesign.Repository-diagram-detailed-grouped-per-namespace.svg" xlink:show="new" xlink:title="Examples.BetterDesign.Repository-diagram-detailed-grouped-per-namespace.svg" xlink:type="simple"><path d="M824.5,136.5547 L903.5,136.5547 A3.75,3.75 0 0 1 906,139.0547 L913,159.043 L1952.5,159.043 A2.5,2.5 0 0 1 1955,161.543 L1955,664.0547 A2.5,2.5 0 0 1 1952.5,666.5547 L824.5,666.5547 A2.5,2.5 0 0 1 822,664.0547 L822,139.0547 A2.5,2.5 0 0 1 824.5,136.5547 " fill="none" style="stroke:#000000;stroke-width:1.5;"/><line style="stroke:#000000;stroke-width:1.5;" x1="822" x2="913" y1="159.043" y2="159.043"/><text fill="#000000" font-family="sans-serif" font-size="14" font-weight="bold" lengthAdjust="spacing" textLength="78" x="826" y="152.0898">Repository</text></a></g><!--cluster CarExample--><g id="cluster_CarExample"><a href="Examples.BetterDesign.Repository.CarExample-diagram-detailed-grouped-per-namespace.svg" target="_top" title="Examples.BetterDesign.Repository.CarExample-diagram-detailed-grouped-per-namespace.svg" xlink:actuate="onRequest" xlink:href="Examples.BetterDesign.Repository.CarExample-diagram-detailed-grouped-per-namespace.svg" xlink:show="new" xlink:title="Examples.BetterDesign.Repository.CarExample-diagram-detailed-grouped-per-namespace.svg" xlink:type="simple"><path d="M848.5,179.5547 L933.5,179.5547 A3.75,3.75 0 0 1 936,182.0547 L943,202.043 L1928.5,202.043 A2.5,2.5 0 0 1 1931,204.543 L1931,640.0547 A2.5,2.5 0 0 1 1928.5,642.5547 L848.5,642.5547 A2.5,2.5 0 0 1 846,640.0547 L846,182.0547 A2.5,2.5 0 0 1 848.5,179.5547 " fill="none" style="stroke:#000000;stroke-width:1.5;"/><line style="stroke:#000000;stroke-width:1.5;" x1="846" x2="943" y1="202.043" y2="202.043"/><text fill="#000000" font-family="sans-serif" font-size="14" font-weight="bold" lengthAdjust="spacing" textLength="84" x="850" y="195.0898">CarExample</text></a></g><!--cluster CarParts--><g id="cluster_CarParts"><a href="Examples.BetterDesign.Repository.CarExample.CarParts-diagram-detailed-grouped-per-namespace.svg" target="_top" title="Examples.BetterDesign.Repository.CarExample.CarParts-diagram-detailed-grouped-per-namespace.svg" xlink:actuate="onRequest" xlink:href="Examples.BetterDesign.Repository.CarExample.CarParts-diagram-detailed-grouped-per-namespace.svg" xlink:show="new" xlink:title="Examples.BetterDesign.Repository.CarExample.CarParts-diagram-detailed-grouped-per-namespace.svg" xlink:type="simple"><path d="M1457.5,486.0547 L1519.5,486.0547 A3.75,3.75 0 0 1 1522,488.5547 L1529,508.543 L1904.5,508.543 A2.5,2.5 0 0 1 1907,511.043 L1907,615.5547 A2.5,2.5 0 0 1 1904.5,618.0547 L1457.5,618.0547 A2.5,2.5 0 0 1 1455,615.5547 L1455,488.5547 A2.5,2.5 0 0 1 1457.5,486.0547 " fill="none" style="stroke:#000000;stroke-width:1.5;"/><line style="stroke:#000000;stroke-width:1.5;" x1="1455" x2="1529" y1="508.543" y2="508.543"/><text fill="#000000" font-family="sans-serif" font-size="14" font-weight="bold" lengthAdjust="spacing" textLength="61" x="1459" y="501.5898">CarParts</text></a></g><!--class DBCar--><a href="Examples.BetterDesign.Repository.CarExample.DBCar-diagram-detailed-grouped-per-namespace.svg" target="_top" title="Examples.BetterDesign.Repository.CarExample.DBCar-diagram-detailed-grouped-per-namespace.svg" xlink:actuate="onRequest" xlink:href="Examples.BetterDesign.Repository.CarExample.DBCar-diagram-detailed-grouped-per-namespace.svg" xlink:show="new" xlink:title="Examples.BetterDesign.Repository.CarExample.DBCar-diagram-detailed-grouped-per-namespace.svg" xlink:type="simple"><g id="elem_DBCar"><rect codeLine="8" fill="#F1F1F1" height="196.3945" id="DBCar" rx="2.5" ry="2.5" style="stroke:#181818;stroke-width:0.5;" width="962" x="907" y="214.5547"/><ellipse cx="1362.75" cy="230.5547" fill="#A9DCDF" rx="11" ry="11" style="stroke:#181818;stroke-width:1.0;"/><path d="M1362.6133,225.9028 L1361.4595,230.9746 L1363.7754,230.9746 Z M1361.1191,223.6616 L1364.1157,223.6616 L1367.4609,236.0547 L1365.0122,236.0547 L1364.2485,232.9917 L1360.9697,232.9917 L1360.2227,236.0547 L1357.7739,236.0547 Z " fill="#000000"/><text fill="#000000" font-family="sans-serif" font-size="14" font-style="italic" lengthAdjust="spacing" textLength="42" x="1383.25" y="235.8457">DBCar</text><line style="stroke:#181818;stroke-width:0.5;" x1="908" x2="1868" y1="246.5547" y2="246.5547"/><line style="stroke:#181818;stroke-width:0.5;" x1="908" x2="1868" y1="254.5547" y2="254.5547"/><rect fill="#F24D5C" height="6" style="stroke:#C82930;stroke-width:1.0;" width="6" x="915" y="265.2988"/><text fill="#000000" font-family="sans-serif" font-size="14" lengthAdjust="spacing" textLength="122" x="927" y="272.0898">getCarsForDriver(</text><text fill="#6060BB" font-family="sans-serif" font-size="14" lengthAdjust="spacing" textLength="472" x="1049" y="272.0898">driver:Examples.BetterDesign.Repository.CarExample.CarParts.Driver</text><text fill="#000000" font-family="sans-serif" font-size="14" lengthAdjust="spacing" textLength="5" x="1521" y="272.0898">)</text><rect fill="#F24D5C" height="6" style="stroke:#C82930;stroke-width:1.0;" width="6" x="915" y="281.7871"/><text fill="#000000" font-family="sans-serif" font-size="14" lengthAdjust="spacing" textLength="77" x="927" y="288.5781">updateCar(</text><text fill="#6060BB" font-family="sans-serif" font-size="14" lengthAdjust="spacing" textLength="844" x="1004" y="288.5781">car:Examples.BetterDesign.Repository.CarExample.Car, seats:Examples.BetterDesign.Repository.CarExample.CarParts.Seats</text><text fill="#000000" font-family="sans-serif" font-size="14" lengthAdjust="spacing" textLength="5" x="1848" y="288.5781">)</text><rect fill="#F24D5C" height="6" style="stroke:#C82930;stroke-width:1.0;" width="6" x="915" y="298.2754"/><text fill="#000000" font-family="sans-serif" font-size="14" lengthAdjust="spacing" textLength="77" x="927" y="305.0664">updateCar(</text><text fill="#6060BB" font-family="sans-serif" font-size="14" lengthAdjust="spacing" textLength="854" x="1004" y="305.0664">car:Examples.BetterDesign.Repository.CarExample.Car, doors:Examples.BetterDesign.Repository.CarExample.CarParts.Doors</text><text fill="#000000" font-family="sans-serif" font-size="14" lengthAdjust="spacing" textLength="5" x="1858" y="305.0664">)</text><rect fill="#F24D5C" height="6" style="stroke:#C82930;stroke-width:1.0;" width="6" x="915" y="314.7637"/><text fill="#000000" font-family="sans-serif" font-size="14" lengthAdjust="spacing" textLength="70" x="927" y="321.5547">sellCarTo(</text><text fill="#6060BB" font-family="sans-serif" font-size="14" lengthAdjust="spacing" textLength="854" x="997" y="321.5547">car:Examples.BetterDesign.Repository.CarExample.Car, driver:Examples.BetterDesign.Repository.CarExample.CarParts.Driver</text><text fill="#000000" font-family="sans-serif" font-size="14" lengthAdjust="spacing" textLength="5" x="1851" y="321.5547">)</text><rect fill="#F24D5C" height="6" style="stroke:#C82930;stroke-width:1.0;" width="6" x="915" y="331.252"/><text fill="#000000" font-family="sans-serif" font-size="14" lengthAdjust="spacing" textLength="51" x="927" y="338.043">getCar(</text><text fill="#6060BB" font-family="sans-serif" font-size="14" lengthAdjust="spacing" textLength="441" x="978" y="338.043">d:Examples.BetterDesign.Repository.CarExample.CarParts.Driver</text><text fill="#000000" font-family="sans-serif" font-size="14" lengthAdjust="spacing" textLength="5" x="1419" y="338.043">)</text><rect fill="#F24D5C" height="6" style="stroke:#C82930;stroke-width:1.0;" width="6" x="915" y="347.7402"/><text fill="#000000" font-family="sans-serif" font-size="14" lengthAdjust="spacing" textLength="68" x="927" y="354.5313">getDriver(</text><text fill="#6060BB" font-family="sans-serif" font-size="14" lengthAdjust="spacing" textLength="360" x="995" y="354.5313">c:Examples.BetterDesign.Repository.CarExample.Car</text><text fill="#000000" font-family="sans-serif" font-size="14" lengthAdjust="spacing" textLength="5" x="1355" y="354.5313">)</text><rect fill="#F24D5C" height="6" style="stroke:#C82930;stroke-width:1.0;" width="6" x="915" y="364.2285"/><text fill="#000000" font-family="sans-serif" font-size="14" lengthAdjust="spacing" textLength="75" x="927" y="371.0195">getWheels(</text><text fill="#6060BB" font-family="sans-serif" font-size="14" lengthAdjust="spacing" textLength="360" x="1002" y="371.0195">c:Examples.BetterDesign.Repository.CarExample.Car</text><text fill="#000000" font-family="sans-serif" font-size="14" lengthAdjust="spacing" textLength="5" x="1362" y="371.0195">)</text><rect fill="#F24D5C" height="6" style="stroke:#C82930;stroke-width:1.0;" width="6" x="915" y="380.7168"/><text fill="#000000" font-family="sans-serif" font-size="14" lengthAdjust="spacing" textLength="68" x="927" y="387.5078">getDoors(</text><text fill="#6060BB" font-family="sans-serif" font-size="14" lengthAdjust="spacing" textLength="360" x="995" y="387.5078">c:Examples.BetterDesign.Repository.CarExample.Car</text><text fill="#000000" font-family="sans-serif" font-size="14" lengthAdjust="spacing" textLength="5" x="1355" y="387.5078">)</text><rect fill="#F24D5C" height="6" style="stroke:#C82930;stroke-width:1.0;" width="6" x="915" y="397.2051"/><text fill="#000000" font-family="sans-serif" font-size="14" lengthAdjust="spacing" textLength="63" x="927" y="403.9961">getSeats(</text><text fill="#6060BB" font-family="sans-serif" font-size="14" lengthAdjust="spacing" textLength="360" x="990" y="403.9961">c:Examples.BetterDesign.Repository.CarExample.Car</text><text fill="#000000" font-family="sans-serif" font-size="14" lengthAdjust="spacing" textLength="5" x="1350" y="403.9961">)</text></g></a><!--class Car--><a href="Examples.BetterDesign.Repository.CarExample.Car-diagram-detailed-grouped-per-namespace.svg" target="_top" title="Examples.BetterDesign.Repository.CarExample.Car-diagram-detailed-grouped-per-namespace.svg" xlink:actuate="onRequest" xlink:href="Examples.BetterDesign.Repository.CarExample.Car-diagram-detailed-grouped-per-namespace.svg" xlink:show="new" xlink:title="Examples.BetterDesign.Repository.CarExample.Car-diagram-detailed-grouped-per-namespace.svg" xlink:type="simple"><g id="elem_Car"><rect codeLine="19" fill="#F1F1F1" height="130.4414" id="Car" rx="2.5" ry="2.5" style="stroke:#181818;stroke-width:0.5;" width="574" x="862" y="496.5547"/><ellipse cx="1132.75" cy="512.5547" fill="#A9DCDF" rx="11" ry="11" style="stroke:#181818;stroke-width:1.0;"/><path d="M1132.6133,507.9028 L1131.4595,512.9746 L1133.7754,512.9746 Z M1131.1191,505.6616 L1134.1157,505.6616 L1137.4609,518.0547 L1135.0122,518.0547 L1134.2485,514.9917 L1130.9697,514.9917 L1130.2227,518.0547 L1127.7739,518.0547 Z " fill="#000000"/><text fill="#000000" font-family="sans-serif" font-size="14" font-style="italic" lengthAdjust="spacing" textLength="24" x="1153.25" y="517.8457">Car</text><line style="stroke:#181818;stroke-width:0.5;" x1="863" x2="1435" y1="528.5547" y2="528.5547"/><ellipse cx="873" cy="542.2988" fill="none" rx="3" ry="3" style="stroke:#038048;stroke-width:1.0;"/><text fill="#000000" font-family="sans-serif" font-size="14" lengthAdjust="spacing" textLength="490" x="882" y="546.0898">wheels: Examples.BetterDesign.Repository.CarExample.CarParts.Wheels</text><ellipse cx="873" cy="558.7871" fill="none" rx="3" ry="3" style="stroke:#038048;stroke-width:1.0;"/><text fill="#000000" font-family="sans-serif" font-size="14" lengthAdjust="spacing" textLength="466" x="882" y="562.5781">seats: Examples.BetterDesign.Repository.CarExample.CarParts.Seats</text><ellipse cx="873" cy="575.2754" fill="none" rx="3" ry="3" style="stroke:#038048;stroke-width:1.0;"/><text fill="#000000" font-family="sans-serif" font-size="14" lengthAdjust="spacing" textLength="476" x="882" y="579.0664">driver: Examples.BetterDesign.Repository.CarExample.CarParts.Driver</text><ellipse cx="873" cy="591.7637" fill="none" rx="3" ry="3" style="stroke:#038048;stroke-width:1.0;"/><text fill="#000000" font-family="sans-serif" font-size="14" lengthAdjust="spacing" textLength="476" x="882" y="595.5547">doors: Examples.BetterDesign.Repository.CarExample.CarParts.Doors</text><line style="stroke:#181818;stroke-width:1.0;" x1="863" x2="1435" y1="602.5078" y2="602.5078"/><line style="stroke:#181818;stroke-width:1.0;" x1="863" x2="1435" y1="604.5078" y2="604.5078"/><rect fill="#F24D5C" height="6" style="stroke:#C82930;stroke-width:1.0;" width="6" x="870" y="613.252"/><text fill="#000000" font-family="sans-serif" font-size="14" lengthAdjust="spacing" textLength="71" x="882" y="620.043">createCar(</text><text fill="#6060BB" font-family="sans-serif" font-size="14" lengthAdjust="spacing" textLength="472" x="953" y="620.043">doors:Examples.BetterDesign.Repository.CarExample.CarParts.Doors</text><text fill="#000000" font-family="sans-serif" font-size="14" lengthAdjust="spacing" textLength="5" x="1425" y="620.043">)</text></g></a><!--class Driver--><a href="Examples.BetterDesign.Repository.CarExample.CarParts.Driver-diagram-detailed-grouped-per-namespace.svg" target="_top" title="Examples.BetterDesign.Repository.CarExample.CarParts.Driver-diagram-detailed-grouped-per-namespace.svg" xlink:actuate="onRequest" xlink:href="Examples.BetterDesign.Repository.CarExample.CarParts.Driver-diagram-detailed-grouped-per-namespace.svg" xlink:show="new" xlink:title="Examples.BetterDesign.Repository.CarExample.CarParts.Driver-diagram-detailed-grouped-per-namespace.svg" xlink:type="simple"><g id="elem_Driver"><rect codeLine="42" fill="#FFFF00" height="80.9766" id="Driver" rx="2.5" ry="2.5" style="stroke:#181818;stroke-width:0.5;" width="419" x="1471.5" y="521.0547"/><ellipse cx="1656.25" cy="537.0547" fill="#A9DCDF" rx="11" ry="11" style="stroke:#181818;stroke-width:1.0;"/><path d="M1656.1133,532.4028 L1654.9595,537.4746 L1657.2754,537.4746 Z M1654.6191,530.1616 L1657.6157,530.1616 L1660.9609,542.5547 L1658.5122,542.5547 L1657.7485,539.4917 L1654.4697,539.4917 L1653.7227,542.5547 L1651.2739,542.5547 Z " fill="#000000"/><text fill="#000000" font-family="sans-serif" font-size="14" font-style="italic" lengthAdjust="spacing" textLength="41" x="1676.75" y="542.3457">Driver</text><line style="stroke:#181818;stroke-width:0.5;" x1="1472.5" x2="1889.5" y1="553.0547" y2="553.0547"/><ellipse cx="1482.5" cy="566.7988" fill="none" rx="3" ry="3" style="stroke:#038048;stroke-width:1.0;"/><text fill="#000000" font-family="sans-serif" font-size="14" lengthAdjust="spacing" textLength="393" x="1491.5" y="570.5898">db: Examples.BetterDesign.Repository.CarExample.DBCar</text><line style="stroke:#181818;stroke-width:1.0;" x1="1472.5" x2="1889.5" y1="577.543" y2="577.543"/><line style="stroke:#181818;stroke-width:1.0;" x1="1472.5" x2="1889.5" y1="579.543" y2="579.543"/><rect fill="#F24D5C" height="6" style="stroke:#C82930;stroke-width:1.0;" width="6" x="1479.5" y="588.2871"/><text fill="#000000" font-family="sans-serif" font-size="14" lengthAdjust="spacing" textLength="74" x="1491.5" y="595.0781">getWeight(</text><text fill="#000000" font-family="sans-serif" font-size="14" lengthAdjust="spacing" textLength="5" x="1565.5" y="595.0781">)</text></g></a><g id="elem_FloatingNote"><path d="M6,188.5547 L6,436.2129 L758,436.2129 L758,198.5547 L748,188.5547 L6,188.5547 " fill="#FEFFDD" style="stroke:#181818;stroke-width:0.5;"/><path d="M748,188.5547 L748,198.5547 L758,198.5547 L748,188.5547 " fill="#FEFFDD" style="stroke:#181818;stroke-width:1.0;"/><text fill="#000000" font-family="sans-serif" font-size="13" lengthAdjust="spacing" textLength="120" x="12" y="206.123">Your are analyzing:</text><text fill="#000000" font-family="sans-serif" font-size="13" lengthAdjust="spacing" textLength="391" x="12" y="221.4336">Examples.BetterDesign.Repository.CarExample.CarParts.Driver</text><text fill="#000000" font-family="sans-serif" font-size="13" font-weight="bold" lengthAdjust="spacing" textLength="55" x="407" y="221.4336">detailed</text><text fill="#000000" font-family="sans-serif" font-size="13" lengthAdjust="spacing" textLength="23" x="466" y="221.4336">and</text><text fill="#000000" font-family="sans-serif" font-size="13" font-weight="bold" lengthAdjust="spacing" textLength="166" x="493" y="221.4336">grouped per namespace</text><text fill="#000000" font-family="sans-serif" font-size="13" lengthAdjust="spacing" textLength="4" x="12" y="236.7441">&#160;</text><text fill="#000000" font-family="sans-serif" font-size="13" lengthAdjust="spacing" textLength="229" x="12" y="267.3652">You can click either the namespaces</text><text fill="#000000" font-family="sans-serif" font-size="13" lengthAdjust="spacing" textLength="266" x="12" y="282.6758">or class names for filtering them and their</text><text fill="#000000" font-family="sans-serif" font-size="13" lengthAdjust="spacing" textLength="130" x="12" y="297.9863">direct dependencies.</text><text fill="#000000" font-family="sans-serif" font-size="13" lengthAdjust="spacing" textLength="4" x="12" y="313.2969">&#160;</text><line style="stroke:#181818;stroke-width:1.0;" x1="7" x2="366" y1="247.1416" y2="247.1416"/><line style="stroke:#181818;stroke-width:1.0;" x1="7" x2="366" y1="249.1416" y2="249.1416"/><text fill="#000000" font-family="sans-serif" font-size="13" lengthAdjust="spacing" textLength="32" x="366" y="251.5547">Filter</text><line style="stroke:#181818;stroke-width:1.0;" x1="398" x2="757" y1="247.1416" y2="247.1416"/><line style="stroke:#181818;stroke-width:1.0;" x1="398" x2="757" y1="249.1416" y2="249.1416"/><ellipse cx="17.5" cy="343.1602" fill="#000000" rx="2.5" ry="2.5" style="stroke:#000000;stroke-width:0.0;"/><text fill="#000000" font-family="sans-serif" font-size="13" lengthAdjust="spacing" textLength="391" x="24" y="347.918">Examples.BetterDesign.Repository.CarExample.CarParts.Driver</text><text fill="#000000" font-family="sans-serif" font-size="13" font-weight="bold" lengthAdjust="spacing" textLength="67" x="419" y="347.918">simplified</text><text fill="#000000" font-family="sans-serif" font-size="13" lengthAdjust="spacing" textLength="23" x="490" y="347.918">and</text><text fill="#000000" font-family="sans-serif" font-size="13" font-weight="bold" lengthAdjust="spacing" textLength="166" x="517" y="347.918">grouped per namespace</text><text fill="#000000" font-family="sans-serif" font-size="13" lengthAdjust="spacing" textLength="4" x="683" y="347.918">:</text><text fill="#000000" font-family="sans-serif" font-size="13" lengthAdjust="spacing" textLength="12" x="12" y="363.2285">&#160;&#160;&#160;</text><a href="Examples.BetterDesign.Repository.CarExample.CarParts.Driver-diagram-simplified-grouped-per-namespace.svg" target="_top" title="Examples.BetterDesign.Repository.CarExample.CarParts.Driver-diagram-simplified-grouped-per-namespace.svg" xlink:actuate="onRequest" xlink:href="Examples.BetterDesign.Repository.CarExample.CarParts.Driver-diagram-simplified-grouped-per-namespace.svg" xlink:show="new" xlink:title="Examples.BetterDesign.Repository.CarExample.CarParts.Driver-diagram-simplified-grouped-per-namespace.svg" xlink:type="simple"><text fill="#0000FF" font-family="sans-serif" font-size="13" lengthAdjust="spacing" text-decoration="underline" textLength="713" x="24" y="363.2285">Examples.BetterDesign.Repository.CarExample.CarParts.Driver-diagram-simplified-grouped-per-namespace.svg</text></a><ellipse cx="17.5" cy="373.7813" fill="#000000" rx="2.5" ry="2.5" style="stroke:#000000;stroke-width:0.0;"/><text fill="#000000" font-family="sans-serif" font-size="13" lengthAdjust="spacing" textLength="78" x="24" y="378.5391">Full diagram</text><text fill="#000000" font-family="sans-serif" font-size="13" font-weight="bold" lengthAdjust="spacing" textLength="55" x="106" y="378.5391">detailed</text><text fill="#000000" font-family="sans-serif" font-size="13" lengthAdjust="spacing" textLength="23" x="165" y="378.5391">and</text><text fill="#000000" font-family="sans-serif" font-size="13" font-weight="bold" lengthAdjust="spacing" textLength="166" x="192" y="378.5391">grouped per namespace</text><text fill="#000000" font-family="sans-serif" font-size="13" lengthAdjust="spacing" textLength="4" x="358" y="378.5391">:</text><text fill="#000000" font-family="sans-serif" font-size="13" lengthAdjust="spacing" textLength="12" x="12" y="393.8496">&#160;&#160;&#160;</text><a href="full-diagram-detailed-grouped-per-namespace.svg" target="_top" title="full-diagram-detailed-grouped-per-namespace.svg" xlink:actuate="onRequest" xlink:href="full-diagram-detailed-grouped-per-namespace.svg" xlink:show="new" xlink:title="full-diagram-detailed-grouped-per-namespace.svg" xlink:type="simple"><text fill="#0000FF" font-family="sans-serif" font-size="13" lengthAdjust="spacing" text-decoration="underline" textLength="330" x="24" y="393.8496">full-diagram-detailed-grouped-per-namespace.svg</text></a><ellipse cx="17.5" cy="404.4023" fill="#000000" rx="2.5" ry="2.5" style="stroke:#000000;stroke-width:0.0;"/><text fill="#000000" font-family="sans-serif" font-size="13" lengthAdjust="spacing" textLength="41" x="24" y="409.1602">Home:</text><text fill="#000000" font-family="sans-serif" font-size="13" lengthAdjust="spacing" textLength="12" x="12" y="424.4707">&#160;&#160;&#160;</text><a href="index.html" target="_top" title="index.html" xlink:actuate="onRequest" xlink:href="index.html" xlink:show="new" xlink:title="index.html" xlink:type="simple"><text fill="#0000FF" font-family="sans-serif" font-size="13" lengthAdjust="spacing" text-decoration="underline" textLength="68" x="24" y="424.4707">index.html</text></a><line style="stroke:#181818;stroke-width:1.0;" x1="7" x2="345" y1="327.6943" y2="327.6943"/><line style="stroke:#181818;stroke-width:1.0;" x1="7" x2="345" y1="329.6943" y2="329.6943"/><text fill="#000000" font-family="sans-serif" font-size="13" lengthAdjust="spacing" textLength="74" x="345" y="332.1074">Select other</text><line style="stroke:#181818;stroke-width:1.0;" x1="419" x2="757" y1="327.6943" y2="327.6943"/><line style="stroke:#181818;stroke-width:1.0;" x1="419" x2="757" y1="329.6943" y2="329.6943"/></g><!--link DBCar to Driver--><g id="link_DBCar_Driver"><path codeLine="64" d="M1604,410.9647 C1604,410.9647 1604,514.5847 1604,514.5847 " fill="none" id="DBCar-to-Driver" style="stroke:#6060BB;stroke-width:1.0;stroke-dasharray:7.0,7.0;"/><polygon fill="#6060BB" points="1604,519.5847,1608,510.5847,1604,514.5847,1600,510.5847,1604,519.5847" style="stroke:#6060BB;stroke-width:1.0;"/><text fill="#000000" font-family="sans-serif" font-size="13" lengthAdjust="spacing" textLength="29" x="1574" y="459.343">uses</text></g><!--reverse link Driver to DBCar--><g id="link_Driver_DBCar"><path codeLine="69" d="M1736.5,506.7147 C1736.5,506.7147 1736.5,410.9447 1736.5,410.9447 " fill="none" id="Driver-backto-DBCar" style="stroke:#10BB10;stroke-width:1.0;"/><polygon fill="#10BB10" points="1736.5,519.7147,1740.5,513.7147,1736.5,507.7147,1732.5,513.7147,1736.5,519.7147" style="stroke:#10BB10;stroke-width:1.0;"/></g><!--link DBCar to Car--><g id="link_DBCar_Car"><path codeLine="65" d="M1171.5,410.9647 C1171.5,410.9647 1171.5,490.3547 1171.5,490.3547 " fill="none" id="DBCar-to-Car" style="stroke:#6060BB;stroke-width:1.0;stroke-dasharray:7.0,7.0;"/><polygon fill="#6060BB" points="1171.5,495.3547,1175.5,486.3547,1171.5,490.3547,1167.5,486.3547,1171.5,495.3547" style="stroke:#6060BB;stroke-width:1.0;"/><text fill="#000000" font-family="sans-serif" font-size="13" lengthAdjust="spacing" textLength="29" x="1141.5" y="447.223">uses</text></g><!--reverse link Car to Driver--><g id="link_Car_Driver"><path codeLine="66" d="M1450.41,561.5547 C1450.41,561.5547 1471.08,561.5547 1471.08,561.5547 " fill="none" id="Car-backto-Driver" style="stroke:#10BB10;stroke-width:1.0;"/><polygon fill="#10BB10" points="1437.41,561.5547,1443.41,565.5547,1449.41,561.5547,1443.41,557.5547,1437.41,561.5547" style="stroke:#10BB10;stroke-width:1.0;"/></g><!--SRC=[xLXHRzem47xdLvpeGxTiITaU-e201yhGdgffdJHDW2gJNC2gOqUsQKkd_lTT4WYf1csJ0Dka8OG0tzttdU_ySSRSS1appI8GNA9TnWXAsxbgM6u5GiVm1sn_RFK-tRCe5cYyFbgBUe26pwJt5MDbk5LwwLqmlR99tdvXsXfleFajQd2S02tZ0WF70IO3-cAcrIB6069QbYn24pCV7QTpbk3r6b9PXEOFjT30D98F4yi7BcVjiJmEaR4Sosvto0L1TBjZILJ0Pn9ymVqRG6xdP4yl6ny3Owaq6J1ZicyXfCzX6eAe9zPH2aflk1xBW6lqBGGOemnG-fnooc2lK2GhAW59m1sebxJXjC13_dBQjBy0C1hLm7C3pcRKJ-u6rLsXkOJcvcYUkPrD9absmuKGi78hKQCrsP3SSzIryqkOdrM4wm2Szl_Uczj8J2PDO0Q6GZ5BDRkaDcpapdaL2XjK2XT-RWdsP8jtRVsUOGgLV4Mn3mTUQADoJLUM4gGFDZLMCpfPsI4jq-I3FdqeUJ1Idt9CSwe0BipGKW0pL3exMMyweP94NWcbkytprdchts_sWdIjNUF4TiwIkBst1UX5732BPBSTqsUb0T-3GMPDDPvNYUkHQ0PAwOeq1udh5fe6XI2ZRsgVD0zHzgpZTlJP_h6UQsk_BDnsYEzpH64E2f5M_Q08QViV1k6nlZIM5yOwilWExjAIjglDH5a_5A9bgWJLPQaGQtKcwqnhnMYf445r9MfqkuK-yZK-fvLxbht7nkc5YkXYGMFRtpSFm1qDy42TRe56xGXfErG8ENEu40H18pkZkJJMUClLmboRnVGwZtGjE3blChjK4c6AFbiOJ6R-rPt5S0Fq3BdaPew1LuYzyTsaqNZSQh19UOT1SODscAmtavR_3xJ__a1RYL9-P2lUyAfDtNL_N9vSPlTpDNqL_vCbZMtghf17gihJTlcBGr69ruC9yjdSRjVYtwQ0scfwvCe_fwz_I67JD7Peux4564x1UTq33cQRK4mEeqR1B5VI0DwdXvHQBDGgsZ1lass9dccKlrPxevEizITUhvOwG1keEmmScKCrtCJHSKSd7mZqGslYrihySFNCeHgr_eIiccXMdLy0]--></g></svg>