<?xml version="1.0" encoding="us-ascii" standalone="no"?><svg xmlns="http://www.w3.org/2000/svg" xmlns:xlink="http://www.w3.org/1999/xlink" contentStyleType="text/css" height="688px" preserveAspectRatio="none" style="width:2137px;height:688px;background:#FFFFFF;" version="1.1" viewBox="0 0 2137 688" width="2137px" zoomAndPan="magnify"><defs/><g><text fill="#000000" font-family="sans-serif" font-size="20" font-weight="bold" lengthAdjust="spacing" textLength="781" x="622" y="29.3359">Examples.BetterDesign.Repository.CarExample.WarehouseEntities.Customer</text><text fill="#000000" font-family="sans-serif" font-size="20" font-weight="bold" lengthAdjust="spacing" textLength="84" x="1410" y="29.3359">detailed</text><text fill="#000000" font-family="sans-serif" font-size="20" font-weight="bold" lengthAdjust="spacing" textLength="7" x="1494" y="29.3359">&#160;</text><!--cluster Examples--><g id="cluster_Examples"><path d="M696.5,50.5547 L765.5,50.5547 A3.75,3.75 0 0 1 768,53.0547 L775,73.043 L2127.5,73.043 A2.5,2.5 0 0 1 2130,75.543 L2130,679.0547 A2.5,2.5 0 0 1 2127.5,681.5547 L696.5,681.5547 A2.5,2.5 0 0 1 694,679.0547 L694,53.0547 A2.5,2.5 0 0 1 696.5,50.5547 " fill="none" style="stroke:#000000;stroke-width:1.5;"/><line style="stroke:#000000;stroke-width:1.5;" x1="694" x2="775" y1="73.043" y2="73.043"/><text fill="#000000" font-family="sans-serif" font-size="14" font-weight="bold" lengthAdjust="spacing" textLength="68" x="698" y="66.0898">Examples</text></g><!--cluster BetterDesign--><g id="cluster_BetterDesign"><path d="M720.5,93.5547 L814.5,93.5547 A3.75,3.75 0 0 1 817,96.0547 L824,116.043 L2103.5,116.043 A2.5,2.5 0 0 1 2106,118.543 L2106,655.0547 A2.5,2.5 0 0 1 2103.5,657.5547 L720.5,657.5547 A2.5,2.5 0 0 1 718,655.0547 L718,96.0547 A2.5,2.5 0 0 1 720.5,93.5547 " fill="none" style="stroke:#000000;stroke-width:1.5;"/><line style="stroke:#000000;stroke-width:1.5;" x1="718" x2="824" y1="116.043" y2="116.043"/><text fill="#000000" font-family="sans-serif" font-size="14" font-weight="bold" lengthAdjust="spacing" textLength="93" x="722" y="109.0898">BetterDesign</text></g><!--cluster Repository--><g id="cluster_Repository"><path d="M744.5,136.5547 L823.5,136.5547 A3.75,3.75 0 0 1 826,139.0547 L833,159.043 L2079.5,159.043 A2.5,2.5 0 0 1 2082,161.543 L2082,631.0547 A2.5,2.5 0 0 1 2079.5,633.5547 L744.5,633.5547 A2.5,2.5 0 0 1 742,631.0547 L742,139.0547 A2.5,2.5 0 0 1 744.5,136.5547 " fill="none" style="stroke:#000000;stroke-width:1.5;"/><line style="stroke:#000000;stroke-width:1.5;" x1="742" x2="833" y1="159.043" y2="159.043"/><text fill="#000000" font-family="sans-serif" font-size="14" font-weight="bold" lengthAdjust="spacing" textLength="78" x="746" y="152.0898">Repository</text></g><!--cluster CarExample--><g id="cluster_CarExample"><path d="M768.5,179.5547 L853.5,179.5547 A3.75,3.75 0 0 1 856,182.0547 L863,202.043 L2055.5,202.043 A2.5,2.5 0 0 1 2058,204.543 L2058,607.0547 A2.5,2.5 0 0 1 2055.5,609.5547 L768.5,609.5547 A2.5,2.5 0 0 1 766,607.0547 L766,182.0547 A2.5,2.5 0 0 1 768.5,179.5547 " fill="none" style="stroke:#000000;stroke-width:1.5;"/><line style="stroke:#000000;stroke-width:1.5;" x1="766" x2="863" y1="202.043" y2="202.043"/><text fill="#000000" font-family="sans-serif" font-size="14" font-weight="bold" lengthAdjust="spacing" textLength="84" x="770" y="195.0898">CarExample</text></g><!--cluster WarehouseEntities--><g id="cluster_WarehouseEntities"><path d="M1340.5,486.5547 L1474.5,486.5547 A3.75,3.75 0 0 1 1477,489.0547 L1484,509.043 L1484.5,509.043 A2.5,2.5 0 0 1 1487,511.543 L1487,583.0547 A2.5,2.5 0 0 1 1484.5,585.5547 L1340.5,585.5547 A2.5,2.5 0 0 1 1338,583.0547 L1338,489.0547 A2.5,2.5 0 0 1 1340.5,486.5547 " fill="none" style="stroke:#000000;stroke-width:1.5;"/><line style="stroke:#000000;stroke-width:1.5;" x1="1338" x2="1484" y1="509.043" y2="509.043"/><text fill="#000000" font-family="sans-serif" font-size="14" font-weight="bold" lengthAdjust="spacing" textLength="133" x="1342" y="502.0898">WarehouseEntities</text></g><!--class DBWarehouse--><a href="Examples.BetterDesign.Repository.CarExample.DBWarehouse-diagram-detailed.svg" target="_top" title="Examples.BetterDesign.Repository.CarExample.DBWarehouse-diagram-detailed.svg" xlink:actuate="onRequest" xlink:href="Examples.BetterDesign.Repository.CarExample.DBWarehouse-diagram-detailed.svg" xlink:show="new" xlink:title="Examples.BetterDesign.Repository.CarExample.DBWarehouse-diagram-detailed.svg" xlink:type="simple"><g id="elem_DBWarehouse"><rect codeLine="4" fill="#F1F1F1" height="245.8594" id="DBWarehouse" rx="2.5" ry="2.5" style="stroke:#181818;stroke-width:0.5;" width="1260" x="782" y="214.5547"/><ellipse cx="1360.75" cy="230.5547" fill="#A9DCDF" rx="11" ry="11" style="stroke:#181818;stroke-width:1.0;"/><path d="M1360.6133,225.9028 L1359.4595,230.9746 L1361.7754,230.9746 Z M1359.1191,223.6616 L1362.1157,223.6616 L1365.4609,236.0547 L1363.0122,236.0547 L1362.2485,232.9917 L1358.9697,232.9917 L1358.2227,236.0547 L1355.7739,236.0547 Z " fill="#000000"/><text fill="#000000" font-family="sans-serif" font-size="14" font-style="italic" lengthAdjust="spacing" textLength="94" x="1381.25" y="235.8457">DBWarehouse</text><line style="stroke:#181818;stroke-width:0.5;" x1="783" x2="2041" y1="246.5547" y2="246.5547"/><line style="stroke:#181818;stroke-width:0.5;" x1="783" x2="2041" y1="254.5547" y2="254.5547"/><rect fill="#F24D5C" height="6" style="stroke:#C82930;stroke-width:1.0;" width="6" x="790" y="265.2988"/><text fill="#000000" font-family="sans-serif" font-size="14" lengthAdjust="spacing" textLength="94" x="802" y="272.0898">getCustomer(</text><text fill="#6060BB" font-family="sans-serif" font-size="14" lengthAdjust="spacing" textLength="511" x="896" y="272.0898">i:Examples.BetterDesign.Repository.CarExample.WarehouseEntities.Invoice</text><text fill="#000000" font-family="sans-serif" font-size="14" lengthAdjust="spacing" textLength="9" x="1407" y="272.0898">):</text><text fill="#BB6060" font-family="sans-serif" font-size="14" lengthAdjust="spacing" textLength="522" x="1420" y="272.0898">Examples.BetterDesign.Repository.CarExample.WarehouseEntities.Customer</text><rect fill="#F24D5C" height="6" style="stroke:#C82930;stroke-width:1.0;" width="6" x="790" y="281.7871"/><text fill="#000000" font-family="sans-serif" font-size="14" lengthAdjust="spacing" textLength="51" x="802" y="288.5781">getCar(</text><text fill="#6060BB" font-family="sans-serif" font-size="14" lengthAdjust="spacing" textLength="544" x="853" y="288.5781">c:Examples.BetterDesign.Repository.CarExample.WarehouseEntities.Complaints</text><text fill="#000000" font-family="sans-serif" font-size="14" lengthAdjust="spacing" textLength="9" x="1397" y="288.5781">):</text><text fill="#BB6060" font-family="sans-serif" font-size="14" lengthAdjust="spacing" textLength="349" x="1410" y="288.5781">Examples.BetterDesign.Repository.CarExample.Car</text><rect fill="#F24D5C" height="6" style="stroke:#C82930;stroke-width:1.0;" width="6" x="790" y="298.2754"/><text fill="#000000" font-family="sans-serif" font-size="14" lengthAdjust="spacing" textLength="75" x="802" y="305.0664">getInvoice(</text><text fill="#6060BB" font-family="sans-serif" font-size="14" lengthAdjust="spacing" textLength="533" x="877" y="305.0664">c:Examples.BetterDesign.Repository.CarExample.WarehouseEntities.Customer</text><text fill="#000000" font-family="sans-serif" font-size="14" lengthAdjust="spacing" textLength="9" x="1410" y="305.0664">):</text><text fill="#BB6060" font-family="sans-serif" font-size="14" lengthAdjust="spacing" textLength="503" x="1423" y="305.0664">Examples.BetterDesign.Repository.CarExample.WarehouseEntities.Invoice</text><rect fill="#F24D5C" height="6" style="stroke:#C82930;stroke-width:1.0;" width="6" x="790" y="314.7637"/><text fill="#000000" font-family="sans-serif" font-size="14" lengthAdjust="spacing" textLength="105" x="802" y="321.5547">getComplaints(</text><text fill="#6060BB" font-family="sans-serif" font-size="14" lengthAdjust="spacing" textLength="533" x="907" y="321.5547">c:Examples.BetterDesign.Repository.CarExample.WarehouseEntities.Customer</text><text fill="#000000" font-family="sans-serif" font-size="14" lengthAdjust="spacing" textLength="9" x="1440" y="321.5547">):</text><text fill="#BB6060" font-family="sans-serif" font-size="14" lengthAdjust="spacing" textLength="533" x="1453" y="321.5547">Examples.BetterDesign.Repository.CarExample.WarehouseEntities.Complaints</text><rect fill="#F24D5C" height="6" style="stroke:#C82930;stroke-width:1.0;" width="6" x="790" y="331.252"/><text fill="#000000" font-family="sans-serif" font-size="14" lengthAdjust="spacing" textLength="58" x="802" y="338.043">getUser(</text><text fill="#6060BB" font-family="sans-serif" font-size="14" lengthAdjust="spacing" textLength="374" x="860" y="338.043">car:Examples.BetterDesign.Repository.CarExample.Car</text><text fill="#000000" font-family="sans-serif" font-size="14" lengthAdjust="spacing" textLength="9" x="1234" y="338.043">):</text><text fill="#BB6060" font-family="sans-serif" font-size="14" lengthAdjust="spacing" textLength="486" x="1247" y="338.043">Examples.BetterDesign.Repository.CarExample.WarehouseEntities.User</text><rect fill="#F24D5C" height="6" style="stroke:#C82930;stroke-width:1.0;" width="6" x="790" y="347.7402"/><text fill="#000000" font-family="sans-serif" font-size="14" lengthAdjust="spacing" textLength="94" x="802" y="354.5313">getCustomer(</text><text fill="#6060BB" font-family="sans-serif" font-size="14" lengthAdjust="spacing" textLength="605" x="896" y="354.5313">complaint:Examples.BetterDesign.Repository.CarExample.WarehouseEntities.Complaints</text><text fill="#000000" font-family="sans-serif" font-size="14" lengthAdjust="spacing" textLength="9" x="1501" y="354.5313">):</text><text fill="#BB6060" font-family="sans-serif" font-size="14" lengthAdjust="spacing" textLength="522" x="1514" y="354.5313">Examples.BetterDesign.Repository.CarExample.WarehouseEntities.Customer</text><rect fill="#F24D5C" height="6" style="stroke:#C82930;stroke-width:1.0;" width="6" x="790" y="364.2285"/><text fill="#000000" font-family="sans-serif" font-size="14" lengthAdjust="spacing" textLength="51" x="802" y="371.0195">getCar(</text><text fill="#6060BB" font-family="sans-serif" font-size="14" lengthAdjust="spacing" textLength="520" x="853" y="371.0195">user:Examples.BetterDesign.Repository.CarExample.WarehouseEntities.User</text><text fill="#000000" font-family="sans-serif" font-size="14" lengthAdjust="spacing" textLength="9" x="1373" y="371.0195">):</text><text fill="#BB6060" font-family="sans-serif" font-size="14" lengthAdjust="spacing" textLength="349" x="1386" y="371.0195">Examples.BetterDesign.Repository.CarExample.Car</text><rect fill="#F24D5C" height="6" style="stroke:#C82930;stroke-width:1.0;" width="6" x="790" y="380.7168"/><text fill="#000000" font-family="sans-serif" font-size="14" lengthAdjust="spacing" textLength="105" x="802" y="387.5078">getComplaints(</text><text fill="#6060BB" font-family="sans-serif" font-size="14" lengthAdjust="spacing" textLength="374" x="907" y="387.5078">car:Examples.BetterDesign.Repository.CarExample.Car</text><text fill="#000000" font-family="sans-serif" font-size="14" lengthAdjust="spacing" textLength="9" x="1281" y="387.5078">):</text><text fill="#BB6060" font-family="sans-serif" font-size="14" lengthAdjust="spacing" textLength="533" x="1294" y="387.5078">Examples.BetterDesign.Repository.CarExample.WarehouseEntities.Complaints</text><rect fill="#F24D5C" height="6" style="stroke:#C82930;stroke-width:1.0;" width="6" x="790" y="397.2051"/><text fill="#000000" font-family="sans-serif" font-size="14" lengthAdjust="spacing" textLength="88" x="802" y="403.9961">getFirstUser(</text><text fill="#000000" font-family="sans-serif" font-size="14" lengthAdjust="spacing" textLength="9" x="890" y="403.9961">):</text><text fill="#BB6060" font-family="sans-serif" font-size="14" lengthAdjust="spacing" textLength="486" x="903" y="403.9961">Examples.BetterDesign.Repository.CarExample.WarehouseEntities.User</text><rect fill="#F24D5C" height="6" style="stroke:#C82930;stroke-width:1.0;" width="6" x="790" y="413.6934"/><text fill="#000000" font-family="sans-serif" font-size="14" lengthAdjust="spacing" textLength="81" x="802" y="420.4844">getFirstCar(</text><text fill="#000000" font-family="sans-serif" font-size="14" lengthAdjust="spacing" textLength="9" x="883" y="420.4844">):</text><text fill="#BB6060" font-family="sans-serif" font-size="14" lengthAdjust="spacing" textLength="349" x="896" y="420.4844">Examples.BetterDesign.Repository.CarExample.Car</text><rect fill="#F24D5C" height="6" style="stroke:#C82930;stroke-width:1.0;" width="6" x="790" y="430.1816"/><text fill="#000000" font-family="sans-serif" font-size="14" lengthAdjust="spacing" textLength="105" x="802" y="436.9727">getFirstInvoice(</text><text fill="#000000" font-family="sans-serif" font-size="14" lengthAdjust="spacing" textLength="9" x="907" y="436.9727">):</text><text fill="#BB6060" font-family="sans-serif" font-size="14" lengthAdjust="spacing" textLength="503" x="920" y="436.9727">Examples.BetterDesign.Repository.CarExample.WarehouseEntities.Invoice</text><rect fill="#F24D5C" height="6" style="stroke:#C82930;stroke-width:1.0;" width="6" x="790" y="446.6699"/><text fill="#000000" font-family="sans-serif" font-size="14" lengthAdjust="spacing" textLength="135" x="802" y="453.4609">getFirstComplaints(</text><text fill="#000000" font-family="sans-serif" font-size="14" lengthAdjust="spacing" textLength="9" x="937" y="453.4609">):</text><text fill="#BB6060" font-family="sans-serif" font-size="14" lengthAdjust="spacing" textLength="533" x="950" y="453.4609">Examples.BetterDesign.Repository.CarExample.WarehouseEntities.Complaints</text></g></a><!--class Customer--><a href="Examples.BetterDesign.Repository.CarExample.WarehouseEntities.Customer-diagram-detailed.svg" target="_top" title="Examples.BetterDesign.Repository.CarExample.WarehouseEntities.Customer-diagram-detailed.svg" xlink:actuate="onRequest" xlink:href="Examples.BetterDesign.Repository.CarExample.WarehouseEntities.Customer-diagram-detailed.svg" xlink:show="new" xlink:title="Examples.BetterDesign.Repository.CarExample.WarehouseEntities.Customer-diagram-detailed.svg" xlink:type="simple"><g id="elem_Customer"><rect codeLine="18" fill="#FFFF00" height="48" id="Customer" rx="2.5" ry="2.5" style="stroke:#181818;stroke-width:0.5;" width="99" x="1362.5" y="521.5547"/><ellipse cx="1377.5" cy="537.5547" fill="#A9DCDF" rx="11" ry="11" style="stroke:#181818;stroke-width:1.0;"/><path d="M1377.3633,532.9028 L1376.2095,537.9746 L1378.5254,537.9746 Z M1375.8691,530.6616 L1378.8657,530.6616 L1382.2109,543.0547 L1379.7622,543.0547 L1378.9985,539.9917 L1375.7197,539.9917 L1374.9727,543.0547 L1372.5239,543.0547 Z " fill="#000000"/><text fill="#000000" font-family="sans-serif" font-size="14" font-style="italic" lengthAdjust="spacing" textLength="67" x="1391.5" y="542.8457">Customer</text><line style="stroke:#181818;stroke-width:0.5;" x1="1363.5" x2="1460.5" y1="553.5547" y2="553.5547"/><line style="stroke:#181818;stroke-width:0.5;" x1="1363.5" x2="1460.5" y1="561.5547" y2="561.5547"/></g></a><g id="elem_FloatingNote"><path d="M6,213.5547 L6,461.2129 L678,461.2129 L678,223.5547 L668,213.5547 L6,213.5547 " fill="#FEFFDD" style="stroke:#181818;stroke-width:0.5;"/><path d="M668,213.5547 L668,223.5547 L678,223.5547 L668,213.5547 " fill="#FEFFDD" style="stroke:#181818;stroke-width:1.0;"/><text fill="#000000" font-family="sans-serif" font-size="13" lengthAdjust="spacing" textLength="120" x="12" y="231.123">Your are analyzing:</text><text fill="#000000" font-family="sans-serif" font-size="13" lengthAdjust="spacing" textLength="477" x="12" y="246.4336">Examples.BetterDesign.Repository.CarExample.WarehouseEntities.Customer</text><text fill="#000000" font-family="sans-serif" font-size="13" font-weight="bold" lengthAdjust="spacing" textLength="55" x="493" y="246.4336">detailed</text><text fill="#000000" font-family="sans-serif" font-size="13" lengthAdjust="spacing" textLength="4" x="548" y="246.4336">&#160;</text><text fill="#000000" font-family="sans-serif" font-size="13" lengthAdjust="spacing" textLength="4" x="12" y="261.7441">&#160;</text><text fill="#000000" font-family="sans-serif" font-size="13" lengthAdjust="spacing" textLength="229" x="12" y="292.3652">You can click either the namespaces</text><text fill="#000000" font-family="sans-serif" font-size="13" lengthAdjust="spacing" textLength="266" x="12" y="307.6758">or class names for filtering them and their</text><text fill="#000000" font-family="sans-serif" font-size="13" lengthAdjust="spacing" textLength="130" x="12" y="322.9863">direct dependencies.</text><text fill="#000000" font-family="sans-serif" font-size="13" lengthAdjust="spacing" textLength="4" x="12" y="338.2969">&#160;</text><line style="stroke:#181818;stroke-width:1.0;" x1="7" x2="326" y1="272.1416" y2="272.1416"/><line style="stroke:#181818;stroke-width:1.0;" x1="7" x2="326" y1="274.1416" y2="274.1416"/><text fill="#000000" font-family="sans-serif" font-size="13" lengthAdjust="spacing" textLength="32" x="326" y="276.5547">Filter</text><line style="stroke:#181818;stroke-width:1.0;" x1="358" x2="677" y1="272.1416" y2="272.1416"/><line style="stroke:#181818;stroke-width:1.0;" x1="358" x2="677" y1="274.1416" y2="274.1416"/><ellipse cx="17.5" cy="368.1602" fill="#000000" rx="2.5" ry="2.5" style="stroke:#000000;stroke-width:0.0;"/><text fill="#000000" font-family="sans-serif" font-size="13" lengthAdjust="spacing" textLength="477" x="24" y="372.918">Examples.BetterDesign.Repository.CarExample.WarehouseEntities.Customer</text><text fill="#000000" font-family="sans-serif" font-size="13" font-weight="bold" lengthAdjust="spacing" textLength="67" x="505" y="372.918">simplified</text><text fill="#000000" font-family="sans-serif" font-size="13" lengthAdjust="spacing" textLength="4" x="576" y="372.918">:</text><text fill="#000000" font-family="sans-serif" font-size="13" lengthAdjust="spacing" textLength="12" x="12" y="388.2285">&#160;&#160;&#160;</text><a href="Examples.BetterDesign.Repository.CarExample.WarehouseEntities.Customer-diagram-simplified.svg" target="_top" title="Examples.BetterDesign.Repository.CarExample.WarehouseEntities.Customer-diagram-simplified.svg" xlink:actuate="onRequest" xlink:href="Examples.BetterDesign.Repository.CarExample.WarehouseEntities.Customer-diagram-simplified.svg" xlink:show="new" xlink:title="Examples.BetterDesign.Repository.CarExample.WarehouseEntities.Customer-diagram-simplified.svg" xlink:type="simple"><text fill="#0000FF" font-family="sans-serif" font-size="13" lengthAdjust="spacing" text-decoration="underline" textLength="633" x="24" y="388.2285">Examples.BetterDesign.Repository.CarExample.WarehouseEntities.Customer-diagram-simplified.svg</text></a><ellipse cx="17.5" cy="398.7813" fill="#000000" rx="2.5" ry="2.5" style="stroke:#000000;stroke-width:0.0;"/><text fill="#000000" font-family="sans-serif" font-size="13" lengthAdjust="spacing" textLength="78" x="24" y="403.5391">Full diagram</text><text fill="#000000" font-family="sans-serif" font-size="13" font-weight="bold" lengthAdjust="spacing" textLength="55" x="106" y="403.5391">detailed</text><text fill="#000000" font-family="sans-serif" font-size="13" lengthAdjust="spacing" textLength="23" x="165" y="403.5391">and</text><text fill="#000000" font-family="sans-serif" font-size="13" font-weight="bold" lengthAdjust="spacing" textLength="166" x="192" y="403.5391">grouped per namespace</text><text fill="#000000" font-family="sans-serif" font-size="13" lengthAdjust="spacing" textLength="4" x="358" y="403.5391">:</text><text fill="#000000" font-family="sans-serif" font-size="13" lengthAdjust="spacing" textLength="12" x="12" y="418.8496">&#160;&#160;&#160;</text><a href="full-diagram-detailed-grouped-per-namespace.svg" target="_top" title="full-diagram-detailed-grouped-per-namespace.svg" xlink:actuate="onRequest" xlink:href="full-diagram-detailed-grouped-per-namespace.svg" xlink:show="new" xlink:title="full-diagram-detailed-grouped-per-namespace.svg" xlink:type="simple"><text fill="#0000FF" font-family="sans-serif" font-size="13" lengthAdjust="spacing" text-decoration="underline" textLength="330" x="24" y="418.8496">full-diagram-detailed-grouped-per-namespace.svg</text></a><ellipse cx="17.5" cy="429.4023" fill="#000000" rx="2.5" ry="2.5" style="stroke:#000000;stroke-width:0.0;"/><text fill="#000000" font-family="sans-serif" font-size="13" lengthAdjust="spacing" textLength="41" x="24" y="434.1602">Home:</text><text fill="#000000" font-family="sans-serif" font-size="13" lengthAdjust="spacing" textLength="12" x="12" y="449.4707">&#160;&#160;&#160;</text><a href="index.html" target="_top" title="index.html" xlink:actuate="onRequest" xlink:href="index.html" xlink:show="new" xlink:title="index.html" xlink:type="simple"><text fill="#0000FF" font-family="sans-serif" font-size="13" lengthAdjust="spacing" text-decoration="underline" textLength="68" x="24" y="449.4707">index.html</text></a><line style="stroke:#181818;stroke-width:1.0;" x1="7" x2="305" y1="352.6943" y2="352.6943"/><line style="stroke:#181818;stroke-width:1.0;" x1="7" x2="305" y1="354.6943" y2="354.6943"/><text fill="#000000" font-family="sans-serif" font-size="13" lengthAdjust="spacing" textLength="74" x="305" y="357.1074">Select other</text><line style="stroke:#181818;stroke-width:1.0;" x1="379" x2="677" y1="352.6943" y2="352.6943"/><line style="stroke:#181818;stroke-width:1.0;" x1="379" x2="677" y1="354.6943" y2="354.6943"/></g><!--link DBWarehouse to Customer--><g id="link_DBWarehouse_Customer"><path codeLine="25" d="M1412,460.9547 C1412,460.9547 1412,515.1347 1412,515.1347 " fill="none" id="DBWarehouse-to-Customer" style="stroke:#6060BB;stroke-width:1.0;stroke-dasharray:7.0,7.0;"/><polygon fill="#6060BB" points="1412,520.1347,1416,511.1347,1412,515.1347,1408,511.1347,1412,520.1347" style="stroke:#6060BB;stroke-width:1.0;"/><text fill="#000000" font-family="sans-serif" font-size="13" lengthAdjust="spacing" textLength="29" x="1382" y="484.613">uses</text></g><!--SRC=[rLPDRzf04BtpAqRaaDQI7TH33XPmC0bgBpsqggeAE6pimQoothLsbpIawd_l-0CJ8409TabzGCQUZ_VUpAp7t7EPCiqI45oYNQG8IjkPQbbk1KBNy2VqFtJwjuyiIGKQBq1hKT-WuR7qlc2g3BTABxm1qwMDzvrfdAcvmLj9KJWv3UR6gWGrE4w4bd61aUD0zogBtcz9PH7QFzHS0ta2aqmidhYC_R5i8krOZcMlD-I20lPwOqc98MGIGi73Uq1kP-H1Fo1PWYPb8HhoKPeCc375KvZI_saUWe1crWdXZh8RhiSouXf32n6cA2EKOGQcIFiLHVP6PKcov0xKHj5mik5JdfCaxG1WDAedkXjn5bEJkAiSddc89vECm70k19G6wqfdYZXEhDKynGXIGbb9wZXBX5Doh-8ldTtIoIKdjt9QvVn8g9O1E4dywCri8YQJDZ03Gw6OfR9yfhvgGNwnEsCr8-6B6XwZoarGwNAadiyyjmWML01-bG01N8ZHBWL_rvqgIMYLKBhNlkvSTuAWtUV-QUNy91yK3x5xbGNll_TXBKiGP7dQDOrwcMI37jl1B3oHsK3H2yQbDJMIeziNMPGoDiHaNRzcYhJU21irggJyZmbkzSCwnszcruY5JFklwv5cY6H8NoxJtfCYNF9_YtDLrw514RHVcxnDdXW7P-gDTTs1yHboRVRCq7a68WUrirV-GP5p07k_3MSxqmjj3ZJXMJhgTmNqX1LjprfS-mQyiS1TB508zVFP7aUCBcdh_QiB6hEzX44keqP1kx2I1l0nbvSMyQbMoMeJzyds28rQhzsTlT55qMaJhrzNTS47UcuQfBkT_Gy0]--></g></svg>