<?xml version="1.0" encoding="us-ascii" standalone="no"?><svg xmlns="http://www.w3.org/2000/svg" xmlns:xlink="http://www.w3.org/1999/xlink" contentStyleType="text/css" height="886px" preserveAspectRatio="none" style="width:1957px;height:886px;background:#FFFFFF;" version="1.1" viewBox="0 0 1957 886" width="1957px" zoomAndPan="magnify"><defs/><g><text fill="#000000" font-family="sans-serif" font-size="20" font-weight="bold" lengthAdjust="spacing" textLength="640" x="455.5" y="29.3359">Examples.BetterDesign.Repository.CarExample.CarParts.Doors</text><text fill="#000000" font-family="sans-serif" font-size="20" font-weight="bold" lengthAdjust="spacing" textLength="84" x="1102.5" y="29.3359">detailed</text><text fill="#000000" font-family="sans-serif" font-size="20" font-weight="bold" lengthAdjust="spacing" textLength="38" x="1193.5" y="29.3359">and</text><text fill="#000000" font-family="sans-serif" font-size="20" font-weight="bold" lengthAdjust="spacing" textLength="249" x="1238.5" y="29.3359">grouped per namespace</text><!--cluster Examples--><g id="cluster_Examples"><a href="Examples-diagram-detailed-grouped-per-namespace.svg" target="_top" title="Examples-diagram-detailed-grouped-per-namespace.svg" xlink:actuate="onRequest" xlink:href="Examples-diagram-detailed-grouped-per-namespace.svg" xlink:show="new" xlink:title="Examples-diagram-detailed-grouped-per-namespace.svg" xlink:type="simple"><path d="M776.5,50.5547 L845.5,50.5547 A3.75,3.75 0 0 1 848,53.0547 L855,73.043 L1947.5,73.043 A2.5,2.5 0 0 1 1950,75.543 L1950,877.0547 A2.5,2.5 0 0 1 1947.5,879.5547 L776.5,879.5547 A2.5,2.5 0 0 1 774,877.0547 L774,53.0547 A2.5,2.5 0 0 1 776.5,50.5547 " fill="none" style="stroke:#000000;stroke-width:1.5;"/><line style="stroke:#000000;stroke-width:1.5;" x1="774" x2="855" y1="73.043" y2="73.043"/><text fill="#000000" font-family="sans-serif" font-size="14" font-weight="bold" lengthAdjust="spacing" textLength="68" x="778" y="66.0898">Examples</text></a></g><!--cluster BetterDesign--><g id="cluster_BetterDesign"><a href="Examples.BetterDesign-diagram-detailed-grouped-per-namespace.svg" target="_top" title="Examples.BetterDesign-diagram-detailed-grouped-per-namespace.svg" xlink:actuate="onRequest" xlink:href="Examples.BetterDesign-diagram-detailed-grouped-per-namespace.svg" xlink:show="new" xlink:title="Examples.BetterDesign-diagram-detailed-grouped-per-namespace.svg" xlink:type="simple"><path d="M800.5,93.5547 L894.5,93.5547 A3.75,3.75 0 0 1 897,96.0547 L904,116.043 L1923.5,116.043 A2.5,2.5 0 0 1 1926,118.543 L1926,853.0547 A2.5,2.5 0 0 1 1923.5,855.5547 L800.5,855.5547 A2.5,2.5 0 0 1 798,853.0547 L798,96.0547 A2.5,2.5 0 0 1 800.5,93.5547 " fill="none" style="stroke:#000000;stroke-width:1.5;"/><line style="stroke:#000000;stroke-width:1.5;" x1="798" x2="904" y1="116.043" y2="116.043"/><text fill="#000000" font-family="sans-serif" font-size="14" font-weight="bold" lengthAdjust="spacing" textLength="93" x="802" y="109.0898">BetterDesign</text></a></g><!--cluster Repository--><g id="cluster_Repository"><a href="Examples.BetterDesign.Repository-diagram-detailed-grouped-per-namespace.svg" target="_top" title="Examples.BetterDesign.Repository-diagram-detailed-grouped-per-namespace.svg" xlink:actuate="onRequest" xlink:href="Examples.BetterDesign.Repository-diagram-detailed-grouped-per-namespace.svg" xlink:show="new" xlink:title="Examples.BetterDesign.Repository-diagram-detailed-grouped-per-namespace.svg" xlink:type="simple"><path d="M824.5,136.5547 L903.5,136.5547 A3.75,3.75 0 0 1 906,139.0547 L913,159.043 L1899.5,159.043 A2.5,2.5 0 0 1 1902,161.543 L1902,829.0547 A2.5,2.5 0 0 1 1899.5,831.5547 L824.5,831.5547 A2.5,2.5 0 0 1 822,829.0547 L822,139.0547 A2.5,2.5 0 0 1 824.5,136.5547 " fill="none" style="stroke:#000000;stroke-width:1.5;"/><line style="stroke:#000000;stroke-width:1.5;" x1="822" x2="913" y1="159.043" y2="159.043"/><text fill="#000000" font-family="sans-serif" font-size="14" font-weight="bold" lengthAdjust="spacing" textLength="78" x="826" y="152.0898">Repository</text></a></g><!--cluster CarExample--><g id="cluster_CarExample"><a href="Examples.BetterDesign.Repository.CarExample-diagram-detailed-grouped-per-namespace.svg" target="_top" title="Examples.BetterDesign.Repository.CarExample-diagram-detailed-grouped-per-namespace.svg" xlink:actuate="onRequest" xlink:href="Examples.BetterDesign.Repository.CarExample-diagram-detailed-grouped-per-namespace.svg" xlink:show="new" xlink:title="Examples.BetterDesign.Repository.CarExample-diagram-detailed-grouped-per-namespace.svg" xlink:type="simple"><path d="M848.5,179.5547 L933.5,179.5547 A3.75,3.75 0 0 1 936,182.0547 L943,202.043 L1875.5,202.043 A2.5,2.5 0 0 1 1878,204.543 L1878,805.0547 A2.5,2.5 0 0 1 1875.5,807.5547 L848.5,807.5547 A2.5,2.5 0 0 1 846,805.0547 L846,182.0547 A2.5,2.5 0 0 1 848.5,179.5547 " fill="none" style="stroke:#000000;stroke-width:1.5;"/><line style="stroke:#000000;stroke-width:1.5;" x1="846" x2="943" y1="202.043" y2="202.043"/><text fill="#000000" font-family="sans-serif" font-size="14" font-weight="bold" lengthAdjust="spacing" textLength="84" x="850" y="195.0898">CarExample</text></a></g><!--cluster CarParts--><g id="cluster_CarParts"><a href="Examples.BetterDesign.Repository.CarExample.CarParts-diagram-detailed-grouped-per-namespace.svg" target="_top" title="Examples.BetterDesign.Repository.CarExample.CarParts-diagram-detailed-grouped-per-namespace.svg" xlink:actuate="onRequest" xlink:href="Examples.BetterDesign.Repository.CarExample.CarParts-diagram-detailed-grouped-per-namespace.svg" xlink:show="new" xlink:title="Examples.BetterDesign.Repository.CarExample.CarParts-diagram-detailed-grouped-per-namespace.svg" xlink:type="simple"><path d="M1115.5,651.5547 L1177.5,651.5547 A3.75,3.75 0 0 1 1180,654.0547 L1187,674.043 L1562.5,674.043 A2.5,2.5 0 0 1 1565,676.543 L1565,781.0547 A2.5,2.5 0 0 1 1562.5,783.5547 L1115.5,783.5547 A2.5,2.5 0 0 1 1113,781.0547 L1113,654.0547 A2.5,2.5 0 0 1 1115.5,651.5547 " fill="none" style="stroke:#000000;stroke-width:1.5;"/><line style="stroke:#000000;stroke-width:1.5;" x1="1113" x2="1187" y1="674.043" y2="674.043"/><text fill="#000000" font-family="sans-serif" font-size="14" font-weight="bold" lengthAdjust="spacing" textLength="61" x="1117" y="667.0898">CarParts</text></a></g><!--class DBCar--><a href="Examples.BetterDesign.Repository.CarExample.DBCar-diagram-detailed-grouped-per-namespace.svg" target="_top" title="Examples.BetterDesign.Repository.CarExample.DBCar-diagram-detailed-grouped-per-namespace.svg" xlink:actuate="onRequest" xlink:href="Examples.BetterDesign.Repository.CarExample.DBCar-diagram-detailed-grouped-per-namespace.svg" xlink:show="new" xlink:title="Examples.BetterDesign.Repository.CarExample.DBCar-diagram-detailed-grouped-per-namespace.svg" xlink:type="simple"><g id="elem_DBCar"><rect codeLine="8" fill="#F1F1F1" height="196.3945" id="DBCar" rx="2.5" ry="2.5" style="stroke:#181818;stroke-width:0.5;" width="999" x="862.5" y="214.5547"/><ellipse cx="1336.75" cy="230.5547" fill="#A9DCDF" rx="11" ry="11" style="stroke:#181818;stroke-width:1.0;"/><path d="M1336.6133,225.9028 L1335.4595,230.9746 L1337.7754,230.9746 Z M1335.1191,223.6616 L1338.1157,223.6616 L1341.4609,236.0547 L1339.0122,236.0547 L1338.2485,232.9917 L1334.9697,232.9917 L1334.2227,236.0547 L1331.7739,236.0547 Z " fill="#000000"/><text fill="#000000" font-family="sans-serif" font-size="14" font-style="italic" lengthAdjust="spacing" textLength="42" x="1357.25" y="235.8457">DBCar</text><line style="stroke:#181818;stroke-width:0.5;" x1="863.5" x2="1860.5" y1="246.5547" y2="246.5547"/><line style="stroke:#181818;stroke-width:0.5;" x1="863.5" x2="1860.5" y1="254.5547" y2="254.5547"/><rect fill="#F24D5C" height="6" style="stroke:#C82930;stroke-width:1.0;" width="6" x="870.5" y="265.2988"/><text fill="#000000" font-family="sans-serif" font-size="14" lengthAdjust="spacing" textLength="122" x="882.5" y="272.0898">getCarsForDriver(</text><text fill="#6060BB" font-family="sans-serif" font-size="14" lengthAdjust="spacing" textLength="472" x="1004.5" y="272.0898">driver:Examples.BetterDesign.Repository.CarExample.CarParts.Driver</text><text fill="#000000" font-family="sans-serif" font-size="14" lengthAdjust="spacing" textLength="9" x="1476.5" y="272.0898">):</text><text fill="#BB6060" font-family="sans-serif" font-size="14" lengthAdjust="spacing" textLength="51" x="1489.5" y="272.0898">String[]</text><rect fill="#F24D5C" height="6" style="stroke:#C82930;stroke-width:1.0;" width="6" x="870.5" y="281.7871"/><text fill="#000000" font-family="sans-serif" font-size="14" lengthAdjust="spacing" textLength="77" x="882.5" y="288.5781">updateCar(</text><text fill="#6060BB" font-family="sans-serif" font-size="14" lengthAdjust="spacing" textLength="844" x="959.5" y="288.5781">car:Examples.BetterDesign.Repository.CarExample.Car, seats:Examples.BetterDesign.Repository.CarExample.CarParts.Seats</text><text fill="#000000" font-family="sans-serif" font-size="14" lengthAdjust="spacing" textLength="9" x="1803.5" y="288.5781">):</text><text fill="#BB6060" font-family="sans-serif" font-size="14" lengthAdjust="spacing" textLength="29" x="1816.5" y="288.5781">void</text><rect fill="#F24D5C" height="6" style="stroke:#C82930;stroke-width:1.0;" width="6" x="870.5" y="298.2754"/><text fill="#000000" font-family="sans-serif" font-size="14" lengthAdjust="spacing" textLength="77" x="882.5" y="305.0664">updateCar(</text><text fill="#6060BB" font-family="sans-serif" font-size="14" lengthAdjust="spacing" textLength="854" x="959.5" y="305.0664">car:Examples.BetterDesign.Repository.CarExample.Car, doors:Examples.BetterDesign.Repository.CarExample.CarParts.Doors</text><text fill="#000000" font-family="sans-serif" font-size="14" lengthAdjust="spacing" textLength="9" x="1813.5" y="305.0664">):</text><text fill="#BB6060" font-family="sans-serif" font-size="14" lengthAdjust="spacing" textLength="29" x="1826.5" y="305.0664">void</text><rect fill="#F24D5C" height="6" style="stroke:#C82930;stroke-width:1.0;" width="6" x="870.5" y="314.7637"/><text fill="#000000" font-family="sans-serif" font-size="14" lengthAdjust="spacing" textLength="70" x="882.5" y="321.5547">sellCarTo(</text><text fill="#6060BB" font-family="sans-serif" font-size="14" lengthAdjust="spacing" textLength="854" x="952.5" y="321.5547">car:Examples.BetterDesign.Repository.CarExample.Car, driver:Examples.BetterDesign.Repository.CarExample.CarParts.Driver</text><text fill="#000000" font-family="sans-serif" font-size="14" lengthAdjust="spacing" textLength="9" x="1806.5" y="321.5547">):</text><text fill="#BB6060" font-family="sans-serif" font-size="14" lengthAdjust="spacing" textLength="29" x="1819.5" y="321.5547">void</text><rect fill="#F24D5C" height="6" style="stroke:#C82930;stroke-width:1.0;" width="6" x="870.5" y="331.252"/><text fill="#000000" font-family="sans-serif" font-size="14" lengthAdjust="spacing" textLength="51" x="882.5" y="338.043">getCar(</text><text fill="#6060BB" font-family="sans-serif" font-size="14" lengthAdjust="spacing" textLength="441" x="933.5" y="338.043">d:Examples.BetterDesign.Repository.CarExample.CarParts.Driver</text><text fill="#000000" font-family="sans-serif" font-size="14" lengthAdjust="spacing" textLength="9" x="1374.5" y="338.043">):</text><text fill="#BB6060" font-family="sans-serif" font-size="14" lengthAdjust="spacing" textLength="349" x="1387.5" y="338.043">Examples.BetterDesign.Repository.CarExample.Car</text><rect fill="#F24D5C" height="6" style="stroke:#C82930;stroke-width:1.0;" width="6" x="870.5" y="347.7402"/><text fill="#000000" font-family="sans-serif" font-size="14" lengthAdjust="spacing" textLength="68" x="882.5" y="354.5313">getDriver(</text><text fill="#6060BB" font-family="sans-serif" font-size="14" lengthAdjust="spacing" textLength="360" x="950.5" y="354.5313">c:Examples.BetterDesign.Repository.CarExample.Car</text><text fill="#000000" font-family="sans-serif" font-size="14" lengthAdjust="spacing" textLength="9" x="1310.5" y="354.5313">):</text><text fill="#BB6060" font-family="sans-serif" font-size="14" lengthAdjust="spacing" textLength="428" x="1323.5" y="354.5313">Examples.BetterDesign.Repository.CarExample.CarParts.Driver</text><rect fill="#F24D5C" height="6" style="stroke:#C82930;stroke-width:1.0;" width="6" x="870.5" y="364.2285"/><text fill="#000000" font-family="sans-serif" font-size="14" lengthAdjust="spacing" textLength="75" x="882.5" y="371.0195">getWheels(</text><text fill="#6060BB" font-family="sans-serif" font-size="14" lengthAdjust="spacing" textLength="360" x="957.5" y="371.0195">c:Examples.BetterDesign.Repository.CarExample.Car</text><text fill="#000000" font-family="sans-serif" font-size="14" lengthAdjust="spacing" textLength="9" x="1317.5" y="371.0195">):</text><text fill="#BB6060" font-family="sans-serif" font-size="14" lengthAdjust="spacing" textLength="435" x="1330.5" y="371.0195">Examples.BetterDesign.Repository.CarExample.CarParts.Wheels</text><rect fill="#F24D5C" height="6" style="stroke:#C82930;stroke-width:1.0;" width="6" x="870.5" y="380.7168"/><text fill="#000000" font-family="sans-serif" font-size="14" lengthAdjust="spacing" textLength="68" x="882.5" y="387.5078">getDoors(</text><text fill="#6060BB" font-family="sans-serif" font-size="14" lengthAdjust="spacing" textLength="360" x="950.5" y="387.5078">c:Examples.BetterDesign.Repository.CarExample.Car</text><text fill="#000000" font-family="sans-serif" font-size="14" lengthAdjust="spacing" textLength="9" x="1310.5" y="387.5078">):</text><text fill="#BB6060" font-family="sans-serif" font-size="14" lengthAdjust="spacing" textLength="428" x="1323.5" y="387.5078">Examples.BetterDesign.Repository.CarExample.CarParts.Doors</text><rect fill="#F24D5C" height="6" style="stroke:#C82930;stroke-width:1.0;" width="6" x="870.5" y="397.2051"/><text fill="#000000" font-family="sans-serif" font-size="14" lengthAdjust="spacing" textLength="63" x="882.5" y="403.9961">getSeats(</text><text fill="#6060BB" font-family="sans-serif" font-size="14" lengthAdjust="spacing" textLength="360" x="945.5" y="403.9961">c:Examples.BetterDesign.Repository.CarExample.Car</text><text fill="#000000" font-family="sans-serif" font-size="14" lengthAdjust="spacing" textLength="9" x="1305.5" y="403.9961">):</text><text fill="#BB6060" font-family="sans-serif" font-size="14" lengthAdjust="spacing" textLength="423" x="1318.5" y="403.9961">Examples.BetterDesign.Repository.CarExample.CarParts.Seats</text></g></a><!--class Car--><a href="Examples.BetterDesign.Repository.CarExample.Car-diagram-detailed-grouped-per-namespace.svg" target="_top" title="Examples.BetterDesign.Repository.CarExample.Car-diagram-detailed-grouped-per-namespace.svg" xlink:actuate="onRequest" xlink:href="Examples.BetterDesign.Repository.CarExample.Car-diagram-detailed-grouped-per-namespace.svg" xlink:show="new" xlink:title="Examples.BetterDesign.Repository.CarExample.Car-diagram-detailed-grouped-per-namespace.svg" xlink:type="simple"><g id="elem_Car"><rect codeLine="19" fill="#F1F1F1" height="130.4414" id="Car" rx="2.5" ry="2.5" style="stroke:#181818;stroke-width:0.5;" width="611" x="862.5" y="496.5547"/><ellipse cx="1151.75" cy="512.5547" fill="#A9DCDF" rx="11" ry="11" style="stroke:#181818;stroke-width:1.0;"/><path d="M1151.6133,507.9028 L1150.4595,512.9746 L1152.7754,512.9746 Z M1150.1191,505.6616 L1153.1157,505.6616 L1156.4609,518.0547 L1154.0122,518.0547 L1153.2485,514.9917 L1149.9697,514.9917 L1149.2227,518.0547 L1146.7739,518.0547 Z " fill="#000000"/><text fill="#000000" font-family="sans-serif" font-size="14" font-style="italic" lengthAdjust="spacing" textLength="24" x="1172.25" y="517.8457">Car</text><line style="stroke:#181818;stroke-width:0.5;" x1="863.5" x2="1472.5" y1="528.5547" y2="528.5547"/><ellipse cx="873.5" cy="542.2988" fill="none" rx="3" ry="3" style="stroke:#038048;stroke-width:1.0;"/><text fill="#000000" font-family="sans-serif" font-size="14" lengthAdjust="spacing" textLength="490" x="882.5" y="546.0898">wheels: Examples.BetterDesign.Repository.CarExample.CarParts.Wheels</text><ellipse cx="873.5" cy="558.7871" fill="none" rx="3" ry="3" style="stroke:#038048;stroke-width:1.0;"/><text fill="#000000" font-family="sans-serif" font-size="14" lengthAdjust="spacing" textLength="466" x="882.5" y="562.5781">seats: Examples.BetterDesign.Repository.CarExample.CarParts.Seats</text><ellipse cx="873.5" cy="575.2754" fill="none" rx="3" ry="3" style="stroke:#038048;stroke-width:1.0;"/><text fill="#000000" font-family="sans-serif" font-size="14" lengthAdjust="spacing" textLength="476" x="882.5" y="579.0664">driver: Examples.BetterDesign.Repository.CarExample.CarParts.Driver</text><ellipse cx="873.5" cy="591.7637" fill="none" rx="3" ry="3" style="stroke:#038048;stroke-width:1.0;"/><text fill="#000000" font-family="sans-serif" font-size="14" lengthAdjust="spacing" textLength="476" x="882.5" y="595.5547">doors: Examples.BetterDesign.Repository.CarExample.CarParts.Doors</text><line style="stroke:#181818;stroke-width:1.0;" x1="863.5" x2="1472.5" y1="602.5078" y2="602.5078"/><line style="stroke:#181818;stroke-width:1.0;" x1="863.5" x2="1472.5" y1="604.5078" y2="604.5078"/><rect fill="#F24D5C" height="6" style="stroke:#C82930;stroke-width:1.0;" width="6" x="870.5" y="613.252"/><text fill="#000000" font-family="sans-serif" font-size="14" lengthAdjust="spacing" textLength="71" x="882.5" y="620.043">createCar(</text><text fill="#6060BB" font-family="sans-serif" font-size="14" lengthAdjust="spacing" textLength="472" x="953.5" y="620.043">doors:Examples.BetterDesign.Repository.CarExample.CarParts.Doors</text><text fill="#000000" font-family="sans-serif" font-size="14" lengthAdjust="spacing" textLength="9" x="1425.5" y="620.043">):</text><text fill="#BB6060" font-family="sans-serif" font-size="14" lengthAdjust="spacing" textLength="29" x="1438.5" y="620.043">void</text></g></a><!--class Doors--><a href="Examples.BetterDesign.Repository.CarExample.CarParts.Doors-diagram-detailed-grouped-per-namespace.svg" target="_top" title="Examples.BetterDesign.Repository.CarExample.CarParts.Doors-diagram-detailed-grouped-per-namespace.svg" xlink:actuate="onRequest" xlink:href="Examples.BetterDesign.Repository.CarExample.CarParts.Doors-diagram-detailed-grouped-per-namespace.svg" xlink:show="new" xlink:title="Examples.BetterDesign.Repository.CarExample.CarParts.Doors-diagram-detailed-grouped-per-namespace.svg" xlink:type="simple"><g id="elem_Doors"><rect codeLine="42" fill="#FFFF00" height="80.9766" id="Doors" rx="2.5" ry="2.5" style="stroke:#181818;stroke-width:0.5;" width="419" x="1129.5" y="686.5547"/><ellipse cx="1314.25" cy="702.5547" fill="#A9DCDF" rx="11" ry="11" style="stroke:#181818;stroke-width:1.0;"/><path d="M1314.1133,697.9028 L1312.9595,702.9746 L1315.2754,702.9746 Z M1312.6191,695.6616 L1315.6157,695.6616 L1318.9609,708.0547 L1316.5122,708.0547 L1315.7485,704.9917 L1312.4697,704.9917 L1311.7227,708.0547 L1309.2739,708.0547 Z " fill="#000000"/><text fill="#000000" font-family="sans-serif" font-size="14" font-style="italic" lengthAdjust="spacing" textLength="41" x="1334.75" y="707.8457">Doors</text><line style="stroke:#181818;stroke-width:0.5;" x1="1130.5" x2="1547.5" y1="718.5547" y2="718.5547"/><ellipse cx="1140.5" cy="732.2988" fill="none" rx="3" ry="3" style="stroke:#038048;stroke-width:1.0;"/><text fill="#000000" font-family="sans-serif" font-size="14" lengthAdjust="spacing" textLength="393" x="1149.5" y="736.0898">db: Examples.BetterDesign.Repository.CarExample.DBCar</text><line style="stroke:#181818;stroke-width:1.0;" x1="1130.5" x2="1547.5" y1="743.043" y2="743.043"/><line style="stroke:#181818;stroke-width:1.0;" x1="1130.5" x2="1547.5" y1="745.043" y2="745.043"/><rect fill="#F24D5C" height="6" style="stroke:#C82930;stroke-width:1.0;" width="6" x="1137.5" y="753.7871"/><text fill="#000000" font-family="sans-serif" font-size="14" lengthAdjust="spacing" textLength="74" x="1149.5" y="760.5781">getWeight(</text><text fill="#000000" font-family="sans-serif" font-size="14" lengthAdjust="spacing" textLength="9" x="1223.5" y="760.5781">):</text><text fill="#BB6060" font-family="sans-serif" font-size="14" lengthAdjust="spacing" textLength="18" x="1236.5" y="760.5781">int</text></g></a><g id="elem_FloatingNote"><path d="M6,188.5547 L6,436.2129 L758,436.2129 L758,198.5547 L748,188.5547 L6,188.5547 " fill="#FEFFDD" style="stroke:#181818;stroke-width:0.5;"/><path d="M748,188.5547 L748,198.5547 L758,198.5547 L748,188.5547 " fill="#FEFFDD" style="stroke:#181818;stroke-width:1.0;"/><text fill="#000000" font-family="sans-serif" font-size="13" lengthAdjust="spacing" textLength="120" x="12" y="206.123">Your are analyzing:</text><text fill="#000000" font-family="sans-serif" font-size="13" lengthAdjust="spacing" textLength="391" x="12" y="221.4336">Examples.BetterDesign.Repository.CarExample.CarParts.Doors</text><text fill="#000000" font-family="sans-serif" font-size="13" font-weight="bold" lengthAdjust="spacing" textLength="55" x="407" y="221.4336">detailed</text><text fill="#000000" font-family="sans-serif" font-size="13" lengthAdjust="spacing" textLength="23" x="466" y="221.4336">and</text><text fill="#000000" font-family="sans-serif" font-size="13" font-weight="bold" lengthAdjust="spacing" textLength="166" x="493" y="221.4336">grouped per namespace</text><text fill="#000000" font-family="sans-serif" font-size="13" lengthAdjust="spacing" textLength="4" x="12" y="236.7441">&#160;</text><text fill="#000000" font-family="sans-serif" font-size="13" lengthAdjust="spacing" textLength="229" x="12" y="267.3652">You can click either the namespaces</text><text fill="#000000" font-family="sans-serif" font-size="13" lengthAdjust="spacing" textLength="266" x="12" y="282.6758">or class names for filtering them and their</text><text fill="#000000" font-family="sans-serif" font-size="13" lengthAdjust="spacing" textLength="130" x="12" y="297.9863">direct dependencies.</text><text fill="#000000" font-family="sans-serif" font-size="13" lengthAdjust="spacing" textLength="4" x="12" y="313.2969">&#160;</text><line style="stroke:#181818;stroke-width:1.0;" x1="7" x2="366" y1="247.1416" y2="247.1416"/><line style="stroke:#181818;stroke-width:1.0;" x1="7" x2="366" y1="249.1416" y2="249.1416"/><text fill="#000000" font-family="sans-serif" font-size="13" lengthAdjust="spacing" textLength="32" x="366" y="251.5547">Filter</text><line style="stroke:#181818;stroke-width:1.0;" x1="398" x2="757" y1="247.1416" y2="247.1416"/><line style="stroke:#181818;stroke-width:1.0;" x1="398" x2="757" y1="249.1416" y2="249.1416"/><ellipse cx="17.5" cy="343.1602" fill="#000000" rx="2.5" ry="2.5" style="stroke:#000000;stroke-width:0.0;"/><text fill="#000000" font-family="sans-serif" font-size="13" lengthAdjust="spacing" textLength="391" x="24" y="347.918">Examples.BetterDesign.Repository.CarExample.CarParts.Doors</text><text fill="#000000" font-family="sans-serif" font-size="13" font-weight="bold" lengthAdjust="spacing" textLength="67" x="419" y="347.918">simplified</text><text fill="#000000" font-family="sans-serif" font-size="13" lengthAdjust="spacing" textLength="23" x="490" y="347.918">and</text><text fill="#000000" font-family="sans-serif" font-size="13" font-weight="bold" lengthAdjust="spacing" textLength="166" x="517" y="347.918">grouped per namespace</text><text fill="#000000" font-family="sans-serif" font-size="13" lengthAdjust="spacing" textLength="4" x="683" y="347.918">:</text><text fill="#000000" font-family="sans-serif" font-size="13" lengthAdjust="spacing" textLength="12" x="12" y="363.2285">&#160;&#160;&#160;</text><a href="Examples.BetterDesign.Repository.CarExample.CarParts.Doors-diagram-simplified-grouped-per-namespace.svg" target="_top" title="Examples.BetterDesign.Repository.CarExample.CarParts.Doors-diagram-simplified-grouped-per-namespace.svg" xlink:actuate="onRequest" xlink:href="Examples.BetterDesign.Repository.CarExample.CarParts.Doors-diagram-simplified-grouped-per-namespace.svg" xlink:show="new" xlink:title="Examples.BetterDesign.Repository.CarExample.CarParts.Doors-diagram-simplified-grouped-per-namespace.svg" xlink:type="simple"><text fill="#0000FF" font-family="sans-serif" font-size="13" lengthAdjust="spacing" text-decoration="underline" textLength="713" x="24" y="363.2285">Examples.BetterDesign.Repository.CarExample.CarParts.Doors-diagram-simplified-grouped-per-namespace.svg</text></a><ellipse cx="17.5" cy="373.7813" fill="#000000" rx="2.5" ry="2.5" style="stroke:#000000;stroke-width:0.0;"/><text fill="#000000" font-family="sans-serif" font-size="13" lengthAdjust="spacing" textLength="78" x="24" y="378.5391">Full diagram</text><text fill="#000000" font-family="sans-serif" font-size="13" font-weight="bold" lengthAdjust="spacing" textLength="55" x="106" y="378.5391">detailed</text><text fill="#000000" font-family="sans-serif" font-size="13" lengthAdjust="spacing" textLength="23" x="165" y="378.5391">and</text><text fill="#000000" font-family="sans-serif" font-size="13" font-weight="bold" lengthAdjust="spacing" textLength="166" x="192" y="378.5391">grouped per namespace</text><text fill="#000000" font-family="sans-serif" font-size="13" lengthAdjust="spacing" textLength="4" x="358" y="378.5391">:</text><text fill="#000000" font-family="sans-serif" font-size="13" lengthAdjust="spacing" textLength="12" x="12" y="393.8496">&#160;&#160;&#160;</text><a href="full-diagram-detailed-grouped-per-namespace.svg" target="_top" title="full-diagram-detailed-grouped-per-namespace.svg" xlink:actuate="onRequest" xlink:href="full-diagram-detailed-grouped-per-namespace.svg" xlink:show="new" xlink:title="full-diagram-detailed-grouped-per-namespace.svg" xlink:type="simple"><text fill="#0000FF" font-family="sans-serif" font-size="13" lengthAdjust="spacing" text-decoration="underline" textLength="330" x="24" y="393.8496">full-diagram-detailed-grouped-per-namespace.svg</text></a><ellipse cx="17.5" cy="404.4023" fill="#000000" rx="2.5" ry="2.5" style="stroke:#000000;stroke-width:0.0;"/><text fill="#000000" font-family="sans-serif" font-size="13" lengthAdjust="spacing" textLength="41" x="24" y="409.1602">Home:</text><text fill="#000000" font-family="sans-serif" font-size="13" lengthAdjust="spacing" textLength="12" x="12" y="424.4707">&#160;&#160;&#160;</text><a href="index.html" target="_top" title="index.html" xlink:actuate="onRequest" xlink:href="index.html" xlink:show="new" xlink:title="index.html" xlink:type="simple"><text fill="#0000FF" font-family="sans-serif" font-size="13" lengthAdjust="spacing" text-decoration="underline" textLength="68" x="24" y="424.4707">index.html</text></a><line style="stroke:#181818;stroke-width:1.0;" x1="7" x2="345" y1="327.6943" y2="327.6943"/><line style="stroke:#181818;stroke-width:1.0;" x1="7" x2="345" y1="329.6943" y2="329.6943"/><text fill="#000000" font-family="sans-serif" font-size="13" lengthAdjust="spacing" textLength="74" x="345" y="332.1074">Select other</text><line style="stroke:#181818;stroke-width:1.0;" x1="419" x2="757" y1="327.6943" y2="327.6943"/><line style="stroke:#181818;stroke-width:1.0;" x1="419" x2="757" y1="329.6943" y2="329.6943"/></g><!--link DBCar to Car--><g id="link_DBCar_Car"><path codeLine="64" d="M1168,410.9647 C1168,410.9647 1168,490.3547 1168,490.3547 " fill="none" id="DBCar-to-Car" style="stroke:#6060BB;stroke-width:1.0;stroke-dasharray:7.0,7.0;"/><polygon fill="#6060BB" points="1168,495.3547,1172,486.3547,1168,490.3547,1164,486.3547,1168,495.3547" style="stroke:#6060BB;stroke-width:1.0;"/><text fill="#000000" font-family="sans-serif" font-size="13" lengthAdjust="spacing" textLength="29" x="1138" y="447.223">uses</text></g><!--link DBCar to Doors--><g id="link_DBCar_Doors"><path codeLine="65" d="M1498.5,411.0447 C1498.5,411.0447 1498.5,680.2547 1498.5,680.2547 " fill="none" id="DBCar-to-Doors" style="stroke:#6060BB;stroke-width:1.0;stroke-dasharray:7.0,7.0;"/><polygon fill="#6060BB" points="1498.5,685.2547,1502.5,676.2547,1498.5,680.2547,1494.5,676.2547,1498.5,685.2547" style="stroke:#6060BB;stroke-width:1.0;"/><text fill="#000000" font-family="sans-serif" font-size="13" lengthAdjust="spacing" textLength="29" x="1499.5" y="542.223">uses</text></g><!--reverse link Doors to DBCar--><g id="link_Doors_DBCar"><path codeLine="70" d="M1523.5,672.1747 C1523.5,672.1747 1523.5,410.7247 1523.5,410.7247 " fill="none" id="Doors-backto-DBCar" style="stroke:#10BB10;stroke-width:1.0;"/><polygon fill="#10BB10" points="1523.5,685.1747,1527.5,679.1747,1523.5,673.1747,1519.5,679.1747,1523.5,685.1747" style="stroke:#10BB10;stroke-width:1.0;"/></g><!--reverse link Car to Doors--><g id="link_Car_Doors"><path codeLine="66" d="M1244.17,640.9647 C1244.17,640.9647 1244.17,686.4047 1244.17,686.4047 " fill="none" id="Car-backto-Doors" style="stroke:#10BB10;stroke-width:1.0;"/><polygon fill="#10BB10" points="1244.17,627.9647,1240.17,633.9647,1244.17,639.9647,1248.17,633.9647,1244.17,627.9647" style="stroke:#10BB10;stroke-width:1.0;"/></g><!--link Car to Doors--><g id="link_Car_Doors"><path codeLine="67" d="M1358.83,626.9647 C1358.83,626.9647 1358.83,680.4047 1358.83,680.4047 " fill="none" id="Car-to-Doors" style="stroke:#6060BB;stroke-width:1.0;stroke-dasharray:7.0,7.0;"/><polygon fill="#6060BB" points="1358.83,685.4047,1362.83,676.4047,1358.83,680.4047,1354.83,676.4047,1358.83,685.4047" style="stroke:#6060BB;stroke-width:1.0;"/><text fill="#000000" font-family="sans-serif" font-size="13" lengthAdjust="spacing" textLength="29" x="1328.83" y="650.253">uses</text></g><!--SRC=[xLZVRzem47xdhpZHXsxPIEaU-X013xIhzbHDwwHf0bIvoG5M7Jko3VqnzN_VEK084vGc0TP9GrK5oTrztvtlpZwREouJfbaCWakqZmc2qdQiQfPRWT0o_0c3JytEvmSM9mADtqLhKL-WuIFfVyD46MwLVlJFcPxBkAzVcRR6lr1A6_2y22tZ0YFF0oOZUZ3IQf9W10bga2n6ax0GFQzruk0wDQaiGlsdccXW6ac7YSSdBaT1Nnw4Hr_sPRjzoGKXjDjzIKmWP192mSCxG6x794__bZe6-b9f4c36p9x2a7uFKnF4t4d7AIXzuRel8wunj11XWZ926N9oQGPxZSAzKGx4WNjGoMV3wJaVykrUKtG1eDSh3zU8E1jHBZMMe8qvM8F06XcORwQZmS3vTZaH0kPg1LPemNL8wXdgGdaRvXSLuy80f-W_-6CRYy6W3ip0fL3CqefTKGxMCkLi3NBnAOGBlzOOMudmfiZl62QtaAzOw_s1vxAeMCuLfGJfXzqQgndLrQn4Y-JuHPT-5AoBLASOqumgG0D6QCc0kLJwGlCfwdUjeP94NWcbs_MpvbcpswrtelHTKAvWKztMYRFRUH_02a2two3gdMlhcbTlC1VB4Pma4RD8rjOp2rbXMX_18BEcd3VNJdMBCrF5eyCu4hbc69JlewKSCIW4cVckTkd8lXDilIkpxD-GytjaKz3oMk8lrMiOb4FO4TyraLZb_cECACmRvZuZk3xkhd3USjXpXRtAFErTRvXvlhVEcJzNtrMBxwbLTjGFS9-cJW0LyYvdRRPLGVbuvcpDconKgEQyjNJlgJ0prDhjN7w66b_Q7W- -qptNZizLJ1ChpGHlxx09zpGR0jM21PhYOYIFr10ovd0k28AcGKP3Jw9nojN4t9Z9xKrcwKPmKbvwTgKamYs6R6BGZPFpQTXm0_Gtv9ARCKP-plPIT-b6xNcjmDBb3GBv06qGMGIJNl-VblxzQQaKfQoeIzuUb1lfgcu_-NkIdTnwl8hzqIETqzLzpekqQzy6nMVIVATUdE2GZyPsVQ_Uqckvj7yUJoetsmCdnaljzoyruDID3QtpqFqPZi5xtGVs9kiekbhLA9ZbIXh0XxI6ASM6MiLBvW795iYPMl4h7RztDAkDWTyfV7Q502WZ31mODz-qIb5m1Bn6x-YKy4-RWqOL0eM1T-xvtj8fGwnLkNql6-TPdlm6]--></g></svg>