<?xml version="1.0" encoding="us-ascii" standalone="no"?><svg xmlns="http://www.w3.org/2000/svg" xmlns:xlink="http://www.w3.org/1999/xlink" contentStyleType="text/css" height="602px" preserveAspectRatio="none" style="width:1159px;height:602px;background:#FFFFFF;" version="1.1" viewBox="0 0 1159 602" width="1159px" zoomAndPan="magnify"><defs/><g><text fill="#000000" font-family="sans-serif" font-size="20" font-weight="bold" lengthAdjust="spacing" textLength="717" x="10" y="29.3359">Examples.BetterDesign.Repository.CarExample.WarehouseEntities.Car</text><text fill="#000000" font-family="sans-serif" font-size="20" font-weight="bold" lengthAdjust="spacing" textLength="104" x="734" y="29.3359">simplified</text><text fill="#000000" font-family="sans-serif" font-size="20" font-weight="bold" lengthAdjust="spacing" textLength="38" x="845" y="29.3359">and</text><text fill="#000000" font-family="sans-serif" font-size="20" font-weight="bold" lengthAdjust="spacing" textLength="249" x="890" y="29.3359">grouped per namespace</text><!--cluster Examples--><g id="cluster_Examples"><a href="Examples-diagram-simplified-grouped-per-namespace.svg" target="_top" title="Examples-diagram-simplified-grouped-per-namespace.svg" xlink:actuate="onRequest" xlink:href="Examples-diagram-simplified-grouped-per-namespace.svg" xlink:show="new" xlink:title="Examples-diagram-simplified-grouped-per-namespace.svg" xlink:type="simple"><path d="M813.75,72.5547 L882.75,72.5547 A3.75,3.75 0 0 1 885.25,75.0547 L892.25,95.043 L1149.75,95.043 A2.5,2.5 0 0 1 1152.25,97.543 L1152.25,593.0547 A2.5,2.5 0 0 1 1149.75,595.5547 L813.75,595.5547 A2.5,2.5 0 0 1 811.25,593.0547 L811.25,75.0547 A2.5,2.5 0 0 1 813.75,72.5547 " fill="none" style="stroke:#000000;stroke-width:1.5;"/><line style="stroke:#000000;stroke-width:1.5;" x1="811.25" x2="892.25" y1="95.043" y2="95.043"/><text fill="#000000" font-family="sans-serif" font-size="14" font-weight="bold" lengthAdjust="spacing" textLength="68" x="815.25" y="88.0898">Examples</text></a></g><!--cluster BetterDesign--><g id="cluster_BetterDesign"><a href="Examples.BetterDesign-diagram-simplified-grouped-per-namespace.svg" target="_top" title="Examples.BetterDesign-diagram-simplified-grouped-per-namespace.svg" xlink:actuate="onRequest" xlink:href="Examples.BetterDesign-diagram-simplified-grouped-per-namespace.svg" xlink:show="new" xlink:title="Examples.BetterDesign-diagram-simplified-grouped-per-namespace.svg" xlink:type="simple"><path d="M837.75,115.5547 L931.75,115.5547 A3.75,3.75 0 0 1 934.25,118.0547 L941.25,138.043 L1125.75,138.043 A2.5,2.5 0 0 1 1128.25,140.543 L1128.25,569.0547 A2.5,2.5 0 0 1 1125.75,571.5547 L837.75,571.5547 A2.5,2.5 0 0 1 835.25,569.0547 L835.25,118.0547 A2.5,2.5 0 0 1 837.75,115.5547 " fill="none" style="stroke:#000000;stroke-width:1.5;"/><line style="stroke:#000000;stroke-width:1.5;" x1="835.25" x2="941.25" y1="138.043" y2="138.043"/><text fill="#000000" font-family="sans-serif" font-size="14" font-weight="bold" lengthAdjust="spacing" textLength="93" x="839.25" y="131.0898">BetterDesign</text></a></g><!--cluster Repository--><g id="cluster_Repository"><a href="Examples.BetterDesign.Repository-diagram-simplified-grouped-per-namespace.svg" target="_top" title="Examples.BetterDesign.Repository-diagram-simplified-grouped-per-namespace.svg" xlink:actuate="onRequest" xlink:href="Examples.BetterDesign.Repository-diagram-simplified-grouped-per-namespace.svg" xlink:show="new" xlink:title="Examples.BetterDesign.Repository-diagram-simplified-grouped-per-namespace.svg" xlink:type="simple"><path d="M861.75,314.5547 L940.75,314.5547 A3.75,3.75 0 0 1 943.25,317.0547 L950.25,337.043 L1101.75,337.043 A2.5,2.5 0 0 1 1104.25,339.543 L1104.25,545.0547 A2.5,2.5 0 0 1 1101.75,547.5547 L861.75,547.5547 A2.5,2.5 0 0 1 859.25,545.0547 L859.25,317.0547 A2.5,2.5 0 0 1 861.75,314.5547 " fill="none" style="stroke:#000000;stroke-width:1.5;"/><line style="stroke:#000000;stroke-width:1.5;" x1="859.25" x2="950.25" y1="337.043" y2="337.043"/><text fill="#000000" font-family="sans-serif" font-size="14" font-weight="bold" lengthAdjust="spacing" textLength="78" x="863.25" y="330.0898">Repository</text></a></g><!--cluster CarExample--><g id="cluster_CarExample"><a href="Examples.BetterDesign.Repository.CarExample-diagram-simplified-grouped-per-namespace.svg" target="_top" title="Examples.BetterDesign.Repository.CarExample-diagram-simplified-grouped-per-namespace.svg" xlink:actuate="onRequest" xlink:href="Examples.BetterDesign.Repository.CarExample-diagram-simplified-grouped-per-namespace.svg" xlink:show="new" xlink:title="Examples.BetterDesign.Repository.CarExample-diagram-simplified-grouped-per-namespace.svg" xlink:type="simple"><path d="M885.75,357.5547 L970.75,357.5547 A3.75,3.75 0 0 1 973.25,360.0547 L980.25,380.043 L1077.75,380.043 A2.5,2.5 0 0 1 1080.25,382.543 L1080.25,521.0547 A2.5,2.5 0 0 1 1077.75,523.5547 L885.75,523.5547 A2.5,2.5 0 0 1 883.25,521.0547 L883.25,360.0547 A2.5,2.5 0 0 1 885.75,357.5547 " fill="none" style="stroke:#000000;stroke-width:1.5;"/><line style="stroke:#000000;stroke-width:1.5;" x1="883.25" x2="980.25" y1="380.043" y2="380.043"/><text fill="#000000" font-family="sans-serif" font-size="14" font-weight="bold" lengthAdjust="spacing" textLength="84" x="887.25" y="373.0898">CarExample</text></a></g><!--cluster WarehouseEntities--><g id="cluster_WarehouseEntities"><a href="Examples.BetterDesign.Repository.CarExample.WarehouseEntities-diagram-simplified-grouped-per-namespace.svg" target="_top" title="Examples.BetterDesign.Repository.CarExample.WarehouseEntities-diagram-simplified-grouped-per-namespace.svg" xlink:actuate="onRequest" xlink:href="Examples.BetterDesign.Repository.CarExample.WarehouseEntities-diagram-simplified-grouped-per-namespace.svg" xlink:show="new" xlink:title="Examples.BetterDesign.Repository.CarExample.WarehouseEntities-diagram-simplified-grouped-per-namespace.svg" xlink:type="simple"><path d="M909.75,400.5547 L1043.75,400.5547 A3.75,3.75 0 0 1 1046.25,403.0547 L1053.25,423.043 L1053.75,423.043 A2.5,2.5 0 0 1 1056.25,425.543 L1056.25,497.0547 A2.5,2.5 0 0 1 1053.75,499.5547 L909.75,499.5547 A2.5,2.5 0 0 1 907.25,497.0547 L907.25,403.0547 A2.5,2.5 0 0 1 909.75,400.5547 " fill="none" style="stroke:#000000;stroke-width:1.5;"/><line style="stroke:#000000;stroke-width:1.5;" x1="907.25" x2="1053.25" y1="423.043" y2="423.043"/><text fill="#000000" font-family="sans-serif" font-size="14" font-weight="bold" lengthAdjust="spacing" textLength="133" x="911.25" y="416.0898">WarehouseEntities</text></a></g><!--class Service--><a href="Examples.BetterDesign.Service-diagram-simplified-grouped-per-namespace.svg" target="_top" title="Examples.BetterDesign.Service-diagram-simplified-grouped-per-namespace.svg" xlink:actuate="onRequest" xlink:href="Examples.BetterDesign.Service-diagram-simplified-grouped-per-namespace.svg" xlink:show="new" xlink:title="Examples.BetterDesign.Service-diagram-simplified-grouped-per-namespace.svg" xlink:type="simple"><g id="elem_Service"><rect codeLine="6" fill="#F1F1F1" height="48" id="Service" rx="2.5" ry="2.5" style="stroke:#181818;stroke-width:0.5;" width="80" x="941.25" y="150.5547"/><ellipse cx="956.25" cy="166.5547" fill="#A9DCDF" rx="11" ry="11" style="stroke:#181818;stroke-width:1.0;"/><path d="M956.1133,161.9028 L954.9595,166.9746 L957.2754,166.9746 Z M954.6191,159.6616 L957.6157,159.6616 L960.9609,172.0547 L958.5122,172.0547 L957.7485,168.9917 L954.4697,168.9917 L953.7227,172.0547 L951.2739,172.0547 Z " fill="#000000"/><text fill="#000000" font-family="sans-serif" font-size="14" font-style="italic" lengthAdjust="spacing" textLength="48" x="970.25" y="171.8457">Service</text><line style="stroke:#181818;stroke-width:0.5;" x1="942.25" x2="1020.25" y1="182.5547" y2="182.5547"/><line style="stroke:#181818;stroke-width:0.5;" x1="942.25" x2="1020.25" y1="190.5547" y2="190.5547"/></g></a><!--class Car--><a href="Examples.BetterDesign.Repository.CarExample.WarehouseEntities.Car-diagram-simplified-grouped-per-namespace.svg" target="_top" title="Examples.BetterDesign.Repository.CarExample.WarehouseEntities.Car-diagram-simplified-grouped-per-namespace.svg" xlink:actuate="onRequest" xlink:href="Examples.BetterDesign.Repository.CarExample.WarehouseEntities.Car-diagram-simplified-grouped-per-namespace.svg" xlink:show="new" xlink:title="Examples.BetterDesign.Repository.CarExample.WarehouseEntities.Car-diagram-simplified-grouped-per-namespace.svg" xlink:type="simple"><g id="elem_Car"><rect codeLine="19" fill="#FFFF00" height="48" id="Car" rx="2.5" ry="2.5" style="stroke:#181818;stroke-width:0.5;" width="56" x="953.25" y="435.5547"/><ellipse cx="968.25" cy="451.5547" fill="#A9DCDF" rx="11" ry="11" style="stroke:#181818;stroke-width:1.0;"/><path d="M968.1133,446.9028 L966.9595,451.9746 L969.2754,451.9746 Z M966.6191,444.6616 L969.6157,444.6616 L972.9609,457.0547 L970.5122,457.0547 L969.7485,453.9917 L966.4697,453.9917 L965.7227,457.0547 L963.2739,457.0547 Z " fill="#000000"/><text fill="#000000" font-family="sans-serif" font-size="14" font-style="italic" lengthAdjust="spacing" textLength="24" x="982.25" y="456.8457">Car</text><line style="stroke:#181818;stroke-width:0.5;" x1="954.25" x2="1008.25" y1="467.5547" y2="467.5547"/><line style="stroke:#181818;stroke-width:0.5;" x1="954.25" x2="1008.25" y1="475.5547" y2="475.5547"/></g></a><g id="elem_FloatingNote"><path d="M9.75,50.5547 L9.75,298.2129 L794.75,298.2129 L794.75,60.5547 L784.75,50.5547 L9.75,50.5547 " fill="#FEFFDD" style="stroke:#181818;stroke-width:0.5;"/><path d="M784.75,50.5547 L784.75,60.5547 L794.75,60.5547 L784.75,50.5547 " fill="#FEFFDD" style="stroke:#181818;stroke-width:1.0;"/><text fill="#000000" font-family="sans-serif" font-size="13" lengthAdjust="spacing" textLength="120" x="15.75" y="68.123">Your are analyzing:</text><text fill="#000000" font-family="sans-serif" font-size="13" lengthAdjust="spacing" textLength="437" x="15.75" y="83.4336">Examples.BetterDesign.Repository.CarExample.WarehouseEntities.Car</text><text fill="#000000" font-family="sans-serif" font-size="13" font-weight="bold" lengthAdjust="spacing" textLength="67" x="456.75" y="83.4336">simplified</text><text fill="#000000" font-family="sans-serif" font-size="13" lengthAdjust="spacing" textLength="23" x="527.75" y="83.4336">and</text><text fill="#000000" font-family="sans-serif" font-size="13" font-weight="bold" lengthAdjust="spacing" textLength="166" x="554.75" y="83.4336">grouped per namespace</text><text fill="#000000" font-family="sans-serif" font-size="13" lengthAdjust="spacing" textLength="4" x="15.75" y="98.7441">&#160;</text><text fill="#000000" font-family="sans-serif" font-size="13" lengthAdjust="spacing" textLength="229" x="15.75" y="129.3652">You can click either the namespaces</text><text fill="#000000" font-family="sans-serif" font-size="13" lengthAdjust="spacing" textLength="266" x="15.75" y="144.6758">or class names for filtering them and their</text><text fill="#000000" font-family="sans-serif" font-size="13" lengthAdjust="spacing" textLength="130" x="15.75" y="159.9863">direct dependencies.</text><text fill="#000000" font-family="sans-serif" font-size="13" lengthAdjust="spacing" textLength="4" x="15.75" y="175.2969">&#160;</text><line style="stroke:#181818;stroke-width:1.0;" x1="10.75" x2="386.25" y1="109.1416" y2="109.1416"/><line style="stroke:#181818;stroke-width:1.0;" x1="10.75" x2="386.25" y1="111.1416" y2="111.1416"/><text fill="#000000" font-family="sans-serif" font-size="13" lengthAdjust="spacing" textLength="32" x="386.25" y="113.5547">Filter</text><line style="stroke:#181818;stroke-width:1.0;" x1="418.25" x2="793.75" y1="109.1416" y2="109.1416"/><line style="stroke:#181818;stroke-width:1.0;" x1="418.25" x2="793.75" y1="111.1416" y2="111.1416"/><ellipse cx="21.25" cy="205.1602" fill="#000000" rx="2.5" ry="2.5" style="stroke:#000000;stroke-width:0.0;"/><text fill="#000000" font-family="sans-serif" font-size="13" lengthAdjust="spacing" textLength="437" x="27.75" y="209.918">Examples.BetterDesign.Repository.CarExample.WarehouseEntities.Car</text><text fill="#000000" font-family="sans-serif" font-size="13" font-weight="bold" lengthAdjust="spacing" textLength="55" x="468.75" y="209.918">detailed</text><text fill="#000000" font-family="sans-serif" font-size="13" lengthAdjust="spacing" textLength="23" x="527.75" y="209.918">and</text><text fill="#000000" font-family="sans-serif" font-size="13" font-weight="bold" lengthAdjust="spacing" textLength="166" x="554.75" y="209.918">grouped per namespace</text><text fill="#000000" font-family="sans-serif" font-size="13" lengthAdjust="spacing" textLength="4" x="720.75" y="209.918">:</text><text fill="#000000" font-family="sans-serif" font-size="13" lengthAdjust="spacing" textLength="12" x="15.75" y="225.2285">&#160;&#160;&#160;</text><a href="Examples.BetterDesign.Repository.CarExample.WarehouseEntities.Car-diagram-detailed-grouped-per-namespace.svg" target="_top" title="Examples.BetterDesign.Repository.CarExample.WarehouseEntities.Car-diagram-detailed-grouped-per-namespace.svg" xlink:actuate="onRequest" xlink:href="Examples.BetterDesign.Repository.CarExample.WarehouseEntities.Car-diagram-detailed-grouped-per-namespace.svg" xlink:show="new" xlink:title="Examples.BetterDesign.Repository.CarExample.WarehouseEntities.Car-diagram-detailed-grouped-per-namespace.svg" xlink:type="simple"><text fill="#0000FF" font-family="sans-serif" font-size="13" lengthAdjust="spacing" text-decoration="underline" textLength="746" x="27.75" y="225.2285">Examples.BetterDesign.Repository.CarExample.WarehouseEntities.Car-diagram-detailed-grouped-per-namespace.svg</text></a><ellipse cx="21.25" cy="235.7813" fill="#000000" rx="2.5" ry="2.5" style="stroke:#000000;stroke-width:0.0;"/><text fill="#000000" font-family="sans-serif" font-size="13" lengthAdjust="spacing" textLength="78" x="27.75" y="240.5391">Full diagram</text><text fill="#000000" font-family="sans-serif" font-size="13" font-weight="bold" lengthAdjust="spacing" textLength="67" x="109.75" y="240.5391">simplified</text><text fill="#000000" font-family="sans-serif" font-size="13" lengthAdjust="spacing" textLength="23" x="180.75" y="240.5391">and</text><text fill="#000000" font-family="sans-serif" font-size="13" font-weight="bold" lengthAdjust="spacing" textLength="166" x="207.75" y="240.5391">grouped per namespace</text><text fill="#000000" font-family="sans-serif" font-size="13" lengthAdjust="spacing" textLength="4" x="373.75" y="240.5391">:</text><text fill="#000000" font-family="sans-serif" font-size="13" lengthAdjust="spacing" textLength="12" x="15.75" y="255.8496">&#160;&#160;&#160;</text><a href="full-diagram-simplified-grouped-per-namespace.svg" target="_top" title="full-diagram-simplified-grouped-per-namespace.svg" xlink:actuate="onRequest" xlink:href="full-diagram-simplified-grouped-per-namespace.svg" xlink:show="new" xlink:title="full-diagram-simplified-grouped-per-namespace.svg" xlink:type="simple"><text fill="#0000FF" font-family="sans-serif" font-size="13" lengthAdjust="spacing" text-decoration="underline" textLength="343" x="27.75" y="255.8496">full-diagram-simplified-grouped-per-namespace.svg</text></a><ellipse cx="21.25" cy="266.4023" fill="#000000" rx="2.5" ry="2.5" style="stroke:#000000;stroke-width:0.0;"/><text fill="#000000" font-family="sans-serif" font-size="13" lengthAdjust="spacing" textLength="41" x="27.75" y="271.1602">Home:</text><text fill="#000000" font-family="sans-serif" font-size="13" lengthAdjust="spacing" textLength="12" x="15.75" y="286.4707">&#160;&#160;&#160;</text><a href="index.html" target="_top" title="index.html" xlink:actuate="onRequest" xlink:href="index.html" xlink:show="new" xlink:title="index.html" xlink:type="simple"><text fill="#0000FF" font-family="sans-serif" font-size="13" lengthAdjust="spacing" text-decoration="underline" textLength="68" x="27.75" y="286.4707">index.html</text></a><line style="stroke:#181818;stroke-width:1.0;" x1="10.75" x2="365.25" y1="189.6943" y2="189.6943"/><line style="stroke:#181818;stroke-width:1.0;" x1="10.75" x2="365.25" y1="191.6943" y2="191.6943"/><text fill="#000000" font-family="sans-serif" font-size="13" lengthAdjust="spacing" textLength="74" x="365.25" y="194.1074">Select other</text><line style="stroke:#181818;stroke-width:1.0;" x1="439.25" x2="793.75" y1="189.6943" y2="189.6943"/><line style="stroke:#181818;stroke-width:1.0;" x1="439.25" x2="793.75" y1="191.6943" y2="191.6943"/></g><!--link Service to Car--><g id="link_Service_Car"><path codeLine="38" d="M981.25,198.8547 C981.25,198.8547 981.25,429.3147 981.25,429.3147 " fill="none" id="Service-to-Car" style="stroke:#6060BB;stroke-width:1.0;stroke-dasharray:7.0,7.0;"/><polygon fill="#6060BB" points="981.25,434.3147,985.25,425.3147,981.25,429.3147,977.25,425.3147,981.25,434.3147" style="stroke:#6060BB;stroke-width:1.0;"/><text fill="#000000" font-family="sans-serif" font-size="13" lengthAdjust="spacing" textLength="29" x="951.25" y="310.653">uses</text></g><!--SRC=[rLPDRzf04BtxLuoIGoHBkAY7753W00tgAOVcK5KOeSKUmoZhNMjt8P0g_xrZFcnNmGKt1BKMGh0xC-_DpinRsoTIcJ0Y1KaAtJf3qCRDjUV8IOGxIo_O-TpktQz4cacqGH-TG_C5BSrKy0qpRSbfimu6mkniWk_2u5mlBDuhZaBin9lW-vPucnB2sFT1g9YNPaOlCemXGmDAf6Wp4Q7ltttASNkUqWxXweTU6E2Ox2Fa-eNKh1Egon8ALQYwtI59XkfsGyMK818A8adH4o2vETlpL-bZ8LJQi86mThiA2VzFDY4uXTmwtO3o3pAXYibWv23635MCAiffRc4VKUOxEWV9mNquH_8nEa7oUEfyrW0m6hqRinMJc76djVR8hHrYYn5R1M9WbxFnECzok90ITawDghMdd7200hLqFuRxLQUu3q5SYrKmTwaSZwz0M1XABHpNxu5RqokSYufK3geXClmy4EwtmwuhGdCW036rpWZkgcs37Yxk8vebCPkwuk_sc-9l2BnwDmETilHm-IwLDpppe08dx817AaN5GvN0XWiC9FSnZwNWdiiCBedRTs8NqqaHPIA97Kkk3reXJ34ItEVvNE_qoP85_YIaoCun3YgnIzzg6jxhGPDzohpzlxRP4Q2AU9oWBny9Nz6kPaft8L9l1VMzWlmtch5zJbAE9bVHEQ-M4xEvNgEK-hcILGCv-cTBL2TlHOON5hat6TKeNNa8DGRbWTKOD9DJkE5NXvCU-33Rd68-FWOblqvePG5Ncx7Y_akCJalc7ROzs4VUdo_jO7Hzsxvjz_lZe7U6AOKEy98z2_DJWNy1]--></g></svg>