<?xml version="1.0" encoding="us-ascii" standalone="no"?><svg xmlns="http://www.w3.org/2000/svg" xmlns:xlink="http://www.w3.org/1999/xlink" contentStyleType="text/css" height="818px" preserveAspectRatio="none" style="width:1837px;height:818px;background:#FFFFFF;" version="1.1" viewBox="0 0 1837 818" width="1837px" zoomAndPan="magnify"><defs/><g><text fill="#000000" font-family="sans-serif" font-size="20" font-weight="bold" lengthAdjust="spacing" textLength="491" x="617" y="29.3359">Examples.BadDesign.CarExample.CarParts.Seats</text><text fill="#000000" font-family="sans-serif" font-size="20" font-weight="bold" lengthAdjust="spacing" textLength="84" x="1115" y="29.3359">detailed</text><text fill="#000000" font-family="sans-serif" font-size="20" font-weight="bold" lengthAdjust="spacing" textLength="7" x="1199" y="29.3359">&#160;</text><!--cluster Examples--><g id="cluster_Examples"><path d="M520.5,50.5547 L589.5,50.5547 A3.75,3.75 0 0 1 592,53.0547 L599,73.043 L1827.5,73.043 A2.5,2.5 0 0 1 1830,75.543 L1830,809.0547 A2.5,2.5 0 0 1 1827.5,811.5547 L520.5,811.5547 A2.5,2.5 0 0 1 518,809.0547 L518,53.0547 A2.5,2.5 0 0 1 520.5,50.5547 " fill="none" style="stroke:#000000;stroke-width:1.5;"/><line style="stroke:#000000;stroke-width:1.5;" x1="518" x2="599" y1="73.043" y2="73.043"/><text fill="#000000" font-family="sans-serif" font-size="14" font-weight="bold" lengthAdjust="spacing" textLength="68" x="522" y="66.0898">Examples</text></g><!--cluster BadDesign--><g id="cluster_BadDesign"><path d="M544.5,93.5547 L621.5,93.5547 A3.75,3.75 0 0 1 624,96.0547 L631,116.043 L1803.5,116.043 A2.5,2.5 0 0 1 1806,118.543 L1806,785.0547 A2.5,2.5 0 0 1 1803.5,787.5547 L544.5,787.5547 A2.5,2.5 0 0 1 542,785.0547 L542,96.0547 A2.5,2.5 0 0 1 544.5,93.5547 " fill="none" style="stroke:#000000;stroke-width:1.5;"/><line style="stroke:#000000;stroke-width:1.5;" x1="542" x2="631" y1="116.043" y2="116.043"/><text fill="#000000" font-family="sans-serif" font-size="14" font-weight="bold" lengthAdjust="spacing" textLength="76" x="546" y="109.0898">BadDesign</text></g><!--cluster CarExample--><g id="cluster_CarExample"><path d="M568.5,136.5547 L653.5,136.5547 A3.75,3.75 0 0 1 656,139.0547 L663,159.043 L1779.5,159.043 A2.5,2.5 0 0 1 1782,161.543 L1782,761.0547 A2.5,2.5 0 0 1 1779.5,763.5547 L568.5,763.5547 A2.5,2.5 0 0 1 566,761.0547 L566,139.0547 A2.5,2.5 0 0 1 568.5,136.5547 " fill="none" style="stroke:#000000;stroke-width:1.5;"/><line style="stroke:#000000;stroke-width:1.5;" x1="566" x2="663" y1="159.043" y2="159.043"/><text fill="#000000" font-family="sans-serif" font-size="14" font-weight="bold" lengthAdjust="spacing" textLength="84" x="570" y="152.0898">CarExample</text></g><!--cluster CarParts--><g id="cluster_CarParts"><path d="M1424.5,603.0547 L1486.5,603.0547 A3.75,3.75 0 0 1 1489,605.5547 L1496,625.543 L1755.5,625.543 A2.5,2.5 0 0 1 1758,628.043 L1758,732.5547 A2.5,2.5 0 0 1 1755.5,735.0547 L1424.5,735.0547 A2.5,2.5 0 0 1 1422,732.5547 L1422,605.5547 A2.5,2.5 0 0 1 1424.5,603.0547 " fill="none" style="stroke:#000000;stroke-width:1.5;"/><line style="stroke:#000000;stroke-width:1.5;" x1="1422" x2="1496" y1="625.543" y2="625.543"/><text fill="#000000" font-family="sans-serif" font-size="14" font-weight="bold" lengthAdjust="spacing" textLength="61" x="1426" y="618.5898">CarParts</text></g><!--class DB--><a href="Examples.BadDesign.CarExample.DB-diagram-detailed.svg" target="_top" title="Examples.BadDesign.CarExample.DB-diagram-detailed.svg" xlink:actuate="onRequest" xlink:href="Examples.BadDesign.CarExample.DB-diagram-detailed.svg" xlink:show="new" xlink:title="Examples.BadDesign.CarExample.DB-diagram-detailed.svg" xlink:type="simple"><g id="elem_DB"><rect codeLine="4" fill="#F1F1F1" height="377.7656" id="DB" rx="2.5" ry="2.5" style="stroke:#181818;stroke-width:0.5;" width="1183" x="582.5" y="171.5547"/><ellipse cx="1160.75" cy="187.5547" fill="#A9DCDF" rx="11" ry="11" style="stroke:#181818;stroke-width:1.0;"/><path d="M1160.6133,182.9028 L1159.4595,187.9746 L1161.7754,187.9746 Z M1159.1191,180.6616 L1162.1157,180.6616 L1165.4609,193.0547 L1163.0122,193.0547 L1162.2485,189.9917 L1158.9697,189.9917 L1158.2227,193.0547 L1155.7739,193.0547 Z " fill="#000000"/><text fill="#000000" font-family="sans-serif" font-size="14" font-style="italic" lengthAdjust="spacing" textLength="18" x="1181.25" y="192.8457">DB</text><line style="stroke:#181818;stroke-width:0.5;" x1="583.5" x2="1764.5" y1="203.5547" y2="203.5547"/><line style="stroke:#181818;stroke-width:0.5;" x1="583.5" x2="1764.5" y1="211.5547" y2="211.5547"/><rect fill="#F24D5C" height="6" style="stroke:#C82930;stroke-width:1.0;" width="6" x="590.5" y="222.2988"/><text fill="#000000" font-family="sans-serif" font-size="14" lengthAdjust="spacing" textLength="27" x="602.5" y="229.0898">get(</text><text fill="#000000" font-family="sans-serif" font-size="14" lengthAdjust="spacing" textLength="9" x="629.5" y="229.0898">):</text><text fill="#BB6060" font-family="sans-serif" font-size="14" lengthAdjust="spacing" textLength="51" x="642.5" y="229.0898">String[]</text><rect fill="#F24D5C" height="6" style="stroke:#C82930;stroke-width:1.0;" width="6" x="590.5" y="238.7871"/><text fill="#000000" font-family="sans-serif" font-size="14" lengthAdjust="spacing" textLength="101" x="602.5" y="245.5781">getCarsWhere(</text><text fill="#000000" font-family="sans-serif" font-size="14" lengthAdjust="spacing" textLength="9" x="703.5" y="245.5781">):</text><text fill="#BB6060" font-family="sans-serif" font-size="14" lengthAdjust="spacing" textLength="51" x="716.5" y="245.5781">String[]</text><rect fill="#F24D5C" height="6" style="stroke:#C82930;stroke-width:1.0;" width="6" x="590.5" y="255.2754"/><text fill="#000000" font-family="sans-serif" font-size="14" lengthAdjust="spacing" textLength="25" x="602.5" y="262.0664">set(</text><text fill="#000000" font-family="sans-serif" font-size="14" lengthAdjust="spacing" textLength="9" x="627.5" y="262.0664">):</text><text fill="#BB6060" font-family="sans-serif" font-size="14" lengthAdjust="spacing" textLength="29" x="640.5" y="262.0664">void</text><rect fill="#F24D5C" height="6" style="stroke:#C82930;stroke-width:1.0;" width="6" x="590.5" y="271.7637"/><text fill="#000000" font-family="sans-serif" font-size="14" lengthAdjust="spacing" textLength="53" x="602.5" y="278.5547">update(</text><text fill="#000000" font-family="sans-serif" font-size="14" lengthAdjust="spacing" textLength="9" x="655.5" y="278.5547">):</text><text fill="#BB6060" font-family="sans-serif" font-size="14" lengthAdjust="spacing" textLength="29" x="668.5" y="278.5547">void</text><rect fill="#F24D5C" height="6" style="stroke:#C82930;stroke-width:1.0;" width="6" x="590.5" y="288.252"/><text fill="#000000" font-family="sans-serif" font-size="14" lengthAdjust="spacing" textLength="101" x="602.5" y="295.043">getUserWhere(</text><text fill="#000000" font-family="sans-serif" font-size="14" lengthAdjust="spacing" textLength="9" x="703.5" y="295.043">):</text><text fill="#BB6060" font-family="sans-serif" font-size="14" lengthAdjust="spacing" textLength="394" x="716.5" y="295.043">Examples.BadDesign.CarExample.WarehouseEntities.User</text><rect fill="#F24D5C" height="6" style="stroke:#C82930;stroke-width:1.0;" width="6" x="590.5" y="304.7402"/><text fill="#000000" font-family="sans-serif" font-size="14" lengthAdjust="spacing" textLength="137" x="602.5" y="311.5313">getCustomerWhere(</text><text fill="#000000" font-family="sans-serif" font-size="14" lengthAdjust="spacing" textLength="9" x="739.5" y="311.5313">):</text><text fill="#BB6060" font-family="sans-serif" font-size="14" lengthAdjust="spacing" textLength="430" x="752.5" y="311.5313">Examples.BadDesign.CarExample.WarehouseEntities.Customer</text><rect fill="#F24D5C" height="6" style="stroke:#C82930;stroke-width:1.0;" width="6" x="590.5" y="321.2285"/><text fill="#000000" font-family="sans-serif" font-size="14" lengthAdjust="spacing" textLength="170" x="602.5" y="328.0195">getWarehouseCarWhere(</text><text fill="#000000" font-family="sans-serif" font-size="14" lengthAdjust="spacing" textLength="9" x="772.5" y="328.0195">):</text><text fill="#BB6060" font-family="sans-serif" font-size="14" lengthAdjust="spacing" textLength="387" x="785.5" y="328.0195">Examples.BadDesign.CarExample.WarehouseEntities.Car</text><rect fill="#F24D5C" height="6" style="stroke:#C82930;stroke-width:1.0;" width="6" x="590.5" y="337.7168"/><text fill="#000000" font-family="sans-serif" font-size="14" lengthAdjust="spacing" textLength="118" x="602.5" y="344.5078">getInvoiceWhere(</text><text fill="#000000" font-family="sans-serif" font-size="14" lengthAdjust="spacing" textLength="9" x="720.5" y="344.5078">):</text><text fill="#BB6060" font-family="sans-serif" font-size="14" lengthAdjust="spacing" textLength="411" x="733.5" y="344.5078">Examples.BadDesign.CarExample.WarehouseEntities.Invoice</text><rect fill="#F24D5C" height="6" style="stroke:#C82930;stroke-width:1.0;" width="6" x="590.5" y="354.2051"/><text fill="#000000" font-family="sans-serif" font-size="14" lengthAdjust="spacing" textLength="148" x="602.5" y="360.9961">getComplaintsWhere(</text><text fill="#000000" font-family="sans-serif" font-size="14" lengthAdjust="spacing" textLength="9" x="750.5" y="360.9961">):</text><text fill="#BB6060" font-family="sans-serif" font-size="14" lengthAdjust="spacing" textLength="441" x="763.5" y="360.9961">Examples.BadDesign.CarExample.WarehouseEntities.Complaints</text><rect fill="#F24D5C" height="6" style="stroke:#C82930;stroke-width:1.0;" width="6" x="590.5" y="370.6934"/><text fill="#000000" font-family="sans-serif" font-size="14" lengthAdjust="spacing" textLength="167" x="602.5" y="377.4844">getFirstCustomerWhere(</text><text fill="#000000" font-family="sans-serif" font-size="14" lengthAdjust="spacing" textLength="9" x="769.5" y="377.4844">):</text><text fill="#BB6060" font-family="sans-serif" font-size="14" lengthAdjust="spacing" textLength="430" x="782.5" y="377.4844">Examples.BadDesign.CarExample.WarehouseEntities.Customer</text><rect fill="#F24D5C" height="6" style="stroke:#C82930;stroke-width:1.0;" width="6" x="590.5" y="387.1816"/><text fill="#000000" font-family="sans-serif" font-size="14" lengthAdjust="spacing" textLength="194" x="602.5" y="393.9727">getUserFromWarehouseCar(</text><text fill="#6060BB" font-family="sans-serif" font-size="14" lengthAdjust="spacing" textLength="421" x="796.5" y="393.9727">item:Examples.BadDesign.CarExample.WarehouseEntities.Car</text><text fill="#000000" font-family="sans-serif" font-size="14" lengthAdjust="spacing" textLength="9" x="1217.5" y="393.9727">):</text><text fill="#BB6060" font-family="sans-serif" font-size="14" lengthAdjust="spacing" textLength="394" x="1230.5" y="393.9727">Examples.BadDesign.CarExample.WarehouseEntities.User</text><rect fill="#F24D5C" height="6" style="stroke:#C82930;stroke-width:1.0;" width="6" x="590.5" y="403.6699"/><text fill="#000000" font-family="sans-serif" font-size="14" lengthAdjust="spacing" textLength="201" x="602.5" y="410.4609">getCustomerFromComplaint(</text><text fill="#6060BB" font-family="sans-serif" font-size="14" lengthAdjust="spacing" textLength="513" x="803.5" y="410.4609">complaint:Examples.BadDesign.CarExample.WarehouseEntities.Complaints</text><text fill="#000000" font-family="sans-serif" font-size="14" lengthAdjust="spacing" textLength="9" x="1316.5" y="410.4609">):</text><text fill="#BB6060" font-family="sans-serif" font-size="14" lengthAdjust="spacing" textLength="430" x="1329.5" y="410.4609">Examples.BadDesign.CarExample.WarehouseEntities.Customer</text><rect fill="#F24D5C" height="6" style="stroke:#C82930;stroke-width:1.0;" width="6" x="590.5" y="420.1582"/><text fill="#000000" font-family="sans-serif" font-size="14" lengthAdjust="spacing" textLength="194" x="602.5" y="426.9492">getWarehouseCarFromUser(</text><text fill="#6060BB" font-family="sans-serif" font-size="14" lengthAdjust="spacing" textLength="421" x="796.5" y="426.9492">user:Examples.BadDesign.CarExample.WarehouseEntities.Car</text><text fill="#000000" font-family="sans-serif" font-size="14" lengthAdjust="spacing" textLength="9" x="1217.5" y="426.9492">):</text><text fill="#BB6060" font-family="sans-serif" font-size="14" lengthAdjust="spacing" textLength="257" x="1230.5" y="426.9492">Examples.BadDesign.CarExample.Car</text><rect fill="#F24D5C" height="6" style="stroke:#C82930;stroke-width:1.0;" width="6" x="590.5" y="436.6465"/><text fill="#000000" font-family="sans-serif" font-size="14" lengthAdjust="spacing" textLength="178" x="602.5" y="443.4375">getInvoiceFromCustomer(</text><text fill="#6060BB" font-family="sans-serif" font-size="14" lengthAdjust="spacing" textLength="441" x="780.5" y="443.4375">c:Examples.BadDesign.CarExample.WarehouseEntities.Customer</text><text fill="#000000" font-family="sans-serif" font-size="14" lengthAdjust="spacing" textLength="9" x="1221.5" y="443.4375">):</text><text fill="#BB6060" font-family="sans-serif" font-size="14" lengthAdjust="spacing" textLength="411" x="1234.5" y="443.4375">Examples.BadDesign.CarExample.WarehouseEntities.Invoice</text><rect fill="#F24D5C" height="6" style="stroke:#C82930;stroke-width:1.0;" width="6" x="590.5" y="453.1348"/><text fill="#000000" font-family="sans-serif" font-size="14" lengthAdjust="spacing" textLength="241" x="602.5" y="459.9258">getComplaintsFromWarehouseCar(</text><text fill="#6060BB" font-family="sans-serif" font-size="14" lengthAdjust="spacing" textLength="421" x="843.5" y="459.9258">item:Examples.BadDesign.CarExample.WarehouseEntities.Car</text><text fill="#000000" font-family="sans-serif" font-size="14" lengthAdjust="spacing" textLength="9" x="1264.5" y="459.9258">):</text><text fill="#BB6060" font-family="sans-serif" font-size="14" lengthAdjust="spacing" textLength="441" x="1277.5" y="459.9258">Examples.BadDesign.CarExample.WarehouseEntities.Complaints</text><rect fill="#F24D5C" height="6" style="stroke:#C82930;stroke-width:1.0;" width="6" x="590.5" y="469.623"/><text fill="#000000" font-family="sans-serif" font-size="14" lengthAdjust="spacing" textLength="128" x="602.5" y="476.4141">getCarFromDriver(</text><text fill="#6060BB" font-family="sans-serif" font-size="14" lengthAdjust="spacing" textLength="349" x="730.5" y="476.4141">d:Examples.BadDesign.CarExample.CarParts.Driver</text><text fill="#000000" font-family="sans-serif" font-size="14" lengthAdjust="spacing" textLength="9" x="1079.5" y="476.4141">):</text><text fill="#BB6060" font-family="sans-serif" font-size="14" lengthAdjust="spacing" textLength="257" x="1092.5" y="476.4141">Examples.BadDesign.CarExample.Car</text><rect fill="#F24D5C" height="6" style="stroke:#C82930;stroke-width:1.0;" width="6" x="590.5" y="486.1113"/><text fill="#000000" font-family="sans-serif" font-size="14" lengthAdjust="spacing" textLength="128" x="602.5" y="492.9023">getDriverFromCar(</text><text fill="#6060BB" font-family="sans-serif" font-size="14" lengthAdjust="spacing" textLength="268" x="730.5" y="492.9023">c:Examples.BadDesign.CarExample.Car</text><text fill="#000000" font-family="sans-serif" font-size="14" lengthAdjust="spacing" textLength="9" x="998.5" y="492.9023">):</text><text fill="#BB6060" font-family="sans-serif" font-size="14" lengthAdjust="spacing" textLength="336" x="1011.5" y="492.9023">Examples.BadDesign.CarExample.CarParts.Driver</text><rect fill="#F24D5C" height="6" style="stroke:#C82930;stroke-width:1.0;" width="6" x="590.5" y="502.5996"/><text fill="#000000" font-family="sans-serif" font-size="14" lengthAdjust="spacing" textLength="135" x="602.5" y="509.3906">getWheelsFromCar(</text><text fill="#6060BB" font-family="sans-serif" font-size="14" lengthAdjust="spacing" textLength="268" x="737.5" y="509.3906">c:Examples.BadDesign.CarExample.Car</text><text fill="#000000" font-family="sans-serif" font-size="14" lengthAdjust="spacing" textLength="9" x="1005.5" y="509.3906">):</text><text fill="#BB6060" font-family="sans-serif" font-size="14" lengthAdjust="spacing" textLength="343" x="1018.5" y="509.3906">Examples.BadDesign.CarExample.CarParts.Wheels</text><rect fill="#F24D5C" height="6" style="stroke:#C82930;stroke-width:1.0;" width="6" x="590.5" y="519.0879"/><text fill="#000000" font-family="sans-serif" font-size="14" lengthAdjust="spacing" textLength="128" x="602.5" y="525.8789">getDoorsFromCar(</text><text fill="#6060BB" font-family="sans-serif" font-size="14" lengthAdjust="spacing" textLength="268" x="730.5" y="525.8789">c:Examples.BadDesign.CarExample.Car</text><text fill="#000000" font-family="sans-serif" font-size="14" lengthAdjust="spacing" textLength="9" x="998.5" y="525.8789">):</text><text fill="#BB6060" font-family="sans-serif" font-size="14" lengthAdjust="spacing" textLength="336" x="1011.5" y="525.8789">Examples.BadDesign.CarExample.CarParts.Doors</text><rect fill="#F24D5C" height="6" style="stroke:#C82930;stroke-width:1.0;" width="6" x="590.5" y="535.5762"/><text fill="#000000" font-family="sans-serif" font-size="14" lengthAdjust="spacing" textLength="123" x="602.5" y="542.3672">getSeatsFromCar(</text><text fill="#6060BB" font-family="sans-serif" font-size="14" lengthAdjust="spacing" textLength="268" x="725.5" y="542.3672">c:Examples.BadDesign.CarExample.Car</text><text fill="#000000" font-family="sans-serif" font-size="14" lengthAdjust="spacing" textLength="9" x="993.5" y="542.3672">):</text><text fill="#BB6060" font-family="sans-serif" font-size="14" lengthAdjust="spacing" textLength="331" x="1006.5" y="542.3672">Examples.BadDesign.CarExample.CarParts.Seats</text></g></a><!--class Car--><a href="Examples.BadDesign.CarExample.Car-diagram-detailed.svg" target="_top" title="Examples.BadDesign.CarExample.Car-diagram-detailed.svg" xlink:actuate="onRequest" xlink:href="Examples.BadDesign.CarExample.Car-diagram-detailed.svg" xlink:show="new" xlink:title="Examples.BadDesign.CarExample.Car-diagram-detailed.svg" xlink:type="simple"><g id="elem_Car"><rect codeLine="26" fill="#F1F1F1" height="138.4414" id="Car" rx="2.5" ry="2.5" style="stroke:#181818;stroke-width:0.5;" width="519" x="884.5" y="609.5547"/><ellipse cx="1127.75" cy="625.5547" fill="#A9DCDF" rx="11" ry="11" style="stroke:#181818;stroke-width:1.0;"/><path d="M1127.6133,620.9028 L1126.4595,625.9746 L1128.7754,625.9746 Z M1126.1191,618.6616 L1129.1157,618.6616 L1132.4609,631.0547 L1130.0122,631.0547 L1129.2485,627.9917 L1125.9697,627.9917 L1125.2227,631.0547 L1122.7739,631.0547 Z " fill="#000000"/><text fill="#000000" font-family="sans-serif" font-size="14" font-style="italic" lengthAdjust="spacing" textLength="24" x="1148.25" y="630.8457">Car</text><line style="stroke:#181818;stroke-width:0.5;" x1="885.5" x2="1402.5" y1="641.5547" y2="641.5547"/><ellipse cx="895.5" cy="655.2988" fill="none" rx="3" ry="3" style="stroke:#038048;stroke-width:1.0;"/><text fill="#000000" font-family="sans-serif" font-size="14" lengthAdjust="spacing" textLength="398" x="904.5" y="659.0898">wheels: Examples.BadDesign.CarExample.CarParts.Wheels</text><ellipse cx="895.5" cy="671.7871" fill="none" rx="3" ry="3" style="stroke:#038048;stroke-width:1.0;"/><text fill="#000000" font-family="sans-serif" font-size="14" lengthAdjust="spacing" textLength="337" x="904.5" y="675.5781">vehicle: Examples.BadDesign.CarExample.Vehicle</text><ellipse cx="895.5" cy="688.2754" fill="none" rx="3" ry="3" style="stroke:#038048;stroke-width:1.0;"/><text fill="#000000" font-family="sans-serif" font-size="14" lengthAdjust="spacing" textLength="277" x="904.5" y="692.0664">db: Examples.BadDesign.CarExample.DB</text><line style="stroke:#181818;stroke-width:1.0;" x1="885.5" x2="1402.5" y1="699.0195" y2="699.0195"/><line style="stroke:#181818;stroke-width:1.0;" x1="885.5" x2="1402.5" y1="701.0195" y2="701.0195"/><rect fill="#F24D5C" height="6" style="stroke:#C82930;stroke-width:1.0;" width="6" x="892.5" y="709.7637"/><text fill="#000000" font-family="sans-serif" font-size="14" lengthAdjust="spacing" textLength="71" x="904.5" y="716.5547">createCar(</text><text fill="#6060BB" font-family="sans-serif" font-size="14" lengthAdjust="spacing" textLength="380" x="975.5" y="716.5547">doors:Examples.BadDesign.CarExample.CarParts.Doors</text><text fill="#000000" font-family="sans-serif" font-size="14" lengthAdjust="spacing" textLength="9" x="1355.5" y="716.5547">):</text><text fill="#BB6060" font-family="sans-serif" font-size="14" lengthAdjust="spacing" textLength="29" x="1368.5" y="716.5547">void</text><rect fill="none" height="6" style="stroke:#C82930;stroke-width:1.0;" width="6" x="892.5" y="726.252"/><text fill="#909090" font-family="sans-serif" font-size="14" lengthAdjust="spacing" textLength="444" x="904.5" y="733.043">createCar.seats: Examples.BadDesign.CarExample.CarParts.Seats</text><line style="stroke:#181818;stroke-width:1.0;" x1="885.5" x2="1402.5" y1="739.9961" y2="739.9961"/></g></a><!--class Seats--><a href="Examples.BadDesign.CarExample.CarParts.Seats-diagram-detailed.svg" target="_top" title="Examples.BadDesign.CarExample.CarParts.Seats-diagram-detailed.svg" xlink:actuate="onRequest" xlink:href="Examples.BadDesign.CarExample.CarParts.Seats-diagram-detailed.svg" xlink:show="new" xlink:title="Examples.BadDesign.CarExample.CarParts.Seats-diagram-detailed.svg" xlink:type="simple"><g id="elem_Seats"><rect codeLine="35" fill="#FFFF00" height="80.9766" id="Seats" rx="2.5" ry="2.5" style="stroke:#181818;stroke-width:0.5;" width="303" x="1438.5" y="638.0547"/><ellipse cx="1567.75" cy="654.0547" fill="#A9DCDF" rx="11" ry="11" style="stroke:#181818;stroke-width:1.0;"/><path d="M1567.6133,649.4028 L1566.4595,654.4746 L1568.7754,654.4746 Z M1566.1191,647.1616 L1569.1157,647.1616 L1572.4609,659.5547 L1570.0122,659.5547 L1569.2485,656.4917 L1565.9697,656.4917 L1565.2227,659.5547 L1562.7739,659.5547 Z " fill="#000000"/><text fill="#000000" font-family="sans-serif" font-size="14" font-style="italic" lengthAdjust="spacing" textLength="36" x="1588.25" y="659.3457">Seats</text><line style="stroke:#181818;stroke-width:0.5;" x1="1439.5" x2="1740.5" y1="670.0547" y2="670.0547"/><ellipse cx="1449.5" cy="683.7988" fill="none" rx="3" ry="3" style="stroke:#038048;stroke-width:1.0;"/><text fill="#000000" font-family="sans-serif" font-size="14" lengthAdjust="spacing" textLength="277" x="1458.5" y="687.5898">db: Examples.BadDesign.CarExample.DB</text><line style="stroke:#181818;stroke-width:1.0;" x1="1439.5" x2="1740.5" y1="694.543" y2="694.543"/><line style="stroke:#181818;stroke-width:1.0;" x1="1439.5" x2="1740.5" y1="696.543" y2="696.543"/><rect fill="#F24D5C" height="6" style="stroke:#C82930;stroke-width:1.0;" width="6" x="1446.5" y="705.2871"/><text fill="#000000" font-family="sans-serif" font-size="14" lengthAdjust="spacing" textLength="74" x="1458.5" y="712.0781">getWeight(</text><text fill="#000000" font-family="sans-serif" font-size="14" lengthAdjust="spacing" textLength="9" x="1532.5" y="712.0781">):</text><text fill="#BB6060" font-family="sans-serif" font-size="14" lengthAdjust="spacing" textLength="18" x="1545.5" y="712.0781">int</text></g></a><g id="elem_FloatingNote"><path d="M6,236.5547 L6,484.2129 L502,484.2129 L502,246.5547 L492,236.5547 L6,236.5547 " fill="#FEFFDD" style="stroke:#181818;stroke-width:0.5;"/><path d="M492,236.5547 L492,246.5547 L502,246.5547 L492,236.5547 " fill="#FEFFDD" style="stroke:#181818;stroke-width:1.0;"/><text fill="#000000" font-family="sans-serif" font-size="13" lengthAdjust="spacing" textLength="120" x="12" y="254.123">Your are analyzing:</text><text fill="#000000" font-family="sans-serif" font-size="13" lengthAdjust="spacing" textLength="301" x="12" y="269.4336">Examples.BadDesign.CarExample.CarParts.Seats</text><text fill="#000000" font-family="sans-serif" font-size="13" font-weight="bold" lengthAdjust="spacing" textLength="55" x="317" y="269.4336">detailed</text><text fill="#000000" font-family="sans-serif" font-size="13" lengthAdjust="spacing" textLength="4" x="372" y="269.4336">&#160;</text><text fill="#000000" font-family="sans-serif" font-size="13" lengthAdjust="spacing" textLength="4" x="12" y="284.7441">&#160;</text><text fill="#000000" font-family="sans-serif" font-size="13" lengthAdjust="spacing" textLength="229" x="12" y="315.3652">You can click either the namespaces</text><text fill="#000000" font-family="sans-serif" font-size="13" lengthAdjust="spacing" textLength="266" x="12" y="330.6758">or class names for filtering them and their</text><text fill="#000000" font-family="sans-serif" font-size="13" lengthAdjust="spacing" textLength="130" x="12" y="345.9863">direct dependencies.</text><text fill="#000000" font-family="sans-serif" font-size="13" lengthAdjust="spacing" textLength="4" x="12" y="361.2969">&#160;</text><line style="stroke:#181818;stroke-width:1.0;" x1="7" x2="238" y1="295.1416" y2="295.1416"/><line style="stroke:#181818;stroke-width:1.0;" x1="7" x2="238" y1="297.1416" y2="297.1416"/><text fill="#000000" font-family="sans-serif" font-size="13" lengthAdjust="spacing" textLength="32" x="238" y="299.5547">Filter</text><line style="stroke:#181818;stroke-width:1.0;" x1="270" x2="501" y1="295.1416" y2="295.1416"/><line style="stroke:#181818;stroke-width:1.0;" x1="270" x2="501" y1="297.1416" y2="297.1416"/><ellipse cx="17.5" cy="391.1602" fill="#000000" rx="2.5" ry="2.5" style="stroke:#000000;stroke-width:0.0;"/><text fill="#000000" font-family="sans-serif" font-size="13" lengthAdjust="spacing" textLength="301" x="24" y="395.918">Examples.BadDesign.CarExample.CarParts.Seats</text><text fill="#000000" font-family="sans-serif" font-size="13" font-weight="bold" lengthAdjust="spacing" textLength="67" x="329" y="395.918">simplified</text><text fill="#000000" font-family="sans-serif" font-size="13" lengthAdjust="spacing" textLength="4" x="400" y="395.918">:</text><text fill="#000000" font-family="sans-serif" font-size="13" lengthAdjust="spacing" textLength="12" x="12" y="411.2285">&#160;&#160;&#160;</text><a href="Examples.BadDesign.CarExample.CarParts.Seats-diagram-simplified.svg" target="_top" title="Examples.BadDesign.CarExample.CarParts.Seats-diagram-simplified.svg" xlink:actuate="onRequest" xlink:href="Examples.BadDesign.CarExample.CarParts.Seats-diagram-simplified.svg" xlink:show="new" xlink:title="Examples.BadDesign.CarExample.CarParts.Seats-diagram-simplified.svg" xlink:type="simple"><text fill="#0000FF" font-family="sans-serif" font-size="13" lengthAdjust="spacing" text-decoration="underline" textLength="457" x="24" y="411.2285">Examples.BadDesign.CarExample.CarParts.Seats-diagram-simplified.svg</text></a><ellipse cx="17.5" cy="421.7813" fill="#000000" rx="2.5" ry="2.5" style="stroke:#000000;stroke-width:0.0;"/><text fill="#000000" font-family="sans-serif" font-size="13" lengthAdjust="spacing" textLength="78" x="24" y="426.5391">Full diagram</text><text fill="#000000" font-family="sans-serif" font-size="13" font-weight="bold" lengthAdjust="spacing" textLength="55" x="106" y="426.5391">detailed</text><text fill="#000000" font-family="sans-serif" font-size="13" lengthAdjust="spacing" textLength="23" x="165" y="426.5391">and</text><text fill="#000000" font-family="sans-serif" font-size="13" font-weight="bold" lengthAdjust="spacing" textLength="166" x="192" y="426.5391">grouped per namespace</text><text fill="#000000" font-family="sans-serif" font-size="13" lengthAdjust="spacing" textLength="4" x="358" y="426.5391">:</text><text fill="#000000" font-family="sans-serif" font-size="13" lengthAdjust="spacing" textLength="12" x="12" y="441.8496">&#160;&#160;&#160;</text><a href="full-diagram-detailed-grouped-per-namespace.svg" target="_top" title="full-diagram-detailed-grouped-per-namespace.svg" xlink:actuate="onRequest" xlink:href="full-diagram-detailed-grouped-per-namespace.svg" xlink:show="new" xlink:title="full-diagram-detailed-grouped-per-namespace.svg" xlink:type="simple"><text fill="#0000FF" font-family="sans-serif" font-size="13" lengthAdjust="spacing" text-decoration="underline" textLength="330" x="24" y="441.8496">full-diagram-detailed-grouped-per-namespace.svg</text></a><ellipse cx="17.5" cy="452.4023" fill="#000000" rx="2.5" ry="2.5" style="stroke:#000000;stroke-width:0.0;"/><text fill="#000000" font-family="sans-serif" font-size="13" lengthAdjust="spacing" textLength="41" x="24" y="457.1602">Home:</text><text fill="#000000" font-family="sans-serif" font-size="13" lengthAdjust="spacing" textLength="12" x="12" y="472.4707">&#160;&#160;&#160;</text><a href="index.html" target="_top" title="index.html" xlink:actuate="onRequest" xlink:href="index.html" xlink:show="new" xlink:title="index.html" xlink:type="simple"><text fill="#0000FF" font-family="sans-serif" font-size="13" lengthAdjust="spacing" text-decoration="underline" textLength="68" x="24" y="472.4707">index.html</text></a><line style="stroke:#181818;stroke-width:1.0;" x1="7" x2="217" y1="375.6943" y2="375.6943"/><line style="stroke:#181818;stroke-width:1.0;" x1="7" x2="217" y1="377.6943" y2="377.6943"/><text fill="#000000" font-family="sans-serif" font-size="13" lengthAdjust="spacing" textLength="74" x="217" y="380.1074">Select other</text><line style="stroke:#181818;stroke-width:1.0;" x1="291" x2="501" y1="375.6943" y2="375.6943"/><line style="stroke:#181818;stroke-width:1.0;" x1="291" x2="501" y1="377.6943" y2="377.6943"/></g><!--link DB to Car--><g id="link_DB_Car"><path codeLine="45" d="M1057.5,549.6747 C1057.5,549.6747 1057.5,603.1347 1057.5,603.1347 " fill="none" id="DB-to-Car" style="stroke:#6060BB;stroke-width:1.0;stroke-dasharray:7.0,7.0;"/><polygon fill="#6060BB" points="1057.5,608.1347,1061.5,599.1347,1057.5,603.1347,1053.5,599.1347,1057.5,608.1347" style="stroke:#6060BB;stroke-width:1.0;"/><text fill="#000000" font-family="sans-serif" font-size="13" lengthAdjust="spacing" textLength="29" x="1027.5" y="572.973">uses</text></g><!--reverse link Car to DB--><g id="link_Car_DB"><path codeLine="47" d="M1230.5,595.1647 C1230.5,595.1647 1230.5,549.8747 1230.5,549.8747 " fill="none" id="Car-backto-DB" style="stroke:#10BB10;stroke-width:1.0;"/><polygon fill="#10BB10" points="1230.5,608.1647,1234.5,602.1647,1230.5,596.1647,1226.5,602.1647,1230.5,608.1647" style="stroke:#10BB10;stroke-width:1.0;"/></g><!--link DB to Seats--><g id="link_DB_Seats"><path codeLine="46" d="M1539.5,549.6747 C1539.5,549.6747 1539.5,631.7547 1539.5,631.7547 " fill="none" id="DB-to-Seats" style="stroke:#6060BB;stroke-width:1.0;stroke-dasharray:7.0,7.0;"/><polygon fill="#6060BB" points="1539.5,636.7547,1543.5,627.7547,1539.5,631.7547,1535.5,627.7547,1539.5,636.7547" style="stroke:#6060BB;stroke-width:1.0;"/><text fill="#000000" font-family="sans-serif" font-size="13" lengthAdjust="spacing" textLength="29" x="1509.5" y="587.283">uses</text></g><!--reverse link Seats to DB--><g id="link_Seats_DB"><path codeLine="51" d="M1640.5,623.6347 C1640.5,623.6347 1640.5,549.9747 1640.5,549.9747 " fill="none" id="Seats-backto-DB" style="stroke:#10BB10;stroke-width:1.0;"/><polygon fill="#10BB10" points="1640.5,636.6347,1644.5,630.6347,1640.5,624.6347,1636.5,630.6347,1640.5,636.6347" style="stroke:#10BB10;stroke-width:1.0;"/></g><!--link Car to Seats--><g id="link_Car_Seats"><path codeLine="48" d="M1403.76,678.5547 C1403.76,678.5547 1432.24,678.5547 1432.24,678.5547 " fill="none" id="Car-to-Seats" style="stroke:#909090;stroke-width:1.0;"/><polygon fill="#909090" points="1437.24,678.5547,1428.24,674.5547,1432.24,678.5547,1428.24,682.5547,1437.24,678.5547" style="stroke:#909090;stroke-width:1.0;"/><text fill="#000000" font-family="sans-serif" font-size="13" lengthAdjust="spacing" textLength="29" x="1403.5" y="692.123">uses</text></g><!--SRC=[rLXDRzf04BtpAqRaaDQL2UaXKYtWG0XgBrMbg8qguB2n1rXbsRLs5vAqwd_lh0qEf0vWXrWqaIB7deytyzuEZCqTbp7JR0Q2IxIFCOBITgfgbbk1q3By5mOVcvsh1pQB1Pf6bqKzD7mY6vTCB- -woszCMzEuHcODU5w4bd61aUT1wyp5wDIaiWZrdsgkWMa49fbu_CNb91ZAyi67SYZRxJuN5dMxFPGK7a8c8HGyl0FaTeeQw0z8DaCJin0D-IXD1ioOz2wCwVzn4eBWEEiPeOlS1TT36N6DeOK8OvGHof0JpZJjDGhtHBaaBha71GindExpCKzAeJu0m61G98OVSJOXylodI0spc8n63an_BWGi3JQxvghpl8bMynWZYAb5MNiyRuLZJEvP_9MpltJooSdFd9voVbOpN0NWrAw7njJEn6XK1sQWBnIprEAlf8GQcG2xDLOpQc7AnlRAUzsTpUbr_m6SGWFudIG4y662zbrhh2HbLKBfTlsYUT7iTkkTrfcxstaVmCRZRjSPr3lNribZC5gQhSSZ2EQ6H8073MnA0bqe7ZsFDOyZPl5WuQZcxmPr-PgtytX30sAgvWQl98qXT-1Sjhp6puqbnLK8P9Kn1qncJ04g1CJoi7oHH5k8rS5O9ipZI94BuzAQ2fkIvSm1rEVQ79TodBhxMitM5PIFYLkS1UKbKj5nTBLa5EGN4guU1w_cjkAZxOfpzUVNHJQwSeAspe24Z6LfBt0HlB9LLGwH_-gSR9r3IotrD5-yn4mKxFbjC0to1Y9A0oSQOYNbSm1rvnIvSJodYC8S1yWKIrudbT97WZ61aWCnsIcE0s82PHtYd-8R0rtkiq_jt1a-m7r2QW25D91vBt3AGu6xt7-aPfbRT1liN8bgxNP6OAYfPo-FnCYH7fHGI975OCFmKzFzacXMm1h6iHf06Gtu_feCYWjXVV4kkMC_ayV98mgXxZEL5ATiDRsGJwRbLZtwPDbaWDfpIglzNZ_mPhQdS9cmeb7Gmg-a0Nn8sC88nZHUdbut16IxjM6rdIy56eEJj5kZHcUFWG01q2UqWKC7NXVOdZaS7CyVd9nJZlFcoD_z0cIFW1GlFNSZlopg0zANvQWLUpLMg2j_0G00]--></g></svg>