<?xml version="1.0" encoding="us-ascii" standalone="no"?><svg xmlns="http://www.w3.org/2000/svg" xmlns:xlink="http://www.w3.org/1999/xlink" contentStyleType="text/css" height="928px" preserveAspectRatio="none" style="width:1945px;height:928px;background:#FFFFFF;" version="1.1" viewBox="0 0 1945 928" width="1945px" zoomAndPan="magnify"><defs/><g><text fill="#000000" font-family="sans-serif" font-size="20" font-weight="bold" lengthAdjust="spacing" textLength="562" x="488.75" y="29.3359">Examples.BetterDesign.Repository.CarExample.Vehicle</text><text fill="#000000" font-family="sans-serif" font-size="20" font-weight="bold" lengthAdjust="spacing" textLength="84" x="1057.75" y="29.3359">detailed</text><text fill="#000000" font-family="sans-serif" font-size="20" font-weight="bold" lengthAdjust="spacing" textLength="38" x="1148.75" y="29.3359">and</text><text fill="#000000" font-family="sans-serif" font-size="20" font-weight="bold" lengthAdjust="spacing" textLength="249" x="1193.75" y="29.3359">grouped per namespace</text><!--cluster Examples--><g id="cluster_Examples"><a href="Examples-diagram-detailed-grouped-per-namespace.svg" target="_top" title="Examples-diagram-detailed-grouped-per-namespace.svg" xlink:actuate="onRequest" xlink:href="Examples-diagram-detailed-grouped-per-namespace.svg" xlink:show="new" xlink:title="Examples-diagram-detailed-grouped-per-namespace.svg" xlink:type="simple"><path d="M728,50.5547 L797,50.5547 A3.75,3.75 0 0 1 799.5,53.0547 L806.5,73.043 L1936,73.043 A2.5,2.5 0 0 1 1938.5,75.543 L1938.5,918.5547 A2.5,2.5 0 0 1 1936,921.0547 L728,921.0547 A2.5,2.5 0 0 1 725.5,918.5547 L725.5,53.0547 A2.5,2.5 0 0 1 728,50.5547 " fill="none" style="stroke:#000000;stroke-width:1.5;"/><line style="stroke:#000000;stroke-width:1.5;" x1="725.5" x2="806.5" y1="73.043" y2="73.043"/><text fill="#000000" font-family="sans-serif" font-size="14" font-weight="bold" lengthAdjust="spacing" textLength="68" x="729.5" y="66.0898">Examples</text></a></g><!--cluster BetterDesign--><g id="cluster_BetterDesign"><a href="Examples.BetterDesign-diagram-detailed-grouped-per-namespace.svg" target="_top" title="Examples.BetterDesign-diagram-detailed-grouped-per-namespace.svg" xlink:actuate="onRequest" xlink:href="Examples.BetterDesign-diagram-detailed-grouped-per-namespace.svg" xlink:show="new" xlink:title="Examples.BetterDesign-diagram-detailed-grouped-per-namespace.svg" xlink:type="simple"><path d="M752,93.5547 L846,93.5547 A3.75,3.75 0 0 1 848.5,96.0547 L855.5,116.043 L1912,116.043 A2.5,2.5 0 0 1 1914.5,118.543 L1914.5,894.5547 A2.5,2.5 0 0 1 1912,897.0547 L752,897.0547 A2.5,2.5 0 0 1 749.5,894.5547 L749.5,96.0547 A2.5,2.5 0 0 1 752,93.5547 " fill="none" style="stroke:#000000;stroke-width:1.5;"/><line style="stroke:#000000;stroke-width:1.5;" x1="749.5" x2="855.5" y1="116.043" y2="116.043"/><text fill="#000000" font-family="sans-serif" font-size="14" font-weight="bold" lengthAdjust="spacing" textLength="93" x="753.5" y="109.0898">BetterDesign</text></a></g><!--cluster Repository--><g id="cluster_Repository"><a href="Examples.BetterDesign.Repository-diagram-detailed-grouped-per-namespace.svg" target="_top" title="Examples.BetterDesign.Repository-diagram-detailed-grouped-per-namespace.svg" xlink:actuate="onRequest" xlink:href="Examples.BetterDesign.Repository-diagram-detailed-grouped-per-namespace.svg" xlink:show="new" xlink:title="Examples.BetterDesign.Repository-diagram-detailed-grouped-per-namespace.svg" xlink:type="simple"><path d="M776,136.5547 L855,136.5547 A3.75,3.75 0 0 1 857.5,139.0547 L864.5,159.043 L1888,159.043 A2.5,2.5 0 0 1 1890.5,161.543 L1890.5,870.5547 A2.5,2.5 0 0 1 1888,873.0547 L776,873.0547 A2.5,2.5 0 0 1 773.5,870.5547 L773.5,139.0547 A2.5,2.5 0 0 1 776,136.5547 " fill="none" style="stroke:#000000;stroke-width:1.5;"/><line style="stroke:#000000;stroke-width:1.5;" x1="773.5" x2="864.5" y1="159.043" y2="159.043"/><text fill="#000000" font-family="sans-serif" font-size="14" font-weight="bold" lengthAdjust="spacing" textLength="78" x="777.5" y="152.0898">Repository</text></a></g><!--cluster CarExample--><g id="cluster_CarExample"><a href="Examples.BetterDesign.Repository.CarExample-diagram-detailed-grouped-per-namespace.svg" target="_top" title="Examples.BetterDesign.Repository.CarExample-diagram-detailed-grouped-per-namespace.svg" xlink:actuate="onRequest" xlink:href="Examples.BetterDesign.Repository.CarExample-diagram-detailed-grouped-per-namespace.svg" xlink:show="new" xlink:title="Examples.BetterDesign.Repository.CarExample-diagram-detailed-grouped-per-namespace.svg" xlink:type="simple"><path d="M800,179.5547 L885,179.5547 A3.75,3.75 0 0 1 887.5,182.0547 L894.5,202.043 L1864,202.043 A2.5,2.5 0 0 1 1866.5,204.543 L1866.5,846.5547 A2.5,2.5 0 0 1 1864,849.0547 L800,849.0547 A2.5,2.5 0 0 1 797.5,846.5547 L797.5,182.0547 A2.5,2.5 0 0 1 800,179.5547 " fill="none" style="stroke:#000000;stroke-width:1.5;"/><line style="stroke:#000000;stroke-width:1.5;" x1="797.5" x2="894.5" y1="202.043" y2="202.043"/><text fill="#000000" font-family="sans-serif" font-size="14" font-weight="bold" lengthAdjust="spacing" textLength="84" x="801.5" y="195.0898">CarExample</text></a></g><!--class Vehicle--><a href="Examples.BetterDesign.Repository.CarExample.Vehicle-diagram-detailed-grouped-per-namespace.svg" target="_top" title="Examples.BetterDesign.Repository.CarExample.Vehicle-diagram-detailed-grouped-per-namespace.svg" xlink:actuate="onRequest" xlink:href="Examples.BetterDesign.Repository.CarExample.Vehicle-diagram-detailed-grouped-per-namespace.svg" xlink:show="new" xlink:title="Examples.BetterDesign.Repository.CarExample.Vehicle-diagram-detailed-grouped-per-namespace.svg" xlink:type="simple"><g id="elem_Vehicle"><rect codeLine="8" fill="#FFFF00" height="97.4648" id="Vehicle" rx="2.5" ry="2.5" style="stroke:#181818;stroke-width:0.5;" width="419" x="1267" y="214.5547"/><ellipse cx="1447.75" cy="230.5547" fill="#A9DCDF" rx="11" ry="11" style="stroke:#181818;stroke-width:1.0;"/><path d="M1447.6133,225.9028 L1446.4595,230.9746 L1448.7754,230.9746 Z M1446.1191,223.6616 L1449.1157,223.6616 L1452.4609,236.0547 L1450.0122,236.0547 L1449.2485,232.9917 L1445.9697,232.9917 L1445.2227,236.0547 L1442.7739,236.0547 Z " fill="#000000"/><text fill="#000000" font-family="sans-serif" font-size="14" font-style="italic" lengthAdjust="spacing" textLength="49" x="1468.25" y="235.8457">Vehicle</text><line style="stroke:#181818;stroke-width:0.5;" x1="1268" x2="1685" y1="246.5547" y2="246.5547"/><ellipse cx="1278" cy="260.2988" fill="none" rx="3" ry="3" style="stroke:#038048;stroke-width:1.0;"/><text fill="#000000" font-family="sans-serif" font-size="14" lengthAdjust="spacing" textLength="393" x="1287" y="264.0898">db: Examples.BetterDesign.Repository.CarExample.DBCar</text><line style="stroke:#181818;stroke-width:1.0;" x1="1268" x2="1685" y1="271.043" y2="271.043"/><line style="stroke:#181818;stroke-width:1.0;" x1="1268" x2="1685" y1="273.043" y2="273.043"/><rect fill="#F24D5C" height="6" style="stroke:#C82930;stroke-width:1.0;" width="6" x="1275" y="281.7871"/><text fill="#000000" font-family="sans-serif" font-size="14" lengthAdjust="spacing" textLength="67" x="1287" y="288.5781">setSpeed(</text><text fill="#000000" font-family="sans-serif" font-size="14" lengthAdjust="spacing" textLength="9" x="1354" y="288.5781">):</text><text fill="#BB6060" font-family="sans-serif" font-size="14" lengthAdjust="spacing" textLength="29" x="1367" y="288.5781">void</text><rect fill="#F24D5C" height="6" style="stroke:#C82930;stroke-width:1.0;" width="6" x="1275" y="298.2754"/><text fill="#000000" font-family="sans-serif" font-size="14" lengthAdjust="spacing" textLength="69" x="1287" y="305.0664">getSpeed(</text><text fill="#000000" font-family="sans-serif" font-size="14" lengthAdjust="spacing" textLength="9" x="1356" y="305.0664">):</text><text fill="#BB6060" font-family="sans-serif" font-size="14" lengthAdjust="spacing" textLength="18" x="1369" y="305.0664">int</text></g></a><!--class DBCar--><a href="Examples.BetterDesign.Repository.CarExample.DBCar-diagram-detailed-grouped-per-namespace.svg" target="_top" title="Examples.BetterDesign.Repository.CarExample.DBCar-diagram-detailed-grouped-per-namespace.svg" xlink:actuate="onRequest" xlink:href="Examples.BetterDesign.Repository.CarExample.DBCar-diagram-detailed-grouped-per-namespace.svg" xlink:show="new" xlink:title="Examples.BetterDesign.Repository.CarExample.DBCar-diagram-detailed-grouped-per-namespace.svg" xlink:type="simple"><g id="elem_DBCar"><rect codeLine="14" fill="#F1F1F1" height="196.3945" id="DBCar" rx="2.5" ry="2.5" style="stroke:#181818;stroke-width:0.5;" width="999" x="814" y="447.0547"/><ellipse cx="1288.25" cy="463.0547" fill="#A9DCDF" rx="11" ry="11" style="stroke:#181818;stroke-width:1.0;"/><path d="M1288.1133,458.4028 L1286.9595,463.4746 L1289.2754,463.4746 Z M1286.6191,456.1616 L1289.6157,456.1616 L1292.9609,468.5547 L1290.5122,468.5547 L1289.7485,465.4917 L1286.4697,465.4917 L1285.7227,468.5547 L1283.2739,468.5547 Z " fill="#000000"/><text fill="#000000" font-family="sans-serif" font-size="14" font-style="italic" lengthAdjust="spacing" textLength="42" x="1308.75" y="468.3457">DBCar</text><line style="stroke:#181818;stroke-width:0.5;" x1="815" x2="1812" y1="479.0547" y2="479.0547"/><line style="stroke:#181818;stroke-width:0.5;" x1="815" x2="1812" y1="487.0547" y2="487.0547"/><rect fill="#F24D5C" height="6" style="stroke:#C82930;stroke-width:1.0;" width="6" x="822" y="497.7988"/><text fill="#000000" font-family="sans-serif" font-size="14" lengthAdjust="spacing" textLength="122" x="834" y="504.5898">getCarsForDriver(</text><text fill="#6060BB" font-family="sans-serif" font-size="14" lengthAdjust="spacing" textLength="472" x="956" y="504.5898">driver:Examples.BetterDesign.Repository.CarExample.CarParts.Driver</text><text fill="#000000" font-family="sans-serif" font-size="14" lengthAdjust="spacing" textLength="9" x="1428" y="504.5898">):</text><text fill="#BB6060" font-family="sans-serif" font-size="14" lengthAdjust="spacing" textLength="51" x="1441" y="504.5898">String[]</text><rect fill="#F24D5C" height="6" style="stroke:#C82930;stroke-width:1.0;" width="6" x="822" y="514.2871"/><text fill="#000000" font-family="sans-serif" font-size="14" lengthAdjust="spacing" textLength="77" x="834" y="521.0781">updateCar(</text><text fill="#6060BB" font-family="sans-serif" font-size="14" lengthAdjust="spacing" textLength="844" x="911" y="521.0781">car:Examples.BetterDesign.Repository.CarExample.Car, seats:Examples.BetterDesign.Repository.CarExample.CarParts.Seats</text><text fill="#000000" font-family="sans-serif" font-size="14" lengthAdjust="spacing" textLength="9" x="1755" y="521.0781">):</text><text fill="#BB6060" font-family="sans-serif" font-size="14" lengthAdjust="spacing" textLength="29" x="1768" y="521.0781">void</text><rect fill="#F24D5C" height="6" style="stroke:#C82930;stroke-width:1.0;" width="6" x="822" y="530.7754"/><text fill="#000000" font-family="sans-serif" font-size="14" lengthAdjust="spacing" textLength="77" x="834" y="537.5664">updateCar(</text><text fill="#6060BB" font-family="sans-serif" font-size="14" lengthAdjust="spacing" textLength="854" x="911" y="537.5664">car:Examples.BetterDesign.Repository.CarExample.Car, doors:Examples.BetterDesign.Repository.CarExample.CarParts.Doors</text><text fill="#000000" font-family="sans-serif" font-size="14" lengthAdjust="spacing" textLength="9" x="1765" y="537.5664">):</text><text fill="#BB6060" font-family="sans-serif" font-size="14" lengthAdjust="spacing" textLength="29" x="1778" y="537.5664">void</text><rect fill="#F24D5C" height="6" style="stroke:#C82930;stroke-width:1.0;" width="6" x="822" y="547.2637"/><text fill="#000000" font-family="sans-serif" font-size="14" lengthAdjust="spacing" textLength="70" x="834" y="554.0547">sellCarTo(</text><text fill="#6060BB" font-family="sans-serif" font-size="14" lengthAdjust="spacing" textLength="854" x="904" y="554.0547">car:Examples.BetterDesign.Repository.CarExample.Car, driver:Examples.BetterDesign.Repository.CarExample.CarParts.Driver</text><text fill="#000000" font-family="sans-serif" font-size="14" lengthAdjust="spacing" textLength="9" x="1758" y="554.0547">):</text><text fill="#BB6060" font-family="sans-serif" font-size="14" lengthAdjust="spacing" textLength="29" x="1771" y="554.0547">void</text><rect fill="#F24D5C" height="6" style="stroke:#C82930;stroke-width:1.0;" width="6" x="822" y="563.752"/><text fill="#000000" font-family="sans-serif" font-size="14" lengthAdjust="spacing" textLength="51" x="834" y="570.543">getCar(</text><text fill="#6060BB" font-family="sans-serif" font-size="14" lengthAdjust="spacing" textLength="441" x="885" y="570.543">d:Examples.BetterDesign.Repository.CarExample.CarParts.Driver</text><text fill="#000000" font-family="sans-serif" font-size="14" lengthAdjust="spacing" textLength="9" x="1326" y="570.543">):</text><text fill="#BB6060" font-family="sans-serif" font-size="14" lengthAdjust="spacing" textLength="349" x="1339" y="570.543">Examples.BetterDesign.Repository.CarExample.Car</text><rect fill="#F24D5C" height="6" style="stroke:#C82930;stroke-width:1.0;" width="6" x="822" y="580.2402"/><text fill="#000000" font-family="sans-serif" font-size="14" lengthAdjust="spacing" textLength="68" x="834" y="587.0313">getDriver(</text><text fill="#6060BB" font-family="sans-serif" font-size="14" lengthAdjust="spacing" textLength="360" x="902" y="587.0313">c:Examples.BetterDesign.Repository.CarExample.Car</text><text fill="#000000" font-family="sans-serif" font-size="14" lengthAdjust="spacing" textLength="9" x="1262" y="587.0313">):</text><text fill="#BB6060" font-family="sans-serif" font-size="14" lengthAdjust="spacing" textLength="428" x="1275" y="587.0313">Examples.BetterDesign.Repository.CarExample.CarParts.Driver</text><rect fill="#F24D5C" height="6" style="stroke:#C82930;stroke-width:1.0;" width="6" x="822" y="596.7285"/><text fill="#000000" font-family="sans-serif" font-size="14" lengthAdjust="spacing" textLength="75" x="834" y="603.5195">getWheels(</text><text fill="#6060BB" font-family="sans-serif" font-size="14" lengthAdjust="spacing" textLength="360" x="909" y="603.5195">c:Examples.BetterDesign.Repository.CarExample.Car</text><text fill="#000000" font-family="sans-serif" font-size="14" lengthAdjust="spacing" textLength="9" x="1269" y="603.5195">):</text><text fill="#BB6060" font-family="sans-serif" font-size="14" lengthAdjust="spacing" textLength="435" x="1282" y="603.5195">Examples.BetterDesign.Repository.CarExample.CarParts.Wheels</text><rect fill="#F24D5C" height="6" style="stroke:#C82930;stroke-width:1.0;" width="6" x="822" y="613.2168"/><text fill="#000000" font-family="sans-serif" font-size="14" lengthAdjust="spacing" textLength="68" x="834" y="620.0078">getDoors(</text><text fill="#6060BB" font-family="sans-serif" font-size="14" lengthAdjust="spacing" textLength="360" x="902" y="620.0078">c:Examples.BetterDesign.Repository.CarExample.Car</text><text fill="#000000" font-family="sans-serif" font-size="14" lengthAdjust="spacing" textLength="9" x="1262" y="620.0078">):</text><text fill="#BB6060" font-family="sans-serif" font-size="14" lengthAdjust="spacing" textLength="428" x="1275" y="620.0078">Examples.BetterDesign.Repository.CarExample.CarParts.Doors</text><rect fill="#F24D5C" height="6" style="stroke:#C82930;stroke-width:1.0;" width="6" x="822" y="629.7051"/><text fill="#000000" font-family="sans-serif" font-size="14" lengthAdjust="spacing" textLength="63" x="834" y="636.4961">getSeats(</text><text fill="#6060BB" font-family="sans-serif" font-size="14" lengthAdjust="spacing" textLength="360" x="897" y="636.4961">c:Examples.BetterDesign.Repository.CarExample.Car</text><text fill="#000000" font-family="sans-serif" font-size="14" lengthAdjust="spacing" textLength="9" x="1257" y="636.4961">):</text><text fill="#BB6060" font-family="sans-serif" font-size="14" lengthAdjust="spacing" textLength="423" x="1270" y="636.4961">Examples.BetterDesign.Repository.CarExample.CarParts.Seats</text></g></a><!--class Car--><a href="Examples.BetterDesign.Repository.CarExample.Car-diagram-detailed-grouped-per-namespace.svg" target="_top" title="Examples.BetterDesign.Repository.CarExample.Car-diagram-detailed-grouped-per-namespace.svg" xlink:actuate="onRequest" xlink:href="Examples.BetterDesign.Repository.CarExample.Car-diagram-detailed-grouped-per-namespace.svg" xlink:show="new" xlink:title="Examples.BetterDesign.Repository.CarExample.Car-diagram-detailed-grouped-per-namespace.svg" xlink:type="simple"><g id="elem_Car"><rect codeLine="25" fill="#F1F1F1" height="130.4414" id="Car" rx="2.5" ry="2.5" style="stroke:#181818;stroke-width:0.5;" width="611" x="1123" y="703.0547"/><ellipse cx="1412.25" cy="719.0547" fill="#A9DCDF" rx="11" ry="11" style="stroke:#181818;stroke-width:1.0;"/><path d="M1412.1133,714.4028 L1410.9595,719.4746 L1413.2754,719.4746 Z M1410.6191,712.1616 L1413.6157,712.1616 L1416.9609,724.5547 L1414.5122,724.5547 L1413.7485,721.4917 L1410.4697,721.4917 L1409.7227,724.5547 L1407.2739,724.5547 Z " fill="#000000"/><text fill="#000000" font-family="sans-serif" font-size="14" font-style="italic" lengthAdjust="spacing" textLength="24" x="1432.75" y="724.3457">Car</text><line style="stroke:#181818;stroke-width:0.5;" x1="1124" x2="1733" y1="735.0547" y2="735.0547"/><ellipse cx="1134" cy="748.7988" fill="none" rx="3" ry="3" style="stroke:#038048;stroke-width:1.0;"/><text fill="#000000" font-family="sans-serif" font-size="14" lengthAdjust="spacing" textLength="490" x="1143" y="752.5898">wheels: Examples.BetterDesign.Repository.CarExample.CarParts.Wheels</text><ellipse cx="1134" cy="765.2871" fill="none" rx="3" ry="3" style="stroke:#038048;stroke-width:1.0;"/><text fill="#000000" font-family="sans-serif" font-size="14" lengthAdjust="spacing" textLength="466" x="1143" y="769.0781">seats: Examples.BetterDesign.Repository.CarExample.CarParts.Seats</text><ellipse cx="1134" cy="781.7754" fill="none" rx="3" ry="3" style="stroke:#038048;stroke-width:1.0;"/><text fill="#000000" font-family="sans-serif" font-size="14" lengthAdjust="spacing" textLength="476" x="1143" y="785.5664">driver: Examples.BetterDesign.Repository.CarExample.CarParts.Driver</text><ellipse cx="1134" cy="798.2637" fill="none" rx="3" ry="3" style="stroke:#038048;stroke-width:1.0;"/><text fill="#000000" font-family="sans-serif" font-size="14" lengthAdjust="spacing" textLength="476" x="1143" y="802.0547">doors: Examples.BetterDesign.Repository.CarExample.CarParts.Doors</text><line style="stroke:#181818;stroke-width:1.0;" x1="1124" x2="1733" y1="809.0078" y2="809.0078"/><line style="stroke:#181818;stroke-width:1.0;" x1="1124" x2="1733" y1="811.0078" y2="811.0078"/><rect fill="#F24D5C" height="6" style="stroke:#C82930;stroke-width:1.0;" width="6" x="1131" y="819.752"/><text fill="#000000" font-family="sans-serif" font-size="14" lengthAdjust="spacing" textLength="71" x="1143" y="826.543">createCar(</text><text fill="#6060BB" font-family="sans-serif" font-size="14" lengthAdjust="spacing" textLength="472" x="1214" y="826.543">doors:Examples.BetterDesign.Repository.CarExample.CarParts.Doors</text><text fill="#000000" font-family="sans-serif" font-size="14" lengthAdjust="spacing" textLength="9" x="1686" y="826.543">):</text><text fill="#BB6060" font-family="sans-serif" font-size="14" lengthAdjust="spacing" textLength="29" x="1699" y="826.543">void</text></g></a><g id="elem_FloatingNote"><path d="M6,139.0547 L6,386.7129 L709,386.7129 L709,149.0547 L699,139.0547 L6,139.0547 " fill="#FEFFDD" style="stroke:#181818;stroke-width:0.5;"/><path d="M699,139.0547 L699,149.0547 L709,149.0547 L699,139.0547 " fill="#FEFFDD" style="stroke:#181818;stroke-width:1.0;"/><text fill="#000000" font-family="sans-serif" font-size="13" lengthAdjust="spacing" textLength="120" x="12" y="156.623">Your are analyzing:</text><text fill="#000000" font-family="sans-serif" font-size="13" lengthAdjust="spacing" textLength="342" x="12" y="171.9336">Examples.BetterDesign.Repository.CarExample.Vehicle</text><text fill="#000000" font-family="sans-serif" font-size="13" font-weight="bold" lengthAdjust="spacing" textLength="55" x="358" y="171.9336">detailed</text><text fill="#000000" font-family="sans-serif" font-size="13" lengthAdjust="spacing" textLength="23" x="417" y="171.9336">and</text><text fill="#000000" font-family="sans-serif" font-size="13" font-weight="bold" lengthAdjust="spacing" textLength="166" x="444" y="171.9336">grouped per namespace</text><text fill="#000000" font-family="sans-serif" font-size="13" lengthAdjust="spacing" textLength="4" x="12" y="187.2441">&#160;</text><text fill="#000000" font-family="sans-serif" font-size="13" lengthAdjust="spacing" textLength="229" x="12" y="217.8652">You can click either the namespaces</text><text fill="#000000" font-family="sans-serif" font-size="13" lengthAdjust="spacing" textLength="266" x="12" y="233.1758">or class names for filtering them and their</text><text fill="#000000" font-family="sans-serif" font-size="13" lengthAdjust="spacing" textLength="130" x="12" y="248.4863">direct dependencies.</text><text fill="#000000" font-family="sans-serif" font-size="13" lengthAdjust="spacing" textLength="4" x="12" y="263.7969">&#160;</text><line style="stroke:#181818;stroke-width:1.0;" x1="7" x2="341.5" y1="197.6416" y2="197.6416"/><line style="stroke:#181818;stroke-width:1.0;" x1="7" x2="341.5" y1="199.6416" y2="199.6416"/><text fill="#000000" font-family="sans-serif" font-size="13" lengthAdjust="spacing" textLength="32" x="341.5" y="202.0547">Filter</text><line style="stroke:#181818;stroke-width:1.0;" x1="373.5" x2="708" y1="197.6416" y2="197.6416"/><line style="stroke:#181818;stroke-width:1.0;" x1="373.5" x2="708" y1="199.6416" y2="199.6416"/><ellipse cx="17.5" cy="293.6602" fill="#000000" rx="2.5" ry="2.5" style="stroke:#000000;stroke-width:0.0;"/><text fill="#000000" font-family="sans-serif" font-size="13" lengthAdjust="spacing" textLength="342" x="24" y="298.418">Examples.BetterDesign.Repository.CarExample.Vehicle</text><text fill="#000000" font-family="sans-serif" font-size="13" font-weight="bold" lengthAdjust="spacing" textLength="67" x="370" y="298.418">simplified</text><text fill="#000000" font-family="sans-serif" font-size="13" lengthAdjust="spacing" textLength="23" x="441" y="298.418">and</text><text fill="#000000" font-family="sans-serif" font-size="13" font-weight="bold" lengthAdjust="spacing" textLength="166" x="468" y="298.418">grouped per namespace</text><text fill="#000000" font-family="sans-serif" font-size="13" lengthAdjust="spacing" textLength="4" x="634" y="298.418">:</text><text fill="#000000" font-family="sans-serif" font-size="13" lengthAdjust="spacing" textLength="12" x="12" y="313.7285">&#160;&#160;&#160;</text><a href="Examples.BetterDesign.Repository.CarExample.Vehicle-diagram-simplified-grouped-per-namespace.svg" target="_top" title="Examples.BetterDesign.Repository.CarExample.Vehicle-diagram-simplified-grouped-per-namespace.svg" xlink:actuate="onRequest" xlink:href="Examples.BetterDesign.Repository.CarExample.Vehicle-diagram-simplified-grouped-per-namespace.svg" xlink:show="new" xlink:title="Examples.BetterDesign.Repository.CarExample.Vehicle-diagram-simplified-grouped-per-namespace.svg" xlink:type="simple"><text fill="#0000FF" font-family="sans-serif" font-size="13" lengthAdjust="spacing" text-decoration="underline" textLength="664" x="24" y="313.7285">Examples.BetterDesign.Repository.CarExample.Vehicle-diagram-simplified-grouped-per-namespace.svg</text></a><ellipse cx="17.5" cy="324.2813" fill="#000000" rx="2.5" ry="2.5" style="stroke:#000000;stroke-width:0.0;"/><text fill="#000000" font-family="sans-serif" font-size="13" lengthAdjust="spacing" textLength="78" x="24" y="329.0391">Full diagram</text><text fill="#000000" font-family="sans-serif" font-size="13" font-weight="bold" lengthAdjust="spacing" textLength="55" x="106" y="329.0391">detailed</text><text fill="#000000" font-family="sans-serif" font-size="13" lengthAdjust="spacing" textLength="23" x="165" y="329.0391">and</text><text fill="#000000" font-family="sans-serif" font-size="13" font-weight="bold" lengthAdjust="spacing" textLength="166" x="192" y="329.0391">grouped per namespace</text><text fill="#000000" font-family="sans-serif" font-size="13" lengthAdjust="spacing" textLength="4" x="358" y="329.0391">:</text><text fill="#000000" font-family="sans-serif" font-size="13" lengthAdjust="spacing" textLength="12" x="12" y="344.3496">&#160;&#160;&#160;</text><a href="full-diagram-detailed-grouped-per-namespace.svg" target="_top" title="full-diagram-detailed-grouped-per-namespace.svg" xlink:actuate="onRequest" xlink:href="full-diagram-detailed-grouped-per-namespace.svg" xlink:show="new" xlink:title="full-diagram-detailed-grouped-per-namespace.svg" xlink:type="simple"><text fill="#0000FF" font-family="sans-serif" font-size="13" lengthAdjust="spacing" text-decoration="underline" textLength="330" x="24" y="344.3496">full-diagram-detailed-grouped-per-namespace.svg</text></a><ellipse cx="17.5" cy="354.9023" fill="#000000" rx="2.5" ry="2.5" style="stroke:#000000;stroke-width:0.0;"/><text fill="#000000" font-family="sans-serif" font-size="13" lengthAdjust="spacing" textLength="41" x="24" y="359.6602">Home:</text><text fill="#000000" font-family="sans-serif" font-size="13" lengthAdjust="spacing" textLength="12" x="12" y="374.9707">&#160;&#160;&#160;</text><a href="index.html" target="_top" title="index.html" xlink:actuate="onRequest" xlink:href="index.html" xlink:show="new" xlink:title="index.html" xlink:type="simple"><text fill="#0000FF" font-family="sans-serif" font-size="13" lengthAdjust="spacing" text-decoration="underline" textLength="68" x="24" y="374.9707">index.html</text></a><line style="stroke:#181818;stroke-width:1.0;" x1="7" x2="320.5" y1="278.1943" y2="278.1943"/><line style="stroke:#181818;stroke-width:1.0;" x1="7" x2="320.5" y1="280.1943" y2="280.1943"/><text fill="#000000" font-family="sans-serif" font-size="13" lengthAdjust="spacing" textLength="74" x="320.5" y="282.6074">Select other</text><line style="stroke:#181818;stroke-width:1.0;" x1="394.5" x2="708" y1="278.1943" y2="278.1943"/><line style="stroke:#181818;stroke-width:1.0;" x1="394.5" x2="708" y1="280.1943" y2="280.1943"/></g><!--reverse link Vehicle to DBCar--><g id="link_Vehicle_DBCar"><path codeLine="48" d="M1476.5,325.8547 C1476.5,325.8547 1476.5,446.6647 1476.5,446.6647 " fill="none" id="Vehicle-backto-DBCar" style="stroke:#10BB10;stroke-width:1.0;"/><polygon fill="#10BB10" points="1476.5,312.8547,1472.5,318.8547,1476.5,324.8547,1480.5,318.8547,1476.5,312.8547" style="stroke:#10BB10;stroke-width:1.0;"/></g><!--link DBCar to Car--><g id="link_DBCar_Car"><path codeLine="49" d="M1428.5,643.5147 C1428.5,643.5147 1428.5,696.7847 1428.5,696.7847 " fill="none" id="DBCar-to-Car" style="stroke:#6060BB;stroke-width:1.0;stroke-dasharray:7.0,7.0;"/><polygon fill="#6060BB" points="1428.5,701.7847,1432.5,692.7847,1428.5,696.7847,1424.5,692.7847,1428.5,701.7847" style="stroke:#6060BB;stroke-width:1.0;"/><text fill="#000000" font-family="sans-serif" font-size="13" lengthAdjust="spacing" textLength="29" x="1398.5" y="666.723">uses</text></g><!--reverse link Vehicle to Car--><g id="link_Vehicle_Car"><path codeLine="50" d="M1707.3,263.0547 C1707.3,263.0547 1831,263.0547 1831,263.0547 C1831,263.0547 1831,768.0547 1831,768.0547 C1831,768.0547 1790.08,768.0547 1734.34,768.0547 " fill="none" id="Vehicle-backto-Car" style="stroke:#FF0000;stroke-width:1.0;"/><polygon fill="none" points="1707.3,270.0547,1687.3,263.0547,1707.3,256.0547,1707.3,270.0547" style="stroke:#FF0000;stroke-width:1.0;"/></g><!--SRC=[pLXBRzf04BxpAqRaa9OKX_IGWmKS24KzHLMfMbM0eiKxm2hhNMjt8I5j_dl7DW_JGX8Rg4086NiUtpUF7GPxBrJ430j12eLk7Y5euoQwv8IJ27Khdj3_M6j-UcHX9D5wBNGEJHkj62llAqRQ2gVDtBjXPY7ZVSU924YvKk7ec938AnLWYjEDiT7J23b4Q42n46t40gnKwfUndsP9QOTG_gcd1fX1qc5o_YJKsE-humBegxvgD3f2akb6ewy80WHCGI15S0yet8JawMEjOw6lj241Pcrw5qRqVPIO8CYnT9WufGjX-eeBWu43ZX4gZYeGn2LrsqKPFz6nazXv1OgHjO9kY95udIx54m1wlG9-gbomCTLBTUsjkl1I9I_LbHVFpiQ3GSocCvKI5cevSh84EIBrbTUbyci-F-iGbmO4nVlHcxXG3WPbO1OwKZD7ERgbSYkjb5THpmGcbr_ujSNOHcXtXVp0RZ8PV4EIZ-SyKpxvYYql94XUR6YTOTH9QLCMQQBzMk9DQC_cAAL-MA46k00-z7F1RRVeIwdHM9ceWaNNZH3vk_f8Amg1bjeqojUrwrghLMxMB-ExpVS-R3nkjMA1SdEc1L-8P4oEzp4fbDkq-Bn_bXBQENEKwEJBK2OrIH38WEreqpPYXcPxC7ZopCy3Z2w_CEEibzfz9PnT5m-Ltk3VB4qZpXoIjUt80fORrWSg9kPiCJRTMBLGkHs32DVQ52JIZbKB4R7Ku6JccpuaaMCNsCuZO6T2-17HvBIy5VXB_HhunJmS2E-MI6nY_p51bFQ4iQS0jySzRfnJ3dkciV-QTl7PTSB8isVhuQPg_fcwpqIzW8UaT7pOe-uorj9H1SNZcVqPbXwoi4StPwqbimUAr-Zc3xp0u4lZyRzFkkVI-OqE8zhJEPpUIW0FjBC3zO83sgv394Pw12laS2F91MtfZ5RJoE1CwAczizFXtShIdHIal6PsgnN240CsjHYl-Ok_9womGE-HKC9Ea7iPsslTDOtIyrQ1DUKT0ja0xH1P1fCUmpcjrMzwmT5aOuZnKMHGqhAjbGLyJ8uegfUHqU4QkK-oEIgXLEZVaMhlx8eQvQesg1ROEKhvLRpUMTgR0w-P-pm67wZCB1JYMlzDPAajSpAbopy0]--></g></svg>