<?xml version="1.0" encoding="us-ascii" standalone="no"?><svg xmlns="http://www.w3.org/2000/svg" xmlns:xlink="http://www.w3.org/1999/xlink" contentStyleType="text/css" height="541px" preserveAspectRatio="none" style="width:1278px;height:541px;background:#FFFFFF;" version="1.1" viewBox="0 0 1278 541" width="1278px" zoomAndPan="magnify"><defs/><g><text fill="#000000" font-family="sans-serif" font-size="20" font-weight="bold" lengthAdjust="spacing" textLength="432" x="210" y="29.3359">Examples.BadDesign.CarExample.CarParts</text><text fill="#000000" font-family="sans-serif" font-size="20" font-weight="bold" lengthAdjust="spacing" textLength="104" x="649" y="29.3359">simplified</text><text fill="#000000" font-family="sans-serif" font-size="20" font-weight="bold" lengthAdjust="spacing" textLength="38" x="760" y="29.3359">and</text><text fill="#000000" font-family="sans-serif" font-size="20" font-weight="bold" lengthAdjust="spacing" textLength="249" x="805" y="29.3359">grouped per namespace</text><!--cluster Examples--><g id="cluster_Examples"><a href="Examples-diagram-simplified-grouped-per-namespace.svg" target="_top" title="Examples-diagram-simplified-grouped-per-namespace.svg" xlink:actuate="onRequest" xlink:href="Examples-diagram-simplified-grouped-per-namespace.svg" xlink:show="new" xlink:title="Examples-diagram-simplified-grouped-per-namespace.svg" xlink:type="simple"><path d="M636.5,50.5547 L705.5,50.5547 A3.75,3.75 0 0 1 708,53.0547 L715,73.043 L1268.5,73.043 A2.5,2.5 0 0 1 1271,75.543 L1271,532.0547 A2.5,2.5 0 0 1 1268.5,534.5547 L636.5,534.5547 A2.5,2.5 0 0 1 634,532.0547 L634,53.0547 A2.5,2.5 0 0 1 636.5,50.5547 " fill="none" style="stroke:#000000;stroke-width:1.5;"/><line style="stroke:#000000;stroke-width:1.5;" x1="634" x2="715" y1="73.043" y2="73.043"/><text fill="#000000" font-family="sans-serif" font-size="14" font-weight="bold" lengthAdjust="spacing" textLength="68" x="638" y="66.0898">Examples</text></a></g><!--cluster BadDesign--><g id="cluster_BadDesign"><a href="Examples.BadDesign-diagram-simplified-grouped-per-namespace.svg" target="_top" title="Examples.BadDesign-diagram-simplified-grouped-per-namespace.svg" xlink:actuate="onRequest" xlink:href="Examples.BadDesign-diagram-simplified-grouped-per-namespace.svg" xlink:show="new" xlink:title="Examples.BadDesign-diagram-simplified-grouped-per-namespace.svg" xlink:type="simple"><path d="M660.5,93.5547 L737.5,93.5547 A3.75,3.75 0 0 1 740,96.0547 L747,116.043 L1244.5,116.043 A2.5,2.5 0 0 1 1247,118.543 L1247,508.0547 A2.5,2.5 0 0 1 1244.5,510.5547 L660.5,510.5547 A2.5,2.5 0 0 1 658,508.0547 L658,96.0547 A2.5,2.5 0 0 1 660.5,93.5547 " fill="none" style="stroke:#000000;stroke-width:1.5;"/><line style="stroke:#000000;stroke-width:1.5;" x1="658" x2="747" y1="116.043" y2="116.043"/><text fill="#000000" font-family="sans-serif" font-size="14" font-weight="bold" lengthAdjust="spacing" textLength="76" x="662" y="109.0898">BadDesign</text></a></g><!--cluster CarExample--><g id="cluster_CarExample"><a href="Examples.BadDesign.CarExample-diagram-simplified-grouped-per-namespace.svg" target="_top" title="Examples.BadDesign.CarExample-diagram-simplified-grouped-per-namespace.svg" xlink:actuate="onRequest" xlink:href="Examples.BadDesign.CarExample-diagram-simplified-grouped-per-namespace.svg" xlink:show="new" xlink:title="Examples.BadDesign.CarExample-diagram-simplified-grouped-per-namespace.svg" xlink:type="simple"><path d="M684.5,136.5547 L769.5,136.5547 A3.75,3.75 0 0 1 772,139.0547 L779,159.043 L1220.5,159.043 A2.5,2.5 0 0 1 1223,161.543 L1223,484.0547 A2.5,2.5 0 0 1 1220.5,486.5547 L684.5,486.5547 A2.5,2.5 0 0 1 682,484.0547 L682,139.0547 A2.5,2.5 0 0 1 684.5,136.5547 " fill="none" style="stroke:#000000;stroke-width:1.5;"/><line style="stroke:#000000;stroke-width:1.5;" x1="682" x2="779" y1="159.043" y2="159.043"/><text fill="#000000" font-family="sans-serif" font-size="14" font-weight="bold" lengthAdjust="spacing" textLength="84" x="686" y="152.0898">CarExample</text></a></g><!--cluster CarParts--><g id="cluster_CarParts"><a href="Examples.BadDesign.CarExample.CarParts-diagram-simplified-grouped-per-namespace.svg" target="_top" title="Examples.BadDesign.CarExample.CarParts-diagram-simplified-grouped-per-namespace.svg" xlink:actuate="onRequest" xlink:href="Examples.BadDesign.CarExample.CarParts-diagram-simplified-grouped-per-namespace.svg" xlink:show="new" xlink:title="Examples.BadDesign.CarExample.CarParts-diagram-simplified-grouped-per-namespace.svg" xlink:type="simple"><path d="M769.5,179.5547 L831.5,179.5547 A3.75,3.75 0 0 1 834,182.0547 L841,202.043 L1196.5,202.043 A2.5,2.5 0 0 1 1199,204.543 L1199,276.0547 A2.5,2.5 0 0 1 1196.5,278.5547 L769.5,278.5547 A2.5,2.5 0 0 1 767,276.0547 L767,182.0547 A2.5,2.5 0 0 1 769.5,179.5547 " fill="none" style="stroke:#000000;stroke-width:1.5;"/><line style="stroke:#000000;stroke-width:1.5;" x1="767" x2="841" y1="202.043" y2="202.043"/><text fill="#000000" font-family="sans-serif" font-size="14" font-weight="bold" lengthAdjust="spacing" textLength="61" x="771" y="195.0898">CarParts</text></a></g><!--class DB--><a href="Examples.BadDesign.CarExample.DB-diagram-simplified-grouped-per-namespace.svg" target="_top" title="Examples.BadDesign.CarExample.DB-diagram-simplified-grouped-per-namespace.svg" xlink:actuate="onRequest" xlink:href="Examples.BadDesign.CarExample.DB-diagram-simplified-grouped-per-namespace.svg" xlink:show="new" xlink:title="Examples.BadDesign.CarExample.DB-diagram-simplified-grouped-per-namespace.svg" xlink:type="simple"><g id="elem_DB"><rect codeLine="7" fill="#F1F1F1" height="48" id="DB" rx="2.5" ry="2.5" style="stroke:#181818;stroke-width:0.5;" width="50" x="698" y="214.5547"/><ellipse cx="713" cy="230.5547" fill="#A9DCDF" rx="11" ry="11" style="stroke:#181818;stroke-width:1.0;"/><path d="M712.8633,225.9028 L711.7095,230.9746 L714.0254,230.9746 Z M711.3691,223.6616 L714.3657,223.6616 L717.7109,236.0547 L715.2622,236.0547 L714.4985,232.9917 L711.2197,232.9917 L710.4727,236.0547 L708.0239,236.0547 Z " fill="#000000"/><text fill="#000000" font-family="sans-serif" font-size="14" font-style="italic" lengthAdjust="spacing" textLength="18" x="727" y="235.8457">DB</text><line style="stroke:#181818;stroke-width:0.5;" x1="699" x2="747" y1="246.5547" y2="246.5547"/><line style="stroke:#181818;stroke-width:0.5;" x1="699" x2="747" y1="254.5547" y2="254.5547"/></g></a><!--class Car--><a href="Examples.BadDesign.CarExample.Car-diagram-simplified-grouped-per-namespace.svg" target="_top" title="Examples.BadDesign.CarExample.Car-diagram-simplified-grouped-per-namespace.svg" xlink:actuate="onRequest" xlink:href="Examples.BadDesign.CarExample.Car-diagram-simplified-grouped-per-namespace.svg" xlink:show="new" xlink:title="Examples.BadDesign.CarExample.Car-diagram-simplified-grouped-per-namespace.svg" xlink:type="simple"><g id="elem_Car"><rect codeLine="9" fill="#F1F1F1" height="48" id="Car" rx="2.5" ry="2.5" style="stroke:#181818;stroke-width:0.5;" width="56" x="846" y="422.5547"/><ellipse cx="861" cy="438.5547" fill="#A9DCDF" rx="11" ry="11" style="stroke:#181818;stroke-width:1.0;"/><path d="M860.8633,433.9028 L859.7095,438.9746 L862.0254,438.9746 Z M859.3691,431.6616 L862.3657,431.6616 L865.7109,444.0547 L863.2622,444.0547 L862.4985,440.9917 L859.2197,440.9917 L858.4727,444.0547 L856.0239,444.0547 Z " fill="#000000"/><text fill="#000000" font-family="sans-serif" font-size="14" font-style="italic" lengthAdjust="spacing" textLength="24" x="875" y="443.8457">Car</text><line style="stroke:#181818;stroke-width:0.5;" x1="847" x2="901" y1="454.5547" y2="454.5547"/><line style="stroke:#181818;stroke-width:0.5;" x1="847" x2="901" y1="462.5547" y2="462.5547"/></g></a><!--class Seats--><a href="Examples.BadDesign.CarExample.CarParts.Seats-diagram-simplified-grouped-per-namespace.svg" target="_top" title="Examples.BadDesign.CarExample.CarParts.Seats-diagram-simplified-grouped-per-namespace.svg" xlink:actuate="onRequest" xlink:href="Examples.BadDesign.CarExample.CarParts.Seats-diagram-simplified-grouped-per-namespace.svg" xlink:show="new" xlink:title="Examples.BadDesign.CarExample.CarParts.Seats-diagram-simplified-grouped-per-namespace.svg" xlink:type="simple"><g id="elem_Seats"><rect codeLine="23" fill="#FFFF00" height="48" id="Seats" rx="2.5" ry="2.5" style="stroke:#181818;stroke-width:0.5;" width="68" x="1115" y="214.5547"/><ellipse cx="1130" cy="230.5547" fill="#A9DCDF" rx="11" ry="11" style="stroke:#181818;stroke-width:1.0;"/><path d="M1129.8633,225.9028 L1128.7095,230.9746 L1131.0254,230.9746 Z M1128.3691,223.6616 L1131.3657,223.6616 L1134.7109,236.0547 L1132.2622,236.0547 L1131.4985,232.9917 L1128.2197,232.9917 L1127.4727,236.0547 L1125.0239,236.0547 Z " fill="#000000"/><text fill="#000000" font-family="sans-serif" font-size="14" font-style="italic" lengthAdjust="spacing" textLength="36" x="1144" y="235.8457">Seats</text><line style="stroke:#181818;stroke-width:0.5;" x1="1116" x2="1182" y1="246.5547" y2="246.5547"/><line style="stroke:#181818;stroke-width:0.5;" x1="1116" x2="1182" y1="254.5547" y2="254.5547"/></g></a><!--class Wheels--><a href="Examples.BadDesign.CarExample.CarParts.Wheels-diagram-simplified-grouped-per-namespace.svg" target="_top" title="Examples.BadDesign.CarExample.CarParts.Wheels-diagram-simplified-grouped-per-namespace.svg" xlink:actuate="onRequest" xlink:href="Examples.BadDesign.CarExample.CarParts.Wheels-diagram-simplified-grouped-per-namespace.svg" xlink:show="new" xlink:title="Examples.BadDesign.CarExample.CarParts.Wheels-diagram-simplified-grouped-per-namespace.svg" xlink:type="simple"><g id="elem_Wheels"><rect codeLine="25" fill="#FFFF00" height="48" id="Wheels" rx="2.5" ry="2.5" style="stroke:#181818;stroke-width:0.5;" width="80" x="1000" y="214.5547"/><ellipse cx="1015" cy="230.5547" fill="#A9DCDF" rx="11" ry="11" style="stroke:#181818;stroke-width:1.0;"/><path d="M1014.8633,225.9028 L1013.7095,230.9746 L1016.0254,230.9746 Z M1013.3691,223.6616 L1016.3657,223.6616 L1019.7109,236.0547 L1017.2622,236.0547 L1016.4985,232.9917 L1013.2197,232.9917 L1012.4727,236.0547 L1010.0239,236.0547 Z " fill="#000000"/><text fill="#000000" font-family="sans-serif" font-size="14" font-style="italic" lengthAdjust="spacing" textLength="48" x="1029" y="235.8457">Wheels</text><line style="stroke:#181818;stroke-width:0.5;" x1="1001" x2="1079" y1="246.5547" y2="246.5547"/><line style="stroke:#181818;stroke-width:0.5;" x1="1001" x2="1079" y1="254.5547" y2="254.5547"/></g></a><!--class Driver--><a href="Examples.BadDesign.CarExample.CarParts.Driver-diagram-simplified-grouped-per-namespace.svg" target="_top" title="Examples.BadDesign.CarExample.CarParts.Driver-diagram-simplified-grouped-per-namespace.svg" xlink:actuate="onRequest" xlink:href="Examples.BadDesign.CarExample.CarParts.Driver-diagram-simplified-grouped-per-namespace.svg" xlink:show="new" xlink:title="Examples.BadDesign.CarExample.CarParts.Driver-diagram-simplified-grouped-per-namespace.svg" xlink:type="simple"><g id="elem_Driver"><rect codeLine="27" fill="#FFFF00" height="48" id="Driver" rx="2.5" ry="2.5" style="stroke:#181818;stroke-width:0.5;" width="73" x="891.5" y="214.5547"/><ellipse cx="906.5" cy="230.5547" fill="#A9DCDF" rx="11" ry="11" style="stroke:#181818;stroke-width:1.0;"/><path d="M906.3633,225.9028 L905.2095,230.9746 L907.5254,230.9746 Z M904.8691,223.6616 L907.8657,223.6616 L911.2109,236.0547 L908.7622,236.0547 L907.9985,232.9917 L904.7197,232.9917 L903.9727,236.0547 L901.5239,236.0547 Z " fill="#000000"/><text fill="#000000" font-family="sans-serif" font-size="14" font-style="italic" lengthAdjust="spacing" textLength="41" x="920.5" y="235.8457">Driver</text><line style="stroke:#181818;stroke-width:0.5;" x1="892.5" x2="963.5" y1="246.5547" y2="246.5547"/><line style="stroke:#181818;stroke-width:0.5;" x1="892.5" x2="963.5" y1="254.5547" y2="254.5547"/></g></a><!--class Doors--><a href="Examples.BadDesign.CarExample.CarParts.Doors-diagram-simplified-grouped-per-namespace.svg" target="_top" title="Examples.BadDesign.CarExample.CarParts.Doors-diagram-simplified-grouped-per-namespace.svg" xlink:actuate="onRequest" xlink:href="Examples.BadDesign.CarExample.CarParts.Doors-diagram-simplified-grouped-per-namespace.svg" xlink:show="new" xlink:title="Examples.BadDesign.CarExample.CarParts.Doors-diagram-simplified-grouped-per-namespace.svg" xlink:type="simple"><g id="elem_Doors"><rect codeLine="29" fill="#FFFF00" height="48" id="Doors" rx="2.5" ry="2.5" style="stroke:#181818;stroke-width:0.5;" width="73" x="783.5" y="214.5547"/><ellipse cx="798.5" cy="230.5547" fill="#A9DCDF" rx="11" ry="11" style="stroke:#181818;stroke-width:1.0;"/><path d="M798.3633,225.9028 L797.2095,230.9746 L799.5254,230.9746 Z M796.8691,223.6616 L799.8657,223.6616 L803.2109,236.0547 L800.7622,236.0547 L799.9985,232.9917 L796.7197,232.9917 L795.9727,236.0547 L793.5239,236.0547 Z " fill="#000000"/><text fill="#000000" font-family="sans-serif" font-size="14" font-style="italic" lengthAdjust="spacing" textLength="41" x="812.5" y="235.8457">Doors</text><line style="stroke:#181818;stroke-width:0.5;" x1="784.5" x2="855.5" y1="246.5547" y2="246.5547"/><line style="stroke:#181818;stroke-width:0.5;" x1="784.5" x2="855.5" y1="254.5547" y2="254.5547"/></g></a><g id="elem_FloatingNote"><path d="M6,114.5547 L6,362.2129 L618,362.2129 L618,124.5547 L608,114.5547 L6,114.5547 " fill="#FEFFDD" style="stroke:#181818;stroke-width:0.5;"/><path d="M608,114.5547 L608,124.5547 L618,124.5547 L608,114.5547 " fill="#FEFFDD" style="stroke:#181818;stroke-width:1.0;"/><text fill="#000000" font-family="sans-serif" font-size="13" lengthAdjust="spacing" textLength="120" x="12" y="132.123">Your are analyzing:</text><text fill="#000000" font-family="sans-serif" font-size="13" lengthAdjust="spacing" textLength="264" x="12" y="147.4336">Examples.BadDesign.CarExample.CarParts</text><text fill="#000000" font-family="sans-serif" font-size="13" font-weight="bold" lengthAdjust="spacing" textLength="67" x="280" y="147.4336">simplified</text><text fill="#000000" font-family="sans-serif" font-size="13" lengthAdjust="spacing" textLength="23" x="351" y="147.4336">and</text><text fill="#000000" font-family="sans-serif" font-size="13" font-weight="bold" lengthAdjust="spacing" textLength="166" x="378" y="147.4336">grouped per namespace</text><text fill="#000000" font-family="sans-serif" font-size="13" lengthAdjust="spacing" textLength="4" x="12" y="162.7441">&#160;</text><text fill="#000000" font-family="sans-serif" font-size="13" lengthAdjust="spacing" textLength="229" x="12" y="193.3652">You can click either the namespaces</text><text fill="#000000" font-family="sans-serif" font-size="13" lengthAdjust="spacing" textLength="266" x="12" y="208.6758">or class names for filtering them and their</text><text fill="#000000" font-family="sans-serif" font-size="13" lengthAdjust="spacing" textLength="130" x="12" y="223.9863">direct dependencies.</text><text fill="#000000" font-family="sans-serif" font-size="13" lengthAdjust="spacing" textLength="4" x="12" y="239.2969">&#160;</text><line style="stroke:#181818;stroke-width:1.0;" x1="7" x2="296" y1="173.1416" y2="173.1416"/><line style="stroke:#181818;stroke-width:1.0;" x1="7" x2="296" y1="175.1416" y2="175.1416"/><text fill="#000000" font-family="sans-serif" font-size="13" lengthAdjust="spacing" textLength="32" x="296" y="177.5547">Filter</text><line style="stroke:#181818;stroke-width:1.0;" x1="328" x2="617" y1="173.1416" y2="173.1416"/><line style="stroke:#181818;stroke-width:1.0;" x1="328" x2="617" y1="175.1416" y2="175.1416"/><ellipse cx="17.5" cy="269.1602" fill="#000000" rx="2.5" ry="2.5" style="stroke:#000000;stroke-width:0.0;"/><text fill="#000000" font-family="sans-serif" font-size="13" lengthAdjust="spacing" textLength="264" x="24" y="273.918">Examples.BadDesign.CarExample.CarParts</text><text fill="#000000" font-family="sans-serif" font-size="13" font-weight="bold" lengthAdjust="spacing" textLength="55" x="292" y="273.918">detailed</text><text fill="#000000" font-family="sans-serif" font-size="13" lengthAdjust="spacing" textLength="23" x="351" y="273.918">and</text><text fill="#000000" font-family="sans-serif" font-size="13" font-weight="bold" lengthAdjust="spacing" textLength="166" x="378" y="273.918">grouped per namespace</text><text fill="#000000" font-family="sans-serif" font-size="13" lengthAdjust="spacing" textLength="4" x="544" y="273.918">:</text><text fill="#000000" font-family="sans-serif" font-size="13" lengthAdjust="spacing" textLength="12" x="12" y="289.2285">&#160;&#160;&#160;</text><a href="Examples.BadDesign.CarExample.CarParts-diagram-detailed-grouped-per-namespace.svg" target="_top" title="Examples.BadDesign.CarExample.CarParts-diagram-detailed-grouped-per-namespace.svg" xlink:actuate="onRequest" xlink:href="Examples.BadDesign.CarExample.CarParts-diagram-detailed-grouped-per-namespace.svg" xlink:show="new" xlink:title="Examples.BadDesign.CarExample.CarParts-diagram-detailed-grouped-per-namespace.svg" xlink:type="simple"><text fill="#0000FF" font-family="sans-serif" font-size="13" lengthAdjust="spacing" text-decoration="underline" textLength="573" x="24" y="289.2285">Examples.BadDesign.CarExample.CarParts-diagram-detailed-grouped-per-namespace.svg</text></a><ellipse cx="17.5" cy="299.7813" fill="#000000" rx="2.5" ry="2.5" style="stroke:#000000;stroke-width:0.0;"/><text fill="#000000" font-family="sans-serif" font-size="13" lengthAdjust="spacing" textLength="78" x="24" y="304.5391">Full diagram</text><text fill="#000000" font-family="sans-serif" font-size="13" font-weight="bold" lengthAdjust="spacing" textLength="67" x="106" y="304.5391">simplified</text><text fill="#000000" font-family="sans-serif" font-size="13" lengthAdjust="spacing" textLength="23" x="177" y="304.5391">and</text><text fill="#000000" font-family="sans-serif" font-size="13" font-weight="bold" lengthAdjust="spacing" textLength="166" x="204" y="304.5391">grouped per namespace</text><text fill="#000000" font-family="sans-serif" font-size="13" lengthAdjust="spacing" textLength="4" x="370" y="304.5391">:</text><text fill="#000000" font-family="sans-serif" font-size="13" lengthAdjust="spacing" textLength="12" x="12" y="319.8496">&#160;&#160;&#160;</text><a href="full-diagram-simplified-grouped-per-namespace.svg" target="_top" title="full-diagram-simplified-grouped-per-namespace.svg" xlink:actuate="onRequest" xlink:href="full-diagram-simplified-grouped-per-namespace.svg" xlink:show="new" xlink:title="full-diagram-simplified-grouped-per-namespace.svg" xlink:type="simple"><text fill="#0000FF" font-family="sans-serif" font-size="13" lengthAdjust="spacing" text-decoration="underline" textLength="343" x="24" y="319.8496">full-diagram-simplified-grouped-per-namespace.svg</text></a><ellipse cx="17.5" cy="330.4023" fill="#000000" rx="2.5" ry="2.5" style="stroke:#000000;stroke-width:0.0;"/><text fill="#000000" font-family="sans-serif" font-size="13" lengthAdjust="spacing" textLength="41" x="24" y="335.1602">Home:</text><text fill="#000000" font-family="sans-serif" font-size="13" lengthAdjust="spacing" textLength="12" x="12" y="350.4707">&#160;&#160;&#160;</text><a href="index.html" target="_top" title="index.html" xlink:actuate="onRequest" xlink:href="index.html" xlink:show="new" xlink:title="index.html" xlink:type="simple"><text fill="#0000FF" font-family="sans-serif" font-size="13" lengthAdjust="spacing" text-decoration="underline" textLength="68" x="24" y="350.4707">index.html</text></a><line style="stroke:#181818;stroke-width:1.0;" x1="7" x2="275" y1="253.6943" y2="253.6943"/><line style="stroke:#181818;stroke-width:1.0;" x1="7" x2="275" y1="255.6943" y2="255.6943"/><text fill="#000000" font-family="sans-serif" font-size="13" lengthAdjust="spacing" textLength="74" x="275" y="258.1074">Select other</text><line style="stroke:#181818;stroke-width:1.0;" x1="349" x2="617" y1="253.6943" y2="253.6943"/><line style="stroke:#181818;stroke-width:1.0;" x1="349" x2="617" y1="255.6943" y2="255.6943"/></g><!--link DB to Driver--><g id="link_DB_Driver"><path codeLine="46" d="M733.71,262.7547 C733.71,280.8747 733.71,302.5547 733.71,302.5547 C733.71,302.5547 894.12,302.5547 894.12,302.5547 C894.12,302.5547 894.12,268.7547 894.12,268.7547 " fill="none" id="DB-to-Driver" style="stroke:#6060BB;stroke-width:1.0;stroke-dasharray:7.0,7.0;"/><polygon fill="#6060BB" points="894.12,263.7547,890.12,272.7547,894.12,268.7547,898.12,272.7547,894.12,263.7547" style="stroke:#6060BB;stroke-width:1.0;"/><text fill="#000000" font-family="sans-serif" font-size="13" lengthAdjust="spacing" textLength="29" x="780.92" y="299.123">uses</text></g><!--reverse link Driver to DB--><g id="link_Driver_DB"><path codeLine="57" d="M896.75,276.8747 C896.75,276.8747 896.75,282.5547 896.75,282.5547 C896.75,282.5547 740.86,282.5547 740.86,282.5547 C740.86,282.5547 740.86,273.0447 740.86,262.8747 " fill="none" id="Driver-backto-DB" style="stroke:#10BB10;stroke-width:1.0;"/><polygon fill="#10BB10" points="896.75,263.8747,892.75,269.8747,896.75,275.8747,900.75,269.8747,896.75,263.8747" style="stroke:#10BB10;stroke-width:1.0;"/></g><!--link DB to Car--><g id="link_DB_Car"><path codeLine="47" d="M726.57,262.6747 C726.57,315.8747 726.57,438.5547 726.57,438.5547 C726.57,438.5547 839.57,438.5547 839.57,438.5547 " fill="none" id="DB-to-Car" style="stroke:#6060BB;stroke-width:1.0;stroke-dasharray:7.0,7.0;"/><polygon fill="#6060BB" points="844.57,438.5547,835.57,434.5547,839.57,438.5547,835.57,442.5547,844.57,438.5547" style="stroke:#6060BB;stroke-width:1.0;"/><text fill="#000000" font-family="sans-serif" font-size="13" lengthAdjust="spacing" textLength="29" x="696.57" y="403.683">uses</text></g><!--reverse link Car to DB--><g id="link_Car_DB"><path codeLine="50" d="M831.65,454.5547 C831.65,454.5547 719.43,454.5547 719.43,454.5547 C719.43,454.5547 719.43,319.4047 719.43,262.9147 " fill="none" id="Car-backto-DB" style="stroke:#10BB10;stroke-width:1.0;"/><polygon fill="#10BB10" points="844.65,454.5547,838.65,450.5547,832.65,454.5547,838.65,458.5547,844.65,454.5547" style="stroke:#10BB10;stroke-width:1.0;"/></g><!--reverse link Driver to Car--><g id="link_Driver_Car"><path codeLine="48" d="M899.38,283.8247 C899.38,283.8247 899.38,422.1247 899.38,422.1247 " fill="none" id="Driver-backto-Car" style="stroke:#FF0000;stroke-width:1.0;"/><polygon fill="none" points="892.38,283.8247,899.38,263.8247,906.38,283.8247,892.38,283.8247" style="stroke:#FF0000;stroke-width:1.0;"/></g><!--reverse link Car to Wheels--><g id="link_Car_Wheels"><path codeLine="49" d="M916.42,438.5547 C916.42,438.5547 1053.33,438.5547 1053.33,438.5547 C1053.33,438.5547 1053.33,315.8747 1053.33,262.6747 " fill="none" id="Car-backto-Wheels" style="stroke:#10BB10;stroke-width:1.0;"/><polygon fill="#10BB10" points="903.42,438.5547,909.42,442.5547,915.42,438.5547,909.42,434.5547,903.42,438.5547" style="stroke:#10BB10;stroke-width:1.0;"/></g><!--link Car to Doors--><g id="link_Car_Doors"><path codeLine="51" d="M851.25,422.2847 C851.25,422.2847 851.25,268.9847 851.25,268.9847 " fill="none" id="Car-to-Doors" style="stroke:#6060BB;stroke-width:1.0;stroke-dasharray:7.0,7.0;"/><polygon fill="#6060BB" points="851.25,263.9847,847.25,272.9847,851.25,268.9847,855.25,272.9847,851.25,263.9847" style="stroke:#6060BB;stroke-width:1.0;"/><text fill="#000000" font-family="sans-serif" font-size="13" lengthAdjust="spacing" textLength="29" x="821.25" y="342.203">uses</text></g><!--link Car to Seats--><g id="link_Car_Seats"><path codeLine="52" d="M902.24,454.5547 C974.48,454.5547 1160.33,454.5547 1160.33,454.5547 C1160.33,454.5547 1160.33,268.9147 1160.33,268.9147 " fill="none" id="Car-to-Seats" style="stroke:#909090;stroke-width:1.0;"/><polygon fill="#909090" points="1160.33,263.9147,1156.33,272.9147,1160.33,268.9147,1164.33,272.9147,1160.33,263.9147" style="stroke:#909090;stroke-width:1.0;"/><text fill="#000000" font-family="sans-serif" font-size="13" lengthAdjust="spacing" textLength="29" x="1094.11" y="451.123">uses</text></g><!--reverse link Seats to DB--><g id="link_Seats_DB"><path codeLine="55" d="M1137.67,276.9347 C1137.67,276.9347 1137.67,342.5547 1137.67,342.5547 C1137.67,342.5547 705.14,342.5547 705.14,342.5547 C705.14,342.5547 705.14,293.6747 705.14,262.9347 " fill="none" id="Seats-backto-DB" style="stroke:#10BB10;stroke-width:1.0;"/><polygon fill="#10BB10" points="1137.67,263.9347,1133.67,269.9347,1137.67,275.9347,1141.67,269.9347,1137.67,263.9347" style="stroke:#10BB10;stroke-width:1.0;"/></g><!--reverse link Wheels to DB--><g id="link_Wheels_DB"><path codeLine="56" d="M1026.67,276.8547 C1026.67,276.8547 1026.67,322.5547 1026.67,322.5547 C1026.67,322.5547 712.29,322.5547 712.29,322.5547 C712.29,322.5547 712.29,287.6547 712.29,262.8547 " fill="none" id="Wheels-backto-DB" style="stroke:#10BB10;stroke-width:1.0;"/><polygon fill="#10BB10" points="1026.67,263.8547,1022.67,269.8547,1026.67,275.8547,1030.67,269.8547,1026.67,263.8547" style="stroke:#10BB10;stroke-width:1.0;"/></g><!--reverse link Doors to DB--><g id="link_Doors_DB"><path codeLine="58" d="M769.05,238.5547 C769.05,238.5547 748.41,238.5547 748.41,238.5547 " fill="none" id="Doors-backto-DB" style="stroke:#10BB10;stroke-width:1.0;"/><polygon fill="#10BB10" points="782.05,238.5547,776.05,234.5547,770.05,238.5547,776.05,242.5547,782.05,238.5547" style="stroke:#10BB10;stroke-width:1.0;"/></g><!--SRC=[xLPDRzf04BtpAqRX4CcINT93fAB0WT2efwXI3bK55jhOOrXblMljBlbgyzyxDiPEgX1x4rCk3H4owvdttixCFjlSS9anpL8GNA9zo12KjYlLizmAX3F37t7uUJ3-Ui_IJA099YoUek5B6PmpNQxcbz-PjWOypt1QuGd7sFE0oPYMbbgjCumXGmsIfMWo5g7ddNtAmSSzgIp2qK-rri0qKWuJ3uzSBeTpkGVMkPpBqUY22ujwD9fBueM8IOW4Zsu0kLrHF7tLEGRcKcaAOCPiLY6Xtqa1GJhpwBGWfGkkvpBc6YCBCMOeOvGHfmriQAzGv7TKJfAJUz1wXp5QnaNp_gXg032RjGFsOywMr7r_2- -Ni3x1-XLiO6wNOPZhlLWB0MMIKzstkX82g5Zhz2RURoh5BGIdgju7AvkAC3m2Pk12A6Qf4vSqIRqgkQhjiseuCiElL-3gYhvQvcufdZMjgQdkn5HDODV6QaP3kPdljyTcEccShEd4LKSfvCbT3bsscVHt2pe-LocP8mtpeLe4TsH8GAMmGDQHeYJpIA1K1-T2cTo069t9JECjLskpCElhHOMp49nIQ_MNIY9SOyJM1dC7A-tMS0Fqdt39pGhZu1bsdLjle_VqQa2runttjwMXs_yFQTV4zRF2sVkT_CBzY1PamHKo1ssRS5U5_GSKGjrLIfy-fFZ72b4uIDx47rRpLFDRrEqrR-8Fh5afxL3c8lpZYfsz_HySiDrkVo2_BxQnmysxV1p0CRqujlg3lSNc4lEfrIZePL990tXVJ3EDIA9LMYiVKkoR4z1hV8iAPltJmUbWCWc3iUFPXY5GCmrqJT8M-6yzPx_zMP_EKUWtSpH3WqTe9wJvPD06y8LJTujE1Mm1-Av65eRNljn0ehyCya_eZzsUjnL9XzDTSVISf7HT-XUjtmzuEU5x0Y-cm0tx3m00]--></g></svg>