<?xml version="1.0" encoding="us-ascii" standalone="no"?><svg xmlns="http://www.w3.org/2000/svg" xmlns:xlink="http://www.w3.org/1999/xlink" contentStyleType="text/css" height="1086px" preserveAspectRatio="none" style="width:1607px;height:1086px;background:#FFFFFF;" version="1.1" viewBox="0 0 1607 1086" width="1607px" zoomAndPan="magnify"><defs/><g><text fill="#000000" font-family="sans-serif" font-size="20" font-weight="bold" lengthAdjust="spacing" textLength="499" x="351.25" y="29.3359">Examples.BadDesign.CarExample.CarParts.Doors</text><text fill="#000000" font-family="sans-serif" font-size="20" font-weight="bold" lengthAdjust="spacing" textLength="84" x="857.25" y="29.3359">detailed</text><text fill="#000000" font-family="sans-serif" font-size="20" font-weight="bold" lengthAdjust="spacing" textLength="38" x="948.25" y="29.3359">and</text><text fill="#000000" font-family="sans-serif" font-size="20" font-weight="bold" lengthAdjust="spacing" textLength="249" x="993.25" y="29.3359">grouped per namespace</text><!--cluster Examples--><g id="cluster_Examples"><a href="Examples-diagram-detailed-grouped-per-namespace.svg" target="_top" title="Examples-diagram-detailed-grouped-per-namespace.svg" xlink:actuate="onRequest" xlink:href="Examples-diagram-detailed-grouped-per-namespace.svg" xlink:show="new" xlink:title="Examples-diagram-detailed-grouped-per-namespace.svg" xlink:type="simple"><path d="M692,50.5547 L761,50.5547 A3.75,3.75 0 0 1 763.5,53.0547 L770.5,73.043 L1598,73.043 A2.5,2.5 0 0 1 1600.5,75.543 L1600.5,1076.5547 A2.5,2.5 0 0 1 1598,1079.0547 L692,1079.0547 A2.5,2.5 0 0 1 689.5,1076.5547 L689.5,53.0547 A2.5,2.5 0 0 1 692,50.5547 " fill="none" style="stroke:#000000;stroke-width:1.5;"/><line style="stroke:#000000;stroke-width:1.5;" x1="689.5" x2="770.5" y1="73.043" y2="73.043"/><text fill="#000000" font-family="sans-serif" font-size="14" font-weight="bold" lengthAdjust="spacing" textLength="68" x="693.5" y="66.0898">Examples</text></a></g><!--cluster BadDesign--><g id="cluster_BadDesign"><a href="Examples.BadDesign-diagram-detailed-grouped-per-namespace.svg" target="_top" title="Examples.BadDesign-diagram-detailed-grouped-per-namespace.svg" xlink:actuate="onRequest" xlink:href="Examples.BadDesign-diagram-detailed-grouped-per-namespace.svg" xlink:show="new" xlink:title="Examples.BadDesign-diagram-detailed-grouped-per-namespace.svg" xlink:type="simple"><path d="M716,93.5547 L793,93.5547 A3.75,3.75 0 0 1 795.5,96.0547 L802.5,116.043 L1574,116.043 A2.5,2.5 0 0 1 1576.5,118.543 L1576.5,1052.5547 A2.5,2.5 0 0 1 1574,1055.0547 L716,1055.0547 A2.5,2.5 0 0 1 713.5,1052.5547 L713.5,96.0547 A2.5,2.5 0 0 1 716,93.5547 " fill="none" style="stroke:#000000;stroke-width:1.5;"/><line style="stroke:#000000;stroke-width:1.5;" x1="713.5" x2="802.5" y1="116.043" y2="116.043"/><text fill="#000000" font-family="sans-serif" font-size="14" font-weight="bold" lengthAdjust="spacing" textLength="76" x="717.5" y="109.0898">BadDesign</text></a></g><!--cluster CarExample--><g id="cluster_CarExample"><a href="Examples.BadDesign.CarExample-diagram-detailed-grouped-per-namespace.svg" target="_top" title="Examples.BadDesign.CarExample-diagram-detailed-grouped-per-namespace.svg" xlink:actuate="onRequest" xlink:href="Examples.BadDesign.CarExample-diagram-detailed-grouped-per-namespace.svg" xlink:show="new" xlink:title="Examples.BadDesign.CarExample-diagram-detailed-grouped-per-namespace.svg" xlink:type="simple"><path d="M740,136.5547 L825,136.5547 A3.75,3.75 0 0 1 827.5,139.0547 L834.5,159.043 L1550,159.043 A2.5,2.5 0 0 1 1552.5,161.543 L1552.5,1028.5547 A2.5,2.5 0 0 1 1550,1031.0547 L740,1031.0547 A2.5,2.5 0 0 1 737.5,1028.5547 L737.5,139.0547 A2.5,2.5 0 0 1 740,136.5547 " fill="none" style="stroke:#000000;stroke-width:1.5;"/><line style="stroke:#000000;stroke-width:1.5;" x1="737.5" x2="834.5" y1="159.043" y2="159.043"/><text fill="#000000" font-family="sans-serif" font-size="14" font-weight="bold" lengthAdjust="spacing" textLength="84" x="741.5" y="152.0898">CarExample</text></a></g><!--cluster CarParts--><g id="cluster_CarParts"><a href="Examples.BadDesign.CarExample.CarParts-diagram-detailed-grouped-per-namespace.svg" target="_top" title="Examples.BadDesign.CarExample.CarParts-diagram-detailed-grouped-per-namespace.svg" xlink:actuate="onRequest" xlink:href="Examples.BadDesign.CarExample.CarParts-diagram-detailed-grouped-per-namespace.svg" xlink:show="new" xlink:title="Examples.BadDesign.CarExample.CarParts-diagram-detailed-grouped-per-namespace.svg" xlink:type="simple"><path d="M881,179.5547 L943,179.5547 A3.75,3.75 0 0 1 945.5,182.0547 L952.5,202.043 L1212,202.043 A2.5,2.5 0 0 1 1214.5,204.543 L1214.5,309.0547 A2.5,2.5 0 0 1 1212,311.5547 L881,311.5547 A2.5,2.5 0 0 1 878.5,309.0547 L878.5,182.0547 A2.5,2.5 0 0 1 881,179.5547 " fill="none" style="stroke:#000000;stroke-width:1.5;"/><line style="stroke:#000000;stroke-width:1.5;" x1="878.5" x2="952.5" y1="202.043" y2="202.043"/><text fill="#000000" font-family="sans-serif" font-size="14" font-weight="bold" lengthAdjust="spacing" textLength="61" x="882.5" y="195.0898">CarParts</text></a></g><!--class DB--><a href="Examples.BadDesign.CarExample.DB-diagram-detailed-grouped-per-namespace.svg" target="_top" title="Examples.BadDesign.CarExample.DB-diagram-detailed-grouped-per-namespace.svg" xlink:actuate="onRequest" xlink:href="Examples.BadDesign.CarExample.DB-diagram-detailed-grouped-per-namespace.svg" xlink:show="new" xlink:title="Examples.BadDesign.CarExample.DB-diagram-detailed-grouped-per-namespace.svg" xlink:type="simple"><g id="elem_DB"><rect codeLine="7" fill="#F1F1F1" height="377.7656" id="DB" rx="2.5" ry="2.5" style="stroke:#181818;stroke-width:0.5;" width="745" x="791" y="439.0547"/><ellipse cx="1150.25" cy="455.0547" fill="#A9DCDF" rx="11" ry="11" style="stroke:#181818;stroke-width:1.0;"/><path d="M1150.1133,450.4028 L1148.9595,455.4746 L1151.2754,455.4746 Z M1148.6191,448.1616 L1151.6157,448.1616 L1154.9609,460.5547 L1152.5122,460.5547 L1151.7485,457.4917 L1148.4697,457.4917 L1147.7227,460.5547 L1145.2739,460.5547 Z " fill="#000000"/><text fill="#000000" font-family="sans-serif" font-size="14" font-style="italic" lengthAdjust="spacing" textLength="18" x="1170.75" y="460.3457">DB</text><line style="stroke:#181818;stroke-width:0.5;" x1="792" x2="1535" y1="471.0547" y2="471.0547"/><line style="stroke:#181818;stroke-width:0.5;" x1="792" x2="1535" y1="479.0547" y2="479.0547"/><rect fill="#F24D5C" height="6" style="stroke:#C82930;stroke-width:1.0;" width="6" x="799" y="489.7988"/><text fill="#000000" font-family="sans-serif" font-size="14" lengthAdjust="spacing" textLength="27" x="811" y="496.5898">get(</text><text fill="#000000" font-family="sans-serif" font-size="14" lengthAdjust="spacing" textLength="5" x="838" y="496.5898">)</text><rect fill="#F24D5C" height="6" style="stroke:#C82930;stroke-width:1.0;" width="6" x="799" y="506.2871"/><text fill="#000000" font-family="sans-serif" font-size="14" lengthAdjust="spacing" textLength="101" x="811" y="513.0781">getCarsWhere(</text><text fill="#000000" font-family="sans-serif" font-size="14" lengthAdjust="spacing" textLength="5" x="912" y="513.0781">)</text><rect fill="#F24D5C" height="6" style="stroke:#C82930;stroke-width:1.0;" width="6" x="799" y="522.7754"/><text fill="#000000" font-family="sans-serif" font-size="14" lengthAdjust="spacing" textLength="25" x="811" y="529.5664">set(</text><text fill="#000000" font-family="sans-serif" font-size="14" lengthAdjust="spacing" textLength="5" x="836" y="529.5664">)</text><rect fill="#F24D5C" height="6" style="stroke:#C82930;stroke-width:1.0;" width="6" x="799" y="539.2637"/><text fill="#000000" font-family="sans-serif" font-size="14" lengthAdjust="spacing" textLength="53" x="811" y="546.0547">update(</text><text fill="#000000" font-family="sans-serif" font-size="14" lengthAdjust="spacing" textLength="5" x="864" y="546.0547">)</text><rect fill="#F24D5C" height="6" style="stroke:#C82930;stroke-width:1.0;" width="6" x="799" y="555.752"/><text fill="#000000" font-family="sans-serif" font-size="14" lengthAdjust="spacing" textLength="101" x="811" y="562.543">getUserWhere(</text><text fill="#000000" font-family="sans-serif" font-size="14" lengthAdjust="spacing" textLength="5" x="912" y="562.543">)</text><rect fill="#F24D5C" height="6" style="stroke:#C82930;stroke-width:1.0;" width="6" x="799" y="572.2402"/><text fill="#000000" font-family="sans-serif" font-size="14" lengthAdjust="spacing" textLength="137" x="811" y="579.0313">getCustomerWhere(</text><text fill="#000000" font-family="sans-serif" font-size="14" lengthAdjust="spacing" textLength="5" x="948" y="579.0313">)</text><rect fill="#F24D5C" height="6" style="stroke:#C82930;stroke-width:1.0;" width="6" x="799" y="588.7285"/><text fill="#000000" font-family="sans-serif" font-size="14" lengthAdjust="spacing" textLength="170" x="811" y="595.5195">getWarehouseCarWhere(</text><text fill="#000000" font-family="sans-serif" font-size="14" lengthAdjust="spacing" textLength="5" x="981" y="595.5195">)</text><rect fill="#F24D5C" height="6" style="stroke:#C82930;stroke-width:1.0;" width="6" x="799" y="605.2168"/><text fill="#000000" font-family="sans-serif" font-size="14" lengthAdjust="spacing" textLength="118" x="811" y="612.0078">getInvoiceWhere(</text><text fill="#000000" font-family="sans-serif" font-size="14" lengthAdjust="spacing" textLength="5" x="929" y="612.0078">)</text><rect fill="#F24D5C" height="6" style="stroke:#C82930;stroke-width:1.0;" width="6" x="799" y="621.7051"/><text fill="#000000" font-family="sans-serif" font-size="14" lengthAdjust="spacing" textLength="148" x="811" y="628.4961">getComplaintsWhere(</text><text fill="#000000" font-family="sans-serif" font-size="14" lengthAdjust="spacing" textLength="5" x="959" y="628.4961">)</text><rect fill="#F24D5C" height="6" style="stroke:#C82930;stroke-width:1.0;" width="6" x="799" y="638.1934"/><text fill="#000000" font-family="sans-serif" font-size="14" lengthAdjust="spacing" textLength="167" x="811" y="644.9844">getFirstCustomerWhere(</text><text fill="#000000" font-family="sans-serif" font-size="14" lengthAdjust="spacing" textLength="5" x="978" y="644.9844">)</text><rect fill="#F24D5C" height="6" style="stroke:#C82930;stroke-width:1.0;" width="6" x="799" y="654.6816"/><text fill="#000000" font-family="sans-serif" font-size="14" lengthAdjust="spacing" textLength="194" x="811" y="661.4727">getUserFromWarehouseCar(</text><text fill="#6060BB" font-family="sans-serif" font-size="14" lengthAdjust="spacing" textLength="421" x="1005" y="661.4727">item:Examples.BadDesign.CarExample.WarehouseEntities.Car</text><text fill="#000000" font-family="sans-serif" font-size="14" lengthAdjust="spacing" textLength="5" x="1426" y="661.4727">)</text><rect fill="#F24D5C" height="6" style="stroke:#C82930;stroke-width:1.0;" width="6" x="799" y="671.1699"/><text fill="#000000" font-family="sans-serif" font-size="14" lengthAdjust="spacing" textLength="201" x="811" y="677.9609">getCustomerFromComplaint(</text><text fill="#6060BB" font-family="sans-serif" font-size="14" lengthAdjust="spacing" textLength="513" x="1012" y="677.9609">complaint:Examples.BadDesign.CarExample.WarehouseEntities.Complaints</text><text fill="#000000" font-family="sans-serif" font-size="14" lengthAdjust="spacing" textLength="5" x="1525" y="677.9609">)</text><rect fill="#F24D5C" height="6" style="stroke:#C82930;stroke-width:1.0;" width="6" x="799" y="687.6582"/><text fill="#000000" font-family="sans-serif" font-size="14" lengthAdjust="spacing" textLength="194" x="811" y="694.4492">getWarehouseCarFromUser(</text><text fill="#6060BB" font-family="sans-serif" font-size="14" lengthAdjust="spacing" textLength="421" x="1005" y="694.4492">user:Examples.BadDesign.CarExample.WarehouseEntities.Car</text><text fill="#000000" font-family="sans-serif" font-size="14" lengthAdjust="spacing" textLength="5" x="1426" y="694.4492">)</text><rect fill="#F24D5C" height="6" style="stroke:#C82930;stroke-width:1.0;" width="6" x="799" y="704.1465"/><text fill="#000000" font-family="sans-serif" font-size="14" lengthAdjust="spacing" textLength="178" x="811" y="710.9375">getInvoiceFromCustomer(</text><text fill="#6060BB" font-family="sans-serif" font-size="14" lengthAdjust="spacing" textLength="441" x="989" y="710.9375">c:Examples.BadDesign.CarExample.WarehouseEntities.Customer</text><text fill="#000000" font-family="sans-serif" font-size="14" lengthAdjust="spacing" textLength="5" x="1430" y="710.9375">)</text><rect fill="#F24D5C" height="6" style="stroke:#C82930;stroke-width:1.0;" width="6" x="799" y="720.6348"/><text fill="#000000" font-family="sans-serif" font-size="14" lengthAdjust="spacing" textLength="241" x="811" y="727.4258">getComplaintsFromWarehouseCar(</text><text fill="#6060BB" font-family="sans-serif" font-size="14" lengthAdjust="spacing" textLength="421" x="1052" y="727.4258">item:Examples.BadDesign.CarExample.WarehouseEntities.Car</text><text fill="#000000" font-family="sans-serif" font-size="14" lengthAdjust="spacing" textLength="5" x="1473" y="727.4258">)</text><rect fill="#F24D5C" height="6" style="stroke:#C82930;stroke-width:1.0;" width="6" x="799" y="737.123"/><text fill="#000000" font-family="sans-serif" font-size="14" lengthAdjust="spacing" textLength="128" x="811" y="743.9141">getCarFromDriver(</text><text fill="#6060BB" font-family="sans-serif" font-size="14" lengthAdjust="spacing" textLength="349" x="939" y="743.9141">d:Examples.BadDesign.CarExample.CarParts.Driver</text><text fill="#000000" font-family="sans-serif" font-size="14" lengthAdjust="spacing" textLength="5" x="1288" y="743.9141">)</text><rect fill="#F24D5C" height="6" style="stroke:#C82930;stroke-width:1.0;" width="6" x="799" y="753.6113"/><text fill="#000000" font-family="sans-serif" font-size="14" lengthAdjust="spacing" textLength="128" x="811" y="760.4023">getDriverFromCar(</text><text fill="#6060BB" font-family="sans-serif" font-size="14" lengthAdjust="spacing" textLength="268" x="939" y="760.4023">c:Examples.BadDesign.CarExample.Car</text><text fill="#000000" font-family="sans-serif" font-size="14" lengthAdjust="spacing" textLength="5" x="1207" y="760.4023">)</text><rect fill="#F24D5C" height="6" style="stroke:#C82930;stroke-width:1.0;" width="6" x="799" y="770.0996"/><text fill="#000000" font-family="sans-serif" font-size="14" lengthAdjust="spacing" textLength="135" x="811" y="776.8906">getWheelsFromCar(</text><text fill="#6060BB" font-family="sans-serif" font-size="14" lengthAdjust="spacing" textLength="268" x="946" y="776.8906">c:Examples.BadDesign.CarExample.Car</text><text fill="#000000" font-family="sans-serif" font-size="14" lengthAdjust="spacing" textLength="5" x="1214" y="776.8906">)</text><rect fill="#F24D5C" height="6" style="stroke:#C82930;stroke-width:1.0;" width="6" x="799" y="786.5879"/><text fill="#000000" font-family="sans-serif" font-size="14" lengthAdjust="spacing" textLength="128" x="811" y="793.3789">getDoorsFromCar(</text><text fill="#6060BB" font-family="sans-serif" font-size="14" lengthAdjust="spacing" textLength="268" x="939" y="793.3789">c:Examples.BadDesign.CarExample.Car</text><text fill="#000000" font-family="sans-serif" font-size="14" lengthAdjust="spacing" textLength="5" x="1207" y="793.3789">)</text><rect fill="#F24D5C" height="6" style="stroke:#C82930;stroke-width:1.0;" width="6" x="799" y="803.0762"/><text fill="#000000" font-family="sans-serif" font-size="14" lengthAdjust="spacing" textLength="123" x="811" y="809.8672">getSeatsFromCar(</text><text fill="#6060BB" font-family="sans-serif" font-size="14" lengthAdjust="spacing" textLength="268" x="934" y="809.8672">c:Examples.BadDesign.CarExample.Car</text><text fill="#000000" font-family="sans-serif" font-size="14" lengthAdjust="spacing" textLength="5" x="1202" y="809.8672">)</text></g></a><!--class Car--><a href="Examples.BadDesign.CarExample.Car-diagram-detailed-grouped-per-namespace.svg" target="_top" title="Examples.BadDesign.CarExample.Car-diagram-detailed-grouped-per-namespace.svg" xlink:actuate="onRequest" xlink:href="Examples.BadDesign.CarExample.Car-diagram-detailed-grouped-per-namespace.svg" xlink:show="new" xlink:title="Examples.BadDesign.CarExample.Car-diagram-detailed-grouped-per-namespace.svg" xlink:type="simple"><g id="elem_Car"><rect codeLine="29" fill="#F1F1F1" height="138.4414" id="Car" rx="2.5" ry="2.5" style="stroke:#181818;stroke-width:0.5;" width="482" x="922.5" y="877.0547"/><ellipse cx="1147.25" cy="893.0547" fill="#A9DCDF" rx="11" ry="11" style="stroke:#181818;stroke-width:1.0;"/><path d="M1147.1133,888.4028 L1145.9595,893.4746 L1148.2754,893.4746 Z M1145.6191,886.1616 L1148.6157,886.1616 L1151.9609,898.5547 L1149.5122,898.5547 L1148.7485,895.4917 L1145.4697,895.4917 L1144.7227,898.5547 L1142.2739,898.5547 Z " fill="#000000"/><text fill="#000000" font-family="sans-serif" font-size="14" font-style="italic" lengthAdjust="spacing" textLength="24" x="1167.75" y="898.3457">Car</text><line style="stroke:#181818;stroke-width:0.5;" x1="923.5" x2="1403.5" y1="909.0547" y2="909.0547"/><ellipse cx="933.5" cy="922.7988" fill="none" rx="3" ry="3" style="stroke:#038048;stroke-width:1.0;"/><text fill="#000000" font-family="sans-serif" font-size="14" lengthAdjust="spacing" textLength="398" x="942.5" y="926.5898">wheels: Examples.BadDesign.CarExample.CarParts.Wheels</text><ellipse cx="933.5" cy="939.2871" fill="none" rx="3" ry="3" style="stroke:#038048;stroke-width:1.0;"/><text fill="#000000" font-family="sans-serif" font-size="14" lengthAdjust="spacing" textLength="337" x="942.5" y="943.0781">vehicle: Examples.BadDesign.CarExample.Vehicle</text><ellipse cx="933.5" cy="955.7754" fill="none" rx="3" ry="3" style="stroke:#038048;stroke-width:1.0;"/><text fill="#000000" font-family="sans-serif" font-size="14" lengthAdjust="spacing" textLength="277" x="942.5" y="959.5664">db: Examples.BadDesign.CarExample.DB</text><line style="stroke:#181818;stroke-width:1.0;" x1="923.5" x2="1403.5" y1="966.5195" y2="966.5195"/><line style="stroke:#181818;stroke-width:1.0;" x1="923.5" x2="1403.5" y1="968.5195" y2="968.5195"/><rect fill="#F24D5C" height="6" style="stroke:#C82930;stroke-width:1.0;" width="6" x="930.5" y="977.2637"/><text fill="#000000" font-family="sans-serif" font-size="14" lengthAdjust="spacing" textLength="71" x="942.5" y="984.0547">createCar(</text><text fill="#6060BB" font-family="sans-serif" font-size="14" lengthAdjust="spacing" textLength="380" x="1013.5" y="984.0547">doors:Examples.BadDesign.CarExample.CarParts.Doors</text><text fill="#000000" font-family="sans-serif" font-size="14" lengthAdjust="spacing" textLength="5" x="1393.5" y="984.0547">)</text><rect fill="none" height="6" style="stroke:#C82930;stroke-width:1.0;" width="6" x="930.5" y="993.752"/><text fill="#909090" font-family="sans-serif" font-size="14" lengthAdjust="spacing" textLength="444" x="942.5" y="1000.543">createCar.seats: Examples.BadDesign.CarExample.CarParts.Seats</text><line style="stroke:#181818;stroke-width:1.0;" x1="923.5" x2="1403.5" y1="1007.4961" y2="1007.4961"/></g></a><!--class Doors--><a href="Examples.BadDesign.CarExample.CarParts.Doors-diagram-detailed-grouped-per-namespace.svg" target="_top" title="Examples.BadDesign.CarExample.CarParts.Doors-diagram-detailed-grouped-per-namespace.svg" xlink:actuate="onRequest" xlink:href="Examples.BadDesign.CarExample.CarParts.Doors-diagram-detailed-grouped-per-namespace.svg" xlink:show="new" xlink:title="Examples.BadDesign.CarExample.CarParts.Doors-diagram-detailed-grouped-per-namespace.svg" xlink:type="simple"><g id="elem_Doors"><rect codeLine="50" fill="#FFFF00" height="80.9766" id="Doors" rx="2.5" ry="2.5" style="stroke:#181818;stroke-width:0.5;" width="303" x="895" y="214.5547"/><ellipse cx="1021.75" cy="230.5547" fill="#A9DCDF" rx="11" ry="11" style="stroke:#181818;stroke-width:1.0;"/><path d="M1021.6133,225.9028 L1020.4595,230.9746 L1022.7754,230.9746 Z M1020.1191,223.6616 L1023.1157,223.6616 L1026.4609,236.0547 L1024.0122,236.0547 L1023.2485,232.9917 L1019.9697,232.9917 L1019.2227,236.0547 L1016.7739,236.0547 Z " fill="#000000"/><text fill="#000000" font-family="sans-serif" font-size="14" font-style="italic" lengthAdjust="spacing" textLength="41" x="1042.25" y="235.8457">Doors</text><line style="stroke:#181818;stroke-width:0.5;" x1="896" x2="1197" y1="246.5547" y2="246.5547"/><ellipse cx="906" cy="260.2988" fill="none" rx="3" ry="3" style="stroke:#038048;stroke-width:1.0;"/><text fill="#000000" font-family="sans-serif" font-size="14" lengthAdjust="spacing" textLength="277" x="915" y="264.0898">db: Examples.BadDesign.CarExample.DB</text><line style="stroke:#181818;stroke-width:1.0;" x1="896" x2="1197" y1="271.043" y2="271.043"/><line style="stroke:#181818;stroke-width:1.0;" x1="896" x2="1197" y1="273.043" y2="273.043"/><rect fill="#F24D5C" height="6" style="stroke:#C82930;stroke-width:1.0;" width="6" x="903" y="281.7871"/><text fill="#000000" font-family="sans-serif" font-size="14" lengthAdjust="spacing" textLength="74" x="915" y="288.5781">getWeight(</text><text fill="#000000" font-family="sans-serif" font-size="14" lengthAdjust="spacing" textLength="5" x="989" y="288.5781">)</text></g></a><g id="elem_FloatingNote"><path d="M6,131.0547 L6,378.7129 L673,378.7129 L673,141.0547 L663,131.0547 L6,131.0547 " fill="#FEFFDD" style="stroke:#181818;stroke-width:0.5;"/><path d="M663,131.0547 L663,141.0547 L673,141.0547 L663,131.0547 " fill="#FEFFDD" style="stroke:#181818;stroke-width:1.0;"/><text fill="#000000" font-family="sans-serif" font-size="13" lengthAdjust="spacing" textLength="120" x="12" y="148.623">Your are analyzing:</text><text fill="#000000" font-family="sans-serif" font-size="13" lengthAdjust="spacing" textLength="306" x="12" y="163.9336">Examples.BadDesign.CarExample.CarParts.Doors</text><text fill="#000000" font-family="sans-serif" font-size="13" font-weight="bold" lengthAdjust="spacing" textLength="55" x="322" y="163.9336">detailed</text><text fill="#000000" font-family="sans-serif" font-size="13" lengthAdjust="spacing" textLength="23" x="381" y="163.9336">and</text><text fill="#000000" font-family="sans-serif" font-size="13" font-weight="bold" lengthAdjust="spacing" textLength="166" x="408" y="163.9336">grouped per namespace</text><text fill="#000000" font-family="sans-serif" font-size="13" lengthAdjust="spacing" textLength="4" x="12" y="179.2441">&#160;</text><text fill="#000000" font-family="sans-serif" font-size="13" lengthAdjust="spacing" textLength="229" x="12" y="209.8652">You can click either the namespaces</text><text fill="#000000" font-family="sans-serif" font-size="13" lengthAdjust="spacing" textLength="266" x="12" y="225.1758">or class names for filtering them and their</text><text fill="#000000" font-family="sans-serif" font-size="13" lengthAdjust="spacing" textLength="130" x="12" y="240.4863">direct dependencies.</text><text fill="#000000" font-family="sans-serif" font-size="13" lengthAdjust="spacing" textLength="4" x="12" y="255.7969">&#160;</text><line style="stroke:#181818;stroke-width:1.0;" x1="7" x2="323.5" y1="189.6416" y2="189.6416"/><line style="stroke:#181818;stroke-width:1.0;" x1="7" x2="323.5" y1="191.6416" y2="191.6416"/><text fill="#000000" font-family="sans-serif" font-size="13" lengthAdjust="spacing" textLength="32" x="323.5" y="194.0547">Filter</text><line style="stroke:#181818;stroke-width:1.0;" x1="355.5" x2="672" y1="189.6416" y2="189.6416"/><line style="stroke:#181818;stroke-width:1.0;" x1="355.5" x2="672" y1="191.6416" y2="191.6416"/><ellipse cx="17.5" cy="285.6602" fill="#000000" rx="2.5" ry="2.5" style="stroke:#000000;stroke-width:0.0;"/><text fill="#000000" font-family="sans-serif" font-size="13" lengthAdjust="spacing" textLength="306" x="24" y="290.418">Examples.BadDesign.CarExample.CarParts.Doors</text><text fill="#000000" font-family="sans-serif" font-size="13" font-weight="bold" lengthAdjust="spacing" textLength="67" x="334" y="290.418">simplified</text><text fill="#000000" font-family="sans-serif" font-size="13" lengthAdjust="spacing" textLength="23" x="405" y="290.418">and</text><text fill="#000000" font-family="sans-serif" font-size="13" font-weight="bold" lengthAdjust="spacing" textLength="166" x="432" y="290.418">grouped per namespace</text><text fill="#000000" font-family="sans-serif" font-size="13" lengthAdjust="spacing" textLength="4" x="598" y="290.418">:</text><text fill="#000000" font-family="sans-serif" font-size="13" lengthAdjust="spacing" textLength="12" x="12" y="305.7285">&#160;&#160;&#160;</text><a href="Examples.BadDesign.CarExample.CarParts.Doors-diagram-simplified-grouped-per-namespace.svg" target="_top" title="Examples.BadDesign.CarExample.CarParts.Doors-diagram-simplified-grouped-per-namespace.svg" xlink:actuate="onRequest" xlink:href="Examples.BadDesign.CarExample.CarParts.Doors-diagram-simplified-grouped-per-namespace.svg" xlink:show="new" xlink:title="Examples.BadDesign.CarExample.CarParts.Doors-diagram-simplified-grouped-per-namespace.svg" xlink:type="simple"><text fill="#0000FF" font-family="sans-serif" font-size="13" lengthAdjust="spacing" text-decoration="underline" textLength="628" x="24" y="305.7285">Examples.BadDesign.CarExample.CarParts.Doors-diagram-simplified-grouped-per-namespace.svg</text></a><ellipse cx="17.5" cy="316.2813" fill="#000000" rx="2.5" ry="2.5" style="stroke:#000000;stroke-width:0.0;"/><text fill="#000000" font-family="sans-serif" font-size="13" lengthAdjust="spacing" textLength="78" x="24" y="321.0391">Full diagram</text><text fill="#000000" font-family="sans-serif" font-size="13" font-weight="bold" lengthAdjust="spacing" textLength="55" x="106" y="321.0391">detailed</text><text fill="#000000" font-family="sans-serif" font-size="13" lengthAdjust="spacing" textLength="23" x="165" y="321.0391">and</text><text fill="#000000" font-family="sans-serif" font-size="13" font-weight="bold" lengthAdjust="spacing" textLength="166" x="192" y="321.0391">grouped per namespace</text><text fill="#000000" font-family="sans-serif" font-size="13" lengthAdjust="spacing" textLength="4" x="358" y="321.0391">:</text><text fill="#000000" font-family="sans-serif" font-size="13" lengthAdjust="spacing" textLength="12" x="12" y="336.3496">&#160;&#160;&#160;</text><a href="full-diagram-detailed-grouped-per-namespace.svg" target="_top" title="full-diagram-detailed-grouped-per-namespace.svg" xlink:actuate="onRequest" xlink:href="full-diagram-detailed-grouped-per-namespace.svg" xlink:show="new" xlink:title="full-diagram-detailed-grouped-per-namespace.svg" xlink:type="simple"><text fill="#0000FF" font-family="sans-serif" font-size="13" lengthAdjust="spacing" text-decoration="underline" textLength="330" x="24" y="336.3496">full-diagram-detailed-grouped-per-namespace.svg</text></a><ellipse cx="17.5" cy="346.9023" fill="#000000" rx="2.5" ry="2.5" style="stroke:#000000;stroke-width:0.0;"/><text fill="#000000" font-family="sans-serif" font-size="13" lengthAdjust="spacing" textLength="41" x="24" y="351.6602">Home:</text><text fill="#000000" font-family="sans-serif" font-size="13" lengthAdjust="spacing" textLength="12" x="12" y="366.9707">&#160;&#160;&#160;</text><a href="index.html" target="_top" title="index.html" xlink:actuate="onRequest" xlink:href="index.html" xlink:show="new" xlink:title="index.html" xlink:type="simple"><text fill="#0000FF" font-family="sans-serif" font-size="13" lengthAdjust="spacing" text-decoration="underline" textLength="68" x="24" y="366.9707">index.html</text></a><line style="stroke:#181818;stroke-width:1.0;" x1="7" x2="302.5" y1="270.1943" y2="270.1943"/><line style="stroke:#181818;stroke-width:1.0;" x1="7" x2="302.5" y1="272.1943" y2="272.1943"/><text fill="#000000" font-family="sans-serif" font-size="13" lengthAdjust="spacing" textLength="74" x="302.5" y="274.6074">Select other</text><line style="stroke:#181818;stroke-width:1.0;" x1="376.5" x2="672" y1="270.1943" y2="270.1943"/><line style="stroke:#181818;stroke-width:1.0;" x1="376.5" x2="672" y1="272.1943" y2="272.1943"/></g><!--link DB to Car--><g id="link_DB_Car"><path codeLine="70" d="M1083.17,817.1747 C1083.17,817.1747 1083.17,870.6347 1083.17,870.6347 " fill="none" id="DB-to-Car" style="stroke:#6060BB;stroke-width:1.0;stroke-dasharray:7.0,7.0;"/><polygon fill="#6060BB" points="1083.17,875.6347,1087.17,866.6347,1083.17,870.6347,1079.17,866.6347,1083.17,875.6347" style="stroke:#6060BB;stroke-width:1.0;"/><text fill="#000000" font-family="sans-serif" font-size="13" lengthAdjust="spacing" textLength="29" x="1053.17" y="840.473">uses</text></g><!--reverse link Car to DB--><g id="link_Car_DB"><path codeLine="71" d="M1243.83,862.6647 C1243.83,862.6647 1243.83,817.3747 1243.83,817.3747 " fill="none" id="Car-backto-DB" style="stroke:#10BB10;stroke-width:1.0;"/><polygon fill="#10BB10" points="1243.83,875.6647,1247.83,869.6647,1243.83,863.6647,1239.83,869.6647,1243.83,875.6647" style="stroke:#10BB10;stroke-width:1.0;"/></g><!--link Car to Doors--><g id="link_Car_Doors"><path codeLine="72" d="M922.2,946.0547 C823.48,946.0547 732,946.0547 732,946.0547 C732,946.0547 732,255.0547 732,255.0547 C732,255.0547 888.78,255.0547 888.78,255.0547 " fill="none" id="Car-to-Doors" style="stroke:#6060BB;stroke-width:1.0;stroke-dasharray:7.0,7.0;"/><polygon fill="#6060BB" points="893.78,255.0547,884.78,251.0547,888.78,255.0547,884.78,259.0547,893.78,255.0547" style="stroke:#6060BB;stroke-width:1.0;"/><text fill="#000000" font-family="sans-serif" font-size="13" lengthAdjust="spacing" textLength="29" x="702" y="613.833">uses</text></g><!--reverse link Doors to DB--><g id="link_Doors_DB"><path codeLine="75" d="M1046.5,310.0347 C1046.5,310.0347 1046.5,438.9047 1046.5,438.9047 " fill="none" id="Doors-backto-DB" style="stroke:#10BB10;stroke-width:1.0;"/><polygon fill="#10BB10" points="1046.5,297.0347,1042.5,303.0347,1046.5,309.0347,1050.5,303.0347,1046.5,297.0347" style="stroke:#10BB10;stroke-width:1.0;"/></g><!--SRC=[xLZVRzem47xFNt5g7xPbIahtC6bHuO5HjBrKawPjcWggtEG0QuuTsOQsc_Q_xnn2O1gG687wib9L8RwxxxiVFfzhVd1PCCro45oYVIeGbBOp5LXk1SALuJynUTFfNJ-ol11euZxB1cZuLCRlcQxUkiTFJ5iJ3vJI1i8mGykum2mCWScCNaorcXUOGO4Q9ClH52p5CBowS02zG2gBSFPTpJKmZQJ3nDDFBgV9I9u8UIH7ijiTSc5HTxiZITYGCWcfuEaFG6vd94z_rZe6Hb9f4c36BD_2XBvFIXF4rKdd9IWzS3sI6TUOMiYmG9cXJ3aviOJzZCAjA0VYm4FmzD9mUiydlDbFYY00tDxw04GPPrEgYMWD4rNc8p8VrUPZivYEnux_S2u4L6eUMLYncv1wZRfIRiBye79S6U0KuSTuPdCn7fy1Cp0KYbdAoWrLLb0hrt7UY8WNBlpQOcmTqws1FYR0HjAQakeBIt44Tc-iPbIQoohVNpI3VcDT3Vf-B2eQ015CqRwycYX9N9HGkdlsjlEsq- -VzQuktDlUgqr9WZJVQ3DXInNJslYyo9Z5zao-6DG-J1pvkR5KohvgtwXJpjJS83dlgVfHBXHFqPUdefmoBgtnL1noRGxrqiLpg5M-wUrsRMunJ_QNOstaMjBvvlenBUvBYKEktTuEcwwM_R7hU3Qbrz5mWTZEW6JqiHolAgFqkuh13hVz4Ijx-qlh6NAzZEz0yyKkPxEaxV5P6jc6ibmfuyeE3EaE_hIXK9XJM2w7WLCO_epC7jVmR__ZYnxRp4K77c2luQ7CIz9sj5kciTPUu8od0flKlox5QhNiFcayjODkjqv6gYaLk_TPvYeWyPaT_qdtNtRVTTo7qhk2ZOqhXTP1AWkdWWYYg4hz2zS-QBjdy3oZ4ppGTG6ev2pGO9yZ-QicK763zq8PTprWD24N6XUScjATcT_VrNRk12VLDVSR9H7kCMNKlTpzeheG6Mw0VYTSSZF3BDwmlTPTEn7ytYfG-xjZVHKOMlu_DXyFjgxXrdUnG-Pt_nQuUQyyy9ROYj_v4mgX7cgU_irgTTmXdyxQJUy7T8QJfsbthtYcRb4wiQCN7BEPm0i8s_t0oMGTHRShD0fckP86yB7SBLGW4nf7rimJajsR_w3nRXpVdY_hSXptMemYa00bq43GB1f6j-UNPFYoCuwQx-Wj3FfHtMmPDUiZXhR62Fp-A-OLbJy0]--></g></svg>