<?xml version="1.0" encoding="us-ascii" standalone="no"?><svg xmlns="http://www.w3.org/2000/svg" xmlns:xlink="http://www.w3.org/1999/xlink" contentStyleType="text/css" height="589px" preserveAspectRatio="none" style="width:1484px;height:589px;background:#FFFFFF;" version="1.1" viewBox="0 0 1484 589" width="1484px" zoomAndPan="magnify"><defs/><g><text fill="#000000" font-family="sans-serif" font-size="20" font-weight="bold" lengthAdjust="spacing" textLength="677" x="337.5" y="29.3359">Examples.BetterDesign.Repository.CarExample.WarehouseEntities</text><text fill="#000000" font-family="sans-serif" font-size="20" font-weight="bold" lengthAdjust="spacing" textLength="104" x="1021.5" y="29.3359">simplified</text><text fill="#000000" font-family="sans-serif" font-size="20" font-weight="bold" lengthAdjust="spacing" textLength="7" x="1125.5" y="29.3359">&#160;</text><!--cluster Examples--><g id="cluster_Examples"><path d="M618.5,50.5547 L687.5,50.5547 A3.75,3.75 0 0 1 690,53.0547 L697,73.043 L1474.5,73.043 A2.5,2.5 0 0 1 1477,75.543 L1477,580.0547 A2.5,2.5 0 0 1 1474.5,582.5547 L618.5,582.5547 A2.5,2.5 0 0 1 616,580.0547 L616,53.0547 A2.5,2.5 0 0 1 618.5,50.5547 " fill="none" style="stroke:#000000;stroke-width:1.5;"/><line style="stroke:#000000;stroke-width:1.5;" x1="616" x2="697" y1="73.043" y2="73.043"/><text fill="#000000" font-family="sans-serif" font-size="14" font-weight="bold" lengthAdjust="spacing" textLength="68" x="620" y="66.0898">Examples</text></g><!--cluster BetterDesign--><g id="cluster_BetterDesign"><path d="M642.5,93.5547 L736.5,93.5547 A3.75,3.75 0 0 1 739,96.0547 L746,116.043 L1450.5,116.043 A2.5,2.5 0 0 1 1453,118.543 L1453,556.0547 A2.5,2.5 0 0 1 1450.5,558.5547 L642.5,558.5547 A2.5,2.5 0 0 1 640,556.0547 L640,96.0547 A2.5,2.5 0 0 1 642.5,93.5547 " fill="none" style="stroke:#000000;stroke-width:1.5;"/><line style="stroke:#000000;stroke-width:1.5;" x1="640" x2="746" y1="116.043" y2="116.043"/><text fill="#000000" font-family="sans-serif" font-size="14" font-weight="bold" lengthAdjust="spacing" textLength="93" x="644" y="109.0898">BetterDesign</text></g><!--cluster Repository--><g id="cluster_Repository"><path d="M754.5,136.5547 L833.5,136.5547 A3.75,3.75 0 0 1 836,139.0547 L843,159.043 L1426.5,159.043 A2.5,2.5 0 0 1 1429,161.543 L1429,532.0547 A2.5,2.5 0 0 1 1426.5,534.5547 L754.5,534.5547 A2.5,2.5 0 0 1 752,532.0547 L752,139.0547 A2.5,2.5 0 0 1 754.5,136.5547 " fill="none" style="stroke:#000000;stroke-width:1.5;"/><line style="stroke:#000000;stroke-width:1.5;" x1="752" x2="843" y1="159.043" y2="159.043"/><text fill="#000000" font-family="sans-serif" font-size="14" font-weight="bold" lengthAdjust="spacing" textLength="78" x="756" y="152.0898">Repository</text></g><!--cluster CarExample--><g id="cluster_CarExample"><path d="M778.5,179.5547 L863.5,179.5547 A3.75,3.75 0 0 1 866,182.0547 L873,202.043 L1402.5,202.043 A2.5,2.5 0 0 1 1405,204.543 L1405,508.0547 A2.5,2.5 0 0 1 1402.5,510.5547 L778.5,510.5547 A2.5,2.5 0 0 1 776,508.0547 L776,182.0547 A2.5,2.5 0 0 1 778.5,179.5547 " fill="none" style="stroke:#000000;stroke-width:1.5;"/><line style="stroke:#000000;stroke-width:1.5;" x1="776" x2="873" y1="202.043" y2="202.043"/><text fill="#000000" font-family="sans-serif" font-size="14" font-weight="bold" lengthAdjust="spacing" textLength="84" x="780" y="195.0898">CarExample</text></g><!--cluster WarehouseEntities--><g id="cluster_WarehouseEntities"><path d="M802.5,387.5547 L936.5,387.5547 A3.75,3.75 0 0 1 939,390.0547 L946,410.043 L1378.5,410.043 A2.5,2.5 0 0 1 1381,412.543 L1381,484.0547 A2.5,2.5 0 0 1 1378.5,486.5547 L802.5,486.5547 A2.5,2.5 0 0 1 800,484.0547 L800,390.0547 A2.5,2.5 0 0 1 802.5,387.5547 " fill="none" style="stroke:#000000;stroke-width:1.5;"/><line style="stroke:#000000;stroke-width:1.5;" x1="800" x2="946" y1="410.043" y2="410.043"/><text fill="#000000" font-family="sans-serif" font-size="14" font-weight="bold" lengthAdjust="spacing" textLength="133" x="804" y="403.0898">WarehouseEntities</text></g><!--class Service--><a href="Examples.BetterDesign.Service-diagram-simplified.svg" target="_top" title="Examples.BetterDesign.Service-diagram-simplified.svg" xlink:actuate="onRequest" xlink:href="Examples.BetterDesign.Service-diagram-simplified.svg" xlink:show="new" xlink:title="Examples.BetterDesign.Service-diagram-simplified.svg" xlink:type="simple"><g id="elem_Service"><rect codeLine="4" fill="#F1F1F1" height="48" id="Service" rx="2.5" ry="2.5" style="stroke:#181818;stroke-width:0.5;" width="80" x="656" y="214.5547"/><ellipse cx="671" cy="230.5547" fill="#A9DCDF" rx="11" ry="11" style="stroke:#181818;stroke-width:1.0;"/><path d="M670.8633,225.9028 L669.7095,230.9746 L672.0254,230.9746 Z M669.3691,223.6616 L672.3657,223.6616 L675.7109,236.0547 L673.2622,236.0547 L672.4985,232.9917 L669.2197,232.9917 L668.4727,236.0547 L666.0239,236.0547 Z " fill="#000000"/><text fill="#000000" font-family="sans-serif" font-size="14" font-style="italic" lengthAdjust="spacing" textLength="48" x="685" y="235.8457">Service</text><line style="stroke:#181818;stroke-width:0.5;" x1="657" x2="735" y1="246.5547" y2="246.5547"/><line style="stroke:#181818;stroke-width:0.5;" x1="657" x2="735" y1="254.5547" y2="254.5547"/></g></a><!--class DBWarehouse--><a href="Examples.BetterDesign.Repository.CarExample.DBWarehouse-diagram-simplified.svg" target="_top" title="Examples.BetterDesign.Repository.CarExample.DBWarehouse-diagram-simplified.svg" xlink:actuate="onRequest" xlink:href="Examples.BetterDesign.Repository.CarExample.DBWarehouse-diagram-simplified.svg" xlink:show="new" xlink:title="Examples.BetterDesign.Repository.CarExample.DBWarehouse-diagram-simplified.svg" xlink:type="simple"><g id="elem_DBWarehouse"><rect codeLine="6" fill="#F1F1F1" height="48" id="DBWarehouse" rx="2.5" ry="2.5" style="stroke:#181818;stroke-width:0.5;" width="126" x="1084" y="214.5547"/><ellipse cx="1099" cy="230.5547" fill="#A9DCDF" rx="11" ry="11" style="stroke:#181818;stroke-width:1.0;"/><path d="M1098.8633,225.9028 L1097.7095,230.9746 L1100.0254,230.9746 Z M1097.3691,223.6616 L1100.3657,223.6616 L1103.7109,236.0547 L1101.2622,236.0547 L1100.4985,232.9917 L1097.2197,232.9917 L1096.4727,236.0547 L1094.0239,236.0547 Z " fill="#000000"/><text fill="#000000" font-family="sans-serif" font-size="14" font-style="italic" lengthAdjust="spacing" textLength="94" x="1113" y="235.8457">DBWarehouse</text><line style="stroke:#181818;stroke-width:0.5;" x1="1085" x2="1209" y1="246.5547" y2="246.5547"/><line style="stroke:#181818;stroke-width:0.5;" x1="1085" x2="1209" y1="254.5547" y2="254.5547"/></g></a><!--class User--><a href="Examples.BetterDesign.Repository.CarExample.WarehouseEntities.User-diagram-simplified.svg" target="_top" title="Examples.BetterDesign.Repository.CarExample.WarehouseEntities.User-diagram-simplified.svg" xlink:actuate="onRequest" xlink:href="Examples.BetterDesign.Repository.CarExample.WarehouseEntities.User-diagram-simplified.svg" xlink:show="new" xlink:title="Examples.BetterDesign.Repository.CarExample.WarehouseEntities.User-diagram-simplified.svg" xlink:type="simple"><g id="elem_User"><rect codeLine="8" fill="#FFFF00" height="48" id="User" rx="2.5" ry="2.5" style="stroke:#181818;stroke-width:0.5;" width="63" x="1301.5" y="422.5547"/><ellipse cx="1316.5" cy="438.5547" fill="#A9DCDF" rx="11" ry="11" style="stroke:#181818;stroke-width:1.0;"/><path d="M1316.3633,433.9028 L1315.2095,438.9746 L1317.5254,438.9746 Z M1314.8691,431.6616 L1317.8657,431.6616 L1321.2109,444.0547 L1318.7622,444.0547 L1317.9985,440.9917 L1314.7197,440.9917 L1313.9727,444.0547 L1311.5239,444.0547 Z " fill="#000000"/><text fill="#000000" font-family="sans-serif" font-size="14" font-style="italic" lengthAdjust="spacing" textLength="31" x="1330.5" y="443.8457">User</text><line style="stroke:#181818;stroke-width:0.5;" x1="1302.5" x2="1363.5" y1="454.5547" y2="454.5547"/><line style="stroke:#181818;stroke-width:0.5;" x1="1302.5" x2="1363.5" y1="462.5547" y2="462.5547"/></g></a><!--class Customer--><a href="Examples.BetterDesign.Repository.CarExample.WarehouseEntities.Customer-diagram-simplified.svg" target="_top" title="Examples.BetterDesign.Repository.CarExample.WarehouseEntities.Customer-diagram-simplified.svg" xlink:actuate="onRequest" xlink:href="Examples.BetterDesign.Repository.CarExample.WarehouseEntities.Customer-diagram-simplified.svg" xlink:show="new" xlink:title="Examples.BetterDesign.Repository.CarExample.WarehouseEntities.Customer-diagram-simplified.svg" xlink:type="simple"><g id="elem_Customer"><rect codeLine="10" fill="#FFFF00" height="48" id="Customer" rx="2.5" ry="2.5" style="stroke:#181818;stroke-width:0.5;" width="99" x="1167.5" y="422.5547"/><ellipse cx="1182.5" cy="438.5547" fill="#A9DCDF" rx="11" ry="11" style="stroke:#181818;stroke-width:1.0;"/><path d="M1182.3633,433.9028 L1181.2095,438.9746 L1183.5254,438.9746 Z M1180.8691,431.6616 L1183.8657,431.6616 L1187.2109,444.0547 L1184.7622,444.0547 L1183.9985,440.9917 L1180.7197,440.9917 L1179.9727,444.0547 L1177.5239,444.0547 Z " fill="#000000"/><text fill="#000000" font-family="sans-serif" font-size="14" font-style="italic" lengthAdjust="spacing" textLength="67" x="1196.5" y="443.8457">Customer</text><line style="stroke:#181818;stroke-width:0.5;" x1="1168.5" x2="1265.5" y1="454.5547" y2="454.5547"/><line style="stroke:#181818;stroke-width:0.5;" x1="1168.5" x2="1265.5" y1="462.5547" y2="462.5547"/></g></a><!--class Complaints--><a href="Examples.BetterDesign.Repository.CarExample.WarehouseEntities.Complaints-diagram-simplified.svg" target="_top" title="Examples.BetterDesign.Repository.CarExample.WarehouseEntities.Complaints-diagram-simplified.svg" xlink:actuate="onRequest" xlink:href="Examples.BetterDesign.Repository.CarExample.WarehouseEntities.Complaints-diagram-simplified.svg" xlink:show="new" xlink:title="Examples.BetterDesign.Repository.CarExample.WarehouseEntities.Complaints-diagram-simplified.svg" xlink:type="simple"><g id="elem_Complaints"><rect codeLine="12" fill="#FFFF00" height="48" id="Complaints" rx="2.5" ry="2.5" style="stroke:#181818;stroke-width:0.5;" width="110" x="1022" y="422.5547"/><ellipse cx="1037" cy="438.5547" fill="#A9DCDF" rx="11" ry="11" style="stroke:#181818;stroke-width:1.0;"/><path d="M1036.8633,433.9028 L1035.7095,438.9746 L1038.0254,438.9746 Z M1035.3691,431.6616 L1038.3657,431.6616 L1041.7109,444.0547 L1039.2622,444.0547 L1038.4985,440.9917 L1035.2197,440.9917 L1034.4727,444.0547 L1032.0239,444.0547 Z " fill="#000000"/><text fill="#000000" font-family="sans-serif" font-size="14" font-style="italic" lengthAdjust="spacing" textLength="78" x="1051" y="443.8457">Complaints</text><line style="stroke:#181818;stroke-width:0.5;" x1="1023" x2="1131" y1="454.5547" y2="454.5547"/><line style="stroke:#181818;stroke-width:0.5;" x1="1023" x2="1131" y1="462.5547" y2="462.5547"/></g></a><!--class Invoice--><a href="Examples.BetterDesign.Repository.CarExample.WarehouseEntities.Invoice-diagram-simplified.svg" target="_top" title="Examples.BetterDesign.Repository.CarExample.WarehouseEntities.Invoice-diagram-simplified.svg" xlink:actuate="onRequest" xlink:href="Examples.BetterDesign.Repository.CarExample.WarehouseEntities.Invoice-diagram-simplified.svg" xlink:show="new" xlink:title="Examples.BetterDesign.Repository.CarExample.WarehouseEntities.Invoice-diagram-simplified.svg" xlink:type="simple"><g id="elem_Invoice"><rect codeLine="14" fill="#FFFF00" height="48" id="Invoice" rx="2.5" ry="2.5" style="stroke:#181818;stroke-width:0.5;" width="80" x="907" y="422.5547"/><ellipse cx="922" cy="438.5547" fill="#A9DCDF" rx="11" ry="11" style="stroke:#181818;stroke-width:1.0;"/><path d="M921.8633,433.9028 L920.7095,438.9746 L923.0254,438.9746 Z M920.3691,431.6616 L923.3657,431.6616 L926.7109,444.0547 L924.2622,444.0547 L923.4985,440.9917 L920.2197,440.9917 L919.4727,444.0547 L917.0239,444.0547 Z " fill="#000000"/><text fill="#000000" font-family="sans-serif" font-size="14" font-style="italic" lengthAdjust="spacing" textLength="48" x="936" y="443.8457">Invoice</text><line style="stroke:#181818;stroke-width:0.5;" x1="908" x2="986" y1="454.5547" y2="454.5547"/><line style="stroke:#181818;stroke-width:0.5;" x1="908" x2="986" y1="462.5547" y2="462.5547"/></g></a><!--class Car--><a href="Examples.BetterDesign.Repository.CarExample.WarehouseEntities.Car-diagram-simplified.svg" target="_top" title="Examples.BetterDesign.Repository.CarExample.WarehouseEntities.Car-diagram-simplified.svg" xlink:actuate="onRequest" xlink:href="Examples.BetterDesign.Repository.CarExample.WarehouseEntities.Car-diagram-simplified.svg" xlink:show="new" xlink:title="Examples.BetterDesign.Repository.CarExample.WarehouseEntities.Car-diagram-simplified.svg" xlink:type="simple"><g id="elem_Car"><rect codeLine="16" fill="#FFFF00" height="48" id="Car" rx="2.5" ry="2.5" style="stroke:#181818;stroke-width:0.5;" width="56" x="816" y="422.5547"/><ellipse cx="831" cy="438.5547" fill="#A9DCDF" rx="11" ry="11" style="stroke:#181818;stroke-width:1.0;"/><path d="M830.8633,433.9028 L829.7095,438.9746 L832.0254,438.9746 Z M829.3691,431.6616 L832.3657,431.6616 L835.7109,444.0547 L833.2622,444.0547 L832.4985,440.9917 L829.2197,440.9917 L828.4727,444.0547 L826.0239,444.0547 Z " fill="#000000"/><text fill="#000000" font-family="sans-serif" font-size="14" font-style="italic" lengthAdjust="spacing" textLength="24" x="845" y="443.8457">Car</text><line style="stroke:#181818;stroke-width:0.5;" x1="817" x2="871" y1="454.5547" y2="454.5547"/><line style="stroke:#181818;stroke-width:0.5;" x1="817" x2="871" y1="462.5547" y2="462.5547"/></g></a><g id="elem_FloatingNote"><path d="M6,114.5547 L6,362.2129 L600,362.2129 L600,124.5547 L590,114.5547 L6,114.5547 " fill="#FEFFDD" style="stroke:#181818;stroke-width:0.5;"/><path d="M590,114.5547 L590,124.5547 L600,124.5547 L590,114.5547 " fill="#FEFFDD" style="stroke:#181818;stroke-width:1.0;"/><text fill="#000000" font-family="sans-serif" font-size="13" lengthAdjust="spacing" textLength="120" x="12" y="132.123">Your are analyzing:</text><text fill="#000000" font-family="sans-serif" font-size="13" lengthAdjust="spacing" textLength="412" x="12" y="147.4336">Examples.BetterDesign.Repository.CarExample.WarehouseEntities</text><text fill="#000000" font-family="sans-serif" font-size="13" font-weight="bold" lengthAdjust="spacing" textLength="67" x="428" y="147.4336">simplified</text><text fill="#000000" font-family="sans-serif" font-size="13" lengthAdjust="spacing" textLength="4" x="495" y="147.4336">&#160;</text><text fill="#000000" font-family="sans-serif" font-size="13" lengthAdjust="spacing" textLength="4" x="12" y="162.7441">&#160;</text><text fill="#000000" font-family="sans-serif" font-size="13" lengthAdjust="spacing" textLength="229" x="12" y="193.3652">You can click either the namespaces</text><text fill="#000000" font-family="sans-serif" font-size="13" lengthAdjust="spacing" textLength="266" x="12" y="208.6758">or class names for filtering them and their</text><text fill="#000000" font-family="sans-serif" font-size="13" lengthAdjust="spacing" textLength="130" x="12" y="223.9863">direct dependencies.</text><text fill="#000000" font-family="sans-serif" font-size="13" lengthAdjust="spacing" textLength="4" x="12" y="239.2969">&#160;</text><line style="stroke:#181818;stroke-width:1.0;" x1="7" x2="287" y1="173.1416" y2="173.1416"/><line style="stroke:#181818;stroke-width:1.0;" x1="7" x2="287" y1="175.1416" y2="175.1416"/><text fill="#000000" font-family="sans-serif" font-size="13" lengthAdjust="spacing" textLength="32" x="287" y="177.5547">Filter</text><line style="stroke:#181818;stroke-width:1.0;" x1="319" x2="599" y1="173.1416" y2="173.1416"/><line style="stroke:#181818;stroke-width:1.0;" x1="319" x2="599" y1="175.1416" y2="175.1416"/><ellipse cx="17.5" cy="269.1602" fill="#000000" rx="2.5" ry="2.5" style="stroke:#000000;stroke-width:0.0;"/><text fill="#000000" font-family="sans-serif" font-size="13" lengthAdjust="spacing" textLength="412" x="24" y="273.918">Examples.BetterDesign.Repository.CarExample.WarehouseEntities</text><text fill="#000000" font-family="sans-serif" font-size="13" font-weight="bold" lengthAdjust="spacing" textLength="55" x="440" y="273.918">detailed</text><text fill="#000000" font-family="sans-serif" font-size="13" lengthAdjust="spacing" textLength="4" x="499" y="273.918">:</text><text fill="#000000" font-family="sans-serif" font-size="13" lengthAdjust="spacing" textLength="12" x="12" y="289.2285">&#160;&#160;&#160;</text><a href="Examples.BetterDesign.Repository.CarExample.WarehouseEntities-diagram-detailed.svg" target="_top" title="Examples.BetterDesign.Repository.CarExample.WarehouseEntities-diagram-detailed.svg" xlink:actuate="onRequest" xlink:href="Examples.BetterDesign.Repository.CarExample.WarehouseEntities-diagram-detailed.svg" xlink:show="new" xlink:title="Examples.BetterDesign.Repository.CarExample.WarehouseEntities-diagram-detailed.svg" xlink:type="simple"><text fill="#0000FF" font-family="sans-serif" font-size="13" lengthAdjust="spacing" text-decoration="underline" textLength="555" x="24" y="289.2285">Examples.BetterDesign.Repository.CarExample.WarehouseEntities-diagram-detailed.svg</text></a><ellipse cx="17.5" cy="299.7813" fill="#000000" rx="2.5" ry="2.5" style="stroke:#000000;stroke-width:0.0;"/><text fill="#000000" font-family="sans-serif" font-size="13" lengthAdjust="spacing" textLength="78" x="24" y="304.5391">Full diagram</text><text fill="#000000" font-family="sans-serif" font-size="13" font-weight="bold" lengthAdjust="spacing" textLength="67" x="106" y="304.5391">simplified</text><text fill="#000000" font-family="sans-serif" font-size="13" lengthAdjust="spacing" textLength="23" x="177" y="304.5391">and</text><text fill="#000000" font-family="sans-serif" font-size="13" font-weight="bold" lengthAdjust="spacing" textLength="166" x="204" y="304.5391">grouped per namespace</text><text fill="#000000" font-family="sans-serif" font-size="13" lengthAdjust="spacing" textLength="4" x="370" y="304.5391">:</text><text fill="#000000" font-family="sans-serif" font-size="13" lengthAdjust="spacing" textLength="12" x="12" y="319.8496">&#160;&#160;&#160;</text><a href="full-diagram-simplified-grouped-per-namespace.svg" target="_top" title="full-diagram-simplified-grouped-per-namespace.svg" xlink:actuate="onRequest" xlink:href="full-diagram-simplified-grouped-per-namespace.svg" xlink:show="new" xlink:title="full-diagram-simplified-grouped-per-namespace.svg" xlink:type="simple"><text fill="#0000FF" font-family="sans-serif" font-size="13" lengthAdjust="spacing" text-decoration="underline" textLength="343" x="24" y="319.8496">full-diagram-simplified-grouped-per-namespace.svg</text></a><ellipse cx="17.5" cy="330.4023" fill="#000000" rx="2.5" ry="2.5" style="stroke:#000000;stroke-width:0.0;"/><text fill="#000000" font-family="sans-serif" font-size="13" lengthAdjust="spacing" textLength="41" x="24" y="335.1602">Home:</text><text fill="#000000" font-family="sans-serif" font-size="13" lengthAdjust="spacing" textLength="12" x="12" y="350.4707">&#160;&#160;&#160;</text><a href="index.html" target="_top" title="index.html" xlink:actuate="onRequest" xlink:href="index.html" xlink:show="new" xlink:title="index.html" xlink:type="simple"><text fill="#0000FF" font-family="sans-serif" font-size="13" lengthAdjust="spacing" text-decoration="underline" textLength="68" x="24" y="350.4707">index.html</text></a><line style="stroke:#181818;stroke-width:1.0;" x1="7" x2="266" y1="253.6943" y2="253.6943"/><line style="stroke:#181818;stroke-width:1.0;" x1="7" x2="266" y1="255.6943" y2="255.6943"/><text fill="#000000" font-family="sans-serif" font-size="13" lengthAdjust="spacing" textLength="74" x="266" y="258.1074">Select other</text><line style="stroke:#181818;stroke-width:1.0;" x1="340" x2="599" y1="253.6943" y2="253.6943"/><line style="stroke:#181818;stroke-width:1.0;" x1="340" x2="599" y1="255.6943" y2="255.6943"/></g><!--link Service to Car--><g id="link_Service_Car"><path codeLine="23" d="M736.44,246.5547 C780.26,246.5547 844,246.5547 844,246.5547 C844,246.5547 844,416.4347 844,416.4347 " fill="none" id="Service-to-Car" style="stroke:#6060BB;stroke-width:1.0;stroke-dasharray:7.0,7.0;"/><polygon fill="#6060BB" points="844,421.4347,848,412.4347,844,416.4347,840,412.4347,844,421.4347" style="stroke:#6060BB;stroke-width:1.0;"/><text fill="#000000" font-family="sans-serif" font-size="13" lengthAdjust="spacing" textLength="29" x="814" y="274.283">uses</text></g><!--link DBWarehouse to Invoice--><g id="link_DBWarehouse_Invoice"><path codeLine="26" d="M1083.72,230.5547 C1025.12,230.5547 947,230.5547 947,230.5547 C947,230.5547 947,416.1947 947,416.1947 " fill="none" id="DBWarehouse-to-Invoice" style="stroke:#6060BB;stroke-width:1.0;stroke-dasharray:7.0,7.0;"/><polygon fill="#6060BB" points="947,421.1947,951,412.1947,947,416.1947,943,412.1947,947,421.1947" style="stroke:#6060BB;stroke-width:1.0;"/><text fill="#000000" font-family="sans-serif" font-size="13" lengthAdjust="spacing" textLength="29" x="917" y="251.583">uses</text></g><!--link DBWarehouse to Complaints--><g id="link_DBWarehouse_Complaints"><path codeLine="27" d="M1108,262.8247 C1108,262.8247 1108,416.1247 1108,416.1247 " fill="none" id="DBWarehouse-to-Complaints" style="stroke:#6060BB;stroke-width:1.0;stroke-dasharray:7.0,7.0;"/><polygon fill="#6060BB" points="1108,421.1247,1112,412.1247,1108,416.1247,1104,412.1247,1108,421.1247" style="stroke:#6060BB;stroke-width:1.0;"/><text fill="#000000" font-family="sans-serif" font-size="13" lengthAdjust="spacing" textLength="29" x="1078" y="336.043">uses</text></g><!--link DBWarehouse to Customer--><g id="link_DBWarehouse_Customer"><path codeLine="28" d="M1188.75,262.8247 C1188.75,262.8247 1188.75,416.1247 1188.75,416.1247 " fill="none" id="DBWarehouse-to-Customer" style="stroke:#6060BB;stroke-width:1.0;stroke-dasharray:7.0,7.0;"/><polygon fill="#6060BB" points="1188.75,421.1247,1192.75,412.1247,1188.75,416.1247,1184.75,412.1247,1188.75,421.1247" style="stroke:#6060BB;stroke-width:1.0;"/><text fill="#000000" font-family="sans-serif" font-size="13" lengthAdjust="spacing" textLength="29" x="1158.75" y="336.043">uses</text></g><!--link DBWarehouse to User--><g id="link_DBWarehouse_User"><path codeLine="29" d="M1210.49,238.5547 C1264.37,238.5547 1333,238.5547 1333,238.5547 C1333,238.5547 1333,416.2847 1333,416.2847 " fill="none" id="DBWarehouse-to-User" style="stroke:#6060BB;stroke-width:1.0;stroke-dasharray:7.0,7.0;"/><polygon fill="#6060BB" points="1333,421.2847,1337,412.2847,1333,416.2847,1329,412.2847,1333,421.2847" style="stroke:#6060BB;stroke-width:1.0;"/><text fill="#000000" font-family="sans-serif" font-size="13" lengthAdjust="spacing" textLength="29" x="1303" y="262.733">uses</text></g><!--SRC=[pLN1Rjf04Btp5QFa4CcIjwY7753W00bgBpqqggeASzZQ0uoothLsrnHIzTyxDjX4YPE66YIl10Blp9lttenttGFfJ5gPWYADVfiX6EjNfkV9AuGRHuyu-DWVtMracYbqOepUexr5Hqijlc9c77bZjs8YxJv6V9SMLoPtUASPXT1143ZYBLeG9a40DnyAs55F6uzmySFa5ZW5f9Pg-qXwEOZqIUj5EjB3uPGK8ms7aUQA44iDiQBu0P3y2Ytm5sYPeijap12HDfO3f7Exfx3W_uiIWXaMqIaJJeeVP2ETaCNOGu8PwWHrp2p4hkmzgcB754MAuW6qrPQWbwHAPUmK0CnchI33XEIIHo2iW8LRB-VpWkeqLmhssyzTBTG7mTAQFCC4ChQmjYy8Ac8B1gZn3-dXFYtajB1EEzJzP5Ai88WDtOYLJzLyVW7ImLGPwRa9NtXyUW3of_DMiiMxRZLRSOzsJJ6-QjL-lu7gZXJ0RoxrXp_5UbV9PlTlnxN_H_RjIUO_Q1QhejgAx8jH4TySzxdbl9KWhqkutA9IvbUjv6nQ9hdpF6VjzLH0NT1aU4EIzgwzgXgg0xe-wxLvw_qz4gSBdP8d63nvxCnTyP7zhWLdYxs2IMcVHSN7kD4ES5FQohV8mfhqS8qCEBRHeDxRXxoONLxth_lZyLoCJj0b600_SYTXtbouzxyto0cLLczOhRO3d9wSPfsYLLqSNI9Ltipd7zMNbVy2]--></g></svg>