<?xml version="1.0" encoding="us-ascii" standalone="no"?><svg xmlns="http://www.w3.org/2000/svg" xmlns:xlink="http://www.w3.org/1999/xlink" contentStyleType="text/css" height="721px" preserveAspectRatio="none" style="width:2053px;height:721px;background:#FFFFFF;" version="1.1" viewBox="0 0 2053 721" width="2053px" zoomAndPan="magnify"><defs/><g><text fill="#000000" font-family="sans-serif" font-size="20" font-weight="bold" lengthAdjust="spacing" textLength="651" x="498" y="29.3359">Examples.BetterDesign.Repository.CarExample.CarParts.Wheels</text><text fill="#000000" font-family="sans-serif" font-size="20" font-weight="bold" lengthAdjust="spacing" textLength="84" x="1156" y="29.3359">detailed</text><text fill="#000000" font-family="sans-serif" font-size="20" font-weight="bold" lengthAdjust="spacing" textLength="38" x="1247" y="29.3359">and</text><text fill="#000000" font-family="sans-serif" font-size="20" font-weight="bold" lengthAdjust="spacing" textLength="249" x="1292" y="29.3359">grouped per namespace</text><!--cluster Examples--><g id="cluster_Examples"><a href="Examples-diagram-detailed-grouped-per-namespace.svg" target="_top" title="Examples-diagram-detailed-grouped-per-namespace.svg" xlink:actuate="onRequest" xlink:href="Examples-diagram-detailed-grouped-per-namespace.svg" xlink:show="new" xlink:title="Examples-diagram-detailed-grouped-per-namespace.svg" xlink:type="simple"><path d="M782.5,50.5547 L851.5,50.5547 A3.75,3.75 0 0 1 854,53.0547 L861,73.043 L2043.5,73.043 A2.5,2.5 0 0 1 2046,75.543 L2046,712.0547 A2.5,2.5 0 0 1 2043.5,714.5547 L782.5,714.5547 A2.5,2.5 0 0 1 780,712.0547 L780,53.0547 A2.5,2.5 0 0 1 782.5,50.5547 " fill="none" style="stroke:#000000;stroke-width:1.5;"/><line style="stroke:#000000;stroke-width:1.5;" x1="780" x2="861" y1="73.043" y2="73.043"/><text fill="#000000" font-family="sans-serif" font-size="14" font-weight="bold" lengthAdjust="spacing" textLength="68" x="784" y="66.0898">Examples</text></a></g><!--cluster BetterDesign--><g id="cluster_BetterDesign"><a href="Examples.BetterDesign-diagram-detailed-grouped-per-namespace.svg" target="_top" title="Examples.BetterDesign-diagram-detailed-grouped-per-namespace.svg" xlink:actuate="onRequest" xlink:href="Examples.BetterDesign-diagram-detailed-grouped-per-namespace.svg" xlink:show="new" xlink:title="Examples.BetterDesign-diagram-detailed-grouped-per-namespace.svg" xlink:type="simple"><path d="M806.5,93.5547 L900.5,93.5547 A3.75,3.75 0 0 1 903,96.0547 L910,116.043 L2019.5,116.043 A2.5,2.5 0 0 1 2022,118.543 L2022,688.0547 A2.5,2.5 0 0 1 2019.5,690.5547 L806.5,690.5547 A2.5,2.5 0 0 1 804,688.0547 L804,96.0547 A2.5,2.5 0 0 1 806.5,93.5547 " fill="none" style="stroke:#000000;stroke-width:1.5;"/><line style="stroke:#000000;stroke-width:1.5;" x1="804" x2="910" y1="116.043" y2="116.043"/><text fill="#000000" font-family="sans-serif" font-size="14" font-weight="bold" lengthAdjust="spacing" textLength="93" x="808" y="109.0898">BetterDesign</text></a></g><!--cluster Repository--><g id="cluster_Repository"><a href="Examples.BetterDesign.Repository-diagram-detailed-grouped-per-namespace.svg" target="_top" title="Examples.BetterDesign.Repository-diagram-detailed-grouped-per-namespace.svg" xlink:actuate="onRequest" xlink:href="Examples.BetterDesign.Repository-diagram-detailed-grouped-per-namespace.svg" xlink:show="new" xlink:title="Examples.BetterDesign.Repository-diagram-detailed-grouped-per-namespace.svg" xlink:type="simple"><path d="M830.5,136.5547 L909.5,136.5547 A3.75,3.75 0 0 1 912,139.0547 L919,159.043 L1995.5,159.043 A2.5,2.5 0 0 1 1998,161.543 L1998,664.0547 A2.5,2.5 0 0 1 1995.5,666.5547 L830.5,666.5547 A2.5,2.5 0 0 1 828,664.0547 L828,139.0547 A2.5,2.5 0 0 1 830.5,136.5547 " fill="none" style="stroke:#000000;stroke-width:1.5;"/><line style="stroke:#000000;stroke-width:1.5;" x1="828" x2="919" y1="159.043" y2="159.043"/><text fill="#000000" font-family="sans-serif" font-size="14" font-weight="bold" lengthAdjust="spacing" textLength="78" x="832" y="152.0898">Repository</text></a></g><!--cluster CarExample--><g id="cluster_CarExample"><a href="Examples.BetterDesign.Repository.CarExample-diagram-detailed-grouped-per-namespace.svg" target="_top" title="Examples.BetterDesign.Repository.CarExample-diagram-detailed-grouped-per-namespace.svg" xlink:actuate="onRequest" xlink:href="Examples.BetterDesign.Repository.CarExample-diagram-detailed-grouped-per-namespace.svg" xlink:show="new" xlink:title="Examples.BetterDesign.Repository.CarExample-diagram-detailed-grouped-per-namespace.svg" xlink:type="simple"><path d="M854.5,179.5547 L939.5,179.5547 A3.75,3.75 0 0 1 942,182.0547 L949,202.043 L1971.5,202.043 A2.5,2.5 0 0 1 1974,204.543 L1974,640.0547 A2.5,2.5 0 0 1 1971.5,642.5547 L854.5,642.5547 A2.5,2.5 0 0 1 852,640.0547 L852,182.0547 A2.5,2.5 0 0 1 854.5,179.5547 " fill="none" style="stroke:#000000;stroke-width:1.5;"/><line style="stroke:#000000;stroke-width:1.5;" x1="852" x2="949" y1="202.043" y2="202.043"/><text fill="#000000" font-family="sans-serif" font-size="14" font-weight="bold" lengthAdjust="spacing" textLength="84" x="856" y="195.0898">CarExample</text></a></g><!--cluster CarParts--><g id="cluster_CarParts"><a href="Examples.BetterDesign.Repository.CarExample.CarParts-diagram-detailed-grouped-per-namespace.svg" target="_top" title="Examples.BetterDesign.Repository.CarExample.CarParts-diagram-detailed-grouped-per-namespace.svg" xlink:actuate="onRequest" xlink:href="Examples.BetterDesign.Repository.CarExample.CarParts-diagram-detailed-grouped-per-namespace.svg" xlink:show="new" xlink:title="Examples.BetterDesign.Repository.CarExample.CarParts-diagram-detailed-grouped-per-namespace.svg" xlink:type="simple"><path d="M1500.5,486.0547 L1562.5,486.0547 A3.75,3.75 0 0 1 1565,488.5547 L1572,508.543 L1947.5,508.543 A2.5,2.5 0 0 1 1950,511.043 L1950,615.5547 A2.5,2.5 0 0 1 1947.5,618.0547 L1500.5,618.0547 A2.5,2.5 0 0 1 1498,615.5547 L1498,488.5547 A2.5,2.5 0 0 1 1500.5,486.0547 " fill="none" style="stroke:#000000;stroke-width:1.5;"/><line style="stroke:#000000;stroke-width:1.5;" x1="1498" x2="1572" y1="508.543" y2="508.543"/><text fill="#000000" font-family="sans-serif" font-size="14" font-weight="bold" lengthAdjust="spacing" textLength="61" x="1502" y="501.5898">CarParts</text></a></g><!--class DBCar--><a href="Examples.BetterDesign.Repository.CarExample.DBCar-diagram-detailed-grouped-per-namespace.svg" target="_top" title="Examples.BetterDesign.Repository.CarExample.DBCar-diagram-detailed-grouped-per-namespace.svg" xlink:actuate="onRequest" xlink:href="Examples.BetterDesign.Repository.CarExample.DBCar-diagram-detailed-grouped-per-namespace.svg" xlink:show="new" xlink:title="Examples.BetterDesign.Repository.CarExample.DBCar-diagram-detailed-grouped-per-namespace.svg" xlink:type="simple"><g id="elem_DBCar"><rect codeLine="8" fill="#F1F1F1" height="196.3945" id="DBCar" rx="2.5" ry="2.5" style="stroke:#181818;stroke-width:0.5;" width="999" x="913.5" y="214.5547"/><ellipse cx="1387.75" cy="230.5547" fill="#A9DCDF" rx="11" ry="11" style="stroke:#181818;stroke-width:1.0;"/><path d="M1387.6133,225.9028 L1386.4595,230.9746 L1388.7754,230.9746 Z M1386.1191,223.6616 L1389.1157,223.6616 L1392.4609,236.0547 L1390.0122,236.0547 L1389.2485,232.9917 L1385.9697,232.9917 L1385.2227,236.0547 L1382.7739,236.0547 Z " fill="#000000"/><text fill="#000000" font-family="sans-serif" font-size="14" font-style="italic" lengthAdjust="spacing" textLength="42" x="1408.25" y="235.8457">DBCar</text><line style="stroke:#181818;stroke-width:0.5;" x1="914.5" x2="1911.5" y1="246.5547" y2="246.5547"/><line style="stroke:#181818;stroke-width:0.5;" x1="914.5" x2="1911.5" y1="254.5547" y2="254.5547"/><rect fill="#F24D5C" height="6" style="stroke:#C82930;stroke-width:1.0;" width="6" x="921.5" y="265.2988"/><text fill="#000000" font-family="sans-serif" font-size="14" lengthAdjust="spacing" textLength="122" x="933.5" y="272.0898">getCarsForDriver(</text><text fill="#6060BB" font-family="sans-serif" font-size="14" lengthAdjust="spacing" textLength="472" x="1055.5" y="272.0898">driver:Examples.BetterDesign.Repository.CarExample.CarParts.Driver</text><text fill="#000000" font-family="sans-serif" font-size="14" lengthAdjust="spacing" textLength="9" x="1527.5" y="272.0898">):</text><text fill="#BB6060" font-family="sans-serif" font-size="14" lengthAdjust="spacing" textLength="51" x="1540.5" y="272.0898">String[]</text><rect fill="#F24D5C" height="6" style="stroke:#C82930;stroke-width:1.0;" width="6" x="921.5" y="281.7871"/><text fill="#000000" font-family="sans-serif" font-size="14" lengthAdjust="spacing" textLength="77" x="933.5" y="288.5781">updateCar(</text><text fill="#6060BB" font-family="sans-serif" font-size="14" lengthAdjust="spacing" textLength="844" x="1010.5" y="288.5781">car:Examples.BetterDesign.Repository.CarExample.Car, seats:Examples.BetterDesign.Repository.CarExample.CarParts.Seats</text><text fill="#000000" font-family="sans-serif" font-size="14" lengthAdjust="spacing" textLength="9" x="1854.5" y="288.5781">):</text><text fill="#BB6060" font-family="sans-serif" font-size="14" lengthAdjust="spacing" textLength="29" x="1867.5" y="288.5781">void</text><rect fill="#F24D5C" height="6" style="stroke:#C82930;stroke-width:1.0;" width="6" x="921.5" y="298.2754"/><text fill="#000000" font-family="sans-serif" font-size="14" lengthAdjust="spacing" textLength="77" x="933.5" y="305.0664">updateCar(</text><text fill="#6060BB" font-family="sans-serif" font-size="14" lengthAdjust="spacing" textLength="854" x="1010.5" y="305.0664">car:Examples.BetterDesign.Repository.CarExample.Car, doors:Examples.BetterDesign.Repository.CarExample.CarParts.Doors</text><text fill="#000000" font-family="sans-serif" font-size="14" lengthAdjust="spacing" textLength="9" x="1864.5" y="305.0664">):</text><text fill="#BB6060" font-family="sans-serif" font-size="14" lengthAdjust="spacing" textLength="29" x="1877.5" y="305.0664">void</text><rect fill="#F24D5C" height="6" style="stroke:#C82930;stroke-width:1.0;" width="6" x="921.5" y="314.7637"/><text fill="#000000" font-family="sans-serif" font-size="14" lengthAdjust="spacing" textLength="70" x="933.5" y="321.5547">sellCarTo(</text><text fill="#6060BB" font-family="sans-serif" font-size="14" lengthAdjust="spacing" textLength="854" x="1003.5" y="321.5547">car:Examples.BetterDesign.Repository.CarExample.Car, driver:Examples.BetterDesign.Repository.CarExample.CarParts.Driver</text><text fill="#000000" font-family="sans-serif" font-size="14" lengthAdjust="spacing" textLength="9" x="1857.5" y="321.5547">):</text><text fill="#BB6060" font-family="sans-serif" font-size="14" lengthAdjust="spacing" textLength="29" x="1870.5" y="321.5547">void</text><rect fill="#F24D5C" height="6" style="stroke:#C82930;stroke-width:1.0;" width="6" x="921.5" y="331.252"/><text fill="#000000" font-family="sans-serif" font-size="14" lengthAdjust="spacing" textLength="51" x="933.5" y="338.043">getCar(</text><text fill="#6060BB" font-family="sans-serif" font-size="14" lengthAdjust="spacing" textLength="441" x="984.5" y="338.043">d:Examples.BetterDesign.Repository.CarExample.CarParts.Driver</text><text fill="#000000" font-family="sans-serif" font-size="14" lengthAdjust="spacing" textLength="9" x="1425.5" y="338.043">):</text><text fill="#BB6060" font-family="sans-serif" font-size="14" lengthAdjust="spacing" textLength="349" x="1438.5" y="338.043">Examples.BetterDesign.Repository.CarExample.Car</text><rect fill="#F24D5C" height="6" style="stroke:#C82930;stroke-width:1.0;" width="6" x="921.5" y="347.7402"/><text fill="#000000" font-family="sans-serif" font-size="14" lengthAdjust="spacing" textLength="68" x="933.5" y="354.5313">getDriver(</text><text fill="#6060BB" font-family="sans-serif" font-size="14" lengthAdjust="spacing" textLength="360" x="1001.5" y="354.5313">c:Examples.BetterDesign.Repository.CarExample.Car</text><text fill="#000000" font-family="sans-serif" font-size="14" lengthAdjust="spacing" textLength="9" x="1361.5" y="354.5313">):</text><text fill="#BB6060" font-family="sans-serif" font-size="14" lengthAdjust="spacing" textLength="428" x="1374.5" y="354.5313">Examples.BetterDesign.Repository.CarExample.CarParts.Driver</text><rect fill="#F24D5C" height="6" style="stroke:#C82930;stroke-width:1.0;" width="6" x="921.5" y="364.2285"/><text fill="#000000" font-family="sans-serif" font-size="14" lengthAdjust="spacing" textLength="75" x="933.5" y="371.0195">getWheels(</text><text fill="#6060BB" font-family="sans-serif" font-size="14" lengthAdjust="spacing" textLength="360" x="1008.5" y="371.0195">c:Examples.BetterDesign.Repository.CarExample.Car</text><text fill="#000000" font-family="sans-serif" font-size="14" lengthAdjust="spacing" textLength="9" x="1368.5" y="371.0195">):</text><text fill="#BB6060" font-family="sans-serif" font-size="14" lengthAdjust="spacing" textLength="435" x="1381.5" y="371.0195">Examples.BetterDesign.Repository.CarExample.CarParts.Wheels</text><rect fill="#F24D5C" height="6" style="stroke:#C82930;stroke-width:1.0;" width="6" x="921.5" y="380.7168"/><text fill="#000000" font-family="sans-serif" font-size="14" lengthAdjust="spacing" textLength="68" x="933.5" y="387.5078">getDoors(</text><text fill="#6060BB" font-family="sans-serif" font-size="14" lengthAdjust="spacing" textLength="360" x="1001.5" y="387.5078">c:Examples.BetterDesign.Repository.CarExample.Car</text><text fill="#000000" font-family="sans-serif" font-size="14" lengthAdjust="spacing" textLength="9" x="1361.5" y="387.5078">):</text><text fill="#BB6060" font-family="sans-serif" font-size="14" lengthAdjust="spacing" textLength="428" x="1374.5" y="387.5078">Examples.BetterDesign.Repository.CarExample.CarParts.Doors</text><rect fill="#F24D5C" height="6" style="stroke:#C82930;stroke-width:1.0;" width="6" x="921.5" y="397.2051"/><text fill="#000000" font-family="sans-serif" font-size="14" lengthAdjust="spacing" textLength="63" x="933.5" y="403.9961">getSeats(</text><text fill="#6060BB" font-family="sans-serif" font-size="14" lengthAdjust="spacing" textLength="360" x="996.5" y="403.9961">c:Examples.BetterDesign.Repository.CarExample.Car</text><text fill="#000000" font-family="sans-serif" font-size="14" lengthAdjust="spacing" textLength="9" x="1356.5" y="403.9961">):</text><text fill="#BB6060" font-family="sans-serif" font-size="14" lengthAdjust="spacing" textLength="423" x="1369.5" y="403.9961">Examples.BetterDesign.Repository.CarExample.CarParts.Seats</text></g></a><!--class Car--><a href="Examples.BetterDesign.Repository.CarExample.Car-diagram-detailed-grouped-per-namespace.svg" target="_top" title="Examples.BetterDesign.Repository.CarExample.Car-diagram-detailed-grouped-per-namespace.svg" xlink:actuate="onRequest" xlink:href="Examples.BetterDesign.Repository.CarExample.Car-diagram-detailed-grouped-per-namespace.svg" xlink:show="new" xlink:title="Examples.BetterDesign.Repository.CarExample.Car-diagram-detailed-grouped-per-namespace.svg" xlink:type="simple"><g id="elem_Car"><rect codeLine="19" fill="#F1F1F1" height="130.4414" id="Car" rx="2.5" ry="2.5" style="stroke:#181818;stroke-width:0.5;" width="611" x="868.5" y="496.5547"/><ellipse cx="1157.75" cy="512.5547" fill="#A9DCDF" rx="11" ry="11" style="stroke:#181818;stroke-width:1.0;"/><path d="M1157.6133,507.9028 L1156.4595,512.9746 L1158.7754,512.9746 Z M1156.1191,505.6616 L1159.1157,505.6616 L1162.4609,518.0547 L1160.0122,518.0547 L1159.2485,514.9917 L1155.9697,514.9917 L1155.2227,518.0547 L1152.7739,518.0547 Z " fill="#000000"/><text fill="#000000" font-family="sans-serif" font-size="14" font-style="italic" lengthAdjust="spacing" textLength="24" x="1178.25" y="517.8457">Car</text><line style="stroke:#181818;stroke-width:0.5;" x1="869.5" x2="1478.5" y1="528.5547" y2="528.5547"/><ellipse cx="879.5" cy="542.2988" fill="none" rx="3" ry="3" style="stroke:#038048;stroke-width:1.0;"/><text fill="#000000" font-family="sans-serif" font-size="14" lengthAdjust="spacing" textLength="490" x="888.5" y="546.0898">wheels: Examples.BetterDesign.Repository.CarExample.CarParts.Wheels</text><ellipse cx="879.5" cy="558.7871" fill="none" rx="3" ry="3" style="stroke:#038048;stroke-width:1.0;"/><text fill="#000000" font-family="sans-serif" font-size="14" lengthAdjust="spacing" textLength="466" x="888.5" y="562.5781">seats: Examples.BetterDesign.Repository.CarExample.CarParts.Seats</text><ellipse cx="879.5" cy="575.2754" fill="none" rx="3" ry="3" style="stroke:#038048;stroke-width:1.0;"/><text fill="#000000" font-family="sans-serif" font-size="14" lengthAdjust="spacing" textLength="476" x="888.5" y="579.0664">driver: Examples.BetterDesign.Repository.CarExample.CarParts.Driver</text><ellipse cx="879.5" cy="591.7637" fill="none" rx="3" ry="3" style="stroke:#038048;stroke-width:1.0;"/><text fill="#000000" font-family="sans-serif" font-size="14" lengthAdjust="spacing" textLength="476" x="888.5" y="595.5547">doors: Examples.BetterDesign.Repository.CarExample.CarParts.Doors</text><line style="stroke:#181818;stroke-width:1.0;" x1="869.5" x2="1478.5" y1="602.5078" y2="602.5078"/><line style="stroke:#181818;stroke-width:1.0;" x1="869.5" x2="1478.5" y1="604.5078" y2="604.5078"/><rect fill="#F24D5C" height="6" style="stroke:#C82930;stroke-width:1.0;" width="6" x="876.5" y="613.252"/><text fill="#000000" font-family="sans-serif" font-size="14" lengthAdjust="spacing" textLength="71" x="888.5" y="620.043">createCar(</text><text fill="#6060BB" font-family="sans-serif" font-size="14" lengthAdjust="spacing" textLength="472" x="959.5" y="620.043">doors:Examples.BetterDesign.Repository.CarExample.CarParts.Doors</text><text fill="#000000" font-family="sans-serif" font-size="14" lengthAdjust="spacing" textLength="9" x="1431.5" y="620.043">):</text><text fill="#BB6060" font-family="sans-serif" font-size="14" lengthAdjust="spacing" textLength="29" x="1444.5" y="620.043">void</text></g></a><!--class Wheels--><a href="Examples.BetterDesign.Repository.CarExample.CarParts.Wheels-diagram-detailed-grouped-per-namespace.svg" target="_top" title="Examples.BetterDesign.Repository.CarExample.CarParts.Wheels-diagram-detailed-grouped-per-namespace.svg" xlink:actuate="onRequest" xlink:href="Examples.BetterDesign.Repository.CarExample.CarParts.Wheels-diagram-detailed-grouped-per-namespace.svg" xlink:show="new" xlink:title="Examples.BetterDesign.Repository.CarExample.CarParts.Wheels-diagram-detailed-grouped-per-namespace.svg" xlink:type="simple"><g id="elem_Wheels"><rect codeLine="42" fill="#FFFF00" height="80.9766" id="Wheels" rx="2.5" ry="2.5" style="stroke:#181818;stroke-width:0.5;" width="419" x="1514.5" y="521.0547"/><ellipse cx="1695.75" cy="537.0547" fill="#A9DCDF" rx="11" ry="11" style="stroke:#181818;stroke-width:1.0;"/><path d="M1695.6133,532.4028 L1694.4595,537.4746 L1696.7754,537.4746 Z M1694.1191,530.1616 L1697.1157,530.1616 L1700.4609,542.5547 L1698.0122,542.5547 L1697.2485,539.4917 L1693.9697,539.4917 L1693.2227,542.5547 L1690.7739,542.5547 Z " fill="#000000"/><text fill="#000000" font-family="sans-serif" font-size="14" font-style="italic" lengthAdjust="spacing" textLength="48" x="1716.25" y="542.3457">Wheels</text><line style="stroke:#181818;stroke-width:0.5;" x1="1515.5" x2="1932.5" y1="553.0547" y2="553.0547"/><ellipse cx="1525.5" cy="566.7988" fill="none" rx="3" ry="3" style="stroke:#038048;stroke-width:1.0;"/><text fill="#000000" font-family="sans-serif" font-size="14" lengthAdjust="spacing" textLength="393" x="1534.5" y="570.5898">db: Examples.BetterDesign.Repository.CarExample.DBCar</text><line style="stroke:#181818;stroke-width:1.0;" x1="1515.5" x2="1932.5" y1="577.543" y2="577.543"/><line style="stroke:#181818;stroke-width:1.0;" x1="1515.5" x2="1932.5" y1="579.543" y2="579.543"/><rect fill="#F24D5C" height="6" style="stroke:#C82930;stroke-width:1.0;" width="6" x="1522.5" y="588.2871"/><text fill="#000000" font-family="sans-serif" font-size="14" lengthAdjust="spacing" textLength="74" x="1534.5" y="595.0781">getWeight(</text><text fill="#000000" font-family="sans-serif" font-size="14" lengthAdjust="spacing" textLength="9" x="1608.5" y="595.0781">):</text><text fill="#BB6060" font-family="sans-serif" font-size="14" lengthAdjust="spacing" textLength="18" x="1621.5" y="595.0781">int</text></g></a><g id="elem_FloatingNote"><path d="M6,188.5547 L6,436.2129 L764,436.2129 L764,198.5547 L754,188.5547 L6,188.5547 " fill="#FEFFDD" style="stroke:#181818;stroke-width:0.5;"/><path d="M754,188.5547 L754,198.5547 L764,198.5547 L754,188.5547 " fill="#FEFFDD" style="stroke:#181818;stroke-width:1.0;"/><text fill="#000000" font-family="sans-serif" font-size="13" lengthAdjust="spacing" textLength="120" x="12" y="206.123">Your are analyzing:</text><text fill="#000000" font-family="sans-serif" font-size="13" lengthAdjust="spacing" textLength="397" x="12" y="221.4336">Examples.BetterDesign.Repository.CarExample.CarParts.Wheels</text><text fill="#000000" font-family="sans-serif" font-size="13" font-weight="bold" lengthAdjust="spacing" textLength="55" x="413" y="221.4336">detailed</text><text fill="#000000" font-family="sans-serif" font-size="13" lengthAdjust="spacing" textLength="23" x="472" y="221.4336">and</text><text fill="#000000" font-family="sans-serif" font-size="13" font-weight="bold" lengthAdjust="spacing" textLength="166" x="499" y="221.4336">grouped per namespace</text><text fill="#000000" font-family="sans-serif" font-size="13" lengthAdjust="spacing" textLength="4" x="12" y="236.7441">&#160;</text><text fill="#000000" font-family="sans-serif" font-size="13" lengthAdjust="spacing" textLength="229" x="12" y="267.3652">You can click either the namespaces</text><text fill="#000000" font-family="sans-serif" font-size="13" lengthAdjust="spacing" textLength="266" x="12" y="282.6758">or class names for filtering them and their</text><text fill="#000000" font-family="sans-serif" font-size="13" lengthAdjust="spacing" textLength="130" x="12" y="297.9863">direct dependencies.</text><text fill="#000000" font-family="sans-serif" font-size="13" lengthAdjust="spacing" textLength="4" x="12" y="313.2969">&#160;</text><line style="stroke:#181818;stroke-width:1.0;" x1="7" x2="369" y1="247.1416" y2="247.1416"/><line style="stroke:#181818;stroke-width:1.0;" x1="7" x2="369" y1="249.1416" y2="249.1416"/><text fill="#000000" font-family="sans-serif" font-size="13" lengthAdjust="spacing" textLength="32" x="369" y="251.5547">Filter</text><line style="stroke:#181818;stroke-width:1.0;" x1="401" x2="763" y1="247.1416" y2="247.1416"/><line style="stroke:#181818;stroke-width:1.0;" x1="401" x2="763" y1="249.1416" y2="249.1416"/><ellipse cx="17.5" cy="343.1602" fill="#000000" rx="2.5" ry="2.5" style="stroke:#000000;stroke-width:0.0;"/><text fill="#000000" font-family="sans-serif" font-size="13" lengthAdjust="spacing" textLength="397" x="24" y="347.918">Examples.BetterDesign.Repository.CarExample.CarParts.Wheels</text><text fill="#000000" font-family="sans-serif" font-size="13" font-weight="bold" lengthAdjust="spacing" textLength="67" x="425" y="347.918">simplified</text><text fill="#000000" font-family="sans-serif" font-size="13" lengthAdjust="spacing" textLength="23" x="496" y="347.918">and</text><text fill="#000000" font-family="sans-serif" font-size="13" font-weight="bold" lengthAdjust="spacing" textLength="166" x="523" y="347.918">grouped per namespace</text><text fill="#000000" font-family="sans-serif" font-size="13" lengthAdjust="spacing" textLength="4" x="689" y="347.918">:</text><text fill="#000000" font-family="sans-serif" font-size="13" lengthAdjust="spacing" textLength="12" x="12" y="363.2285">&#160;&#160;&#160;</text><a href="Examples.BetterDesign.Repository.CarExample.CarParts.Wheels-diagram-simplified-grouped-per-namespace.svg" target="_top" title="Examples.BetterDesign.Repository.CarExample.CarParts.Wheels-diagram-simplified-grouped-per-namespace.svg" xlink:actuate="onRequest" xlink:href="Examples.BetterDesign.Repository.CarExample.CarParts.Wheels-diagram-simplified-grouped-per-namespace.svg" xlink:show="new" xlink:title="Examples.BetterDesign.Repository.CarExample.CarParts.Wheels-diagram-simplified-grouped-per-namespace.svg" xlink:type="simple"><text fill="#0000FF" font-family="sans-serif" font-size="13" lengthAdjust="spacing" text-decoration="underline" textLength="719" x="24" y="363.2285">Examples.BetterDesign.Repository.CarExample.CarParts.Wheels-diagram-simplified-grouped-per-namespace.svg</text></a><ellipse cx="17.5" cy="373.7813" fill="#000000" rx="2.5" ry="2.5" style="stroke:#000000;stroke-width:0.0;"/><text fill="#000000" font-family="sans-serif" font-size="13" lengthAdjust="spacing" textLength="78" x="24" y="378.5391">Full diagram</text><text fill="#000000" font-family="sans-serif" font-size="13" font-weight="bold" lengthAdjust="spacing" textLength="55" x="106" y="378.5391">detailed</text><text fill="#000000" font-family="sans-serif" font-size="13" lengthAdjust="spacing" textLength="23" x="165" y="378.5391">and</text><text fill="#000000" font-family="sans-serif" font-size="13" font-weight="bold" lengthAdjust="spacing" textLength="166" x="192" y="378.5391">grouped per namespace</text><text fill="#000000" font-family="sans-serif" font-size="13" lengthAdjust="spacing" textLength="4" x="358" y="378.5391">:</text><text fill="#000000" font-family="sans-serif" font-size="13" lengthAdjust="spacing" textLength="12" x="12" y="393.8496">&#160;&#160;&#160;</text><a href="full-diagram-detailed-grouped-per-namespace.svg" target="_top" title="full-diagram-detailed-grouped-per-namespace.svg" xlink:actuate="onRequest" xlink:href="full-diagram-detailed-grouped-per-namespace.svg" xlink:show="new" xlink:title="full-diagram-detailed-grouped-per-namespace.svg" xlink:type="simple"><text fill="#0000FF" font-family="sans-serif" font-size="13" lengthAdjust="spacing" text-decoration="underline" textLength="330" x="24" y="393.8496">full-diagram-detailed-grouped-per-namespace.svg</text></a><ellipse cx="17.5" cy="404.4023" fill="#000000" rx="2.5" ry="2.5" style="stroke:#000000;stroke-width:0.0;"/><text fill="#000000" font-family="sans-serif" font-size="13" lengthAdjust="spacing" textLength="41" x="24" y="409.1602">Home:</text><text fill="#000000" font-family="sans-serif" font-size="13" lengthAdjust="spacing" textLength="12" x="12" y="424.4707">&#160;&#160;&#160;</text><a href="index.html" target="_top" title="index.html" xlink:actuate="onRequest" xlink:href="index.html" xlink:show="new" xlink:title="index.html" xlink:type="simple"><text fill="#0000FF" font-family="sans-serif" font-size="13" lengthAdjust="spacing" text-decoration="underline" textLength="68" x="24" y="424.4707">index.html</text></a><line style="stroke:#181818;stroke-width:1.0;" x1="7" x2="348" y1="327.6943" y2="327.6943"/><line style="stroke:#181818;stroke-width:1.0;" x1="7" x2="348" y1="329.6943" y2="329.6943"/><text fill="#000000" font-family="sans-serif" font-size="13" lengthAdjust="spacing" textLength="74" x="348" y="332.1074">Select other</text><line style="stroke:#181818;stroke-width:1.0;" x1="422" x2="763" y1="327.6943" y2="327.6943"/><line style="stroke:#181818;stroke-width:1.0;" x1="422" x2="763" y1="329.6943" y2="329.6943"/></g><!--link DBCar to Car--><g id="link_DBCar_Car"><path codeLine="64" d="M1196.5,410.9647 C1196.5,410.9647 1196.5,490.3547 1196.5,490.3547 " fill="none" id="DBCar-to-Car" style="stroke:#6060BB;stroke-width:1.0;stroke-dasharray:7.0,7.0;"/><polygon fill="#6060BB" points="1196.5,495.3547,1200.5,486.3547,1196.5,490.3547,1192.5,486.3547,1196.5,495.3547" style="stroke:#6060BB;stroke-width:1.0;"/><text fill="#000000" font-family="sans-serif" font-size="13" lengthAdjust="spacing" textLength="29" x="1166.5" y="447.223">uses</text></g><!--link DBCar to Wheels--><g id="link_DBCar_Wheels"><path codeLine="65" d="M1647.17,410.9647 C1647.17,410.9647 1647.17,514.5847 1647.17,514.5847 " fill="none" id="DBCar-to-Wheels" style="stroke:#6060BB;stroke-width:1.0;stroke-dasharray:7.0,7.0;"/><polygon fill="#6060BB" points="1647.17,519.5847,1651.17,510.5847,1647.17,514.5847,1643.17,510.5847,1647.17,519.5847" style="stroke:#6060BB;stroke-width:1.0;"/><text fill="#000000" font-family="sans-serif" font-size="13" lengthAdjust="spacing" textLength="29" x="1617.17" y="459.343">uses</text></g><!--reverse link Wheels to DBCar--><g id="link_Wheels_DBCar"><path codeLine="69" d="M1779.83,506.7147 C1779.83,506.7147 1779.83,410.9447 1779.83,410.9447 " fill="none" id="Wheels-backto-DBCar" style="stroke:#10BB10;stroke-width:1.0;"/><polygon fill="#10BB10" points="1779.83,519.7147,1783.83,513.7147,1779.83,507.7147,1775.83,513.7147,1779.83,519.7147" style="stroke:#10BB10;stroke-width:1.0;"/></g><!--reverse link Car to Wheels--><g id="link_Car_Wheels"><path codeLine="66" d="M1493.96,561.5547 C1493.96,561.5547 1514.11,561.5547 1514.11,561.5547 " fill="none" id="Car-backto-Wheels" style="stroke:#10BB10;stroke-width:1.0;"/><polygon fill="#10BB10" points="1480.96,561.5547,1486.96,565.5547,1492.96,561.5547,1486.96,557.5547,1480.96,561.5547" style="stroke:#10BB10;stroke-width:1.0;"/></g><!--SRC=[xLZVRzem47xdhpZHXsxPIDizz2427YX3UwgcTT8q0QhSv02hZXtPfh-c_kyx9n3216sJ5DP9GmW1kRllk_FTsMTppMN2D8j1S8dsFa5GsivKmt8h4Dg6Fs3mwRZx-Ox5YK3Zzz1Qr7qqV2hzRvWemwtIz_uPqmiPz_KhqzRuFsQ8me3dHMWP5nXv7Z0PqHzJhUO9Hf2W1ibYD0aBqVFQHmwlsv3A8ZH_gha6ff5qcBX_u78QZEH-Y8paI7Ow0ou8ejCPIQ828PCG2XvU0t8x8tdwMEaO64cbIO0Pa_qB4_ezIKqGTISTfw3qXUkHZBZ6q4A42Se8PSZ9fmps0eLxeXo80_UWdjE6qmC-uS-xJV45WE6m1buhucnA-THQeROMQ2r2Q-LelhcPZiVEky5S25YebLYZ9Ta9gUUeI-NdCB-e69S6ECN_pf_PM8p7JM061a8nIsjsJcdOo9NpLIW4g1Gk_DfWR2t4sqB_oZ25bNp1OkyEl916vPAkB2L8N-pAMCseih8YBPFa_HxzA5aOgKuvfZbLW1PCqP81Cr2wh_aDwdVjYP94NWcbEytJuzFZNg_PZT9dGQMApUosZvpTxli0rW1wFGVHx5vOrxw6uuLOWU0yYPX5ihQPMSXAq_e81farrRovSAhFE7EZUBGVHoAbT4L7-awraYC6XI0ptzLhEhBh1DliIfRzMt9-XsnAMjv8_Abw3ODg2A_4TqCarhbdk_WRvfuHt1ntLpXlEUo5mbvddlQkDyoys5iNp1_hxwhbzzGwE-e7k4rJ9wXpd2vOoxOgg1xFWgr5auKQrLoqbkuzK3r76vrE8Jz3ZKzjZtlVwHuRXsSgfgcLPeAtTzY4MveEWMh10irnCP97QW8vSpWJ147p8AEX9z5umzNSN9hvrMLkwL9mKbvvTguamXM6R6xG3PIBWTXm0_IUSCdD32E_O7kbktAZyRXHOENo5e5YWBQ8B8D9Z_zFI__-j5I9KbxK5QyFgerqTRUVjPkIrxdtU17_WtiwgQlRWXzftxuAoa-bnLwzFCCXdyxivcxzJBVbqlvvGAdTRlUS6ayruB_KWbCtjZJFVNTeE0JlPI_OcQoZwAfLes2MAsa0xz8gfXIRQ1Mlc0SaMo9d6kKlTVpXGLOROxzR-lGA0L166DWpxbhRgiJ1CV1QmuCJ8d1oF6xLOh2xzSoX6hMkmAiwcgtKRm00]--></g></svg>