<?xml version="1.0" encoding="us-ascii" standalone="no"?><svg xmlns="http://www.w3.org/2000/svg" xmlns:xlink="http://www.w3.org/1999/xlink" contentStyleType="text/css" height="688px" preserveAspectRatio="none" style="width:2148px;height:688px;background:#FFFFFF;" version="1.1" viewBox="0 0 2148 688" width="2148px" zoomAndPan="magnify"><defs/><g><text fill="#000000" font-family="sans-serif" font-size="20" font-weight="bold" lengthAdjust="spacing" textLength="799" x="618.75" y="29.3359">Examples.BetterDesign.Repository.CarExample.WarehouseEntities.Complaints</text><text fill="#000000" font-family="sans-serif" font-size="20" font-weight="bold" lengthAdjust="spacing" textLength="84" x="1424.75" y="29.3359">detailed</text><text fill="#000000" font-family="sans-serif" font-size="20" font-weight="bold" lengthAdjust="spacing" textLength="7" x="1508.75" y="29.3359">&#160;</text><!--cluster Examples--><g id="cluster_Examples"><path d="M708,50.5547 L777,50.5547 A3.75,3.75 0 0 1 779.5,53.0547 L786.5,73.043 L2139,73.043 A2.5,2.5 0 0 1 2141.5,75.543 L2141.5,679.0547 A2.5,2.5 0 0 1 2139,681.5547 L708,681.5547 A2.5,2.5 0 0 1 705.5,679.0547 L705.5,53.0547 A2.5,2.5 0 0 1 708,50.5547 " fill="none" style="stroke:#000000;stroke-width:1.5;"/><line style="stroke:#000000;stroke-width:1.5;" x1="705.5" x2="786.5" y1="73.043" y2="73.043"/><text fill="#000000" font-family="sans-serif" font-size="14" font-weight="bold" lengthAdjust="spacing" textLength="68" x="709.5" y="66.0898">Examples</text></g><!--cluster BetterDesign--><g id="cluster_BetterDesign"><path d="M732,93.5547 L826,93.5547 A3.75,3.75 0 0 1 828.5,96.0547 L835.5,116.043 L2115,116.043 A2.5,2.5 0 0 1 2117.5,118.543 L2117.5,655.0547 A2.5,2.5 0 0 1 2115,657.5547 L732,657.5547 A2.5,2.5 0 0 1 729.5,655.0547 L729.5,96.0547 A2.5,2.5 0 0 1 732,93.5547 " fill="none" style="stroke:#000000;stroke-width:1.5;"/><line style="stroke:#000000;stroke-width:1.5;" x1="729.5" x2="835.5" y1="116.043" y2="116.043"/><text fill="#000000" font-family="sans-serif" font-size="14" font-weight="bold" lengthAdjust="spacing" textLength="93" x="733.5" y="109.0898">BetterDesign</text></g><!--cluster Repository--><g id="cluster_Repository"><path d="M756,136.5547 L835,136.5547 A3.75,3.75 0 0 1 837.5,139.0547 L844.5,159.043 L2091,159.043 A2.5,2.5 0 0 1 2093.5,161.543 L2093.5,631.0547 A2.5,2.5 0 0 1 2091,633.5547 L756,633.5547 A2.5,2.5 0 0 1 753.5,631.0547 L753.5,139.0547 A2.5,2.5 0 0 1 756,136.5547 " fill="none" style="stroke:#000000;stroke-width:1.5;"/><line style="stroke:#000000;stroke-width:1.5;" x1="753.5" x2="844.5" y1="159.043" y2="159.043"/><text fill="#000000" font-family="sans-serif" font-size="14" font-weight="bold" lengthAdjust="spacing" textLength="78" x="757.5" y="152.0898">Repository</text></g><!--cluster CarExample--><g id="cluster_CarExample"><path d="M780,179.5547 L865,179.5547 A3.75,3.75 0 0 1 867.5,182.0547 L874.5,202.043 L2067,202.043 A2.5,2.5 0 0 1 2069.5,204.543 L2069.5,607.0547 A2.5,2.5 0 0 1 2067,609.5547 L780,609.5547 A2.5,2.5 0 0 1 777.5,607.0547 L777.5,182.0547 A2.5,2.5 0 0 1 780,179.5547 " fill="none" style="stroke:#000000;stroke-width:1.5;"/><line style="stroke:#000000;stroke-width:1.5;" x1="777.5" x2="874.5" y1="202.043" y2="202.043"/><text fill="#000000" font-family="sans-serif" font-size="14" font-weight="bold" lengthAdjust="spacing" textLength="84" x="781.5" y="195.0898">CarExample</text></g><!--cluster WarehouseEntities--><g id="cluster_WarehouseEntities"><path d="M1352,486.5547 L1486,486.5547 A3.75,3.75 0 0 1 1488.5,489.0547 L1495.5,509.043 L1496,509.043 A2.5,2.5 0 0 1 1498.5,511.543 L1498.5,583.0547 A2.5,2.5 0 0 1 1496,585.5547 L1352,585.5547 A2.5,2.5 0 0 1 1349.5,583.0547 L1349.5,489.0547 A2.5,2.5 0 0 1 1352,486.5547 " fill="none" style="stroke:#000000;stroke-width:1.5;"/><line style="stroke:#000000;stroke-width:1.5;" x1="1349.5" x2="1495.5" y1="509.043" y2="509.043"/><text fill="#000000" font-family="sans-serif" font-size="14" font-weight="bold" lengthAdjust="spacing" textLength="133" x="1353.5" y="502.0898">WarehouseEntities</text></g><!--class DBWarehouse--><a href="Examples.BetterDesign.Repository.CarExample.DBWarehouse-diagram-detailed.svg" target="_top" title="Examples.BetterDesign.Repository.CarExample.DBWarehouse-diagram-detailed.svg" xlink:actuate="onRequest" xlink:href="Examples.BetterDesign.Repository.CarExample.DBWarehouse-diagram-detailed.svg" xlink:show="new" xlink:title="Examples.BetterDesign.Repository.CarExample.DBWarehouse-diagram-detailed.svg" xlink:type="simple"><g id="elem_DBWarehouse"><rect codeLine="4" fill="#F1F1F1" height="245.8594" id="DBWarehouse" rx="2.5" ry="2.5" style="stroke:#181818;stroke-width:0.5;" width="1260" x="793.5" y="214.5547"/><ellipse cx="1372.25" cy="230.5547" fill="#A9DCDF" rx="11" ry="11" style="stroke:#181818;stroke-width:1.0;"/><path d="M1372.1133,225.9028 L1370.9595,230.9746 L1373.2754,230.9746 Z M1370.6191,223.6616 L1373.6157,223.6616 L1376.9609,236.0547 L1374.5122,236.0547 L1373.7485,232.9917 L1370.4697,232.9917 L1369.7227,236.0547 L1367.2739,236.0547 Z " fill="#000000"/><text fill="#000000" font-family="sans-serif" font-size="14" font-style="italic" lengthAdjust="spacing" textLength="94" x="1392.75" y="235.8457">DBWarehouse</text><line style="stroke:#181818;stroke-width:0.5;" x1="794.5" x2="2052.5" y1="246.5547" y2="246.5547"/><line style="stroke:#181818;stroke-width:0.5;" x1="794.5" x2="2052.5" y1="254.5547" y2="254.5547"/><rect fill="#F24D5C" height="6" style="stroke:#C82930;stroke-width:1.0;" width="6" x="801.5" y="265.2988"/><text fill="#000000" font-family="sans-serif" font-size="14" lengthAdjust="spacing" textLength="94" x="813.5" y="272.0898">getCustomer(</text><text fill="#6060BB" font-family="sans-serif" font-size="14" lengthAdjust="spacing" textLength="511" x="907.5" y="272.0898">i:Examples.BetterDesign.Repository.CarExample.WarehouseEntities.Invoice</text><text fill="#000000" font-family="sans-serif" font-size="14" lengthAdjust="spacing" textLength="9" x="1418.5" y="272.0898">):</text><text fill="#BB6060" font-family="sans-serif" font-size="14" lengthAdjust="spacing" textLength="522" x="1431.5" y="272.0898">Examples.BetterDesign.Repository.CarExample.WarehouseEntities.Customer</text><rect fill="#F24D5C" height="6" style="stroke:#C82930;stroke-width:1.0;" width="6" x="801.5" y="281.7871"/><text fill="#000000" font-family="sans-serif" font-size="14" lengthAdjust="spacing" textLength="51" x="813.5" y="288.5781">getCar(</text><text fill="#6060BB" font-family="sans-serif" font-size="14" lengthAdjust="spacing" textLength="544" x="864.5" y="288.5781">c:Examples.BetterDesign.Repository.CarExample.WarehouseEntities.Complaints</text><text fill="#000000" font-family="sans-serif" font-size="14" lengthAdjust="spacing" textLength="9" x="1408.5" y="288.5781">):</text><text fill="#BB6060" font-family="sans-serif" font-size="14" lengthAdjust="spacing" textLength="349" x="1421.5" y="288.5781">Examples.BetterDesign.Repository.CarExample.Car</text><rect fill="#F24D5C" height="6" style="stroke:#C82930;stroke-width:1.0;" width="6" x="801.5" y="298.2754"/><text fill="#000000" font-family="sans-serif" font-size="14" lengthAdjust="spacing" textLength="75" x="813.5" y="305.0664">getInvoice(</text><text fill="#6060BB" font-family="sans-serif" font-size="14" lengthAdjust="spacing" textLength="533" x="888.5" y="305.0664">c:Examples.BetterDesign.Repository.CarExample.WarehouseEntities.Customer</text><text fill="#000000" font-family="sans-serif" font-size="14" lengthAdjust="spacing" textLength="9" x="1421.5" y="305.0664">):</text><text fill="#BB6060" font-family="sans-serif" font-size="14" lengthAdjust="spacing" textLength="503" x="1434.5" y="305.0664">Examples.BetterDesign.Repository.CarExample.WarehouseEntities.Invoice</text><rect fill="#F24D5C" height="6" style="stroke:#C82930;stroke-width:1.0;" width="6" x="801.5" y="314.7637"/><text fill="#000000" font-family="sans-serif" font-size="14" lengthAdjust="spacing" textLength="105" x="813.5" y="321.5547">getComplaints(</text><text fill="#6060BB" font-family="sans-serif" font-size="14" lengthAdjust="spacing" textLength="533" x="918.5" y="321.5547">c:Examples.BetterDesign.Repository.CarExample.WarehouseEntities.Customer</text><text fill="#000000" font-family="sans-serif" font-size="14" lengthAdjust="spacing" textLength="9" x="1451.5" y="321.5547">):</text><text fill="#BB6060" font-family="sans-serif" font-size="14" lengthAdjust="spacing" textLength="533" x="1464.5" y="321.5547">Examples.BetterDesign.Repository.CarExample.WarehouseEntities.Complaints</text><rect fill="#F24D5C" height="6" style="stroke:#C82930;stroke-width:1.0;" width="6" x="801.5" y="331.252"/><text fill="#000000" font-family="sans-serif" font-size="14" lengthAdjust="spacing" textLength="58" x="813.5" y="338.043">getUser(</text><text fill="#6060BB" font-family="sans-serif" font-size="14" lengthAdjust="spacing" textLength="374" x="871.5" y="338.043">car:Examples.BetterDesign.Repository.CarExample.Car</text><text fill="#000000" font-family="sans-serif" font-size="14" lengthAdjust="spacing" textLength="9" x="1245.5" y="338.043">):</text><text fill="#BB6060" font-family="sans-serif" font-size="14" lengthAdjust="spacing" textLength="486" x="1258.5" y="338.043">Examples.BetterDesign.Repository.CarExample.WarehouseEntities.User</text><rect fill="#F24D5C" height="6" style="stroke:#C82930;stroke-width:1.0;" width="6" x="801.5" y="347.7402"/><text fill="#000000" font-family="sans-serif" font-size="14" lengthAdjust="spacing" textLength="94" x="813.5" y="354.5313">getCustomer(</text><text fill="#6060BB" font-family="sans-serif" font-size="14" lengthAdjust="spacing" textLength="605" x="907.5" y="354.5313">complaint:Examples.BetterDesign.Repository.CarExample.WarehouseEntities.Complaints</text><text fill="#000000" font-family="sans-serif" font-size="14" lengthAdjust="spacing" textLength="9" x="1512.5" y="354.5313">):</text><text fill="#BB6060" font-family="sans-serif" font-size="14" lengthAdjust="spacing" textLength="522" x="1525.5" y="354.5313">Examples.BetterDesign.Repository.CarExample.WarehouseEntities.Customer</text><rect fill="#F24D5C" height="6" style="stroke:#C82930;stroke-width:1.0;" width="6" x="801.5" y="364.2285"/><text fill="#000000" font-family="sans-serif" font-size="14" lengthAdjust="spacing" textLength="51" x="813.5" y="371.0195">getCar(</text><text fill="#6060BB" font-family="sans-serif" font-size="14" lengthAdjust="spacing" textLength="520" x="864.5" y="371.0195">user:Examples.BetterDesign.Repository.CarExample.WarehouseEntities.User</text><text fill="#000000" font-family="sans-serif" font-size="14" lengthAdjust="spacing" textLength="9" x="1384.5" y="371.0195">):</text><text fill="#BB6060" font-family="sans-serif" font-size="14" lengthAdjust="spacing" textLength="349" x="1397.5" y="371.0195">Examples.BetterDesign.Repository.CarExample.Car</text><rect fill="#F24D5C" height="6" style="stroke:#C82930;stroke-width:1.0;" width="6" x="801.5" y="380.7168"/><text fill="#000000" font-family="sans-serif" font-size="14" lengthAdjust="spacing" textLength="105" x="813.5" y="387.5078">getComplaints(</text><text fill="#6060BB" font-family="sans-serif" font-size="14" lengthAdjust="spacing" textLength="374" x="918.5" y="387.5078">car:Examples.BetterDesign.Repository.CarExample.Car</text><text fill="#000000" font-family="sans-serif" font-size="14" lengthAdjust="spacing" textLength="9" x="1292.5" y="387.5078">):</text><text fill="#BB6060" font-family="sans-serif" font-size="14" lengthAdjust="spacing" textLength="533" x="1305.5" y="387.5078">Examples.BetterDesign.Repository.CarExample.WarehouseEntities.Complaints</text><rect fill="#F24D5C" height="6" style="stroke:#C82930;stroke-width:1.0;" width="6" x="801.5" y="397.2051"/><text fill="#000000" font-family="sans-serif" font-size="14" lengthAdjust="spacing" textLength="88" x="813.5" y="403.9961">getFirstUser(</text><text fill="#000000" font-family="sans-serif" font-size="14" lengthAdjust="spacing" textLength="9" x="901.5" y="403.9961">):</text><text fill="#BB6060" font-family="sans-serif" font-size="14" lengthAdjust="spacing" textLength="486" x="914.5" y="403.9961">Examples.BetterDesign.Repository.CarExample.WarehouseEntities.User</text><rect fill="#F24D5C" height="6" style="stroke:#C82930;stroke-width:1.0;" width="6" x="801.5" y="413.6934"/><text fill="#000000" font-family="sans-serif" font-size="14" lengthAdjust="spacing" textLength="81" x="813.5" y="420.4844">getFirstCar(</text><text fill="#000000" font-family="sans-serif" font-size="14" lengthAdjust="spacing" textLength="9" x="894.5" y="420.4844">):</text><text fill="#BB6060" font-family="sans-serif" font-size="14" lengthAdjust="spacing" textLength="349" x="907.5" y="420.4844">Examples.BetterDesign.Repository.CarExample.Car</text><rect fill="#F24D5C" height="6" style="stroke:#C82930;stroke-width:1.0;" width="6" x="801.5" y="430.1816"/><text fill="#000000" font-family="sans-serif" font-size="14" lengthAdjust="spacing" textLength="105" x="813.5" y="436.9727">getFirstInvoice(</text><text fill="#000000" font-family="sans-serif" font-size="14" lengthAdjust="spacing" textLength="9" x="918.5" y="436.9727">):</text><text fill="#BB6060" font-family="sans-serif" font-size="14" lengthAdjust="spacing" textLength="503" x="931.5" y="436.9727">Examples.BetterDesign.Repository.CarExample.WarehouseEntities.Invoice</text><rect fill="#F24D5C" height="6" style="stroke:#C82930;stroke-width:1.0;" width="6" x="801.5" y="446.6699"/><text fill="#000000" font-family="sans-serif" font-size="14" lengthAdjust="spacing" textLength="135" x="813.5" y="453.4609">getFirstComplaints(</text><text fill="#000000" font-family="sans-serif" font-size="14" lengthAdjust="spacing" textLength="9" x="948.5" y="453.4609">):</text><text fill="#BB6060" font-family="sans-serif" font-size="14" lengthAdjust="spacing" textLength="533" x="961.5" y="453.4609">Examples.BetterDesign.Repository.CarExample.WarehouseEntities.Complaints</text></g></a><!--class Complaints--><a href="Examples.BetterDesign.Repository.CarExample.WarehouseEntities.Complaints-diagram-detailed.svg" target="_top" title="Examples.BetterDesign.Repository.CarExample.WarehouseEntities.Complaints-diagram-detailed.svg" xlink:actuate="onRequest" xlink:href="Examples.BetterDesign.Repository.CarExample.WarehouseEntities.Complaints-diagram-detailed.svg" xlink:show="new" xlink:title="Examples.BetterDesign.Repository.CarExample.WarehouseEntities.Complaints-diagram-detailed.svg" xlink:type="simple"><g id="elem_Complaints"><rect codeLine="18" fill="#FFFF00" height="48" id="Complaints" rx="2.5" ry="2.5" style="stroke:#181818;stroke-width:0.5;" width="110" x="1368.5" y="521.5547"/><ellipse cx="1383.5" cy="537.5547" fill="#A9DCDF" rx="11" ry="11" style="stroke:#181818;stroke-width:1.0;"/><path d="M1383.3633,532.9028 L1382.2095,537.9746 L1384.5254,537.9746 Z M1381.8691,530.6616 L1384.8657,530.6616 L1388.2109,543.0547 L1385.7622,543.0547 L1384.9985,539.9917 L1381.7197,539.9917 L1380.9727,543.0547 L1378.5239,543.0547 Z " fill="#000000"/><text fill="#000000" font-family="sans-serif" font-size="14" font-style="italic" lengthAdjust="spacing" textLength="78" x="1397.5" y="542.8457">Complaints</text><line style="stroke:#181818;stroke-width:0.5;" x1="1369.5" x2="1477.5" y1="553.5547" y2="553.5547"/><line style="stroke:#181818;stroke-width:0.5;" x1="1369.5" x2="1477.5" y1="561.5547" y2="561.5547"/></g></a><g id="elem_FloatingNote"><path d="M6,213.5547 L6,461.2129 L689,461.2129 L689,223.5547 L679,213.5547 L6,213.5547 " fill="#FEFFDD" style="stroke:#181818;stroke-width:0.5;"/><path d="M679,213.5547 L679,223.5547 L689,223.5547 L679,213.5547 " fill="#FEFFDD" style="stroke:#181818;stroke-width:1.0;"/><text fill="#000000" font-family="sans-serif" font-size="13" lengthAdjust="spacing" textLength="120" x="12" y="231.123">Your are analyzing:</text><text fill="#000000" font-family="sans-serif" font-size="13" lengthAdjust="spacing" textLength="488" x="12" y="246.4336">Examples.BetterDesign.Repository.CarExample.WarehouseEntities.Complaints</text><text fill="#000000" font-family="sans-serif" font-size="13" font-weight="bold" lengthAdjust="spacing" textLength="55" x="504" y="246.4336">detailed</text><text fill="#000000" font-family="sans-serif" font-size="13" lengthAdjust="spacing" textLength="4" x="559" y="246.4336">&#160;</text><text fill="#000000" font-family="sans-serif" font-size="13" lengthAdjust="spacing" textLength="4" x="12" y="261.7441">&#160;</text><text fill="#000000" font-family="sans-serif" font-size="13" lengthAdjust="spacing" textLength="229" x="12" y="292.3652">You can click either the namespaces</text><text fill="#000000" font-family="sans-serif" font-size="13" lengthAdjust="spacing" textLength="266" x="12" y="307.6758">or class names for filtering them and their</text><text fill="#000000" font-family="sans-serif" font-size="13" lengthAdjust="spacing" textLength="130" x="12" y="322.9863">direct dependencies.</text><text fill="#000000" font-family="sans-serif" font-size="13" lengthAdjust="spacing" textLength="4" x="12" y="338.2969">&#160;</text><line style="stroke:#181818;stroke-width:1.0;" x1="7" x2="331.5" y1="272.1416" y2="272.1416"/><line style="stroke:#181818;stroke-width:1.0;" x1="7" x2="331.5" y1="274.1416" y2="274.1416"/><text fill="#000000" font-family="sans-serif" font-size="13" lengthAdjust="spacing" textLength="32" x="331.5" y="276.5547">Filter</text><line style="stroke:#181818;stroke-width:1.0;" x1="363.5" x2="688" y1="272.1416" y2="272.1416"/><line style="stroke:#181818;stroke-width:1.0;" x1="363.5" x2="688" y1="274.1416" y2="274.1416"/><ellipse cx="17.5" cy="368.1602" fill="#000000" rx="2.5" ry="2.5" style="stroke:#000000;stroke-width:0.0;"/><text fill="#000000" font-family="sans-serif" font-size="13" lengthAdjust="spacing" textLength="488" x="24" y="372.918">Examples.BetterDesign.Repository.CarExample.WarehouseEntities.Complaints</text><text fill="#000000" font-family="sans-serif" font-size="13" font-weight="bold" lengthAdjust="spacing" textLength="67" x="516" y="372.918">simplified</text><text fill="#000000" font-family="sans-serif" font-size="13" lengthAdjust="spacing" textLength="4" x="587" y="372.918">:</text><text fill="#000000" font-family="sans-serif" font-size="13" lengthAdjust="spacing" textLength="12" x="12" y="388.2285">&#160;&#160;&#160;</text><a href="Examples.BetterDesign.Repository.CarExample.WarehouseEntities.Complaints-diagram-simplified.svg" target="_top" title="Examples.BetterDesign.Repository.CarExample.WarehouseEntities.Complaints-diagram-simplified.svg" xlink:actuate="onRequest" xlink:href="Examples.BetterDesign.Repository.CarExample.WarehouseEntities.Complaints-diagram-simplified.svg" xlink:show="new" xlink:title="Examples.BetterDesign.Repository.CarExample.WarehouseEntities.Complaints-diagram-simplified.svg" xlink:type="simple"><text fill="#0000FF" font-family="sans-serif" font-size="13" lengthAdjust="spacing" text-decoration="underline" textLength="644" x="24" y="388.2285">Examples.BetterDesign.Repository.CarExample.WarehouseEntities.Complaints-diagram-simplified.svg</text></a><ellipse cx="17.5" cy="398.7813" fill="#000000" rx="2.5" ry="2.5" style="stroke:#000000;stroke-width:0.0;"/><text fill="#000000" font-family="sans-serif" font-size="13" lengthAdjust="spacing" textLength="78" x="24" y="403.5391">Full diagram</text><text fill="#000000" font-family="sans-serif" font-size="13" font-weight="bold" lengthAdjust="spacing" textLength="55" x="106" y="403.5391">detailed</text><text fill="#000000" font-family="sans-serif" font-size="13" lengthAdjust="spacing" textLength="23" x="165" y="403.5391">and</text><text fill="#000000" font-family="sans-serif" font-size="13" font-weight="bold" lengthAdjust="spacing" textLength="166" x="192" y="403.5391">grouped per namespace</text><text fill="#000000" font-family="sans-serif" font-size="13" lengthAdjust="spacing" textLength="4" x="358" y="403.5391">:</text><text fill="#000000" font-family="sans-serif" font-size="13" lengthAdjust="spacing" textLength="12" x="12" y="418.8496">&#160;&#160;&#160;</text><a href="full-diagram-detailed-grouped-per-namespace.svg" target="_top" title="full-diagram-detailed-grouped-per-namespace.svg" xlink:actuate="onRequest" xlink:href="full-diagram-detailed-grouped-per-namespace.svg" xlink:show="new" xlink:title="full-diagram-detailed-grouped-per-namespace.svg" xlink:type="simple"><text fill="#0000FF" font-family="sans-serif" font-size="13" lengthAdjust="spacing" text-decoration="underline" textLength="330" x="24" y="418.8496">full-diagram-detailed-grouped-per-namespace.svg</text></a><ellipse cx="17.5" cy="429.4023" fill="#000000" rx="2.5" ry="2.5" style="stroke:#000000;stroke-width:0.0;"/><text fill="#000000" font-family="sans-serif" font-size="13" lengthAdjust="spacing" textLength="41" x="24" y="434.1602">Home:</text><text fill="#000000" font-family="sans-serif" font-size="13" lengthAdjust="spacing" textLength="12" x="12" y="449.4707">&#160;&#160;&#160;</text><a href="index.html" target="_top" title="index.html" xlink:actuate="onRequest" xlink:href="index.html" xlink:show="new" xlink:title="index.html" xlink:type="simple"><text fill="#0000FF" font-family="sans-serif" font-size="13" lengthAdjust="spacing" text-decoration="underline" textLength="68" x="24" y="449.4707">index.html</text></a><line style="stroke:#181818;stroke-width:1.0;" x1="7" x2="310.5" y1="352.6943" y2="352.6943"/><line style="stroke:#181818;stroke-width:1.0;" x1="7" x2="310.5" y1="354.6943" y2="354.6943"/><text fill="#000000" font-family="sans-serif" font-size="13" lengthAdjust="spacing" textLength="74" x="310.5" y="357.1074">Select other</text><line style="stroke:#181818;stroke-width:1.0;" x1="384.5" x2="688" y1="352.6943" y2="352.6943"/><line style="stroke:#181818;stroke-width:1.0;" x1="384.5" x2="688" y1="354.6943" y2="354.6943"/></g><!--link DBWarehouse to Complaints--><g id="link_DBWarehouse_Complaints"><path codeLine="25" d="M1423.5,460.9547 C1423.5,460.9547 1423.5,515.1347 1423.5,515.1347 " fill="none" id="DBWarehouse-to-Complaints" style="stroke:#6060BB;stroke-width:1.0;stroke-dasharray:7.0,7.0;"/><polygon fill="#6060BB" points="1423.5,520.1347,1427.5,511.1347,1423.5,515.1347,1419.5,511.1347,1423.5,520.1347" style="stroke:#6060BB;stroke-width:1.0;"/><text fill="#000000" font-family="sans-serif" font-size="13" lengthAdjust="spacing" textLength="29" x="1393.5" y="484.613">uses</text></g><!--SRC=[rLPDRzf04BtpAqRaaDQI7TH33XPmC0bgBpsqggeAE6pimQoothLsbpIawd_l-0CJ8409TabzG3QUh_VcpNhCFPSfqom1mINQHOgWj9sfbkLM87GDVqB_GwT_-yYILA3n0hGMzGqQ7all2wRASAlqmXimNTfutvd6cPeRl9KKXPFJGD4BngKru3WHMiO5Heu3tQiiVhybbKLe_r1p3UGBJ3AnUE8oziUocSHZEPQztf0B2jdhZIMbXf1920KFxm6vdQ46-W794ZGf2z6GZz9am8mf_eKfFK_p45HgPfrGvL5sm_LOHbnZQ27256M4CipAAT9-HP6zKLcIBBa3DO8qd1xubESmYJy068tgYkz6dCKa5dULnJCFyMIIWHZEXO3IO9tjZ1N7YRMQfnX1IjHMj3hEiiOfkLVnbyvkwUIIarivhN9-L0ak0t2Y-T6RsKHC9crW1eP2CKkj-KpgQa5-iJjZDIFoYpuUmyjDK35p9AFFFBS05b00VfK50hWGentCZILe-brtgYHLguJIlVPrvxeJ1Eq-zqzhw2Vve7Y8tQiiUF-z3sjPWY3Bqpvrv4i4PP8DU6m7ij2lIwerWgFR5r6KD3Q4P9s_PfgqBeID7bLK_iS0j_ImZl6RsJLY8TF-wpJI392iqfVRjFUa29Vut-9SrNLeK0JjrqPlaoV6mPbwOwexC3v3hisU6JhFGEH5xTJAFsXoNi3URyFPplI2cmCYF8kYVbU5dh2YxLsD6zY2DvQuYmKAeNu-s-K8rILjldzrGMEsbp38gTGeQ1zMqW0-vXJJCZxLAbbjupxP7i5IwxNxipUwADGsyVhrTHXye3UcGS3R-Vy0]--></g></svg>