<?xml version="1.0" encoding="us-ascii" standalone="no"?><svg xmlns="http://www.w3.org/2000/svg" xmlns:xlink="http://www.w3.org/1999/xlink" contentStyleType="text/css" height="688px" preserveAspectRatio="none" style="width:2356px;height:688px;background:#FFFFFF;" version="1.1" viewBox="0 0 2356 688" width="2356px" zoomAndPan="magnify"><defs/><g><text fill="#000000" font-family="sans-serif" font-size="20" font-weight="bold" lengthAdjust="spacing" textLength="677" x="636.75" y="29.3359">Examples.BetterDesign.Repository.CarExample.WarehouseEntities</text><text fill="#000000" font-family="sans-serif" font-size="20" font-weight="bold" lengthAdjust="spacing" textLength="84" x="1320.75" y="29.3359">detailed</text><text fill="#000000" font-family="sans-serif" font-size="20" font-weight="bold" lengthAdjust="spacing" textLength="38" x="1411.75" y="29.3359">and</text><text fill="#000000" font-family="sans-serif" font-size="20" font-weight="bold" lengthAdjust="spacing" textLength="249" x="1456.75" y="29.3359">grouped per namespace</text><!--cluster Examples--><g id="cluster_Examples"><a href="Examples-diagram-detailed-grouped-per-namespace.svg" target="_top" title="Examples-diagram-detailed-grouped-per-namespace.svg" xlink:actuate="onRequest" xlink:href="Examples-diagram-detailed-grouped-per-namespace.svg" xlink:show="new" xlink:title="Examples-diagram-detailed-grouped-per-namespace.svg" xlink:type="simple"><path d="M798,50.5547 L867,50.5547 A3.75,3.75 0 0 1 869.5,53.0547 L876.5,73.043 L2347,73.043 A2.5,2.5 0 0 1 2349.5,75.543 L2349.5,679.0547 A2.5,2.5 0 0 1 2347,681.5547 L798,681.5547 A2.5,2.5 0 0 1 795.5,679.0547 L795.5,53.0547 A2.5,2.5 0 0 1 798,50.5547 " fill="none" style="stroke:#000000;stroke-width:1.5;"/><line style="stroke:#000000;stroke-width:1.5;" x1="795.5" x2="876.5" y1="73.043" y2="73.043"/><text fill="#000000" font-family="sans-serif" font-size="14" font-weight="bold" lengthAdjust="spacing" textLength="68" x="799.5" y="66.0898">Examples</text></a></g><!--cluster BetterDesign--><g id="cluster_BetterDesign"><a href="Examples.BetterDesign-diagram-detailed-grouped-per-namespace.svg" target="_top" title="Examples.BetterDesign-diagram-detailed-grouped-per-namespace.svg" xlink:actuate="onRequest" xlink:href="Examples.BetterDesign-diagram-detailed-grouped-per-namespace.svg" xlink:show="new" xlink:title="Examples.BetterDesign-diagram-detailed-grouped-per-namespace.svg" xlink:type="simple"><path d="M822,93.5547 L916,93.5547 A3.75,3.75 0 0 1 918.5,96.0547 L925.5,116.043 L2323,116.043 A2.5,2.5 0 0 1 2325.5,118.543 L2325.5,655.0547 A2.5,2.5 0 0 1 2323,657.5547 L822,657.5547 A2.5,2.5 0 0 1 819.5,655.0547 L819.5,96.0547 A2.5,2.5 0 0 1 822,93.5547 " fill="none" style="stroke:#000000;stroke-width:1.5;"/><line style="stroke:#000000;stroke-width:1.5;" x1="819.5" x2="925.5" y1="116.043" y2="116.043"/><text fill="#000000" font-family="sans-serif" font-size="14" font-weight="bold" lengthAdjust="spacing" textLength="93" x="823.5" y="109.0898">BetterDesign</text></a></g><!--cluster Repository--><g id="cluster_Repository"><a href="Examples.BetterDesign.Repository-diagram-detailed-grouped-per-namespace.svg" target="_top" title="Examples.BetterDesign.Repository-diagram-detailed-grouped-per-namespace.svg" xlink:actuate="onRequest" xlink:href="Examples.BetterDesign.Repository-diagram-detailed-grouped-per-namespace.svg" xlink:show="new" xlink:title="Examples.BetterDesign.Repository-diagram-detailed-grouped-per-namespace.svg" xlink:type="simple"><path d="M1494,136.5547 L1573,136.5547 A3.75,3.75 0 0 1 1575.5,139.0547 L1582.5,159.043 L2299,159.043 A2.5,2.5 0 0 1 2301.5,161.543 L2301.5,631.0547 A2.5,2.5 0 0 1 2299,633.5547 L1494,633.5547 A2.5,2.5 0 0 1 1491.5,631.0547 L1491.5,139.0547 A2.5,2.5 0 0 1 1494,136.5547 " fill="none" style="stroke:#000000;stroke-width:1.5;"/><line style="stroke:#000000;stroke-width:1.5;" x1="1491.5" x2="1582.5" y1="159.043" y2="159.043"/><text fill="#000000" font-family="sans-serif" font-size="14" font-weight="bold" lengthAdjust="spacing" textLength="78" x="1495.5" y="152.0898">Repository</text></a></g><!--cluster CarExample--><g id="cluster_CarExample"><a href="Examples.BetterDesign.Repository.CarExample-diagram-detailed-grouped-per-namespace.svg" target="_top" title="Examples.BetterDesign.Repository.CarExample-diagram-detailed-grouped-per-namespace.svg" xlink:actuate="onRequest" xlink:href="Examples.BetterDesign.Repository.CarExample-diagram-detailed-grouped-per-namespace.svg" xlink:show="new" xlink:title="Examples.BetterDesign.Repository.CarExample-diagram-detailed-grouped-per-namespace.svg" xlink:type="simple"><path d="M1518,179.5547 L1603,179.5547 A3.75,3.75 0 0 1 1605.5,182.0547 L1612.5,202.043 L2275,202.043 A2.5,2.5 0 0 1 2277.5,204.543 L2277.5,607.0547 A2.5,2.5 0 0 1 2275,609.5547 L1518,609.5547 A2.5,2.5 0 0 1 1515.5,607.0547 L1515.5,182.0547 A2.5,2.5 0 0 1 1518,179.5547 " fill="none" style="stroke:#000000;stroke-width:1.5;"/><line style="stroke:#000000;stroke-width:1.5;" x1="1515.5" x2="1612.5" y1="202.043" y2="202.043"/><text fill="#000000" font-family="sans-serif" font-size="14" font-weight="bold" lengthAdjust="spacing" textLength="84" x="1519.5" y="195.0898">CarExample</text></a></g><!--cluster WarehouseEntities--><g id="cluster_WarehouseEntities"><a href="Examples.BetterDesign.Repository.CarExample.WarehouseEntities-diagram-detailed-grouped-per-namespace.svg" target="_top" title="Examples.BetterDesign.Repository.CarExample.WarehouseEntities-diagram-detailed-grouped-per-namespace.svg" xlink:actuate="onRequest" xlink:href="Examples.BetterDesign.Repository.CarExample.WarehouseEntities-diagram-detailed-grouped-per-namespace.svg" xlink:show="new" xlink:title="Examples.BetterDesign.Repository.CarExample.WarehouseEntities-diagram-detailed-grouped-per-namespace.svg" xlink:type="simple"><path d="M1542,486.5547 L1676,486.5547 A3.75,3.75 0 0 1 1678.5,489.0547 L1685.5,509.043 L2118,509.043 A2.5,2.5 0 0 1 2120.5,511.543 L2120.5,583.0547 A2.5,2.5 0 0 1 2118,585.5547 L1542,585.5547 A2.5,2.5 0 0 1 1539.5,583.0547 L1539.5,489.0547 A2.5,2.5 0 0 1 1542,486.5547 " fill="none" style="stroke:#000000;stroke-width:1.5;"/><line style="stroke:#000000;stroke-width:1.5;" x1="1539.5" x2="1685.5" y1="509.043" y2="509.043"/><text fill="#000000" font-family="sans-serif" font-size="14" font-weight="bold" lengthAdjust="spacing" textLength="133" x="1543.5" y="502.0898">WarehouseEntities</text></a></g><!--class Service--><a href="Examples.BetterDesign.Service-diagram-detailed-grouped-per-namespace.svg" target="_top" title="Examples.BetterDesign.Service-diagram-detailed-grouped-per-namespace.svg" xlink:actuate="onRequest" xlink:href="Examples.BetterDesign.Service-diagram-detailed-grouped-per-namespace.svg" xlink:show="new" xlink:title="Examples.BetterDesign.Service-diagram-detailed-grouped-per-namespace.svg" xlink:type="simple"><g id="elem_Service"><rect codeLine="6" fill="#F1F1F1" height="80.9766" id="Service" rx="2.5" ry="2.5" style="stroke:#181818;stroke-width:0.5;" width="640" x="835.5" y="297.0547"/><ellipse cx="1127.25" cy="313.0547" fill="#A9DCDF" rx="11" ry="11" style="stroke:#181818;stroke-width:1.0;"/><path d="M1127.1133,308.4028 L1125.9595,313.4746 L1128.2754,313.4746 Z M1125.6191,306.1616 L1128.6157,306.1616 L1131.9609,318.5547 L1129.5122,318.5547 L1128.7485,315.4917 L1125.4697,315.4917 L1124.7227,318.5547 L1122.2739,318.5547 Z " fill="#000000"/><text fill="#000000" font-family="sans-serif" font-size="14" font-style="italic" lengthAdjust="spacing" textLength="48" x="1147.75" y="318.3457">Service</text><line style="stroke:#181818;stroke-width:0.5;" x1="836.5" x2="1474.5" y1="329.0547" y2="329.0547"/><line style="stroke:#181818;stroke-width:0.5;" x1="836.5" x2="1474.5" y1="337.0547" y2="337.0547"/><rect fill="#F24D5C" height="6" style="stroke:#C82930;stroke-width:1.0;" width="6" x="843.5" y="347.7988"/><text fill="#000000" font-family="sans-serif" font-size="14" lengthAdjust="spacing" textLength="108" x="855.5" y="354.5898">getOrderedCar(</text><text fill="#6060BB" font-family="sans-serif" font-size="14" lengthAdjust="spacing" textLength="432" x="963.5" y="354.5898">physicalCar:Examples.BetterDesign.Repository.CarExample.Car</text><text fill="#000000" font-family="sans-serif" font-size="14" lengthAdjust="spacing" textLength="5" x="1395.5" y="354.5898">)</text><rect fill="#F24D5C" height="6" style="stroke:#C82930;stroke-width:1.0;" width="6" x="843.5" y="364.2871"/><text fill="#000000" font-family="sans-serif" font-size="14" lengthAdjust="spacing" textLength="105" x="855.5" y="371.0781">getPhysicalCar(</text><text fill="#6060BB" font-family="sans-serif" font-size="14" lengthAdjust="spacing" textLength="504" x="960.5" y="371.0781">car:Examples.BetterDesign.Repository.CarExample.WarehouseEntities.Car</text><text fill="#000000" font-family="sans-serif" font-size="14" lengthAdjust="spacing" textLength="5" x="1464.5" y="371.0781">)</text></g></a><!--class DBWarehouse--><a href="Examples.BetterDesign.Repository.CarExample.DBWarehouse-diagram-detailed-grouped-per-namespace.svg" target="_top" title="Examples.BetterDesign.Repository.CarExample.DBWarehouse-diagram-detailed-grouped-per-namespace.svg" xlink:actuate="onRequest" xlink:href="Examples.BetterDesign.Repository.CarExample.DBWarehouse-diagram-detailed-grouped-per-namespace.svg" xlink:show="new" xlink:title="Examples.BetterDesign.Repository.CarExample.DBWarehouse-diagram-detailed-grouped-per-namespace.svg" xlink:type="simple"><g id="elem_DBWarehouse"><rect codeLine="20" fill="#F1F1F1" height="245.8594" id="DBWarehouse" rx="2.5" ry="2.5" style="stroke:#181818;stroke-width:0.5;" width="730" x="1531.5" y="214.5547"/><ellipse cx="1845.25" cy="230.5547" fill="#A9DCDF" rx="11" ry="11" style="stroke:#181818;stroke-width:1.0;"/><path d="M1845.1133,225.9028 L1843.9595,230.9746 L1846.2754,230.9746 Z M1843.6191,223.6616 L1846.6157,223.6616 L1849.9609,236.0547 L1847.5122,236.0547 L1846.7485,232.9917 L1843.4697,232.9917 L1842.7227,236.0547 L1840.2739,236.0547 Z " fill="#000000"/><text fill="#000000" font-family="sans-serif" font-size="14" font-style="italic" lengthAdjust="spacing" textLength="94" x="1865.75" y="235.8457">DBWarehouse</text><line style="stroke:#181818;stroke-width:0.5;" x1="1532.5" x2="2260.5" y1="246.5547" y2="246.5547"/><line style="stroke:#181818;stroke-width:0.5;" x1="1532.5" x2="2260.5" y1="254.5547" y2="254.5547"/><rect fill="#F24D5C" height="6" style="stroke:#C82930;stroke-width:1.0;" width="6" x="1539.5" y="265.2988"/><text fill="#000000" font-family="sans-serif" font-size="14" lengthAdjust="spacing" textLength="94" x="1551.5" y="272.0898">getCustomer(</text><text fill="#6060BB" font-family="sans-serif" font-size="14" lengthAdjust="spacing" textLength="511" x="1645.5" y="272.0898">i:Examples.BetterDesign.Repository.CarExample.WarehouseEntities.Invoice</text><text fill="#000000" font-family="sans-serif" font-size="14" lengthAdjust="spacing" textLength="5" x="2156.5" y="272.0898">)</text><rect fill="#F24D5C" height="6" style="stroke:#C82930;stroke-width:1.0;" width="6" x="1539.5" y="281.7871"/><text fill="#000000" font-family="sans-serif" font-size="14" lengthAdjust="spacing" textLength="51" x="1551.5" y="288.5781">getCar(</text><text fill="#6060BB" font-family="sans-serif" font-size="14" lengthAdjust="spacing" textLength="544" x="1602.5" y="288.5781">c:Examples.BetterDesign.Repository.CarExample.WarehouseEntities.Complaints</text><text fill="#000000" font-family="sans-serif" font-size="14" lengthAdjust="spacing" textLength="5" x="2146.5" y="288.5781">)</text><rect fill="#F24D5C" height="6" style="stroke:#C82930;stroke-width:1.0;" width="6" x="1539.5" y="298.2754"/><text fill="#000000" font-family="sans-serif" font-size="14" lengthAdjust="spacing" textLength="75" x="1551.5" y="305.0664">getInvoice(</text><text fill="#6060BB" font-family="sans-serif" font-size="14" lengthAdjust="spacing" textLength="533" x="1626.5" y="305.0664">c:Examples.BetterDesign.Repository.CarExample.WarehouseEntities.Customer</text><text fill="#000000" font-family="sans-serif" font-size="14" lengthAdjust="spacing" textLength="5" x="2159.5" y="305.0664">)</text><rect fill="#F24D5C" height="6" style="stroke:#C82930;stroke-width:1.0;" width="6" x="1539.5" y="314.7637"/><text fill="#000000" font-family="sans-serif" font-size="14" lengthAdjust="spacing" textLength="105" x="1551.5" y="321.5547">getComplaints(</text><text fill="#6060BB" font-family="sans-serif" font-size="14" lengthAdjust="spacing" textLength="533" x="1656.5" y="321.5547">c:Examples.BetterDesign.Repository.CarExample.WarehouseEntities.Customer</text><text fill="#000000" font-family="sans-serif" font-size="14" lengthAdjust="spacing" textLength="5" x="2189.5" y="321.5547">)</text><rect fill="#F24D5C" height="6" style="stroke:#C82930;stroke-width:1.0;" width="6" x="1539.5" y="331.252"/><text fill="#000000" font-family="sans-serif" font-size="14" lengthAdjust="spacing" textLength="58" x="1551.5" y="338.043">getUser(</text><text fill="#6060BB" font-family="sans-serif" font-size="14" lengthAdjust="spacing" textLength="374" x="1609.5" y="338.043">car:Examples.BetterDesign.Repository.CarExample.Car</text><text fill="#000000" font-family="sans-serif" font-size="14" lengthAdjust="spacing" textLength="5" x="1983.5" y="338.043">)</text><rect fill="#F24D5C" height="6" style="stroke:#C82930;stroke-width:1.0;" width="6" x="1539.5" y="347.7402"/><text fill="#000000" font-family="sans-serif" font-size="14" lengthAdjust="spacing" textLength="94" x="1551.5" y="354.5313">getCustomer(</text><text fill="#6060BB" font-family="sans-serif" font-size="14" lengthAdjust="spacing" textLength="605" x="1645.5" y="354.5313">complaint:Examples.BetterDesign.Repository.CarExample.WarehouseEntities.Complaints</text><text fill="#000000" font-family="sans-serif" font-size="14" lengthAdjust="spacing" textLength="5" x="2250.5" y="354.5313">)</text><rect fill="#F24D5C" height="6" style="stroke:#C82930;stroke-width:1.0;" width="6" x="1539.5" y="364.2285"/><text fill="#000000" font-family="sans-serif" font-size="14" lengthAdjust="spacing" textLength="51" x="1551.5" y="371.0195">getCar(</text><text fill="#6060BB" font-family="sans-serif" font-size="14" lengthAdjust="spacing" textLength="520" x="1602.5" y="371.0195">user:Examples.BetterDesign.Repository.CarExample.WarehouseEntities.User</text><text fill="#000000" font-family="sans-serif" font-size="14" lengthAdjust="spacing" textLength="5" x="2122.5" y="371.0195">)</text><rect fill="#F24D5C" height="6" style="stroke:#C82930;stroke-width:1.0;" width="6" x="1539.5" y="380.7168"/><text fill="#000000" font-family="sans-serif" font-size="14" lengthAdjust="spacing" textLength="105" x="1551.5" y="387.5078">getComplaints(</text><text fill="#6060BB" font-family="sans-serif" font-size="14" lengthAdjust="spacing" textLength="374" x="1656.5" y="387.5078">car:Examples.BetterDesign.Repository.CarExample.Car</text><text fill="#000000" font-family="sans-serif" font-size="14" lengthAdjust="spacing" textLength="5" x="2030.5" y="387.5078">)</text><rect fill="#F24D5C" height="6" style="stroke:#C82930;stroke-width:1.0;" width="6" x="1539.5" y="397.2051"/><text fill="#000000" font-family="sans-serif" font-size="14" lengthAdjust="spacing" textLength="88" x="1551.5" y="403.9961">getFirstUser(</text><text fill="#000000" font-family="sans-serif" font-size="14" lengthAdjust="spacing" textLength="5" x="1639.5" y="403.9961">)</text><rect fill="#F24D5C" height="6" style="stroke:#C82930;stroke-width:1.0;" width="6" x="1539.5" y="413.6934"/><text fill="#000000" font-family="sans-serif" font-size="14" lengthAdjust="spacing" textLength="81" x="1551.5" y="420.4844">getFirstCar(</text><text fill="#000000" font-family="sans-serif" font-size="14" lengthAdjust="spacing" textLength="5" x="1632.5" y="420.4844">)</text><rect fill="#F24D5C" height="6" style="stroke:#C82930;stroke-width:1.0;" width="6" x="1539.5" y="430.1816"/><text fill="#000000" font-family="sans-serif" font-size="14" lengthAdjust="spacing" textLength="105" x="1551.5" y="436.9727">getFirstInvoice(</text><text fill="#000000" font-family="sans-serif" font-size="14" lengthAdjust="spacing" textLength="5" x="1656.5" y="436.9727">)</text><rect fill="#F24D5C" height="6" style="stroke:#C82930;stroke-width:1.0;" width="6" x="1539.5" y="446.6699"/><text fill="#000000" font-family="sans-serif" font-size="14" lengthAdjust="spacing" textLength="135" x="1551.5" y="453.4609">getFirstComplaints(</text><text fill="#000000" font-family="sans-serif" font-size="14" lengthAdjust="spacing" textLength="5" x="1686.5" y="453.4609">)</text></g></a><!--class User--><a href="Examples.BetterDesign.Repository.CarExample.WarehouseEntities.User-diagram-detailed-grouped-per-namespace.svg" target="_top" title="Examples.BetterDesign.Repository.CarExample.WarehouseEntities.User-diagram-detailed-grouped-per-namespace.svg" xlink:actuate="onRequest" xlink:href="Examples.BetterDesign.Repository.CarExample.WarehouseEntities.User-diagram-detailed-grouped-per-namespace.svg" xlink:show="new" xlink:title="Examples.BetterDesign.Repository.CarExample.WarehouseEntities.User-diagram-detailed-grouped-per-namespace.svg" xlink:type="simple"><g id="elem_User"><rect codeLine="49" fill="#FFFF00" height="48" id="User" rx="2.5" ry="2.5" style="stroke:#181818;stroke-width:0.5;" width="63" x="2041" y="521.5547"/><ellipse cx="2056" cy="537.5547" fill="#A9DCDF" rx="11" ry="11" style="stroke:#181818;stroke-width:1.0;"/><path d="M2055.8633,532.9028 L2054.7095,537.9746 L2057.0254,537.9746 Z M2054.3691,530.6616 L2057.3657,530.6616 L2060.7109,543.0547 L2058.2622,543.0547 L2057.4985,539.9917 L2054.2197,539.9917 L2053.4727,543.0547 L2051.0239,543.0547 Z " fill="#000000"/><text fill="#000000" font-family="sans-serif" font-size="14" font-style="italic" lengthAdjust="spacing" textLength="31" x="2070" y="542.8457">User</text><line style="stroke:#181818;stroke-width:0.5;" x1="2042" x2="2103" y1="553.5547" y2="553.5547"/><line style="stroke:#181818;stroke-width:0.5;" x1="2042" x2="2103" y1="561.5547" y2="561.5547"/></g></a><!--class Customer--><a href="Examples.BetterDesign.Repository.CarExample.WarehouseEntities.Customer-diagram-detailed-grouped-per-namespace.svg" target="_top" title="Examples.BetterDesign.Repository.CarExample.WarehouseEntities.Customer-diagram-detailed-grouped-per-namespace.svg" xlink:actuate="onRequest" xlink:href="Examples.BetterDesign.Repository.CarExample.WarehouseEntities.Customer-diagram-detailed-grouped-per-namespace.svg" xlink:show="new" xlink:title="Examples.BetterDesign.Repository.CarExample.WarehouseEntities.Customer-diagram-detailed-grouped-per-namespace.svg" xlink:type="simple"><g id="elem_Customer"><rect codeLine="51" fill="#FFFF00" height="48" id="Customer" rx="2.5" ry="2.5" style="stroke:#181818;stroke-width:0.5;" width="99" x="1907" y="521.5547"/><ellipse cx="1922" cy="537.5547" fill="#A9DCDF" rx="11" ry="11" style="stroke:#181818;stroke-width:1.0;"/><path d="M1921.8633,532.9028 L1920.7095,537.9746 L1923.0254,537.9746 Z M1920.3691,530.6616 L1923.3657,530.6616 L1926.7109,543.0547 L1924.2622,543.0547 L1923.4985,539.9917 L1920.2197,539.9917 L1919.4727,543.0547 L1917.0239,543.0547 Z " fill="#000000"/><text fill="#000000" font-family="sans-serif" font-size="14" font-style="italic" lengthAdjust="spacing" textLength="67" x="1936" y="542.8457">Customer</text><line style="stroke:#181818;stroke-width:0.5;" x1="1908" x2="2005" y1="553.5547" y2="553.5547"/><line style="stroke:#181818;stroke-width:0.5;" x1="1908" x2="2005" y1="561.5547" y2="561.5547"/></g></a><!--class Complaints--><a href="Examples.BetterDesign.Repository.CarExample.WarehouseEntities.Complaints-diagram-detailed-grouped-per-namespace.svg" target="_top" title="Examples.BetterDesign.Repository.CarExample.WarehouseEntities.Complaints-diagram-detailed-grouped-per-namespace.svg" xlink:actuate="onRequest" xlink:href="Examples.BetterDesign.Repository.CarExample.WarehouseEntities.Complaints-diagram-detailed-grouped-per-namespace.svg" xlink:show="new" xlink:title="Examples.BetterDesign.Repository.CarExample.WarehouseEntities.Complaints-diagram-detailed-grouped-per-namespace.svg" xlink:type="simple"><g id="elem_Complaints"><rect codeLine="53" fill="#FFFF00" height="48" id="Complaints" rx="2.5" ry="2.5" style="stroke:#181818;stroke-width:0.5;" width="110" x="1761.5" y="521.5547"/><ellipse cx="1776.5" cy="537.5547" fill="#A9DCDF" rx="11" ry="11" style="stroke:#181818;stroke-width:1.0;"/><path d="M1776.3633,532.9028 L1775.2095,537.9746 L1777.5254,537.9746 Z M1774.8691,530.6616 L1777.8657,530.6616 L1781.2109,543.0547 L1778.7622,543.0547 L1777.9985,539.9917 L1774.7197,539.9917 L1773.9727,543.0547 L1771.5239,543.0547 Z " fill="#000000"/><text fill="#000000" font-family="sans-serif" font-size="14" font-style="italic" lengthAdjust="spacing" textLength="78" x="1790.5" y="542.8457">Complaints</text><line style="stroke:#181818;stroke-width:0.5;" x1="1762.5" x2="1870.5" y1="553.5547" y2="553.5547"/><line style="stroke:#181818;stroke-width:0.5;" x1="1762.5" x2="1870.5" y1="561.5547" y2="561.5547"/></g></a><!--class Invoice--><a href="Examples.BetterDesign.Repository.CarExample.WarehouseEntities.Invoice-diagram-detailed-grouped-per-namespace.svg" target="_top" title="Examples.BetterDesign.Repository.CarExample.WarehouseEntities.Invoice-diagram-detailed-grouped-per-namespace.svg" xlink:actuate="onRequest" xlink:href="Examples.BetterDesign.Repository.CarExample.WarehouseEntities.Invoice-diagram-detailed-grouped-per-namespace.svg" xlink:show="new" xlink:title="Examples.BetterDesign.Repository.CarExample.WarehouseEntities.Invoice-diagram-detailed-grouped-per-namespace.svg" xlink:type="simple"><g id="elem_Invoice"><rect codeLine="55" fill="#FFFF00" height="48" id="Invoice" rx="2.5" ry="2.5" style="stroke:#181818;stroke-width:0.5;" width="80" x="1646.5" y="521.5547"/><ellipse cx="1661.5" cy="537.5547" fill="#A9DCDF" rx="11" ry="11" style="stroke:#181818;stroke-width:1.0;"/><path d="M1661.3633,532.9028 L1660.2095,537.9746 L1662.5254,537.9746 Z M1659.8691,530.6616 L1662.8657,530.6616 L1666.2109,543.0547 L1663.7622,543.0547 L1662.9985,539.9917 L1659.7197,539.9917 L1658.9727,543.0547 L1656.5239,543.0547 Z " fill="#000000"/><text fill="#000000" font-family="sans-serif" font-size="14" font-style="italic" lengthAdjust="spacing" textLength="48" x="1675.5" y="542.8457">Invoice</text><line style="stroke:#181818;stroke-width:0.5;" x1="1647.5" x2="1725.5" y1="553.5547" y2="553.5547"/><line style="stroke:#181818;stroke-width:0.5;" x1="1647.5" x2="1725.5" y1="561.5547" y2="561.5547"/></g></a><!--class Car--><a href="Examples.BetterDesign.Repository.CarExample.WarehouseEntities.Car-diagram-detailed-grouped-per-namespace.svg" target="_top" title="Examples.BetterDesign.Repository.CarExample.WarehouseEntities.Car-diagram-detailed-grouped-per-namespace.svg" xlink:actuate="onRequest" xlink:href="Examples.BetterDesign.Repository.CarExample.WarehouseEntities.Car-diagram-detailed-grouped-per-namespace.svg" xlink:show="new" xlink:title="Examples.BetterDesign.Repository.CarExample.WarehouseEntities.Car-diagram-detailed-grouped-per-namespace.svg" xlink:type="simple"><g id="elem_Car"><rect codeLine="57" fill="#FFFF00" height="48" id="Car" rx="2.5" ry="2.5" style="stroke:#181818;stroke-width:0.5;" width="56" x="1555.5" y="521.5547"/><ellipse cx="1570.5" cy="537.5547" fill="#A9DCDF" rx="11" ry="11" style="stroke:#181818;stroke-width:1.0;"/><path d="M1570.3633,532.9028 L1569.2095,537.9746 L1571.5254,537.9746 Z M1568.8691,530.6616 L1571.8657,530.6616 L1575.2109,543.0547 L1572.7622,543.0547 L1571.9985,539.9917 L1568.7197,539.9917 L1567.9727,543.0547 L1565.5239,543.0547 Z " fill="#000000"/><text fill="#000000" font-family="sans-serif" font-size="14" font-style="italic" lengthAdjust="spacing" textLength="24" x="1584.5" y="542.8457">Car</text><line style="stroke:#181818;stroke-width:0.5;" x1="1556.5" x2="1610.5" y1="553.5547" y2="553.5547"/><line style="stroke:#181818;stroke-width:0.5;" x1="1556.5" x2="1610.5" y1="561.5547" y2="561.5547"/></g></a><g id="elem_FloatingNote"><path d="M6,213.5547 L6,461.2129 L779,461.2129 L779,223.5547 L769,213.5547 L6,213.5547 " fill="#FEFFDD" style="stroke:#181818;stroke-width:0.5;"/><path d="M769,213.5547 L769,223.5547 L779,223.5547 L769,213.5547 " fill="#FEFFDD" style="stroke:#181818;stroke-width:1.0;"/><text fill="#000000" font-family="sans-serif" font-size="13" lengthAdjust="spacing" textLength="120" x="12" y="231.123">Your are analyzing:</text><text fill="#000000" font-family="sans-serif" font-size="13" lengthAdjust="spacing" textLength="412" x="12" y="246.4336">Examples.BetterDesign.Repository.CarExample.WarehouseEntities</text><text fill="#000000" font-family="sans-serif" font-size="13" font-weight="bold" lengthAdjust="spacing" textLength="55" x="428" y="246.4336">detailed</text><text fill="#000000" font-family="sans-serif" font-size="13" lengthAdjust="spacing" textLength="23" x="487" y="246.4336">and</text><text fill="#000000" font-family="sans-serif" font-size="13" font-weight="bold" lengthAdjust="spacing" textLength="166" x="514" y="246.4336">grouped per namespace</text><text fill="#000000" font-family="sans-serif" font-size="13" lengthAdjust="spacing" textLength="4" x="12" y="261.7441">&#160;</text><text fill="#000000" font-family="sans-serif" font-size="13" lengthAdjust="spacing" textLength="229" x="12" y="292.3652">You can click either the namespaces</text><text fill="#000000" font-family="sans-serif" font-size="13" lengthAdjust="spacing" textLength="266" x="12" y="307.6758">or class names for filtering them and their</text><text fill="#000000" font-family="sans-serif" font-size="13" lengthAdjust="spacing" textLength="130" x="12" y="322.9863">direct dependencies.</text><text fill="#000000" font-family="sans-serif" font-size="13" lengthAdjust="spacing" textLength="4" x="12" y="338.2969">&#160;</text><line style="stroke:#181818;stroke-width:1.0;" x1="7" x2="376.5" y1="272.1416" y2="272.1416"/><line style="stroke:#181818;stroke-width:1.0;" x1="7" x2="376.5" y1="274.1416" y2="274.1416"/><text fill="#000000" font-family="sans-serif" font-size="13" lengthAdjust="spacing" textLength="32" x="376.5" y="276.5547">Filter</text><line style="stroke:#181818;stroke-width:1.0;" x1="408.5" x2="778" y1="272.1416" y2="272.1416"/><line style="stroke:#181818;stroke-width:1.0;" x1="408.5" x2="778" y1="274.1416" y2="274.1416"/><ellipse cx="17.5" cy="368.1602" fill="#000000" rx="2.5" ry="2.5" style="stroke:#000000;stroke-width:0.0;"/><text fill="#000000" font-family="sans-serif" font-size="13" lengthAdjust="spacing" textLength="412" x="24" y="372.918">Examples.BetterDesign.Repository.CarExample.WarehouseEntities</text><text fill="#000000" font-family="sans-serif" font-size="13" font-weight="bold" lengthAdjust="spacing" textLength="67" x="440" y="372.918">simplified</text><text fill="#000000" font-family="sans-serif" font-size="13" lengthAdjust="spacing" textLength="23" x="511" y="372.918">and</text><text fill="#000000" font-family="sans-serif" font-size="13" font-weight="bold" lengthAdjust="spacing" textLength="166" x="538" y="372.918">grouped per namespace</text><text fill="#000000" font-family="sans-serif" font-size="13" lengthAdjust="spacing" textLength="4" x="704" y="372.918">:</text><text fill="#000000" font-family="sans-serif" font-size="13" lengthAdjust="spacing" textLength="12" x="12" y="388.2285">&#160;&#160;&#160;</text><a href="Examples.BetterDesign.Repository.CarExample.WarehouseEntities-diagram-simplified-grouped-per-namespace.svg" target="_top" title="Examples.BetterDesign.Repository.CarExample.WarehouseEntities-diagram-simplified-grouped-per-namespace.svg" xlink:actuate="onRequest" xlink:href="Examples.BetterDesign.Repository.CarExample.WarehouseEntities-diagram-simplified-grouped-per-namespace.svg" xlink:show="new" xlink:title="Examples.BetterDesign.Repository.CarExample.WarehouseEntities-diagram-simplified-grouped-per-namespace.svg" xlink:type="simple"><text fill="#0000FF" font-family="sans-serif" font-size="13" lengthAdjust="spacing" text-decoration="underline" textLength="734" x="24" y="388.2285">Examples.BetterDesign.Repository.CarExample.WarehouseEntities-diagram-simplified-grouped-per-namespace.svg</text></a><ellipse cx="17.5" cy="398.7813" fill="#000000" rx="2.5" ry="2.5" style="stroke:#000000;stroke-width:0.0;"/><text fill="#000000" font-family="sans-serif" font-size="13" lengthAdjust="spacing" textLength="78" x="24" y="403.5391">Full diagram</text><text fill="#000000" font-family="sans-serif" font-size="13" font-weight="bold" lengthAdjust="spacing" textLength="55" x="106" y="403.5391">detailed</text><text fill="#000000" font-family="sans-serif" font-size="13" lengthAdjust="spacing" textLength="23" x="165" y="403.5391">and</text><text fill="#000000" font-family="sans-serif" font-size="13" font-weight="bold" lengthAdjust="spacing" textLength="166" x="192" y="403.5391">grouped per namespace</text><text fill="#000000" font-family="sans-serif" font-size="13" lengthAdjust="spacing" textLength="4" x="358" y="403.5391">:</text><text fill="#000000" font-family="sans-serif" font-size="13" lengthAdjust="spacing" textLength="12" x="12" y="418.8496">&#160;&#160;&#160;</text><a href="full-diagram-detailed-grouped-per-namespace.svg" target="_top" title="full-diagram-detailed-grouped-per-namespace.svg" xlink:actuate="onRequest" xlink:href="full-diagram-detailed-grouped-per-namespace.svg" xlink:show="new" xlink:title="full-diagram-detailed-grouped-per-namespace.svg" xlink:type="simple"><text fill="#0000FF" font-family="sans-serif" font-size="13" lengthAdjust="spacing" text-decoration="underline" textLength="330" x="24" y="418.8496">full-diagram-detailed-grouped-per-namespace.svg</text></a><ellipse cx="17.5" cy="429.4023" fill="#000000" rx="2.5" ry="2.5" style="stroke:#000000;stroke-width:0.0;"/><text fill="#000000" font-family="sans-serif" font-size="13" lengthAdjust="spacing" textLength="41" x="24" y="434.1602">Home:</text><text fill="#000000" font-family="sans-serif" font-size="13" lengthAdjust="spacing" textLength="12" x="12" y="449.4707">&#160;&#160;&#160;</text><a href="index.html" target="_top" title="index.html" xlink:actuate="onRequest" xlink:href="index.html" xlink:show="new" xlink:title="index.html" xlink:type="simple"><text fill="#0000FF" font-family="sans-serif" font-size="13" lengthAdjust="spacing" text-decoration="underline" textLength="68" x="24" y="449.4707">index.html</text></a><line style="stroke:#181818;stroke-width:1.0;" x1="7" x2="355.5" y1="352.6943" y2="352.6943"/><line style="stroke:#181818;stroke-width:1.0;" x1="7" x2="355.5" y1="354.6943" y2="354.6943"/><text fill="#000000" font-family="sans-serif" font-size="13" lengthAdjust="spacing" textLength="74" x="355.5" y="357.1074">Select other</text><line style="stroke:#181818;stroke-width:1.0;" x1="429.5" x2="778" y1="352.6943" y2="352.6943"/><line style="stroke:#181818;stroke-width:1.0;" x1="429.5" x2="778" y1="354.6943" y2="354.6943"/></g><!--link Service to Car--><g id="link_Service_Car"><path codeLine="76" d="M1155.5,378.1547 C1155.5,438.6847 1155.5,545.5547 1155.5,545.5547 C1155.5,545.5547 1549.09,545.5547 1549.09,545.5547 " fill="none" id="Service-to-Car" style="stroke:#6060BB;stroke-width:1.0;stroke-dasharray:7.0,7.0;"/><polygon fill="#6060BB" points="1554.09,545.5547,1545.09,541.5547,1549.09,545.5547,1545.09,549.5547,1554.09,545.5547" style="stroke:#6060BB;stroke-width:1.0;"/><text fill="#000000" font-family="sans-serif" font-size="13" lengthAdjust="spacing" textLength="29" x="1238.59" y="542.123">uses</text></g><!--link DBWarehouse to Invoice--><g id="link_DBWarehouse_Invoice"><path codeLine="79" d="M1686.5,460.9547 C1686.5,460.9547 1686.5,515.1347 1686.5,515.1347 " fill="none" id="DBWarehouse-to-Invoice" style="stroke:#6060BB;stroke-width:1.0;stroke-dasharray:7.0,7.0;"/><polygon fill="#6060BB" points="1686.5,520.1347,1690.5,511.1347,1686.5,515.1347,1682.5,511.1347,1686.5,520.1347" style="stroke:#6060BB;stroke-width:1.0;"/><text fill="#000000" font-family="sans-serif" font-size="13" lengthAdjust="spacing" textLength="29" x="1656.5" y="484.613">uses</text></g><!--link DBWarehouse to Complaints--><g id="link_DBWarehouse_Complaints"><path codeLine="80" d="M1816.5,460.9547 C1816.5,460.9547 1816.5,515.1347 1816.5,515.1347 " fill="none" id="DBWarehouse-to-Complaints" style="stroke:#6060BB;stroke-width:1.0;stroke-dasharray:7.0,7.0;"/><polygon fill="#6060BB" points="1816.5,520.1347,1820.5,511.1347,1816.5,515.1347,1812.5,511.1347,1816.5,520.1347" style="stroke:#6060BB;stroke-width:1.0;"/><text fill="#000000" font-family="sans-serif" font-size="13" lengthAdjust="spacing" textLength="29" x="1786.5" y="484.613">uses</text></g><!--link DBWarehouse to Customer--><g id="link_DBWarehouse_Customer"><path codeLine="81" d="M1956.5,460.9547 C1956.5,460.9547 1956.5,515.1347 1956.5,515.1347 " fill="none" id="DBWarehouse-to-Customer" style="stroke:#6060BB;stroke-width:1.0;stroke-dasharray:7.0,7.0;"/><polygon fill="#6060BB" points="1956.5,520.1347,1960.5,511.1347,1956.5,515.1347,1952.5,511.1347,1956.5,520.1347" style="stroke:#6060BB;stroke-width:1.0;"/><text fill="#000000" font-family="sans-serif" font-size="13" lengthAdjust="spacing" textLength="29" x="1926.5" y="484.613">uses</text></g><!--link DBWarehouse to User--><g id="link_DBWarehouse_User"><path codeLine="82" d="M2072.5,460.9547 C2072.5,460.9547 2072.5,515.1347 2072.5,515.1347 " fill="none" id="DBWarehouse-to-User" style="stroke:#6060BB;stroke-width:1.0;stroke-dasharray:7.0,7.0;"/><polygon fill="#6060BB" points="2072.5,520.1347,2076.5,511.1347,2072.5,515.1347,2068.5,511.1347,2072.5,520.1347" style="stroke:#6060BB;stroke-width:1.0;"/><text fill="#000000" font-family="sans-serif" font-size="13" lengthAdjust="spacing" textLength="29" x="2042.5" y="484.613">uses</text></g><!--SRC=[xLXDRzf04BtpAqR98IqIJjH33WWuG8BQIrerggege6XZ3x3AUjVQNKX8bV_UCVY393PW386gHGWPUsRUl9tPjmFcdik0QUQ3u1BjD41GsevKnN8h41g6Fs7zqrdhyf7vWK3ZjD5Qr1Te-50wtp5GXbkbfqw7wSZ6-SaqZjJOuAMaA1mDLAiUMiO5UjKgCEdHZQ5Mum0z2523P3wQWBbOhJPEGyHMHIgBSFHBZJLGDF9XOlh4vR3Ua- -LIa_sPBFPvO90cisUf6J0PH9SmTrxG6v7P4yVgO-1dbIQ39WnyximeE-3MGXAFhJsPw1qmNLFUboZQy730AM7qgK4dJdiDOhmYGf1Gl0gbALjE3tY0xwQEAqn0DpSb4AiUPmDgQzgAMujmgiHNYt1SynasE-73BjZ8I1oAr2dEDq1kIUeiVCgpC_AnpW0fneyEYFhYtx_29Y1hb3CKjskg1ahYNDIYOKbAeGBlpE2lLZalCKl2WF0xepLZ3fftfJP9Rr6FU6KIrx9e-V5q6Vm03KOelsgFTJeKRzyQ0oKf6oKKBfvT7vsVjPk7xM2qTHmbmaog1VfEhfid8O1MnzJi6zfi6mqjo3Aczv-XVjSEUaedrIKUlDz2WiFf3v05RL0Ek4ZSLG3c6K27K4KI6iORQP0uuHJvhTcV7URHBaLd1pJJA-KHBX3bn75KAmYkJNS0Bq7N78pGizPY9twBfAeF6UQn8JfyT-uXrR0BFJC6fAvE_25XYqctSKr9NojfIlPs-cYdMoeWeVCWkT6MfH8H6TiB0b_ZZxmakhmHKuKoUKBPKgXSrMfh2QH10d6fJNPm55MEmAF5ZI7SvBQFj1_6DpIGV3wk5cpdzoO_euhdDjQ5AJiYHSkueR5tTOYTxasIugvn2btOPRuBDqkox1MBCShrmApmnx4Fc_EWBtC6YcDd4aZfPnZy7zQ-TUcbOrIolZzlArVmuM6h59ZLhQ6boKo2rACpV4KXL0F2woUTyClFeLBSum37IhFv8WfppG9TQ1SesEuDD4epg5Mb6sXQTaM-hNaCB9tuLmsiEnZP7d39sVgUE_H1awWkjuBTcORfXXk7Os2MQwa0NoSRIdgle5MVffvdMmpkwYo_FzCv-PuFdRtdTOMTYZKWMwPhMIU3LpPz7-KBJAD5JTXUm0vBPnu1vLMF70SKbApAM_thVeM-Gy0]--></g></svg>