<?xml version="1.0" encoding="us-ascii" standalone="no"?><svg xmlns="http://www.w3.org/2000/svg" xmlns:xlink="http://www.w3.org/1999/xlink" contentStyleType="text/css" height="522px" preserveAspectRatio="none" style="width:1098px;height:522px;background:#FFFFFF;" version="1.1" viewBox="0 0 1098 522" width="1098px" zoomAndPan="magnify"><defs/><g><text fill="#000000" font-family="sans-serif" font-size="20" font-weight="bold" lengthAdjust="spacing" textLength="658" x="10" y="29.3359">Examples.BadDesign.CarExample.WarehouseEntities.Complaints</text><text fill="#000000" font-family="sans-serif" font-size="20" font-weight="bold" lengthAdjust="spacing" textLength="104" x="675" y="29.3359">simplified</text><text fill="#000000" font-family="sans-serif" font-size="20" font-weight="bold" lengthAdjust="spacing" textLength="38" x="786" y="29.3359">and</text><text fill="#000000" font-family="sans-serif" font-size="20" font-weight="bold" lengthAdjust="spacing" textLength="249" x="831" y="29.3359">grouped per namespace</text><!--cluster Examples--><g id="cluster_Examples"><a href="Examples-diagram-simplified-grouped-per-namespace.svg" target="_top" title="Examples-diagram-simplified-grouped-per-namespace.svg" xlink:actuate="onRequest" xlink:href="Examples-diagram-simplified-grouped-per-namespace.svg" xlink:show="new" xlink:title="Examples-diagram-simplified-grouped-per-namespace.svg" xlink:type="simple"><path d="M791.25,50.5547 L860.25,50.5547 A3.75,3.75 0 0 1 862.75,53.0547 L869.75,73.043 L1079.25,73.043 A2.5,2.5 0 0 1 1081.75,75.543 L1081.75,513.0547 A2.5,2.5 0 0 1 1079.25,515.5547 L791.25,515.5547 A2.5,2.5 0 0 1 788.75,513.0547 L788.75,53.0547 A2.5,2.5 0 0 1 791.25,50.5547 " fill="none" style="stroke:#000000;stroke-width:1.5;"/><line style="stroke:#000000;stroke-width:1.5;" x1="788.75" x2="869.75" y1="73.043" y2="73.043"/><text fill="#000000" font-family="sans-serif" font-size="14" font-weight="bold" lengthAdjust="spacing" textLength="68" x="792.75" y="66.0898">Examples</text></a></g><!--cluster BadDesign--><g id="cluster_BadDesign"><a href="Examples.BadDesign-diagram-simplified-grouped-per-namespace.svg" target="_top" title="Examples.BadDesign-diagram-simplified-grouped-per-namespace.svg" xlink:actuate="onRequest" xlink:href="Examples.BadDesign-diagram-simplified-grouped-per-namespace.svg" xlink:show="new" xlink:title="Examples.BadDesign-diagram-simplified-grouped-per-namespace.svg" xlink:type="simple"><path d="M815.25,93.5547 L892.25,93.5547 A3.75,3.75 0 0 1 894.75,96.0547 L901.75,116.043 L1055.25,116.043 A2.5,2.5 0 0 1 1057.75,118.543 L1057.75,489.0547 A2.5,2.5 0 0 1 1055.25,491.5547 L815.25,491.5547 A2.5,2.5 0 0 1 812.75,489.0547 L812.75,96.0547 A2.5,2.5 0 0 1 815.25,93.5547 " fill="none" style="stroke:#000000;stroke-width:1.5;"/><line style="stroke:#000000;stroke-width:1.5;" x1="812.75" x2="901.75" y1="116.043" y2="116.043"/><text fill="#000000" font-family="sans-serif" font-size="14" font-weight="bold" lengthAdjust="spacing" textLength="76" x="816.75" y="109.0898">BadDesign</text></a></g><!--cluster CarExample--><g id="cluster_CarExample"><a href="Examples.BadDesign.CarExample-diagram-simplified-grouped-per-namespace.svg" target="_top" title="Examples.BadDesign.CarExample-diagram-simplified-grouped-per-namespace.svg" xlink:actuate="onRequest" xlink:href="Examples.BadDesign.CarExample-diagram-simplified-grouped-per-namespace.svg" xlink:show="new" xlink:title="Examples.BadDesign.CarExample-diagram-simplified-grouped-per-namespace.svg" xlink:type="simple"><path d="M839.25,136.5547 L924.25,136.5547 A3.75,3.75 0 0 1 926.75,139.0547 L933.75,159.043 L1031.25,159.043 A2.5,2.5 0 0 1 1033.75,161.543 L1033.75,465.0547 A2.5,2.5 0 0 1 1031.25,467.5547 L839.25,467.5547 A2.5,2.5 0 0 1 836.75,465.0547 L836.75,139.0547 A2.5,2.5 0 0 1 839.25,136.5547 " fill="none" style="stroke:#000000;stroke-width:1.5;"/><line style="stroke:#000000;stroke-width:1.5;" x1="836.75" x2="933.75" y1="159.043" y2="159.043"/><text fill="#000000" font-family="sans-serif" font-size="14" font-weight="bold" lengthAdjust="spacing" textLength="84" x="840.75" y="152.0898">CarExample</text></a></g><!--cluster WarehouseEntities--><g id="cluster_WarehouseEntities"><a href="Examples.BadDesign.CarExample.WarehouseEntities-diagram-simplified-grouped-per-namespace.svg" target="_top" title="Examples.BadDesign.CarExample.WarehouseEntities-diagram-simplified-grouped-per-namespace.svg" xlink:actuate="onRequest" xlink:href="Examples.BadDesign.CarExample.WarehouseEntities-diagram-simplified-grouped-per-namespace.svg" xlink:show="new" xlink:title="Examples.BadDesign.CarExample.WarehouseEntities-diagram-simplified-grouped-per-namespace.svg" xlink:type="simple"><path d="M863.25,344.5547 L997.25,344.5547 A3.75,3.75 0 0 1 999.75,347.0547 L1006.75,367.043 L1007.25,367.043 A2.5,2.5 0 0 1 1009.75,369.543 L1009.75,441.0547 A2.5,2.5 0 0 1 1007.25,443.5547 L863.25,443.5547 A2.5,2.5 0 0 1 860.75,441.0547 L860.75,347.0547 A2.5,2.5 0 0 1 863.25,344.5547 " fill="none" style="stroke:#000000;stroke-width:1.5;"/><line style="stroke:#000000;stroke-width:1.5;" x1="860.75" x2="1006.75" y1="367.043" y2="367.043"/><text fill="#000000" font-family="sans-serif" font-size="14" font-weight="bold" lengthAdjust="spacing" textLength="133" x="864.75" y="360.0898">WarehouseEntities</text></a></g><!--class DB--><a href="Examples.BadDesign.CarExample.DB-diagram-simplified-grouped-per-namespace.svg" target="_top" title="Examples.BadDesign.CarExample.DB-diagram-simplified-grouped-per-namespace.svg" xlink:actuate="onRequest" xlink:href="Examples.BadDesign.CarExample.DB-diagram-simplified-grouped-per-namespace.svg" xlink:show="new" xlink:title="Examples.BadDesign.CarExample.DB-diagram-simplified-grouped-per-namespace.svg" xlink:type="simple"><g id="elem_DB"><rect codeLine="7" fill="#F1F1F1" height="48" id="DB" rx="2.5" ry="2.5" style="stroke:#181818;stroke-width:0.5;" width="50" x="909.75" y="171.5547"/><ellipse cx="924.75" cy="187.5547" fill="#A9DCDF" rx="11" ry="11" style="stroke:#181818;stroke-width:1.0;"/><path d="M924.6133,182.9028 L923.4595,187.9746 L925.7754,187.9746 Z M923.1191,180.6616 L926.1157,180.6616 L929.4609,193.0547 L927.0122,193.0547 L926.2485,189.9917 L922.9697,189.9917 L922.2227,193.0547 L919.7739,193.0547 Z " fill="#000000"/><text fill="#000000" font-family="sans-serif" font-size="14" font-style="italic" lengthAdjust="spacing" textLength="18" x="938.75" y="192.8457">DB</text><line style="stroke:#181818;stroke-width:0.5;" x1="910.75" x2="958.75" y1="203.5547" y2="203.5547"/><line style="stroke:#181818;stroke-width:0.5;" x1="910.75" x2="958.75" y1="211.5547" y2="211.5547"/></g></a><!--class Complaints--><a href="Examples.BadDesign.CarExample.WarehouseEntities.Complaints-diagram-simplified-grouped-per-namespace.svg" target="_top" title="Examples.BadDesign.CarExample.WarehouseEntities.Complaints-diagram-simplified-grouped-per-namespace.svg" xlink:actuate="onRequest" xlink:href="Examples.BadDesign.CarExample.WarehouseEntities.Complaints-diagram-simplified-grouped-per-namespace.svg" xlink:show="new" xlink:title="Examples.BadDesign.CarExample.WarehouseEntities.Complaints-diagram-simplified-grouped-per-namespace.svg" xlink:type="simple"><g id="elem_Complaints"><rect codeLine="21" fill="#FFFF00" height="48" id="Complaints" rx="2.5" ry="2.5" style="stroke:#181818;stroke-width:0.5;" width="110" x="879.75" y="379.5547"/><ellipse cx="894.75" cy="395.5547" fill="#A9DCDF" rx="11" ry="11" style="stroke:#181818;stroke-width:1.0;"/><path d="M894.6133,390.9028 L893.4595,395.9746 L895.7754,395.9746 Z M893.1191,388.6616 L896.1157,388.6616 L899.4609,401.0547 L897.0122,401.0547 L896.2485,397.9917 L892.9697,397.9917 L892.2227,401.0547 L889.7739,401.0547 Z " fill="#000000"/><text fill="#000000" font-family="sans-serif" font-size="14" font-style="italic" lengthAdjust="spacing" textLength="78" x="908.75" y="400.8457">Complaints</text><line style="stroke:#181818;stroke-width:0.5;" x1="880.75" x2="988.75" y1="411.5547" y2="411.5547"/><line style="stroke:#181818;stroke-width:0.5;" x1="880.75" x2="988.75" y1="419.5547" y2="419.5547"/></g></a><g id="elem_FloatingNote"><path d="M21.25,71.5547 L21.25,319.2129 L772.25,319.2129 L772.25,81.5547 L762.25,71.5547 L21.25,71.5547 " fill="#FEFFDD" style="stroke:#181818;stroke-width:0.5;"/><path d="M762.25,71.5547 L762.25,81.5547 L772.25,81.5547 L762.25,71.5547 " fill="#FEFFDD" style="stroke:#181818;stroke-width:1.0;"/><text fill="#000000" font-family="sans-serif" font-size="13" lengthAdjust="spacing" textLength="120" x="27.25" y="89.123">Your are analyzing:</text><text fill="#000000" font-family="sans-serif" font-size="13" lengthAdjust="spacing" textLength="403" x="27.25" y="104.4336">Examples.BadDesign.CarExample.WarehouseEntities.Complaints</text><text fill="#000000" font-family="sans-serif" font-size="13" font-weight="bold" lengthAdjust="spacing" textLength="67" x="434.25" y="104.4336">simplified</text><text fill="#000000" font-family="sans-serif" font-size="13" lengthAdjust="spacing" textLength="23" x="505.25" y="104.4336">and</text><text fill="#000000" font-family="sans-serif" font-size="13" font-weight="bold" lengthAdjust="spacing" textLength="166" x="532.25" y="104.4336">grouped per namespace</text><text fill="#000000" font-family="sans-serif" font-size="13" lengthAdjust="spacing" textLength="4" x="27.25" y="119.7441">&#160;</text><text fill="#000000" font-family="sans-serif" font-size="13" lengthAdjust="spacing" textLength="229" x="27.25" y="150.3652">You can click either the namespaces</text><text fill="#000000" font-family="sans-serif" font-size="13" lengthAdjust="spacing" textLength="266" x="27.25" y="165.6758">or class names for filtering them and their</text><text fill="#000000" font-family="sans-serif" font-size="13" lengthAdjust="spacing" textLength="130" x="27.25" y="180.9863">direct dependencies.</text><text fill="#000000" font-family="sans-serif" font-size="13" lengthAdjust="spacing" textLength="4" x="27.25" y="196.2969">&#160;</text><line style="stroke:#181818;stroke-width:1.0;" x1="22.25" x2="380.75" y1="130.1416" y2="130.1416"/><line style="stroke:#181818;stroke-width:1.0;" x1="22.25" x2="380.75" y1="132.1416" y2="132.1416"/><text fill="#000000" font-family="sans-serif" font-size="13" lengthAdjust="spacing" textLength="32" x="380.75" y="134.5547">Filter</text><line style="stroke:#181818;stroke-width:1.0;" x1="412.75" x2="771.25" y1="130.1416" y2="130.1416"/><line style="stroke:#181818;stroke-width:1.0;" x1="412.75" x2="771.25" y1="132.1416" y2="132.1416"/><ellipse cx="32.75" cy="226.1602" fill="#000000" rx="2.5" ry="2.5" style="stroke:#000000;stroke-width:0.0;"/><text fill="#000000" font-family="sans-serif" font-size="13" lengthAdjust="spacing" textLength="403" x="39.25" y="230.918">Examples.BadDesign.CarExample.WarehouseEntities.Complaints</text><text fill="#000000" font-family="sans-serif" font-size="13" font-weight="bold" lengthAdjust="spacing" textLength="55" x="446.25" y="230.918">detailed</text><text fill="#000000" font-family="sans-serif" font-size="13" lengthAdjust="spacing" textLength="23" x="505.25" y="230.918">and</text><text fill="#000000" font-family="sans-serif" font-size="13" font-weight="bold" lengthAdjust="spacing" textLength="166" x="532.25" y="230.918">grouped per namespace</text><text fill="#000000" font-family="sans-serif" font-size="13" lengthAdjust="spacing" textLength="4" x="698.25" y="230.918">:</text><text fill="#000000" font-family="sans-serif" font-size="13" lengthAdjust="spacing" textLength="12" x="27.25" y="246.2285">&#160;&#160;&#160;</text><a href="Examples.BadDesign.CarExample.WarehouseEntities.Complaints-diagram-detailed-grouped-per-namespace.svg" target="_top" title="Examples.BadDesign.CarExample.WarehouseEntities.Complaints-diagram-detailed-grouped-per-namespace.svg" xlink:actuate="onRequest" xlink:href="Examples.BadDesign.CarExample.WarehouseEntities.Complaints-diagram-detailed-grouped-per-namespace.svg" xlink:show="new" xlink:title="Examples.BadDesign.CarExample.WarehouseEntities.Complaints-diagram-detailed-grouped-per-namespace.svg" xlink:type="simple"><text fill="#0000FF" font-family="sans-serif" font-size="13" lengthAdjust="spacing" text-decoration="underline" textLength="712" x="39.25" y="246.2285">Examples.BadDesign.CarExample.WarehouseEntities.Complaints-diagram-detailed-grouped-per-namespace.svg</text></a><ellipse cx="32.75" cy="256.7813" fill="#000000" rx="2.5" ry="2.5" style="stroke:#000000;stroke-width:0.0;"/><text fill="#000000" font-family="sans-serif" font-size="13" lengthAdjust="spacing" textLength="78" x="39.25" y="261.5391">Full diagram</text><text fill="#000000" font-family="sans-serif" font-size="13" font-weight="bold" lengthAdjust="spacing" textLength="67" x="121.25" y="261.5391">simplified</text><text fill="#000000" font-family="sans-serif" font-size="13" lengthAdjust="spacing" textLength="23" x="192.25" y="261.5391">and</text><text fill="#000000" font-family="sans-serif" font-size="13" font-weight="bold" lengthAdjust="spacing" textLength="166" x="219.25" y="261.5391">grouped per namespace</text><text fill="#000000" font-family="sans-serif" font-size="13" lengthAdjust="spacing" textLength="4" x="385.25" y="261.5391">:</text><text fill="#000000" font-family="sans-serif" font-size="13" lengthAdjust="spacing" textLength="12" x="27.25" y="276.8496">&#160;&#160;&#160;</text><a href="full-diagram-simplified-grouped-per-namespace.svg" target="_top" title="full-diagram-simplified-grouped-per-namespace.svg" xlink:actuate="onRequest" xlink:href="full-diagram-simplified-grouped-per-namespace.svg" xlink:show="new" xlink:title="full-diagram-simplified-grouped-per-namespace.svg" xlink:type="simple"><text fill="#0000FF" font-family="sans-serif" font-size="13" lengthAdjust="spacing" text-decoration="underline" textLength="343" x="39.25" y="276.8496">full-diagram-simplified-grouped-per-namespace.svg</text></a><ellipse cx="32.75" cy="287.4023" fill="#000000" rx="2.5" ry="2.5" style="stroke:#000000;stroke-width:0.0;"/><text fill="#000000" font-family="sans-serif" font-size="13" lengthAdjust="spacing" textLength="41" x="39.25" y="292.1602">Home:</text><text fill="#000000" font-family="sans-serif" font-size="13" lengthAdjust="spacing" textLength="12" x="27.25" y="307.4707">&#160;&#160;&#160;</text><a href="index.html" target="_top" title="index.html" xlink:actuate="onRequest" xlink:href="index.html" xlink:show="new" xlink:title="index.html" xlink:type="simple"><text fill="#0000FF" font-family="sans-serif" font-size="13" lengthAdjust="spacing" text-decoration="underline" textLength="68" x="39.25" y="307.4707">index.html</text></a><line style="stroke:#181818;stroke-width:1.0;" x1="22.25" x2="359.75" y1="210.6943" y2="210.6943"/><line style="stroke:#181818;stroke-width:1.0;" x1="22.25" x2="359.75" y1="212.6943" y2="212.6943"/><text fill="#000000" font-family="sans-serif" font-size="13" lengthAdjust="spacing" textLength="74" x="359.75" y="215.1074">Select other</text><line style="stroke:#181818;stroke-width:1.0;" x1="433.75" x2="771.25" y1="210.6943" y2="210.6943"/><line style="stroke:#181818;stroke-width:1.0;" x1="433.75" x2="771.25" y1="212.6943" y2="212.6943"/></g><!--link DB to Complaints--><g id="link_DB_Complaints"><path codeLine="38" d="M934.75,219.8247 C934.75,219.8247 934.75,373.1247 934.75,373.1247 " fill="none" id="DB-to-Complaints" style="stroke:#6060BB;stroke-width:1.0;stroke-dasharray:7.0,7.0;"/><polygon fill="#6060BB" points="934.75,378.1247,938.75,369.1247,934.75,373.1247,930.75,369.1247,934.75,378.1247" style="stroke:#6060BB;stroke-width:1.0;"/><text fill="#000000" font-family="sans-serif" font-size="13" lengthAdjust="spacing" textLength="29" x="904.75" y="293.043">uses</text></g><!--SRC=[xLLDR-8m4BtdLupQGwL8PD4UUa250r2qfrxsi5eHX4moWL4TEx9D2rtrl-y4GeB4LqFfSja8HSIUcVTcF6zidqbbmeWK92bqomn16pVJdYCd4HuilM7hUxFpk11f9j46NH7tqT9K1JrXYjNWbp0uqtEBZuhzYCrwcZS4AMV1zotn1oM4iU-3K34lJOsUPnX3XWQKID5c8aBVV_YM0tOyfHt2pMyzDy2XsKV8vHkfQIjK_uX9g4BLRWz8EZJjTgYO2qH2GIGfUWOaDsDxVbK-5aAb3Hi8QzUhaF1tiWh1t7FhT0NAVyY4AYQ3aOCOCrGngYXdkuRzYJBVqJb83kx3fxAEqGcIftFcwWB0S7W-M2CcCULkQcmW6mLKWw4Q9LHWNwQZKPxNO2ub54wrpcV3DU409MhbVWhtXqvn4uAu-ejWvb8v6js0i32GMZW-iIVkGgzqBizWgq8raU7Fdd1LbVUM_h8GMmTvwg3h0tCrGKoiCuARTws3uwtKxvxijdwtBe-2oBjtb_SbDsiCrwe8lFAS02w40rPqYeerdK313dfIstmk29P0Pl25M5HZEv-CopXZIUnQiN_I2c62aM3rvOEbc8oMBF0l8KLsXd6m5RlohTBmtlSQb1aVsD-KXhV_Q-BImBjJjVuSFa-mDILxzAgvoDNnGVQtIvHIlvPPdA7tgnJzy4ounbJOoUU0-2yvFU2Eh_KFFV1bjZd5lDaDIhxgjRA0YvK8k7iIezEAUOjjZ_Q4T_AE2uQtzytxPhSx2ZgVaHUqW7ViHTdl8lu5]--></g></svg>