<?xml version="1.0" encoding="us-ascii" standalone="no"?><svg xmlns="http://www.w3.org/2000/svg" xmlns:xlink="http://www.w3.org/1999/xlink" contentStyleType="text/css" height="1093px" preserveAspectRatio="none" style="width:2731px;height:1093px;background:#FFFFFF;" version="1.1" viewBox="0 0 2731 1093" width="2731px" zoomAndPan="magnify"><defs/><g><text fill="#000000" font-family="sans-serif" font-size="20" font-weight="bold" lengthAdjust="spacing" textLength="550" x="887.5" y="29.3359">Examples.BetterDesign.Repository.CarExample.DBCar</text><text fill="#000000" font-family="sans-serif" font-size="20" font-weight="bold" lengthAdjust="spacing" textLength="84" x="1444.5" y="29.3359">detailed</text><text fill="#000000" font-family="sans-serif" font-size="20" font-weight="bold" lengthAdjust="spacing" textLength="38" x="1535.5" y="29.3359">and</text><text fill="#000000" font-family="sans-serif" font-size="20" font-weight="bold" lengthAdjust="spacing" textLength="249" x="1580.5" y="29.3359">grouped per namespace</text><!--cluster Examples--><g id="cluster_Examples"><a href="Examples-diagram-detailed-grouped-per-namespace.svg" target="_top" title="Examples-diagram-detailed-grouped-per-namespace.svg" xlink:actuate="onRequest" xlink:href="Examples-diagram-detailed-grouped-per-namespace.svg" xlink:show="new" xlink:title="Examples-diagram-detailed-grouped-per-namespace.svg" xlink:type="simple"><path d="M720.5,50.5547 L789.5,50.5547 A3.75,3.75 0 0 1 792,53.0547 L799,73.043 L2721.5,73.043 A2.5,2.5 0 0 1 2724,75.543 L2724,1083.5547 A2.5,2.5 0 0 1 2721.5,1086.0547 L720.5,1086.0547 A2.5,2.5 0 0 1 718,1083.5547 L718,53.0547 A2.5,2.5 0 0 1 720.5,50.5547 " fill="none" style="stroke:#000000;stroke-width:1.5;"/><line style="stroke:#000000;stroke-width:1.5;" x1="718" x2="799" y1="73.043" y2="73.043"/><text fill="#000000" font-family="sans-serif" font-size="14" font-weight="bold" lengthAdjust="spacing" textLength="68" x="722" y="66.0898">Examples</text></a></g><!--cluster BetterDesign--><g id="cluster_BetterDesign"><a href="Examples.BetterDesign-diagram-detailed-grouped-per-namespace.svg" target="_top" title="Examples.BetterDesign-diagram-detailed-grouped-per-namespace.svg" xlink:actuate="onRequest" xlink:href="Examples.BetterDesign-diagram-detailed-grouped-per-namespace.svg" xlink:show="new" xlink:title="Examples.BetterDesign-diagram-detailed-grouped-per-namespace.svg" xlink:type="simple"><path d="M744.5,93.5547 L838.5,93.5547 A3.75,3.75 0 0 1 841,96.0547 L848,116.043 L2697.5,116.043 A2.5,2.5 0 0 1 2700,118.543 L2700,1059.5547 A2.5,2.5 0 0 1 2697.5,1062.0547 L744.5,1062.0547 A2.5,2.5 0 0 1 742,1059.5547 L742,96.0547 A2.5,2.5 0 0 1 744.5,93.5547 " fill="none" style="stroke:#000000;stroke-width:1.5;"/><line style="stroke:#000000;stroke-width:1.5;" x1="742" x2="848" y1="116.043" y2="116.043"/><text fill="#000000" font-family="sans-serif" font-size="14" font-weight="bold" lengthAdjust="spacing" textLength="93" x="746" y="109.0898">BetterDesign</text></a></g><!--cluster Repository--><g id="cluster_Repository"><a href="Examples.BetterDesign.Repository-diagram-detailed-grouped-per-namespace.svg" target="_top" title="Examples.BetterDesign.Repository-diagram-detailed-grouped-per-namespace.svg" xlink:actuate="onRequest" xlink:href="Examples.BetterDesign.Repository-diagram-detailed-grouped-per-namespace.svg" xlink:show="new" xlink:title="Examples.BetterDesign.Repository-diagram-detailed-grouped-per-namespace.svg" xlink:type="simple"><path d="M768.5,136.5547 L847.5,136.5547 A3.75,3.75 0 0 1 850,139.0547 L857,159.043 L2673.5,159.043 A2.5,2.5 0 0 1 2676,161.543 L2676,1035.5547 A2.5,2.5 0 0 1 2673.5,1038.0547 L768.5,1038.0547 A2.5,2.5 0 0 1 766,1035.5547 L766,139.0547 A2.5,2.5 0 0 1 768.5,136.5547 " fill="none" style="stroke:#000000;stroke-width:1.5;"/><line style="stroke:#000000;stroke-width:1.5;" x1="766" x2="857" y1="159.043" y2="159.043"/><text fill="#000000" font-family="sans-serif" font-size="14" font-weight="bold" lengthAdjust="spacing" textLength="78" x="770" y="152.0898">Repository</text></a></g><!--cluster CarExample--><g id="cluster_CarExample"><a href="Examples.BetterDesign.Repository.CarExample-diagram-detailed-grouped-per-namespace.svg" target="_top" title="Examples.BetterDesign.Repository.CarExample-diagram-detailed-grouped-per-namespace.svg" xlink:actuate="onRequest" xlink:href="Examples.BetterDesign.Repository.CarExample-diagram-detailed-grouped-per-namespace.svg" xlink:show="new" xlink:title="Examples.BetterDesign.Repository.CarExample-diagram-detailed-grouped-per-namespace.svg" xlink:type="simple"><path d="M792.5,179.5547 L877.5,179.5547 A3.75,3.75 0 0 1 880,182.0547 L887,202.043 L2649.5,202.043 A2.5,2.5 0 0 1 2652,204.543 L2652,1011.5547 A2.5,2.5 0 0 1 2649.5,1014.0547 L792.5,1014.0547 A2.5,2.5 0 0 1 790,1011.5547 L790,182.0547 A2.5,2.5 0 0 1 792.5,179.5547 " fill="none" style="stroke:#000000;stroke-width:1.5;"/><line style="stroke:#000000;stroke-width:1.5;" x1="790" x2="887" y1="202.043" y2="202.043"/><text fill="#000000" font-family="sans-serif" font-size="14" font-weight="bold" lengthAdjust="spacing" textLength="84" x="794" y="195.0898">CarExample</text></a></g><!--cluster CarParts--><g id="cluster_CarParts"><a href="Examples.BetterDesign.Repository.CarExample.CarParts-diagram-detailed-grouped-per-namespace.svg" target="_top" title="Examples.BetterDesign.Repository.CarExample.CarParts-diagram-detailed-grouped-per-namespace.svg" xlink:actuate="onRequest" xlink:href="Examples.BetterDesign.Repository.CarExample.CarParts-diagram-detailed-grouped-per-namespace.svg" xlink:show="new" xlink:title="Examples.BetterDesign.Repository.CarExample.CarParts-diagram-detailed-grouped-per-namespace.svg" xlink:type="simple"><path d="M816.5,858.0547 L878.5,858.0547 A3.75,3.75 0 0 1 881,860.5547 L888,880.543 L2625.5,880.543 A2.5,2.5 0 0 1 2628,883.043 L2628,987.5547 A2.5,2.5 0 0 1 2625.5,990.0547 L816.5,990.0547 A2.5,2.5 0 0 1 814,987.5547 L814,860.5547 A2.5,2.5 0 0 1 816.5,858.0547 " fill="none" style="stroke:#000000;stroke-width:1.5;"/><line style="stroke:#000000;stroke-width:1.5;" x1="814" x2="888" y1="880.543" y2="880.543"/><text fill="#000000" font-family="sans-serif" font-size="14" font-weight="bold" lengthAdjust="spacing" textLength="61" x="818" y="873.5898">CarParts</text></a></g><!--class DBCar--><a href="Examples.BetterDesign.Repository.CarExample.DBCar-diagram-detailed-grouped-per-namespace.svg" target="_top" title="Examples.BetterDesign.Repository.CarExample.DBCar-diagram-detailed-grouped-per-namespace.svg" xlink:actuate="onRequest" xlink:href="Examples.BetterDesign.Repository.CarExample.DBCar-diagram-detailed-grouped-per-namespace.svg" xlink:show="new" xlink:title="Examples.BetterDesign.Repository.CarExample.DBCar-diagram-detailed-grouped-per-namespace.svg" xlink:type="simple"><g id="elem_DBCar"><rect codeLine="8" fill="#FFFF00" height="196.3945" id="DBCar" rx="2.5" ry="2.5" style="stroke:#181818;stroke-width:0.5;" width="962" x="813" y="447.0547"/><ellipse cx="1268.75" cy="463.0547" fill="#A9DCDF" rx="11" ry="11" style="stroke:#181818;stroke-width:1.0;"/><path d="M1268.6133,458.4028 L1267.4595,463.4746 L1269.7754,463.4746 Z M1267.1191,456.1616 L1270.1157,456.1616 L1273.4609,468.5547 L1271.0122,468.5547 L1270.2485,465.4917 L1266.9697,465.4917 L1266.2227,468.5547 L1263.7739,468.5547 Z " fill="#000000"/><text fill="#000000" font-family="sans-serif" font-size="14" font-style="italic" lengthAdjust="spacing" textLength="42" x="1289.25" y="468.3457">DBCar</text><line style="stroke:#181818;stroke-width:0.5;" x1="814" x2="1774" y1="479.0547" y2="479.0547"/><line style="stroke:#181818;stroke-width:0.5;" x1="814" x2="1774" y1="487.0547" y2="487.0547"/><rect fill="#F24D5C" height="6" style="stroke:#C82930;stroke-width:1.0;" width="6" x="821" y="497.7988"/><text fill="#000000" font-family="sans-serif" font-size="14" lengthAdjust="spacing" textLength="122" x="833" y="504.5898">getCarsForDriver(</text><text fill="#6060BB" font-family="sans-serif" font-size="14" lengthAdjust="spacing" textLength="472" x="955" y="504.5898">driver:Examples.BetterDesign.Repository.CarExample.CarParts.Driver</text><text fill="#000000" font-family="sans-serif" font-size="14" lengthAdjust="spacing" textLength="5" x="1427" y="504.5898">)</text><rect fill="#F24D5C" height="6" style="stroke:#C82930;stroke-width:1.0;" width="6" x="821" y="514.2871"/><text fill="#000000" font-family="sans-serif" font-size="14" lengthAdjust="spacing" textLength="77" x="833" y="521.0781">updateCar(</text><text fill="#6060BB" font-family="sans-serif" font-size="14" lengthAdjust="spacing" textLength="844" x="910" y="521.0781">car:Examples.BetterDesign.Repository.CarExample.Car, seats:Examples.BetterDesign.Repository.CarExample.CarParts.Seats</text><text fill="#000000" font-family="sans-serif" font-size="14" lengthAdjust="spacing" textLength="5" x="1754" y="521.0781">)</text><rect fill="#F24D5C" height="6" style="stroke:#C82930;stroke-width:1.0;" width="6" x="821" y="530.7754"/><text fill="#000000" font-family="sans-serif" font-size="14" lengthAdjust="spacing" textLength="77" x="833" y="537.5664">updateCar(</text><text fill="#6060BB" font-family="sans-serif" font-size="14" lengthAdjust="spacing" textLength="854" x="910" y="537.5664">car:Examples.BetterDesign.Repository.CarExample.Car, doors:Examples.BetterDesign.Repository.CarExample.CarParts.Doors</text><text fill="#000000" font-family="sans-serif" font-size="14" lengthAdjust="spacing" textLength="5" x="1764" y="537.5664">)</text><rect fill="#F24D5C" height="6" style="stroke:#C82930;stroke-width:1.0;" width="6" x="821" y="547.2637"/><text fill="#000000" font-family="sans-serif" font-size="14" lengthAdjust="spacing" textLength="70" x="833" y="554.0547">sellCarTo(</text><text fill="#6060BB" font-family="sans-serif" font-size="14" lengthAdjust="spacing" textLength="854" x="903" y="554.0547">car:Examples.BetterDesign.Repository.CarExample.Car, driver:Examples.BetterDesign.Repository.CarExample.CarParts.Driver</text><text fill="#000000" font-family="sans-serif" font-size="14" lengthAdjust="spacing" textLength="5" x="1757" y="554.0547">)</text><rect fill="#F24D5C" height="6" style="stroke:#C82930;stroke-width:1.0;" width="6" x="821" y="563.752"/><text fill="#000000" font-family="sans-serif" font-size="14" lengthAdjust="spacing" textLength="51" x="833" y="570.543">getCar(</text><text fill="#6060BB" font-family="sans-serif" font-size="14" lengthAdjust="spacing" textLength="441" x="884" y="570.543">d:Examples.BetterDesign.Repository.CarExample.CarParts.Driver</text><text fill="#000000" font-family="sans-serif" font-size="14" lengthAdjust="spacing" textLength="5" x="1325" y="570.543">)</text><rect fill="#F24D5C" height="6" style="stroke:#C82930;stroke-width:1.0;" width="6" x="821" y="580.2402"/><text fill="#000000" font-family="sans-serif" font-size="14" lengthAdjust="spacing" textLength="68" x="833" y="587.0313">getDriver(</text><text fill="#6060BB" font-family="sans-serif" font-size="14" lengthAdjust="spacing" textLength="360" x="901" y="587.0313">c:Examples.BetterDesign.Repository.CarExample.Car</text><text fill="#000000" font-family="sans-serif" font-size="14" lengthAdjust="spacing" textLength="5" x="1261" y="587.0313">)</text><rect fill="#F24D5C" height="6" style="stroke:#C82930;stroke-width:1.0;" width="6" x="821" y="596.7285"/><text fill="#000000" font-family="sans-serif" font-size="14" lengthAdjust="spacing" textLength="75" x="833" y="603.5195">getWheels(</text><text fill="#6060BB" font-family="sans-serif" font-size="14" lengthAdjust="spacing" textLength="360" x="908" y="603.5195">c:Examples.BetterDesign.Repository.CarExample.Car</text><text fill="#000000" font-family="sans-serif" font-size="14" lengthAdjust="spacing" textLength="5" x="1268" y="603.5195">)</text><rect fill="#F24D5C" height="6" style="stroke:#C82930;stroke-width:1.0;" width="6" x="821" y="613.2168"/><text fill="#000000" font-family="sans-serif" font-size="14" lengthAdjust="spacing" textLength="68" x="833" y="620.0078">getDoors(</text><text fill="#6060BB" font-family="sans-serif" font-size="14" lengthAdjust="spacing" textLength="360" x="901" y="620.0078">c:Examples.BetterDesign.Repository.CarExample.Car</text><text fill="#000000" font-family="sans-serif" font-size="14" lengthAdjust="spacing" textLength="5" x="1261" y="620.0078">)</text><rect fill="#F24D5C" height="6" style="stroke:#C82930;stroke-width:1.0;" width="6" x="821" y="629.7051"/><text fill="#000000" font-family="sans-serif" font-size="14" lengthAdjust="spacing" textLength="63" x="833" y="636.4961">getSeats(</text><text fill="#6060BB" font-family="sans-serif" font-size="14" lengthAdjust="spacing" textLength="360" x="896" y="636.4961">c:Examples.BetterDesign.Repository.CarExample.Car</text><text fill="#000000" font-family="sans-serif" font-size="14" lengthAdjust="spacing" textLength="5" x="1256" y="636.4961">)</text></g></a><!--class Car--><a href="Examples.BetterDesign.Repository.CarExample.Car-diagram-detailed-grouped-per-namespace.svg" target="_top" title="Examples.BetterDesign.Repository.CarExample.Car-diagram-detailed-grouped-per-namespace.svg" xlink:actuate="onRequest" xlink:href="Examples.BetterDesign.Repository.CarExample.Car-diagram-detailed-grouped-per-namespace.svg" xlink:show="new" xlink:title="Examples.BetterDesign.Repository.CarExample.Car-diagram-detailed-grouped-per-namespace.svg" xlink:type="simple"><g id="elem_Car"><rect codeLine="19" fill="#F1F1F1" height="130.4414" id="Car" rx="2.5" ry="2.5" style="stroke:#181818;stroke-width:0.5;" width="574" x="1330" y="703.0547"/><ellipse cx="1600.75" cy="719.0547" fill="#A9DCDF" rx="11" ry="11" style="stroke:#181818;stroke-width:1.0;"/><path d="M1600.6133,714.4028 L1599.4595,719.4746 L1601.7754,719.4746 Z M1599.1191,712.1616 L1602.1157,712.1616 L1605.4609,724.5547 L1603.0122,724.5547 L1602.2485,721.4917 L1598.9697,721.4917 L1598.2227,724.5547 L1595.7739,724.5547 Z " fill="#000000"/><text fill="#000000" font-family="sans-serif" font-size="14" font-style="italic" lengthAdjust="spacing" textLength="24" x="1621.25" y="724.3457">Car</text><line style="stroke:#181818;stroke-width:0.5;" x1="1331" x2="1903" y1="735.0547" y2="735.0547"/><ellipse cx="1341" cy="748.7988" fill="none" rx="3" ry="3" style="stroke:#038048;stroke-width:1.0;"/><text fill="#000000" font-family="sans-serif" font-size="14" lengthAdjust="spacing" textLength="490" x="1350" y="752.5898">wheels: Examples.BetterDesign.Repository.CarExample.CarParts.Wheels</text><ellipse cx="1341" cy="765.2871" fill="none" rx="3" ry="3" style="stroke:#038048;stroke-width:1.0;"/><text fill="#000000" font-family="sans-serif" font-size="14" lengthAdjust="spacing" textLength="466" x="1350" y="769.0781">seats: Examples.BetterDesign.Repository.CarExample.CarParts.Seats</text><ellipse cx="1341" cy="781.7754" fill="none" rx="3" ry="3" style="stroke:#038048;stroke-width:1.0;"/><text fill="#000000" font-family="sans-serif" font-size="14" lengthAdjust="spacing" textLength="476" x="1350" y="785.5664">driver: Examples.BetterDesign.Repository.CarExample.CarParts.Driver</text><ellipse cx="1341" cy="798.2637" fill="none" rx="3" ry="3" style="stroke:#038048;stroke-width:1.0;"/><text fill="#000000" font-family="sans-serif" font-size="14" lengthAdjust="spacing" textLength="476" x="1350" y="802.0547">doors: Examples.BetterDesign.Repository.CarExample.CarParts.Doors</text><line style="stroke:#181818;stroke-width:1.0;" x1="1331" x2="1903" y1="809.0078" y2="809.0078"/><line style="stroke:#181818;stroke-width:1.0;" x1="1331" x2="1903" y1="811.0078" y2="811.0078"/><rect fill="#F24D5C" height="6" style="stroke:#C82930;stroke-width:1.0;" width="6" x="1338" y="819.752"/><text fill="#000000" font-family="sans-serif" font-size="14" lengthAdjust="spacing" textLength="71" x="1350" y="826.543">createCar(</text><text fill="#6060BB" font-family="sans-serif" font-size="14" lengthAdjust="spacing" textLength="472" x="1421" y="826.543">doors:Examples.BetterDesign.Repository.CarExample.CarParts.Doors</text><text fill="#000000" font-family="sans-serif" font-size="14" lengthAdjust="spacing" textLength="5" x="1893" y="826.543">)</text></g></a><!--class Vehicle--><a href="Examples.BetterDesign.Repository.CarExample.Vehicle-diagram-detailed-grouped-per-namespace.svg" target="_top" title="Examples.BetterDesign.Repository.CarExample.Vehicle-diagram-detailed-grouped-per-namespace.svg" xlink:actuate="onRequest" xlink:href="Examples.BetterDesign.Repository.CarExample.Vehicle-diagram-detailed-grouped-per-namespace.svg" xlink:show="new" xlink:title="Examples.BetterDesign.Repository.CarExample.Vehicle-diagram-detailed-grouped-per-namespace.svg" xlink:type="simple"><g id="elem_Vehicle"><rect codeLine="27" fill="#F1F1F1" height="97.4648" id="Vehicle" rx="2.5" ry="2.5" style="stroke:#181818;stroke-width:0.5;" width="419" x="1342.5" y="214.5547"/><ellipse cx="1523.25" cy="230.5547" fill="#A9DCDF" rx="11" ry="11" style="stroke:#181818;stroke-width:1.0;"/><path d="M1523.1133,225.9028 L1521.9595,230.9746 L1524.2754,230.9746 Z M1521.6191,223.6616 L1524.6157,223.6616 L1527.9609,236.0547 L1525.5122,236.0547 L1524.7485,232.9917 L1521.4697,232.9917 L1520.7227,236.0547 L1518.2739,236.0547 Z " fill="#000000"/><text fill="#000000" font-family="sans-serif" font-size="14" font-style="italic" lengthAdjust="spacing" textLength="49" x="1543.75" y="235.8457">Vehicle</text><line style="stroke:#181818;stroke-width:0.5;" x1="1343.5" x2="1760.5" y1="246.5547" y2="246.5547"/><ellipse cx="1353.5" cy="260.2988" fill="none" rx="3" ry="3" style="stroke:#038048;stroke-width:1.0;"/><text fill="#000000" font-family="sans-serif" font-size="14" lengthAdjust="spacing" textLength="393" x="1362.5" y="264.0898">db: Examples.BetterDesign.Repository.CarExample.DBCar</text><line style="stroke:#181818;stroke-width:1.0;" x1="1343.5" x2="1760.5" y1="271.043" y2="271.043"/><line style="stroke:#181818;stroke-width:1.0;" x1="1343.5" x2="1760.5" y1="273.043" y2="273.043"/><rect fill="#F24D5C" height="6" style="stroke:#C82930;stroke-width:1.0;" width="6" x="1350.5" y="281.7871"/><text fill="#000000" font-family="sans-serif" font-size="14" lengthAdjust="spacing" textLength="67" x="1362.5" y="288.5781">setSpeed(</text><text fill="#000000" font-family="sans-serif" font-size="14" lengthAdjust="spacing" textLength="5" x="1429.5" y="288.5781">)</text><rect fill="#F24D5C" height="6" style="stroke:#C82930;stroke-width:1.0;" width="6" x="1350.5" y="298.2754"/><text fill="#000000" font-family="sans-serif" font-size="14" lengthAdjust="spacing" textLength="69" x="1362.5" y="305.0664">getSpeed(</text><text fill="#000000" font-family="sans-serif" font-size="14" lengthAdjust="spacing" textLength="5" x="1431.5" y="305.0664">)</text></g></a><!--class Driver--><a href="Examples.BetterDesign.Repository.CarExample.CarParts.Driver-diagram-detailed-grouped-per-namespace.svg" target="_top" title="Examples.BetterDesign.Repository.CarExample.CarParts.Driver-diagram-detailed-grouped-per-namespace.svg" xlink:actuate="onRequest" xlink:href="Examples.BetterDesign.Repository.CarExample.CarParts.Driver-diagram-detailed-grouped-per-namespace.svg" xlink:show="new" xlink:title="Examples.BetterDesign.Repository.CarExample.CarParts.Driver-diagram-detailed-grouped-per-namespace.svg" xlink:type="simple"><g id="elem_Driver"><rect codeLine="48" fill="#F1F1F1" height="80.9766" id="Driver" rx="2.5" ry="2.5" style="stroke:#181818;stroke-width:0.5;" width="419" x="1738.5" y="893.0547"/><ellipse cx="1923.25" cy="909.0547" fill="#A9DCDF" rx="11" ry="11" style="stroke:#181818;stroke-width:1.0;"/><path d="M1923.1133,904.4028 L1921.9595,909.4746 L1924.2754,909.4746 Z M1921.6191,902.1616 L1924.6157,902.1616 L1927.9609,914.5547 L1925.5122,914.5547 L1924.7485,911.4917 L1921.4697,911.4917 L1920.7227,914.5547 L1918.2739,914.5547 Z " fill="#000000"/><text fill="#000000" font-family="sans-serif" font-size="14" font-style="italic" lengthAdjust="spacing" textLength="41" x="1943.75" y="914.3457">Driver</text><line style="stroke:#181818;stroke-width:0.5;" x1="1739.5" x2="2156.5" y1="925.0547" y2="925.0547"/><ellipse cx="1749.5" cy="938.7988" fill="none" rx="3" ry="3" style="stroke:#038048;stroke-width:1.0;"/><text fill="#000000" font-family="sans-serif" font-size="14" lengthAdjust="spacing" textLength="393" x="1758.5" y="942.5898">db: Examples.BetterDesign.Repository.CarExample.DBCar</text><line style="stroke:#181818;stroke-width:1.0;" x1="1739.5" x2="2156.5" y1="949.543" y2="949.543"/><line style="stroke:#181818;stroke-width:1.0;" x1="1739.5" x2="2156.5" y1="951.543" y2="951.543"/><rect fill="#F24D5C" height="6" style="stroke:#C82930;stroke-width:1.0;" width="6" x="1746.5" y="960.2871"/><text fill="#000000" font-family="sans-serif" font-size="14" lengthAdjust="spacing" textLength="74" x="1758.5" y="967.0781">getWeight(</text><text fill="#000000" font-family="sans-serif" font-size="14" lengthAdjust="spacing" textLength="5" x="1832.5" y="967.0781">)</text></g></a><!--class Seats--><a href="Examples.BetterDesign.Repository.CarExample.CarParts.Seats-diagram-detailed-grouped-per-namespace.svg" target="_top" title="Examples.BetterDesign.Repository.CarExample.CarParts.Seats-diagram-detailed-grouped-per-namespace.svg" xlink:actuate="onRequest" xlink:href="Examples.BetterDesign.Repository.CarExample.CarParts.Seats-diagram-detailed-grouped-per-namespace.svg" xlink:show="new" xlink:title="Examples.BetterDesign.Repository.CarExample.CarParts.Seats-diagram-detailed-grouped-per-namespace.svg" xlink:type="simple"><g id="elem_Seats"><rect codeLine="53" fill="#F1F1F1" height="80.9766" id="Seats" rx="2.5" ry="2.5" style="stroke:#181818;stroke-width:0.5;" width="419" x="830.5" y="893.0547"/><ellipse cx="1017.75" cy="909.0547" fill="#A9DCDF" rx="11" ry="11" style="stroke:#181818;stroke-width:1.0;"/><path d="M1017.6133,904.4028 L1016.4595,909.4746 L1018.7754,909.4746 Z M1016.1191,902.1616 L1019.1157,902.1616 L1022.4609,914.5547 L1020.0122,914.5547 L1019.2485,911.4917 L1015.9697,911.4917 L1015.2227,914.5547 L1012.7739,914.5547 Z " fill="#000000"/><text fill="#000000" font-family="sans-serif" font-size="14" font-style="italic" lengthAdjust="spacing" textLength="36" x="1038.25" y="914.3457">Seats</text><line style="stroke:#181818;stroke-width:0.5;" x1="831.5" x2="1248.5" y1="925.0547" y2="925.0547"/><ellipse cx="841.5" cy="938.7988" fill="none" rx="3" ry="3" style="stroke:#038048;stroke-width:1.0;"/><text fill="#000000" font-family="sans-serif" font-size="14" lengthAdjust="spacing" textLength="393" x="850.5" y="942.5898">db: Examples.BetterDesign.Repository.CarExample.DBCar</text><line style="stroke:#181818;stroke-width:1.0;" x1="831.5" x2="1248.5" y1="949.543" y2="949.543"/><line style="stroke:#181818;stroke-width:1.0;" x1="831.5" x2="1248.5" y1="951.543" y2="951.543"/><rect fill="#F24D5C" height="6" style="stroke:#C82930;stroke-width:1.0;" width="6" x="838.5" y="960.2871"/><text fill="#000000" font-family="sans-serif" font-size="14" lengthAdjust="spacing" textLength="74" x="850.5" y="967.0781">getWeight(</text><text fill="#000000" font-family="sans-serif" font-size="14" lengthAdjust="spacing" textLength="5" x="924.5" y="967.0781">)</text></g></a><!--class Doors--><a href="Examples.BetterDesign.Repository.CarExample.CarParts.Doors-diagram-detailed-grouped-per-namespace.svg" target="_top" title="Examples.BetterDesign.Repository.CarExample.CarParts.Doors-diagram-detailed-grouped-per-namespace.svg" xlink:actuate="onRequest" xlink:href="Examples.BetterDesign.Repository.CarExample.CarParts.Doors-diagram-detailed-grouped-per-namespace.svg" xlink:show="new" xlink:title="Examples.BetterDesign.Repository.CarExample.CarParts.Doors-diagram-detailed-grouped-per-namespace.svg" xlink:type="simple"><g id="elem_Doors"><rect codeLine="58" fill="#F1F1F1" height="80.9766" id="Doors" rx="2.5" ry="2.5" style="stroke:#181818;stroke-width:0.5;" width="419" x="1284.5" y="893.0547"/><ellipse cx="1469.25" cy="909.0547" fill="#A9DCDF" rx="11" ry="11" style="stroke:#181818;stroke-width:1.0;"/><path d="M1469.1133,904.4028 L1467.9595,909.4746 L1470.2754,909.4746 Z M1467.6191,902.1616 L1470.6157,902.1616 L1473.9609,914.5547 L1471.5122,914.5547 L1470.7485,911.4917 L1467.4697,911.4917 L1466.7227,914.5547 L1464.2739,914.5547 Z " fill="#000000"/><text fill="#000000" font-family="sans-serif" font-size="14" font-style="italic" lengthAdjust="spacing" textLength="41" x="1489.75" y="914.3457">Doors</text><line style="stroke:#181818;stroke-width:0.5;" x1="1285.5" x2="1702.5" y1="925.0547" y2="925.0547"/><ellipse cx="1295.5" cy="938.7988" fill="none" rx="3" ry="3" style="stroke:#038048;stroke-width:1.0;"/><text fill="#000000" font-family="sans-serif" font-size="14" lengthAdjust="spacing" textLength="393" x="1304.5" y="942.5898">db: Examples.BetterDesign.Repository.CarExample.DBCar</text><line style="stroke:#181818;stroke-width:1.0;" x1="1285.5" x2="1702.5" y1="949.543" y2="949.543"/><line style="stroke:#181818;stroke-width:1.0;" x1="1285.5" x2="1702.5" y1="951.543" y2="951.543"/><rect fill="#F24D5C" height="6" style="stroke:#C82930;stroke-width:1.0;" width="6" x="1292.5" y="960.2871"/><text fill="#000000" font-family="sans-serif" font-size="14" lengthAdjust="spacing" textLength="74" x="1304.5" y="967.0781">getWeight(</text><text fill="#000000" font-family="sans-serif" font-size="14" lengthAdjust="spacing" textLength="5" x="1378.5" y="967.0781">)</text></g></a><!--class Wheels--><a href="Examples.BetterDesign.Repository.CarExample.CarParts.Wheels-diagram-detailed-grouped-per-namespace.svg" target="_top" title="Examples.BetterDesign.Repository.CarExample.CarParts.Wheels-diagram-detailed-grouped-per-namespace.svg" xlink:actuate="onRequest" xlink:href="Examples.BetterDesign.Repository.CarExample.CarParts.Wheels-diagram-detailed-grouped-per-namespace.svg" xlink:show="new" xlink:title="Examples.BetterDesign.Repository.CarExample.CarParts.Wheels-diagram-detailed-grouped-per-namespace.svg" xlink:type="simple"><g id="elem_Wheels"><rect codeLine="63" fill="#F1F1F1" height="80.9766" id="Wheels" rx="2.5" ry="2.5" style="stroke:#181818;stroke-width:0.5;" width="419" x="2192.5" y="893.0547"/><ellipse cx="2373.75" cy="909.0547" fill="#A9DCDF" rx="11" ry="11" style="stroke:#181818;stroke-width:1.0;"/><path d="M2373.6133,904.4028 L2372.4595,909.4746 L2374.7754,909.4746 Z M2372.1191,902.1616 L2375.1157,902.1616 L2378.4609,914.5547 L2376.0122,914.5547 L2375.2485,911.4917 L2371.9697,911.4917 L2371.2227,914.5547 L2368.7739,914.5547 Z " fill="#000000"/><text fill="#000000" font-family="sans-serif" font-size="14" font-style="italic" lengthAdjust="spacing" textLength="48" x="2394.25" y="914.3457">Wheels</text><line style="stroke:#181818;stroke-width:0.5;" x1="2193.5" x2="2610.5" y1="925.0547" y2="925.0547"/><ellipse cx="2203.5" cy="938.7988" fill="none" rx="3" ry="3" style="stroke:#038048;stroke-width:1.0;"/><text fill="#000000" font-family="sans-serif" font-size="14" lengthAdjust="spacing" textLength="393" x="2212.5" y="942.5898">db: Examples.BetterDesign.Repository.CarExample.DBCar</text><line style="stroke:#181818;stroke-width:1.0;" x1="2193.5" x2="2610.5" y1="949.543" y2="949.543"/><line style="stroke:#181818;stroke-width:1.0;" x1="2193.5" x2="2610.5" y1="951.543" y2="951.543"/><rect fill="#F24D5C" height="6" style="stroke:#C82930;stroke-width:1.0;" width="6" x="2200.5" y="960.2871"/><text fill="#000000" font-family="sans-serif" font-size="14" lengthAdjust="spacing" textLength="74" x="2212.5" y="967.0781">getWeight(</text><text fill="#000000" font-family="sans-serif" font-size="14" lengthAdjust="spacing" textLength="5" x="2286.5" y="967.0781">)</text></g></a><g id="elem_FloatingNote"><path d="M6,139.0547 L6,386.7129 L702,386.7129 L702,149.0547 L692,139.0547 L6,139.0547 " fill="#FEFFDD" style="stroke:#181818;stroke-width:0.5;"/><path d="M692,139.0547 L692,149.0547 L702,149.0547 L692,139.0547 " fill="#FEFFDD" style="stroke:#181818;stroke-width:1.0;"/><text fill="#000000" font-family="sans-serif" font-size="13" lengthAdjust="spacing" textLength="120" x="12" y="156.623">Your are analyzing:</text><text fill="#000000" font-family="sans-serif" font-size="13" lengthAdjust="spacing" textLength="335" x="12" y="171.9336">Examples.BetterDesign.Repository.CarExample.DBCar</text><text fill="#000000" font-family="sans-serif" font-size="13" font-weight="bold" lengthAdjust="spacing" textLength="55" x="351" y="171.9336">detailed</text><text fill="#000000" font-family="sans-serif" font-size="13" lengthAdjust="spacing" textLength="23" x="410" y="171.9336">and</text><text fill="#000000" font-family="sans-serif" font-size="13" font-weight="bold" lengthAdjust="spacing" textLength="166" x="437" y="171.9336">grouped per namespace</text><text fill="#000000" font-family="sans-serif" font-size="13" lengthAdjust="spacing" textLength="4" x="12" y="187.2441">&#160;</text><text fill="#000000" font-family="sans-serif" font-size="13" lengthAdjust="spacing" textLength="229" x="12" y="217.8652">You can click either the namespaces</text><text fill="#000000" font-family="sans-serif" font-size="13" lengthAdjust="spacing" textLength="266" x="12" y="233.1758">or class names for filtering them and their</text><text fill="#000000" font-family="sans-serif" font-size="13" lengthAdjust="spacing" textLength="130" x="12" y="248.4863">direct dependencies.</text><text fill="#000000" font-family="sans-serif" font-size="13" lengthAdjust="spacing" textLength="4" x="12" y="263.7969">&#160;</text><line style="stroke:#181818;stroke-width:1.0;" x1="7" x2="338" y1="197.6416" y2="197.6416"/><line style="stroke:#181818;stroke-width:1.0;" x1="7" x2="338" y1="199.6416" y2="199.6416"/><text fill="#000000" font-family="sans-serif" font-size="13" lengthAdjust="spacing" textLength="32" x="338" y="202.0547">Filter</text><line style="stroke:#181818;stroke-width:1.0;" x1="370" x2="701" y1="197.6416" y2="197.6416"/><line style="stroke:#181818;stroke-width:1.0;" x1="370" x2="701" y1="199.6416" y2="199.6416"/><ellipse cx="17.5" cy="293.6602" fill="#000000" rx="2.5" ry="2.5" style="stroke:#000000;stroke-width:0.0;"/><text fill="#000000" font-family="sans-serif" font-size="13" lengthAdjust="spacing" textLength="335" x="24" y="298.418">Examples.BetterDesign.Repository.CarExample.DBCar</text><text fill="#000000" font-family="sans-serif" font-size="13" font-weight="bold" lengthAdjust="spacing" textLength="67" x="363" y="298.418">simplified</text><text fill="#000000" font-family="sans-serif" font-size="13" lengthAdjust="spacing" textLength="23" x="434" y="298.418">and</text><text fill="#000000" font-family="sans-serif" font-size="13" font-weight="bold" lengthAdjust="spacing" textLength="166" x="461" y="298.418">grouped per namespace</text><text fill="#000000" font-family="sans-serif" font-size="13" lengthAdjust="spacing" textLength="4" x="627" y="298.418">:</text><text fill="#000000" font-family="sans-serif" font-size="13" lengthAdjust="spacing" textLength="12" x="12" y="313.7285">&#160;&#160;&#160;</text><a href="Examples.BetterDesign.Repository.CarExample.DBCar-diagram-simplified-grouped-per-namespace.svg" target="_top" title="Examples.BetterDesign.Repository.CarExample.DBCar-diagram-simplified-grouped-per-namespace.svg" xlink:actuate="onRequest" xlink:href="Examples.BetterDesign.Repository.CarExample.DBCar-diagram-simplified-grouped-per-namespace.svg" xlink:show="new" xlink:title="Examples.BetterDesign.Repository.CarExample.DBCar-diagram-simplified-grouped-per-namespace.svg" xlink:type="simple"><text fill="#0000FF" font-family="sans-serif" font-size="13" lengthAdjust="spacing" text-decoration="underline" textLength="657" x="24" y="313.7285">Examples.BetterDesign.Repository.CarExample.DBCar-diagram-simplified-grouped-per-namespace.svg</text></a><ellipse cx="17.5" cy="324.2813" fill="#000000" rx="2.5" ry="2.5" style="stroke:#000000;stroke-width:0.0;"/><text fill="#000000" font-family="sans-serif" font-size="13" lengthAdjust="spacing" textLength="78" x="24" y="329.0391">Full diagram</text><text fill="#000000" font-family="sans-serif" font-size="13" font-weight="bold" lengthAdjust="spacing" textLength="55" x="106" y="329.0391">detailed</text><text fill="#000000" font-family="sans-serif" font-size="13" lengthAdjust="spacing" textLength="23" x="165" y="329.0391">and</text><text fill="#000000" font-family="sans-serif" font-size="13" font-weight="bold" lengthAdjust="spacing" textLength="166" x="192" y="329.0391">grouped per namespace</text><text fill="#000000" font-family="sans-serif" font-size="13" lengthAdjust="spacing" textLength="4" x="358" y="329.0391">:</text><text fill="#000000" font-family="sans-serif" font-size="13" lengthAdjust="spacing" textLength="12" x="12" y="344.3496">&#160;&#160;&#160;</text><a href="full-diagram-detailed-grouped-per-namespace.svg" target="_top" title="full-diagram-detailed-grouped-per-namespace.svg" xlink:actuate="onRequest" xlink:href="full-diagram-detailed-grouped-per-namespace.svg" xlink:show="new" xlink:title="full-diagram-detailed-grouped-per-namespace.svg" xlink:type="simple"><text fill="#0000FF" font-family="sans-serif" font-size="13" lengthAdjust="spacing" text-decoration="underline" textLength="330" x="24" y="344.3496">full-diagram-detailed-grouped-per-namespace.svg</text></a><ellipse cx="17.5" cy="354.9023" fill="#000000" rx="2.5" ry="2.5" style="stroke:#000000;stroke-width:0.0;"/><text fill="#000000" font-family="sans-serif" font-size="13" lengthAdjust="spacing" textLength="41" x="24" y="359.6602">Home:</text><text fill="#000000" font-family="sans-serif" font-size="13" lengthAdjust="spacing" textLength="12" x="12" y="374.9707">&#160;&#160;&#160;</text><a href="index.html" target="_top" title="index.html" xlink:actuate="onRequest" xlink:href="index.html" xlink:show="new" xlink:title="index.html" xlink:type="simple"><text fill="#0000FF" font-family="sans-serif" font-size="13" lengthAdjust="spacing" text-decoration="underline" textLength="68" x="24" y="374.9707">index.html</text></a><line style="stroke:#181818;stroke-width:1.0;" x1="7" x2="317" y1="278.1943" y2="278.1943"/><line style="stroke:#181818;stroke-width:1.0;" x1="7" x2="317" y1="280.1943" y2="280.1943"/><text fill="#000000" font-family="sans-serif" font-size="13" lengthAdjust="spacing" textLength="74" x="317" y="282.6074">Select other</text><line style="stroke:#181818;stroke-width:1.0;" x1="391" x2="701" y1="278.1943" y2="278.1943"/><line style="stroke:#181818;stroke-width:1.0;" x1="391" x2="701" y1="280.1943" y2="280.1943"/></g><!--link DBCar to Driver--><g id="link_DBCar_Driver"><path codeLine="85" d="M1775.41,594.0547 C1894.36,594.0547 1988.5,594.0547 1988.5,594.0547 C1988.5,594.0547 1988.5,886.6047 1988.5,886.6047 " fill="none" id="DBCar-to-Driver" style="stroke:#6060BB;stroke-width:1.0;stroke-dasharray:7.0,7.0;"/><polygon fill="#6060BB" points="1988.5,891.6047,1992.5,882.6047,1988.5,886.6047,1984.5,882.6047,1988.5,891.6047" style="stroke:#6060BB;stroke-width:1.0;"/><text fill="#000000" font-family="sans-serif" font-size="13" lengthAdjust="spacing" textLength="29" x="1958.5" y="630.353">uses</text></g><!--reverse link Driver to DBCar--><g id="link_Driver_DBCar"><path codeLine="98" d="M2073,878.7147 C2073,878.7147 2073,545.0547 2073,545.0547 C2073,545.0547 1935.16,545.0547 1775.44,545.0547 " fill="none" id="Driver-backto-DBCar" style="stroke:#10BB10;stroke-width:1.0;"/><polygon fill="#10BB10" points="2073,891.7147,2077,885.7147,2073,879.7147,2069,885.7147,2073,891.7147" style="stroke:#10BB10;stroke-width:1.0;"/></g><!--link DBCar to Car--><g id="link_DBCar_Car"><path codeLine="86" d="M1552.5,643.5147 C1552.5,643.5147 1552.5,696.7847 1552.5,696.7847 " fill="none" id="DBCar-to-Car" style="stroke:#6060BB;stroke-width:1.0;stroke-dasharray:7.0,7.0;"/><polygon fill="#6060BB" points="1552.5,701.7847,1556.5,692.7847,1552.5,696.7847,1548.5,692.7847,1552.5,701.7847" style="stroke:#6060BB;stroke-width:1.0;"/><text fill="#000000" font-family="sans-serif" font-size="13" lengthAdjust="spacing" textLength="29" x="1522.5" y="666.723">uses</text></g><!--link DBCar to Seats--><g id="link_DBCar_Seats"><path codeLine="87" d="M935.25,643.3447 C935.25,643.3447 935.25,886.9147 935.25,886.9147 " fill="none" id="DBCar-to-Seats" style="stroke:#6060BB;stroke-width:1.0;stroke-dasharray:7.0,7.0;"/><polygon fill="#6060BB" points="935.25,891.9147,939.25,882.9147,935.25,886.9147,931.25,882.9147,935.25,891.9147" style="stroke:#6060BB;stroke-width:1.0;"/><text fill="#000000" font-family="sans-serif" font-size="13" lengthAdjust="spacing" textLength="29" x="905.25" y="761.693">uses</text></g><!--reverse link Seats to DBCar--><g id="link_Seats_DBCar"><path codeLine="99" d="M1040,878.7147 C1040,878.7147 1040,643.2447 1040,643.2447 " fill="none" id="Seats-backto-DBCar" style="stroke:#10BB10;stroke-width:1.0;"/><polygon fill="#10BB10" points="1040,891.7147,1044,885.7147,1040,879.7147,1036,885.7147,1040,891.7147" style="stroke:#10BB10;stroke-width:1.0;"/></g><!--link DBCar to Doors--><g id="link_DBCar_Doors"><path codeLine="88" d="M1299.67,643.3447 C1299.67,643.3447 1299.67,886.9147 1299.67,886.9147 " fill="none" id="DBCar-to-Doors" style="stroke:#6060BB;stroke-width:1.0;stroke-dasharray:7.0,7.0;"/><polygon fill="#6060BB" points="1299.67,891.9147,1303.67,882.9147,1299.67,886.9147,1295.67,882.9147,1299.67,891.9147" style="stroke:#6060BB;stroke-width:1.0;"/><text fill="#000000" font-family="sans-serif" font-size="13" lengthAdjust="spacing" textLength="29" x="1269.67" y="761.693">uses</text></g><!--reverse link Doors to DBCar--><g id="link_Doors_DBCar"><path codeLine="100" d="M1314.83,878.7147 C1314.83,878.7147 1314.83,643.2447 1314.83,643.2447 " fill="none" id="Doors-backto-DBCar" style="stroke:#10BB10;stroke-width:1.0;"/><polygon fill="#10BB10" points="1314.83,891.7147,1318.83,885.7147,1314.83,879.7147,1310.83,885.7147,1314.83,891.7147" style="stroke:#10BB10;stroke-width:1.0;"/></g><!--reverse link Vehicle to Car--><g id="link_Vehicle_Car"><path codeLine="89" d="M1782.7,263.0547 C1782.7,263.0547 1839.5,263.0547 1839.5,263.0547 C1839.5,263.0547 1839.5,566.2947 1839.5,702.8147 " fill="none" id="Vehicle-backto-Car" style="stroke:#FF0000;stroke-width:1.0;"/><polygon fill="none" points="1782.7,270.0547,1762.7,263.0547,1782.7,256.0547,1782.7,270.0547" style="stroke:#FF0000;stroke-width:1.0;"/></g><!--reverse link Car to Wheels--><g id="link_Car_Wheels"><path codeLine="90" d="M1918.28,768.0547 C1918.28,768.0547 2332.17,768.0547 2332.17,768.0547 C2332.17,768.0547 2332.17,843.6347 2332.17,892.6447 " fill="none" id="Car-backto-Wheels" style="stroke:#10BB10;stroke-width:1.0;"/><polygon fill="#10BB10" points="1905.28,768.0547,1911.28,772.0547,1917.28,768.0547,1911.28,764.0547,1905.28,768.0547" style="stroke:#10BB10;stroke-width:1.0;"/></g><!--reverse link Car to Seats--><g id="link_Car_Seats"><path codeLine="91" d="M1315.7,768.0547 C1315.7,768.0547 1144.75,768.0547 1144.75,768.0547 C1144.75,768.0547 1144.75,843.6347 1144.75,892.6447 " fill="none" id="Car-backto-Seats" style="stroke:#10BB10;stroke-width:1.0;"/><polygon fill="#10BB10" points="1328.7,768.0547,1322.7,764.0547,1316.7,768.0547,1322.7,772.0547,1328.7,768.0547" style="stroke:#10BB10;stroke-width:1.0;"/></g><!--reverse link Car to Driver--><g id="link_Car_Driver"><path codeLine="92" d="M1821.25,847.4647 C1821.25,847.4647 1821.25,892.9047 1821.25,892.9047 " fill="none" id="Car-backto-Driver" style="stroke:#10BB10;stroke-width:1.0;"/><polygon fill="#10BB10" points="1821.25,834.4647,1817.25,840.4647,1821.25,846.4647,1825.25,840.4647,1821.25,834.4647" style="stroke:#10BB10;stroke-width:1.0;"/></g><!--reverse link Car to Doors--><g id="link_Car_Doors"><path codeLine="93" d="M1579,847.4647 C1579,847.4647 1579,892.9047 1579,892.9047 " fill="none" id="Car-backto-Doors" style="stroke:#10BB10;stroke-width:1.0;"/><polygon fill="#10BB10" points="1579,834.4647,1575,840.4647,1579,846.4647,1583,840.4647,1579,834.4647" style="stroke:#10BB10;stroke-width:1.0;"/></g><!--link Car to Doors--><g id="link_Car_Doors"><path codeLine="94" d="M1454.5,833.4647 C1454.5,833.4647 1454.5,886.9047 1454.5,886.9047 " fill="none" id="Car-to-Doors" style="stroke:#6060BB;stroke-width:1.0;stroke-dasharray:7.0,7.0;"/><polygon fill="#6060BB" points="1454.5,891.9047,1458.5,882.9047,1454.5,886.9047,1450.5,882.9047,1454.5,891.9047" style="stroke:#6060BB;stroke-width:1.0;"/><text fill="#000000" font-family="sans-serif" font-size="13" lengthAdjust="spacing" textLength="29" x="1424.5" y="856.753">uses</text></g><!--reverse link Vehicle to DBCar--><g id="link_Vehicle_DBCar"><path codeLine="95" d="M1552,325.8547 C1552,325.8547 1552,446.6647 1552,446.6647 " fill="none" id="Vehicle-backto-DBCar" style="stroke:#10BB10;stroke-width:1.0;"/><polygon fill="#10BB10" points="1552,312.8547,1548,318.8547,1552,324.8547,1556,318.8547,1552,312.8547" style="stroke:#10BB10;stroke-width:1.0;"/></g><!--reverse link Wheels to DBCar--><g id="link_Wheels_DBCar"><path codeLine="101" d="M2471.83,878.7847 C2471.83,878.7847 2471.83,496.0547 2471.83,496.0547 C2471.83,496.0547 2100.78,496.0547 1775.19,496.0547 " fill="none" id="Wheels-backto-DBCar" style="stroke:#10BB10;stroke-width:1.0;"/><polygon fill="#10BB10" points="2471.83,891.7847,2475.83,885.7847,2471.83,879.7847,2467.83,885.7847,2471.83,891.7847" style="stroke:#10BB10;stroke-width:1.0;"/></g><!--SRC=[xLXBJzj04BxxLupWGEis1dhW42KvG8fwGbLRjQf8X1PxagnOxrgx6ruj_xrZEt6Cb43MpWD48uJYP6Q-UNmpEnjpnMN2D8j1S8dsBa5GsewKPxaL22t3xx7vwQ3p-PR5YK0J7AErgBje-506tp1HXbkbxu8JfYSoGVUO7i3t8xIC2uny7vYCw8EXLkC48qXGWsGnceI5wFkj_HIbuqbb4NP-gx46ff5qcBYxvtBOxCbrmlTaJxRRfroGuNQx9ya129c4KF3m2f3R4SdJlvcEWPvKcWIOCVcdCA3dGMQ274wbumoKtd3Tan7N65g8C44PeGmvHPB3VaUHVgDIa1JSXogX6awFVC2V3vPo2G3dvyueZOYp8V6aCSDgJ30QXD4eC09pFUptqqXEnqB0HCsX7bCN1wHUe4wLdyFyecAS6k2KwzjWP6FHx-y0Ct0g5BDKdpCYcbSe5nalfSK95_xCCVOeiOiIlcAOKlsMAF7wm4laSQEQgqkGlTYbiPfH5-KDwTv0TTfXAKztxr08TLDu3D208LgoOqwLxcf-ZVfTQw0anQ24qksTeuEZW-FZdKwKVTTqyO_UVcNQcY2tszfFxNRUbw37ISGiajnyp90v0tu4WyoQQdv-JrKtv6QabAxePZTLdUEceTgIq0-rIZVNKVQSSGjujdgifsWTkiBDX_WrGXHchH1PrTUAaD5_FGWFzIUa-tnqdewbiVW1RhAIDg4I7NC-bApbKmcgZwMIhKbFGer6ALlB1X5KdqHUkrtYKQZngLcvuh6t0bxzn14FNVU3gLODVaMNJVSDuN6k3VLiWXZDJ_M29bzQuS7REr4ntSbeCtvvAnVSq7q8gDeMwEOI8uMZ1b1u3YU28EW6n6ZrJpHUSpKs5sPyUL5OkX2Sb6UHdIc9S8aX6njChr2JYv_X1kXlm2Kt8uo2aksPxYmCxs6km2pa1GBb12qGcIQJllv_PtZzTuPABXNZqFqipDIgNMpg7jpbewUYunFjoWDt9IDtkkqX7uxiabFtOQKvp7Q1gYdCbDzw1hCreZ89K-Mtdi5ykQsQmbpxDUQmvZgquT7zr8AqfHKf2sF1ShFf3Ghsm5_k1MkJJLrCkr2ZO9OhQG1li-uaYWsqYcUUDqdMWJEU-q-FmVbkJlr-qAbrl4CJY1q6Dkp3jd3Bn_9MNSZFjKekJA_0hR-DyrsQR_s6gmkUQxLyGZgaS0yFtC4UdK9RGCwBlGNWIOTj0paZbpFmYs1rvUZppbpVb2wYzEgmeMvuDLfWAz0v8xO2FHavDR7_0G00]--></g></svg>