<?xml version="1.0" encoding="us-ascii" standalone="no"?><svg xmlns="http://www.w3.org/2000/svg" xmlns:xlink="http://www.w3.org/1999/xlink" contentStyleType="text/css" height="619px" preserveAspectRatio="none" style="width:1554px;height:619px;background:#FFFFFF;" version="1.1" viewBox="0 0 1554 619" width="1554px" zoomAndPan="magnify"><defs/><g><text fill="#000000" font-family="sans-serif" font-size="20" font-weight="bold" lengthAdjust="spacing" textLength="316" x="563.25" y="29.3359">Examples.BetterDesign.Service</text><text fill="#000000" font-family="sans-serif" font-size="20" font-weight="bold" lengthAdjust="spacing" textLength="84" x="886.25" y="29.3359">detailed</text><text fill="#000000" font-family="sans-serif" font-size="20" font-weight="bold" lengthAdjust="spacing" textLength="7" x="970.25" y="29.3359">&#160;</text><!--cluster Examples--><g id="cluster_Examples"><path d="M412,56.0547 L481,56.0547 A3.75,3.75 0 0 1 483.5,58.5547 L490.5,78.543 L1545,78.543 A2.5,2.5 0 0 1 1547.5,81.043 L1547.5,610.0547 A2.5,2.5 0 0 1 1545,612.5547 L412,612.5547 A2.5,2.5 0 0 1 409.5,610.0547 L409.5,58.5547 A2.5,2.5 0 0 1 412,56.0547 " fill="none" style="stroke:#000000;stroke-width:1.5;"/><line style="stroke:#000000;stroke-width:1.5;" x1="409.5" x2="490.5" y1="78.543" y2="78.543"/><text fill="#000000" font-family="sans-serif" font-size="14" font-weight="bold" lengthAdjust="spacing" textLength="68" x="413.5" y="71.5898">Examples</text></g><!--cluster BetterDesign--><g id="cluster_BetterDesign"><path d="M436,99.0547 L530,99.0547 A3.75,3.75 0 0 1 532.5,101.5547 L539.5,121.543 L1521,121.543 A2.5,2.5 0 0 1 1523.5,124.043 L1523.5,586.0547 A2.5,2.5 0 0 1 1521,588.5547 L436,588.5547 A2.5,2.5 0 0 1 433.5,586.0547 L433.5,101.5547 A2.5,2.5 0 0 1 436,99.0547 " fill="none" style="stroke:#000000;stroke-width:1.5;"/><line style="stroke:#000000;stroke-width:1.5;" x1="433.5" x2="539.5" y1="121.543" y2="121.543"/><text fill="#000000" font-family="sans-serif" font-size="14" font-weight="bold" lengthAdjust="spacing" textLength="93" x="437.5" y="114.5898">BetterDesign</text></g><!--cluster Repository--><g id="cluster_Repository"><path d="M547,314.5547 L626,314.5547 A3.75,3.75 0 0 1 628.5,317.0547 L635.5,337.043 L1407,337.043 A2.5,2.5 0 0 1 1409.5,339.543 L1409.5,562.0547 A2.5,2.5 0 0 1 1407,564.5547 L547,564.5547 A2.5,2.5 0 0 1 544.5,562.0547 L544.5,317.0547 A2.5,2.5 0 0 1 547,314.5547 " fill="none" style="stroke:#000000;stroke-width:1.5;"/><line style="stroke:#000000;stroke-width:1.5;" x1="544.5" x2="635.5" y1="337.043" y2="337.043"/><text fill="#000000" font-family="sans-serif" font-size="14" font-weight="bold" lengthAdjust="spacing" textLength="78" x="548.5" y="330.0898">Repository</text></g><!--cluster CarExample--><g id="cluster_CarExample"><path d="M571,357.5547 L656,357.5547 A3.75,3.75 0 0 1 658.5,360.0547 L665.5,380.043 L1383,380.043 A2.5,2.5 0 0 1 1385.5,382.543 L1385.5,538.0547 A2.5,2.5 0 0 1 1383,540.5547 L571,540.5547 A2.5,2.5 0 0 1 568.5,538.0547 L568.5,360.0547 A2.5,2.5 0 0 1 571,357.5547 " fill="none" style="stroke:#000000;stroke-width:1.5;"/><line style="stroke:#000000;stroke-width:1.5;" x1="568.5" x2="665.5" y1="380.043" y2="380.043"/><text fill="#000000" font-family="sans-serif" font-size="14" font-weight="bold" lengthAdjust="spacing" textLength="84" x="572.5" y="373.0898">CarExample</text></g><!--cluster WarehouseEntities--><g id="cluster_WarehouseEntities"><path d="M1215,400.5547 L1349,400.5547 A3.75,3.75 0 0 1 1351.5,403.0547 L1358.5,423.043 L1359,423.043 A2.5,2.5 0 0 1 1361.5,425.543 L1361.5,497.0547 A2.5,2.5 0 0 1 1359,499.5547 L1215,499.5547 A2.5,2.5 0 0 1 1212.5,497.0547 L1212.5,403.0547 A2.5,2.5 0 0 1 1215,400.5547 " fill="none" style="stroke:#000000;stroke-width:1.5;"/><line style="stroke:#000000;stroke-width:1.5;" x1="1212.5" x2="1358.5" y1="423.043" y2="423.043"/><text fill="#000000" font-family="sans-serif" font-size="14" font-weight="bold" lengthAdjust="spacing" textLength="133" x="1216.5" y="416.0898">WarehouseEntities</text></g><!--class Service--><a href="Examples.BetterDesign.Service-diagram-detailed.svg" target="_top" title="Examples.BetterDesign.Service-diagram-detailed.svg" xlink:actuate="onRequest" xlink:href="Examples.BetterDesign.Service-diagram-detailed.svg" xlink:show="new" xlink:title="Examples.BetterDesign.Service-diagram-detailed.svg" xlink:type="simple"><g id="elem_Service"><rect codeLine="4" fill="#FFFF00" height="80.9766" id="Service" rx="2.5" ry="2.5" style="stroke:#181818;stroke-width:0.5;" width="1058" x="449.5" y="134.0547"/><ellipse cx="950.25" cy="150.0547" fill="#A9DCDF" rx="11" ry="11" style="stroke:#181818;stroke-width:1.0;"/><path d="M950.1133,145.4028 L948.9595,150.4746 L951.2754,150.4746 Z M948.6191,143.1616 L951.6157,143.1616 L954.9609,155.5547 L952.5122,155.5547 L951.7485,152.4917 L948.4697,152.4917 L947.7227,155.5547 L945.2739,155.5547 Z " fill="#000000"/><text fill="#000000" font-family="sans-serif" font-size="14" font-style="italic" lengthAdjust="spacing" textLength="48" x="970.75" y="155.3457">Service</text><line style="stroke:#181818;stroke-width:0.5;" x1="450.5" x2="1506.5" y1="166.0547" y2="166.0547"/><line style="stroke:#181818;stroke-width:0.5;" x1="450.5" x2="1506.5" y1="174.0547" y2="174.0547"/><rect fill="#F24D5C" height="6" style="stroke:#C82930;stroke-width:1.0;" width="6" x="457.5" y="184.7988"/><text fill="#000000" font-family="sans-serif" font-size="14" lengthAdjust="spacing" textLength="108" x="469.5" y="191.5898">getOrderedCar(</text><text fill="#6060BB" font-family="sans-serif" font-size="14" lengthAdjust="spacing" textLength="432" x="577.5" y="191.5898">physicalCar:Examples.BetterDesign.Repository.CarExample.Car</text><text fill="#000000" font-family="sans-serif" font-size="14" lengthAdjust="spacing" textLength="9" x="1009.5" y="191.5898">):</text><text fill="#BB6060" font-family="sans-serif" font-size="14" lengthAdjust="spacing" textLength="479" x="1022.5" y="191.5898">Examples.BetterDesign.Repository.CarExample.WarehouseEntities.Car</text><rect fill="#F24D5C" height="6" style="stroke:#C82930;stroke-width:1.0;" width="6" x="457.5" y="201.2871"/><text fill="#000000" font-family="sans-serif" font-size="14" lengthAdjust="spacing" textLength="105" x="469.5" y="208.0781">getPhysicalCar(</text><text fill="#6060BB" font-family="sans-serif" font-size="14" lengthAdjust="spacing" textLength="504" x="574.5" y="208.0781">car:Examples.BetterDesign.Repository.CarExample.WarehouseEntities.Car</text><text fill="#000000" font-family="sans-serif" font-size="14" lengthAdjust="spacing" textLength="9" x="1078.5" y="208.0781">):</text><text fill="#BB6060" font-family="sans-serif" font-size="14" lengthAdjust="spacing" textLength="349" x="1091.5" y="208.0781">Examples.BetterDesign.Repository.CarExample.Car</text></g></a><!--class Car--><a href="Examples.BetterDesign.Repository.CarExample.Car-diagram-detailed.svg" target="_top" title="Examples.BetterDesign.Repository.CarExample.Car-diagram-detailed.svg" xlink:actuate="onRequest" xlink:href="Examples.BetterDesign.Repository.CarExample.Car-diagram-detailed.svg" xlink:show="new" xlink:title="Examples.BetterDesign.Repository.CarExample.Car-diagram-detailed.svg" xlink:type="simple"><g id="elem_Car"><rect codeLine="8" fill="#F1F1F1" height="130.4414" id="Car" rx="2.5" ry="2.5" style="stroke:#181818;stroke-width:0.5;" width="611" x="585" y="394.5547"/><ellipse cx="874.25" cy="410.5547" fill="#A9DCDF" rx="11" ry="11" style="stroke:#181818;stroke-width:1.0;"/><path d="M874.1133,405.9028 L872.9595,410.9746 L875.2754,410.9746 Z M872.6191,403.6616 L875.6157,403.6616 L878.9609,416.0547 L876.5122,416.0547 L875.7485,412.9917 L872.4697,412.9917 L871.7227,416.0547 L869.2739,416.0547 Z " fill="#000000"/><text fill="#000000" font-family="sans-serif" font-size="14" font-style="italic" lengthAdjust="spacing" textLength="24" x="894.75" y="415.8457">Car</text><line style="stroke:#181818;stroke-width:0.5;" x1="586" x2="1195" y1="426.5547" y2="426.5547"/><ellipse cx="596" cy="440.2988" fill="none" rx="3" ry="3" style="stroke:#038048;stroke-width:1.0;"/><text fill="#000000" font-family="sans-serif" font-size="14" lengthAdjust="spacing" textLength="490" x="605" y="444.0898">wheels: Examples.BetterDesign.Repository.CarExample.CarParts.Wheels</text><ellipse cx="596" cy="456.7871" fill="none" rx="3" ry="3" style="stroke:#038048;stroke-width:1.0;"/><text fill="#000000" font-family="sans-serif" font-size="14" lengthAdjust="spacing" textLength="466" x="605" y="460.5781">seats: Examples.BetterDesign.Repository.CarExample.CarParts.Seats</text><ellipse cx="596" cy="473.2754" fill="none" rx="3" ry="3" style="stroke:#038048;stroke-width:1.0;"/><text fill="#000000" font-family="sans-serif" font-size="14" lengthAdjust="spacing" textLength="476" x="605" y="477.0664">driver: Examples.BetterDesign.Repository.CarExample.CarParts.Driver</text><ellipse cx="596" cy="489.7637" fill="none" rx="3" ry="3" style="stroke:#038048;stroke-width:1.0;"/><text fill="#000000" font-family="sans-serif" font-size="14" lengthAdjust="spacing" textLength="476" x="605" y="493.5547">doors: Examples.BetterDesign.Repository.CarExample.CarParts.Doors</text><line style="stroke:#181818;stroke-width:1.0;" x1="586" x2="1195" y1="500.5078" y2="500.5078"/><line style="stroke:#181818;stroke-width:1.0;" x1="586" x2="1195" y1="502.5078" y2="502.5078"/><rect fill="#F24D5C" height="6" style="stroke:#C82930;stroke-width:1.0;" width="6" x="593" y="511.252"/><text fill="#000000" font-family="sans-serif" font-size="14" lengthAdjust="spacing" textLength="71" x="605" y="518.043">createCar(</text><text fill="#6060BB" font-family="sans-serif" font-size="14" lengthAdjust="spacing" textLength="472" x="676" y="518.043">doors:Examples.BetterDesign.Repository.CarExample.CarParts.Doors</text><text fill="#000000" font-family="sans-serif" font-size="14" lengthAdjust="spacing" textLength="9" x="1148" y="518.043">):</text><text fill="#BB6060" font-family="sans-serif" font-size="14" lengthAdjust="spacing" textLength="29" x="1161" y="518.043">void</text></g></a><!--class Car--><a href="Examples.BetterDesign.Repository.CarExample.WarehouseEntities.Car-diagram-detailed.svg" target="_top" title="Examples.BetterDesign.Repository.CarExample.WarehouseEntities.Car-diagram-detailed.svg" xlink:actuate="onRequest" xlink:href="Examples.BetterDesign.Repository.CarExample.WarehouseEntities.Car-diagram-detailed.svg" xlink:show="new" xlink:title="Examples.BetterDesign.Repository.CarExample.WarehouseEntities.Car-diagram-detailed.svg" xlink:type="simple"><g id="elem_Car"><rect codeLine="16" fill="#F1F1F1" height="48" id="Car" rx="2.5" ry="2.5" style="stroke:#181818;stroke-width:0.5;" width="56" x="1231.5" y="435.5547"/><ellipse cx="1246.5" cy="451.5547" fill="#A9DCDF" rx="11" ry="11" style="stroke:#181818;stroke-width:1.0;"/><path d="M1246.3633,446.9028 L1245.2095,451.9746 L1247.5254,451.9746 Z M1244.8691,444.6616 L1247.8657,444.6616 L1251.2109,457.0547 L1248.7622,457.0547 L1247.9985,453.9917 L1244.7197,453.9917 L1243.9727,457.0547 L1241.5239,457.0547 Z " fill="#000000"/><text fill="#000000" font-family="sans-serif" font-size="14" font-style="italic" lengthAdjust="spacing" textLength="24" x="1260.5" y="456.8457">Car</text><line style="stroke:#181818;stroke-width:0.5;" x1="1232.5" x2="1286.5" y1="467.5547" y2="467.5547"/><line style="stroke:#181818;stroke-width:0.5;" x1="1232.5" x2="1286.5" y1="475.5547" y2="475.5547"/></g></a><g id="elem_FloatingNote"><path d="M6,50.5547 L6,298.2129 L393,298.2129 L393,60.5547 L383,50.5547 L6,50.5547 " fill="#FEFFDD" style="stroke:#181818;stroke-width:0.5;"/><path d="M383,50.5547 L383,60.5547 L393,60.5547 L383,50.5547 " fill="#FEFFDD" style="stroke:#181818;stroke-width:1.0;"/><text fill="#000000" font-family="sans-serif" font-size="13" lengthAdjust="spacing" textLength="120" x="12" y="68.123">Your are analyzing:</text><text fill="#000000" font-family="sans-serif" font-size="13" lengthAdjust="spacing" textLength="192" x="12" y="83.4336">Examples.BetterDesign.Service</text><text fill="#000000" font-family="sans-serif" font-size="13" font-weight="bold" lengthAdjust="spacing" textLength="55" x="208" y="83.4336">detailed</text><text fill="#000000" font-family="sans-serif" font-size="13" lengthAdjust="spacing" textLength="4" x="263" y="83.4336">&#160;</text><text fill="#000000" font-family="sans-serif" font-size="13" lengthAdjust="spacing" textLength="4" x="12" y="98.7441">&#160;</text><text fill="#000000" font-family="sans-serif" font-size="13" lengthAdjust="spacing" textLength="229" x="12" y="129.3652">You can click either the namespaces</text><text fill="#000000" font-family="sans-serif" font-size="13" lengthAdjust="spacing" textLength="266" x="12" y="144.6758">or class names for filtering them and their</text><text fill="#000000" font-family="sans-serif" font-size="13" lengthAdjust="spacing" textLength="130" x="12" y="159.9863">direct dependencies.</text><text fill="#000000" font-family="sans-serif" font-size="13" lengthAdjust="spacing" textLength="4" x="12" y="175.2969">&#160;</text><line style="stroke:#181818;stroke-width:1.0;" x1="7" x2="183.5" y1="109.1416" y2="109.1416"/><line style="stroke:#181818;stroke-width:1.0;" x1="7" x2="183.5" y1="111.1416" y2="111.1416"/><text fill="#000000" font-family="sans-serif" font-size="13" lengthAdjust="spacing" textLength="32" x="183.5" y="113.5547">Filter</text><line style="stroke:#181818;stroke-width:1.0;" x1="215.5" x2="392" y1="109.1416" y2="109.1416"/><line style="stroke:#181818;stroke-width:1.0;" x1="215.5" x2="392" y1="111.1416" y2="111.1416"/><ellipse cx="17.5" cy="205.1602" fill="#000000" rx="2.5" ry="2.5" style="stroke:#000000;stroke-width:0.0;"/><text fill="#000000" font-family="sans-serif" font-size="13" lengthAdjust="spacing" textLength="192" x="24" y="209.918">Examples.BetterDesign.Service</text><text fill="#000000" font-family="sans-serif" font-size="13" font-weight="bold" lengthAdjust="spacing" textLength="67" x="220" y="209.918">simplified</text><text fill="#000000" font-family="sans-serif" font-size="13" lengthAdjust="spacing" textLength="4" x="291" y="209.918">:</text><text fill="#000000" font-family="sans-serif" font-size="13" lengthAdjust="spacing" textLength="12" x="12" y="225.2285">&#160;&#160;&#160;</text><a href="Examples.BetterDesign.Service-diagram-simplified.svg" target="_top" title="Examples.BetterDesign.Service-diagram-simplified.svg" xlink:actuate="onRequest" xlink:href="Examples.BetterDesign.Service-diagram-simplified.svg" xlink:show="new" xlink:title="Examples.BetterDesign.Service-diagram-simplified.svg" xlink:type="simple"><text fill="#0000FF" font-family="sans-serif" font-size="13" lengthAdjust="spacing" text-decoration="underline" textLength="348" x="24" y="225.2285">Examples.BetterDesign.Service-diagram-simplified.svg</text></a><ellipse cx="17.5" cy="235.7813" fill="#000000" rx="2.5" ry="2.5" style="stroke:#000000;stroke-width:0.0;"/><text fill="#000000" font-family="sans-serif" font-size="13" lengthAdjust="spacing" textLength="78" x="24" y="240.5391">Full diagram</text><text fill="#000000" font-family="sans-serif" font-size="13" font-weight="bold" lengthAdjust="spacing" textLength="55" x="106" y="240.5391">detailed</text><text fill="#000000" font-family="sans-serif" font-size="13" lengthAdjust="spacing" textLength="23" x="165" y="240.5391">and</text><text fill="#000000" font-family="sans-serif" font-size="13" font-weight="bold" lengthAdjust="spacing" textLength="166" x="192" y="240.5391">grouped per namespace</text><text fill="#000000" font-family="sans-serif" font-size="13" lengthAdjust="spacing" textLength="4" x="358" y="240.5391">:</text><text fill="#000000" font-family="sans-serif" font-size="13" lengthAdjust="spacing" textLength="12" x="12" y="255.8496">&#160;&#160;&#160;</text><a href="full-diagram-detailed-grouped-per-namespace.svg" target="_top" title="full-diagram-detailed-grouped-per-namespace.svg" xlink:actuate="onRequest" xlink:href="full-diagram-detailed-grouped-per-namespace.svg" xlink:show="new" xlink:title="full-diagram-detailed-grouped-per-namespace.svg" xlink:type="simple"><text fill="#0000FF" font-family="sans-serif" font-size="13" lengthAdjust="spacing" text-decoration="underline" textLength="330" x="24" y="255.8496">full-diagram-detailed-grouped-per-namespace.svg</text></a><ellipse cx="17.5" cy="266.4023" fill="#000000" rx="2.5" ry="2.5" style="stroke:#000000;stroke-width:0.0;"/><text fill="#000000" font-family="sans-serif" font-size="13" lengthAdjust="spacing" textLength="41" x="24" y="271.1602">Home:</text><text fill="#000000" font-family="sans-serif" font-size="13" lengthAdjust="spacing" textLength="12" x="12" y="286.4707">&#160;&#160;&#160;</text><a href="index.html" target="_top" title="index.html" xlink:actuate="onRequest" xlink:href="index.html" xlink:show="new" xlink:title="index.html" xlink:type="simple"><text fill="#0000FF" font-family="sans-serif" font-size="13" lengthAdjust="spacing" text-decoration="underline" textLength="68" x="24" y="286.4707">index.html</text></a><line style="stroke:#181818;stroke-width:1.0;" x1="7" x2="162.5" y1="189.6943" y2="189.6943"/><line style="stroke:#181818;stroke-width:1.0;" x1="7" x2="162.5" y1="191.6943" y2="191.6943"/><text fill="#000000" font-family="sans-serif" font-size="13" lengthAdjust="spacing" textLength="74" x="162.5" y="194.1074">Select other</text><line style="stroke:#181818;stroke-width:1.0;" x1="236.5" x2="392" y1="189.6943" y2="189.6943"/><line style="stroke:#181818;stroke-width:1.0;" x1="236.5" x2="392" y1="191.6943" y2="191.6943"/></g><!--link Service to Car--><g id="link_Service_Car"><path codeLine="23" d="M1259.5,215.3847 C1259.5,215.3847 1259.5,429.1747 1259.5,429.1747 " fill="none" id="Service-to-Car" style="stroke:#6060BB;stroke-width:1.0;stroke-dasharray:7.0,7.0;"/><polygon fill="#6060BB" points="1259.5,434.1747,1263.5,425.1747,1259.5,429.1747,1255.5,425.1747,1259.5,434.1747" style="stroke:#6060BB;stroke-width:1.0;"/><text fill="#000000" font-family="sans-serif" font-size="13" lengthAdjust="spacing" textLength="29" x="1229.5" y="318.853">uses</text></g><!--link Service to Car--><g id="link_Service_Car"><path codeLine="24" d="M890.5,215.3847 C890.5,215.3847 890.5,388.3047 890.5,388.3047 " fill="none" id="Service-to-Car-1" style="stroke:#6060BB;stroke-width:1.0;stroke-dasharray:7.0,7.0;"/><polygon fill="#6060BB" points="890.5,393.3047,894.5,384.3047,890.5,388.3047,886.5,384.3047,890.5,393.3047" style="stroke:#6060BB;stroke-width:1.0;"/><text fill="#000000" font-family="sans-serif" font-size="13" lengthAdjust="spacing" textLength="29" x="860.5" y="298.413">uses</text></g><!--SRC=[jLN1Rjf04Btp5IDoIElA3keX1mjp80Jrr4Rb44N0OMiFzYhhNMjt8P2g_zvP6p2eG8223yZOyzwRUVjsRLwvB9XcEGWkqIuA1ALjfXgMMu7GDlmTmw-jpkESvOL04tJHMjGzD3oLmG3rZCS8dfUWPLnWuddGldEWJaCgYz1yKLCDJ2CmoSJYdSiq7CaJs4Po9AEepmNLHT584X_4J48iUFmAo6s66kW79ClH52n6GnYbgO0PKps52VsVb1IaxwfpQYTnDroFPC8rnXOIB50cA6DEZLMo0nJkZN8YJjo3Zpetd5xp2Izxfqa1O3Wy2F8Jpb9Q0B-61cQMZiTEhZyL0fO5sxwu_ZqlrMfQO085cR0smFDMmXE2h_bNO7y9yWdahq6rvZULuug0ao7p8BEv68-Rm0pqXMAMJFnEYzi0OB-CrOmigjm-xCwnHgmQhLg2cmKAeTxWD-a1-92Y_Q4Jr9WyCFsfFL6Iv9LGEchUj-vRtMwpKsGBmsCcg23ShVaJ2sMuLNeHKD6onjssxnnXvtC8MypThkDkTavXUwROPsfgy57IRdAfgldhMPxgNdSF4vyun27PIuorDSIVSf0ZWx2NRsyqzYBsXMMP4dTzWRSCKPZmr6wUcBOcU2x16sm6cJsNRE2m6ro9vZFKPvBrIl0ccrBwtCvw3jk8eZMT3x6cRd5l7YkryyK-YE9CyMHpazGP-w-KxTmL9-Pk9ySHIQG1RkcmFkg2gzNUmaFfcaP1HxYI1d1UkadVZubMUVq12Qbsfo-DmmTyCBofGZ8EEXTO70Y17XcubkgMnWNSsIrpFUP_RViB]--></g></svg>