<?xml version="1.0" encoding="us-ascii" standalone="no"?><svg xmlns="http://www.w3.org/2000/svg" xmlns:xlink="http://www.w3.org/1999/xlink" contentStyleType="text/css" height="487px" preserveAspectRatio="none" style="width:867px;height:487px;background:#FFFFFF;" version="1.1" viewBox="0 0 867 487" width="867px" zoomAndPan="magnify"><defs/><g><text fill="#000000" font-family="sans-serif" font-size="20" font-weight="bold" lengthAdjust="spacing" textLength="127" x="314.25" y="29.3359">IConvertible</text><text fill="#000000" font-family="sans-serif" font-size="20" font-weight="bold" lengthAdjust="spacing" textLength="84" x="448.25" y="29.3359">detailed</text><text fill="#000000" font-family="sans-serif" font-size="20" font-weight="bold" lengthAdjust="spacing" textLength="7" x="532.25" y="29.3359">&#160;</text><!--cluster DotNetPreAdapter--><g id="cluster_DotNetPreAdapter"><path d="M207,314.5547 L338,314.5547 A3.75,3.75 0 0 1 340.5,317.0547 L347.5,337.043 L404,337.043 A2.5,2.5 0 0 1 406.5,339.543 L406.5,478.0547 A2.5,2.5 0 0 1 404,480.5547 L207,480.5547 A2.5,2.5 0 0 1 204.5,478.0547 L204.5,317.0547 A2.5,2.5 0 0 1 207,314.5547 " fill="none" style="stroke:#000000;stroke-width:1.5;"/><line style="stroke:#000000;stroke-width:1.5;" x1="204.5" x2="347.5" y1="337.043" y2="337.043"/><text fill="#000000" font-family="sans-serif" font-size="14" font-weight="bold" lengthAdjust="spacing" textLength="130" x="208.5" y="330.0898">DotNetPreAdapter</text></g><!--cluster Utils--><g id="cluster_Utils"><path d="M231,357.5547 L266,357.5547 A3.75,3.75 0 0 1 268.5,360.0547 L275.5,380.043 L380,380.043 A2.5,2.5 0 0 1 382.5,382.543 L382.5,454.0547 A2.5,2.5 0 0 1 380,456.5547 L231,456.5547 A2.5,2.5 0 0 1 228.5,454.0547 L228.5,360.0547 A2.5,2.5 0 0 1 231,357.5547 " fill="none" style="stroke:#000000;stroke-width:1.5;"/><line style="stroke:#000000;stroke-width:1.5;" x1="228.5" x2="275.5" y1="380.043" y2="380.043"/><text fill="#000000" font-family="sans-serif" font-size="14" font-weight="bold" lengthAdjust="spacing" textLength="34" x="232.5" y="373.0898">Utils</text></g><!--cluster MyNamespace--><g id="cluster_MyNamespace"><path d="M433,314.5547 L536,314.5547 A3.75,3.75 0 0 1 538.5,317.0547 L545.5,337.043 L858,337.043 A2.5,2.5 0 0 1 860.5,339.543 L860.5,478.0547 A2.5,2.5 0 0 1 858,480.5547 L433,480.5547 A2.5,2.5 0 0 1 430.5,478.0547 L430.5,317.0547 A2.5,2.5 0 0 1 433,314.5547 " fill="none" style="stroke:#000000;stroke-width:1.5;"/><line style="stroke:#000000;stroke-width:1.5;" x1="430.5" x2="545.5" y1="337.043" y2="337.043"/><text fill="#000000" font-family="sans-serif" font-size="14" font-weight="bold" lengthAdjust="spacing" textLength="102" x="434.5" y="330.0898">MyNamespace</text></g><!--cluster DotNetPreAdapter--><g id="cluster_DotNetPreAdapter"><path d="M457,357.5547 L588,357.5547 A3.75,3.75 0 0 1 590.5,360.0547 L597.5,380.043 L834,380.043 A2.5,2.5 0 0 1 836.5,382.543 L836.5,454.0547 A2.5,2.5 0 0 1 834,456.5547 L457,456.5547 A2.5,2.5 0 0 1 454.5,454.0547 L454.5,360.0547 A2.5,2.5 0 0 1 457,357.5547 " fill="none" style="stroke:#000000;stroke-width:1.5;"/><line style="stroke:#000000;stroke-width:1.5;" x1="454.5" x2="597.5" y1="380.043" y2="380.043"/><text fill="#000000" font-family="sans-serif" font-size="14" font-weight="bold" lengthAdjust="spacing" textLength="130" x="458.5" y="373.0898">DotNetPreAdapter</text></g><!--class LoggingType--><a href="DotNetPreAdapter.Utils.LoggingType-diagram-detailed.svg" target="_top" title="DotNetPreAdapter.Utils.LoggingType-diagram-detailed.svg" xlink:actuate="onRequest" xlink:href="DotNetPreAdapter.Utils.LoggingType-diagram-detailed.svg" xlink:show="new" xlink:title="DotNetPreAdapter.Utils.LoggingType-diagram-detailed.svg" xlink:type="simple"><g id="elem_LoggingType"><rect codeLine="6" fill="#F1F1F1" height="48" id="LoggingType" rx="2.5" ry="2.5" style="stroke:#181818;stroke-width:0.5;" width="121" x="245" y="392.5547"/><ellipse cx="260" cy="408.5547" fill="#A9DCDF" rx="11" ry="11" style="stroke:#181818;stroke-width:1.0;"/><path d="M259.8633,403.9028 L258.7095,408.9746 L261.0254,408.9746 Z M258.3691,401.6616 L261.3657,401.6616 L264.7109,414.0547 L262.2622,414.0547 L261.4985,410.9917 L258.2197,410.9917 L257.4727,414.0547 L255.0239,414.0547 Z " fill="#000000"/><text fill="#000000" font-family="sans-serif" font-size="14" font-style="italic" lengthAdjust="spacing" textLength="89" x="274" y="413.8457">LoggingType</text><line style="stroke:#181818;stroke-width:0.5;" x1="246" x2="365" y1="424.5547" y2="424.5547"/><line style="stroke:#181818;stroke-width:0.5;" x1="246" x2="365" y1="432.5547" y2="432.5547"/></g></a><!--class InnerClass_DOT_InnerTestUnusedInInnerClass--><a href="MyNamespace.DotNetPreAdapter.InnerClass.InnerTestUnusedInInnerClass-diagram-detailed.svg" target="_top" title="MyNamespace.DotNetPreAdapter.InnerClass.InnerTestUnusedInInnerClass-diagram-detailed.svg" xlink:actuate="onRequest" xlink:href="MyNamespace.DotNetPreAdapter.InnerClass.InnerTestUnusedInInnerClass-diagram-detailed.svg" xlink:show="new" xlink:title="MyNamespace.DotNetPreAdapter.InnerClass.InnerTestUnusedInInnerClass-diagram-detailed.svg" xlink:type="simple"><g id="elem_InnerClass_DOT_InnerTestUnusedInInnerClass"><rect codeLine="8" fill="#F1F1F1" height="48" id="InnerClass_DOT_InnerTestUnusedInInnerClass" rx="2.5" ry="2.5" style="stroke:#181818;stroke-width:0.5;" width="350" x="470.5" y="392.5547"/><ellipse cx="485.5" cy="408.5547" fill="#A9DCDF" rx="11" ry="11" style="stroke:#181818;stroke-width:1.0;"/><path d="M485.3633,403.9028 L484.2095,408.9746 L486.5254,408.9746 Z M483.8691,401.6616 L486.8657,401.6616 L490.2109,414.0547 L487.7622,414.0547 L486.9985,410.9917 L483.7197,410.9917 L482.9727,414.0547 L480.5239,414.0547 Z " fill="#000000"/><text fill="#000000" font-family="sans-serif" font-size="14" font-style="italic" lengthAdjust="spacing" textLength="318" x="499.5" y="413.8457">InnerClass_DOT_InnerTestUnusedInInnerClass</text><line style="stroke:#181818;stroke-width:0.5;" x1="471.5" x2="819.5" y1="424.5547" y2="424.5547"/><line style="stroke:#181818;stroke-width:0.5;" x1="471.5" x2="819.5" y1="432.5547" y2="432.5547"/></g></a><g id="elem_FloatingNote"><path d="M6,50.5547 L6,298.2129 L383,298.2129 L383,60.5547 L373,50.5547 L6,50.5547 " fill="#FEFFDD" style="stroke:#181818;stroke-width:0.5;"/><path d="M373,50.5547 L373,60.5547 L383,60.5547 L373,50.5547 " fill="#FEFFDD" style="stroke:#181818;stroke-width:1.0;"/><text fill="#000000" font-family="sans-serif" font-size="13" lengthAdjust="spacing" textLength="120" x="12" y="68.123">Your are analyzing:</text><text fill="#000000" font-family="sans-serif" font-size="13" lengthAdjust="spacing" textLength="76" x="12" y="83.4336">IConvertible</text><text fill="#000000" font-family="sans-serif" font-size="13" font-weight="bold" lengthAdjust="spacing" textLength="55" x="92" y="83.4336">detailed</text><text fill="#000000" font-family="sans-serif" font-size="13" lengthAdjust="spacing" textLength="4" x="147" y="83.4336">&#160;</text><text fill="#000000" font-family="sans-serif" font-size="13" lengthAdjust="spacing" textLength="4" x="12" y="98.7441">&#160;</text><text fill="#000000" font-family="sans-serif" font-size="13" lengthAdjust="spacing" textLength="229" x="12" y="129.3652">You can click either the namespaces</text><text fill="#000000" font-family="sans-serif" font-size="13" lengthAdjust="spacing" textLength="266" x="12" y="144.6758">or class names for filtering them and their</text><text fill="#000000" font-family="sans-serif" font-size="13" lengthAdjust="spacing" textLength="130" x="12" y="159.9863">direct dependencies.</text><text fill="#000000" font-family="sans-serif" font-size="13" lengthAdjust="spacing" textLength="4" x="12" y="175.2969">&#160;</text><line style="stroke:#181818;stroke-width:1.0;" x1="7" x2="178.5" y1="109.1416" y2="109.1416"/><line style="stroke:#181818;stroke-width:1.0;" x1="7" x2="178.5" y1="111.1416" y2="111.1416"/><text fill="#000000" font-family="sans-serif" font-size="13" lengthAdjust="spacing" textLength="32" x="178.5" y="113.5547">Filter</text><line style="stroke:#181818;stroke-width:1.0;" x1="210.5" x2="382" y1="109.1416" y2="109.1416"/><line style="stroke:#181818;stroke-width:1.0;" x1="210.5" x2="382" y1="111.1416" y2="111.1416"/><ellipse cx="17.5" cy="205.1602" fill="#000000" rx="2.5" ry="2.5" style="stroke:#000000;stroke-width:0.0;"/><text fill="#000000" font-family="sans-serif" font-size="13" lengthAdjust="spacing" textLength="76" x="24" y="209.918">IConvertible</text><text fill="#000000" font-family="sans-serif" font-size="13" font-weight="bold" lengthAdjust="spacing" textLength="67" x="104" y="209.918">simplified</text><text fill="#000000" font-family="sans-serif" font-size="13" lengthAdjust="spacing" textLength="4" x="175" y="209.918">:</text><text fill="#000000" font-family="sans-serif" font-size="13" lengthAdjust="spacing" textLength="12" x="12" y="225.2285">&#160;&#160;&#160;</text><a href="IConvertible-diagram-simplified.svg" target="_top" title="IConvertible-diagram-simplified.svg" xlink:actuate="onRequest" xlink:href="IConvertible-diagram-simplified.svg" xlink:show="new" xlink:title="IConvertible-diagram-simplified.svg" xlink:type="simple"><text fill="#0000FF" font-family="sans-serif" font-size="13" lengthAdjust="spacing" text-decoration="underline" textLength="232" x="24" y="225.2285">IConvertible-diagram-simplified.svg</text></a><ellipse cx="17.5" cy="235.7813" fill="#000000" rx="2.5" ry="2.5" style="stroke:#000000;stroke-width:0.0;"/><text fill="#000000" font-family="sans-serif" font-size="13" lengthAdjust="spacing" textLength="78" x="24" y="240.5391">Full diagram</text><text fill="#000000" font-family="sans-serif" font-size="13" font-weight="bold" lengthAdjust="spacing" textLength="55" x="106" y="240.5391">detailed</text><text fill="#000000" font-family="sans-serif" font-size="13" lengthAdjust="spacing" textLength="23" x="165" y="240.5391">and</text><text fill="#000000" font-family="sans-serif" font-size="13" font-weight="bold" lengthAdjust="spacing" textLength="166" x="192" y="240.5391">grouped per namespace</text><text fill="#000000" font-family="sans-serif" font-size="13" lengthAdjust="spacing" textLength="4" x="358" y="240.5391">:</text><text fill="#000000" font-family="sans-serif" font-size="13" lengthAdjust="spacing" textLength="12" x="12" y="255.8496">&#160;&#160;&#160;</text><a href="full-diagram-detailed-grouped-per-namespace.svg" target="_top" title="full-diagram-detailed-grouped-per-namespace.svg" xlink:actuate="onRequest" xlink:href="full-diagram-detailed-grouped-per-namespace.svg" xlink:show="new" xlink:title="full-diagram-detailed-grouped-per-namespace.svg" xlink:type="simple"><text fill="#0000FF" font-family="sans-serif" font-size="13" lengthAdjust="spacing" text-decoration="underline" textLength="330" x="24" y="255.8496">full-diagram-detailed-grouped-per-namespace.svg</text></a><ellipse cx="17.5" cy="266.4023" fill="#000000" rx="2.5" ry="2.5" style="stroke:#000000;stroke-width:0.0;"/><text fill="#000000" font-family="sans-serif" font-size="13" lengthAdjust="spacing" textLength="41" x="24" y="271.1602">Home:</text><text fill="#000000" font-family="sans-serif" font-size="13" lengthAdjust="spacing" textLength="12" x="12" y="286.4707">&#160;&#160;&#160;</text><a href="index.html" target="_top" title="index.html" xlink:actuate="onRequest" xlink:href="index.html" xlink:show="new" xlink:title="index.html" xlink:type="simple"><text fill="#0000FF" font-family="sans-serif" font-size="13" lengthAdjust="spacing" text-decoration="underline" textLength="68" x="24" y="286.4707">index.html</text></a><line style="stroke:#181818;stroke-width:1.0;" x1="7" x2="157.5" y1="189.6943" y2="189.6943"/><line style="stroke:#181818;stroke-width:1.0;" x1="7" x2="157.5" y1="191.6943" y2="191.6943"/><text fill="#000000" font-family="sans-serif" font-size="13" lengthAdjust="spacing" textLength="74" x="157.5" y="194.1074">Select other</text><line style="stroke:#181818;stroke-width:1.0;" x1="231.5" x2="382" y1="189.6943" y2="189.6943"/><line style="stroke:#181818;stroke-width:1.0;" x1="231.5" x2="382" y1="191.6943" y2="191.6943"/></g><!--class IConvertible--><a href="IConvertible-diagram-detailed.svg" target="_top" title="IConvertible-diagram-detailed.svg" xlink:actuate="onRequest" xlink:href="IConvertible-diagram-detailed.svg" xlink:show="new" xlink:title="IConvertible-diagram-detailed.svg" xlink:type="simple"><g id="elem_IConvertible"><rect codeLine="4" fill="#FFFF00" height="48" id="IConvertible" rx="2.5" ry="2.5" style="stroke:#181818;stroke-width:0.5;" width="115" x="418" y="150.5547"/><ellipse cx="433" cy="166.5547" fill="#ADD1B2" rx="11" ry="11" style="stroke:#181818;stroke-width:1.0;"/><path d="M435.4731,172.6978 Q434.8921,172.9966 434.2529,173.146 Q433.6138,173.2954 432.9082,173.2954 Q430.4014,173.2954 429.0815,171.6436 Q427.7617,169.9917 427.7617,166.8706 Q427.7617,163.7412 429.0815,162.0894 Q430.4014,160.4375 432.9082,160.4375 Q433.6138,160.4375 434.2612,160.5869 Q434.9087,160.7363 435.4731,161.0352 L435.4731,163.7578 Q434.8423,163.1768 434.2488,162.907 Q433.6553,162.6372 433.0244,162.6372 Q431.6797,162.6372 430.9949,163.7039 Q430.3101,164.7705 430.3101,166.8706 Q430.3101,168.9624 430.9949,170.0291 Q431.6797,171.0957 433.0244,171.0957 Q433.6553,171.0957 434.2488,170.8259 Q434.8423,170.5562 435.4731,169.9751 Z " fill="#000000"/><text fill="#000000" font-family="sans-serif" font-size="14" lengthAdjust="spacing" textLength="83" x="447" y="171.8457">IConvertible</text><line style="stroke:#181818;stroke-width:0.5;" x1="419" x2="532" y1="182.5547" y2="182.5547"/><line style="stroke:#181818;stroke-width:0.5;" x1="419" x2="532" y1="190.5547" y2="190.5547"/></g></a><!--reverse link IConvertible to LoggingType--><g id="link_IConvertible_LoggingType"><path codeLine="17" d="M444.25,219.6447 C444.25,219.6447 444.25,416.5547 444.25,416.5547 C444.25,416.5547 403.64,416.5547 366.36,416.5547 " fill="none" id="IConvertible-backto-LoggingType" style="stroke:#FF0000;stroke-width:1.0;"/><polygon fill="none" points="437.25,219.6447,444.25,199.6447,451.25,219.6447,437.25,219.6447" style="stroke:#FF0000;stroke-width:1.0;"/></g><!--reverse link IConvertible to InnerClass_DOT_InnerTestUnusedInInnerClass--><g id="link_IConvertible_InnerClass_DOT_InnerTestUnusedInInnerClass"><path codeLine="20" d="M501.75,219.6447 C501.75,219.6447 501.75,392.2047 501.75,392.2047 " fill="none" id="IConvertible-backto-InnerClass_DOT_InnerTestUnusedInInnerClass" style="stroke:#FF0000;stroke-width:1.0;"/><polygon fill="none" points="494.75,219.6447,501.75,199.6447,508.75,219.6447,494.75,219.6447" style="stroke:#FF0000;stroke-width:1.0;"/></g><!--SRC=[jLBVQzim47xtNt6q3mM1tR77a1HAIrXWomPB7uPjYcgT7L7vP2IbQxhjVzyfRf9bRTeKDZyOI_v-t7Tt_bPJ9vrimMZ2iEmGh0jpcmGT3CBGwmSSl7ztDhcmT8Skw1k-5K9XaDgW4WA6fn5pbf0D24VVxCA1T0YIf5a-Q6e61Uqd5rJGQ3JM9g0RZGfYEbIIe3AwkWNKOOuE-0KaM_IThD0pnpe6IE_xMwZvNAyas2wYMtPNyKExWfHsM0LGs24ff4gZpthRhsZY7njDehc0lmhrkksChlMgLCu107d-9oPLMZRSl7IBpFnTKvPHRBmm1Xu1kwbZTK8qpYuwLD1nn4qy8TO-DTCt-cjo-aXAcPHkI5lF3xR5jO3ckFVPFBIcB8z0UXWRAmEtQCgJIle6xWJUastjtRl0yHADiT_XH_8h0P0tFZZ9NUprBcsOOlZYy5p9ZWUINGLjVFRHDWqRp-9wvVdhe7tUR0hmZEsdvNJJYoVg4o9q5n5tVVbvThqwpj27ArfuL1FQ_kVQ3bJANb1vhVWJdlr13_mtx0dqUHqQtWXB7l1-rKzUnzhPThkF0yQ-4VxyU9ETLHl-JFDZXwfC3rYPD_g_DCAzLVoZ3VeD]--></g></svg>