<?xml version="1.0" encoding="us-ascii" standalone="no"?><svg xmlns="http://www.w3.org/2000/svg" xmlns:xlink="http://www.w3.org/1999/xlink" contentStyleType="text/css" height="487px" preserveAspectRatio="none" style="width:915px;height:487px;background:#FFFFFF;" version="1.1" viewBox="0 0 915 487" width="915px" zoomAndPan="magnify"><defs/><g><text fill="#000000" font-family="sans-serif" font-size="20" font-weight="bold" lengthAdjust="spacing" textLength="127" x="181" y="29.3359">IConvertible</text><text fill="#000000" font-family="sans-serif" font-size="20" font-weight="bold" lengthAdjust="spacing" textLength="104" x="315" y="29.3359">simplified</text><text fill="#000000" font-family="sans-serif" font-size="20" font-weight="bold" lengthAdjust="spacing" textLength="38" x="426" y="29.3359">and</text><text fill="#000000" font-family="sans-serif" font-size="20" font-weight="bold" lengthAdjust="spacing" textLength="249" x="471" y="29.3359">grouped per namespace</text><!--cluster DotNetPreAdapter--><g id="cluster_DotNetPreAdapter"><a href="DotNetPreAdapter-diagram-simplified-grouped-per-namespace.svg" target="_top" title="DotNetPreAdapter-diagram-simplified-grouped-per-namespace.svg" xlink:actuate="onRequest" xlink:href="DotNetPreAdapter-diagram-simplified-grouped-per-namespace.svg" xlink:show="new" xlink:title="DotNetPreAdapter-diagram-simplified-grouped-per-namespace.svg" xlink:type="simple"><path d="M254.5,314.5547 L385.5,314.5547 A3.75,3.75 0 0 1 388,317.0547 L395,337.043 L451.5,337.043 A2.5,2.5 0 0 1 454,339.543 L454,478.0547 A2.5,2.5 0 0 1 451.5,480.5547 L254.5,480.5547 A2.5,2.5 0 0 1 252,478.0547 L252,317.0547 A2.5,2.5 0 0 1 254.5,314.5547 " fill="none" style="stroke:#000000;stroke-width:1.5;"/><line style="stroke:#000000;stroke-width:1.5;" x1="252" x2="395" y1="337.043" y2="337.043"/><text fill="#000000" font-family="sans-serif" font-size="14" font-weight="bold" lengthAdjust="spacing" textLength="130" x="256" y="330.0898">DotNetPreAdapter</text></a></g><!--cluster Utils--><g id="cluster_Utils"><a href="DotNetPreAdapter.Utils-diagram-simplified-grouped-per-namespace.svg" target="_top" title="DotNetPreAdapter.Utils-diagram-simplified-grouped-per-namespace.svg" xlink:actuate="onRequest" xlink:href="DotNetPreAdapter.Utils-diagram-simplified-grouped-per-namespace.svg" xlink:show="new" xlink:title="DotNetPreAdapter.Utils-diagram-simplified-grouped-per-namespace.svg" xlink:type="simple"><path d="M278.5,357.5547 L313.5,357.5547 A3.75,3.75 0 0 1 316,360.0547 L323,380.043 L427.5,380.043 A2.5,2.5 0 0 1 430,382.543 L430,454.0547 A2.5,2.5 0 0 1 427.5,456.5547 L278.5,456.5547 A2.5,2.5 0 0 1 276,454.0547 L276,360.0547 A2.5,2.5 0 0 1 278.5,357.5547 " fill="none" style="stroke:#000000;stroke-width:1.5;"/><line style="stroke:#000000;stroke-width:1.5;" x1="276" x2="323" y1="380.043" y2="380.043"/><text fill="#000000" font-family="sans-serif" font-size="14" font-weight="bold" lengthAdjust="spacing" textLength="34" x="280" y="373.0898">Utils</text></a></g><!--cluster MyNamespace--><g id="cluster_MyNamespace"><a href="MyNamespace-diagram-simplified-grouped-per-namespace.svg" target="_top" title="MyNamespace-diagram-simplified-grouped-per-namespace.svg" xlink:actuate="onRequest" xlink:href="MyNamespace-diagram-simplified-grouped-per-namespace.svg" xlink:show="new" xlink:title="MyNamespace-diagram-simplified-grouped-per-namespace.svg" xlink:type="simple"><path d="M480.5,314.5547 L583.5,314.5547 A3.75,3.75 0 0 1 586,317.0547 L593,337.043 L905.5,337.043 A2.5,2.5 0 0 1 908,339.543 L908,478.0547 A2.5,2.5 0 0 1 905.5,480.5547 L480.5,480.5547 A2.5,2.5 0 0 1 478,478.0547 L478,317.0547 A2.5,2.5 0 0 1 480.5,314.5547 " fill="none" style="stroke:#000000;stroke-width:1.5;"/><line style="stroke:#000000;stroke-width:1.5;" x1="478" x2="593" y1="337.043" y2="337.043"/><text fill="#000000" font-family="sans-serif" font-size="14" font-weight="bold" lengthAdjust="spacing" textLength="102" x="482" y="330.0898">MyNamespace</text></a></g><!--cluster DotNetPreAdapter--><g id="cluster_DotNetPreAdapter"><a href="MyNamespace.DotNetPreAdapter-diagram-simplified-grouped-per-namespace.svg" target="_top" title="MyNamespace.DotNetPreAdapter-diagram-simplified-grouped-per-namespace.svg" xlink:actuate="onRequest" xlink:href="MyNamespace.DotNetPreAdapter-diagram-simplified-grouped-per-namespace.svg" xlink:show="new" xlink:title="MyNamespace.DotNetPreAdapter-diagram-simplified-grouped-per-namespace.svg" xlink:type="simple"><path d="M504.5,357.5547 L635.5,357.5547 A3.75,3.75 0 0 1 638,360.0547 L645,380.043 L881.5,380.043 A2.5,2.5 0 0 1 884,382.543 L884,454.0547 A2.5,2.5 0 0 1 881.5,456.5547 L504.5,456.5547 A2.5,2.5 0 0 1 502,454.0547 L502,360.0547 A2.5,2.5 0 0 1 504.5,357.5547 " fill="none" style="stroke:#000000;stroke-width:1.5;"/><line style="stroke:#000000;stroke-width:1.5;" x1="502" x2="645" y1="380.043" y2="380.043"/><text fill="#000000" font-family="sans-serif" font-size="14" font-weight="bold" lengthAdjust="spacing" textLength="130" x="506" y="373.0898">DotNetPreAdapter</text></a></g><!--class LoggingType--><a href="DotNetPreAdapter.Utils.LoggingType-diagram-simplified-grouped-per-namespace.svg" target="_top" title="DotNetPreAdapter.Utils.LoggingType-diagram-simplified-grouped-per-namespace.svg" xlink:actuate="onRequest" xlink:href="DotNetPreAdapter.Utils.LoggingType-diagram-simplified-grouped-per-namespace.svg" xlink:show="new" xlink:title="DotNetPreAdapter.Utils.LoggingType-diagram-simplified-grouped-per-namespace.svg" xlink:type="simple"><g id="elem_LoggingType"><rect codeLine="9" fill="#F1F1F1" height="48" id="LoggingType" rx="2.5" ry="2.5" style="stroke:#181818;stroke-width:0.5;" width="121" x="292.5" y="392.5547"/><ellipse cx="307.5" cy="408.5547" fill="#A9DCDF" rx="11" ry="11" style="stroke:#181818;stroke-width:1.0;"/><path d="M307.3633,403.9028 L306.2095,408.9746 L308.5254,408.9746 Z M305.8691,401.6616 L308.8657,401.6616 L312.2109,414.0547 L309.7622,414.0547 L308.9985,410.9917 L305.7197,410.9917 L304.9727,414.0547 L302.5239,414.0547 Z " fill="#000000"/><text fill="#000000" font-family="sans-serif" font-size="14" font-style="italic" lengthAdjust="spacing" textLength="89" x="321.5" y="413.8457">LoggingType</text><line style="stroke:#181818;stroke-width:0.5;" x1="293.5" x2="412.5" y1="424.5547" y2="424.5547"/><line style="stroke:#181818;stroke-width:0.5;" x1="293.5" x2="412.5" y1="432.5547" y2="432.5547"/></g></a><!--class InnerClass_DOT_InnerTestUnusedInInnerClass--><a href="MyNamespace.DotNetPreAdapter.InnerClass.InnerTestUnusedInInnerClass-diagram-simplified-grouped-per-namespace.svg" target="_top" title="MyNamespace.DotNetPreAdapter.InnerClass.InnerTestUnusedInInnerClass-diagram-simplified-grouped-per-namespace.svg" xlink:actuate="onRequest" xlink:href="MyNamespace.DotNetPreAdapter.InnerClass.InnerTestUnusedInInnerClass-diagram-simplified-grouped-per-namespace.svg" xlink:show="new" xlink:title="MyNamespace.DotNetPreAdapter.InnerClass.InnerTestUnusedInInnerClass-diagram-simplified-grouped-per-namespace.svg" xlink:type="simple"><g id="elem_InnerClass_DOT_InnerTestUnusedInInnerClass"><rect codeLine="19" fill="#F1F1F1" height="48" id="InnerClass_DOT_InnerTestUnusedInInnerClass" rx="2.5" ry="2.5" style="stroke:#181818;stroke-width:0.5;" width="350" x="518" y="392.5547"/><ellipse cx="533" cy="408.5547" fill="#A9DCDF" rx="11" ry="11" style="stroke:#181818;stroke-width:1.0;"/><path d="M532.8633,403.9028 L531.7095,408.9746 L534.0254,408.9746 Z M531.3691,401.6616 L534.3657,401.6616 L537.7109,414.0547 L535.2622,414.0547 L534.4985,410.9917 L531.2197,410.9917 L530.4727,414.0547 L528.0239,414.0547 Z " fill="#000000"/><text fill="#000000" font-family="sans-serif" font-size="14" font-style="italic" lengthAdjust="spacing" textLength="318" x="547" y="413.8457">InnerClass_DOT_InnerTestUnusedInInnerClass</text><line style="stroke:#181818;stroke-width:0.5;" x1="519" x2="867" y1="424.5547" y2="424.5547"/><line style="stroke:#181818;stroke-width:0.5;" x1="519" x2="867" y1="432.5547" y2="432.5547"/></g></a><g id="elem_FloatingNote"><path d="M6,50.5547 L6,298.2129 L430,298.2129 L430,60.5547 L420,50.5547 L6,50.5547 " fill="#FEFFDD" style="stroke:#181818;stroke-width:0.5;"/><path d="M420,50.5547 L420,60.5547 L430,60.5547 L420,50.5547 " fill="#FEFFDD" style="stroke:#181818;stroke-width:1.0;"/><text fill="#000000" font-family="sans-serif" font-size="13" lengthAdjust="spacing" textLength="120" x="12" y="68.123">Your are analyzing:</text><text fill="#000000" font-family="sans-serif" font-size="13" lengthAdjust="spacing" textLength="76" x="12" y="83.4336">IConvertible</text><text fill="#000000" font-family="sans-serif" font-size="13" font-weight="bold" lengthAdjust="spacing" textLength="67" x="92" y="83.4336">simplified</text><text fill="#000000" font-family="sans-serif" font-size="13" lengthAdjust="spacing" textLength="23" x="163" y="83.4336">and</text><text fill="#000000" font-family="sans-serif" font-size="13" font-weight="bold" lengthAdjust="spacing" textLength="166" x="190" y="83.4336">grouped per namespace</text><text fill="#000000" font-family="sans-serif" font-size="13" lengthAdjust="spacing" textLength="4" x="12" y="98.7441">&#160;</text><text fill="#000000" font-family="sans-serif" font-size="13" lengthAdjust="spacing" textLength="229" x="12" y="129.3652">You can click either the namespaces</text><text fill="#000000" font-family="sans-serif" font-size="13" lengthAdjust="spacing" textLength="266" x="12" y="144.6758">or class names for filtering them and their</text><text fill="#000000" font-family="sans-serif" font-size="13" lengthAdjust="spacing" textLength="130" x="12" y="159.9863">direct dependencies.</text><text fill="#000000" font-family="sans-serif" font-size="13" lengthAdjust="spacing" textLength="4" x="12" y="175.2969">&#160;</text><line style="stroke:#181818;stroke-width:1.0;" x1="7" x2="202" y1="109.1416" y2="109.1416"/><line style="stroke:#181818;stroke-width:1.0;" x1="7" x2="202" y1="111.1416" y2="111.1416"/><text fill="#000000" font-family="sans-serif" font-size="13" lengthAdjust="spacing" textLength="32" x="202" y="113.5547">Filter</text><line style="stroke:#181818;stroke-width:1.0;" x1="234" x2="429" y1="109.1416" y2="109.1416"/><line style="stroke:#181818;stroke-width:1.0;" x1="234" x2="429" y1="111.1416" y2="111.1416"/><ellipse cx="17.5" cy="205.1602" fill="#000000" rx="2.5" ry="2.5" style="stroke:#000000;stroke-width:0.0;"/><text fill="#000000" font-family="sans-serif" font-size="13" lengthAdjust="spacing" textLength="76" x="24" y="209.918">IConvertible</text><text fill="#000000" font-family="sans-serif" font-size="13" font-weight="bold" lengthAdjust="spacing" textLength="55" x="104" y="209.918">detailed</text><text fill="#000000" font-family="sans-serif" font-size="13" lengthAdjust="spacing" textLength="23" x="163" y="209.918">and</text><text fill="#000000" font-family="sans-serif" font-size="13" font-weight="bold" lengthAdjust="spacing" textLength="166" x="190" y="209.918">grouped per namespace</text><text fill="#000000" font-family="sans-serif" font-size="13" lengthAdjust="spacing" textLength="4" x="356" y="209.918">:</text><text fill="#000000" font-family="sans-serif" font-size="13" lengthAdjust="spacing" textLength="12" x="12" y="225.2285">&#160;&#160;&#160;</text><a href="IConvertible-diagram-detailed-grouped-per-namespace.svg" target="_top" title="IConvertible-diagram-detailed-grouped-per-namespace.svg" xlink:actuate="onRequest" xlink:href="IConvertible-diagram-detailed-grouped-per-namespace.svg" xlink:show="new" xlink:title="IConvertible-diagram-detailed-grouped-per-namespace.svg" xlink:type="simple"><text fill="#0000FF" font-family="sans-serif" font-size="13" lengthAdjust="spacing" text-decoration="underline" textLength="385" x="24" y="225.2285">IConvertible-diagram-detailed-grouped-per-namespace.svg</text></a><ellipse cx="17.5" cy="235.7813" fill="#000000" rx="2.5" ry="2.5" style="stroke:#000000;stroke-width:0.0;"/><text fill="#000000" font-family="sans-serif" font-size="13" lengthAdjust="spacing" textLength="78" x="24" y="240.5391">Full diagram</text><text fill="#000000" font-family="sans-serif" font-size="13" font-weight="bold" lengthAdjust="spacing" textLength="67" x="106" y="240.5391">simplified</text><text fill="#000000" font-family="sans-serif" font-size="13" lengthAdjust="spacing" textLength="23" x="177" y="240.5391">and</text><text fill="#000000" font-family="sans-serif" font-size="13" font-weight="bold" lengthAdjust="spacing" textLength="166" x="204" y="240.5391">grouped per namespace</text><text fill="#000000" font-family="sans-serif" font-size="13" lengthAdjust="spacing" textLength="4" x="370" y="240.5391">:</text><text fill="#000000" font-family="sans-serif" font-size="13" lengthAdjust="spacing" textLength="12" x="12" y="255.8496">&#160;&#160;&#160;</text><a href="full-diagram-simplified-grouped-per-namespace.svg" target="_top" title="full-diagram-simplified-grouped-per-namespace.svg" xlink:actuate="onRequest" xlink:href="full-diagram-simplified-grouped-per-namespace.svg" xlink:show="new" xlink:title="full-diagram-simplified-grouped-per-namespace.svg" xlink:type="simple"><text fill="#0000FF" font-family="sans-serif" font-size="13" lengthAdjust="spacing" text-decoration="underline" textLength="343" x="24" y="255.8496">full-diagram-simplified-grouped-per-namespace.svg</text></a><ellipse cx="17.5" cy="266.4023" fill="#000000" rx="2.5" ry="2.5" style="stroke:#000000;stroke-width:0.0;"/><text fill="#000000" font-family="sans-serif" font-size="13" lengthAdjust="spacing" textLength="41" x="24" y="271.1602">Home:</text><text fill="#000000" font-family="sans-serif" font-size="13" lengthAdjust="spacing" textLength="12" x="12" y="286.4707">&#160;&#160;&#160;</text><a href="index.html" target="_top" title="index.html" xlink:actuate="onRequest" xlink:href="index.html" xlink:show="new" xlink:title="index.html" xlink:type="simple"><text fill="#0000FF" font-family="sans-serif" font-size="13" lengthAdjust="spacing" text-decoration="underline" textLength="68" x="24" y="286.4707">index.html</text></a><line style="stroke:#181818;stroke-width:1.0;" x1="7" x2="181" y1="189.6943" y2="189.6943"/><line style="stroke:#181818;stroke-width:1.0;" x1="7" x2="181" y1="191.6943" y2="191.6943"/><text fill="#000000" font-family="sans-serif" font-size="13" lengthAdjust="spacing" textLength="74" x="181" y="194.1074">Select other</text><line style="stroke:#181818;stroke-width:1.0;" x1="255" x2="429" y1="189.6943" y2="189.6943"/><line style="stroke:#181818;stroke-width:1.0;" x1="255" x2="429" y1="191.6943" y2="191.6943"/></g><!--class IConvertible--><a href="IConvertible-diagram-simplified-grouped-per-namespace.svg" target="_top" title="IConvertible-diagram-simplified-grouped-per-namespace.svg" xlink:actuate="onRequest" xlink:href="IConvertible-diagram-simplified-grouped-per-namespace.svg" xlink:show="new" xlink:title="IConvertible-diagram-simplified-grouped-per-namespace.svg" xlink:type="simple"><g id="elem_IConvertible"><rect codeLine="4" fill="#FFFF00" height="48" id="IConvertible" rx="2.5" ry="2.5" style="stroke:#181818;stroke-width:0.5;" width="115" x="465.5" y="150.5547"/><ellipse cx="480.5" cy="166.5547" fill="#ADD1B2" rx="11" ry="11" style="stroke:#181818;stroke-width:1.0;"/><path d="M482.9731,172.6978 Q482.3921,172.9966 481.7529,173.146 Q481.1138,173.2954 480.4082,173.2954 Q477.9014,173.2954 476.5815,171.6436 Q475.2617,169.9917 475.2617,166.8706 Q475.2617,163.7412 476.5815,162.0894 Q477.9014,160.4375 480.4082,160.4375 Q481.1138,160.4375 481.7612,160.5869 Q482.4087,160.7363 482.9731,161.0352 L482.9731,163.7578 Q482.3423,163.1768 481.7488,162.907 Q481.1553,162.6372 480.5244,162.6372 Q479.1797,162.6372 478.4949,163.7039 Q477.8101,164.7705 477.8101,166.8706 Q477.8101,168.9624 478.4949,170.0291 Q479.1797,171.0957 480.5244,171.0957 Q481.1553,171.0957 481.7488,170.8259 Q482.3423,170.5562 482.9731,169.9751 Z " fill="#000000"/><text fill="#000000" font-family="sans-serif" font-size="14" lengthAdjust="spacing" textLength="83" x="494.5" y="171.8457">IConvertible</text><line style="stroke:#181818;stroke-width:0.5;" x1="466.5" x2="579.5" y1="182.5547" y2="182.5547"/><line style="stroke:#181818;stroke-width:0.5;" x1="466.5" x2="579.5" y1="190.5547" y2="190.5547"/></g></a><!--reverse link IConvertible to LoggingType--><g id="link_IConvertible_LoggingType"><path codeLine="34" d="M491.75,219.6447 C491.75,219.6447 491.75,416.5547 491.75,416.5547 C491.75,416.5547 451.14,416.5547 413.86,416.5547 " fill="none" id="IConvertible-backto-LoggingType" style="stroke:#FF0000;stroke-width:1.0;"/><polygon fill="none" points="484.75,219.6447,491.75,199.6447,498.75,219.6447,484.75,219.6447" style="stroke:#FF0000;stroke-width:1.0;"/></g><!--reverse link IConvertible to InnerClass_DOT_InnerTestUnusedInInnerClass--><g id="link_IConvertible_InnerClass_DOT_InnerTestUnusedInInnerClass"><path codeLine="37" d="M549.25,219.6447 C549.25,219.6447 549.25,392.2047 549.25,392.2047 " fill="none" id="IConvertible-backto-InnerClass_DOT_InnerTestUnusedInInnerClass" style="stroke:#FF0000;stroke-width:1.0;"/><polygon fill="none" points="542.25,219.6447,549.25,199.6447,556.25,219.6447,542.25,219.6447" style="stroke:#FF0000;stroke-width:1.0;"/></g><!--SRC=[pLLTQzim57tthxYq3mM3lR77a1HAIbXWomPh7qOSWc9VEwAoP2GvRThjl-_Q-R1Jd0zlQLammPRkFUVUeoF9F72PCSrI45oYNMO8IjkvSYot0g5h-3DsFdsy7lQLNA2sV4QZhcjucWaUSunS5vYCQ2ZHAiymWWmrI9QYoLY8hjlzK41SEr9PX8kVAjV0D58E4yjdBfDE8FyQEv21xFK6N5ZKlLuW2Hr29Y4KF7m0v7PEyVHNvHW8fD8Km8nPZK9Ctt49GTKKqMb9IYzS1pBY6aCB4MOe8vGXH-ElQ7-WA6PKGLAGk_2gZmWju-9u5wG008p7zNGluYoXLV4s8DuwsQDaRvlicqKocHJSWrm8M2Urqd337XF0bhLAFyRxMQMuWU2aq9C_jwcOJ2w06HW8nIofEgArTrQQxsYqf-VJsE5oYKAeHtXnVZjNq1VA50l8I8TCuuAht4nDFfjkqwQ26rkr3YCb4MOOijnWuO2rAGqtG4_C9JTpZ7odohXLTeJskyQRY6La66hWzL3R9buEmFltbWlJGBAQQ4y5m6R6QaQsNQr6Cx3_HIK9QNbNd0RxsEj1RIifIw55wwkKpXxovFjf08zqAW0rRu7sRugITd0CPJLlQA4Akyejwz-nxduLAAoQ_BeSRT_7uzhNltYl1kCtsFpGz1byU0ZU7qg9kb_4JM-_tKtBppiqzbwIwj5GLlD72gqX-GTGpkZczrJr_t5sWtkRmchTKmHSqHrrqW_UBBQeih2HHa7tbf86yAcqAIrgh5LQ5T-Xs9RXpGUOitCXTdzvuqkoqCGxuMXkoN_8R7khEDF6_0C0]--></g></svg>