<?xml version="1.0" encoding="us-ascii" standalone="no"?><svg xmlns="http://www.w3.org/2000/svg" xmlns:xlink="http://www.w3.org/1999/xlink" contentStyleType="text/css" height="886px" preserveAspectRatio="none" style="width:1724px;height:886px;background:#FFFFFF;" version="1.1" viewBox="0 0 1724 886" width="1724px" zoomAndPan="magnify"><defs/><g><text fill="#000000" font-family="sans-serif" font-size="20" font-weight="bold" lengthAdjust="spacing" textLength="339" x="479.75" y="29.3359">MyNamespace.DotNetPreAdapter</text><text fill="#000000" font-family="sans-serif" font-size="20" font-weight="bold" lengthAdjust="spacing" textLength="104" x="825.75" y="29.3359">simplified</text><text fill="#000000" font-family="sans-serif" font-size="20" font-weight="bold" lengthAdjust="spacing" textLength="38" x="936.75" y="29.3359">and</text><text fill="#000000" font-family="sans-serif" font-size="20" font-weight="bold" lengthAdjust="spacing" textLength="249" x="981.75" y="29.3359">grouped per namespace</text><!--cluster DotNetPreAdapter--><g id="cluster_DotNetPreAdapter"><a href="DotNetPreAdapter-diagram-simplified-grouped-per-namespace.svg" target="_top" title="DotNetPreAdapter-diagram-simplified-grouped-per-namespace.svg" xlink:actuate="onRequest" xlink:href="DotNetPreAdapter-diagram-simplified-grouped-per-namespace.svg" xlink:show="new" xlink:title="DotNetPreAdapter-diagram-simplified-grouped-per-namespace.svg" xlink:type="simple"><path d="M1514,590.5547 L1645,590.5547 A3.75,3.75 0 0 1 1647.5,593.0547 L1654.5,613.043 L1715,613.043 A2.5,2.5 0 0 1 1717.5,615.543 L1717.5,877.0547 A2.5,2.5 0 0 1 1715,879.5547 L1514,879.5547 A2.5,2.5 0 0 1 1511.5,877.0547 L1511.5,593.0547 A2.5,2.5 0 0 1 1514,590.5547 " fill="none" style="stroke:#000000;stroke-width:1.5;"/><line style="stroke:#000000;stroke-width:1.5;" x1="1511.5" x2="1654.5" y1="613.043" y2="613.043"/><text fill="#000000" font-family="sans-serif" font-size="14" font-weight="bold" lengthAdjust="spacing" textLength="130" x="1515.5" y="606.0898">DotNetPreAdapter</text></a></g><!--cluster Domain--><g id="cluster_Domain"><a href="DotNetPreAdapter.Domain-diagram-simplified-grouped-per-namespace.svg" target="_top" title="DotNetPreAdapter.Domain-diagram-simplified-grouped-per-namespace.svg" xlink:actuate="onRequest" xlink:href="DotNetPreAdapter.Domain-diagram-simplified-grouped-per-namespace.svg" xlink:show="new" xlink:title="DotNetPreAdapter.Domain-diagram-simplified-grouped-per-namespace.svg" xlink:type="simple"><path d="M1538,633.5547 L1595,633.5547 A3.75,3.75 0 0 1 1597.5,636.0547 L1604.5,656.043 L1691,656.043 A2.5,2.5 0 0 1 1693.5,658.543 L1693.5,730.0547 A2.5,2.5 0 0 1 1691,732.5547 L1538,732.5547 A2.5,2.5 0 0 1 1535.5,730.0547 L1535.5,636.0547 A2.5,2.5 0 0 1 1538,633.5547 " fill="none" style="stroke:#000000;stroke-width:1.5;"/><line style="stroke:#000000;stroke-width:1.5;" x1="1535.5" x2="1604.5" y1="656.043" y2="656.043"/><text fill="#000000" font-family="sans-serif" font-size="14" font-weight="bold" lengthAdjust="spacing" textLength="56" x="1539.5" y="649.0898">Domain</text></a></g><!--cluster Utils--><g id="cluster_Utils"><a href="DotNetPreAdapter.Utils-diagram-simplified-grouped-per-namespace.svg" target="_top" title="DotNetPreAdapter.Utils-diagram-simplified-grouped-per-namespace.svg" xlink:actuate="onRequest" xlink:href="DotNetPreAdapter.Utils-diagram-simplified-grouped-per-namespace.svg" xlink:show="new" xlink:title="DotNetPreAdapter.Utils-diagram-simplified-grouped-per-namespace.svg" xlink:type="simple"><path d="M1572,756.5547 L1607,756.5547 A3.75,3.75 0 0 1 1609.5,759.0547 L1616.5,779.043 L1679,779.043 A2.5,2.5 0 0 1 1681.5,781.543 L1681.5,853.0547 A2.5,2.5 0 0 1 1679,855.5547 L1572,855.5547 A2.5,2.5 0 0 1 1569.5,853.0547 L1569.5,759.0547 A2.5,2.5 0 0 1 1572,756.5547 " fill="none" style="stroke:#000000;stroke-width:1.5;"/><line style="stroke:#000000;stroke-width:1.5;" x1="1569.5" x2="1616.5" y1="779.043" y2="779.043"/><text fill="#000000" font-family="sans-serif" font-size="14" font-weight="bold" lengthAdjust="spacing" textLength="34" x="1573.5" y="772.0898">Utils</text></a></g><!--cluster MyNamespace--><g id="cluster_MyNamespace"><a href="MyNamespace-diagram-simplified-grouped-per-namespace.svg" target="_top" title="MyNamespace-diagram-simplified-grouped-per-namespace.svg" xlink:actuate="onRequest" xlink:href="MyNamespace-diagram-simplified-grouped-per-namespace.svg" xlink:show="new" xlink:title="MyNamespace-diagram-simplified-grouped-per-namespace.svg" xlink:type="simple"><path d="M278,314.5547 L381,314.5547 A3.75,3.75 0 0 1 383.5,317.0547 L390.5,337.043 L1052,337.043 A2.5,2.5 0 0 1 1054.5,339.543 L1054.5,877.0547 A2.5,2.5 0 0 1 1052,879.5547 L278,879.5547 A2.5,2.5 0 0 1 275.5,877.0547 L275.5,317.0547 A2.5,2.5 0 0 1 278,314.5547 " fill="none" style="stroke:#000000;stroke-width:1.5;"/><line style="stroke:#000000;stroke-width:1.5;" x1="275.5" x2="390.5" y1="337.043" y2="337.043"/><text fill="#000000" font-family="sans-serif" font-size="14" font-weight="bold" lengthAdjust="spacing" textLength="102" x="279.5" y="330.0898">MyNamespace</text></a></g><!--cluster DotNetPreAdapter--><g id="cluster_DotNetPreAdapter"><a href="MyNamespace.DotNetPreAdapter-diagram-simplified-grouped-per-namespace.svg" target="_top" title="MyNamespace.DotNetPreAdapter-diagram-simplified-grouped-per-namespace.svg" xlink:actuate="onRequest" xlink:href="MyNamespace.DotNetPreAdapter-diagram-simplified-grouped-per-namespace.svg" xlink:show="new" xlink:title="MyNamespace.DotNetPreAdapter-diagram-simplified-grouped-per-namespace.svg" xlink:type="simple"><path d="M302,357.5547 L433,357.5547 A3.75,3.75 0 0 1 435.5,360.0547 L442.5,380.043 L1028,380.043 A2.5,2.5 0 0 1 1030.5,382.543 L1030.5,853.0547 A2.5,2.5 0 0 1 1028,855.5547 L302,855.5547 A2.5,2.5 0 0 1 299.5,853.0547 L299.5,360.0547 A2.5,2.5 0 0 1 302,357.5547 " fill="none" style="stroke:#000000;stroke-width:1.5;"/><line style="stroke:#000000;stroke-width:1.5;" x1="299.5" x2="442.5" y1="380.043" y2="380.043"/><text fill="#000000" font-family="sans-serif" font-size="14" font-weight="bold" lengthAdjust="spacing" textLength="130" x="303.5" y="373.0898">DotNetPreAdapter</text></a></g><!--cluster DotNetPreAdapter--><g id="cluster_DotNetPreAdapter"><a href="MyNamespace.DotNetPreAdapter.DotNetPreAdapter-diagram-simplified-grouped-per-namespace.svg" target="_top" title="MyNamespace.DotNetPreAdapter.DotNetPreAdapter-diagram-simplified-grouped-per-namespace.svg" xlink:actuate="onRequest" xlink:href="MyNamespace.DotNetPreAdapter.DotNetPreAdapter-diagram-simplified-grouped-per-namespace.svg" xlink:show="new" xlink:title="MyNamespace.DotNetPreAdapter.DotNetPreAdapter-diagram-simplified-grouped-per-namespace.svg" xlink:type="simple"><path d="M780,400.5547 L911,400.5547 A3.75,3.75 0 0 1 913.5,403.0547 L920.5,423.043 L1004,423.043 A2.5,2.5 0 0 1 1006.5,425.543 L1006.5,564.0547 A2.5,2.5 0 0 1 1004,566.5547 L780,566.5547 A2.5,2.5 0 0 1 777.5,564.0547 L777.5,403.0547 A2.5,2.5 0 0 1 780,400.5547 " fill="none" style="stroke:#000000;stroke-width:1.5;"/><line style="stroke:#000000;stroke-width:1.5;" x1="777.5" x2="920.5" y1="423.043" y2="423.043"/><text fill="#000000" font-family="sans-serif" font-size="14" font-weight="bold" lengthAdjust="spacing" textLength="130" x="781.5" y="416.0898">DotNetPreAdapter</text></a></g><!--cluster RecursiveFileProcessor--><g id="cluster_RecursiveFileProcessor"><a href="MyNamespace.DotNetPreAdapter.DotNetPreAdapter.RecursiveFileProcessor-diagram-simplified-grouped-per-namespace.svg" target="_top" title="MyNamespace.DotNetPreAdapter.DotNetPreAdapter.RecursiveFileProcessor-diagram-simplified-grouped-per-namespace.svg" xlink:actuate="onRequest" xlink:href="MyNamespace.DotNetPreAdapter.DotNetPreAdapter.RecursiveFileProcessor-diagram-simplified-grouped-per-namespace.svg" xlink:show="new" xlink:title="MyNamespace.DotNetPreAdapter.DotNetPreAdapter.RecursiveFileProcessor-diagram-simplified-grouped-per-namespace.svg" xlink:type="simple"><path d="M804,443.5547 L970,443.5547 A3.75,3.75 0 0 1 972.5,446.0547 L979.5,466.043 L980,466.043 A2.5,2.5 0 0 1 982.5,468.543 L982.5,540.0547 A2.5,2.5 0 0 1 980,542.5547 L804,542.5547 A2.5,2.5 0 0 1 801.5,540.0547 L801.5,446.0547 A2.5,2.5 0 0 1 804,443.5547 " fill="none" style="stroke:#000000;stroke-width:1.5;"/><line style="stroke:#000000;stroke-width:1.5;" x1="801.5" x2="979.5" y1="466.043" y2="466.043"/><text fill="#000000" font-family="sans-serif" font-size="14" font-weight="bold" lengthAdjust="spacing" textLength="165" x="805.5" y="459.0898">RecursiveFileProcessor</text></a></g><!--class Datastructure--><a href="DotNetPreAdapter.Domain.Datastructure-diagram-simplified-grouped-per-namespace.svg" target="_top" title="DotNetPreAdapter.Domain.Datastructure-diagram-simplified-grouped-per-namespace.svg" xlink:actuate="onRequest" xlink:href="DotNetPreAdapter.Domain.Datastructure-diagram-simplified-grouped-per-namespace.svg" xlink:show="new" xlink:title="DotNetPreAdapter.Domain.Datastructure-diagram-simplified-grouped-per-namespace.svg" xlink:type="simple"><g id="elem_Datastructure"><rect codeLine="17" fill="#F1F1F1" height="48" id="Datastructure" rx="2.5" ry="2.5" style="stroke:#181818;stroke-width:0.5;" width="125" x="1552" y="668.5547"/><ellipse cx="1567" cy="684.5547" fill="#A9DCDF" rx="11" ry="11" style="stroke:#181818;stroke-width:1.0;"/><path d="M1566.8633,679.9028 L1565.7095,684.9746 L1568.0254,684.9746 Z M1565.3691,677.6616 L1568.3657,677.6616 L1571.7109,690.0547 L1569.2622,690.0547 L1568.4985,686.9917 L1565.2197,686.9917 L1564.4727,690.0547 L1562.0239,690.0547 Z " fill="#000000"/><text fill="#000000" font-family="sans-serif" font-size="14" font-style="italic" lengthAdjust="spacing" textLength="93" x="1581" y="689.8457">Datastructure</text><line style="stroke:#181818;stroke-width:0.5;" x1="1553" x2="1676" y1="700.5547" y2="700.5547"/><line style="stroke:#181818;stroke-width:0.5;" x1="1553" x2="1676" y1="708.5547" y2="708.5547"/></g></a><!--class Logger--><a href="DotNetPreAdapter.Utils.Logger-diagram-simplified-grouped-per-namespace.svg" target="_top" title="DotNetPreAdapter.Utils.Logger-diagram-simplified-grouped-per-namespace.svg" xlink:actuate="onRequest" xlink:href="DotNetPreAdapter.Utils.Logger-diagram-simplified-grouped-per-namespace.svg" xlink:show="new" xlink:title="DotNetPreAdapter.Utils.Logger-diagram-simplified-grouped-per-namespace.svg" xlink:type="simple"><g id="elem_Logger"><rect codeLine="27" fill="#F1F1F1" height="48" id="Logger" rx="2.5" ry="2.5" style="stroke:#181818;stroke-width:0.5;" width="80" x="1585.5" y="791.5547"/><ellipse cx="1600.5" cy="807.5547" fill="#A9DCDF" rx="11" ry="11" style="stroke:#181818;stroke-width:1.0;"/><path d="M1600.3633,802.9028 L1599.2095,807.9746 L1601.5254,807.9746 Z M1598.8691,800.6616 L1601.8657,800.6616 L1605.2109,813.0547 L1602.7622,813.0547 L1601.9985,809.9917 L1598.7197,809.9917 L1597.9727,813.0547 L1595.5239,813.0547 Z " fill="#000000"/><text fill="#000000" font-family="sans-serif" font-size="14" font-style="italic" lengthAdjust="spacing" textLength="48" x="1614.5" y="812.8457">Logger</text><line style="stroke:#181818;stroke-width:0.5;" x1="1586.5" x2="1664.5" y1="823.5547" y2="823.5547"/><line style="stroke:#181818;stroke-width:0.5;" x1="1586.5" x2="1664.5" y1="831.5547" y2="831.5547"/></g></a><!--class IMyTest--><a href="MyNamespace.DotNetPreAdapter.IMyTest-diagram-simplified-grouped-per-namespace.svg" target="_top" title="MyNamespace.DotNetPreAdapter.IMyTest-diagram-simplified-grouped-per-namespace.svg" xlink:actuate="onRequest" xlink:href="MyNamespace.DotNetPreAdapter.IMyTest-diagram-simplified-grouped-per-namespace.svg" xlink:show="new" xlink:title="MyNamespace.DotNetPreAdapter.IMyTest-diagram-simplified-grouped-per-namespace.svg" xlink:type="simple"><g id="elem_IMyTest"><rect codeLine="37" fill="#FFFF00" height="48" id="IMyTest" rx="2.5" ry="2.5" style="stroke:#181818;stroke-width:0.5;" width="84" x="486.5" y="478.5547"/><ellipse cx="501.5" cy="494.5547" fill="#B4A7E5" rx="11" ry="11" style="stroke:#181818;stroke-width:1.0;"/><path d="M497.9277,490.8198 L497.9277,488.6616 L505.3071,488.6616 L505.3071,490.8198 L502.8418,490.8198 L502.8418,498.8965 L505.3071,498.8965 L505.3071,501.0547 L497.9277,501.0547 L497.9277,498.8965 L500.3931,498.8965 L500.3931,490.8198 Z " fill="#000000"/><text fill="#000000" font-family="sans-serif" font-size="14" font-style="italic" lengthAdjust="spacing" textLength="52" x="515.5" y="499.8457">IMyTest</text><line style="stroke:#181818;stroke-width:0.5;" x1="487.5" x2="569.5" y1="510.5547" y2="510.5547"/><line style="stroke:#181818;stroke-width:0.5;" x1="487.5" x2="569.5" y1="518.5547" y2="518.5547"/></g></a><!--class InnerClassBase--><a href="MyNamespace.DotNetPreAdapter.InnerClassBase-diagram-simplified-grouped-per-namespace.svg" target="_top" title="MyNamespace.DotNetPreAdapter.InnerClassBase-diagram-simplified-grouped-per-namespace.svg" xlink:actuate="onRequest" xlink:href="MyNamespace.DotNetPreAdapter.InnerClassBase-diagram-simplified-grouped-per-namespace.svg" xlink:show="new" xlink:title="MyNamespace.DotNetPreAdapter.InnerClassBase-diagram-simplified-grouped-per-namespace.svg" xlink:type="simple"><g id="elem_InnerClassBase"><rect codeLine="39" fill="#FFFF00" height="48" id="InnerClassBase" rx="2.5" ry="2.5" style="stroke:#181818;stroke-width:0.5;" width="135" x="316" y="478.5547"/><ellipse cx="331" cy="494.5547" fill="#A9DCDF" rx="11" ry="11" style="stroke:#181818;stroke-width:1.0;"/><path d="M330.8633,489.9028 L329.7095,494.9746 L332.0254,494.9746 Z M329.3691,487.6616 L332.3657,487.6616 L335.7109,500.0547 L333.2622,500.0547 L332.4985,496.9917 L329.2197,496.9917 L328.4727,500.0547 L326.0239,500.0547 Z " fill="#000000"/><text fill="#000000" font-family="sans-serif" font-size="14" font-style="italic" lengthAdjust="spacing" textLength="103" x="345" y="499.8457">InnerClassBase</text><line style="stroke:#181818;stroke-width:0.5;" x1="317" x2="450" y1="510.5547" y2="510.5547"/><line style="stroke:#181818;stroke-width:0.5;" x1="317" x2="450" y1="518.5547" y2="518.5547"/></g></a><!--class InnerClass--><a href="MyNamespace.DotNetPreAdapter.InnerClass-diagram-simplified-grouped-per-namespace.svg" target="_top" title="MyNamespace.DotNetPreAdapter.InnerClass-diagram-simplified-grouped-per-namespace.svg" xlink:actuate="onRequest" xlink:href="MyNamespace.DotNetPreAdapter.InnerClass-diagram-simplified-grouped-per-namespace.svg" xlink:show="new" xlink:title="MyNamespace.DotNetPreAdapter.InnerClass-diagram-simplified-grouped-per-namespace.svg" xlink:type="simple"><g id="elem_InnerClass"><rect codeLine="41" fill="#FFFF00" height="48" id="InnerClass" rx="2.5" ry="2.5" style="stroke:#181818;stroke-width:0.5;" width="104" x="476.5" y="668.5547"/><ellipse cx="491.5" cy="684.5547" fill="#A9DCDF" rx="11" ry="11" style="stroke:#181818;stroke-width:1.0;"/><path d="M491.3633,679.9028 L490.2095,684.9746 L492.5254,684.9746 Z M489.8691,677.6616 L492.8657,677.6616 L496.2109,690.0547 L493.7622,690.0547 L492.9985,686.9917 L489.7197,686.9917 L488.9727,690.0547 L486.5239,690.0547 Z " fill="#000000"/><text fill="#000000" font-family="sans-serif" font-size="14" font-style="italic" lengthAdjust="spacing" textLength="72" x="505.5" y="689.8457">InnerClass</text><line style="stroke:#181818;stroke-width:0.5;" x1="477.5" x2="579.5" y1="700.5547" y2="700.5547"/><line style="stroke:#181818;stroke-width:0.5;" x1="477.5" x2="579.5" y1="708.5547" y2="708.5547"/></g></a><!--class InnerClass_DOT_InnerTestUnusedInInnerClass--><a href="MyNamespace.DotNetPreAdapter.InnerClass.InnerTestUnusedInInnerClass-diagram-simplified-grouped-per-namespace.svg" target="_top" title="MyNamespace.DotNetPreAdapter.InnerClass.InnerTestUnusedInInnerClass-diagram-simplified-grouped-per-namespace.svg" xlink:actuate="onRequest" xlink:href="MyNamespace.DotNetPreAdapter.InnerClass.InnerTestUnusedInInnerClass-diagram-simplified-grouped-per-namespace.svg" xlink:show="new" xlink:title="MyNamespace.DotNetPreAdapter.InnerClass.InnerTestUnusedInInnerClass-diagram-simplified-grouped-per-namespace.svg" xlink:type="simple"><g id="elem_InnerClass_DOT_InnerTestUnusedInInnerClass"><rect codeLine="43" fill="#FFFF00" height="48" id="InnerClass_DOT_InnerTestUnusedInInnerClass" rx="2.5" ry="2.5" style="stroke:#181818;stroke-width:0.5;" width="350" x="664.5" y="791.5547"/><ellipse cx="679.5" cy="807.5547" fill="#A9DCDF" rx="11" ry="11" style="stroke:#181818;stroke-width:1.0;"/><path d="M679.3633,802.9028 L678.2095,807.9746 L680.5254,807.9746 Z M677.8691,800.6616 L680.8657,800.6616 L684.2109,813.0547 L681.7622,813.0547 L680.9985,809.9917 L677.7197,809.9917 L676.9727,813.0547 L674.5239,813.0547 Z " fill="#000000"/><text fill="#000000" font-family="sans-serif" font-size="14" font-style="italic" lengthAdjust="spacing" textLength="318" x="693.5" y="812.8457">InnerClass_DOT_InnerTestUnusedInInnerClass</text><line style="stroke:#181818;stroke-width:0.5;" x1="665.5" x2="1013.5" y1="823.5547" y2="823.5547"/><line style="stroke:#181818;stroke-width:0.5;" x1="665.5" x2="1013.5" y1="831.5547" y2="831.5547"/></g></a><!--class UnusedASTVisitor--><a href="MyNamespace.DotNetPreAdapter.UnusedASTVisitor-diagram-simplified-grouped-per-namespace.svg" target="_top" title="MyNamespace.DotNetPreAdapter.UnusedASTVisitor-diagram-simplified-grouped-per-namespace.svg" xlink:actuate="onRequest" xlink:href="MyNamespace.DotNetPreAdapter.UnusedASTVisitor-diagram-simplified-grouped-per-namespace.svg" xlink:show="new" xlink:title="MyNamespace.DotNetPreAdapter.UnusedASTVisitor-diagram-simplified-grouped-per-namespace.svg" xlink:type="simple"><g id="elem_UnusedASTVisitor"><rect codeLine="45" fill="#FFFF00" height="48" id="UnusedASTVisitor" rx="2.5" ry="2.5" style="stroke:#181818;stroke-width:0.5;" width="155" x="606" y="478.5547"/><ellipse cx="621" cy="494.5547" fill="#A9DCDF" rx="11" ry="11" style="stroke:#181818;stroke-width:1.0;"/><path d="M620.8633,489.9028 L619.7095,494.9746 L622.0254,494.9746 Z M619.3691,487.6616 L622.3657,487.6616 L625.7109,500.0547 L623.2622,500.0547 L622.4985,496.9917 L619.2197,496.9917 L618.4727,500.0547 L616.0239,500.0547 Z " fill="#000000"/><text fill="#000000" font-family="sans-serif" font-size="14" font-style="italic" lengthAdjust="spacing" textLength="123" x="635" y="499.8457">UnusedASTVisitor</text><line style="stroke:#181818;stroke-width:0.5;" x1="607" x2="760" y1="510.5547" y2="510.5547"/><line style="stroke:#181818;stroke-width:0.5;" x1="607" x2="760" y1="518.5547" y2="518.5547"/></g></a><!--class InnerClass--><a href="MyNamespace.DotNetPreAdapter.DotNetPreAdapter.RecursiveFileProcessor.InnerClass-diagram-simplified-grouped-per-namespace.svg" target="_top" title="MyNamespace.DotNetPreAdapter.DotNetPreAdapter.RecursiveFileProcessor.InnerClass-diagram-simplified-grouped-per-namespace.svg" xlink:actuate="onRequest" xlink:href="MyNamespace.DotNetPreAdapter.DotNetPreAdapter.RecursiveFileProcessor.InnerClass-diagram-simplified-grouped-per-namespace.svg" xlink:show="new" xlink:title="MyNamespace.DotNetPreAdapter.DotNetPreAdapter.RecursiveFileProcessor.InnerClass-diagram-simplified-grouped-per-namespace.svg" xlink:type="simple"><g id="elem_InnerClass"><rect codeLine="57" fill="#FFFF00" height="48" id="InnerClass" rx="2.5" ry="2.5" style="stroke:#181818;stroke-width:0.5;" width="104" x="839.5" y="478.5547"/><ellipse cx="854.5" cy="494.5547" fill="#A9DCDF" rx="11" ry="11" style="stroke:#181818;stroke-width:1.0;"/><path d="M854.3633,489.9028 L853.2095,494.9746 L855.5254,494.9746 Z M852.8691,487.6616 L855.8657,487.6616 L859.2109,500.0547 L856.7622,500.0547 L855.9985,496.9917 L852.7197,496.9917 L851.9727,500.0547 L849.5239,500.0547 Z " fill="#000000"/><text fill="#000000" font-family="sans-serif" font-size="14" font-style="italic" lengthAdjust="spacing" textLength="72" x="868.5" y="499.8457">InnerClass</text><line style="stroke:#181818;stroke-width:0.5;" x1="840.5" x2="942.5" y1="510.5547" y2="510.5547"/><line style="stroke:#181818;stroke-width:0.5;" x1="840.5" x2="942.5" y1="518.5547" y2="518.5547"/></g></a><g id="elem_FloatingNote"><path d="M6,50.5547 L6,298.2129 L561,298.2129 L561,60.5547 L551,50.5547 L6,50.5547 " fill="#FEFFDD" style="stroke:#181818;stroke-width:0.5;"/><path d="M551,50.5547 L551,60.5547 L561,60.5547 L551,50.5547 " fill="#FEFFDD" style="stroke:#181818;stroke-width:1.0;"/><text fill="#000000" font-family="sans-serif" font-size="13" lengthAdjust="spacing" textLength="120" x="12" y="68.123">Your are analyzing:</text><text fill="#000000" font-family="sans-serif" font-size="13" lengthAdjust="spacing" textLength="207" x="12" y="83.4336">MyNamespace.DotNetPreAdapter</text><text fill="#000000" font-family="sans-serif" font-size="13" font-weight="bold" lengthAdjust="spacing" textLength="67" x="223" y="83.4336">simplified</text><text fill="#000000" font-family="sans-serif" font-size="13" lengthAdjust="spacing" textLength="23" x="294" y="83.4336">and</text><text fill="#000000" font-family="sans-serif" font-size="13" font-weight="bold" lengthAdjust="spacing" textLength="166" x="321" y="83.4336">grouped per namespace</text><text fill="#000000" font-family="sans-serif" font-size="13" lengthAdjust="spacing" textLength="4" x="12" y="98.7441">&#160;</text><text fill="#000000" font-family="sans-serif" font-size="13" lengthAdjust="spacing" textLength="229" x="12" y="129.3652">You can click either the namespaces</text><text fill="#000000" font-family="sans-serif" font-size="13" lengthAdjust="spacing" textLength="266" x="12" y="144.6758">or class names for filtering them and their</text><text fill="#000000" font-family="sans-serif" font-size="13" lengthAdjust="spacing" textLength="130" x="12" y="159.9863">direct dependencies.</text><text fill="#000000" font-family="sans-serif" font-size="13" lengthAdjust="spacing" textLength="4" x="12" y="175.2969">&#160;</text><line style="stroke:#181818;stroke-width:1.0;" x1="7" x2="267.5" y1="109.1416" y2="109.1416"/><line style="stroke:#181818;stroke-width:1.0;" x1="7" x2="267.5" y1="111.1416" y2="111.1416"/><text fill="#000000" font-family="sans-serif" font-size="13" lengthAdjust="spacing" textLength="32" x="267.5" y="113.5547">Filter</text><line style="stroke:#181818;stroke-width:1.0;" x1="299.5" x2="560" y1="109.1416" y2="109.1416"/><line style="stroke:#181818;stroke-width:1.0;" x1="299.5" x2="560" y1="111.1416" y2="111.1416"/><ellipse cx="17.5" cy="205.1602" fill="#000000" rx="2.5" ry="2.5" style="stroke:#000000;stroke-width:0.0;"/><text fill="#000000" font-family="sans-serif" font-size="13" lengthAdjust="spacing" textLength="207" x="24" y="209.918">MyNamespace.DotNetPreAdapter</text><text fill="#000000" font-family="sans-serif" font-size="13" font-weight="bold" lengthAdjust="spacing" textLength="55" x="235" y="209.918">detailed</text><text fill="#000000" font-family="sans-serif" font-size="13" lengthAdjust="spacing" textLength="23" x="294" y="209.918">and</text><text fill="#000000" font-family="sans-serif" font-size="13" font-weight="bold" lengthAdjust="spacing" textLength="166" x="321" y="209.918">grouped per namespace</text><text fill="#000000" font-family="sans-serif" font-size="13" lengthAdjust="spacing" textLength="4" x="487" y="209.918">:</text><text fill="#000000" font-family="sans-serif" font-size="13" lengthAdjust="spacing" textLength="12" x="12" y="225.2285">&#160;&#160;&#160;</text><a href="MyNamespace.DotNetPreAdapter-diagram-detailed-grouped-per-namespace.svg" target="_top" title="MyNamespace.DotNetPreAdapter-diagram-detailed-grouped-per-namespace.svg" xlink:actuate="onRequest" xlink:href="MyNamespace.DotNetPreAdapter-diagram-detailed-grouped-per-namespace.svg" xlink:show="new" xlink:title="MyNamespace.DotNetPreAdapter-diagram-detailed-grouped-per-namespace.svg" xlink:type="simple"><text fill="#0000FF" font-family="sans-serif" font-size="13" lengthAdjust="spacing" text-decoration="underline" textLength="516" x="24" y="225.2285">MyNamespace.DotNetPreAdapter-diagram-detailed-grouped-per-namespace.svg</text></a><ellipse cx="17.5" cy="235.7813" fill="#000000" rx="2.5" ry="2.5" style="stroke:#000000;stroke-width:0.0;"/><text fill="#000000" font-family="sans-serif" font-size="13" lengthAdjust="spacing" textLength="78" x="24" y="240.5391">Full diagram</text><text fill="#000000" font-family="sans-serif" font-size="13" font-weight="bold" lengthAdjust="spacing" textLength="67" x="106" y="240.5391">simplified</text><text fill="#000000" font-family="sans-serif" font-size="13" lengthAdjust="spacing" textLength="23" x="177" y="240.5391">and</text><text fill="#000000" font-family="sans-serif" font-size="13" font-weight="bold" lengthAdjust="spacing" textLength="166" x="204" y="240.5391">grouped per namespace</text><text fill="#000000" font-family="sans-serif" font-size="13" lengthAdjust="spacing" textLength="4" x="370" y="240.5391">:</text><text fill="#000000" font-family="sans-serif" font-size="13" lengthAdjust="spacing" textLength="12" x="12" y="255.8496">&#160;&#160;&#160;</text><a href="full-diagram-simplified-grouped-per-namespace.svg" target="_top" title="full-diagram-simplified-grouped-per-namespace.svg" xlink:actuate="onRequest" xlink:href="full-diagram-simplified-grouped-per-namespace.svg" xlink:show="new" xlink:title="full-diagram-simplified-grouped-per-namespace.svg" xlink:type="simple"><text fill="#0000FF" font-family="sans-serif" font-size="13" lengthAdjust="spacing" text-decoration="underline" textLength="343" x="24" y="255.8496">full-diagram-simplified-grouped-per-namespace.svg</text></a><ellipse cx="17.5" cy="266.4023" fill="#000000" rx="2.5" ry="2.5" style="stroke:#000000;stroke-width:0.0;"/><text fill="#000000" font-family="sans-serif" font-size="13" lengthAdjust="spacing" textLength="41" x="24" y="271.1602">Home:</text><text fill="#000000" font-family="sans-serif" font-size="13" lengthAdjust="spacing" textLength="12" x="12" y="286.4707">&#160;&#160;&#160;</text><a href="index.html" target="_top" title="index.html" xlink:actuate="onRequest" xlink:href="index.html" xlink:show="new" xlink:title="index.html" xlink:type="simple"><text fill="#0000FF" font-family="sans-serif" font-size="13" lengthAdjust="spacing" text-decoration="underline" textLength="68" x="24" y="286.4707">index.html</text></a><line style="stroke:#181818;stroke-width:1.0;" x1="7" x2="246.5" y1="189.6943" y2="189.6943"/><line style="stroke:#181818;stroke-width:1.0;" x1="7" x2="246.5" y1="191.6943" y2="191.6943"/><text fill="#000000" font-family="sans-serif" font-size="13" lengthAdjust="spacing" textLength="74" x="246.5" y="194.1074">Select other</text><line style="stroke:#181818;stroke-width:1.0;" x1="320.5" x2="560" y1="189.6943" y2="189.6943"/><line style="stroke:#181818;stroke-width:1.0;" x1="320.5" x2="560" y1="191.6943" y2="191.6943"/></g><!--class Enum--><a href="Enum-diagram-simplified-grouped-per-namespace.svg" target="_top" title="Enum-diagram-simplified-grouped-per-namespace.svg" xlink:actuate="onRequest" xlink:href="Enum-diagram-simplified-grouped-per-namespace.svg" xlink:show="new" xlink:title="Enum-diagram-simplified-grouped-per-namespace.svg" xlink:type="simple"><g id="elem_Enum"><rect codeLine="4" fill="#F5FFFA" height="48" id="Enum" rx="2.5" ry="2.5" style="stroke:#181818;stroke-width:0.5;" width="71" x="188" y="668.5547"/><ellipse cx="203" cy="684.5547" fill="#ADD1B2" rx="11" ry="11" style="stroke:#181818;stroke-width:1.0;"/><path d="M205.4731,690.6978 Q204.8921,690.9966 204.2529,691.146 Q203.6138,691.2954 202.9082,691.2954 Q200.4014,691.2954 199.0815,689.6436 Q197.7617,687.9917 197.7617,684.8706 Q197.7617,681.7412 199.0815,680.0894 Q200.4014,678.4375 202.9082,678.4375 Q203.6138,678.4375 204.2612,678.5869 Q204.9087,678.7363 205.4731,679.0352 L205.4731,681.7578 Q204.8423,681.1768 204.2488,680.907 Q203.6553,680.6372 203.0244,680.6372 Q201.6797,680.6372 200.9949,681.7039 Q200.3101,682.7705 200.3101,684.8706 Q200.3101,686.9624 200.9949,688.0291 Q201.6797,689.0957 203.0244,689.0957 Q203.6553,689.0957 204.2488,688.8259 Q204.8423,688.5562 205.4731,687.9751 Z " fill="#000000"/><text fill="#000000" font-family="sans-serif" font-size="14" lengthAdjust="spacing" textLength="39" x="217" y="689.8457">Enum</text><line style="stroke:#181818;stroke-width:0.5;" x1="189" x2="258" y1="700.5547" y2="700.5547"/><line style="stroke:#181818;stroke-width:0.5;" x1="189" x2="258" y1="708.5547" y2="708.5547"/></g></a><!--class IComparable--><a href="IComparable-diagram-simplified-grouped-per-namespace.svg" target="_top" title="IComparable-diagram-simplified-grouped-per-namespace.svg" xlink:actuate="onRequest" xlink:href="IComparable-diagram-simplified-grouped-per-namespace.svg" xlink:show="new" xlink:title="IComparable-diagram-simplified-grouped-per-namespace.svg" xlink:type="simple"><g id="elem_IComparable"><rect codeLine="6" fill="#F5FFFA" height="48" id="IComparable" rx="2.5" ry="2.5" style="stroke:#181818;stroke-width:0.5;" width="120" x="1070.5" y="668.5547"/><ellipse cx="1085.5" cy="684.5547" fill="#ADD1B2" rx="11" ry="11" style="stroke:#181818;stroke-width:1.0;"/><path d="M1087.9731,690.6978 Q1087.3921,690.9966 1086.7529,691.146 Q1086.1138,691.2954 1085.4082,691.2954 Q1082.9014,691.2954 1081.5815,689.6436 Q1080.2617,687.9917 1080.2617,684.8706 Q1080.2617,681.7412 1081.5815,680.0894 Q1082.9014,678.4375 1085.4082,678.4375 Q1086.1138,678.4375 1086.7612,678.5869 Q1087.4087,678.7363 1087.9731,679.0352 L1087.9731,681.7578 Q1087.3423,681.1768 1086.7488,680.907 Q1086.1553,680.6372 1085.5244,680.6372 Q1084.1797,680.6372 1083.4949,681.7039 Q1082.8101,682.7705 1082.8101,684.8706 Q1082.8101,686.9624 1083.4949,688.0291 Q1084.1797,689.0957 1085.5244,689.0957 Q1086.1553,689.0957 1086.7488,688.8259 Q1087.3423,688.5562 1087.9731,687.9751 Z " fill="#000000"/><text fill="#000000" font-family="sans-serif" font-size="14" lengthAdjust="spacing" textLength="88" x="1099.5" y="689.8457">IComparable</text><line style="stroke:#181818;stroke-width:0.5;" x1="1071.5" x2="1189.5" y1="700.5547" y2="700.5547"/><line style="stroke:#181818;stroke-width:0.5;" x1="1071.5" x2="1189.5" y1="708.5547" y2="708.5547"/></g></a><!--class IFormattable--><a href="IFormattable-diagram-simplified-grouped-per-namespace.svg" target="_top" title="IFormattable-diagram-simplified-grouped-per-namespace.svg" xlink:actuate="onRequest" xlink:href="IFormattable-diagram-simplified-grouped-per-namespace.svg" xlink:show="new" xlink:title="IFormattable-diagram-simplified-grouped-per-namespace.svg" xlink:type="simple"><g id="elem_IFormattable"><rect codeLine="8" fill="#F5FFFA" height="48" id="IFormattable" rx="2.5" ry="2.5" style="stroke:#181818;stroke-width:0.5;" width="119" x="1226" y="668.5547"/><ellipse cx="1241" cy="684.5547" fill="#ADD1B2" rx="11" ry="11" style="stroke:#181818;stroke-width:1.0;"/><path d="M1243.4731,690.6978 Q1242.8921,690.9966 1242.2529,691.146 Q1241.6138,691.2954 1240.9082,691.2954 Q1238.4014,691.2954 1237.0815,689.6436 Q1235.7617,687.9917 1235.7617,684.8706 Q1235.7617,681.7412 1237.0815,680.0894 Q1238.4014,678.4375 1240.9082,678.4375 Q1241.6138,678.4375 1242.2612,678.5869 Q1242.9087,678.7363 1243.4731,679.0352 L1243.4731,681.7578 Q1242.8423,681.1768 1242.2488,680.907 Q1241.6553,680.6372 1241.0244,680.6372 Q1239.6797,680.6372 1238.9949,681.7039 Q1238.3101,682.7705 1238.3101,684.8706 Q1238.3101,686.9624 1238.9949,688.0291 Q1239.6797,689.0957 1241.0244,689.0957 Q1241.6553,689.0957 1242.2488,688.8259 Q1242.8423,688.5562 1243.4731,687.9751 Z " fill="#000000"/><text fill="#000000" font-family="sans-serif" font-size="14" lengthAdjust="spacing" textLength="87" x="1255" y="689.8457">IFormattable</text><line style="stroke:#181818;stroke-width:0.5;" x1="1227" x2="1344" y1="700.5547" y2="700.5547"/><line style="stroke:#181818;stroke-width:0.5;" x1="1227" x2="1344" y1="708.5547" y2="708.5547"/></g></a><!--class IConvertible--><a href="IConvertible-diagram-simplified-grouped-per-namespace.svg" target="_top" title="IConvertible-diagram-simplified-grouped-per-namespace.svg" xlink:actuate="onRequest" xlink:href="IConvertible-diagram-simplified-grouped-per-namespace.svg" xlink:show="new" xlink:title="IConvertible-diagram-simplified-grouped-per-namespace.svg" xlink:type="simple"><g id="elem_IConvertible"><rect codeLine="10" fill="#F5FFFA" height="48" id="IConvertible" rx="2.5" ry="2.5" style="stroke:#181818;stroke-width:0.5;" width="115" x="1380" y="668.5547"/><ellipse cx="1395" cy="684.5547" fill="#ADD1B2" rx="11" ry="11" style="stroke:#181818;stroke-width:1.0;"/><path d="M1397.4731,690.6978 Q1396.8921,690.9966 1396.2529,691.146 Q1395.6138,691.2954 1394.9082,691.2954 Q1392.4014,691.2954 1391.0815,689.6436 Q1389.7617,687.9917 1389.7617,684.8706 Q1389.7617,681.7412 1391.0815,680.0894 Q1392.4014,678.4375 1394.9082,678.4375 Q1395.6138,678.4375 1396.2612,678.5869 Q1396.9087,678.7363 1397.4731,679.0352 L1397.4731,681.7578 Q1396.8423,681.1768 1396.2488,680.907 Q1395.6553,680.6372 1395.0244,680.6372 Q1393.6797,680.6372 1392.9949,681.7039 Q1392.3101,682.7705 1392.3101,684.8706 Q1392.3101,686.9624 1392.9949,688.0291 Q1393.6797,689.0957 1395.0244,689.0957 Q1395.6553,689.0957 1396.2488,688.8259 Q1396.8423,688.5562 1397.4731,687.9751 Z " fill="#000000"/><text fill="#000000" font-family="sans-serif" font-size="14" lengthAdjust="spacing" textLength="83" x="1409" y="689.8457">IConvertible</text><line style="stroke:#181818;stroke-width:0.5;" x1="1381" x2="1494" y1="700.5547" y2="700.5547"/><line style="stroke:#181818;stroke-width:0.5;" x1="1381" x2="1494" y1="708.5547" y2="708.5547"/></g></a><!--class CSharpSyntaxWalker--><a href="CSharpSyntaxWalker-diagram-simplified-grouped-per-namespace.svg" target="_top" title="CSharpSyntaxWalker-diagram-simplified-grouped-per-namespace.svg" xlink:actuate="onRequest" xlink:href="CSharpSyntaxWalker-diagram-simplified-grouped-per-namespace.svg" xlink:show="new" xlink:title="CSharpSyntaxWalker-diagram-simplified-grouped-per-namespace.svg" xlink:type="simple"><g id="elem_CSharpSyntaxWalker"><rect codeLine="12" fill="#F5FFFA" height="48" id="CSharpSyntaxWalker" rx="2.5" ry="2.5" style="stroke:#181818;stroke-width:0.5;" width="174" x="596.5" y="150.5547"/><ellipse cx="611.5" cy="166.5547" fill="#ADD1B2" rx="11" ry="11" style="stroke:#181818;stroke-width:1.0;"/><path d="M613.9731,172.6978 Q613.3921,172.9966 612.7529,173.146 Q612.1138,173.2954 611.4082,173.2954 Q608.9014,173.2954 607.5815,171.6436 Q606.2617,169.9917 606.2617,166.8706 Q606.2617,163.7412 607.5815,162.0894 Q608.9014,160.4375 611.4082,160.4375 Q612.1138,160.4375 612.7612,160.5869 Q613.4087,160.7363 613.9731,161.0352 L613.9731,163.7578 Q613.3423,163.1768 612.7488,162.907 Q612.1553,162.6372 611.5244,162.6372 Q610.1797,162.6372 609.4949,163.7039 Q608.8101,164.7705 608.8101,166.8706 Q608.8101,168.9624 609.4949,170.0291 Q610.1797,171.0957 611.5244,171.0957 Q612.1553,171.0957 612.7488,170.8259 Q613.3423,170.5562 613.9731,169.9751 Z " fill="#000000"/><text fill="#000000" font-family="sans-serif" font-size="14" lengthAdjust="spacing" textLength="142" x="625.5" y="171.8457">CSharpSyntaxWalker</text><line style="stroke:#181818;stroke-width:0.5;" x1="597.5" x2="769.5" y1="182.5547" y2="182.5547"/><line style="stroke:#181818;stroke-width:0.5;" x1="597.5" x2="769.5" y1="190.5547" y2="190.5547"/></g></a><!--reverse link Datastructure to Logger--><g id="link_Datastructure_Logger"><path codeLine="76" d="M1638.83,730.8547 C1638.83,730.8547 1638.83,791.3047 1638.83,791.3047 " fill="none" id="Datastructure-backto-Logger" style="stroke:#10BB10;stroke-width:1.0;"/><polygon fill="#10BB10" points="1638.83,717.8547,1634.83,723.8547,1638.83,729.8547,1642.83,723.8547,1638.83,717.8547" style="stroke:#10BB10;stroke-width:1.0;"/></g><!--reverse link InnerClassBase to InnerClass--><g id="link_InnerClassBase_InnerClass"><path codeLine="81" d="M472.3,502.5547 C472.3,502.5547 481.5,502.5547 481.5,502.5547 C481.5,502.5547 481.5,616.7847 481.5,668.1047 " fill="none" id="InnerClassBase-backto-InnerClass" style="stroke:#FF0000;stroke-width:1.0;"/><polygon fill="none" points="472.3,509.5547,452.3,502.5547,472.3,495.5547,472.3,509.5547" style="stroke:#FF0000;stroke-width:1.0;"/></g><!--reverse link IMyTest to InnerClass--><g id="link_IMyTest_InnerClass"><path codeLine="82" d="M528.5,548.0047 C528.5,548.0047 528.5,668.1947 528.5,668.1947 " fill="none" id="IMyTest-backto-InnerClass" style="stroke:#FF0000;stroke-width:1.0;"/><polygon fill="none" points="521.5,548.0047,528.5,528.0047,535.5,548.0047,521.5,548.0047" style="stroke:#FF0000;stroke-width:1.0;"/></g><!--reverse link InnerClass to InnerClass_DOT_InnerTestUnusedInInnerClass--><g id="link_InnerClass_InnerClass_DOT_InnerTestUnusedInInnerClass"><path codeLine="83" d="M596.93,684.5547 C596.93,684.5547 688.62,684.5547 688.62,684.5547 C688.62,684.5547 688.62,753.3347 688.62,791.2247 " fill="none" id="InnerClass-backto-InnerClass_DOT_InnerTestUnusedInInnerClass" style="stroke:#10BBBB;stroke-width:1.0;"/><ellipse cx="589.93" cy="684.5547" fill="#FFFFFF" rx="8" ry="8" style="stroke:#10BBBB;stroke-width:1.0;"/><line style="stroke:#10BBBB;stroke-width:1.0;" x1="597.93" x2="581.93" y1="684.5547" y2="684.5547"/><line style="stroke:#10BBBB;stroke-width:1.0;" x1="589.93" x2="589.93" y1="692.5547" y2="676.5547"/></g><!--reverse link Enum to InnerClass_DOT_InnerTestUnusedInInnerClass--><g id="link_Enum_InnerClass_DOT_InnerTestUnusedInInnerClass"><path codeLine="84" d="M223.5,737.8547 C223.5,737.8547 223.5,815.5547 223.5,815.5547 C223.5,815.5547 482.12,815.5547 664.22,815.5547 " fill="none" id="Enum-backto-InnerClass_DOT_InnerTestUnusedInInnerClass" style="stroke:#FF0000;stroke-width:1.0;"/><polygon fill="none" points="216.5,737.8547,223.5,717.8547,230.5,737.8547,216.5,737.8547" style="stroke:#FF0000;stroke-width:1.0;"/></g><!--reverse link IComparable to InnerClass_DOT_InnerTestUnusedInInnerClass--><g id="link_IComparable_InnerClass_DOT_InnerTestUnusedInInnerClass"><path codeLine="85" d="M1049.19,700.5547 C1049.19,700.5547 979,700.5547 979,700.5547 C979,700.5547 979,757.4047 979,791.1647 " fill="none" id="IComparable-backto-InnerClass_DOT_InnerTestUnusedInInnerClass" style="stroke:#FF0000;stroke-width:1.0;"/><polygon fill="none" points="1049.19,693.5547,1069.19,700.5547,1049.19,707.5547,1049.19,693.5547" style="stroke:#FF0000;stroke-width:1.0;"/></g><!--reverse link IFormattable to InnerClass_DOT_InnerTestUnusedInInnerClass--><g id="link_IFormattable_InnerClass_DOT_InnerTestUnusedInInnerClass"><path codeLine="86" d="M1285.5,737.9447 C1285.5,737.9447 1285.5,807.5547 1285.5,807.5547 C1285.5,807.5547 1139.69,807.5547 1014.81,807.5547 " fill="none" id="IFormattable-backto-InnerClass_DOT_InnerTestUnusedInInnerClass" style="stroke:#FF0000;stroke-width:1.0;"/><polygon fill="none" points="1278.5,737.9447,1285.5,717.9447,1292.5,737.9447,1278.5,737.9447" style="stroke:#FF0000;stroke-width:1.0;"/></g><!--reverse link IConvertible to InnerClass_DOT_InnerTestUnusedInInnerClass--><g id="link_IConvertible_InnerClass_DOT_InnerTestUnusedInInnerClass"><path codeLine="87" d="M1437.5,737.8847 C1437.5,737.8847 1437.5,823.5547 1437.5,823.5547 C1437.5,823.5547 1191.33,823.5547 1014.88,823.5547 " fill="none" id="IConvertible-backto-InnerClass_DOT_InnerTestUnusedInInnerClass" style="stroke:#FF0000;stroke-width:1.0;"/><polygon fill="none" points="1430.5,737.8847,1437.5,717.8847,1444.5,737.8847,1430.5,737.8847" style="stroke:#FF0000;stroke-width:1.0;"/></g><!--reverse link CSharpSyntaxWalker to UnusedASTVisitor--><g id="link_CSharpSyntaxWalker_UnusedASTVisitor"><path codeLine="88" d="M683.5,219.9447 C683.5,219.9447 683.5,478.4547 683.5,478.4547 " fill="none" id="CSharpSyntaxWalker-backto-UnusedASTVisitor" style="stroke:#FF0000;stroke-width:1.0;"/><polygon fill="none" points="676.5,219.9447,683.5,199.9447,690.5,219.9447,676.5,219.9447" style="stroke:#FF0000;stroke-width:1.0;"/></g><!--reverse link UnusedASTVisitor to Logger--><g id="link_UnusedASTVisitor_Logger"><path codeLine="89" d="M712.75,540.7147 C712.75,540.7147 712.75,754.5547 712.75,754.5547 C712.75,754.5547 1612.17,754.5547 1612.17,754.5547 C1612.17,754.5547 1612.17,774.1247 1612.17,791.0947 " fill="none" id="UnusedASTVisitor-backto-Logger" style="stroke:#10BB10;stroke-width:1.0;"/><polygon fill="#10BB10" points="712.75,527.7147,708.75,533.7147,712.75,539.7147,716.75,533.7147,712.75,527.7147" style="stroke:#10BB10;stroke-width:1.0;"/></g><!--reverse link UnusedASTVisitor to Datastructure--><g id="link_UnusedASTVisitor_Datastructure"><path codeLine="90" d="M736.88,541.0147 C736.88,541.0147 736.88,597.5547 736.88,597.5547 C736.88,597.5547 1614.5,597.5547 1614.5,597.5547 C1614.5,597.5547 1614.5,639.9447 1614.5,668.0947 " fill="none" id="UnusedASTVisitor-backto-Datastructure" style="stroke:#10BB10;stroke-width:1.0;"/><polygon fill="#10BB10" points="736.88,528.0147,732.88,534.0147,736.88,540.0147,740.88,534.0147,736.88,528.0147" style="stroke:#10BB10;stroke-width:1.0;"/></g><!--SRC=[tLZjRzCy4F-Ul-847v226WOVfms9TbHCOWEn0K9fLNd9jRNcs97jZ1MUvt_dahxJbyHhkavKLJSdvz_zplVYiyqjbodJB0719TfHYg2q7IhFSYiGJWp_XSTlZjvUZ2vPWYPb4GPdobwY_QpnNSnIYnfyt_0a5RpFCVPzO3AcHmEjiXHZI4b0JkVw_ich7FAj9vL5UFP3PHgOHfh3nEWNbuFZZgnDLqTsvEbfcmkQU7hQaQGD8YOX4Zow1UHsIFBqCvzZe2EL9W5cpFWfz6dSBo28NIwT54hf7wuxCkOQ8minfYXZb1574upLNg78twXSIQxSXnAxOhICYtAhQ8K080otmJLYpWRarSOKj341Qn1OOmOMcBj1jvjpQsT2m6IIqnfFsVG9OAPrFhrCxmULu1I2qmhU1qERY6xt6J03RQ6OfLM_f5ZnnZvvBxE4HFC_ZjhW-GMNjgMH3Fpj_J_1Es-f98__6mhsC5mOrOFULZfXraxX5uPriPTtg2sVqPyDQy5lNGsPJgz6qhBxxqpSakl3SFNXZhfUG4ieasSNeo1CDTvnbPcUoMvwivazmOsTnnrSAebmWn7B3ERfEQaWXXkWRvzBReOO1zvynah6XU76hAben-yjy9II2UDoZPR96tTb0Ep6MCsegepTim4vE6EMaM0MsKpZPWRBSgvy2aBal77AK65upBM0drIyWHR10fNP12KLsZuKVFOOJ7FiHLjp0vQYUFD2aDZX0lAhvSAiyq7nOX_XM0077zLWiDQwfVVx3B-QBNywmLVmVqZiBVGEovt4BX6tjR-fsAyuH1_j8QZxPOg3yulHDTAARoSm5NFUoaOeXFevYSQLbDYkKahKhLokoGoM4boIFWpFwXmFmwztzkcwLmnpNtwLb5BnkNm8_s0BocFQDjR-xkhw6pVSgh8yMf7VZUkwwlgOMVwKjlcLQhfERC7wVwpULbFhokDmn88l66NQy3jiKoHyreeE_qOvyzq0yv3zBF-ub8QAL1pAjplYBkK5u24bvgaxSbF9WeEKhVL6LUyOQok5y0ByQX_OcspECiy2ZO9PhgG1l2-oZOAlhrKo9tzCiexY6qwsNhKpkjy8dxy-QZPV7tKR9UUeNNcDpmnk8DiooNFfSK_-8qCfsSdAYjEyIirzxRZpclbouffcipfuQH_g5VUOxgpBWBt5-ynzm2zUQEw7_ln2Sm_uQouqgshvkxFstFfsbmol4tbjkQan_Qjkf7y0]--></g></svg>