<?xml version="1.0" encoding="us-ascii" standalone="no"?><svg xmlns="http://www.w3.org/2000/svg" xmlns:xlink="http://www.w3.org/1999/xlink" contentStyleType="text/css" height="369px" preserveAspectRatio="none" style="width:1215px;height:369px;background:#FFFFFF;" version="1.1" viewBox="0 0 1215 369" width="1215px" zoomAndPan="magnify"><defs/><g><text fill="#000000" font-family="sans-serif" font-size="20" font-weight="bold" lengthAdjust="spacing" textLength="775" x="10" y="29.3359">MyNamespace.DotNetPreAdapter.DotNetPreAdapter.RecursiveFileProcessor</text><text fill="#000000" font-family="sans-serif" font-size="20" font-weight="bold" lengthAdjust="spacing" textLength="104" x="792" y="29.3359">simplified</text><text fill="#000000" font-family="sans-serif" font-size="20" font-weight="bold" lengthAdjust="spacing" textLength="38" x="903" y="29.3359">and</text><text fill="#000000" font-family="sans-serif" font-size="20" font-weight="bold" lengthAdjust="spacing" textLength="249" x="948" y="29.3359">grouped per namespace</text><!--cluster MyNamespace--><g id="cluster_MyNamespace"><a href="MyNamespace-diagram-simplified-grouped-per-namespace.svg" target="_top" title="MyNamespace-diagram-simplified-grouped-per-namespace.svg" xlink:actuate="onRequest" xlink:href="MyNamespace-diagram-simplified-grouped-per-namespace.svg" xlink:show="new" xlink:title="MyNamespace-diagram-simplified-grouped-per-namespace.svg" xlink:type="simple"><path d="M867.75,50.5547 L970.75,50.5547 A3.75,3.75 0 0 1 973.25,53.0547 L980.25,73.043 L1187.75,73.043 A2.5,2.5 0 0 1 1190.25,75.543 L1190.25,348.0547 A2.5,2.5 0 0 1 1187.75,350.5547 L867.75,350.5547 A2.5,2.5 0 0 1 865.25,348.0547 L865.25,53.0547 A2.5,2.5 0 0 1 867.75,50.5547 " fill="none" style="stroke:#000000;stroke-width:1.5;"/><line style="stroke:#000000;stroke-width:1.5;" x1="865.25" x2="980.25" y1="73.043" y2="73.043"/><text fill="#000000" font-family="sans-serif" font-size="14" font-weight="bold" lengthAdjust="spacing" textLength="102" x="869.25" y="66.0898">MyNamespace</text></a></g><!--cluster DotNetPreAdapter--><g id="cluster_DotNetPreAdapter"><a href="MyNamespace.DotNetPreAdapter-diagram-simplified-grouped-per-namespace.svg" target="_top" title="MyNamespace.DotNetPreAdapter-diagram-simplified-grouped-per-namespace.svg" xlink:actuate="onRequest" xlink:href="MyNamespace.DotNetPreAdapter-diagram-simplified-grouped-per-namespace.svg" xlink:show="new" xlink:title="MyNamespace.DotNetPreAdapter-diagram-simplified-grouped-per-namespace.svg" xlink:type="simple"><path d="M891.75,93.5547 L1022.75,93.5547 A3.75,3.75 0 0 1 1025.25,96.0547 L1032.25,116.043 L1163.75,116.043 A2.5,2.5 0 0 1 1166.25,118.543 L1166.25,324.0547 A2.5,2.5 0 0 1 1163.75,326.5547 L891.75,326.5547 A2.5,2.5 0 0 1 889.25,324.0547 L889.25,96.0547 A2.5,2.5 0 0 1 891.75,93.5547 " fill="none" style="stroke:#000000;stroke-width:1.5;"/><line style="stroke:#000000;stroke-width:1.5;" x1="889.25" x2="1032.25" y1="116.043" y2="116.043"/><text fill="#000000" font-family="sans-serif" font-size="14" font-weight="bold" lengthAdjust="spacing" textLength="130" x="893.25" y="109.0898">DotNetPreAdapter</text></a></g><!--cluster DotNetPreAdapter--><g id="cluster_DotNetPreAdapter"><a href="MyNamespace.DotNetPreAdapter.DotNetPreAdapter-diagram-simplified-grouped-per-namespace.svg" target="_top" title="MyNamespace.DotNetPreAdapter.DotNetPreAdapter-diagram-simplified-grouped-per-namespace.svg" xlink:actuate="onRequest" xlink:href="MyNamespace.DotNetPreAdapter.DotNetPreAdapter-diagram-simplified-grouped-per-namespace.svg" xlink:show="new" xlink:title="MyNamespace.DotNetPreAdapter.DotNetPreAdapter-diagram-simplified-grouped-per-namespace.svg" xlink:type="simple"><path d="M915.75,136.5547 L1046.75,136.5547 A3.75,3.75 0 0 1 1049.25,139.0547 L1056.25,159.043 L1139.75,159.043 A2.5,2.5 0 0 1 1142.25,161.543 L1142.25,300.0547 A2.5,2.5 0 0 1 1139.75,302.5547 L915.75,302.5547 A2.5,2.5 0 0 1 913.25,300.0547 L913.25,139.0547 A2.5,2.5 0 0 1 915.75,136.5547 " fill="none" style="stroke:#000000;stroke-width:1.5;"/><line style="stroke:#000000;stroke-width:1.5;" x1="913.25" x2="1056.25" y1="159.043" y2="159.043"/><text fill="#000000" font-family="sans-serif" font-size="14" font-weight="bold" lengthAdjust="spacing" textLength="130" x="917.25" y="152.0898">DotNetPreAdapter</text></a></g><!--cluster RecursiveFileProcessor--><g id="cluster_RecursiveFileProcessor"><a href="MyNamespace.DotNetPreAdapter.DotNetPreAdapter.RecursiveFileProcessor-diagram-simplified-grouped-per-namespace.svg" target="_top" title="MyNamespace.DotNetPreAdapter.DotNetPreAdapter.RecursiveFileProcessor-diagram-simplified-grouped-per-namespace.svg" xlink:actuate="onRequest" xlink:href="MyNamespace.DotNetPreAdapter.DotNetPreAdapter.RecursiveFileProcessor-diagram-simplified-grouped-per-namespace.svg" xlink:show="new" xlink:title="MyNamespace.DotNetPreAdapter.DotNetPreAdapter.RecursiveFileProcessor-diagram-simplified-grouped-per-namespace.svg" xlink:type="simple"><path d="M939.75,179.5547 L1105.75,179.5547 A3.75,3.75 0 0 1 1108.25,182.0547 L1115.25,202.043 L1115.75,202.043 A2.5,2.5 0 0 1 1118.25,204.543 L1118.25,276.0547 A2.5,2.5 0 0 1 1115.75,278.5547 L939.75,278.5547 A2.5,2.5 0 0 1 937.25,276.0547 L937.25,182.0547 A2.5,2.5 0 0 1 939.75,179.5547 " fill="none" style="stroke:#000000;stroke-width:1.5;"/><line style="stroke:#000000;stroke-width:1.5;" x1="937.25" x2="1115.25" y1="202.043" y2="202.043"/><text fill="#000000" font-family="sans-serif" font-size="14" font-weight="bold" lengthAdjust="spacing" textLength="165" x="941.25" y="195.0898">RecursiveFileProcessor</text></a></g><!--class InnerClass--><a href="MyNamespace.DotNetPreAdapter.DotNetPreAdapter.RecursiveFileProcessor.InnerClass-diagram-simplified-grouped-per-namespace.svg" target="_top" title="MyNamespace.DotNetPreAdapter.DotNetPreAdapter.RecursiveFileProcessor.InnerClass-diagram-simplified-grouped-per-namespace.svg" xlink:actuate="onRequest" xlink:href="MyNamespace.DotNetPreAdapter.DotNetPreAdapter.RecursiveFileProcessor.InnerClass-diagram-simplified-grouped-per-namespace.svg" xlink:show="new" xlink:title="MyNamespace.DotNetPreAdapter.DotNetPreAdapter.RecursiveFileProcessor.InnerClass-diagram-simplified-grouped-per-namespace.svg" xlink:type="simple"><g id="elem_InnerClass"><rect codeLine="8" fill="#FFFF00" height="48" id="InnerClass" rx="2.5" ry="2.5" style="stroke:#181818;stroke-width:0.5;" width="104" x="975.25" y="214.5547"/><ellipse cx="990.25" cy="230.5547" fill="#A9DCDF" rx="11" ry="11" style="stroke:#181818;stroke-width:1.0;"/><path d="M990.1133,225.9028 L988.9595,230.9746 L991.2754,230.9746 Z M988.6191,223.6616 L991.6157,223.6616 L994.9609,236.0547 L992.5122,236.0547 L991.7485,232.9917 L988.4697,232.9917 L987.7227,236.0547 L985.2739,236.0547 Z " fill="#000000"/><text fill="#000000" font-family="sans-serif" font-size="14" font-style="italic" lengthAdjust="spacing" textLength="72" x="1004.25" y="235.8457">InnerClass</text><line style="stroke:#181818;stroke-width:0.5;" x1="976.25" x2="1078.25" y1="246.5547" y2="246.5547"/><line style="stroke:#181818;stroke-width:0.5;" x1="976.25" x2="1078.25" y1="254.5547" y2="254.5547"/></g></a><g id="elem_FloatingNote"><path d="M29.75,114.5547 L29.75,362.2129 L848.75,362.2129 L848.75,124.5547 L838.75,114.5547 L29.75,114.5547 " fill="#FEFFDD" style="stroke:#181818;stroke-width:0.5;"/><path d="M838.75,114.5547 L838.75,124.5547 L848.75,124.5547 L838.75,114.5547 " fill="#FEFFDD" style="stroke:#181818;stroke-width:1.0;"/><text fill="#000000" font-family="sans-serif" font-size="13" lengthAdjust="spacing" textLength="120" x="35.75" y="132.123">Your are analyzing:</text><text fill="#000000" font-family="sans-serif" font-size="13" lengthAdjust="spacing" textLength="471" x="35.75" y="147.4336">MyNamespace.DotNetPreAdapter.DotNetPreAdapter.RecursiveFileProcessor</text><text fill="#000000" font-family="sans-serif" font-size="13" font-weight="bold" lengthAdjust="spacing" textLength="67" x="510.75" y="147.4336">simplified</text><text fill="#000000" font-family="sans-serif" font-size="13" lengthAdjust="spacing" textLength="23" x="581.75" y="147.4336">and</text><text fill="#000000" font-family="sans-serif" font-size="13" font-weight="bold" lengthAdjust="spacing" textLength="166" x="608.75" y="147.4336">grouped per namespace</text><text fill="#000000" font-family="sans-serif" font-size="13" lengthAdjust="spacing" textLength="4" x="35.75" y="162.7441">&#160;</text><text fill="#000000" font-family="sans-serif" font-size="13" lengthAdjust="spacing" textLength="229" x="35.75" y="193.3652">You can click either the namespaces</text><text fill="#000000" font-family="sans-serif" font-size="13" lengthAdjust="spacing" textLength="266" x="35.75" y="208.6758">or class names for filtering them and their</text><text fill="#000000" font-family="sans-serif" font-size="13" lengthAdjust="spacing" textLength="130" x="35.75" y="223.9863">direct dependencies.</text><text fill="#000000" font-family="sans-serif" font-size="13" lengthAdjust="spacing" textLength="4" x="35.75" y="239.2969">&#160;</text><line style="stroke:#181818;stroke-width:1.0;" x1="30.75" x2="423.25" y1="173.1416" y2="173.1416"/><line style="stroke:#181818;stroke-width:1.0;" x1="30.75" x2="423.25" y1="175.1416" y2="175.1416"/><text fill="#000000" font-family="sans-serif" font-size="13" lengthAdjust="spacing" textLength="32" x="423.25" y="177.5547">Filter</text><line style="stroke:#181818;stroke-width:1.0;" x1="455.25" x2="847.75" y1="173.1416" y2="173.1416"/><line style="stroke:#181818;stroke-width:1.0;" x1="455.25" x2="847.75" y1="175.1416" y2="175.1416"/><ellipse cx="41.25" cy="269.1602" fill="#000000" rx="2.5" ry="2.5" style="stroke:#000000;stroke-width:0.0;"/><text fill="#000000" font-family="sans-serif" font-size="13" lengthAdjust="spacing" textLength="471" x="47.75" y="273.918">MyNamespace.DotNetPreAdapter.DotNetPreAdapter.RecursiveFileProcessor</text><text fill="#000000" font-family="sans-serif" font-size="13" font-weight="bold" lengthAdjust="spacing" textLength="55" x="522.75" y="273.918">detailed</text><text fill="#000000" font-family="sans-serif" font-size="13" lengthAdjust="spacing" textLength="23" x="581.75" y="273.918">and</text><text fill="#000000" font-family="sans-serif" font-size="13" font-weight="bold" lengthAdjust="spacing" textLength="166" x="608.75" y="273.918">grouped per namespace</text><text fill="#000000" font-family="sans-serif" font-size="13" lengthAdjust="spacing" textLength="4" x="774.75" y="273.918">:</text><text fill="#000000" font-family="sans-serif" font-size="13" lengthAdjust="spacing" textLength="12" x="35.75" y="289.2285">&#160;&#160;&#160;</text><a href="MyNamespace.DotNetPreAdapter.DotNetPreAdapter.RecursiveFileProcessor-diagram-detailed-grouped-per-namespace.svg" target="_top" title="MyNamespace.DotNetPreAdapter.DotNetPreAdapter.RecursiveFileProcessor-diagram-detailed-grouped-per-namespace.svg" xlink:actuate="onRequest" xlink:href="MyNamespace.DotNetPreAdapter.DotNetPreAdapter.RecursiveFileProcessor-diagram-detailed-grouped-per-namespace.svg" xlink:show="new" xlink:title="MyNamespace.DotNetPreAdapter.DotNetPreAdapter.RecursiveFileProcessor-diagram-detailed-grouped-per-namespace.svg" xlink:type="simple"><text fill="#0000FF" font-family="sans-serif" font-size="13" lengthAdjust="spacing" text-decoration="underline" textLength="780" x="47.75" y="289.2285">MyNamespace.DotNetPreAdapter.DotNetPreAdapter.RecursiveFileProcessor-diagram-detailed-grouped-per-namespace.svg</text></a><ellipse cx="41.25" cy="299.7813" fill="#000000" rx="2.5" ry="2.5" style="stroke:#000000;stroke-width:0.0;"/><text fill="#000000" font-family="sans-serif" font-size="13" lengthAdjust="spacing" textLength="78" x="47.75" y="304.5391">Full diagram</text><text fill="#000000" font-family="sans-serif" font-size="13" font-weight="bold" lengthAdjust="spacing" textLength="67" x="129.75" y="304.5391">simplified</text><text fill="#000000" font-family="sans-serif" font-size="13" lengthAdjust="spacing" textLength="23" x="200.75" y="304.5391">and</text><text fill="#000000" font-family="sans-serif" font-size="13" font-weight="bold" lengthAdjust="spacing" textLength="166" x="227.75" y="304.5391">grouped per namespace</text><text fill="#000000" font-family="sans-serif" font-size="13" lengthAdjust="spacing" textLength="4" x="393.75" y="304.5391">:</text><text fill="#000000" font-family="sans-serif" font-size="13" lengthAdjust="spacing" textLength="12" x="35.75" y="319.8496">&#160;&#160;&#160;</text><a href="full-diagram-simplified-grouped-per-namespace.svg" target="_top" title="full-diagram-simplified-grouped-per-namespace.svg" xlink:actuate="onRequest" xlink:href="full-diagram-simplified-grouped-per-namespace.svg" xlink:show="new" xlink:title="full-diagram-simplified-grouped-per-namespace.svg" xlink:type="simple"><text fill="#0000FF" font-family="sans-serif" font-size="13" lengthAdjust="spacing" text-decoration="underline" textLength="343" x="47.75" y="319.8496">full-diagram-simplified-grouped-per-namespace.svg</text></a><ellipse cx="41.25" cy="330.4023" fill="#000000" rx="2.5" ry="2.5" style="stroke:#000000;stroke-width:0.0;"/><text fill="#000000" font-family="sans-serif" font-size="13" lengthAdjust="spacing" textLength="41" x="47.75" y="335.1602">Home:</text><text fill="#000000" font-family="sans-serif" font-size="13" lengthAdjust="spacing" textLength="12" x="35.75" y="350.4707">&#160;&#160;&#160;</text><a href="index.html" target="_top" title="index.html" xlink:actuate="onRequest" xlink:href="index.html" xlink:show="new" xlink:title="index.html" xlink:type="simple"><text fill="#0000FF" font-family="sans-serif" font-size="13" lengthAdjust="spacing" text-decoration="underline" textLength="68" x="47.75" y="350.4707">index.html</text></a><line style="stroke:#181818;stroke-width:1.0;" x1="30.75" x2="402.25" y1="253.6943" y2="253.6943"/><line style="stroke:#181818;stroke-width:1.0;" x1="30.75" x2="402.25" y1="255.6943" y2="255.6943"/><text fill="#000000" font-family="sans-serif" font-size="13" lengthAdjust="spacing" textLength="74" x="402.25" y="258.1074">Select other</text><line style="stroke:#181818;stroke-width:1.0;" x1="476.25" x2="847.75" y1="253.6943" y2="253.6943"/><line style="stroke:#181818;stroke-width:1.0;" x1="476.25" x2="847.75" y1="255.6943" y2="255.6943"/></g><!--SRC=[tLNVQzj037xFNo6wXu8XtjXZQ0eb8smF2sLx6dK85rjEHCywSpgdJKV_zydvuMHhHXhgTZ1ZZ7sMla-VfDF9BN5fl2d04cDObWZEXxdh10eMuKBe0NiVFrn-NOvCWLAQ5EDFBemmN7kyoamPq3zT-8PfvOKME2IBrzwbAE8yH95GKLhA2RCe0iEPBisygqhCe4GFlEM8eeltDVLbXrr0EFlXAW_6e_eOktmWdlKIVlEO4awutrT_nUlt4zQe83KCgQNq5f32NEtriVCHI5X9Kcj4rgkGwtU-Wb0LjNMn8jKNyWbdv34Da669d26dX1AlQR-ZhV-ucgGcZw0b_Ha6eqj7rMl60U3cfWtQRaPcfbtNtP9tDwHT9UqsfB4iPkDnhNLOMGiRfvDgjeqwLu26TUT-ZFUpAt0BGLgH-tWU2ZiUdu4H65fdWbPnf3tQQPptw_9xkaxaXv-7GPya-KXHNelsr3Z-NM1_Q_wMc_dPCc1rcQa4RtHFhyT36w74NvZH3rPuxOZRGpnLvxibMklk6hsFdVE1A_IqqLtwVnGIxdJcW-OcW4xd0bddSmwDMXXO9_MKDpgyIeyBSfLCf9fE6gI99NNUPMFa666AgQa4wsDYS-892UYT4vFCCOlti7U-XqLr7WyQ_vcIbvdjPLyju5pdyRCkU3NREifw5tYqEgCT2-3zQhTfy-NU5RlWUshRHlVy0W00]--></g></svg>