<?xml version="1.0" encoding="us-ascii" standalone="no"?><svg xmlns="http://www.w3.org/2000/svg" xmlns:xlink="http://www.w3.org/1999/xlink" contentStyleType="text/css" height="469px" preserveAspectRatio="none" style="width:745px;height:469px;background:#FFFFFF;" version="1.1" viewBox="0 0 745 469" width="745px" zoomAndPan="magnify"><defs/><g><text fill="#000000" font-family="sans-serif" font-size="20" font-weight="bold" lengthAdjust="spacing" textLength="501" x="66" y="29.3359">MyNamespace.DotNetPreAdapter.InnerClassBase</text><text fill="#000000" font-family="sans-serif" font-size="20" font-weight="bold" lengthAdjust="spacing" textLength="84" x="574" y="29.3359">detailed</text><text fill="#000000" font-family="sans-serif" font-size="20" font-weight="bold" lengthAdjust="spacing" textLength="7" x="658" y="29.3359">&#160;</text><!--cluster MyNamespace--><g id="cluster_MyNamespace"><path d="M524.5,72.5547 L627.5,72.5547 A3.75,3.75 0 0 1 630,75.0547 L637,95.043 L735.5,95.043 A2.5,2.5 0 0 1 738,97.543 L738,460.0547 A2.5,2.5 0 0 1 735.5,462.5547 L524.5,462.5547 A2.5,2.5 0 0 1 522,460.0547 L522,75.0547 A2.5,2.5 0 0 1 524.5,72.5547 " fill="none" style="stroke:#000000;stroke-width:1.5;"/><line style="stroke:#000000;stroke-width:1.5;" x1="522" x2="637" y1="95.043" y2="95.043"/><text fill="#000000" font-family="sans-serif" font-size="14" font-weight="bold" lengthAdjust="spacing" textLength="102" x="526" y="88.0898">MyNamespace</text></g><!--cluster DotNetPreAdapter--><g id="cluster_DotNetPreAdapter"><path d="M548.5,115.5547 L679.5,115.5547 A3.75,3.75 0 0 1 682,118.0547 L689,138.043 L711.5,138.043 A2.5,2.5 0 0 1 714,140.543 L714,436.0547 A2.5,2.5 0 0 1 711.5,438.5547 L548.5,438.5547 A2.5,2.5 0 0 1 546,436.0547 L546,118.0547 A2.5,2.5 0 0 1 548.5,115.5547 " fill="none" style="stroke:#000000;stroke-width:1.5;"/><line style="stroke:#000000;stroke-width:1.5;" x1="546" x2="689" y1="138.043" y2="138.043"/><text fill="#000000" font-family="sans-serif" font-size="14" font-weight="bold" lengthAdjust="spacing" textLength="130" x="550" y="131.0898">DotNetPreAdapter</text></g><!--class InnerClassBase--><a href="MyNamespace.DotNetPreAdapter.InnerClassBase-diagram-detailed.svg" target="_top" title="MyNamespace.DotNetPreAdapter.InnerClassBase-diagram-detailed.svg" xlink:actuate="onRequest" xlink:href="MyNamespace.DotNetPreAdapter.InnerClassBase-diagram-detailed.svg" xlink:show="new" xlink:title="MyNamespace.DotNetPreAdapter.InnerClassBase-diagram-detailed.svg" xlink:type="simple"><g id="elem_InnerClassBase"><rect codeLine="4" fill="#FFFF00" height="48" id="InnerClassBase" rx="2.5" ry="2.5" style="stroke:#181818;stroke-width:0.5;" width="135" x="562.5" y="150.5547"/><ellipse cx="577.5" cy="166.5547" fill="#A9DCDF" rx="11" ry="11" style="stroke:#181818;stroke-width:1.0;"/><path d="M577.3633,161.9028 L576.2095,166.9746 L578.5254,166.9746 Z M575.8691,159.6616 L578.8657,159.6616 L582.2109,172.0547 L579.7622,172.0547 L578.9985,168.9917 L575.7197,168.9917 L574.9727,172.0547 L572.5239,172.0547 Z " fill="#000000"/><text fill="#000000" font-family="sans-serif" font-size="14" font-style="italic" lengthAdjust="spacing" textLength="103" x="591.5" y="171.8457">InnerClassBase</text><line style="stroke:#181818;stroke-width:0.5;" x1="563.5" x2="696.5" y1="182.5547" y2="182.5547"/><line style="stroke:#181818;stroke-width:0.5;" x1="563.5" x2="696.5" y1="190.5547" y2="190.5547"/></g></a><!--class InnerClass--><a href="MyNamespace.DotNetPreAdapter.InnerClass-diagram-detailed.svg" target="_top" title="MyNamespace.DotNetPreAdapter.InnerClass-diagram-detailed.svg" xlink:actuate="onRequest" xlink:href="MyNamespace.DotNetPreAdapter.InnerClass-diagram-detailed.svg" xlink:show="new" xlink:title="MyNamespace.DotNetPreAdapter.InnerClass-diagram-detailed.svg" xlink:type="simple"><g id="elem_InnerClass"><rect codeLine="6" fill="#F1F1F1" height="64.4883" id="InnerClass" rx="2.5" ry="2.5" style="stroke:#181818;stroke-width:0.5;" width="124" x="568" y="358.5547"/><ellipse cx="592" cy="374.5547" fill="#A9DCDF" rx="11" ry="11" style="stroke:#181818;stroke-width:1.0;"/><path d="M591.8633,369.9028 L590.7095,374.9746 L593.0254,374.9746 Z M590.3691,367.6616 L593.3657,367.6616 L596.7109,380.0547 L594.2622,380.0547 L593.4985,376.9917 L590.2197,376.9917 L589.4727,380.0547 L587.0239,380.0547 Z " fill="#000000"/><text fill="#000000" font-family="sans-serif" font-size="14" font-style="italic" lengthAdjust="spacing" textLength="72" x="608" y="379.8457">InnerClass</text><line style="stroke:#181818;stroke-width:0.5;" x1="569" x2="691" y1="390.5547" y2="390.5547"/><line style="stroke:#181818;stroke-width:0.5;" x1="569" x2="691" y1="398.5547" y2="398.5547"/><rect fill="#F24D5C" height="6" style="stroke:#C82930;stroke-width:1.0;" width="6" x="576" y="409.2988"/><text fill="#000000" font-family="sans-serif" font-size="14" lengthAdjust="spacing" textLength="56" x="588" y="416.0898">unused(</text><text fill="#000000" font-family="sans-serif" font-size="14" lengthAdjust="spacing" textLength="9" x="644" y="416.0898">):</text><text fill="#BB6060" font-family="sans-serif" font-size="14" lengthAdjust="spacing" textLength="29" x="657" y="416.0898">void</text></g></a><g id="elem_FloatingNote"><path d="M6,50.5547 L6,298.2129 L506,298.2129 L506,60.5547 L496,50.5547 L6,50.5547 " fill="#FEFFDD" style="stroke:#181818;stroke-width:0.5;"/><path d="M496,50.5547 L496,60.5547 L506,60.5547 L496,50.5547 " fill="#FEFFDD" style="stroke:#181818;stroke-width:1.0;"/><text fill="#000000" font-family="sans-serif" font-size="13" lengthAdjust="spacing" textLength="120" x="12" y="68.123">Your are analyzing:</text><text fill="#000000" font-family="sans-serif" font-size="13" lengthAdjust="spacing" textLength="305" x="12" y="83.4336">MyNamespace.DotNetPreAdapter.InnerClassBase</text><text fill="#000000" font-family="sans-serif" font-size="13" font-weight="bold" lengthAdjust="spacing" textLength="55" x="321" y="83.4336">detailed</text><text fill="#000000" font-family="sans-serif" font-size="13" lengthAdjust="spacing" textLength="4" x="376" y="83.4336">&#160;</text><text fill="#000000" font-family="sans-serif" font-size="13" lengthAdjust="spacing" textLength="4" x="12" y="98.7441">&#160;</text><text fill="#000000" font-family="sans-serif" font-size="13" lengthAdjust="spacing" textLength="229" x="12" y="129.3652">You can click either the namespaces</text><text fill="#000000" font-family="sans-serif" font-size="13" lengthAdjust="spacing" textLength="266" x="12" y="144.6758">or class names for filtering them and their</text><text fill="#000000" font-family="sans-serif" font-size="13" lengthAdjust="spacing" textLength="130" x="12" y="159.9863">direct dependencies.</text><text fill="#000000" font-family="sans-serif" font-size="13" lengthAdjust="spacing" textLength="4" x="12" y="175.2969">&#160;</text><line style="stroke:#181818;stroke-width:1.0;" x1="7" x2="240" y1="109.1416" y2="109.1416"/><line style="stroke:#181818;stroke-width:1.0;" x1="7" x2="240" y1="111.1416" y2="111.1416"/><text fill="#000000" font-family="sans-serif" font-size="13" lengthAdjust="spacing" textLength="32" x="240" y="113.5547">Filter</text><line style="stroke:#181818;stroke-width:1.0;" x1="272" x2="505" y1="109.1416" y2="109.1416"/><line style="stroke:#181818;stroke-width:1.0;" x1="272" x2="505" y1="111.1416" y2="111.1416"/><ellipse cx="17.5" cy="205.1602" fill="#000000" rx="2.5" ry="2.5" style="stroke:#000000;stroke-width:0.0;"/><text fill="#000000" font-family="sans-serif" font-size="13" lengthAdjust="spacing" textLength="305" x="24" y="209.918">MyNamespace.DotNetPreAdapter.InnerClassBase</text><text fill="#000000" font-family="sans-serif" font-size="13" font-weight="bold" lengthAdjust="spacing" textLength="67" x="333" y="209.918">simplified</text><text fill="#000000" font-family="sans-serif" font-size="13" lengthAdjust="spacing" textLength="4" x="404" y="209.918">:</text><text fill="#000000" font-family="sans-serif" font-size="13" lengthAdjust="spacing" textLength="12" x="12" y="225.2285">&#160;&#160;&#160;</text><a href="MyNamespace.DotNetPreAdapter.InnerClassBase-diagram-simplified.svg" target="_top" title="MyNamespace.DotNetPreAdapter.InnerClassBase-diagram-simplified.svg" xlink:actuate="onRequest" xlink:href="MyNamespace.DotNetPreAdapter.InnerClassBase-diagram-simplified.svg" xlink:show="new" xlink:title="MyNamespace.DotNetPreAdapter.InnerClassBase-diagram-simplified.svg" xlink:type="simple"><text fill="#0000FF" font-family="sans-serif" font-size="13" lengthAdjust="spacing" text-decoration="underline" textLength="461" x="24" y="225.2285">MyNamespace.DotNetPreAdapter.InnerClassBase-diagram-simplified.svg</text></a><ellipse cx="17.5" cy="235.7813" fill="#000000" rx="2.5" ry="2.5" style="stroke:#000000;stroke-width:0.0;"/><text fill="#000000" font-family="sans-serif" font-size="13" lengthAdjust="spacing" textLength="78" x="24" y="240.5391">Full diagram</text><text fill="#000000" font-family="sans-serif" font-size="13" font-weight="bold" lengthAdjust="spacing" textLength="55" x="106" y="240.5391">detailed</text><text fill="#000000" font-family="sans-serif" font-size="13" lengthAdjust="spacing" textLength="23" x="165" y="240.5391">and</text><text fill="#000000" font-family="sans-serif" font-size="13" font-weight="bold" lengthAdjust="spacing" textLength="166" x="192" y="240.5391">grouped per namespace</text><text fill="#000000" font-family="sans-serif" font-size="13" lengthAdjust="spacing" textLength="4" x="358" y="240.5391">:</text><text fill="#000000" font-family="sans-serif" font-size="13" lengthAdjust="spacing" textLength="12" x="12" y="255.8496">&#160;&#160;&#160;</text><a href="full-diagram-detailed-grouped-per-namespace.svg" target="_top" title="full-diagram-detailed-grouped-per-namespace.svg" xlink:actuate="onRequest" xlink:href="full-diagram-detailed-grouped-per-namespace.svg" xlink:show="new" xlink:title="full-diagram-detailed-grouped-per-namespace.svg" xlink:type="simple"><text fill="#0000FF" font-family="sans-serif" font-size="13" lengthAdjust="spacing" text-decoration="underline" textLength="330" x="24" y="255.8496">full-diagram-detailed-grouped-per-namespace.svg</text></a><ellipse cx="17.5" cy="266.4023" fill="#000000" rx="2.5" ry="2.5" style="stroke:#000000;stroke-width:0.0;"/><text fill="#000000" font-family="sans-serif" font-size="13" lengthAdjust="spacing" textLength="41" x="24" y="271.1602">Home:</text><text fill="#000000" font-family="sans-serif" font-size="13" lengthAdjust="spacing" textLength="12" x="12" y="286.4707">&#160;&#160;&#160;</text><a href="index.html" target="_top" title="index.html" xlink:actuate="onRequest" xlink:href="index.html" xlink:show="new" xlink:title="index.html" xlink:type="simple"><text fill="#0000FF" font-family="sans-serif" font-size="13" lengthAdjust="spacing" text-decoration="underline" textLength="68" x="24" y="286.4707">index.html</text></a><line style="stroke:#181818;stroke-width:1.0;" x1="7" x2="219" y1="189.6943" y2="189.6943"/><line style="stroke:#181818;stroke-width:1.0;" x1="7" x2="219" y1="191.6943" y2="191.6943"/><text fill="#000000" font-family="sans-serif" font-size="13" lengthAdjust="spacing" textLength="74" x="219" y="194.1074">Select other</text><line style="stroke:#181818;stroke-width:1.0;" x1="293" x2="505" y1="189.6943" y2="189.6943"/><line style="stroke:#181818;stroke-width:1.0;" x1="293" x2="505" y1="191.6943" y2="191.6943"/></g><!--reverse link InnerClassBase to InnerClass--><g id="link_InnerClassBase_InnerClass"><path codeLine="14" d="M630,219.9147 C630,219.9147 630,358.2247 630,358.2247 " fill="none" id="InnerClassBase-backto-InnerClass" style="stroke:#FF0000;stroke-width:1.0;"/><polygon fill="none" points="623,219.9147,630,199.9147,637,219.9147,623,219.9147" style="stroke:#FF0000;stroke-width:1.0;"/></g><!--SRC=[jLB1Zfim4BtdAqRiOLiasAY7FKI0L5f5xQ5HfPwgmC75GsAj6IFRR3VRzjyx3Y7H7hPA8fK30lkzDs_UZ7jGr0ihEj2AqEzw16FzrioyyXeXS-eP5-_cnPVTIdJeUj5W-j7u5Vgl5jzBqNkqwMSYj1-qSAuK3Y6E9NgXDCeuXkmkI1GpCXuX-cu62y8Y219wzwneiwZeQksAAihpfT8CpFEAM1qQGT1erJm0Ahz52_m2clGTSunb0EkDfz3oVxkNO3S1tR4v6JwKhKWgYuq7YJsIH6eKkdGi-mrrk36XI2WUmsLzEDNrMhLgtmcd003hzGKIYLHYmuDBJaAfUzpKTR2o7BI60-1bPg6tEDvOC_GeeUU0Zk74yMIZPVfHVo8d1rB2fEH8EjNyP3gS11I7zPHkVQVhEWBXOAcDy1pmYjTW1Y1-E6y5npTEufBahWjfQcAq2pSxrDhyX5_ivS_LVixtyfgFlG6010OQ7CetMMk8JHXjR1xTp-_dPHaLsLquBTukuCLrMGP0L3mQ9G-GiPjR7l1P3_mtx2sC0LdKF7P33l1f7p3lN6jDTrgw1MF_5UBiajt8VYVh6ukoJiuTuLy0]--></g></svg>