<?xml version="1.0" encoding="us-ascii" standalone="no"?><svg xmlns="http://www.w3.org/2000/svg" xmlns:xlink="http://www.w3.org/1999/xlink" contentStyleType="text/css" height="569px" preserveAspectRatio="none" style="width:1026px;height:569px;background:#FFFFFF;" version="1.1" viewBox="0 0 1026 569" width="1026px" zoomAndPan="magnify"><defs/><g><text fill="#000000" font-family="sans-serif" font-size="20" font-weight="bold" lengthAdjust="spacing" textLength="297" x="161.5" y="29.3359">MyNamespace.UnusedClass1</text><text fill="#000000" font-family="sans-serif" font-size="20" font-weight="bold" lengthAdjust="spacing" textLength="84" x="465.5" y="29.3359">detailed</text><text fill="#000000" font-family="sans-serif" font-size="20" font-weight="bold" lengthAdjust="spacing" textLength="38" x="556.5" y="29.3359">and</text><text fill="#000000" font-family="sans-serif" font-size="20" font-weight="bold" lengthAdjust="spacing" textLength="249" x="601.5" y="29.3359">grouped per namespace</text><!--cluster DotNetPreAdapter--><g id="cluster_DotNetPreAdapter"><a href="DotNetPreAdapter-diagram-detailed-grouped-per-namespace.svg" target="_top" title="DotNetPreAdapter-diagram-detailed-grouped-per-namespace.svg" xlink:actuate="onRequest" xlink:href="DotNetPreAdapter-diagram-detailed-grouped-per-namespace.svg" xlink:show="new" xlink:title="DotNetPreAdapter-diagram-detailed-grouped-per-namespace.svg" xlink:type="simple"><path d="M571.5,54.0547 L702.5,54.0547 A3.75,3.75 0 0 1 705,56.5547 L712,76.543 L950.5,76.543 A2.5,2.5 0 0 1 953,79.043 L953,273.5547 A2.5,2.5 0 0 1 950.5,276.0547 L571.5,276.0547 A2.5,2.5 0 0 1 569,273.5547 L569,56.5547 A2.5,2.5 0 0 1 571.5,54.0547 " fill="none" style="stroke:#000000;stroke-width:1.5;"/><line style="stroke:#000000;stroke-width:1.5;" x1="569" x2="712" y1="76.543" y2="76.543"/><text fill="#000000" font-family="sans-serif" font-size="14" font-weight="bold" lengthAdjust="spacing" textLength="130" x="573" y="69.5898">DotNetPreAdapter</text></a></g><!--cluster MyNamespace--><g id="cluster_MyNamespace"><a href="MyNamespace-diagram-detailed-grouped-per-namespace.svg" target="_top" title="MyNamespace-diagram-detailed-grouped-per-namespace.svg" xlink:actuate="onRequest" xlink:href="MyNamespace-diagram-detailed-grouped-per-namespace.svg" xlink:show="new" xlink:title="MyNamespace-diagram-detailed-grouped-per-namespace.svg" xlink:type="simple"><path d="M549.5,323.5547 L652.5,323.5547 A3.75,3.75 0 0 1 655,326.0547 L662,346.043 L1016.5,346.043 A2.5,2.5 0 0 1 1019,348.543 L1019,560.0547 A2.5,2.5 0 0 1 1016.5,562.5547 L549.5,562.5547 A2.5,2.5 0 0 1 547,560.0547 L547,326.0547 A2.5,2.5 0 0 1 549.5,323.5547 " fill="none" style="stroke:#000000;stroke-width:1.5;"/><line style="stroke:#000000;stroke-width:1.5;" x1="547" x2="662" y1="346.043" y2="346.043"/><text fill="#000000" font-family="sans-serif" font-size="14" font-weight="bold" lengthAdjust="spacing" textLength="102" x="551" y="339.0898">MyNamespace</text></a></g><!--class Program--><a href="DotNetPreAdapter.Program-diagram-detailed-grouped-per-namespace.svg" target="_top" title="DotNetPreAdapter.Program-diagram-detailed-grouped-per-namespace.svg" xlink:actuate="onRequest" xlink:href="DotNetPreAdapter.Program-diagram-detailed-grouped-per-namespace.svg" xlink:show="new" xlink:title="DotNetPreAdapter.Program-diagram-detailed-grouped-per-namespace.svg" xlink:type="simple"><g id="elem_Program"><rect codeLine="5" fill="#F1F1F1" height="171.418" id="Program" rx="2.5" ry="2.5" style="stroke:#181818;stroke-width:0.5;" width="352" x="585" y="89.0547"/><ellipse cx="727.25" cy="105.0547" fill="#A9DCDF" rx="11" ry="11" style="stroke:#181818;stroke-width:1.0;"/><path d="M727.1133,100.4028 L725.9595,105.4746 L728.2754,105.4746 Z M725.6191,98.1616 L728.6157,98.1616 L731.9609,110.5547 L729.5122,110.5547 L728.7485,107.4917 L725.4697,107.4917 L724.7227,110.5547 L722.2739,110.5547 Z " fill="#000000"/><text fill="#000000" font-family="sans-serif" font-size="14" font-style="italic" lengthAdjust="spacing" textLength="59" x="747.75" y="110.3457">Program</text><line style="stroke:#181818;stroke-width:0.5;" x1="586" x2="936" y1="121.0547" y2="121.0547"/><rect fill="#F24D5C" height="6" style="stroke:#C82930;stroke-width:1.0;" width="6" x="593" y="131.7988"/><text fill="#000000" font-family="sans-serif" font-size="14" lengthAdjust="spacing" textLength="76" x="605" y="138.5898">removeMe(</text><text fill="#000000" font-family="sans-serif" font-size="14" lengthAdjust="spacing" textLength="5" x="681" y="138.5898">)</text><rect fill="none" height="6" style="stroke:#C82930;stroke-width:1.0;" width="6" x="593" y="148.2871"/><text fill="#909090" font-family="sans-serif" font-size="14" lengthAdjust="spacing" textLength="290" x="605" y="155.0781">removeMe.u1: MyNamespace.UnusedClass</text><rect fill="none" height="6" style="stroke:#C82930;stroke-width:1.0;" width="6" x="593" y="164.7754"/><text fill="#909090" font-family="sans-serif" font-size="14" lengthAdjust="spacing" textLength="317" x="605" y="171.5664">removeMe.u2: DotNetPreAdapter.UnusedClass</text><rect fill="none" height="6" style="stroke:#C82930;stroke-width:1.0;" width="6" x="593" y="181.2637"/><text fill="#909090" font-family="sans-serif" font-size="14" lengthAdjust="spacing" textLength="299" x="605" y="188.0547">removeMe.u3: MyNamespace.UnusedClass1</text><line style="stroke:#181818;stroke-width:1.0;" x1="586" x2="936" y1="195.0078" y2="195.0078"/><rect fill="#F24D5C" height="6" style="stroke:#C82930;stroke-width:1.0;" width="6" x="593" y="205.752"/><text fill="#000000" font-family="sans-serif" font-size="14" lengthAdjust="spacing" textLength="38" x="605" y="212.543">Main(</text><text fill="#000000" font-family="sans-serif" font-size="14" lengthAdjust="spacing" textLength="5" x="643" y="212.543">)</text><rect fill="none" height="6" style="stroke:#C82930;stroke-width:1.0;" width="6" x="593" y="222.2402"/><text fill="#909090" font-family="sans-serif" font-size="14" lengthAdjust="spacing" textLength="300" x="605" y="229.0313">Main.logger: DotNetPreAdapter.Utils.Logger</text><rect fill="none" height="6" style="stroke:#C82930;stroke-width:1.0;" width="6" x="593" y="238.7285"/><text fill="#909090" font-family="sans-serif" font-size="14" lengthAdjust="spacing" textLength="326" x="605" y="245.5195">Main.ast: DotNetPreAdapter.Service.AnalyzeAST</text><line style="stroke:#181818;stroke-width:1.0;" x1="586" x2="936" y1="252.4727" y2="252.4727"/></g></a><!--class UnusedClass1--><a href="MyNamespace.UnusedClass1-diagram-detailed-grouped-per-namespace.svg" target="_top" title="MyNamespace.UnusedClass1-diagram-detailed-grouped-per-namespace.svg" xlink:actuate="onRequest" xlink:href="MyNamespace.UnusedClass1-diagram-detailed-grouped-per-namespace.svg" xlink:show="new" xlink:title="MyNamespace.UnusedClass1-diagram-detailed-grouped-per-namespace.svg" xlink:type="simple"><g id="elem_UnusedClass1"><rect codeLine="21" fill="#FFFF00" height="64.4883" id="UnusedClass1" rx="2.5" ry="2.5" style="stroke:#181818;stroke-width:0.5;" width="129" x="718.5" y="358.5547"/><ellipse cx="733.5" cy="374.5547" fill="#A9DCDF" rx="11" ry="11" style="stroke:#181818;stroke-width:1.0;"/><path d="M733.3633,369.9028 L732.2095,374.9746 L734.5254,374.9746 Z M731.8691,367.6616 L734.8657,367.6616 L738.2109,380.0547 L735.7622,380.0547 L734.9985,376.9917 L731.7197,376.9917 L730.9727,380.0547 L728.5239,380.0547 Z " fill="#000000"/><text fill="#000000" font-family="sans-serif" font-size="14" font-style="italic" lengthAdjust="spacing" textLength="97" x="747.5" y="379.8457">UnusedClass1</text><line style="stroke:#181818;stroke-width:0.5;" x1="719.5" x2="846.5" y1="390.5547" y2="390.5547"/><line style="stroke:#181818;stroke-width:0.5;" x1="719.5" x2="846.5" y1="398.5547" y2="398.5547"/><ellipse cx="729.5" cy="412.2988" fill="#84BE84" rx="3" ry="3" style="stroke:#038048;stroke-width:1.0;"/><text fill="#000000" font-family="sans-serif" font-size="14" lengthAdjust="spacing" textLength="78" x="738.5" y="416.0898">doNothing(</text><text fill="#000000" font-family="sans-serif" font-size="14" lengthAdjust="spacing" textLength="5" x="816.5" y="416.0898">)</text></g></a><!--class UnusedClass1_DOT_InnerClass--><a href="MyNamespace.UnusedClass1.InnerClass-diagram-detailed-grouped-per-namespace.svg" target="_top" title="MyNamespace.UnusedClass1.InnerClass-diagram-detailed-grouped-per-namespace.svg" xlink:actuate="onRequest" xlink:href="MyNamespace.UnusedClass1.InnerClass-diagram-detailed-grouped-per-namespace.svg" xlink:show="new" xlink:title="MyNamespace.UnusedClass1.InnerClass-diagram-detailed-grouped-per-namespace.svg" xlink:type="simple"><g id="elem_UnusedClass1_DOT_InnerClass"><rect codeLine="24" fill="#FFFF00" height="64.4883" id="UnusedClass1_DOT_InnerClass" rx="2.5" ry="2.5" style="stroke:#181818;stroke-width:0.5;" width="440" x="563" y="482.5547"/><ellipse cx="672.25" cy="498.5547" fill="#A9DCDF" rx="11" ry="11" style="stroke:#181818;stroke-width:1.0;"/><path d="M672.1133,493.9028 L670.9595,498.9746 L673.2754,498.9746 Z M670.6191,491.6616 L673.6157,491.6616 L676.9609,504.0547 L674.5122,504.0547 L673.7485,500.9917 L670.4697,500.9917 L669.7227,504.0547 L667.2739,504.0547 Z " fill="#000000"/><text fill="#000000" font-family="sans-serif" font-size="14" font-style="italic" lengthAdjust="spacing" textLength="213" x="692.75" y="503.8457">UnusedClass1_DOT_InnerClass</text><line style="stroke:#181818;stroke-width:0.5;" x1="564" x2="1002" y1="514.5547" y2="514.5547"/><line style="stroke:#181818;stroke-width:0.5;" x1="564" x2="1002" y1="522.5547" y2="522.5547"/><ellipse cx="574" cy="536.2988" fill="#84BE84" rx="3" ry="3" style="stroke:#038048;stroke-width:1.0;"/><text fill="#000000" font-family="sans-serif" font-size="14" lengthAdjust="spacing" textLength="129" x="583" y="540.0898">UnusedInnerClass(</text><text fill="#6060BB" font-family="sans-serif" font-size="14" lengthAdjust="spacing" textLength="280" x="712" y="540.0898">unusedClass:MyNamespace.UnusedClass</text><text fill="#000000" font-family="sans-serif" font-size="14" lengthAdjust="spacing" textLength="5" x="992" y="540.0898">)</text></g></a><!--class UnusedClass--><a href="MyNamespace.UnusedClass-diagram-detailed-grouped-per-namespace.svg" target="_top" title="MyNamespace.UnusedClass-diagram-detailed-grouped-per-namespace.svg" xlink:actuate="onRequest" xlink:href="MyNamespace.UnusedClass-diagram-detailed-grouped-per-namespace.svg" xlink:show="new" xlink:title="MyNamespace.UnusedClass-diagram-detailed-grouped-per-namespace.svg" xlink:type="simple"><g id="elem_UnusedClass"><rect codeLine="27" fill="#F1F1F1" height="48" id="UnusedClass" rx="2.5" ry="2.5" style="stroke:#181818;stroke-width:0.5;" width="120" x="563" y="366.5547"/><ellipse cx="578" cy="382.5547" fill="#A9DCDF" rx="11" ry="11" style="stroke:#181818;stroke-width:1.0;"/><path d="M577.8633,377.9028 L576.7095,382.9746 L579.0254,382.9746 Z M576.3691,375.6616 L579.3657,375.6616 L582.7109,388.0547 L580.2622,388.0547 L579.4985,384.9917 L576.2197,384.9917 L575.4727,388.0547 L573.0239,388.0547 Z " fill="#000000"/><text fill="#000000" font-family="sans-serif" font-size="14" font-style="italic" lengthAdjust="spacing" textLength="88" x="592" y="387.8457">UnusedClass</text><line style="stroke:#181818;stroke-width:0.5;" x1="564" x2="682" y1="398.5547" y2="398.5547"/><line style="stroke:#181818;stroke-width:0.5;" x1="564" x2="682" y1="406.5547" y2="406.5547"/></g></a><g id="elem_FloatingNote"><path d="M6,50.5547 L6,298.2129 L550,298.2129 L550,60.5547 L540,50.5547 L6,50.5547 " fill="#FEFFDD" style="stroke:#181818;stroke-width:0.5;"/><path d="M540,50.5547 L540,60.5547 L550,60.5547 L540,50.5547 " fill="#FEFFDD" style="stroke:#181818;stroke-width:1.0;"/><text fill="#000000" font-family="sans-serif" font-size="13" lengthAdjust="spacing" textLength="120" x="12" y="68.123">Your are analyzing:</text><text fill="#000000" font-family="sans-serif" font-size="13" lengthAdjust="spacing" textLength="183" x="12" y="83.4336">MyNamespace.UnusedClass1</text><text fill="#000000" font-family="sans-serif" font-size="13" font-weight="bold" lengthAdjust="spacing" textLength="55" x="199" y="83.4336">detailed</text><text fill="#000000" font-family="sans-serif" font-size="13" lengthAdjust="spacing" textLength="23" x="258" y="83.4336">and</text><text fill="#000000" font-family="sans-serif" font-size="13" font-weight="bold" lengthAdjust="spacing" textLength="166" x="285" y="83.4336">grouped per namespace</text><text fill="#000000" font-family="sans-serif" font-size="13" lengthAdjust="spacing" textLength="4" x="12" y="98.7441">&#160;</text><text fill="#000000" font-family="sans-serif" font-size="13" lengthAdjust="spacing" textLength="229" x="12" y="129.3652">You can click either the namespaces</text><text fill="#000000" font-family="sans-serif" font-size="13" lengthAdjust="spacing" textLength="266" x="12" y="144.6758">or class names for filtering them and their</text><text fill="#000000" font-family="sans-serif" font-size="13" lengthAdjust="spacing" textLength="130" x="12" y="159.9863">direct dependencies.</text><text fill="#000000" font-family="sans-serif" font-size="13" lengthAdjust="spacing" textLength="4" x="12" y="175.2969">&#160;</text><line style="stroke:#181818;stroke-width:1.0;" x1="7" x2="262" y1="109.1416" y2="109.1416"/><line style="stroke:#181818;stroke-width:1.0;" x1="7" x2="262" y1="111.1416" y2="111.1416"/><text fill="#000000" font-family="sans-serif" font-size="13" lengthAdjust="spacing" textLength="32" x="262" y="113.5547">Filter</text><line style="stroke:#181818;stroke-width:1.0;" x1="294" x2="549" y1="109.1416" y2="109.1416"/><line style="stroke:#181818;stroke-width:1.0;" x1="294" x2="549" y1="111.1416" y2="111.1416"/><ellipse cx="17.5" cy="205.1602" fill="#000000" rx="2.5" ry="2.5" style="stroke:#000000;stroke-width:0.0;"/><text fill="#000000" font-family="sans-serif" font-size="13" lengthAdjust="spacing" textLength="183" x="24" y="209.918">MyNamespace.UnusedClass1</text><text fill="#000000" font-family="sans-serif" font-size="13" font-weight="bold" lengthAdjust="spacing" textLength="67" x="211" y="209.918">simplified</text><text fill="#000000" font-family="sans-serif" font-size="13" lengthAdjust="spacing" textLength="23" x="282" y="209.918">and</text><text fill="#000000" font-family="sans-serif" font-size="13" font-weight="bold" lengthAdjust="spacing" textLength="166" x="309" y="209.918">grouped per namespace</text><text fill="#000000" font-family="sans-serif" font-size="13" lengthAdjust="spacing" textLength="4" x="475" y="209.918">:</text><text fill="#000000" font-family="sans-serif" font-size="13" lengthAdjust="spacing" textLength="12" x="12" y="225.2285">&#160;&#160;&#160;</text><a href="MyNamespace.UnusedClass1-diagram-simplified-grouped-per-namespace.svg" target="_top" title="MyNamespace.UnusedClass1-diagram-simplified-grouped-per-namespace.svg" xlink:actuate="onRequest" xlink:href="MyNamespace.UnusedClass1-diagram-simplified-grouped-per-namespace.svg" xlink:show="new" xlink:title="MyNamespace.UnusedClass1-diagram-simplified-grouped-per-namespace.svg" xlink:type="simple"><text fill="#0000FF" font-family="sans-serif" font-size="13" lengthAdjust="spacing" text-decoration="underline" textLength="505" x="24" y="225.2285">MyNamespace.UnusedClass1-diagram-simplified-grouped-per-namespace.svg</text></a><ellipse cx="17.5" cy="235.7813" fill="#000000" rx="2.5" ry="2.5" style="stroke:#000000;stroke-width:0.0;"/><text fill="#000000" font-family="sans-serif" font-size="13" lengthAdjust="spacing" textLength="78" x="24" y="240.5391">Full diagram</text><text fill="#000000" font-family="sans-serif" font-size="13" font-weight="bold" lengthAdjust="spacing" textLength="55" x="106" y="240.5391">detailed</text><text fill="#000000" font-family="sans-serif" font-size="13" lengthAdjust="spacing" textLength="23" x="165" y="240.5391">and</text><text fill="#000000" font-family="sans-serif" font-size="13" font-weight="bold" lengthAdjust="spacing" textLength="166" x="192" y="240.5391">grouped per namespace</text><text fill="#000000" font-family="sans-serif" font-size="13" lengthAdjust="spacing" textLength="4" x="358" y="240.5391">:</text><text fill="#000000" font-family="sans-serif" font-size="13" lengthAdjust="spacing" textLength="12" x="12" y="255.8496">&#160;&#160;&#160;</text><a href="full-diagram-detailed-grouped-per-namespace.svg" target="_top" title="full-diagram-detailed-grouped-per-namespace.svg" xlink:actuate="onRequest" xlink:href="full-diagram-detailed-grouped-per-namespace.svg" xlink:show="new" xlink:title="full-diagram-detailed-grouped-per-namespace.svg" xlink:type="simple"><text fill="#0000FF" font-family="sans-serif" font-size="13" lengthAdjust="spacing" text-decoration="underline" textLength="330" x="24" y="255.8496">full-diagram-detailed-grouped-per-namespace.svg</text></a><ellipse cx="17.5" cy="266.4023" fill="#000000" rx="2.5" ry="2.5" style="stroke:#000000;stroke-width:0.0;"/><text fill="#000000" font-family="sans-serif" font-size="13" lengthAdjust="spacing" textLength="41" x="24" y="271.1602">Home:</text><text fill="#000000" font-family="sans-serif" font-size="13" lengthAdjust="spacing" textLength="12" x="12" y="286.4707">&#160;&#160;&#160;</text><a href="index.html" target="_top" title="index.html" xlink:actuate="onRequest" xlink:href="index.html" xlink:show="new" xlink:title="index.html" xlink:type="simple"><text fill="#0000FF" font-family="sans-serif" font-size="13" lengthAdjust="spacing" text-decoration="underline" textLength="68" x="24" y="286.4707">index.html</text></a><line style="stroke:#181818;stroke-width:1.0;" x1="7" x2="241" y1="189.6943" y2="189.6943"/><line style="stroke:#181818;stroke-width:1.0;" x1="7" x2="241" y1="191.6943" y2="191.6943"/><text fill="#000000" font-family="sans-serif" font-size="13" lengthAdjust="spacing" textLength="74" x="241" y="194.1074">Select other</text><line style="stroke:#181818;stroke-width:1.0;" x1="315" x2="549" y1="189.6943" y2="189.6943"/><line style="stroke:#181818;stroke-width:1.0;" x1="315" x2="549" y1="191.6943" y2="191.6943"/></g><!--link Program to UnusedClass--><g id="link_Program_UnusedClass"><path codeLine="38" d="M634,260.5447 C634,260.5447 634,360.2547 634,360.2547 " fill="none" id="Program-to-UnusedClass" style="stroke:#909090;stroke-width:1.0;"/><polygon fill="#909090" points="634,365.2547,638,356.2547,634,360.2547,630,356.2547,634,365.2547" style="stroke:#909090;stroke-width:1.0;"/><text fill="#000000" font-family="sans-serif" font-size="13" lengthAdjust="spacing" textLength="29" x="604" y="306.973">uses</text></g><!--link Program to UnusedClass1--><g id="link_Program_UnusedClass1"><path codeLine="39" d="M783,260.5447 C783,260.5447 783,352.1947 783,352.1947 " fill="none" id="Program-to-UnusedClass1" style="stroke:#909090;stroke-width:1.0;"/><polygon fill="#909090" points="783,357.1947,787,348.1947,783,352.1947,779,348.1947,783,357.1947" style="stroke:#909090;stroke-width:1.0;"/><text fill="#000000" font-family="sans-serif" font-size="13" lengthAdjust="spacing" textLength="29" x="753" y="302.943">uses</text></g><!--reverse link UnusedClass1 to UnusedClass1_DOT_InnerClass--><g id="link_UnusedClass1_UnusedClass1_DOT_InnerClass"><path codeLine="42" d="M783,438.8147 C783,438.8147 783,482.4647 783,482.4647 " fill="none" id="UnusedClass1-backto-UnusedClass1_DOT_InnerClass" style="stroke:#10BBBB;stroke-width:1.0;"/><ellipse cx="783" cy="431.8147" fill="#FFFFFF" rx="8" ry="8" style="stroke:#10BBBB;stroke-width:1.0;"/><line style="stroke:#10BBBB;stroke-width:1.0;" x1="783" x2="783" y1="439.8147" y2="423.8147"/><line style="stroke:#10BBBB;stroke-width:1.0;" x1="775" x2="791" y1="431.8147" y2="431.8147"/></g><!--SRC=[pLNlRzem4FtENt6Y7xfH9OLEghG8a4ghQfDMLgdTXmaYv98BM7Nio7POwTJ_VPT026r92VqXZIBKs7VltVFvNimjbp7JB0B19TfvZA2qdQgQvLOWj0s_H- -esRsOzrc49cPZT7_9n61mAfWnBMWq0hIC2mmQ3M0oe8M9LacC0SIeGUPPZKRxC0NhrgIo2FNVAj70D58E4_DxBYVUKBu3or0EPQTppeL5tUaC9V70c4aO2pw-1UHsIl7qK-GO64gbAO2O5giGqdEOGL1TQNIKaT8_N0zbm3MEBGGOemnGZZaQTq5xXIBTKIb9Ijw05nGP7iM2Xtox9ZeP01WCoi2SWBC9zT0f89qbb4DGpWhADRE9xwTrdIT2m39jXzFDAmafVSMQ9s_Z_AOYp04udToTExMHyFqwC0FdGZ5Bfzsdsr5R9SEPidsqbnfF0XPJFoZrwT9ETS3V6hinLZDgqwBZJ-7SIwsoKtdEb6_jnaYK00veZDGCB_1JErIIo9LGkbC_RXutUxrwjtsOhdO_Pw6F8husqxzwDyztavPNTgsMA5L0Zhpdob-7zAMqd5QEuZWPq0NZyhNoqrnNgCa4zQRABHV6_P5jRoqzWsB6Ri2vGZtZ9E8aCoKykRfUa_1GspzL4RabpSL7tb3uGou5T80Mo4yY90Kg16A7Kw5CwaYCXZVMEECgCIEJt8nM62F1AQsehgyamWsE6JKbjRIbtnfkWBuXbznCCN3NiCkLqG4KcsijV-nCRnp7KiEiO7-L6FVcA8Jwaqtb0GIA36TAkhVSouUgTOxEVbwFlak9Edj-eMotY7gBWWLaWRLPI58GUo-RHtMjvTfsDiZDe_LUT-n_6QWr1QGOzkazM-a37nQRLfbsKgEWjw-I1l0kwppr8TGgAehtAFQP8PI-Evt1ti9jVQTRUdt00temy3QOLe6pcvhrRfHY7r09BPgWNiztAizyhSB8WplOMmodxsu_edy0]--></g></svg>