<?xml version="1.0" encoding="us-ascii" standalone="no"?><svg xmlns="http://www.w3.org/2000/svg" xmlns:xlink="http://www.w3.org/1999/xlink" contentStyleType="text/css" height="453px" preserveAspectRatio="none" style="width:732px;height:453px;background:#FFFFFF;" version="1.1" viewBox="0 0 732 453" width="732px" zoomAndPan="magnify"><defs/><g><text fill="#000000" font-family="sans-serif" font-size="20" font-weight="bold" lengthAdjust="spacing" textLength="501" x="49.75" y="29.3359">MyNamespace.DotNetPreAdapter.InnerClassBase</text><text fill="#000000" font-family="sans-serif" font-size="20" font-weight="bold" lengthAdjust="spacing" textLength="104" x="557.75" y="29.3359">simplified</text><text fill="#000000" font-family="sans-serif" font-size="20" font-weight="bold" lengthAdjust="spacing" textLength="7" x="661.75" y="29.3359">&#160;</text><!--cluster MyNamespace--><g id="cluster_MyNamespace"><path d="M512,72.5547 L615,72.5547 A3.75,3.75 0 0 1 617.5,75.0547 L624.5,95.043 L723,95.043 A2.5,2.5 0 0 1 725.5,97.543 L725.5,444.0547 A2.5,2.5 0 0 1 723,446.5547 L512,446.5547 A2.5,2.5 0 0 1 509.5,444.0547 L509.5,75.0547 A2.5,2.5 0 0 1 512,72.5547 " fill="none" style="stroke:#000000;stroke-width:1.5;"/><line style="stroke:#000000;stroke-width:1.5;" x1="509.5" x2="624.5" y1="95.043" y2="95.043"/><text fill="#000000" font-family="sans-serif" font-size="14" font-weight="bold" lengthAdjust="spacing" textLength="102" x="513.5" y="88.0898">MyNamespace</text></g><!--cluster DotNetPreAdapter--><g id="cluster_DotNetPreAdapter"><path d="M536,115.5547 L667,115.5547 A3.75,3.75 0 0 1 669.5,118.0547 L676.5,138.043 L699,138.043 A2.5,2.5 0 0 1 701.5,140.543 L701.5,420.0547 A2.5,2.5 0 0 1 699,422.5547 L536,422.5547 A2.5,2.5 0 0 1 533.5,420.0547 L533.5,118.0547 A2.5,2.5 0 0 1 536,115.5547 " fill="none" style="stroke:#000000;stroke-width:1.5;"/><line style="stroke:#000000;stroke-width:1.5;" x1="533.5" x2="676.5" y1="138.043" y2="138.043"/><text fill="#000000" font-family="sans-serif" font-size="14" font-weight="bold" lengthAdjust="spacing" textLength="130" x="537.5" y="131.0898">DotNetPreAdapter</text></g><!--class InnerClassBase--><a href="MyNamespace.DotNetPreAdapter.InnerClassBase-diagram-simplified.svg" target="_top" title="MyNamespace.DotNetPreAdapter.InnerClassBase-diagram-simplified.svg" xlink:actuate="onRequest" xlink:href="MyNamespace.DotNetPreAdapter.InnerClassBase-diagram-simplified.svg" xlink:show="new" xlink:title="MyNamespace.DotNetPreAdapter.InnerClassBase-diagram-simplified.svg" xlink:type="simple"><g id="elem_InnerClassBase"><rect codeLine="4" fill="#FFFF00" height="48" id="InnerClassBase" rx="2.5" ry="2.5" style="stroke:#181818;stroke-width:0.5;" width="135" x="550" y="150.5547"/><ellipse cx="565" cy="166.5547" fill="#A9DCDF" rx="11" ry="11" style="stroke:#181818;stroke-width:1.0;"/><path d="M564.8633,161.9028 L563.7095,166.9746 L566.0254,166.9746 Z M563.3691,159.6616 L566.3657,159.6616 L569.7109,172.0547 L567.2622,172.0547 L566.4985,168.9917 L563.2197,168.9917 L562.4727,172.0547 L560.0239,172.0547 Z " fill="#000000"/><text fill="#000000" font-family="sans-serif" font-size="14" font-style="italic" lengthAdjust="spacing" textLength="103" x="579" y="171.8457">InnerClassBase</text><line style="stroke:#181818;stroke-width:0.5;" x1="551" x2="684" y1="182.5547" y2="182.5547"/><line style="stroke:#181818;stroke-width:0.5;" x1="551" x2="684" y1="190.5547" y2="190.5547"/></g></a><!--class InnerClass--><a href="MyNamespace.DotNetPreAdapter.InnerClass-diagram-simplified.svg" target="_top" title="MyNamespace.DotNetPreAdapter.InnerClass-diagram-simplified.svg" xlink:actuate="onRequest" xlink:href="MyNamespace.DotNetPreAdapter.InnerClass-diagram-simplified.svg" xlink:show="new" xlink:title="MyNamespace.DotNetPreAdapter.InnerClass-diagram-simplified.svg" xlink:type="simple"><g id="elem_InnerClass"><rect codeLine="6" fill="#F1F1F1" height="48" id="InnerClass" rx="2.5" ry="2.5" style="stroke:#181818;stroke-width:0.5;" width="104" x="565.5" y="358.5547"/><ellipse cx="580.5" cy="374.5547" fill="#A9DCDF" rx="11" ry="11" style="stroke:#181818;stroke-width:1.0;"/><path d="M580.3633,369.9028 L579.2095,374.9746 L581.5254,374.9746 Z M578.8691,367.6616 L581.8657,367.6616 L585.2109,380.0547 L582.7622,380.0547 L581.9985,376.9917 L578.7197,376.9917 L577.9727,380.0547 L575.5239,380.0547 Z " fill="#000000"/><text fill="#000000" font-family="sans-serif" font-size="14" font-style="italic" lengthAdjust="spacing" textLength="72" x="594.5" y="379.8457">InnerClass</text><line style="stroke:#181818;stroke-width:0.5;" x1="566.5" x2="668.5" y1="390.5547" y2="390.5547"/><line style="stroke:#181818;stroke-width:0.5;" x1="566.5" x2="668.5" y1="398.5547" y2="398.5547"/></g></a><g id="elem_FloatingNote"><path d="M6,50.5547 L6,298.2129 L493,298.2129 L493,60.5547 L483,50.5547 L6,50.5547 " fill="#FEFFDD" style="stroke:#181818;stroke-width:0.5;"/><path d="M483,50.5547 L483,60.5547 L493,60.5547 L483,50.5547 " fill="#FEFFDD" style="stroke:#181818;stroke-width:1.0;"/><text fill="#000000" font-family="sans-serif" font-size="13" lengthAdjust="spacing" textLength="120" x="12" y="68.123">Your are analyzing:</text><text fill="#000000" font-family="sans-serif" font-size="13" lengthAdjust="spacing" textLength="305" x="12" y="83.4336">MyNamespace.DotNetPreAdapter.InnerClassBase</text><text fill="#000000" font-family="sans-serif" font-size="13" font-weight="bold" lengthAdjust="spacing" textLength="67" x="321" y="83.4336">simplified</text><text fill="#000000" font-family="sans-serif" font-size="13" lengthAdjust="spacing" textLength="4" x="388" y="83.4336">&#160;</text><text fill="#000000" font-family="sans-serif" font-size="13" lengthAdjust="spacing" textLength="4" x="12" y="98.7441">&#160;</text><text fill="#000000" font-family="sans-serif" font-size="13" lengthAdjust="spacing" textLength="229" x="12" y="129.3652">You can click either the namespaces</text><text fill="#000000" font-family="sans-serif" font-size="13" lengthAdjust="spacing" textLength="266" x="12" y="144.6758">or class names for filtering them and their</text><text fill="#000000" font-family="sans-serif" font-size="13" lengthAdjust="spacing" textLength="130" x="12" y="159.9863">direct dependencies.</text><text fill="#000000" font-family="sans-serif" font-size="13" lengthAdjust="spacing" textLength="4" x="12" y="175.2969">&#160;</text><line style="stroke:#181818;stroke-width:1.0;" x1="7" x2="233.5" y1="109.1416" y2="109.1416"/><line style="stroke:#181818;stroke-width:1.0;" x1="7" x2="233.5" y1="111.1416" y2="111.1416"/><text fill="#000000" font-family="sans-serif" font-size="13" lengthAdjust="spacing" textLength="32" x="233.5" y="113.5547">Filter</text><line style="stroke:#181818;stroke-width:1.0;" x1="265.5" x2="492" y1="109.1416" y2="109.1416"/><line style="stroke:#181818;stroke-width:1.0;" x1="265.5" x2="492" y1="111.1416" y2="111.1416"/><ellipse cx="17.5" cy="205.1602" fill="#000000" rx="2.5" ry="2.5" style="stroke:#000000;stroke-width:0.0;"/><text fill="#000000" font-family="sans-serif" font-size="13" lengthAdjust="spacing" textLength="305" x="24" y="209.918">MyNamespace.DotNetPreAdapter.InnerClassBase</text><text fill="#000000" font-family="sans-serif" font-size="13" font-weight="bold" lengthAdjust="spacing" textLength="55" x="333" y="209.918">detailed</text><text fill="#000000" font-family="sans-serif" font-size="13" lengthAdjust="spacing" textLength="4" x="392" y="209.918">:</text><text fill="#000000" font-family="sans-serif" font-size="13" lengthAdjust="spacing" textLength="12" x="12" y="225.2285">&#160;&#160;&#160;</text><a href="MyNamespace.DotNetPreAdapter.InnerClassBase-diagram-detailed.svg" target="_top" title="MyNamespace.DotNetPreAdapter.InnerClassBase-diagram-detailed.svg" xlink:actuate="onRequest" xlink:href="MyNamespace.DotNetPreAdapter.InnerClassBase-diagram-detailed.svg" xlink:show="new" xlink:title="MyNamespace.DotNetPreAdapter.InnerClassBase-diagram-detailed.svg" xlink:type="simple"><text fill="#0000FF" font-family="sans-serif" font-size="13" lengthAdjust="spacing" text-decoration="underline" textLength="448" x="24" y="225.2285">MyNamespace.DotNetPreAdapter.InnerClassBase-diagram-detailed.svg</text></a><ellipse cx="17.5" cy="235.7813" fill="#000000" rx="2.5" ry="2.5" style="stroke:#000000;stroke-width:0.0;"/><text fill="#000000" font-family="sans-serif" font-size="13" lengthAdjust="spacing" textLength="78" x="24" y="240.5391">Full diagram</text><text fill="#000000" font-family="sans-serif" font-size="13" font-weight="bold" lengthAdjust="spacing" textLength="67" x="106" y="240.5391">simplified</text><text fill="#000000" font-family="sans-serif" font-size="13" lengthAdjust="spacing" textLength="23" x="177" y="240.5391">and</text><text fill="#000000" font-family="sans-serif" font-size="13" font-weight="bold" lengthAdjust="spacing" textLength="166" x="204" y="240.5391">grouped per namespace</text><text fill="#000000" font-family="sans-serif" font-size="13" lengthAdjust="spacing" textLength="4" x="370" y="240.5391">:</text><text fill="#000000" font-family="sans-serif" font-size="13" lengthAdjust="spacing" textLength="12" x="12" y="255.8496">&#160;&#160;&#160;</text><a href="full-diagram-simplified-grouped-per-namespace.svg" target="_top" title="full-diagram-simplified-grouped-per-namespace.svg" xlink:actuate="onRequest" xlink:href="full-diagram-simplified-grouped-per-namespace.svg" xlink:show="new" xlink:title="full-diagram-simplified-grouped-per-namespace.svg" xlink:type="simple"><text fill="#0000FF" font-family="sans-serif" font-size="13" lengthAdjust="spacing" text-decoration="underline" textLength="343" x="24" y="255.8496">full-diagram-simplified-grouped-per-namespace.svg</text></a><ellipse cx="17.5" cy="266.4023" fill="#000000" rx="2.5" ry="2.5" style="stroke:#000000;stroke-width:0.0;"/><text fill="#000000" font-family="sans-serif" font-size="13" lengthAdjust="spacing" textLength="41" x="24" y="271.1602">Home:</text><text fill="#000000" font-family="sans-serif" font-size="13" lengthAdjust="spacing" textLength="12" x="12" y="286.4707">&#160;&#160;&#160;</text><a href="index.html" target="_top" title="index.html" xlink:actuate="onRequest" xlink:href="index.html" xlink:show="new" xlink:title="index.html" xlink:type="simple"><text fill="#0000FF" font-family="sans-serif" font-size="13" lengthAdjust="spacing" text-decoration="underline" textLength="68" x="24" y="286.4707">index.html</text></a><line style="stroke:#181818;stroke-width:1.0;" x1="7" x2="212.5" y1="189.6943" y2="189.6943"/><line style="stroke:#181818;stroke-width:1.0;" x1="7" x2="212.5" y1="191.6943" y2="191.6943"/><text fill="#000000" font-family="sans-serif" font-size="13" lengthAdjust="spacing" textLength="74" x="212.5" y="194.1074">Select other</text><line style="stroke:#181818;stroke-width:1.0;" x1="286.5" x2="492" y1="189.6943" y2="189.6943"/><line style="stroke:#181818;stroke-width:1.0;" x1="286.5" x2="492" y1="191.6943" y2="191.6943"/></g><!--reverse link InnerClassBase to InnerClass--><g id="link_InnerClassBase_InnerClass"><path codeLine="13" d="M617.5,219.8247 C617.5,219.8247 617.5,358.1247 617.5,358.1247 " fill="none" id="InnerClassBase-backto-InnerClass" style="stroke:#FF0000;stroke-width:1.0;"/><polygon fill="none" points="610.5,219.8247,617.5,199.8247,624.5,219.8247,610.5,219.8247" style="stroke:#FF0000;stroke-width:1.0;"/></g><!--SRC=[jL9DQzj04BtxLmp98R0WfUHex43RODf3JI2dOEamqOxi8QjPiRjEudpyzuoio8P2YvrI7OHME-_DUsycthEq6B01nq9fqnBua5P-b3WvWadaPnfVVBdyjPbZGx75Yl8hd-QKhWDzjTWc2lbF4GhV7SRu3IE1CP6Rrd7DP8s1oNb7SZaIdmXERlqw00O257IRPvRbk91_O2-aaEbqnavBfzD2b1yg5AWSL_T0d5OKG5yWGuUe61-qG1dxlr3hkTvIg9wkkb5vjllWK8ZbG5K2Ios99QcOOjwtlI7NtVYkITVSm75EB2Laj_MXAG30Od44GMOPbpgwRA39uyEoB3iPixLpy77zUsATCsEMmQzRij1gFBjeZ1bar4gmuz_3imzOfh1i1zlt_U4R6YXOmthALwbnPNa2667cF2ODUAwBC0B0kvW2Qdpz98v9xdCnxMtqWk5qGyxvHtXHDM-VLdIucZyh6IISwMGEUk2_rPv1xogGqsbvYK1FsrHqMUhWc_ssZBNsRyv7nunqyfejJWFPCZiqztS0]--></g></svg>