<?xml version="1.0" encoding="us-ascii" standalone="no"?><svg xmlns="http://www.w3.org/2000/svg" xmlns:xlink="http://www.w3.org/1999/xlink" contentStyleType="text/css" height="1236px" preserveAspectRatio="none" style="width:1154px;height:1236px;background:#FFFFFF;" version="1.1" viewBox="0 0 1154 1236" width="1154px" zoomAndPan="magnify"><defs/><g><text fill="#000000" font-family="sans-serif" font-size="20" font-weight="bold" lengthAdjust="spacing" textLength="530" x="109" y="29.3359">MyNamespace.DotNetPreAdapter.UnusedASTVisitor</text><text fill="#000000" font-family="sans-serif" font-size="20" font-weight="bold" lengthAdjust="spacing" textLength="84" x="646" y="29.3359">detailed</text><text fill="#000000" font-family="sans-serif" font-size="20" font-weight="bold" lengthAdjust="spacing" textLength="38" x="737" y="29.3359">and</text><text fill="#000000" font-family="sans-serif" font-size="20" font-weight="bold" lengthAdjust="spacing" textLength="249" x="782" y="29.3359">grouped per namespace</text><!--cluster DotNetPreAdapter--><g id="cluster_DotNetPreAdapter"><a href="DotNetPreAdapter-diagram-detailed-grouped-per-namespace.svg" target="_top" title="DotNetPreAdapter-diagram-detailed-grouped-per-namespace.svg" xlink:actuate="onRequest" xlink:href="DotNetPreAdapter-diagram-detailed-grouped-per-namespace.svg" xlink:show="new" xlink:title="DotNetPreAdapter-diagram-detailed-grouped-per-namespace.svg" xlink:type="simple"><path d="M265.5,537.5547 L396.5,537.5547 A3.75,3.75 0 0 1 399,540.0547 L406,560.043 L1144.5,560.043 A2.5,2.5 0 0 1 1147,562.543 L1147,1227.0547 A2.5,2.5 0 0 1 1144.5,1229.5547 L265.5,1229.5547 A2.5,2.5 0 0 1 263,1227.0547 L263,540.0547 A2.5,2.5 0 0 1 265.5,537.5547 " fill="none" style="stroke:#000000;stroke-width:1.5;"/><line style="stroke:#000000;stroke-width:1.5;" x1="263" x2="406" y1="560.043" y2="560.043"/><text fill="#000000" font-family="sans-serif" font-size="14" font-weight="bold" lengthAdjust="spacing" textLength="130" x="267" y="553.0898">DotNetPreAdapter</text></a></g><!--cluster Domain--><g id="cluster_Domain"><a href="DotNetPreAdapter.Domain-diagram-detailed-grouped-per-namespace.svg" target="_top" title="DotNetPreAdapter.Domain-diagram-detailed-grouped-per-namespace.svg" xlink:actuate="onRequest" xlink:href="DotNetPreAdapter.Domain-diagram-detailed-grouped-per-namespace.svg" xlink:show="new" xlink:title="DotNetPreAdapter.Domain-diagram-detailed-grouped-per-namespace.svg" xlink:type="simple"><path d="M289.5,580.5547 L346.5,580.5547 A3.75,3.75 0 0 1 349,583.0547 L356,603.043 L1120.5,603.043 A2.5,2.5 0 0 1 1123,605.543 L1123,965.0547 A2.5,2.5 0 0 1 1120.5,967.5547 L289.5,967.5547 A2.5,2.5 0 0 1 287,965.0547 L287,583.0547 A2.5,2.5 0 0 1 289.5,580.5547 " fill="none" style="stroke:#000000;stroke-width:1.5;"/><line style="stroke:#000000;stroke-width:1.5;" x1="287" x2="356" y1="603.043" y2="603.043"/><text fill="#000000" font-family="sans-serif" font-size="14" font-weight="bold" lengthAdjust="spacing" textLength="56" x="291" y="596.0898">Domain</text></a></g><!--cluster Utils--><g id="cluster_Utils"><a href="DotNetPreAdapter.Utils-diagram-detailed-grouped-per-namespace.svg" target="_top" title="DotNetPreAdapter.Utils-diagram-detailed-grouped-per-namespace.svg" xlink:actuate="onRequest" xlink:href="DotNetPreAdapter.Utils-diagram-detailed-grouped-per-namespace.svg" xlink:show="new" xlink:title="DotNetPreAdapter.Utils-diagram-detailed-grouped-per-namespace.svg" xlink:type="simple"><path d="M613.5,991.5547 L648.5,991.5547 A3.75,3.75 0 0 1 651,994.0547 L658,1014.043 L1012.5,1014.043 A2.5,2.5 0 0 1 1015,1016.543 L1015,1203.0547 A2.5,2.5 0 0 1 1012.5,1205.5547 L613.5,1205.5547 A2.5,2.5 0 0 1 611,1203.0547 L611,994.0547 A2.5,2.5 0 0 1 613.5,991.5547 " fill="none" style="stroke:#000000;stroke-width:1.5;"/><line style="stroke:#000000;stroke-width:1.5;" x1="611" x2="658" y1="1014.043" y2="1014.043"/><text fill="#000000" font-family="sans-serif" font-size="14" font-weight="bold" lengthAdjust="spacing" textLength="34" x="615" y="1007.0898">Utils</text></a></g><!--cluster MyNamespace--><g id="cluster_MyNamespace"><a href="MyNamespace-diagram-detailed-grouped-per-namespace.svg" target="_top" title="MyNamespace-diagram-detailed-grouped-per-namespace.svg" xlink:actuate="onRequest" xlink:href="MyNamespace-diagram-detailed-grouped-per-namespace.svg" xlink:show="new" xlink:title="MyNamespace-diagram-detailed-grouped-per-namespace.svg" xlink:type="simple"><path d="M587.5,314.5547 L690.5,314.5547 A3.75,3.75 0 0 1 693,317.0547 L700,337.043 L1036.5,337.043 A2.5,2.5 0 0 1 1039,339.543 L1039,511.0547 A2.5,2.5 0 0 1 1036.5,513.5547 L587.5,513.5547 A2.5,2.5 0 0 1 585,511.0547 L585,317.0547 A2.5,2.5 0 0 1 587.5,314.5547 " fill="none" style="stroke:#000000;stroke-width:1.5;"/><line style="stroke:#000000;stroke-width:1.5;" x1="585" x2="700" y1="337.043" y2="337.043"/><text fill="#000000" font-family="sans-serif" font-size="14" font-weight="bold" lengthAdjust="spacing" textLength="102" x="589" y="330.0898">MyNamespace</text></a></g><!--cluster DotNetPreAdapter--><g id="cluster_DotNetPreAdapter"><a href="MyNamespace.DotNetPreAdapter-diagram-detailed-grouped-per-namespace.svg" target="_top" title="MyNamespace.DotNetPreAdapter-diagram-detailed-grouped-per-namespace.svg" xlink:actuate="onRequest" xlink:href="MyNamespace.DotNetPreAdapter-diagram-detailed-grouped-per-namespace.svg" xlink:show="new" xlink:title="MyNamespace.DotNetPreAdapter-diagram-detailed-grouped-per-namespace.svg" xlink:type="simple"><path d="M611.5,357.5547 L742.5,357.5547 A3.75,3.75 0 0 1 745,360.0547 L752,380.043 L1012.5,380.043 A2.5,2.5 0 0 1 1015,382.543 L1015,487.0547 A2.5,2.5 0 0 1 1012.5,489.5547 L611.5,489.5547 A2.5,2.5 0 0 1 609,487.0547 L609,360.0547 A2.5,2.5 0 0 1 611.5,357.5547 " fill="none" style="stroke:#000000;stroke-width:1.5;"/><line style="stroke:#000000;stroke-width:1.5;" x1="609" x2="752" y1="380.043" y2="380.043"/><text fill="#000000" font-family="sans-serif" font-size="14" font-weight="bold" lengthAdjust="spacing" textLength="130" x="613" y="373.0898">DotNetPreAdapter</text></a></g><!--class Datastructure--><a href="DotNetPreAdapter.Domain.Datastructure-diagram-detailed-grouped-per-namespace.svg" target="_top" title="DotNetPreAdapter.Domain.Datastructure-diagram-detailed-grouped-per-namespace.svg" xlink:actuate="onRequest" xlink:href="DotNetPreAdapter.Domain.Datastructure-diagram-detailed-grouped-per-namespace.svg" xlink:show="new" xlink:title="DotNetPreAdapter.Domain.Datastructure-diagram-detailed-grouped-per-namespace.svg" xlink:type="simple"><g id="elem_Datastructure"><rect codeLine="9" fill="#F1F1F1" height="335.8125" id="Datastructure" rx="2.5" ry="2.5" style="stroke:#181818;stroke-width:0.5;" width="803" x="303.5" y="615.5547"/><ellipse cx="654.25" cy="631.5547" fill="#A9DCDF" rx="11" ry="11" style="stroke:#181818;stroke-width:1.0;"/><path d="M654.1133,626.9028 L652.9595,631.9746 L655.2754,631.9746 Z M652.6191,624.6616 L655.6157,624.6616 L658.9609,637.0547 L656.5122,637.0547 L655.7485,633.9917 L652.4697,633.9917 L651.7227,637.0547 L649.2739,637.0547 Z " fill="#000000"/><text fill="#000000" font-family="sans-serif" font-size="14" font-style="italic" lengthAdjust="spacing" textLength="93" x="674.75" y="636.8457">Datastructure</text><line style="stroke:#181818;stroke-width:0.5;" x1="304.5" x2="1105.5" y1="647.5547" y2="647.5547"/><ellipse cx="314.5" cy="661.2988" fill="none" rx="3" ry="3" style="stroke:#038048;stroke-width:1.0;"/><text fill="#000000" font-family="sans-serif" font-size="14" lengthAdjust="spacing" textLength="646" x="323.5" y="665.0898">class_to_datastructure: dict[string, DotNetPreAdapter.Domain.Datastructure.SubDataStructure]</text><ellipse cx="314.5" cy="677.7871" fill="none" rx="3" ry="3" style="stroke:#038048;stroke-width:1.0;"/><text fill="#000000" font-family="sans-serif" font-size="14" lengthAdjust="spacing" textLength="727" x="323.5" y="681.5781">namespace_to_datastructures: dict[string, list[DotNetPreAdapter.Domain.Datastructure.SubDataStructure]]</text><ellipse cx="314.5" cy="694.2754" fill="none" rx="3" ry="3" style="stroke:#038048;stroke-width:1.0;"/><text fill="#000000" font-family="sans-serif" font-size="14" lengthAdjust="spacing" textLength="370" x="323.5" y="698.0664">namespace_to_namespace_list: dict[string, list[string]]</text><ellipse cx="314.5" cy="710.7637" fill="none" rx="3" ry="3" style="stroke:#038048;stroke-width:1.0;"/><text fill="#000000" font-family="sans-serif" font-size="14" lengthAdjust="spacing" textLength="263" x="323.5" y="714.5547">logger: DotNetPreAdapter.Utils.Logger</text><line style="stroke:#181818;stroke-width:1.0;" x1="304.5" x2="1105.5" y1="721.5078" y2="721.5078"/><line style="stroke:#181818;stroke-width:1.0;" x1="304.5" x2="1105.5" y1="723.5078" y2="723.5078"/><ellipse cx="314.5" cy="735.252" fill="#84BE84" rx="3" ry="3" style="stroke:#038048;stroke-width:1.0;"/><text fill="#000000" font-family="sans-serif" font-size="14" lengthAdjust="spacing" textLength="139" x="323.5" y="739.043">ResolveClassNames(</text><text fill="#000000" font-family="sans-serif" font-size="14" lengthAdjust="spacing" textLength="9" x="462.5" y="739.043">):</text><text fill="#BB6060" font-family="sans-serif" font-size="14" lengthAdjust="spacing" textLength="29" x="475.5" y="739.043">void</text><rect fill="none" height="6" style="stroke:#C82930;stroke-width:1.0;" width="6" x="311.5" y="748.7402"/><text fill="#909090" font-family="sans-serif" font-size="14" lengthAdjust="spacing" textLength="575" x="323.5" y="755.5313">ResolveClassNames.variables: list[DotNetPreAdapter.Domain.Datastructure.Variable]</text><rect fill="none" height="6" style="stroke:#C82930;stroke-width:1.0;" width="6" x="311.5" y="765.2285"/><text fill="#909090" font-family="sans-serif" font-size="14" lengthAdjust="spacing" textLength="538" x="323.5" y="772.0195">ResolveClassNames.variable: DotNetPreAdapter.Domain.Datastructure.Variable</text><line style="stroke:#181818;stroke-width:1.0;" x1="304.5" x2="1105.5" y1="778.9727" y2="778.9727"/><rect fill="#F24D5C" height="6" style="stroke:#C82930;stroke-width:1.0;" width="6" x="311.5" y="789.7168"/><text fill="#000000" font-family="sans-serif" font-size="14" lengthAdjust="spacing" textLength="133" x="323.5" y="796.5078">CorrectClassScope(</text><text fill="#6060BB" font-family="sans-serif" font-size="14" lengthAdjust="spacing" textLength="525" x="456.5" y="796.5078">subDataStructure:DotNetPreAdapter.Domain.Datastructure.SubDataStructure</text><text fill="#000000" font-family="sans-serif" font-size="14" lengthAdjust="spacing" textLength="9" x="981.5" y="796.5078">):</text><text fill="#BB6060" font-family="sans-serif" font-size="14" lengthAdjust="spacing" textLength="29" x="994.5" y="796.5078">void</text><rect fill="#F24D5C" height="6" style="stroke:#C82930;stroke-width:1.0;" width="6" x="311.5" y="806.2051"/><text fill="#000000" font-family="sans-serif" font-size="14" lengthAdjust="spacing" textLength="275" x="323.5" y="812.9961">getFQDNClassNameFromNamespacelist(</text><text fill="#000000" font-family="sans-serif" font-size="14" lengthAdjust="spacing" textLength="9" x="598.5" y="812.9961">):</text><text fill="#BB6060" font-family="sans-serif" font-size="14" lengthAdjust="spacing" textLength="40" x="611.5" y="812.9961">string</text><rect fill="#F24D5C" height="6" style="stroke:#C82930;stroke-width:1.0;" width="6" x="311.5" y="822.6934"/><text fill="#000000" font-family="sans-serif" font-size="14" lengthAdjust="spacing" textLength="199" x="323.5" y="829.4844">GetFQDNForUsedClassName(</text><text fill="#6060BB" font-family="sans-serif" font-size="14" lengthAdjust="spacing" textLength="525" x="522.5" y="829.4844">subDataStructure:DotNetPreAdapter.Domain.Datastructure.SubDataStructure</text><text fill="#000000" font-family="sans-serif" font-size="14" lengthAdjust="spacing" textLength="9" x="1047.5" y="829.4844">):</text><text fill="#BB6060" font-family="sans-serif" font-size="14" lengthAdjust="spacing" textLength="40" x="1060.5" y="829.4844">string</text><ellipse cx="314.5" cy="842.1816" fill="#84BE84" rx="3" ry="3" style="stroke:#038048;stroke-width:1.0;"/><text fill="#000000" font-family="sans-serif" font-size="14" lengthAdjust="spacing" textLength="105" x="323.5" y="845.9727">get_skip_types(</text><text fill="#000000" font-family="sans-serif" font-size="14" lengthAdjust="spacing" textLength="9" x="428.5" y="845.9727">):</text><text fill="#BB6060" font-family="sans-serif" font-size="14" lengthAdjust="spacing" textLength="70" x="441.5" y="845.9727">list[string]</text><rect fill="#F24D5C" height="6" style="stroke:#C82930;stroke-width:1.0;" width="6" x="311.5" y="855.6699"/><text fill="#000000" font-family="sans-serif" font-size="14" lengthAdjust="spacing" textLength="188" x="323.5" y="862.4609">append_sub_datastructure(</text><text fill="#6060BB" font-family="sans-serif" font-size="14" lengthAdjust="spacing" textLength="530" x="511.5" y="862.4609">sub_datastructure:DotNetPreAdapter.Domain.Datastructure.SubDataStructure</text><text fill="#000000" font-family="sans-serif" font-size="14" lengthAdjust="spacing" textLength="9" x="1041.5" y="862.4609">):</text><text fill="#BB6060" font-family="sans-serif" font-size="14" lengthAdjust="spacing" textLength="29" x="1054.5" y="862.4609">void</text><line style="stroke:#181818;stroke-width:1.0;" x1="304.5" x2="1105.5" y1="869.4141" y2="869.4141"/><ellipse cx="314.5" cy="883.1582" fill="#84BE84" rx="3" ry="3" style="stroke:#038048;stroke-width:1.0;"/><text fill="#000000" font-family="sans-serif" font-size="14" lengthAdjust="spacing" textLength="97" x="323.5" y="886.9492">append_class(</text><text fill="#000000" font-family="sans-serif" font-size="14" lengthAdjust="spacing" textLength="9" x="420.5" y="886.9492">):</text><text fill="#BB6060" font-family="sans-serif" font-size="14" lengthAdjust="spacing" textLength="29" x="433.5" y="886.9492">void</text><rect fill="none" height="6" style="stroke:#C82930;stroke-width:1.0;" width="6" x="311.5" y="896.6465"/><text fill="#909090" font-family="sans-serif" font-size="14" lengthAdjust="spacing" textLength="630" x="323.5" y="903.4375">append_class.sub_datastructure: DotNetPreAdapter.Domain.Datastructure.SubDataStructure</text><line style="stroke:#181818;stroke-width:1.0;" x1="304.5" x2="1105.5" y1="910.3906" y2="910.3906"/><ellipse cx="314.5" cy="924.1348" fill="#84BE84" rx="3" ry="3" style="stroke:#038048;stroke-width:1.0;"/><text fill="#000000" font-family="sans-serif" font-size="14" lengthAdjust="spacing" textLength="132" x="323.5" y="927.9258">get_classname_list(</text><text fill="#000000" font-family="sans-serif" font-size="14" lengthAdjust="spacing" textLength="9" x="455.5" y="927.9258">):</text><text fill="#BB6060" font-family="sans-serif" font-size="14" lengthAdjust="spacing" textLength="70" x="468.5" y="927.9258">list[string]</text><ellipse cx="314.5" cy="940.623" fill="#84BE84" rx="3" ry="3" style="stroke:#038048;stroke-width:1.0;"/><text fill="#000000" font-family="sans-serif" font-size="14" lengthAdjust="spacing" textLength="258" x="323.5" y="944.4141">get_datastructures_from_class_name(</text><text fill="#000000" font-family="sans-serif" font-size="14" lengthAdjust="spacing" textLength="9" x="581.5" y="944.4141">):</text><text fill="#BB6060" font-family="sans-serif" font-size="14" lengthAdjust="spacing" textLength="402" x="594.5" y="944.4141">DotNetPreAdapter.Domain.Datastructure.SubDataStructure</text></g></a><!--class Logger--><a href="DotNetPreAdapter.Utils.Logger-diagram-detailed-grouped-per-namespace.svg" target="_top" title="DotNetPreAdapter.Utils.Logger-diagram-detailed-grouped-per-namespace.svg" xlink:actuate="onRequest" xlink:href="DotNetPreAdapter.Utils.Logger-diagram-detailed-grouped-per-namespace.svg" xlink:show="new" xlink:title="DotNetPreAdapter.Utils.Logger-diagram-detailed-grouped-per-namespace.svg" xlink:type="simple"><g id="elem_Logger"><rect codeLine="39" fill="#F1F1F1" height="163.418" id="Logger" rx="2.5" ry="2.5" style="stroke:#181818;stroke-width:0.5;" width="371" x="627.5" y="1026.5547"/><ellipse cx="784.75" cy="1042.5547" fill="#A9DCDF" rx="11" ry="11" style="stroke:#181818;stroke-width:1.0;"/><path d="M784.6133,1037.9028 L783.4595,1042.9746 L785.7754,1042.9746 Z M783.1191,1035.6616 L786.1157,1035.6616 L789.4609,1048.0547 L787.0122,1048.0547 L786.2485,1044.9917 L782.9697,1044.9917 L782.2227,1048.0547 L779.7739,1048.0547 Z " fill="#000000"/><text fill="#000000" font-family="sans-serif" font-size="14" font-style="italic" lengthAdjust="spacing" textLength="48" x="805.25" y="1047.8457">Logger</text><line style="stroke:#181818;stroke-width:0.5;" x1="628.5" x2="997.5" y1="1058.5547" y2="1058.5547"/><ellipse cx="638.5" cy="1072.2988" fill="none" rx="3" ry="3" style="stroke:#038048;stroke-width:1.0;"/><text fill="#000000" font-family="sans-serif" font-size="14" lengthAdjust="spacing" textLength="345" x="647.5" y="1076.0898">loggingType: DotNetPreAdapter.Utils.LoggingType</text><line style="stroke:#181818;stroke-width:1.0;" x1="628.5" x2="997.5" y1="1083.043" y2="1083.043"/><line style="stroke:#181818;stroke-width:1.0;" x1="628.5" x2="997.5" y1="1085.043" y2="1085.043"/><rect fill="#F24D5C" height="6" style="stroke:#C82930;stroke-width:1.0;" width="6" x="635.5" y="1093.7871"/><text fill="#000000" font-family="sans-serif" font-size="14" lengthAdjust="spacing" textLength="27" x="647.5" y="1100.5781">log(</text><text fill="#000000" font-family="sans-serif" font-size="14" lengthAdjust="spacing" textLength="9" x="674.5" y="1100.5781">):</text><text fill="#BB6060" font-family="sans-serif" font-size="14" lengthAdjust="spacing" textLength="29" x="687.5" y="1100.5781">void</text><ellipse cx="638.5" cy="1113.2754" fill="#84BE84" rx="3" ry="3" style="stroke:#038048;stroke-width:1.0;"/><text fill="#000000" font-family="sans-serif" font-size="14" lengthAdjust="spacing" textLength="65" x="647.5" y="1117.0664">LogError(</text><text fill="#000000" font-family="sans-serif" font-size="14" lengthAdjust="spacing" textLength="9" x="712.5" y="1117.0664">):</text><text fill="#BB6060" font-family="sans-serif" font-size="14" lengthAdjust="spacing" textLength="29" x="725.5" y="1117.0664">void</text><ellipse cx="638.5" cy="1129.7637" fill="#84BE84" rx="3" ry="3" style="stroke:#038048;stroke-width:1.0;"/><text fill="#000000" font-family="sans-serif" font-size="14" lengthAdjust="spacing" textLength="87" x="647.5" y="1133.5547">LogWarning(</text><text fill="#000000" font-family="sans-serif" font-size="14" lengthAdjust="spacing" textLength="9" x="734.5" y="1133.5547">):</text><text fill="#BB6060" font-family="sans-serif" font-size="14" lengthAdjust="spacing" textLength="29" x="747.5" y="1133.5547">void</text><ellipse cx="638.5" cy="1146.252" fill="#84BE84" rx="3" ry="3" style="stroke:#038048;stroke-width:1.0;"/><text fill="#000000" font-family="sans-serif" font-size="14" lengthAdjust="spacing" textLength="57" x="647.5" y="1150.043">LogInfo(</text><text fill="#000000" font-family="sans-serif" font-size="14" lengthAdjust="spacing" textLength="9" x="704.5" y="1150.043">):</text><text fill="#BB6060" font-family="sans-serif" font-size="14" lengthAdjust="spacing" textLength="29" x="717.5" y="1150.043">void</text><ellipse cx="638.5" cy="1162.7402" fill="#84BE84" rx="3" ry="3" style="stroke:#038048;stroke-width:1.0;"/><text fill="#000000" font-family="sans-serif" font-size="14" lengthAdjust="spacing" textLength="75" x="647.5" y="1166.5313">LogDebug(</text><text fill="#000000" font-family="sans-serif" font-size="14" lengthAdjust="spacing" textLength="9" x="722.5" y="1166.5313">):</text><text fill="#BB6060" font-family="sans-serif" font-size="14" lengthAdjust="spacing" textLength="29" x="735.5" y="1166.5313">void</text><ellipse cx="638.5" cy="1179.2285" fill="#84BE84" rx="3" ry="3" style="stroke:#038048;stroke-width:1.0;"/><text fill="#000000" font-family="sans-serif" font-size="14" lengthAdjust="spacing" textLength="68" x="647.5" y="1183.0195">LogTrace(</text><text fill="#000000" font-family="sans-serif" font-size="14" lengthAdjust="spacing" textLength="9" x="715.5" y="1183.0195">):</text><text fill="#BB6060" font-family="sans-serif" font-size="14" lengthAdjust="spacing" textLength="29" x="728.5" y="1183.0195">void</text></g></a><!--class UnusedASTVisitor--><a href="MyNamespace.DotNetPreAdapter.UnusedASTVisitor-diagram-detailed-grouped-per-namespace.svg" target="_top" title="MyNamespace.DotNetPreAdapter.UnusedASTVisitor-diagram-detailed-grouped-per-namespace.svg" xlink:actuate="onRequest" xlink:href="MyNamespace.DotNetPreAdapter.UnusedASTVisitor-diagram-detailed-grouped-per-namespace.svg" xlink:show="new" xlink:title="MyNamespace.DotNetPreAdapter.UnusedASTVisitor-diagram-detailed-grouped-per-namespace.svg" xlink:type="simple"><g id="elem_UnusedASTVisitor"><rect codeLine="57" fill="#FFFF00" height="80.9766" id="UnusedASTVisitor" rx="2.5" ry="2.5" style="stroke:#181818;stroke-width:0.5;" width="373" x="625.5" y="392.5547"/><ellipse cx="746.25" cy="408.5547" fill="#A9DCDF" rx="11" ry="11" style="stroke:#181818;stroke-width:1.0;"/><path d="M746.1133,403.9028 L744.9595,408.9746 L747.2754,408.9746 Z M744.6191,401.6616 L747.6157,401.6616 L750.9609,414.0547 L748.5122,414.0547 L747.7485,410.9917 L744.4697,410.9917 L743.7227,414.0547 L741.2739,414.0547 Z " fill="#000000"/><text fill="#000000" font-family="sans-serif" font-size="14" font-style="italic" lengthAdjust="spacing" textLength="123" x="766.75" y="413.8457">UnusedASTVisitor</text><line style="stroke:#181818;stroke-width:0.5;" x1="626.5" x2="997.5" y1="424.5547" y2="424.5547"/><ellipse cx="636.5" cy="438.2988" fill="none" rx="3" ry="3" style="stroke:#038048;stroke-width:1.0;"/><text fill="#000000" font-family="sans-serif" font-size="14" lengthAdjust="spacing" textLength="263" x="645.5" y="442.0898">logger: DotNetPreAdapter.Utils.Logger</text><ellipse cx="636.5" cy="454.7871" fill="none" rx="3" ry="3" style="stroke:#038048;stroke-width:1.0;"/><text fill="#000000" font-family="sans-serif" font-size="14" lengthAdjust="spacing" textLength="347" x="645.5" y="458.5781">unusedD: DotNetPreAdapter.Domain.Datastructure</text><line style="stroke:#181818;stroke-width:1.0;" x1="626.5" x2="997.5" y1="465.5313" y2="465.5313"/><line style="stroke:#181818;stroke-width:1.0;" x1="626.5" x2="997.5" y1="467.5313" y2="467.5313"/></g></a><g id="elem_FloatingNote"><path d="M6,50.5547 L6,298.2129 L690,298.2129 L690,60.5547 L680,50.5547 L6,50.5547 " fill="#FEFFDD" style="stroke:#181818;stroke-width:0.5;"/><path d="M680,50.5547 L680,60.5547 L690,60.5547 L680,50.5547 " fill="#FEFFDD" style="stroke:#181818;stroke-width:1.0;"/><text fill="#000000" font-family="sans-serif" font-size="13" lengthAdjust="spacing" textLength="120" x="12" y="68.123">Your are analyzing:</text><text fill="#000000" font-family="sans-serif" font-size="13" lengthAdjust="spacing" textLength="323" x="12" y="83.4336">MyNamespace.DotNetPreAdapter.UnusedASTVisitor</text><text fill="#000000" font-family="sans-serif" font-size="13" font-weight="bold" lengthAdjust="spacing" textLength="55" x="339" y="83.4336">detailed</text><text fill="#000000" font-family="sans-serif" font-size="13" lengthAdjust="spacing" textLength="23" x="398" y="83.4336">and</text><text fill="#000000" font-family="sans-serif" font-size="13" font-weight="bold" lengthAdjust="spacing" textLength="166" x="425" y="83.4336">grouped per namespace</text><text fill="#000000" font-family="sans-serif" font-size="13" lengthAdjust="spacing" textLength="4" x="12" y="98.7441">&#160;</text><text fill="#000000" font-family="sans-serif" font-size="13" lengthAdjust="spacing" textLength="229" x="12" y="129.3652">You can click either the namespaces</text><text fill="#000000" font-family="sans-serif" font-size="13" lengthAdjust="spacing" textLength="266" x="12" y="144.6758">or class names for filtering them and their</text><text fill="#000000" font-family="sans-serif" font-size="13" lengthAdjust="spacing" textLength="130" x="12" y="159.9863">direct dependencies.</text><text fill="#000000" font-family="sans-serif" font-size="13" lengthAdjust="spacing" textLength="4" x="12" y="175.2969">&#160;</text><line style="stroke:#181818;stroke-width:1.0;" x1="7" x2="332" y1="109.1416" y2="109.1416"/><line style="stroke:#181818;stroke-width:1.0;" x1="7" x2="332" y1="111.1416" y2="111.1416"/><text fill="#000000" font-family="sans-serif" font-size="13" lengthAdjust="spacing" textLength="32" x="332" y="113.5547">Filter</text><line style="stroke:#181818;stroke-width:1.0;" x1="364" x2="689" y1="109.1416" y2="109.1416"/><line style="stroke:#181818;stroke-width:1.0;" x1="364" x2="689" y1="111.1416" y2="111.1416"/><ellipse cx="17.5" cy="205.1602" fill="#000000" rx="2.5" ry="2.5" style="stroke:#000000;stroke-width:0.0;"/><text fill="#000000" font-family="sans-serif" font-size="13" lengthAdjust="spacing" textLength="323" x="24" y="209.918">MyNamespace.DotNetPreAdapter.UnusedASTVisitor</text><text fill="#000000" font-family="sans-serif" font-size="13" font-weight="bold" lengthAdjust="spacing" textLength="67" x="351" y="209.918">simplified</text><text fill="#000000" font-family="sans-serif" font-size="13" lengthAdjust="spacing" textLength="23" x="422" y="209.918">and</text><text fill="#000000" font-family="sans-serif" font-size="13" font-weight="bold" lengthAdjust="spacing" textLength="166" x="449" y="209.918">grouped per namespace</text><text fill="#000000" font-family="sans-serif" font-size="13" lengthAdjust="spacing" textLength="4" x="615" y="209.918">:</text><text fill="#000000" font-family="sans-serif" font-size="13" lengthAdjust="spacing" textLength="12" x="12" y="225.2285">&#160;&#160;&#160;</text><a href="MyNamespace.DotNetPreAdapter.UnusedASTVisitor-diagram-simplified-grouped-per-namespace.svg" target="_top" title="MyNamespace.DotNetPreAdapter.UnusedASTVisitor-diagram-simplified-grouped-per-namespace.svg" xlink:actuate="onRequest" xlink:href="MyNamespace.DotNetPreAdapter.UnusedASTVisitor-diagram-simplified-grouped-per-namespace.svg" xlink:show="new" xlink:title="MyNamespace.DotNetPreAdapter.UnusedASTVisitor-diagram-simplified-grouped-per-namespace.svg" xlink:type="simple"><text fill="#0000FF" font-family="sans-serif" font-size="13" lengthAdjust="spacing" text-decoration="underline" textLength="645" x="24" y="225.2285">MyNamespace.DotNetPreAdapter.UnusedASTVisitor-diagram-simplified-grouped-per-namespace.svg</text></a><ellipse cx="17.5" cy="235.7813" fill="#000000" rx="2.5" ry="2.5" style="stroke:#000000;stroke-width:0.0;"/><text fill="#000000" font-family="sans-serif" font-size="13" lengthAdjust="spacing" textLength="78" x="24" y="240.5391">Full diagram</text><text fill="#000000" font-family="sans-serif" font-size="13" font-weight="bold" lengthAdjust="spacing" textLength="55" x="106" y="240.5391">detailed</text><text fill="#000000" font-family="sans-serif" font-size="13" lengthAdjust="spacing" textLength="23" x="165" y="240.5391">and</text><text fill="#000000" font-family="sans-serif" font-size="13" font-weight="bold" lengthAdjust="spacing" textLength="166" x="192" y="240.5391">grouped per namespace</text><text fill="#000000" font-family="sans-serif" font-size="13" lengthAdjust="spacing" textLength="4" x="358" y="240.5391">:</text><text fill="#000000" font-family="sans-serif" font-size="13" lengthAdjust="spacing" textLength="12" x="12" y="255.8496">&#160;&#160;&#160;</text><a href="full-diagram-detailed-grouped-per-namespace.svg" target="_top" title="full-diagram-detailed-grouped-per-namespace.svg" xlink:actuate="onRequest" xlink:href="full-diagram-detailed-grouped-per-namespace.svg" xlink:show="new" xlink:title="full-diagram-detailed-grouped-per-namespace.svg" xlink:type="simple"><text fill="#0000FF" font-family="sans-serif" font-size="13" lengthAdjust="spacing" text-decoration="underline" textLength="330" x="24" y="255.8496">full-diagram-detailed-grouped-per-namespace.svg</text></a><ellipse cx="17.5" cy="266.4023" fill="#000000" rx="2.5" ry="2.5" style="stroke:#000000;stroke-width:0.0;"/><text fill="#000000" font-family="sans-serif" font-size="13" lengthAdjust="spacing" textLength="41" x="24" y="271.1602">Home:</text><text fill="#000000" font-family="sans-serif" font-size="13" lengthAdjust="spacing" textLength="12" x="12" y="286.4707">&#160;&#160;&#160;</text><a href="index.html" target="_top" title="index.html" xlink:actuate="onRequest" xlink:href="index.html" xlink:show="new" xlink:title="index.html" xlink:type="simple"><text fill="#0000FF" font-family="sans-serif" font-size="13" lengthAdjust="spacing" text-decoration="underline" textLength="68" x="24" y="286.4707">index.html</text></a><line style="stroke:#181818;stroke-width:1.0;" x1="7" x2="311" y1="189.6943" y2="189.6943"/><line style="stroke:#181818;stroke-width:1.0;" x1="7" x2="311" y1="191.6943" y2="191.6943"/><text fill="#000000" font-family="sans-serif" font-size="13" lengthAdjust="spacing" textLength="74" x="311" y="194.1074">Select other</text><line style="stroke:#181818;stroke-width:1.0;" x1="385" x2="689" y1="189.6943" y2="189.6943"/><line style="stroke:#181818;stroke-width:1.0;" x1="385" x2="689" y1="191.6943" y2="191.6943"/></g><!--class CSharpSyntaxWalker--><a href="CSharpSyntaxWalker-diagram-detailed-grouped-per-namespace.svg" target="_top" title="CSharpSyntaxWalker-diagram-detailed-grouped-per-namespace.svg" xlink:actuate="onRequest" xlink:href="CSharpSyntaxWalker-diagram-detailed-grouped-per-namespace.svg" xlink:show="new" xlink:title="CSharpSyntaxWalker-diagram-detailed-grouped-per-namespace.svg" xlink:type="simple"><g id="elem_CSharpSyntaxWalker"><rect codeLine="4" fill="#F5FFFA" height="48" id="CSharpSyntaxWalker" rx="2.5" ry="2.5" style="stroke:#181818;stroke-width:0.5;" width="174" x="725" y="150.5547"/><ellipse cx="740" cy="166.5547" fill="#ADD1B2" rx="11" ry="11" style="stroke:#181818;stroke-width:1.0;"/><path d="M742.4731,172.6978 Q741.8921,172.9966 741.2529,173.146 Q740.6138,173.2954 739.9082,173.2954 Q737.4014,173.2954 736.0815,171.6436 Q734.7617,169.9917 734.7617,166.8706 Q734.7617,163.7412 736.0815,162.0894 Q737.4014,160.4375 739.9082,160.4375 Q740.6138,160.4375 741.2612,160.5869 Q741.9087,160.7363 742.4731,161.0352 L742.4731,163.7578 Q741.8423,163.1768 741.2488,162.907 Q740.6553,162.6372 740.0244,162.6372 Q738.6797,162.6372 737.9949,163.7039 Q737.3101,164.7705 737.3101,166.8706 Q737.3101,168.9624 737.9949,170.0291 Q738.6797,171.0957 740.0244,171.0957 Q740.6553,171.0957 741.2488,170.8259 Q741.8423,170.5562 742.4731,169.9751 Z " fill="#000000"/><text fill="#000000" font-family="sans-serif" font-size="14" lengthAdjust="spacing" textLength="142" x="754" y="171.8457">CSharpSyntaxWalker</text><line style="stroke:#181818;stroke-width:0.5;" x1="726" x2="898" y1="182.5547" y2="182.5547"/><line style="stroke:#181818;stroke-width:0.5;" x1="726" x2="898" y1="190.5547" y2="190.5547"/></g></a><!--reverse link Datastructure to Logger--><g id="link_Datastructure_Logger"><path codeLine="75" d="M813,965.9847 C813,965.9847 813,1026.0647 813,1026.0647 " fill="none" id="Datastructure-backto-Logger" style="stroke:#10BB10;stroke-width:1.0;"/><polygon fill="#10BB10" points="813,952.9847,809,958.9847,813,964.9847,817,958.9847,813,952.9847" style="stroke:#10BB10;stroke-width:1.0;"/></g><!--reverse link CSharpSyntaxWalker to UnusedASTVisitor--><g id="link_CSharpSyntaxWalker_UnusedASTVisitor"><path codeLine="80" d="M812,219.8747 C812,219.8747 812,392.1647 812,392.1647 " fill="none" id="CSharpSyntaxWalker-backto-UnusedASTVisitor" style="stroke:#FF0000;stroke-width:1.0;"/><polygon fill="none" points="805,219.8747,812,199.8747,819,219.8747,805,219.8747" style="stroke:#FF0000;stroke-width:1.0;"/></g><!--reverse link UnusedASTVisitor to Logger--><g id="link_UnusedASTVisitor_Logger"><path codeLine="81" d="M1012.75,433.5547 C1012.75,433.5547 1124.5,433.5547 1124.5,433.5547 C1124.5,433.5547 1124.5,1108.5547 1124.5,1108.5547 C1124.5,1108.5547 1065.41,1108.5547 998.7,1108.5547 " fill="none" id="UnusedASTVisitor-backto-Logger" style="stroke:#10BB10;stroke-width:1.0;"/><polygon fill="#10BB10" points="999.75,433.5547,1005.75,437.5547,1011.75,433.5547,1005.75,429.5547,999.75,433.5547" style="stroke:#10BB10;stroke-width:1.0;"/></g><!--reverse link UnusedASTVisitor to Datastructure--><g id="link_UnusedASTVisitor_Datastructure"><path codeLine="82" d="M812,487.9447 C812,487.9447 812,615.3647 812,615.3647 " fill="none" id="UnusedASTVisitor-backto-Datastructure" style="stroke:#10BB10;stroke-width:1.0;"/><polygon fill="#10BB10" points="812,474.9447,808,480.9447,812,486.9447,816,480.9447,812,474.9447" style="stroke:#10BB10;stroke-width:1.0;"/></g><!--SRC=[pLXjZ-8s4FwUNp7YFbpBDhczVZYf291keRILxb1RTkzK0K8cCM2jOqUsmortxN_lE0aluMKX0UwEHMXZZ-UPbyVZYVKZ4n5H90JE13MBY89KPYOTmmodKDViCwtzVDjyl-YIaEg8-DHhIzEbvaz5tmOaCbHv3oBMD7ZRk__0D3DIGRKQK4COfq6r2aG4E31LCeve015L89QggjNwAulGT8Gq52h_o5W1KHJN4BxupCIqDX3NWXw8WMWqEeoZdaPZ810SV2B0vyn_1ChC3ENnPxr6mq0WXC-9rkaeJF1vagX0Owrqc83YFqmDHC0KzGq4DA8YeC9dL7ifR8zoEoCjY0MlGb4tDGiZpYRikACOGm3ezmiXk04ZK-I5kyPnC_qkwdTN-Zqzdmw7reDEp3baomhaOMdU19UlK9UBZs7-BaEwLC0mna_Up8HyEAm0qT3XaXZCInV9vQHPQ_LcH4MzXJ3awIFXZsXAlxyxMCWEUF6U2TDI5Dt-ulpdl8GMbzhoWM108aNdJCPwfEFnQBLon9aswoX0LmeAO-eJp88bLBO5DDE0tmaJJCzeu3dh5TiPH3-sXufvyUKPvSYNa32n1oERAGe5GCRQA89x84tC0RrUcnY2Wh5lOgmB1_7pSiMiISm1k4aj6Hav2ZQLrP3JlkdZCwRqfzCCzNhns0xqbWF3369DW6qOlOLZ2T8l2RONBS-zVMZfmserbzCfLRLTZnyCuzfxbqmxZKOc_ZVLaizfomOnAJG_r2TIO7ubbwfHUNFxvlRkhjAilxAZpHzha9k-kxC2bUPSiY0JIVIwUR5VRkrVfRa3vis9OcJCRHmBXEv3jcfu5cODYg4jmLmtmsj9PK-AH7NFbn7T7pkzbUXQENuKJi6KcivVxUxAyuwIuUeiiT4kbUgKRdcatrAaZbGFU1oj0BzbE7RDlB416Ub75erinrIEw9ixBXy34jbs8JalSXNYO12swjNLIP7HzcPfQL8thxdRDt6yNOVXB8_NxjYi9XYsL8vAy_fGPbE0VD4VJN0hfQ19WIu5U9xx0DYoj6I8hm7Od7sz7W0-OOiDwBa1R8P3Ydx92IJMNB61MklUzDIQd-lS3eS1nRvL4vQSk_lYdqnSlWNRFESFmcRp9LikssDWlE-nZ3xRQ6Goosx3jGilKd5k0DN_gfHKbrFtaIY11bzEuHzY8Y-dhKt7yGMDkqSAqGkeEx4ANNGJV3yrAB6-J0dQUAlFl-ENBppFNHGSkKSukmWLkmOfUwbnsclzWd8kF-LgrV7teLGsJf3R9xOcQLdRlm6-NZA-fmDvX_3xn3PyHmbu2TNJFd0rMMkbPR6Yd1WcXGRwbB0RKsexlRNnDPGjA7w0IivfLoTLj__YDLRbrxT3zyXHVwvTQIqhfkGv7ZjxRktg_w8_k5FGcK8bm2bupreWQfVKl3U5_mC0]--></g></svg>