<?xml version="1.0" encoding="us-ascii" standalone="no"?><svg xmlns="http://www.w3.org/2000/svg" xmlns:xlink="http://www.w3.org/1999/xlink" contentStyleType="text/css" height="1236px" preserveAspectRatio="none" style="width:988px;height:1236px;background:#FFFFFF;" version="1.1" viewBox="0 0 988 1236" width="988px" zoomAndPan="magnify"><defs/><g><text fill="#000000" font-family="sans-serif" font-size="20" font-weight="bold" lengthAdjust="spacing" textLength="530" x="173" y="29.3359">MyNamespace.DotNetPreAdapter.UnusedASTVisitor</text><text fill="#000000" font-family="sans-serif" font-size="20" font-weight="bold" lengthAdjust="spacing" textLength="84" x="710" y="29.3359">detailed</text><text fill="#000000" font-family="sans-serif" font-size="20" font-weight="bold" lengthAdjust="spacing" textLength="7" x="794" y="29.3359">&#160;</text><!--cluster DotNetPreAdapter--><g id="cluster_DotNetPreAdapter"><path d="M99.5,537.5547 L230.5,537.5547 A3.75,3.75 0 0 1 233,540.0547 L240,560.043 L978.5,560.043 A2.5,2.5 0 0 1 981,562.543 L981,1227.0547 A2.5,2.5 0 0 1 978.5,1229.5547 L99.5,1229.5547 A2.5,2.5 0 0 1 97,1227.0547 L97,540.0547 A2.5,2.5 0 0 1 99.5,537.5547 " fill="none" style="stroke:#000000;stroke-width:1.5;"/><line style="stroke:#000000;stroke-width:1.5;" x1="97" x2="240" y1="560.043" y2="560.043"/><text fill="#000000" font-family="sans-serif" font-size="14" font-weight="bold" lengthAdjust="spacing" textLength="130" x="101" y="553.0898">DotNetPreAdapter</text></g><!--cluster Domain--><g id="cluster_Domain"><path d="M123.5,580.5547 L180.5,580.5547 A3.75,3.75 0 0 1 183,583.0547 L190,603.043 L954.5,603.043 A2.5,2.5 0 0 1 957,605.543 L957,965.0547 A2.5,2.5 0 0 1 954.5,967.5547 L123.5,967.5547 A2.5,2.5 0 0 1 121,965.0547 L121,583.0547 A2.5,2.5 0 0 1 123.5,580.5547 " fill="none" style="stroke:#000000;stroke-width:1.5;"/><line style="stroke:#000000;stroke-width:1.5;" x1="121" x2="190" y1="603.043" y2="603.043"/><text fill="#000000" font-family="sans-serif" font-size="14" font-weight="bold" lengthAdjust="spacing" textLength="56" x="125" y="596.0898">Domain</text></g><!--cluster Utils--><g id="cluster_Utils"><path d="M447.5,991.5547 L482.5,991.5547 A3.75,3.75 0 0 1 485,994.0547 L492,1014.043 L846.5,1014.043 A2.5,2.5 0 0 1 849,1016.543 L849,1203.0547 A2.5,2.5 0 0 1 846.5,1205.5547 L447.5,1205.5547 A2.5,2.5 0 0 1 445,1203.0547 L445,994.0547 A2.5,2.5 0 0 1 447.5,991.5547 " fill="none" style="stroke:#000000;stroke-width:1.5;"/><line style="stroke:#000000;stroke-width:1.5;" x1="445" x2="492" y1="1014.043" y2="1014.043"/><text fill="#000000" font-family="sans-serif" font-size="14" font-weight="bold" lengthAdjust="spacing" textLength="34" x="449" y="1007.0898">Utils</text></g><!--cluster MyNamespace--><g id="cluster_MyNamespace"><path d="M421.5,314.5547 L524.5,314.5547 A3.75,3.75 0 0 1 527,317.0547 L534,337.043 L870.5,337.043 A2.5,2.5 0 0 1 873,339.543 L873,511.0547 A2.5,2.5 0 0 1 870.5,513.5547 L421.5,513.5547 A2.5,2.5 0 0 1 419,511.0547 L419,317.0547 A2.5,2.5 0 0 1 421.5,314.5547 " fill="none" style="stroke:#000000;stroke-width:1.5;"/><line style="stroke:#000000;stroke-width:1.5;" x1="419" x2="534" y1="337.043" y2="337.043"/><text fill="#000000" font-family="sans-serif" font-size="14" font-weight="bold" lengthAdjust="spacing" textLength="102" x="423" y="330.0898">MyNamespace</text></g><!--cluster DotNetPreAdapter--><g id="cluster_DotNetPreAdapter"><path d="M445.5,357.5547 L576.5,357.5547 A3.75,3.75 0 0 1 579,360.0547 L586,380.043 L846.5,380.043 A2.5,2.5 0 0 1 849,382.543 L849,487.0547 A2.5,2.5 0 0 1 846.5,489.5547 L445.5,489.5547 A2.5,2.5 0 0 1 443,487.0547 L443,360.0547 A2.5,2.5 0 0 1 445.5,357.5547 " fill="none" style="stroke:#000000;stroke-width:1.5;"/><line style="stroke:#000000;stroke-width:1.5;" x1="443" x2="586" y1="380.043" y2="380.043"/><text fill="#000000" font-family="sans-serif" font-size="14" font-weight="bold" lengthAdjust="spacing" textLength="130" x="447" y="373.0898">DotNetPreAdapter</text></g><!--class Datastructure--><a href="DotNetPreAdapter.Domain.Datastructure-diagram-detailed.svg" target="_top" title="DotNetPreAdapter.Domain.Datastructure-diagram-detailed.svg" xlink:actuate="onRequest" xlink:href="DotNetPreAdapter.Domain.Datastructure-diagram-detailed.svg" xlink:show="new" xlink:title="DotNetPreAdapter.Domain.Datastructure-diagram-detailed.svg" xlink:type="simple"><g id="elem_Datastructure"><rect codeLine="6" fill="#F1F1F1" height="335.8125" id="Datastructure" rx="2.5" ry="2.5" style="stroke:#181818;stroke-width:0.5;" width="803" x="137.5" y="615.5547"/><ellipse cx="488.25" cy="631.5547" fill="#A9DCDF" rx="11" ry="11" style="stroke:#181818;stroke-width:1.0;"/><path d="M488.1133,626.9028 L486.9595,631.9746 L489.2754,631.9746 Z M486.6191,624.6616 L489.6157,624.6616 L492.9609,637.0547 L490.5122,637.0547 L489.7485,633.9917 L486.4697,633.9917 L485.7227,637.0547 L483.2739,637.0547 Z " fill="#000000"/><text fill="#000000" font-family="sans-serif" font-size="14" font-style="italic" lengthAdjust="spacing" textLength="93" x="508.75" y="636.8457">Datastructure</text><line style="stroke:#181818;stroke-width:0.5;" x1="138.5" x2="939.5" y1="647.5547" y2="647.5547"/><ellipse cx="148.5" cy="661.2988" fill="none" rx="3" ry="3" style="stroke:#038048;stroke-width:1.0;"/><text fill="#000000" font-family="sans-serif" font-size="14" lengthAdjust="spacing" textLength="646" x="157.5" y="665.0898">class_to_datastructure: dict[string, DotNetPreAdapter.Domain.Datastructure.SubDataStructure]</text><ellipse cx="148.5" cy="677.7871" fill="none" rx="3" ry="3" style="stroke:#038048;stroke-width:1.0;"/><text fill="#000000" font-family="sans-serif" font-size="14" lengthAdjust="spacing" textLength="727" x="157.5" y="681.5781">namespace_to_datastructures: dict[string, list[DotNetPreAdapter.Domain.Datastructure.SubDataStructure]]</text><ellipse cx="148.5" cy="694.2754" fill="none" rx="3" ry="3" style="stroke:#038048;stroke-width:1.0;"/><text fill="#000000" font-family="sans-serif" font-size="14" lengthAdjust="spacing" textLength="370" x="157.5" y="698.0664">namespace_to_namespace_list: dict[string, list[string]]</text><ellipse cx="148.5" cy="710.7637" fill="none" rx="3" ry="3" style="stroke:#038048;stroke-width:1.0;"/><text fill="#000000" font-family="sans-serif" font-size="14" lengthAdjust="spacing" textLength="263" x="157.5" y="714.5547">logger: DotNetPreAdapter.Utils.Logger</text><line style="stroke:#181818;stroke-width:1.0;" x1="138.5" x2="939.5" y1="721.5078" y2="721.5078"/><line style="stroke:#181818;stroke-width:1.0;" x1="138.5" x2="939.5" y1="723.5078" y2="723.5078"/><ellipse cx="148.5" cy="735.252" fill="#84BE84" rx="3" ry="3" style="stroke:#038048;stroke-width:1.0;"/><text fill="#000000" font-family="sans-serif" font-size="14" lengthAdjust="spacing" textLength="139" x="157.5" y="739.043">ResolveClassNames(</text><text fill="#000000" font-family="sans-serif" font-size="14" lengthAdjust="spacing" textLength="9" x="296.5" y="739.043">):</text><text fill="#BB6060" font-family="sans-serif" font-size="14" lengthAdjust="spacing" textLength="29" x="309.5" y="739.043">void</text><rect fill="none" height="6" style="stroke:#C82930;stroke-width:1.0;" width="6" x="145.5" y="748.7402"/><text fill="#909090" font-family="sans-serif" font-size="14" lengthAdjust="spacing" textLength="575" x="157.5" y="755.5313">ResolveClassNames.variables: list[DotNetPreAdapter.Domain.Datastructure.Variable]</text><rect fill="none" height="6" style="stroke:#C82930;stroke-width:1.0;" width="6" x="145.5" y="765.2285"/><text fill="#909090" font-family="sans-serif" font-size="14" lengthAdjust="spacing" textLength="538" x="157.5" y="772.0195">ResolveClassNames.variable: DotNetPreAdapter.Domain.Datastructure.Variable</text><line style="stroke:#181818;stroke-width:1.0;" x1="138.5" x2="939.5" y1="778.9727" y2="778.9727"/><rect fill="#F24D5C" height="6" style="stroke:#C82930;stroke-width:1.0;" width="6" x="145.5" y="789.7168"/><text fill="#000000" font-family="sans-serif" font-size="14" lengthAdjust="spacing" textLength="133" x="157.5" y="796.5078">CorrectClassScope(</text><text fill="#6060BB" font-family="sans-serif" font-size="14" lengthAdjust="spacing" textLength="525" x="290.5" y="796.5078">subDataStructure:DotNetPreAdapter.Domain.Datastructure.SubDataStructure</text><text fill="#000000" font-family="sans-serif" font-size="14" lengthAdjust="spacing" textLength="9" x="815.5" y="796.5078">):</text><text fill="#BB6060" font-family="sans-serif" font-size="14" lengthAdjust="spacing" textLength="29" x="828.5" y="796.5078">void</text><rect fill="#F24D5C" height="6" style="stroke:#C82930;stroke-width:1.0;" width="6" x="145.5" y="806.2051"/><text fill="#000000" font-family="sans-serif" font-size="14" lengthAdjust="spacing" textLength="275" x="157.5" y="812.9961">getFQDNClassNameFromNamespacelist(</text><text fill="#000000" font-family="sans-serif" font-size="14" lengthAdjust="spacing" textLength="9" x="432.5" y="812.9961">):</text><text fill="#BB6060" font-family="sans-serif" font-size="14" lengthAdjust="spacing" textLength="40" x="445.5" y="812.9961">string</text><rect fill="#F24D5C" height="6" style="stroke:#C82930;stroke-width:1.0;" width="6" x="145.5" y="822.6934"/><text fill="#000000" font-family="sans-serif" font-size="14" lengthAdjust="spacing" textLength="199" x="157.5" y="829.4844">GetFQDNForUsedClassName(</text><text fill="#6060BB" font-family="sans-serif" font-size="14" lengthAdjust="spacing" textLength="525" x="356.5" y="829.4844">subDataStructure:DotNetPreAdapter.Domain.Datastructure.SubDataStructure</text><text fill="#000000" font-family="sans-serif" font-size="14" lengthAdjust="spacing" textLength="9" x="881.5" y="829.4844">):</text><text fill="#BB6060" font-family="sans-serif" font-size="14" lengthAdjust="spacing" textLength="40" x="894.5" y="829.4844">string</text><ellipse cx="148.5" cy="842.1816" fill="#84BE84" rx="3" ry="3" style="stroke:#038048;stroke-width:1.0;"/><text fill="#000000" font-family="sans-serif" font-size="14" lengthAdjust="spacing" textLength="105" x="157.5" y="845.9727">get_skip_types(</text><text fill="#000000" font-family="sans-serif" font-size="14" lengthAdjust="spacing" textLength="9" x="262.5" y="845.9727">):</text><text fill="#BB6060" font-family="sans-serif" font-size="14" lengthAdjust="spacing" textLength="70" x="275.5" y="845.9727">list[string]</text><rect fill="#F24D5C" height="6" style="stroke:#C82930;stroke-width:1.0;" width="6" x="145.5" y="855.6699"/><text fill="#000000" font-family="sans-serif" font-size="14" lengthAdjust="spacing" textLength="188" x="157.5" y="862.4609">append_sub_datastructure(</text><text fill="#6060BB" font-family="sans-serif" font-size="14" lengthAdjust="spacing" textLength="530" x="345.5" y="862.4609">sub_datastructure:DotNetPreAdapter.Domain.Datastructure.SubDataStructure</text><text fill="#000000" font-family="sans-serif" font-size="14" lengthAdjust="spacing" textLength="9" x="875.5" y="862.4609">):</text><text fill="#BB6060" font-family="sans-serif" font-size="14" lengthAdjust="spacing" textLength="29" x="888.5" y="862.4609">void</text><line style="stroke:#181818;stroke-width:1.0;" x1="138.5" x2="939.5" y1="869.4141" y2="869.4141"/><ellipse cx="148.5" cy="883.1582" fill="#84BE84" rx="3" ry="3" style="stroke:#038048;stroke-width:1.0;"/><text fill="#000000" font-family="sans-serif" font-size="14" lengthAdjust="spacing" textLength="97" x="157.5" y="886.9492">append_class(</text><text fill="#000000" font-family="sans-serif" font-size="14" lengthAdjust="spacing" textLength="9" x="254.5" y="886.9492">):</text><text fill="#BB6060" font-family="sans-serif" font-size="14" lengthAdjust="spacing" textLength="29" x="267.5" y="886.9492">void</text><rect fill="none" height="6" style="stroke:#C82930;stroke-width:1.0;" width="6" x="145.5" y="896.6465"/><text fill="#909090" font-family="sans-serif" font-size="14" lengthAdjust="spacing" textLength="630" x="157.5" y="903.4375">append_class.sub_datastructure: DotNetPreAdapter.Domain.Datastructure.SubDataStructure</text><line style="stroke:#181818;stroke-width:1.0;" x1="138.5" x2="939.5" y1="910.3906" y2="910.3906"/><ellipse cx="148.5" cy="924.1348" fill="#84BE84" rx="3" ry="3" style="stroke:#038048;stroke-width:1.0;"/><text fill="#000000" font-family="sans-serif" font-size="14" lengthAdjust="spacing" textLength="132" x="157.5" y="927.9258">get_classname_list(</text><text fill="#000000" font-family="sans-serif" font-size="14" lengthAdjust="spacing" textLength="9" x="289.5" y="927.9258">):</text><text fill="#BB6060" font-family="sans-serif" font-size="14" lengthAdjust="spacing" textLength="70" x="302.5" y="927.9258">list[string]</text><ellipse cx="148.5" cy="940.623" fill="#84BE84" rx="3" ry="3" style="stroke:#038048;stroke-width:1.0;"/><text fill="#000000" font-family="sans-serif" font-size="14" lengthAdjust="spacing" textLength="258" x="157.5" y="944.4141">get_datastructures_from_class_name(</text><text fill="#000000" font-family="sans-serif" font-size="14" lengthAdjust="spacing" textLength="9" x="415.5" y="944.4141">):</text><text fill="#BB6060" font-family="sans-serif" font-size="14" lengthAdjust="spacing" textLength="402" x="428.5" y="944.4141">DotNetPreAdapter.Domain.Datastructure.SubDataStructure</text></g></a><!--class Logger--><a href="DotNetPreAdapter.Utils.Logger-diagram-detailed.svg" target="_top" title="DotNetPreAdapter.Utils.Logger-diagram-detailed.svg" xlink:actuate="onRequest" xlink:href="DotNetPreAdapter.Utils.Logger-diagram-detailed.svg" xlink:show="new" xlink:title="DotNetPreAdapter.Utils.Logger-diagram-detailed.svg" xlink:type="simple"><g id="elem_Logger"><rect codeLine="28" fill="#F1F1F1" height="163.418" id="Logger" rx="2.5" ry="2.5" style="stroke:#181818;stroke-width:0.5;" width="371" x="461.5" y="1026.5547"/><ellipse cx="618.75" cy="1042.5547" fill="#A9DCDF" rx="11" ry="11" style="stroke:#181818;stroke-width:1.0;"/><path d="M618.6133,1037.9028 L617.4595,1042.9746 L619.7754,1042.9746 Z M617.1191,1035.6616 L620.1157,1035.6616 L623.4609,1048.0547 L621.0122,1048.0547 L620.2485,1044.9917 L616.9697,1044.9917 L616.2227,1048.0547 L613.7739,1048.0547 Z " fill="#000000"/><text fill="#000000" font-family="sans-serif" font-size="14" font-style="italic" lengthAdjust="spacing" textLength="48" x="639.25" y="1047.8457">Logger</text><line style="stroke:#181818;stroke-width:0.5;" x1="462.5" x2="831.5" y1="1058.5547" y2="1058.5547"/><ellipse cx="472.5" cy="1072.2988" fill="none" rx="3" ry="3" style="stroke:#038048;stroke-width:1.0;"/><text fill="#000000" font-family="sans-serif" font-size="14" lengthAdjust="spacing" textLength="345" x="481.5" y="1076.0898">loggingType: DotNetPreAdapter.Utils.LoggingType</text><line style="stroke:#181818;stroke-width:1.0;" x1="462.5" x2="831.5" y1="1083.043" y2="1083.043"/><line style="stroke:#181818;stroke-width:1.0;" x1="462.5" x2="831.5" y1="1085.043" y2="1085.043"/><rect fill="#F24D5C" height="6" style="stroke:#C82930;stroke-width:1.0;" width="6" x="469.5" y="1093.7871"/><text fill="#000000" font-family="sans-serif" font-size="14" lengthAdjust="spacing" textLength="27" x="481.5" y="1100.5781">log(</text><text fill="#000000" font-family="sans-serif" font-size="14" lengthAdjust="spacing" textLength="9" x="508.5" y="1100.5781">):</text><text fill="#BB6060" font-family="sans-serif" font-size="14" lengthAdjust="spacing" textLength="29" x="521.5" y="1100.5781">void</text><ellipse cx="472.5" cy="1113.2754" fill="#84BE84" rx="3" ry="3" style="stroke:#038048;stroke-width:1.0;"/><text fill="#000000" font-family="sans-serif" font-size="14" lengthAdjust="spacing" textLength="65" x="481.5" y="1117.0664">LogError(</text><text fill="#000000" font-family="sans-serif" font-size="14" lengthAdjust="spacing" textLength="9" x="546.5" y="1117.0664">):</text><text fill="#BB6060" font-family="sans-serif" font-size="14" lengthAdjust="spacing" textLength="29" x="559.5" y="1117.0664">void</text><ellipse cx="472.5" cy="1129.7637" fill="#84BE84" rx="3" ry="3" style="stroke:#038048;stroke-width:1.0;"/><text fill="#000000" font-family="sans-serif" font-size="14" lengthAdjust="spacing" textLength="87" x="481.5" y="1133.5547">LogWarning(</text><text fill="#000000" font-family="sans-serif" font-size="14" lengthAdjust="spacing" textLength="9" x="568.5" y="1133.5547">):</text><text fill="#BB6060" font-family="sans-serif" font-size="14" lengthAdjust="spacing" textLength="29" x="581.5" y="1133.5547">void</text><ellipse cx="472.5" cy="1146.252" fill="#84BE84" rx="3" ry="3" style="stroke:#038048;stroke-width:1.0;"/><text fill="#000000" font-family="sans-serif" font-size="14" lengthAdjust="spacing" textLength="57" x="481.5" y="1150.043">LogInfo(</text><text fill="#000000" font-family="sans-serif" font-size="14" lengthAdjust="spacing" textLength="9" x="538.5" y="1150.043">):</text><text fill="#BB6060" font-family="sans-serif" font-size="14" lengthAdjust="spacing" textLength="29" x="551.5" y="1150.043">void</text><ellipse cx="472.5" cy="1162.7402" fill="#84BE84" rx="3" ry="3" style="stroke:#038048;stroke-width:1.0;"/><text fill="#000000" font-family="sans-serif" font-size="14" lengthAdjust="spacing" textLength="75" x="481.5" y="1166.5313">LogDebug(</text><text fill="#000000" font-family="sans-serif" font-size="14" lengthAdjust="spacing" textLength="9" x="556.5" y="1166.5313">):</text><text fill="#BB6060" font-family="sans-serif" font-size="14" lengthAdjust="spacing" textLength="29" x="569.5" y="1166.5313">void</text><ellipse cx="472.5" cy="1179.2285" fill="#84BE84" rx="3" ry="3" style="stroke:#038048;stroke-width:1.0;"/><text fill="#000000" font-family="sans-serif" font-size="14" lengthAdjust="spacing" textLength="68" x="481.5" y="1183.0195">LogTrace(</text><text fill="#000000" font-family="sans-serif" font-size="14" lengthAdjust="spacing" textLength="9" x="549.5" y="1183.0195">):</text><text fill="#BB6060" font-family="sans-serif" font-size="14" lengthAdjust="spacing" textLength="29" x="562.5" y="1183.0195">void</text></g></a><!--class UnusedASTVisitor--><a href="MyNamespace.DotNetPreAdapter.UnusedASTVisitor-diagram-detailed.svg" target="_top" title="MyNamespace.DotNetPreAdapter.UnusedASTVisitor-diagram-detailed.svg" xlink:actuate="onRequest" xlink:href="MyNamespace.DotNetPreAdapter.UnusedASTVisitor-diagram-detailed.svg" xlink:show="new" xlink:title="MyNamespace.DotNetPreAdapter.UnusedASTVisitor-diagram-detailed.svg" xlink:type="simple"><g id="elem_UnusedASTVisitor"><rect codeLine="38" fill="#FFFF00" height="80.9766" id="UnusedASTVisitor" rx="2.5" ry="2.5" style="stroke:#181818;stroke-width:0.5;" width="373" x="459.5" y="392.5547"/><ellipse cx="580.25" cy="408.5547" fill="#A9DCDF" rx="11" ry="11" style="stroke:#181818;stroke-width:1.0;"/><path d="M580.1133,403.9028 L578.9595,408.9746 L581.2754,408.9746 Z M578.6191,401.6616 L581.6157,401.6616 L584.9609,414.0547 L582.5122,414.0547 L581.7485,410.9917 L578.4697,410.9917 L577.7227,414.0547 L575.2739,414.0547 Z " fill="#000000"/><text fill="#000000" font-family="sans-serif" font-size="14" font-style="italic" lengthAdjust="spacing" textLength="123" x="600.75" y="413.8457">UnusedASTVisitor</text><line style="stroke:#181818;stroke-width:0.5;" x1="460.5" x2="831.5" y1="424.5547" y2="424.5547"/><ellipse cx="470.5" cy="438.2988" fill="none" rx="3" ry="3" style="stroke:#038048;stroke-width:1.0;"/><text fill="#000000" font-family="sans-serif" font-size="14" lengthAdjust="spacing" textLength="263" x="479.5" y="442.0898">logger: DotNetPreAdapter.Utils.Logger</text><ellipse cx="470.5" cy="454.7871" fill="none" rx="3" ry="3" style="stroke:#038048;stroke-width:1.0;"/><text fill="#000000" font-family="sans-serif" font-size="14" lengthAdjust="spacing" textLength="347" x="479.5" y="458.5781">unusedD: DotNetPreAdapter.Domain.Datastructure</text><line style="stroke:#181818;stroke-width:1.0;" x1="460.5" x2="831.5" y1="465.5313" y2="465.5313"/><line style="stroke:#181818;stroke-width:1.0;" x1="460.5" x2="831.5" y1="467.5313" y2="467.5313"/></g></a><g id="elem_FloatingNote"><path d="M6,50.5547 L6,298.2129 L524,298.2129 L524,60.5547 L514,50.5547 L6,50.5547 " fill="#FEFFDD" style="stroke:#181818;stroke-width:0.5;"/><path d="M514,50.5547 L514,60.5547 L524,60.5547 L514,50.5547 " fill="#FEFFDD" style="stroke:#181818;stroke-width:1.0;"/><text fill="#000000" font-family="sans-serif" font-size="13" lengthAdjust="spacing" textLength="120" x="12" y="68.123">Your are analyzing:</text><text fill="#000000" font-family="sans-serif" font-size="13" lengthAdjust="spacing" textLength="323" x="12" y="83.4336">MyNamespace.DotNetPreAdapter.UnusedASTVisitor</text><text fill="#000000" font-family="sans-serif" font-size="13" font-weight="bold" lengthAdjust="spacing" textLength="55" x="339" y="83.4336">detailed</text><text fill="#000000" font-family="sans-serif" font-size="13" lengthAdjust="spacing" textLength="4" x="394" y="83.4336">&#160;</text><text fill="#000000" font-family="sans-serif" font-size="13" lengthAdjust="spacing" textLength="4" x="12" y="98.7441">&#160;</text><text fill="#000000" font-family="sans-serif" font-size="13" lengthAdjust="spacing" textLength="229" x="12" y="129.3652">You can click either the namespaces</text><text fill="#000000" font-family="sans-serif" font-size="13" lengthAdjust="spacing" textLength="266" x="12" y="144.6758">or class names for filtering them and their</text><text fill="#000000" font-family="sans-serif" font-size="13" lengthAdjust="spacing" textLength="130" x="12" y="159.9863">direct dependencies.</text><text fill="#000000" font-family="sans-serif" font-size="13" lengthAdjust="spacing" textLength="4" x="12" y="175.2969">&#160;</text><line style="stroke:#181818;stroke-width:1.0;" x1="7" x2="249" y1="109.1416" y2="109.1416"/><line style="stroke:#181818;stroke-width:1.0;" x1="7" x2="249" y1="111.1416" y2="111.1416"/><text fill="#000000" font-family="sans-serif" font-size="13" lengthAdjust="spacing" textLength="32" x="249" y="113.5547">Filter</text><line style="stroke:#181818;stroke-width:1.0;" x1="281" x2="523" y1="109.1416" y2="109.1416"/><line style="stroke:#181818;stroke-width:1.0;" x1="281" x2="523" y1="111.1416" y2="111.1416"/><ellipse cx="17.5" cy="205.1602" fill="#000000" rx="2.5" ry="2.5" style="stroke:#000000;stroke-width:0.0;"/><text fill="#000000" font-family="sans-serif" font-size="13" lengthAdjust="spacing" textLength="323" x="24" y="209.918">MyNamespace.DotNetPreAdapter.UnusedASTVisitor</text><text fill="#000000" font-family="sans-serif" font-size="13" font-weight="bold" lengthAdjust="spacing" textLength="67" x="351" y="209.918">simplified</text><text fill="#000000" font-family="sans-serif" font-size="13" lengthAdjust="spacing" textLength="4" x="422" y="209.918">:</text><text fill="#000000" font-family="sans-serif" font-size="13" lengthAdjust="spacing" textLength="12" x="12" y="225.2285">&#160;&#160;&#160;</text><a href="MyNamespace.DotNetPreAdapter.UnusedASTVisitor-diagram-simplified.svg" target="_top" title="MyNamespace.DotNetPreAdapter.UnusedASTVisitor-diagram-simplified.svg" xlink:actuate="onRequest" xlink:href="MyNamespace.DotNetPreAdapter.UnusedASTVisitor-diagram-simplified.svg" xlink:show="new" xlink:title="MyNamespace.DotNetPreAdapter.UnusedASTVisitor-diagram-simplified.svg" xlink:type="simple"><text fill="#0000FF" font-family="sans-serif" font-size="13" lengthAdjust="spacing" text-decoration="underline" textLength="479" x="24" y="225.2285">MyNamespace.DotNetPreAdapter.UnusedASTVisitor-diagram-simplified.svg</text></a><ellipse cx="17.5" cy="235.7813" fill="#000000" rx="2.5" ry="2.5" style="stroke:#000000;stroke-width:0.0;"/><text fill="#000000" font-family="sans-serif" font-size="13" lengthAdjust="spacing" textLength="78" x="24" y="240.5391">Full diagram</text><text fill="#000000" font-family="sans-serif" font-size="13" font-weight="bold" lengthAdjust="spacing" textLength="55" x="106" y="240.5391">detailed</text><text fill="#000000" font-family="sans-serif" font-size="13" lengthAdjust="spacing" textLength="23" x="165" y="240.5391">and</text><text fill="#000000" font-family="sans-serif" font-size="13" font-weight="bold" lengthAdjust="spacing" textLength="166" x="192" y="240.5391">grouped per namespace</text><text fill="#000000" font-family="sans-serif" font-size="13" lengthAdjust="spacing" textLength="4" x="358" y="240.5391">:</text><text fill="#000000" font-family="sans-serif" font-size="13" lengthAdjust="spacing" textLength="12" x="12" y="255.8496">&#160;&#160;&#160;</text><a href="full-diagram-detailed-grouped-per-namespace.svg" target="_top" title="full-diagram-detailed-grouped-per-namespace.svg" xlink:actuate="onRequest" xlink:href="full-diagram-detailed-grouped-per-namespace.svg" xlink:show="new" xlink:title="full-diagram-detailed-grouped-per-namespace.svg" xlink:type="simple"><text fill="#0000FF" font-family="sans-serif" font-size="13" lengthAdjust="spacing" text-decoration="underline" textLength="330" x="24" y="255.8496">full-diagram-detailed-grouped-per-namespace.svg</text></a><ellipse cx="17.5" cy="266.4023" fill="#000000" rx="2.5" ry="2.5" style="stroke:#000000;stroke-width:0.0;"/><text fill="#000000" font-family="sans-serif" font-size="13" lengthAdjust="spacing" textLength="41" x="24" y="271.1602">Home:</text><text fill="#000000" font-family="sans-serif" font-size="13" lengthAdjust="spacing" textLength="12" x="12" y="286.4707">&#160;&#160;&#160;</text><a href="index.html" target="_top" title="index.html" xlink:actuate="onRequest" xlink:href="index.html" xlink:show="new" xlink:title="index.html" xlink:type="simple"><text fill="#0000FF" font-family="sans-serif" font-size="13" lengthAdjust="spacing" text-decoration="underline" textLength="68" x="24" y="286.4707">index.html</text></a><line style="stroke:#181818;stroke-width:1.0;" x1="7" x2="228" y1="189.6943" y2="189.6943"/><line style="stroke:#181818;stroke-width:1.0;" x1="7" x2="228" y1="191.6943" y2="191.6943"/><text fill="#000000" font-family="sans-serif" font-size="13" lengthAdjust="spacing" textLength="74" x="228" y="194.1074">Select other</text><line style="stroke:#181818;stroke-width:1.0;" x1="302" x2="523" y1="189.6943" y2="189.6943"/><line style="stroke:#181818;stroke-width:1.0;" x1="302" x2="523" y1="191.6943" y2="191.6943"/></g><!--class CSharpSyntaxWalker--><a href="CSharpSyntaxWalker-diagram-detailed.svg" target="_top" title="CSharpSyntaxWalker-diagram-detailed.svg" xlink:actuate="onRequest" xlink:href="CSharpSyntaxWalker-diagram-detailed.svg" xlink:show="new" xlink:title="CSharpSyntaxWalker-diagram-detailed.svg" xlink:type="simple"><g id="elem_CSharpSyntaxWalker"><rect codeLine="4" fill="#F5FFFA" height="48" id="CSharpSyntaxWalker" rx="2.5" ry="2.5" style="stroke:#181818;stroke-width:0.5;" width="174" x="559" y="150.5547"/><ellipse cx="574" cy="166.5547" fill="#ADD1B2" rx="11" ry="11" style="stroke:#181818;stroke-width:1.0;"/><path d="M576.4731,172.6978 Q575.8921,172.9966 575.2529,173.146 Q574.6138,173.2954 573.9082,173.2954 Q571.4014,173.2954 570.0815,171.6436 Q568.7617,169.9917 568.7617,166.8706 Q568.7617,163.7412 570.0815,162.0894 Q571.4014,160.4375 573.9082,160.4375 Q574.6138,160.4375 575.2612,160.5869 Q575.9087,160.7363 576.4731,161.0352 L576.4731,163.7578 Q575.8423,163.1768 575.2488,162.907 Q574.6553,162.6372 574.0244,162.6372 Q572.6797,162.6372 571.9949,163.7039 Q571.3101,164.7705 571.3101,166.8706 Q571.3101,168.9624 571.9949,170.0291 Q572.6797,171.0957 574.0244,171.0957 Q574.6553,171.0957 575.2488,170.8259 Q575.8423,170.5562 576.4731,169.9751 Z " fill="#000000"/><text fill="#000000" font-family="sans-serif" font-size="14" lengthAdjust="spacing" textLength="142" x="588" y="171.8457">CSharpSyntaxWalker</text><line style="stroke:#181818;stroke-width:0.5;" x1="560" x2="732" y1="182.5547" y2="182.5547"/><line style="stroke:#181818;stroke-width:0.5;" x1="560" x2="732" y1="190.5547" y2="190.5547"/></g></a><!--reverse link Datastructure to Logger--><g id="link_Datastructure_Logger"><path codeLine="50" d="M647,965.9847 C647,965.9847 647,1026.0647 647,1026.0647 " fill="none" id="Datastructure-backto-Logger" style="stroke:#10BB10;stroke-width:1.0;"/><polygon fill="#10BB10" points="647,952.9847,643,958.9847,647,964.9847,651,958.9847,647,952.9847" style="stroke:#10BB10;stroke-width:1.0;"/></g><!--reverse link CSharpSyntaxWalker to UnusedASTVisitor--><g id="link_CSharpSyntaxWalker_UnusedASTVisitor"><path codeLine="55" d="M646,219.8747 C646,219.8747 646,392.1647 646,392.1647 " fill="none" id="CSharpSyntaxWalker-backto-UnusedASTVisitor" style="stroke:#FF0000;stroke-width:1.0;"/><polygon fill="none" points="639,219.8747,646,199.8747,653,219.8747,639,219.8747" style="stroke:#FF0000;stroke-width:1.0;"/></g><!--reverse link UnusedASTVisitor to Logger--><g id="link_UnusedASTVisitor_Logger"><path codeLine="56" d="M846.75,433.5547 C846.75,433.5547 958.5,433.5547 958.5,433.5547 C958.5,433.5547 958.5,1108.5547 958.5,1108.5547 C958.5,1108.5547 899.41,1108.5547 832.7,1108.5547 " fill="none" id="UnusedASTVisitor-backto-Logger" style="stroke:#10BB10;stroke-width:1.0;"/><polygon fill="#10BB10" points="833.75,433.5547,839.75,437.5547,845.75,433.5547,839.75,429.5547,833.75,433.5547" style="stroke:#10BB10;stroke-width:1.0;"/></g><!--reverse link UnusedASTVisitor to Datastructure--><g id="link_UnusedASTVisitor_Datastructure"><path codeLine="57" d="M646,487.9447 C646,487.9447 646,615.3647 646,615.3647 " fill="none" id="UnusedASTVisitor-backto-Datastructure" style="stroke:#10BB10;stroke-width:1.0;"/><polygon fill="#10BB10" points="646,474.9447,642,480.9447,646,486.9447,650,480.9447,646,474.9447" style="stroke:#10BB10;stroke-width:1.0;"/></g><!--SRC=[nLVRRjiu47tNLmoSXxRAIdNxKA26RQ29wzq2JR1T9oaAsJ0OQUmGeKc1fB9nB_- -Gqc-nKvZsGus0OA8cZbdvinmI9bRBbEcsGG4bsYdAOBIzaPvbbk1q3JyEpRUrjjdqtCsGPEo6CEEikTe_zRu8M6fHHrUoinWyg5tSSKDjqg3xoTe6HUO-3uqNpkGjYULHQXzKva6fX6OP6BwdSjneo_tGE_BlcorkboGQQlLbuGFCPCG2nxV0d9xWnhe3yWPWo4VGea5CwPOXH4zZt88YiTPJoYynFt3TLycN6Di8S4KPO8ovcZ2WhQ7mhrHZiIH-r0r4yCdgU0ZdkT2IW1055K22HBEnbJ0O04LchlnOE32wMP2G6cmgflBp_V7McKf9f2II7E1V7yMo8ZSv_Wpvw1q2iWfc3ijEFzI4vm1S1BiFhon4p4Or80Pw0h5B8byJitW5IKuxTqmdVQcqhBxhqpSKYXHjBwu5aV124TdNDfJZPJW3- -N1y2kZTMCobB0hmdOKHF6PTXXbf5X5jkCkZ6Ajh9xB0YYfdpXkE0SMZLCbjqQL8FOHlHCgV-nNKXXBxjs2xtPmg2ac4k-HcCUy0XkRBGZsKQsnOE3tiHMFCozXHgFKJVMCxwqN9ZmS_xQQxLAyt_GA767fqx4V0kyR8wKf4egeNIhzgx-hdvoKcitNxlLzgi6hBm-EN46jVQTuabfakC6gsRlw-wtrbuZ2- -OvknQE1qhI7TLUWtsucn0DROPMH2KVATAkp6LG_TYbU9cxSo3GZTswu_A9HYZxNxfdCypxsercKyvf_PEfIxQRPNfpuAfg_Gb3SevuVyfntgOnqwGeRdbwT0Tkhir-lAEMzM0fUwi6b9sgnFYKH4UpAjdRugoROzdaUPpypbt-p9Fk9umx9Nn8XrNrPp3ZShXpdtzM6KBWjMXFnpHLYf8ym6z4-5-wGDiS_0kp_nD1-xo-oSFMdUoa3eNj7b-UxoKDhCp9d2E1-cpOo3uZrehVJYuhqnB2lXmW9_aI1qEhOFNsG63kw1cmGF0RUYzQjVmNM_S3s-YKnH2_RlIeazVVWhRBEVeR3c7Ycwcl5_G7Nwh7tWssnUG7x6WKT3DNaa3U9-NWZuht6HQt20RP5lH_14rlEqkzNuG7RsXVdfJ7mHFZADzuyh1AeByhkcy3Lz5pP-KZyQ4agdKhrx5Zz8AgXqIUMC9_mC0]--></g></svg>