<?xml version="1.0" encoding="us-ascii" standalone="no"?><svg xmlns="http://www.w3.org/2000/svg" xmlns:xlink="http://www.w3.org/1999/xlink" contentStyleType="text/css" height="561px" preserveAspectRatio="none" style="width:1525px;height:561px;background:#FFFFFF;" version="1.1" viewBox="0 0 1525 561" width="1525px" zoomAndPan="magnify"><defs/><g><text fill="#000000" font-family="sans-serif" font-size="20" font-weight="bold" lengthAdjust="spacing" textLength="453" x="323" y="29.3359">MyNamespace.DotNetPreAdapter.InnerClass</text><text fill="#000000" font-family="sans-serif" font-size="20" font-weight="bold" lengthAdjust="spacing" textLength="104" x="783" y="29.3359">simplified</text><text fill="#000000" font-family="sans-serif" font-size="20" font-weight="bold" lengthAdjust="spacing" textLength="38" x="894" y="29.3359">and</text><text fill="#000000" font-family="sans-serif" font-size="20" font-weight="bold" lengthAdjust="spacing" textLength="249" x="939" y="29.3359">grouped per namespace</text><!--cluster MyNamespace--><g id="cluster_MyNamespace"><a href="MyNamespace-diagram-simplified-grouped-per-namespace.svg" target="_top" title="MyNamespace-diagram-simplified-grouped-per-namespace.svg" xlink:actuate="onRequest" xlink:href="MyNamespace-diagram-simplified-grouped-per-namespace.svg" xlink:show="new" xlink:title="MyNamespace-diagram-simplified-grouped-per-namespace.svg" xlink:type="simple"><path d="M650,72.5547 L753,72.5547 A3.75,3.75 0 0 1 755.5,75.0547 L762.5,95.043 L1075,95.043 A2.5,2.5 0 0 1 1077.5,97.543 L1077.5,552.0547 A2.5,2.5 0 0 1 1075,554.5547 L650,554.5547 A2.5,2.5 0 0 1 647.5,552.0547 L647.5,75.0547 A2.5,2.5 0 0 1 650,72.5547 " fill="none" style="stroke:#000000;stroke-width:1.5;"/><line style="stroke:#000000;stroke-width:1.5;" x1="647.5" x2="762.5" y1="95.043" y2="95.043"/><text fill="#000000" font-family="sans-serif" font-size="14" font-weight="bold" lengthAdjust="spacing" textLength="102" x="651.5" y="88.0898">MyNamespace</text></a></g><!--cluster DotNetPreAdapter--><g id="cluster_DotNetPreAdapter"><a href="MyNamespace.DotNetPreAdapter-diagram-simplified-grouped-per-namespace.svg" target="_top" title="MyNamespace.DotNetPreAdapter-diagram-simplified-grouped-per-namespace.svg" xlink:actuate="onRequest" xlink:href="MyNamespace.DotNetPreAdapter-diagram-simplified-grouped-per-namespace.svg" xlink:show="new" xlink:title="MyNamespace.DotNetPreAdapter-diagram-simplified-grouped-per-namespace.svg" xlink:type="simple"><path d="M674,115.5547 L805,115.5547 A3.75,3.75 0 0 1 807.5,118.0547 L814.5,138.043 L1051,138.043 A2.5,2.5 0 0 1 1053.5,140.543 L1053.5,528.0547 A2.5,2.5 0 0 1 1051,530.5547 L674,530.5547 A2.5,2.5 0 0 1 671.5,528.0547 L671.5,118.0547 A2.5,2.5 0 0 1 674,115.5547 " fill="none" style="stroke:#000000;stroke-width:1.5;"/><line style="stroke:#000000;stroke-width:1.5;" x1="671.5" x2="814.5" y1="138.043" y2="138.043"/><text fill="#000000" font-family="sans-serif" font-size="14" font-weight="bold" lengthAdjust="spacing" textLength="130" x="675.5" y="131.0898">DotNetPreAdapter</text></a></g><!--class InnerClassBase--><a href="MyNamespace.DotNetPreAdapter.InnerClassBase-diagram-simplified-grouped-per-namespace.svg" target="_top" title="MyNamespace.DotNetPreAdapter.InnerClassBase-diagram-simplified-grouped-per-namespace.svg" xlink:actuate="onRequest" xlink:href="MyNamespace.DotNetPreAdapter.InnerClassBase-diagram-simplified-grouped-per-namespace.svg" xlink:show="new" xlink:title="MyNamespace.DotNetPreAdapter.InnerClassBase-diagram-simplified-grouped-per-namespace.svg" xlink:type="simple"><g id="elem_InnerClassBase"><rect codeLine="15" fill="#FFFF00" height="48" id="InnerClassBase" rx="2.5" ry="2.5" style="stroke:#181818;stroke-width:0.5;" width="135" x="854" y="150.5547"/><ellipse cx="869" cy="166.5547" fill="#A9DCDF" rx="11" ry="11" style="stroke:#181818;stroke-width:1.0;"/><path d="M868.8633,161.9028 L867.7095,166.9746 L870.0254,166.9746 Z M867.3691,159.6616 L870.3657,159.6616 L873.7109,172.0547 L871.2622,172.0547 L870.4985,168.9917 L867.2197,168.9917 L866.4727,172.0547 L864.0239,172.0547 Z " fill="#000000"/><text fill="#000000" font-family="sans-serif" font-size="14" font-style="italic" lengthAdjust="spacing" textLength="103" x="883" y="171.8457">InnerClassBase</text><line style="stroke:#181818;stroke-width:0.5;" x1="855" x2="988" y1="182.5547" y2="182.5547"/><line style="stroke:#181818;stroke-width:0.5;" x1="855" x2="988" y1="190.5547" y2="190.5547"/></g></a><!--class InnerClass--><a href="MyNamespace.DotNetPreAdapter.InnerClass-diagram-simplified-grouped-per-namespace.svg" target="_top" title="MyNamespace.DotNetPreAdapter.InnerClass-diagram-simplified-grouped-per-namespace.svg" xlink:actuate="onRequest" xlink:href="MyNamespace.DotNetPreAdapter.InnerClass-diagram-simplified-grouped-per-namespace.svg" xlink:show="new" xlink:title="MyNamespace.DotNetPreAdapter.InnerClass-diagram-simplified-grouped-per-namespace.svg" xlink:type="simple"><g id="elem_InnerClass"><rect codeLine="17" fill="#FFFF00" height="48" id="InnerClass" rx="2.5" ry="2.5" style="stroke:#181818;stroke-width:0.5;" width="104" x="810.5" y="358.5547"/><ellipse cx="825.5" cy="374.5547" fill="#A9DCDF" rx="11" ry="11" style="stroke:#181818;stroke-width:1.0;"/><path d="M825.3633,369.9028 L824.2095,374.9746 L826.5254,374.9746 Z M823.8691,367.6616 L826.8657,367.6616 L830.2109,380.0547 L827.7622,380.0547 L826.9985,376.9917 L823.7197,376.9917 L822.9727,380.0547 L820.5239,380.0547 Z " fill="#000000"/><text fill="#000000" font-family="sans-serif" font-size="14" font-style="italic" lengthAdjust="spacing" textLength="72" x="839.5" y="379.8457">InnerClass</text><line style="stroke:#181818;stroke-width:0.5;" x1="811.5" x2="913.5" y1="390.5547" y2="390.5547"/><line style="stroke:#181818;stroke-width:0.5;" x1="811.5" x2="913.5" y1="398.5547" y2="398.5547"/></g></a><!--class IMyTest--><a href="MyNamespace.DotNetPreAdapter.IMyTest-diagram-simplified-grouped-per-namespace.svg" target="_top" title="MyNamespace.DotNetPreAdapter.IMyTest-diagram-simplified-grouped-per-namespace.svg" xlink:actuate="onRequest" xlink:href="MyNamespace.DotNetPreAdapter.IMyTest-diagram-simplified-grouped-per-namespace.svg" xlink:show="new" xlink:title="MyNamespace.DotNetPreAdapter.IMyTest-diagram-simplified-grouped-per-namespace.svg" xlink:type="simple"><g id="elem_IMyTest"><rect codeLine="19" fill="#F1F1F1" height="48" id="IMyTest" rx="2.5" ry="2.5" style="stroke:#181818;stroke-width:0.5;" width="84" x="734.5" y="150.5547"/><ellipse cx="749.5" cy="166.5547" fill="#B4A7E5" rx="11" ry="11" style="stroke:#181818;stroke-width:1.0;"/><path d="M745.9277,162.8198 L745.9277,160.6616 L753.3071,160.6616 L753.3071,162.8198 L750.8418,162.8198 L750.8418,170.8965 L753.3071,170.8965 L753.3071,173.0547 L745.9277,173.0547 L745.9277,170.8965 L748.3931,170.8965 L748.3931,162.8198 Z " fill="#000000"/><text fill="#000000" font-family="sans-serif" font-size="14" font-style="italic" lengthAdjust="spacing" textLength="52" x="763.5" y="171.8457">IMyTest</text><line style="stroke:#181818;stroke-width:0.5;" x1="735.5" x2="817.5" y1="182.5547" y2="182.5547"/><line style="stroke:#181818;stroke-width:0.5;" x1="735.5" x2="817.5" y1="190.5547" y2="190.5547"/></g></a><!--class InnerClass_DOT_InnerTestUnusedInInnerClass--><a href="MyNamespace.DotNetPreAdapter.InnerClass.InnerTestUnusedInInnerClass-diagram-simplified-grouped-per-namespace.svg" target="_top" title="MyNamespace.DotNetPreAdapter.InnerClass.InnerTestUnusedInInnerClass-diagram-simplified-grouped-per-namespace.svg" xlink:actuate="onRequest" xlink:href="MyNamespace.DotNetPreAdapter.InnerClass.InnerTestUnusedInInnerClass-diagram-simplified-grouped-per-namespace.svg" xlink:show="new" xlink:title="MyNamespace.DotNetPreAdapter.InnerClass.InnerTestUnusedInInnerClass-diagram-simplified-grouped-per-namespace.svg" xlink:type="simple"><g id="elem_InnerClass_DOT_InnerTestUnusedInInnerClass"><rect codeLine="21" fill="#FFFF00" height="48" id="InnerClass_DOT_InnerTestUnusedInInnerClass" rx="2.5" ry="2.5" style="stroke:#181818;stroke-width:0.5;" width="350" x="687.5" y="466.5547"/><ellipse cx="702.5" cy="482.5547" fill="#A9DCDF" rx="11" ry="11" style="stroke:#181818;stroke-width:1.0;"/><path d="M702.3633,477.9028 L701.2095,482.9746 L703.5254,482.9746 Z M700.8691,475.6616 L703.8657,475.6616 L707.2109,488.0547 L704.7622,488.0547 L703.9985,484.9917 L700.7197,484.9917 L699.9727,488.0547 L697.5239,488.0547 Z " fill="#000000"/><text fill="#000000" font-family="sans-serif" font-size="14" font-style="italic" lengthAdjust="spacing" textLength="318" x="716.5" y="487.8457">InnerClass_DOT_InnerTestUnusedInInnerClass</text><line style="stroke:#181818;stroke-width:0.5;" x1="688.5" x2="1036.5" y1="498.5547" y2="498.5547"/><line style="stroke:#181818;stroke-width:0.5;" x1="688.5" x2="1036.5" y1="506.5547" y2="506.5547"/></g></a><g id="elem_FloatingNote"><path d="M6,50.5547 L6,298.2129 L631,298.2129 L631,60.5547 L621,50.5547 L6,50.5547 " fill="#FEFFDD" style="stroke:#181818;stroke-width:0.5;"/><path d="M621,50.5547 L621,60.5547 L631,60.5547 L621,50.5547 " fill="#FEFFDD" style="stroke:#181818;stroke-width:1.0;"/><text fill="#000000" font-family="sans-serif" font-size="13" lengthAdjust="spacing" textLength="120" x="12" y="68.123">Your are analyzing:</text><text fill="#000000" font-family="sans-serif" font-size="13" lengthAdjust="spacing" textLength="277" x="12" y="83.4336">MyNamespace.DotNetPreAdapter.InnerClass</text><text fill="#000000" font-family="sans-serif" font-size="13" font-weight="bold" lengthAdjust="spacing" textLength="67" x="293" y="83.4336">simplified</text><text fill="#000000" font-family="sans-serif" font-size="13" lengthAdjust="spacing" textLength="23" x="364" y="83.4336">and</text><text fill="#000000" font-family="sans-serif" font-size="13" font-weight="bold" lengthAdjust="spacing" textLength="166" x="391" y="83.4336">grouped per namespace</text><text fill="#000000" font-family="sans-serif" font-size="13" lengthAdjust="spacing" textLength="4" x="12" y="98.7441">&#160;</text><text fill="#000000" font-family="sans-serif" font-size="13" lengthAdjust="spacing" textLength="229" x="12" y="129.3652">You can click either the namespaces</text><text fill="#000000" font-family="sans-serif" font-size="13" lengthAdjust="spacing" textLength="266" x="12" y="144.6758">or class names for filtering them and their</text><text fill="#000000" font-family="sans-serif" font-size="13" lengthAdjust="spacing" textLength="130" x="12" y="159.9863">direct dependencies.</text><text fill="#000000" font-family="sans-serif" font-size="13" lengthAdjust="spacing" textLength="4" x="12" y="175.2969">&#160;</text><line style="stroke:#181818;stroke-width:1.0;" x1="7" x2="302.5" y1="109.1416" y2="109.1416"/><line style="stroke:#181818;stroke-width:1.0;" x1="7" x2="302.5" y1="111.1416" y2="111.1416"/><text fill="#000000" font-family="sans-serif" font-size="13" lengthAdjust="spacing" textLength="32" x="302.5" y="113.5547">Filter</text><line style="stroke:#181818;stroke-width:1.0;" x1="334.5" x2="630" y1="109.1416" y2="109.1416"/><line style="stroke:#181818;stroke-width:1.0;" x1="334.5" x2="630" y1="111.1416" y2="111.1416"/><ellipse cx="17.5" cy="205.1602" fill="#000000" rx="2.5" ry="2.5" style="stroke:#000000;stroke-width:0.0;"/><text fill="#000000" font-family="sans-serif" font-size="13" lengthAdjust="spacing" textLength="277" x="24" y="209.918">MyNamespace.DotNetPreAdapter.InnerClass</text><text fill="#000000" font-family="sans-serif" font-size="13" font-weight="bold" lengthAdjust="spacing" textLength="55" x="305" y="209.918">detailed</text><text fill="#000000" font-family="sans-serif" font-size="13" lengthAdjust="spacing" textLength="23" x="364" y="209.918">and</text><text fill="#000000" font-family="sans-serif" font-size="13" font-weight="bold" lengthAdjust="spacing" textLength="166" x="391" y="209.918">grouped per namespace</text><text fill="#000000" font-family="sans-serif" font-size="13" lengthAdjust="spacing" textLength="4" x="557" y="209.918">:</text><text fill="#000000" font-family="sans-serif" font-size="13" lengthAdjust="spacing" textLength="12" x="12" y="225.2285">&#160;&#160;&#160;</text><a href="MyNamespace.DotNetPreAdapter.InnerClass-diagram-detailed-grouped-per-namespace.svg" target="_top" title="MyNamespace.DotNetPreAdapter.InnerClass-diagram-detailed-grouped-per-namespace.svg" xlink:actuate="onRequest" xlink:href="MyNamespace.DotNetPreAdapter.InnerClass-diagram-detailed-grouped-per-namespace.svg" xlink:show="new" xlink:title="MyNamespace.DotNetPreAdapter.InnerClass-diagram-detailed-grouped-per-namespace.svg" xlink:type="simple"><text fill="#0000FF" font-family="sans-serif" font-size="13" lengthAdjust="spacing" text-decoration="underline" textLength="586" x="24" y="225.2285">MyNamespace.DotNetPreAdapter.InnerClass-diagram-detailed-grouped-per-namespace.svg</text></a><ellipse cx="17.5" cy="235.7813" fill="#000000" rx="2.5" ry="2.5" style="stroke:#000000;stroke-width:0.0;"/><text fill="#000000" font-family="sans-serif" font-size="13" lengthAdjust="spacing" textLength="78" x="24" y="240.5391">Full diagram</text><text fill="#000000" font-family="sans-serif" font-size="13" font-weight="bold" lengthAdjust="spacing" textLength="67" x="106" y="240.5391">simplified</text><text fill="#000000" font-family="sans-serif" font-size="13" lengthAdjust="spacing" textLength="23" x="177" y="240.5391">and</text><text fill="#000000" font-family="sans-serif" font-size="13" font-weight="bold" lengthAdjust="spacing" textLength="166" x="204" y="240.5391">grouped per namespace</text><text fill="#000000" font-family="sans-serif" font-size="13" lengthAdjust="spacing" textLength="4" x="370" y="240.5391">:</text><text fill="#000000" font-family="sans-serif" font-size="13" lengthAdjust="spacing" textLength="12" x="12" y="255.8496">&#160;&#160;&#160;</text><a href="full-diagram-simplified-grouped-per-namespace.svg" target="_top" title="full-diagram-simplified-grouped-per-namespace.svg" xlink:actuate="onRequest" xlink:href="full-diagram-simplified-grouped-per-namespace.svg" xlink:show="new" xlink:title="full-diagram-simplified-grouped-per-namespace.svg" xlink:type="simple"><text fill="#0000FF" font-family="sans-serif" font-size="13" lengthAdjust="spacing" text-decoration="underline" textLength="343" x="24" y="255.8496">full-diagram-simplified-grouped-per-namespace.svg</text></a><ellipse cx="17.5" cy="266.4023" fill="#000000" rx="2.5" ry="2.5" style="stroke:#000000;stroke-width:0.0;"/><text fill="#000000" font-family="sans-serif" font-size="13" lengthAdjust="spacing" textLength="41" x="24" y="271.1602">Home:</text><text fill="#000000" font-family="sans-serif" font-size="13" lengthAdjust="spacing" textLength="12" x="12" y="286.4707">&#160;&#160;&#160;</text><a href="index.html" target="_top" title="index.html" xlink:actuate="onRequest" xlink:href="index.html" xlink:show="new" xlink:title="index.html" xlink:type="simple"><text fill="#0000FF" font-family="sans-serif" font-size="13" lengthAdjust="spacing" text-decoration="underline" textLength="68" x="24" y="286.4707">index.html</text></a><line style="stroke:#181818;stroke-width:1.0;" x1="7" x2="281.5" y1="189.6943" y2="189.6943"/><line style="stroke:#181818;stroke-width:1.0;" x1="7" x2="281.5" y1="191.6943" y2="191.6943"/><text fill="#000000" font-family="sans-serif" font-size="13" lengthAdjust="spacing" textLength="74" x="281.5" y="194.1074">Select other</text><line style="stroke:#181818;stroke-width:1.0;" x1="355.5" x2="630" y1="189.6943" y2="189.6943"/><line style="stroke:#181818;stroke-width:1.0;" x1="355.5" x2="630" y1="191.6943" y2="191.6943"/></g><!--class Enum--><a href="Enum-diagram-simplified-grouped-per-namespace.svg" target="_top" title="Enum-diagram-simplified-grouped-per-namespace.svg" xlink:actuate="onRequest" xlink:href="Enum-diagram-simplified-grouped-per-namespace.svg" xlink:show="new" xlink:title="Enum-diagram-simplified-grouped-per-namespace.svg" xlink:type="simple"><g id="elem_Enum"><rect codeLine="4" fill="#F5FFFA" height="48" id="Enum" rx="2.5" ry="2.5" style="stroke:#181818;stroke-width:0.5;" width="71" x="560" y="358.5547"/><ellipse cx="575" cy="374.5547" fill="#ADD1B2" rx="11" ry="11" style="stroke:#181818;stroke-width:1.0;"/><path d="M577.4731,380.6978 Q576.8921,380.9966 576.2529,381.146 Q575.6138,381.2954 574.9082,381.2954 Q572.4014,381.2954 571.0815,379.6436 Q569.7617,377.9917 569.7617,374.8706 Q569.7617,371.7412 571.0815,370.0894 Q572.4014,368.4375 574.9082,368.4375 Q575.6138,368.4375 576.2612,368.5869 Q576.9087,368.7363 577.4731,369.0352 L577.4731,371.7578 Q576.8423,371.1768 576.2488,370.907 Q575.6553,370.6372 575.0244,370.6372 Q573.6797,370.6372 572.9949,371.7039 Q572.3101,372.7705 572.3101,374.8706 Q572.3101,376.9624 572.9949,378.0291 Q573.6797,379.0957 575.0244,379.0957 Q575.6553,379.0957 576.2488,378.8259 Q576.8423,378.5562 577.4731,377.9751 Z " fill="#000000"/><text fill="#000000" font-family="sans-serif" font-size="14" lengthAdjust="spacing" textLength="39" x="589" y="379.8457">Enum</text><line style="stroke:#181818;stroke-width:0.5;" x1="561" x2="630" y1="390.5547" y2="390.5547"/><line style="stroke:#181818;stroke-width:0.5;" x1="561" x2="630" y1="398.5547" y2="398.5547"/></g></a><!--class IComparable--><a href="IComparable-diagram-simplified-grouped-per-namespace.svg" target="_top" title="IComparable-diagram-simplified-grouped-per-namespace.svg" xlink:actuate="onRequest" xlink:href="IComparable-diagram-simplified-grouped-per-namespace.svg" xlink:show="new" xlink:title="IComparable-diagram-simplified-grouped-per-namespace.svg" xlink:type="simple"><g id="elem_IComparable"><rect codeLine="6" fill="#F5FFFA" height="48" id="IComparable" rx="2.5" ry="2.5" style="stroke:#181818;stroke-width:0.5;" width="120" x="1093.5" y="358.5547"/><ellipse cx="1108.5" cy="374.5547" fill="#ADD1B2" rx="11" ry="11" style="stroke:#181818;stroke-width:1.0;"/><path d="M1110.9731,380.6978 Q1110.3921,380.9966 1109.7529,381.146 Q1109.1138,381.2954 1108.4082,381.2954 Q1105.9014,381.2954 1104.5815,379.6436 Q1103.2617,377.9917 1103.2617,374.8706 Q1103.2617,371.7412 1104.5815,370.0894 Q1105.9014,368.4375 1108.4082,368.4375 Q1109.1138,368.4375 1109.7612,368.5869 Q1110.4087,368.7363 1110.9731,369.0352 L1110.9731,371.7578 Q1110.3423,371.1768 1109.7488,370.907 Q1109.1553,370.6372 1108.5244,370.6372 Q1107.1797,370.6372 1106.4949,371.7039 Q1105.8101,372.7705 1105.8101,374.8706 Q1105.8101,376.9624 1106.4949,378.0291 Q1107.1797,379.0957 1108.5244,379.0957 Q1109.1553,379.0957 1109.7488,378.8259 Q1110.3423,378.5562 1110.9731,377.9751 Z " fill="#000000"/><text fill="#000000" font-family="sans-serif" font-size="14" lengthAdjust="spacing" textLength="88" x="1122.5" y="379.8457">IComparable</text><line style="stroke:#181818;stroke-width:0.5;" x1="1094.5" x2="1212.5" y1="390.5547" y2="390.5547"/><line style="stroke:#181818;stroke-width:0.5;" x1="1094.5" x2="1212.5" y1="398.5547" y2="398.5547"/></g></a><!--class IFormattable--><a href="IFormattable-diagram-simplified-grouped-per-namespace.svg" target="_top" title="IFormattable-diagram-simplified-grouped-per-namespace.svg" xlink:actuate="onRequest" xlink:href="IFormattable-diagram-simplified-grouped-per-namespace.svg" xlink:show="new" xlink:title="IFormattable-diagram-simplified-grouped-per-namespace.svg" xlink:type="simple"><g id="elem_IFormattable"><rect codeLine="8" fill="#F5FFFA" height="48" id="IFormattable" rx="2.5" ry="2.5" style="stroke:#181818;stroke-width:0.5;" width="119" x="1249" y="358.5547"/><ellipse cx="1264" cy="374.5547" fill="#ADD1B2" rx="11" ry="11" style="stroke:#181818;stroke-width:1.0;"/><path d="M1266.4731,380.6978 Q1265.8921,380.9966 1265.2529,381.146 Q1264.6138,381.2954 1263.9082,381.2954 Q1261.4014,381.2954 1260.0815,379.6436 Q1258.7617,377.9917 1258.7617,374.8706 Q1258.7617,371.7412 1260.0815,370.0894 Q1261.4014,368.4375 1263.9082,368.4375 Q1264.6138,368.4375 1265.2612,368.5869 Q1265.9087,368.7363 1266.4731,369.0352 L1266.4731,371.7578 Q1265.8423,371.1768 1265.2488,370.907 Q1264.6553,370.6372 1264.0244,370.6372 Q1262.6797,370.6372 1261.9949,371.7039 Q1261.3101,372.7705 1261.3101,374.8706 Q1261.3101,376.9624 1261.9949,378.0291 Q1262.6797,379.0957 1264.0244,379.0957 Q1264.6553,379.0957 1265.2488,378.8259 Q1265.8423,378.5562 1266.4731,377.9751 Z " fill="#000000"/><text fill="#000000" font-family="sans-serif" font-size="14" lengthAdjust="spacing" textLength="87" x="1278" y="379.8457">IFormattable</text><line style="stroke:#181818;stroke-width:0.5;" x1="1250" x2="1367" y1="390.5547" y2="390.5547"/><line style="stroke:#181818;stroke-width:0.5;" x1="1250" x2="1367" y1="398.5547" y2="398.5547"/></g></a><!--class IConvertible--><a href="IConvertible-diagram-simplified-grouped-per-namespace.svg" target="_top" title="IConvertible-diagram-simplified-grouped-per-namespace.svg" xlink:actuate="onRequest" xlink:href="IConvertible-diagram-simplified-grouped-per-namespace.svg" xlink:show="new" xlink:title="IConvertible-diagram-simplified-grouped-per-namespace.svg" xlink:type="simple"><g id="elem_IConvertible"><rect codeLine="10" fill="#F5FFFA" height="48" id="IConvertible" rx="2.5" ry="2.5" style="stroke:#181818;stroke-width:0.5;" width="115" x="1403" y="358.5547"/><ellipse cx="1418" cy="374.5547" fill="#ADD1B2" rx="11" ry="11" style="stroke:#181818;stroke-width:1.0;"/><path d="M1420.4731,380.6978 Q1419.8921,380.9966 1419.2529,381.146 Q1418.6138,381.2954 1417.9082,381.2954 Q1415.4014,381.2954 1414.0815,379.6436 Q1412.7617,377.9917 1412.7617,374.8706 Q1412.7617,371.7412 1414.0815,370.0894 Q1415.4014,368.4375 1417.9082,368.4375 Q1418.6138,368.4375 1419.2612,368.5869 Q1419.9087,368.7363 1420.4731,369.0352 L1420.4731,371.7578 Q1419.8423,371.1768 1419.2488,370.907 Q1418.6553,370.6372 1418.0244,370.6372 Q1416.6797,370.6372 1415.9949,371.7039 Q1415.3101,372.7705 1415.3101,374.8706 Q1415.3101,376.9624 1415.9949,378.0291 Q1416.6797,379.0957 1418.0244,379.0957 Q1418.6553,379.0957 1419.2488,378.8259 Q1419.8423,378.5562 1420.4731,377.9751 Z " fill="#000000"/><text fill="#000000" font-family="sans-serif" font-size="14" lengthAdjust="spacing" textLength="83" x="1432" y="379.8457">IConvertible</text><line style="stroke:#181818;stroke-width:0.5;" x1="1404" x2="1517" y1="390.5547" y2="390.5547"/><line style="stroke:#181818;stroke-width:0.5;" x1="1404" x2="1517" y1="398.5547" y2="398.5547"/></g></a><!--reverse link InnerClassBase to InnerClass--><g id="link_InnerClassBase_InnerClass"><path codeLine="36" d="M884.25,219.8247 C884.25,219.8247 884.25,358.1247 884.25,358.1247 " fill="none" id="InnerClassBase-backto-InnerClass" style="stroke:#FF0000;stroke-width:1.0;"/><polygon fill="none" points="877.25,219.8247,884.25,199.8247,891.25,219.8247,877.25,219.8247" style="stroke:#FF0000;stroke-width:1.0;"/></g><!--reverse link IMyTest to InnerClass--><g id="link_IMyTest_InnerClass"><path codeLine="37" d="M814.5,219.8247 C814.5,219.8247 814.5,358.1247 814.5,358.1247 " fill="none" id="IMyTest-backto-InnerClass" style="stroke:#FF0000;stroke-width:1.0;"/><polygon fill="none" points="807.5,219.8247,814.5,199.8247,821.5,219.8247,807.5,219.8247" style="stroke:#FF0000;stroke-width:1.0;"/></g><!--reverse link InnerClass to InnerClass_DOT_InnerTestUnusedInInnerClass--><g id="link_InnerClass_InnerClass_DOT_InnerTestUnusedInInnerClass"><path codeLine="38" d="M862.5,422.7947 C862.5,422.7947 862.5,466.3947 862.5,466.3947 " fill="none" id="InnerClass-backto-InnerClass_DOT_InnerTestUnusedInInnerClass" style="stroke:#10BBBB;stroke-width:1.0;"/><ellipse cx="862.5" cy="415.7947" fill="#FFFFFF" rx="8" ry="8" style="stroke:#10BBBB;stroke-width:1.0;"/><line style="stroke:#10BBBB;stroke-width:1.0;" x1="862.5" x2="862.5" y1="423.7947" y2="407.7947"/><line style="stroke:#10BBBB;stroke-width:1.0;" x1="854.5" x2="870.5" y1="415.7947" y2="415.7947"/></g><!--reverse link Enum to InnerClass_DOT_InnerTestUnusedInInnerClass--><g id="link_Enum_InnerClass_DOT_InnerTestUnusedInInnerClass"><path codeLine="39" d="M652.41,382.5547 C652.41,382.5547 711,382.5547 711,382.5547 C711,382.5547 711,434.4747 711,466.3147 " fill="none" id="Enum-backto-InnerClass_DOT_InnerTestUnusedInInnerClass" style="stroke:#FF0000;stroke-width:1.0;"/><polygon fill="none" points="652.41,389.5547,632.41,382.5547,652.41,375.5547,652.41,389.5547" style="stroke:#FF0000;stroke-width:1.0;"/></g><!--reverse link IComparable to InnerClass_DOT_InnerTestUnusedInInnerClass--><g id="link_IComparable_InnerClass_DOT_InnerTestUnusedInInnerClass"><path codeLine="40" d="M1072.21,382.5547 C1072.21,382.5547 1013.25,382.5547 1013.25,382.5547 C1013.25,382.5547 1013.25,434.4747 1013.25,466.3147 " fill="none" id="IComparable-backto-InnerClass_DOT_InnerTestUnusedInInnerClass" style="stroke:#FF0000;stroke-width:1.0;"/><polygon fill="none" points="1072.21,375.5547,1092.21,382.5547,1072.21,389.5547,1072.21,375.5547" style="stroke:#FF0000;stroke-width:1.0;"/></g><!--reverse link IFormattable to InnerClass_DOT_InnerTestUnusedInInnerClass--><g id="link_IFormattable_InnerClass_DOT_InnerTestUnusedInInnerClass"><path codeLine="41" d="M1308.5,428.0147 C1308.5,428.0147 1308.5,482.5547 1308.5,482.5547 C1308.5,482.5547 1162.69,482.5547 1037.81,482.5547 " fill="none" id="IFormattable-backto-InnerClass_DOT_InnerTestUnusedInInnerClass" style="stroke:#FF0000;stroke-width:1.0;"/><polygon fill="none" points="1301.5,428.0147,1308.5,408.0147,1315.5,428.0147,1301.5,428.0147" style="stroke:#FF0000;stroke-width:1.0;"/></g><!--reverse link IConvertible to InnerClass_DOT_InnerTestUnusedInInnerClass--><g id="link_IConvertible_InnerClass_DOT_InnerTestUnusedInInnerClass"><path codeLine="42" d="M1460.5,427.8747 C1460.5,427.8747 1460.5,498.5547 1460.5,498.5547 C1460.5,498.5547 1214.33,498.5547 1037.88,498.5547 " fill="none" id="IConvertible-backto-InnerClass_DOT_InnerTestUnusedInInnerClass" style="stroke:#FF0000;stroke-width:1.0;"/><polygon fill="none" points="1453.5,427.8747,1460.5,407.8747,1467.5,427.8747,1453.5,427.8747" style="stroke:#FF0000;stroke-width:1.0;"/></g><!--SRC=[nLRVRzem47xFNt5g7v0o9UlsM9LAAnqQ3x19wnucGCWa5x3gs97jjALT__UUmu_GhMeIVcW80Gvttts-k-ziSyjbnZHBGN29Tf4XA6tdohFS2eGBmn_n_FFPPNynO2cQZ4KONYixGFj3uvUOPHPrs9CITKSmOy3t3KypmHEEiUy3ap4zcccLPnX3XXha6iRtBpuwz4jFAejmyblb6fX6yc5YySZbx7maZn5s94UotUvoGHZjzaXIO8YOX4Zmw1QGspdPqqVfOs0abIO35wfu2WcjamA2Y3hhj0XAFxWUoPXhZ2p4cA6CKKOSJRWC-nE5-qUv82wu3_Mt6ADbN5HlaF860CDXJUGWvcn67H2iyOCLRa2umGOtD7UpyTWnxkP2mCgfKURNn182s4GjtQlYVbCfhY4uvVKXdDjKZCSdm0nqXMAMQZ6WPlAMbVegyvHCtLV3Q73Qvz9sDD86dxpd5LwlerAdbIa9OpZSMXq6lQjqognTmsyj3yLUtg6sV4D_izmJlmKTeOpJ0QF6o3JUSPMRYScdautdH71Zorw0WP88KunORj09QILxmmtGE-6Icpd6eLTwR7NpwzvkolxfRT1_95AXeEPX0TZKMCr8_ykIr1Je5JDONyxEkd515oY4kYyuFk_CSuUHioC_QZ_KILK1mrv_SOFKTbMybcPDIUsPhSdrzvj9iNJ1VqaIGjoJksGpV0TblqotbZEE9ld_aGpSqsaCj0yBT6wcAEdaJA1WTiIPKsANldzlvTNOUpCvP04jEWjhlU1ejewbwoQDWiv79GtWGz6jLDH4gxGaVqws3StVAxRNPBfT_0c6fzHduw2kVBnQoZyuRYdF3uJywUoANlN1ApNl5NUMvgohWBtjkyinuBSlByUXNrvU3e__0W00]--></g></svg>