<?xml version="1.0" encoding="us-ascii" standalone="no"?><svg xmlns="http://www.w3.org/2000/svg" xmlns:xlink="http://www.w3.org/1999/xlink" contentStyleType="text/css" height="577px" preserveAspectRatio="none" style="width:1537px;height:577px;background:#FFFFFF;" version="1.1" viewBox="0 0 1537 577" width="1537px" zoomAndPan="magnify"><defs/><g><text fill="#000000" font-family="sans-serif" font-size="20" font-weight="bold" lengthAdjust="spacing" textLength="453" x="339.25" y="29.3359">MyNamespace.DotNetPreAdapter.InnerClass</text><text fill="#000000" font-family="sans-serif" font-size="20" font-weight="bold" lengthAdjust="spacing" textLength="84" x="799.25" y="29.3359">detailed</text><text fill="#000000" font-family="sans-serif" font-size="20" font-weight="bold" lengthAdjust="spacing" textLength="38" x="890.25" y="29.3359">and</text><text fill="#000000" font-family="sans-serif" font-size="20" font-weight="bold" lengthAdjust="spacing" textLength="249" x="935.25" y="29.3359">grouped per namespace</text><!--cluster MyNamespace--><g id="cluster_MyNamespace"><a href="MyNamespace-diagram-detailed-grouped-per-namespace.svg" target="_top" title="MyNamespace-diagram-detailed-grouped-per-namespace.svg" xlink:actuate="onRequest" xlink:href="MyNamespace-diagram-detailed-grouped-per-namespace.svg" xlink:show="new" xlink:title="MyNamespace-diagram-detailed-grouped-per-namespace.svg" xlink:type="simple"><path d="M662.5,64.5547 L765.5,64.5547 A3.75,3.75 0 0 1 768,67.0547 L775,87.043 L1087.5,87.043 A2.5,2.5 0 0 1 1090,89.543 L1090,568.0547 A2.5,2.5 0 0 1 1087.5,570.5547 L662.5,570.5547 A2.5,2.5 0 0 1 660,568.0547 L660,67.0547 A2.5,2.5 0 0 1 662.5,64.5547 " fill="none" style="stroke:#000000;stroke-width:1.5;"/><line style="stroke:#000000;stroke-width:1.5;" x1="660" x2="775" y1="87.043" y2="87.043"/><text fill="#000000" font-family="sans-serif" font-size="14" font-weight="bold" lengthAdjust="spacing" textLength="102" x="664" y="80.0898">MyNamespace</text></a></g><!--cluster DotNetPreAdapter--><g id="cluster_DotNetPreAdapter"><a href="MyNamespace.DotNetPreAdapter-diagram-detailed-grouped-per-namespace.svg" target="_top" title="MyNamespace.DotNetPreAdapter-diagram-detailed-grouped-per-namespace.svg" xlink:actuate="onRequest" xlink:href="MyNamespace.DotNetPreAdapter-diagram-detailed-grouped-per-namespace.svg" xlink:show="new" xlink:title="MyNamespace.DotNetPreAdapter-diagram-detailed-grouped-per-namespace.svg" xlink:type="simple"><path d="M686.5,107.5547 L817.5,107.5547 A3.75,3.75 0 0 1 820,110.0547 L827,130.043 L1063.5,130.043 A2.5,2.5 0 0 1 1066,132.543 L1066,544.0547 A2.5,2.5 0 0 1 1063.5,546.5547 L686.5,546.5547 A2.5,2.5 0 0 1 684,544.0547 L684,110.0547 A2.5,2.5 0 0 1 686.5,107.5547 " fill="none" style="stroke:#000000;stroke-width:1.5;"/><line style="stroke:#000000;stroke-width:1.5;" x1="684" x2="827" y1="130.043" y2="130.043"/><text fill="#000000" font-family="sans-serif" font-size="14" font-weight="bold" lengthAdjust="spacing" textLength="130" x="688" y="123.0898">DotNetPreAdapter</text></a></g><!--class InnerClassBase--><a href="MyNamespace.DotNetPreAdapter.InnerClassBase-diagram-detailed-grouped-per-namespace.svg" target="_top" title="MyNamespace.DotNetPreAdapter.InnerClassBase-diagram-detailed-grouped-per-namespace.svg" xlink:actuate="onRequest" xlink:href="MyNamespace.DotNetPreAdapter.InnerClassBase-diagram-detailed-grouped-per-namespace.svg" xlink:show="new" xlink:title="MyNamespace.DotNetPreAdapter.InnerClassBase-diagram-detailed-grouped-per-namespace.svg" xlink:type="simple"><g id="elem_InnerClassBase"><rect codeLine="15" fill="#FFFF00" height="48" id="InnerClassBase" rx="2.5" ry="2.5" style="stroke:#181818;stroke-width:0.5;" width="135" x="868.5" y="150.5547"/><ellipse cx="883.5" cy="166.5547" fill="#A9DCDF" rx="11" ry="11" style="stroke:#181818;stroke-width:1.0;"/><path d="M883.3633,161.9028 L882.2095,166.9746 L884.5254,166.9746 Z M881.8691,159.6616 L884.8657,159.6616 L888.2109,172.0547 L885.7622,172.0547 L884.9985,168.9917 L881.7197,168.9917 L880.9727,172.0547 L878.5239,172.0547 Z " fill="#000000"/><text fill="#000000" font-family="sans-serif" font-size="14" font-style="italic" lengthAdjust="spacing" textLength="103" x="897.5" y="171.8457">InnerClassBase</text><line style="stroke:#181818;stroke-width:0.5;" x1="869.5" x2="1002.5" y1="182.5547" y2="182.5547"/><line style="stroke:#181818;stroke-width:0.5;" x1="869.5" x2="1002.5" y1="190.5547" y2="190.5547"/></g></a><!--class InnerClass--><a href="MyNamespace.DotNetPreAdapter.InnerClass-diagram-detailed-grouped-per-namespace.svg" target="_top" title="MyNamespace.DotNetPreAdapter.InnerClass-diagram-detailed-grouped-per-namespace.svg" xlink:actuate="onRequest" xlink:href="MyNamespace.DotNetPreAdapter.InnerClass-diagram-detailed-grouped-per-namespace.svg" xlink:show="new" xlink:title="MyNamespace.DotNetPreAdapter.InnerClass-diagram-detailed-grouped-per-namespace.svg" xlink:type="simple"><g id="elem_InnerClass"><rect codeLine="17" fill="#FFFF00" height="64.4883" id="InnerClass" rx="2.5" ry="2.5" style="stroke:#181818;stroke-width:0.5;" width="104" x="823" y="358.5547"/><ellipse cx="838" cy="374.5547" fill="#A9DCDF" rx="11" ry="11" style="stroke:#181818;stroke-width:1.0;"/><path d="M837.8633,369.9028 L836.7095,374.9746 L839.0254,374.9746 Z M836.3691,367.6616 L839.3657,367.6616 L842.7109,380.0547 L840.2622,380.0547 L839.4985,376.9917 L836.2197,376.9917 L835.4727,380.0547 L833.0239,380.0547 Z " fill="#000000"/><text fill="#000000" font-family="sans-serif" font-size="14" font-style="italic" lengthAdjust="spacing" textLength="72" x="852" y="379.8457">InnerClass</text><line style="stroke:#181818;stroke-width:0.5;" x1="824" x2="926" y1="390.5547" y2="390.5547"/><line style="stroke:#181818;stroke-width:0.5;" x1="824" x2="926" y1="398.5547" y2="398.5547"/><rect fill="#F24D5C" height="6" style="stroke:#C82930;stroke-width:1.0;" width="6" x="831" y="409.2988"/><text fill="#000000" font-family="sans-serif" font-size="14" lengthAdjust="spacing" textLength="56" x="843" y="416.0898">unused(</text><text fill="#000000" font-family="sans-serif" font-size="14" lengthAdjust="spacing" textLength="5" x="899" y="416.0898">)</text></g></a><!--class IMyTest--><a href="MyNamespace.DotNetPreAdapter.IMyTest-diagram-detailed-grouped-per-namespace.svg" target="_top" title="MyNamespace.DotNetPreAdapter.IMyTest-diagram-detailed-grouped-per-namespace.svg" xlink:actuate="onRequest" xlink:href="MyNamespace.DotNetPreAdapter.IMyTest-diagram-detailed-grouped-per-namespace.svg" xlink:show="new" xlink:title="MyNamespace.DotNetPreAdapter.IMyTest-diagram-detailed-grouped-per-namespace.svg" xlink:type="simple"><g id="elem_IMyTest"><rect codeLine="20" fill="#F1F1F1" height="64.4883" id="IMyTest" rx="2.5" ry="2.5" style="stroke:#181818;stroke-width:0.5;" width="87" x="746.5" y="142.5547"/><ellipse cx="762.85" cy="158.5547" fill="#B4A7E5" rx="11" ry="11" style="stroke:#181818;stroke-width:1.0;"/><path d="M759.2777,154.8198 L759.2777,152.6616 L766.6571,152.6616 L766.6571,154.8198 L764.1918,154.8198 L764.1918,162.8965 L766.6571,162.8965 L766.6571,165.0547 L759.2777,165.0547 L759.2777,162.8965 L761.7431,162.8965 L761.7431,154.8198 Z " fill="#000000"/><text fill="#000000" font-family="sans-serif" font-size="14" font-style="italic" lengthAdjust="spacing" textLength="52" x="777.15" y="163.8457">IMyTest</text><line style="stroke:#181818;stroke-width:0.5;" x1="747.5" x2="832.5" y1="174.5547" y2="174.5547"/><line style="stroke:#181818;stroke-width:0.5;" x1="747.5" x2="832.5" y1="182.5547" y2="182.5547"/><rect fill="#F24D5C" height="6" style="stroke:#C82930;stroke-width:1.0;" width="6" x="754.5" y="193.2988"/><text fill="#000000" font-family="sans-serif" font-size="14" lengthAdjust="spacing" textLength="56" x="766.5" y="200.0898">unused(</text><text fill="#000000" font-family="sans-serif" font-size="14" lengthAdjust="spacing" textLength="5" x="822.5" y="200.0898">)</text></g></a><!--class InnerClass_DOT_InnerTestUnusedInInnerClass--><a href="MyNamespace.DotNetPreAdapter.InnerClass.InnerTestUnusedInInnerClass-diagram-detailed-grouped-per-namespace.svg" target="_top" title="MyNamespace.DotNetPreAdapter.InnerClass.InnerTestUnusedInInnerClass-diagram-detailed-grouped-per-namespace.svg" xlink:actuate="onRequest" xlink:href="MyNamespace.DotNetPreAdapter.InnerClass.InnerTestUnusedInInnerClass-diagram-detailed-grouped-per-namespace.svg" xlink:show="new" xlink:title="MyNamespace.DotNetPreAdapter.InnerClass.InnerTestUnusedInInnerClass-diagram-detailed-grouped-per-namespace.svg" xlink:type="simple"><g id="elem_InnerClass_DOT_InnerTestUnusedInInnerClass"><rect codeLine="23" fill="#FFFF00" height="48" id="InnerClass_DOT_InnerTestUnusedInInnerClass" rx="2.5" ry="2.5" style="stroke:#181818;stroke-width:0.5;" width="350" x="700" y="482.5547"/><ellipse cx="715" cy="498.5547" fill="#A9DCDF" rx="11" ry="11" style="stroke:#181818;stroke-width:1.0;"/><path d="M714.8633,493.9028 L713.7095,498.9746 L716.0254,498.9746 Z M713.3691,491.6616 L716.3657,491.6616 L719.7109,504.0547 L717.2622,504.0547 L716.4985,500.9917 L713.2197,500.9917 L712.4727,504.0547 L710.0239,504.0547 Z " fill="#000000"/><text fill="#000000" font-family="sans-serif" font-size="14" font-style="italic" lengthAdjust="spacing" textLength="318" x="729" y="503.8457">InnerClass_DOT_InnerTestUnusedInInnerClass</text><line style="stroke:#181818;stroke-width:0.5;" x1="701" x2="1049" y1="514.5547" y2="514.5547"/><line style="stroke:#181818;stroke-width:0.5;" x1="701" x2="1049" y1="522.5547" y2="522.5547"/></g></a><g id="elem_FloatingNote"><path d="M6,50.5547 L6,298.2129 L644,298.2129 L644,60.5547 L634,50.5547 L6,50.5547 " fill="#FEFFDD" style="stroke:#181818;stroke-width:0.5;"/><path d="M634,50.5547 L634,60.5547 L644,60.5547 L634,50.5547 " fill="#FEFFDD" style="stroke:#181818;stroke-width:1.0;"/><text fill="#000000" font-family="sans-serif" font-size="13" lengthAdjust="spacing" textLength="120" x="12" y="68.123">Your are analyzing:</text><text fill="#000000" font-family="sans-serif" font-size="13" lengthAdjust="spacing" textLength="277" x="12" y="83.4336">MyNamespace.DotNetPreAdapter.InnerClass</text><text fill="#000000" font-family="sans-serif" font-size="13" font-weight="bold" lengthAdjust="spacing" textLength="55" x="293" y="83.4336">detailed</text><text fill="#000000" font-family="sans-serif" font-size="13" lengthAdjust="spacing" textLength="23" x="352" y="83.4336">and</text><text fill="#000000" font-family="sans-serif" font-size="13" font-weight="bold" lengthAdjust="spacing" textLength="166" x="379" y="83.4336">grouped per namespace</text><text fill="#000000" font-family="sans-serif" font-size="13" lengthAdjust="spacing" textLength="4" x="12" y="98.7441">&#160;</text><text fill="#000000" font-family="sans-serif" font-size="13" lengthAdjust="spacing" textLength="229" x="12" y="129.3652">You can click either the namespaces</text><text fill="#000000" font-family="sans-serif" font-size="13" lengthAdjust="spacing" textLength="266" x="12" y="144.6758">or class names for filtering them and their</text><text fill="#000000" font-family="sans-serif" font-size="13" lengthAdjust="spacing" textLength="130" x="12" y="159.9863">direct dependencies.</text><text fill="#000000" font-family="sans-serif" font-size="13" lengthAdjust="spacing" textLength="4" x="12" y="175.2969">&#160;</text><line style="stroke:#181818;stroke-width:1.0;" x1="7" x2="309" y1="109.1416" y2="109.1416"/><line style="stroke:#181818;stroke-width:1.0;" x1="7" x2="309" y1="111.1416" y2="111.1416"/><text fill="#000000" font-family="sans-serif" font-size="13" lengthAdjust="spacing" textLength="32" x="309" y="113.5547">Filter</text><line style="stroke:#181818;stroke-width:1.0;" x1="341" x2="643" y1="109.1416" y2="109.1416"/><line style="stroke:#181818;stroke-width:1.0;" x1="341" x2="643" y1="111.1416" y2="111.1416"/><ellipse cx="17.5" cy="205.1602" fill="#000000" rx="2.5" ry="2.5" style="stroke:#000000;stroke-width:0.0;"/><text fill="#000000" font-family="sans-serif" font-size="13" lengthAdjust="spacing" textLength="277" x="24" y="209.918">MyNamespace.DotNetPreAdapter.InnerClass</text><text fill="#000000" font-family="sans-serif" font-size="13" font-weight="bold" lengthAdjust="spacing" textLength="67" x="305" y="209.918">simplified</text><text fill="#000000" font-family="sans-serif" font-size="13" lengthAdjust="spacing" textLength="23" x="376" y="209.918">and</text><text fill="#000000" font-family="sans-serif" font-size="13" font-weight="bold" lengthAdjust="spacing" textLength="166" x="403" y="209.918">grouped per namespace</text><text fill="#000000" font-family="sans-serif" font-size="13" lengthAdjust="spacing" textLength="4" x="569" y="209.918">:</text><text fill="#000000" font-family="sans-serif" font-size="13" lengthAdjust="spacing" textLength="12" x="12" y="225.2285">&#160;&#160;&#160;</text><a href="MyNamespace.DotNetPreAdapter.InnerClass-diagram-simplified-grouped-per-namespace.svg" target="_top" title="MyNamespace.DotNetPreAdapter.InnerClass-diagram-simplified-grouped-per-namespace.svg" xlink:actuate="onRequest" xlink:href="MyNamespace.DotNetPreAdapter.InnerClass-diagram-simplified-grouped-per-namespace.svg" xlink:show="new" xlink:title="MyNamespace.DotNetPreAdapter.InnerClass-diagram-simplified-grouped-per-namespace.svg" xlink:type="simple"><text fill="#0000FF" font-family="sans-serif" font-size="13" lengthAdjust="spacing" text-decoration="underline" textLength="599" x="24" y="225.2285">MyNamespace.DotNetPreAdapter.InnerClass-diagram-simplified-grouped-per-namespace.svg</text></a><ellipse cx="17.5" cy="235.7813" fill="#000000" rx="2.5" ry="2.5" style="stroke:#000000;stroke-width:0.0;"/><text fill="#000000" font-family="sans-serif" font-size="13" lengthAdjust="spacing" textLength="78" x="24" y="240.5391">Full diagram</text><text fill="#000000" font-family="sans-serif" font-size="13" font-weight="bold" lengthAdjust="spacing" textLength="55" x="106" y="240.5391">detailed</text><text fill="#000000" font-family="sans-serif" font-size="13" lengthAdjust="spacing" textLength="23" x="165" y="240.5391">and</text><text fill="#000000" font-family="sans-serif" font-size="13" font-weight="bold" lengthAdjust="spacing" textLength="166" x="192" y="240.5391">grouped per namespace</text><text fill="#000000" font-family="sans-serif" font-size="13" lengthAdjust="spacing" textLength="4" x="358" y="240.5391">:</text><text fill="#000000" font-family="sans-serif" font-size="13" lengthAdjust="spacing" textLength="12" x="12" y="255.8496">&#160;&#160;&#160;</text><a href="full-diagram-detailed-grouped-per-namespace.svg" target="_top" title="full-diagram-detailed-grouped-per-namespace.svg" xlink:actuate="onRequest" xlink:href="full-diagram-detailed-grouped-per-namespace.svg" xlink:show="new" xlink:title="full-diagram-detailed-grouped-per-namespace.svg" xlink:type="simple"><text fill="#0000FF" font-family="sans-serif" font-size="13" lengthAdjust="spacing" text-decoration="underline" textLength="330" x="24" y="255.8496">full-diagram-detailed-grouped-per-namespace.svg</text></a><ellipse cx="17.5" cy="266.4023" fill="#000000" rx="2.5" ry="2.5" style="stroke:#000000;stroke-width:0.0;"/><text fill="#000000" font-family="sans-serif" font-size="13" lengthAdjust="spacing" textLength="41" x="24" y="271.1602">Home:</text><text fill="#000000" font-family="sans-serif" font-size="13" lengthAdjust="spacing" textLength="12" x="12" y="286.4707">&#160;&#160;&#160;</text><a href="index.html" target="_top" title="index.html" xlink:actuate="onRequest" xlink:href="index.html" xlink:show="new" xlink:title="index.html" xlink:type="simple"><text fill="#0000FF" font-family="sans-serif" font-size="13" lengthAdjust="spacing" text-decoration="underline" textLength="68" x="24" y="286.4707">index.html</text></a><line style="stroke:#181818;stroke-width:1.0;" x1="7" x2="288" y1="189.6943" y2="189.6943"/><line style="stroke:#181818;stroke-width:1.0;" x1="7" x2="288" y1="191.6943" y2="191.6943"/><text fill="#000000" font-family="sans-serif" font-size="13" lengthAdjust="spacing" textLength="74" x="288" y="194.1074">Select other</text><line style="stroke:#181818;stroke-width:1.0;" x1="362" x2="643" y1="189.6943" y2="189.6943"/><line style="stroke:#181818;stroke-width:1.0;" x1="362" x2="643" y1="191.6943" y2="191.6943"/></g><!--class Enum--><a href="Enum-diagram-detailed-grouped-per-namespace.svg" target="_top" title="Enum-diagram-detailed-grouped-per-namespace.svg" xlink:actuate="onRequest" xlink:href="Enum-diagram-detailed-grouped-per-namespace.svg" xlink:show="new" xlink:title="Enum-diagram-detailed-grouped-per-namespace.svg" xlink:type="simple"><g id="elem_Enum"><rect codeLine="4" fill="#F5FFFA" height="48" id="Enum" rx="2.5" ry="2.5" style="stroke:#181818;stroke-width:0.5;" width="71" x="572.5" y="366.5547"/><ellipse cx="587.5" cy="382.5547" fill="#ADD1B2" rx="11" ry="11" style="stroke:#181818;stroke-width:1.0;"/><path d="M589.9731,388.6978 Q589.3921,388.9966 588.7529,389.146 Q588.1138,389.2954 587.4082,389.2954 Q584.9014,389.2954 583.5815,387.6436 Q582.2617,385.9917 582.2617,382.8706 Q582.2617,379.7412 583.5815,378.0894 Q584.9014,376.4375 587.4082,376.4375 Q588.1138,376.4375 588.7612,376.5869 Q589.4087,376.7363 589.9731,377.0352 L589.9731,379.7578 Q589.3423,379.1768 588.7488,378.907 Q588.1553,378.6372 587.5244,378.6372 Q586.1797,378.6372 585.4949,379.7039 Q584.8101,380.7705 584.8101,382.8706 Q584.8101,384.9624 585.4949,386.0291 Q586.1797,387.0957 587.5244,387.0957 Q588.1553,387.0957 588.7488,386.8259 Q589.3423,386.5562 589.9731,385.9751 Z " fill="#000000"/><text fill="#000000" font-family="sans-serif" font-size="14" lengthAdjust="spacing" textLength="39" x="601.5" y="387.8457">Enum</text><line style="stroke:#181818;stroke-width:0.5;" x1="573.5" x2="642.5" y1="398.5547" y2="398.5547"/><line style="stroke:#181818;stroke-width:0.5;" x1="573.5" x2="642.5" y1="406.5547" y2="406.5547"/></g></a><!--class IComparable--><a href="IComparable-diagram-detailed-grouped-per-namespace.svg" target="_top" title="IComparable-diagram-detailed-grouped-per-namespace.svg" xlink:actuate="onRequest" xlink:href="IComparable-diagram-detailed-grouped-per-namespace.svg" xlink:show="new" xlink:title="IComparable-diagram-detailed-grouped-per-namespace.svg" xlink:type="simple"><g id="elem_IComparable"><rect codeLine="6" fill="#F5FFFA" height="48" id="IComparable" rx="2.5" ry="2.5" style="stroke:#181818;stroke-width:0.5;" width="120" x="1106" y="366.5547"/><ellipse cx="1121" cy="382.5547" fill="#ADD1B2" rx="11" ry="11" style="stroke:#181818;stroke-width:1.0;"/><path d="M1123.4731,388.6978 Q1122.8921,388.9966 1122.2529,389.146 Q1121.6138,389.2954 1120.9082,389.2954 Q1118.4014,389.2954 1117.0815,387.6436 Q1115.7617,385.9917 1115.7617,382.8706 Q1115.7617,379.7412 1117.0815,378.0894 Q1118.4014,376.4375 1120.9082,376.4375 Q1121.6138,376.4375 1122.2612,376.5869 Q1122.9087,376.7363 1123.4731,377.0352 L1123.4731,379.7578 Q1122.8423,379.1768 1122.2488,378.907 Q1121.6553,378.6372 1121.0244,378.6372 Q1119.6797,378.6372 1118.9949,379.7039 Q1118.3101,380.7705 1118.3101,382.8706 Q1118.3101,384.9624 1118.9949,386.0291 Q1119.6797,387.0957 1121.0244,387.0957 Q1121.6553,387.0957 1122.2488,386.8259 Q1122.8423,386.5562 1123.4731,385.9751 Z " fill="#000000"/><text fill="#000000" font-family="sans-serif" font-size="14" lengthAdjust="spacing" textLength="88" x="1135" y="387.8457">IComparable</text><line style="stroke:#181818;stroke-width:0.5;" x1="1107" x2="1225" y1="398.5547" y2="398.5547"/><line style="stroke:#181818;stroke-width:0.5;" x1="1107" x2="1225" y1="406.5547" y2="406.5547"/></g></a><!--class IFormattable--><a href="IFormattable-diagram-detailed-grouped-per-namespace.svg" target="_top" title="IFormattable-diagram-detailed-grouped-per-namespace.svg" xlink:actuate="onRequest" xlink:href="IFormattable-diagram-detailed-grouped-per-namespace.svg" xlink:show="new" xlink:title="IFormattable-diagram-detailed-grouped-per-namespace.svg" xlink:type="simple"><g id="elem_IFormattable"><rect codeLine="8" fill="#F5FFFA" height="48" id="IFormattable" rx="2.5" ry="2.5" style="stroke:#181818;stroke-width:0.5;" width="119" x="1261.5" y="366.5547"/><ellipse cx="1276.5" cy="382.5547" fill="#ADD1B2" rx="11" ry="11" style="stroke:#181818;stroke-width:1.0;"/><path d="M1278.9731,388.6978 Q1278.3921,388.9966 1277.7529,389.146 Q1277.1138,389.2954 1276.4082,389.2954 Q1273.9014,389.2954 1272.5815,387.6436 Q1271.2617,385.9917 1271.2617,382.8706 Q1271.2617,379.7412 1272.5815,378.0894 Q1273.9014,376.4375 1276.4082,376.4375 Q1277.1138,376.4375 1277.7612,376.5869 Q1278.4087,376.7363 1278.9731,377.0352 L1278.9731,379.7578 Q1278.3423,379.1768 1277.7488,378.907 Q1277.1553,378.6372 1276.5244,378.6372 Q1275.1797,378.6372 1274.4949,379.7039 Q1273.8101,380.7705 1273.8101,382.8706 Q1273.8101,384.9624 1274.4949,386.0291 Q1275.1797,387.0957 1276.5244,387.0957 Q1277.1553,387.0957 1277.7488,386.8259 Q1278.3423,386.5562 1278.9731,385.9751 Z " fill="#000000"/><text fill="#000000" font-family="sans-serif" font-size="14" lengthAdjust="spacing" textLength="87" x="1290.5" y="387.8457">IFormattable</text><line style="stroke:#181818;stroke-width:0.5;" x1="1262.5" x2="1379.5" y1="398.5547" y2="398.5547"/><line style="stroke:#181818;stroke-width:0.5;" x1="1262.5" x2="1379.5" y1="406.5547" y2="406.5547"/></g></a><!--class IConvertible--><a href="IConvertible-diagram-detailed-grouped-per-namespace.svg" target="_top" title="IConvertible-diagram-detailed-grouped-per-namespace.svg" xlink:actuate="onRequest" xlink:href="IConvertible-diagram-detailed-grouped-per-namespace.svg" xlink:show="new" xlink:title="IConvertible-diagram-detailed-grouped-per-namespace.svg" xlink:type="simple"><g id="elem_IConvertible"><rect codeLine="10" fill="#F5FFFA" height="48" id="IConvertible" rx="2.5" ry="2.5" style="stroke:#181818;stroke-width:0.5;" width="115" x="1415.5" y="366.5547"/><ellipse cx="1430.5" cy="382.5547" fill="#ADD1B2" rx="11" ry="11" style="stroke:#181818;stroke-width:1.0;"/><path d="M1432.9731,388.6978 Q1432.3921,388.9966 1431.7529,389.146 Q1431.1138,389.2954 1430.4082,389.2954 Q1427.9014,389.2954 1426.5815,387.6436 Q1425.2617,385.9917 1425.2617,382.8706 Q1425.2617,379.7412 1426.5815,378.0894 Q1427.9014,376.4375 1430.4082,376.4375 Q1431.1138,376.4375 1431.7612,376.5869 Q1432.4087,376.7363 1432.9731,377.0352 L1432.9731,379.7578 Q1432.3423,379.1768 1431.7488,378.907 Q1431.1553,378.6372 1430.5244,378.6372 Q1429.1797,378.6372 1428.4949,379.7039 Q1427.8101,380.7705 1427.8101,382.8706 Q1427.8101,384.9624 1428.4949,386.0291 Q1429.1797,387.0957 1430.5244,387.0957 Q1431.1553,387.0957 1431.7488,386.8259 Q1432.3423,386.5562 1432.9731,385.9751 Z " fill="#000000"/><text fill="#000000" font-family="sans-serif" font-size="14" lengthAdjust="spacing" textLength="83" x="1444.5" y="387.8457">IConvertible</text><line style="stroke:#181818;stroke-width:0.5;" x1="1416.5" x2="1529.5" y1="398.5547" y2="398.5547"/><line style="stroke:#181818;stroke-width:0.5;" x1="1416.5" x2="1529.5" y1="406.5547" y2="406.5547"/></g></a><!--reverse link InnerClassBase to InnerClass--><g id="link_InnerClassBase_InnerClass"><path codeLine="38" d="M897.75,219.9147 C897.75,219.9147 897.75,358.2247 897.75,358.2247 " fill="none" id="InnerClassBase-backto-InnerClass" style="stroke:#FF0000;stroke-width:1.0;"/><polygon fill="none" points="890.75,219.9147,897.75,199.9147,904.75,219.9147,890.75,219.9147" style="stroke:#FF0000;stroke-width:1.0;"/></g><!--reverse link IMyTest to InnerClass--><g id="link_IMyTest_InnerClass"><path codeLine="39" d="M828.25,227.8947 C828.25,227.8947 828.25,358.3447 828.25,358.3447 " fill="none" id="IMyTest-backto-InnerClass" style="stroke:#FF0000;stroke-width:1.0;"/><polygon fill="none" points="821.25,227.8947,828.25,207.8947,835.25,227.8947,821.25,227.8947" style="stroke:#FF0000;stroke-width:1.0;"/></g><!--reverse link InnerClass to InnerClass_DOT_InnerTestUnusedInInnerClass--><g id="link_InnerClass_InnerClass_DOT_InnerTestUnusedInInnerClass"><path codeLine="40" d="M875,438.8647 C875,438.8647 875,482.1447 875,482.1447 " fill="none" id="InnerClass-backto-InnerClass_DOT_InnerTestUnusedInInnerClass" style="stroke:#10BBBB;stroke-width:1.0;"/><ellipse cx="875" cy="431.8647" fill="#FFFFFF" rx="8" ry="8" style="stroke:#10BBBB;stroke-width:1.0;"/><line style="stroke:#10BBBB;stroke-width:1.0;" x1="875" x2="875" y1="439.8647" y2="423.8647"/><line style="stroke:#10BBBB;stroke-width:1.0;" x1="867" x2="883" y1="431.8647" y2="431.8647"/></g><!--reverse link Enum to InnerClass_DOT_InnerTestUnusedInInnerClass--><g id="link_Enum_InnerClass_DOT_InnerTestUnusedInInnerClass"><path codeLine="41" d="M664.83,390.5547 C664.83,390.5547 723.25,390.5547 723.25,390.5547 C723.25,390.5547 723.25,448.2247 723.25,482.2347 " fill="none" id="Enum-backto-InnerClass_DOT_InnerTestUnusedInInnerClass" style="stroke:#FF0000;stroke-width:1.0;"/><polygon fill="none" points="664.83,397.5547,644.83,390.5547,664.83,383.5547,664.83,397.5547" style="stroke:#FF0000;stroke-width:1.0;"/></g><!--reverse link IComparable to InnerClass_DOT_InnerTestUnusedInInnerClass--><g id="link_IComparable_InnerClass_DOT_InnerTestUnusedInInnerClass"><path codeLine="42" d="M1084.73,390.5547 C1084.73,390.5547 1026.75,390.5547 1026.75,390.5547 C1026.75,390.5547 1026.75,448.2247 1026.75,482.2347 " fill="none" id="IComparable-backto-InnerClass_DOT_InnerTestUnusedInInnerClass" style="stroke:#FF0000;stroke-width:1.0;"/><polygon fill="none" points="1084.73,383.5547,1104.73,390.5547,1084.73,397.5547,1084.73,383.5547" style="stroke:#FF0000;stroke-width:1.0;"/></g><!--reverse link IFormattable to InnerClass_DOT_InnerTestUnusedInInnerClass--><g id="link_IFormattable_InnerClass_DOT_InnerTestUnusedInInnerClass"><path codeLine="43" d="M1321,435.7947 C1321,435.7947 1321,498.5547 1321,498.5547 C1321,498.5547 1175.19,498.5547 1050.31,498.5547 " fill="none" id="IFormattable-backto-InnerClass_DOT_InnerTestUnusedInInnerClass" style="stroke:#FF0000;stroke-width:1.0;"/><polygon fill="none" points="1314,435.7947,1321,415.7947,1328,435.7947,1314,435.7947" style="stroke:#FF0000;stroke-width:1.0;"/></g><!--reverse link IConvertible to InnerClass_DOT_InnerTestUnusedInInnerClass--><g id="link_IConvertible_InnerClass_DOT_InnerTestUnusedInInnerClass"><path codeLine="44" d="M1473,436.0547 C1473,436.0547 1473,514.5547 1473,514.5547 C1473,514.5547 1226.83,514.5547 1050.38,514.5547 " fill="none" id="IConvertible-backto-InnerClass_DOT_InnerTestUnusedInInnerClass" style="stroke:#FF0000;stroke-width:1.0;"/><polygon fill="none" points="1466,436.0547,1473,416.0547,1480,436.0547,1466,436.0547" style="stroke:#FF0000;stroke-width:1.0;"/></g><!--SRC=[nLRVRzem47xFNt6Y3zqo9Utsq0S4I8CEZOUoIUiU9a38a0jOTUp8TjhIhl_xpk57w5QLX8A64E1mzzrtlk_EDZTSfaop10INQ1SfWj9shZpBhK1e6Fw0zK_dhQj5doLeKZR5y5BPFjhl6Zz7BBMemvwKg3k26GE-7w5bN63a-y1aH0zcMcKfHf2Y1ha6yVt6cSDkUL9PXDelbMbW6ic7YSK3bxFwK1u-w50EPRFPvO8GcisXfB0mPHAcWazl0BcTaprz53u6Xb9fCd21ygSGqphE8OYciqxoeFI3ww6CkCQfXGXJb17AAKSJBiF-GE7-KIw82-v3-GGDJrB1OxuxHTet01WCIc874MSpgdzGH0XMo04X1nlaqDpEHYF7kfi90Ikt2dk_9XQJ-oRgsdbNpAygmJK0ftsz3-Ss4QDH3PY1hb3CKYtw92LlMQalCal8r7rLYWKdLrpQZaPAxT5xMg7rEYfnNJAXbXWCjbQ7mEugdJ1hr-1RoyCmbxUeBTzGtopVX7uA7Q6CqpyZCQGQRxdApDXaa_76SoouiOK2eAyamWIdB3Fe6cZLx8ORe7VC9JTpZ4AlyDZIy7D5L-F- -3BaFssneskg1WLW4sCrevvV5gDaIxQPmV8DxAmhbdA1GgYxdE7JtYpt636LsG44a4cII_Ik4Ij939LGkbcxEByuRxThhSQPUzfwlqg458ewtbNbi7Urk4PIvgu4bcRLsEz3Ux_z7rz-knxdIyVoPnwk9_UfJ_WAobkKTRgSatGI_8_sWpiwpO5oi43dRe9K1XL3pkk8iwl0Bdp_JkJP-7nnQyW2JkaaBVM2ezawbav96WMThqeQmFjSgLJIMAka85ydsuhchvNQgp8f6x-3mGcfR1IKRHslr7WuE6xHcXy8-IEDWdQxFFZEVlVoEqzrrhk0lUtRpp7Wjoz0nw5VN84EZ_y7]--></g></svg>