<?xml version="1.0" encoding="us-ascii" standalone="no"?><svg xmlns="http://www.w3.org/2000/svg" xmlns:xlink="http://www.w3.org/1999/xlink" contentStyleType="text/css" height="369px" preserveAspectRatio="none" style="width:1329px;height:369px;background:#FFFFFF;" version="1.1" viewBox="0 0 1329 369" width="1329px" zoomAndPan="magnify"><defs/><g><text fill="#000000" font-family="sans-serif" font-size="20" font-weight="bold" lengthAdjust="spacing" textLength="889" x="10" y="29.3359">MyNamespace.DotNetPreAdapter.DotNetPreAdapter.RecursiveFileProcessor.InnerClass</text><text fill="#000000" font-family="sans-serif" font-size="20" font-weight="bold" lengthAdjust="spacing" textLength="104" x="906" y="29.3359">simplified</text><text fill="#000000" font-family="sans-serif" font-size="20" font-weight="bold" lengthAdjust="spacing" textLength="38" x="1017" y="29.3359">and</text><text fill="#000000" font-family="sans-serif" font-size="20" font-weight="bold" lengthAdjust="spacing" textLength="249" x="1062" y="29.3359">grouped per namespace</text><!--cluster MyNamespace--><g id="cluster_MyNamespace"><a href="MyNamespace-diagram-simplified-grouped-per-namespace.svg" target="_top" title="MyNamespace-diagram-simplified-grouped-per-namespace.svg" xlink:actuate="onRequest" xlink:href="MyNamespace-diagram-simplified-grouped-per-namespace.svg" xlink:show="new" xlink:title="MyNamespace-diagram-simplified-grouped-per-namespace.svg" xlink:type="simple"><path d="M959.75,50.5547 L1062.75,50.5547 A3.75,3.75 0 0 1 1065.25,53.0547 L1072.25,73.043 L1279.75,73.043 A2.5,2.5 0 0 1 1282.25,75.543 L1282.25,348.0547 A2.5,2.5 0 0 1 1279.75,350.5547 L959.75,350.5547 A2.5,2.5 0 0 1 957.25,348.0547 L957.25,53.0547 A2.5,2.5 0 0 1 959.75,50.5547 " fill="none" style="stroke:#000000;stroke-width:1.5;"/><line style="stroke:#000000;stroke-width:1.5;" x1="957.25" x2="1072.25" y1="73.043" y2="73.043"/><text fill="#000000" font-family="sans-serif" font-size="14" font-weight="bold" lengthAdjust="spacing" textLength="102" x="961.25" y="66.0898">MyNamespace</text></a></g><!--cluster DotNetPreAdapter--><g id="cluster_DotNetPreAdapter"><a href="MyNamespace.DotNetPreAdapter-diagram-simplified-grouped-per-namespace.svg" target="_top" title="MyNamespace.DotNetPreAdapter-diagram-simplified-grouped-per-namespace.svg" xlink:actuate="onRequest" xlink:href="MyNamespace.DotNetPreAdapter-diagram-simplified-grouped-per-namespace.svg" xlink:show="new" xlink:title="MyNamespace.DotNetPreAdapter-diagram-simplified-grouped-per-namespace.svg" xlink:type="simple"><path d="M983.75,93.5547 L1114.75,93.5547 A3.75,3.75 0 0 1 1117.25,96.0547 L1124.25,116.043 L1255.75,116.043 A2.5,2.5 0 0 1 1258.25,118.543 L1258.25,324.0547 A2.5,2.5 0 0 1 1255.75,326.5547 L983.75,326.5547 A2.5,2.5 0 0 1 981.25,324.0547 L981.25,96.0547 A2.5,2.5 0 0 1 983.75,93.5547 " fill="none" style="stroke:#000000;stroke-width:1.5;"/><line style="stroke:#000000;stroke-width:1.5;" x1="981.25" x2="1124.25" y1="116.043" y2="116.043"/><text fill="#000000" font-family="sans-serif" font-size="14" font-weight="bold" lengthAdjust="spacing" textLength="130" x="985.25" y="109.0898">DotNetPreAdapter</text></a></g><!--cluster DotNetPreAdapter--><g id="cluster_DotNetPreAdapter"><a href="MyNamespace.DotNetPreAdapter.DotNetPreAdapter-diagram-simplified-grouped-per-namespace.svg" target="_top" title="MyNamespace.DotNetPreAdapter.DotNetPreAdapter-diagram-simplified-grouped-per-namespace.svg" xlink:actuate="onRequest" xlink:href="MyNamespace.DotNetPreAdapter.DotNetPreAdapter-diagram-simplified-grouped-per-namespace.svg" xlink:show="new" xlink:title="MyNamespace.DotNetPreAdapter.DotNetPreAdapter-diagram-simplified-grouped-per-namespace.svg" xlink:type="simple"><path d="M1007.75,136.5547 L1138.75,136.5547 A3.75,3.75 0 0 1 1141.25,139.0547 L1148.25,159.043 L1231.75,159.043 A2.5,2.5 0 0 1 1234.25,161.543 L1234.25,300.0547 A2.5,2.5 0 0 1 1231.75,302.5547 L1007.75,302.5547 A2.5,2.5 0 0 1 1005.25,300.0547 L1005.25,139.0547 A2.5,2.5 0 0 1 1007.75,136.5547 " fill="none" style="stroke:#000000;stroke-width:1.5;"/><line style="stroke:#000000;stroke-width:1.5;" x1="1005.25" x2="1148.25" y1="159.043" y2="159.043"/><text fill="#000000" font-family="sans-serif" font-size="14" font-weight="bold" lengthAdjust="spacing" textLength="130" x="1009.25" y="152.0898">DotNetPreAdapter</text></a></g><!--cluster RecursiveFileProcessor--><g id="cluster_RecursiveFileProcessor"><a href="MyNamespace.DotNetPreAdapter.DotNetPreAdapter.RecursiveFileProcessor-diagram-simplified-grouped-per-namespace.svg" target="_top" title="MyNamespace.DotNetPreAdapter.DotNetPreAdapter.RecursiveFileProcessor-diagram-simplified-grouped-per-namespace.svg" xlink:actuate="onRequest" xlink:href="MyNamespace.DotNetPreAdapter.DotNetPreAdapter.RecursiveFileProcessor-diagram-simplified-grouped-per-namespace.svg" xlink:show="new" xlink:title="MyNamespace.DotNetPreAdapter.DotNetPreAdapter.RecursiveFileProcessor-diagram-simplified-grouped-per-namespace.svg" xlink:type="simple"><path d="M1031.75,179.5547 L1197.75,179.5547 A3.75,3.75 0 0 1 1200.25,182.0547 L1207.25,202.043 L1207.75,202.043 A2.5,2.5 0 0 1 1210.25,204.543 L1210.25,276.0547 A2.5,2.5 0 0 1 1207.75,278.5547 L1031.75,278.5547 A2.5,2.5 0 0 1 1029.25,276.0547 L1029.25,182.0547 A2.5,2.5 0 0 1 1031.75,179.5547 " fill="none" style="stroke:#000000;stroke-width:1.5;"/><line style="stroke:#000000;stroke-width:1.5;" x1="1029.25" x2="1207.25" y1="202.043" y2="202.043"/><text fill="#000000" font-family="sans-serif" font-size="14" font-weight="bold" lengthAdjust="spacing" textLength="165" x="1033.25" y="195.0898">RecursiveFileProcessor</text></a></g><!--class InnerClass--><a href="MyNamespace.DotNetPreAdapter.DotNetPreAdapter.RecursiveFileProcessor.InnerClass-diagram-simplified-grouped-per-namespace.svg" target="_top" title="MyNamespace.DotNetPreAdapter.DotNetPreAdapter.RecursiveFileProcessor.InnerClass-diagram-simplified-grouped-per-namespace.svg" xlink:actuate="onRequest" xlink:href="MyNamespace.DotNetPreAdapter.DotNetPreAdapter.RecursiveFileProcessor.InnerClass-diagram-simplified-grouped-per-namespace.svg" xlink:show="new" xlink:title="MyNamespace.DotNetPreAdapter.DotNetPreAdapter.RecursiveFileProcessor.InnerClass-diagram-simplified-grouped-per-namespace.svg" xlink:type="simple"><g id="elem_InnerClass"><rect codeLine="8" fill="#FFFF00" height="48" id="InnerClass" rx="2.5" ry="2.5" style="stroke:#181818;stroke-width:0.5;" width="104" x="1067.25" y="214.5547"/><ellipse cx="1082.25" cy="230.5547" fill="#A9DCDF" rx="11" ry="11" style="stroke:#181818;stroke-width:1.0;"/><path d="M1082.1133,225.9028 L1080.9595,230.9746 L1083.2754,230.9746 Z M1080.6191,223.6616 L1083.6157,223.6616 L1086.9609,236.0547 L1084.5122,236.0547 L1083.7485,232.9917 L1080.4697,232.9917 L1079.7227,236.0547 L1077.2739,236.0547 Z " fill="#000000"/><text fill="#000000" font-family="sans-serif" font-size="14" font-style="italic" lengthAdjust="spacing" textLength="72" x="1096.25" y="235.8457">InnerClass</text><line style="stroke:#181818;stroke-width:0.5;" x1="1068.25" x2="1170.25" y1="246.5547" y2="246.5547"/><line style="stroke:#181818;stroke-width:0.5;" x1="1068.25" x2="1170.25" y1="254.5547" y2="254.5547"/></g></a><g id="elem_FloatingNote"><path d="M51.75,114.5547 L51.75,362.2129 L940.75,362.2129 L940.75,124.5547 L930.75,114.5547 L51.75,114.5547 " fill="#FEFFDD" style="stroke:#181818;stroke-width:0.5;"/><path d="M930.75,114.5547 L930.75,124.5547 L940.75,124.5547 L930.75,114.5547 " fill="#FEFFDD" style="stroke:#181818;stroke-width:1.0;"/><text fill="#000000" font-family="sans-serif" font-size="13" lengthAdjust="spacing" textLength="120" x="57.75" y="132.123">Your are analyzing:</text><text fill="#000000" font-family="sans-serif" font-size="13" lengthAdjust="spacing" textLength="541" x="57.75" y="147.4336">MyNamespace.DotNetPreAdapter.DotNetPreAdapter.RecursiveFileProcessor.InnerClass</text><text fill="#000000" font-family="sans-serif" font-size="13" font-weight="bold" lengthAdjust="spacing" textLength="67" x="602.75" y="147.4336">simplified</text><text fill="#000000" font-family="sans-serif" font-size="13" lengthAdjust="spacing" textLength="23" x="673.75" y="147.4336">and</text><text fill="#000000" font-family="sans-serif" font-size="13" font-weight="bold" lengthAdjust="spacing" textLength="166" x="700.75" y="147.4336">grouped per namespace</text><text fill="#000000" font-family="sans-serif" font-size="13" lengthAdjust="spacing" textLength="4" x="57.75" y="162.7441">&#160;</text><text fill="#000000" font-family="sans-serif" font-size="13" lengthAdjust="spacing" textLength="229" x="57.75" y="193.3652">You can click either the namespaces</text><text fill="#000000" font-family="sans-serif" font-size="13" lengthAdjust="spacing" textLength="266" x="57.75" y="208.6758">or class names for filtering them and their</text><text fill="#000000" font-family="sans-serif" font-size="13" lengthAdjust="spacing" textLength="130" x="57.75" y="223.9863">direct dependencies.</text><text fill="#000000" font-family="sans-serif" font-size="13" lengthAdjust="spacing" textLength="4" x="57.75" y="239.2969">&#160;</text><line style="stroke:#181818;stroke-width:1.0;" x1="52.75" x2="480.25" y1="173.1416" y2="173.1416"/><line style="stroke:#181818;stroke-width:1.0;" x1="52.75" x2="480.25" y1="175.1416" y2="175.1416"/><text fill="#000000" font-family="sans-serif" font-size="13" lengthAdjust="spacing" textLength="32" x="480.25" y="177.5547">Filter</text><line style="stroke:#181818;stroke-width:1.0;" x1="512.25" x2="939.75" y1="173.1416" y2="173.1416"/><line style="stroke:#181818;stroke-width:1.0;" x1="512.25" x2="939.75" y1="175.1416" y2="175.1416"/><ellipse cx="63.25" cy="269.1602" fill="#000000" rx="2.5" ry="2.5" style="stroke:#000000;stroke-width:0.0;"/><text fill="#000000" font-family="sans-serif" font-size="13" lengthAdjust="spacing" textLength="541" x="69.75" y="273.918">MyNamespace.DotNetPreAdapter.DotNetPreAdapter.RecursiveFileProcessor.InnerClass</text><text fill="#000000" font-family="sans-serif" font-size="13" font-weight="bold" lengthAdjust="spacing" textLength="55" x="614.75" y="273.918">detailed</text><text fill="#000000" font-family="sans-serif" font-size="13" lengthAdjust="spacing" textLength="23" x="673.75" y="273.918">and</text><text fill="#000000" font-family="sans-serif" font-size="13" font-weight="bold" lengthAdjust="spacing" textLength="166" x="700.75" y="273.918">grouped per namespace</text><text fill="#000000" font-family="sans-serif" font-size="13" lengthAdjust="spacing" textLength="4" x="866.75" y="273.918">:</text><text fill="#000000" font-family="sans-serif" font-size="13" lengthAdjust="spacing" textLength="12" x="57.75" y="289.2285">&#160;&#160;&#160;</text><a href="MyNamespace.DotNetPreAdapter.DotNetPreAdapter.RecursiveFileProcessor.InnerClass-diagram-detailed-grouped-per-namespace.svg" target="_top" title="MyNamespace.DotNetPreAdapter.DotNetPreAdapter.RecursiveFileProcessor.InnerClass-diagram-detailed-grouped-per-namespace.svg" xlink:actuate="onRequest" xlink:href="MyNamespace.DotNetPreAdapter.DotNetPreAdapter.RecursiveFileProcessor.InnerClass-diagram-detailed-grouped-per-namespace.svg" xlink:show="new" xlink:title="MyNamespace.DotNetPreAdapter.DotNetPreAdapter.RecursiveFileProcessor.InnerClass-diagram-detailed-grouped-per-namespace.svg" xlink:type="simple"><text fill="#0000FF" font-family="sans-serif" font-size="13" lengthAdjust="spacing" text-decoration="underline" textLength="850" x="69.75" y="289.2285">MyNamespace.DotNetPreAdapter.DotNetPreAdapter.RecursiveFileProcessor.InnerClass-diagram-detailed-grouped-per-namespace.svg</text></a><ellipse cx="63.25" cy="299.7813" fill="#000000" rx="2.5" ry="2.5" style="stroke:#000000;stroke-width:0.0;"/><text fill="#000000" font-family="sans-serif" font-size="13" lengthAdjust="spacing" textLength="78" x="69.75" y="304.5391">Full diagram</text><text fill="#000000" font-family="sans-serif" font-size="13" font-weight="bold" lengthAdjust="spacing" textLength="67" x="151.75" y="304.5391">simplified</text><text fill="#000000" font-family="sans-serif" font-size="13" lengthAdjust="spacing" textLength="23" x="222.75" y="304.5391">and</text><text fill="#000000" font-family="sans-serif" font-size="13" font-weight="bold" lengthAdjust="spacing" textLength="166" x="249.75" y="304.5391">grouped per namespace</text><text fill="#000000" font-family="sans-serif" font-size="13" lengthAdjust="spacing" textLength="4" x="415.75" y="304.5391">:</text><text fill="#000000" font-family="sans-serif" font-size="13" lengthAdjust="spacing" textLength="12" x="57.75" y="319.8496">&#160;&#160;&#160;</text><a href="full-diagram-simplified-grouped-per-namespace.svg" target="_top" title="full-diagram-simplified-grouped-per-namespace.svg" xlink:actuate="onRequest" xlink:href="full-diagram-simplified-grouped-per-namespace.svg" xlink:show="new" xlink:title="full-diagram-simplified-grouped-per-namespace.svg" xlink:type="simple"><text fill="#0000FF" font-family="sans-serif" font-size="13" lengthAdjust="spacing" text-decoration="underline" textLength="343" x="69.75" y="319.8496">full-diagram-simplified-grouped-per-namespace.svg</text></a><ellipse cx="63.25" cy="330.4023" fill="#000000" rx="2.5" ry="2.5" style="stroke:#000000;stroke-width:0.0;"/><text fill="#000000" font-family="sans-serif" font-size="13" lengthAdjust="spacing" textLength="41" x="69.75" y="335.1602">Home:</text><text fill="#000000" font-family="sans-serif" font-size="13" lengthAdjust="spacing" textLength="12" x="57.75" y="350.4707">&#160;&#160;&#160;</text><a href="index.html" target="_top" title="index.html" xlink:actuate="onRequest" xlink:href="index.html" xlink:show="new" xlink:title="index.html" xlink:type="simple"><text fill="#0000FF" font-family="sans-serif" font-size="13" lengthAdjust="spacing" text-decoration="underline" textLength="68" x="69.75" y="350.4707">index.html</text></a><line style="stroke:#181818;stroke-width:1.0;" x1="52.75" x2="459.25" y1="253.6943" y2="253.6943"/><line style="stroke:#181818;stroke-width:1.0;" x1="52.75" x2="459.25" y1="255.6943" y2="255.6943"/><text fill="#000000" font-family="sans-serif" font-size="13" lengthAdjust="spacing" textLength="74" x="459.25" y="258.1074">Select other</text><line style="stroke:#181818;stroke-width:1.0;" x1="533.25" x2="939.75" y1="253.6943" y2="253.6943"/><line style="stroke:#181818;stroke-width:1.0;" x1="533.25" x2="939.75" y1="255.6943" y2="255.6943"/></g><!--SRC=[tLNVQnf147xthnZIXy21rz97YO5WaVQX4jgdaXDPx-PqoDxiiRDdOah-zywQUDh6OgHAe8U8xitCzyqtFrPkYMlZJGMM6CEoHd0-p5qdKB085q8FsFluuVBhScGgbDhac7voOOJXskDLOUg0_kN1DymRBxJ08LcyzYv74UVJBype1zQ8G988LRMbah184Z1SwD7CkwR60chqm6ku9Bbu7rbSTjW5XBCVhl5WFAgFiSi7ubaluxUabt76_Rw6qj3zViPA47B3a5lARm4fpDLUlpO-0XaxhmOHQdKAfVulLo4qeMXThK3r1_cC2_AO1oYmHYwGSq99ds2_eurlN0I9u0aSNue2Wz6tUuNGEW30pSsH6NGBCZFjqEwQH_SPlwlutHO_bSLiF8uA31jhuTdfe4gk4oWrG8kwST-7-zbLk0v1MgVxT1ugEnwVWH4OMcU2rdQaJTnfdRUhzRjo1-B3pzr1N-YzfpwdWZsKnziH-qj37gcl3qy3Le-PIl169_rfQHnxo4ytjA_CyzqIhNLtRRwFdVE1g_HcqYdzFme9TteJW6eJG7TsXQnRkuGsMnXO9t7t6rrUjSS5kKOcqamdRQI99NNUg35oZ335t3I2yV9ulXA51FHJ4fFCiKYtOczyToVLUTnf_ASa_sQsfRvQmBdkurSzS3BRo39EWKUhEzgn0DwlfasRh_Iksf3lgUqnkkSN]--></g></svg>