<?xml version="1.0" encoding="us-ascii" standalone="no"?><svg xmlns="http://www.w3.org/2000/svg" xmlns:xlink="http://www.w3.org/1999/xlink" contentStyleType="text/css" height="537px" preserveAspectRatio="none" style="width:565px;height:537px;background:#FFFFFF;" version="1.1" viewBox="0 0 565 537" width="565px" zoomAndPan="magnify"><defs/><g><text fill="#000000" font-family="sans-serif" font-size="20" font-weight="bold" lengthAdjust="spacing" textLength="297" x="68.25" y="29.3359">MyNamespace.UnusedClass1</text><text fill="#000000" font-family="sans-serif" font-size="20" font-weight="bold" lengthAdjust="spacing" textLength="104" x="372.25" y="29.3359">simplified</text><text fill="#000000" font-family="sans-serif" font-size="20" font-weight="bold" lengthAdjust="spacing" textLength="7" x="476.25" y="29.3359">&#160;</text><!--cluster DotNetPreAdapter--><g id="cluster_DotNetPreAdapter"><path d="M415,115.5547 L546,115.5547 A3.75,3.75 0 0 1 548.5,118.0547 L555.5,138.043 L556,138.043 A2.5,2.5 0 0 1 558.5,140.543 L558.5,212.0547 A2.5,2.5 0 0 1 556,214.5547 L415,214.5547 A2.5,2.5 0 0 1 412.5,212.0547 L412.5,118.0547 A2.5,2.5 0 0 1 415,115.5547 " fill="none" style="stroke:#000000;stroke-width:1.5;"/><line style="stroke:#000000;stroke-width:1.5;" x1="412.5" x2="555.5" y1="138.043" y2="138.043"/><text fill="#000000" font-family="sans-serif" font-size="14" font-weight="bold" lengthAdjust="spacing" textLength="130" x="416.5" y="131.0898">DotNetPreAdapter</text></g><!--cluster MyNamespace--><g id="cluster_MyNamespace"><path d="M243,323.5547 L346,323.5547 A3.75,3.75 0 0 1 348.5,326.0547 L355.5,346.043 L555,346.043 A2.5,2.5 0 0 1 557.5,348.543 L557.5,528.0547 A2.5,2.5 0 0 1 555,530.5547 L243,530.5547 A2.5,2.5 0 0 1 240.5,528.0547 L240.5,326.0547 A2.5,2.5 0 0 1 243,323.5547 " fill="none" style="stroke:#000000;stroke-width:1.5;"/><line style="stroke:#000000;stroke-width:1.5;" x1="240.5" x2="355.5" y1="346.043" y2="346.043"/><text fill="#000000" font-family="sans-serif" font-size="14" font-weight="bold" lengthAdjust="spacing" textLength="102" x="244.5" y="339.0898">MyNamespace</text></g><!--class Program--><a href="DotNetPreAdapter.Program-diagram-simplified.svg" target="_top" title="DotNetPreAdapter.Program-diagram-simplified.svg" xlink:actuate="onRequest" xlink:href="DotNetPreAdapter.Program-diagram-simplified.svg" xlink:show="new" xlink:title="DotNetPreAdapter.Program-diagram-simplified.svg" xlink:type="simple"><g id="elem_Program"><rect codeLine="4" fill="#F1F1F1" height="48" id="Program" rx="2.5" ry="2.5" style="stroke:#181818;stroke-width:0.5;" width="91" x="430" y="150.5547"/><ellipse cx="445" cy="166.5547" fill="#A9DCDF" rx="11" ry="11" style="stroke:#181818;stroke-width:1.0;"/><path d="M444.8633,161.9028 L443.7095,166.9746 L446.0254,166.9746 Z M443.3691,159.6616 L446.3657,159.6616 L449.7109,172.0547 L447.2622,172.0547 L446.4985,168.9917 L443.2197,168.9917 L442.4727,172.0547 L440.0239,172.0547 Z " fill="#000000"/><text fill="#000000" font-family="sans-serif" font-size="14" font-style="italic" lengthAdjust="spacing" textLength="59" x="459" y="171.8457">Program</text><line style="stroke:#181818;stroke-width:0.5;" x1="431" x2="520" y1="182.5547" y2="182.5547"/><line style="stroke:#181818;stroke-width:0.5;" x1="431" x2="520" y1="190.5547" y2="190.5547"/></g></a><!--class UnusedClass1--><a href="MyNamespace.UnusedClass1-diagram-simplified.svg" target="_top" title="MyNamespace.UnusedClass1-diagram-simplified.svg" xlink:actuate="onRequest" xlink:href="MyNamespace.UnusedClass1-diagram-simplified.svg" xlink:show="new" xlink:title="MyNamespace.UnusedClass1-diagram-simplified.svg" xlink:type="simple"><g id="elem_UnusedClass1"><rect codeLine="6" fill="#FFFF00" height="48" id="UnusedClass1" rx="2.5" ry="2.5" style="stroke:#181818;stroke-width:0.5;" width="129" x="412" y="358.5547"/><ellipse cx="427" cy="374.5547" fill="#A9DCDF" rx="11" ry="11" style="stroke:#181818;stroke-width:1.0;"/><path d="M426.8633,369.9028 L425.7095,374.9746 L428.0254,374.9746 Z M425.3691,367.6616 L428.3657,367.6616 L431.7109,380.0547 L429.2622,380.0547 L428.4985,376.9917 L425.2197,376.9917 L424.4727,380.0547 L422.0239,380.0547 Z " fill="#000000"/><text fill="#000000" font-family="sans-serif" font-size="14" font-style="italic" lengthAdjust="spacing" textLength="97" x="441" y="379.8457">UnusedClass1</text><line style="stroke:#181818;stroke-width:0.5;" x1="413" x2="540" y1="390.5547" y2="390.5547"/><line style="stroke:#181818;stroke-width:0.5;" x1="413" x2="540" y1="398.5547" y2="398.5547"/></g></a><!--class UnusedClass1_DOT_InnerClass--><a href="MyNamespace.UnusedClass1.InnerClass-diagram-simplified.svg" target="_top" title="MyNamespace.UnusedClass1.InnerClass-diagram-simplified.svg" xlink:actuate="onRequest" xlink:href="MyNamespace.UnusedClass1.InnerClass-diagram-simplified.svg" xlink:show="new" xlink:title="MyNamespace.UnusedClass1.InnerClass-diagram-simplified.svg" xlink:type="simple"><g id="elem_UnusedClass1_DOT_InnerClass"><rect codeLine="8" fill="#FFFF00" height="48" id="UnusedClass1_DOT_InnerClass" rx="2.5" ry="2.5" style="stroke:#181818;stroke-width:0.5;" width="245" x="296" y="466.5547"/><ellipse cx="311" cy="482.5547" fill="#A9DCDF" rx="11" ry="11" style="stroke:#181818;stroke-width:1.0;"/><path d="M310.8633,477.9028 L309.7095,482.9746 L312.0254,482.9746 Z M309.3691,475.6616 L312.3657,475.6616 L315.7109,488.0547 L313.2622,488.0547 L312.4985,484.9917 L309.2197,484.9917 L308.4727,488.0547 L306.0239,488.0547 Z " fill="#000000"/><text fill="#000000" font-family="sans-serif" font-size="14" font-style="italic" lengthAdjust="spacing" textLength="213" x="325" y="487.8457">UnusedClass1_DOT_InnerClass</text><line style="stroke:#181818;stroke-width:0.5;" x1="297" x2="540" y1="498.5547" y2="498.5547"/><line style="stroke:#181818;stroke-width:0.5;" x1="297" x2="540" y1="506.5547" y2="506.5547"/></g></a><!--class UnusedClass--><a href="MyNamespace.UnusedClass-diagram-simplified.svg" target="_top" title="MyNamespace.UnusedClass-diagram-simplified.svg" xlink:actuate="onRequest" xlink:href="MyNamespace.UnusedClass-diagram-simplified.svg" xlink:show="new" xlink:title="MyNamespace.UnusedClass-diagram-simplified.svg" xlink:type="simple"><g id="elem_UnusedClass"><rect codeLine="10" fill="#F1F1F1" height="48" id="UnusedClass" rx="2.5" ry="2.5" style="stroke:#181818;stroke-width:0.5;" width="120" x="256.5" y="358.5547"/><ellipse cx="271.5" cy="374.5547" fill="#A9DCDF" rx="11" ry="11" style="stroke:#181818;stroke-width:1.0;"/><path d="M271.3633,369.9028 L270.2095,374.9746 L272.5254,374.9746 Z M269.8691,367.6616 L272.8657,367.6616 L276.2109,380.0547 L273.7622,380.0547 L272.9985,376.9917 L269.7197,376.9917 L268.9727,380.0547 L266.5239,380.0547 Z " fill="#000000"/><text fill="#000000" font-family="sans-serif" font-size="14" font-style="italic" lengthAdjust="spacing" textLength="88" x="285.5" y="379.8457">UnusedClass</text><line style="stroke:#181818;stroke-width:0.5;" x1="257.5" x2="375.5" y1="390.5547" y2="390.5547"/><line style="stroke:#181818;stroke-width:0.5;" x1="257.5" x2="375.5" y1="398.5547" y2="398.5547"/></g></a><g id="elem_FloatingNote"><path d="M6,50.5547 L6,298.2129 L395,298.2129 L395,60.5547 L385,50.5547 L6,50.5547 " fill="#FEFFDD" style="stroke:#181818;stroke-width:0.5;"/><path d="M385,50.5547 L385,60.5547 L395,60.5547 L385,50.5547 " fill="#FEFFDD" style="stroke:#181818;stroke-width:1.0;"/><text fill="#000000" font-family="sans-serif" font-size="13" lengthAdjust="spacing" textLength="120" x="12" y="68.123">Your are analyzing:</text><text fill="#000000" font-family="sans-serif" font-size="13" lengthAdjust="spacing" textLength="183" x="12" y="83.4336">MyNamespace.UnusedClass1</text><text fill="#000000" font-family="sans-serif" font-size="13" font-weight="bold" lengthAdjust="spacing" textLength="67" x="199" y="83.4336">simplified</text><text fill="#000000" font-family="sans-serif" font-size="13" lengthAdjust="spacing" textLength="4" x="266" y="83.4336">&#160;</text><text fill="#000000" font-family="sans-serif" font-size="13" lengthAdjust="spacing" textLength="4" x="12" y="98.7441">&#160;</text><text fill="#000000" font-family="sans-serif" font-size="13" lengthAdjust="spacing" textLength="229" x="12" y="129.3652">You can click either the namespaces</text><text fill="#000000" font-family="sans-serif" font-size="13" lengthAdjust="spacing" textLength="266" x="12" y="144.6758">or class names for filtering them and their</text><text fill="#000000" font-family="sans-serif" font-size="13" lengthAdjust="spacing" textLength="130" x="12" y="159.9863">direct dependencies.</text><text fill="#000000" font-family="sans-serif" font-size="13" lengthAdjust="spacing" textLength="4" x="12" y="175.2969">&#160;</text><line style="stroke:#181818;stroke-width:1.0;" x1="7" x2="184.5" y1="109.1416" y2="109.1416"/><line style="stroke:#181818;stroke-width:1.0;" x1="7" x2="184.5" y1="111.1416" y2="111.1416"/><text fill="#000000" font-family="sans-serif" font-size="13" lengthAdjust="spacing" textLength="32" x="184.5" y="113.5547">Filter</text><line style="stroke:#181818;stroke-width:1.0;" x1="216.5" x2="394" y1="109.1416" y2="109.1416"/><line style="stroke:#181818;stroke-width:1.0;" x1="216.5" x2="394" y1="111.1416" y2="111.1416"/><ellipse cx="17.5" cy="205.1602" fill="#000000" rx="2.5" ry="2.5" style="stroke:#000000;stroke-width:0.0;"/><text fill="#000000" font-family="sans-serif" font-size="13" lengthAdjust="spacing" textLength="183" x="24" y="209.918">MyNamespace.UnusedClass1</text><text fill="#000000" font-family="sans-serif" font-size="13" font-weight="bold" lengthAdjust="spacing" textLength="55" x="211" y="209.918">detailed</text><text fill="#000000" font-family="sans-serif" font-size="13" lengthAdjust="spacing" textLength="4" x="270" y="209.918">:</text><text fill="#000000" font-family="sans-serif" font-size="13" lengthAdjust="spacing" textLength="12" x="12" y="225.2285">&#160;&#160;&#160;</text><a href="MyNamespace.UnusedClass1-diagram-detailed.svg" target="_top" title="MyNamespace.UnusedClass1-diagram-detailed.svg" xlink:actuate="onRequest" xlink:href="MyNamespace.UnusedClass1-diagram-detailed.svg" xlink:show="new" xlink:title="MyNamespace.UnusedClass1-diagram-detailed.svg" xlink:type="simple"><text fill="#0000FF" font-family="sans-serif" font-size="13" lengthAdjust="spacing" text-decoration="underline" textLength="326" x="24" y="225.2285">MyNamespace.UnusedClass1-diagram-detailed.svg</text></a><ellipse cx="17.5" cy="235.7813" fill="#000000" rx="2.5" ry="2.5" style="stroke:#000000;stroke-width:0.0;"/><text fill="#000000" font-family="sans-serif" font-size="13" lengthAdjust="spacing" textLength="78" x="24" y="240.5391">Full diagram</text><text fill="#000000" font-family="sans-serif" font-size="13" font-weight="bold" lengthAdjust="spacing" textLength="67" x="106" y="240.5391">simplified</text><text fill="#000000" font-family="sans-serif" font-size="13" lengthAdjust="spacing" textLength="23" x="177" y="240.5391">and</text><text fill="#000000" font-family="sans-serif" font-size="13" font-weight="bold" lengthAdjust="spacing" textLength="166" x="204" y="240.5391">grouped per namespace</text><text fill="#000000" font-family="sans-serif" font-size="13" lengthAdjust="spacing" textLength="4" x="370" y="240.5391">:</text><text fill="#000000" font-family="sans-serif" font-size="13" lengthAdjust="spacing" textLength="12" x="12" y="255.8496">&#160;&#160;&#160;</text><a href="full-diagram-simplified-grouped-per-namespace.svg" target="_top" title="full-diagram-simplified-grouped-per-namespace.svg" xlink:actuate="onRequest" xlink:href="full-diagram-simplified-grouped-per-namespace.svg" xlink:show="new" xlink:title="full-diagram-simplified-grouped-per-namespace.svg" xlink:type="simple"><text fill="#0000FF" font-family="sans-serif" font-size="13" lengthAdjust="spacing" text-decoration="underline" textLength="343" x="24" y="255.8496">full-diagram-simplified-grouped-per-namespace.svg</text></a><ellipse cx="17.5" cy="266.4023" fill="#000000" rx="2.5" ry="2.5" style="stroke:#000000;stroke-width:0.0;"/><text fill="#000000" font-family="sans-serif" font-size="13" lengthAdjust="spacing" textLength="41" x="24" y="271.1602">Home:</text><text fill="#000000" font-family="sans-serif" font-size="13" lengthAdjust="spacing" textLength="12" x="12" y="286.4707">&#160;&#160;&#160;</text><a href="index.html" target="_top" title="index.html" xlink:actuate="onRequest" xlink:href="index.html" xlink:show="new" xlink:title="index.html" xlink:type="simple"><text fill="#0000FF" font-family="sans-serif" font-size="13" lengthAdjust="spacing" text-decoration="underline" textLength="68" x="24" y="286.4707">index.html</text></a><line style="stroke:#181818;stroke-width:1.0;" x1="7" x2="163.5" y1="189.6943" y2="189.6943"/><line style="stroke:#181818;stroke-width:1.0;" x1="7" x2="163.5" y1="191.6943" y2="191.6943"/><text fill="#000000" font-family="sans-serif" font-size="13" lengthAdjust="spacing" textLength="74" x="163.5" y="194.1074">Select other</text><line style="stroke:#181818;stroke-width:1.0;" x1="237.5" x2="394" y1="189.6943" y2="189.6943"/><line style="stroke:#181818;stroke-width:1.0;" x1="237.5" x2="394" y1="191.6943" y2="191.6943"/></g><!--link Program to UnusedClass--><g id="link_Program_UnusedClass"><path codeLine="17" d="M429.9,174.5547 C415.61,174.5547 403.5,174.5547 403.5,174.5547 C403.5,174.5547 403.5,382.5547 403.5,382.5547 C403.5,382.5547 382.92,382.5547 382.92,382.5547 " fill="none" id="Program-to-UnusedClass" style="stroke:#909090;stroke-width:1.0;"/><polygon fill="#909090" points="377.92,382.5547,386.92,386.5547,382.92,382.5547,386.92,378.5547,377.92,382.5547" style="stroke:#909090;stroke-width:1.0;"/><text fill="#000000" font-family="sans-serif" font-size="13" lengthAdjust="spacing" textLength="29" x="404.5" y="272.213">uses</text></g><!--link Program to UnusedClass1--><g id="link_Program_UnusedClass1"><path codeLine="18" d="M475.5,198.8247 C475.5,198.8247 475.5,352.1247 475.5,352.1247 " fill="none" id="Program-to-UnusedClass1" style="stroke:#909090;stroke-width:1.0;"/><polygon fill="#909090" points="475.5,357.1247,479.5,348.1247,475.5,352.1247,471.5,348.1247,475.5,357.1247" style="stroke:#909090;stroke-width:1.0;"/><text fill="#000000" font-family="sans-serif" font-size="13" lengthAdjust="spacing" textLength="29" x="445.5" y="272.043">uses</text></g><!--reverse link UnusedClass1 to UnusedClass1_DOT_InnerClass--><g id="link_UnusedClass1_UnusedClass1_DOT_InnerClass"><path codeLine="21" d="M476.5,422.7947 C476.5,422.7947 476.5,466.3947 476.5,466.3947 " fill="none" id="UnusedClass1-backto-UnusedClass1_DOT_InnerClass" style="stroke:#10BBBB;stroke-width:1.0;"/><ellipse cx="476.5" cy="415.7947" fill="#FFFFFF" rx="8" ry="8" style="stroke:#10BBBB;stroke-width:1.0;"/><line style="stroke:#10BBBB;stroke-width:1.0;" x1="476.5" x2="476.5" y1="423.7947" y2="407.7947"/><line style="stroke:#10BBBB;stroke-width:1.0;" x1="468.5" x2="484.5" y1="415.7947" y2="415.7947"/></g><!--SRC=[jLBHQjim57ttLroQXuA6tMGFXOKciBQ4xc5POTl3i4tHhEj4L9QCf6nDH_zzLtOJZsnkNRR9O2JhtdFEFJxkLkgQMrw1aXhzjaOmrgzDvALN26TEtkFqzNZ-Vhla5RgQ5vXyrXk7ua9nvoR0c9DLhMGfKJ06PoUXOnvfun6ElfYD1MuHkEPgUo_rQfhfeL2PplHijf3AevtDCarWK70DXPB5BQ3qQxH0Bz0xE4Sznb81mRLVeQHpsK0GUQYkI8i86sapBQJ5meF06hL0NKXqIKlx4LMuCO4aa3DuGhP0pwLgHDDy092cVTMna7n5TiUxdiHzM-Lv85Xib8B7wqClWcR6LjPiQXHGq-3xeHdRSPO4iCVlskF7jfZQudrRntjbAjn1IBBXBbdxIkNv4N072sMu9-kMz3yZ_jLvoycMrk5BuvVehos-5RmcXvDhQnhnQTftzGTvhH207z738K6lvGFy_OrWj4MbpFUNyDnSVlXqyqvhjCtv2Tgag_gN2lePdp4IZYakWnRyjzfZQ6Umg2X2HZl0ksPcId1fJTL5U4grXuc9UjCLfwCtu_3ayRpNE9W27Hpy7SoamtdPDB_WHRtOhqZ2P7nEAuy7Pp0Q4458qj7f-9IWy-HvYtu2]--></g></svg>