<?xml version="1.0" encoding="us-ascii" standalone="no"?><svg xmlns="http://www.w3.org/2000/svg" xmlns:xlink="http://www.w3.org/1999/xlink" contentStyleType="text/css" height="521px" preserveAspectRatio="none" style="width:686px;height:521px;background:#FFFFFF;" version="1.1" viewBox="0 0 686 521" width="686px" zoomAndPan="magnify"><defs/><g><text fill="#000000" font-family="sans-serif" font-size="20" font-weight="bold" lengthAdjust="spacing" textLength="156" x="52.25" y="29.3359">SemanticModel</text><text fill="#000000" font-family="sans-serif" font-size="20" font-weight="bold" lengthAdjust="spacing" textLength="104" x="215.25" y="29.3359">simplified</text><text fill="#000000" font-family="sans-serif" font-size="20" font-weight="bold" lengthAdjust="spacing" textLength="38" x="326.25" y="29.3359">and</text><text fill="#000000" font-family="sans-serif" font-size="20" font-weight="bold" lengthAdjust="spacing" textLength="249" x="371.25" y="29.3359">grouped per namespace</text><!--cluster DotNetPreAdapter--><g id="cluster_DotNetPreAdapter"><a href="DotNetPreAdapter-diagram-simplified-grouped-per-namespace.svg" target="_top" title="DotNetPreAdapter-diagram-simplified-grouped-per-namespace.svg" xlink:actuate="onRequest" xlink:href="DotNetPreAdapter-diagram-simplified-grouped-per-namespace.svg" xlink:show="new" xlink:title="DotNetPreAdapter-diagram-simplified-grouped-per-namespace.svg" xlink:type="simple"><path d="M468,72.5547 L599,72.5547 A3.75,3.75 0 0 1 601.5,75.0547 L608.5,95.043 L657,95.043 A2.5,2.5 0 0 1 659.5,97.543 L659.5,444.0547 A2.5,2.5 0 0 1 657,446.5547 L468,446.5547 A2.5,2.5 0 0 1 465.5,444.0547 L465.5,75.0547 A2.5,2.5 0 0 1 468,72.5547 " fill="none" style="stroke:#000000;stroke-width:1.5;"/><line style="stroke:#000000;stroke-width:1.5;" x1="465.5" x2="608.5" y1="95.043" y2="95.043"/><text fill="#000000" font-family="sans-serif" font-size="14" font-weight="bold" lengthAdjust="spacing" textLength="130" x="469.5" y="88.0898">DotNetPreAdapter</text></a></g><!--cluster Domain--><g id="cluster_Domain"><a href="DotNetPreAdapter.Domain-diagram-simplified-grouped-per-namespace.svg" target="_top" title="DotNetPreAdapter.Domain-diagram-simplified-grouped-per-namespace.svg" xlink:actuate="onRequest" xlink:href="DotNetPreAdapter.Domain-diagram-simplified-grouped-per-namespace.svg" xlink:show="new" xlink:title="DotNetPreAdapter.Domain-diagram-simplified-grouped-per-namespace.svg" xlink:type="simple"><path d="M494,323.5547 L551,323.5547 A3.75,3.75 0 0 1 553.5,326.0547 L560.5,346.043 L625,346.043 A2.5,2.5 0 0 1 627.5,348.543 L627.5,420.0547 A2.5,2.5 0 0 1 625,422.5547 L494,422.5547 A2.5,2.5 0 0 1 491.5,420.0547 L491.5,326.0547 A2.5,2.5 0 0 1 494,323.5547 " fill="none" style="stroke:#000000;stroke-width:1.5;"/><line style="stroke:#000000;stroke-width:1.5;" x1="491.5" x2="560.5" y1="346.043" y2="346.043"/><text fill="#000000" font-family="sans-serif" font-size="14" font-weight="bold" lengthAdjust="spacing" textLength="56" x="495.5" y="339.0898">Domain</text></a></g><!--cluster Service--><g id="cluster_Service"><a href="DotNetPreAdapter.Service-diagram-simplified-grouped-per-namespace.svg" target="_top" title="DotNetPreAdapter.Service-diagram-simplified-grouped-per-namespace.svg" xlink:actuate="onRequest" xlink:href="DotNetPreAdapter.Service-diagram-simplified-grouped-per-namespace.svg" xlink:show="new" xlink:title="DotNetPreAdapter.Service-diagram-simplified-grouped-per-namespace.svg" xlink:type="simple"><path d="M492,115.5547 L543,115.5547 A3.75,3.75 0 0 1 545.5,118.0547 L552.5,138.043 L633,138.043 A2.5,2.5 0 0 1 635.5,140.543 L635.5,212.0547 A2.5,2.5 0 0 1 633,214.5547 L492,214.5547 A2.5,2.5 0 0 1 489.5,212.0547 L489.5,118.0547 A2.5,2.5 0 0 1 492,115.5547 " fill="none" style="stroke:#000000;stroke-width:1.5;"/><line style="stroke:#000000;stroke-width:1.5;" x1="489.5" x2="552.5" y1="138.043" y2="138.043"/><text fill="#000000" font-family="sans-serif" font-size="14" font-weight="bold" lengthAdjust="spacing" textLength="50" x="493.5" y="131.0898">Service</text></a></g><!--class ASTVisitor--><a href="DotNetPreAdapter.Domain.ASTVisitor-diagram-simplified-grouped-per-namespace.svg" target="_top" title="DotNetPreAdapter.Domain.ASTVisitor-diagram-simplified-grouped-per-namespace.svg" xlink:actuate="onRequest" xlink:href="DotNetPreAdapter.Domain.ASTVisitor-diagram-simplified-grouped-per-namespace.svg" xlink:show="new" xlink:title="DotNetPreAdapter.Domain.ASTVisitor-diagram-simplified-grouped-per-namespace.svg" xlink:type="simple"><g id="elem_ASTVisitor"><rect codeLine="9" fill="#F1F1F1" height="48" id="ASTVisitor" rx="2.5" ry="2.5" style="stroke:#181818;stroke-width:0.5;" width="103" x="508" y="358.5547"/><ellipse cx="523" cy="374.5547" fill="#A9DCDF" rx="11" ry="11" style="stroke:#181818;stroke-width:1.0;"/><path d="M522.8633,369.9028 L521.7095,374.9746 L524.0254,374.9746 Z M521.3691,367.6616 L524.3657,367.6616 L527.7109,380.0547 L525.2622,380.0547 L524.4985,376.9917 L521.2197,376.9917 L520.4727,380.0547 L518.0239,380.0547 Z " fill="#000000"/><text fill="#000000" font-family="sans-serif" font-size="14" font-style="italic" lengthAdjust="spacing" textLength="71" x="537" y="379.8457">ASTVisitor</text><line style="stroke:#181818;stroke-width:0.5;" x1="509" x2="610" y1="390.5547" y2="390.5547"/><line style="stroke:#181818;stroke-width:0.5;" x1="509" x2="610" y1="398.5547" y2="398.5547"/></g></a><!--class AnalyzeAST--><a href="DotNetPreAdapter.Service.AnalyzeAST-diagram-simplified-grouped-per-namespace.svg" target="_top" title="DotNetPreAdapter.Service.AnalyzeAST-diagram-simplified-grouped-per-namespace.svg" xlink:actuate="onRequest" xlink:href="DotNetPreAdapter.Service.AnalyzeAST-diagram-simplified-grouped-per-namespace.svg" xlink:show="new" xlink:title="DotNetPreAdapter.Service.AnalyzeAST-diagram-simplified-grouped-per-namespace.svg" xlink:type="simple"><g id="elem_AnalyzeAST"><rect codeLine="19" fill="#F1F1F1" height="48" id="AnalyzeAST" rx="2.5" ry="2.5" style="stroke:#181818;stroke-width:0.5;" width="113" x="506" y="150.5547"/><ellipse cx="521" cy="166.5547" fill="#A9DCDF" rx="11" ry="11" style="stroke:#181818;stroke-width:1.0;"/><path d="M520.8633,161.9028 L519.7095,166.9746 L522.0254,166.9746 Z M519.3691,159.6616 L522.3657,159.6616 L525.7109,172.0547 L523.2622,172.0547 L522.4985,168.9917 L519.2197,168.9917 L518.4727,172.0547 L516.0239,172.0547 Z " fill="#000000"/><text fill="#000000" font-family="sans-serif" font-size="14" font-style="italic" lengthAdjust="spacing" textLength="81" x="535" y="171.8457">AnalyzeAST</text><line style="stroke:#181818;stroke-width:0.5;" x1="507" x2="618" y1="182.5547" y2="182.5547"/><line style="stroke:#181818;stroke-width:0.5;" x1="507" x2="618" y1="190.5547" y2="190.5547"/></g></a><g id="elem_FloatingNote"><path d="M6,50.5547 L6,298.2129 L449,298.2129 L449,60.5547 L439,50.5547 L6,50.5547 " fill="#FEFFDD" style="stroke:#181818;stroke-width:0.5;"/><path d="M439,50.5547 L439,60.5547 L449,60.5547 L439,50.5547 " fill="#FEFFDD" style="stroke:#181818;stroke-width:1.0;"/><text fill="#000000" font-family="sans-serif" font-size="13" lengthAdjust="spacing" textLength="120" x="12" y="68.123">Your are analyzing:</text><text fill="#000000" font-family="sans-serif" font-size="13" lengthAdjust="spacing" textLength="95" x="12" y="83.4336">SemanticModel</text><text fill="#000000" font-family="sans-serif" font-size="13" font-weight="bold" lengthAdjust="spacing" textLength="67" x="111" y="83.4336">simplified</text><text fill="#000000" font-family="sans-serif" font-size="13" lengthAdjust="spacing" textLength="23" x="182" y="83.4336">and</text><text fill="#000000" font-family="sans-serif" font-size="13" font-weight="bold" lengthAdjust="spacing" textLength="166" x="209" y="83.4336">grouped per namespace</text><text fill="#000000" font-family="sans-serif" font-size="13" lengthAdjust="spacing" textLength="4" x="12" y="98.7441">&#160;</text><text fill="#000000" font-family="sans-serif" font-size="13" lengthAdjust="spacing" textLength="229" x="12" y="129.3652">You can click either the namespaces</text><text fill="#000000" font-family="sans-serif" font-size="13" lengthAdjust="spacing" textLength="266" x="12" y="144.6758">or class names for filtering them and their</text><text fill="#000000" font-family="sans-serif" font-size="13" lengthAdjust="spacing" textLength="130" x="12" y="159.9863">direct dependencies.</text><text fill="#000000" font-family="sans-serif" font-size="13" lengthAdjust="spacing" textLength="4" x="12" y="175.2969">&#160;</text><line style="stroke:#181818;stroke-width:1.0;" x1="7" x2="211.5" y1="109.1416" y2="109.1416"/><line style="stroke:#181818;stroke-width:1.0;" x1="7" x2="211.5" y1="111.1416" y2="111.1416"/><text fill="#000000" font-family="sans-serif" font-size="13" lengthAdjust="spacing" textLength="32" x="211.5" y="113.5547">Filter</text><line style="stroke:#181818;stroke-width:1.0;" x1="243.5" x2="448" y1="109.1416" y2="109.1416"/><line style="stroke:#181818;stroke-width:1.0;" x1="243.5" x2="448" y1="111.1416" y2="111.1416"/><ellipse cx="17.5" cy="205.1602" fill="#000000" rx="2.5" ry="2.5" style="stroke:#000000;stroke-width:0.0;"/><text fill="#000000" font-family="sans-serif" font-size="13" lengthAdjust="spacing" textLength="95" x="24" y="209.918">SemanticModel</text><text fill="#000000" font-family="sans-serif" font-size="13" font-weight="bold" lengthAdjust="spacing" textLength="55" x="123" y="209.918">detailed</text><text fill="#000000" font-family="sans-serif" font-size="13" lengthAdjust="spacing" textLength="23" x="182" y="209.918">and</text><text fill="#000000" font-family="sans-serif" font-size="13" font-weight="bold" lengthAdjust="spacing" textLength="166" x="209" y="209.918">grouped per namespace</text><text fill="#000000" font-family="sans-serif" font-size="13" lengthAdjust="spacing" textLength="4" x="375" y="209.918">:</text><text fill="#000000" font-family="sans-serif" font-size="13" lengthAdjust="spacing" textLength="12" x="12" y="225.2285">&#160;&#160;&#160;</text><a href="SemanticModel-diagram-detailed-grouped-per-namespace.svg" target="_top" title="SemanticModel-diagram-detailed-grouped-per-namespace.svg" xlink:actuate="onRequest" xlink:href="SemanticModel-diagram-detailed-grouped-per-namespace.svg" xlink:show="new" xlink:title="SemanticModel-diagram-detailed-grouped-per-namespace.svg" xlink:type="simple"><text fill="#0000FF" font-family="sans-serif" font-size="13" lengthAdjust="spacing" text-decoration="underline" textLength="404" x="24" y="225.2285">SemanticModel-diagram-detailed-grouped-per-namespace.svg</text></a><ellipse cx="17.5" cy="235.7813" fill="#000000" rx="2.5" ry="2.5" style="stroke:#000000;stroke-width:0.0;"/><text fill="#000000" font-family="sans-serif" font-size="13" lengthAdjust="spacing" textLength="78" x="24" y="240.5391">Full diagram</text><text fill="#000000" font-family="sans-serif" font-size="13" font-weight="bold" lengthAdjust="spacing" textLength="67" x="106" y="240.5391">simplified</text><text fill="#000000" font-family="sans-serif" font-size="13" lengthAdjust="spacing" textLength="23" x="177" y="240.5391">and</text><text fill="#000000" font-family="sans-serif" font-size="13" font-weight="bold" lengthAdjust="spacing" textLength="166" x="204" y="240.5391">grouped per namespace</text><text fill="#000000" font-family="sans-serif" font-size="13" lengthAdjust="spacing" textLength="4" x="370" y="240.5391">:</text><text fill="#000000" font-family="sans-serif" font-size="13" lengthAdjust="spacing" textLength="12" x="12" y="255.8496">&#160;&#160;&#160;</text><a href="full-diagram-simplified-grouped-per-namespace.svg" target="_top" title="full-diagram-simplified-grouped-per-namespace.svg" xlink:actuate="onRequest" xlink:href="full-diagram-simplified-grouped-per-namespace.svg" xlink:show="new" xlink:title="full-diagram-simplified-grouped-per-namespace.svg" xlink:type="simple"><text fill="#0000FF" font-family="sans-serif" font-size="13" lengthAdjust="spacing" text-decoration="underline" textLength="343" x="24" y="255.8496">full-diagram-simplified-grouped-per-namespace.svg</text></a><ellipse cx="17.5" cy="266.4023" fill="#000000" rx="2.5" ry="2.5" style="stroke:#000000;stroke-width:0.0;"/><text fill="#000000" font-family="sans-serif" font-size="13" lengthAdjust="spacing" textLength="41" x="24" y="271.1602">Home:</text><text fill="#000000" font-family="sans-serif" font-size="13" lengthAdjust="spacing" textLength="12" x="12" y="286.4707">&#160;&#160;&#160;</text><a href="index.html" target="_top" title="index.html" xlink:actuate="onRequest" xlink:href="index.html" xlink:show="new" xlink:title="index.html" xlink:type="simple"><text fill="#0000FF" font-family="sans-serif" font-size="13" lengthAdjust="spacing" text-decoration="underline" textLength="68" x="24" y="286.4707">index.html</text></a><line style="stroke:#181818;stroke-width:1.0;" x1="7" x2="190.5" y1="189.6943" y2="189.6943"/><line style="stroke:#181818;stroke-width:1.0;" x1="7" x2="190.5" y1="191.6943" y2="191.6943"/><text fill="#000000" font-family="sans-serif" font-size="13" lengthAdjust="spacing" textLength="74" x="190.5" y="194.1074">Select other</text><line style="stroke:#181818;stroke-width:1.0;" x1="264.5" x2="448" y1="189.6943" y2="189.6943"/><line style="stroke:#181818;stroke-width:1.0;" x1="264.5" x2="448" y1="191.6943" y2="191.6943"/></g><!--class SemanticModel--><a href="SemanticModel-diagram-simplified-grouped-per-namespace.svg" target="_top" title="SemanticModel-diagram-simplified-grouped-per-namespace.svg" xlink:actuate="onRequest" xlink:href="SemanticModel-diagram-simplified-grouped-per-namespace.svg" xlink:show="new" xlink:title="SemanticModel-diagram-simplified-grouped-per-namespace.svg" xlink:type="simple"><g id="elem_SemanticModel"><rect codeLine="4" fill="#FFFF00" height="48" id="SemanticModel" rx="2.5" ry="2.5" style="stroke:#181818;stroke-width:0.5;" width="136" x="543.5" y="466.5547"/><ellipse cx="558.5" cy="482.5547" fill="#ADD1B2" rx="11" ry="11" style="stroke:#181818;stroke-width:1.0;"/><path d="M560.9731,488.6978 Q560.3921,488.9966 559.7529,489.146 Q559.1138,489.2954 558.4082,489.2954 Q555.9014,489.2954 554.5815,487.6436 Q553.2617,485.9917 553.2617,482.8706 Q553.2617,479.7412 554.5815,478.0894 Q555.9014,476.4375 558.4082,476.4375 Q559.1138,476.4375 559.7612,476.5869 Q560.4087,476.7363 560.9731,477.0352 L560.9731,479.7578 Q560.3423,479.1768 559.7488,478.907 Q559.1553,478.6372 558.5244,478.6372 Q557.1797,478.6372 556.4949,479.7039 Q555.8101,480.7705 555.8101,482.8706 Q555.8101,484.9624 556.4949,486.0291 Q557.1797,487.0957 558.5244,487.0957 Q559.1553,487.0957 559.7488,486.8259 Q560.3423,486.5562 560.9731,485.9751 Z " fill="#000000"/><text fill="#000000" font-family="sans-serif" font-size="14" lengthAdjust="spacing" textLength="104" x="572.5" y="487.8457">SemanticModel</text><line style="stroke:#181818;stroke-width:0.5;" x1="544.5" x2="678.5" y1="498.5547" y2="498.5547"/><line style="stroke:#181818;stroke-width:0.5;" x1="544.5" x2="678.5" y1="506.5547" y2="506.5547"/></g></a><!--reverse link ASTVisitor to SemanticModel--><g id="link_ASTVisitor_SemanticModel"><path codeLine="34" d="M577.25,420.7947 C577.25,420.7947 577.25,466.3947 577.25,466.3947 " fill="none" id="ASTVisitor-backto-SemanticModel" style="stroke:#10BB10;stroke-width:1.0;"/><polygon fill="#10BB10" points="577.25,407.7947,573.25,413.7947,577.25,419.7947,581.25,413.7947,577.25,407.7947" style="stroke:#10BB10;stroke-width:1.0;"/></g><!--link AnalyzeAST to SemanticModel--><g id="link_AnalyzeAST_SemanticModel"><path codeLine="37" d="M615,198.8247 C615,198.8247 615,460.2047 615,460.2047 " fill="none" id="AnalyzeAST-to-SemanticModel" style="stroke:#909090;stroke-width:1.0;"/><polygon fill="#909090" points="615,465.2047,619,456.2047,615,460.2047,611,456.2047,615,465.2047" style="stroke:#909090;stroke-width:1.0;"/><text fill="#000000" font-family="sans-serif" font-size="13" lengthAdjust="spacing" textLength="29" x="616" y="326.083">uses</text></g><!--link AnalyzeAST to ASTVisitor--><g id="link_AnalyzeAST_ASTVisitor"><path codeLine="38" d="M559.5,198.8247 C559.5,198.8247 559.5,352.1247 559.5,352.1247 " fill="none" id="AnalyzeAST-to-ASTVisitor" style="stroke:#909090;stroke-width:1.0;"/><polygon fill="#909090" points="559.5,357.1247,563.5,348.1247,559.5,352.1247,555.5,348.1247,559.5,357.1247" style="stroke:#909090;stroke-width:1.0;"/><text fill="#000000" font-family="sans-serif" font-size="13" lengthAdjust="spacing" textLength="29" x="529.5" y="272.043">uses</text></g><!--SRC=[pLLHQnf147w_Np4a3u63kvg-LQ9W4gGlbOAbK5HalPlJ8Nkxn-vgOaB_UsVrz5HYuhNOLaNqTkRxvflvTjS-a2g44Jb8KkYM1O8sRgO3HquYt5XwnkR7HhkFkL2EaYywHGbXQ2al96M4QHY2K2a_cXezBp250WqeaQCjH89XUFF1OxG3fHt2nGyzDo0CSewGosTIq-PG_JxuK0rLgzKbwT2qMaF5y9081Ocav06Gt8pZ-QlAiJ1Ksd20i7Rz53B-dwqWk1mVdQz8-GUPeKh9OE8WnG9LYYeXjF6Qje_IhsXFuib3E1IIeXCatvV1FG20mM0lFqf9J7aoqGObAhCZpewssR5TJ4SZpzwTImbbKgqkRkWp1jYoLkdlyNxMEMuWY7lq5CzSBaUZ2n0Mkb8BnttjyVY3TTVtktHCzMdySBb4AVKZl0G_Wokuazhw8GhkH65mGNfkntO-6M_JnfAigyH3Jok42IPYRj6xe7Ic9GlyoKYHdM4Q1rN6lNOzT5yDTb9Hi6bOmU6ZkY9Ute2FxtKkIBt2KgxK9mCG4-kCOFEk9t84EUxqltqdIqwRu_GxGNKhMPN2OxlJEPz1xCk_sGLuvDC1MBu3tiSvAjx96QpgEQEDAknThLx0dd-FDuB3_fqL-sWMn0klJA5SEeSPI-YuixeoaFtsHW4xKUUqunawyVyOibHmkYFXYY-NarvmjbXVghUFGSaNZbOMy6bbAnvaPdHUAMXoRCtm8uTESCB16KQ3o-l6xUrrOnGTN7r_MiHcJgVi6AxYKyE_Hr7xe0ne0fl4GdsS4-Hlm7y1]--></g></svg>