<?xml version="1.0" encoding="us-ascii" standalone="no"?><svg xmlns="http://www.w3.org/2000/svg" xmlns:xlink="http://www.w3.org/1999/xlink" contentStyleType="text/css" height="1091px" preserveAspectRatio="none" style="width:1241px;height:1091px;background:#FFFFFF;" version="1.1" viewBox="0 0 1241 1091" width="1241px" zoomAndPan="magnify"><defs/><g><text fill="#000000" font-family="sans-serif" font-size="20" font-weight="bold" lengthAdjust="spacing" textLength="156" x="486.75" y="29.3359">SemanticModel</text><text fill="#000000" font-family="sans-serif" font-size="20" font-weight="bold" lengthAdjust="spacing" textLength="84" x="649.75" y="29.3359">detailed</text><text fill="#000000" font-family="sans-serif" font-size="20" font-weight="bold" lengthAdjust="spacing" textLength="7" x="733.75" y="29.3359">&#160;</text><!--cluster DotNetPreAdapter--><g id="cluster_DotNetPreAdapter"><path d="M402,50.5547 L533,50.5547 A3.75,3.75 0 0 1 535.5,53.0547 L542.5,73.043 L1223,73.043 A2.5,2.5 0 0 1 1225.5,75.543 L1225.5,1013.5547 A2.5,2.5 0 0 1 1223,1016.0547 L402,1016.0547 A2.5,2.5 0 0 1 399.5,1013.5547 L399.5,53.0547 A2.5,2.5 0 0 1 402,50.5547 " fill="none" style="stroke:#000000;stroke-width:1.5;"/><line style="stroke:#000000;stroke-width:1.5;" x1="399.5" x2="542.5" y1="73.043" y2="73.043"/><text fill="#000000" font-family="sans-serif" font-size="14" font-weight="bold" lengthAdjust="spacing" textLength="130" x="403.5" y="66.0898">DotNetPreAdapter</text></g><!--cluster Domain--><g id="cluster_Domain"><path d="M426,359.0547 L483,359.0547 A3.75,3.75 0 0 1 485.5,361.5547 L492.5,381.543 L1199,381.543 A2.5,2.5 0 0 1 1201.5,384.043 L1201.5,989.5547 A2.5,2.5 0 0 1 1199,992.0547 L426,992.0547 A2.5,2.5 0 0 1 423.5,989.5547 L423.5,361.5547 A2.5,2.5 0 0 1 426,359.0547 " fill="none" style="stroke:#000000;stroke-width:1.5;"/><line style="stroke:#000000;stroke-width:1.5;" x1="423.5" x2="492.5" y1="381.543" y2="381.543"/><text fill="#000000" font-family="sans-serif" font-size="14" font-weight="bold" lengthAdjust="spacing" textLength="56" x="427.5" y="374.5898">Domain</text></g><!--cluster Service--><g id="cluster_Service"><path d="M454,93.5547 L505,93.5547 A3.75,3.75 0 0 1 507.5,96.0547 L514.5,116.043 L1189,116.043 A2.5,2.5 0 0 1 1191.5,118.543 L1191.5,305.0547 A2.5,2.5 0 0 1 1189,307.5547 L454,307.5547 A2.5,2.5 0 0 1 451.5,305.0547 L451.5,96.0547 A2.5,2.5 0 0 1 454,93.5547 " fill="none" style="stroke:#000000;stroke-width:1.5;"/><line style="stroke:#000000;stroke-width:1.5;" x1="451.5" x2="514.5" y1="116.043" y2="116.043"/><text fill="#000000" font-family="sans-serif" font-size="14" font-weight="bold" lengthAdjust="spacing" textLength="50" x="455.5" y="109.0898">Service</text></g><!--class ASTVisitor--><a href="DotNetPreAdapter.Domain.ASTVisitor-diagram-detailed.svg" target="_top" title="DotNetPreAdapter.Domain.ASTVisitor-diagram-detailed.svg" xlink:actuate="onRequest" xlink:href="DotNetPreAdapter.Domain.ASTVisitor-diagram-detailed.svg" xlink:show="new" xlink:title="DotNetPreAdapter.Domain.ASTVisitor-diagram-detailed.svg" xlink:type="simple"><g id="elem_ASTVisitor"><rect codeLine="6" fill="#F1F1F1" height="582.1602" id="ASTVisitor" rx="2.5" ry="2.5" style="stroke:#181818;stroke-width:0.5;" width="746" x="439.5" y="394.0547"/><ellipse cx="772.75" cy="410.0547" fill="#A9DCDF" rx="11" ry="11" style="stroke:#181818;stroke-width:1.0;"/><path d="M772.6133,405.4028 L771.4595,410.4746 L773.7754,410.4746 Z M771.1191,403.1616 L774.1157,403.1616 L777.4609,415.5547 L775.0122,415.5547 L774.2485,412.4917 L770.9697,412.4917 L770.2227,415.5547 L767.7739,415.5547 Z " fill="#000000"/><text fill="#000000" font-family="sans-serif" font-size="14" font-style="italic" lengthAdjust="spacing" textLength="71" x="793.25" y="415.3457">ASTVisitor</text><line style="stroke:#181818;stroke-width:0.5;" x1="440.5" x2="1184.5" y1="426.0547" y2="426.0547"/><ellipse cx="450.5" cy="439.7988" fill="none" rx="3" ry="3" style="stroke:#038048;stroke-width:1.0;"/><text fill="#000000" font-family="sans-serif" font-size="14" lengthAdjust="spacing" textLength="378" x="459.5" y="443.5898">datastructure: DotNetPreAdapter.Domain.Datastructure</text><ellipse cx="450.5" cy="456.2871" fill="none" rx="3" ry="3" style="stroke:#038048;stroke-width:1.0;"/><text fill="#000000" font-family="sans-serif" font-size="14" lengthAdjust="spacing" textLength="155" x="459.5" y="460.0781">model: SemanticModel</text><ellipse cx="450.5" cy="472.7754" fill="none" rx="3" ry="3" style="stroke:#038048;stroke-width:1.0;"/><text fill="#000000" font-family="sans-serif" font-size="14" lengthAdjust="spacing" textLength="195" x="459.5" y="476.5664">usingDict: dict[string, string]</text><ellipse cx="450.5" cy="489.2637" fill="none" rx="3" ry="3" style="stroke:#038048;stroke-width:1.0;"/><text fill="#000000" font-family="sans-serif" font-size="14" lengthAdjust="spacing" textLength="263" x="459.5" y="493.0547">logger: DotNetPreAdapter.Utils.Logger</text><line style="stroke:#181818;stroke-width:1.0;" x1="440.5" x2="1184.5" y1="500.0078" y2="500.0078"/><line style="stroke:#181818;stroke-width:1.0;" x1="440.5" x2="1184.5" y1="502.0078" y2="502.0078"/><rect fill="#F24D5C" height="6" style="stroke:#C82930;stroke-width:1.0;" width="6" x="447.5" y="510.752"/><text fill="#000000" font-family="sans-serif" font-size="14" lengthAdjust="spacing" textLength="92" x="459.5" y="517.543">SimplifyType(</text><text fill="#000000" font-family="sans-serif" font-size="14" lengthAdjust="spacing" textLength="9" x="551.5" y="517.543">):</text><text fill="#BB6060" font-family="sans-serif" font-size="14" lengthAdjust="spacing" textLength="40" x="564.5" y="517.543">string</text><line style="stroke:#181818;stroke-width:1.0;" x1="440.5" x2="1184.5" y1="524.4961" y2="524.4961"/><ellipse cx="450.5" cy="538.2402" fill="#84BE84" rx="3" ry="3" style="stroke:#038048;stroke-width:1.0;"/><text fill="#000000" font-family="sans-serif" font-size="14" lengthAdjust="spacing" textLength="87" x="459.5" y="542.0313">SyntaxNode(</text><text fill="#6060BB" font-family="sans-serif" font-size="14" lengthAdjust="spacing" textLength="121" x="546.5" y="542.0313">node:SyntaxNode</text><text fill="#000000" font-family="sans-serif" font-size="14" lengthAdjust="spacing" textLength="9" x="667.5" y="542.0313">):</text><text fill="#BB6060" font-family="sans-serif" font-size="14" lengthAdjust="spacing" textLength="40" x="680.5" y="542.0313">string</text><rect fill="none" height="6" style="stroke:#C82930;stroke-width:1.0;" width="6" x="447.5" y="551.7285"/><text fill="#909090" font-family="sans-serif" font-size="14" lengthAdjust="spacing" textLength="282" x="459.5" y="558.5195">SyntaxNode.convertedType: ITypeSymbol</text><line style="stroke:#181818;stroke-width:1.0;" x1="440.5" x2="1184.5" y1="565.4727" y2="565.4727"/><rect fill="#F24D5C" height="6" style="stroke:#C82930;stroke-width:1.0;" width="6" x="447.5" y="576.2168"/><text fill="#000000" font-family="sans-serif" font-size="14" lengthAdjust="spacing" textLength="156" x="459.5" y="583.0078">GetCurrentClassName(</text><text fill="#000000" font-family="sans-serif" font-size="14" lengthAdjust="spacing" textLength="9" x="615.5" y="583.0078">):</text><text fill="#BB6060" font-family="sans-serif" font-size="14" lengthAdjust="spacing" textLength="40" x="628.5" y="583.0078">string</text><line style="stroke:#181818;stroke-width:1.0;" x1="440.5" x2="1184.5" y1="589.9609" y2="589.9609"/><rect fill="#F24D5C" height="6" style="stroke:#C82930;stroke-width:1.0;" width="6" x="447.5" y="600.7051"/><text fill="#000000" font-family="sans-serif" font-size="14" lengthAdjust="spacing" textLength="146" x="459.5" y="607.4961">CreateClassInterface(</text><text fill="#6060BB" font-family="sans-serif" font-size="14" lengthAdjust="spacing" textLength="48" x="605.5" y="607.4961">node:T</text><text fill="#000000" font-family="sans-serif" font-size="14" lengthAdjust="spacing" textLength="9" x="653.5" y="607.4961">):</text><text fill="#BB6060" font-family="sans-serif" font-size="14" lengthAdjust="spacing" textLength="217" x="666.5" y="607.4961">Tuple[SubDataStructure, string]</text><rect fill="none" height="6" style="stroke:#C82930;stroke-width:1.0;" width="6" x="447.5" y="617.1934"/><text fill="#909090" font-family="sans-serif" font-size="14" lengthAdjust="spacing" textLength="720" x="459.5" y="623.9844">CreateClassInterface.parentSubDataStructure: DotNetPreAdapter.Domain.Datastructure.SubDataStructure</text><rect fill="none" height="6" style="stroke:#C82930;stroke-width:1.0;" width="6" x="447.5" y="633.6816"/><text fill="#909090" font-family="sans-serif" font-size="14" lengthAdjust="spacing" textLength="674" x="459.5" y="640.4727">CreateClassInterface.subDataStructure: DotNetPreAdapter.Domain.Datastructure.SubDataStructure</text><rect fill="none" height="6" style="stroke:#C82930;stroke-width:1.0;" width="6" x="447.5" y="650.1699"/><text fill="#909090" font-family="sans-serif" font-size="14" lengthAdjust="spacing" textLength="298" x="459.5" y="656.9609">CreateClassInterface.tmpBase: ITypeSymbol</text><line style="stroke:#181818;stroke-width:1.0;" x1="440.5" x2="1184.5" y1="663.9141" y2="663.9141"/><rect fill="#F24D5C" height="6" style="stroke:#C82930;stroke-width:1.0;" width="6" x="447.5" y="674.6582"/><text fill="#000000" font-family="sans-serif" font-size="14" lengthAdjust="spacing" textLength="135" x="459.5" y="681.4492">getCurrentContext(</text><text fill="#000000" font-family="sans-serif" font-size="14" lengthAdjust="spacing" textLength="9" x="594.5" y="681.4492">):</text><text fill="#BB6060" font-family="sans-serif" font-size="14" lengthAdjust="spacing" textLength="40" x="607.5" y="681.4492">string</text><rect fill="#F24D5C" height="6" style="stroke:#C82930;stroke-width:1.0;" width="6" x="447.5" y="691.1465"/><text fill="#000000" font-family="sans-serif" font-size="14" lengthAdjust="spacing" textLength="179" x="459.5" y="697.9375">ArgumentsTupleToString(</text><text fill="#6060BB" font-family="sans-serif" font-size="14" lengthAdjust="spacing" textLength="335" x="638.5" y="697.9375">arguments_tuple:list[Tuple[string, string, string]]</text><text fill="#000000" font-family="sans-serif" font-size="14" lengthAdjust="spacing" textLength="9" x="973.5" y="697.9375">):</text><text fill="#BB6060" font-family="sans-serif" font-size="14" lengthAdjust="spacing" textLength="40" x="986.5" y="697.9375">string</text><rect fill="#F24D5C" height="6" style="stroke:#C82930;stroke-width:1.0;" width="6" x="447.5" y="707.6348"/><text fill="#000000" font-family="sans-serif" font-size="14" lengthAdjust="spacing" textLength="107" x="459.5" y="714.4258">cleanForRegEx(</text><text fill="#000000" font-family="sans-serif" font-size="14" lengthAdjust="spacing" textLength="9" x="566.5" y="714.4258">):</text><text fill="#BB6060" font-family="sans-serif" font-size="14" lengthAdjust="spacing" textLength="40" x="579.5" y="714.4258">string</text><ellipse cx="450.5" cy="727.123" fill="#84BE84" rx="3" ry="3" style="stroke:#038048;stroke-width:1.0;"/><text fill="#000000" font-family="sans-serif" font-size="14" lengthAdjust="spacing" textLength="190" x="459.5" y="730.9141">VisitNamespaceDeclaration(</text><text fill="#6060BB" font-family="sans-serif" font-size="14" lengthAdjust="spacing" textLength="241" x="649.5" y="730.9141">node:NamespaceDeclarationSyntax</text><text fill="#000000" font-family="sans-serif" font-size="14" lengthAdjust="spacing" textLength="9" x="890.5" y="730.9141">):</text><text fill="#BB6060" font-family="sans-serif" font-size="14" lengthAdjust="spacing" textLength="29" x="903.5" y="730.9141">void</text><ellipse cx="450.5" cy="743.6113" fill="#84BE84" rx="3" ry="3" style="stroke:#038048;stroke-width:1.0;"/><text fill="#000000" font-family="sans-serif" font-size="14" lengthAdjust="spacing" textLength="132" x="459.5" y="747.4023">VisitUsingDirective(</text><text fill="#6060BB" font-family="sans-serif" font-size="14" lengthAdjust="spacing" textLength="183" x="591.5" y="747.4023">node:UsingDirectiveSyntax</text><text fill="#000000" font-family="sans-serif" font-size="14" lengthAdjust="spacing" textLength="9" x="774.5" y="747.4023">):</text><text fill="#BB6060" font-family="sans-serif" font-size="14" lengthAdjust="spacing" textLength="29" x="787.5" y="747.4023">void</text><ellipse cx="450.5" cy="760.0996" fill="#84BE84" rx="3" ry="3" style="stroke:#038048;stroke-width:1.0;"/><text fill="#000000" font-family="sans-serif" font-size="14" lengthAdjust="spacing" textLength="151" x="459.5" y="763.8906">VisitEnumDeclaration(</text><text fill="#6060BB" font-family="sans-serif" font-size="14" lengthAdjust="spacing" textLength="202" x="610.5" y="763.8906">node:EnumDeclarationSyntax</text><text fill="#000000" font-family="sans-serif" font-size="14" lengthAdjust="spacing" textLength="9" x="812.5" y="763.8906">):</text><text fill="#BB6060" font-family="sans-serif" font-size="14" lengthAdjust="spacing" textLength="29" x="825.5" y="763.8906">void</text><ellipse cx="450.5" cy="776.5879" fill="#84BE84" rx="3" ry="3" style="stroke:#038048;stroke-width:1.0;"/><text fill="#000000" font-family="sans-serif" font-size="14" lengthAdjust="spacing" textLength="172" x="459.5" y="780.3789">VisitInterfaceDeclaration(</text><text fill="#6060BB" font-family="sans-serif" font-size="14" lengthAdjust="spacing" textLength="223" x="631.5" y="780.3789">node:InterfaceDeclarationSyntax</text><text fill="#000000" font-family="sans-serif" font-size="14" lengthAdjust="spacing" textLength="9" x="854.5" y="780.3789">):</text><text fill="#BB6060" font-family="sans-serif" font-size="14" lengthAdjust="spacing" textLength="29" x="867.5" y="780.3789">void</text><ellipse cx="450.5" cy="793.0762" fill="#84BE84" rx="3" ry="3" style="stroke:#038048;stroke-width:1.0;"/><text fill="#000000" font-family="sans-serif" font-size="14" lengthAdjust="spacing" textLength="148" x="459.5" y="796.8672">VisitClassDeclaration(</text><text fill="#6060BB" font-family="sans-serif" font-size="14" lengthAdjust="spacing" textLength="199" x="607.5" y="796.8672">node:ClassDeclarationSyntax</text><text fill="#000000" font-family="sans-serif" font-size="14" lengthAdjust="spacing" textLength="9" x="806.5" y="796.8672">):</text><text fill="#BB6060" font-family="sans-serif" font-size="14" lengthAdjust="spacing" textLength="29" x="819.5" y="796.8672">void</text><line style="stroke:#181818;stroke-width:1.0;" x1="440.5" x2="1184.5" y1="803.8203" y2="803.8203"/><ellipse cx="450.5" cy="817.5645" fill="#84BE84" rx="3" ry="3" style="stroke:#038048;stroke-width:1.0;"/><text fill="#000000" font-family="sans-serif" font-size="14" lengthAdjust="spacing" textLength="164" x="459.5" y="821.3555">VisitMethodDeclaration(</text><text fill="#6060BB" font-family="sans-serif" font-size="14" lengthAdjust="spacing" textLength="215" x="623.5" y="821.3555">node:MethodDeclarationSyntax</text><text fill="#000000" font-family="sans-serif" font-size="14" lengthAdjust="spacing" textLength="9" x="838.5" y="821.3555">):</text><text fill="#BB6060" font-family="sans-serif" font-size="14" lengthAdjust="spacing" textLength="29" x="851.5" y="821.3555">void</text><rect fill="none" height="6" style="stroke:#C82930;stroke-width:1.0;" width="6" x="447.5" y="831.0527"/><text fill="#909090" font-family="sans-serif" font-size="14" lengthAdjust="spacing" textLength="502" x="459.5" y="837.8438">VisitMethodDeclaration.arguments_tuple: list[Tuple[string, string, string]]</text><rect fill="none" height="6" style="stroke:#C82930;stroke-width:1.0;" width="6" x="447.5" y="847.541"/><text fill="#909090" font-family="sans-serif" font-size="14" lengthAdjust="spacing" textLength="416" x="459.5" y="854.332">VisitMethodDeclaration.parameterSymbol: IParameterSymbol</text><rect fill="none" height="6" style="stroke:#C82930;stroke-width:1.0;" width="6" x="447.5" y="864.0293"/><text fill="#909090" font-family="sans-serif" font-size="14" lengthAdjust="spacing" textLength="692" x="459.5" y="870.8203">VisitMethodDeclaration.subDataStructure: DotNetPreAdapter.Domain.Datastructure.SubDataStructure</text><line style="stroke:#181818;stroke-width:1.0;" x1="440.5" x2="1184.5" y1="877.7734" y2="877.7734"/><ellipse cx="450.5" cy="891.5176" fill="#84BE84" rx="3" ry="3" style="stroke:#038048;stroke-width:1.0;"/><text fill="#000000" font-family="sans-serif" font-size="14" lengthAdjust="spacing" textLength="168" x="459.5" y="895.3086">VisitVariableDeclaration(</text><text fill="#6060BB" font-family="sans-serif" font-size="14" lengthAdjust="spacing" textLength="219" x="627.5" y="895.3086">node:VariableDeclarationSyntax</text><text fill="#000000" font-family="sans-serif" font-size="14" lengthAdjust="spacing" textLength="9" x="846.5" y="895.3086">):</text><text fill="#BB6060" font-family="sans-serif" font-size="14" lengthAdjust="spacing" textLength="29" x="859.5" y="895.3086">void</text><rect fill="none" height="6" style="stroke:#C82930;stroke-width:1.0;" width="6" x="447.5" y="905.0059"/><text fill="#909090" font-family="sans-serif" font-size="14" lengthAdjust="spacing" textLength="696" x="459.5" y="911.7969">VisitVariableDeclaration.subDataStructure: DotNetPreAdapter.Domain.Datastructure.SubDataStructure</text><rect fill="none" height="6" style="stroke:#C82930;stroke-width:1.0;" width="6" x="447.5" y="921.4941"/><text fill="#909090" font-family="sans-serif" font-size="14" lengthAdjust="spacing" textLength="320" x="459.5" y="928.2852">VisitVariableDeclaration.aliasInfo: IAliasSymbol</text><rect fill="none" height="6" style="stroke:#C82930;stroke-width:1.0;" width="6" x="447.5" y="937.9824"/><text fill="#909090" font-family="sans-serif" font-size="14" lengthAdjust="spacing" textLength="291" x="459.5" y="944.7734">VisitVariableDeclaration.type: ITypeSymbol</text><rect fill="none" height="6" style="stroke:#C82930;stroke-width:1.0;" width="6" x="447.5" y="954.4707"/><text fill="#909090" font-family="sans-serif" font-size="14" lengthAdjust="spacing" textLength="562" x="459.5" y="961.2617">VisitVariableDeclaration.method: DotNetPreAdapter.Domain.Datastructure.Method</text><line style="stroke:#181818;stroke-width:1.0;" x1="440.5" x2="1184.5" y1="968.2148" y2="968.2148"/></g></a><!--class AnalyzeAST--><a href="DotNetPreAdapter.Service.AnalyzeAST-diagram-detailed.svg" target="_top" title="DotNetPreAdapter.Service.AnalyzeAST-diagram-detailed.svg" xlink:actuate="onRequest" xlink:href="DotNetPreAdapter.Service.AnalyzeAST-diagram-detailed.svg" xlink:show="new" xlink:title="DotNetPreAdapter.Service.AnalyzeAST-diagram-detailed.svg" xlink:type="simple"><g id="elem_AnalyzeAST"><rect codeLine="45" fill="#F1F1F1" height="163.418" id="AnalyzeAST" rx="2.5" ry="2.5" style="stroke:#181818;stroke-width:0.5;" width="707" x="468" y="128.5547"/><ellipse cx="776.75" cy="144.5547" fill="#A9DCDF" rx="11" ry="11" style="stroke:#181818;stroke-width:1.0;"/><path d="M776.6133,139.9028 L775.4595,144.9746 L777.7754,144.9746 Z M775.1191,137.6616 L778.1157,137.6616 L781.4609,150.0547 L779.0122,150.0547 L778.2485,146.9917 L774.9697,146.9917 L774.2227,150.0547 L771.7739,150.0547 Z " fill="#000000"/><text fill="#000000" font-family="sans-serif" font-size="14" font-style="italic" lengthAdjust="spacing" textLength="81" x="797.25" y="149.8457">AnalyzeAST</text><line style="stroke:#181818;stroke-width:0.5;" x1="469" x2="1174" y1="160.5547" y2="160.5547"/><ellipse cx="479" cy="174.2988" fill="#84BE84" rx="3" ry="3" style="stroke:#038048;stroke-width:1.0;"/><text fill="#000000" font-family="sans-serif" font-size="14" lengthAdjust="spacing" textLength="211" x="488" y="178.0898">SearchRecurseCSharpToYAML(</text><text fill="#6060BB" font-family="sans-serif" font-size="14" lengthAdjust="spacing" textLength="259" x="699" y="178.0898">logger:DotNetPreAdapter.Utils.Logger</text><text fill="#000000" font-family="sans-serif" font-size="14" lengthAdjust="spacing" textLength="9" x="958" y="178.0898">):</text><text fill="#BB6060" font-family="sans-serif" font-size="14" lengthAdjust="spacing" textLength="29" x="971" y="178.0898">void</text><rect fill="none" height="6" style="stroke:#C82930;stroke-width:1.0;" width="6" x="476" y="187.7871"/><text fill="#909090" font-family="sans-serif" font-size="14" lengthAdjust="spacing" textLength="588" x="488" y="194.5781">SearchRecurseCSharpToYAML.datastructure: DotNetPreAdapter.Domain.Datastructure</text><rect fill="none" height="6" style="stroke:#C82930;stroke-width:1.0;" width="6" x="476" y="204.2754"/><text fill="#909090" font-family="sans-serif" font-size="14" lengthAdjust="spacing" textLength="681" x="488" y="211.0664">SearchRecurseCSharpToYAML.recurseFileProcess: DotNetPreAdapter.Service.RecursiveFileProcessor</text><rect fill="none" height="6" style="stroke:#C82930;stroke-width:1.0;" width="6" x="476" y="220.7637"/><text fill="#909090" font-family="sans-serif" font-size="14" lengthAdjust="spacing" textLength="322" x="488" y="227.5547">SearchRecurseCSharpToYAML.tree: SyntaxTree</text><rect fill="none" height="6" style="stroke:#C82930;stroke-width:1.0;" width="6" x="476" y="237.252"/><text fill="#909090" font-family="sans-serif" font-size="14" lengthAdjust="spacing" textLength="405" x="488" y="244.043">SearchRecurseCSharpToYAML.root: CompilationUnitSyntax</text><rect fill="none" height="6" style="stroke:#C82930;stroke-width:1.0;" width="6" x="476" y="253.7402"/><text fill="#909090" font-family="sans-serif" font-size="14" lengthAdjust="spacing" textLength="365" x="488" y="260.5313">SearchRecurseCSharpToYAML.model: SemanticModel</text><rect fill="none" height="6" style="stroke:#C82930;stroke-width:1.0;" width="6" x="476" y="270.2285"/><text fill="#909090" font-family="sans-serif" font-size="14" lengthAdjust="spacing" textLength="516" x="488" y="277.0195">SearchRecurseCSharpToYAML.visitor: DotNetPreAdapter.Domain.ASTVisitor</text><line style="stroke:#181818;stroke-width:1.0;" x1="469" x2="1174" y1="283.9727" y2="283.9727"/></g></a><g id="elem_FloatingNote"><path d="M6,86.0547 L6,333.7129 L383,333.7129 L383,96.0547 L373,86.0547 L6,86.0547 " fill="#FEFFDD" style="stroke:#181818;stroke-width:0.5;"/><path d="M373,86.0547 L373,96.0547 L383,96.0547 L373,86.0547 " fill="#FEFFDD" style="stroke:#181818;stroke-width:1.0;"/><text fill="#000000" font-family="sans-serif" font-size="13" lengthAdjust="spacing" textLength="120" x="12" y="103.623">Your are analyzing:</text><text fill="#000000" font-family="sans-serif" font-size="13" lengthAdjust="spacing" textLength="95" x="12" y="118.9336">SemanticModel</text><text fill="#000000" font-family="sans-serif" font-size="13" font-weight="bold" lengthAdjust="spacing" textLength="55" x="111" y="118.9336">detailed</text><text fill="#000000" font-family="sans-serif" font-size="13" lengthAdjust="spacing" textLength="4" x="166" y="118.9336">&#160;</text><text fill="#000000" font-family="sans-serif" font-size="13" lengthAdjust="spacing" textLength="4" x="12" y="134.2441">&#160;</text><text fill="#000000" font-family="sans-serif" font-size="13" lengthAdjust="spacing" textLength="229" x="12" y="164.8652">You can click either the namespaces</text><text fill="#000000" font-family="sans-serif" font-size="13" lengthAdjust="spacing" textLength="266" x="12" y="180.1758">or class names for filtering them and their</text><text fill="#000000" font-family="sans-serif" font-size="13" lengthAdjust="spacing" textLength="130" x="12" y="195.4863">direct dependencies.</text><text fill="#000000" font-family="sans-serif" font-size="13" lengthAdjust="spacing" textLength="4" x="12" y="210.7969">&#160;</text><line style="stroke:#181818;stroke-width:1.0;" x1="7" x2="178.5" y1="144.6416" y2="144.6416"/><line style="stroke:#181818;stroke-width:1.0;" x1="7" x2="178.5" y1="146.6416" y2="146.6416"/><text fill="#000000" font-family="sans-serif" font-size="13" lengthAdjust="spacing" textLength="32" x="178.5" y="149.0547">Filter</text><line style="stroke:#181818;stroke-width:1.0;" x1="210.5" x2="382" y1="144.6416" y2="144.6416"/><line style="stroke:#181818;stroke-width:1.0;" x1="210.5" x2="382" y1="146.6416" y2="146.6416"/><ellipse cx="17.5" cy="240.6602" fill="#000000" rx="2.5" ry="2.5" style="stroke:#000000;stroke-width:0.0;"/><text fill="#000000" font-family="sans-serif" font-size="13" lengthAdjust="spacing" textLength="95" x="24" y="245.418">SemanticModel</text><text fill="#000000" font-family="sans-serif" font-size="13" font-weight="bold" lengthAdjust="spacing" textLength="67" x="123" y="245.418">simplified</text><text fill="#000000" font-family="sans-serif" font-size="13" lengthAdjust="spacing" textLength="4" x="194" y="245.418">:</text><text fill="#000000" font-family="sans-serif" font-size="13" lengthAdjust="spacing" textLength="12" x="12" y="260.7285">&#160;&#160;&#160;</text><a href="SemanticModel-diagram-simplified.svg" target="_top" title="SemanticModel-diagram-simplified.svg" xlink:actuate="onRequest" xlink:href="SemanticModel-diagram-simplified.svg" xlink:show="new" xlink:title="SemanticModel-diagram-simplified.svg" xlink:type="simple"><text fill="#0000FF" font-family="sans-serif" font-size="13" lengthAdjust="spacing" text-decoration="underline" textLength="251" x="24" y="260.7285">SemanticModel-diagram-simplified.svg</text></a><ellipse cx="17.5" cy="271.2813" fill="#000000" rx="2.5" ry="2.5" style="stroke:#000000;stroke-width:0.0;"/><text fill="#000000" font-family="sans-serif" font-size="13" lengthAdjust="spacing" textLength="78" x="24" y="276.0391">Full diagram</text><text fill="#000000" font-family="sans-serif" font-size="13" font-weight="bold" lengthAdjust="spacing" textLength="55" x="106" y="276.0391">detailed</text><text fill="#000000" font-family="sans-serif" font-size="13" lengthAdjust="spacing" textLength="23" x="165" y="276.0391">and</text><text fill="#000000" font-family="sans-serif" font-size="13" font-weight="bold" lengthAdjust="spacing" textLength="166" x="192" y="276.0391">grouped per namespace</text><text fill="#000000" font-family="sans-serif" font-size="13" lengthAdjust="spacing" textLength="4" x="358" y="276.0391">:</text><text fill="#000000" font-family="sans-serif" font-size="13" lengthAdjust="spacing" textLength="12" x="12" y="291.3496">&#160;&#160;&#160;</text><a href="full-diagram-detailed-grouped-per-namespace.svg" target="_top" title="full-diagram-detailed-grouped-per-namespace.svg" xlink:actuate="onRequest" xlink:href="full-diagram-detailed-grouped-per-namespace.svg" xlink:show="new" xlink:title="full-diagram-detailed-grouped-per-namespace.svg" xlink:type="simple"><text fill="#0000FF" font-family="sans-serif" font-size="13" lengthAdjust="spacing" text-decoration="underline" textLength="330" x="24" y="291.3496">full-diagram-detailed-grouped-per-namespace.svg</text></a><ellipse cx="17.5" cy="301.9023" fill="#000000" rx="2.5" ry="2.5" style="stroke:#000000;stroke-width:0.0;"/><text fill="#000000" font-family="sans-serif" font-size="13" lengthAdjust="spacing" textLength="41" x="24" y="306.6602">Home:</text><text fill="#000000" font-family="sans-serif" font-size="13" lengthAdjust="spacing" textLength="12" x="12" y="321.9707">&#160;&#160;&#160;</text><a href="index.html" target="_top" title="index.html" xlink:actuate="onRequest" xlink:href="index.html" xlink:show="new" xlink:title="index.html" xlink:type="simple"><text fill="#0000FF" font-family="sans-serif" font-size="13" lengthAdjust="spacing" text-decoration="underline" textLength="68" x="24" y="321.9707">index.html</text></a><line style="stroke:#181818;stroke-width:1.0;" x1="7" x2="157.5" y1="225.1943" y2="225.1943"/><line style="stroke:#181818;stroke-width:1.0;" x1="7" x2="157.5" y1="227.1943" y2="227.1943"/><text fill="#000000" font-family="sans-serif" font-size="13" lengthAdjust="spacing" textLength="74" x="157.5" y="229.6074">Select other</text><line style="stroke:#181818;stroke-width:1.0;" x1="231.5" x2="382" y1="225.1943" y2="225.1943"/><line style="stroke:#181818;stroke-width:1.0;" x1="231.5" x2="382" y1="227.1943" y2="227.1943"/></g><!--class SemanticModel--><a href="SemanticModel-diagram-detailed.svg" target="_top" title="SemanticModel-diagram-detailed.svg" xlink:actuate="onRequest" xlink:href="SemanticModel-diagram-detailed.svg" xlink:show="new" xlink:title="SemanticModel-diagram-detailed.svg" xlink:type="simple"><g id="elem_SemanticModel"><rect codeLine="4" fill="#FFFF00" height="48" id="SemanticModel" rx="2.5" ry="2.5" style="stroke:#181818;stroke-width:0.5;" width="136" x="957.5" y="1036.0547"/><ellipse cx="972.5" cy="1052.0547" fill="#ADD1B2" rx="11" ry="11" style="stroke:#181818;stroke-width:1.0;"/><path d="M974.9731,1058.1978 Q974.3921,1058.4966 973.7529,1058.646 Q973.1138,1058.7954 972.4082,1058.7954 Q969.9014,1058.7954 968.5815,1057.1436 Q967.2617,1055.4917 967.2617,1052.3706 Q967.2617,1049.2412 968.5815,1047.5894 Q969.9014,1045.9375 972.4082,1045.9375 Q973.1138,1045.9375 973.7612,1046.0869 Q974.4087,1046.2363 974.9731,1046.5352 L974.9731,1049.2578 Q974.3423,1048.6768 973.7488,1048.407 Q973.1553,1048.1372 972.5244,1048.1372 Q971.1797,1048.1372 970.4949,1049.2039 Q969.8101,1050.2705 969.8101,1052.3706 Q969.8101,1054.4624 970.4949,1055.5291 Q971.1797,1056.5957 972.5244,1056.5957 Q973.1553,1056.5957 973.7488,1056.3259 Q974.3423,1056.0562 974.9731,1055.4751 Z " fill="#000000"/><text fill="#000000" font-family="sans-serif" font-size="14" lengthAdjust="spacing" textLength="104" x="986.5" y="1057.3457">SemanticModel</text><line style="stroke:#181818;stroke-width:0.5;" x1="958.5" x2="1092.5" y1="1068.0547" y2="1068.0547"/><line style="stroke:#181818;stroke-width:0.5;" x1="958.5" x2="1092.5" y1="1076.0547" y2="1076.0547"/></g></a><!--reverse link ASTVisitor to SemanticModel--><g id="link_ASTVisitor_SemanticModel"><path codeLine="62" d="M1025.5,990.3647 C1025.5,990.3647 1025.5,1035.7547 1025.5,1035.7547 " fill="none" id="ASTVisitor-backto-SemanticModel" style="stroke:#10BB10;stroke-width:1.0;"/><polygon fill="#10BB10" points="1025.5,977.3647,1021.5,983.3647,1025.5,989.3647,1029.5,983.3647,1025.5,977.3647" style="stroke:#10BB10;stroke-width:1.0;"/></g><!--link AnalyzeAST to SemanticModel--><g id="link_AnalyzeAST_SemanticModel"><path codeLine="65" d="M1175.41,210.0547 C1192.97,210.0547 1203.5,210.0547 1203.5,210.0547 C1203.5,210.0547 1203.5,1060.0547 1203.5,1060.0547 C1203.5,1060.0547 1099.81,1060.0547 1099.81,1060.0547 " fill="none" id="AnalyzeAST-to-SemanticModel" style="stroke:#909090;stroke-width:1.0;"/><polygon fill="#909090" points="1094.81,1060.0547,1103.81,1064.0547,1099.81,1060.0547,1103.81,1056.0547,1094.81,1060.0547" style="stroke:#909090;stroke-width:1.0;"/><text fill="#000000" font-family="sans-serif" font-size="13" lengthAdjust="spacing" textLength="29" x="1204.5" y="669.423">uses</text></g><!--link AnalyzeAST to ASTVisitor--><g id="link_AnalyzeAST_ASTVisitor"><path codeLine="66" d="M821.5,291.9847 C821.5,291.9847 821.5,387.6047 821.5,387.6047 " fill="none" id="AnalyzeAST-to-ASTVisitor" style="stroke:#909090;stroke-width:1.0;"/><polygon fill="#909090" points="821.5,392.6047,825.5,383.6047,821.5,387.6047,817.5,383.6047,821.5,392.6047" style="stroke:#909090;stroke-width:1.0;"/><text fill="#000000" font-family="sans-serif" font-size="13" lengthAdjust="spacing" textLength="29" x="791.5" y="336.363">uses</text></g><!--SRC=[nLXjRzis4FxkNt5mFtHp9pNTXm8JOWEEqsm56YEed0A5RGoCTBQ9KgH0KcxSOVzz9z4lbIh7Ykrj2H0xudFtt3j9cIzSfaop10INQ5SfWj9seLgMMu5mQVWt37wzw8MOC6bvTAjY5D3fn6WP5nXtEd3vEWVrMb9PXFPdbMbW6e599bRVk9m74_c4z4HEPBTxmuL5tUrE9Cb3n2H4WaTV0BbTe0Rw0v8bQ58MeI4PfGd0Z75FOKR_pmeLn9UZ4wAFyozSJsJCDKOMOanHnYWZZiPtj26AV4Nb93bv1wgM6fwaWizuOIjv0W3ZSGdanPpDAO3U3kgRvNmwpTNTP4B06b3sExUlqvbhbQKOGqfERXtiT3P4CnBVwjy8UsiXZuIyhT2Eym-Lu4O19uSV_OLDn7JQ1cRWHYXcAKX3IbRBXR3iyZxlDkoE1rwiK0Zr5Vvg_Tq2O0_6QaQHT1glbHsYlTFOZrbAIV6lLSAuzFlXw1Ctt5AsnkF3e7tSH4hEmIk8cML4d4KsqnZifRt-7hOMJNBdWhBlwwNCK7okUMG3obnanoHA3tu1zpbTeuIQpr7NaDvRBep_eLXkTRi5t8FG5STgH1tsq-LCIOgL4aftssyltbvSNRLxbw_pfxsV0oWjNrtbW7RFiQz1BSzRcn6kf6MFGpA_NgkabM07UXQ9ixm4_EqY_sttTXhzICabQejnxbe0x_EFS9KyA54nreFVqGuohL7QGLudGwhTyyN2Wu56Ph5G_LvIAcRK5az4PNI0PPIb0iTXzf3NJxYfdsqTD8XIdK4-JLiAG5Ljm-hrgtB7Mc7-PtwRf5VC7AYN-QvUQ04VxHcgnMdkwtcMa5vJ97camW9Jhvvji7_Q71m8RkpO5KTvD6nBOtg4HP509c-K_eZpTuzdylCL59DqkDaZhf7ciwRvh-GJVL47T_r-m82bud4D_RsRf_aUp9TFDMGPU0hbEvabpPoj84yXtHPtC-Ow-2dqHOCrewv2dqsxtNuAvbka0sFSZFe7x54kxvaqzTRurGQ6vXry15jncaRAhHjgDE7koa-ELttkeLrEuoUcENiG3Skt1dtsLDPm_9SRrruRcE2CzhAPekJsy-_FIsoTIhlly7ICigIedAQHSNLMgeacP_eGzPBJJjulxdb8n_QwG_sFg8Ed-X2PZXOVCSgqmK6uO3eTgS_zsm_rrRW-Y3zv3ZzFJUurp3_c8d8IeNRFwDgCTrhHdTW4-pFa5D2M-XrSwPFuhKRoqpNyYBwVvenITDSQg2JbeYZWUybjQPWSfxVkZdUImgMxbmODBhZLTdf9b_r6F_2lOLz2iU-3HXTb0tIYpZiSOvXfbUnUG0I4VIPyJqHQ3Lu5TBpnYpVKocykfbxbPSIfHgmxeDLaU94LhWAcNgzY1WIG6JJmV3qDtDye_mS0]--></g></svg>