<?xml version="1.0" encoding="us-ascii" standalone="no"?><svg xmlns="http://www.w3.org/2000/svg" xmlns:xlink="http://www.w3.org/1999/xlink" contentStyleType="text/css" height="644px" preserveAspectRatio="none" style="width:1208px;height:644px;background:#FFFFFF;" version="1.1" viewBox="0 0 1208 644" width="1208px" zoomAndPan="magnify"><defs/><g><text fill="#000000" font-family="sans-serif" font-size="20" font-weight="bold" lengthAdjust="spacing" textLength="101" x="497.75" y="29.3359">System.IO</text><text fill="#000000" font-family="sans-serif" font-size="20" font-weight="bold" lengthAdjust="spacing" textLength="84" x="605.75" y="29.3359">detailed</text><text fill="#000000" font-family="sans-serif" font-size="20" font-weight="bold" lengthAdjust="spacing" textLength="7" x="689.75" y="29.3359">&#160;</text><!--cluster System--><g id="cluster_System"><path d="M711,471.5547 L764,471.5547 A3.75,3.75 0 0 1 766.5,474.0547 L773.5,494.043 L890,494.043 A2.5,2.5 0 0 1 892.5,496.543 L892.5,635.0547 A2.5,2.5 0 0 1 890,637.5547 L711,637.5547 A2.5,2.5 0 0 1 708.5,635.0547 L708.5,474.0547 A2.5,2.5 0 0 1 711,471.5547 " fill="none" style="stroke:#000000;stroke-width:1.5;"/><line style="stroke:#000000;stroke-width:1.5;" x1="708.5" x2="773.5" y1="494.043" y2="494.043"/><text fill="#000000" font-family="sans-serif" font-size="14" font-weight="bold" lengthAdjust="spacing" textLength="52" x="712.5" y="487.0898">System</text></g><!--cluster IO--><g id="cluster_IO"><path d="M735,514.5547 L753,514.5547 A3.75,3.75 0 0 1 755.5,517.0547 L762.5,537.043 L866,537.043 A2.5,2.5 0 0 1 868.5,539.543 L868.5,611.0547 A2.5,2.5 0 0 1 866,613.5547 L735,613.5547 A2.5,2.5 0 0 1 732.5,611.0547 L732.5,517.0547 A2.5,2.5 0 0 1 735,514.5547 " fill="none" style="stroke:#000000;stroke-width:1.5;"/><line style="stroke:#000000;stroke-width:1.5;" x1="732.5" x2="762.5" y1="537.043" y2="537.043"/><text fill="#000000" font-family="sans-serif" font-size="14" font-weight="bold" lengthAdjust="spacing" textLength="17" x="736.5" y="530.0898">IO</text></g><!--cluster DotNetPreAdapter--><g id="cluster_DotNetPreAdapter"><path d="M402,50.5547 L533,50.5547 A3.75,3.75 0 0 1 535.5,53.0547 L542.5,73.043 L1199,73.043 A2.5,2.5 0 0 1 1201.5,75.543 L1201.5,445.0547 A2.5,2.5 0 0 1 1199,447.5547 L402,447.5547 A2.5,2.5 0 0 1 399.5,445.0547 L399.5,53.0547 A2.5,2.5 0 0 1 402,50.5547 " fill="none" style="stroke:#000000;stroke-width:1.5;"/><line style="stroke:#000000;stroke-width:1.5;" x1="399.5" x2="542.5" y1="73.043" y2="73.043"/><text fill="#000000" font-family="sans-serif" font-size="14" font-weight="bold" lengthAdjust="spacing" textLength="130" x="403.5" y="66.0898">DotNetPreAdapter</text></g><!--cluster Infrastructure--><g id="cluster_Infrastructure"><path d="M426,93.5547 L526,93.5547 A3.75,3.75 0 0 1 528.5,96.0547 L535.5,116.043 L1175,116.043 A2.5,2.5 0 0 1 1177.5,118.543 L1177.5,421.0547 A2.5,2.5 0 0 1 1175,423.5547 L426,423.5547 A2.5,2.5 0 0 1 423.5,421.0547 L423.5,96.0547 A2.5,2.5 0 0 1 426,93.5547 " fill="none" style="stroke:#000000;stroke-width:1.5;"/><line style="stroke:#000000;stroke-width:1.5;" x1="423.5" x2="535.5" y1="116.043" y2="116.043"/><text fill="#000000" font-family="sans-serif" font-size="14" font-weight="bold" lengthAdjust="spacing" textLength="99" x="427.5" y="109.0898">Infrastructure</text></g><!--class TextWriter--><a href="System.IO.TextWriter-diagram-detailed.svg" target="_top" title="System.IO.TextWriter-diagram-detailed.svg" xlink:actuate="onRequest" xlink:href="System.IO.TextWriter-diagram-detailed.svg" xlink:show="new" xlink:title="System.IO.TextWriter-diagram-detailed.svg" xlink:type="simple"><g id="elem_TextWriter"><rect codeLine="4" fill="#FFFF00" height="48" id="TextWriter" rx="2.5" ry="2.5" style="stroke:#181818;stroke-width:0.5;" width="104" x="748.5" y="549.5547"/><ellipse cx="763.5" cy="565.5547" fill="#ADD1B2" rx="11" ry="11" style="stroke:#181818;stroke-width:1.0;"/><path d="M765.9731,571.6978 Q765.3921,571.9966 764.7529,572.146 Q764.1138,572.2954 763.4082,572.2954 Q760.9014,572.2954 759.5815,570.6436 Q758.2617,568.9917 758.2617,565.8706 Q758.2617,562.7412 759.5815,561.0894 Q760.9014,559.4375 763.4082,559.4375 Q764.1138,559.4375 764.7612,559.5869 Q765.4087,559.7363 765.9731,560.0352 L765.9731,562.7578 Q765.3423,562.1768 764.7488,561.907 Q764.1553,561.6372 763.5244,561.6372 Q762.1797,561.6372 761.4949,562.7039 Q760.8101,563.7705 760.8101,565.8706 Q760.8101,567.9624 761.4949,569.0291 Q762.1797,570.0957 763.5244,570.0957 Q764.1553,570.0957 764.7488,569.8259 Q765.3423,569.5562 765.9731,568.9751 Z " fill="#000000"/><text fill="#000000" font-family="sans-serif" font-size="14" lengthAdjust="spacing" textLength="72" x="777.5" y="570.8457">TextWriter</text><line style="stroke:#181818;stroke-width:0.5;" x1="749.5" x2="851.5" y1="581.5547" y2="581.5547"/><line style="stroke:#181818;stroke-width:0.5;" x1="749.5" x2="851.5" y1="589.5547" y2="589.5547"/></g></a><!--class CreateYml--><a href="DotNetPreAdapter.Infrastructure.CreateYml-diagram-detailed.svg" target="_top" title="DotNetPreAdapter.Infrastructure.CreateYml-diagram-detailed.svg" xlink:actuate="onRequest" xlink:href="DotNetPreAdapter.Infrastructure.CreateYml-diagram-detailed.svg" xlink:show="new" xlink:title="DotNetPreAdapter.Infrastructure.CreateYml-diagram-detailed.svg" xlink:type="simple"><g id="elem_CreateYml"><rect codeLine="6" fill="#F1F1F1" height="278.8359" id="CreateYml" rx="2.5" ry="2.5" style="stroke:#181818;stroke-width:0.5;" width="722" x="439.5" y="128.5547"/><ellipse cx="760.75" cy="144.5547" fill="#A9DCDF" rx="11" ry="11" style="stroke:#181818;stroke-width:1.0;"/><path d="M760.6133,139.9028 L759.4595,144.9746 L761.7754,144.9746 Z M759.1191,137.6616 L762.1157,137.6616 L765.4609,150.0547 L763.0122,150.0547 L762.2485,146.9917 L758.9697,146.9917 L758.2227,150.0547 L755.7739,150.0547 Z " fill="#000000"/><text fill="#000000" font-family="sans-serif" font-size="14" font-style="italic" lengthAdjust="spacing" textLength="71" x="781.25" y="149.8457">CreateYml</text><line style="stroke:#181818;stroke-width:0.5;" x1="440.5" x2="1160.5" y1="160.5547" y2="160.5547"/><ellipse cx="450.5" cy="174.2988" fill="#84BE84" rx="3" ry="3" style="stroke:#038048;stroke-width:1.0;"/><text fill="#000000" font-family="sans-serif" font-size="14" lengthAdjust="spacing" textLength="50" x="459.5" y="178.0898">Create(</text><text fill="#6060BB" font-family="sans-serif" font-size="14" lengthAdjust="spacing" textLength="641" x="509.5" y="178.0898">datastructure:DotNetPreAdapter.Domain.Datastructure, logger:DotNetPreAdapter.Utils.Logger</text><text fill="#000000" font-family="sans-serif" font-size="14" lengthAdjust="spacing" textLength="5" x="1150.5" y="178.0898">)</text><rect fill="none" height="6" style="stroke:#C82930;stroke-width:1.0;" width="6" x="447.5" y="187.7871"/><text fill="#909090" font-family="sans-serif" font-size="14" lengthAdjust="spacing" textLength="373" x="459.5" y="194.5781">Create.subDatastructureYmlNode: YamlSequenceNode</text><rect fill="none" height="6" style="stroke:#C82930;stroke-width:1.0;" width="6" x="447.5" y="204.2754"/><text fill="#909090" font-family="sans-serif" font-size="14" lengthAdjust="spacing" textLength="578" x="459.5" y="211.0664">Create.subDataStructure: DotNetPreAdapter.Domain.Datastructure.SubDataStructure</text><rect fill="none" height="6" style="stroke:#C82930;stroke-width:1.0;" width="6" x="447.5" y="220.7637"/><text fill="#909090" font-family="sans-serif" font-size="14" lengthAdjust="spacing" textLength="279" x="459.5" y="227.5547">Create.fromImports: YamlSequenceNode</text><rect fill="none" height="6" style="stroke:#C82930;stroke-width:1.0;" width="6" x="447.5" y="237.252"/><text fill="#909090" font-family="sans-serif" font-size="14" lengthAdjust="spacing" textLength="280" x="459.5" y="244.043">Create.innerClasses: YamlSequenceNode</text><rect fill="none" height="6" style="stroke:#C82930;stroke-width:1.0;" width="6" x="447.5" y="253.7402"/><text fill="#909090" font-family="sans-serif" font-size="14" lengthAdjust="spacing" textLength="306" x="459.5" y="260.5313">Create.anonymousCalls: YamlSequenceNode</text><rect fill="none" height="6" style="stroke:#C82930;stroke-width:1.0;" width="6" x="447.5" y="270.2285"/><text fill="#909090" font-family="sans-serif" font-size="14" lengthAdjust="spacing" textLength="276" x="459.5" y="277.0195">Create.baseClasses: YamlSequenceNode</text><rect fill="none" height="6" style="stroke:#C82930;stroke-width:1.0;" width="6" x="447.5" y="286.7168"/><text fill="#909090" font-family="sans-serif" font-size="14" lengthAdjust="spacing" textLength="236" x="459.5" y="293.5078">Create.statics: YamlSequenceNode</text><rect fill="none" height="6" style="stroke:#C82930;stroke-width:1.0;" width="6" x="447.5" y="303.2051"/><text fill="#909090" font-family="sans-serif" font-size="14" lengthAdjust="spacing" textLength="254" x="459.5" y="309.9961">Create.variables: YamlSequenceNode</text><rect fill="none" height="6" style="stroke:#C82930;stroke-width:1.0;" width="6" x="447.5" y="319.6934"/><text fill="#909090" font-family="sans-serif" font-size="14" lengthAdjust="spacing" textLength="253" x="459.5" y="326.4844">Create.methods: YamlSequenceNode</text><rect fill="none" height="6" style="stroke:#C82930;stroke-width:1.0;" width="6" x="447.5" y="336.1816"/><text fill="#909090" font-family="sans-serif" font-size="14" lengthAdjust="spacing" textLength="271" x="459.5" y="342.9727">Create.parameters: YamlSequenceNode</text><rect fill="none" height="6" style="stroke:#C82930;stroke-width:1.0;" width="6" x="447.5" y="352.6699"/><text fill="#909090" font-family="sans-serif" font-size="14" lengthAdjust="spacing" textLength="309" x="459.5" y="359.4609">Create.methodVariables: YamlSequenceNode</text><rect fill="none" height="6" style="stroke:#C82930;stroke-width:1.0;" width="6" x="447.5" y="369.1582"/><text fill="#909090" font-family="sans-serif" font-size="14" lengthAdjust="spacing" textLength="186" x="459.5" y="375.9492">Create.stream: YamlStream</text><rect fill="none" height="6" style="stroke:#C82930;stroke-width:1.0;" width="6" x="447.5" y="385.6465"/><text fill="#909090" font-family="sans-serif" font-size="14" lengthAdjust="spacing" textLength="240" x="459.5" y="392.4375">Create.writer: System.IO.TextWriter</text><line style="stroke:#181818;stroke-width:1.0;" x1="440.5" x2="1160.5" y1="399.3906" y2="399.3906"/></g></a><g id="elem_FloatingNote"><path d="M6,144.0547 L6,391.7129 L383,391.7129 L383,154.0547 L373,144.0547 L6,144.0547 " fill="#FEFFDD" style="stroke:#181818;stroke-width:0.5;"/><path d="M373,144.0547 L373,154.0547 L383,154.0547 L373,144.0547 " fill="#FEFFDD" style="stroke:#181818;stroke-width:1.0;"/><text fill="#000000" font-family="sans-serif" font-size="13" lengthAdjust="spacing" textLength="120" x="12" y="161.623">Your are analyzing:</text><text fill="#000000" font-family="sans-serif" font-size="13" lengthAdjust="spacing" textLength="63" x="12" y="176.9336">System.IO</text><text fill="#000000" font-family="sans-serif" font-size="13" font-weight="bold" lengthAdjust="spacing" textLength="55" x="79" y="176.9336">detailed</text><text fill="#000000" font-family="sans-serif" font-size="13" lengthAdjust="spacing" textLength="4" x="134" y="176.9336">&#160;</text><text fill="#000000" font-family="sans-serif" font-size="13" lengthAdjust="spacing" textLength="4" x="12" y="192.2441">&#160;</text><text fill="#000000" font-family="sans-serif" font-size="13" lengthAdjust="spacing" textLength="229" x="12" y="222.8652">You can click either the namespaces</text><text fill="#000000" font-family="sans-serif" font-size="13" lengthAdjust="spacing" textLength="266" x="12" y="238.1758">or class names for filtering them and their</text><text fill="#000000" font-family="sans-serif" font-size="13" lengthAdjust="spacing" textLength="130" x="12" y="253.4863">direct dependencies.</text><text fill="#000000" font-family="sans-serif" font-size="13" lengthAdjust="spacing" textLength="4" x="12" y="268.7969">&#160;</text><line style="stroke:#181818;stroke-width:1.0;" x1="7" x2="178.5" y1="202.6416" y2="202.6416"/><line style="stroke:#181818;stroke-width:1.0;" x1="7" x2="178.5" y1="204.6416" y2="204.6416"/><text fill="#000000" font-family="sans-serif" font-size="13" lengthAdjust="spacing" textLength="32" x="178.5" y="207.0547">Filter</text><line style="stroke:#181818;stroke-width:1.0;" x1="210.5" x2="382" y1="202.6416" y2="202.6416"/><line style="stroke:#181818;stroke-width:1.0;" x1="210.5" x2="382" y1="204.6416" y2="204.6416"/><ellipse cx="17.5" cy="298.6602" fill="#000000" rx="2.5" ry="2.5" style="stroke:#000000;stroke-width:0.0;"/><text fill="#000000" font-family="sans-serif" font-size="13" lengthAdjust="spacing" textLength="63" x="24" y="303.418">System.IO</text><text fill="#000000" font-family="sans-serif" font-size="13" font-weight="bold" lengthAdjust="spacing" textLength="67" x="91" y="303.418">simplified</text><text fill="#000000" font-family="sans-serif" font-size="13" lengthAdjust="spacing" textLength="4" x="162" y="303.418">:</text><text fill="#000000" font-family="sans-serif" font-size="13" lengthAdjust="spacing" textLength="12" x="12" y="318.7285">&#160;&#160;&#160;</text><a href="System.IO-diagram-simplified.svg" target="_top" title="System.IO-diagram-simplified.svg" xlink:actuate="onRequest" xlink:href="System.IO-diagram-simplified.svg" xlink:show="new" xlink:title="System.IO-diagram-simplified.svg" xlink:type="simple"><text fill="#0000FF" font-family="sans-serif" font-size="13" lengthAdjust="spacing" text-decoration="underline" textLength="219" x="24" y="318.7285">System.IO-diagram-simplified.svg</text></a><ellipse cx="17.5" cy="329.2813" fill="#000000" rx="2.5" ry="2.5" style="stroke:#000000;stroke-width:0.0;"/><text fill="#000000" font-family="sans-serif" font-size="13" lengthAdjust="spacing" textLength="78" x="24" y="334.0391">Full diagram</text><text fill="#000000" font-family="sans-serif" font-size="13" font-weight="bold" lengthAdjust="spacing" textLength="55" x="106" y="334.0391">detailed</text><text fill="#000000" font-family="sans-serif" font-size="13" lengthAdjust="spacing" textLength="23" x="165" y="334.0391">and</text><text fill="#000000" font-family="sans-serif" font-size="13" font-weight="bold" lengthAdjust="spacing" textLength="166" x="192" y="334.0391">grouped per namespace</text><text fill="#000000" font-family="sans-serif" font-size="13" lengthAdjust="spacing" textLength="4" x="358" y="334.0391">:</text><text fill="#000000" font-family="sans-serif" font-size="13" lengthAdjust="spacing" textLength="12" x="12" y="349.3496">&#160;&#160;&#160;</text><a href="full-diagram-detailed-grouped-per-namespace.svg" target="_top" title="full-diagram-detailed-grouped-per-namespace.svg" xlink:actuate="onRequest" xlink:href="full-diagram-detailed-grouped-per-namespace.svg" xlink:show="new" xlink:title="full-diagram-detailed-grouped-per-namespace.svg" xlink:type="simple"><text fill="#0000FF" font-family="sans-serif" font-size="13" lengthAdjust="spacing" text-decoration="underline" textLength="330" x="24" y="349.3496">full-diagram-detailed-grouped-per-namespace.svg</text></a><ellipse cx="17.5" cy="359.9023" fill="#000000" rx="2.5" ry="2.5" style="stroke:#000000;stroke-width:0.0;"/><text fill="#000000" font-family="sans-serif" font-size="13" lengthAdjust="spacing" textLength="41" x="24" y="364.6602">Home:</text><text fill="#000000" font-family="sans-serif" font-size="13" lengthAdjust="spacing" textLength="12" x="12" y="379.9707">&#160;&#160;&#160;</text><a href="index.html" target="_top" title="index.html" xlink:actuate="onRequest" xlink:href="index.html" xlink:show="new" xlink:title="index.html" xlink:type="simple"><text fill="#0000FF" font-family="sans-serif" font-size="13" lengthAdjust="spacing" text-decoration="underline" textLength="68" x="24" y="379.9707">index.html</text></a><line style="stroke:#181818;stroke-width:1.0;" x1="7" x2="157.5" y1="283.1943" y2="283.1943"/><line style="stroke:#181818;stroke-width:1.0;" x1="7" x2="157.5" y1="285.1943" y2="285.1943"/><text fill="#000000" font-family="sans-serif" font-size="13" lengthAdjust="spacing" textLength="74" x="157.5" y="287.6074">Select other</text><line style="stroke:#181818;stroke-width:1.0;" x1="231.5" x2="382" y1="283.1943" y2="283.1943"/><line style="stroke:#181818;stroke-width:1.0;" x1="231.5" x2="382" y1="285.1943" y2="285.1943"/></g><!--link CreateYml to TextWriter--><g id="link_CreateYml_TextWriter"><path codeLine="30" d="M800.5,407.8447 C800.5,407.8447 800.5,543.1947 800.5,543.1947 " fill="none" id="CreateYml-to-TextWriter" style="stroke:#909090;stroke-width:1.0;"/><polygon fill="#909090" points="800.5,548.1947,804.5,539.1947,800.5,543.1947,796.5,539.1947,800.5,548.1947" style="stroke:#909090;stroke-width:1.0;"/><text fill="#000000" font-family="sans-serif" font-size="13" lengthAdjust="spacing" textLength="29" x="770.5" y="472.083">uses</text></g><!--SRC=[jLLPJzj047xFhnY51rgtDb4Va6ebaGe85QcYIEcXYEHXOe_3YZtStJKGglxtpjgvAA2w2asaoCSttx6PdNNNGfTeKO4KcloY933MNvcE5ruIz9suf_HTRpXQE4ygEViCKPIJHo4fZoBe7mJ0iAED9-YEJMK1BG5gb8jxeUVfH3zJET4JFHYS2kd93WOJpRMGeOPCYkmQIFWhii0_e56HAp4ZnpN6CW2TQvv2mVT5JS5Q0QrOEWyNmavqBYnb7d8gIUUaCq4kQMH79CCR4qI2U0JRBfrGfHI5g7ro0W2ul5m3ubpWd1Siti0ITpEVJWFDQIKbB04FymPVKJItfYefXvB3hOD5qKgauF8r_weuNXR5N1IlYpQQ7usY5O7We7V9bLToEkq2EZYL1ZqlpZd_GPrcwTP9aYzqvxzRmSkt7N3hyIClZIhiBKXASmi_Exyw03XptYAlPyD_Olmv-GjB7t8icIGvquL5XbIPhombnvRGqrX95csDVSu9M-3Wy0OQvAj-OJGRCTBOGVUmTzWxEkeES_GRplIHvebHA7Hoierw2zBCvsGVexzw8LtogNxRFmXomzUrXnWUYB_lXMzts1XBN3Lx8C2PparEAOnHoH7zgBX1AJnPShQd7AsJGQjeoUYFklQAXJNgJ9Ky8TmkneNMP8z3iz1EFAYDNYXJkMEKSYUc6Jfw0KFEysRBTgAuGIjm9dVpeOX7UBuJHNqe4FVG2nZvzXAPk7y9rPAXlcvVUrjFi_J9qRTYYMCcud6spsEwrGV-6tOVwbu4IvBxoMW7x3PCM3uvmXRS71qfO_yH_fUHssa_lkFBlMQTf_7mwLC5KgXuIy5l]--></g></svg>