<?xml version="1.0" encoding="us-ascii" standalone="no"?><svg xmlns="http://www.w3.org/2000/svg" xmlns:xlink="http://www.w3.org/1999/xlink" contentStyleType="text/css" height="487px" preserveAspectRatio="none" style="width:693px;height:487px;background:#FFFFFF;" version="1.1" viewBox="0 0 693 487" width="693px" zoomAndPan="magnify"><defs/><g><text fill="#000000" font-family="sans-serif" font-size="20" font-weight="bold" lengthAdjust="spacing" textLength="215" x="26" y="29.3359">System.IO.TextWriter</text><text fill="#000000" font-family="sans-serif" font-size="20" font-weight="bold" lengthAdjust="spacing" textLength="104" x="248" y="29.3359">simplified</text><text fill="#000000" font-family="sans-serif" font-size="20" font-weight="bold" lengthAdjust="spacing" textLength="38" x="359" y="29.3359">and</text><text fill="#000000" font-family="sans-serif" font-size="20" font-weight="bold" lengthAdjust="spacing" textLength="249" x="404" y="29.3359">grouped per namespace</text><!--cluster System--><g id="cluster_System"><path d="M504.5,314.5547 L557.5,314.5547 A3.75,3.75 0 0 1 560,317.0547 L567,337.043 L683.5,337.043 A2.5,2.5 0 0 1 686,339.543 L686,478.0547 A2.5,2.5 0 0 1 683.5,480.5547 L504.5,480.5547 A2.5,2.5 0 0 1 502,478.0547 L502,317.0547 A2.5,2.5 0 0 1 504.5,314.5547 " fill="none" style="stroke:#000000;stroke-width:1.5;"/><line style="stroke:#000000;stroke-width:1.5;" x1="502" x2="567" y1="337.043" y2="337.043"/><text fill="#000000" font-family="sans-serif" font-size="14" font-weight="bold" lengthAdjust="spacing" textLength="52" x="506" y="330.0898">System</text></g><!--cluster IO--><g id="cluster_IO"><path d="M528.5,357.5547 L546.5,357.5547 A3.75,3.75 0 0 1 549,360.0547 L556,380.043 L659.5,380.043 A2.5,2.5 0 0 1 662,382.543 L662,454.0547 A2.5,2.5 0 0 1 659.5,456.5547 L528.5,456.5547 A2.5,2.5 0 0 1 526,454.0547 L526,360.0547 A2.5,2.5 0 0 1 528.5,357.5547 " fill="none" style="stroke:#000000;stroke-width:1.5;"/><line style="stroke:#000000;stroke-width:1.5;" x1="526" x2="556" y1="380.043" y2="380.043"/><text fill="#000000" font-family="sans-serif" font-size="14" font-weight="bold" lengthAdjust="spacing" textLength="17" x="530" y="373.0898">IO</text></g><!--cluster DotNetPreAdapter--><g id="cluster_DotNetPreAdapter"><a href="DotNetPreAdapter-diagram-simplified-grouped-per-namespace.svg" target="_top" title="DotNetPreAdapter-diagram-simplified-grouped-per-namespace.svg" xlink:actuate="onRequest" xlink:href="DotNetPreAdapter-diagram-simplified-grouped-per-namespace.svg" xlink:show="new" xlink:title="DotNetPreAdapter-diagram-simplified-grouped-per-namespace.svg" xlink:type="simple"><path d="M504.5,72.5547 L635.5,72.5547 A3.75,3.75 0 0 1 638,75.0547 L645,95.043 L683.5,95.043 A2.5,2.5 0 0 1 686,97.543 L686,236.0547 A2.5,2.5 0 0 1 683.5,238.5547 L504.5,238.5547 A2.5,2.5 0 0 1 502,236.0547 L502,75.0547 A2.5,2.5 0 0 1 504.5,72.5547 " fill="none" style="stroke:#000000;stroke-width:1.5;"/><line style="stroke:#000000;stroke-width:1.5;" x1="502" x2="645" y1="95.043" y2="95.043"/><text fill="#000000" font-family="sans-serif" font-size="14" font-weight="bold" lengthAdjust="spacing" textLength="130" x="506" y="88.0898">DotNetPreAdapter</text></a></g><!--cluster Infrastructure--><g id="cluster_Infrastructure"><a href="DotNetPreAdapter.Infrastructure-diagram-simplified-grouped-per-namespace.svg" target="_top" title="DotNetPreAdapter.Infrastructure-diagram-simplified-grouped-per-namespace.svg" xlink:actuate="onRequest" xlink:href="DotNetPreAdapter.Infrastructure-diagram-simplified-grouped-per-namespace.svg" xlink:show="new" xlink:title="DotNetPreAdapter.Infrastructure-diagram-simplified-grouped-per-namespace.svg" xlink:type="simple"><path d="M528.5,115.5547 L628.5,115.5547 A3.75,3.75 0 0 1 631,118.0547 L638,138.043 L659.5,138.043 A2.5,2.5 0 0 1 662,140.543 L662,212.0547 A2.5,2.5 0 0 1 659.5,214.5547 L528.5,214.5547 A2.5,2.5 0 0 1 526,212.0547 L526,118.0547 A2.5,2.5 0 0 1 528.5,115.5547 " fill="none" style="stroke:#000000;stroke-width:1.5;"/><line style="stroke:#000000;stroke-width:1.5;" x1="526" x2="638" y1="138.043" y2="138.043"/><text fill="#000000" font-family="sans-serif" font-size="14" font-weight="bold" lengthAdjust="spacing" textLength="99" x="530" y="131.0898">Infrastructure</text></a></g><!--class TextWriter--><a href="System.IO.TextWriter-diagram-simplified-grouped-per-namespace.svg" target="_top" title="System.IO.TextWriter-diagram-simplified-grouped-per-namespace.svg" xlink:actuate="onRequest" xlink:href="System.IO.TextWriter-diagram-simplified-grouped-per-namespace.svg" xlink:show="new" xlink:title="System.IO.TextWriter-diagram-simplified-grouped-per-namespace.svg" xlink:type="simple"><g id="elem_TextWriter"><rect codeLine="4" fill="#FFFF00" height="48" id="TextWriter" rx="2.5" ry="2.5" style="stroke:#181818;stroke-width:0.5;" width="104" x="542" y="392.5547"/><ellipse cx="557" cy="408.5547" fill="#ADD1B2" rx="11" ry="11" style="stroke:#181818;stroke-width:1.0;"/><path d="M559.4731,414.6978 Q558.8921,414.9966 558.2529,415.146 Q557.6138,415.2954 556.9082,415.2954 Q554.4014,415.2954 553.0815,413.6436 Q551.7617,411.9917 551.7617,408.8706 Q551.7617,405.7412 553.0815,404.0894 Q554.4014,402.4375 556.9082,402.4375 Q557.6138,402.4375 558.2612,402.5869 Q558.9087,402.7363 559.4731,403.0352 L559.4731,405.7578 Q558.8423,405.1768 558.2488,404.907 Q557.6553,404.6372 557.0244,404.6372 Q555.6797,404.6372 554.9949,405.7039 Q554.3101,406.7705 554.3101,408.8706 Q554.3101,410.9624 554.9949,412.0291 Q555.6797,413.0957 557.0244,413.0957 Q557.6553,413.0957 558.2488,412.8259 Q558.8423,412.5562 559.4731,411.9751 Z " fill="#000000"/><text fill="#000000" font-family="sans-serif" font-size="14" lengthAdjust="spacing" textLength="72" x="571" y="413.8457">TextWriter</text><line style="stroke:#181818;stroke-width:0.5;" x1="543" x2="645" y1="424.5547" y2="424.5547"/><line style="stroke:#181818;stroke-width:0.5;" x1="543" x2="645" y1="432.5547" y2="432.5547"/></g></a><!--class CreateYml--><a href="DotNetPreAdapter.Infrastructure.CreateYml-diagram-simplified-grouped-per-namespace.svg" target="_top" title="DotNetPreAdapter.Infrastructure.CreateYml-diagram-simplified-grouped-per-namespace.svg" xlink:actuate="onRequest" xlink:href="DotNetPreAdapter.Infrastructure.CreateYml-diagram-simplified-grouped-per-namespace.svg" xlink:show="new" xlink:title="DotNetPreAdapter.Infrastructure.CreateYml-diagram-simplified-grouped-per-namespace.svg" xlink:type="simple"><g id="elem_CreateYml"><rect codeLine="9" fill="#F1F1F1" height="48" id="CreateYml" rx="2.5" ry="2.5" style="stroke:#181818;stroke-width:0.5;" width="103" x="542.5" y="150.5547"/><ellipse cx="557.5" cy="166.5547" fill="#A9DCDF" rx="11" ry="11" style="stroke:#181818;stroke-width:1.0;"/><path d="M557.3633,161.9028 L556.2095,166.9746 L558.5254,166.9746 Z M555.8691,159.6616 L558.8657,159.6616 L562.2109,172.0547 L559.7622,172.0547 L558.9985,168.9917 L555.7197,168.9917 L554.9727,172.0547 L552.5239,172.0547 Z " fill="#000000"/><text fill="#000000" font-family="sans-serif" font-size="14" font-style="italic" lengthAdjust="spacing" textLength="71" x="571.5" y="171.8457">CreateYml</text><line style="stroke:#181818;stroke-width:0.5;" x1="543.5" x2="644.5" y1="182.5547" y2="182.5547"/><line style="stroke:#181818;stroke-width:0.5;" x1="543.5" x2="644.5" y1="190.5547" y2="190.5547"/></g></a><g id="elem_FloatingNote"><path d="M6,50.5547 L6,298.2129 L486,298.2129 L486,60.5547 L476,50.5547 L6,50.5547 " fill="#FEFFDD" style="stroke:#181818;stroke-width:0.5;"/><path d="M476,50.5547 L476,60.5547 L486,60.5547 L476,50.5547 " fill="#FEFFDD" style="stroke:#181818;stroke-width:1.0;"/><text fill="#000000" font-family="sans-serif" font-size="13" lengthAdjust="spacing" textLength="120" x="12" y="68.123">Your are analyzing:</text><text fill="#000000" font-family="sans-serif" font-size="13" lengthAdjust="spacing" textLength="132" x="12" y="83.4336">System.IO.TextWriter</text><text fill="#000000" font-family="sans-serif" font-size="13" font-weight="bold" lengthAdjust="spacing" textLength="67" x="148" y="83.4336">simplified</text><text fill="#000000" font-family="sans-serif" font-size="13" lengthAdjust="spacing" textLength="23" x="219" y="83.4336">and</text><text fill="#000000" font-family="sans-serif" font-size="13" font-weight="bold" lengthAdjust="spacing" textLength="166" x="246" y="83.4336">grouped per namespace</text><text fill="#000000" font-family="sans-serif" font-size="13" lengthAdjust="spacing" textLength="4" x="12" y="98.7441">&#160;</text><text fill="#000000" font-family="sans-serif" font-size="13" lengthAdjust="spacing" textLength="229" x="12" y="129.3652">You can click either the namespaces</text><text fill="#000000" font-family="sans-serif" font-size="13" lengthAdjust="spacing" textLength="266" x="12" y="144.6758">or class names for filtering them and their</text><text fill="#000000" font-family="sans-serif" font-size="13" lengthAdjust="spacing" textLength="130" x="12" y="159.9863">direct dependencies.</text><text fill="#000000" font-family="sans-serif" font-size="13" lengthAdjust="spacing" textLength="4" x="12" y="175.2969">&#160;</text><line style="stroke:#181818;stroke-width:1.0;" x1="7" x2="230" y1="109.1416" y2="109.1416"/><line style="stroke:#181818;stroke-width:1.0;" x1="7" x2="230" y1="111.1416" y2="111.1416"/><text fill="#000000" font-family="sans-serif" font-size="13" lengthAdjust="spacing" textLength="32" x="230" y="113.5547">Filter</text><line style="stroke:#181818;stroke-width:1.0;" x1="262" x2="485" y1="109.1416" y2="109.1416"/><line style="stroke:#181818;stroke-width:1.0;" x1="262" x2="485" y1="111.1416" y2="111.1416"/><ellipse cx="17.5" cy="205.1602" fill="#000000" rx="2.5" ry="2.5" style="stroke:#000000;stroke-width:0.0;"/><text fill="#000000" font-family="sans-serif" font-size="13" lengthAdjust="spacing" textLength="132" x="24" y="209.918">System.IO.TextWriter</text><text fill="#000000" font-family="sans-serif" font-size="13" font-weight="bold" lengthAdjust="spacing" textLength="55" x="160" y="209.918">detailed</text><text fill="#000000" font-family="sans-serif" font-size="13" lengthAdjust="spacing" textLength="23" x="219" y="209.918">and</text><text fill="#000000" font-family="sans-serif" font-size="13" font-weight="bold" lengthAdjust="spacing" textLength="166" x="246" y="209.918">grouped per namespace</text><text fill="#000000" font-family="sans-serif" font-size="13" lengthAdjust="spacing" textLength="4" x="412" y="209.918">:</text><text fill="#000000" font-family="sans-serif" font-size="13" lengthAdjust="spacing" textLength="12" x="12" y="225.2285">&#160;&#160;&#160;</text><a href="System.IO.TextWriter-diagram-detailed-grouped-per-namespace.svg" target="_top" title="System.IO.TextWriter-diagram-detailed-grouped-per-namespace.svg" xlink:actuate="onRequest" xlink:href="System.IO.TextWriter-diagram-detailed-grouped-per-namespace.svg" xlink:show="new" xlink:title="System.IO.TextWriter-diagram-detailed-grouped-per-namespace.svg" xlink:type="simple"><text fill="#0000FF" font-family="sans-serif" font-size="13" lengthAdjust="spacing" text-decoration="underline" textLength="441" x="24" y="225.2285">System.IO.TextWriter-diagram-detailed-grouped-per-namespace.svg</text></a><ellipse cx="17.5" cy="235.7813" fill="#000000" rx="2.5" ry="2.5" style="stroke:#000000;stroke-width:0.0;"/><text fill="#000000" font-family="sans-serif" font-size="13" lengthAdjust="spacing" textLength="78" x="24" y="240.5391">Full diagram</text><text fill="#000000" font-family="sans-serif" font-size="13" font-weight="bold" lengthAdjust="spacing" textLength="67" x="106" y="240.5391">simplified</text><text fill="#000000" font-family="sans-serif" font-size="13" lengthAdjust="spacing" textLength="23" x="177" y="240.5391">and</text><text fill="#000000" font-family="sans-serif" font-size="13" font-weight="bold" lengthAdjust="spacing" textLength="166" x="204" y="240.5391">grouped per namespace</text><text fill="#000000" font-family="sans-serif" font-size="13" lengthAdjust="spacing" textLength="4" x="370" y="240.5391">:</text><text fill="#000000" font-family="sans-serif" font-size="13" lengthAdjust="spacing" textLength="12" x="12" y="255.8496">&#160;&#160;&#160;</text><a href="full-diagram-simplified-grouped-per-namespace.svg" target="_top" title="full-diagram-simplified-grouped-per-namespace.svg" xlink:actuate="onRequest" xlink:href="full-diagram-simplified-grouped-per-namespace.svg" xlink:show="new" xlink:title="full-diagram-simplified-grouped-per-namespace.svg" xlink:type="simple"><text fill="#0000FF" font-family="sans-serif" font-size="13" lengthAdjust="spacing" text-decoration="underline" textLength="343" x="24" y="255.8496">full-diagram-simplified-grouped-per-namespace.svg</text></a><ellipse cx="17.5" cy="266.4023" fill="#000000" rx="2.5" ry="2.5" style="stroke:#000000;stroke-width:0.0;"/><text fill="#000000" font-family="sans-serif" font-size="13" lengthAdjust="spacing" textLength="41" x="24" y="271.1602">Home:</text><text fill="#000000" font-family="sans-serif" font-size="13" lengthAdjust="spacing" textLength="12" x="12" y="286.4707">&#160;&#160;&#160;</text><a href="index.html" target="_top" title="index.html" xlink:actuate="onRequest" xlink:href="index.html" xlink:show="new" xlink:title="index.html" xlink:type="simple"><text fill="#0000FF" font-family="sans-serif" font-size="13" lengthAdjust="spacing" text-decoration="underline" textLength="68" x="24" y="286.4707">index.html</text></a><line style="stroke:#181818;stroke-width:1.0;" x1="7" x2="209" y1="189.6943" y2="189.6943"/><line style="stroke:#181818;stroke-width:1.0;" x1="7" x2="209" y1="191.6943" y2="191.6943"/><text fill="#000000" font-family="sans-serif" font-size="13" lengthAdjust="spacing" textLength="74" x="209" y="194.1074">Select other</text><line style="stroke:#181818;stroke-width:1.0;" x1="283" x2="485" y1="189.6943" y2="189.6943"/><line style="stroke:#181818;stroke-width:1.0;" x1="283" x2="485" y1="191.6943" y2="191.6943"/></g><!--link CreateYml to TextWriter--><g id="link_CreateYml_TextWriter"><path codeLine="24" d="M594,198.6447 C594,198.6447 594,386.2047 594,386.2047 " fill="none" id="CreateYml-to-TextWriter" style="stroke:#909090;stroke-width:1.0;"/><polygon fill="#909090" points="594,391.2047,598,382.2047,594,386.2047,590,382.2047,594,391.2047" style="stroke:#909090;stroke-width:1.0;"/><text fill="#000000" font-family="sans-serif" font-size="13" lengthAdjust="spacing" textLength="29" x="564" y="288.993">uses</text></g><!--SRC=[nLHTQzj047pNhrYIXu10QkXRJMmeBgPvSGifb60PSvPMzfBJdRWz9N52_tlt_2MIEfLD2RMCiKwxCxkpe-KxChLogW9D1lsgHh3EBstaoMk4AwOdx7sy7Dois6ELNdzBV-2Z_-d8euCuPgfgJILX4SUWJ2572sUR6Wke9S2e2hbMESRnrOS0DOYCzGXdjxPne1nAZjAh9pABNcR-cICpcUdtHwGbiT_FZB10hWpacl8xGF9BYPUVDeSXCzP9W6BUd48fz-KQGgeAqTMQLFwGoqn13dCF1TPe2ZGv8QSRsXlKuOaD984yXZVwAT0hqjtTY280C9aSWaaAKWkPMh83IxOWYO0aUv2KxnVJQQXbr6WDswIJDDrLKGh0dhLDx-BzQYlSGP0ezfWkVQMdqpDG32DjbHULn-A9Q3E3WvfrQ71SDN2-Ggtj0pn7lw8B66hBOS1ATAaTtfDjUCRDVBPFcsbYtqe1OsiGvfYhXZ4uP6jU9WRvbcI8brYaKPlnnVen-kyEFnUgtZJo-kZK9fx_0fzUcz8fzgx9VIFlrfziho9E9mTGSqbNOlJDl3eOqg53vV6sqjtLjB6drhKkJ8Owj9NiCl7m_zG87cJFW8ZZGJP2XKPsGWdh-jxHT2rsc_koaHUkVriW2OCBMGT7VU3TOaEfmLyEjQm8QnZalG- -a-cMpbPj1ps9FJ6yO-JHyQPE9kUVBiCrJGQ7TnVqG4R7y1i0]--></g></svg>