<?xml version="1.0" encoding="us-ascii" standalone="no"?><svg xmlns="http://www.w3.org/2000/svg" xmlns:xlink="http://www.w3.org/1999/xlink" contentStyleType="text/css" height="487px" preserveAspectRatio="none" style="width:624px;height:487px;background:#FFFFFF;" version="1.1" viewBox="0 0 624 487" width="624px" zoomAndPan="magnify"><defs/><g><text fill="#000000" font-family="sans-serif" font-size="20" font-weight="bold" lengthAdjust="spacing" textLength="101" x="48.75" y="29.3359">System.IO</text><text fill="#000000" font-family="sans-serif" font-size="20" font-weight="bold" lengthAdjust="spacing" textLength="104" x="156.75" y="29.3359">simplified</text><text fill="#000000" font-family="sans-serif" font-size="20" font-weight="bold" lengthAdjust="spacing" textLength="38" x="267.75" y="29.3359">and</text><text fill="#000000" font-family="sans-serif" font-size="20" font-weight="bold" lengthAdjust="spacing" textLength="249" x="312.75" y="29.3359">grouped per namespace</text><!--cluster System--><g id="cluster_System"><path d="M436,314.5547 L489,314.5547 A3.75,3.75 0 0 1 491.5,317.0547 L498.5,337.043 L615,337.043 A2.5,2.5 0 0 1 617.5,339.543 L617.5,478.0547 A2.5,2.5 0 0 1 615,480.5547 L436,480.5547 A2.5,2.5 0 0 1 433.5,478.0547 L433.5,317.0547 A2.5,2.5 0 0 1 436,314.5547 " fill="none" style="stroke:#000000;stroke-width:1.5;"/><line style="stroke:#000000;stroke-width:1.5;" x1="433.5" x2="498.5" y1="337.043" y2="337.043"/><text fill="#000000" font-family="sans-serif" font-size="14" font-weight="bold" lengthAdjust="spacing" textLength="52" x="437.5" y="330.0898">System</text></g><!--cluster IO--><g id="cluster_IO"><path d="M460,357.5547 L478,357.5547 A3.75,3.75 0 0 1 480.5,360.0547 L487.5,380.043 L591,380.043 A2.5,2.5 0 0 1 593.5,382.543 L593.5,454.0547 A2.5,2.5 0 0 1 591,456.5547 L460,456.5547 A2.5,2.5 0 0 1 457.5,454.0547 L457.5,360.0547 A2.5,2.5 0 0 1 460,357.5547 " fill="none" style="stroke:#000000;stroke-width:1.5;"/><line style="stroke:#000000;stroke-width:1.5;" x1="457.5" x2="487.5" y1="380.043" y2="380.043"/><text fill="#000000" font-family="sans-serif" font-size="14" font-weight="bold" lengthAdjust="spacing" textLength="17" x="461.5" y="373.0898">IO</text></g><!--cluster DotNetPreAdapter--><g id="cluster_DotNetPreAdapter"><a href="DotNetPreAdapter-diagram-simplified-grouped-per-namespace.svg" target="_top" title="DotNetPreAdapter-diagram-simplified-grouped-per-namespace.svg" xlink:actuate="onRequest" xlink:href="DotNetPreAdapter-diagram-simplified-grouped-per-namespace.svg" xlink:show="new" xlink:title="DotNetPreAdapter-diagram-simplified-grouped-per-namespace.svg" xlink:type="simple"><path d="M436,72.5547 L567,72.5547 A3.75,3.75 0 0 1 569.5,75.0547 L576.5,95.043 L615,95.043 A2.5,2.5 0 0 1 617.5,97.543 L617.5,236.0547 A2.5,2.5 0 0 1 615,238.5547 L436,238.5547 A2.5,2.5 0 0 1 433.5,236.0547 L433.5,75.0547 A2.5,2.5 0 0 1 436,72.5547 " fill="none" style="stroke:#000000;stroke-width:1.5;"/><line style="stroke:#000000;stroke-width:1.5;" x1="433.5" x2="576.5" y1="95.043" y2="95.043"/><text fill="#000000" font-family="sans-serif" font-size="14" font-weight="bold" lengthAdjust="spacing" textLength="130" x="437.5" y="88.0898">DotNetPreAdapter</text></a></g><!--cluster Infrastructure--><g id="cluster_Infrastructure"><a href="DotNetPreAdapter.Infrastructure-diagram-simplified-grouped-per-namespace.svg" target="_top" title="DotNetPreAdapter.Infrastructure-diagram-simplified-grouped-per-namespace.svg" xlink:actuate="onRequest" xlink:href="DotNetPreAdapter.Infrastructure-diagram-simplified-grouped-per-namespace.svg" xlink:show="new" xlink:title="DotNetPreAdapter.Infrastructure-diagram-simplified-grouped-per-namespace.svg" xlink:type="simple"><path d="M460,115.5547 L560,115.5547 A3.75,3.75 0 0 1 562.5,118.0547 L569.5,138.043 L591,138.043 A2.5,2.5 0 0 1 593.5,140.543 L593.5,212.0547 A2.5,2.5 0 0 1 591,214.5547 L460,214.5547 A2.5,2.5 0 0 1 457.5,212.0547 L457.5,118.0547 A2.5,2.5 0 0 1 460,115.5547 " fill="none" style="stroke:#000000;stroke-width:1.5;"/><line style="stroke:#000000;stroke-width:1.5;" x1="457.5" x2="569.5" y1="138.043" y2="138.043"/><text fill="#000000" font-family="sans-serif" font-size="14" font-weight="bold" lengthAdjust="spacing" textLength="99" x="461.5" y="131.0898">Infrastructure</text></a></g><!--class TextWriter--><a href="System.IO.TextWriter-diagram-simplified-grouped-per-namespace.svg" target="_top" title="System.IO.TextWriter-diagram-simplified-grouped-per-namespace.svg" xlink:actuate="onRequest" xlink:href="System.IO.TextWriter-diagram-simplified-grouped-per-namespace.svg" xlink:show="new" xlink:title="System.IO.TextWriter-diagram-simplified-grouped-per-namespace.svg" xlink:type="simple"><g id="elem_TextWriter"><rect codeLine="4" fill="#FFFF00" height="48" id="TextWriter" rx="2.5" ry="2.5" style="stroke:#181818;stroke-width:0.5;" width="104" x="473.5" y="392.5547"/><ellipse cx="488.5" cy="408.5547" fill="#ADD1B2" rx="11" ry="11" style="stroke:#181818;stroke-width:1.0;"/><path d="M490.9731,414.6978 Q490.3921,414.9966 489.7529,415.146 Q489.1138,415.2954 488.4082,415.2954 Q485.9014,415.2954 484.5815,413.6436 Q483.2617,411.9917 483.2617,408.8706 Q483.2617,405.7412 484.5815,404.0894 Q485.9014,402.4375 488.4082,402.4375 Q489.1138,402.4375 489.7612,402.5869 Q490.4087,402.7363 490.9731,403.0352 L490.9731,405.7578 Q490.3423,405.1768 489.7488,404.907 Q489.1553,404.6372 488.5244,404.6372 Q487.1797,404.6372 486.4949,405.7039 Q485.8101,406.7705 485.8101,408.8706 Q485.8101,410.9624 486.4949,412.0291 Q487.1797,413.0957 488.5244,413.0957 Q489.1553,413.0957 489.7488,412.8259 Q490.3423,412.5562 490.9731,411.9751 Z " fill="#000000"/><text fill="#000000" font-family="sans-serif" font-size="14" lengthAdjust="spacing" textLength="72" x="502.5" y="413.8457">TextWriter</text><line style="stroke:#181818;stroke-width:0.5;" x1="474.5" x2="576.5" y1="424.5547" y2="424.5547"/><line style="stroke:#181818;stroke-width:0.5;" x1="474.5" x2="576.5" y1="432.5547" y2="432.5547"/></g></a><!--class CreateYml--><a href="DotNetPreAdapter.Infrastructure.CreateYml-diagram-simplified-grouped-per-namespace.svg" target="_top" title="DotNetPreAdapter.Infrastructure.CreateYml-diagram-simplified-grouped-per-namespace.svg" xlink:actuate="onRequest" xlink:href="DotNetPreAdapter.Infrastructure.CreateYml-diagram-simplified-grouped-per-namespace.svg" xlink:show="new" xlink:title="DotNetPreAdapter.Infrastructure.CreateYml-diagram-simplified-grouped-per-namespace.svg" xlink:type="simple"><g id="elem_CreateYml"><rect codeLine="9" fill="#F1F1F1" height="48" id="CreateYml" rx="2.5" ry="2.5" style="stroke:#181818;stroke-width:0.5;" width="103" x="474" y="150.5547"/><ellipse cx="489" cy="166.5547" fill="#A9DCDF" rx="11" ry="11" style="stroke:#181818;stroke-width:1.0;"/><path d="M488.8633,161.9028 L487.7095,166.9746 L490.0254,166.9746 Z M487.3691,159.6616 L490.3657,159.6616 L493.7109,172.0547 L491.2622,172.0547 L490.4985,168.9917 L487.2197,168.9917 L486.4727,172.0547 L484.0239,172.0547 Z " fill="#000000"/><text fill="#000000" font-family="sans-serif" font-size="14" font-style="italic" lengthAdjust="spacing" textLength="71" x="503" y="171.8457">CreateYml</text><line style="stroke:#181818;stroke-width:0.5;" x1="475" x2="576" y1="182.5547" y2="182.5547"/><line style="stroke:#181818;stroke-width:0.5;" x1="475" x2="576" y1="190.5547" y2="190.5547"/></g></a><g id="elem_FloatingNote"><path d="M6,50.5547 L6,298.2129 L417,298.2129 L417,60.5547 L407,50.5547 L6,50.5547 " fill="#FEFFDD" style="stroke:#181818;stroke-width:0.5;"/><path d="M407,50.5547 L407,60.5547 L417,60.5547 L407,50.5547 " fill="#FEFFDD" style="stroke:#181818;stroke-width:1.0;"/><text fill="#000000" font-family="sans-serif" font-size="13" lengthAdjust="spacing" textLength="120" x="12" y="68.123">Your are analyzing:</text><text fill="#000000" font-family="sans-serif" font-size="13" lengthAdjust="spacing" textLength="63" x="12" y="83.4336">System.IO</text><text fill="#000000" font-family="sans-serif" font-size="13" font-weight="bold" lengthAdjust="spacing" textLength="67" x="79" y="83.4336">simplified</text><text fill="#000000" font-family="sans-serif" font-size="13" lengthAdjust="spacing" textLength="23" x="150" y="83.4336">and</text><text fill="#000000" font-family="sans-serif" font-size="13" font-weight="bold" lengthAdjust="spacing" textLength="166" x="177" y="83.4336">grouped per namespace</text><text fill="#000000" font-family="sans-serif" font-size="13" lengthAdjust="spacing" textLength="4" x="12" y="98.7441">&#160;</text><text fill="#000000" font-family="sans-serif" font-size="13" lengthAdjust="spacing" textLength="229" x="12" y="129.3652">You can click either the namespaces</text><text fill="#000000" font-family="sans-serif" font-size="13" lengthAdjust="spacing" textLength="266" x="12" y="144.6758">or class names for filtering them and their</text><text fill="#000000" font-family="sans-serif" font-size="13" lengthAdjust="spacing" textLength="130" x="12" y="159.9863">direct dependencies.</text><text fill="#000000" font-family="sans-serif" font-size="13" lengthAdjust="spacing" textLength="4" x="12" y="175.2969">&#160;</text><line style="stroke:#181818;stroke-width:1.0;" x1="7" x2="195.5" y1="109.1416" y2="109.1416"/><line style="stroke:#181818;stroke-width:1.0;" x1="7" x2="195.5" y1="111.1416" y2="111.1416"/><text fill="#000000" font-family="sans-serif" font-size="13" lengthAdjust="spacing" textLength="32" x="195.5" y="113.5547">Filter</text><line style="stroke:#181818;stroke-width:1.0;" x1="227.5" x2="416" y1="109.1416" y2="109.1416"/><line style="stroke:#181818;stroke-width:1.0;" x1="227.5" x2="416" y1="111.1416" y2="111.1416"/><ellipse cx="17.5" cy="205.1602" fill="#000000" rx="2.5" ry="2.5" style="stroke:#000000;stroke-width:0.0;"/><text fill="#000000" font-family="sans-serif" font-size="13" lengthAdjust="spacing" textLength="63" x="24" y="209.918">System.IO</text><text fill="#000000" font-family="sans-serif" font-size="13" font-weight="bold" lengthAdjust="spacing" textLength="55" x="91" y="209.918">detailed</text><text fill="#000000" font-family="sans-serif" font-size="13" lengthAdjust="spacing" textLength="23" x="150" y="209.918">and</text><text fill="#000000" font-family="sans-serif" font-size="13" font-weight="bold" lengthAdjust="spacing" textLength="166" x="177" y="209.918">grouped per namespace</text><text fill="#000000" font-family="sans-serif" font-size="13" lengthAdjust="spacing" textLength="4" x="343" y="209.918">:</text><text fill="#000000" font-family="sans-serif" font-size="13" lengthAdjust="spacing" textLength="12" x="12" y="225.2285">&#160;&#160;&#160;</text><a href="System.IO-diagram-detailed-grouped-per-namespace.svg" target="_top" title="System.IO-diagram-detailed-grouped-per-namespace.svg" xlink:actuate="onRequest" xlink:href="System.IO-diagram-detailed-grouped-per-namespace.svg" xlink:show="new" xlink:title="System.IO-diagram-detailed-grouped-per-namespace.svg" xlink:type="simple"><text fill="#0000FF" font-family="sans-serif" font-size="13" lengthAdjust="spacing" text-decoration="underline" textLength="372" x="24" y="225.2285">System.IO-diagram-detailed-grouped-per-namespace.svg</text></a><ellipse cx="17.5" cy="235.7813" fill="#000000" rx="2.5" ry="2.5" style="stroke:#000000;stroke-width:0.0;"/><text fill="#000000" font-family="sans-serif" font-size="13" lengthAdjust="spacing" textLength="78" x="24" y="240.5391">Full diagram</text><text fill="#000000" font-family="sans-serif" font-size="13" font-weight="bold" lengthAdjust="spacing" textLength="67" x="106" y="240.5391">simplified</text><text fill="#000000" font-family="sans-serif" font-size="13" lengthAdjust="spacing" textLength="23" x="177" y="240.5391">and</text><text fill="#000000" font-family="sans-serif" font-size="13" font-weight="bold" lengthAdjust="spacing" textLength="166" x="204" y="240.5391">grouped per namespace</text><text fill="#000000" font-family="sans-serif" font-size="13" lengthAdjust="spacing" textLength="4" x="370" y="240.5391">:</text><text fill="#000000" font-family="sans-serif" font-size="13" lengthAdjust="spacing" textLength="12" x="12" y="255.8496">&#160;&#160;&#160;</text><a href="full-diagram-simplified-grouped-per-namespace.svg" target="_top" title="full-diagram-simplified-grouped-per-namespace.svg" xlink:actuate="onRequest" xlink:href="full-diagram-simplified-grouped-per-namespace.svg" xlink:show="new" xlink:title="full-diagram-simplified-grouped-per-namespace.svg" xlink:type="simple"><text fill="#0000FF" font-family="sans-serif" font-size="13" lengthAdjust="spacing" text-decoration="underline" textLength="343" x="24" y="255.8496">full-diagram-simplified-grouped-per-namespace.svg</text></a><ellipse cx="17.5" cy="266.4023" fill="#000000" rx="2.5" ry="2.5" style="stroke:#000000;stroke-width:0.0;"/><text fill="#000000" font-family="sans-serif" font-size="13" lengthAdjust="spacing" textLength="41" x="24" y="271.1602">Home:</text><text fill="#000000" font-family="sans-serif" font-size="13" lengthAdjust="spacing" textLength="12" x="12" y="286.4707">&#160;&#160;&#160;</text><a href="index.html" target="_top" title="index.html" xlink:actuate="onRequest" xlink:href="index.html" xlink:show="new" xlink:title="index.html" xlink:type="simple"><text fill="#0000FF" font-family="sans-serif" font-size="13" lengthAdjust="spacing" text-decoration="underline" textLength="68" x="24" y="286.4707">index.html</text></a><line style="stroke:#181818;stroke-width:1.0;" x1="7" x2="174.5" y1="189.6943" y2="189.6943"/><line style="stroke:#181818;stroke-width:1.0;" x1="7" x2="174.5" y1="191.6943" y2="191.6943"/><text fill="#000000" font-family="sans-serif" font-size="13" lengthAdjust="spacing" textLength="74" x="174.5" y="194.1074">Select other</text><line style="stroke:#181818;stroke-width:1.0;" x1="248.5" x2="416" y1="189.6943" y2="189.6943"/><line style="stroke:#181818;stroke-width:1.0;" x1="248.5" x2="416" y1="191.6943" y2="191.6943"/></g><!--link CreateYml to TextWriter--><g id="link_CreateYml_TextWriter"><path codeLine="24" d="M525.5,198.6447 C525.5,198.6447 525.5,386.2047 525.5,386.2047 " fill="none" id="CreateYml-to-TextWriter" style="stroke:#909090;stroke-width:1.0;"/><polygon fill="#909090" points="525.5,391.2047,529.5,382.2047,525.5,386.2047,521.5,382.2047,525.5,391.2047" style="stroke:#909090;stroke-width:1.0;"/><text fill="#000000" font-family="sans-serif" font-size="13" lengthAdjust="spacing" textLength="29" x="495.5" y="288.993">uses</text></g><!--SRC=[nLJRQjj047tNLmp9Gq0W9VIj9ZOK1zEyk8KKIh2CMKiZUyXgL-oiaZYX_zvPt-Ia5qU5KDiOUpLdpfmpiyDtP6hbL0MQ3FfLZM2TNzh8azS8bqnFsFjmCRXPiSSglVu2SSnKrPfAmYAEGPb2ZXREDZKMKAC3eohaMkKOnvVd0J-8ZFK89xUsSQ0S2aRfrHEPHIyp_vOuCvdfzqUaFRf-FpEI6d9b8DUKtm6INqgyVBKOXinO9m6AUNCAfVmlrocab11ThKdb1xdC5EGmzr1WZQP0anDokg6zGHsUs40Io6Cu556WLwIFIn3j032PxB59GMeXdKXs6P8jCX5aiaUcVB-OJWFhgD4Qjg1ExkseIqcmPstXntW_smftAKYyUKoNljBJwGaeXf6soekVOsbvj75xhp3zXe_-koDn_53umN77Qk1qXLhR1tYEVaHdCDIMGokL-58xl2VRy8oR-MmFcsbYtre1OsiGvfYhXZ7CmdOscHZaKv8XNcAHHYtYolen-gyEFnMgtWXvVTHLnFDVqgVNfdIAlMjotyZL-PNjLKHtSW0r5xYIaTxqwmX3EdIeFDvM-dWrRMpNkjQ5ILE7jfBz93FyFps21zae8EPuaBjVeP7RNyAwldSSkZPtYtqfvCNK_zaW2OCpMGTlUi6xnOPImtmvrB8Yh66GUn_cJhfREbkr2deIsp7yICkZjmzrCZdzU17UqsJm-zq5FP3MCVm4]--></g></svg>