<?xml version="1.0" encoding="us-ascii" standalone="no"?><svg xmlns="http://www.w3.org/2000/svg" xmlns:xlink="http://www.w3.org/1999/xlink" contentStyleType="text/css" height="413px" preserveAspectRatio="none" style="width:605px;height:413px;background:#FFFFFF;" version="1.1" viewBox="0 0 605 413" width="605px" zoomAndPan="magnify"><defs/><g><text fill="#000000" font-family="sans-serif" font-size="20" font-weight="bold" lengthAdjust="spacing" textLength="132" x="23.75" y="29.3359">UnusedClass</text><text fill="#000000" font-family="sans-serif" font-size="20" font-weight="bold" lengthAdjust="spacing" textLength="104" x="162.75" y="29.3359">simplified</text><text fill="#000000" font-family="sans-serif" font-size="20" font-weight="bold" lengthAdjust="spacing" textLength="38" x="273.75" y="29.3359">and</text><text fill="#000000" font-family="sans-serif" font-size="20" font-weight="bold" lengthAdjust="spacing" textLength="249" x="318.75" y="29.3359">grouped per namespace</text><!--cluster DotNetPreAdapter--><g id="cluster_DotNetPreAdapter"><a href="DotNetPreAdapter-diagram-simplified-grouped-per-namespace.svg" target="_top" title="DotNetPreAdapter-diagram-simplified-grouped-per-namespace.svg" xlink:actuate="onRequest" xlink:href="DotNetPreAdapter-diagram-simplified-grouped-per-namespace.svg" xlink:show="new" xlink:title="DotNetPreAdapter-diagram-simplified-grouped-per-namespace.svg" xlink:type="simple"><path d="M455,115.5547 L586,115.5547 A3.75,3.75 0 0 1 588.5,118.0547 L595.5,138.043 L596,138.043 A2.5,2.5 0 0 1 598.5,140.543 L598.5,212.0547 A2.5,2.5 0 0 1 596,214.5547 L455,214.5547 A2.5,2.5 0 0 1 452.5,212.0547 L452.5,118.0547 A2.5,2.5 0 0 1 455,115.5547 " fill="none" style="stroke:#000000;stroke-width:1.5;"/><line style="stroke:#000000;stroke-width:1.5;" x1="452.5" x2="595.5" y1="138.043" y2="138.043"/><text fill="#000000" font-family="sans-serif" font-size="14" font-weight="bold" lengthAdjust="spacing" textLength="130" x="456.5" y="131.0898">DotNetPreAdapter</text></a></g><!--class Program--><a href="DotNetPreAdapter.Program-diagram-simplified-grouped-per-namespace.svg" target="_top" title="DotNetPreAdapter.Program-diagram-simplified-grouped-per-namespace.svg" xlink:actuate="onRequest" xlink:href="DotNetPreAdapter.Program-diagram-simplified-grouped-per-namespace.svg" xlink:show="new" xlink:title="DotNetPreAdapter.Program-diagram-simplified-grouped-per-namespace.svg" xlink:type="simple"><g id="elem_Program"><rect codeLine="8" fill="#F1F1F1" height="48" id="Program" rx="2.5" ry="2.5" style="stroke:#181818;stroke-width:0.5;" width="91" x="470" y="150.5547"/><ellipse cx="485" cy="166.5547" fill="#A9DCDF" rx="11" ry="11" style="stroke:#181818;stroke-width:1.0;"/><path d="M484.8633,161.9028 L483.7095,166.9746 L486.0254,166.9746 Z M483.3691,159.6616 L486.3657,159.6616 L489.7109,172.0547 L487.2622,172.0547 L486.4985,168.9917 L483.2197,168.9917 L482.4727,172.0547 L480.0239,172.0547 Z " fill="#000000"/><text fill="#000000" font-family="sans-serif" font-size="14" font-style="italic" lengthAdjust="spacing" textLength="59" x="499" y="171.8457">Program</text><line style="stroke:#181818;stroke-width:0.5;" x1="471" x2="560" y1="182.5547" y2="182.5547"/><line style="stroke:#181818;stroke-width:0.5;" x1="471" x2="560" y1="190.5547" y2="190.5547"/></g></a><g id="elem_FloatingNote"><path d="M6,50.5547 L6,298.2129 L435,298.2129 L435,60.5547 L425,50.5547 L6,50.5547 " fill="#FEFFDD" style="stroke:#181818;stroke-width:0.5;"/><path d="M425,50.5547 L425,60.5547 L435,60.5547 L425,50.5547 " fill="#FEFFDD" style="stroke:#181818;stroke-width:1.0;"/><text fill="#000000" font-family="sans-serif" font-size="13" lengthAdjust="spacing" textLength="120" x="12" y="68.123">Your are analyzing:</text><text fill="#000000" font-family="sans-serif" font-size="13" lengthAdjust="spacing" textLength="81" x="12" y="83.4336">UnusedClass</text><text fill="#000000" font-family="sans-serif" font-size="13" font-weight="bold" lengthAdjust="spacing" textLength="67" x="97" y="83.4336">simplified</text><text fill="#000000" font-family="sans-serif" font-size="13" lengthAdjust="spacing" textLength="23" x="168" y="83.4336">and</text><text fill="#000000" font-family="sans-serif" font-size="13" font-weight="bold" lengthAdjust="spacing" textLength="166" x="195" y="83.4336">grouped per namespace</text><text fill="#000000" font-family="sans-serif" font-size="13" lengthAdjust="spacing" textLength="4" x="12" y="98.7441">&#160;</text><text fill="#000000" font-family="sans-serif" font-size="13" lengthAdjust="spacing" textLength="229" x="12" y="129.3652">You can click either the namespaces</text><text fill="#000000" font-family="sans-serif" font-size="13" lengthAdjust="spacing" textLength="266" x="12" y="144.6758">or class names for filtering them and their</text><text fill="#000000" font-family="sans-serif" font-size="13" lengthAdjust="spacing" textLength="130" x="12" y="159.9863">direct dependencies.</text><text fill="#000000" font-family="sans-serif" font-size="13" lengthAdjust="spacing" textLength="4" x="12" y="175.2969">&#160;</text><line style="stroke:#181818;stroke-width:1.0;" x1="7" x2="204.5" y1="109.1416" y2="109.1416"/><line style="stroke:#181818;stroke-width:1.0;" x1="7" x2="204.5" y1="111.1416" y2="111.1416"/><text fill="#000000" font-family="sans-serif" font-size="13" lengthAdjust="spacing" textLength="32" x="204.5" y="113.5547">Filter</text><line style="stroke:#181818;stroke-width:1.0;" x1="236.5" x2="434" y1="109.1416" y2="109.1416"/><line style="stroke:#181818;stroke-width:1.0;" x1="236.5" x2="434" y1="111.1416" y2="111.1416"/><ellipse cx="17.5" cy="205.1602" fill="#000000" rx="2.5" ry="2.5" style="stroke:#000000;stroke-width:0.0;"/><text fill="#000000" font-family="sans-serif" font-size="13" lengthAdjust="spacing" textLength="81" x="24" y="209.918">UnusedClass</text><text fill="#000000" font-family="sans-serif" font-size="13" font-weight="bold" lengthAdjust="spacing" textLength="55" x="109" y="209.918">detailed</text><text fill="#000000" font-family="sans-serif" font-size="13" lengthAdjust="spacing" textLength="23" x="168" y="209.918">and</text><text fill="#000000" font-family="sans-serif" font-size="13" font-weight="bold" lengthAdjust="spacing" textLength="166" x="195" y="209.918">grouped per namespace</text><text fill="#000000" font-family="sans-serif" font-size="13" lengthAdjust="spacing" textLength="4" x="361" y="209.918">:</text><text fill="#000000" font-family="sans-serif" font-size="13" lengthAdjust="spacing" textLength="12" x="12" y="225.2285">&#160;&#160;&#160;</text><a href="UnusedClass-diagram-detailed-grouped-per-namespace.svg" target="_top" title="UnusedClass-diagram-detailed-grouped-per-namespace.svg" xlink:actuate="onRequest" xlink:href="UnusedClass-diagram-detailed-grouped-per-namespace.svg" xlink:show="new" xlink:title="UnusedClass-diagram-detailed-grouped-per-namespace.svg" xlink:type="simple"><text fill="#0000FF" font-family="sans-serif" font-size="13" lengthAdjust="spacing" text-decoration="underline" textLength="390" x="24" y="225.2285">UnusedClass-diagram-detailed-grouped-per-namespace.svg</text></a><ellipse cx="17.5" cy="235.7813" fill="#000000" rx="2.5" ry="2.5" style="stroke:#000000;stroke-width:0.0;"/><text fill="#000000" font-family="sans-serif" font-size="13" lengthAdjust="spacing" textLength="78" x="24" y="240.5391">Full diagram</text><text fill="#000000" font-family="sans-serif" font-size="13" font-weight="bold" lengthAdjust="spacing" textLength="67" x="106" y="240.5391">simplified</text><text fill="#000000" font-family="sans-serif" font-size="13" lengthAdjust="spacing" textLength="23" x="177" y="240.5391">and</text><text fill="#000000" font-family="sans-serif" font-size="13" font-weight="bold" lengthAdjust="spacing" textLength="166" x="204" y="240.5391">grouped per namespace</text><text fill="#000000" font-family="sans-serif" font-size="13" lengthAdjust="spacing" textLength="4" x="370" y="240.5391">:</text><text fill="#000000" font-family="sans-serif" font-size="13" lengthAdjust="spacing" textLength="12" x="12" y="255.8496">&#160;&#160;&#160;</text><a href="full-diagram-simplified-grouped-per-namespace.svg" target="_top" title="full-diagram-simplified-grouped-per-namespace.svg" xlink:actuate="onRequest" xlink:href="full-diagram-simplified-grouped-per-namespace.svg" xlink:show="new" xlink:title="full-diagram-simplified-grouped-per-namespace.svg" xlink:type="simple"><text fill="#0000FF" font-family="sans-serif" font-size="13" lengthAdjust="spacing" text-decoration="underline" textLength="343" x="24" y="255.8496">full-diagram-simplified-grouped-per-namespace.svg</text></a><ellipse cx="17.5" cy="266.4023" fill="#000000" rx="2.5" ry="2.5" style="stroke:#000000;stroke-width:0.0;"/><text fill="#000000" font-family="sans-serif" font-size="13" lengthAdjust="spacing" textLength="41" x="24" y="271.1602">Home:</text><text fill="#000000" font-family="sans-serif" font-size="13" lengthAdjust="spacing" textLength="12" x="12" y="286.4707">&#160;&#160;&#160;</text><a href="index.html" target="_top" title="index.html" xlink:actuate="onRequest" xlink:href="index.html" xlink:show="new" xlink:title="index.html" xlink:type="simple"><text fill="#0000FF" font-family="sans-serif" font-size="13" lengthAdjust="spacing" text-decoration="underline" textLength="68" x="24" y="286.4707">index.html</text></a><line style="stroke:#181818;stroke-width:1.0;" x1="7" x2="183.5" y1="189.6943" y2="189.6943"/><line style="stroke:#181818;stroke-width:1.0;" x1="7" x2="183.5" y1="191.6943" y2="191.6943"/><text fill="#000000" font-family="sans-serif" font-size="13" lengthAdjust="spacing" textLength="74" x="183.5" y="194.1074">Select other</text><line style="stroke:#181818;stroke-width:1.0;" x1="257.5" x2="434" y1="189.6943" y2="189.6943"/><line style="stroke:#181818;stroke-width:1.0;" x1="257.5" x2="434" y1="191.6943" y2="191.6943"/></g><!--class UnusedClass--><a href="UnusedClass-diagram-simplified-grouped-per-namespace.svg" target="_top" title="UnusedClass-diagram-simplified-grouped-per-namespace.svg" xlink:actuate="onRequest" xlink:href="UnusedClass-diagram-simplified-grouped-per-namespace.svg" xlink:show="new" xlink:title="UnusedClass-diagram-simplified-grouped-per-namespace.svg" xlink:type="simple"><g id="elem_UnusedClass"><rect codeLine="4" fill="#FFFF00" height="48" id="UnusedClass" rx="2.5" ry="2.5" style="stroke:#181818;stroke-width:0.5;" width="120" x="455.5" y="358.5547"/><ellipse cx="470.5" cy="374.5547" fill="#ADD1B2" rx="11" ry="11" style="stroke:#181818;stroke-width:1.0;"/><path d="M472.9731,380.6978 Q472.3921,380.9966 471.7529,381.146 Q471.1138,381.2954 470.4082,381.2954 Q467.9014,381.2954 466.5815,379.6436 Q465.2617,377.9917 465.2617,374.8706 Q465.2617,371.7412 466.5815,370.0894 Q467.9014,368.4375 470.4082,368.4375 Q471.1138,368.4375 471.7612,368.5869 Q472.4087,368.7363 472.9731,369.0352 L472.9731,371.7578 Q472.3423,371.1768 471.7488,370.907 Q471.1553,370.6372 470.5244,370.6372 Q469.1797,370.6372 468.4949,371.7039 Q467.8101,372.7705 467.8101,374.8706 Q467.8101,376.9624 468.4949,378.0291 Q469.1797,379.0957 470.5244,379.0957 Q471.1553,379.0957 471.7488,378.8259 Q472.3423,378.5562 472.9731,377.9751 Z " fill="#000000"/><text fill="#000000" font-family="sans-serif" font-size="14" lengthAdjust="spacing" textLength="88" x="484.5" y="379.8457">UnusedClass</text><line style="stroke:#181818;stroke-width:0.5;" x1="456.5" x2="574.5" y1="390.5547" y2="390.5547"/><line style="stroke:#181818;stroke-width:0.5;" x1="456.5" x2="574.5" y1="398.5547" y2="398.5547"/></g></a><!--link Program to UnusedClass--><g id="link_Program_UnusedClass"><path codeLine="21" d="M515.5,198.8247 C515.5,198.8247 515.5,352.1247 515.5,352.1247 " fill="none" id="Program-to-UnusedClass" style="stroke:#909090;stroke-width:1.0;"/><polygon fill="#909090" points="515.5,357.1247,519.5,348.1247,515.5,352.1247,511.5,348.1247,515.5,357.1247" style="stroke:#909090;stroke-width:1.0;"/><text fill="#000000" font-family="sans-serif" font-size="13" lengthAdjust="spacing" textLength="29" x="485.5" y="272.043">uses</text></g><!--SRC=[jLDDQzj04BthLmp98I2G6dghYGt5nVHa0gM7OXcprexi8QjTiRDAueJ-zyxA7yedYGkMX91svytRzsQ6RyWsogiQ35aCcmR1-R1sIQ1W4AwO7d3mzNBqsxQCUcmKCwGfKzqOgWXrceAoMfPMthKDQcZGWrKrSgDAJDEhBp73AB4k89pzSQq7vL4mocmUoAu6XVtVr8Kjx70u8HFG3uU5bUHGAWkbeV86aC9QukNLOnWAwxm4HAfk5IhvhxeKSfWONNUaya6-i9eybW4qDcWrsfAGyotjBpHnnqMII9x2SnaQWoBpiGZH3m2psHDqfacjf2BPFaUsmsQ2pGxOd6zNytbadhJ6m0vqb8DxyaeI75Xx-4UyFrsD-nGa_jpdwr2R-VmC5CF4E1N4qwaKFjaw_jIXjnL_ZXlEDsYCkuF7v6zo0MFZE1PFYGkDnrjoBI-uNIuEi8KX3hrmc3gBiCHIoGbYzNVzoCGWJqMMU8qwJth43nUc6AuzVjUgaMQHyxzSEbR4OwAM7BoIBjhQyp9XVkrTLzBNNFkjOpctZerTBIClxN1QVN0d8mWYBO0CIurMngM2qrQip_s-Dh40BcGeFdN1oMBZKMFPFHeP56SPyBvh1obCvLtTAnX8x97XhpI_srpPxFpRPRpdsUZPXC80v8VX7m00]--></g></svg>