<?xml version="1.0" encoding="us-ascii" standalone="no"?><svg xmlns="http://www.w3.org/2000/svg" xmlns:xlink="http://www.w3.org/1999/xlink" contentStyleType="text/css" height="413px" preserveAspectRatio="none" style="width:793px;height:413px;background:#FFFFFF;" version="1.1" viewBox="0 0 793 413" width="793px" zoomAndPan="magnify"><defs/><g><text fill="#000000" font-family="sans-serif" font-size="20" font-weight="bold" lengthAdjust="spacing" textLength="132" x="274.75" y="29.3359">UnusedClass</text><text fill="#000000" font-family="sans-serif" font-size="20" font-weight="bold" lengthAdjust="spacing" textLength="84" x="413.75" y="29.3359">detailed</text><text fill="#000000" font-family="sans-serif" font-size="20" font-weight="bold" lengthAdjust="spacing" textLength="7" x="497.75" y="29.3359">&#160;</text><!--cluster DotNetPreAdapter--><g id="cluster_DotNetPreAdapter"><path d="M405,54.0547 L536,54.0547 A3.75,3.75 0 0 1 538.5,56.5547 L545.5,76.543 L784,76.543 A2.5,2.5 0 0 1 786.5,79.043 L786.5,273.5547 A2.5,2.5 0 0 1 784,276.0547 L405,276.0547 A2.5,2.5 0 0 1 402.5,273.5547 L402.5,56.5547 A2.5,2.5 0 0 1 405,54.0547 " fill="none" style="stroke:#000000;stroke-width:1.5;"/><line style="stroke:#000000;stroke-width:1.5;" x1="402.5" x2="545.5" y1="76.543" y2="76.543"/><text fill="#000000" font-family="sans-serif" font-size="14" font-weight="bold" lengthAdjust="spacing" textLength="130" x="406.5" y="69.5898">DotNetPreAdapter</text></g><!--class Program--><a href="DotNetPreAdapter.Program-diagram-detailed.svg" target="_top" title="DotNetPreAdapter.Program-diagram-detailed.svg" xlink:actuate="onRequest" xlink:href="DotNetPreAdapter.Program-diagram-detailed.svg" xlink:show="new" xlink:title="DotNetPreAdapter.Program-diagram-detailed.svg" xlink:type="simple"><g id="elem_Program"><rect codeLine="6" fill="#F1F1F1" height="171.418" id="Program" rx="2.5" ry="2.5" style="stroke:#181818;stroke-width:0.5;" width="352" x="418.5" y="89.0547"/><ellipse cx="560.75" cy="105.0547" fill="#A9DCDF" rx="11" ry="11" style="stroke:#181818;stroke-width:1.0;"/><path d="M560.6133,100.4028 L559.4595,105.4746 L561.7754,105.4746 Z M559.1191,98.1616 L562.1157,98.1616 L565.4609,110.5547 L563.0122,110.5547 L562.2485,107.4917 L558.9697,107.4917 L558.2227,110.5547 L555.7739,110.5547 Z " fill="#000000"/><text fill="#000000" font-family="sans-serif" font-size="14" font-style="italic" lengthAdjust="spacing" textLength="59" x="581.25" y="110.3457">Program</text><line style="stroke:#181818;stroke-width:0.5;" x1="419.5" x2="769.5" y1="121.0547" y2="121.0547"/><ellipse cx="429.5" cy="134.7988" fill="#84BE84" rx="3" ry="3" style="stroke:#038048;stroke-width:1.0;"/><text fill="#000000" font-family="sans-serif" font-size="14" lengthAdjust="spacing" textLength="76" x="438.5" y="138.5898">removeMe(</text><text fill="#000000" font-family="sans-serif" font-size="14" lengthAdjust="spacing" textLength="5" x="514.5" y="138.5898">)</text><rect fill="none" height="6" style="stroke:#C82930;stroke-width:1.0;" width="6" x="426.5" y="148.2871"/><text fill="#909090" font-family="sans-serif" font-size="14" lengthAdjust="spacing" textLength="290" x="438.5" y="155.0781">removeMe.u1: MyNamespace.UnusedClass</text><rect fill="none" height="6" style="stroke:#C82930;stroke-width:1.0;" width="6" x="426.5" y="164.7754"/><text fill="#909090" font-family="sans-serif" font-size="14" lengthAdjust="spacing" textLength="189" x="438.5" y="171.5664">removeMe.u2: UnusedClass</text><rect fill="none" height="6" style="stroke:#C82930;stroke-width:1.0;" width="6" x="426.5" y="181.2637"/><text fill="#909090" font-family="sans-serif" font-size="14" lengthAdjust="spacing" textLength="299" x="438.5" y="188.0547">removeMe.u3: MyNamespace.UnusedClass1</text><line style="stroke:#181818;stroke-width:1.0;" x1="419.5" x2="769.5" y1="195.0078" y2="195.0078"/><ellipse cx="429.5" cy="208.752" fill="#84BE84" rx="3" ry="3" style="stroke:#038048;stroke-width:1.0;"/><text fill="#000000" font-family="sans-serif" font-size="14" lengthAdjust="spacing" textLength="38" x="438.5" y="212.543">Main(</text><text fill="#000000" font-family="sans-serif" font-size="14" lengthAdjust="spacing" textLength="5" x="476.5" y="212.543">)</text><rect fill="none" height="6" style="stroke:#C82930;stroke-width:1.0;" width="6" x="426.5" y="222.2402"/><text fill="#909090" font-family="sans-serif" font-size="14" lengthAdjust="spacing" textLength="300" x="438.5" y="229.0313">Main.logger: DotNetPreAdapter.Utils.Logger</text><rect fill="none" height="6" style="stroke:#C82930;stroke-width:1.0;" width="6" x="426.5" y="238.7285"/><text fill="#909090" font-family="sans-serif" font-size="14" lengthAdjust="spacing" textLength="326" x="438.5" y="245.5195">Main.ast: DotNetPreAdapter.Service.AnalyzeAST</text><line style="stroke:#181818;stroke-width:1.0;" x1="419.5" x2="769.5" y1="252.4727" y2="252.4727"/></g></a><g id="elem_FloatingNote"><path d="M6,50.5547 L6,298.2129 L383,298.2129 L383,60.5547 L373,50.5547 L6,50.5547 " fill="#FEFFDD" style="stroke:#181818;stroke-width:0.5;"/><path d="M373,50.5547 L373,60.5547 L383,60.5547 L373,50.5547 " fill="#FEFFDD" style="stroke:#181818;stroke-width:1.0;"/><text fill="#000000" font-family="sans-serif" font-size="13" lengthAdjust="spacing" textLength="120" x="12" y="68.123">Your are analyzing:</text><text fill="#000000" font-family="sans-serif" font-size="13" lengthAdjust="spacing" textLength="81" x="12" y="83.4336">UnusedClass</text><text fill="#000000" font-family="sans-serif" font-size="13" font-weight="bold" lengthAdjust="spacing" textLength="55" x="97" y="83.4336">detailed</text><text fill="#000000" font-family="sans-serif" font-size="13" lengthAdjust="spacing" textLength="4" x="152" y="83.4336">&#160;</text><text fill="#000000" font-family="sans-serif" font-size="13" lengthAdjust="spacing" textLength="4" x="12" y="98.7441">&#160;</text><text fill="#000000" font-family="sans-serif" font-size="13" lengthAdjust="spacing" textLength="229" x="12" y="129.3652">You can click either the namespaces</text><text fill="#000000" font-family="sans-serif" font-size="13" lengthAdjust="spacing" textLength="266" x="12" y="144.6758">or class names for filtering them and their</text><text fill="#000000" font-family="sans-serif" font-size="13" lengthAdjust="spacing" textLength="130" x="12" y="159.9863">direct dependencies.</text><text fill="#000000" font-family="sans-serif" font-size="13" lengthAdjust="spacing" textLength="4" x="12" y="175.2969">&#160;</text><line style="stroke:#181818;stroke-width:1.0;" x1="7" x2="178.5" y1="109.1416" y2="109.1416"/><line style="stroke:#181818;stroke-width:1.0;" x1="7" x2="178.5" y1="111.1416" y2="111.1416"/><text fill="#000000" font-family="sans-serif" font-size="13" lengthAdjust="spacing" textLength="32" x="178.5" y="113.5547">Filter</text><line style="stroke:#181818;stroke-width:1.0;" x1="210.5" x2="382" y1="109.1416" y2="109.1416"/><line style="stroke:#181818;stroke-width:1.0;" x1="210.5" x2="382" y1="111.1416" y2="111.1416"/><ellipse cx="17.5" cy="205.1602" fill="#000000" rx="2.5" ry="2.5" style="stroke:#000000;stroke-width:0.0;"/><text fill="#000000" font-family="sans-serif" font-size="13" lengthAdjust="spacing" textLength="81" x="24" y="209.918">UnusedClass</text><text fill="#000000" font-family="sans-serif" font-size="13" font-weight="bold" lengthAdjust="spacing" textLength="67" x="109" y="209.918">simplified</text><text fill="#000000" font-family="sans-serif" font-size="13" lengthAdjust="spacing" textLength="4" x="180" y="209.918">:</text><text fill="#000000" font-family="sans-serif" font-size="13" lengthAdjust="spacing" textLength="12" x="12" y="225.2285">&#160;&#160;&#160;</text><a href="UnusedClass-diagram-simplified.svg" target="_top" title="UnusedClass-diagram-simplified.svg" xlink:actuate="onRequest" xlink:href="UnusedClass-diagram-simplified.svg" xlink:show="new" xlink:title="UnusedClass-diagram-simplified.svg" xlink:type="simple"><text fill="#0000FF" font-family="sans-serif" font-size="13" lengthAdjust="spacing" text-decoration="underline" textLength="237" x="24" y="225.2285">UnusedClass-diagram-simplified.svg</text></a><ellipse cx="17.5" cy="235.7813" fill="#000000" rx="2.5" ry="2.5" style="stroke:#000000;stroke-width:0.0;"/><text fill="#000000" font-family="sans-serif" font-size="13" lengthAdjust="spacing" textLength="78" x="24" y="240.5391">Full diagram</text><text fill="#000000" font-family="sans-serif" font-size="13" font-weight="bold" lengthAdjust="spacing" textLength="55" x="106" y="240.5391">detailed</text><text fill="#000000" font-family="sans-serif" font-size="13" lengthAdjust="spacing" textLength="23" x="165" y="240.5391">and</text><text fill="#000000" font-family="sans-serif" font-size="13" font-weight="bold" lengthAdjust="spacing" textLength="166" x="192" y="240.5391">grouped per namespace</text><text fill="#000000" font-family="sans-serif" font-size="13" lengthAdjust="spacing" textLength="4" x="358" y="240.5391">:</text><text fill="#000000" font-family="sans-serif" font-size="13" lengthAdjust="spacing" textLength="12" x="12" y="255.8496">&#160;&#160;&#160;</text><a href="full-diagram-detailed-grouped-per-namespace.svg" target="_top" title="full-diagram-detailed-grouped-per-namespace.svg" xlink:actuate="onRequest" xlink:href="full-diagram-detailed-grouped-per-namespace.svg" xlink:show="new" xlink:title="full-diagram-detailed-grouped-per-namespace.svg" xlink:type="simple"><text fill="#0000FF" font-family="sans-serif" font-size="13" lengthAdjust="spacing" text-decoration="underline" textLength="330" x="24" y="255.8496">full-diagram-detailed-grouped-per-namespace.svg</text></a><ellipse cx="17.5" cy="266.4023" fill="#000000" rx="2.5" ry="2.5" style="stroke:#000000;stroke-width:0.0;"/><text fill="#000000" font-family="sans-serif" font-size="13" lengthAdjust="spacing" textLength="41" x="24" y="271.1602">Home:</text><text fill="#000000" font-family="sans-serif" font-size="13" lengthAdjust="spacing" textLength="12" x="12" y="286.4707">&#160;&#160;&#160;</text><a href="index.html" target="_top" title="index.html" xlink:actuate="onRequest" xlink:href="index.html" xlink:show="new" xlink:title="index.html" xlink:type="simple"><text fill="#0000FF" font-family="sans-serif" font-size="13" lengthAdjust="spacing" text-decoration="underline" textLength="68" x="24" y="286.4707">index.html</text></a><line style="stroke:#181818;stroke-width:1.0;" x1="7" x2="157.5" y1="189.6943" y2="189.6943"/><line style="stroke:#181818;stroke-width:1.0;" x1="7" x2="157.5" y1="191.6943" y2="191.6943"/><text fill="#000000" font-family="sans-serif" font-size="13" lengthAdjust="spacing" textLength="74" x="157.5" y="194.1074">Select other</text><line style="stroke:#181818;stroke-width:1.0;" x1="231.5" x2="382" y1="189.6943" y2="189.6943"/><line style="stroke:#181818;stroke-width:1.0;" x1="231.5" x2="382" y1="191.6943" y2="191.6943"/></g><!--class UnusedClass--><a href="UnusedClass-diagram-detailed.svg" target="_top" title="UnusedClass-diagram-detailed.svg" xlink:actuate="onRequest" xlink:href="UnusedClass-diagram-detailed.svg" xlink:show="new" xlink:title="UnusedClass-diagram-detailed.svg" xlink:type="simple"><g id="elem_UnusedClass"><rect codeLine="4" fill="#FFFF00" height="48" id="UnusedClass" rx="2.5" ry="2.5" style="stroke:#181818;stroke-width:0.5;" width="120" x="534.5" y="358.5547"/><ellipse cx="549.5" cy="374.5547" fill="#ADD1B2" rx="11" ry="11" style="stroke:#181818;stroke-width:1.0;"/><path d="M551.9731,380.6978 Q551.3921,380.9966 550.7529,381.146 Q550.1138,381.2954 549.4082,381.2954 Q546.9014,381.2954 545.5815,379.6436 Q544.2617,377.9917 544.2617,374.8706 Q544.2617,371.7412 545.5815,370.0894 Q546.9014,368.4375 549.4082,368.4375 Q550.1138,368.4375 550.7612,368.5869 Q551.4087,368.7363 551.9731,369.0352 L551.9731,371.7578 Q551.3423,371.1768 550.7488,370.907 Q550.1553,370.6372 549.5244,370.6372 Q548.1797,370.6372 547.4949,371.7039 Q546.8101,372.7705 546.8101,374.8706 Q546.8101,376.9624 547.4949,378.0291 Q548.1797,379.0957 549.5244,379.0957 Q550.1553,379.0957 550.7488,378.8259 Q551.3423,378.5562 551.9731,377.9751 Z " fill="#000000"/><text fill="#000000" font-family="sans-serif" font-size="14" lengthAdjust="spacing" textLength="88" x="563.5" y="379.8457">UnusedClass</text><line style="stroke:#181818;stroke-width:0.5;" x1="535.5" x2="653.5" y1="390.5547" y2="390.5547"/><line style="stroke:#181818;stroke-width:0.5;" x1="535.5" x2="653.5" y1="398.5547" y2="398.5547"/></g></a><!--link Program to UnusedClass--><g id="link_Program_UnusedClass"><path codeLine="24" d="M594.5,260.3547 C594.5,260.3547 594.5,352.0847 594.5,352.0847 " fill="none" id="Program-to-UnusedClass" style="stroke:#909090;stroke-width:1.0;"/><polygon fill="#909090" points="594.5,357.0847,598.5,348.0847,594.5,352.0847,590.5,348.0847,594.5,357.0847" style="stroke:#909090;stroke-width:1.0;"/><text fill="#000000" font-family="sans-serif" font-size="13" lengthAdjust="spacing" textLength="29" x="564.5" y="302.793">uses</text></g><!--SRC=[jLDRQzim57xthpYu3zqyxAOT56PYGxeHzh24GjQ7aVX1iuyTKLaoaf8r7VtlExBZNBQ6TONPO2pfk-WxEZBtN3PCine4bsWt3OBITgayowr061h-YF7L8BsJAuF5Hy6CWI0eq38ki0W265uuIEf9PH7yRsgbWMa49fdOF79PnGjvahkG2vaaOouiwYHPI693pYJaWkVtWDmkKGDzGB8QJSDoDCHHcW1Egvs5aiPbAq5k3bsJUU5-k5x8WclCBHJOe2nGvXnDrDdEKBWLvKoSUG37-pIyRWGlURjJIW40y_a192mugwXmuHuOcNMLPKvgl182je3Zp6vlGL1fjMgmW8O2xi85GMzJ4dsdtvF3BIaaKhWZxJq_gnfx0KvX7wAbhKMM-S0CZ8LYbWeqfMFokl8Tndq-MU_SUS3P1eLGF-2dz-InxyPgHlNhj3ufEqLxgt5Ki8QE8hhLgiq-dvzQEkL2yW3lG6EjrZZ1DyDIIR9HGkd4lnvS3svk_7HuuMRJjmGDuGZnOU1UF-tvqUeoXibckglNGT2joaj4hc9u7V7zIVVBNYKCsyGJnkLhqpfk95HLeOx_F8mxouM9lhJBVzrwAyMCVKPdXdhDASIelTmucdqzYF3amJbrzeiU-6_OS-WQMgEWVbVI03wqZKgNhTIgtj-scB3_2F-z8Dx9jW_dPrqzip0zkcWG0mqC_080]--></g></svg>