<?xml version="1.0" encoding="us-ascii" standalone="no"?><svg xmlns="http://www.w3.org/2000/svg" xmlns:xlink="http://www.w3.org/1999/xlink" contentStyleType="text/css" height="522px" preserveAspectRatio="none" style="width:1353px;height:522px;background:#FFFFFF;" version="1.1" viewBox="0 0 1353 522" width="1353px" zoomAndPan="magnify"><defs/><g><text fill="#000000" font-family="sans-serif" font-size="20" font-weight="bold" lengthAdjust="spacing" textLength="202" x="372.5" y="29.3359">YamlSequenceNode</text><text fill="#000000" font-family="sans-serif" font-size="20" font-weight="bold" lengthAdjust="spacing" textLength="84" x="581.5" y="29.3359">detailed</text><text fill="#000000" font-family="sans-serif" font-size="20" font-weight="bold" lengthAdjust="spacing" textLength="38" x="672.5" y="29.3359">and</text><text fill="#000000" font-family="sans-serif" font-size="20" font-weight="bold" lengthAdjust="spacing" textLength="249" x="717.5" y="29.3359">grouped per namespace</text><!--cluster DotNetPreAdapter--><g id="cluster_DotNetPreAdapter"><a href="DotNetPreAdapter-diagram-detailed-grouped-per-namespace.svg" target="_top" title="DotNetPreAdapter-diagram-detailed-grouped-per-namespace.svg" xlink:actuate="onRequest" xlink:href="DotNetPreAdapter-diagram-detailed-grouped-per-namespace.svg" xlink:show="new" xlink:title="DotNetPreAdapter-diagram-detailed-grouped-per-namespace.svg" xlink:type="simple"><path d="M508.5,50.5547 L639.5,50.5547 A3.75,3.75 0 0 1 642,53.0547 L649,73.043 L1343.5,73.043 A2.5,2.5 0 0 1 1346,75.543 L1346,445.0547 A2.5,2.5 0 0 1 1343.5,447.5547 L508.5,447.5547 A2.5,2.5 0 0 1 506,445.0547 L506,53.0547 A2.5,2.5 0 0 1 508.5,50.5547 " fill="none" style="stroke:#000000;stroke-width:1.5;"/><line style="stroke:#000000;stroke-width:1.5;" x1="506" x2="649" y1="73.043" y2="73.043"/><text fill="#000000" font-family="sans-serif" font-size="14" font-weight="bold" lengthAdjust="spacing" textLength="130" x="510" y="66.0898">DotNetPreAdapter</text></a></g><!--cluster Infrastructure--><g id="cluster_Infrastructure"><a href="DotNetPreAdapter.Infrastructure-diagram-detailed-grouped-per-namespace.svg" target="_top" title="DotNetPreAdapter.Infrastructure-diagram-detailed-grouped-per-namespace.svg" xlink:actuate="onRequest" xlink:href="DotNetPreAdapter.Infrastructure-diagram-detailed-grouped-per-namespace.svg" xlink:show="new" xlink:title="DotNetPreAdapter.Infrastructure-diagram-detailed-grouped-per-namespace.svg" xlink:type="simple"><path d="M532.5,93.5547 L632.5,93.5547 A3.75,3.75 0 0 1 635,96.0547 L642,116.043 L1319.5,116.043 A2.5,2.5 0 0 1 1322,118.543 L1322,421.0547 A2.5,2.5 0 0 1 1319.5,423.5547 L532.5,423.5547 A2.5,2.5 0 0 1 530,421.0547 L530,96.0547 A2.5,2.5 0 0 1 532.5,93.5547 " fill="none" style="stroke:#000000;stroke-width:1.5;"/><line style="stroke:#000000;stroke-width:1.5;" x1="530" x2="642" y1="116.043" y2="116.043"/><text fill="#000000" font-family="sans-serif" font-size="14" font-weight="bold" lengthAdjust="spacing" textLength="99" x="534" y="109.0898">Infrastructure</text></a></g><!--class CreateYml--><a href="DotNetPreAdapter.Infrastructure.CreateYml-diagram-detailed-grouped-per-namespace.svg" target="_top" title="DotNetPreAdapter.Infrastructure.CreateYml-diagram-detailed-grouped-per-namespace.svg" xlink:actuate="onRequest" xlink:href="DotNetPreAdapter.Infrastructure.CreateYml-diagram-detailed-grouped-per-namespace.svg" xlink:show="new" xlink:title="DotNetPreAdapter.Infrastructure.CreateYml-diagram-detailed-grouped-per-namespace.svg" xlink:type="simple"><g id="elem_CreateYml"><rect codeLine="9" fill="#F1F1F1" height="278.8359" id="CreateYml" rx="2.5" ry="2.5" style="stroke:#181818;stroke-width:0.5;" width="759" x="546.5" y="128.5547"/><ellipse cx="886.25" cy="144.5547" fill="#A9DCDF" rx="11" ry="11" style="stroke:#181818;stroke-width:1.0;"/><path d="M886.1133,139.9028 L884.9595,144.9746 L887.2754,144.9746 Z M884.6191,137.6616 L887.6157,137.6616 L890.9609,150.0547 L888.5122,150.0547 L887.7485,146.9917 L884.4697,146.9917 L883.7227,150.0547 L881.2739,150.0547 Z " fill="#000000"/><text fill="#000000" font-family="sans-serif" font-size="14" font-style="italic" lengthAdjust="spacing" textLength="71" x="906.75" y="149.8457">CreateYml</text><line style="stroke:#181818;stroke-width:0.5;" x1="547.5" x2="1304.5" y1="160.5547" y2="160.5547"/><ellipse cx="557.5" cy="174.2988" fill="#84BE84" rx="3" ry="3" style="stroke:#038048;stroke-width:1.0;"/><text fill="#000000" font-family="sans-serif" font-size="14" lengthAdjust="spacing" textLength="50" x="566.5" y="178.0898">Create(</text><text fill="#6060BB" font-family="sans-serif" font-size="14" lengthAdjust="spacing" textLength="641" x="616.5" y="178.0898">datastructure:DotNetPreAdapter.Domain.Datastructure, logger:DotNetPreAdapter.Utils.Logger</text><text fill="#000000" font-family="sans-serif" font-size="14" lengthAdjust="spacing" textLength="9" x="1257.5" y="178.0898">):</text><text fill="#BB6060" font-family="sans-serif" font-size="14" lengthAdjust="spacing" textLength="29" x="1270.5" y="178.0898">void</text><rect fill="none" height="6" style="stroke:#C82930;stroke-width:1.0;" width="6" x="554.5" y="187.7871"/><text fill="#909090" font-family="sans-serif" font-size="14" lengthAdjust="spacing" textLength="373" x="566.5" y="194.5781">Create.subDatastructureYmlNode: YamlSequenceNode</text><rect fill="none" height="6" style="stroke:#C82930;stroke-width:1.0;" width="6" x="554.5" y="204.2754"/><text fill="#909090" font-family="sans-serif" font-size="14" lengthAdjust="spacing" textLength="578" x="566.5" y="211.0664">Create.subDataStructure: DotNetPreAdapter.Domain.Datastructure.SubDataStructure</text><rect fill="none" height="6" style="stroke:#C82930;stroke-width:1.0;" width="6" x="554.5" y="220.7637"/><text fill="#909090" font-family="sans-serif" font-size="14" lengthAdjust="spacing" textLength="279" x="566.5" y="227.5547">Create.fromImports: YamlSequenceNode</text><rect fill="none" height="6" style="stroke:#C82930;stroke-width:1.0;" width="6" x="554.5" y="237.252"/><text fill="#909090" font-family="sans-serif" font-size="14" lengthAdjust="spacing" textLength="280" x="566.5" y="244.043">Create.innerClasses: YamlSequenceNode</text><rect fill="none" height="6" style="stroke:#C82930;stroke-width:1.0;" width="6" x="554.5" y="253.7402"/><text fill="#909090" font-family="sans-serif" font-size="14" lengthAdjust="spacing" textLength="306" x="566.5" y="260.5313">Create.anonymousCalls: YamlSequenceNode</text><rect fill="none" height="6" style="stroke:#C82930;stroke-width:1.0;" width="6" x="554.5" y="270.2285"/><text fill="#909090" font-family="sans-serif" font-size="14" lengthAdjust="spacing" textLength="276" x="566.5" y="277.0195">Create.baseClasses: YamlSequenceNode</text><rect fill="none" height="6" style="stroke:#C82930;stroke-width:1.0;" width="6" x="554.5" y="286.7168"/><text fill="#909090" font-family="sans-serif" font-size="14" lengthAdjust="spacing" textLength="236" x="566.5" y="293.5078">Create.statics: YamlSequenceNode</text><rect fill="none" height="6" style="stroke:#C82930;stroke-width:1.0;" width="6" x="554.5" y="303.2051"/><text fill="#909090" font-family="sans-serif" font-size="14" lengthAdjust="spacing" textLength="254" x="566.5" y="309.9961">Create.variables: YamlSequenceNode</text><rect fill="none" height="6" style="stroke:#C82930;stroke-width:1.0;" width="6" x="554.5" y="319.6934"/><text fill="#909090" font-family="sans-serif" font-size="14" lengthAdjust="spacing" textLength="253" x="566.5" y="326.4844">Create.methods: YamlSequenceNode</text><rect fill="none" height="6" style="stroke:#C82930;stroke-width:1.0;" width="6" x="554.5" y="336.1816"/><text fill="#909090" font-family="sans-serif" font-size="14" lengthAdjust="spacing" textLength="271" x="566.5" y="342.9727">Create.parameters: YamlSequenceNode</text><rect fill="none" height="6" style="stroke:#C82930;stroke-width:1.0;" width="6" x="554.5" y="352.6699"/><text fill="#909090" font-family="sans-serif" font-size="14" lengthAdjust="spacing" textLength="309" x="566.5" y="359.4609">Create.methodVariables: YamlSequenceNode</text><rect fill="none" height="6" style="stroke:#C82930;stroke-width:1.0;" width="6" x="554.5" y="369.1582"/><text fill="#909090" font-family="sans-serif" font-size="14" lengthAdjust="spacing" textLength="186" x="566.5" y="375.9492">Create.stream: YamlStream</text><rect fill="none" height="6" style="stroke:#C82930;stroke-width:1.0;" width="6" x="554.5" y="385.6465"/><text fill="#909090" font-family="sans-serif" font-size="14" lengthAdjust="spacing" textLength="240" x="566.5" y="392.4375">Create.writer: System.IO.TextWriter</text><line style="stroke:#181818;stroke-width:1.0;" x1="547.5" x2="1304.5" y1="399.3906" y2="399.3906"/></g></a><g id="elem_FloatingNote"><path d="M6,144.0547 L6,391.7129 L490,391.7129 L490,154.0547 L480,144.0547 L6,144.0547 " fill="#FEFFDD" style="stroke:#181818;stroke-width:0.5;"/><path d="M480,144.0547 L480,154.0547 L490,154.0547 L480,144.0547 " fill="#FEFFDD" style="stroke:#181818;stroke-width:1.0;"/><text fill="#000000" font-family="sans-serif" font-size="13" lengthAdjust="spacing" textLength="120" x="12" y="161.623">Your are analyzing:</text><text fill="#000000" font-family="sans-serif" font-size="13" lengthAdjust="spacing" textLength="123" x="12" y="176.9336">YamlSequenceNode</text><text fill="#000000" font-family="sans-serif" font-size="13" font-weight="bold" lengthAdjust="spacing" textLength="55" x="139" y="176.9336">detailed</text><text fill="#000000" font-family="sans-serif" font-size="13" lengthAdjust="spacing" textLength="23" x="198" y="176.9336">and</text><text fill="#000000" font-family="sans-serif" font-size="13" font-weight="bold" lengthAdjust="spacing" textLength="166" x="225" y="176.9336">grouped per namespace</text><text fill="#000000" font-family="sans-serif" font-size="13" lengthAdjust="spacing" textLength="4" x="12" y="192.2441">&#160;</text><text fill="#000000" font-family="sans-serif" font-size="13" lengthAdjust="spacing" textLength="229" x="12" y="222.8652">You can click either the namespaces</text><text fill="#000000" font-family="sans-serif" font-size="13" lengthAdjust="spacing" textLength="266" x="12" y="238.1758">or class names for filtering them and their</text><text fill="#000000" font-family="sans-serif" font-size="13" lengthAdjust="spacing" textLength="130" x="12" y="253.4863">direct dependencies.</text><text fill="#000000" font-family="sans-serif" font-size="13" lengthAdjust="spacing" textLength="4" x="12" y="268.7969">&#160;</text><line style="stroke:#181818;stroke-width:1.0;" x1="7" x2="232" y1="202.6416" y2="202.6416"/><line style="stroke:#181818;stroke-width:1.0;" x1="7" x2="232" y1="204.6416" y2="204.6416"/><text fill="#000000" font-family="sans-serif" font-size="13" lengthAdjust="spacing" textLength="32" x="232" y="207.0547">Filter</text><line style="stroke:#181818;stroke-width:1.0;" x1="264" x2="489" y1="202.6416" y2="202.6416"/><line style="stroke:#181818;stroke-width:1.0;" x1="264" x2="489" y1="204.6416" y2="204.6416"/><ellipse cx="17.5" cy="298.6602" fill="#000000" rx="2.5" ry="2.5" style="stroke:#000000;stroke-width:0.0;"/><text fill="#000000" font-family="sans-serif" font-size="13" lengthAdjust="spacing" textLength="123" x="24" y="303.418">YamlSequenceNode</text><text fill="#000000" font-family="sans-serif" font-size="13" font-weight="bold" lengthAdjust="spacing" textLength="67" x="151" y="303.418">simplified</text><text fill="#000000" font-family="sans-serif" font-size="13" lengthAdjust="spacing" textLength="23" x="222" y="303.418">and</text><text fill="#000000" font-family="sans-serif" font-size="13" font-weight="bold" lengthAdjust="spacing" textLength="166" x="249" y="303.418">grouped per namespace</text><text fill="#000000" font-family="sans-serif" font-size="13" lengthAdjust="spacing" textLength="4" x="415" y="303.418">:</text><text fill="#000000" font-family="sans-serif" font-size="13" lengthAdjust="spacing" textLength="12" x="12" y="318.7285">&#160;&#160;&#160;</text><a href="YamlSequenceNode-diagram-simplified-grouped-per-namespace.svg" target="_top" title="YamlSequenceNode-diagram-simplified-grouped-per-namespace.svg" xlink:actuate="onRequest" xlink:href="YamlSequenceNode-diagram-simplified-grouped-per-namespace.svg" xlink:show="new" xlink:title="YamlSequenceNode-diagram-simplified-grouped-per-namespace.svg" xlink:type="simple"><text fill="#0000FF" font-family="sans-serif" font-size="13" lengthAdjust="spacing" text-decoration="underline" textLength="445" x="24" y="318.7285">YamlSequenceNode-diagram-simplified-grouped-per-namespace.svg</text></a><ellipse cx="17.5" cy="329.2813" fill="#000000" rx="2.5" ry="2.5" style="stroke:#000000;stroke-width:0.0;"/><text fill="#000000" font-family="sans-serif" font-size="13" lengthAdjust="spacing" textLength="78" x="24" y="334.0391">Full diagram</text><text fill="#000000" font-family="sans-serif" font-size="13" font-weight="bold" lengthAdjust="spacing" textLength="55" x="106" y="334.0391">detailed</text><text fill="#000000" font-family="sans-serif" font-size="13" lengthAdjust="spacing" textLength="23" x="165" y="334.0391">and</text><text fill="#000000" font-family="sans-serif" font-size="13" font-weight="bold" lengthAdjust="spacing" textLength="166" x="192" y="334.0391">grouped per namespace</text><text fill="#000000" font-family="sans-serif" font-size="13" lengthAdjust="spacing" textLength="4" x="358" y="334.0391">:</text><text fill="#000000" font-family="sans-serif" font-size="13" lengthAdjust="spacing" textLength="12" x="12" y="349.3496">&#160;&#160;&#160;</text><a href="full-diagram-detailed-grouped-per-namespace.svg" target="_top" title="full-diagram-detailed-grouped-per-namespace.svg" xlink:actuate="onRequest" xlink:href="full-diagram-detailed-grouped-per-namespace.svg" xlink:show="new" xlink:title="full-diagram-detailed-grouped-per-namespace.svg" xlink:type="simple"><text fill="#0000FF" font-family="sans-serif" font-size="13" lengthAdjust="spacing" text-decoration="underline" textLength="330" x="24" y="349.3496">full-diagram-detailed-grouped-per-namespace.svg</text></a><ellipse cx="17.5" cy="359.9023" fill="#000000" rx="2.5" ry="2.5" style="stroke:#000000;stroke-width:0.0;"/><text fill="#000000" font-family="sans-serif" font-size="13" lengthAdjust="spacing" textLength="41" x="24" y="364.6602">Home:</text><text fill="#000000" font-family="sans-serif" font-size="13" lengthAdjust="spacing" textLength="12" x="12" y="379.9707">&#160;&#160;&#160;</text><a href="index.html" target="_top" title="index.html" xlink:actuate="onRequest" xlink:href="index.html" xlink:show="new" xlink:title="index.html" xlink:type="simple"><text fill="#0000FF" font-family="sans-serif" font-size="13" lengthAdjust="spacing" text-decoration="underline" textLength="68" x="24" y="379.9707">index.html</text></a><line style="stroke:#181818;stroke-width:1.0;" x1="7" x2="211" y1="283.1943" y2="283.1943"/><line style="stroke:#181818;stroke-width:1.0;" x1="7" x2="211" y1="285.1943" y2="285.1943"/><text fill="#000000" font-family="sans-serif" font-size="13" lengthAdjust="spacing" textLength="74" x="211" y="287.6074">Select other</text><line style="stroke:#181818;stroke-width:1.0;" x1="285" x2="489" y1="283.1943" y2="283.1943"/><line style="stroke:#181818;stroke-width:1.0;" x1="285" x2="489" y1="285.1943" y2="285.1943"/></g><!--class YamlSequenceNode--><a href="YamlSequenceNode-diagram-detailed-grouped-per-namespace.svg" target="_top" title="YamlSequenceNode-diagram-detailed-grouped-per-namespace.svg" xlink:actuate="onRequest" xlink:href="YamlSequenceNode-diagram-detailed-grouped-per-namespace.svg" xlink:show="new" xlink:title="YamlSequenceNode-diagram-detailed-grouped-per-namespace.svg" xlink:type="simple"><g id="elem_YamlSequenceNode"><rect codeLine="4" fill="#FFFF00" height="48" id="YamlSequenceNode" rx="2.5" ry="2.5" style="stroke:#181818;stroke-width:0.5;" width="168" x="842" y="467.5547"/><ellipse cx="857" cy="483.5547" fill="#ADD1B2" rx="11" ry="11" style="stroke:#181818;stroke-width:1.0;"/><path d="M859.4731,489.6978 Q858.8921,489.9966 858.2529,490.146 Q857.6138,490.2954 856.9082,490.2954 Q854.4014,490.2954 853.0815,488.6436 Q851.7617,486.9917 851.7617,483.8706 Q851.7617,480.7412 853.0815,479.0894 Q854.4014,477.4375 856.9082,477.4375 Q857.6138,477.4375 858.2612,477.5869 Q858.9087,477.7363 859.4731,478.0352 L859.4731,480.7578 Q858.8423,480.1768 858.2488,479.907 Q857.6553,479.6372 857.0244,479.6372 Q855.6797,479.6372 854.9949,480.7039 Q854.3101,481.7705 854.3101,483.8706 Q854.3101,485.9624 854.9949,487.0291 Q855.6797,488.0957 857.0244,488.0957 Q857.6553,488.0957 858.2488,487.8259 Q858.8423,487.5562 859.4731,486.9751 Z " fill="#000000"/><text fill="#000000" font-family="sans-serif" font-size="14" lengthAdjust="spacing" textLength="136" x="871" y="488.8457">YamlSequenceNode</text><line style="stroke:#181818;stroke-width:0.5;" x1="843" x2="1009" y1="499.5547" y2="499.5547"/><line style="stroke:#181818;stroke-width:0.5;" x1="843" x2="1009" y1="507.5547" y2="507.5547"/></g></a><!--link CreateYml to YamlSequenceNode--><g id="link_CreateYml_YamlSequenceNode"><path codeLine="39" d="M926,408.0147 C926,408.0147 926,461.3847 926,461.3847 " fill="none" id="CreateYml-to-YamlSequenceNode" style="stroke:#909090;stroke-width:1.0;"/><polygon fill="#909090" points="926,466.3847,930,457.3847,926,461.3847,922,457.3847,926,466.3847" style="stroke:#909090;stroke-width:1.0;"/><text fill="#000000" font-family="sans-serif" font-size="13" lengthAdjust="spacing" textLength="29" x="896" y="431.273">uses</text></g><!--SRC=[nLRRRjf047tdAqRa8Isj7TI7IBK0gH15ZLJHIFIYAA1eiSUmobxStJK9YVhldJKN5qW3Y4G5P9drp9bpPcOzQs-vofXX4WHNwAOPWZPkh2kEEu7GiFm1em_rrXMJeeU_SbGnTdM2KAibw1WNcDHgm5H22oEZymmJoD20OX9jncAirHed7gHLKTeXLAzqRe0P91ycfWzSZQA-EW2zh_ggsJpdmg5fDWbAvn0p1R7WyIqWTsEofqlfOw6lj243Pkri5LBwdnOGnCTRoo8etN3JLmat63j8C4EL44MEDfo5xQ7mJxGFueFNu0abbijCy9HlrqAP083hwtMG8E5iH3KAIgXW3X4GHB242EraD1Xu7kUv431tsoER2mOfkI-ZBfotnVoi9Iu0E6NgFXmxAGQ3AZ0Bvq8pHzdjKXTKPhdVoDKpodVX04TJ54BVmMFbT-KOEa9RNqv6cSWCJhZExOtDXpTBjnl1hIlbGrShX276BBVe-s7Uf9PRe5_A5RTZJC9AwN6cNHVTfS5F2SkeVKZ2-j9-4XwV0GylL6gOTIQFNMxmYLXh5lk61c13ScRKqhCARS4FEmQPmoifjdCfRVTZLT02U0Sp_pUDL2kYfuKspUff_RJURbTR2NDbf6Y3oPcMZAlmx6-hzo3qQ8Hcq_gxuyA6NugdZHCVhlKsWfMuxRQFN6rDD4_c9WNBODNiOzr_gwqPzP1wRuK2vSBtUBIn4VQ6x2srmqxYmzwQt-uHKwFbXSneIDX3Y7Ebq7Hya-51E4nfDPMqipkqpGz26ZABBq38EdhDnGT1J9ZXR2WEuo6HfdXo44HnBa3geHSWykCbD57_8fDpXE9-Tzyxmqb91BsfTIZ3Yw_XDxntFulL1KeG412DZewMf9scu_zx5yCTdLo0sj41dJ4aaYwTGi7k5GTRYLtwhifOcQp_JW-PmJ4TCtRwmAlPUgf-ZXaKj2kria0rz_EDQkjVPAM2Y6ptDDzIyChkmpEuFffrwo1eRPwA808gcuK_]--></g></svg>