<?xml version="1.0" encoding="us-ascii" standalone="no"?><svg xmlns="http://www.w3.org/2000/svg" xmlns:xlink="http://www.w3.org/1999/xlink" contentStyleType="text/css" height="522px" preserveAspectRatio="none" style="width:1208px;height:522px;background:#FFFFFF;" version="1.1" viewBox="0 0 1208 522" width="1208px" zoomAndPan="magnify"><defs/><g><text fill="#000000" font-family="sans-serif" font-size="20" font-weight="bold" lengthAdjust="spacing" textLength="123" x="486.75" y="29.3359">YamlStream</text><text fill="#000000" font-family="sans-serif" font-size="20" font-weight="bold" lengthAdjust="spacing" textLength="84" x="616.75" y="29.3359">detailed</text><text fill="#000000" font-family="sans-serif" font-size="20" font-weight="bold" lengthAdjust="spacing" textLength="7" x="700.75" y="29.3359">&#160;</text><!--cluster DotNetPreAdapter--><g id="cluster_DotNetPreAdapter"><path d="M402,50.5547 L533,50.5547 A3.75,3.75 0 0 1 535.5,53.0547 L542.5,73.043 L1199,73.043 A2.5,2.5 0 0 1 1201.5,75.543 L1201.5,445.0547 A2.5,2.5 0 0 1 1199,447.5547 L402,447.5547 A2.5,2.5 0 0 1 399.5,445.0547 L399.5,53.0547 A2.5,2.5 0 0 1 402,50.5547 " fill="none" style="stroke:#000000;stroke-width:1.5;"/><line style="stroke:#000000;stroke-width:1.5;" x1="399.5" x2="542.5" y1="73.043" y2="73.043"/><text fill="#000000" font-family="sans-serif" font-size="14" font-weight="bold" lengthAdjust="spacing" textLength="130" x="403.5" y="66.0898">DotNetPreAdapter</text></g><!--cluster Infrastructure--><g id="cluster_Infrastructure"><path d="M426,93.5547 L526,93.5547 A3.75,3.75 0 0 1 528.5,96.0547 L535.5,116.043 L1175,116.043 A2.5,2.5 0 0 1 1177.5,118.543 L1177.5,421.0547 A2.5,2.5 0 0 1 1175,423.5547 L426,423.5547 A2.5,2.5 0 0 1 423.5,421.0547 L423.5,96.0547 A2.5,2.5 0 0 1 426,93.5547 " fill="none" style="stroke:#000000;stroke-width:1.5;"/><line style="stroke:#000000;stroke-width:1.5;" x1="423.5" x2="535.5" y1="116.043" y2="116.043"/><text fill="#000000" font-family="sans-serif" font-size="14" font-weight="bold" lengthAdjust="spacing" textLength="99" x="427.5" y="109.0898">Infrastructure</text></g><!--class CreateYml--><a href="DotNetPreAdapter.Infrastructure.CreateYml-diagram-detailed.svg" target="_top" title="DotNetPreAdapter.Infrastructure.CreateYml-diagram-detailed.svg" xlink:actuate="onRequest" xlink:href="DotNetPreAdapter.Infrastructure.CreateYml-diagram-detailed.svg" xlink:show="new" xlink:title="DotNetPreAdapter.Infrastructure.CreateYml-diagram-detailed.svg" xlink:type="simple"><g id="elem_CreateYml"><rect codeLine="6" fill="#F1F1F1" height="278.8359" id="CreateYml" rx="2.5" ry="2.5" style="stroke:#181818;stroke-width:0.5;" width="722" x="439.5" y="128.5547"/><ellipse cx="760.75" cy="144.5547" fill="#A9DCDF" rx="11" ry="11" style="stroke:#181818;stroke-width:1.0;"/><path d="M760.6133,139.9028 L759.4595,144.9746 L761.7754,144.9746 Z M759.1191,137.6616 L762.1157,137.6616 L765.4609,150.0547 L763.0122,150.0547 L762.2485,146.9917 L758.9697,146.9917 L758.2227,150.0547 L755.7739,150.0547 Z " fill="#000000"/><text fill="#000000" font-family="sans-serif" font-size="14" font-style="italic" lengthAdjust="spacing" textLength="71" x="781.25" y="149.8457">CreateYml</text><line style="stroke:#181818;stroke-width:0.5;" x1="440.5" x2="1160.5" y1="160.5547" y2="160.5547"/><ellipse cx="450.5" cy="174.2988" fill="#84BE84" rx="3" ry="3" style="stroke:#038048;stroke-width:1.0;"/><text fill="#000000" font-family="sans-serif" font-size="14" lengthAdjust="spacing" textLength="50" x="459.5" y="178.0898">Create(</text><text fill="#6060BB" font-family="sans-serif" font-size="14" lengthAdjust="spacing" textLength="641" x="509.5" y="178.0898">datastructure:DotNetPreAdapter.Domain.Datastructure, logger:DotNetPreAdapter.Utils.Logger</text><text fill="#000000" font-family="sans-serif" font-size="14" lengthAdjust="spacing" textLength="5" x="1150.5" y="178.0898">)</text><rect fill="none" height="6" style="stroke:#C82930;stroke-width:1.0;" width="6" x="447.5" y="187.7871"/><text fill="#909090" font-family="sans-serif" font-size="14" lengthAdjust="spacing" textLength="373" x="459.5" y="194.5781">Create.subDatastructureYmlNode: YamlSequenceNode</text><rect fill="none" height="6" style="stroke:#C82930;stroke-width:1.0;" width="6" x="447.5" y="204.2754"/><text fill="#909090" font-family="sans-serif" font-size="14" lengthAdjust="spacing" textLength="578" x="459.5" y="211.0664">Create.subDataStructure: DotNetPreAdapter.Domain.Datastructure.SubDataStructure</text><rect fill="none" height="6" style="stroke:#C82930;stroke-width:1.0;" width="6" x="447.5" y="220.7637"/><text fill="#909090" font-family="sans-serif" font-size="14" lengthAdjust="spacing" textLength="279" x="459.5" y="227.5547">Create.fromImports: YamlSequenceNode</text><rect fill="none" height="6" style="stroke:#C82930;stroke-width:1.0;" width="6" x="447.5" y="237.252"/><text fill="#909090" font-family="sans-serif" font-size="14" lengthAdjust="spacing" textLength="280" x="459.5" y="244.043">Create.innerClasses: YamlSequenceNode</text><rect fill="none" height="6" style="stroke:#C82930;stroke-width:1.0;" width="6" x="447.5" y="253.7402"/><text fill="#909090" font-family="sans-serif" font-size="14" lengthAdjust="spacing" textLength="306" x="459.5" y="260.5313">Create.anonymousCalls: YamlSequenceNode</text><rect fill="none" height="6" style="stroke:#C82930;stroke-width:1.0;" width="6" x="447.5" y="270.2285"/><text fill="#909090" font-family="sans-serif" font-size="14" lengthAdjust="spacing" textLength="276" x="459.5" y="277.0195">Create.baseClasses: YamlSequenceNode</text><rect fill="none" height="6" style="stroke:#C82930;stroke-width:1.0;" width="6" x="447.5" y="286.7168"/><text fill="#909090" font-family="sans-serif" font-size="14" lengthAdjust="spacing" textLength="236" x="459.5" y="293.5078">Create.statics: YamlSequenceNode</text><rect fill="none" height="6" style="stroke:#C82930;stroke-width:1.0;" width="6" x="447.5" y="303.2051"/><text fill="#909090" font-family="sans-serif" font-size="14" lengthAdjust="spacing" textLength="254" x="459.5" y="309.9961">Create.variables: YamlSequenceNode</text><rect fill="none" height="6" style="stroke:#C82930;stroke-width:1.0;" width="6" x="447.5" y="319.6934"/><text fill="#909090" font-family="sans-serif" font-size="14" lengthAdjust="spacing" textLength="253" x="459.5" y="326.4844">Create.methods: YamlSequenceNode</text><rect fill="none" height="6" style="stroke:#C82930;stroke-width:1.0;" width="6" x="447.5" y="336.1816"/><text fill="#909090" font-family="sans-serif" font-size="14" lengthAdjust="spacing" textLength="271" x="459.5" y="342.9727">Create.parameters: YamlSequenceNode</text><rect fill="none" height="6" style="stroke:#C82930;stroke-width:1.0;" width="6" x="447.5" y="352.6699"/><text fill="#909090" font-family="sans-serif" font-size="14" lengthAdjust="spacing" textLength="309" x="459.5" y="359.4609">Create.methodVariables: YamlSequenceNode</text><rect fill="none" height="6" style="stroke:#C82930;stroke-width:1.0;" width="6" x="447.5" y="369.1582"/><text fill="#909090" font-family="sans-serif" font-size="14" lengthAdjust="spacing" textLength="186" x="459.5" y="375.9492">Create.stream: YamlStream</text><rect fill="none" height="6" style="stroke:#C82930;stroke-width:1.0;" width="6" x="447.5" y="385.6465"/><text fill="#909090" font-family="sans-serif" font-size="14" lengthAdjust="spacing" textLength="240" x="459.5" y="392.4375">Create.writer: System.IO.TextWriter</text><line style="stroke:#181818;stroke-width:1.0;" x1="440.5" x2="1160.5" y1="399.3906" y2="399.3906"/></g></a><g id="elem_FloatingNote"><path d="M6,144.0547 L6,391.7129 L383,391.7129 L383,154.0547 L373,144.0547 L6,144.0547 " fill="#FEFFDD" style="stroke:#181818;stroke-width:0.5;"/><path d="M373,144.0547 L373,154.0547 L383,154.0547 L373,144.0547 " fill="#FEFFDD" style="stroke:#181818;stroke-width:1.0;"/><text fill="#000000" font-family="sans-serif" font-size="13" lengthAdjust="spacing" textLength="120" x="12" y="161.623">Your are analyzing:</text><text fill="#000000" font-family="sans-serif" font-size="13" lengthAdjust="spacing" textLength="74" x="12" y="176.9336">YamlStream</text><text fill="#000000" font-family="sans-serif" font-size="13" font-weight="bold" lengthAdjust="spacing" textLength="55" x="90" y="176.9336">detailed</text><text fill="#000000" font-family="sans-serif" font-size="13" lengthAdjust="spacing" textLength="4" x="145" y="176.9336">&#160;</text><text fill="#000000" font-family="sans-serif" font-size="13" lengthAdjust="spacing" textLength="4" x="12" y="192.2441">&#160;</text><text fill="#000000" font-family="sans-serif" font-size="13" lengthAdjust="spacing" textLength="229" x="12" y="222.8652">You can click either the namespaces</text><text fill="#000000" font-family="sans-serif" font-size="13" lengthAdjust="spacing" textLength="266" x="12" y="238.1758">or class names for filtering them and their</text><text fill="#000000" font-family="sans-serif" font-size="13" lengthAdjust="spacing" textLength="130" x="12" y="253.4863">direct dependencies.</text><text fill="#000000" font-family="sans-serif" font-size="13" lengthAdjust="spacing" textLength="4" x="12" y="268.7969">&#160;</text><line style="stroke:#181818;stroke-width:1.0;" x1="7" x2="178.5" y1="202.6416" y2="202.6416"/><line style="stroke:#181818;stroke-width:1.0;" x1="7" x2="178.5" y1="204.6416" y2="204.6416"/><text fill="#000000" font-family="sans-serif" font-size="13" lengthAdjust="spacing" textLength="32" x="178.5" y="207.0547">Filter</text><line style="stroke:#181818;stroke-width:1.0;" x1="210.5" x2="382" y1="202.6416" y2="202.6416"/><line style="stroke:#181818;stroke-width:1.0;" x1="210.5" x2="382" y1="204.6416" y2="204.6416"/><ellipse cx="17.5" cy="298.6602" fill="#000000" rx="2.5" ry="2.5" style="stroke:#000000;stroke-width:0.0;"/><text fill="#000000" font-family="sans-serif" font-size="13" lengthAdjust="spacing" textLength="74" x="24" y="303.418">YamlStream</text><text fill="#000000" font-family="sans-serif" font-size="13" font-weight="bold" lengthAdjust="spacing" textLength="67" x="102" y="303.418">simplified</text><text fill="#000000" font-family="sans-serif" font-size="13" lengthAdjust="spacing" textLength="4" x="173" y="303.418">:</text><text fill="#000000" font-family="sans-serif" font-size="13" lengthAdjust="spacing" textLength="12" x="12" y="318.7285">&#160;&#160;&#160;</text><a href="YamlStream-diagram-simplified.svg" target="_top" title="YamlStream-diagram-simplified.svg" xlink:actuate="onRequest" xlink:href="YamlStream-diagram-simplified.svg" xlink:show="new" xlink:title="YamlStream-diagram-simplified.svg" xlink:type="simple"><text fill="#0000FF" font-family="sans-serif" font-size="13" lengthAdjust="spacing" text-decoration="underline" textLength="230" x="24" y="318.7285">YamlStream-diagram-simplified.svg</text></a><ellipse cx="17.5" cy="329.2813" fill="#000000" rx="2.5" ry="2.5" style="stroke:#000000;stroke-width:0.0;"/><text fill="#000000" font-family="sans-serif" font-size="13" lengthAdjust="spacing" textLength="78" x="24" y="334.0391">Full diagram</text><text fill="#000000" font-family="sans-serif" font-size="13" font-weight="bold" lengthAdjust="spacing" textLength="55" x="106" y="334.0391">detailed</text><text fill="#000000" font-family="sans-serif" font-size="13" lengthAdjust="spacing" textLength="23" x="165" y="334.0391">and</text><text fill="#000000" font-family="sans-serif" font-size="13" font-weight="bold" lengthAdjust="spacing" textLength="166" x="192" y="334.0391">grouped per namespace</text><text fill="#000000" font-family="sans-serif" font-size="13" lengthAdjust="spacing" textLength="4" x="358" y="334.0391">:</text><text fill="#000000" font-family="sans-serif" font-size="13" lengthAdjust="spacing" textLength="12" x="12" y="349.3496">&#160;&#160;&#160;</text><a href="full-diagram-detailed-grouped-per-namespace.svg" target="_top" title="full-diagram-detailed-grouped-per-namespace.svg" xlink:actuate="onRequest" xlink:href="full-diagram-detailed-grouped-per-namespace.svg" xlink:show="new" xlink:title="full-diagram-detailed-grouped-per-namespace.svg" xlink:type="simple"><text fill="#0000FF" font-family="sans-serif" font-size="13" lengthAdjust="spacing" text-decoration="underline" textLength="330" x="24" y="349.3496">full-diagram-detailed-grouped-per-namespace.svg</text></a><ellipse cx="17.5" cy="359.9023" fill="#000000" rx="2.5" ry="2.5" style="stroke:#000000;stroke-width:0.0;"/><text fill="#000000" font-family="sans-serif" font-size="13" lengthAdjust="spacing" textLength="41" x="24" y="364.6602">Home:</text><text fill="#000000" font-family="sans-serif" font-size="13" lengthAdjust="spacing" textLength="12" x="12" y="379.9707">&#160;&#160;&#160;</text><a href="index.html" target="_top" title="index.html" xlink:actuate="onRequest" xlink:href="index.html" xlink:show="new" xlink:title="index.html" xlink:type="simple"><text fill="#0000FF" font-family="sans-serif" font-size="13" lengthAdjust="spacing" text-decoration="underline" textLength="68" x="24" y="379.9707">index.html</text></a><line style="stroke:#181818;stroke-width:1.0;" x1="7" x2="157.5" y1="283.1943" y2="283.1943"/><line style="stroke:#181818;stroke-width:1.0;" x1="7" x2="157.5" y1="285.1943" y2="285.1943"/><text fill="#000000" font-family="sans-serif" font-size="13" lengthAdjust="spacing" textLength="74" x="157.5" y="287.6074">Select other</text><line style="stroke:#181818;stroke-width:1.0;" x1="231.5" x2="382" y1="283.1943" y2="283.1943"/><line style="stroke:#181818;stroke-width:1.0;" x1="231.5" x2="382" y1="285.1943" y2="285.1943"/></g><!--class YamlStream--><a href="YamlStream-diagram-detailed.svg" target="_top" title="YamlStream-diagram-detailed.svg" xlink:actuate="onRequest" xlink:href="YamlStream-diagram-detailed.svg" xlink:show="new" xlink:title="YamlStream-diagram-detailed.svg" xlink:type="simple"><g id="elem_YamlStream"><rect codeLine="4" fill="#FFFF00" height="48" id="YamlStream" rx="2.5" ry="2.5" style="stroke:#181818;stroke-width:0.5;" width="114" x="743.5" y="467.5547"/><ellipse cx="758.5" cy="483.5547" fill="#ADD1B2" rx="11" ry="11" style="stroke:#181818;stroke-width:1.0;"/><path d="M760.9731,489.6978 Q760.3921,489.9966 759.7529,490.146 Q759.1138,490.2954 758.4082,490.2954 Q755.9014,490.2954 754.5815,488.6436 Q753.2617,486.9917 753.2617,483.8706 Q753.2617,480.7412 754.5815,479.0894 Q755.9014,477.4375 758.4082,477.4375 Q759.1138,477.4375 759.7612,477.5869 Q760.4087,477.7363 760.9731,478.0352 L760.9731,480.7578 Q760.3423,480.1768 759.7488,479.907 Q759.1553,479.6372 758.5244,479.6372 Q757.1797,479.6372 756.4949,480.7039 Q755.8101,481.7705 755.8101,483.8706 Q755.8101,485.9624 756.4949,487.0291 Q757.1797,488.0957 758.5244,488.0957 Q759.1553,488.0957 759.7488,487.8259 Q760.3423,487.5562 760.9731,486.9751 Z " fill="#000000"/><text fill="#000000" font-family="sans-serif" font-size="14" lengthAdjust="spacing" textLength="82" x="772.5" y="488.8457">YamlStream</text><line style="stroke:#181818;stroke-width:0.5;" x1="744.5" x2="856.5" y1="499.5547" y2="499.5547"/><line style="stroke:#181818;stroke-width:0.5;" x1="744.5" x2="856.5" y1="507.5547" y2="507.5547"/></g></a><!--link CreateYml to YamlStream--><g id="link_CreateYml_YamlStream"><path codeLine="30" d="M800.5,408.0147 C800.5,408.0147 800.5,461.3847 800.5,461.3847 " fill="none" id="CreateYml-to-YamlStream" style="stroke:#909090;stroke-width:1.0;"/><polygon fill="#909090" points="800.5,466.3847,804.5,457.3847,800.5,461.3847,796.5,457.3847,800.5,466.3847" style="stroke:#909090;stroke-width:1.0;"/><text fill="#000000" font-family="sans-serif" font-size="13" lengthAdjust="spacing" textLength="29" x="770.5" y="431.273">uses</text></g><!--SRC=[jLNRQjj047ttLmpEGrgrKamV0XMseKa83PIqu5u8jX_6qiXPiXTrTvN4AVttpahnhMceYbqRZ2oTEPVHxgox4Rf4YmgaqEGN9O6n_jfqlF2IeE_40wLlUiChL7BaBJ4mYdBoA2JbKGJzeu0OThJn1DqhKrb0Iu0QvU91w7awqS-LJlH43mRdGdgoWm7ZJ0KPQiYao6w0XByc2_m36XMv4ZDoN6Ci0z2vvYuK_B-eALWie1Lhv-52s8dEXQNCGqubwPnq9iWbZUo8P7XYWaWGZs3BfXEgbA8GjL7E003ZyHeHvmBdtBHuZKlSxNmw3KJdbPJm2DXE79n5qToQggGSIewtYXP5IvM2orVyo-BuiIZcedXLjDPyRnGj2GH7lK-klPBJQHVGmRaqwBazb_oEEatpDiB-CTTIjr60WmL9QUxWH-Td1m1dpblaxZLSPyPValzawLsE9R-8v48N5XbIPRwob9moiwSh9LcgDVOv9so1Gy8hQ90l-eNHRCH8OmVTuzvnx-IaEypHhpdJ9vfdHg7GoTacwZL8Cv-JVOh-ueLqoOVwQVyeo0rVrXvYs19_smlVxh0nbhXgjYN0cIvDJcdJUlfUyNAaSEUHiptbQ9KCMaLBHh_LjLSih54NgkI9u7OnBhGcUneM2-t4WzheXJALEqKfTsAQeQCz67AUDrQs4yKjMe4pkPiFHJooyvqewaE0U0tjmSZNVMHozKHADqPL-zexApX92gE5ywIIYu_9Pxhtt-gxIvOuPY8UPuSyabjzuBzX3w5UYs19ydeosW6x3HEMJucm1TV7HChOVuJ_PUHsse_lU7pGz7aQ3pTF44YXueq4lm00]--></g></svg>